solid OpenSCAD_Model
  facet normal 0.998027 0.0627883 0
    outer loop
      vertex 10 0 45
      vertex 9.92115 1.25333 -45
      vertex 9.92115 1.25333 45
    endloop
  endfacet
  facet normal 0.998027 0.0627883 0
    outer loop
      vertex 9.92115 1.25333 -45
      vertex 10 0 45
      vertex 10 0 -45
    endloop
  endfacet
  facet normal -0.998027 0.0627883 0
    outer loop
      vertex -10 0 -45
      vertex -9.92115 1.25333 45
      vertex -9.92115 1.25333 -45
    endloop
  endfacet
  facet normal -0.998027 0.0627883 0
    outer loop
      vertex -9.92115 1.25333 45
      vertex -10 0 -45
      vertex -10 0 45
    endloop
  endfacet
  facet normal 0 1 -0
    outer loop
      vertex 0.627905 9.98027 -45
      vertex -0.627905 9.98027 45
      vertex 0.627905 9.98027 45
    endloop
  endfacet
  facet normal 0 1 0
    outer loop
      vertex -0.627905 9.98027 45
      vertex 0.627905 9.98027 -45
      vertex -0.627905 9.98027 -45
    endloop
  endfacet
  facet normal 0 -1 0
    outer loop
      vertex -0.627905 -9.98027 -45
      vertex 0.627905 -9.98027 45
      vertex -0.627905 -9.98027 45
    endloop
  endfacet
  facet normal 0 -1 -0
    outer loop
      vertex 0.627905 -9.98027 45
      vertex -0.627905 -9.98027 -45
      vertex 0.627905 -9.98027 -45
    endloop
  endfacet
  facet normal 0.684545 0.728971 -0
    outer loop
      vertex 7.28969 6.84547 -45
      vertex 6.37424 7.70513 45
      vertex 7.28969 6.84547 45
    endloop
  endfacet
  facet normal 0.684545 0.728971 0
    outer loop
      vertex 6.37424 7.70513 45
      vertex 7.28969 6.84547 -45
      vertex 6.37424 7.70513 -45
    endloop
  endfacet
  facet normal -0.684545 0.728971 0
    outer loop
      vertex -6.37424 7.70513 -45
      vertex -7.28969 6.84547 45
      vertex -6.37424 7.70513 45
    endloop
  endfacet
  facet normal -0.684545 0.728971 0
    outer loop
      vertex -7.28969 6.84547 45
      vertex -6.37424 7.70513 -45
      vertex -7.28969 6.84547 -45
    endloop
  endfacet
  facet normal -0.368122 0.929777 0
    outer loop
      vertex -3.09017 9.51056 -45
      vertex -4.25779 9.04827 45
      vertex -3.09017 9.51056 45
    endloop
  endfacet
  facet normal -0.368122 0.929777 0
    outer loop
      vertex -4.25779 9.04827 45
      vertex -3.09017 9.51056 -45
      vertex -4.25779 9.04827 -45
    endloop
  endfacet
  facet normal 0.904831 -0.425771 0
    outer loop
      vertex 8.76307 -4.81754 45
      vertex 9.29776 -3.68124 -45
      vertex 9.29776 -3.68124 45
    endloop
  endfacet
  facet normal 0.904831 -0.425771 0
    outer loop
      vertex 9.29776 -3.68124 -45
      vertex 8.76307 -4.81754 45
      vertex 8.76307 -4.81754 -45
    endloop
  endfacet
  facet normal 0.904831 0.425771 0
    outer loop
      vertex 9.29776 3.68124 45
      vertex 8.76307 4.81754 -45
      vertex 8.76307 4.81754 45
    endloop
  endfacet
  facet normal 0.904831 0.425771 0
    outer loop
      vertex 8.76307 4.81754 -45
      vertex 9.29776 3.68124 45
      vertex 9.29776 3.68124 -45
    endloop
  endfacet
  facet normal 0.844325 0.535831 0
    outer loop
      vertex 8.76307 4.81754 45
      vertex 8.09017 5.87785 -45
      vertex 8.09017 5.87785 45
    endloop
  endfacet
  facet normal 0.844325 0.535831 0
    outer loop
      vertex 8.09017 5.87785 -45
      vertex 8.76307 4.81754 45
      vertex 8.76307 4.81754 -45
    endloop
  endfacet
  facet normal 0.368122 0.929777 -0
    outer loop
      vertex 4.25779 9.04827 -45
      vertex 3.09017 9.51056 45
      vertex 4.25779 9.04827 45
    endloop
  endfacet
  facet normal 0.368122 0.929777 0
    outer loop
      vertex 3.09017 9.51056 45
      vertex 4.25779 9.04827 -45
      vertex 3.09017 9.51056 -45
    endloop
  endfacet
  facet normal 0.248691 0.968583 -0
    outer loop
      vertex 3.09017 9.51056 -45
      vertex 1.87381 9.82287 45
      vertex 3.09017 9.51056 45
    endloop
  endfacet
  facet normal 0.248691 0.968583 0
    outer loop
      vertex 1.87381 9.82287 45
      vertex 3.09017 9.51056 -45
      vertex 1.87381 9.82287 -45
    endloop
  endfacet
  facet normal 0.481751 0.876308 -0
    outer loop
      vertex 5.35827 8.44328 -45
      vertex 4.25779 9.04827 45
      vertex 5.35827 8.44328 45
    endloop
  endfacet
  facet normal 0.481751 0.876308 0
    outer loop
      vertex 4.25779 9.04827 45
      vertex 5.35827 8.44328 -45
      vertex 4.25779 9.04827 -45
    endloop
  endfacet
  facet normal -0.904831 0.425771 0
    outer loop
      vertex -9.29776 3.68124 -45
      vertex -8.76307 4.81754 45
      vertex -8.76307 4.81754 -45
    endloop
  endfacet
  facet normal -0.904831 0.425771 0
    outer loop
      vertex -8.76307 4.81754 45
      vertex -9.29776 3.68124 -45
      vertex -9.29776 3.68124 45
    endloop
  endfacet
  facet normal -0.770515 0.637422 0
    outer loop
      vertex -8.09017 5.87785 -45
      vertex -7.28969 6.84547 45
      vertex -7.28969 6.84547 -45
    endloop
  endfacet
  facet normal -0.770515 0.637422 0
    outer loop
      vertex -7.28969 6.84547 45
      vertex -8.09017 5.87785 -45
      vertex -8.09017 5.87785 45
    endloop
  endfacet
  facet normal -0.951055 0.309021 0
    outer loop
      vertex -9.68583 2.4869 -45
      vertex -9.29776 3.68124 45
      vertex -9.29776 3.68124 -45
    endloop
  endfacet
  facet normal -0.951055 0.309021 0
    outer loop
      vertex -9.29776 3.68124 45
      vertex -9.68583 2.4869 -45
      vertex -9.68583 2.4869 45
    endloop
  endfacet
  facet normal -0.481751 0.876308 0
    outer loop
      vertex -4.25779 9.04827 -45
      vertex -5.35827 8.44328 45
      vertex -4.25779 9.04827 45
    endloop
  endfacet
  facet normal -0.481751 0.876308 0
    outer loop
      vertex -5.35827 8.44328 45
      vertex -4.25779 9.04827 -45
      vertex -5.35827 8.44328 -45
    endloop
  endfacet
  facet normal -0.125338 0.992114 0
    outer loop
      vertex -0.627905 9.98027 -45
      vertex -1.87381 9.82287 45
      vertex -0.627905 9.98027 45
    endloop
  endfacet
  facet normal -0.125338 0.992114 0
    outer loop
      vertex -1.87381 9.82287 45
      vertex -0.627905 9.98027 -45
      vertex -1.87381 9.82287 -45
    endloop
  endfacet
  facet normal 0.125338 -0.992114 0
    outer loop
      vertex 0.627905 -9.98027 -45
      vertex 1.87381 -9.82287 45
      vertex 0.627905 -9.98027 45
    endloop
  endfacet
  facet normal 0.125338 -0.992114 0
    outer loop
      vertex 1.87381 -9.82287 45
      vertex 0.627905 -9.98027 -45
      vertex 1.87381 -9.82287 -45
    endloop
  endfacet
  facet normal 0.368122 -0.929777 0
    outer loop
      vertex 3.09017 -9.51056 -45
      vertex 4.25779 -9.04827 45
      vertex 3.09017 -9.51056 45
    endloop
  endfacet
  facet normal 0.368122 -0.929777 0
    outer loop
      vertex 4.25779 -9.04827 45
      vertex 3.09017 -9.51056 -45
      vertex 4.25779 -9.04827 -45
    endloop
  endfacet
  facet normal 0.951055 0.309021 0
    outer loop
      vertex 9.68583 2.4869 45
      vertex 9.29776 3.68124 -45
      vertex 9.29776 3.68124 45
    endloop
  endfacet
  facet normal 0.951055 0.309021 0
    outer loop
      vertex 9.29776 3.68124 -45
      vertex 9.68583 2.4869 45
      vertex 9.68583 2.4869 -45
    endloop
  endfacet
  facet normal 0.982287 0.187384 0
    outer loop
      vertex 9.92115 1.25333 45
      vertex 9.68583 2.4869 -45
      vertex 9.68583 2.4869 45
    endloop
  endfacet
  facet normal 0.982287 0.187384 0
    outer loop
      vertex 9.68583 2.4869 -45
      vertex 9.92115 1.25333 45
      vertex 9.92115 1.25333 -45
    endloop
  endfacet
  facet normal 0.770515 0.637422 0
    outer loop
      vertex 8.09017 5.87785 45
      vertex 7.28969 6.84547 -45
      vertex 7.28969 6.84547 45
    endloop
  endfacet
  facet normal 0.770515 0.637422 0
    outer loop
      vertex 7.28969 6.84547 -45
      vertex 8.09017 5.87785 45
      vertex 8.09017 5.87785 -45
    endloop
  endfacet
  facet normal 0.125338 0.992114 -0
    outer loop
      vertex 1.87381 9.82287 -45
      vertex 0.627905 9.98027 45
      vertex 1.87381 9.82287 45
    endloop
  endfacet
  facet normal 0.125338 0.992114 0
    outer loop
      vertex 0.627905 9.98027 45
      vertex 1.87381 9.82287 -45
      vertex 0.627905 9.98027 -45
    endloop
  endfacet
  facet normal 0.587788 0.809015 -0
    outer loop
      vertex 6.37424 7.70513 -45
      vertex 5.35827 8.44328 45
      vertex 6.37424 7.70513 45
    endloop
  endfacet
  facet normal 0.587788 0.809015 0
    outer loop
      vertex 5.35827 8.44328 45
      vertex 6.37424 7.70513 -45
      vertex 5.35827 8.44328 -45
    endloop
  endfacet
  facet normal -0.844325 0.535831 0
    outer loop
      vertex -8.76307 4.81754 -45
      vertex -8.09017 5.87785 45
      vertex -8.09017 5.87785 -45
    endloop
  endfacet
  facet normal -0.844325 0.535831 0
    outer loop
      vertex -8.09017 5.87785 45
      vertex -8.76307 4.81754 -45
      vertex -8.76307 4.81754 45
    endloop
  endfacet
  facet normal -0.982287 0.187384 0
    outer loop
      vertex -9.92115 1.25333 -45
      vertex -9.68583 2.4869 45
      vertex -9.68583 2.4869 -45
    endloop
  endfacet
  facet normal -0.982287 0.187384 0
    outer loop
      vertex -9.68583 2.4869 45
      vertex -9.92115 1.25333 -45
      vertex -9.92115 1.25333 45
    endloop
  endfacet
  facet normal 0 0 1
    outer loop
      vertex 5 0 45
      vertex 10 0 45
      vertex 9.92115 1.25333 45
    endloop
  endfacet
  facet normal 0 0 1
    outer loop
      vertex 4.96057 0.626666 45
      vertex 9.92115 1.25333 45
      vertex 9.68583 2.4869 45
    endloop
  endfacet
  facet normal 0 0 1
    outer loop
      vertex 10 0 45
      vertex 5 0 45
      vertex 9.92115 -1.25333 45
    endloop
  endfacet
  facet normal 0 0 1
    outer loop
      vertex 4.84292 1.24345 45
      vertex 9.68583 2.4869 45
      vertex 9.29776 3.68124 45
    endloop
  endfacet
  facet normal -0 0 1
    outer loop
      vertex 4.96057 -0.626666 45
      vertex 9.92115 -1.25333 45
      vertex 5 0 45
    endloop
  endfacet
  facet normal 0 0 1
    outer loop
      vertex 4.64888 1.84062 45
      vertex 9.29776 3.68124 45
      vertex 8.76307 4.81754 45
    endloop
  endfacet
  facet normal 0 0 1
    outer loop
      vertex 9.92115 -1.25333 45
      vertex 4.96057 -0.626666 45
      vertex 9.68583 -2.4869 45
    endloop
  endfacet
  facet normal 0 0 1
    outer loop
      vertex 4.38153 2.40877 45
      vertex 8.76307 4.81754 45
      vertex 8.09017 5.87785 45
    endloop
  endfacet
  facet normal -0 0 1
    outer loop
      vertex 4.84292 -1.24345 45
      vertex 9.68583 -2.4869 45
      vertex 4.96057 -0.626666 45
    endloop
  endfacet
  facet normal 0 0 1
    outer loop
      vertex 4.04508 2.93893 45
      vertex 8.09017 5.87785 45
      vertex 7.28969 6.84547 45
    endloop
  endfacet
  facet normal 0 0 1
    outer loop
      vertex 9.68583 -2.4869 45
      vertex 4.84292 -1.24345 45
      vertex 9.29776 -3.68124 45
    endloop
  endfacet
  facet normal 0 0 1
    outer loop
      vertex 3.64484 3.42274 45
      vertex 7.28969 6.84547 45
      vertex 6.37424 7.70513 45
    endloop
  endfacet
  facet normal -0 0 1
    outer loop
      vertex 4.64888 -1.84062 45
      vertex 9.29776 -3.68124 45
      vertex 4.84292 -1.24345 45
    endloop
  endfacet
  facet normal 0 0 1
    outer loop
      vertex 3.18712 3.85257 45
      vertex 6.37424 7.70513 45
      vertex 5.35827 8.44328 45
    endloop
  endfacet
  facet normal 0 0 1
    outer loop
      vertex 9.29776 -3.68124 45
      vertex 4.64888 -1.84062 45
      vertex 8.76307 -4.81754 45
    endloop
  endfacet
  facet normal -0 0 1
    outer loop
      vertex 4.38153 -2.40877 45
      vertex 8.76307 -4.81754 45
      vertex 4.64888 -1.84062 45
    endloop
  endfacet
  facet normal 0 0 1
    outer loop
      vertex 9.92115 1.25333 45
      vertex 4.96057 0.626666 45
      vertex 5 0 45
    endloop
  endfacet
  facet normal 0 0 1
    outer loop
      vertex 9.68583 2.4869 45
      vertex 4.84292 1.24345 45
      vertex 4.96057 0.626666 45
    endloop
  endfacet
  facet normal 0 0 1
    outer loop
      vertex 9.29776 3.68124 45
      vertex 4.64888 1.84062 45
      vertex 4.84292 1.24345 45
    endloop
  endfacet
  facet normal 0 0 1
    outer loop
      vertex 8.76307 4.81754 45
      vertex 4.38153 2.40877 45
      vertex 4.64888 1.84062 45
    endloop
  endfacet
  facet normal 0 0 1
    outer loop
      vertex 2.67913 4.22164 45
      vertex 5.35827 8.44328 45
      vertex 4.25779 9.04827 45
    endloop
  endfacet
  facet normal 0 0 1
    outer loop
      vertex 8.09017 5.87785 45
      vertex 4.04508 2.93893 45
      vertex 4.38153 2.40877 45
    endloop
  endfacet
  facet normal 0 0 1
    outer loop
      vertex 7.28969 6.84547 45
      vertex 3.64484 3.42274 45
      vertex 4.04508 2.93893 45
    endloop
  endfacet
  facet normal 0 0 1
    outer loop
      vertex 6.37424 7.70513 45
      vertex 3.18712 3.85257 45
      vertex 3.64484 3.42274 45
    endloop
  endfacet
  facet normal 0 0 1
    outer loop
      vertex 2.1289 4.52413 45
      vertex 4.25779 9.04827 45
      vertex 3.09017 9.51056 45
    endloop
  endfacet
  facet normal 0 0 1
    outer loop
      vertex 5.35827 8.44328 45
      vertex 2.67913 4.22164 45
      vertex 3.18712 3.85257 45
    endloop
  endfacet
  facet normal 0 0 1
    outer loop
      vertex 4.25779 9.04827 45
      vertex 2.1289 4.52413 45
      vertex 2.67913 4.22164 45
    endloop
  endfacet
  facet normal 0 0 1
    outer loop
      vertex 1.54508 4.75528 45
      vertex 3.09017 9.51056 45
      vertex 1.87381 9.82287 45
    endloop
  endfacet
  facet normal 0 0 1
    outer loop
      vertex 3.09017 9.51056 45
      vertex 1.54508 4.75528 45
      vertex 2.1289 4.52413 45
    endloop
  endfacet
  facet normal 0 0 1
    outer loop
      vertex 1.87381 9.82287 45
      vertex 0.936906 4.91144 45
      vertex 1.54508 4.75528 45
    endloop
  endfacet
  facet normal 0 0 1
    outer loop
      vertex 0.627905 9.98027 45
      vertex 0.936906 4.91144 45
      vertex 1.87381 9.82287 45
    endloop
  endfacet
  facet normal 0 0 1
    outer loop
      vertex 0.627905 9.98027 45
      vertex 0.313952 4.99013 45
      vertex 0.936906 4.91144 45
    endloop
  endfacet
  facet normal 0 0 1
    outer loop
      vertex 0.627905 9.98027 45
      vertex -0.313952 4.99013 45
      vertex 0.313952 4.99013 45
    endloop
  endfacet
  facet normal -0 0 1
    outer loop
      vertex -0.627905 9.98027 45
      vertex -0.313952 4.99013 45
      vertex 0.627905 9.98027 45
    endloop
  endfacet
  facet normal 0 0 1
    outer loop
      vertex -0.627905 9.98027 45
      vertex -0.936906 4.91144 45
      vertex -0.313952 4.99013 45
    endloop
  endfacet
  facet normal -0 0 1
    outer loop
      vertex -1.87381 9.82287 45
      vertex -0.936906 4.91144 45
      vertex -0.627905 9.98027 45
    endloop
  endfacet
  facet normal 0 0 1
    outer loop
      vertex -0.936906 4.91144 45
      vertex -1.87381 9.82287 45
      vertex -1.54508 4.75528 45
    endloop
  endfacet
  facet normal -0 0 1
    outer loop
      vertex -3.09017 9.51056 45
      vertex -1.54508 4.75528 45
      vertex -1.87381 9.82287 45
    endloop
  endfacet
  facet normal 0 0 1
    outer loop
      vertex -1.54508 4.75528 45
      vertex -3.09017 9.51056 45
      vertex -2.1289 4.52413 45
    endloop
  endfacet
  facet normal -0 0 1
    outer loop
      vertex -4.25779 9.04827 45
      vertex -2.1289 4.52413 45
      vertex -3.09017 9.51056 45
    endloop
  endfacet
  facet normal 0 0 1
    outer loop
      vertex -2.1289 4.52413 45
      vertex -4.25779 9.04827 45
      vertex -2.67913 4.22164 45
    endloop
  endfacet
  facet normal -0 0 1
    outer loop
      vertex -5.35827 8.44328 45
      vertex -2.67913 4.22164 45
      vertex -4.25779 9.04827 45
    endloop
  endfacet
  facet normal 0 0 1
    outer loop
      vertex -2.67913 4.22164 45
      vertex -5.35827 8.44328 45
      vertex -3.18712 3.85257 45
    endloop
  endfacet
  facet normal -0 0 1
    outer loop
      vertex -6.37424 7.70513 45
      vertex -3.18712 3.85257 45
      vertex -5.35827 8.44328 45
    endloop
  endfacet
  facet normal 0 0 1
    outer loop
      vertex -3.18712 3.85257 45
      vertex -6.37424 7.70513 45
      vertex -3.64484 3.42274 45
    endloop
  endfacet
  facet normal -0 0 1
    outer loop
      vertex -7.28969 6.84547 45
      vertex -3.64484 3.42274 45
      vertex -6.37424 7.70513 45
    endloop
  endfacet
  facet normal 0 0 1
    outer loop
      vertex -3.64484 3.42274 45
      vertex -7.28969 6.84547 45
      vertex -4.04508 2.93893 45
    endloop
  endfacet
  facet normal -0 0 1
    outer loop
      vertex -8.09017 5.87785 45
      vertex -4.04508 2.93893 45
      vertex -7.28969 6.84547 45
    endloop
  endfacet
  facet normal -0 0 1
    outer loop
      vertex -8.76307 4.81754 45
      vertex -4.38153 2.40877 45
      vertex -8.09017 5.87785 45
    endloop
  endfacet
  facet normal 0 0 1
    outer loop
      vertex -4.04508 2.93893 45
      vertex -8.09017 5.87785 45
      vertex -4.38153 2.40877 45
    endloop
  endfacet
  facet normal 0 0 1
    outer loop
      vertex 8.76307 -4.81754 45
      vertex 4.38153 -2.40877 45
      vertex 8.09017 -5.87785 45
    endloop
  endfacet
  facet normal -0 0 1
    outer loop
      vertex 4.04508 -2.93893 45
      vertex 8.09017 -5.87785 45
      vertex 4.38153 -2.40877 45
    endloop
  endfacet
  facet normal 0 0 1
    outer loop
      vertex 8.09017 -5.87785 45
      vertex 4.04508 -2.93893 45
      vertex 7.28969 -6.84547 45
    endloop
  endfacet
  facet normal -0 0 1
    outer loop
      vertex 3.64484 -3.42274 45
      vertex 7.28969 -6.84547 45
      vertex 4.04508 -2.93893 45
    endloop
  endfacet
  facet normal 0 0 1
    outer loop
      vertex 7.28969 -6.84547 45
      vertex 3.64484 -3.42274 45
      vertex 6.37424 -7.70513 45
    endloop
  endfacet
  facet normal -0 0 1
    outer loop
      vertex 3.18712 -3.85257 45
      vertex 6.37424 -7.70513 45
      vertex 3.64484 -3.42274 45
    endloop
  endfacet
  facet normal 0 0 1
    outer loop
      vertex 6.37424 -7.70513 45
      vertex 3.18712 -3.85257 45
      vertex 5.35827 -8.44328 45
    endloop
  endfacet
  facet normal -0 0 1
    outer loop
      vertex 2.67913 -4.22164 45
      vertex 5.35827 -8.44328 45
      vertex 3.18712 -3.85257 45
    endloop
  endfacet
  facet normal 0 0 1
    outer loop
      vertex 5.35827 -8.44328 45
      vertex 2.67913 -4.22164 45
      vertex 4.25779 -9.04827 45
    endloop
  endfacet
  facet normal -0 0 1
    outer loop
      vertex 2.1289 -4.52413 45
      vertex 4.25779 -9.04827 45
      vertex 2.67913 -4.22164 45
    endloop
  endfacet
  facet normal 0 0 1
    outer loop
      vertex 4.25779 -9.04827 45
      vertex 2.1289 -4.52413 45
      vertex 3.09017 -9.51056 45
    endloop
  endfacet
  facet normal -0 0 1
    outer loop
      vertex 1.54508 -4.75528 45
      vertex 3.09017 -9.51056 45
      vertex 2.1289 -4.52413 45
    endloop
  endfacet
  facet normal 0 0 1
    outer loop
      vertex 3.09017 -9.51056 45
      vertex 1.54508 -4.75528 45
      vertex 1.87381 -9.82287 45
    endloop
  endfacet
  facet normal -0 0 1
    outer loop
      vertex 0.936906 -4.91144 45
      vertex 1.87381 -9.82287 45
      vertex 1.54508 -4.75528 45
    endloop
  endfacet
  facet normal 0 0 1
    outer loop
      vertex 0.936906 -4.91144 45
      vertex 0.627905 -9.98027 45
      vertex 1.87381 -9.82287 45
    endloop
  endfacet
  facet normal -0 0 1
    outer loop
      vertex 0.313952 -4.99013 45
      vertex 0.627905 -9.98027 45
      vertex 0.936906 -4.91144 45
    endloop
  endfacet
  facet normal -0 0 1
    outer loop
      vertex -0.313952 -4.99013 45
      vertex 0.627905 -9.98027 45
      vertex 0.313952 -4.99013 45
    endloop
  endfacet
  facet normal 0 0 1
    outer loop
      vertex -0.313952 -4.99013 45
      vertex -0.627905 -9.98027 45
      vertex 0.627905 -9.98027 45
    endloop
  endfacet
  facet normal 0 0 1
    outer loop
      vertex -0.936906 -4.91144 45
      vertex -0.627905 -9.98027 45
      vertex -0.313952 -4.99013 45
    endloop
  endfacet
  facet normal 0 0 1
    outer loop
      vertex -1.87381 -9.82287 45
      vertex -0.936906 -4.91144 45
      vertex -1.54508 -4.75528 45
    endloop
  endfacet
  facet normal 0 0 1
    outer loop
      vertex -0.936906 -4.91144 45
      vertex -1.87381 -9.82287 45
      vertex -0.627905 -9.98027 45
    endloop
  endfacet
  facet normal 0 0 1
    outer loop
      vertex -3.09017 -9.51056 45
      vertex -1.54508 -4.75528 45
      vertex -2.1289 -4.52413 45
    endloop
  endfacet
  facet normal 0 0 1
    outer loop
      vertex -4.25779 -9.04827 45
      vertex -2.1289 -4.52413 45
      vertex -2.67913 -4.22164 45
    endloop
  endfacet
  facet normal 0 0 1
    outer loop
      vertex -1.54508 -4.75528 45
      vertex -3.09017 -9.51056 45
      vertex -1.87381 -9.82287 45
    endloop
  endfacet
  facet normal 0 0 1
    outer loop
      vertex -5.35827 -8.44328 45
      vertex -2.67913 -4.22164 45
      vertex -3.18712 -3.85257 45
    endloop
  endfacet
  facet normal 0 0 1
    outer loop
      vertex -6.37424 -7.70513 45
      vertex -3.18712 -3.85257 45
      vertex -3.64484 -3.42274 45
    endloop
  endfacet
  facet normal 0 0 1
    outer loop
      vertex -7.28969 -6.84547 45
      vertex -3.64484 -3.42274 45
      vertex -4.04508 -2.93893 45
    endloop
  endfacet
  facet normal 0 0 1
    outer loop
      vertex -2.1289 -4.52413 45
      vertex -4.25779 -9.04827 45
      vertex -3.09017 -9.51056 45
    endloop
  endfacet
  facet normal 0 0 1
    outer loop
      vertex -8.09017 -5.87785 45
      vertex -4.04508 -2.93893 45
      vertex -4.38153 -2.40877 45
    endloop
  endfacet
  facet normal 0 0 1
    outer loop
      vertex -8.76307 -4.81754 45
      vertex -4.38153 -2.40877 45
      vertex -4.64888 -1.84062 45
    endloop
  endfacet
  facet normal 0 0 1
    outer loop
      vertex -9.29776 -3.68124 45
      vertex -4.64888 -1.84062 45
      vertex -4.84292 -1.24345 45
    endloop
  endfacet
  facet normal 0 0 1
    outer loop
      vertex -9.68583 -2.4869 45
      vertex -4.84292 -1.24345 45
      vertex -4.96057 -0.626666 45
    endloop
  endfacet
  facet normal 0 0 1
    outer loop
      vertex -2.67913 -4.22164 45
      vertex -5.35827 -8.44328 45
      vertex -4.25779 -9.04827 45
    endloop
  endfacet
  facet normal 0 0 1
    outer loop
      vertex -9.92115 -1.25333 45
      vertex -4.96057 -0.626666 45
      vertex -5 0 45
    endloop
  endfacet
  facet normal 0 0 1
    outer loop
      vertex -4.38153 2.40877 45
      vertex -8.76307 4.81754 45
      vertex -4.64888 1.84062 45
    endloop
  endfacet
  facet normal -0 0 1
    outer loop
      vertex -9.29776 3.68124 45
      vertex -4.64888 1.84062 45
      vertex -8.76307 4.81754 45
    endloop
  endfacet
  facet normal 0 0 1
    outer loop
      vertex -3.18712 -3.85257 45
      vertex -6.37424 -7.70513 45
      vertex -5.35827 -8.44328 45
    endloop
  endfacet
  facet normal 0 0 1
    outer loop
      vertex -4.64888 1.84062 45
      vertex -9.29776 3.68124 45
      vertex -4.84292 1.24345 45
    endloop
  endfacet
  facet normal 0 0 1
    outer loop
      vertex -3.64484 -3.42274 45
      vertex -7.28969 -6.84547 45
      vertex -6.37424 -7.70513 45
    endloop
  endfacet
  facet normal -0 0 1
    outer loop
      vertex -9.68583 2.4869 45
      vertex -4.84292 1.24345 45
      vertex -9.29776 3.68124 45
    endloop
  endfacet
  facet normal 0 0 1
    outer loop
      vertex -4.04508 -2.93893 45
      vertex -8.09017 -5.87785 45
      vertex -7.28969 -6.84547 45
    endloop
  endfacet
  facet normal 0 0 1
    outer loop
      vertex -4.84292 1.24345 45
      vertex -9.68583 2.4869 45
      vertex -4.96057 0.626666 45
    endloop
  endfacet
  facet normal 0 0 1
    outer loop
      vertex -4.38153 -2.40877 45
      vertex -8.76307 -4.81754 45
      vertex -8.09017 -5.87785 45
    endloop
  endfacet
  facet normal -0 0 1
    outer loop
      vertex -9.92115 1.25333 45
      vertex -4.96057 0.626666 45
      vertex -9.68583 2.4869 45
    endloop
  endfacet
  facet normal 0 0 1
    outer loop
      vertex -4.64888 -1.84062 45
      vertex -9.29776 -3.68124 45
      vertex -8.76307 -4.81754 45
    endloop
  endfacet
  facet normal 0 0 1
    outer loop
      vertex -4.96057 0.626666 45
      vertex -9.92115 1.25333 45
      vertex -5 0 45
    endloop
  endfacet
  facet normal 0 0 1
    outer loop
      vertex -4.84292 -1.24345 45
      vertex -9.68583 -2.4869 45
      vertex -9.29776 -3.68124 45
    endloop
  endfacet
  facet normal 0 0 1
    outer loop
      vertex -10 0 45
      vertex -5 0 45
      vertex -9.92115 1.25333 45
    endloop
  endfacet
  facet normal 0 0 1
    outer loop
      vertex -4.96057 -0.626666 45
      vertex -9.92115 -1.25333 45
      vertex -9.68583 -2.4869 45
    endloop
  endfacet
  facet normal 0 0 1
    outer loop
      vertex -5 0 45
      vertex -10 0 45
      vertex -9.92115 -1.25333 45
    endloop
  endfacet
  facet normal -0.587788 0.809015 0
    outer loop
      vertex -5.35827 8.44328 -45
      vertex -6.37424 7.70513 45
      vertex -5.35827 8.44328 45
    endloop
  endfacet
  facet normal -0.587788 0.809015 0
    outer loop
      vertex -6.37424 7.70513 45
      vertex -5.35827 8.44328 -45
      vertex -6.37424 7.70513 -45
    endloop
  endfacet
  facet normal -0.248691 0.968583 0
    outer loop
      vertex -1.87381 9.82287 -45
      vertex -3.09017 9.51056 45
      vertex -1.87381 9.82287 45
    endloop
  endfacet
  facet normal -0.248691 0.968583 0
    outer loop
      vertex -3.09017 9.51056 45
      vertex -1.87381 9.82287 -45
      vertex -3.09017 9.51056 -45
    endloop
  endfacet
  facet normal 0.998027 -0.0627883 0
    outer loop
      vertex 9.92115 -1.25333 45
      vertex 10 0 -45
      vertex 10 0 45
    endloop
  endfacet
  facet normal 0.998027 -0.0627883 0
    outer loop
      vertex 10 0 -45
      vertex 9.92115 -1.25333 45
      vertex 9.92115 -1.25333 -45
    endloop
  endfacet
  facet normal 0.481751 -0.876308 0
    outer loop
      vertex 4.25779 -9.04827 -45
      vertex 5.35827 -8.44328 45
      vertex 4.25779 -9.04827 45
    endloop
  endfacet
  facet normal 0.481751 -0.876308 0
    outer loop
      vertex 5.35827 -8.44328 45
      vertex 4.25779 -9.04827 -45
      vertex 5.35827 -8.44328 -45
    endloop
  endfacet
  facet normal 0.770515 -0.637422 0
    outer loop
      vertex 7.28969 -6.84547 45
      vertex 8.09017 -5.87785 -45
      vertex 8.09017 -5.87785 45
    endloop
  endfacet
  facet normal 0.770515 -0.637422 0
    outer loop
      vertex 8.09017 -5.87785 -45
      vertex 7.28969 -6.84547 45
      vertex 7.28969 -6.84547 -45
    endloop
  endfacet
  facet normal 0.951055 -0.309021 0
    outer loop
      vertex 9.29776 -3.68124 45
      vertex 9.68583 -2.4869 -45
      vertex 9.68583 -2.4869 45
    endloop
  endfacet
  facet normal 0.951055 -0.309021 0
    outer loop
      vertex 9.68583 -2.4869 -45
      vertex 9.29776 -3.68124 45
      vertex 9.29776 -3.68124 -45
    endloop
  endfacet
  facet normal 0.982287 -0.187384 0
    outer loop
      vertex 9.68583 -2.4869 45
      vertex 9.92115 -1.25333 -45
      vertex 9.92115 -1.25333 45
    endloop
  endfacet
  facet normal 0.982287 -0.187384 0
    outer loop
      vertex 9.92115 -1.25333 -45
      vertex 9.68583 -2.4869 45
      vertex 9.68583 -2.4869 -45
    endloop
  endfacet
  facet normal -0.684545 -0.728971 0
    outer loop
      vertex -7.28969 -6.84547 -45
      vertex -6.37424 -7.70513 45
      vertex -7.28969 -6.84547 45
    endloop
  endfacet
  facet normal -0.684545 -0.728971 -0
    outer loop
      vertex -6.37424 -7.70513 45
      vertex -7.28969 -6.84547 -45
      vertex -6.37424 -7.70513 -45
    endloop
  endfacet
  facet normal -0.904831 -0.425771 0
    outer loop
      vertex -8.76307 -4.81754 -45
      vertex -9.29776 -3.68124 45
      vertex -9.29776 -3.68124 -45
    endloop
  endfacet
  facet normal -0.904831 -0.425771 0
    outer loop
      vertex -9.29776 -3.68124 45
      vertex -8.76307 -4.81754 -45
      vertex -8.76307 -4.81754 45
    endloop
  endfacet
  facet normal -0.770515 -0.637422 0
    outer loop
      vertex -7.28969 -6.84547 -45
      vertex -8.09017 -5.87785 45
      vertex -8.09017 -5.87785 -45
    endloop
  endfacet
  facet normal -0.770515 -0.637422 0
    outer loop
      vertex -8.09017 -5.87785 45
      vertex -7.28969 -6.84547 -45
      vertex -7.28969 -6.84547 45
    endloop
  endfacet
  facet normal 0 0 -1
    outer loop
      vertex 5 0 -45
      vertex 10 0 -45
      vertex 9.92115 -1.25333 -45
    endloop
  endfacet
  facet normal 0 0 -1
    outer loop
      vertex 4.96057 -0.626666 -45
      vertex 9.92115 -1.25333 -45
      vertex 9.68583 -2.4869 -45
    endloop
  endfacet
  facet normal 0 0 -1
    outer loop
      vertex 10 0 -45
      vertex 5 0 -45
      vertex 9.92115 1.25333 -45
    endloop
  endfacet
  facet normal 0 0 -1
    outer loop
      vertex 4.84292 -1.24345 -45
      vertex 9.68583 -2.4869 -45
      vertex 9.29776 -3.68124 -45
    endloop
  endfacet
  facet normal 0 0 -1
    outer loop
      vertex 4.96057 0.626666 -45
      vertex 9.92115 1.25333 -45
      vertex 5 0 -45
    endloop
  endfacet
  facet normal 0 0 -1
    outer loop
      vertex 4.64888 -1.84062 -45
      vertex 9.29776 -3.68124 -45
      vertex 8.76307 -4.81754 -45
    endloop
  endfacet
  facet normal -0 0 -1
    outer loop
      vertex 9.92115 1.25333 -45
      vertex 4.96057 0.626666 -45
      vertex 9.68583 2.4869 -45
    endloop
  endfacet
  facet normal 0 0 -1
    outer loop
      vertex 4.38153 -2.40877 -45
      vertex 8.76307 -4.81754 -45
      vertex 8.09017 -5.87785 -45
    endloop
  endfacet
  facet normal 0 0 -1
    outer loop
      vertex 4.84292 1.24345 -45
      vertex 9.68583 2.4869 -45
      vertex 4.96057 0.626666 -45
    endloop
  endfacet
  facet normal 0 0 -1
    outer loop
      vertex 4.04508 -2.93893 -45
      vertex 8.09017 -5.87785 -45
      vertex 7.28969 -6.84547 -45
    endloop
  endfacet
  facet normal -0 0 -1
    outer loop
      vertex 9.68583 2.4869 -45
      vertex 4.84292 1.24345 -45
      vertex 9.29776 3.68124 -45
    endloop
  endfacet
  facet normal 0 0 -1
    outer loop
      vertex 3.64484 -3.42274 -45
      vertex 7.28969 -6.84547 -45
      vertex 6.37424 -7.70513 -45
    endloop
  endfacet
  facet normal 0 0 -1
    outer loop
      vertex 4.64888 1.84062 -45
      vertex 9.29776 3.68124 -45
      vertex 4.84292 1.24345 -45
    endloop
  endfacet
  facet normal 0 0 -1
    outer loop
      vertex 3.18712 -3.85257 -45
      vertex 6.37424 -7.70513 -45
      vertex 5.35827 -8.44328 -45
    endloop
  endfacet
  facet normal -0 0 -1
    outer loop
      vertex 9.29776 3.68124 -45
      vertex 4.64888 1.84062 -45
      vertex 8.76307 4.81754 -45
    endloop
  endfacet
  facet normal 0 0 -1
    outer loop
      vertex 4.38153 2.40877 -45
      vertex 8.76307 4.81754 -45
      vertex 4.64888 1.84062 -45
    endloop
  endfacet
  facet normal 0 0 -1
    outer loop
      vertex 9.92115 -1.25333 -45
      vertex 4.96057 -0.626666 -45
      vertex 5 0 -45
    endloop
  endfacet
  facet normal 0 0 -1
    outer loop
      vertex 9.68583 -2.4869 -45
      vertex 4.84292 -1.24345 -45
      vertex 4.96057 -0.626666 -45
    endloop
  endfacet
  facet normal 0 0 -1
    outer loop
      vertex 9.29776 -3.68124 -45
      vertex 4.64888 -1.84062 -45
      vertex 4.84292 -1.24345 -45
    endloop
  endfacet
  facet normal 0 0 -1
    outer loop
      vertex 8.76307 -4.81754 -45
      vertex 4.38153 -2.40877 -45
      vertex 4.64888 -1.84062 -45
    endloop
  endfacet
  facet normal 0 0 -1
    outer loop
      vertex 2.67913 -4.22164 -45
      vertex 5.35827 -8.44328 -45
      vertex 4.25779 -9.04827 -45
    endloop
  endfacet
  facet normal 0 0 -1
    outer loop
      vertex 8.09017 -5.87785 -45
      vertex 4.04508 -2.93893 -45
      vertex 4.38153 -2.40877 -45
    endloop
  endfacet
  facet normal 0 0 -1
    outer loop
      vertex 7.28969 -6.84547 -45
      vertex 3.64484 -3.42274 -45
      vertex 4.04508 -2.93893 -45
    endloop
  endfacet
  facet normal 0 0 -1
    outer loop
      vertex 6.37424 -7.70513 -45
      vertex 3.18712 -3.85257 -45
      vertex 3.64484 -3.42274 -45
    endloop
  endfacet
  facet normal 0 0 -1
    outer loop
      vertex 2.1289 -4.52413 -45
      vertex 4.25779 -9.04827 -45
      vertex 3.09017 -9.51056 -45
    endloop
  endfacet
  facet normal 0 0 -1
    outer loop
      vertex 5.35827 -8.44328 -45
      vertex 2.67913 -4.22164 -45
      vertex 3.18712 -3.85257 -45
    endloop
  endfacet
  facet normal 0 0 -1
    outer loop
      vertex 4.25779 -9.04827 -45
      vertex 2.1289 -4.52413 -45
      vertex 2.67913 -4.22164 -45
    endloop
  endfacet
  facet normal 0 0 -1
    outer loop
      vertex 1.54508 -4.75528 -45
      vertex 3.09017 -9.51056 -45
      vertex 1.87381 -9.82287 -45
    endloop
  endfacet
  facet normal 0 0 -1
    outer loop
      vertex 3.09017 -9.51056 -45
      vertex 1.54508 -4.75528 -45
      vertex 2.1289 -4.52413 -45
    endloop
  endfacet
  facet normal 0 0 -1
    outer loop
      vertex 1.87381 -9.82287 -45
      vertex 0.936906 -4.91144 -45
      vertex 1.54508 -4.75528 -45
    endloop
  endfacet
  facet normal 0 0 -1
    outer loop
      vertex 0.627905 -9.98027 -45
      vertex 0.936906 -4.91144 -45
      vertex 1.87381 -9.82287 -45
    endloop
  endfacet
  facet normal 0 0 -1
    outer loop
      vertex 0.627905 -9.98027 -45
      vertex 0.313952 -4.99013 -45
      vertex 0.936906 -4.91144 -45
    endloop
  endfacet
  facet normal 0 0 -1
    outer loop
      vertex 0.627905 -9.98027 -45
      vertex -0.313952 -4.99013 -45
      vertex 0.313952 -4.99013 -45
    endloop
  endfacet
  facet normal 0 0 -1
    outer loop
      vertex -0.627905 -9.98027 -45
      vertex -0.313952 -4.99013 -45
      vertex 0.627905 -9.98027 -45
    endloop
  endfacet
  facet normal 0 0 -1
    outer loop
      vertex -0.627905 -9.98027 -45
      vertex -0.936906 -4.91144 -45
      vertex -0.313952 -4.99013 -45
    endloop
  endfacet
  facet normal 0 0 -1
    outer loop
      vertex -1.87381 -9.82287 -45
      vertex -0.936906 -4.91144 -45
      vertex -0.627905 -9.98027 -45
    endloop
  endfacet
  facet normal -0 0 -1
    outer loop
      vertex -0.936906 -4.91144 -45
      vertex -1.87381 -9.82287 -45
      vertex -1.54508 -4.75528 -45
    endloop
  endfacet
  facet normal 0 0 -1
    outer loop
      vertex -3.09017 -9.51056 -45
      vertex -1.54508 -4.75528 -45
      vertex -1.87381 -9.82287 -45
    endloop
  endfacet
  facet normal -0 0 -1
    outer loop
      vertex -1.54508 -4.75528 -45
      vertex -3.09017 -9.51056 -45
      vertex -2.1289 -4.52413 -45
    endloop
  endfacet
  facet normal 0 0 -1
    outer loop
      vertex -4.25779 -9.04827 -45
      vertex -2.1289 -4.52413 -45
      vertex -3.09017 -9.51056 -45
    endloop
  endfacet
  facet normal -0 0 -1
    outer loop
      vertex -2.1289 -4.52413 -45
      vertex -4.25779 -9.04827 -45
      vertex -2.67913 -4.22164 -45
    endloop
  endfacet
  facet normal 0 0 -1
    outer loop
      vertex -5.35827 -8.44328 -45
      vertex -2.67913 -4.22164 -45
      vertex -4.25779 -9.04827 -45
    endloop
  endfacet
  facet normal -0 0 -1
    outer loop
      vertex -2.67913 -4.22164 -45
      vertex -5.35827 -8.44328 -45
      vertex -3.18712 -3.85257 -45
    endloop
  endfacet
  facet normal 0 0 -1
    outer loop
      vertex -6.37424 -7.70513 -45
      vertex -3.18712 -3.85257 -45
      vertex -5.35827 -8.44328 -45
    endloop
  endfacet
  facet normal -0 0 -1
    outer loop
      vertex -3.18712 -3.85257 -45
      vertex -6.37424 -7.70513 -45
      vertex -3.64484 -3.42274 -45
    endloop
  endfacet
  facet normal 0 0 -1
    outer loop
      vertex -7.28969 -6.84547 -45
      vertex -3.64484 -3.42274 -45
      vertex -6.37424 -7.70513 -45
    endloop
  endfacet
  facet normal -0 0 -1
    outer loop
      vertex -3.64484 -3.42274 -45
      vertex -7.28969 -6.84547 -45
      vertex -4.04508 -2.93893 -45
    endloop
  endfacet
  facet normal 0 0 -1
    outer loop
      vertex -8.09017 -5.87785 -45
      vertex -4.04508 -2.93893 -45
      vertex -7.28969 -6.84547 -45
    endloop
  endfacet
  facet normal 0 0 -1
    outer loop
      vertex -8.76307 -4.81754 -45
      vertex -4.38153 -2.40877 -45
      vertex -8.09017 -5.87785 -45
    endloop
  endfacet
  facet normal -0 0 -1
    outer loop
      vertex -4.04508 -2.93893 -45
      vertex -8.09017 -5.87785 -45
      vertex -4.38153 -2.40877 -45
    endloop
  endfacet
  facet normal -0 0 -1
    outer loop
      vertex 8.76307 4.81754 -45
      vertex 4.38153 2.40877 -45
      vertex 8.09017 5.87785 -45
    endloop
  endfacet
  facet normal 0 0 -1
    outer loop
      vertex 4.04508 2.93893 -45
      vertex 8.09017 5.87785 -45
      vertex 4.38153 2.40877 -45
    endloop
  endfacet
  facet normal -0 0 -1
    outer loop
      vertex 8.09017 5.87785 -45
      vertex 4.04508 2.93893 -45
      vertex 7.28969 6.84547 -45
    endloop
  endfacet
  facet normal 0 0 -1
    outer loop
      vertex 3.64484 3.42274 -45
      vertex 7.28969 6.84547 -45
      vertex 4.04508 2.93893 -45
    endloop
  endfacet
  facet normal -0 0 -1
    outer loop
      vertex 7.28969 6.84547 -45
      vertex 3.64484 3.42274 -45
      vertex 6.37424 7.70513 -45
    endloop
  endfacet
  facet normal 0 0 -1
    outer loop
      vertex 3.18712 3.85257 -45
      vertex 6.37424 7.70513 -45
      vertex 3.64484 3.42274 -45
    endloop
  endfacet
  facet normal -0 0 -1
    outer loop
      vertex 6.37424 7.70513 -45
      vertex 3.18712 3.85257 -45
      vertex 5.35827 8.44328 -45
    endloop
  endfacet
  facet normal 0 0 -1
    outer loop
      vertex 2.67913 4.22164 -45
      vertex 5.35827 8.44328 -45
      vertex 3.18712 3.85257 -45
    endloop
  endfacet
  facet normal -0 0 -1
    outer loop
      vertex 5.35827 8.44328 -45
      vertex 2.67913 4.22164 -45
      vertex 4.25779 9.04827 -45
    endloop
  endfacet
  facet normal 0 0 -1
    outer loop
      vertex 2.1289 4.52413 -45
      vertex 4.25779 9.04827 -45
      vertex 2.67913 4.22164 -45
    endloop
  endfacet
  facet normal -0 0 -1
    outer loop
      vertex 4.25779 9.04827 -45
      vertex 2.1289 4.52413 -45
      vertex 3.09017 9.51056 -45
    endloop
  endfacet
  facet normal 0 0 -1
    outer loop
      vertex 1.54508 4.75528 -45
      vertex 3.09017 9.51056 -45
      vertex 2.1289 4.52413 -45
    endloop
  endfacet
  facet normal -0 0 -1
    outer loop
      vertex 3.09017 9.51056 -45
      vertex 1.54508 4.75528 -45
      vertex 1.87381 9.82287 -45
    endloop
  endfacet
  facet normal 0 0 -1
    outer loop
      vertex 0.936906 4.91144 -45
      vertex 1.87381 9.82287 -45
      vertex 1.54508 4.75528 -45
    endloop
  endfacet
  facet normal 0 0 -1
    outer loop
      vertex 0.936906 4.91144 -45
      vertex 0.627905 9.98027 -45
      vertex 1.87381 9.82287 -45
    endloop
  endfacet
  facet normal 0 0 -1
    outer loop
      vertex 0.313952 4.99013 -45
      vertex 0.627905 9.98027 -45
      vertex 0.936906 4.91144 -45
    endloop
  endfacet
  facet normal 0 0 -1
    outer loop
      vertex -0.313952 4.99013 -45
      vertex 0.627905 9.98027 -45
      vertex 0.313952 4.99013 -45
    endloop
  endfacet
  facet normal 0 0 -1
    outer loop
      vertex -0.313952 4.99013 -45
      vertex -0.627905 9.98027 -45
      vertex 0.627905 9.98027 -45
    endloop
  endfacet
  facet normal 0 0 -1
    outer loop
      vertex -0.936906 4.91144 -45
      vertex -0.627905 9.98027 -45
      vertex -0.313952 4.99013 -45
    endloop
  endfacet
  facet normal 0 0 -1
    outer loop
      vertex -1.87381 9.82287 -45
      vertex -0.936906 4.91144 -45
      vertex -1.54508 4.75528 -45
    endloop
  endfacet
  facet normal 0 0 -1
    outer loop
      vertex -0.936906 4.91144 -45
      vertex -1.87381 9.82287 -45
      vertex -0.627905 9.98027 -45
    endloop
  endfacet
  facet normal 0 0 -1
    outer loop
      vertex -3.09017 9.51056 -45
      vertex -1.54508 4.75528 -45
      vertex -2.1289 4.52413 -45
    endloop
  endfacet
  facet normal 0 0 -1
    outer loop
      vertex -4.25779 9.04827 -45
      vertex -2.1289 4.52413 -45
      vertex -2.67913 4.22164 -45
    endloop
  endfacet
  facet normal 0 0 -1
    outer loop
      vertex -1.54508 4.75528 -45
      vertex -3.09017 9.51056 -45
      vertex -1.87381 9.82287 -45
    endloop
  endfacet
  facet normal 0 0 -1
    outer loop
      vertex -5.35827 8.44328 -45
      vertex -2.67913 4.22164 -45
      vertex -3.18712 3.85257 -45
    endloop
  endfacet
  facet normal 0 0 -1
    outer loop
      vertex -6.37424 7.70513 -45
      vertex -3.18712 3.85257 -45
      vertex -3.64484 3.42274 -45
    endloop
  endfacet
  facet normal 0 0 -1
    outer loop
      vertex -7.28969 6.84547 -45
      vertex -3.64484 3.42274 -45
      vertex -4.04508 2.93893 -45
    endloop
  endfacet
  facet normal 0 0 -1
    outer loop
      vertex -2.1289 4.52413 -45
      vertex -4.25779 9.04827 -45
      vertex -3.09017 9.51056 -45
    endloop
  endfacet
  facet normal 0 0 -1
    outer loop
      vertex -8.09017 5.87785 -45
      vertex -4.04508 2.93893 -45
      vertex -4.38153 2.40877 -45
    endloop
  endfacet
  facet normal 0 0 -1
    outer loop
      vertex -8.76307 4.81754 -45
      vertex -4.38153 2.40877 -45
      vertex -4.64888 1.84062 -45
    endloop
  endfacet
  facet normal 0 0 -1
    outer loop
      vertex -9.29776 3.68124 -45
      vertex -4.64888 1.84062 -45
      vertex -4.84292 1.24345 -45
    endloop
  endfacet
  facet normal 0 0 -1
    outer loop
      vertex -9.68583 2.4869 -45
      vertex -4.84292 1.24345 -45
      vertex -4.96057 0.626666 -45
    endloop
  endfacet
  facet normal 0 0 -1
    outer loop
      vertex -2.67913 4.22164 -45
      vertex -5.35827 8.44328 -45
      vertex -4.25779 9.04827 -45
    endloop
  endfacet
  facet normal 0 0 -1
    outer loop
      vertex -9.92115 1.25333 -45
      vertex -4.96057 0.626666 -45
      vertex -5 0 -45
    endloop
  endfacet
  facet normal -0 0 -1
    outer loop
      vertex -4.38153 -2.40877 -45
      vertex -8.76307 -4.81754 -45
      vertex -4.64888 -1.84062 -45
    endloop
  endfacet
  facet normal 0 0 -1
    outer loop
      vertex -9.29776 -3.68124 -45
      vertex -4.64888 -1.84062 -45
      vertex -8.76307 -4.81754 -45
    endloop
  endfacet
  facet normal 0 0 -1
    outer loop
      vertex -3.18712 3.85257 -45
      vertex -6.37424 7.70513 -45
      vertex -5.35827 8.44328 -45
    endloop
  endfacet
  facet normal -0 0 -1
    outer loop
      vertex -4.64888 -1.84062 -45
      vertex -9.29776 -3.68124 -45
      vertex -4.84292 -1.24345 -45
    endloop
  endfacet
  facet normal 0 0 -1
    outer loop
      vertex -3.64484 3.42274 -45
      vertex -7.28969 6.84547 -45
      vertex -6.37424 7.70513 -45
    endloop
  endfacet
  facet normal 0 0 -1
    outer loop
      vertex -9.68583 -2.4869 -45
      vertex -4.84292 -1.24345 -45
      vertex -9.29776 -3.68124 -45
    endloop
  endfacet
  facet normal 0 0 -1
    outer loop
      vertex -4.04508 2.93893 -45
      vertex -8.09017 5.87785 -45
      vertex -7.28969 6.84547 -45
    endloop
  endfacet
  facet normal -0 0 -1
    outer loop
      vertex -4.84292 -1.24345 -45
      vertex -9.68583 -2.4869 -45
      vertex -4.96057 -0.626666 -45
    endloop
  endfacet
  facet normal 0 0 -1
    outer loop
      vertex -4.38153 2.40877 -45
      vertex -8.76307 4.81754 -45
      vertex -8.09017 5.87785 -45
    endloop
  endfacet
  facet normal 0 0 -1
    outer loop
      vertex -9.92115 -1.25333 -45
      vertex -4.96057 -0.626666 -45
      vertex -9.68583 -2.4869 -45
    endloop
  endfacet
  facet normal 0 0 -1
    outer loop
      vertex -4.64888 1.84062 -45
      vertex -9.29776 3.68124 -45
      vertex -8.76307 4.81754 -45
    endloop
  endfacet
  facet normal -0 0 -1
    outer loop
      vertex -4.96057 -0.626666 -45
      vertex -9.92115 -1.25333 -45
      vertex -5 0 -45
    endloop
  endfacet
  facet normal 0 0 -1
    outer loop
      vertex -4.84292 1.24345 -45
      vertex -9.68583 2.4869 -45
      vertex -9.29776 3.68124 -45
    endloop
  endfacet
  facet normal 0 0 -1
    outer loop
      vertex -10 0 -45
      vertex -5 0 -45
      vertex -9.92115 -1.25333 -45
    endloop
  endfacet
  facet normal 0 0 -1
    outer loop
      vertex -4.96057 0.626666 -45
      vertex -9.92115 1.25333 -45
      vertex -9.68583 2.4869 -45
    endloop
  endfacet
  facet normal 0 0 -1
    outer loop
      vertex -5 0 -45
      vertex -10 0 -45
      vertex -9.92115 1.25333 -45
    endloop
  endfacet
  facet normal 0.844325 -0.535831 0
    outer loop
      vertex 8.09017 -5.87785 45
      vertex 8.76307 -4.81754 -45
      vertex 8.76307 -4.81754 45
    endloop
  endfacet
  facet normal 0.844325 -0.535831 0
    outer loop
      vertex 8.76307 -4.81754 -45
      vertex 8.09017 -5.87785 45
      vertex 8.09017 -5.87785 -45
    endloop
  endfacet
  facet normal -0.951055 -0.309021 0
    outer loop
      vertex -9.29776 -3.68124 -45
      vertex -9.68583 -2.4869 45
      vertex -9.68583 -2.4869 -45
    endloop
  endfacet
  facet normal -0.951055 -0.309021 0
    outer loop
      vertex -9.68583 -2.4869 45
      vertex -9.29776 -3.68124 -45
      vertex -9.29776 -3.68124 45
    endloop
  endfacet
  facet normal 0.248691 -0.968583 0
    outer loop
      vertex 1.87381 -9.82287 -45
      vertex 3.09017 -9.51056 45
      vertex 1.87381 -9.82287 45
    endloop
  endfacet
  facet normal 0.248691 -0.968583 0
    outer loop
      vertex 3.09017 -9.51056 45
      vertex 1.87381 -9.82287 -45
      vertex 3.09017 -9.51056 -45
    endloop
  endfacet
  facet normal 0.684545 -0.728971 0
    outer loop
      vertex 6.37424 -7.70513 -45
      vertex 7.28969 -6.84547 45
      vertex 6.37424 -7.70513 45
    endloop
  endfacet
  facet normal 0.684545 -0.728971 0
    outer loop
      vertex 7.28969 -6.84547 45
      vertex 6.37424 -7.70513 -45
      vertex 7.28969 -6.84547 -45
    endloop
  endfacet
  facet normal 0.587788 -0.809015 0
    outer loop
      vertex 5.35827 -8.44328 -45
      vertex 6.37424 -7.70513 45
      vertex 5.35827 -8.44328 45
    endloop
  endfacet
  facet normal 0.587788 -0.809015 0
    outer loop
      vertex 6.37424 -7.70513 45
      vertex 5.35827 -8.44328 -45
      vertex 6.37424 -7.70513 -45
    endloop
  endfacet
  facet normal -0.125338 -0.992114 0
    outer loop
      vertex -1.87381 -9.82287 -45
      vertex -0.627905 -9.98027 45
      vertex -1.87381 -9.82287 45
    endloop
  endfacet
  facet normal -0.125338 -0.992114 -0
    outer loop
      vertex -0.627905 -9.98027 45
      vertex -1.87381 -9.82287 -45
      vertex -0.627905 -9.98027 -45
    endloop
  endfacet
  facet normal -0.248691 -0.968583 0
    outer loop
      vertex -3.09017 -9.51056 -45
      vertex -1.87381 -9.82287 45
      vertex -3.09017 -9.51056 45
    endloop
  endfacet
  facet normal -0.248691 -0.968583 -0
    outer loop
      vertex -1.87381 -9.82287 45
      vertex -3.09017 -9.51056 -45
      vertex -1.87381 -9.82287 -45
    endloop
  endfacet
  facet normal -0.844325 -0.535831 0
    outer loop
      vertex -8.09017 -5.87785 -45
      vertex -8.76307 -4.81754 45
      vertex -8.76307 -4.81754 -45
    endloop
  endfacet
  facet normal -0.844325 -0.535831 0
    outer loop
      vertex -8.76307 -4.81754 45
      vertex -8.09017 -5.87785 -45
      vertex -8.09017 -5.87785 45
    endloop
  endfacet
  facet normal -0.982287 -0.187384 0
    outer loop
      vertex -9.68583 -2.4869 -45
      vertex -9.92115 -1.25333 45
      vertex -9.92115 -1.25333 -45
    endloop
  endfacet
  facet normal -0.982287 -0.187384 0
    outer loop
      vertex -9.92115 -1.25333 45
      vertex -9.68583 -2.4869 -45
      vertex -9.68583 -2.4869 45
    endloop
  endfacet
  facet normal -0.998027 -0.0627883 0
    outer loop
      vertex -9.92115 -1.25333 -45
      vertex -10 0 45
      vertex -10 0 -45
    endloop
  endfacet
  facet normal -0.998027 -0.0627883 0
    outer loop
      vertex -10 0 45
      vertex -9.92115 -1.25333 -45
      vertex -9.92115 -1.25333 45
    endloop
  endfacet
  facet normal -0.481751 -0.876308 0
    outer loop
      vertex -5.35827 -8.44328 -45
      vertex -4.25779 -9.04827 45
      vertex -5.35827 -8.44328 45
    endloop
  endfacet
  facet normal -0.481751 -0.876308 -0
    outer loop
      vertex -4.25779 -9.04827 45
      vertex -5.35827 -8.44328 -45
      vertex -4.25779 -9.04827 -45
    endloop
  endfacet
  facet normal -0.368122 -0.929777 0
    outer loop
      vertex -4.25779 -9.04827 -45
      vertex -3.09017 -9.51056 45
      vertex -4.25779 -9.04827 45
    endloop
  endfacet
  facet normal -0.368122 -0.929777 -0
    outer loop
      vertex -3.09017 -9.51056 45
      vertex -4.25779 -9.04827 -45
      vertex -3.09017 -9.51056 -45
    endloop
  endfacet
  facet normal -0.587788 -0.809015 0
    outer loop
      vertex -6.37424 -7.70513 -45
      vertex -5.35827 -8.44328 45
      vertex -6.37424 -7.70513 45
    endloop
  endfacet
  facet normal -0.587788 -0.809015 -0
    outer loop
      vertex -5.35827 -8.44328 45
      vertex -6.37424 -7.70513 -45
      vertex -5.35827 -8.44328 -45
    endloop
  endfacet
  facet normal -0.998026 -0.0627961 0
    outer loop
      vertex 5 0 -45
      vertex 4.96057 0.626666 45
      vertex 4.96057 0.626666 -45
    endloop
  endfacet
  facet normal -0.998026 -0.0627961 0
    outer loop
      vertex 4.96057 0.626666 45
      vertex 5 0 -45
      vertex 5 0 45
    endloop
  endfacet
  facet normal 0.998026 -0.0627961 0
    outer loop
      vertex -5 0 45
      vertex -4.96057 0.626666 -45
      vertex -4.96057 0.626666 45
    endloop
  endfacet
  facet normal 0.998026 -0.0627961 0
    outer loop
      vertex -4.96057 0.626666 -45
      vertex -5 0 45
      vertex -5 0 -45
    endloop
  endfacet
  facet normal 0 -1 0
    outer loop
      vertex -0.313952 4.99013 -45
      vertex 0.313952 4.99013 45
      vertex -0.313952 4.99013 45
    endloop
  endfacet
  facet normal 0 -1 -0
    outer loop
      vertex 0.313952 4.99013 45
      vertex -0.313952 4.99013 -45
      vertex 0.313952 4.99013 -45
    endloop
  endfacet
  facet normal 0 1 -0
    outer loop
      vertex 0.313952 -4.99013 -45
      vertex -0.313952 -4.99013 45
      vertex 0.313952 -4.99013 45
    endloop
  endfacet
  facet normal 0 1 0
    outer loop
      vertex -0.313952 -4.99013 45
      vertex 0.313952 -4.99013 -45
      vertex -0.313952 -4.99013 -45
    endloop
  endfacet
  facet normal -0.684549 -0.728967 0
    outer loop
      vertex 3.18712 3.85257 -45
      vertex 3.64484 3.42274 45
      vertex 3.18712 3.85257 45
    endloop
  endfacet
  facet normal -0.684549 -0.728967 -0
    outer loop
      vertex 3.64484 3.42274 45
      vertex 3.18712 3.85257 -45
      vertex 3.64484 3.42274 -45
    endloop
  endfacet
  facet normal 0.684549 -0.728967 0
    outer loop
      vertex -3.64484 3.42274 -45
      vertex -3.18712 3.85257 45
      vertex -3.64484 3.42274 45
    endloop
  endfacet
  facet normal 0.684549 -0.728967 0
    outer loop
      vertex -3.18712 3.85257 45
      vertex -3.64484 3.42274 -45
      vertex -3.18712 3.85257 -45
    endloop
  endfacet
  facet normal 0.368124 -0.929777 0
    outer loop
      vertex -2.1289 4.52413 -45
      vertex -1.54508 4.75528 45
      vertex -2.1289 4.52413 45
    endloop
  endfacet
  facet normal 0.368124 -0.929777 0
    outer loop
      vertex -1.54508 4.75528 45
      vertex -2.1289 4.52413 -45
      vertex -1.54508 4.75528 -45
    endloop
  endfacet
  facet normal -0.904828 -0.425778 0
    outer loop
      vertex 4.64888 1.84062 -45
      vertex 4.38153 2.40877 45
      vertex 4.38153 2.40877 -45
    endloop
  endfacet
  facet normal -0.904828 -0.425778 0
    outer loop
      vertex 4.38153 2.40877 45
      vertex 4.64888 1.84062 -45
      vertex 4.64888 1.84062 45
    endloop
  endfacet
  facet normal -0.98229 -0.187369 0
    outer loop
      vertex 4.96057 0.626666 -45
      vertex 4.84292 1.24345 45
      vertex 4.84292 1.24345 -45
    endloop
  endfacet
  facet normal -0.98229 -0.187369 0
    outer loop
      vertex 4.84292 1.24345 45
      vertex 4.96057 0.626666 -45
      vertex 4.96057 0.626666 45
    endloop
  endfacet
  facet normal -0.368124 -0.929777 0
    outer loop
      vertex 1.54508 4.75528 -45
      vertex 2.1289 4.52413 45
      vertex 1.54508 4.75528 45
    endloop
  endfacet
  facet normal -0.368124 -0.929777 -0
    outer loop
      vertex 2.1289 4.52413 45
      vertex 1.54508 4.75528 -45
      vertex 2.1289 4.52413 -45
    endloop
  endfacet
  facet normal -0.248701 -0.96858 0
    outer loop
      vertex 0.936906 4.91144 -45
      vertex 1.54508 4.75528 45
      vertex 0.936906 4.91144 45
    endloop
  endfacet
  facet normal -0.248701 -0.96858 -0
    outer loop
      vertex 1.54508 4.75528 45
      vertex 0.936906 4.91144 -45
      vertex 1.54508 4.75528 -45
    endloop
  endfacet
  facet normal -0.481752 -0.876308 0
    outer loop
      vertex 2.1289 4.52413 -45
      vertex 2.67913 4.22164 45
      vertex 2.1289 4.52413 45
    endloop
  endfacet
  facet normal -0.481752 -0.876308 -0
    outer loop
      vertex 2.67913 4.22164 45
      vertex 2.1289 4.52413 -45
      vertex 2.67913 4.22164 -45
    endloop
  endfacet
  facet normal 0.904828 -0.425778 0
    outer loop
      vertex -4.64888 1.84062 45
      vertex -4.38153 2.40877 -45
      vertex -4.38153 2.40877 45
    endloop
  endfacet
  facet normal 0.904828 -0.425778 0
    outer loop
      vertex -4.38153 2.40877 -45
      vertex -4.64888 1.84062 45
      vertex -4.64888 1.84062 -45
    endloop
  endfacet
  facet normal 0.770515 -0.637422 0
    outer loop
      vertex -4.04508 2.93893 45
      vertex -3.64484 3.42274 -45
      vertex -3.64484 3.42274 45
    endloop
  endfacet
  facet normal 0.770515 -0.637422 0
    outer loop
      vertex -3.64484 3.42274 -45
      vertex -4.04508 2.93893 45
      vertex -4.04508 2.93893 -45
    endloop
  endfacet
  facet normal 0.951053 -0.309028 0
    outer loop
      vertex -4.84292 1.24345 45
      vertex -4.64888 1.84062 -45
      vertex -4.64888 1.84062 45
    endloop
  endfacet
  facet normal 0.951053 -0.309028 0
    outer loop
      vertex -4.64888 1.84062 -45
      vertex -4.84292 1.24345 45
      vertex -4.84292 1.24345 -45
    endloop
  endfacet
  facet normal 0.248701 -0.96858 0
    outer loop
      vertex -1.54508 4.75528 -45
      vertex -0.936906 4.91144 45
      vertex -1.54508 4.75528 45
    endloop
  endfacet
  facet normal 0.248701 -0.96858 0
    outer loop
      vertex -0.936906 4.91144 45
      vertex -1.54508 4.75528 -45
      vertex -0.936906 4.91144 -45
    endloop
  endfacet
  facet normal -0.125322 0.992116 0
    outer loop
      vertex 0.936906 -4.91144 -45
      vertex 0.313952 -4.99013 45
      vertex 0.936906 -4.91144 45
    endloop
  endfacet
  facet normal -0.125322 0.992116 0
    outer loop
      vertex 0.313952 -4.99013 45
      vertex 0.936906 -4.91144 -45
      vertex 0.313952 -4.99013 -45
    endloop
  endfacet
  facet normal -0.951053 -0.309028 0
    outer loop
      vertex 4.84292 1.24345 -45
      vertex 4.64888 1.84062 45
      vertex 4.64888 1.84062 -45
    endloop
  endfacet
  facet normal -0.951053 -0.309028 0
    outer loop
      vertex 4.64888 1.84062 45
      vertex 4.84292 1.24345 -45
      vertex 4.84292 1.24345 45
    endloop
  endfacet
  facet normal -0.770515 -0.637422 0
    outer loop
      vertex 4.04508 2.93893 -45
      vertex 3.64484 3.42274 45
      vertex 3.64484 3.42274 -45
    endloop
  endfacet
  facet normal -0.770515 -0.637422 0
    outer loop
      vertex 3.64484 3.42274 45
      vertex 4.04508 2.93893 -45
      vertex 4.04508 2.93893 45
    endloop
  endfacet
  facet normal -0.844328 -0.535827 0
    outer loop
      vertex 4.38153 2.40877 -45
      vertex 4.04508 2.93893 45
      vertex 4.04508 2.93893 -45
    endloop
  endfacet
  facet normal -0.844328 -0.535827 0
    outer loop
      vertex 4.04508 2.93893 45
      vertex 4.38153 2.40877 -45
      vertex 4.38153 2.40877 45
    endloop
  endfacet
  facet normal -0.125322 -0.992116 0
    outer loop
      vertex 0.313952 4.99013 -45
      vertex 0.936906 4.91144 45
      vertex 0.313952 4.99013 45
    endloop
  endfacet
  facet normal -0.125322 -0.992116 -0
    outer loop
      vertex 0.936906 4.91144 45
      vertex 0.313952 4.99013 -45
      vertex 0.936906 4.91144 -45
    endloop
  endfacet
  facet normal -0.587779 -0.809022 0
    outer loop
      vertex 2.67913 4.22164 -45
      vertex 3.18712 3.85257 45
      vertex 2.67913 4.22164 45
    endloop
  endfacet
  facet normal -0.587779 -0.809022 -0
    outer loop
      vertex 3.18712 3.85257 45
      vertex 2.67913 4.22164 -45
      vertex 3.18712 3.85257 -45
    endloop
  endfacet
  facet normal 0.844328 -0.535827 0
    outer loop
      vertex -4.38153 2.40877 45
      vertex -4.04508 2.93893 -45
      vertex -4.04508 2.93893 45
    endloop
  endfacet
  facet normal 0.844328 -0.535827 0
    outer loop
      vertex -4.04508 2.93893 -45
      vertex -4.38153 2.40877 45
      vertex -4.38153 2.40877 -45
    endloop
  endfacet
  facet normal 0.98229 -0.187369 0
    outer loop
      vertex -4.96057 0.626666 45
      vertex -4.84292 1.24345 -45
      vertex -4.84292 1.24345 45
    endloop
  endfacet
  facet normal 0.98229 -0.187369 0
    outer loop
      vertex -4.84292 1.24345 -45
      vertex -4.96057 0.626666 45
      vertex -4.96057 0.626666 -45
    endloop
  endfacet
  facet normal 0.481752 -0.876308 0
    outer loop
      vertex -2.67913 4.22164 -45
      vertex -2.1289 4.52413 45
      vertex -2.67913 4.22164 45
    endloop
  endfacet
  facet normal 0.481752 -0.876308 0
    outer loop
      vertex -2.1289 4.52413 45
      vertex -2.67913 4.22164 -45
      vertex -2.1289 4.52413 -45
    endloop
  endfacet
  facet normal 0.587779 -0.809022 0
    outer loop
      vertex -3.18712 3.85257 -45
      vertex -2.67913 4.22164 45
      vertex -3.18712 3.85257 45
    endloop
  endfacet
  facet normal 0.587779 -0.809022 0
    outer loop
      vertex -2.67913 4.22164 45
      vertex -3.18712 3.85257 -45
      vertex -2.67913 4.22164 -45
    endloop
  endfacet
  facet normal 0.125322 -0.992116 0
    outer loop
      vertex -0.936906 4.91144 -45
      vertex -0.313952 4.99013 45
      vertex -0.936906 4.91144 45
    endloop
  endfacet
  facet normal 0.125322 -0.992116 0
    outer loop
      vertex -0.313952 4.99013 45
      vertex -0.936906 4.91144 -45
      vertex -0.313952 4.99013 -45
    endloop
  endfacet
  facet normal -0.98229 0.187369 0
    outer loop
      vertex 4.84292 -1.24345 -45
      vertex 4.96057 -0.626666 45
      vertex 4.96057 -0.626666 -45
    endloop
  endfacet
  facet normal -0.98229 0.187369 0
    outer loop
      vertex 4.96057 -0.626666 45
      vertex 4.84292 -1.24345 -45
      vertex 4.84292 -1.24345 45
    endloop
  endfacet
  facet normal 0.684549 0.728967 -0
    outer loop
      vertex -3.18712 -3.85257 -45
      vertex -3.64484 -3.42274 45
      vertex -3.18712 -3.85257 45
    endloop
  endfacet
  facet normal 0.684549 0.728967 0
    outer loop
      vertex -3.64484 -3.42274 45
      vertex -3.18712 -3.85257 -45
      vertex -3.64484 -3.42274 -45
    endloop
  endfacet
  facet normal 0.770515 0.637422 0
    outer loop
      vertex -3.64484 -3.42274 45
      vertex -4.04508 -2.93893 -45
      vertex -4.04508 -2.93893 45
    endloop
  endfacet
  facet normal 0.770515 0.637422 0
    outer loop
      vertex -4.04508 -2.93893 -45
      vertex -3.64484 -3.42274 45
      vertex -3.64484 -3.42274 -45
    endloop
  endfacet
  facet normal -0.481752 0.876308 0
    outer loop
      vertex 2.67913 -4.22164 -45
      vertex 2.1289 -4.52413 45
      vertex 2.67913 -4.22164 45
    endloop
  endfacet
  facet normal -0.481752 0.876308 0
    outer loop
      vertex 2.1289 -4.52413 45
      vertex 2.67913 -4.22164 -45
      vertex 2.1289 -4.52413 -45
    endloop
  endfacet
  facet normal -0.770515 0.637422 0
    outer loop
      vertex 3.64484 -3.42274 -45
      vertex 4.04508 -2.93893 45
      vertex 4.04508 -2.93893 -45
    endloop
  endfacet
  facet normal -0.770515 0.637422 0
    outer loop
      vertex 4.04508 -2.93893 45
      vertex 3.64484 -3.42274 -45
      vertex 3.64484 -3.42274 45
    endloop
  endfacet
  facet normal -0.904828 0.425778 0
    outer loop
      vertex 4.38153 -2.40877 -45
      vertex 4.64888 -1.84062 45
      vertex 4.64888 -1.84062 -45
    endloop
  endfacet
  facet normal -0.904828 0.425778 0
    outer loop
      vertex 4.64888 -1.84062 45
      vertex 4.38153 -2.40877 -45
      vertex 4.38153 -2.40877 45
    endloop
  endfacet
  facet normal -0.998026 0.0627961 0
    outer loop
      vertex 4.96057 -0.626666 -45
      vertex 5 0 45
      vertex 5 0 -45
    endloop
  endfacet
  facet normal -0.998026 0.0627961 0
    outer loop
      vertex 5 0 45
      vertex 4.96057 -0.626666 -45
      vertex 4.96057 -0.626666 45
    endloop
  endfacet
  facet normal 0.951053 0.309028 0
    outer loop
      vertex -4.64888 -1.84062 45
      vertex -4.84292 -1.24345 -45
      vertex -4.84292 -1.24345 45
    endloop
  endfacet
  facet normal 0.951053 0.309028 0
    outer loop
      vertex -4.84292 -1.24345 -45
      vertex -4.64888 -1.84062 45
      vertex -4.64888 -1.84062 -45
    endloop
  endfacet
  facet normal 0.998026 0.0627961 0
    outer loop
      vertex -4.96057 -0.626666 45
      vertex -5 0 -45
      vertex -5 0 45
    endloop
  endfacet
  facet normal 0.998026 0.0627961 0
    outer loop
      vertex -5 0 -45
      vertex -4.96057 -0.626666 45
      vertex -4.96057 -0.626666 -45
    endloop
  endfacet
  facet normal -0.684549 0.728967 0
    outer loop
      vertex 3.64484 -3.42274 -45
      vertex 3.18712 -3.85257 45
      vertex 3.64484 -3.42274 45
    endloop
  endfacet
  facet normal -0.684549 0.728967 0
    outer loop
      vertex 3.18712 -3.85257 45
      vertex 3.64484 -3.42274 -45
      vertex 3.18712 -3.85257 -45
    endloop
  endfacet
  facet normal -0.368124 0.929777 0
    outer loop
      vertex 2.1289 -4.52413 -45
      vertex 1.54508 -4.75528 45
      vertex 2.1289 -4.52413 45
    endloop
  endfacet
  facet normal -0.368124 0.929777 0
    outer loop
      vertex 1.54508 -4.75528 45
      vertex 2.1289 -4.52413 -45
      vertex 1.54508 -4.75528 -45
    endloop
  endfacet
  facet normal -0.248701 0.96858 0
    outer loop
      vertex 1.54508 -4.75528 -45
      vertex 0.936906 -4.91144 45
      vertex 1.54508 -4.75528 45
    endloop
  endfacet
  facet normal -0.248701 0.96858 0
    outer loop
      vertex 0.936906 -4.91144 45
      vertex 1.54508 -4.75528 -45
      vertex 0.936906 -4.91144 -45
    endloop
  endfacet
  facet normal -0.844328 0.535827 0
    outer loop
      vertex 4.04508 -2.93893 -45
      vertex 4.38153 -2.40877 45
      vertex 4.38153 -2.40877 -45
    endloop
  endfacet
  facet normal -0.844328 0.535827 0
    outer loop
      vertex 4.38153 -2.40877 45
      vertex 4.04508 -2.93893 -45
      vertex 4.04508 -2.93893 45
    endloop
  endfacet
  facet normal -0.951053 0.309028 0
    outer loop
      vertex 4.64888 -1.84062 -45
      vertex 4.84292 -1.24345 45
      vertex 4.84292 -1.24345 -45
    endloop
  endfacet
  facet normal -0.951053 0.309028 0
    outer loop
      vertex 4.84292 -1.24345 45
      vertex 4.64888 -1.84062 -45
      vertex 4.64888 -1.84062 45
    endloop
  endfacet
  facet normal 0.125322 0.992116 -0
    outer loop
      vertex -0.313952 -4.99013 -45
      vertex -0.936906 -4.91144 45
      vertex -0.313952 -4.99013 45
    endloop
  endfacet
  facet normal 0.125322 0.992116 0
    outer loop
      vertex -0.936906 -4.91144 45
      vertex -0.313952 -4.99013 -45
      vertex -0.936906 -4.91144 -45
    endloop
  endfacet
  facet normal 0.248701 0.96858 -0
    outer loop
      vertex -0.936906 -4.91144 -45
      vertex -1.54508 -4.75528 45
      vertex -0.936906 -4.91144 45
    endloop
  endfacet
  facet normal 0.248701 0.96858 0
    outer loop
      vertex -1.54508 -4.75528 45
      vertex -0.936906 -4.91144 -45
      vertex -1.54508 -4.75528 -45
    endloop
  endfacet
  facet normal 0.844328 0.535827 0
    outer loop
      vertex -4.04508 -2.93893 45
      vertex -4.38153 -2.40877 -45
      vertex -4.38153 -2.40877 45
    endloop
  endfacet
  facet normal 0.844328 0.535827 0
    outer loop
      vertex -4.38153 -2.40877 -45
      vertex -4.04508 -2.93893 45
      vertex -4.04508 -2.93893 -45
    endloop
  endfacet
  facet normal 0.904828 0.425778 0
    outer loop
      vertex -4.38153 -2.40877 45
      vertex -4.64888 -1.84062 -45
      vertex -4.64888 -1.84062 45
    endloop
  endfacet
  facet normal 0.904828 0.425778 0
    outer loop
      vertex -4.64888 -1.84062 -45
      vertex -4.38153 -2.40877 45
      vertex -4.38153 -2.40877 -45
    endloop
  endfacet
  facet normal 0.98229 0.187369 0
    outer loop
      vertex -4.84292 -1.24345 45
      vertex -4.96057 -0.626666 -45
      vertex -4.96057 -0.626666 45
    endloop
  endfacet
  facet normal 0.98229 0.187369 0
    outer loop
      vertex -4.96057 -0.626666 -45
      vertex -4.84292 -1.24345 45
      vertex -4.84292 -1.24345 -45
    endloop
  endfacet
  facet normal -0.587779 0.809022 0
    outer loop
      vertex 3.18712 -3.85257 -45
      vertex 2.67913 -4.22164 45
      vertex 3.18712 -3.85257 45
    endloop
  endfacet
  facet normal -0.587779 0.809022 0
    outer loop
      vertex 2.67913 -4.22164 45
      vertex 3.18712 -3.85257 -45
      vertex 2.67913 -4.22164 -45
    endloop
  endfacet
  facet normal 0.587779 0.809022 -0
    outer loop
      vertex -2.67913 -4.22164 -45
      vertex -3.18712 -3.85257 45
      vertex -2.67913 -4.22164 45
    endloop
  endfacet
  facet normal 0.587779 0.809022 0
    outer loop
      vertex -3.18712 -3.85257 45
      vertex -2.67913 -4.22164 -45
      vertex -3.18712 -3.85257 -45
    endloop
  endfacet
  facet normal 0.368124 0.929777 -0
    outer loop
      vertex -1.54508 -4.75528 -45
      vertex -2.1289 -4.52413 45
      vertex -1.54508 -4.75528 45
    endloop
  endfacet
  facet normal 0.368124 0.929777 0
    outer loop
      vertex -2.1289 -4.52413 45
      vertex -1.54508 -4.75528 -45
      vertex -2.1289 -4.52413 -45
    endloop
  endfacet
  facet normal 0.481752 0.876308 -0
    outer loop
      vertex -2.1289 -4.52413 -45
      vertex -2.67913 -4.22164 45
      vertex -2.1289 -4.52413 45
    endloop
  endfacet
  facet normal 0.481752 0.876308 0
    outer loop
      vertex -2.67913 -4.22164 45
      vertex -2.1289 -4.52413 -45
      vertex -2.67913 -4.22164 -45
    endloop
  endfacet
endsolid OpenSCAD_Model
