solid OpenSCAD_Model
  facet normal 0.998027 0.0627882 0
    outer loop
      vertex 6 0 40.5
      vertex 5.95269 0.751999 -40.5
      vertex 5.95269 0.751999 40.5
    endloop
  endfacet
  facet normal 0.998027 0.0627882 0
    outer loop
      vertex 5.95269 0.751999 -40.5
      vertex 6 0 40.5
      vertex 6 0 -40.5
    endloop
  endfacet
  facet normal -0.998027 0.0627882 0
    outer loop
      vertex -6 0 -40.5
      vertex -5.95269 0.751999 40.5
      vertex -5.95269 0.751999 -40.5
    endloop
  endfacet
  facet normal -0.998027 0.0627882 0
    outer loop
      vertex -5.95269 0.751999 40.5
      vertex -6 0 -40.5
      vertex -6 0 40.5
    endloop
  endfacet
  facet normal 0 1 -0
    outer loop
      vertex 0.376742 5.98816 -40.5
      vertex -0.376742 5.98816 40.5
      vertex 0.376742 5.98816 40.5
    endloop
  endfacet
  facet normal 0 1 0
    outer loop
      vertex -0.376742 5.98816 40.5
      vertex 0.376742 5.98816 -40.5
      vertex -0.376742 5.98816 -40.5
    endloop
  endfacet
  facet normal 0.684548 0.728968 -0
    outer loop
      vertex 4.37381 4.10728 -40.5
      vertex 3.82454 4.62308 40.5
      vertex 4.37381 4.10728 40.5
    endloop
  endfacet
  facet normal 0.684548 0.728968 0
    outer loop
      vertex 3.82454 4.62308 40.5
      vertex 4.37381 4.10728 -40.5
      vertex 3.82454 4.62308 -40.5
    endloop
  endfacet
  facet normal -0.684548 0.728968 0
    outer loop
      vertex -3.82454 4.62308 -40.5
      vertex -4.37381 4.10728 40.5
      vertex -3.82454 4.62308 40.5
    endloop
  endfacet
  facet normal -0.684548 0.728968 0
    outer loop
      vertex -4.37381 4.10728 40.5
      vertex -3.82454 4.62308 -40.5
      vertex -4.37381 4.10728 -40.5
    endloop
  endfacet
  facet normal -0.368125 0.929776 0
    outer loop
      vertex -1.8541 5.70634 -40.5
      vertex -2.55468 5.42896 40.5
      vertex -1.8541 5.70634 40.5
    endloop
  endfacet
  facet normal -0.368125 0.929776 0
    outer loop
      vertex -2.55468 5.42896 40.5
      vertex -1.8541 5.70634 -40.5
      vertex -2.55468 5.42896 -40.5
    endloop
  endfacet
  facet normal 0.904825 0.425783 0
    outer loop
      vertex 5.57866 2.20875 40.5
      vertex 5.25784 2.89052 -40.5
      vertex 5.25784 2.89052 40.5
    endloop
  endfacet
  facet normal 0.904825 0.425783 0
    outer loop
      vertex 5.25784 2.89052 -40.5
      vertex 5.57866 2.20875 40.5
      vertex 5.57866 2.20875 -40.5
    endloop
  endfacet
  facet normal 0.982287 0.187382 0
    outer loop
      vertex 5.95269 0.751999 40.5
      vertex 5.8115 1.49214 -40.5
      vertex 5.8115 1.49214 40.5
    endloop
  endfacet
  facet normal 0.982287 0.187382 0
    outer loop
      vertex 5.8115 1.49214 -40.5
      vertex 5.95269 0.751999 40.5
      vertex 5.95269 0.751999 -40.5
    endloop
  endfacet
  facet normal 0.368125 0.929776 -0
    outer loop
      vertex 2.55468 5.42896 -40.5
      vertex 1.8541 5.70634 40.5
      vertex 2.55468 5.42896 40.5
    endloop
  endfacet
  facet normal 0.368125 0.929776 0
    outer loop
      vertex 1.8541 5.70634 40.5
      vertex 2.55468 5.42896 -40.5
      vertex 1.8541 5.70634 -40.5
    endloop
  endfacet
  facet normal 0.248686 0.968584 -0
    outer loop
      vertex 1.8541 5.70634 -40.5
      vertex 1.12429 5.89372 40.5
      vertex 1.8541 5.70634 40.5
    endloop
  endfacet
  facet normal 0.248686 0.968584 0
    outer loop
      vertex 1.12429 5.89372 40.5
      vertex 1.8541 5.70634 -40.5
      vertex 1.12429 5.89372 -40.5
    endloop
  endfacet
  facet normal 0.587789 0.809014 -0
    outer loop
      vertex 3.82454 4.62308 -40.5
      vertex 3.21496 5.06597 40.5
      vertex 3.82454 4.62308 40.5
    endloop
  endfacet
  facet normal 0.587789 0.809014 0
    outer loop
      vertex 3.21496 5.06597 40.5
      vertex 3.82454 4.62308 -40.5
      vertex 3.21496 5.06597 -40.5
    endloop
  endfacet
  facet normal -0.904825 0.425783 0
    outer loop
      vertex -5.57866 2.20875 -40.5
      vertex -5.25784 2.89052 40.5
      vertex -5.25784 2.89052 -40.5
    endloop
  endfacet
  facet normal -0.904825 0.425783 0
    outer loop
      vertex -5.25784 2.89052 40.5
      vertex -5.57866 2.20875 -40.5
      vertex -5.57866 2.20875 40.5
    endloop
  endfacet
  facet normal -0.844327 0.535828 0
    outer loop
      vertex -5.25784 2.89052 -40.5
      vertex -4.8541 3.52671 40.5
      vertex -4.8541 3.52671 -40.5
    endloop
  endfacet
  facet normal -0.844327 0.535828 0
    outer loop
      vertex -4.8541 3.52671 40.5
      vertex -5.25784 2.89052 -40.5
      vertex -5.25784 2.89052 40.5
    endloop
  endfacet
  facet normal -0.951057 0.309016 0
    outer loop
      vertex -5.8115 1.49214 -40.5
      vertex -5.57866 2.20875 40.5
      vertex -5.57866 2.20875 -40.5
    endloop
  endfacet
  facet normal -0.951057 0.309016 0
    outer loop
      vertex -5.57866 2.20875 40.5
      vertex -5.8115 1.49214 -40.5
      vertex -5.8115 1.49214 40.5
    endloop
  endfacet
  facet normal -0.587789 0.809014 0
    outer loop
      vertex -3.21496 5.06597 -40.5
      vertex -3.82454 4.62308 40.5
      vertex -3.21496 5.06597 40.5
    endloop
  endfacet
  facet normal -0.587789 0.809014 0
    outer loop
      vertex -3.82454 4.62308 40.5
      vertex -3.21496 5.06597 -40.5
      vertex -3.82454 4.62308 -40.5
    endloop
  endfacet
  facet normal -0.125337 0.992114 0
    outer loop
      vertex -0.376742 5.98816 -40.5
      vertex -1.12429 5.89372 40.5
      vertex -0.376742 5.98816 40.5
    endloop
  endfacet
  facet normal -0.125337 0.992114 0
    outer loop
      vertex -1.12429 5.89372 40.5
      vertex -0.376742 5.98816 -40.5
      vertex -1.12429 5.89372 -40.5
    endloop
  endfacet
  facet normal 0.998027 -0.0627882 0
    outer loop
      vertex 5.95269 -0.751999 40.5
      vertex 6 0 -40.5
      vertex 6 0 40.5
    endloop
  endfacet
  facet normal 0.998027 -0.0627882 0
    outer loop
      vertex 6 0 -40.5
      vertex 5.95269 -0.751999 40.5
      vertex 5.95269 -0.751999 -40.5
    endloop
  endfacet
  facet normal -0.248686 -0.968584 0
    outer loop
      vertex -1.8541 -5.70634 -40.5
      vertex -1.12429 -5.89372 40.5
      vertex -1.8541 -5.70634 40.5
    endloop
  endfacet
  facet normal -0.248686 -0.968584 -0
    outer loop
      vertex -1.12429 -5.89372 40.5
      vertex -1.8541 -5.70634 -40.5
      vertex -1.12429 -5.89372 -40.5
    endloop
  endfacet
  facet normal 0.125337 -0.992114 0
    outer loop
      vertex 0.376742 -5.98816 -40.5
      vertex 1.12429 -5.89372 40.5
      vertex 0.376742 -5.98816 40.5
    endloop
  endfacet
  facet normal 0.125337 -0.992114 0
    outer loop
      vertex 1.12429 -5.89372 40.5
      vertex 0.376742 -5.98816 -40.5
      vertex 1.12429 -5.89372 -40.5
    endloop
  endfacet
  facet normal 0.951057 0.309016 0
    outer loop
      vertex 5.8115 1.49214 40.5
      vertex 5.57866 2.20875 -40.5
      vertex 5.57866 2.20875 40.5
    endloop
  endfacet
  facet normal 0.951057 0.309016 0
    outer loop
      vertex 5.57866 2.20875 -40.5
      vertex 5.8115 1.49214 40.5
      vertex 5.8115 1.49214 -40.5
    endloop
  endfacet
  facet normal 0.770513 0.637425 0
    outer loop
      vertex 4.8541 3.52671 40.5
      vertex 4.37381 4.10728 -40.5
      vertex 4.37381 4.10728 40.5
    endloop
  endfacet
  facet normal 0.770513 0.637425 0
    outer loop
      vertex 4.37381 4.10728 -40.5
      vertex 4.8541 3.52671 40.5
      vertex 4.8541 3.52671 -40.5
    endloop
  endfacet
  facet normal 0.844327 0.535828 0
    outer loop
      vertex 5.25784 2.89052 40.5
      vertex 4.8541 3.52671 -40.5
      vertex 4.8541 3.52671 40.5
    endloop
  endfacet
  facet normal 0.844327 0.535828 0
    outer loop
      vertex 4.8541 3.52671 -40.5
      vertex 5.25784 2.89052 40.5
      vertex 5.25784 2.89052 -40.5
    endloop
  endfacet
  facet normal 0.125337 0.992114 -0
    outer loop
      vertex 1.12429 5.89372 -40.5
      vertex 0.376742 5.98816 40.5
      vertex 1.12429 5.89372 40.5
    endloop
  endfacet
  facet normal 0.125337 0.992114 0
    outer loop
      vertex 0.376742 5.98816 40.5
      vertex 1.12429 5.89372 -40.5
      vertex 0.376742 5.98816 -40.5
    endloop
  endfacet
  facet normal 0.481752 0.876308 -0
    outer loop
      vertex 3.21496 5.06597 -40.5
      vertex 2.55468 5.42896 40.5
      vertex 3.21496 5.06597 40.5
    endloop
  endfacet
  facet normal 0.481752 0.876308 0
    outer loop
      vertex 2.55468 5.42896 40.5
      vertex 3.21496 5.06597 -40.5
      vertex 2.55468 5.42896 -40.5
    endloop
  endfacet
  facet normal 0.951057 -0.309016 0
    outer loop
      vertex 5.57866 -2.20875 40.5
      vertex 5.8115 -1.49214 -40.5
      vertex 5.8115 -1.49214 40.5
    endloop
  endfacet
  facet normal 0.951057 -0.309016 0
    outer loop
      vertex 5.8115 -1.49214 -40.5
      vertex 5.57866 -2.20875 40.5
      vertex 5.57866 -2.20875 -40.5
    endloop
  endfacet
  facet normal 0.982287 -0.187382 0
    outer loop
      vertex 5.8115 -1.49214 40.5
      vertex 5.95269 -0.751999 -40.5
      vertex 5.95269 -0.751999 40.5
    endloop
  endfacet
  facet normal 0.982287 -0.187382 0
    outer loop
      vertex 5.95269 -0.751999 -40.5
      vertex 5.8115 -1.49214 40.5
      vertex 5.8115 -1.49214 -40.5
    endloop
  endfacet
  facet normal -0.125337 -0.992114 0
    outer loop
      vertex -1.12429 -5.89372 -40.5
      vertex -0.376742 -5.98816 40.5
      vertex -1.12429 -5.89372 40.5
    endloop
  endfacet
  facet normal -0.125337 -0.992114 -0
    outer loop
      vertex -0.376742 -5.98816 40.5
      vertex -1.12429 -5.89372 -40.5
      vertex -0.376742 -5.98816 -40.5
    endloop
  endfacet
  facet normal -0.904825 -0.425783 0
    outer loop
      vertex -5.25784 -2.89052 -40.5
      vertex -5.57866 -2.20875 40.5
      vertex -5.57866 -2.20875 -40.5
    endloop
  endfacet
  facet normal -0.904825 -0.425783 0
    outer loop
      vertex -5.57866 -2.20875 40.5
      vertex -5.25784 -2.89052 -40.5
      vertex -5.25784 -2.89052 40.5
    endloop
  endfacet
  facet normal -0.951057 -0.309016 0
    outer loop
      vertex -5.57866 -2.20875 -40.5
      vertex -5.8115 -1.49214 40.5
      vertex -5.8115 -1.49214 -40.5
    endloop
  endfacet
  facet normal -0.951057 -0.309016 0
    outer loop
      vertex -5.8115 -1.49214 40.5
      vertex -5.57866 -2.20875 -40.5
      vertex -5.57866 -2.20875 40.5
    endloop
  endfacet
  facet normal 0.368125 -0.929776 0
    outer loop
      vertex 1.8541 -5.70634 -40.5
      vertex 2.55468 -5.42896 40.5
      vertex 1.8541 -5.70634 40.5
    endloop
  endfacet
  facet normal 0.368125 -0.929776 0
    outer loop
      vertex 2.55468 -5.42896 40.5
      vertex 1.8541 -5.70634 -40.5
      vertex 2.55468 -5.42896 -40.5
    endloop
  endfacet
  facet normal 0.248686 -0.968584 0
    outer loop
      vertex 1.12429 -5.89372 -40.5
      vertex 1.8541 -5.70634 40.5
      vertex 1.12429 -5.89372 40.5
    endloop
  endfacet
  facet normal 0.248686 -0.968584 0
    outer loop
      vertex 1.8541 -5.70634 40.5
      vertex 1.12429 -5.89372 -40.5
      vertex 1.8541 -5.70634 -40.5
    endloop
  endfacet
  facet normal -0.770513 0.637425 0
    outer loop
      vertex -4.8541 3.52671 -40.5
      vertex -4.37381 4.10728 40.5
      vertex -4.37381 4.10728 -40.5
    endloop
  endfacet
  facet normal -0.770513 0.637425 0
    outer loop
      vertex -4.37381 4.10728 40.5
      vertex -4.8541 3.52671 -40.5
      vertex -4.8541 3.52671 40.5
    endloop
  endfacet
  facet normal 0 0 1
    outer loop
      vertex 2.75 0 40.5
      vertex 6 0 40.5
      vertex 5.95269 0.751999 40.5
    endloop
  endfacet
  facet normal 0 0 1
    outer loop
      vertex 2.72832 0.344666 40.5
      vertex 5.95269 0.751999 40.5
      vertex 5.8115 1.49214 40.5
    endloop
  endfacet
  facet normal 0 0 1
    outer loop
      vertex 6 0 40.5
      vertex 2.75 0 40.5
      vertex 5.95269 -0.751999 40.5
    endloop
  endfacet
  facet normal 0 0 1
    outer loop
      vertex 2.6636 0.683897 40.5
      vertex 5.8115 1.49214 40.5
      vertex 5.57866 2.20875 40.5
    endloop
  endfacet
  facet normal -0 0 1
    outer loop
      vertex 2.72832 -0.344666 40.5
      vertex 5.95269 -0.751999 40.5
      vertex 2.75 0 40.5
    endloop
  endfacet
  facet normal 0 0 1
    outer loop
      vertex 2.55688 1.01234 40.5
      vertex 5.57866 2.20875 40.5
      vertex 5.25784 2.89052 40.5
    endloop
  endfacet
  facet normal 0 0 1
    outer loop
      vertex 5.95269 -0.751999 40.5
      vertex 2.72832 -0.344666 40.5
      vertex 5.8115 -1.49214 40.5
    endloop
  endfacet
  facet normal 0 0 1
    outer loop
      vertex 2.40984 1.32482 40.5
      vertex 5.25784 2.89052 40.5
      vertex 4.8541 3.52671 40.5
    endloop
  endfacet
  facet normal -0 0 1
    outer loop
      vertex 2.6636 -0.683897 40.5
      vertex 5.8115 -1.49214 40.5
      vertex 2.72832 -0.344666 40.5
    endloop
  endfacet
  facet normal 0 0 1
    outer loop
      vertex 2.2248 1.61641 40.5
      vertex 4.8541 3.52671 40.5
      vertex 4.37381 4.10728 40.5
    endloop
  endfacet
  facet normal 0 0 1
    outer loop
      vertex 5.8115 -1.49214 40.5
      vertex 2.6636 -0.683897 40.5
      vertex 5.57866 -2.20875 40.5
    endloop
  endfacet
  facet normal 0 0 1
    outer loop
      vertex 2.00466 1.8825 40.5
      vertex 4.37381 4.10728 40.5
      vertex 3.82454 4.62308 40.5
    endloop
  endfacet
  facet normal -0 0 1
    outer loop
      vertex 2.55688 -1.01234 40.5
      vertex 5.57866 -2.20875 40.5
      vertex 2.6636 -0.683897 40.5
    endloop
  endfacet
  facet normal 0 0 1
    outer loop
      vertex 1.75292 2.11891 40.5
      vertex 3.82454 4.62308 40.5
      vertex 3.21496 5.06597 40.5
    endloop
  endfacet
  facet normal 0 0 1
    outer loop
      vertex 5.57866 -2.20875 40.5
      vertex 2.55688 -1.01234 40.5
      vertex 5.25784 -2.89052 40.5
    endloop
  endfacet
  facet normal -0 0 1
    outer loop
      vertex 2.40984 -1.32482 40.5
      vertex 5.25784 -2.89052 40.5
      vertex 2.55688 -1.01234 40.5
    endloop
  endfacet
  facet normal 0 0 1
    outer loop
      vertex 5.95269 0.751999 40.5
      vertex 2.72832 0.344666 40.5
      vertex 2.75 0 40.5
    endloop
  endfacet
  facet normal 0 0 1
    outer loop
      vertex 5.8115 1.49214 40.5
      vertex 2.6636 0.683897 40.5
      vertex 2.72832 0.344666 40.5
    endloop
  endfacet
  facet normal 0 0 1
    outer loop
      vertex 5.57866 2.20875 40.5
      vertex 2.55688 1.01234 40.5
      vertex 2.6636 0.683897 40.5
    endloop
  endfacet
  facet normal 0 0 1
    outer loop
      vertex 1.47352 2.3219 40.5
      vertex 3.21496 5.06597 40.5
      vertex 2.55468 5.42896 40.5
    endloop
  endfacet
  facet normal 0 0 1
    outer loop
      vertex 5.25784 2.89052 40.5
      vertex 2.40984 1.32482 40.5
      vertex 2.55688 1.01234 40.5
    endloop
  endfacet
  facet normal 0 0 1
    outer loop
      vertex 4.8541 3.52671 40.5
      vertex 2.2248 1.61641 40.5
      vertex 2.40984 1.32482 40.5
    endloop
  endfacet
  facet normal 0 0 1
    outer loop
      vertex 4.37381 4.10728 40.5
      vertex 2.00466 1.8825 40.5
      vertex 2.2248 1.61641 40.5
    endloop
  endfacet
  facet normal 0 0 1
    outer loop
      vertex 1.17089 2.48827 40.5
      vertex 2.55468 5.42896 40.5
      vertex 1.8541 5.70634 40.5
    endloop
  endfacet
  facet normal 0 0 1
    outer loop
      vertex 3.82454 4.62308 40.5
      vertex 1.75292 2.11891 40.5
      vertex 2.00466 1.8825 40.5
    endloop
  endfacet
  facet normal 0 0 1
    outer loop
      vertex 3.21496 5.06597 40.5
      vertex 1.47352 2.3219 40.5
      vertex 1.75292 2.11891 40.5
    endloop
  endfacet
  facet normal 0 0 1
    outer loop
      vertex 2.55468 5.42896 40.5
      vertex 1.17089 2.48827 40.5
      vertex 1.47352 2.3219 40.5
    endloop
  endfacet
  facet normal 0 0 1
    outer loop
      vertex 0.849796 2.61541 40.5
      vertex 1.8541 5.70634 40.5
      vertex 1.12429 5.89372 40.5
    endloop
  endfacet
  facet normal 0 0 1
    outer loop
      vertex 1.8541 5.70634 40.5
      vertex 0.849796 2.61541 40.5
      vertex 1.17089 2.48827 40.5
    endloop
  endfacet
  facet normal 0 0 1
    outer loop
      vertex 1.12429 5.89372 40.5
      vertex 0.515298 2.70129 40.5
      vertex 0.849796 2.61541 40.5
    endloop
  endfacet
  facet normal 0 0 1
    outer loop
      vertex 0.376742 5.98816 40.5
      vertex 0.515298 2.70129 40.5
      vertex 1.12429 5.89372 40.5
    endloop
  endfacet
  facet normal 0 0 1
    outer loop
      vertex 0.376742 5.98816 40.5
      vertex 0.172673 2.74457 40.5
      vertex 0.515298 2.70129 40.5
    endloop
  endfacet
  facet normal 0 0 1
    outer loop
      vertex 0.376742 5.98816 40.5
      vertex -0.172673 2.74457 40.5
      vertex 0.172673 2.74457 40.5
    endloop
  endfacet
  facet normal -0 0 1
    outer loop
      vertex -0.376742 5.98816 40.5
      vertex -0.172673 2.74457 40.5
      vertex 0.376742 5.98816 40.5
    endloop
  endfacet
  facet normal 0 0 1
    outer loop
      vertex -0.376742 5.98816 40.5
      vertex -0.515298 2.70129 40.5
      vertex -0.172673 2.74457 40.5
    endloop
  endfacet
  facet normal -0 0 1
    outer loop
      vertex -1.12429 5.89372 40.5
      vertex -0.515298 2.70129 40.5
      vertex -0.376742 5.98816 40.5
    endloop
  endfacet
  facet normal 0 0 1
    outer loop
      vertex -0.515298 2.70129 40.5
      vertex -1.12429 5.89372 40.5
      vertex -0.849796 2.61541 40.5
    endloop
  endfacet
  facet normal -0 0 1
    outer loop
      vertex -1.8541 5.70634 40.5
      vertex -0.849796 2.61541 40.5
      vertex -1.12429 5.89372 40.5
    endloop
  endfacet
  facet normal 0 0 1
    outer loop
      vertex -0.849796 2.61541 40.5
      vertex -1.8541 5.70634 40.5
      vertex -1.17089 2.48827 40.5
    endloop
  endfacet
  facet normal -0 0 1
    outer loop
      vertex -2.55468 5.42896 40.5
      vertex -1.17089 2.48827 40.5
      vertex -1.8541 5.70634 40.5
    endloop
  endfacet
  facet normal 0 0 1
    outer loop
      vertex -1.17089 2.48827 40.5
      vertex -2.55468 5.42896 40.5
      vertex -1.47352 2.3219 40.5
    endloop
  endfacet
  facet normal -0 0 1
    outer loop
      vertex -3.21496 5.06597 40.5
      vertex -1.47352 2.3219 40.5
      vertex -2.55468 5.42896 40.5
    endloop
  endfacet
  facet normal 0 0 1
    outer loop
      vertex -1.47352 2.3219 40.5
      vertex -3.21496 5.06597 40.5
      vertex -1.75292 2.11891 40.5
    endloop
  endfacet
  facet normal -0 0 1
    outer loop
      vertex -3.82454 4.62308 40.5
      vertex -1.75292 2.11891 40.5
      vertex -3.21496 5.06597 40.5
    endloop
  endfacet
  facet normal 0 0 1
    outer loop
      vertex -1.75292 2.11891 40.5
      vertex -3.82454 4.62308 40.5
      vertex -2.00466 1.8825 40.5
    endloop
  endfacet
  facet normal -0 0 1
    outer loop
      vertex -4.37381 4.10728 40.5
      vertex -2.00466 1.8825 40.5
      vertex -3.82454 4.62308 40.5
    endloop
  endfacet
  facet normal 0 0 1
    outer loop
      vertex -2.00466 1.8825 40.5
      vertex -4.37381 4.10728 40.5
      vertex -2.2248 1.61641 40.5
    endloop
  endfacet
  facet normal -0 0 1
    outer loop
      vertex -4.8541 3.52671 40.5
      vertex -2.2248 1.61641 40.5
      vertex -4.37381 4.10728 40.5
    endloop
  endfacet
  facet normal 0 0 1
    outer loop
      vertex -2.2248 1.61641 40.5
      vertex -4.8541 3.52671 40.5
      vertex -2.40984 1.32482 40.5
    endloop
  endfacet
  facet normal -0 0 1
    outer loop
      vertex -5.25784 2.89052 40.5
      vertex -2.40984 1.32482 40.5
      vertex -4.8541 3.52671 40.5
    endloop
  endfacet
  facet normal 0 0 1
    outer loop
      vertex 5.25784 -2.89052 40.5
      vertex 2.40984 -1.32482 40.5
      vertex 4.8541 -3.52671 40.5
    endloop
  endfacet
  facet normal -0 0 1
    outer loop
      vertex 2.2248 -1.61641 40.5
      vertex 4.8541 -3.52671 40.5
      vertex 2.40984 -1.32482 40.5
    endloop
  endfacet
  facet normal 0 0 1
    outer loop
      vertex 4.8541 -3.52671 40.5
      vertex 2.2248 -1.61641 40.5
      vertex 4.37381 -4.10728 40.5
    endloop
  endfacet
  facet normal -0 0 1
    outer loop
      vertex 2.00466 -1.8825 40.5
      vertex 4.37381 -4.10728 40.5
      vertex 2.2248 -1.61641 40.5
    endloop
  endfacet
  facet normal 0 0 1
    outer loop
      vertex 4.37381 -4.10728 40.5
      vertex 2.00466 -1.8825 40.5
      vertex 3.82454 -4.62308 40.5
    endloop
  endfacet
  facet normal -0 0 1
    outer loop
      vertex 1.75292 -2.11891 40.5
      vertex 3.82454 -4.62308 40.5
      vertex 2.00466 -1.8825 40.5
    endloop
  endfacet
  facet normal 0 0 1
    outer loop
      vertex 3.82454 -4.62308 40.5
      vertex 1.75292 -2.11891 40.5
      vertex 3.21496 -5.06597 40.5
    endloop
  endfacet
  facet normal -0 0 1
    outer loop
      vertex 1.47352 -2.3219 40.5
      vertex 3.21496 -5.06597 40.5
      vertex 1.75292 -2.11891 40.5
    endloop
  endfacet
  facet normal 0 0 1
    outer loop
      vertex 3.21496 -5.06597 40.5
      vertex 1.47352 -2.3219 40.5
      vertex 2.55468 -5.42896 40.5
    endloop
  endfacet
  facet normal -0 0 1
    outer loop
      vertex 1.17089 -2.48827 40.5
      vertex 2.55468 -5.42896 40.5
      vertex 1.47352 -2.3219 40.5
    endloop
  endfacet
  facet normal 0 0 1
    outer loop
      vertex 2.55468 -5.42896 40.5
      vertex 1.17089 -2.48827 40.5
      vertex 1.8541 -5.70634 40.5
    endloop
  endfacet
  facet normal -0 0 1
    outer loop
      vertex 0.849796 -2.61541 40.5
      vertex 1.8541 -5.70634 40.5
      vertex 1.17089 -2.48827 40.5
    endloop
  endfacet
  facet normal 0 0 1
    outer loop
      vertex 1.8541 -5.70634 40.5
      vertex 0.849796 -2.61541 40.5
      vertex 1.12429 -5.89372 40.5
    endloop
  endfacet
  facet normal -0 0 1
    outer loop
      vertex 0.515298 -2.70129 40.5
      vertex 1.12429 -5.89372 40.5
      vertex 0.849796 -2.61541 40.5
    endloop
  endfacet
  facet normal 0 0 1
    outer loop
      vertex 0.515298 -2.70129 40.5
      vertex 0.376742 -5.98816 40.5
      vertex 1.12429 -5.89372 40.5
    endloop
  endfacet
  facet normal -0 0 1
    outer loop
      vertex 0.172673 -2.74457 40.5
      vertex 0.376742 -5.98816 40.5
      vertex 0.515298 -2.70129 40.5
    endloop
  endfacet
  facet normal -0 0 1
    outer loop
      vertex -0.172673 -2.74457 40.5
      vertex 0.376742 -5.98816 40.5
      vertex 0.172673 -2.74457 40.5
    endloop
  endfacet
  facet normal 0 0 1
    outer loop
      vertex -0.172673 -2.74457 40.5
      vertex -0.376742 -5.98816 40.5
      vertex 0.376742 -5.98816 40.5
    endloop
  endfacet
  facet normal 0 0 1
    outer loop
      vertex -0.515298 -2.70129 40.5
      vertex -0.376742 -5.98816 40.5
      vertex -0.172673 -2.74457 40.5
    endloop
  endfacet
  facet normal 0 0 1
    outer loop
      vertex -1.12429 -5.89372 40.5
      vertex -0.515298 -2.70129 40.5
      vertex -0.849796 -2.61541 40.5
    endloop
  endfacet
  facet normal 0 0 1
    outer loop
      vertex -0.515298 -2.70129 40.5
      vertex -1.12429 -5.89372 40.5
      vertex -0.376742 -5.98816 40.5
    endloop
  endfacet
  facet normal 0 0 1
    outer loop
      vertex -1.8541 -5.70634 40.5
      vertex -0.849796 -2.61541 40.5
      vertex -1.17089 -2.48827 40.5
    endloop
  endfacet
  facet normal 0 0 1
    outer loop
      vertex -2.55468 -5.42896 40.5
      vertex -1.17089 -2.48827 40.5
      vertex -1.47352 -2.3219 40.5
    endloop
  endfacet
  facet normal 0 0 1
    outer loop
      vertex -3.21496 -5.06597 40.5
      vertex -1.47352 -2.3219 40.5
      vertex -1.75292 -2.11891 40.5
    endloop
  endfacet
  facet normal 0 0 1
    outer loop
      vertex -0.849796 -2.61541 40.5
      vertex -1.8541 -5.70634 40.5
      vertex -1.12429 -5.89372 40.5
    endloop
  endfacet
  facet normal 0 0 1
    outer loop
      vertex -3.82454 -4.62308 40.5
      vertex -1.75292 -2.11891 40.5
      vertex -2.00466 -1.8825 40.5
    endloop
  endfacet
  facet normal 0 0 1
    outer loop
      vertex -4.37381 -4.10728 40.5
      vertex -2.00466 -1.8825 40.5
      vertex -2.2248 -1.61641 40.5
    endloop
  endfacet
  facet normal 0 0 1
    outer loop
      vertex -4.8541 -3.52671 40.5
      vertex -2.2248 -1.61641 40.5
      vertex -2.40984 -1.32482 40.5
    endloop
  endfacet
  facet normal 0 0 1
    outer loop
      vertex -1.17089 -2.48827 40.5
      vertex -2.55468 -5.42896 40.5
      vertex -1.8541 -5.70634 40.5
    endloop
  endfacet
  facet normal 0 0 1
    outer loop
      vertex -5.25784 -2.89052 40.5
      vertex -2.40984 -1.32482 40.5
      vertex -2.55688 -1.01234 40.5
    endloop
  endfacet
  facet normal 0 0 1
    outer loop
      vertex -5.57866 -2.20875 40.5
      vertex -2.55688 -1.01234 40.5
      vertex -2.6636 -0.683897 40.5
    endloop
  endfacet
  facet normal 0 0 1
    outer loop
      vertex -5.8115 -1.49214 40.5
      vertex -2.6636 -0.683897 40.5
      vertex -2.72832 -0.344666 40.5
    endloop
  endfacet
  facet normal 0 0 1
    outer loop
      vertex -5.95269 -0.751999 40.5
      vertex -2.72832 -0.344666 40.5
      vertex -2.75 0 40.5
    endloop
  endfacet
  facet normal 0 0 1
    outer loop
      vertex -2.40984 1.32482 40.5
      vertex -5.25784 2.89052 40.5
      vertex -2.55688 1.01234 40.5
    endloop
  endfacet
  facet normal 0 0 1
    outer loop
      vertex -1.47352 -2.3219 40.5
      vertex -3.21496 -5.06597 40.5
      vertex -2.55468 -5.42896 40.5
    endloop
  endfacet
  facet normal -0 0 1
    outer loop
      vertex -5.57866 2.20875 40.5
      vertex -2.55688 1.01234 40.5
      vertex -5.25784 2.89052 40.5
    endloop
  endfacet
  facet normal 0 0 1
    outer loop
      vertex -1.75292 -2.11891 40.5
      vertex -3.82454 -4.62308 40.5
      vertex -3.21496 -5.06597 40.5
    endloop
  endfacet
  facet normal 0 0 1
    outer loop
      vertex -2.55688 1.01234 40.5
      vertex -5.57866 2.20875 40.5
      vertex -2.6636 0.683897 40.5
    endloop
  endfacet
  facet normal 0 0 1
    outer loop
      vertex -2.00466 -1.8825 40.5
      vertex -4.37381 -4.10728 40.5
      vertex -3.82454 -4.62308 40.5
    endloop
  endfacet
  facet normal -0 0 1
    outer loop
      vertex -5.8115 1.49214 40.5
      vertex -2.6636 0.683897 40.5
      vertex -5.57866 2.20875 40.5
    endloop
  endfacet
  facet normal 0 0 1
    outer loop
      vertex -2.2248 -1.61641 40.5
      vertex -4.8541 -3.52671 40.5
      vertex -4.37381 -4.10728 40.5
    endloop
  endfacet
  facet normal 0 0 1
    outer loop
      vertex -2.6636 0.683897 40.5
      vertex -5.8115 1.49214 40.5
      vertex -2.72832 0.344666 40.5
    endloop
  endfacet
  facet normal 0 0 1
    outer loop
      vertex -2.40984 -1.32482 40.5
      vertex -5.25784 -2.89052 40.5
      vertex -4.8541 -3.52671 40.5
    endloop
  endfacet
  facet normal -0 0 1
    outer loop
      vertex -5.95269 0.751999 40.5
      vertex -2.72832 0.344666 40.5
      vertex -5.8115 1.49214 40.5
    endloop
  endfacet
  facet normal 0 0 1
    outer loop
      vertex -2.55688 -1.01234 40.5
      vertex -5.57866 -2.20875 40.5
      vertex -5.25784 -2.89052 40.5
    endloop
  endfacet
  facet normal 0 0 1
    outer loop
      vertex -2.72832 0.344666 40.5
      vertex -5.95269 0.751999 40.5
      vertex -2.75 0 40.5
    endloop
  endfacet
  facet normal 0 0 1
    outer loop
      vertex -2.6636 -0.683897 40.5
      vertex -5.8115 -1.49214 40.5
      vertex -5.57866 -2.20875 40.5
    endloop
  endfacet
  facet normal 0 0 1
    outer loop
      vertex -6 0 40.5
      vertex -2.75 0 40.5
      vertex -5.95269 0.751999 40.5
    endloop
  endfacet
  facet normal 0 0 1
    outer loop
      vertex -2.72832 -0.344666 40.5
      vertex -5.95269 -0.751999 40.5
      vertex -5.8115 -1.49214 40.5
    endloop
  endfacet
  facet normal 0 0 1
    outer loop
      vertex -2.75 0 40.5
      vertex -6 0 40.5
      vertex -5.95269 -0.751999 40.5
    endloop
  endfacet
  facet normal -0.982287 0.187382 0
    outer loop
      vertex -5.95269 0.751999 -40.5
      vertex -5.8115 1.49214 40.5
      vertex -5.8115 1.49214 -40.5
    endloop
  endfacet
  facet normal -0.982287 0.187382 0
    outer loop
      vertex -5.8115 1.49214 40.5
      vertex -5.95269 0.751999 -40.5
      vertex -5.95269 0.751999 40.5
    endloop
  endfacet
  facet normal -0.481752 0.876308 0
    outer loop
      vertex -2.55468 5.42896 -40.5
      vertex -3.21496 5.06597 40.5
      vertex -2.55468 5.42896 40.5
    endloop
  endfacet
  facet normal -0.481752 0.876308 0
    outer loop
      vertex -3.21496 5.06597 40.5
      vertex -2.55468 5.42896 -40.5
      vertex -3.21496 5.06597 -40.5
    endloop
  endfacet
  facet normal -0.248686 0.968584 0
    outer loop
      vertex -1.12429 5.89372 -40.5
      vertex -1.8541 5.70634 40.5
      vertex -1.12429 5.89372 40.5
    endloop
  endfacet
  facet normal -0.248686 0.968584 0
    outer loop
      vertex -1.8541 5.70634 40.5
      vertex -1.12429 5.89372 -40.5
      vertex -1.8541 5.70634 -40.5
    endloop
  endfacet
  facet normal 0.481752 -0.876308 0
    outer loop
      vertex 2.55468 -5.42896 -40.5
      vertex 3.21496 -5.06597 40.5
      vertex 2.55468 -5.42896 40.5
    endloop
  endfacet
  facet normal 0.481752 -0.876308 0
    outer loop
      vertex 3.21496 -5.06597 40.5
      vertex 2.55468 -5.42896 -40.5
      vertex 3.21496 -5.06597 -40.5
    endloop
  endfacet
  facet normal 0.684548 -0.728968 0
    outer loop
      vertex 3.82454 -4.62308 -40.5
      vertex 4.37381 -4.10728 40.5
      vertex 3.82454 -4.62308 40.5
    endloop
  endfacet
  facet normal 0.684548 -0.728968 0
    outer loop
      vertex 4.37381 -4.10728 40.5
      vertex 3.82454 -4.62308 -40.5
      vertex 4.37381 -4.10728 -40.5
    endloop
  endfacet
  facet normal 0.904825 -0.425783 0
    outer loop
      vertex 5.25784 -2.89052 40.5
      vertex 5.57866 -2.20875 -40.5
      vertex 5.57866 -2.20875 40.5
    endloop
  endfacet
  facet normal 0.904825 -0.425783 0
    outer loop
      vertex 5.57866 -2.20875 -40.5
      vertex 5.25784 -2.89052 40.5
      vertex 5.25784 -2.89052 -40.5
    endloop
  endfacet
  facet normal 0.770513 -0.637425 0
    outer loop
      vertex 4.37381 -4.10728 40.5
      vertex 4.8541 -3.52671 -40.5
      vertex 4.8541 -3.52671 40.5
    endloop
  endfacet
  facet normal 0.770513 -0.637425 0
    outer loop
      vertex 4.8541 -3.52671 -40.5
      vertex 4.37381 -4.10728 40.5
      vertex 4.37381 -4.10728 -40.5
    endloop
  endfacet
  facet normal -0.368125 -0.929776 0
    outer loop
      vertex -2.55468 -5.42896 -40.5
      vertex -1.8541 -5.70634 40.5
      vertex -2.55468 -5.42896 40.5
    endloop
  endfacet
  facet normal -0.368125 -0.929776 -0
    outer loop
      vertex -1.8541 -5.70634 40.5
      vertex -2.55468 -5.42896 -40.5
      vertex -1.8541 -5.70634 -40.5
    endloop
  endfacet
  facet normal -0.998027 -0.0627882 0
    outer loop
      vertex -5.95269 -0.751999 -40.5
      vertex -6 0 40.5
      vertex -6 0 -40.5
    endloop
  endfacet
  facet normal -0.998027 -0.0627882 0
    outer loop
      vertex -6 0 40.5
      vertex -5.95269 -0.751999 -40.5
      vertex -5.95269 -0.751999 40.5
    endloop
  endfacet
  facet normal 0.587789 -0.809014 0
    outer loop
      vertex 3.21496 -5.06597 -40.5
      vertex 3.82454 -4.62308 40.5
      vertex 3.21496 -5.06597 40.5
    endloop
  endfacet
  facet normal 0.587789 -0.809014 0
    outer loop
      vertex 3.82454 -4.62308 40.5
      vertex 3.21496 -5.06597 -40.5
      vertex 3.82454 -4.62308 -40.5
    endloop
  endfacet
  facet normal 0.844327 -0.535828 0
    outer loop
      vertex 4.8541 -3.52671 40.5
      vertex 5.25784 -2.89052 -40.5
      vertex 5.25784 -2.89052 40.5
    endloop
  endfacet
  facet normal 0.844327 -0.535828 0
    outer loop
      vertex 5.25784 -2.89052 -40.5
      vertex 4.8541 -3.52671 40.5
      vertex 4.8541 -3.52671 -40.5
    endloop
  endfacet
  facet normal 0 -1 0
    outer loop
      vertex -0.376742 -5.98816 -40.5
      vertex 0.376742 -5.98816 40.5
      vertex -0.376742 -5.98816 40.5
    endloop
  endfacet
  facet normal 0 -1 -0
    outer loop
      vertex 0.376742 -5.98816 40.5
      vertex -0.376742 -5.98816 -40.5
      vertex 0.376742 -5.98816 -40.5
    endloop
  endfacet
  facet normal -0.684548 -0.728968 0
    outer loop
      vertex -4.37381 -4.10728 -40.5
      vertex -3.82454 -4.62308 40.5
      vertex -4.37381 -4.10728 40.5
    endloop
  endfacet
  facet normal -0.684548 -0.728968 -0
    outer loop
      vertex -3.82454 -4.62308 40.5
      vertex -4.37381 -4.10728 -40.5
      vertex -3.82454 -4.62308 -40.5
    endloop
  endfacet
  facet normal -0.770513 -0.637425 0
    outer loop
      vertex -4.37381 -4.10728 -40.5
      vertex -4.8541 -3.52671 40.5
      vertex -4.8541 -3.52671 -40.5
    endloop
  endfacet
  facet normal -0.770513 -0.637425 0
    outer loop
      vertex -4.8541 -3.52671 40.5
      vertex -4.37381 -4.10728 -40.5
      vertex -4.37381 -4.10728 40.5
    endloop
  endfacet
  facet normal -0.844327 -0.535828 0
    outer loop
      vertex -4.8541 -3.52671 -40.5
      vertex -5.25784 -2.89052 40.5
      vertex -5.25784 -2.89052 -40.5
    endloop
  endfacet
  facet normal -0.844327 -0.535828 0
    outer loop
      vertex -5.25784 -2.89052 40.5
      vertex -4.8541 -3.52671 -40.5
      vertex -4.8541 -3.52671 40.5
    endloop
  endfacet
  facet normal 0 0 -1
    outer loop
      vertex 2.75 0 -40.5
      vertex 6 0 -40.5
      vertex 5.95269 -0.751999 -40.5
    endloop
  endfacet
  facet normal 0 0 -1
    outer loop
      vertex 2.72832 -0.344666 -40.5
      vertex 5.95269 -0.751999 -40.5
      vertex 5.8115 -1.49214 -40.5
    endloop
  endfacet
  facet normal 0 0 -1
    outer loop
      vertex 6 0 -40.5
      vertex 2.75 0 -40.5
      vertex 5.95269 0.751999 -40.5
    endloop
  endfacet
  facet normal 0 0 -1
    outer loop
      vertex 2.6636 -0.683897 -40.5
      vertex 5.8115 -1.49214 -40.5
      vertex 5.57866 -2.20875 -40.5
    endloop
  endfacet
  facet normal 0 0 -1
    outer loop
      vertex 2.72832 0.344666 -40.5
      vertex 5.95269 0.751999 -40.5
      vertex 2.75 0 -40.5
    endloop
  endfacet
  facet normal 0 0 -1
    outer loop
      vertex 2.55688 -1.01234 -40.5
      vertex 5.57866 -2.20875 -40.5
      vertex 5.25784 -2.89052 -40.5
    endloop
  endfacet
  facet normal -0 0 -1
    outer loop
      vertex 5.95269 0.751999 -40.5
      vertex 2.72832 0.344666 -40.5
      vertex 5.8115 1.49214 -40.5
    endloop
  endfacet
  facet normal 0 0 -1
    outer loop
      vertex 2.40984 -1.32482 -40.5
      vertex 5.25784 -2.89052 -40.5
      vertex 4.8541 -3.52671 -40.5
    endloop
  endfacet
  facet normal 0 0 -1
    outer loop
      vertex 2.6636 0.683897 -40.5
      vertex 5.8115 1.49214 -40.5
      vertex 2.72832 0.344666 -40.5
    endloop
  endfacet
  facet normal 0 0 -1
    outer loop
      vertex 2.2248 -1.61641 -40.5
      vertex 4.8541 -3.52671 -40.5
      vertex 4.37381 -4.10728 -40.5
    endloop
  endfacet
  facet normal -0 0 -1
    outer loop
      vertex 5.8115 1.49214 -40.5
      vertex 2.6636 0.683897 -40.5
      vertex 5.57866 2.20875 -40.5
    endloop
  endfacet
  facet normal 0 0 -1
    outer loop
      vertex 2.00466 -1.8825 -40.5
      vertex 4.37381 -4.10728 -40.5
      vertex 3.82454 -4.62308 -40.5
    endloop
  endfacet
  facet normal 0 0 -1
    outer loop
      vertex 2.55688 1.01234 -40.5
      vertex 5.57866 2.20875 -40.5
      vertex 2.6636 0.683897 -40.5
    endloop
  endfacet
  facet normal 0 0 -1
    outer loop
      vertex 1.75292 -2.11891 -40.5
      vertex 3.82454 -4.62308 -40.5
      vertex 3.21496 -5.06597 -40.5
    endloop
  endfacet
  facet normal -0 0 -1
    outer loop
      vertex 5.57866 2.20875 -40.5
      vertex 2.55688 1.01234 -40.5
      vertex 5.25784 2.89052 -40.5
    endloop
  endfacet
  facet normal 0 0 -1
    outer loop
      vertex 2.40984 1.32482 -40.5
      vertex 5.25784 2.89052 -40.5
      vertex 2.55688 1.01234 -40.5
    endloop
  endfacet
  facet normal 0 0 -1
    outer loop
      vertex 5.95269 -0.751999 -40.5
      vertex 2.72832 -0.344666 -40.5
      vertex 2.75 0 -40.5
    endloop
  endfacet
  facet normal 0 0 -1
    outer loop
      vertex 5.8115 -1.49214 -40.5
      vertex 2.6636 -0.683897 -40.5
      vertex 2.72832 -0.344666 -40.5
    endloop
  endfacet
  facet normal 0 0 -1
    outer loop
      vertex 5.57866 -2.20875 -40.5
      vertex 2.55688 -1.01234 -40.5
      vertex 2.6636 -0.683897 -40.5
    endloop
  endfacet
  facet normal 0 0 -1
    outer loop
      vertex 1.47352 -2.3219 -40.5
      vertex 3.21496 -5.06597 -40.5
      vertex 2.55468 -5.42896 -40.5
    endloop
  endfacet
  facet normal 0 0 -1
    outer loop
      vertex 5.25784 -2.89052 -40.5
      vertex 2.40984 -1.32482 -40.5
      vertex 2.55688 -1.01234 -40.5
    endloop
  endfacet
  facet normal 0 0 -1
    outer loop
      vertex 4.8541 -3.52671 -40.5
      vertex 2.2248 -1.61641 -40.5
      vertex 2.40984 -1.32482 -40.5
    endloop
  endfacet
  facet normal 0 0 -1
    outer loop
      vertex 4.37381 -4.10728 -40.5
      vertex 2.00466 -1.8825 -40.5
      vertex 2.2248 -1.61641 -40.5
    endloop
  endfacet
  facet normal 0 0 -1
    outer loop
      vertex 1.17089 -2.48827 -40.5
      vertex 2.55468 -5.42896 -40.5
      vertex 1.8541 -5.70634 -40.5
    endloop
  endfacet
  facet normal 0 0 -1
    outer loop
      vertex 3.82454 -4.62308 -40.5
      vertex 1.75292 -2.11891 -40.5
      vertex 2.00466 -1.8825 -40.5
    endloop
  endfacet
  facet normal 0 0 -1
    outer loop
      vertex 3.21496 -5.06597 -40.5
      vertex 1.47352 -2.3219 -40.5
      vertex 1.75292 -2.11891 -40.5
    endloop
  endfacet
  facet normal 0 0 -1
    outer loop
      vertex 2.55468 -5.42896 -40.5
      vertex 1.17089 -2.48827 -40.5
      vertex 1.47352 -2.3219 -40.5
    endloop
  endfacet
  facet normal 0 0 -1
    outer loop
      vertex 0.849796 -2.61541 -40.5
      vertex 1.8541 -5.70634 -40.5
      vertex 1.12429 -5.89372 -40.5
    endloop
  endfacet
  facet normal 0 0 -1
    outer loop
      vertex 1.8541 -5.70634 -40.5
      vertex 0.849796 -2.61541 -40.5
      vertex 1.17089 -2.48827 -40.5
    endloop
  endfacet
  facet normal 0 0 -1
    outer loop
      vertex 1.12429 -5.89372 -40.5
      vertex 0.515298 -2.70129 -40.5
      vertex 0.849796 -2.61541 -40.5
    endloop
  endfacet
  facet normal 0 0 -1
    outer loop
      vertex 0.376742 -5.98816 -40.5
      vertex 0.515298 -2.70129 -40.5
      vertex 1.12429 -5.89372 -40.5
    endloop
  endfacet
  facet normal 0 0 -1
    outer loop
      vertex 0.376742 -5.98816 -40.5
      vertex 0.172673 -2.74457 -40.5
      vertex 0.515298 -2.70129 -40.5
    endloop
  endfacet
  facet normal 0 0 -1
    outer loop
      vertex 0.376742 -5.98816 -40.5
      vertex -0.172673 -2.74457 -40.5
      vertex 0.172673 -2.74457 -40.5
    endloop
  endfacet
  facet normal 0 0 -1
    outer loop
      vertex -0.376742 -5.98816 -40.5
      vertex -0.172673 -2.74457 -40.5
      vertex 0.376742 -5.98816 -40.5
    endloop
  endfacet
  facet normal 0 0 -1
    outer loop
      vertex -0.376742 -5.98816 -40.5
      vertex -0.515298 -2.70129 -40.5
      vertex -0.172673 -2.74457 -40.5
    endloop
  endfacet
  facet normal 0 0 -1
    outer loop
      vertex -1.12429 -5.89372 -40.5
      vertex -0.515298 -2.70129 -40.5
      vertex -0.376742 -5.98816 -40.5
    endloop
  endfacet
  facet normal -0 0 -1
    outer loop
      vertex -0.515298 -2.70129 -40.5
      vertex -1.12429 -5.89372 -40.5
      vertex -0.849796 -2.61541 -40.5
    endloop
  endfacet
  facet normal 0 0 -1
    outer loop
      vertex -1.8541 -5.70634 -40.5
      vertex -0.849796 -2.61541 -40.5
      vertex -1.12429 -5.89372 -40.5
    endloop
  endfacet
  facet normal -0 0 -1
    outer loop
      vertex -0.849796 -2.61541 -40.5
      vertex -1.8541 -5.70634 -40.5
      vertex -1.17089 -2.48827 -40.5
    endloop
  endfacet
  facet normal 0 0 -1
    outer loop
      vertex -2.55468 -5.42896 -40.5
      vertex -1.17089 -2.48827 -40.5
      vertex -1.8541 -5.70634 -40.5
    endloop
  endfacet
  facet normal -0 0 -1
    outer loop
      vertex -1.17089 -2.48827 -40.5
      vertex -2.55468 -5.42896 -40.5
      vertex -1.47352 -2.3219 -40.5
    endloop
  endfacet
  facet normal 0 0 -1
    outer loop
      vertex -3.21496 -5.06597 -40.5
      vertex -1.47352 -2.3219 -40.5
      vertex -2.55468 -5.42896 -40.5
    endloop
  endfacet
  facet normal -0 0 -1
    outer loop
      vertex -1.47352 -2.3219 -40.5
      vertex -3.21496 -5.06597 -40.5
      vertex -1.75292 -2.11891 -40.5
    endloop
  endfacet
  facet normal 0 0 -1
    outer loop
      vertex -3.82454 -4.62308 -40.5
      vertex -1.75292 -2.11891 -40.5
      vertex -3.21496 -5.06597 -40.5
    endloop
  endfacet
  facet normal -0 0 -1
    outer loop
      vertex -1.75292 -2.11891 -40.5
      vertex -3.82454 -4.62308 -40.5
      vertex -2.00466 -1.8825 -40.5
    endloop
  endfacet
  facet normal 0 0 -1
    outer loop
      vertex -4.37381 -4.10728 -40.5
      vertex -2.00466 -1.8825 -40.5
      vertex -3.82454 -4.62308 -40.5
    endloop
  endfacet
  facet normal -0 0 -1
    outer loop
      vertex -2.00466 -1.8825 -40.5
      vertex -4.37381 -4.10728 -40.5
      vertex -2.2248 -1.61641 -40.5
    endloop
  endfacet
  facet normal 0 0 -1
    outer loop
      vertex -4.8541 -3.52671 -40.5
      vertex -2.2248 -1.61641 -40.5
      vertex -4.37381 -4.10728 -40.5
    endloop
  endfacet
  facet normal -0 0 -1
    outer loop
      vertex -2.2248 -1.61641 -40.5
      vertex -4.8541 -3.52671 -40.5
      vertex -2.40984 -1.32482 -40.5
    endloop
  endfacet
  facet normal 0 0 -1
    outer loop
      vertex -5.25784 -2.89052 -40.5
      vertex -2.40984 -1.32482 -40.5
      vertex -4.8541 -3.52671 -40.5
    endloop
  endfacet
  facet normal -0 0 -1
    outer loop
      vertex 5.25784 2.89052 -40.5
      vertex 2.40984 1.32482 -40.5
      vertex 4.8541 3.52671 -40.5
    endloop
  endfacet
  facet normal 0 0 -1
    outer loop
      vertex 2.2248 1.61641 -40.5
      vertex 4.8541 3.52671 -40.5
      vertex 2.40984 1.32482 -40.5
    endloop
  endfacet
  facet normal -0 0 -1
    outer loop
      vertex 4.8541 3.52671 -40.5
      vertex 2.2248 1.61641 -40.5
      vertex 4.37381 4.10728 -40.5
    endloop
  endfacet
  facet normal 0 0 -1
    outer loop
      vertex 2.00466 1.8825 -40.5
      vertex 4.37381 4.10728 -40.5
      vertex 2.2248 1.61641 -40.5
    endloop
  endfacet
  facet normal -0 0 -1
    outer loop
      vertex 4.37381 4.10728 -40.5
      vertex 2.00466 1.8825 -40.5
      vertex 3.82454 4.62308 -40.5
    endloop
  endfacet
  facet normal 0 0 -1
    outer loop
      vertex 1.75292 2.11891 -40.5
      vertex 3.82454 4.62308 -40.5
      vertex 2.00466 1.8825 -40.5
    endloop
  endfacet
  facet normal -0 0 -1
    outer loop
      vertex 3.82454 4.62308 -40.5
      vertex 1.75292 2.11891 -40.5
      vertex 3.21496 5.06597 -40.5
    endloop
  endfacet
  facet normal 0 0 -1
    outer loop
      vertex 1.47352 2.3219 -40.5
      vertex 3.21496 5.06597 -40.5
      vertex 1.75292 2.11891 -40.5
    endloop
  endfacet
  facet normal -0 0 -1
    outer loop
      vertex 3.21496 5.06597 -40.5
      vertex 1.47352 2.3219 -40.5
      vertex 2.55468 5.42896 -40.5
    endloop
  endfacet
  facet normal 0 0 -1
    outer loop
      vertex 1.17089 2.48827 -40.5
      vertex 2.55468 5.42896 -40.5
      vertex 1.47352 2.3219 -40.5
    endloop
  endfacet
  facet normal -0 0 -1
    outer loop
      vertex 2.55468 5.42896 -40.5
      vertex 1.17089 2.48827 -40.5
      vertex 1.8541 5.70634 -40.5
    endloop
  endfacet
  facet normal 0 0 -1
    outer loop
      vertex 0.849796 2.61541 -40.5
      vertex 1.8541 5.70634 -40.5
      vertex 1.17089 2.48827 -40.5
    endloop
  endfacet
  facet normal -0 0 -1
    outer loop
      vertex 1.8541 5.70634 -40.5
      vertex 0.849796 2.61541 -40.5
      vertex 1.12429 5.89372 -40.5
    endloop
  endfacet
  facet normal 0 0 -1
    outer loop
      vertex 0.515298 2.70129 -40.5
      vertex 1.12429 5.89372 -40.5
      vertex 0.849796 2.61541 -40.5
    endloop
  endfacet
  facet normal 0 0 -1
    outer loop
      vertex 0.515298 2.70129 -40.5
      vertex 0.376742 5.98816 -40.5
      vertex 1.12429 5.89372 -40.5
    endloop
  endfacet
  facet normal 0 0 -1
    outer loop
      vertex 0.172673 2.74457 -40.5
      vertex 0.376742 5.98816 -40.5
      vertex 0.515298 2.70129 -40.5
    endloop
  endfacet
  facet normal 0 0 -1
    outer loop
      vertex -0.172673 2.74457 -40.5
      vertex 0.376742 5.98816 -40.5
      vertex 0.172673 2.74457 -40.5
    endloop
  endfacet
  facet normal 0 0 -1
    outer loop
      vertex -0.172673 2.74457 -40.5
      vertex -0.376742 5.98816 -40.5
      vertex 0.376742 5.98816 -40.5
    endloop
  endfacet
  facet normal 0 0 -1
    outer loop
      vertex -0.515298 2.70129 -40.5
      vertex -0.376742 5.98816 -40.5
      vertex -0.172673 2.74457 -40.5
    endloop
  endfacet
  facet normal 0 0 -1
    outer loop
      vertex -1.12429 5.89372 -40.5
      vertex -0.515298 2.70129 -40.5
      vertex -0.849796 2.61541 -40.5
    endloop
  endfacet
  facet normal 0 0 -1
    outer loop
      vertex -0.515298 2.70129 -40.5
      vertex -1.12429 5.89372 -40.5
      vertex -0.376742 5.98816 -40.5
    endloop
  endfacet
  facet normal 0 0 -1
    outer loop
      vertex -1.8541 5.70634 -40.5
      vertex -0.849796 2.61541 -40.5
      vertex -1.17089 2.48827 -40.5
    endloop
  endfacet
  facet normal 0 0 -1
    outer loop
      vertex -2.55468 5.42896 -40.5
      vertex -1.17089 2.48827 -40.5
      vertex -1.47352 2.3219 -40.5
    endloop
  endfacet
  facet normal 0 0 -1
    outer loop
      vertex -3.21496 5.06597 -40.5
      vertex -1.47352 2.3219 -40.5
      vertex -1.75292 2.11891 -40.5
    endloop
  endfacet
  facet normal 0 0 -1
    outer loop
      vertex -0.849796 2.61541 -40.5
      vertex -1.8541 5.70634 -40.5
      vertex -1.12429 5.89372 -40.5
    endloop
  endfacet
  facet normal 0 0 -1
    outer loop
      vertex -3.82454 4.62308 -40.5
      vertex -1.75292 2.11891 -40.5
      vertex -2.00466 1.8825 -40.5
    endloop
  endfacet
  facet normal 0 0 -1
    outer loop
      vertex -4.37381 4.10728 -40.5
      vertex -2.00466 1.8825 -40.5
      vertex -2.2248 1.61641 -40.5
    endloop
  endfacet
  facet normal 0 0 -1
    outer loop
      vertex -4.8541 3.52671 -40.5
      vertex -2.2248 1.61641 -40.5
      vertex -2.40984 1.32482 -40.5
    endloop
  endfacet
  facet normal 0 0 -1
    outer loop
      vertex -1.17089 2.48827 -40.5
      vertex -2.55468 5.42896 -40.5
      vertex -1.8541 5.70634 -40.5
    endloop
  endfacet
  facet normal 0 0 -1
    outer loop
      vertex -5.25784 2.89052 -40.5
      vertex -2.40984 1.32482 -40.5
      vertex -2.55688 1.01234 -40.5
    endloop
  endfacet
  facet normal 0 0 -1
    outer loop
      vertex -5.57866 2.20875 -40.5
      vertex -2.55688 1.01234 -40.5
      vertex -2.6636 0.683897 -40.5
    endloop
  endfacet
  facet normal 0 0 -1
    outer loop
      vertex -5.8115 1.49214 -40.5
      vertex -2.6636 0.683897 -40.5
      vertex -2.72832 0.344666 -40.5
    endloop
  endfacet
  facet normal 0 0 -1
    outer loop
      vertex -5.95269 0.751999 -40.5
      vertex -2.72832 0.344666 -40.5
      vertex -2.75 0 -40.5
    endloop
  endfacet
  facet normal -0 0 -1
    outer loop
      vertex -2.40984 -1.32482 -40.5
      vertex -5.25784 -2.89052 -40.5
      vertex -2.55688 -1.01234 -40.5
    endloop
  endfacet
  facet normal 0 0 -1
    outer loop
      vertex -1.47352 2.3219 -40.5
      vertex -3.21496 5.06597 -40.5
      vertex -2.55468 5.42896 -40.5
    endloop
  endfacet
  facet normal 0 0 -1
    outer loop
      vertex -5.57866 -2.20875 -40.5
      vertex -2.55688 -1.01234 -40.5
      vertex -5.25784 -2.89052 -40.5
    endloop
  endfacet
  facet normal 0 0 -1
    outer loop
      vertex -1.75292 2.11891 -40.5
      vertex -3.82454 4.62308 -40.5
      vertex -3.21496 5.06597 -40.5
    endloop
  endfacet
  facet normal -0 0 -1
    outer loop
      vertex -2.55688 -1.01234 -40.5
      vertex -5.57866 -2.20875 -40.5
      vertex -2.6636 -0.683897 -40.5
    endloop
  endfacet
  facet normal 0 0 -1
    outer loop
      vertex -2.00466 1.8825 -40.5
      vertex -4.37381 4.10728 -40.5
      vertex -3.82454 4.62308 -40.5
    endloop
  endfacet
  facet normal 0 0 -1
    outer loop
      vertex -5.8115 -1.49214 -40.5
      vertex -2.6636 -0.683897 -40.5
      vertex -5.57866 -2.20875 -40.5
    endloop
  endfacet
  facet normal 0 0 -1
    outer loop
      vertex -2.2248 1.61641 -40.5
      vertex -4.8541 3.52671 -40.5
      vertex -4.37381 4.10728 -40.5
    endloop
  endfacet
  facet normal -0 0 -1
    outer loop
      vertex -2.6636 -0.683897 -40.5
      vertex -5.8115 -1.49214 -40.5
      vertex -2.72832 -0.344666 -40.5
    endloop
  endfacet
  facet normal 0 0 -1
    outer loop
      vertex -2.40984 1.32482 -40.5
      vertex -5.25784 2.89052 -40.5
      vertex -4.8541 3.52671 -40.5
    endloop
  endfacet
  facet normal 0 0 -1
    outer loop
      vertex -5.95269 -0.751999 -40.5
      vertex -2.72832 -0.344666 -40.5
      vertex -5.8115 -1.49214 -40.5
    endloop
  endfacet
  facet normal 0 0 -1
    outer loop
      vertex -2.55688 1.01234 -40.5
      vertex -5.57866 2.20875 -40.5
      vertex -5.25784 2.89052 -40.5
    endloop
  endfacet
  facet normal -0 0 -1
    outer loop
      vertex -2.72832 -0.344666 -40.5
      vertex -5.95269 -0.751999 -40.5
      vertex -2.75 0 -40.5
    endloop
  endfacet
  facet normal 0 0 -1
    outer loop
      vertex -2.6636 0.683897 -40.5
      vertex -5.8115 1.49214 -40.5
      vertex -5.57866 2.20875 -40.5
    endloop
  endfacet
  facet normal 0 0 -1
    outer loop
      vertex -6 0 -40.5
      vertex -2.75 0 -40.5
      vertex -5.95269 -0.751999 -40.5
    endloop
  endfacet
  facet normal 0 0 -1
    outer loop
      vertex -2.72832 0.344666 -40.5
      vertex -5.95269 0.751999 -40.5
      vertex -5.8115 1.49214 -40.5
    endloop
  endfacet
  facet normal 0 0 -1
    outer loop
      vertex -2.75 0 -40.5
      vertex -6 0 -40.5
      vertex -5.95269 0.751999 -40.5
    endloop
  endfacet
  facet normal -0.982287 -0.187382 0
    outer loop
      vertex -5.8115 -1.49214 -40.5
      vertex -5.95269 -0.751999 40.5
      vertex -5.95269 -0.751999 -40.5
    endloop
  endfacet
  facet normal -0.982287 -0.187382 0
    outer loop
      vertex -5.95269 -0.751999 40.5
      vertex -5.8115 -1.49214 -40.5
      vertex -5.8115 -1.49214 40.5
    endloop
  endfacet
  facet normal -0.481752 -0.876308 0
    outer loop
      vertex -3.21496 -5.06597 -40.5
      vertex -2.55468 -5.42896 40.5
      vertex -3.21496 -5.06597 40.5
    endloop
  endfacet
  facet normal -0.481752 -0.876308 -0
    outer loop
      vertex -2.55468 -5.42896 40.5
      vertex -3.21496 -5.06597 -40.5
      vertex -2.55468 -5.42896 -40.5
    endloop
  endfacet
  facet normal -0.587789 -0.809014 0
    outer loop
      vertex -3.82454 -4.62308 -40.5
      vertex -3.21496 -5.06597 40.5
      vertex -3.82454 -4.62308 40.5
    endloop
  endfacet
  facet normal -0.587789 -0.809014 -0
    outer loop
      vertex -3.21496 -5.06597 40.5
      vertex -3.82454 -4.62308 -40.5
      vertex -3.21496 -5.06597 -40.5
    endloop
  endfacet
  facet normal -0.998028 -0.0627774 0
    outer loop
      vertex 2.75 0 -40.5
      vertex 2.72832 0.344666 40.5
      vertex 2.72832 0.344666 -40.5
    endloop
  endfacet
  facet normal -0.998028 -0.0627774 0
    outer loop
      vertex 2.72832 0.344666 40.5
      vertex 2.75 0 -40.5
      vertex 2.75 0 40.5
    endloop
  endfacet
  facet normal 0.998028 -0.0627774 0
    outer loop
      vertex -2.75 0 40.5
      vertex -2.72832 0.344666 -40.5
      vertex -2.72832 0.344666 40.5
    endloop
  endfacet
  facet normal 0.998028 -0.0627774 0
    outer loop
      vertex -2.72832 0.344666 -40.5
      vertex -2.75 0 40.5
      vertex -2.75 0 -40.5
    endloop
  endfacet
  facet normal 0 -1 0
    outer loop
      vertex -0.172673 2.74457 -40.5
      vertex 0.172673 2.74457 40.5
      vertex -0.172673 2.74457 40.5
    endloop
  endfacet
  facet normal 0 -1 -0
    outer loop
      vertex 0.172673 2.74457 40.5
      vertex -0.172673 2.74457 -40.5
      vertex 0.172673 2.74457 -40.5
    endloop
  endfacet
  facet normal -0.684563 -0.728954 0
    outer loop
      vertex 1.75292 2.11891 -40.5
      vertex 2.00466 1.8825 40.5
      vertex 1.75292 2.11891 40.5
    endloop
  endfacet
  facet normal -0.684563 -0.728954 -0
    outer loop
      vertex 2.00466 1.8825 40.5
      vertex 1.75292 2.11891 -40.5
      vertex 2.00466 1.8825 -40.5
    endloop
  endfacet
  facet normal 0.684563 -0.728954 0
    outer loop
      vertex -2.00466 1.8825 -40.5
      vertex -1.75292 2.11891 40.5
      vertex -2.00466 1.8825 40.5
    endloop
  endfacet
  facet normal 0.684563 -0.728954 0
    outer loop
      vertex -1.75292 2.11891 40.5
      vertex -2.00466 1.8825 -40.5
      vertex -1.75292 2.11891 -40.5
    endloop
  endfacet
  facet normal 0.368149 -0.929767 0
    outer loop
      vertex -1.17089 2.48827 -40.5
      vertex -0.849796 2.61541 40.5
      vertex -1.17089 2.48827 40.5
    endloop
  endfacet
  facet normal 0.368149 -0.929767 0
    outer loop
      vertex -0.849796 2.61541 40.5
      vertex -1.17089 2.48827 -40.5
      vertex -0.849796 2.61541 -40.5
    endloop
  endfacet
  facet normal -0.904829 -0.425775 0
    outer loop
      vertex 2.55688 1.01234 -40.5
      vertex 2.40984 1.32482 40.5
      vertex 2.40984 1.32482 -40.5
    endloop
  endfacet
  facet normal -0.904829 -0.425775 0
    outer loop
      vertex 2.40984 1.32482 40.5
      vertex 2.55688 1.01234 -40.5
      vertex 2.55688 1.01234 40.5
    endloop
  endfacet
  facet normal -0.368149 -0.929767 0
    outer loop
      vertex 0.849796 2.61541 -40.5
      vertex 1.17089 2.48827 40.5
      vertex 0.849796 2.61541 40.5
    endloop
  endfacet
  facet normal -0.368149 -0.929767 -0
    outer loop
      vertex 1.17089 2.48827 40.5
      vertex 0.849796 2.61541 -40.5
      vertex 1.17089 2.48827 -40.5
    endloop
  endfacet
  facet normal -0.587774 -0.809025 0
    outer loop
      vertex 1.47352 2.3219 -40.5
      vertex 1.75292 2.11891 40.5
      vertex 1.47352 2.3219 40.5
    endloop
  endfacet
  facet normal -0.587774 -0.809025 -0
    outer loop
      vertex 1.75292 2.11891 40.5
      vertex 1.47352 2.3219 -40.5
      vertex 1.75292 2.11891 -40.5
    endloop
  endfacet
  facet normal 0.844339 -0.535809 0
    outer loop
      vertex -2.40984 1.32482 40.5
      vertex -2.2248 1.61641 -40.5
      vertex -2.2248 1.61641 40.5
    endloop
  endfacet
  facet normal 0.844339 -0.535809 0
    outer loop
      vertex -2.2248 1.61641 -40.5
      vertex -2.40984 1.32482 40.5
      vertex -2.40984 1.32482 -40.5
    endloop
  endfacet
  facet normal 0.770497 -0.637443 0
    outer loop
      vertex -2.2248 1.61641 40.5
      vertex -2.00466 1.8825 -40.5
      vertex -2.00466 1.8825 40.5
    endloop
  endfacet
  facet normal 0.770497 -0.637443 0
    outer loop
      vertex -2.00466 1.8825 -40.5
      vertex -2.2248 1.61641 40.5
      vertex -2.2248 1.61641 -40.5
    endloop
  endfacet
  facet normal 0.982283 -0.187404 0
    outer loop
      vertex -2.72832 0.344666 40.5
      vertex -2.6636 0.683897 -40.5
      vertex -2.6636 0.683897 40.5
    endloop
  endfacet
  facet normal 0.982283 -0.187404 0
    outer loop
      vertex -2.6636 0.683897 -40.5
      vertex -2.72832 0.344666 40.5
      vertex -2.72832 0.344666 -40.5
    endloop
  endfacet
  facet normal 0.481749 -0.876309 0
    outer loop
      vertex -1.47352 2.3219 -40.5
      vertex -1.17089 2.48827 40.5
      vertex -1.47352 2.3219 40.5
    endloop
  endfacet
  facet normal 0.481749 -0.876309 0
    outer loop
      vertex -1.17089 2.48827 40.5
      vertex -1.47352 2.3219 -40.5
      vertex -1.17089 2.48827 -40.5
    endloop
  endfacet
  facet normal 0.125323 -0.992116 0
    outer loop
      vertex -0.515298 2.70129 -40.5
      vertex -0.172673 2.74457 40.5
      vertex -0.515298 2.70129 40.5
    endloop
  endfacet
  facet normal 0.125323 -0.992116 0
    outer loop
      vertex -0.172673 2.74457 40.5
      vertex -0.515298 2.70129 -40.5
      vertex -0.172673 2.74457 -40.5
    endloop
  endfacet
  facet normal -0.770497 0.637443 0
    outer loop
      vertex 2.00466 -1.8825 -40.5
      vertex 2.2248 -1.61641 40.5
      vertex 2.2248 -1.61641 -40.5
    endloop
  endfacet
  facet normal -0.770497 0.637443 0
    outer loop
      vertex 2.2248 -1.61641 40.5
      vertex 2.00466 -1.8825 -40.5
      vertex 2.00466 -1.8825 40.5
    endloop
  endfacet
  facet normal 0.248678 0.968586 -0
    outer loop
      vertex -0.515298 -2.70129 -40.5
      vertex -0.849796 -2.61541 40.5
      vertex -0.515298 -2.70129 40.5
    endloop
  endfacet
  facet normal 0.248678 0.968586 0
    outer loop
      vertex -0.849796 -2.61541 40.5
      vertex -0.515298 -2.70129 -40.5
      vertex -0.849796 -2.61541 -40.5
    endloop
  endfacet
  facet normal -0.125323 0.992116 0
    outer loop
      vertex 0.515298 -2.70129 -40.5
      vertex 0.172673 -2.74457 40.5
      vertex 0.515298 -2.70129 40.5
    endloop
  endfacet
  facet normal -0.125323 0.992116 0
    outer loop
      vertex 0.172673 -2.74457 40.5
      vertex 0.515298 -2.70129 -40.5
      vertex 0.172673 -2.74457 -40.5
    endloop
  endfacet
  facet normal -0.951054 -0.309023 0
    outer loop
      vertex 2.6636 0.683897 -40.5
      vertex 2.55688 1.01234 40.5
      vertex 2.55688 1.01234 -40.5
    endloop
  endfacet
  facet normal -0.951054 -0.309023 0
    outer loop
      vertex 2.55688 1.01234 40.5
      vertex 2.6636 0.683897 -40.5
      vertex 2.6636 0.683897 40.5
    endloop
  endfacet
  facet normal -0.982283 -0.187404 0
    outer loop
      vertex 2.72832 0.344666 -40.5
      vertex 2.6636 0.683897 40.5
      vertex 2.6636 0.683897 -40.5
    endloop
  endfacet
  facet normal -0.982283 -0.187404 0
    outer loop
      vertex 2.6636 0.683897 40.5
      vertex 2.72832 0.344666 -40.5
      vertex 2.72832 0.344666 40.5
    endloop
  endfacet
  facet normal -0.770497 -0.637443 0
    outer loop
      vertex 2.2248 1.61641 -40.5
      vertex 2.00466 1.8825 40.5
      vertex 2.00466 1.8825 -40.5
    endloop
  endfacet
  facet normal -0.770497 -0.637443 0
    outer loop
      vertex 2.00466 1.8825 40.5
      vertex 2.2248 1.61641 -40.5
      vertex 2.2248 1.61641 40.5
    endloop
  endfacet
  facet normal -0.844339 -0.535809 0
    outer loop
      vertex 2.40984 1.32482 -40.5
      vertex 2.2248 1.61641 40.5
      vertex 2.2248 1.61641 -40.5
    endloop
  endfacet
  facet normal -0.844339 -0.535809 0
    outer loop
      vertex 2.2248 1.61641 40.5
      vertex 2.40984 1.32482 -40.5
      vertex 2.40984 1.32482 40.5
    endloop
  endfacet
  facet normal -0.248678 -0.968586 0
    outer loop
      vertex 0.515298 2.70129 -40.5
      vertex 0.849796 2.61541 40.5
      vertex 0.515298 2.70129 40.5
    endloop
  endfacet
  facet normal -0.248678 -0.968586 -0
    outer loop
      vertex 0.849796 2.61541 40.5
      vertex 0.515298 2.70129 -40.5
      vertex 0.849796 2.61541 -40.5
    endloop
  endfacet
  facet normal -0.125323 -0.992116 0
    outer loop
      vertex 0.172673 2.74457 -40.5
      vertex 0.515298 2.70129 40.5
      vertex 0.172673 2.74457 40.5
    endloop
  endfacet
  facet normal -0.125323 -0.992116 -0
    outer loop
      vertex 0.515298 2.70129 40.5
      vertex 0.172673 2.74457 -40.5
      vertex 0.515298 2.70129 -40.5
    endloop
  endfacet
  facet normal -0.481749 -0.876309 0
    outer loop
      vertex 1.17089 2.48827 -40.5
      vertex 1.47352 2.3219 40.5
      vertex 1.17089 2.48827 40.5
    endloop
  endfacet
  facet normal -0.481749 -0.876309 -0
    outer loop
      vertex 1.47352 2.3219 40.5
      vertex 1.17089 2.48827 -40.5
      vertex 1.47352 2.3219 -40.5
    endloop
  endfacet
  facet normal 0.904829 -0.425775 0
    outer loop
      vertex -2.55688 1.01234 40.5
      vertex -2.40984 1.32482 -40.5
      vertex -2.40984 1.32482 40.5
    endloop
  endfacet
  facet normal 0.904829 -0.425775 0
    outer loop
      vertex -2.40984 1.32482 -40.5
      vertex -2.55688 1.01234 40.5
      vertex -2.55688 1.01234 -40.5
    endloop
  endfacet
  facet normal 0.951054 -0.309023 0
    outer loop
      vertex -2.6636 0.683897 40.5
      vertex -2.55688 1.01234 -40.5
      vertex -2.55688 1.01234 40.5
    endloop
  endfacet
  facet normal 0.951054 -0.309023 0
    outer loop
      vertex -2.55688 1.01234 -40.5
      vertex -2.6636 0.683897 40.5
      vertex -2.6636 0.683897 -40.5
    endloop
  endfacet
  facet normal 0.587774 -0.809025 0
    outer loop
      vertex -1.75292 2.11891 -40.5
      vertex -1.47352 2.3219 40.5
      vertex -1.75292 2.11891 40.5
    endloop
  endfacet
  facet normal 0.587774 -0.809025 0
    outer loop
      vertex -1.47352 2.3219 40.5
      vertex -1.75292 2.11891 -40.5
      vertex -1.47352 2.3219 -40.5
    endloop
  endfacet
  facet normal 0.248678 -0.968586 0
    outer loop
      vertex -0.849796 2.61541 -40.5
      vertex -0.515298 2.70129 40.5
      vertex -0.849796 2.61541 40.5
    endloop
  endfacet
  facet normal 0.248678 -0.968586 0
    outer loop
      vertex -0.515298 2.70129 40.5
      vertex -0.849796 2.61541 -40.5
      vertex -0.515298 2.70129 -40.5
    endloop
  endfacet
  facet normal -0.998028 0.0627774 0
    outer loop
      vertex 2.72832 -0.344666 -40.5
      vertex 2.75 0 40.5
      vertex 2.75 0 -40.5
    endloop
  endfacet
  facet normal -0.998028 0.0627774 0
    outer loop
      vertex 2.75 0 40.5
      vertex 2.72832 -0.344666 -40.5
      vertex 2.72832 -0.344666 40.5
    endloop
  endfacet
  facet normal -0.481749 0.876309 0
    outer loop
      vertex 1.47352 -2.3219 -40.5
      vertex 1.17089 -2.48827 40.5
      vertex 1.47352 -2.3219 40.5
    endloop
  endfacet
  facet normal -0.481749 0.876309 0
    outer loop
      vertex 1.17089 -2.48827 40.5
      vertex 1.47352 -2.3219 -40.5
      vertex 1.17089 -2.48827 -40.5
    endloop
  endfacet
  facet normal 0.998028 0.0627774 0
    outer loop
      vertex -2.72832 -0.344666 40.5
      vertex -2.75 0 -40.5
      vertex -2.75 0 40.5
    endloop
  endfacet
  facet normal 0.998028 0.0627774 0
    outer loop
      vertex -2.75 0 -40.5
      vertex -2.72832 -0.344666 40.5
      vertex -2.72832 -0.344666 -40.5
    endloop
  endfacet
  facet normal 0.951054 0.309023 0
    outer loop
      vertex -2.55688 -1.01234 40.5
      vertex -2.6636 -0.683897 -40.5
      vertex -2.6636 -0.683897 40.5
    endloop
  endfacet
  facet normal 0.951054 0.309023 0
    outer loop
      vertex -2.6636 -0.683897 -40.5
      vertex -2.55688 -1.01234 40.5
      vertex -2.55688 -1.01234 -40.5
    endloop
  endfacet
  facet normal -0.368149 0.929767 0
    outer loop
      vertex 1.17089 -2.48827 -40.5
      vertex 0.849796 -2.61541 40.5
      vertex 1.17089 -2.48827 40.5
    endloop
  endfacet
  facet normal -0.368149 0.929767 0
    outer loop
      vertex 0.849796 -2.61541 40.5
      vertex 1.17089 -2.48827 -40.5
      vertex 0.849796 -2.61541 -40.5
    endloop
  endfacet
  facet normal -0.248678 0.968586 0
    outer loop
      vertex 0.849796 -2.61541 -40.5
      vertex 0.515298 -2.70129 40.5
      vertex 0.849796 -2.61541 40.5
    endloop
  endfacet
  facet normal -0.248678 0.968586 0
    outer loop
      vertex 0.515298 -2.70129 40.5
      vertex 0.849796 -2.61541 -40.5
      vertex 0.515298 -2.70129 -40.5
    endloop
  endfacet
  facet normal -0.951054 0.309023 0
    outer loop
      vertex 2.55688 -1.01234 -40.5
      vertex 2.6636 -0.683897 40.5
      vertex 2.6636 -0.683897 -40.5
    endloop
  endfacet
  facet normal -0.951054 0.309023 0
    outer loop
      vertex 2.6636 -0.683897 40.5
      vertex 2.55688 -1.01234 -40.5
      vertex 2.55688 -1.01234 40.5
    endloop
  endfacet
  facet normal -0.904829 0.425775 0
    outer loop
      vertex 2.40984 -1.32482 -40.5
      vertex 2.55688 -1.01234 40.5
      vertex 2.55688 -1.01234 -40.5
    endloop
  endfacet
  facet normal -0.904829 0.425775 0
    outer loop
      vertex 2.55688 -1.01234 40.5
      vertex 2.40984 -1.32482 -40.5
      vertex 2.40984 -1.32482 40.5
    endloop
  endfacet
  facet normal -0.844339 0.535809 0
    outer loop
      vertex 2.2248 -1.61641 -40.5
      vertex 2.40984 -1.32482 40.5
      vertex 2.40984 -1.32482 -40.5
    endloop
  endfacet
  facet normal -0.844339 0.535809 0
    outer loop
      vertex 2.40984 -1.32482 40.5
      vertex 2.2248 -1.61641 -40.5
      vertex 2.2248 -1.61641 40.5
    endloop
  endfacet
  facet normal 0 1 -0
    outer loop
      vertex 0.172673 -2.74457 -40.5
      vertex -0.172673 -2.74457 40.5
      vertex 0.172673 -2.74457 40.5
    endloop
  endfacet
  facet normal 0 1 0
    outer loop
      vertex -0.172673 -2.74457 40.5
      vertex 0.172673 -2.74457 -40.5
      vertex -0.172673 -2.74457 -40.5
    endloop
  endfacet
  facet normal 0.368149 0.929767 -0
    outer loop
      vertex -0.849796 -2.61541 -40.5
      vertex -1.17089 -2.48827 40.5
      vertex -0.849796 -2.61541 40.5
    endloop
  endfacet
  facet normal 0.368149 0.929767 0
    outer loop
      vertex -1.17089 -2.48827 40.5
      vertex -0.849796 -2.61541 -40.5
      vertex -1.17089 -2.48827 -40.5
    endloop
  endfacet
  facet normal 0.770497 0.637443 0
    outer loop
      vertex -2.00466 -1.8825 40.5
      vertex -2.2248 -1.61641 -40.5
      vertex -2.2248 -1.61641 40.5
    endloop
  endfacet
  facet normal 0.770497 0.637443 0
    outer loop
      vertex -2.2248 -1.61641 -40.5
      vertex -2.00466 -1.8825 40.5
      vertex -2.00466 -1.8825 -40.5
    endloop
  endfacet
  facet normal 0.904829 0.425775 0
    outer loop
      vertex -2.40984 -1.32482 40.5
      vertex -2.55688 -1.01234 -40.5
      vertex -2.55688 -1.01234 40.5
    endloop
  endfacet
  facet normal 0.904829 0.425775 0
    outer loop
      vertex -2.55688 -1.01234 -40.5
      vertex -2.40984 -1.32482 40.5
      vertex -2.40984 -1.32482 -40.5
    endloop
  endfacet
  facet normal 0.982283 0.187404 0
    outer loop
      vertex -2.6636 -0.683897 40.5
      vertex -2.72832 -0.344666 -40.5
      vertex -2.72832 -0.344666 40.5
    endloop
  endfacet
  facet normal 0.982283 0.187404 0
    outer loop
      vertex -2.72832 -0.344666 -40.5
      vertex -2.6636 -0.683897 40.5
      vertex -2.6636 -0.683897 -40.5
    endloop
  endfacet
  facet normal -0.587774 0.809025 0
    outer loop
      vertex 1.75292 -2.11891 -40.5
      vertex 1.47352 -2.3219 40.5
      vertex 1.75292 -2.11891 40.5
    endloop
  endfacet
  facet normal -0.587774 0.809025 0
    outer loop
      vertex 1.47352 -2.3219 40.5
      vertex 1.75292 -2.11891 -40.5
      vertex 1.47352 -2.3219 -40.5
    endloop
  endfacet
  facet normal -0.982283 0.187404 0
    outer loop
      vertex 2.6636 -0.683897 -40.5
      vertex 2.72832 -0.344666 40.5
      vertex 2.72832 -0.344666 -40.5
    endloop
  endfacet
  facet normal -0.982283 0.187404 0
    outer loop
      vertex 2.72832 -0.344666 40.5
      vertex 2.6636 -0.683897 -40.5
      vertex 2.6636 -0.683897 40.5
    endloop
  endfacet
  facet normal 0.125323 0.992116 -0
    outer loop
      vertex -0.172673 -2.74457 -40.5
      vertex -0.515298 -2.70129 40.5
      vertex -0.172673 -2.74457 40.5
    endloop
  endfacet
  facet normal 0.125323 0.992116 0
    outer loop
      vertex -0.515298 -2.70129 40.5
      vertex -0.172673 -2.74457 -40.5
      vertex -0.515298 -2.70129 -40.5
    endloop
  endfacet
  facet normal 0.481749 0.876309 -0
    outer loop
      vertex -1.17089 -2.48827 -40.5
      vertex -1.47352 -2.3219 40.5
      vertex -1.17089 -2.48827 40.5
    endloop
  endfacet
  facet normal 0.481749 0.876309 0
    outer loop
      vertex -1.47352 -2.3219 40.5
      vertex -1.17089 -2.48827 -40.5
      vertex -1.47352 -2.3219 -40.5
    endloop
  endfacet
  facet normal 0.844339 0.535809 0
    outer loop
      vertex -2.2248 -1.61641 40.5
      vertex -2.40984 -1.32482 -40.5
      vertex -2.40984 -1.32482 40.5
    endloop
  endfacet
  facet normal 0.844339 0.535809 0
    outer loop
      vertex -2.40984 -1.32482 -40.5
      vertex -2.2248 -1.61641 40.5
      vertex -2.2248 -1.61641 -40.5
    endloop
  endfacet
  facet normal -0.684563 0.728954 0
    outer loop
      vertex 2.00466 -1.8825 -40.5
      vertex 1.75292 -2.11891 40.5
      vertex 2.00466 -1.8825 40.5
    endloop
  endfacet
  facet normal -0.684563 0.728954 0
    outer loop
      vertex 1.75292 -2.11891 40.5
      vertex 2.00466 -1.8825 -40.5
      vertex 1.75292 -2.11891 -40.5
    endloop
  endfacet
  facet normal 0.684563 0.728954 -0
    outer loop
      vertex -1.75292 -2.11891 -40.5
      vertex -2.00466 -1.8825 40.5
      vertex -1.75292 -2.11891 40.5
    endloop
  endfacet
  facet normal 0.684563 0.728954 0
    outer loop
      vertex -2.00466 -1.8825 40.5
      vertex -1.75292 -2.11891 -40.5
      vertex -2.00466 -1.8825 -40.5
    endloop
  endfacet
  facet normal 0.587774 0.809025 -0
    outer loop
      vertex -1.47352 -2.3219 -40.5
      vertex -1.75292 -2.11891 40.5
      vertex -1.47352 -2.3219 40.5
    endloop
  endfacet
  facet normal 0.587774 0.809025 0
    outer loop
      vertex -1.75292 -2.11891 40.5
      vertex -1.47352 -2.3219 -40.5
      vertex -1.75292 -2.11891 -40.5
    endloop
  endfacet
endsolid OpenSCAD_Model
