solid OpenSCAD_Model
  facet normal 0.998027 0.0627909 0
    outer loop
      vertex 3.75 0 49.5
      vertex 3.72043 0.469999 -49.5
      vertex 3.72043 0.469999 49.5
    endloop
  endfacet
  facet normal 0.998027 0.0627909 0
    outer loop
      vertex 3.72043 0.469999 -49.5
      vertex 3.75 0 49.5
      vertex 3.75 0 -49.5
    endloop
  endfacet
  facet normal -0.998027 0.0627909 0
    outer loop
      vertex -3.75 0 -49.5
      vertex -3.72043 0.469999 49.5
      vertex -3.72043 0.469999 -49.5
    endloop
  endfacet
  facet normal -0.998027 0.0627909 0
    outer loop
      vertex -3.72043 0.469999 49.5
      vertex -3.75 0 -49.5
      vertex -3.75 0 49.5
    endloop
  endfacet
  facet normal 0 1 -0
    outer loop
      vertex 0.235464 3.7426 -49.5
      vertex -0.235464 3.7426 49.5
      vertex 0.235464 3.7426 49.5
    endloop
  endfacet
  facet normal 0 1 0
    outer loop
      vertex -0.235464 3.7426 49.5
      vertex 0.235464 3.7426 -49.5
      vertex -0.235464 3.7426 -49.5
    endloop
  endfacet
  facet normal 0 -1 0
    outer loop
      vertex -0.235464 -3.7426 -49.5
      vertex 0.235464 -3.7426 49.5
      vertex -0.235464 -3.7426 49.5
    endloop
  endfacet
  facet normal 0 -1 -0
    outer loop
      vertex 0.235464 -3.7426 49.5
      vertex -0.235464 -3.7426 -49.5
      vertex 0.235464 -3.7426 -49.5
    endloop
  endfacet
  facet normal 0.684546 0.728969 -0
    outer loop
      vertex 2.73363 2.56705 -49.5
      vertex 2.39034 2.88942 49.5
      vertex 2.73363 2.56705 49.5
    endloop
  endfacet
  facet normal 0.684546 0.728969 0
    outer loop
      vertex 2.39034 2.88942 49.5
      vertex 2.73363 2.56705 -49.5
      vertex 2.39034 2.88942 -49.5
    endloop
  endfacet
  facet normal -0.684546 0.728969 0
    outer loop
      vertex -2.39034 2.88942 -49.5
      vertex -2.73363 2.56705 49.5
      vertex -2.39034 2.88942 49.5
    endloop
  endfacet
  facet normal -0.684546 0.728969 0
    outer loop
      vertex -2.73363 2.56705 49.5
      vertex -2.39034 2.88942 -49.5
      vertex -2.73363 2.56705 -49.5
    endloop
  endfacet
  facet normal -0.368123 0.929777 0
    outer loop
      vertex -1.15881 3.56646 -49.5
      vertex -1.59667 3.3931 49.5
      vertex -1.15881 3.56646 49.5
    endloop
  endfacet
  facet normal -0.368123 0.929777 0
    outer loop
      vertex -1.59667 3.3931 49.5
      vertex -1.15881 3.56646 -49.5
      vertex -1.59667 3.3931 -49.5
    endloop
  endfacet
  facet normal 0.951054 -0.309025 0
    outer loop
      vertex 3.48666 -1.38047 49.5
      vertex 3.63219 -0.932587 -49.5
      vertex 3.63219 -0.932587 49.5
    endloop
  endfacet
  facet normal 0.951054 -0.309025 0
    outer loop
      vertex 3.63219 -0.932587 -49.5
      vertex 3.48666 -1.38047 49.5
      vertex 3.48666 -1.38047 -49.5
    endloop
  endfacet
  facet normal 0.904829 0.425776 0
    outer loop
      vertex 3.48666 1.38047 49.5
      vertex 3.28615 1.80658 -49.5
      vertex 3.28615 1.80658 49.5
    endloop
  endfacet
  facet normal 0.904829 0.425776 0
    outer loop
      vertex 3.28615 1.80658 -49.5
      vertex 3.48666 1.38047 49.5
      vertex 3.48666 1.38047 -49.5
    endloop
  endfacet
  facet normal 0.982289 0.187374 0
    outer loop
      vertex 3.72043 0.469999 49.5
      vertex 3.63219 0.932587 -49.5
      vertex 3.63219 0.932587 49.5
    endloop
  endfacet
  facet normal 0.982289 0.187374 0
    outer loop
      vertex 3.63219 0.932587 -49.5
      vertex 3.72043 0.469999 49.5
      vertex 3.72043 0.469999 -49.5
    endloop
  endfacet
  facet normal 0.844319 0.53584 0
    outer loop
      vertex 3.28615 1.80658 49.5
      vertex 3.03381 2.20419 -49.5
      vertex 3.03381 2.20419 49.5
    endloop
  endfacet
  facet normal 0.844319 0.53584 0
    outer loop
      vertex 3.03381 2.20419 -49.5
      vertex 3.28615 1.80658 49.5
      vertex 3.28615 1.80658 -49.5
    endloop
  endfacet
  facet normal 0.368123 0.929777 -0
    outer loop
      vertex 1.59667 3.3931 -49.5
      vertex 1.15881 3.56646 49.5
      vertex 1.59667 3.3931 49.5
    endloop
  endfacet
  facet normal 0.368123 0.929777 0
    outer loop
      vertex 1.15881 3.56646 49.5
      vertex 1.59667 3.3931 -49.5
      vertex 1.15881 3.56646 -49.5
    endloop
  endfacet
  facet normal 0.248701 0.96858 -0
    outer loop
      vertex 1.15881 3.56646 -49.5
      vertex 0.70268 3.68358 49.5
      vertex 1.15881 3.56646 49.5
    endloop
  endfacet
  facet normal 0.248701 0.96858 0
    outer loop
      vertex 0.70268 3.68358 49.5
      vertex 1.15881 3.56646 -49.5
      vertex 0.70268 3.68358 -49.5
    endloop
  endfacet
  facet normal 0.481749 0.876309 -0
    outer loop
      vertex 2.00935 3.16623 -49.5
      vertex 1.59667 3.3931 49.5
      vertex 2.00935 3.16623 49.5
    endloop
  endfacet
  facet normal 0.481749 0.876309 0
    outer loop
      vertex 1.59667 3.3931 49.5
      vertex 2.00935 3.16623 -49.5
      vertex 1.59667 3.3931 -49.5
    endloop
  endfacet
  facet normal -0.904829 0.425776 0
    outer loop
      vertex -3.48666 1.38047 -49.5
      vertex -3.28615 1.80658 49.5
      vertex -3.28615 1.80658 -49.5
    endloop
  endfacet
  facet normal -0.904829 0.425776 0
    outer loop
      vertex -3.28615 1.80658 49.5
      vertex -3.48666 1.38047 -49.5
      vertex -3.48666 1.38047 49.5
    endloop
  endfacet
  facet normal -0.951054 0.309025 0
    outer loop
      vertex -3.63219 0.932587 -49.5
      vertex -3.48666 1.38047 49.5
      vertex -3.48666 1.38047 -49.5
    endloop
  endfacet
  facet normal -0.951054 0.309025 0
    outer loop
      vertex -3.48666 1.38047 49.5
      vertex -3.63219 0.932587 -49.5
      vertex -3.63219 0.932587 49.5
    endloop
  endfacet
  facet normal -0.248701 0.96858 0
    outer loop
      vertex -0.70268 3.68358 -49.5
      vertex -1.15881 3.56646 49.5
      vertex -0.70268 3.68358 49.5
    endloop
  endfacet
  facet normal -0.248701 0.96858 0
    outer loop
      vertex -1.15881 3.56646 49.5
      vertex -0.70268 3.68358 -49.5
      vertex -1.15881 3.56646 -49.5
    endloop
  endfacet
  facet normal 0.368123 -0.929777 0
    outer loop
      vertex 1.15881 -3.56646 -49.5
      vertex 1.59667 -3.3931 49.5
      vertex 1.15881 -3.56646 49.5
    endloop
  endfacet
  facet normal 0.368123 -0.929777 0
    outer loop
      vertex 1.59667 -3.3931 49.5
      vertex 1.15881 -3.56646 -49.5
      vertex 1.59667 -3.3931 -49.5
    endloop
  endfacet
  facet normal 0.481749 -0.876309 0
    outer loop
      vertex 1.59667 -3.3931 -49.5
      vertex 2.00935 -3.16623 49.5
      vertex 1.59667 -3.3931 49.5
    endloop
  endfacet
  facet normal 0.481749 -0.876309 0
    outer loop
      vertex 2.00935 -3.16623 49.5
      vertex 1.59667 -3.3931 -49.5
      vertex 2.00935 -3.16623 -49.5
    endloop
  endfacet
  facet normal 0.951054 0.309025 0
    outer loop
      vertex 3.63219 0.932587 49.5
      vertex 3.48666 1.38047 -49.5
      vertex 3.48666 1.38047 49.5
    endloop
  endfacet
  facet normal 0.951054 0.309025 0
    outer loop
      vertex 3.48666 1.38047 -49.5
      vertex 3.63219 0.932587 49.5
      vertex 3.63219 0.932587 -49.5
    endloop
  endfacet
  facet normal 0.770517 0.637419 0
    outer loop
      vertex 3.03381 2.20419 49.5
      vertex 2.73363 2.56705 -49.5
      vertex 2.73363 2.56705 49.5
    endloop
  endfacet
  facet normal 0.770517 0.637419 0
    outer loop
      vertex 2.73363 2.56705 -49.5
      vertex 3.03381 2.20419 49.5
      vertex 3.03381 2.20419 -49.5
    endloop
  endfacet
  facet normal 0.125327 0.992116 -0
    outer loop
      vertex 0.70268 3.68358 -49.5
      vertex 0.235464 3.7426 49.5
      vertex 0.70268 3.68358 49.5
    endloop
  endfacet
  facet normal 0.125327 0.992116 0
    outer loop
      vertex 0.235464 3.7426 49.5
      vertex 0.70268 3.68358 -49.5
      vertex 0.235464 3.7426 -49.5
    endloop
  endfacet
  facet normal 0.587792 0.809012 -0
    outer loop
      vertex 2.39034 2.88942 -49.5
      vertex 2.00935 3.16623 49.5
      vertex 2.39034 2.88942 49.5
    endloop
  endfacet
  facet normal 0.587792 0.809012 0
    outer loop
      vertex 2.00935 3.16623 49.5
      vertex 2.39034 2.88942 -49.5
      vertex 2.00935 3.16623 -49.5
    endloop
  endfacet
  facet normal -0.844319 0.53584 0
    outer loop
      vertex -3.28615 1.80658 -49.5
      vertex -3.03381 2.20419 49.5
      vertex -3.03381 2.20419 -49.5
    endloop
  endfacet
  facet normal -0.844319 0.53584 0
    outer loop
      vertex -3.03381 2.20419 49.5
      vertex -3.28615 1.80658 -49.5
      vertex -3.28615 1.80658 49.5
    endloop
  endfacet
  facet normal -0.770517 0.637419 0
    outer loop
      vertex -3.03381 2.20419 -49.5
      vertex -2.73363 2.56705 49.5
      vertex -2.73363 2.56705 -49.5
    endloop
  endfacet
  facet normal -0.770517 0.637419 0
    outer loop
      vertex -2.73363 2.56705 49.5
      vertex -3.03381 2.20419 -49.5
      vertex -3.03381 2.20419 49.5
    endloop
  endfacet
  facet normal -0.982289 0.187374 0
    outer loop
      vertex -3.72043 0.469999 -49.5
      vertex -3.63219 0.932587 49.5
      vertex -3.63219 0.932587 -49.5
    endloop
  endfacet
  facet normal -0.982289 0.187374 0
    outer loop
      vertex -3.63219 0.932587 49.5
      vertex -3.72043 0.469999 -49.5
      vertex -3.72043 0.469999 49.5
    endloop
  endfacet
  facet normal 0 0 1
    outer loop
      vertex 1.55 0 49.5
      vertex 3.75 0 49.5
      vertex 3.72043 0.469999 49.5
    endloop
  endfacet
  facet normal 0 0 1
    outer loop
      vertex 1.53778 0.194266 49.5
      vertex 3.72043 0.469999 49.5
      vertex 3.63219 0.932587 49.5
    endloop
  endfacet
  facet normal 0 0 1
    outer loop
      vertex 3.75 0 49.5
      vertex 1.55 0 49.5
      vertex 3.72043 -0.469999 49.5
    endloop
  endfacet
  facet normal 0 0 1
    outer loop
      vertex 1.5013 0.385468 49.5
      vertex 3.63219 0.932587 49.5
      vertex 3.48666 1.38047 49.5
    endloop
  endfacet
  facet normal -0 0 1
    outer loop
      vertex 1.53778 -0.194266 49.5
      vertex 3.72043 -0.469999 49.5
      vertex 1.55 0 49.5
    endloop
  endfacet
  facet normal 0 0 1
    outer loop
      vertex 1.44115 0.570593 49.5
      vertex 3.48666 1.38047 49.5
      vertex 3.28615 1.80658 49.5
    endloop
  endfacet
  facet normal 0 0 1
    outer loop
      vertex 3.72043 -0.469999 49.5
      vertex 1.53778 -0.194266 49.5
      vertex 3.63219 -0.932587 49.5
    endloop
  endfacet
  facet normal 0 0 1
    outer loop
      vertex 1.35827 0.746717 49.5
      vertex 3.28615 1.80658 49.5
      vertex 3.03381 2.20419 49.5
    endloop
  endfacet
  facet normal -0 0 1
    outer loop
      vertex 1.5013 -0.385468 49.5
      vertex 3.63219 -0.932587 49.5
      vertex 1.53778 -0.194266 49.5
    endloop
  endfacet
  facet normal 0 0 1
    outer loop
      vertex 1.25398 0.911067 49.5
      vertex 3.03381 2.20419 49.5
      vertex 2.73363 2.56705 49.5
    endloop
  endfacet
  facet normal 0 0 1
    outer loop
      vertex 3.63219 -0.932587 49.5
      vertex 1.5013 -0.385468 49.5
      vertex 3.48666 -1.38047 49.5
    endloop
  endfacet
  facet normal 0 0 1
    outer loop
      vertex 1.1299 1.06105 49.5
      vertex 2.73363 2.56705 49.5
      vertex 2.39034 2.88942 49.5
    endloop
  endfacet
  facet normal -0 0 1
    outer loop
      vertex 1.44115 -0.570593 49.5
      vertex 3.48666 -1.38047 49.5
      vertex 1.5013 -0.385468 49.5
    endloop
  endfacet
  facet normal 0 0 1
    outer loop
      vertex 0.988007 1.19429 49.5
      vertex 2.39034 2.88942 49.5
      vertex 2.00935 3.16623 49.5
    endloop
  endfacet
  facet normal 0 0 1
    outer loop
      vertex 3.48666 -1.38047 49.5
      vertex 1.44115 -0.570593 49.5
      vertex 3.28615 -1.80658 49.5
    endloop
  endfacet
  facet normal 0 0 1
    outer loop
      vertex 0.830531 1.30871 49.5
      vertex 2.00935 3.16623 49.5
      vertex 1.59667 3.3931 49.5
    endloop
  endfacet
  facet normal -0 0 1
    outer loop
      vertex 1.35827 -0.746717 49.5
      vertex 3.28615 -1.80658 49.5
      vertex 1.44115 -0.570593 49.5
    endloop
  endfacet
  facet normal 0 0 1
    outer loop
      vertex 3.28615 -1.80658 49.5
      vertex 1.35827 -0.746717 49.5
      vertex 3.03381 -2.20419 49.5
    endloop
  endfacet
  facet normal 0 0 1
    outer loop
      vertex 3.72043 0.469999 49.5
      vertex 1.53778 0.194266 49.5
      vertex 1.55 0 49.5
    endloop
  endfacet
  facet normal 0 0 1
    outer loop
      vertex 3.63219 0.932587 49.5
      vertex 1.5013 0.385468 49.5
      vertex 1.53778 0.194266 49.5
    endloop
  endfacet
  facet normal 0 0 1
    outer loop
      vertex 3.48666 1.38047 49.5
      vertex 1.44115 0.570593 49.5
      vertex 1.5013 0.385468 49.5
    endloop
  endfacet
  facet normal 0 0 1
    outer loop
      vertex 3.28615 1.80658 49.5
      vertex 1.35827 0.746717 49.5
      vertex 1.44115 0.570593 49.5
    endloop
  endfacet
  facet normal 0 0 1
    outer loop
      vertex 3.03381 2.20419 49.5
      vertex 1.25398 0.911067 49.5
      vertex 1.35827 0.746717 49.5
    endloop
  endfacet
  facet normal 0 0 1
    outer loop
      vertex 0.659958 1.40248 49.5
      vertex 1.59667 3.3931 49.5
      vertex 1.15881 3.56646 49.5
    endloop
  endfacet
  facet normal 0 0 1
    outer loop
      vertex 2.73363 2.56705 49.5
      vertex 1.1299 1.06105 49.5
      vertex 1.25398 0.911067 49.5
    endloop
  endfacet
  facet normal 0 0 1
    outer loop
      vertex 2.39034 2.88942 49.5
      vertex 0.988007 1.19429 49.5
      vertex 1.1299 1.06105 49.5
    endloop
  endfacet
  facet normal 0 0 1
    outer loop
      vertex 2.00935 3.16623 49.5
      vertex 0.830531 1.30871 49.5
      vertex 0.988007 1.19429 49.5
    endloop
  endfacet
  facet normal 0 0 1
    outer loop
      vertex 0.478976 1.47414 49.5
      vertex 1.15881 3.56646 49.5
      vertex 0.70268 3.68358 49.5
    endloop
  endfacet
  facet normal 0 0 1
    outer loop
      vertex 1.59667 3.3931 49.5
      vertex 0.659958 1.40248 49.5
      vertex 0.830531 1.30871 49.5
    endloop
  endfacet
  facet normal 0 0 1
    outer loop
      vertex 1.15881 3.56646 49.5
      vertex 0.478976 1.47414 49.5
      vertex 0.659958 1.40248 49.5
    endloop
  endfacet
  facet normal 0 0 1
    outer loop
      vertex 0.70268 3.68358 49.5
      vertex 0.290441 1.52254 49.5
      vertex 0.478976 1.47414 49.5
    endloop
  endfacet
  facet normal 0 0 1
    outer loop
      vertex 0.235464 3.7426 49.5
      vertex 0.290441 1.52254 49.5
      vertex 0.70268 3.68358 49.5
    endloop
  endfacet
  facet normal 0 0 1
    outer loop
      vertex 0.235464 3.7426 49.5
      vertex 0.0973244 1.54694 49.5
      vertex 0.290441 1.52254 49.5
    endloop
  endfacet
  facet normal 0 0 1
    outer loop
      vertex 0.235464 3.7426 49.5
      vertex -0.0973244 1.54694 49.5
      vertex 0.0973244 1.54694 49.5
    endloop
  endfacet
  facet normal -0 0 1
    outer loop
      vertex -0.235464 3.7426 49.5
      vertex -0.0973244 1.54694 49.5
      vertex 0.235464 3.7426 49.5
    endloop
  endfacet
  facet normal 0 0 1
    outer loop
      vertex -0.235464 3.7426 49.5
      vertex -0.290441 1.52254 49.5
      vertex -0.0973244 1.54694 49.5
    endloop
  endfacet
  facet normal -0 0 1
    outer loop
      vertex -0.70268 3.68358 49.5
      vertex -0.290441 1.52254 49.5
      vertex -0.235464 3.7426 49.5
    endloop
  endfacet
  facet normal 0 0 1
    outer loop
      vertex -0.290441 1.52254 49.5
      vertex -0.70268 3.68358 49.5
      vertex -0.478976 1.47414 49.5
    endloop
  endfacet
  facet normal -0 0 1
    outer loop
      vertex -1.15881 3.56646 49.5
      vertex -0.478976 1.47414 49.5
      vertex -0.70268 3.68358 49.5
    endloop
  endfacet
  facet normal 0 0 1
    outer loop
      vertex -0.478976 1.47414 49.5
      vertex -1.15881 3.56646 49.5
      vertex -0.659958 1.40248 49.5
    endloop
  endfacet
  facet normal -0 0 1
    outer loop
      vertex -1.59667 3.3931 49.5
      vertex -0.659958 1.40248 49.5
      vertex -1.15881 3.56646 49.5
    endloop
  endfacet
  facet normal 0 0 1
    outer loop
      vertex -0.659958 1.40248 49.5
      vertex -1.59667 3.3931 49.5
      vertex -0.830531 1.30871 49.5
    endloop
  endfacet
  facet normal -0 0 1
    outer loop
      vertex -2.00935 3.16623 49.5
      vertex -0.830531 1.30871 49.5
      vertex -1.59667 3.3931 49.5
    endloop
  endfacet
  facet normal 0 0 1
    outer loop
      vertex -0.830531 1.30871 49.5
      vertex -2.00935 3.16623 49.5
      vertex -0.988007 1.19429 49.5
    endloop
  endfacet
  facet normal -0 0 1
    outer loop
      vertex -2.39034 2.88942 49.5
      vertex -0.988007 1.19429 49.5
      vertex -2.00935 3.16623 49.5
    endloop
  endfacet
  facet normal 0 0 1
    outer loop
      vertex -0.988007 1.19429 49.5
      vertex -2.39034 2.88942 49.5
      vertex -1.1299 1.06105 49.5
    endloop
  endfacet
  facet normal -0 0 1
    outer loop
      vertex -2.73363 2.56705 49.5
      vertex -1.1299 1.06105 49.5
      vertex -2.39034 2.88942 49.5
    endloop
  endfacet
  facet normal 0 0 1
    outer loop
      vertex -1.1299 1.06105 49.5
      vertex -2.73363 2.56705 49.5
      vertex -1.25398 0.911067 49.5
    endloop
  endfacet
  facet normal 0 0 1
    outer loop
      vertex -1.25398 0.911067 49.5
      vertex -3.03381 2.20419 49.5
      vertex -1.35827 0.746717 49.5
    endloop
  endfacet
  facet normal -0 0 1
    outer loop
      vertex -3.03381 2.20419 49.5
      vertex -1.25398 0.911067 49.5
      vertex -2.73363 2.56705 49.5
    endloop
  endfacet
  facet normal -0 0 1
    outer loop
      vertex 1.25398 -0.911067 49.5
      vertex 3.03381 -2.20419 49.5
      vertex 1.35827 -0.746717 49.5
    endloop
  endfacet
  facet normal 0 0 1
    outer loop
      vertex 3.03381 -2.20419 49.5
      vertex 1.25398 -0.911067 49.5
      vertex 2.73363 -2.56705 49.5
    endloop
  endfacet
  facet normal -0 0 1
    outer loop
      vertex 1.1299 -1.06105 49.5
      vertex 2.73363 -2.56705 49.5
      vertex 1.25398 -0.911067 49.5
    endloop
  endfacet
  facet normal 0 0 1
    outer loop
      vertex 2.73363 -2.56705 49.5
      vertex 1.1299 -1.06105 49.5
      vertex 2.39034 -2.88942 49.5
    endloop
  endfacet
  facet normal -0 0 1
    outer loop
      vertex 0.988007 -1.19429 49.5
      vertex 2.39034 -2.88942 49.5
      vertex 1.1299 -1.06105 49.5
    endloop
  endfacet
  facet normal 0 0 1
    outer loop
      vertex 2.39034 -2.88942 49.5
      vertex 0.988007 -1.19429 49.5
      vertex 2.00935 -3.16623 49.5
    endloop
  endfacet
  facet normal -0 0 1
    outer loop
      vertex 0.830531 -1.30871 49.5
      vertex 2.00935 -3.16623 49.5
      vertex 0.988007 -1.19429 49.5
    endloop
  endfacet
  facet normal 0 0 1
    outer loop
      vertex 2.00935 -3.16623 49.5
      vertex 0.830531 -1.30871 49.5
      vertex 1.59667 -3.3931 49.5
    endloop
  endfacet
  facet normal -0 0 1
    outer loop
      vertex 0.659958 -1.40248 49.5
      vertex 1.59667 -3.3931 49.5
      vertex 0.830531 -1.30871 49.5
    endloop
  endfacet
  facet normal 0 0 1
    outer loop
      vertex 1.59667 -3.3931 49.5
      vertex 0.659958 -1.40248 49.5
      vertex 1.15881 -3.56646 49.5
    endloop
  endfacet
  facet normal -0 0 1
    outer loop
      vertex 0.478976 -1.47414 49.5
      vertex 1.15881 -3.56646 49.5
      vertex 0.659958 -1.40248 49.5
    endloop
  endfacet
  facet normal 0 0 1
    outer loop
      vertex 1.15881 -3.56646 49.5
      vertex 0.478976 -1.47414 49.5
      vertex 0.70268 -3.68358 49.5
    endloop
  endfacet
  facet normal -0 0 1
    outer loop
      vertex 0.290441 -1.52254 49.5
      vertex 0.70268 -3.68358 49.5
      vertex 0.478976 -1.47414 49.5
    endloop
  endfacet
  facet normal 0 0 1
    outer loop
      vertex 0.290441 -1.52254 49.5
      vertex 0.235464 -3.7426 49.5
      vertex 0.70268 -3.68358 49.5
    endloop
  endfacet
  facet normal -0 0 1
    outer loop
      vertex 0.0973244 -1.54694 49.5
      vertex 0.235464 -3.7426 49.5
      vertex 0.290441 -1.52254 49.5
    endloop
  endfacet
  facet normal -0 0 1
    outer loop
      vertex -0.0973244 -1.54694 49.5
      vertex 0.235464 -3.7426 49.5
      vertex 0.0973244 -1.54694 49.5
    endloop
  endfacet
  facet normal 0 0 1
    outer loop
      vertex -0.0973244 -1.54694 49.5
      vertex -0.235464 -3.7426 49.5
      vertex 0.235464 -3.7426 49.5
    endloop
  endfacet
  facet normal 0 0 1
    outer loop
      vertex -0.290441 -1.52254 49.5
      vertex -0.235464 -3.7426 49.5
      vertex -0.0973244 -1.54694 49.5
    endloop
  endfacet
  facet normal 0 0 1
    outer loop
      vertex -0.70268 -3.68358 49.5
      vertex -0.290441 -1.52254 49.5
      vertex -0.478976 -1.47414 49.5
    endloop
  endfacet
  facet normal 0 0 1
    outer loop
      vertex -1.15881 -3.56646 49.5
      vertex -0.478976 -1.47414 49.5
      vertex -0.659958 -1.40248 49.5
    endloop
  endfacet
  facet normal 0 0 1
    outer loop
      vertex -0.290441 -1.52254 49.5
      vertex -0.70268 -3.68358 49.5
      vertex -0.235464 -3.7426 49.5
    endloop
  endfacet
  facet normal 0 0 1
    outer loop
      vertex -1.59667 -3.3931 49.5
      vertex -0.659958 -1.40248 49.5
      vertex -0.830531 -1.30871 49.5
    endloop
  endfacet
  facet normal 0 0 1
    outer loop
      vertex -2.00935 -3.16623 49.5
      vertex -0.830531 -1.30871 49.5
      vertex -0.988007 -1.19429 49.5
    endloop
  endfacet
  facet normal 0 0 1
    outer loop
      vertex -2.39034 -2.88942 49.5
      vertex -0.988007 -1.19429 49.5
      vertex -1.1299 -1.06105 49.5
    endloop
  endfacet
  facet normal 0 0 1
    outer loop
      vertex -0.478976 -1.47414 49.5
      vertex -1.15881 -3.56646 49.5
      vertex -0.70268 -3.68358 49.5
    endloop
  endfacet
  facet normal 0 0 1
    outer loop
      vertex -2.73363 -2.56705 49.5
      vertex -1.1299 -1.06105 49.5
      vertex -1.25398 -0.911067 49.5
    endloop
  endfacet
  facet normal 0 0 1
    outer loop
      vertex -3.03381 -2.20419 49.5
      vertex -1.25398 -0.911067 49.5
      vertex -1.35827 -0.746717 49.5
    endloop
  endfacet
  facet normal 0 0 1
    outer loop
      vertex -3.28615 -1.80658 49.5
      vertex -1.35827 -0.746717 49.5
      vertex -1.44115 -0.570593 49.5
    endloop
  endfacet
  facet normal 0 0 1
    outer loop
      vertex -3.48666 -1.38047 49.5
      vertex -1.44115 -0.570593 49.5
      vertex -1.5013 -0.385468 49.5
    endloop
  endfacet
  facet normal 0 0 1
    outer loop
      vertex -3.63219 -0.932587 49.5
      vertex -1.5013 -0.385468 49.5
      vertex -1.53778 -0.194266 49.5
    endloop
  endfacet
  facet normal 0 0 1
    outer loop
      vertex -0.659958 -1.40248 49.5
      vertex -1.59667 -3.3931 49.5
      vertex -1.15881 -3.56646 49.5
    endloop
  endfacet
  facet normal 0 0 1
    outer loop
      vertex -3.72043 -0.469999 49.5
      vertex -1.53778 -0.194266 49.5
      vertex -1.55 0 49.5
    endloop
  endfacet
  facet normal -0 0 1
    outer loop
      vertex -3.28615 1.80658 49.5
      vertex -1.35827 0.746717 49.5
      vertex -3.03381 2.20419 49.5
    endloop
  endfacet
  facet normal 0 0 1
    outer loop
      vertex -1.35827 0.746717 49.5
      vertex -3.28615 1.80658 49.5
      vertex -1.44115 0.570593 49.5
    endloop
  endfacet
  facet normal 0 0 1
    outer loop
      vertex -0.830531 -1.30871 49.5
      vertex -2.00935 -3.16623 49.5
      vertex -1.59667 -3.3931 49.5
    endloop
  endfacet
  facet normal -0 0 1
    outer loop
      vertex -3.48666 1.38047 49.5
      vertex -1.44115 0.570593 49.5
      vertex -3.28615 1.80658 49.5
    endloop
  endfacet
  facet normal 0 0 1
    outer loop
      vertex -0.988007 -1.19429 49.5
      vertex -2.39034 -2.88942 49.5
      vertex -2.00935 -3.16623 49.5
    endloop
  endfacet
  facet normal 0 0 1
    outer loop
      vertex -1.44115 0.570593 49.5
      vertex -3.48666 1.38047 49.5
      vertex -1.5013 0.385468 49.5
    endloop
  endfacet
  facet normal 0 0 1
    outer loop
      vertex -1.1299 -1.06105 49.5
      vertex -2.73363 -2.56705 49.5
      vertex -2.39034 -2.88942 49.5
    endloop
  endfacet
  facet normal -0 0 1
    outer loop
      vertex -3.63219 0.932587 49.5
      vertex -1.5013 0.385468 49.5
      vertex -3.48666 1.38047 49.5
    endloop
  endfacet
  facet normal 0 0 1
    outer loop
      vertex -1.25398 -0.911067 49.5
      vertex -3.03381 -2.20419 49.5
      vertex -2.73363 -2.56705 49.5
    endloop
  endfacet
  facet normal 0 0 1
    outer loop
      vertex -1.5013 0.385468 49.5
      vertex -3.63219 0.932587 49.5
      vertex -1.53778 0.194266 49.5
    endloop
  endfacet
  facet normal 0 0 1
    outer loop
      vertex -1.35827 -0.746717 49.5
      vertex -3.28615 -1.80658 49.5
      vertex -3.03381 -2.20419 49.5
    endloop
  endfacet
  facet normal -0 0 1
    outer loop
      vertex -3.72043 0.469999 49.5
      vertex -1.53778 0.194266 49.5
      vertex -3.63219 0.932587 49.5
    endloop
  endfacet
  facet normal 0 0 1
    outer loop
      vertex -1.44115 -0.570593 49.5
      vertex -3.48666 -1.38047 49.5
      vertex -3.28615 -1.80658 49.5
    endloop
  endfacet
  facet normal 0 0 1
    outer loop
      vertex -1.53778 0.194266 49.5
      vertex -3.72043 0.469999 49.5
      vertex -1.55 0 49.5
    endloop
  endfacet
  facet normal 0 0 1
    outer loop
      vertex -1.5013 -0.385468 49.5
      vertex -3.63219 -0.932587 49.5
      vertex -3.48666 -1.38047 49.5
    endloop
  endfacet
  facet normal 0 0 1
    outer loop
      vertex -3.75 0 49.5
      vertex -1.55 0 49.5
      vertex -3.72043 0.469999 49.5
    endloop
  endfacet
  facet normal 0 0 1
    outer loop
      vertex -1.53778 -0.194266 49.5
      vertex -3.72043 -0.469999 49.5
      vertex -3.63219 -0.932587 49.5
    endloop
  endfacet
  facet normal 0 0 1
    outer loop
      vertex -1.55 0 49.5
      vertex -3.75 0 49.5
      vertex -3.72043 -0.469999 49.5
    endloop
  endfacet
  facet normal -0.481749 0.876309 0
    outer loop
      vertex -1.59667 3.3931 -49.5
      vertex -2.00935 3.16623 49.5
      vertex -1.59667 3.3931 49.5
    endloop
  endfacet
  facet normal -0.481749 0.876309 0
    outer loop
      vertex -2.00935 3.16623 49.5
      vertex -1.59667 3.3931 -49.5
      vertex -2.00935 3.16623 -49.5
    endloop
  endfacet
  facet normal -0.587792 0.809012 0
    outer loop
      vertex -2.00935 3.16623 -49.5
      vertex -2.39034 2.88942 49.5
      vertex -2.00935 3.16623 49.5
    endloop
  endfacet
  facet normal -0.587792 0.809012 0
    outer loop
      vertex -2.39034 2.88942 49.5
      vertex -2.00935 3.16623 -49.5
      vertex -2.39034 2.88942 -49.5
    endloop
  endfacet
  facet normal -0.125327 0.992116 0
    outer loop
      vertex -0.235464 3.7426 -49.5
      vertex -0.70268 3.68358 49.5
      vertex -0.235464 3.7426 49.5
    endloop
  endfacet
  facet normal -0.125327 0.992116 0
    outer loop
      vertex -0.70268 3.68358 49.5
      vertex -0.235464 3.7426 -49.5
      vertex -0.70268 3.68358 -49.5
    endloop
  endfacet
  facet normal 0.998027 -0.0627909 0
    outer loop
      vertex 3.72043 -0.469999 49.5
      vertex 3.75 0 -49.5
      vertex 3.75 0 49.5
    endloop
  endfacet
  facet normal 0.998027 -0.0627909 0
    outer loop
      vertex 3.75 0 -49.5
      vertex 3.72043 -0.469999 49.5
      vertex 3.72043 -0.469999 -49.5
    endloop
  endfacet
  facet normal 0.844319 -0.53584 0
    outer loop
      vertex 3.03381 -2.20419 49.5
      vertex 3.28615 -1.80658 -49.5
      vertex 3.28615 -1.80658 49.5
    endloop
  endfacet
  facet normal 0.844319 -0.53584 0
    outer loop
      vertex 3.28615 -1.80658 -49.5
      vertex 3.03381 -2.20419 49.5
      vertex 3.03381 -2.20419 -49.5
    endloop
  endfacet
  facet normal 0.982289 -0.187374 0
    outer loop
      vertex 3.63219 -0.932587 49.5
      vertex 3.72043 -0.469999 -49.5
      vertex 3.72043 -0.469999 49.5
    endloop
  endfacet
  facet normal 0.982289 -0.187374 0
    outer loop
      vertex 3.72043 -0.469999 -49.5
      vertex 3.63219 -0.932587 49.5
      vertex 3.63219 -0.932587 -49.5
    endloop
  endfacet
  facet normal 0 0 -1
    outer loop
      vertex 1.55 0 -49.5
      vertex 3.75 0 -49.5
      vertex 3.72043 -0.469999 -49.5
    endloop
  endfacet
  facet normal 0 0 -1
    outer loop
      vertex 1.53778 -0.194266 -49.5
      vertex 3.72043 -0.469999 -49.5
      vertex 3.63219 -0.932587 -49.5
    endloop
  endfacet
  facet normal 0 0 -1
    outer loop
      vertex 3.75 0 -49.5
      vertex 1.55 0 -49.5
      vertex 3.72043 0.469999 -49.5
    endloop
  endfacet
  facet normal 0 0 -1
    outer loop
      vertex 1.5013 -0.385468 -49.5
      vertex 3.63219 -0.932587 -49.5
      vertex 3.48666 -1.38047 -49.5
    endloop
  endfacet
  facet normal 0 0 -1
    outer loop
      vertex 1.53778 0.194266 -49.5
      vertex 3.72043 0.469999 -49.5
      vertex 1.55 0 -49.5
    endloop
  endfacet
  facet normal 0 0 -1
    outer loop
      vertex 1.44115 -0.570593 -49.5
      vertex 3.48666 -1.38047 -49.5
      vertex 3.28615 -1.80658 -49.5
    endloop
  endfacet
  facet normal -0 0 -1
    outer loop
      vertex 3.72043 0.469999 -49.5
      vertex 1.53778 0.194266 -49.5
      vertex 3.63219 0.932587 -49.5
    endloop
  endfacet
  facet normal 0 0 -1
    outer loop
      vertex 1.35827 -0.746717 -49.5
      vertex 3.28615 -1.80658 -49.5
      vertex 3.03381 -2.20419 -49.5
    endloop
  endfacet
  facet normal 0 0 -1
    outer loop
      vertex 1.5013 0.385468 -49.5
      vertex 3.63219 0.932587 -49.5
      vertex 1.53778 0.194266 -49.5
    endloop
  endfacet
  facet normal 0 0 -1
    outer loop
      vertex 1.25398 -0.911067 -49.5
      vertex 3.03381 -2.20419 -49.5
      vertex 2.73363 -2.56705 -49.5
    endloop
  endfacet
  facet normal -0 0 -1
    outer loop
      vertex 3.63219 0.932587 -49.5
      vertex 1.5013 0.385468 -49.5
      vertex 3.48666 1.38047 -49.5
    endloop
  endfacet
  facet normal 0 0 -1
    outer loop
      vertex 1.1299 -1.06105 -49.5
      vertex 2.73363 -2.56705 -49.5
      vertex 2.39034 -2.88942 -49.5
    endloop
  endfacet
  facet normal 0 0 -1
    outer loop
      vertex 1.44115 0.570593 -49.5
      vertex 3.48666 1.38047 -49.5
      vertex 1.5013 0.385468 -49.5
    endloop
  endfacet
  facet normal 0 0 -1
    outer loop
      vertex 0.988007 -1.19429 -49.5
      vertex 2.39034 -2.88942 -49.5
      vertex 2.00935 -3.16623 -49.5
    endloop
  endfacet
  facet normal -0 0 -1
    outer loop
      vertex 3.48666 1.38047 -49.5
      vertex 1.44115 0.570593 -49.5
      vertex 3.28615 1.80658 -49.5
    endloop
  endfacet
  facet normal 0 0 -1
    outer loop
      vertex 0.830531 -1.30871 -49.5
      vertex 2.00935 -3.16623 -49.5
      vertex 1.59667 -3.3931 -49.5
    endloop
  endfacet
  facet normal 0 0 -1
    outer loop
      vertex 1.35827 0.746717 -49.5
      vertex 3.28615 1.80658 -49.5
      vertex 1.44115 0.570593 -49.5
    endloop
  endfacet
  facet normal -0 0 -1
    outer loop
      vertex 3.28615 1.80658 -49.5
      vertex 1.35827 0.746717 -49.5
      vertex 3.03381 2.20419 -49.5
    endloop
  endfacet
  facet normal 0 0 -1
    outer loop
      vertex 3.72043 -0.469999 -49.5
      vertex 1.53778 -0.194266 -49.5
      vertex 1.55 0 -49.5
    endloop
  endfacet
  facet normal 0 0 -1
    outer loop
      vertex 3.63219 -0.932587 -49.5
      vertex 1.5013 -0.385468 -49.5
      vertex 1.53778 -0.194266 -49.5
    endloop
  endfacet
  facet normal 0 0 -1
    outer loop
      vertex 3.48666 -1.38047 -49.5
      vertex 1.44115 -0.570593 -49.5
      vertex 1.5013 -0.385468 -49.5
    endloop
  endfacet
  facet normal 0 0 -1
    outer loop
      vertex 3.28615 -1.80658 -49.5
      vertex 1.35827 -0.746717 -49.5
      vertex 1.44115 -0.570593 -49.5
    endloop
  endfacet
  facet normal 0 0 -1
    outer loop
      vertex 3.03381 -2.20419 -49.5
      vertex 1.25398 -0.911067 -49.5
      vertex 1.35827 -0.746717 -49.5
    endloop
  endfacet
  facet normal 0 0 -1
    outer loop
      vertex 0.659958 -1.40248 -49.5
      vertex 1.59667 -3.3931 -49.5
      vertex 1.15881 -3.56646 -49.5
    endloop
  endfacet
  facet normal 0 0 -1
    outer loop
      vertex 2.73363 -2.56705 -49.5
      vertex 1.1299 -1.06105 -49.5
      vertex 1.25398 -0.911067 -49.5
    endloop
  endfacet
  facet normal 0 0 -1
    outer loop
      vertex 2.39034 -2.88942 -49.5
      vertex 0.988007 -1.19429 -49.5
      vertex 1.1299 -1.06105 -49.5
    endloop
  endfacet
  facet normal 0 0 -1
    outer loop
      vertex 2.00935 -3.16623 -49.5
      vertex 0.830531 -1.30871 -49.5
      vertex 0.988007 -1.19429 -49.5
    endloop
  endfacet
  facet normal 0 0 -1
    outer loop
      vertex 0.478976 -1.47414 -49.5
      vertex 1.15881 -3.56646 -49.5
      vertex 0.70268 -3.68358 -49.5
    endloop
  endfacet
  facet normal 0 0 -1
    outer loop
      vertex 1.59667 -3.3931 -49.5
      vertex 0.659958 -1.40248 -49.5
      vertex 0.830531 -1.30871 -49.5
    endloop
  endfacet
  facet normal 0 0 -1
    outer loop
      vertex 1.15881 -3.56646 -49.5
      vertex 0.478976 -1.47414 -49.5
      vertex 0.659958 -1.40248 -49.5
    endloop
  endfacet
  facet normal 0 0 -1
    outer loop
      vertex 0.70268 -3.68358 -49.5
      vertex 0.290441 -1.52254 -49.5
      vertex 0.478976 -1.47414 -49.5
    endloop
  endfacet
  facet normal 0 0 -1
    outer loop
      vertex 0.235464 -3.7426 -49.5
      vertex 0.290441 -1.52254 -49.5
      vertex 0.70268 -3.68358 -49.5
    endloop
  endfacet
  facet normal 0 0 -1
    outer loop
      vertex 0.235464 -3.7426 -49.5
      vertex 0.0973244 -1.54694 -49.5
      vertex 0.290441 -1.52254 -49.5
    endloop
  endfacet
  facet normal 0 0 -1
    outer loop
      vertex 0.235464 -3.7426 -49.5
      vertex -0.0973244 -1.54694 -49.5
      vertex 0.0973244 -1.54694 -49.5
    endloop
  endfacet
  facet normal 0 0 -1
    outer loop
      vertex -0.235464 -3.7426 -49.5
      vertex -0.0973244 -1.54694 -49.5
      vertex 0.235464 -3.7426 -49.5
    endloop
  endfacet
  facet normal 0 0 -1
    outer loop
      vertex -0.235464 -3.7426 -49.5
      vertex -0.290441 -1.52254 -49.5
      vertex -0.0973244 -1.54694 -49.5
    endloop
  endfacet
  facet normal 0 0 -1
    outer loop
      vertex -0.70268 -3.68358 -49.5
      vertex -0.290441 -1.52254 -49.5
      vertex -0.235464 -3.7426 -49.5
    endloop
  endfacet
  facet normal -0 0 -1
    outer loop
      vertex -0.290441 -1.52254 -49.5
      vertex -0.70268 -3.68358 -49.5
      vertex -0.478976 -1.47414 -49.5
    endloop
  endfacet
  facet normal 0 0 -1
    outer loop
      vertex -1.15881 -3.56646 -49.5
      vertex -0.478976 -1.47414 -49.5
      vertex -0.70268 -3.68358 -49.5
    endloop
  endfacet
  facet normal -0 0 -1
    outer loop
      vertex -0.478976 -1.47414 -49.5
      vertex -1.15881 -3.56646 -49.5
      vertex -0.659958 -1.40248 -49.5
    endloop
  endfacet
  facet normal 0 0 -1
    outer loop
      vertex -1.59667 -3.3931 -49.5
      vertex -0.659958 -1.40248 -49.5
      vertex -1.15881 -3.56646 -49.5
    endloop
  endfacet
  facet normal -0 0 -1
    outer loop
      vertex -0.659958 -1.40248 -49.5
      vertex -1.59667 -3.3931 -49.5
      vertex -0.830531 -1.30871 -49.5
    endloop
  endfacet
  facet normal 0 0 -1
    outer loop
      vertex -2.00935 -3.16623 -49.5
      vertex -0.830531 -1.30871 -49.5
      vertex -1.59667 -3.3931 -49.5
    endloop
  endfacet
  facet normal -0 0 -1
    outer loop
      vertex -0.830531 -1.30871 -49.5
      vertex -2.00935 -3.16623 -49.5
      vertex -0.988007 -1.19429 -49.5
    endloop
  endfacet
  facet normal 0 0 -1
    outer loop
      vertex -2.39034 -2.88942 -49.5
      vertex -0.988007 -1.19429 -49.5
      vertex -2.00935 -3.16623 -49.5
    endloop
  endfacet
  facet normal -0 0 -1
    outer loop
      vertex -0.988007 -1.19429 -49.5
      vertex -2.39034 -2.88942 -49.5
      vertex -1.1299 -1.06105 -49.5
    endloop
  endfacet
  facet normal 0 0 -1
    outer loop
      vertex -2.73363 -2.56705 -49.5
      vertex -1.1299 -1.06105 -49.5
      vertex -2.39034 -2.88942 -49.5
    endloop
  endfacet
  facet normal -0 0 -1
    outer loop
      vertex -1.1299 -1.06105 -49.5
      vertex -2.73363 -2.56705 -49.5
      vertex -1.25398 -0.911067 -49.5
    endloop
  endfacet
  facet normal -0 0 -1
    outer loop
      vertex -1.25398 -0.911067 -49.5
      vertex -3.03381 -2.20419 -49.5
      vertex -1.35827 -0.746717 -49.5
    endloop
  endfacet
  facet normal 0 0 -1
    outer loop
      vertex -3.03381 -2.20419 -49.5
      vertex -1.25398 -0.911067 -49.5
      vertex -2.73363 -2.56705 -49.5
    endloop
  endfacet
  facet normal 0 0 -1
    outer loop
      vertex 1.25398 0.911067 -49.5
      vertex 3.03381 2.20419 -49.5
      vertex 1.35827 0.746717 -49.5
    endloop
  endfacet
  facet normal -0 0 -1
    outer loop
      vertex 3.03381 2.20419 -49.5
      vertex 1.25398 0.911067 -49.5
      vertex 2.73363 2.56705 -49.5
    endloop
  endfacet
  facet normal 0 0 -1
    outer loop
      vertex 1.1299 1.06105 -49.5
      vertex 2.73363 2.56705 -49.5
      vertex 1.25398 0.911067 -49.5
    endloop
  endfacet
  facet normal -0 0 -1
    outer loop
      vertex 2.73363 2.56705 -49.5
      vertex 1.1299 1.06105 -49.5
      vertex 2.39034 2.88942 -49.5
    endloop
  endfacet
  facet normal 0 0 -1
    outer loop
      vertex 0.988007 1.19429 -49.5
      vertex 2.39034 2.88942 -49.5
      vertex 1.1299 1.06105 -49.5
    endloop
  endfacet
  facet normal -0 0 -1
    outer loop
      vertex 2.39034 2.88942 -49.5
      vertex 0.988007 1.19429 -49.5
      vertex 2.00935 3.16623 -49.5
    endloop
  endfacet
  facet normal 0 0 -1
    outer loop
      vertex 0.830531 1.30871 -49.5
      vertex 2.00935 3.16623 -49.5
      vertex 0.988007 1.19429 -49.5
    endloop
  endfacet
  facet normal -0 0 -1
    outer loop
      vertex 2.00935 3.16623 -49.5
      vertex 0.830531 1.30871 -49.5
      vertex 1.59667 3.3931 -49.5
    endloop
  endfacet
  facet normal 0 0 -1
    outer loop
      vertex 0.659958 1.40248 -49.5
      vertex 1.59667 3.3931 -49.5
      vertex 0.830531 1.30871 -49.5
    endloop
  endfacet
  facet normal -0 0 -1
    outer loop
      vertex 1.59667 3.3931 -49.5
      vertex 0.659958 1.40248 -49.5
      vertex 1.15881 3.56646 -49.5
    endloop
  endfacet
  facet normal 0 0 -1
    outer loop
      vertex 0.478976 1.47414 -49.5
      vertex 1.15881 3.56646 -49.5
      vertex 0.659958 1.40248 -49.5
    endloop
  endfacet
  facet normal -0 0 -1
    outer loop
      vertex 1.15881 3.56646 -49.5
      vertex 0.478976 1.47414 -49.5
      vertex 0.70268 3.68358 -49.5
    endloop
  endfacet
  facet normal 0 0 -1
    outer loop
      vertex 0.290441 1.52254 -49.5
      vertex 0.70268 3.68358 -49.5
      vertex 0.478976 1.47414 -49.5
    endloop
  endfacet
  facet normal 0 0 -1
    outer loop
      vertex 0.290441 1.52254 -49.5
      vertex 0.235464 3.7426 -49.5
      vertex 0.70268 3.68358 -49.5
    endloop
  endfacet
  facet normal 0 0 -1
    outer loop
      vertex 0.0973244 1.54694 -49.5
      vertex 0.235464 3.7426 -49.5
      vertex 0.290441 1.52254 -49.5
    endloop
  endfacet
  facet normal 0 0 -1
    outer loop
      vertex -0.0973244 1.54694 -49.5
      vertex 0.235464 3.7426 -49.5
      vertex 0.0973244 1.54694 -49.5
    endloop
  endfacet
  facet normal 0 0 -1
    outer loop
      vertex -0.0973244 1.54694 -49.5
      vertex -0.235464 3.7426 -49.5
      vertex 0.235464 3.7426 -49.5
    endloop
  endfacet
  facet normal 0 0 -1
    outer loop
      vertex -0.290441 1.52254 -49.5
      vertex -0.235464 3.7426 -49.5
      vertex -0.0973244 1.54694 -49.5
    endloop
  endfacet
  facet normal 0 0 -1
    outer loop
      vertex -0.70268 3.68358 -49.5
      vertex -0.290441 1.52254 -49.5
      vertex -0.478976 1.47414 -49.5
    endloop
  endfacet
  facet normal 0 0 -1
    outer loop
      vertex -1.15881 3.56646 -49.5
      vertex -0.478976 1.47414 -49.5
      vertex -0.659958 1.40248 -49.5
    endloop
  endfacet
  facet normal 0 0 -1
    outer loop
      vertex -0.290441 1.52254 -49.5
      vertex -0.70268 3.68358 -49.5
      vertex -0.235464 3.7426 -49.5
    endloop
  endfacet
  facet normal 0 0 -1
    outer loop
      vertex -1.59667 3.3931 -49.5
      vertex -0.659958 1.40248 -49.5
      vertex -0.830531 1.30871 -49.5
    endloop
  endfacet
  facet normal 0 0 -1
    outer loop
      vertex -2.00935 3.16623 -49.5
      vertex -0.830531 1.30871 -49.5
      vertex -0.988007 1.19429 -49.5
    endloop
  endfacet
  facet normal 0 0 -1
    outer loop
      vertex -2.39034 2.88942 -49.5
      vertex -0.988007 1.19429 -49.5
      vertex -1.1299 1.06105 -49.5
    endloop
  endfacet
  facet normal 0 0 -1
    outer loop
      vertex -0.478976 1.47414 -49.5
      vertex -1.15881 3.56646 -49.5
      vertex -0.70268 3.68358 -49.5
    endloop
  endfacet
  facet normal 0 0 -1
    outer loop
      vertex -2.73363 2.56705 -49.5
      vertex -1.1299 1.06105 -49.5
      vertex -1.25398 0.911067 -49.5
    endloop
  endfacet
  facet normal 0 0 -1
    outer loop
      vertex -3.03381 2.20419 -49.5
      vertex -1.25398 0.911067 -49.5
      vertex -1.35827 0.746717 -49.5
    endloop
  endfacet
  facet normal 0 0 -1
    outer loop
      vertex -3.28615 1.80658 -49.5
      vertex -1.35827 0.746717 -49.5
      vertex -1.44115 0.570593 -49.5
    endloop
  endfacet
  facet normal 0 0 -1
    outer loop
      vertex -3.48666 1.38047 -49.5
      vertex -1.44115 0.570593 -49.5
      vertex -1.5013 0.385468 -49.5
    endloop
  endfacet
  facet normal 0 0 -1
    outer loop
      vertex -3.63219 0.932587 -49.5
      vertex -1.5013 0.385468 -49.5
      vertex -1.53778 0.194266 -49.5
    endloop
  endfacet
  facet normal 0 0 -1
    outer loop
      vertex -0.659958 1.40248 -49.5
      vertex -1.59667 3.3931 -49.5
      vertex -1.15881 3.56646 -49.5
    endloop
  endfacet
  facet normal 0 0 -1
    outer loop
      vertex -3.72043 0.469999 -49.5
      vertex -1.53778 0.194266 -49.5
      vertex -1.55 0 -49.5
    endloop
  endfacet
  facet normal 0 0 -1
    outer loop
      vertex -3.28615 -1.80658 -49.5
      vertex -1.35827 -0.746717 -49.5
      vertex -3.03381 -2.20419 -49.5
    endloop
  endfacet
  facet normal -0 0 -1
    outer loop
      vertex -1.35827 -0.746717 -49.5
      vertex -3.28615 -1.80658 -49.5
      vertex -1.44115 -0.570593 -49.5
    endloop
  endfacet
  facet normal 0 0 -1
    outer loop
      vertex -0.830531 1.30871 -49.5
      vertex -2.00935 3.16623 -49.5
      vertex -1.59667 3.3931 -49.5
    endloop
  endfacet
  facet normal 0 0 -1
    outer loop
      vertex -3.48666 -1.38047 -49.5
      vertex -1.44115 -0.570593 -49.5
      vertex -3.28615 -1.80658 -49.5
    endloop
  endfacet
  facet normal 0 0 -1
    outer loop
      vertex -0.988007 1.19429 -49.5
      vertex -2.39034 2.88942 -49.5
      vertex -2.00935 3.16623 -49.5
    endloop
  endfacet
  facet normal -0 0 -1
    outer loop
      vertex -1.44115 -0.570593 -49.5
      vertex -3.48666 -1.38047 -49.5
      vertex -1.5013 -0.385468 -49.5
    endloop
  endfacet
  facet normal 0 0 -1
    outer loop
      vertex -1.1299 1.06105 -49.5
      vertex -2.73363 2.56705 -49.5
      vertex -2.39034 2.88942 -49.5
    endloop
  endfacet
  facet normal 0 0 -1
    outer loop
      vertex -3.63219 -0.932587 -49.5
      vertex -1.5013 -0.385468 -49.5
      vertex -3.48666 -1.38047 -49.5
    endloop
  endfacet
  facet normal 0 0 -1
    outer loop
      vertex -1.25398 0.911067 -49.5
      vertex -3.03381 2.20419 -49.5
      vertex -2.73363 2.56705 -49.5
    endloop
  endfacet
  facet normal -0 0 -1
    outer loop
      vertex -1.5013 -0.385468 -49.5
      vertex -3.63219 -0.932587 -49.5
      vertex -1.53778 -0.194266 -49.5
    endloop
  endfacet
  facet normal 0 0 -1
    outer loop
      vertex -1.35827 0.746717 -49.5
      vertex -3.28615 1.80658 -49.5
      vertex -3.03381 2.20419 -49.5
    endloop
  endfacet
  facet normal 0 0 -1
    outer loop
      vertex -3.72043 -0.469999 -49.5
      vertex -1.53778 -0.194266 -49.5
      vertex -3.63219 -0.932587 -49.5
    endloop
  endfacet
  facet normal 0 0 -1
    outer loop
      vertex -1.44115 0.570593 -49.5
      vertex -3.48666 1.38047 -49.5
      vertex -3.28615 1.80658 -49.5
    endloop
  endfacet
  facet normal -0 0 -1
    outer loop
      vertex -1.53778 -0.194266 -49.5
      vertex -3.72043 -0.469999 -49.5
      vertex -1.55 0 -49.5
    endloop
  endfacet
  facet normal 0 0 -1
    outer loop
      vertex -1.5013 0.385468 -49.5
      vertex -3.63219 0.932587 -49.5
      vertex -3.48666 1.38047 -49.5
    endloop
  endfacet
  facet normal 0 0 -1
    outer loop
      vertex -3.75 0 -49.5
      vertex -1.55 0 -49.5
      vertex -3.72043 -0.469999 -49.5
    endloop
  endfacet
  facet normal 0 0 -1
    outer loop
      vertex -1.53778 0.194266 -49.5
      vertex -3.72043 0.469999 -49.5
      vertex -3.63219 0.932587 -49.5
    endloop
  endfacet
  facet normal 0 0 -1
    outer loop
      vertex -1.55 0 -49.5
      vertex -3.75 0 -49.5
      vertex -3.72043 0.469999 -49.5
    endloop
  endfacet
  facet normal 0.125327 -0.992116 0
    outer loop
      vertex 0.235464 -3.7426 -49.5
      vertex 0.70268 -3.68358 49.5
      vertex 0.235464 -3.7426 49.5
    endloop
  endfacet
  facet normal 0.125327 -0.992116 0
    outer loop
      vertex 0.70268 -3.68358 49.5
      vertex 0.235464 -3.7426 -49.5
      vertex 0.70268 -3.68358 -49.5
    endloop
  endfacet
  facet normal 0.587792 -0.809012 0
    outer loop
      vertex 2.00935 -3.16623 -49.5
      vertex 2.39034 -2.88942 49.5
      vertex 2.00935 -3.16623 49.5
    endloop
  endfacet
  facet normal 0.587792 -0.809012 0
    outer loop
      vertex 2.39034 -2.88942 49.5
      vertex 2.00935 -3.16623 -49.5
      vertex 2.39034 -2.88942 -49.5
    endloop
  endfacet
  facet normal 0.904829 -0.425776 0
    outer loop
      vertex 3.28615 -1.80658 49.5
      vertex 3.48666 -1.38047 -49.5
      vertex 3.48666 -1.38047 49.5
    endloop
  endfacet
  facet normal 0.904829 -0.425776 0
    outer loop
      vertex 3.48666 -1.38047 -49.5
      vertex 3.28615 -1.80658 49.5
      vertex 3.28615 -1.80658 -49.5
    endloop
  endfacet
  facet normal -0.248701 -0.96858 0
    outer loop
      vertex -1.15881 -3.56646 -49.5
      vertex -0.70268 -3.68358 49.5
      vertex -1.15881 -3.56646 49.5
    endloop
  endfacet
  facet normal -0.248701 -0.96858 -0
    outer loop
      vertex -0.70268 -3.68358 49.5
      vertex -1.15881 -3.56646 -49.5
      vertex -0.70268 -3.68358 -49.5
    endloop
  endfacet
  facet normal -0.844319 -0.53584 0
    outer loop
      vertex -3.03381 -2.20419 -49.5
      vertex -3.28615 -1.80658 49.5
      vertex -3.28615 -1.80658 -49.5
    endloop
  endfacet
  facet normal -0.844319 -0.53584 0
    outer loop
      vertex -3.28615 -1.80658 49.5
      vertex -3.03381 -2.20419 -49.5
      vertex -3.03381 -2.20419 49.5
    endloop
  endfacet
  facet normal -0.951054 -0.309025 0
    outer loop
      vertex -3.48666 -1.38047 -49.5
      vertex -3.63219 -0.932587 49.5
      vertex -3.63219 -0.932587 -49.5
    endloop
  endfacet
  facet normal -0.951054 -0.309025 0
    outer loop
      vertex -3.63219 -0.932587 49.5
      vertex -3.48666 -1.38047 -49.5
      vertex -3.48666 -1.38047 49.5
    endloop
  endfacet
  facet normal 0.684546 -0.728969 0
    outer loop
      vertex 2.39034 -2.88942 -49.5
      vertex 2.73363 -2.56705 49.5
      vertex 2.39034 -2.88942 49.5
    endloop
  endfacet
  facet normal 0.684546 -0.728969 0
    outer loop
      vertex 2.73363 -2.56705 49.5
      vertex 2.39034 -2.88942 -49.5
      vertex 2.73363 -2.56705 -49.5
    endloop
  endfacet
  facet normal -0.125327 -0.992116 0
    outer loop
      vertex -0.70268 -3.68358 -49.5
      vertex -0.235464 -3.7426 49.5
      vertex -0.70268 -3.68358 49.5
    endloop
  endfacet
  facet normal -0.125327 -0.992116 -0
    outer loop
      vertex -0.235464 -3.7426 49.5
      vertex -0.70268 -3.68358 -49.5
      vertex -0.235464 -3.7426 -49.5
    endloop
  endfacet
  facet normal -0.368123 -0.929777 0
    outer loop
      vertex -1.59667 -3.3931 -49.5
      vertex -1.15881 -3.56646 49.5
      vertex -1.59667 -3.3931 49.5
    endloop
  endfacet
  facet normal -0.368123 -0.929777 -0
    outer loop
      vertex -1.15881 -3.56646 49.5
      vertex -1.59667 -3.3931 -49.5
      vertex -1.15881 -3.56646 -49.5
    endloop
  endfacet
  facet normal -0.684546 -0.728969 0
    outer loop
      vertex -2.73363 -2.56705 -49.5
      vertex -2.39034 -2.88942 49.5
      vertex -2.73363 -2.56705 49.5
    endloop
  endfacet
  facet normal -0.684546 -0.728969 -0
    outer loop
      vertex -2.39034 -2.88942 49.5
      vertex -2.73363 -2.56705 -49.5
      vertex -2.39034 -2.88942 -49.5
    endloop
  endfacet
  facet normal -0.770517 -0.637419 0
    outer loop
      vertex -2.73363 -2.56705 -49.5
      vertex -3.03381 -2.20419 49.5
      vertex -3.03381 -2.20419 -49.5
    endloop
  endfacet
  facet normal -0.770517 -0.637419 0
    outer loop
      vertex -3.03381 -2.20419 49.5
      vertex -2.73363 -2.56705 -49.5
      vertex -2.73363 -2.56705 49.5
    endloop
  endfacet
  facet normal -0.904829 -0.425776 0
    outer loop
      vertex -3.28615 -1.80658 -49.5
      vertex -3.48666 -1.38047 49.5
      vertex -3.48666 -1.38047 -49.5
    endloop
  endfacet
  facet normal -0.904829 -0.425776 0
    outer loop
      vertex -3.48666 -1.38047 49.5
      vertex -3.28615 -1.80658 -49.5
      vertex -3.28615 -1.80658 49.5
    endloop
  endfacet
  facet normal -0.982289 -0.187374 0
    outer loop
      vertex -3.63219 -0.932587 -49.5
      vertex -3.72043 -0.469999 49.5
      vertex -3.72043 -0.469999 -49.5
    endloop
  endfacet
  facet normal -0.982289 -0.187374 0
    outer loop
      vertex -3.72043 -0.469999 49.5
      vertex -3.63219 -0.932587 -49.5
      vertex -3.63219 -0.932587 49.5
    endloop
  endfacet
  facet normal -0.998027 -0.0627909 0
    outer loop
      vertex -3.72043 -0.469999 -49.5
      vertex -3.75 0 49.5
      vertex -3.75 0 -49.5
    endloop
  endfacet
  facet normal -0.998027 -0.0627909 0
    outer loop
      vertex -3.75 0 49.5
      vertex -3.72043 -0.469999 -49.5
      vertex -3.72043 -0.469999 49.5
    endloop
  endfacet
  facet normal 0.770517 -0.637419 0
    outer loop
      vertex 2.73363 -2.56705 49.5
      vertex 3.03381 -2.20419 -49.5
      vertex 3.03381 -2.20419 49.5
    endloop
  endfacet
  facet normal 0.770517 -0.637419 0
    outer loop
      vertex 3.03381 -2.20419 -49.5
      vertex 2.73363 -2.56705 49.5
      vertex 2.73363 -2.56705 -49.5
    endloop
  endfacet
  facet normal 0.248701 -0.96858 0
    outer loop
      vertex 0.70268 -3.68358 -49.5
      vertex 1.15881 -3.56646 49.5
      vertex 0.70268 -3.68358 49.5
    endloop
  endfacet
  facet normal 0.248701 -0.96858 0
    outer loop
      vertex 1.15881 -3.56646 49.5
      vertex 0.70268 -3.68358 -49.5
      vertex 1.15881 -3.56646 -49.5
    endloop
  endfacet
  facet normal -0.481749 -0.876309 0
    outer loop
      vertex -2.00935 -3.16623 -49.5
      vertex -1.59667 -3.3931 49.5
      vertex -2.00935 -3.16623 49.5
    endloop
  endfacet
  facet normal -0.481749 -0.876309 -0
    outer loop
      vertex -1.59667 -3.3931 49.5
      vertex -2.00935 -3.16623 -49.5
      vertex -1.59667 -3.3931 -49.5
    endloop
  endfacet
  facet normal -0.587792 -0.809012 0
    outer loop
      vertex -2.39034 -2.88942 -49.5
      vertex -2.00935 -3.16623 49.5
      vertex -2.39034 -2.88942 49.5
    endloop
  endfacet
  facet normal -0.587792 -0.809012 -0
    outer loop
      vertex -2.00935 -3.16623 49.5
      vertex -2.39034 -2.88942 -49.5
      vertex -2.00935 -3.16623 -49.5
    endloop
  endfacet
  facet normal -0.904822 -0.425789 0
    outer loop
      vertex 1.44115 0.570593 -49.5
      vertex 1.35827 0.746717 49.5
      vertex 1.35827 0.746717 -49.5
    endloop
  endfacet
  facet normal -0.904822 -0.425789 0
    outer loop
      vertex 1.35827 0.746717 49.5
      vertex 1.44115 0.570593 -49.5
      vertex 1.44115 0.570593 49.5
    endloop
  endfacet
  facet normal 0.951058 -0.309013 0
    outer loop
      vertex -1.5013 0.385468 49.5
      vertex -1.44115 0.570593 -49.5
      vertex -1.44115 0.570593 49.5
    endloop
  endfacet
  facet normal 0.951058 -0.309013 0
    outer loop
      vertex -1.44115 0.570593 -49.5
      vertex -1.5013 0.385468 49.5
      vertex -1.5013 0.385468 -49.5
    endloop
  endfacet
  facet normal -0.84435 -0.535791 0
    outer loop
      vertex 1.35827 0.746717 -49.5
      vertex 1.25398 0.911067 49.5
      vertex 1.25398 0.911067 -49.5
    endloop
  endfacet
  facet normal -0.84435 -0.535791 0
    outer loop
      vertex 1.25398 0.911067 49.5
      vertex 1.35827 0.746717 -49.5
      vertex 1.35827 0.746717 49.5
    endloop
  endfacet
  facet normal -0.368143 -0.929769 0
    outer loop
      vertex 0.478976 1.47414 -49.5
      vertex 0.659958 1.40248 49.5
      vertex 0.478976 1.47414 49.5
    endloop
  endfacet
  facet normal -0.368143 -0.929769 -0
    outer loop
      vertex 0.659958 1.40248 49.5
      vertex 0.478976 1.47414 -49.5
      vertex 0.659958 1.40248 -49.5
    endloop
  endfacet
  facet normal 0.368143 -0.929769 0
    outer loop
      vertex -0.659958 1.40248 -49.5
      vertex -0.478976 1.47414 49.5
      vertex -0.659958 1.40248 49.5
    endloop
  endfacet
  facet normal 0.368143 -0.929769 0
    outer loop
      vertex -0.478976 1.47414 49.5
      vertex -0.659958 1.40248 -49.5
      vertex -0.478976 1.47414 -49.5
    endloop
  endfacet
  facet normal 0.904822 -0.425789 0
    outer loop
      vertex -1.44115 0.570593 49.5
      vertex -1.35827 0.746717 -49.5
      vertex -1.35827 0.746717 49.5
    endloop
  endfacet
  facet normal 0.904822 -0.425789 0
    outer loop
      vertex -1.35827 0.746717 -49.5
      vertex -1.44115 0.570593 49.5
      vertex -1.44115 0.570593 -49.5
    endloop
  endfacet
  facet normal -0.998027 0.0627794 0
    outer loop
      vertex 1.53778 -0.194266 -49.5
      vertex 1.55 0 49.5
      vertex 1.55 0 -49.5
    endloop
  endfacet
  facet normal -0.998027 0.0627794 0
    outer loop
      vertex 1.55 0 49.5
      vertex 1.53778 -0.194266 -49.5
      vertex 1.53778 -0.194266 49.5
    endloop
  endfacet
  facet normal -0.481741 0.876314 0
    outer loop
      vertex 0.830531 -1.30871 -49.5
      vertex 0.659958 -1.40248 49.5
      vertex 0.830531 -1.30871 49.5
    endloop
  endfacet
  facet normal -0.481741 0.876314 0
    outer loop
      vertex 0.659958 -1.40248 49.5
      vertex 0.830531 -1.30871 -49.5
      vertex 0.659958 -1.40248 -49.5
    endloop
  endfacet
  facet normal -0.125352 -0.992112 0
    outer loop
      vertex 0.0973244 1.54694 -49.5
      vertex 0.290441 1.52254 49.5
      vertex 0.0973244 1.54694 49.5
    endloop
  endfacet
  facet normal -0.125352 -0.992112 -0
    outer loop
      vertex 0.290441 1.52254 49.5
      vertex 0.0973244 1.54694 -49.5
      vertex 0.290441 1.52254 -49.5
    endloop
  endfacet
  facet normal -0.587809 -0.809 0
    outer loop
      vertex 0.830531 1.30871 -49.5
      vertex 0.988007 1.19429 49.5
      vertex 0.830531 1.30871 49.5
    endloop
  endfacet
  facet normal -0.587809 -0.809 -0
    outer loop
      vertex 0.988007 1.19429 49.5
      vertex 0.830531 1.30871 -49.5
      vertex 0.988007 1.19429 -49.5
    endloop
  endfacet
  facet normal 0.770505 -0.637434 0
    outer loop
      vertex -1.25398 0.911067 49.5
      vertex -1.1299 1.06105 -49.5
      vertex -1.1299 1.06105 49.5
    endloop
  endfacet
  facet normal 0.770505 -0.637434 0
    outer loop
      vertex -1.1299 1.06105 -49.5
      vertex -1.25398 0.911067 49.5
      vertex -1.25398 0.911067 -49.5
    endloop
  endfacet
  facet normal 0.481741 -0.876314 0
    outer loop
      vertex -0.830531 1.30871 -49.5
      vertex -0.659958 1.40248 49.5
      vertex -0.830531 1.30871 49.5
    endloop
  endfacet
  facet normal 0.481741 -0.876314 0
    outer loop
      vertex -0.659958 1.40248 49.5
      vertex -0.830531 1.30871 -49.5
      vertex -0.659958 1.40248 -49.5
    endloop
  endfacet
  facet normal 0.587809 -0.809 0
    outer loop
      vertex -0.988007 1.19429 -49.5
      vertex -0.830531 1.30871 49.5
      vertex -0.988007 1.19429 49.5
    endloop
  endfacet
  facet normal 0.587809 -0.809 0
    outer loop
      vertex -0.830531 1.30871 49.5
      vertex -0.988007 1.19429 -49.5
      vertex -0.830531 1.30871 -49.5
    endloop
  endfacet
  facet normal -0.998027 -0.0627794 0
    outer loop
      vertex 1.55 0 -49.5
      vertex 1.53778 0.194266 49.5
      vertex 1.53778 0.194266 -49.5
    endloop
  endfacet
  facet normal -0.998027 -0.0627794 0
    outer loop
      vertex 1.53778 0.194266 49.5
      vertex 1.55 0 -49.5
      vertex 1.55 0 49.5
    endloop
  endfacet
  facet normal -0.68453 0.728985 0
    outer loop
      vertex 1.1299 -1.06105 -49.5
      vertex 0.988007 -1.19429 49.5
      vertex 1.1299 -1.06105 49.5
    endloop
  endfacet
  facet normal -0.68453 0.728985 0
    outer loop
      vertex 0.988007 -1.19429 49.5
      vertex 1.1299 -1.06105 -49.5
      vertex 0.988007 -1.19429 -49.5
    endloop
  endfacet
  facet normal -0.951058 0.309013 0
    outer loop
      vertex 1.44115 -0.570593 -49.5
      vertex 1.5013 -0.385468 49.5
      vertex 1.5013 -0.385468 -49.5
    endloop
  endfacet
  facet normal -0.951058 0.309013 0
    outer loop
      vertex 1.5013 -0.385468 49.5
      vertex 1.44115 -0.570593 -49.5
      vertex 1.44115 -0.570593 49.5
    endloop
  endfacet
  facet normal 0.125352 0.992112 -0
    outer loop
      vertex -0.0973244 -1.54694 -49.5
      vertex -0.290441 -1.52254 49.5
      vertex -0.0973244 -1.54694 49.5
    endloop
  endfacet
  facet normal 0.125352 0.992112 0
    outer loop
      vertex -0.290441 -1.52254 49.5
      vertex -0.0973244 -1.54694 -49.5
      vertex -0.290441 -1.52254 -49.5
    endloop
  endfacet
  facet normal -0.951058 -0.309013 0
    outer loop
      vertex 1.5013 0.385468 -49.5
      vertex 1.44115 0.570593 49.5
      vertex 1.44115 0.570593 -49.5
    endloop
  endfacet
  facet normal -0.951058 -0.309013 0
    outer loop
      vertex 1.44115 0.570593 49.5
      vertex 1.5013 0.385468 -49.5
      vertex 1.5013 0.385468 49.5
    endloop
  endfacet
  facet normal -0.68453 -0.728985 0
    outer loop
      vertex 0.988007 1.19429 -49.5
      vertex 1.1299 1.06105 49.5
      vertex 0.988007 1.19429 49.5
    endloop
  endfacet
  facet normal -0.68453 -0.728985 -0
    outer loop
      vertex 1.1299 1.06105 49.5
      vertex 0.988007 1.19429 -49.5
      vertex 1.1299 1.06105 -49.5
    endloop
  endfacet
  facet normal 0 -1 0
    outer loop
      vertex -0.0973244 1.54694 -49.5
      vertex 0.0973244 1.54694 49.5
      vertex -0.0973244 1.54694 49.5
    endloop
  endfacet
  facet normal 0 -1 -0
    outer loop
      vertex 0.0973244 1.54694 49.5
      vertex -0.0973244 1.54694 -49.5
      vertex 0.0973244 1.54694 -49.5
    endloop
  endfacet
  facet normal -0.248653 -0.968593 0
    outer loop
      vertex 0.290441 1.52254 -49.5
      vertex 0.478976 1.47414 49.5
      vertex 0.290441 1.52254 49.5
    endloop
  endfacet
  facet normal -0.248653 -0.968593 -0
    outer loop
      vertex 0.478976 1.47414 49.5
      vertex 0.290441 1.52254 -49.5
      vertex 0.478976 1.47414 -49.5
    endloop
  endfacet
  facet normal 0.998027 -0.0627794 0
    outer loop
      vertex -1.55 0 49.5
      vertex -1.53778 0.194266 -49.5
      vertex -1.53778 0.194266 49.5
    endloop
  endfacet
  facet normal 0.998027 -0.0627794 0
    outer loop
      vertex -1.53778 0.194266 -49.5
      vertex -1.55 0 49.5
      vertex -1.55 0 -49.5
    endloop
  endfacet
  facet normal 0.982281 -0.187412 0
    outer loop
      vertex -1.53778 0.194266 49.5
      vertex -1.5013 0.385468 -49.5
      vertex -1.5013 0.385468 49.5
    endloop
  endfacet
  facet normal 0.982281 -0.187412 0
    outer loop
      vertex -1.5013 0.385468 -49.5
      vertex -1.53778 0.194266 49.5
      vertex -1.53778 0.194266 -49.5
    endloop
  endfacet
  facet normal 0.84435 -0.535791 0
    outer loop
      vertex -1.35827 0.746717 49.5
      vertex -1.25398 0.911067 -49.5
      vertex -1.25398 0.911067 49.5
    endloop
  endfacet
  facet normal 0.84435 -0.535791 0
    outer loop
      vertex -1.25398 0.911067 -49.5
      vertex -1.35827 0.746717 49.5
      vertex -1.35827 0.746717 -49.5
    endloop
  endfacet
  facet normal 0.125352 -0.992112 0
    outer loop
      vertex -0.290441 1.52254 -49.5
      vertex -0.0973244 1.54694 49.5
      vertex -0.290441 1.52254 49.5
    endloop
  endfacet
  facet normal 0.125352 -0.992112 0
    outer loop
      vertex -0.0973244 1.54694 49.5
      vertex -0.290441 1.52254 -49.5
      vertex -0.0973244 1.54694 -49.5
    endloop
  endfacet
  facet normal 0.248653 -0.968593 0
    outer loop
      vertex -0.478976 1.47414 -49.5
      vertex -0.290441 1.52254 49.5
      vertex -0.478976 1.47414 49.5
    endloop
  endfacet
  facet normal 0.248653 -0.968593 0
    outer loop
      vertex -0.290441 1.52254 49.5
      vertex -0.478976 1.47414 -49.5
      vertex -0.290441 1.52254 -49.5
    endloop
  endfacet
  facet normal 0.68453 -0.728985 0
    outer loop
      vertex -1.1299 1.06105 -49.5
      vertex -0.988007 1.19429 49.5
      vertex -1.1299 1.06105 49.5
    endloop
  endfacet
  facet normal 0.68453 -0.728985 0
    outer loop
      vertex -0.988007 1.19429 49.5
      vertex -1.1299 1.06105 -49.5
      vertex -0.988007 1.19429 -49.5
    endloop
  endfacet
  facet normal -0.982281 0.187412 0
    outer loop
      vertex 1.5013 -0.385468 -49.5
      vertex 1.53778 -0.194266 49.5
      vertex 1.53778 -0.194266 -49.5
    endloop
  endfacet
  facet normal -0.982281 0.187412 0
    outer loop
      vertex 1.53778 -0.194266 49.5
      vertex 1.5013 -0.385468 -49.5
      vertex 1.5013 -0.385468 49.5
    endloop
  endfacet
  facet normal -0.84435 0.535791 0
    outer loop
      vertex 1.25398 -0.911067 -49.5
      vertex 1.35827 -0.746717 49.5
      vertex 1.35827 -0.746717 -49.5
    endloop
  endfacet
  facet normal -0.84435 0.535791 0
    outer loop
      vertex 1.35827 -0.746717 49.5
      vertex 1.25398 -0.911067 -49.5
      vertex 1.25398 -0.911067 49.5
    endloop
  endfacet
  facet normal -0.904822 0.425789 0
    outer loop
      vertex 1.35827 -0.746717 -49.5
      vertex 1.44115 -0.570593 49.5
      vertex 1.44115 -0.570593 -49.5
    endloop
  endfacet
  facet normal -0.904822 0.425789 0
    outer loop
      vertex 1.44115 -0.570593 49.5
      vertex 1.35827 -0.746717 -49.5
      vertex 1.35827 -0.746717 49.5
    endloop
  endfacet
  facet normal 0.248653 0.968593 -0
    outer loop
      vertex -0.290441 -1.52254 -49.5
      vertex -0.478976 -1.47414 49.5
      vertex -0.290441 -1.52254 49.5
    endloop
  endfacet
  facet normal 0.248653 0.968593 0
    outer loop
      vertex -0.478976 -1.47414 49.5
      vertex -0.290441 -1.52254 -49.5
      vertex -0.478976 -1.47414 -49.5
    endloop
  endfacet
  facet normal -0.982281 -0.187412 0
    outer loop
      vertex 1.53778 0.194266 -49.5
      vertex 1.5013 0.385468 49.5
      vertex 1.5013 0.385468 -49.5
    endloop
  endfacet
  facet normal -0.982281 -0.187412 0
    outer loop
      vertex 1.5013 0.385468 49.5
      vertex 1.53778 0.194266 -49.5
      vertex 1.53778 0.194266 49.5
    endloop
  endfacet
  facet normal -0.770505 -0.637434 0
    outer loop
      vertex 1.25398 0.911067 -49.5
      vertex 1.1299 1.06105 49.5
      vertex 1.1299 1.06105 -49.5
    endloop
  endfacet
  facet normal -0.770505 -0.637434 0
    outer loop
      vertex 1.1299 1.06105 49.5
      vertex 1.25398 0.911067 -49.5
      vertex 1.25398 0.911067 49.5
    endloop
  endfacet
  facet normal -0.481741 -0.876314 0
    outer loop
      vertex 0.659958 1.40248 -49.5
      vertex 0.830531 1.30871 49.5
      vertex 0.659958 1.40248 49.5
    endloop
  endfacet
  facet normal -0.481741 -0.876314 -0
    outer loop
      vertex 0.830531 1.30871 49.5
      vertex 0.659958 1.40248 -49.5
      vertex 0.830531 1.30871 -49.5
    endloop
  endfacet
  facet normal 0.998027 0.0627794 0
    outer loop
      vertex -1.53778 -0.194266 49.5
      vertex -1.55 0 -49.5
      vertex -1.55 0 49.5
    endloop
  endfacet
  facet normal 0.998027 0.0627794 0
    outer loop
      vertex -1.55 0 -49.5
      vertex -1.53778 -0.194266 49.5
      vertex -1.53778 -0.194266 -49.5
    endloop
  endfacet
  facet normal 0.951058 0.309013 0
    outer loop
      vertex -1.44115 -0.570593 49.5
      vertex -1.5013 -0.385468 -49.5
      vertex -1.5013 -0.385468 49.5
    endloop
  endfacet
  facet normal 0.951058 0.309013 0
    outer loop
      vertex -1.5013 -0.385468 -49.5
      vertex -1.44115 -0.570593 49.5
      vertex -1.44115 -0.570593 -49.5
    endloop
  endfacet
  facet normal 0.770505 0.637434 0
    outer loop
      vertex -1.1299 -1.06105 49.5
      vertex -1.25398 -0.911067 -49.5
      vertex -1.25398 -0.911067 49.5
    endloop
  endfacet
  facet normal 0.770505 0.637434 0
    outer loop
      vertex -1.25398 -0.911067 -49.5
      vertex -1.1299 -1.06105 49.5
      vertex -1.1299 -1.06105 -49.5
    endloop
  endfacet
  facet normal -0.125352 0.992112 0
    outer loop
      vertex 0.290441 -1.52254 -49.5
      vertex 0.0973244 -1.54694 49.5
      vertex 0.290441 -1.52254 49.5
    endloop
  endfacet
  facet normal -0.125352 0.992112 0
    outer loop
      vertex 0.0973244 -1.54694 49.5
      vertex 0.290441 -1.52254 -49.5
      vertex 0.0973244 -1.54694 -49.5
    endloop
  endfacet
  facet normal -0.368143 0.929769 0
    outer loop
      vertex 0.659958 -1.40248 -49.5
      vertex 0.478976 -1.47414 49.5
      vertex 0.659958 -1.40248 49.5
    endloop
  endfacet
  facet normal -0.368143 0.929769 0
    outer loop
      vertex 0.478976 -1.47414 49.5
      vertex 0.659958 -1.40248 -49.5
      vertex 0.478976 -1.47414 -49.5
    endloop
  endfacet
  facet normal -0.248653 0.968593 0
    outer loop
      vertex 0.478976 -1.47414 -49.5
      vertex 0.290441 -1.52254 49.5
      vertex 0.478976 -1.47414 49.5
    endloop
  endfacet
  facet normal -0.248653 0.968593 0
    outer loop
      vertex 0.290441 -1.52254 49.5
      vertex 0.478976 -1.47414 -49.5
      vertex 0.290441 -1.52254 -49.5
    endloop
  endfacet
  facet normal -0.770505 0.637434 0
    outer loop
      vertex 1.1299 -1.06105 -49.5
      vertex 1.25398 -0.911067 49.5
      vertex 1.25398 -0.911067 -49.5
    endloop
  endfacet
  facet normal -0.770505 0.637434 0
    outer loop
      vertex 1.25398 -0.911067 49.5
      vertex 1.1299 -1.06105 -49.5
      vertex 1.1299 -1.06105 49.5
    endloop
  endfacet
  facet normal -0.587809 0.809 0
    outer loop
      vertex 0.988007 -1.19429 -49.5
      vertex 0.830531 -1.30871 49.5
      vertex 0.988007 -1.19429 49.5
    endloop
  endfacet
  facet normal -0.587809 0.809 0
    outer loop
      vertex 0.830531 -1.30871 49.5
      vertex 0.988007 -1.19429 -49.5
      vertex 0.830531 -1.30871 -49.5
    endloop
  endfacet
  facet normal 0.68453 0.728985 -0
    outer loop
      vertex -0.988007 -1.19429 -49.5
      vertex -1.1299 -1.06105 49.5
      vertex -0.988007 -1.19429 49.5
    endloop
  endfacet
  facet normal 0.68453 0.728985 0
    outer loop
      vertex -1.1299 -1.06105 49.5
      vertex -0.988007 -1.19429 -49.5
      vertex -1.1299 -1.06105 -49.5
    endloop
  endfacet
  facet normal 0 1 -0
    outer loop
      vertex 0.0973244 -1.54694 -49.5
      vertex -0.0973244 -1.54694 49.5
      vertex 0.0973244 -1.54694 49.5
    endloop
  endfacet
  facet normal 0 1 0
    outer loop
      vertex -0.0973244 -1.54694 49.5
      vertex 0.0973244 -1.54694 -49.5
      vertex -0.0973244 -1.54694 -49.5
    endloop
  endfacet
  facet normal 0.587809 0.809 -0
    outer loop
      vertex -0.830531 -1.30871 -49.5
      vertex -0.988007 -1.19429 49.5
      vertex -0.830531 -1.30871 49.5
    endloop
  endfacet
  facet normal 0.587809 0.809 0
    outer loop
      vertex -0.988007 -1.19429 49.5
      vertex -0.830531 -1.30871 -49.5
      vertex -0.988007 -1.19429 -49.5
    endloop
  endfacet
  facet normal 0.481741 0.876314 -0
    outer loop
      vertex -0.659958 -1.40248 -49.5
      vertex -0.830531 -1.30871 49.5
      vertex -0.659958 -1.40248 49.5
    endloop
  endfacet
  facet normal 0.481741 0.876314 0
    outer loop
      vertex -0.830531 -1.30871 49.5
      vertex -0.659958 -1.40248 -49.5
      vertex -0.830531 -1.30871 -49.5
    endloop
  endfacet
  facet normal 0.982281 0.187412 0
    outer loop
      vertex -1.5013 -0.385468 49.5
      vertex -1.53778 -0.194266 -49.5
      vertex -1.53778 -0.194266 49.5
    endloop
  endfacet
  facet normal 0.982281 0.187412 0
    outer loop
      vertex -1.53778 -0.194266 -49.5
      vertex -1.5013 -0.385468 49.5
      vertex -1.5013 -0.385468 -49.5
    endloop
  endfacet
  facet normal 0.84435 0.535791 0
    outer loop
      vertex -1.25398 -0.911067 49.5
      vertex -1.35827 -0.746717 -49.5
      vertex -1.35827 -0.746717 49.5
    endloop
  endfacet
  facet normal 0.84435 0.535791 0
    outer loop
      vertex -1.35827 -0.746717 -49.5
      vertex -1.25398 -0.911067 49.5
      vertex -1.25398 -0.911067 -49.5
    endloop
  endfacet
  facet normal 0.904822 0.425789 0
    outer loop
      vertex -1.35827 -0.746717 49.5
      vertex -1.44115 -0.570593 -49.5
      vertex -1.44115 -0.570593 49.5
    endloop
  endfacet
  facet normal 0.904822 0.425789 0
    outer loop
      vertex -1.44115 -0.570593 -49.5
      vertex -1.35827 -0.746717 49.5
      vertex -1.35827 -0.746717 -49.5
    endloop
  endfacet
  facet normal 0.368143 0.929769 -0
    outer loop
      vertex -0.478976 -1.47414 -49.5
      vertex -0.659958 -1.40248 49.5
      vertex -0.478976 -1.47414 49.5
    endloop
  endfacet
  facet normal 0.368143 0.929769 0
    outer loop
      vertex -0.659958 -1.40248 49.5
      vertex -0.478976 -1.47414 -49.5
      vertex -0.659958 -1.40248 -49.5
    endloop
  endfacet
endsolid OpenSCAD_Model
