solid OpenSCAD_Model
  facet normal 0.998028 0.0627749 0
    outer loop
      vertex 24 0 6
      vertex 23.8108 3.008 -6
      vertex 23.8108 3.008 6
    endloop
  endfacet
  facet normal 0.998028 0.0627749 0
    outer loop
      vertex 23.8108 3.008 -6
      vertex 24 0 6
      vertex 24 0 -6
    endloop
  endfacet
  facet normal -0.998028 0.0627749 0
    outer loop
      vertex -24 0 -6
      vertex -23.8108 3.008 6
      vertex -23.8108 3.008 -6
    endloop
  endfacet
  facet normal -0.998028 0.0627749 0
    outer loop
      vertex -23.8108 3.008 6
      vertex -24 0 -6
      vertex -24 0 6
    endloop
  endfacet
  facet normal 0 1 -0
    outer loop
      vertex 1.50697 23.9526 -6
      vertex -1.50697 23.9526 6
      vertex 1.50697 23.9526 6
    endloop
  endfacet
  facet normal 0 1 0
    outer loop
      vertex -1.50697 23.9526 6
      vertex 1.50697 23.9526 -6
      vertex -1.50697 23.9526 -6
    endloop
  endfacet
  facet normal 0 -1 0
    outer loop
      vertex -1.50697 -23.9526 -6
      vertex 1.50697 -23.9526 6
      vertex -1.50697 -23.9526 6
    endloop
  endfacet
  facet normal 0 -1 -0
    outer loop
      vertex 1.50697 -23.9526 6
      vertex -1.50697 -23.9526 -6
      vertex 1.50697 -23.9526 -6
    endloop
  endfacet
  facet normal 0.684561 0.728955 -0
    outer loop
      vertex 17.4952 16.4291 -6
      vertex 15.2982 18.4923 6
      vertex 17.4952 16.4291 6
    endloop
  endfacet
  facet normal 0.684561 0.728955 0
    outer loop
      vertex 15.2982 18.4923 6
      vertex 17.4952 16.4291 -6
      vertex 15.2982 18.4923 -6
    endloop
  endfacet
  facet normal -0.684561 0.728955 0
    outer loop
      vertex -15.2982 18.4923 -6
      vertex -17.4952 16.4291 6
      vertex -15.2982 18.4923 6
    endloop
  endfacet
  facet normal -0.684561 0.728955 0
    outer loop
      vertex -17.4952 16.4291 6
      vertex -15.2982 18.4923 -6
      vertex -17.4952 16.4291 -6
    endloop
  endfacet
  facet normal -0.368152 0.929766 0
    outer loop
      vertex -7.41641 22.8254 -6
      vertex -10.2187 21.7158 6
      vertex -7.41641 22.8254 6
    endloop
  endfacet
  facet normal -0.368152 0.929766 0
    outer loop
      vertex -10.2187 21.7158 6
      vertex -7.41641 22.8254 -6
      vertex -10.2187 21.7158 -6
    endloop
  endfacet
  facet normal 0.904837 -0.425757 0
    outer loop
      vertex 21.0314 -11.5621 6
      vertex 22.3146 -8.83499 -6
      vertex 22.3146 -8.83499 6
    endloop
  endfacet
  facet normal 0.904837 -0.425757 0
    outer loop
      vertex 22.3146 -8.83499 -6
      vertex 21.0314 -11.5621 6
      vertex 21.0314 -11.5621 -6
    endloop
  endfacet
  facet normal 0.904837 0.425757 0
    outer loop
      vertex 22.3146 8.83499 6
      vertex 21.0314 11.5621 -6
      vertex 21.0314 11.5621 6
    endloop
  endfacet
  facet normal 0.904837 0.425757 0
    outer loop
      vertex 21.0314 11.5621 -6
      vertex 22.3146 8.83499 6
      vertex 22.3146 8.83499 -6
    endloop
  endfacet
  facet normal 0.982285 0.187395 0
    outer loop
      vertex 23.8108 3.008 6
      vertex 23.246 5.96856 -6
      vertex 23.246 5.96856 6
    endloop
  endfacet
  facet normal 0.982285 0.187395 0
    outer loop
      vertex 23.246 5.96856 -6
      vertex 23.8108 3.008 6
      vertex 23.8108 3.008 -6
    endloop
  endfacet
  facet normal 0.844315 0.535847 0
    outer loop
      vertex 21.0314 11.5621 6
      vertex 19.4164 14.1068 -6
      vertex 19.4164 14.1068 6
    endloop
  endfacet
  facet normal 0.844315 0.535847 0
    outer loop
      vertex 19.4164 14.1068 -6
      vertex 21.0314 11.5621 6
      vertex 21.0314 11.5621 -6
    endloop
  endfacet
  facet normal 0.368152 0.929766 -0
    outer loop
      vertex 10.2187 21.7158 -6
      vertex 7.41641 22.8254 6
      vertex 10.2187 21.7158 6
    endloop
  endfacet
  facet normal 0.368152 0.929766 0
    outer loop
      vertex 7.41641 22.8254 6
      vertex 10.2187 21.7158 -6
      vertex 7.41641 22.8254 -6
    endloop
  endfacet
  facet normal 0.248678 0.968586 -0
    outer loop
      vertex 7.41641 22.8254 -6
      vertex 4.49715 23.5749 6
      vertex 7.41641 22.8254 6
    endloop
  endfacet
  facet normal 0.248678 0.968586 0
    outer loop
      vertex 4.49715 23.5749 6
      vertex 7.41641 22.8254 -6
      vertex 4.49715 23.5749 -6
    endloop
  endfacet
  facet normal 0.481739 0.876315 -0
    outer loop
      vertex 12.8598 20.2639 -6
      vertex 10.2187 21.7158 6
      vertex 12.8598 20.2639 6
    endloop
  endfacet
  facet normal 0.481739 0.876315 0
    outer loop
      vertex 10.2187 21.7158 6
      vertex 12.8598 20.2639 -6
      vertex 10.2187 21.7158 -6
    endloop
  endfacet
  facet normal -0.904837 0.425757 0
    outer loop
      vertex -22.3146 8.83499 -6
      vertex -21.0314 11.5621 6
      vertex -21.0314 11.5621 -6
    endloop
  endfacet
  facet normal -0.904837 0.425757 0
    outer loop
      vertex -21.0314 11.5621 6
      vertex -22.3146 8.83499 -6
      vertex -22.3146 8.83499 6
    endloop
  endfacet
  facet normal -0.770509 0.637429 0
    outer loop
      vertex -19.4164 14.1068 -6
      vertex -17.4952 16.4291 6
      vertex -17.4952 16.4291 -6
    endloop
  endfacet
  facet normal -0.770509 0.637429 0
    outer loop
      vertex -17.4952 16.4291 6
      vertex -19.4164 14.1068 -6
      vertex -19.4164 14.1068 6
    endloop
  endfacet
  facet normal -0.951053 0.309029 0
    outer loop
      vertex -23.246 5.96856 -6
      vertex -22.3146 8.83499 6
      vertex -22.3146 8.83499 -6
    endloop
  endfacet
  facet normal -0.951053 0.309029 0
    outer loop
      vertex -22.3146 8.83499 6
      vertex -23.246 5.96856 -6
      vertex -23.246 5.96856 6
    endloop
  endfacet
  facet normal -0.125318 0.992117 0
    outer loop
      vertex -1.50697 23.9526 -6
      vertex -4.49715 23.5749 6
      vertex -1.50697 23.9526 6
    endloop
  endfacet
  facet normal -0.125318 0.992117 0
    outer loop
      vertex -4.49715 23.5749 6
      vertex -1.50697 23.9526 -6
      vertex -4.49715 23.5749 -6
    endloop
  endfacet
  facet normal 0.125318 -0.992117 0
    outer loop
      vertex 1.50697 -23.9526 -6
      vertex 4.49715 -23.5749 6
      vertex 1.50697 -23.9526 6
    endloop
  endfacet
  facet normal 0.125318 -0.992117 0
    outer loop
      vertex 4.49715 -23.5749 6
      vertex 1.50697 -23.9526 -6
      vertex 4.49715 -23.5749 -6
    endloop
  endfacet
  facet normal 0.951053 0.309029 0
    outer loop
      vertex 23.246 5.96856 6
      vertex 22.3146 8.83499 -6
      vertex 22.3146 8.83499 6
    endloop
  endfacet
  facet normal 0.951053 0.309029 0
    outer loop
      vertex 22.3146 8.83499 -6
      vertex 23.246 5.96856 6
      vertex 23.246 5.96856 -6
    endloop
  endfacet
  facet normal 0.770509 0.637429 0
    outer loop
      vertex 19.4164 14.1068 6
      vertex 17.4952 16.4291 -6
      vertex 17.4952 16.4291 6
    endloop
  endfacet
  facet normal 0.770509 0.637429 0
    outer loop
      vertex 17.4952 16.4291 -6
      vertex 19.4164 14.1068 6
      vertex 19.4164 14.1068 -6
    endloop
  endfacet
  facet normal 0.125318 0.992117 -0
    outer loop
      vertex 4.49715 23.5749 -6
      vertex 1.50697 23.9526 6
      vertex 4.49715 23.5749 6
    endloop
  endfacet
  facet normal 0.125318 0.992117 0
    outer loop
      vertex 1.50697 23.9526 6
      vertex 4.49715 23.5749 -6
      vertex 1.50697 23.9526 -6
    endloop
  endfacet
  facet normal 0.587785 0.809017 -0
    outer loop
      vertex 15.2982 18.4923 -6
      vertex 12.8598 20.2639 6
      vertex 15.2982 18.4923 6
    endloop
  endfacet
  facet normal 0.587785 0.809017 0
    outer loop
      vertex 12.8598 20.2639 6
      vertex 15.2982 18.4923 -6
      vertex 12.8598 20.2639 -6
    endloop
  endfacet
  facet normal -0.844315 0.535847 0
    outer loop
      vertex -21.0314 11.5621 -6
      vertex -19.4164 14.1068 6
      vertex -19.4164 14.1068 -6
    endloop
  endfacet
  facet normal -0.844315 0.535847 0
    outer loop
      vertex -19.4164 14.1068 6
      vertex -21.0314 11.5621 -6
      vertex -21.0314 11.5621 6
    endloop
  endfacet
  facet normal -0.982285 0.187395 0
    outer loop
      vertex -23.8108 3.008 -6
      vertex -23.246 5.96856 6
      vertex -23.246 5.96856 -6
    endloop
  endfacet
  facet normal -0.982285 0.187395 0
    outer loop
      vertex -23.246 5.96856 6
      vertex -23.8108 3.008 -6
      vertex -23.8108 3.008 6
    endloop
  endfacet
  facet normal 0 0 1
    outer loop
      vertex 4 0 6
      vertex 24 0 6
      vertex 23.8108 3.008 6
    endloop
  endfacet
  facet normal 0 0 1
    outer loop
      vertex 3.96846 0.501332 6
      vertex 23.8108 3.008 6
      vertex 23.246 5.96856 6
    endloop
  endfacet
  facet normal 0 0 1
    outer loop
      vertex 24 0 6
      vertex 4 0 6
      vertex 23.8108 -3.008 6
    endloop
  endfacet
  facet normal 0 0 1
    outer loop
      vertex 3.87433 0.994759 6
      vertex 23.246 5.96856 6
      vertex 22.3146 8.83499 6
    endloop
  endfacet
  facet normal -0 0 1
    outer loop
      vertex 3.96846 -0.501332 6
      vertex 23.8108 -3.008 6
      vertex 4 0 6
    endloop
  endfacet
  facet normal 0 0 1
    outer loop
      vertex 3.71911 1.4725 6
      vertex 22.3146 8.83499 6
      vertex 21.0314 11.5621 6
    endloop
  endfacet
  facet normal 0 0 1
    outer loop
      vertex 23.8108 -3.008 6
      vertex 3.96846 -0.501332 6
      vertex 23.246 -5.96856 6
    endloop
  endfacet
  facet normal 0 0 1
    outer loop
      vertex 3.50523 1.92701 6
      vertex 21.0314 11.5621 6
      vertex 19.4164 14.1068 6
    endloop
  endfacet
  facet normal -0 0 1
    outer loop
      vertex 3.87433 -0.994759 6
      vertex 23.246 -5.96856 6
      vertex 3.96846 -0.501332 6
    endloop
  endfacet
  facet normal 0 0 1
    outer loop
      vertex 3.23607 2.35114 6
      vertex 19.4164 14.1068 6
      vertex 17.4952 16.4291 6
    endloop
  endfacet
  facet normal 0 0 1
    outer loop
      vertex 23.246 -5.96856 6
      vertex 3.87433 -0.994759 6
      vertex 22.3146 -8.83499 6
    endloop
  endfacet
  facet normal 0 0 1
    outer loop
      vertex 2.91587 2.73819 6
      vertex 17.4952 16.4291 6
      vertex 15.2982 18.4923 6
    endloop
  endfacet
  facet normal -0 0 1
    outer loop
      vertex 3.71911 -1.4725 6
      vertex 22.3146 -8.83499 6
      vertex 3.87433 -0.994759 6
    endloop
  endfacet
  facet normal 0 0 1
    outer loop
      vertex 2.5497 3.08205 6
      vertex 15.2982 18.4923 6
      vertex 12.8598 20.2639 6
    endloop
  endfacet
  facet normal 0 0 1
    outer loop
      vertex 22.3146 -8.83499 6
      vertex 3.71911 -1.4725 6
      vertex 21.0314 -11.5621 6
    endloop
  endfacet
  facet normal 0 0 1
    outer loop
      vertex 2.14331 3.37731 6
      vertex 12.8598 20.2639 6
      vertex 10.2187 21.7158 6
    endloop
  endfacet
  facet normal -0 0 1
    outer loop
      vertex 3.50523 -1.92701 6
      vertex 21.0314 -11.5621 6
      vertex 3.71911 -1.4725 6
    endloop
  endfacet
  facet normal 0 0 1
    outer loop
      vertex 1.70312 3.61931 6
      vertex 10.2187 21.7158 6
      vertex 7.41641 22.8254 6
    endloop
  endfacet
  facet normal 0 0 1
    outer loop
      vertex 21.0314 -11.5621 6
      vertex 3.50523 -1.92701 6
      vertex 19.4164 -14.1068 6
    endloop
  endfacet
  facet normal 0 0 1
    outer loop
      vertex 1.23607 3.80423 6
      vertex 7.41641 22.8254 6
      vertex 4.49715 23.5749 6
    endloop
  endfacet
  facet normal -0 0 1
    outer loop
      vertex 3.23607 -2.35114 6
      vertex 19.4164 -14.1068 6
      vertex 3.50523 -1.92701 6
    endloop
  endfacet
  facet normal 0 0 1
    outer loop
      vertex 19.4164 -14.1068 6
      vertex 3.23607 -2.35114 6
      vertex 17.4952 -16.4291 6
    endloop
  endfacet
  facet normal 0 0 1
    outer loop
      vertex 23.8108 3.008 6
      vertex 3.96846 0.501332 6
      vertex 4 0 6
    endloop
  endfacet
  facet normal 0 0 1
    outer loop
      vertex 23.246 5.96856 6
      vertex 3.87433 0.994759 6
      vertex 3.96846 0.501332 6
    endloop
  endfacet
  facet normal 0 0 1
    outer loop
      vertex 22.3146 8.83499 6
      vertex 3.71911 1.4725 6
      vertex 3.87433 0.994759 6
    endloop
  endfacet
  facet normal 0 0 1
    outer loop
      vertex 21.0314 11.5621 6
      vertex 3.50523 1.92701 6
      vertex 3.71911 1.4725 6
    endloop
  endfacet
  facet normal 0 0 1
    outer loop
      vertex 19.4164 14.1068 6
      vertex 3.23607 2.35114 6
      vertex 3.50523 1.92701 6
    endloop
  endfacet
  facet normal 0 0 1
    outer loop
      vertex 17.4952 16.4291 6
      vertex 2.91587 2.73819 6
      vertex 3.23607 2.35114 6
    endloop
  endfacet
  facet normal 0 0 1
    outer loop
      vertex 15.2982 18.4923 6
      vertex 2.5497 3.08205 6
      vertex 2.91587 2.73819 6
    endloop
  endfacet
  facet normal 0 0 1
    outer loop
      vertex 12.8598 20.2639 6
      vertex 2.14331 3.37731 6
      vertex 2.5497 3.08205 6
    endloop
  endfacet
  facet normal 0 0 1
    outer loop
      vertex 10.2187 21.7158 6
      vertex 1.70312 3.61931 6
      vertex 2.14331 3.37731 6
    endloop
  endfacet
  facet normal 0 0 1
    outer loop
      vertex 0.749525 3.92915 6
      vertex 4.49715 23.5749 6
      vertex 1.50697 23.9526 6
    endloop
  endfacet
  facet normal 0 0 1
    outer loop
      vertex 7.41641 22.8254 6
      vertex 1.23607 3.80423 6
      vertex 1.70312 3.61931 6
    endloop
  endfacet
  facet normal 0 0 1
    outer loop
      vertex 4.49715 23.5749 6
      vertex 0.749525 3.92915 6
      vertex 1.23607 3.80423 6
    endloop
  endfacet
  facet normal 0 0 1
    outer loop
      vertex 1.50697 23.9526 6
      vertex 0.251162 3.99211 6
      vertex 0.749525 3.92915 6
    endloop
  endfacet
  facet normal 0 0 1
    outer loop
      vertex 1.50697 23.9526 6
      vertex -0.251162 3.99211 6
      vertex 0.251162 3.99211 6
    endloop
  endfacet
  facet normal -0 0 1
    outer loop
      vertex -1.50697 23.9526 6
      vertex -0.251162 3.99211 6
      vertex 1.50697 23.9526 6
    endloop
  endfacet
  facet normal 0 0 1
    outer loop
      vertex -0.251162 3.99211 6
      vertex -1.50697 23.9526 6
      vertex -0.749525 3.92915 6
    endloop
  endfacet
  facet normal -0 0 1
    outer loop
      vertex -4.49715 23.5749 6
      vertex -0.749525 3.92915 6
      vertex -1.50697 23.9526 6
    endloop
  endfacet
  facet normal 0 0 1
    outer loop
      vertex -0.749525 3.92915 6
      vertex -4.49715 23.5749 6
      vertex -1.23607 3.80423 6
    endloop
  endfacet
  facet normal -0 0 1
    outer loop
      vertex -7.41641 22.8254 6
      vertex -1.23607 3.80423 6
      vertex -4.49715 23.5749 6
    endloop
  endfacet
  facet normal 0 0 1
    outer loop
      vertex -1.23607 3.80423 6
      vertex -7.41641 22.8254 6
      vertex -1.70312 3.61931 6
    endloop
  endfacet
  facet normal -0 0 1
    outer loop
      vertex -10.2187 21.7158 6
      vertex -1.70312 3.61931 6
      vertex -7.41641 22.8254 6
    endloop
  endfacet
  facet normal 0 0 1
    outer loop
      vertex -1.70312 3.61931 6
      vertex -10.2187 21.7158 6
      vertex -2.14331 3.37731 6
    endloop
  endfacet
  facet normal -0 0 1
    outer loop
      vertex -12.8598 20.2639 6
      vertex -2.14331 3.37731 6
      vertex -10.2187 21.7158 6
    endloop
  endfacet
  facet normal 0 0 1
    outer loop
      vertex -2.14331 3.37731 6
      vertex -12.8598 20.2639 6
      vertex -2.5497 3.08205 6
    endloop
  endfacet
  facet normal -0 0 1
    outer loop
      vertex -15.2982 18.4923 6
      vertex -2.5497 3.08205 6
      vertex -12.8598 20.2639 6
    endloop
  endfacet
  facet normal 0 0 1
    outer loop
      vertex -2.5497 3.08205 6
      vertex -15.2982 18.4923 6
      vertex -2.91587 2.73819 6
    endloop
  endfacet
  facet normal 0 0 1
    outer loop
      vertex -2.91587 2.73819 6
      vertex -17.4952 16.4291 6
      vertex -3.23607 2.35114 6
    endloop
  endfacet
  facet normal -0 0 1
    outer loop
      vertex -17.4952 16.4291 6
      vertex -2.91587 2.73819 6
      vertex -15.2982 18.4923 6
    endloop
  endfacet
  facet normal -0 0 1
    outer loop
      vertex 2.91587 -2.73819 6
      vertex 17.4952 -16.4291 6
      vertex 3.23607 -2.35114 6
    endloop
  endfacet
  facet normal 0 0 1
    outer loop
      vertex 17.4952 -16.4291 6
      vertex 2.91587 -2.73819 6
      vertex 15.2982 -18.4923 6
    endloop
  endfacet
  facet normal -0 0 1
    outer loop
      vertex 2.5497 -3.08205 6
      vertex 15.2982 -18.4923 6
      vertex 2.91587 -2.73819 6
    endloop
  endfacet
  facet normal 0 0 1
    outer loop
      vertex 15.2982 -18.4923 6
      vertex 2.5497 -3.08205 6
      vertex 12.8598 -20.2639 6
    endloop
  endfacet
  facet normal -0 0 1
    outer loop
      vertex 2.14331 -3.37731 6
      vertex 12.8598 -20.2639 6
      vertex 2.5497 -3.08205 6
    endloop
  endfacet
  facet normal 0 0 1
    outer loop
      vertex 12.8598 -20.2639 6
      vertex 2.14331 -3.37731 6
      vertex 10.2187 -21.7158 6
    endloop
  endfacet
  facet normal -0 0 1
    outer loop
      vertex 1.70312 -3.61931 6
      vertex 10.2187 -21.7158 6
      vertex 2.14331 -3.37731 6
    endloop
  endfacet
  facet normal 0 0 1
    outer loop
      vertex 10.2187 -21.7158 6
      vertex 1.70312 -3.61931 6
      vertex 7.41641 -22.8254 6
    endloop
  endfacet
  facet normal -0 0 1
    outer loop
      vertex 1.23607 -3.80423 6
      vertex 7.41641 -22.8254 6
      vertex 1.70312 -3.61931 6
    endloop
  endfacet
  facet normal 0 0 1
    outer loop
      vertex 7.41641 -22.8254 6
      vertex 1.23607 -3.80423 6
      vertex 4.49715 -23.5749 6
    endloop
  endfacet
  facet normal -0 0 1
    outer loop
      vertex 0.749525 -3.92915 6
      vertex 4.49715 -23.5749 6
      vertex 1.23607 -3.80423 6
    endloop
  endfacet
  facet normal 0 0 1
    outer loop
      vertex 4.49715 -23.5749 6
      vertex 0.749525 -3.92915 6
      vertex 1.50697 -23.9526 6
    endloop
  endfacet
  facet normal -0 0 1
    outer loop
      vertex 0.251162 -3.99211 6
      vertex 1.50697 -23.9526 6
      vertex 0.749525 -3.92915 6
    endloop
  endfacet
  facet normal -0 0 1
    outer loop
      vertex -0.251162 -3.99211 6
      vertex 1.50697 -23.9526 6
      vertex 0.251162 -3.99211 6
    endloop
  endfacet
  facet normal 0 0 1
    outer loop
      vertex -1.50697 -23.9526 6
      vertex -0.251162 -3.99211 6
      vertex -0.749525 -3.92915 6
    endloop
  endfacet
  facet normal 0 0 1
    outer loop
      vertex -4.49715 -23.5749 6
      vertex -0.749525 -3.92915 6
      vertex -1.23607 -3.80423 6
    endloop
  endfacet
  facet normal 0 0 1
    outer loop
      vertex -0.251162 -3.99211 6
      vertex -1.50697 -23.9526 6
      vertex 1.50697 -23.9526 6
    endloop
  endfacet
  facet normal 0 0 1
    outer loop
      vertex -7.41641 -22.8254 6
      vertex -1.23607 -3.80423 6
      vertex -1.70312 -3.61931 6
    endloop
  endfacet
  facet normal 0 0 1
    outer loop
      vertex -10.2187 -21.7158 6
      vertex -1.70312 -3.61931 6
      vertex -2.14331 -3.37731 6
    endloop
  endfacet
  facet normal 0 0 1
    outer loop
      vertex -12.8598 -20.2639 6
      vertex -2.14331 -3.37731 6
      vertex -2.5497 -3.08205 6
    endloop
  endfacet
  facet normal 0 0 1
    outer loop
      vertex -15.2982 -18.4923 6
      vertex -2.5497 -3.08205 6
      vertex -2.91587 -2.73819 6
    endloop
  endfacet
  facet normal 0 0 1
    outer loop
      vertex -17.4952 -16.4291 6
      vertex -2.91587 -2.73819 6
      vertex -3.23607 -2.35114 6
    endloop
  endfacet
  facet normal 0 0 1
    outer loop
      vertex -19.4164 -14.1068 6
      vertex -3.23607 -2.35114 6
      vertex -3.50523 -1.92701 6
    endloop
  endfacet
  facet normal 0 0 1
    outer loop
      vertex -21.0314 -11.5621 6
      vertex -3.50523 -1.92701 6
      vertex -3.71911 -1.4725 6
    endloop
  endfacet
  facet normal 0 0 1
    outer loop
      vertex -22.3146 -8.83499 6
      vertex -3.71911 -1.4725 6
      vertex -3.87433 -0.994759 6
    endloop
  endfacet
  facet normal 0 0 1
    outer loop
      vertex -23.246 -5.96856 6
      vertex -3.87433 -0.994759 6
      vertex -3.96846 -0.501332 6
    endloop
  endfacet
  facet normal 0 0 1
    outer loop
      vertex -0.749525 -3.92915 6
      vertex -4.49715 -23.5749 6
      vertex -1.50697 -23.9526 6
    endloop
  endfacet
  facet normal 0 0 1
    outer loop
      vertex -23.8108 -3.008 6
      vertex -3.96846 -0.501332 6
      vertex -4 0 6
    endloop
  endfacet
  facet normal -0 0 1
    outer loop
      vertex -19.4164 14.1068 6
      vertex -3.23607 2.35114 6
      vertex -17.4952 16.4291 6
    endloop
  endfacet
  facet normal 0 0 1
    outer loop
      vertex -3.23607 2.35114 6
      vertex -19.4164 14.1068 6
      vertex -3.50523 1.92701 6
    endloop
  endfacet
  facet normal 0 0 1
    outer loop
      vertex -1.23607 -3.80423 6
      vertex -7.41641 -22.8254 6
      vertex -4.49715 -23.5749 6
    endloop
  endfacet
  facet normal -0 0 1
    outer loop
      vertex -21.0314 11.5621 6
      vertex -3.50523 1.92701 6
      vertex -19.4164 14.1068 6
    endloop
  endfacet
  facet normal 0 0 1
    outer loop
      vertex -1.70312 -3.61931 6
      vertex -10.2187 -21.7158 6
      vertex -7.41641 -22.8254 6
    endloop
  endfacet
  facet normal 0 0 1
    outer loop
      vertex -3.50523 1.92701 6
      vertex -21.0314 11.5621 6
      vertex -3.71911 1.4725 6
    endloop
  endfacet
  facet normal 0 0 1
    outer loop
      vertex -2.14331 -3.37731 6
      vertex -12.8598 -20.2639 6
      vertex -10.2187 -21.7158 6
    endloop
  endfacet
  facet normal -0 0 1
    outer loop
      vertex -22.3146 8.83499 6
      vertex -3.71911 1.4725 6
      vertex -21.0314 11.5621 6
    endloop
  endfacet
  facet normal 0 0 1
    outer loop
      vertex -2.5497 -3.08205 6
      vertex -15.2982 -18.4923 6
      vertex -12.8598 -20.2639 6
    endloop
  endfacet
  facet normal 0 0 1
    outer loop
      vertex -3.71911 1.4725 6
      vertex -22.3146 8.83499 6
      vertex -3.87433 0.994759 6
    endloop
  endfacet
  facet normal 0 0 1
    outer loop
      vertex -2.91587 -2.73819 6
      vertex -17.4952 -16.4291 6
      vertex -15.2982 -18.4923 6
    endloop
  endfacet
  facet normal -0 0 1
    outer loop
      vertex -23.246 5.96856 6
      vertex -3.87433 0.994759 6
      vertex -22.3146 8.83499 6
    endloop
  endfacet
  facet normal 0 0 1
    outer loop
      vertex -3.23607 -2.35114 6
      vertex -19.4164 -14.1068 6
      vertex -17.4952 -16.4291 6
    endloop
  endfacet
  facet normal 0 0 1
    outer loop
      vertex -3.87433 0.994759 6
      vertex -23.246 5.96856 6
      vertex -3.96846 0.501332 6
    endloop
  endfacet
  facet normal 0 0 1
    outer loop
      vertex -3.50523 -1.92701 6
      vertex -21.0314 -11.5621 6
      vertex -19.4164 -14.1068 6
    endloop
  endfacet
  facet normal -0 0 1
    outer loop
      vertex -23.8108 3.008 6
      vertex -3.96846 0.501332 6
      vertex -23.246 5.96856 6
    endloop
  endfacet
  facet normal 0 0 1
    outer loop
      vertex -3.71911 -1.4725 6
      vertex -22.3146 -8.83499 6
      vertex -21.0314 -11.5621 6
    endloop
  endfacet
  facet normal 0 0 1
    outer loop
      vertex -3.96846 0.501332 6
      vertex -23.8108 3.008 6
      vertex -4 0 6
    endloop
  endfacet
  facet normal 0 0 1
    outer loop
      vertex -3.87433 -0.994759 6
      vertex -23.246 -5.96856 6
      vertex -22.3146 -8.83499 6
    endloop
  endfacet
  facet normal 0 0 1
    outer loop
      vertex -24 0 6
      vertex -4 0 6
      vertex -23.8108 3.008 6
    endloop
  endfacet
  facet normal 0 0 1
    outer loop
      vertex -3.96846 -0.501332 6
      vertex -23.8108 -3.008 6
      vertex -23.246 -5.96856 6
    endloop
  endfacet
  facet normal 0 0 1
    outer loop
      vertex -4 0 6
      vertex -24 0 6
      vertex -23.8108 -3.008 6
    endloop
  endfacet
  facet normal -0.481739 0.876315 0
    outer loop
      vertex -10.2187 21.7158 -6
      vertex -12.8598 20.2639 6
      vertex -10.2187 21.7158 6
    endloop
  endfacet
  facet normal -0.481739 0.876315 0
    outer loop
      vertex -12.8598 20.2639 6
      vertex -10.2187 21.7158 -6
      vertex -12.8598 20.2639 -6
    endloop
  endfacet
  facet normal -0.587785 0.809017 0
    outer loop
      vertex -12.8598 20.2639 -6
      vertex -15.2982 18.4923 6
      vertex -12.8598 20.2639 6
    endloop
  endfacet
  facet normal -0.587785 0.809017 0
    outer loop
      vertex -15.2982 18.4923 6
      vertex -12.8598 20.2639 -6
      vertex -15.2982 18.4923 -6
    endloop
  endfacet
  facet normal -0.248678 0.968586 0
    outer loop
      vertex -4.49715 23.5749 -6
      vertex -7.41641 22.8254 6
      vertex -4.49715 23.5749 6
    endloop
  endfacet
  facet normal -0.248678 0.968586 0
    outer loop
      vertex -7.41641 22.8254 6
      vertex -4.49715 23.5749 -6
      vertex -7.41641 22.8254 -6
    endloop
  endfacet
  facet normal 0.998028 -0.0627749 0
    outer loop
      vertex 23.8108 -3.008 6
      vertex 24 0 -6
      vertex 24 0 6
    endloop
  endfacet
  facet normal 0.998028 -0.0627749 0
    outer loop
      vertex 24 0 -6
      vertex 23.8108 -3.008 6
      vertex 23.8108 -3.008 -6
    endloop
  endfacet
  facet normal 0.770509 -0.637429 0
    outer loop
      vertex 17.4952 -16.4291 6
      vertex 19.4164 -14.1068 -6
      vertex 19.4164 -14.1068 6
    endloop
  endfacet
  facet normal 0.770509 -0.637429 0
    outer loop
      vertex 19.4164 -14.1068 -6
      vertex 17.4952 -16.4291 6
      vertex 17.4952 -16.4291 -6
    endloop
  endfacet
  facet normal 0.951053 -0.309029 0
    outer loop
      vertex 22.3146 -8.83499 6
      vertex 23.246 -5.96856 -6
      vertex 23.246 -5.96856 6
    endloop
  endfacet
  facet normal 0.951053 -0.309029 0
    outer loop
      vertex 23.246 -5.96856 -6
      vertex 22.3146 -8.83499 6
      vertex 22.3146 -8.83499 -6
    endloop
  endfacet
  facet normal 0.982285 -0.187395 0
    outer loop
      vertex 23.246 -5.96856 6
      vertex 23.8108 -3.008 -6
      vertex 23.8108 -3.008 6
    endloop
  endfacet
  facet normal 0.982285 -0.187395 0
    outer loop
      vertex 23.8108 -3.008 -6
      vertex 23.246 -5.96856 6
      vertex 23.246 -5.96856 -6
    endloop
  endfacet
  facet normal -0.684561 -0.728955 0
    outer loop
      vertex -17.4952 -16.4291 -6
      vertex -15.2982 -18.4923 6
      vertex -17.4952 -16.4291 6
    endloop
  endfacet
  facet normal -0.684561 -0.728955 -0
    outer loop
      vertex -15.2982 -18.4923 6
      vertex -17.4952 -16.4291 -6
      vertex -15.2982 -18.4923 -6
    endloop
  endfacet
  facet normal -0.904837 -0.425757 0
    outer loop
      vertex -21.0314 -11.5621 -6
      vertex -22.3146 -8.83499 6
      vertex -22.3146 -8.83499 -6
    endloop
  endfacet
  facet normal -0.904837 -0.425757 0
    outer loop
      vertex -22.3146 -8.83499 6
      vertex -21.0314 -11.5621 -6
      vertex -21.0314 -11.5621 6
    endloop
  endfacet
  facet normal -0.770509 -0.637429 0
    outer loop
      vertex -17.4952 -16.4291 -6
      vertex -19.4164 -14.1068 6
      vertex -19.4164 -14.1068 -6
    endloop
  endfacet
  facet normal -0.770509 -0.637429 0
    outer loop
      vertex -19.4164 -14.1068 6
      vertex -17.4952 -16.4291 -6
      vertex -17.4952 -16.4291 6
    endloop
  endfacet
  facet normal 0 0 -1
    outer loop
      vertex 4 0 -6
      vertex 24 0 -6
      vertex 23.8108 -3.008 -6
    endloop
  endfacet
  facet normal 0 0 -1
    outer loop
      vertex 3.96846 -0.501332 -6
      vertex 23.8108 -3.008 -6
      vertex 23.246 -5.96856 -6
    endloop
  endfacet
  facet normal 0 0 -1
    outer loop
      vertex 24 0 -6
      vertex 4 0 -6
      vertex 23.8108 3.008 -6
    endloop
  endfacet
  facet normal 0 0 -1
    outer loop
      vertex 3.87433 -0.994759 -6
      vertex 23.246 -5.96856 -6
      vertex 22.3146 -8.83499 -6
    endloop
  endfacet
  facet normal 0 0 -1
    outer loop
      vertex 3.96846 0.501332 -6
      vertex 23.8108 3.008 -6
      vertex 4 0 -6
    endloop
  endfacet
  facet normal 0 0 -1
    outer loop
      vertex 3.71911 -1.4725 -6
      vertex 22.3146 -8.83499 -6
      vertex 21.0314 -11.5621 -6
    endloop
  endfacet
  facet normal -0 0 -1
    outer loop
      vertex 23.8108 3.008 -6
      vertex 3.96846 0.501332 -6
      vertex 23.246 5.96856 -6
    endloop
  endfacet
  facet normal 0 0 -1
    outer loop
      vertex 3.50523 -1.92701 -6
      vertex 21.0314 -11.5621 -6
      vertex 19.4164 -14.1068 -6
    endloop
  endfacet
  facet normal 0 0 -1
    outer loop
      vertex 3.87433 0.994759 -6
      vertex 23.246 5.96856 -6
      vertex 3.96846 0.501332 -6
    endloop
  endfacet
  facet normal 0 0 -1
    outer loop
      vertex 3.23607 -2.35114 -6
      vertex 19.4164 -14.1068 -6
      vertex 17.4952 -16.4291 -6
    endloop
  endfacet
  facet normal -0 0 -1
    outer loop
      vertex 23.246 5.96856 -6
      vertex 3.87433 0.994759 -6
      vertex 22.3146 8.83499 -6
    endloop
  endfacet
  facet normal 0 0 -1
    outer loop
      vertex 2.91587 -2.73819 -6
      vertex 17.4952 -16.4291 -6
      vertex 15.2982 -18.4923 -6
    endloop
  endfacet
  facet normal 0 0 -1
    outer loop
      vertex 3.71911 1.4725 -6
      vertex 22.3146 8.83499 -6
      vertex 3.87433 0.994759 -6
    endloop
  endfacet
  facet normal 0 0 -1
    outer loop
      vertex 2.5497 -3.08205 -6
      vertex 15.2982 -18.4923 -6
      vertex 12.8598 -20.2639 -6
    endloop
  endfacet
  facet normal -0 0 -1
    outer loop
      vertex 22.3146 8.83499 -6
      vertex 3.71911 1.4725 -6
      vertex 21.0314 11.5621 -6
    endloop
  endfacet
  facet normal 0 0 -1
    outer loop
      vertex 2.14331 -3.37731 -6
      vertex 12.8598 -20.2639 -6
      vertex 10.2187 -21.7158 -6
    endloop
  endfacet
  facet normal 0 0 -1
    outer loop
      vertex 3.50523 1.92701 -6
      vertex 21.0314 11.5621 -6
      vertex 3.71911 1.4725 -6
    endloop
  endfacet
  facet normal 0 0 -1
    outer loop
      vertex 1.70312 -3.61931 -6
      vertex 10.2187 -21.7158 -6
      vertex 7.41641 -22.8254 -6
    endloop
  endfacet
  facet normal -0 0 -1
    outer loop
      vertex 21.0314 11.5621 -6
      vertex 3.50523 1.92701 -6
      vertex 19.4164 14.1068 -6
    endloop
  endfacet
  facet normal 0 0 -1
    outer loop
      vertex 1.23607 -3.80423 -6
      vertex 7.41641 -22.8254 -6
      vertex 4.49715 -23.5749 -6
    endloop
  endfacet
  facet normal 0 0 -1
    outer loop
      vertex 3.23607 2.35114 -6
      vertex 19.4164 14.1068 -6
      vertex 3.50523 1.92701 -6
    endloop
  endfacet
  facet normal -0 0 -1
    outer loop
      vertex 19.4164 14.1068 -6
      vertex 3.23607 2.35114 -6
      vertex 17.4952 16.4291 -6
    endloop
  endfacet
  facet normal 0 0 -1
    outer loop
      vertex 23.8108 -3.008 -6
      vertex 3.96846 -0.501332 -6
      vertex 4 0 -6
    endloop
  endfacet
  facet normal 0 0 -1
    outer loop
      vertex 23.246 -5.96856 -6
      vertex 3.87433 -0.994759 -6
      vertex 3.96846 -0.501332 -6
    endloop
  endfacet
  facet normal 0 0 -1
    outer loop
      vertex 22.3146 -8.83499 -6
      vertex 3.71911 -1.4725 -6
      vertex 3.87433 -0.994759 -6
    endloop
  endfacet
  facet normal 0 0 -1
    outer loop
      vertex 21.0314 -11.5621 -6
      vertex 3.50523 -1.92701 -6
      vertex 3.71911 -1.4725 -6
    endloop
  endfacet
  facet normal 0 0 -1
    outer loop
      vertex 19.4164 -14.1068 -6
      vertex 3.23607 -2.35114 -6
      vertex 3.50523 -1.92701 -6
    endloop
  endfacet
  facet normal 0 0 -1
    outer loop
      vertex 17.4952 -16.4291 -6
      vertex 2.91587 -2.73819 -6
      vertex 3.23607 -2.35114 -6
    endloop
  endfacet
  facet normal 0 0 -1
    outer loop
      vertex 15.2982 -18.4923 -6
      vertex 2.5497 -3.08205 -6
      vertex 2.91587 -2.73819 -6
    endloop
  endfacet
  facet normal 0 0 -1
    outer loop
      vertex 12.8598 -20.2639 -6
      vertex 2.14331 -3.37731 -6
      vertex 2.5497 -3.08205 -6
    endloop
  endfacet
  facet normal 0 0 -1
    outer loop
      vertex 10.2187 -21.7158 -6
      vertex 1.70312 -3.61931 -6
      vertex 2.14331 -3.37731 -6
    endloop
  endfacet
  facet normal 0 0 -1
    outer loop
      vertex 0.749525 -3.92915 -6
      vertex 4.49715 -23.5749 -6
      vertex 1.50697 -23.9526 -6
    endloop
  endfacet
  facet normal 0 0 -1
    outer loop
      vertex 7.41641 -22.8254 -6
      vertex 1.23607 -3.80423 -6
      vertex 1.70312 -3.61931 -6
    endloop
  endfacet
  facet normal 0 0 -1
    outer loop
      vertex 4.49715 -23.5749 -6
      vertex 0.749525 -3.92915 -6
      vertex 1.23607 -3.80423 -6
    endloop
  endfacet
  facet normal 0 0 -1
    outer loop
      vertex 1.50697 -23.9526 -6
      vertex 0.251162 -3.99211 -6
      vertex 0.749525 -3.92915 -6
    endloop
  endfacet
  facet normal 0 0 -1
    outer loop
      vertex 1.50697 -23.9526 -6
      vertex -0.251162 -3.99211 -6
      vertex 0.251162 -3.99211 -6
    endloop
  endfacet
  facet normal 0 0 -1
    outer loop
      vertex -1.50697 -23.9526 -6
      vertex -0.251162 -3.99211 -6
      vertex 1.50697 -23.9526 -6
    endloop
  endfacet
  facet normal -0 0 -1
    outer loop
      vertex -0.251162 -3.99211 -6
      vertex -1.50697 -23.9526 -6
      vertex -0.749525 -3.92915 -6
    endloop
  endfacet
  facet normal 0 0 -1
    outer loop
      vertex -4.49715 -23.5749 -6
      vertex -0.749525 -3.92915 -6
      vertex -1.50697 -23.9526 -6
    endloop
  endfacet
  facet normal -0 0 -1
    outer loop
      vertex -0.749525 -3.92915 -6
      vertex -4.49715 -23.5749 -6
      vertex -1.23607 -3.80423 -6
    endloop
  endfacet
  facet normal 0 0 -1
    outer loop
      vertex -7.41641 -22.8254 -6
      vertex -1.23607 -3.80423 -6
      vertex -4.49715 -23.5749 -6
    endloop
  endfacet
  facet normal -0 0 -1
    outer loop
      vertex -1.23607 -3.80423 -6
      vertex -7.41641 -22.8254 -6
      vertex -1.70312 -3.61931 -6
    endloop
  endfacet
  facet normal 0 0 -1
    outer loop
      vertex -10.2187 -21.7158 -6
      vertex -1.70312 -3.61931 -6
      vertex -7.41641 -22.8254 -6
    endloop
  endfacet
  facet normal -0 0 -1
    outer loop
      vertex -1.70312 -3.61931 -6
      vertex -10.2187 -21.7158 -6
      vertex -2.14331 -3.37731 -6
    endloop
  endfacet
  facet normal 0 0 -1
    outer loop
      vertex -12.8598 -20.2639 -6
      vertex -2.14331 -3.37731 -6
      vertex -10.2187 -21.7158 -6
    endloop
  endfacet
  facet normal -0 0 -1
    outer loop
      vertex -2.14331 -3.37731 -6
      vertex -12.8598 -20.2639 -6
      vertex -2.5497 -3.08205 -6
    endloop
  endfacet
  facet normal 0 0 -1
    outer loop
      vertex -15.2982 -18.4923 -6
      vertex -2.5497 -3.08205 -6
      vertex -12.8598 -20.2639 -6
    endloop
  endfacet
  facet normal -0 0 -1
    outer loop
      vertex -2.5497 -3.08205 -6
      vertex -15.2982 -18.4923 -6
      vertex -2.91587 -2.73819 -6
    endloop
  endfacet
  facet normal -0 0 -1
    outer loop
      vertex -2.91587 -2.73819 -6
      vertex -17.4952 -16.4291 -6
      vertex -3.23607 -2.35114 -6
    endloop
  endfacet
  facet normal 0 0 -1
    outer loop
      vertex -17.4952 -16.4291 -6
      vertex -2.91587 -2.73819 -6
      vertex -15.2982 -18.4923 -6
    endloop
  endfacet
  facet normal 0 0 -1
    outer loop
      vertex 2.91587 2.73819 -6
      vertex 17.4952 16.4291 -6
      vertex 3.23607 2.35114 -6
    endloop
  endfacet
  facet normal -0 0 -1
    outer loop
      vertex 17.4952 16.4291 -6
      vertex 2.91587 2.73819 -6
      vertex 15.2982 18.4923 -6
    endloop
  endfacet
  facet normal 0 0 -1
    outer loop
      vertex 2.5497 3.08205 -6
      vertex 15.2982 18.4923 -6
      vertex 2.91587 2.73819 -6
    endloop
  endfacet
  facet normal -0 0 -1
    outer loop
      vertex 15.2982 18.4923 -6
      vertex 2.5497 3.08205 -6
      vertex 12.8598 20.2639 -6
    endloop
  endfacet
  facet normal 0 0 -1
    outer loop
      vertex 2.14331 3.37731 -6
      vertex 12.8598 20.2639 -6
      vertex 2.5497 3.08205 -6
    endloop
  endfacet
  facet normal -0 0 -1
    outer loop
      vertex 12.8598 20.2639 -6
      vertex 2.14331 3.37731 -6
      vertex 10.2187 21.7158 -6
    endloop
  endfacet
  facet normal 0 0 -1
    outer loop
      vertex 1.70312 3.61931 -6
      vertex 10.2187 21.7158 -6
      vertex 2.14331 3.37731 -6
    endloop
  endfacet
  facet normal -0 0 -1
    outer loop
      vertex 10.2187 21.7158 -6
      vertex 1.70312 3.61931 -6
      vertex 7.41641 22.8254 -6
    endloop
  endfacet
  facet normal 0 0 -1
    outer loop
      vertex 1.23607 3.80423 -6
      vertex 7.41641 22.8254 -6
      vertex 1.70312 3.61931 -6
    endloop
  endfacet
  facet normal -0 0 -1
    outer loop
      vertex 7.41641 22.8254 -6
      vertex 1.23607 3.80423 -6
      vertex 4.49715 23.5749 -6
    endloop
  endfacet
  facet normal 0 0 -1
    outer loop
      vertex 0.749525 3.92915 -6
      vertex 4.49715 23.5749 -6
      vertex 1.23607 3.80423 -6
    endloop
  endfacet
  facet normal -0 0 -1
    outer loop
      vertex 4.49715 23.5749 -6
      vertex 0.749525 3.92915 -6
      vertex 1.50697 23.9526 -6
    endloop
  endfacet
  facet normal 0 0 -1
    outer loop
      vertex 0.251162 3.99211 -6
      vertex 1.50697 23.9526 -6
      vertex 0.749525 3.92915 -6
    endloop
  endfacet
  facet normal 0 0 -1
    outer loop
      vertex -0.251162 3.99211 -6
      vertex 1.50697 23.9526 -6
      vertex 0.251162 3.99211 -6
    endloop
  endfacet
  facet normal 0 0 -1
    outer loop
      vertex -1.50697 23.9526 -6
      vertex -0.251162 3.99211 -6
      vertex -0.749525 3.92915 -6
    endloop
  endfacet
  facet normal 0 0 -1
    outer loop
      vertex -4.49715 23.5749 -6
      vertex -0.749525 3.92915 -6
      vertex -1.23607 3.80423 -6
    endloop
  endfacet
  facet normal 0 0 -1
    outer loop
      vertex -0.251162 3.99211 -6
      vertex -1.50697 23.9526 -6
      vertex 1.50697 23.9526 -6
    endloop
  endfacet
  facet normal 0 0 -1
    outer loop
      vertex -7.41641 22.8254 -6
      vertex -1.23607 3.80423 -6
      vertex -1.70312 3.61931 -6
    endloop
  endfacet
  facet normal 0 0 -1
    outer loop
      vertex -10.2187 21.7158 -6
      vertex -1.70312 3.61931 -6
      vertex -2.14331 3.37731 -6
    endloop
  endfacet
  facet normal 0 0 -1
    outer loop
      vertex -12.8598 20.2639 -6
      vertex -2.14331 3.37731 -6
      vertex -2.5497 3.08205 -6
    endloop
  endfacet
  facet normal 0 0 -1
    outer loop
      vertex -15.2982 18.4923 -6
      vertex -2.5497 3.08205 -6
      vertex -2.91587 2.73819 -6
    endloop
  endfacet
  facet normal 0 0 -1
    outer loop
      vertex -17.4952 16.4291 -6
      vertex -2.91587 2.73819 -6
      vertex -3.23607 2.35114 -6
    endloop
  endfacet
  facet normal 0 0 -1
    outer loop
      vertex -19.4164 14.1068 -6
      vertex -3.23607 2.35114 -6
      vertex -3.50523 1.92701 -6
    endloop
  endfacet
  facet normal 0 0 -1
    outer loop
      vertex -21.0314 11.5621 -6
      vertex -3.50523 1.92701 -6
      vertex -3.71911 1.4725 -6
    endloop
  endfacet
  facet normal 0 0 -1
    outer loop
      vertex -22.3146 8.83499 -6
      vertex -3.71911 1.4725 -6
      vertex -3.87433 0.994759 -6
    endloop
  endfacet
  facet normal 0 0 -1
    outer loop
      vertex -23.246 5.96856 -6
      vertex -3.87433 0.994759 -6
      vertex -3.96846 0.501332 -6
    endloop
  endfacet
  facet normal 0 0 -1
    outer loop
      vertex -0.749525 3.92915 -6
      vertex -4.49715 23.5749 -6
      vertex -1.50697 23.9526 -6
    endloop
  endfacet
  facet normal 0 0 -1
    outer loop
      vertex -23.8108 3.008 -6
      vertex -3.96846 0.501332 -6
      vertex -4 0 -6
    endloop
  endfacet
  facet normal 0 0 -1
    outer loop
      vertex -19.4164 -14.1068 -6
      vertex -3.23607 -2.35114 -6
      vertex -17.4952 -16.4291 -6
    endloop
  endfacet
  facet normal -0 0 -1
    outer loop
      vertex -3.23607 -2.35114 -6
      vertex -19.4164 -14.1068 -6
      vertex -3.50523 -1.92701 -6
    endloop
  endfacet
  facet normal 0 0 -1
    outer loop
      vertex -1.23607 3.80423 -6
      vertex -7.41641 22.8254 -6
      vertex -4.49715 23.5749 -6
    endloop
  endfacet
  facet normal 0 0 -1
    outer loop
      vertex -21.0314 -11.5621 -6
      vertex -3.50523 -1.92701 -6
      vertex -19.4164 -14.1068 -6
    endloop
  endfacet
  facet normal 0 0 -1
    outer loop
      vertex -1.70312 3.61931 -6
      vertex -10.2187 21.7158 -6
      vertex -7.41641 22.8254 -6
    endloop
  endfacet
  facet normal -0 0 -1
    outer loop
      vertex -3.50523 -1.92701 -6
      vertex -21.0314 -11.5621 -6
      vertex -3.71911 -1.4725 -6
    endloop
  endfacet
  facet normal 0 0 -1
    outer loop
      vertex -2.14331 3.37731 -6
      vertex -12.8598 20.2639 -6
      vertex -10.2187 21.7158 -6
    endloop
  endfacet
  facet normal 0 0 -1
    outer loop
      vertex -22.3146 -8.83499 -6
      vertex -3.71911 -1.4725 -6
      vertex -21.0314 -11.5621 -6
    endloop
  endfacet
  facet normal 0 0 -1
    outer loop
      vertex -2.5497 3.08205 -6
      vertex -15.2982 18.4923 -6
      vertex -12.8598 20.2639 -6
    endloop
  endfacet
  facet normal -0 0 -1
    outer loop
      vertex -3.71911 -1.4725 -6
      vertex -22.3146 -8.83499 -6
      vertex -3.87433 -0.994759 -6
    endloop
  endfacet
  facet normal 0 0 -1
    outer loop
      vertex -2.91587 2.73819 -6
      vertex -17.4952 16.4291 -6
      vertex -15.2982 18.4923 -6
    endloop
  endfacet
  facet normal 0 0 -1
    outer loop
      vertex -23.246 -5.96856 -6
      vertex -3.87433 -0.994759 -6
      vertex -22.3146 -8.83499 -6
    endloop
  endfacet
  facet normal 0 0 -1
    outer loop
      vertex -3.23607 2.35114 -6
      vertex -19.4164 14.1068 -6
      vertex -17.4952 16.4291 -6
    endloop
  endfacet
  facet normal -0 0 -1
    outer loop
      vertex -3.87433 -0.994759 -6
      vertex -23.246 -5.96856 -6
      vertex -3.96846 -0.501332 -6
    endloop
  endfacet
  facet normal 0 0 -1
    outer loop
      vertex -3.50523 1.92701 -6
      vertex -21.0314 11.5621 -6
      vertex -19.4164 14.1068 -6
    endloop
  endfacet
  facet normal 0 0 -1
    outer loop
      vertex -23.8108 -3.008 -6
      vertex -3.96846 -0.501332 -6
      vertex -23.246 -5.96856 -6
    endloop
  endfacet
  facet normal 0 0 -1
    outer loop
      vertex -3.71911 1.4725 -6
      vertex -22.3146 8.83499 -6
      vertex -21.0314 11.5621 -6
    endloop
  endfacet
  facet normal -0 0 -1
    outer loop
      vertex -3.96846 -0.501332 -6
      vertex -23.8108 -3.008 -6
      vertex -4 0 -6
    endloop
  endfacet
  facet normal 0 0 -1
    outer loop
      vertex -3.87433 0.994759 -6
      vertex -23.246 5.96856 -6
      vertex -22.3146 8.83499 -6
    endloop
  endfacet
  facet normal 0 0 -1
    outer loop
      vertex -24 0 -6
      vertex -4 0 -6
      vertex -23.8108 -3.008 -6
    endloop
  endfacet
  facet normal 0 0 -1
    outer loop
      vertex -3.96846 0.501332 -6
      vertex -23.8108 3.008 -6
      vertex -23.246 5.96856 -6
    endloop
  endfacet
  facet normal 0 0 -1
    outer loop
      vertex -4 0 -6
      vertex -24 0 -6
      vertex -23.8108 3.008 -6
    endloop
  endfacet
  facet normal 0.481739 -0.876315 0
    outer loop
      vertex 10.2187 -21.7158 -6
      vertex 12.8598 -20.2639 6
      vertex 10.2187 -21.7158 6
    endloop
  endfacet
  facet normal 0.481739 -0.876315 0
    outer loop
      vertex 12.8598 -20.2639 6
      vertex 10.2187 -21.7158 -6
      vertex 12.8598 -20.2639 -6
    endloop
  endfacet
  facet normal 0.684561 -0.728955 0
    outer loop
      vertex 15.2982 -18.4923 -6
      vertex 17.4952 -16.4291 6
      vertex 15.2982 -18.4923 6
    endloop
  endfacet
  facet normal 0.684561 -0.728955 0
    outer loop
      vertex 17.4952 -16.4291 6
      vertex 15.2982 -18.4923 -6
      vertex 17.4952 -16.4291 -6
    endloop
  endfacet
  facet normal 0.844315 -0.535847 0
    outer loop
      vertex 19.4164 -14.1068 6
      vertex 21.0314 -11.5621 -6
      vertex 21.0314 -11.5621 6
    endloop
  endfacet
  facet normal 0.844315 -0.535847 0
    outer loop
      vertex 21.0314 -11.5621 -6
      vertex 19.4164 -14.1068 6
      vertex 19.4164 -14.1068 -6
    endloop
  endfacet
  facet normal -0.368152 -0.929766 0
    outer loop
      vertex -10.2187 -21.7158 -6
      vertex -7.41641 -22.8254 6
      vertex -10.2187 -21.7158 6
    endloop
  endfacet
  facet normal -0.368152 -0.929766 -0
    outer loop
      vertex -7.41641 -22.8254 6
      vertex -10.2187 -21.7158 -6
      vertex -7.41641 -22.8254 -6
    endloop
  endfacet
  facet normal -0.951053 -0.309029 0
    outer loop
      vertex -22.3146 -8.83499 -6
      vertex -23.246 -5.96856 6
      vertex -23.246 -5.96856 -6
    endloop
  endfacet
  facet normal -0.951053 -0.309029 0
    outer loop
      vertex -23.246 -5.96856 6
      vertex -22.3146 -8.83499 -6
      vertex -22.3146 -8.83499 6
    endloop
  endfacet
  facet normal 0.368152 -0.929766 0
    outer loop
      vertex 7.41641 -22.8254 -6
      vertex 10.2187 -21.7158 6
      vertex 7.41641 -22.8254 6
    endloop
  endfacet
  facet normal 0.368152 -0.929766 0
    outer loop
      vertex 10.2187 -21.7158 6
      vertex 7.41641 -22.8254 -6
      vertex 10.2187 -21.7158 -6
    endloop
  endfacet
  facet normal 0.248678 -0.968586 0
    outer loop
      vertex 4.49715 -23.5749 -6
      vertex 7.41641 -22.8254 6
      vertex 4.49715 -23.5749 6
    endloop
  endfacet
  facet normal 0.248678 -0.968586 0
    outer loop
      vertex 7.41641 -22.8254 6
      vertex 4.49715 -23.5749 -6
      vertex 7.41641 -22.8254 -6
    endloop
  endfacet
  facet normal -0.125318 -0.992117 0
    outer loop
      vertex -4.49715 -23.5749 -6
      vertex -1.50697 -23.9526 6
      vertex -4.49715 -23.5749 6
    endloop
  endfacet
  facet normal -0.125318 -0.992117 -0
    outer loop
      vertex -1.50697 -23.9526 6
      vertex -4.49715 -23.5749 -6
      vertex -1.50697 -23.9526 -6
    endloop
  endfacet
  facet normal -0.587785 -0.809017 0
    outer loop
      vertex -15.2982 -18.4923 -6
      vertex -12.8598 -20.2639 6
      vertex -15.2982 -18.4923 6
    endloop
  endfacet
  facet normal -0.587785 -0.809017 -0
    outer loop
      vertex -12.8598 -20.2639 6
      vertex -15.2982 -18.4923 -6
      vertex -12.8598 -20.2639 -6
    endloop
  endfacet
  facet normal -0.481739 -0.876315 0
    outer loop
      vertex -12.8598 -20.2639 -6
      vertex -10.2187 -21.7158 6
      vertex -12.8598 -20.2639 6
    endloop
  endfacet
  facet normal -0.481739 -0.876315 -0
    outer loop
      vertex -10.2187 -21.7158 6
      vertex -12.8598 -20.2639 -6
      vertex -10.2187 -21.7158 -6
    endloop
  endfacet
  facet normal -0.844315 -0.535847 0
    outer loop
      vertex -19.4164 -14.1068 -6
      vertex -21.0314 -11.5621 6
      vertex -21.0314 -11.5621 -6
    endloop
  endfacet
  facet normal -0.844315 -0.535847 0
    outer loop
      vertex -21.0314 -11.5621 6
      vertex -19.4164 -14.1068 -6
      vertex -19.4164 -14.1068 6
    endloop
  endfacet
  facet normal -0.982285 -0.187395 0
    outer loop
      vertex -23.246 -5.96856 -6
      vertex -23.8108 -3.008 6
      vertex -23.8108 -3.008 -6
    endloop
  endfacet
  facet normal -0.982285 -0.187395 0
    outer loop
      vertex -23.8108 -3.008 6
      vertex -23.246 -5.96856 -6
      vertex -23.246 -5.96856 6
    endloop
  endfacet
  facet normal -0.998028 -0.0627749 0
    outer loop
      vertex -23.8108 -3.008 -6
      vertex -24 0 6
      vertex -24 0 -6
    endloop
  endfacet
  facet normal -0.998028 -0.0627749 0
    outer loop
      vertex -24 0 6
      vertex -23.8108 -3.008 -6
      vertex -23.8108 -3.008 6
    endloop
  endfacet
  facet normal 0.587785 -0.809017 0
    outer loop
      vertex 12.8598 -20.2639 -6
      vertex 15.2982 -18.4923 6
      vertex 12.8598 -20.2639 6
    endloop
  endfacet
  facet normal 0.587785 -0.809017 0
    outer loop
      vertex 15.2982 -18.4923 6
      vertex 12.8598 -20.2639 -6
      vertex 15.2982 -18.4923 -6
    endloop
  endfacet
  facet normal -0.248678 -0.968586 0
    outer loop
      vertex -7.41641 -22.8254 -6
      vertex -4.49715 -23.5749 6
      vertex -7.41641 -22.8254 6
    endloop
  endfacet
  facet normal -0.248678 -0.968586 -0
    outer loop
      vertex -4.49715 -23.5749 6
      vertex -7.41641 -22.8254 -6
      vertex -4.49715 -23.5749 -6
    endloop
  endfacet
  facet normal -0.998027 -0.0627883 0
    outer loop
      vertex 4 0 -6
      vertex 3.96846 0.501332 6
      vertex 3.96846 0.501332 -6
    endloop
  endfacet
  facet normal -0.998027 -0.0627883 0
    outer loop
      vertex 3.96846 0.501332 6
      vertex 4 0 -6
      vertex 4 0 6
    endloop
  endfacet
  facet normal 0.998027 -0.0627883 0
    outer loop
      vertex -4 0 6
      vertex -3.96846 0.501332 -6
      vertex -3.96846 0.501332 6
    endloop
  endfacet
  facet normal 0.998027 -0.0627883 0
    outer loop
      vertex -3.96846 0.501332 -6
      vertex -4 0 6
      vertex -4 0 -6
    endloop
  endfacet
  facet normal 0 -1 0
    outer loop
      vertex -0.251162 3.99211 -6
      vertex 0.251162 3.99211 6
      vertex -0.251162 3.99211 6
    endloop
  endfacet
  facet normal 0 -1 -0
    outer loop
      vertex 0.251162 3.99211 6
      vertex -0.251162 3.99211 -6
      vertex 0.251162 3.99211 -6
    endloop
  endfacet
  facet normal 0 1 -0
    outer loop
      vertex 0.251162 -3.99211 -6
      vertex -0.251162 -3.99211 6
      vertex 0.251162 -3.99211 6
    endloop
  endfacet
  facet normal 0 1 0
    outer loop
      vertex -0.251162 -3.99211 6
      vertex 0.251162 -3.99211 -6
      vertex -0.251162 -3.99211 -6
    endloop
  endfacet
  facet normal -0.684551 -0.728965 0
    outer loop
      vertex 2.5497 3.08205 -6
      vertex 2.91587 2.73819 6
      vertex 2.5497 3.08205 6
    endloop
  endfacet
  facet normal -0.684551 -0.728965 -0
    outer loop
      vertex 2.91587 2.73819 6
      vertex 2.5497 3.08205 -6
      vertex 2.91587 2.73819 -6
    endloop
  endfacet
  facet normal 0.684551 -0.728965 0
    outer loop
      vertex -2.91587 2.73819 -6
      vertex -2.5497 3.08205 6
      vertex -2.91587 2.73819 6
    endloop
  endfacet
  facet normal 0.684551 -0.728965 0
    outer loop
      vertex -2.5497 3.08205 6
      vertex -2.91587 2.73819 -6
      vertex -2.5497 3.08205 -6
    endloop
  endfacet
  facet normal 0.368128 -0.929775 0
    outer loop
      vertex -1.70312 3.61931 -6
      vertex -1.23607 3.80423 6
      vertex -1.70312 3.61931 6
    endloop
  endfacet
  facet normal 0.368128 -0.929775 0
    outer loop
      vertex -1.23607 3.80423 6
      vertex -1.70312 3.61931 -6
      vertex -1.23607 3.80423 -6
    endloop
  endfacet
  facet normal -0.904824 0.425786 0
    outer loop
      vertex 3.50523 -1.92701 -6
      vertex 3.71911 -1.4725 6
      vertex 3.71911 -1.4725 -6
    endloop
  endfacet
  facet normal -0.904824 0.425786 0
    outer loop
      vertex 3.71911 -1.4725 6
      vertex 3.50523 -1.92701 -6
      vertex 3.50523 -1.92701 6
    endloop
  endfacet
  facet normal -0.904824 -0.425786 0
    outer loop
      vertex 3.71911 1.4725 -6
      vertex 3.50523 1.92701 6
      vertex 3.50523 1.92701 -6
    endloop
  endfacet
  facet normal -0.904824 -0.425786 0
    outer loop
      vertex 3.50523 1.92701 6
      vertex 3.71911 1.4725 -6
      vertex 3.71911 1.4725 6
    endloop
  endfacet
  facet normal -0.844329 -0.535825 0
    outer loop
      vertex 3.50523 1.92701 -6
      vertex 3.23607 2.35114 6
      vertex 3.23607 2.35114 -6
    endloop
  endfacet
  facet normal -0.844329 -0.535825 0
    outer loop
      vertex 3.23607 2.35114 6
      vertex 3.50523 1.92701 -6
      vertex 3.50523 1.92701 6
    endloop
  endfacet
  facet normal -0.368128 -0.929775 0
    outer loop
      vertex 1.23607 3.80423 -6
      vertex 1.70312 3.61931 6
      vertex 1.23607 3.80423 6
    endloop
  endfacet
  facet normal -0.368128 -0.929775 -0
    outer loop
      vertex 1.70312 3.61931 6
      vertex 1.23607 3.80423 -6
      vertex 1.70312 3.61931 -6
    endloop
  endfacet
  facet normal -0.248683 -0.968585 0
    outer loop
      vertex 0.749525 3.92915 -6
      vertex 1.23607 3.80423 6
      vertex 0.749525 3.92915 6
    endloop
  endfacet
  facet normal -0.248683 -0.968585 -0
    outer loop
      vertex 1.23607 3.80423 6
      vertex 0.749525 3.92915 -6
      vertex 1.23607 3.80423 -6
    endloop
  endfacet
  facet normal -0.587786 -0.809017 0
    outer loop
      vertex 2.14331 3.37731 -6
      vertex 2.5497 3.08205 6
      vertex 2.14331 3.37731 6
    endloop
  endfacet
  facet normal -0.587786 -0.809017 -0
    outer loop
      vertex 2.5497 3.08205 6
      vertex 2.14331 3.37731 -6
      vertex 2.5497 3.08205 -6
    endloop
  endfacet
  facet normal 0.904824 -0.425786 0
    outer loop
      vertex -3.71911 1.4725 6
      vertex -3.50523 1.92701 -6
      vertex -3.50523 1.92701 6
    endloop
  endfacet
  facet normal 0.904824 -0.425786 0
    outer loop
      vertex -3.50523 1.92701 -6
      vertex -3.71911 1.4725 6
      vertex -3.71911 1.4725 -6
    endloop
  endfacet
  facet normal 0.770509 -0.637429 0
    outer loop
      vertex -3.23607 2.35114 6
      vertex -2.91587 2.73819 -6
      vertex -2.91587 2.73819 6
    endloop
  endfacet
  facet normal 0.770509 -0.637429 0
    outer loop
      vertex -2.91587 2.73819 -6
      vertex -3.23607 2.35114 6
      vertex -3.23607 2.35114 -6
    endloop
  endfacet
  facet normal 0.951061 -0.309004 0
    outer loop
      vertex -3.87433 0.994759 6
      vertex -3.71911 1.4725 -6
      vertex -3.71911 1.4725 6
    endloop
  endfacet
  facet normal 0.951061 -0.309004 0
    outer loop
      vertex -3.71911 1.4725 -6
      vertex -3.87433 0.994759 6
      vertex -3.87433 0.994759 -6
    endloop
  endfacet
  facet normal 0.481759 -0.876304 0
    outer loop
      vertex -2.14331 3.37731 -6
      vertex -1.70312 3.61931 6
      vertex -2.14331 3.37731 6
    endloop
  endfacet
  facet normal 0.481759 -0.876304 0
    outer loop
      vertex -1.70312 3.61931 6
      vertex -2.14331 3.37731 -6
      vertex -1.70312 3.61931 -6
    endloop
  endfacet
  facet normal 0.248683 -0.968585 0
    outer loop
      vertex -1.23607 3.80423 -6
      vertex -0.749525 3.92915 6
      vertex -1.23607 3.80423 6
    endloop
  endfacet
  facet normal 0.248683 -0.968585 0
    outer loop
      vertex -0.749525 3.92915 6
      vertex -1.23607 3.80423 -6
      vertex -0.749525 3.92915 -6
    endloop
  endfacet
  facet normal -0.125337 0.992114 0
    outer loop
      vertex 0.749525 -3.92915 -6
      vertex 0.251162 -3.99211 6
      vertex 0.749525 -3.92915 6
    endloop
  endfacet
  facet normal -0.125337 0.992114 0
    outer loop
      vertex 0.251162 -3.99211 6
      vertex 0.749525 -3.92915 -6
      vertex 0.251162 -3.99211 -6
    endloop
  endfacet
  facet normal -0.368128 0.929775 0
    outer loop
      vertex 1.70312 -3.61931 -6
      vertex 1.23607 -3.80423 6
      vertex 1.70312 -3.61931 6
    endloop
  endfacet
  facet normal -0.368128 0.929775 0
    outer loop
      vertex 1.23607 -3.80423 6
      vertex 1.70312 -3.61931 -6
      vertex 1.23607 -3.80423 -6
    endloop
  endfacet
  facet normal -0.951061 -0.309004 0
    outer loop
      vertex 3.87433 0.994759 -6
      vertex 3.71911 1.4725 6
      vertex 3.71911 1.4725 -6
    endloop
  endfacet
  facet normal -0.951061 -0.309004 0
    outer loop
      vertex 3.71911 1.4725 6
      vertex 3.87433 0.994759 -6
      vertex 3.87433 0.994759 6
    endloop
  endfacet
  facet normal -0.982286 -0.187389 0
    outer loop
      vertex 3.96846 0.501332 -6
      vertex 3.87433 0.994759 6
      vertex 3.87433 0.994759 -6
    endloop
  endfacet
  facet normal -0.982286 -0.187389 0
    outer loop
      vertex 3.87433 0.994759 6
      vertex 3.96846 0.501332 -6
      vertex 3.96846 0.501332 6
    endloop
  endfacet
  facet normal -0.770509 -0.637429 0
    outer loop
      vertex 3.23607 2.35114 -6
      vertex 2.91587 2.73819 6
      vertex 2.91587 2.73819 -6
    endloop
  endfacet
  facet normal -0.770509 -0.637429 0
    outer loop
      vertex 2.91587 2.73819 6
      vertex 3.23607 2.35114 -6
      vertex 3.23607 2.35114 6
    endloop
  endfacet
  facet normal -0.125337 -0.992114 0
    outer loop
      vertex 0.251162 3.99211 -6
      vertex 0.749525 3.92915 6
      vertex 0.251162 3.99211 6
    endloop
  endfacet
  facet normal -0.125337 -0.992114 -0
    outer loop
      vertex 0.749525 3.92915 6
      vertex 0.251162 3.99211 -6
      vertex 0.749525 3.92915 -6
    endloop
  endfacet
  facet normal -0.481759 -0.876304 0
    outer loop
      vertex 1.70312 3.61931 -6
      vertex 2.14331 3.37731 6
      vertex 1.70312 3.61931 6
    endloop
  endfacet
  facet normal -0.481759 -0.876304 -0
    outer loop
      vertex 2.14331 3.37731 6
      vertex 1.70312 3.61931 -6
      vertex 2.14331 3.37731 -6
    endloop
  endfacet
  facet normal 0.844329 -0.535825 0
    outer loop
      vertex -3.50523 1.92701 6
      vertex -3.23607 2.35114 -6
      vertex -3.23607 2.35114 6
    endloop
  endfacet
  facet normal 0.844329 -0.535825 0
    outer loop
      vertex -3.23607 2.35114 -6
      vertex -3.50523 1.92701 6
      vertex -3.50523 1.92701 -6
    endloop
  endfacet
  facet normal 0.982286 -0.187389 0
    outer loop
      vertex -3.96846 0.501332 6
      vertex -3.87433 0.994759 -6
      vertex -3.87433 0.994759 6
    endloop
  endfacet
  facet normal 0.982286 -0.187389 0
    outer loop
      vertex -3.87433 0.994759 -6
      vertex -3.96846 0.501332 6
      vertex -3.96846 0.501332 -6
    endloop
  endfacet
  facet normal 0.587786 -0.809017 0
    outer loop
      vertex -2.5497 3.08205 -6
      vertex -2.14331 3.37731 6
      vertex -2.5497 3.08205 6
    endloop
  endfacet
  facet normal 0.587786 -0.809017 0
    outer loop
      vertex -2.14331 3.37731 6
      vertex -2.5497 3.08205 -6
      vertex -2.14331 3.37731 -6
    endloop
  endfacet
  facet normal 0.125337 -0.992114 0
    outer loop
      vertex -0.749525 3.92915 -6
      vertex -0.251162 3.99211 6
      vertex -0.749525 3.92915 6
    endloop
  endfacet
  facet normal 0.125337 -0.992114 0
    outer loop
      vertex -0.251162 3.99211 6
      vertex -0.749525 3.92915 -6
      vertex -0.251162 3.99211 -6
    endloop
  endfacet
  facet normal -0.770509 0.637429 0
    outer loop
      vertex 2.91587 -2.73819 -6
      vertex 3.23607 -2.35114 6
      vertex 3.23607 -2.35114 -6
    endloop
  endfacet
  facet normal -0.770509 0.637429 0
    outer loop
      vertex 3.23607 -2.35114 6
      vertex 2.91587 -2.73819 -6
      vertex 2.91587 -2.73819 6
    endloop
  endfacet
  facet normal -0.951061 0.309004 0
    outer loop
      vertex 3.71911 -1.4725 -6
      vertex 3.87433 -0.994759 6
      vertex 3.87433 -0.994759 -6
    endloop
  endfacet
  facet normal -0.951061 0.309004 0
    outer loop
      vertex 3.87433 -0.994759 6
      vertex 3.71911 -1.4725 -6
      vertex 3.71911 -1.4725 6
    endloop
  endfacet
  facet normal -0.982286 0.187389 0
    outer loop
      vertex 3.87433 -0.994759 -6
      vertex 3.96846 -0.501332 6
      vertex 3.96846 -0.501332 -6
    endloop
  endfacet
  facet normal -0.982286 0.187389 0
    outer loop
      vertex 3.96846 -0.501332 6
      vertex 3.87433 -0.994759 -6
      vertex 3.87433 -0.994759 6
    endloop
  endfacet
  facet normal 0.770509 0.637429 0
    outer loop
      vertex -2.91587 -2.73819 6
      vertex -3.23607 -2.35114 -6
      vertex -3.23607 -2.35114 6
    endloop
  endfacet
  facet normal 0.770509 0.637429 0
    outer loop
      vertex -3.23607 -2.35114 -6
      vertex -2.91587 -2.73819 6
      vertex -2.91587 -2.73819 -6
    endloop
  endfacet
  facet normal -0.844329 0.535825 0
    outer loop
      vertex 3.23607 -2.35114 -6
      vertex 3.50523 -1.92701 6
      vertex 3.50523 -1.92701 -6
    endloop
  endfacet
  facet normal -0.844329 0.535825 0
    outer loop
      vertex 3.50523 -1.92701 6
      vertex 3.23607 -2.35114 -6
      vertex 3.23607 -2.35114 6
    endloop
  endfacet
  facet normal -0.998027 0.0627883 0
    outer loop
      vertex 3.96846 -0.501332 -6
      vertex 4 0 6
      vertex 4 0 -6
    endloop
  endfacet
  facet normal -0.998027 0.0627883 0
    outer loop
      vertex 4 0 6
      vertex 3.96846 -0.501332 -6
      vertex 3.96846 -0.501332 6
    endloop
  endfacet
  facet normal 0.951061 0.309004 0
    outer loop
      vertex -3.71911 -1.4725 6
      vertex -3.87433 -0.994759 -6
      vertex -3.87433 -0.994759 6
    endloop
  endfacet
  facet normal 0.951061 0.309004 0
    outer loop
      vertex -3.87433 -0.994759 -6
      vertex -3.71911 -1.4725 6
      vertex -3.71911 -1.4725 -6
    endloop
  endfacet
  facet normal -0.248683 0.968585 0
    outer loop
      vertex 1.23607 -3.80423 -6
      vertex 0.749525 -3.92915 6
      vertex 1.23607 -3.80423 6
    endloop
  endfacet
  facet normal -0.248683 0.968585 0
    outer loop
      vertex 0.749525 -3.92915 6
      vertex 1.23607 -3.80423 -6
      vertex 0.749525 -3.92915 -6
    endloop
  endfacet
  facet normal -0.684551 0.728965 0
    outer loop
      vertex 2.91587 -2.73819 -6
      vertex 2.5497 -3.08205 6
      vertex 2.91587 -2.73819 6
    endloop
  endfacet
  facet normal -0.684551 0.728965 0
    outer loop
      vertex 2.5497 -3.08205 6
      vertex 2.91587 -2.73819 -6
      vertex 2.5497 -3.08205 -6
    endloop
  endfacet
  facet normal -0.587786 0.809017 0
    outer loop
      vertex 2.5497 -3.08205 -6
      vertex 2.14331 -3.37731 6
      vertex 2.5497 -3.08205 6
    endloop
  endfacet
  facet normal -0.587786 0.809017 0
    outer loop
      vertex 2.14331 -3.37731 6
      vertex 2.5497 -3.08205 -6
      vertex 2.14331 -3.37731 -6
    endloop
  endfacet
  facet normal -0.481759 0.876304 0
    outer loop
      vertex 2.14331 -3.37731 -6
      vertex 1.70312 -3.61931 6
      vertex 2.14331 -3.37731 6
    endloop
  endfacet
  facet normal -0.481759 0.876304 0
    outer loop
      vertex 1.70312 -3.61931 6
      vertex 2.14331 -3.37731 -6
      vertex 1.70312 -3.61931 -6
    endloop
  endfacet
  facet normal 0.125337 0.992114 -0
    outer loop
      vertex -0.251162 -3.99211 -6
      vertex -0.749525 -3.92915 6
      vertex -0.251162 -3.99211 6
    endloop
  endfacet
  facet normal 0.125337 0.992114 0
    outer loop
      vertex -0.749525 -3.92915 6
      vertex -0.251162 -3.99211 -6
      vertex -0.749525 -3.92915 -6
    endloop
  endfacet
  facet normal 0.248683 0.968585 -0
    outer loop
      vertex -0.749525 -3.92915 -6
      vertex -1.23607 -3.80423 6
      vertex -0.749525 -3.92915 6
    endloop
  endfacet
  facet normal 0.248683 0.968585 0
    outer loop
      vertex -1.23607 -3.80423 6
      vertex -0.749525 -3.92915 -6
      vertex -1.23607 -3.80423 -6
    endloop
  endfacet
  facet normal 0.844329 0.535825 0
    outer loop
      vertex -3.23607 -2.35114 6
      vertex -3.50523 -1.92701 -6
      vertex -3.50523 -1.92701 6
    endloop
  endfacet
  facet normal 0.844329 0.535825 0
    outer loop
      vertex -3.50523 -1.92701 -6
      vertex -3.23607 -2.35114 6
      vertex -3.23607 -2.35114 -6
    endloop
  endfacet
  facet normal 0.904824 0.425786 0
    outer loop
      vertex -3.50523 -1.92701 6
      vertex -3.71911 -1.4725 -6
      vertex -3.71911 -1.4725 6
    endloop
  endfacet
  facet normal 0.904824 0.425786 0
    outer loop
      vertex -3.71911 -1.4725 -6
      vertex -3.50523 -1.92701 6
      vertex -3.50523 -1.92701 -6
    endloop
  endfacet
  facet normal 0.982286 0.187389 0
    outer loop
      vertex -3.87433 -0.994759 6
      vertex -3.96846 -0.501332 -6
      vertex -3.96846 -0.501332 6
    endloop
  endfacet
  facet normal 0.982286 0.187389 0
    outer loop
      vertex -3.96846 -0.501332 -6
      vertex -3.87433 -0.994759 6
      vertex -3.87433 -0.994759 -6
    endloop
  endfacet
  facet normal 0.998027 0.0627883 0
    outer loop
      vertex -3.96846 -0.501332 6
      vertex -4 0 -6
      vertex -4 0 6
    endloop
  endfacet
  facet normal 0.998027 0.0627883 0
    outer loop
      vertex -4 0 -6
      vertex -3.96846 -0.501332 6
      vertex -3.96846 -0.501332 -6
    endloop
  endfacet
  facet normal 0.684551 0.728965 -0
    outer loop
      vertex -2.5497 -3.08205 -6
      vertex -2.91587 -2.73819 6
      vertex -2.5497 -3.08205 6
    endloop
  endfacet
  facet normal 0.684551 0.728965 0
    outer loop
      vertex -2.91587 -2.73819 6
      vertex -2.5497 -3.08205 -6
      vertex -2.91587 -2.73819 -6
    endloop
  endfacet
  facet normal 0.481759 0.876304 -0
    outer loop
      vertex -1.70312 -3.61931 -6
      vertex -2.14331 -3.37731 6
      vertex -1.70312 -3.61931 6
    endloop
  endfacet
  facet normal 0.481759 0.876304 0
    outer loop
      vertex -2.14331 -3.37731 6
      vertex -1.70312 -3.61931 -6
      vertex -2.14331 -3.37731 -6
    endloop
  endfacet
  facet normal 0.587786 0.809017 -0
    outer loop
      vertex -2.14331 -3.37731 -6
      vertex -2.5497 -3.08205 6
      vertex -2.14331 -3.37731 6
    endloop
  endfacet
  facet normal 0.587786 0.809017 0
    outer loop
      vertex -2.5497 -3.08205 6
      vertex -2.14331 -3.37731 -6
      vertex -2.5497 -3.08205 -6
    endloop
  endfacet
  facet normal 0.368128 0.929775 -0
    outer loop
      vertex -1.23607 -3.80423 -6
      vertex -1.70312 -3.61931 6
      vertex -1.23607 -3.80423 6
    endloop
  endfacet
  facet normal 0.368128 0.929775 0
    outer loop
      vertex -1.70312 -3.61931 6
      vertex -1.23607 -3.80423 -6
      vertex -1.70312 -3.61931 -6
    endloop
  endfacet
endsolid OpenSCAD_Model
