solid OpenSCAD_Model
  facet normal 0.998027 0.0627838 0
    outer loop
      vertex 4.5 0 30
      vertex 4.46452 0.563999 -30
      vertex 4.46452 0.563999 30
    endloop
  endfacet
  facet normal 0.998027 0.0627838 0
    outer loop
      vertex 4.46452 0.563999 -30
      vertex 4.5 0 30
      vertex 4.5 0 -30
    endloop
  endfacet
  facet normal -0.998027 0.0627838 0
    outer loop
      vertex -4.5 0 -30
      vertex -4.46452 0.563999 30
      vertex -4.46452 0.563999 -30
    endloop
  endfacet
  facet normal -0.998027 0.0627838 0
    outer loop
      vertex -4.46452 0.563999 30
      vertex -4.5 0 -30
      vertex -4.5 0 30
    endloop
  endfacet
  facet normal 0 1 -0
    outer loop
      vertex 0.282557 4.49112 -30
      vertex -0.282557 4.49112 30
      vertex 0.282557 4.49112 30
    endloop
  endfacet
  facet normal 0 1 0
    outer loop
      vertex -0.282557 4.49112 30
      vertex 0.282557 4.49112 -30
      vertex -0.282557 4.49112 -30
    endloop
  endfacet
  facet normal 0 -1 0
    outer loop
      vertex -0.282557 -4.49112 -30
      vertex 0.282557 -4.49112 30
      vertex -0.282557 -4.49112 30
    endloop
  endfacet
  facet normal 0 -1 -0
    outer loop
      vertex 0.282557 -4.49112 30
      vertex -0.282557 -4.49112 -30
      vertex 0.282557 -4.49112 -30
    endloop
  endfacet
  facet normal 0.68455 0.728966 -0
    outer loop
      vertex 3.28036 3.08046 -30
      vertex 2.86841 3.46731 30
      vertex 3.28036 3.08046 30
    endloop
  endfacet
  facet normal 0.68455 0.728966 0
    outer loop
      vertex 2.86841 3.46731 30
      vertex 3.28036 3.08046 -30
      vertex 2.86841 3.46731 -30
    endloop
  endfacet
  facet normal -0.68455 0.728966 0
    outer loop
      vertex -2.86841 3.46731 -30
      vertex -3.28036 3.08046 30
      vertex -2.86841 3.46731 30
    endloop
  endfacet
  facet normal -0.68455 0.728966 0
    outer loop
      vertex -3.28036 3.08046 30
      vertex -2.86841 3.46731 -30
      vertex -3.28036 3.08046 -30
    endloop
  endfacet
  facet normal -0.368121 0.929778 0
    outer loop
      vertex -1.39058 4.27975 -30
      vertex -1.91601 4.07172 30
      vertex -1.39058 4.27975 30
    endloop
  endfacet
  facet normal -0.368121 0.929778 0
    outer loop
      vertex -1.91601 4.07172 30
      vertex -1.39058 4.27975 -30
      vertex -1.91601 4.07172 -30
    endloop
  endfacet
  facet normal 0.951057 -0.309015 0
    outer loop
      vertex 4.18399 -1.65656 30
      vertex 4.35862 -1.1191 -30
      vertex 4.35862 -1.1191 30
    endloop
  endfacet
  facet normal 0.951057 -0.309015 0
    outer loop
      vertex 4.35862 -1.1191 -30
      vertex 4.18399 -1.65656 30
      vertex 4.18399 -1.65656 -30
    endloop
  endfacet
  facet normal 0.90483 0.425774 0
    outer loop
      vertex 4.18399 1.65656 30
      vertex 3.94338 2.16789 -30
      vertex 3.94338 2.16789 30
    endloop
  endfacet
  facet normal 0.90483 0.425774 0
    outer loop
      vertex 3.94338 2.16789 -30
      vertex 4.18399 1.65656 30
      vertex 4.18399 1.65656 -30
    endloop
  endfacet
  facet normal 0.982284 0.187396 0
    outer loop
      vertex 4.46452 0.563999 30
      vertex 4.35862 1.1191 -30
      vertex 4.35862 1.1191 30
    endloop
  endfacet
  facet normal 0.982284 0.187396 0
    outer loop
      vertex 4.35862 1.1191 -30
      vertex 4.46452 0.563999 30
      vertex 4.46452 0.563999 -30
    endloop
  endfacet
  facet normal 0.368121 0.929778 -0
    outer loop
      vertex 1.91601 4.07172 -30
      vertex 1.39058 4.27975 30
      vertex 1.91601 4.07172 30
    endloop
  endfacet
  facet normal 0.368121 0.929778 0
    outer loop
      vertex 1.39058 4.27975 30
      vertex 1.91601 4.07172 -30
      vertex 1.39058 4.27975 -30
    endloop
  endfacet
  facet normal 0.248691 0.968583 -0
    outer loop
      vertex 1.39058 4.27975 -30
      vertex 0.843215 4.42029 30
      vertex 1.39058 4.27975 30
    endloop
  endfacet
  facet normal 0.248691 0.968583 0
    outer loop
      vertex 0.843215 4.42029 30
      vertex 1.39058 4.27975 -30
      vertex 0.843215 4.42029 -30
    endloop
  endfacet
  facet normal 0.587776 0.809024 -0
    outer loop
      vertex 2.86841 3.46731 -30
      vertex 2.41122 3.79947 30
      vertex 2.86841 3.46731 30
    endloop
  endfacet
  facet normal 0.587776 0.809024 0
    outer loop
      vertex 2.41122 3.79947 30
      vertex 2.86841 3.46731 -30
      vertex 2.41122 3.79947 -30
    endloop
  endfacet
  facet normal -0.90483 0.425774 0
    outer loop
      vertex -4.18399 1.65656 -30
      vertex -3.94338 2.16789 30
      vertex -3.94338 2.16789 -30
    endloop
  endfacet
  facet normal -0.90483 0.425774 0
    outer loop
      vertex -3.94338 2.16789 30
      vertex -4.18399 1.65656 -30
      vertex -4.18399 1.65656 30
    endloop
  endfacet
  facet normal -0.951057 0.309015 0
    outer loop
      vertex -4.35862 1.1191 -30
      vertex -4.18399 1.65656 30
      vertex -4.18399 1.65656 -30
    endloop
  endfacet
  facet normal -0.951057 0.309015 0
    outer loop
      vertex -4.18399 1.65656 30
      vertex -4.35862 1.1191 -30
      vertex -4.35862 1.1191 30
    endloop
  endfacet
  facet normal -0.481762 0.876302 0
    outer loop
      vertex -1.91601 4.07172 -30
      vertex -2.41122 3.79947 30
      vertex -1.91601 4.07172 30
    endloop
  endfacet
  facet normal -0.481762 0.876302 0
    outer loop
      vertex -2.41122 3.79947 30
      vertex -1.91601 4.07172 -30
      vertex -2.41122 3.79947 -30
    endloop
  endfacet
  facet normal -0.248691 0.968583 0
    outer loop
      vertex -0.843215 4.42029 -30
      vertex -1.39058 4.27975 30
      vertex -0.843215 4.42029 30
    endloop
  endfacet
  facet normal -0.248691 0.968583 0
    outer loop
      vertex -1.39058 4.27975 30
      vertex -0.843215 4.42029 -30
      vertex -1.39058 4.27975 -30
    endloop
  endfacet
  facet normal 0.368121 -0.929778 0
    outer loop
      vertex 1.39058 -4.27975 -30
      vertex 1.91601 -4.07172 30
      vertex 1.39058 -4.27975 30
    endloop
  endfacet
  facet normal 0.368121 -0.929778 0
    outer loop
      vertex 1.91601 -4.07172 30
      vertex 1.39058 -4.27975 -30
      vertex 1.91601 -4.07172 -30
    endloop
  endfacet
  facet normal 0.951057 0.309015 0
    outer loop
      vertex 4.35862 1.1191 30
      vertex 4.18399 1.65656 -30
      vertex 4.18399 1.65656 30
    endloop
  endfacet
  facet normal 0.951057 0.309015 0
    outer loop
      vertex 4.18399 1.65656 -30
      vertex 4.35862 1.1191 30
      vertex 4.35862 1.1191 -30
    endloop
  endfacet
  facet normal 0.770512 0.637425 0
    outer loop
      vertex 3.64058 2.64503 30
      vertex 3.28036 3.08046 -30
      vertex 3.28036 3.08046 30
    endloop
  endfacet
  facet normal 0.770512 0.637425 0
    outer loop
      vertex 3.28036 3.08046 -30
      vertex 3.64058 2.64503 30
      vertex 3.64058 2.64503 -30
    endloop
  endfacet
  facet normal 0.84433 0.535824 0
    outer loop
      vertex 3.94338 2.16789 30
      vertex 3.64058 2.64503 -30
      vertex 3.64058 2.64503 30
    endloop
  endfacet
  facet normal 0.84433 0.535824 0
    outer loop
      vertex 3.64058 2.64503 -30
      vertex 3.94338 2.16789 30
      vertex 3.94338 2.16789 -30
    endloop
  endfacet
  facet normal 0.125337 0.992114 -0
    outer loop
      vertex 0.843215 4.42029 -30
      vertex 0.282557 4.49112 30
      vertex 0.843215 4.42029 30
    endloop
  endfacet
  facet normal 0.125337 0.992114 0
    outer loop
      vertex 0.282557 4.49112 30
      vertex 0.843215 4.42029 -30
      vertex 0.282557 4.49112 -30
    endloop
  endfacet
  facet normal 0.481762 0.876302 -0
    outer loop
      vertex 2.41122 3.79947 -30
      vertex 1.91601 4.07172 30
      vertex 2.41122 3.79947 30
    endloop
  endfacet
  facet normal 0.481762 0.876302 0
    outer loop
      vertex 1.91601 4.07172 30
      vertex 2.41122 3.79947 -30
      vertex 1.91601 4.07172 -30
    endloop
  endfacet
  facet normal -0.84433 0.535824 0
    outer loop
      vertex -3.94338 2.16789 -30
      vertex -3.64058 2.64503 30
      vertex -3.64058 2.64503 -30
    endloop
  endfacet
  facet normal -0.84433 0.535824 0
    outer loop
      vertex -3.64058 2.64503 30
      vertex -3.94338 2.16789 -30
      vertex -3.94338 2.16789 30
    endloop
  endfacet
  facet normal -0.770512 0.637425 0
    outer loop
      vertex -3.64058 2.64503 -30
      vertex -3.28036 3.08046 30
      vertex -3.28036 3.08046 -30
    endloop
  endfacet
  facet normal -0.770512 0.637425 0
    outer loop
      vertex -3.28036 3.08046 30
      vertex -3.64058 2.64503 -30
      vertex -3.64058 2.64503 30
    endloop
  endfacet
  facet normal -0.982284 0.187396 0
    outer loop
      vertex -4.46452 0.563999 -30
      vertex -4.35862 1.1191 30
      vertex -4.35862 1.1191 -30
    endloop
  endfacet
  facet normal -0.982284 0.187396 0
    outer loop
      vertex -4.35862 1.1191 30
      vertex -4.46452 0.563999 -30
      vertex -4.46452 0.563999 30
    endloop
  endfacet
  facet normal 0 0 1
    outer loop
      vertex 4 0 30
      vertex 4.5 0 30
      vertex 4.46452 0.563999 30
    endloop
  endfacet
  facet normal 0 0 1
    outer loop
      vertex 3.96846 0.501332 30
      vertex 4.46452 0.563999 30
      vertex 4.35862 1.1191 30
    endloop
  endfacet
  facet normal 0 0 1
    outer loop
      vertex 4.5 0 30
      vertex 4 0 30
      vertex 4.46452 -0.563999 30
    endloop
  endfacet
  facet normal 0 0 1
    outer loop
      vertex 3.87433 0.994759 30
      vertex 4.35862 1.1191 30
      vertex 4.18399 1.65656 30
    endloop
  endfacet
  facet normal -0 0 1
    outer loop
      vertex 3.96846 -0.501332 30
      vertex 4.46452 -0.563999 30
      vertex 4 0 30
    endloop
  endfacet
  facet normal 0 0 1
    outer loop
      vertex 4.46452 -0.563999 30
      vertex 3.96846 -0.501332 30
      vertex 4.35862 -1.1191 30
    endloop
  endfacet
  facet normal 0 0 1
    outer loop
      vertex 4.46452 0.563999 30
      vertex 3.96846 0.501332 30
      vertex 4 0 30
    endloop
  endfacet
  facet normal 0 0 1
    outer loop
      vertex 3.71911 1.4725 30
      vertex 4.18399 1.65656 30
      vertex 3.94338 2.16789 30
    endloop
  endfacet
  facet normal 0 0 1
    outer loop
      vertex 4.35862 1.1191 30
      vertex 3.87433 0.994759 30
      vertex 3.96846 0.501332 30
    endloop
  endfacet
  facet normal 0 0 1
    outer loop
      vertex 4.18399 1.65656 30
      vertex 3.71911 1.4725 30
      vertex 3.87433 0.994759 30
    endloop
  endfacet
  facet normal 0 0 1
    outer loop
      vertex 3.50523 1.92701 30
      vertex 3.94338 2.16789 30
      vertex 3.64058 2.64503 30
    endloop
  endfacet
  facet normal 0 0 1
    outer loop
      vertex 3.94338 2.16789 30
      vertex 3.50523 1.92701 30
      vertex 3.71911 1.4725 30
    endloop
  endfacet
  facet normal 0 0 1
    outer loop
      vertex 3.23607 2.35114 30
      vertex 3.64058 2.64503 30
      vertex 3.28036 3.08046 30
    endloop
  endfacet
  facet normal 0 0 1
    outer loop
      vertex 3.64058 2.64503 30
      vertex 3.23607 2.35114 30
      vertex 3.50523 1.92701 30
    endloop
  endfacet
  facet normal 0 0 1
    outer loop
      vertex 3.28036 3.08046 30
      vertex 2.91587 2.73819 30
      vertex 3.23607 2.35114 30
    endloop
  endfacet
  facet normal 0 0 1
    outer loop
      vertex 2.86841 3.46731 30
      vertex 2.91587 2.73819 30
      vertex 3.28036 3.08046 30
    endloop
  endfacet
  facet normal 0 0 1
    outer loop
      vertex 2.86841 3.46731 30
      vertex 2.5497 3.08205 30
      vertex 2.91587 2.73819 30
    endloop
  endfacet
  facet normal 0 0 1
    outer loop
      vertex 2.41122 3.79947 30
      vertex 2.5497 3.08205 30
      vertex 2.86841 3.46731 30
    endloop
  endfacet
  facet normal 0 0 1
    outer loop
      vertex 2.41122 3.79947 30
      vertex 2.14331 3.37731 30
      vertex 2.5497 3.08205 30
    endloop
  endfacet
  facet normal 0 0 1
    outer loop
      vertex 1.91601 4.07172 30
      vertex 2.14331 3.37731 30
      vertex 2.41122 3.79947 30
    endloop
  endfacet
  facet normal 0 0 1
    outer loop
      vertex 1.91601 4.07172 30
      vertex 1.70312 3.61931 30
      vertex 2.14331 3.37731 30
    endloop
  endfacet
  facet normal 0 0 1
    outer loop
      vertex 1.39058 4.27975 30
      vertex 1.70312 3.61931 30
      vertex 1.91601 4.07172 30
    endloop
  endfacet
  facet normal 0 0 1
    outer loop
      vertex 1.39058 4.27975 30
      vertex 1.23607 3.80423 30
      vertex 1.70312 3.61931 30
    endloop
  endfacet
  facet normal 0 0 1
    outer loop
      vertex 0.843215 4.42029 30
      vertex 1.23607 3.80423 30
      vertex 1.39058 4.27975 30
    endloop
  endfacet
  facet normal 0 0 1
    outer loop
      vertex 0.843215 4.42029 30
      vertex 0.749525 3.92915 30
      vertex 1.23607 3.80423 30
    endloop
  endfacet
  facet normal 0 0 1
    outer loop
      vertex 0.282557 4.49112 30
      vertex 0.749525 3.92915 30
      vertex 0.843215 4.42029 30
    endloop
  endfacet
  facet normal 0 0 1
    outer loop
      vertex 0.282557 4.49112 30
      vertex 0.251162 3.99211 30
      vertex 0.749525 3.92915 30
    endloop
  endfacet
  facet normal 0 0 1
    outer loop
      vertex 0.282557 4.49112 30
      vertex -0.251162 3.99211 30
      vertex 0.251162 3.99211 30
    endloop
  endfacet
  facet normal -0 0 1
    outer loop
      vertex -0.282557 4.49112 30
      vertex -0.251162 3.99211 30
      vertex 0.282557 4.49112 30
    endloop
  endfacet
  facet normal 0 0 1
    outer loop
      vertex -0.282557 4.49112 30
      vertex -0.749525 3.92915 30
      vertex -0.251162 3.99211 30
    endloop
  endfacet
  facet normal -0 0 1
    outer loop
      vertex -0.843215 4.42029 30
      vertex -0.749525 3.92915 30
      vertex -0.282557 4.49112 30
    endloop
  endfacet
  facet normal 0 0 1
    outer loop
      vertex -0.843215 4.42029 30
      vertex -1.23607 3.80423 30
      vertex -0.749525 3.92915 30
    endloop
  endfacet
  facet normal -0 0 1
    outer loop
      vertex -1.39058 4.27975 30
      vertex -1.23607 3.80423 30
      vertex -0.843215 4.42029 30
    endloop
  endfacet
  facet normal 0 0 1
    outer loop
      vertex -1.39058 4.27975 30
      vertex -1.70312 3.61931 30
      vertex -1.23607 3.80423 30
    endloop
  endfacet
  facet normal -0 0 1
    outer loop
      vertex -1.91601 4.07172 30
      vertex -1.70312 3.61931 30
      vertex -1.39058 4.27975 30
    endloop
  endfacet
  facet normal 0 0 1
    outer loop
      vertex -1.91601 4.07172 30
      vertex -2.14331 3.37731 30
      vertex -1.70312 3.61931 30
    endloop
  endfacet
  facet normal -0 0 1
    outer loop
      vertex -2.41122 3.79947 30
      vertex -2.14331 3.37731 30
      vertex -1.91601 4.07172 30
    endloop
  endfacet
  facet normal 0 0 1
    outer loop
      vertex -2.41122 3.79947 30
      vertex -2.5497 3.08205 30
      vertex -2.14331 3.37731 30
    endloop
  endfacet
  facet normal -0 0 1
    outer loop
      vertex -2.86841 3.46731 30
      vertex -2.5497 3.08205 30
      vertex -2.41122 3.79947 30
    endloop
  endfacet
  facet normal 0 0 1
    outer loop
      vertex -2.86841 3.46731 30
      vertex -2.91587 2.73819 30
      vertex -2.5497 3.08205 30
    endloop
  endfacet
  facet normal -0 0 1
    outer loop
      vertex -3.28036 3.08046 30
      vertex -2.91587 2.73819 30
      vertex -2.86841 3.46731 30
    endloop
  endfacet
  facet normal 0 0 1
    outer loop
      vertex -2.91587 2.73819 30
      vertex -3.28036 3.08046 30
      vertex -3.23607 2.35114 30
    endloop
  endfacet
  facet normal -0 0 1
    outer loop
      vertex -3.64058 2.64503 30
      vertex -3.23607 2.35114 30
      vertex -3.28036 3.08046 30
    endloop
  endfacet
  facet normal 0 0 1
    outer loop
      vertex -3.23607 2.35114 30
      vertex -3.64058 2.64503 30
      vertex -3.50523 1.92701 30
    endloop
  endfacet
  facet normal -0 0 1
    outer loop
      vertex -3.94338 2.16789 30
      vertex -3.50523 1.92701 30
      vertex -3.64058 2.64503 30
    endloop
  endfacet
  facet normal 0 0 1
    outer loop
      vertex -3.50523 1.92701 30
      vertex -3.94338 2.16789 30
      vertex -3.71911 1.4725 30
    endloop
  endfacet
  facet normal -0 0 1
    outer loop
      vertex -4.18399 1.65656 30
      vertex -3.71911 1.4725 30
      vertex -3.94338 2.16789 30
    endloop
  endfacet
  facet normal 0 0 1
    outer loop
      vertex -3.71911 1.4725 30
      vertex -4.18399 1.65656 30
      vertex -3.87433 0.994759 30
    endloop
  endfacet
  facet normal -0 0 1
    outer loop
      vertex -4.35862 1.1191 30
      vertex -3.87433 0.994759 30
      vertex -4.18399 1.65656 30
    endloop
  endfacet
  facet normal 0 0 1
    outer loop
      vertex -3.87433 0.994759 30
      vertex -4.35862 1.1191 30
      vertex -3.96846 0.501332 30
    endloop
  endfacet
  facet normal -0 0 1
    outer loop
      vertex 3.87433 -0.994759 30
      vertex 4.35862 -1.1191 30
      vertex 3.96846 -0.501332 30
    endloop
  endfacet
  facet normal 0 0 1
    outer loop
      vertex 4.35862 -1.1191 30
      vertex 3.87433 -0.994759 30
      vertex 4.18399 -1.65656 30
    endloop
  endfacet
  facet normal -0 0 1
    outer loop
      vertex 3.71911 -1.4725 30
      vertex 4.18399 -1.65656 30
      vertex 3.87433 -0.994759 30
    endloop
  endfacet
  facet normal 0 0 1
    outer loop
      vertex 4.18399 -1.65656 30
      vertex 3.71911 -1.4725 30
      vertex 3.94338 -2.16789 30
    endloop
  endfacet
  facet normal -0 0 1
    outer loop
      vertex 3.50523 -1.92701 30
      vertex 3.94338 -2.16789 30
      vertex 3.71911 -1.4725 30
    endloop
  endfacet
  facet normal 0 0 1
    outer loop
      vertex 3.94338 -2.16789 30
      vertex 3.50523 -1.92701 30
      vertex 3.64058 -2.64503 30
    endloop
  endfacet
  facet normal -0 0 1
    outer loop
      vertex 3.23607 -2.35114 30
      vertex 3.64058 -2.64503 30
      vertex 3.50523 -1.92701 30
    endloop
  endfacet
  facet normal 0 0 1
    outer loop
      vertex 3.64058 -2.64503 30
      vertex 3.23607 -2.35114 30
      vertex 3.28036 -3.08046 30
    endloop
  endfacet
  facet normal -0 0 1
    outer loop
      vertex 2.91587 -2.73819 30
      vertex 3.28036 -3.08046 30
      vertex 3.23607 -2.35114 30
    endloop
  endfacet
  facet normal 0 0 1
    outer loop
      vertex 2.91587 -2.73819 30
      vertex 2.86841 -3.46731 30
      vertex 3.28036 -3.08046 30
    endloop
  endfacet
  facet normal -0 0 1
    outer loop
      vertex 2.5497 -3.08205 30
      vertex 2.86841 -3.46731 30
      vertex 2.91587 -2.73819 30
    endloop
  endfacet
  facet normal 0 0 1
    outer loop
      vertex 2.5497 -3.08205 30
      vertex 2.41122 -3.79947 30
      vertex 2.86841 -3.46731 30
    endloop
  endfacet
  facet normal -0 0 1
    outer loop
      vertex 2.14331 -3.37731 30
      vertex 2.41122 -3.79947 30
      vertex 2.5497 -3.08205 30
    endloop
  endfacet
  facet normal 0 0 1
    outer loop
      vertex 2.14331 -3.37731 30
      vertex 1.91601 -4.07172 30
      vertex 2.41122 -3.79947 30
    endloop
  endfacet
  facet normal -0 0 1
    outer loop
      vertex 1.70312 -3.61931 30
      vertex 1.91601 -4.07172 30
      vertex 2.14331 -3.37731 30
    endloop
  endfacet
  facet normal 0 0 1
    outer loop
      vertex 1.70312 -3.61931 30
      vertex 1.39058 -4.27975 30
      vertex 1.91601 -4.07172 30
    endloop
  endfacet
  facet normal -0 0 1
    outer loop
      vertex 1.23607 -3.80423 30
      vertex 1.39058 -4.27975 30
      vertex 1.70312 -3.61931 30
    endloop
  endfacet
  facet normal 0 0 1
    outer loop
      vertex 1.23607 -3.80423 30
      vertex 0.843215 -4.42029 30
      vertex 1.39058 -4.27975 30
    endloop
  endfacet
  facet normal -0 0 1
    outer loop
      vertex 0.749525 -3.92915 30
      vertex 0.843215 -4.42029 30
      vertex 1.23607 -3.80423 30
    endloop
  endfacet
  facet normal 0 0 1
    outer loop
      vertex 0.749525 -3.92915 30
      vertex 0.282557 -4.49112 30
      vertex 0.843215 -4.42029 30
    endloop
  endfacet
  facet normal -0 0 1
    outer loop
      vertex 0.251162 -3.99211 30
      vertex 0.282557 -4.49112 30
      vertex 0.749525 -3.92915 30
    endloop
  endfacet
  facet normal -0 0 1
    outer loop
      vertex -0.251162 -3.99211 30
      vertex 0.282557 -4.49112 30
      vertex 0.251162 -3.99211 30
    endloop
  endfacet
  facet normal 0 0 1
    outer loop
      vertex -0.251162 -3.99211 30
      vertex -0.282557 -4.49112 30
      vertex 0.282557 -4.49112 30
    endloop
  endfacet
  facet normal 0 0 1
    outer loop
      vertex -0.749525 -3.92915 30
      vertex -0.282557 -4.49112 30
      vertex -0.251162 -3.99211 30
    endloop
  endfacet
  facet normal 0 0 1
    outer loop
      vertex -0.749525 -3.92915 30
      vertex -0.843215 -4.42029 30
      vertex -0.282557 -4.49112 30
    endloop
  endfacet
  facet normal 0 0 1
    outer loop
      vertex -1.23607 -3.80423 30
      vertex -0.843215 -4.42029 30
      vertex -0.749525 -3.92915 30
    endloop
  endfacet
  facet normal 0 0 1
    outer loop
      vertex -1.23607 -3.80423 30
      vertex -1.39058 -4.27975 30
      vertex -0.843215 -4.42029 30
    endloop
  endfacet
  facet normal 0 0 1
    outer loop
      vertex -1.70312 -3.61931 30
      vertex -1.39058 -4.27975 30
      vertex -1.23607 -3.80423 30
    endloop
  endfacet
  facet normal 0 0 1
    outer loop
      vertex -1.70312 -3.61931 30
      vertex -1.91601 -4.07172 30
      vertex -1.39058 -4.27975 30
    endloop
  endfacet
  facet normal 0 0 1
    outer loop
      vertex -2.14331 -3.37731 30
      vertex -1.91601 -4.07172 30
      vertex -1.70312 -3.61931 30
    endloop
  endfacet
  facet normal 0 0 1
    outer loop
      vertex -2.14331 -3.37731 30
      vertex -2.41122 -3.79947 30
      vertex -1.91601 -4.07172 30
    endloop
  endfacet
  facet normal 0 0 1
    outer loop
      vertex -2.5497 -3.08205 30
      vertex -2.41122 -3.79947 30
      vertex -2.14331 -3.37731 30
    endloop
  endfacet
  facet normal 0 0 1
    outer loop
      vertex -2.5497 -3.08205 30
      vertex -2.86841 -3.46731 30
      vertex -2.41122 -3.79947 30
    endloop
  endfacet
  facet normal 0 0 1
    outer loop
      vertex -2.91587 -2.73819 30
      vertex -2.86841 -3.46731 30
      vertex -2.5497 -3.08205 30
    endloop
  endfacet
  facet normal 0 0 1
    outer loop
      vertex -3.28036 -3.08046 30
      vertex -2.91587 -2.73819 30
      vertex -3.23607 -2.35114 30
    endloop
  endfacet
  facet normal 0 0 1
    outer loop
      vertex -2.91587 -2.73819 30
      vertex -3.28036 -3.08046 30
      vertex -2.86841 -3.46731 30
    endloop
  endfacet
  facet normal 0 0 1
    outer loop
      vertex -3.64058 -2.64503 30
      vertex -3.23607 -2.35114 30
      vertex -3.50523 -1.92701 30
    endloop
  endfacet
  facet normal 0 0 1
    outer loop
      vertex -3.23607 -2.35114 30
      vertex -3.64058 -2.64503 30
      vertex -3.28036 -3.08046 30
    endloop
  endfacet
  facet normal 0 0 1
    outer loop
      vertex -3.94338 -2.16789 30
      vertex -3.50523 -1.92701 30
      vertex -3.71911 -1.4725 30
    endloop
  endfacet
  facet normal 0 0 1
    outer loop
      vertex -4.18399 -1.65656 30
      vertex -3.71911 -1.4725 30
      vertex -3.87433 -0.994759 30
    endloop
  endfacet
  facet normal 0 0 1
    outer loop
      vertex -3.50523 -1.92701 30
      vertex -3.94338 -2.16789 30
      vertex -3.64058 -2.64503 30
    endloop
  endfacet
  facet normal 0 0 1
    outer loop
      vertex -4.35862 -1.1191 30
      vertex -3.87433 -0.994759 30
      vertex -3.96846 -0.501332 30
    endloop
  endfacet
  facet normal 0 0 1
    outer loop
      vertex -4.46452 -0.563999 30
      vertex -3.96846 -0.501332 30
      vertex -4 0 30
    endloop
  endfacet
  facet normal -0 0 1
    outer loop
      vertex -4.46452 0.563999 30
      vertex -3.96846 0.501332 30
      vertex -4.35862 1.1191 30
    endloop
  endfacet
  facet normal 0 0 1
    outer loop
      vertex -3.71911 -1.4725 30
      vertex -4.18399 -1.65656 30
      vertex -3.94338 -2.16789 30
    endloop
  endfacet
  facet normal 0 0 1
    outer loop
      vertex -3.96846 0.501332 30
      vertex -4.46452 0.563999 30
      vertex -4 0 30
    endloop
  endfacet
  facet normal 0 0 1
    outer loop
      vertex -3.87433 -0.994759 30
      vertex -4.35862 -1.1191 30
      vertex -4.18399 -1.65656 30
    endloop
  endfacet
  facet normal 0 0 1
    outer loop
      vertex -4.5 0 30
      vertex -4 0 30
      vertex -4.46452 0.563999 30
    endloop
  endfacet
  facet normal 0 0 1
    outer loop
      vertex -3.96846 -0.501332 30
      vertex -4.46452 -0.563999 30
      vertex -4.35862 -1.1191 30
    endloop
  endfacet
  facet normal 0 0 1
    outer loop
      vertex -4 0 30
      vertex -4.5 0 30
      vertex -4.46452 -0.563999 30
    endloop
  endfacet
  facet normal -0.587776 0.809024 0
    outer loop
      vertex -2.41122 3.79947 -30
      vertex -2.86841 3.46731 30
      vertex -2.41122 3.79947 30
    endloop
  endfacet
  facet normal -0.587776 0.809024 0
    outer loop
      vertex -2.86841 3.46731 30
      vertex -2.41122 3.79947 -30
      vertex -2.86841 3.46731 -30
    endloop
  endfacet
  facet normal -0.125337 0.992114 0
    outer loop
      vertex -0.282557 4.49112 -30
      vertex -0.843215 4.42029 30
      vertex -0.282557 4.49112 30
    endloop
  endfacet
  facet normal -0.125337 0.992114 0
    outer loop
      vertex -0.843215 4.42029 30
      vertex -0.282557 4.49112 -30
      vertex -0.843215 4.42029 -30
    endloop
  endfacet
  facet normal 0.998027 -0.0627838 0
    outer loop
      vertex 4.46452 -0.563999 30
      vertex 4.5 0 -30
      vertex 4.5 0 30
    endloop
  endfacet
  facet normal 0.998027 -0.0627838 0
    outer loop
      vertex 4.5 0 -30
      vertex 4.46452 -0.563999 30
      vertex 4.46452 -0.563999 -30
    endloop
  endfacet
  facet normal 0.84433 -0.535824 0
    outer loop
      vertex 3.64058 -2.64503 30
      vertex 3.94338 -2.16789 -30
      vertex 3.94338 -2.16789 30
    endloop
  endfacet
  facet normal 0.84433 -0.535824 0
    outer loop
      vertex 3.94338 -2.16789 -30
      vertex 3.64058 -2.64503 30
      vertex 3.64058 -2.64503 -30
    endloop
  endfacet
  facet normal 0.982284 -0.187396 0
    outer loop
      vertex 4.35862 -1.1191 30
      vertex 4.46452 -0.563999 -30
      vertex 4.46452 -0.563999 30
    endloop
  endfacet
  facet normal 0.982284 -0.187396 0
    outer loop
      vertex 4.46452 -0.563999 -30
      vertex 4.35862 -1.1191 30
      vertex 4.35862 -1.1191 -30
    endloop
  endfacet
  facet normal -0.68455 -0.728966 0
    outer loop
      vertex -3.28036 -3.08046 -30
      vertex -2.86841 -3.46731 30
      vertex -3.28036 -3.08046 30
    endloop
  endfacet
  facet normal -0.68455 -0.728966 -0
    outer loop
      vertex -2.86841 -3.46731 30
      vertex -3.28036 -3.08046 -30
      vertex -2.86841 -3.46731 -30
    endloop
  endfacet
  facet normal -0.90483 -0.425774 0
    outer loop
      vertex -3.94338 -2.16789 -30
      vertex -4.18399 -1.65656 30
      vertex -4.18399 -1.65656 -30
    endloop
  endfacet
  facet normal -0.90483 -0.425774 0
    outer loop
      vertex -4.18399 -1.65656 30
      vertex -3.94338 -2.16789 -30
      vertex -3.94338 -2.16789 30
    endloop
  endfacet
  facet normal -0.84433 -0.535824 0
    outer loop
      vertex -3.64058 -2.64503 -30
      vertex -3.94338 -2.16789 30
      vertex -3.94338 -2.16789 -30
    endloop
  endfacet
  facet normal -0.84433 -0.535824 0
    outer loop
      vertex -3.94338 -2.16789 30
      vertex -3.64058 -2.64503 -30
      vertex -3.64058 -2.64503 30
    endloop
  endfacet
  facet normal 0 0 -1
    outer loop
      vertex 4 0 -30
      vertex 4.5 0 -30
      vertex 4.46452 -0.563999 -30
    endloop
  endfacet
  facet normal 0 0 -1
    outer loop
      vertex 3.96846 -0.501332 -30
      vertex 4.46452 -0.563999 -30
      vertex 4.35862 -1.1191 -30
    endloop
  endfacet
  facet normal 0 0 -1
    outer loop
      vertex 4.5 0 -30
      vertex 4 0 -30
      vertex 4.46452 0.563999 -30
    endloop
  endfacet
  facet normal 0 0 -1
    outer loop
      vertex 3.87433 -0.994759 -30
      vertex 4.35862 -1.1191 -30
      vertex 4.18399 -1.65656 -30
    endloop
  endfacet
  facet normal 0 0 -1
    outer loop
      vertex 3.96846 0.501332 -30
      vertex 4.46452 0.563999 -30
      vertex 4 0 -30
    endloop
  endfacet
  facet normal -0 0 -1
    outer loop
      vertex 4.46452 0.563999 -30
      vertex 3.96846 0.501332 -30
      vertex 4.35862 1.1191 -30
    endloop
  endfacet
  facet normal 0 0 -1
    outer loop
      vertex 4.46452 -0.563999 -30
      vertex 3.96846 -0.501332 -30
      vertex 4 0 -30
    endloop
  endfacet
  facet normal 0 0 -1
    outer loop
      vertex 3.71911 -1.4725 -30
      vertex 4.18399 -1.65656 -30
      vertex 3.94338 -2.16789 -30
    endloop
  endfacet
  facet normal 0 0 -1
    outer loop
      vertex 4.35862 -1.1191 -30
      vertex 3.87433 -0.994759 -30
      vertex 3.96846 -0.501332 -30
    endloop
  endfacet
  facet normal 0 0 -1
    outer loop
      vertex 4.18399 -1.65656 -30
      vertex 3.71911 -1.4725 -30
      vertex 3.87433 -0.994759 -30
    endloop
  endfacet
  facet normal 0 0 -1
    outer loop
      vertex 3.50523 -1.92701 -30
      vertex 3.94338 -2.16789 -30
      vertex 3.64058 -2.64503 -30
    endloop
  endfacet
  facet normal 0 0 -1
    outer loop
      vertex 3.94338 -2.16789 -30
      vertex 3.50523 -1.92701 -30
      vertex 3.71911 -1.4725 -30
    endloop
  endfacet
  facet normal 0 0 -1
    outer loop
      vertex 3.23607 -2.35114 -30
      vertex 3.64058 -2.64503 -30
      vertex 3.28036 -3.08046 -30
    endloop
  endfacet
  facet normal 0 0 -1
    outer loop
      vertex 3.64058 -2.64503 -30
      vertex 3.23607 -2.35114 -30
      vertex 3.50523 -1.92701 -30
    endloop
  endfacet
  facet normal 0 0 -1
    outer loop
      vertex 3.28036 -3.08046 -30
      vertex 2.91587 -2.73819 -30
      vertex 3.23607 -2.35114 -30
    endloop
  endfacet
  facet normal 0 0 -1
    outer loop
      vertex 2.86841 -3.46731 -30
      vertex 2.91587 -2.73819 -30
      vertex 3.28036 -3.08046 -30
    endloop
  endfacet
  facet normal 0 0 -1
    outer loop
      vertex 2.86841 -3.46731 -30
      vertex 2.5497 -3.08205 -30
      vertex 2.91587 -2.73819 -30
    endloop
  endfacet
  facet normal 0 0 -1
    outer loop
      vertex 2.41122 -3.79947 -30
      vertex 2.5497 -3.08205 -30
      vertex 2.86841 -3.46731 -30
    endloop
  endfacet
  facet normal 0 0 -1
    outer loop
      vertex 2.41122 -3.79947 -30
      vertex 2.14331 -3.37731 -30
      vertex 2.5497 -3.08205 -30
    endloop
  endfacet
  facet normal 0 0 -1
    outer loop
      vertex 1.91601 -4.07172 -30
      vertex 2.14331 -3.37731 -30
      vertex 2.41122 -3.79947 -30
    endloop
  endfacet
  facet normal 0 0 -1
    outer loop
      vertex 1.91601 -4.07172 -30
      vertex 1.70312 -3.61931 -30
      vertex 2.14331 -3.37731 -30
    endloop
  endfacet
  facet normal 0 0 -1
    outer loop
      vertex 1.39058 -4.27975 -30
      vertex 1.70312 -3.61931 -30
      vertex 1.91601 -4.07172 -30
    endloop
  endfacet
  facet normal 0 0 -1
    outer loop
      vertex 1.39058 -4.27975 -30
      vertex 1.23607 -3.80423 -30
      vertex 1.70312 -3.61931 -30
    endloop
  endfacet
  facet normal 0 0 -1
    outer loop
      vertex 0.843215 -4.42029 -30
      vertex 1.23607 -3.80423 -30
      vertex 1.39058 -4.27975 -30
    endloop
  endfacet
  facet normal 0 0 -1
    outer loop
      vertex 0.843215 -4.42029 -30
      vertex 0.749525 -3.92915 -30
      vertex 1.23607 -3.80423 -30
    endloop
  endfacet
  facet normal 0 0 -1
    outer loop
      vertex 0.282557 -4.49112 -30
      vertex 0.749525 -3.92915 -30
      vertex 0.843215 -4.42029 -30
    endloop
  endfacet
  facet normal 0 0 -1
    outer loop
      vertex 0.282557 -4.49112 -30
      vertex 0.251162 -3.99211 -30
      vertex 0.749525 -3.92915 -30
    endloop
  endfacet
  facet normal 0 0 -1
    outer loop
      vertex 0.282557 -4.49112 -30
      vertex -0.251162 -3.99211 -30
      vertex 0.251162 -3.99211 -30
    endloop
  endfacet
  facet normal 0 0 -1
    outer loop
      vertex -0.282557 -4.49112 -30
      vertex -0.251162 -3.99211 -30
      vertex 0.282557 -4.49112 -30
    endloop
  endfacet
  facet normal 0 0 -1
    outer loop
      vertex -0.282557 -4.49112 -30
      vertex -0.749525 -3.92915 -30
      vertex -0.251162 -3.99211 -30
    endloop
  endfacet
  facet normal 0 0 -1
    outer loop
      vertex -0.843215 -4.42029 -30
      vertex -0.749525 -3.92915 -30
      vertex -0.282557 -4.49112 -30
    endloop
  endfacet
  facet normal 0 0 -1
    outer loop
      vertex -0.843215 -4.42029 -30
      vertex -1.23607 -3.80423 -30
      vertex -0.749525 -3.92915 -30
    endloop
  endfacet
  facet normal 0 0 -1
    outer loop
      vertex -1.39058 -4.27975 -30
      vertex -1.23607 -3.80423 -30
      vertex -0.843215 -4.42029 -30
    endloop
  endfacet
  facet normal 0 0 -1
    outer loop
      vertex -1.39058 -4.27975 -30
      vertex -1.70312 -3.61931 -30
      vertex -1.23607 -3.80423 -30
    endloop
  endfacet
  facet normal 0 0 -1
    outer loop
      vertex -1.91601 -4.07172 -30
      vertex -1.70312 -3.61931 -30
      vertex -1.39058 -4.27975 -30
    endloop
  endfacet
  facet normal 0 0 -1
    outer loop
      vertex -1.91601 -4.07172 -30
      vertex -2.14331 -3.37731 -30
      vertex -1.70312 -3.61931 -30
    endloop
  endfacet
  facet normal 0 0 -1
    outer loop
      vertex -2.41122 -3.79947 -30
      vertex -2.14331 -3.37731 -30
      vertex -1.91601 -4.07172 -30
    endloop
  endfacet
  facet normal 0 0 -1
    outer loop
      vertex -2.41122 -3.79947 -30
      vertex -2.5497 -3.08205 -30
      vertex -2.14331 -3.37731 -30
    endloop
  endfacet
  facet normal 0 0 -1
    outer loop
      vertex -2.86841 -3.46731 -30
      vertex -2.5497 -3.08205 -30
      vertex -2.41122 -3.79947 -30
    endloop
  endfacet
  facet normal 0 0 -1
    outer loop
      vertex -2.86841 -3.46731 -30
      vertex -2.91587 -2.73819 -30
      vertex -2.5497 -3.08205 -30
    endloop
  endfacet
  facet normal 0 0 -1
    outer loop
      vertex -3.28036 -3.08046 -30
      vertex -2.91587 -2.73819 -30
      vertex -2.86841 -3.46731 -30
    endloop
  endfacet
  facet normal -0 0 -1
    outer loop
      vertex -2.91587 -2.73819 -30
      vertex -3.28036 -3.08046 -30
      vertex -3.23607 -2.35114 -30
    endloop
  endfacet
  facet normal 0 0 -1
    outer loop
      vertex -3.64058 -2.64503 -30
      vertex -3.23607 -2.35114 -30
      vertex -3.28036 -3.08046 -30
    endloop
  endfacet
  facet normal -0 0 -1
    outer loop
      vertex -3.23607 -2.35114 -30
      vertex -3.64058 -2.64503 -30
      vertex -3.50523 -1.92701 -30
    endloop
  endfacet
  facet normal 0 0 -1
    outer loop
      vertex -3.94338 -2.16789 -30
      vertex -3.50523 -1.92701 -30
      vertex -3.64058 -2.64503 -30
    endloop
  endfacet
  facet normal -0 0 -1
    outer loop
      vertex -3.50523 -1.92701 -30
      vertex -3.94338 -2.16789 -30
      vertex -3.71911 -1.4725 -30
    endloop
  endfacet
  facet normal 0 0 -1
    outer loop
      vertex -4.18399 -1.65656 -30
      vertex -3.71911 -1.4725 -30
      vertex -3.94338 -2.16789 -30
    endloop
  endfacet
  facet normal -0 0 -1
    outer loop
      vertex -3.71911 -1.4725 -30
      vertex -4.18399 -1.65656 -30
      vertex -3.87433 -0.994759 -30
    endloop
  endfacet
  facet normal 0 0 -1
    outer loop
      vertex -4.35862 -1.1191 -30
      vertex -3.87433 -0.994759 -30
      vertex -4.18399 -1.65656 -30
    endloop
  endfacet
  facet normal -0 0 -1
    outer loop
      vertex -3.87433 -0.994759 -30
      vertex -4.35862 -1.1191 -30
      vertex -3.96846 -0.501332 -30
    endloop
  endfacet
  facet normal 0 0 -1
    outer loop
      vertex 3.87433 0.994759 -30
      vertex 4.35862 1.1191 -30
      vertex 3.96846 0.501332 -30
    endloop
  endfacet
  facet normal -0 0 -1
    outer loop
      vertex 4.35862 1.1191 -30
      vertex 3.87433 0.994759 -30
      vertex 4.18399 1.65656 -30
    endloop
  endfacet
  facet normal 0 0 -1
    outer loop
      vertex 3.71911 1.4725 -30
      vertex 4.18399 1.65656 -30
      vertex 3.87433 0.994759 -30
    endloop
  endfacet
  facet normal -0 0 -1
    outer loop
      vertex 4.18399 1.65656 -30
      vertex 3.71911 1.4725 -30
      vertex 3.94338 2.16789 -30
    endloop
  endfacet
  facet normal 0 0 -1
    outer loop
      vertex 3.50523 1.92701 -30
      vertex 3.94338 2.16789 -30
      vertex 3.71911 1.4725 -30
    endloop
  endfacet
  facet normal -0 0 -1
    outer loop
      vertex 3.94338 2.16789 -30
      vertex 3.50523 1.92701 -30
      vertex 3.64058 2.64503 -30
    endloop
  endfacet
  facet normal 0 0 -1
    outer loop
      vertex 3.23607 2.35114 -30
      vertex 3.64058 2.64503 -30
      vertex 3.50523 1.92701 -30
    endloop
  endfacet
  facet normal -0 0 -1
    outer loop
      vertex 3.64058 2.64503 -30
      vertex 3.23607 2.35114 -30
      vertex 3.28036 3.08046 -30
    endloop
  endfacet
  facet normal 0 0 -1
    outer loop
      vertex 2.91587 2.73819 -30
      vertex 3.28036 3.08046 -30
      vertex 3.23607 2.35114 -30
    endloop
  endfacet
  facet normal 0 0 -1
    outer loop
      vertex 2.91587 2.73819 -30
      vertex 2.86841 3.46731 -30
      vertex 3.28036 3.08046 -30
    endloop
  endfacet
  facet normal 0 0 -1
    outer loop
      vertex 2.5497 3.08205 -30
      vertex 2.86841 3.46731 -30
      vertex 2.91587 2.73819 -30
    endloop
  endfacet
  facet normal 0 0 -1
    outer loop
      vertex 2.5497 3.08205 -30
      vertex 2.41122 3.79947 -30
      vertex 2.86841 3.46731 -30
    endloop
  endfacet
  facet normal 0 0 -1
    outer loop
      vertex 2.14331 3.37731 -30
      vertex 2.41122 3.79947 -30
      vertex 2.5497 3.08205 -30
    endloop
  endfacet
  facet normal 0 0 -1
    outer loop
      vertex 2.14331 3.37731 -30
      vertex 1.91601 4.07172 -30
      vertex 2.41122 3.79947 -30
    endloop
  endfacet
  facet normal 0 0 -1
    outer loop
      vertex 1.70312 3.61931 -30
      vertex 1.91601 4.07172 -30
      vertex 2.14331 3.37731 -30
    endloop
  endfacet
  facet normal 0 0 -1
    outer loop
      vertex 1.70312 3.61931 -30
      vertex 1.39058 4.27975 -30
      vertex 1.91601 4.07172 -30
    endloop
  endfacet
  facet normal 0 0 -1
    outer loop
      vertex 1.23607 3.80423 -30
      vertex 1.39058 4.27975 -30
      vertex 1.70312 3.61931 -30
    endloop
  endfacet
  facet normal 0 0 -1
    outer loop
      vertex 1.23607 3.80423 -30
      vertex 0.843215 4.42029 -30
      vertex 1.39058 4.27975 -30
    endloop
  endfacet
  facet normal 0 0 -1
    outer loop
      vertex 0.749525 3.92915 -30
      vertex 0.843215 4.42029 -30
      vertex 1.23607 3.80423 -30
    endloop
  endfacet
  facet normal 0 0 -1
    outer loop
      vertex 0.749525 3.92915 -30
      vertex 0.282557 4.49112 -30
      vertex 0.843215 4.42029 -30
    endloop
  endfacet
  facet normal 0 0 -1
    outer loop
      vertex 0.251162 3.99211 -30
      vertex 0.282557 4.49112 -30
      vertex 0.749525 3.92915 -30
    endloop
  endfacet
  facet normal 0 0 -1
    outer loop
      vertex -0.251162 3.99211 -30
      vertex 0.282557 4.49112 -30
      vertex 0.251162 3.99211 -30
    endloop
  endfacet
  facet normal 0 0 -1
    outer loop
      vertex -0.251162 3.99211 -30
      vertex -0.282557 4.49112 -30
      vertex 0.282557 4.49112 -30
    endloop
  endfacet
  facet normal 0 0 -1
    outer loop
      vertex -0.749525 3.92915 -30
      vertex -0.282557 4.49112 -30
      vertex -0.251162 3.99211 -30
    endloop
  endfacet
  facet normal 0 0 -1
    outer loop
      vertex -0.749525 3.92915 -30
      vertex -0.843215 4.42029 -30
      vertex -0.282557 4.49112 -30
    endloop
  endfacet
  facet normal 0 0 -1
    outer loop
      vertex -1.23607 3.80423 -30
      vertex -0.843215 4.42029 -30
      vertex -0.749525 3.92915 -30
    endloop
  endfacet
  facet normal 0 0 -1
    outer loop
      vertex -1.23607 3.80423 -30
      vertex -1.39058 4.27975 -30
      vertex -0.843215 4.42029 -30
    endloop
  endfacet
  facet normal 0 0 -1
    outer loop
      vertex -1.70312 3.61931 -30
      vertex -1.39058 4.27975 -30
      vertex -1.23607 3.80423 -30
    endloop
  endfacet
  facet normal 0 0 -1
    outer loop
      vertex -1.70312 3.61931 -30
      vertex -1.91601 4.07172 -30
      vertex -1.39058 4.27975 -30
    endloop
  endfacet
  facet normal 0 0 -1
    outer loop
      vertex -2.14331 3.37731 -30
      vertex -1.91601 4.07172 -30
      vertex -1.70312 3.61931 -30
    endloop
  endfacet
  facet normal 0 0 -1
    outer loop
      vertex -2.14331 3.37731 -30
      vertex -2.41122 3.79947 -30
      vertex -1.91601 4.07172 -30
    endloop
  endfacet
  facet normal 0 0 -1
    outer loop
      vertex -2.5497 3.08205 -30
      vertex -2.41122 3.79947 -30
      vertex -2.14331 3.37731 -30
    endloop
  endfacet
  facet normal 0 0 -1
    outer loop
      vertex -2.5497 3.08205 -30
      vertex -2.86841 3.46731 -30
      vertex -2.41122 3.79947 -30
    endloop
  endfacet
  facet normal 0 0 -1
    outer loop
      vertex -2.91587 2.73819 -30
      vertex -2.86841 3.46731 -30
      vertex -2.5497 3.08205 -30
    endloop
  endfacet
  facet normal 0 0 -1
    outer loop
      vertex -3.28036 3.08046 -30
      vertex -2.91587 2.73819 -30
      vertex -3.23607 2.35114 -30
    endloop
  endfacet
  facet normal 0 0 -1
    outer loop
      vertex -2.91587 2.73819 -30
      vertex -3.28036 3.08046 -30
      vertex -2.86841 3.46731 -30
    endloop
  endfacet
  facet normal 0 0 -1
    outer loop
      vertex -3.64058 2.64503 -30
      vertex -3.23607 2.35114 -30
      vertex -3.50523 1.92701 -30
    endloop
  endfacet
  facet normal 0 0 -1
    outer loop
      vertex -3.23607 2.35114 -30
      vertex -3.64058 2.64503 -30
      vertex -3.28036 3.08046 -30
    endloop
  endfacet
  facet normal 0 0 -1
    outer loop
      vertex -3.94338 2.16789 -30
      vertex -3.50523 1.92701 -30
      vertex -3.71911 1.4725 -30
    endloop
  endfacet
  facet normal 0 0 -1
    outer loop
      vertex -4.18399 1.65656 -30
      vertex -3.71911 1.4725 -30
      vertex -3.87433 0.994759 -30
    endloop
  endfacet
  facet normal 0 0 -1
    outer loop
      vertex -3.50523 1.92701 -30
      vertex -3.94338 2.16789 -30
      vertex -3.64058 2.64503 -30
    endloop
  endfacet
  facet normal 0 0 -1
    outer loop
      vertex -4.35862 1.1191 -30
      vertex -3.87433 0.994759 -30
      vertex -3.96846 0.501332 -30
    endloop
  endfacet
  facet normal 0 0 -1
    outer loop
      vertex -4.46452 0.563999 -30
      vertex -3.96846 0.501332 -30
      vertex -4 0 -30
    endloop
  endfacet
  facet normal 0 0 -1
    outer loop
      vertex -4.46452 -0.563999 -30
      vertex -3.96846 -0.501332 -30
      vertex -4.35862 -1.1191 -30
    endloop
  endfacet
  facet normal 0 0 -1
    outer loop
      vertex -3.71911 1.4725 -30
      vertex -4.18399 1.65656 -30
      vertex -3.94338 2.16789 -30
    endloop
  endfacet
  facet normal -0 0 -1
    outer loop
      vertex -3.96846 -0.501332 -30
      vertex -4.46452 -0.563999 -30
      vertex -4 0 -30
    endloop
  endfacet
  facet normal 0 0 -1
    outer loop
      vertex -3.87433 0.994759 -30
      vertex -4.35862 1.1191 -30
      vertex -4.18399 1.65656 -30
    endloop
  endfacet
  facet normal 0 0 -1
    outer loop
      vertex -4.5 0 -30
      vertex -4 0 -30
      vertex -4.46452 -0.563999 -30
    endloop
  endfacet
  facet normal 0 0 -1
    outer loop
      vertex -3.96846 0.501332 -30
      vertex -4.46452 0.563999 -30
      vertex -4.35862 1.1191 -30
    endloop
  endfacet
  facet normal 0 0 -1
    outer loop
      vertex -4 0 -30
      vertex -4.5 0 -30
      vertex -4.46452 0.563999 -30
    endloop
  endfacet
  facet normal 0.125337 -0.992114 0
    outer loop
      vertex 0.282557 -4.49112 -30
      vertex 0.843215 -4.42029 30
      vertex 0.282557 -4.49112 30
    endloop
  endfacet
  facet normal 0.125337 -0.992114 0
    outer loop
      vertex 0.843215 -4.42029 30
      vertex 0.282557 -4.49112 -30
      vertex 0.843215 -4.42029 -30
    endloop
  endfacet
  facet normal 0.587776 -0.809024 0
    outer loop
      vertex 2.41122 -3.79947 -30
      vertex 2.86841 -3.46731 30
      vertex 2.41122 -3.79947 30
    endloop
  endfacet
  facet normal 0.587776 -0.809024 0
    outer loop
      vertex 2.86841 -3.46731 30
      vertex 2.41122 -3.79947 -30
      vertex 2.86841 -3.46731 -30
    endloop
  endfacet
  facet normal 0.90483 -0.425774 0
    outer loop
      vertex 3.94338 -2.16789 30
      vertex 4.18399 -1.65656 -30
      vertex 4.18399 -1.65656 30
    endloop
  endfacet
  facet normal 0.90483 -0.425774 0
    outer loop
      vertex 4.18399 -1.65656 -30
      vertex 3.94338 -2.16789 30
      vertex 3.94338 -2.16789 -30
    endloop
  endfacet
  facet normal -0.248691 -0.968583 0
    outer loop
      vertex -1.39058 -4.27975 -30
      vertex -0.843215 -4.42029 30
      vertex -1.39058 -4.27975 30
    endloop
  endfacet
  facet normal -0.248691 -0.968583 -0
    outer loop
      vertex -0.843215 -4.42029 30
      vertex -1.39058 -4.27975 -30
      vertex -0.843215 -4.42029 -30
    endloop
  endfacet
  facet normal -0.770512 -0.637425 0
    outer loop
      vertex -3.28036 -3.08046 -30
      vertex -3.64058 -2.64503 30
      vertex -3.64058 -2.64503 -30
    endloop
  endfacet
  facet normal -0.770512 -0.637425 0
    outer loop
      vertex -3.64058 -2.64503 30
      vertex -3.28036 -3.08046 -30
      vertex -3.28036 -3.08046 30
    endloop
  endfacet
  facet normal -0.951057 -0.309015 0
    outer loop
      vertex -4.18399 -1.65656 -30
      vertex -4.35862 -1.1191 30
      vertex -4.35862 -1.1191 -30
    endloop
  endfacet
  facet normal -0.951057 -0.309015 0
    outer loop
      vertex -4.35862 -1.1191 30
      vertex -4.18399 -1.65656 -30
      vertex -4.18399 -1.65656 30
    endloop
  endfacet
  facet normal 0.770512 -0.637425 0
    outer loop
      vertex 3.28036 -3.08046 30
      vertex 3.64058 -2.64503 -30
      vertex 3.64058 -2.64503 30
    endloop
  endfacet
  facet normal 0.770512 -0.637425 0
    outer loop
      vertex 3.64058 -2.64503 -30
      vertex 3.28036 -3.08046 30
      vertex 3.28036 -3.08046 -30
    endloop
  endfacet
  facet normal 0.481762 -0.876302 0
    outer loop
      vertex 1.91601 -4.07172 -30
      vertex 2.41122 -3.79947 30
      vertex 1.91601 -4.07172 30
    endloop
  endfacet
  facet normal 0.481762 -0.876302 0
    outer loop
      vertex 2.41122 -3.79947 30
      vertex 1.91601 -4.07172 -30
      vertex 2.41122 -3.79947 -30
    endloop
  endfacet
  facet normal -0.125337 -0.992114 0
    outer loop
      vertex -0.843215 -4.42029 -30
      vertex -0.282557 -4.49112 30
      vertex -0.843215 -4.42029 30
    endloop
  endfacet
  facet normal -0.125337 -0.992114 -0
    outer loop
      vertex -0.282557 -4.49112 30
      vertex -0.843215 -4.42029 -30
      vertex -0.282557 -4.49112 -30
    endloop
  endfacet
  facet normal -0.368121 -0.929778 0
    outer loop
      vertex -1.91601 -4.07172 -30
      vertex -1.39058 -4.27975 30
      vertex -1.91601 -4.07172 30
    endloop
  endfacet
  facet normal -0.368121 -0.929778 -0
    outer loop
      vertex -1.39058 -4.27975 30
      vertex -1.91601 -4.07172 -30
      vertex -1.39058 -4.27975 -30
    endloop
  endfacet
  facet normal -0.982284 -0.187396 0
    outer loop
      vertex -4.35862 -1.1191 -30
      vertex -4.46452 -0.563999 30
      vertex -4.46452 -0.563999 -30
    endloop
  endfacet
  facet normal -0.982284 -0.187396 0
    outer loop
      vertex -4.46452 -0.563999 30
      vertex -4.35862 -1.1191 -30
      vertex -4.35862 -1.1191 30
    endloop
  endfacet
  facet normal -0.998027 -0.0627838 0
    outer loop
      vertex -4.46452 -0.563999 -30
      vertex -4.5 0 30
      vertex -4.5 0 -30
    endloop
  endfacet
  facet normal -0.998027 -0.0627838 0
    outer loop
      vertex -4.5 0 30
      vertex -4.46452 -0.563999 -30
      vertex -4.46452 -0.563999 30
    endloop
  endfacet
  facet normal 0.68455 -0.728966 0
    outer loop
      vertex 2.86841 -3.46731 -30
      vertex 3.28036 -3.08046 30
      vertex 2.86841 -3.46731 30
    endloop
  endfacet
  facet normal 0.68455 -0.728966 0
    outer loop
      vertex 3.28036 -3.08046 30
      vertex 2.86841 -3.46731 -30
      vertex 3.28036 -3.08046 -30
    endloop
  endfacet
  facet normal 0.248691 -0.968583 0
    outer loop
      vertex 0.843215 -4.42029 -30
      vertex 1.39058 -4.27975 30
      vertex 0.843215 -4.42029 30
    endloop
  endfacet
  facet normal 0.248691 -0.968583 0
    outer loop
      vertex 1.39058 -4.27975 30
      vertex 0.843215 -4.42029 -30
      vertex 1.39058 -4.27975 -30
    endloop
  endfacet
  facet normal -0.481762 -0.876302 0
    outer loop
      vertex -2.41122 -3.79947 -30
      vertex -1.91601 -4.07172 30
      vertex -2.41122 -3.79947 30
    endloop
  endfacet
  facet normal -0.481762 -0.876302 -0
    outer loop
      vertex -1.91601 -4.07172 30
      vertex -2.41122 -3.79947 -30
      vertex -1.91601 -4.07172 -30
    endloop
  endfacet
  facet normal -0.587776 -0.809024 0
    outer loop
      vertex -2.86841 -3.46731 -30
      vertex -2.41122 -3.79947 30
      vertex -2.86841 -3.46731 30
    endloop
  endfacet
  facet normal -0.587776 -0.809024 -0
    outer loop
      vertex -2.41122 -3.79947 30
      vertex -2.86841 -3.46731 -30
      vertex -2.41122 -3.79947 -30
    endloop
  endfacet
  facet normal -0.998027 -0.0627883 0
    outer loop
      vertex 4 0 -30
      vertex 3.96846 0.501332 30
      vertex 3.96846 0.501332 -30
    endloop
  endfacet
  facet normal -0.998027 -0.0627883 0
    outer loop
      vertex 3.96846 0.501332 30
      vertex 4 0 -30
      vertex 4 0 30
    endloop
  endfacet
  facet normal 0.998027 -0.0627883 0
    outer loop
      vertex -4 0 30
      vertex -3.96846 0.501332 -30
      vertex -3.96846 0.501332 30
    endloop
  endfacet
  facet normal 0.998027 -0.0627883 0
    outer loop
      vertex -3.96846 0.501332 -30
      vertex -4 0 30
      vertex -4 0 -30
    endloop
  endfacet
  facet normal 0 -1 0
    outer loop
      vertex -0.251162 3.99211 -30
      vertex 0.251162 3.99211 30
      vertex -0.251162 3.99211 30
    endloop
  endfacet
  facet normal 0 -1 -0
    outer loop
      vertex 0.251162 3.99211 30
      vertex -0.251162 3.99211 -30
      vertex 0.251162 3.99211 -30
    endloop
  endfacet
  facet normal 0 1 -0
    outer loop
      vertex 0.251162 -3.99211 -30
      vertex -0.251162 -3.99211 30
      vertex 0.251162 -3.99211 30
    endloop
  endfacet
  facet normal 0 1 0
    outer loop
      vertex -0.251162 -3.99211 30
      vertex 0.251162 -3.99211 -30
      vertex -0.251162 -3.99211 -30
    endloop
  endfacet
  facet normal -0.684551 -0.728965 0
    outer loop
      vertex 2.5497 3.08205 -30
      vertex 2.91587 2.73819 30
      vertex 2.5497 3.08205 30
    endloop
  endfacet
  facet normal -0.684551 -0.728965 -0
    outer loop
      vertex 2.91587 2.73819 30
      vertex 2.5497 3.08205 -30
      vertex 2.91587 2.73819 -30
    endloop
  endfacet
  facet normal 0.684551 -0.728965 0
    outer loop
      vertex -2.91587 2.73819 -30
      vertex -2.5497 3.08205 30
      vertex -2.91587 2.73819 30
    endloop
  endfacet
  facet normal 0.684551 -0.728965 0
    outer loop
      vertex -2.5497 3.08205 30
      vertex -2.91587 2.73819 -30
      vertex -2.5497 3.08205 -30
    endloop
  endfacet
  facet normal 0.368128 -0.929775 0
    outer loop
      vertex -1.70312 3.61931 -30
      vertex -1.23607 3.80423 30
      vertex -1.70312 3.61931 30
    endloop
  endfacet
  facet normal 0.368128 -0.929775 0
    outer loop
      vertex -1.23607 3.80423 30
      vertex -1.70312 3.61931 -30
      vertex -1.23607 3.80423 -30
    endloop
  endfacet
  facet normal -0.904824 0.425786 0
    outer loop
      vertex 3.50523 -1.92701 -30
      vertex 3.71911 -1.4725 30
      vertex 3.71911 -1.4725 -30
    endloop
  endfacet
  facet normal -0.904824 0.425786 0
    outer loop
      vertex 3.71911 -1.4725 30
      vertex 3.50523 -1.92701 -30
      vertex 3.50523 -1.92701 30
    endloop
  endfacet
  facet normal -0.904824 -0.425786 0
    outer loop
      vertex 3.71911 1.4725 -30
      vertex 3.50523 1.92701 30
      vertex 3.50523 1.92701 -30
    endloop
  endfacet
  facet normal -0.904824 -0.425786 0
    outer loop
      vertex 3.50523 1.92701 30
      vertex 3.71911 1.4725 -30
      vertex 3.71911 1.4725 30
    endloop
  endfacet
  facet normal -0.844329 -0.535825 0
    outer loop
      vertex 3.50523 1.92701 -30
      vertex 3.23607 2.35114 30
      vertex 3.23607 2.35114 -30
    endloop
  endfacet
  facet normal -0.844329 -0.535825 0
    outer loop
      vertex 3.23607 2.35114 30
      vertex 3.50523 1.92701 -30
      vertex 3.50523 1.92701 30
    endloop
  endfacet
  facet normal -0.368128 -0.929775 0
    outer loop
      vertex 1.23607 3.80423 -30
      vertex 1.70312 3.61931 30
      vertex 1.23607 3.80423 30
    endloop
  endfacet
  facet normal -0.368128 -0.929775 -0
    outer loop
      vertex 1.70312 3.61931 30
      vertex 1.23607 3.80423 -30
      vertex 1.70312 3.61931 -30
    endloop
  endfacet
  facet normal -0.248683 -0.968585 0
    outer loop
      vertex 0.749525 3.92915 -30
      vertex 1.23607 3.80423 30
      vertex 0.749525 3.92915 30
    endloop
  endfacet
  facet normal -0.248683 -0.968585 -0
    outer loop
      vertex 1.23607 3.80423 30
      vertex 0.749525 3.92915 -30
      vertex 1.23607 3.80423 -30
    endloop
  endfacet
  facet normal -0.587786 -0.809017 0
    outer loop
      vertex 2.14331 3.37731 -30
      vertex 2.5497 3.08205 30
      vertex 2.14331 3.37731 30
    endloop
  endfacet
  facet normal -0.587786 -0.809017 -0
    outer loop
      vertex 2.5497 3.08205 30
      vertex 2.14331 3.37731 -30
      vertex 2.5497 3.08205 -30
    endloop
  endfacet
  facet normal 0.904824 -0.425786 0
    outer loop
      vertex -3.71911 1.4725 30
      vertex -3.50523 1.92701 -30
      vertex -3.50523 1.92701 30
    endloop
  endfacet
  facet normal 0.904824 -0.425786 0
    outer loop
      vertex -3.50523 1.92701 -30
      vertex -3.71911 1.4725 30
      vertex -3.71911 1.4725 -30
    endloop
  endfacet
  facet normal 0.770509 -0.637429 0
    outer loop
      vertex -3.23607 2.35114 30
      vertex -2.91587 2.73819 -30
      vertex -2.91587 2.73819 30
    endloop
  endfacet
  facet normal 0.770509 -0.637429 0
    outer loop
      vertex -2.91587 2.73819 -30
      vertex -3.23607 2.35114 30
      vertex -3.23607 2.35114 -30
    endloop
  endfacet
  facet normal 0.951061 -0.309004 0
    outer loop
      vertex -3.87433 0.994759 30
      vertex -3.71911 1.4725 -30
      vertex -3.71911 1.4725 30
    endloop
  endfacet
  facet normal 0.951061 -0.309004 0
    outer loop
      vertex -3.71911 1.4725 -30
      vertex -3.87433 0.994759 30
      vertex -3.87433 0.994759 -30
    endloop
  endfacet
  facet normal 0.481759 -0.876304 0
    outer loop
      vertex -2.14331 3.37731 -30
      vertex -1.70312 3.61931 30
      vertex -2.14331 3.37731 30
    endloop
  endfacet
  facet normal 0.481759 -0.876304 0
    outer loop
      vertex -1.70312 3.61931 30
      vertex -2.14331 3.37731 -30
      vertex -1.70312 3.61931 -30
    endloop
  endfacet
  facet normal 0.248683 -0.968585 0
    outer loop
      vertex -1.23607 3.80423 -30
      vertex -0.749525 3.92915 30
      vertex -1.23607 3.80423 30
    endloop
  endfacet
  facet normal 0.248683 -0.968585 0
    outer loop
      vertex -0.749525 3.92915 30
      vertex -1.23607 3.80423 -30
      vertex -0.749525 3.92915 -30
    endloop
  endfacet
  facet normal -0.125337 0.992114 0
    outer loop
      vertex 0.749525 -3.92915 -30
      vertex 0.251162 -3.99211 30
      vertex 0.749525 -3.92915 30
    endloop
  endfacet
  facet normal -0.125337 0.992114 0
    outer loop
      vertex 0.251162 -3.99211 30
      vertex 0.749525 -3.92915 -30
      vertex 0.251162 -3.99211 -30
    endloop
  endfacet
  facet normal -0.368128 0.929775 0
    outer loop
      vertex 1.70312 -3.61931 -30
      vertex 1.23607 -3.80423 30
      vertex 1.70312 -3.61931 30
    endloop
  endfacet
  facet normal -0.368128 0.929775 0
    outer loop
      vertex 1.23607 -3.80423 30
      vertex 1.70312 -3.61931 -30
      vertex 1.23607 -3.80423 -30
    endloop
  endfacet
  facet normal -0.951061 -0.309004 0
    outer loop
      vertex 3.87433 0.994759 -30
      vertex 3.71911 1.4725 30
      vertex 3.71911 1.4725 -30
    endloop
  endfacet
  facet normal -0.951061 -0.309004 0
    outer loop
      vertex 3.71911 1.4725 30
      vertex 3.87433 0.994759 -30
      vertex 3.87433 0.994759 30
    endloop
  endfacet
  facet normal -0.982286 -0.187389 0
    outer loop
      vertex 3.96846 0.501332 -30
      vertex 3.87433 0.994759 30
      vertex 3.87433 0.994759 -30
    endloop
  endfacet
  facet normal -0.982286 -0.187389 0
    outer loop
      vertex 3.87433 0.994759 30
      vertex 3.96846 0.501332 -30
      vertex 3.96846 0.501332 30
    endloop
  endfacet
  facet normal -0.770509 -0.637429 0
    outer loop
      vertex 3.23607 2.35114 -30
      vertex 2.91587 2.73819 30
      vertex 2.91587 2.73819 -30
    endloop
  endfacet
  facet normal -0.770509 -0.637429 0
    outer loop
      vertex 2.91587 2.73819 30
      vertex 3.23607 2.35114 -30
      vertex 3.23607 2.35114 30
    endloop
  endfacet
  facet normal -0.125337 -0.992114 0
    outer loop
      vertex 0.251162 3.99211 -30
      vertex 0.749525 3.92915 30
      vertex 0.251162 3.99211 30
    endloop
  endfacet
  facet normal -0.125337 -0.992114 -0
    outer loop
      vertex 0.749525 3.92915 30
      vertex 0.251162 3.99211 -30
      vertex 0.749525 3.92915 -30
    endloop
  endfacet
  facet normal -0.481759 -0.876304 0
    outer loop
      vertex 1.70312 3.61931 -30
      vertex 2.14331 3.37731 30
      vertex 1.70312 3.61931 30
    endloop
  endfacet
  facet normal -0.481759 -0.876304 -0
    outer loop
      vertex 2.14331 3.37731 30
      vertex 1.70312 3.61931 -30
      vertex 2.14331 3.37731 -30
    endloop
  endfacet
  facet normal 0.844329 -0.535825 0
    outer loop
      vertex -3.50523 1.92701 30
      vertex -3.23607 2.35114 -30
      vertex -3.23607 2.35114 30
    endloop
  endfacet
  facet normal 0.844329 -0.535825 0
    outer loop
      vertex -3.23607 2.35114 -30
      vertex -3.50523 1.92701 30
      vertex -3.50523 1.92701 -30
    endloop
  endfacet
  facet normal 0.982286 -0.187389 0
    outer loop
      vertex -3.96846 0.501332 30
      vertex -3.87433 0.994759 -30
      vertex -3.87433 0.994759 30
    endloop
  endfacet
  facet normal 0.982286 -0.187389 0
    outer loop
      vertex -3.87433 0.994759 -30
      vertex -3.96846 0.501332 30
      vertex -3.96846 0.501332 -30
    endloop
  endfacet
  facet normal 0.587786 -0.809017 0
    outer loop
      vertex -2.5497 3.08205 -30
      vertex -2.14331 3.37731 30
      vertex -2.5497 3.08205 30
    endloop
  endfacet
  facet normal 0.587786 -0.809017 0
    outer loop
      vertex -2.14331 3.37731 30
      vertex -2.5497 3.08205 -30
      vertex -2.14331 3.37731 -30
    endloop
  endfacet
  facet normal 0.125337 -0.992114 0
    outer loop
      vertex -0.749525 3.92915 -30
      vertex -0.251162 3.99211 30
      vertex -0.749525 3.92915 30
    endloop
  endfacet
  facet normal 0.125337 -0.992114 0
    outer loop
      vertex -0.251162 3.99211 30
      vertex -0.749525 3.92915 -30
      vertex -0.251162 3.99211 -30
    endloop
  endfacet
  facet normal -0.998027 0.0627883 0
    outer loop
      vertex 3.96846 -0.501332 -30
      vertex 4 0 30
      vertex 4 0 -30
    endloop
  endfacet
  facet normal -0.998027 0.0627883 0
    outer loop
      vertex 4 0 30
      vertex 3.96846 -0.501332 -30
      vertex 3.96846 -0.501332 30
    endloop
  endfacet
  facet normal -0.770509 0.637429 0
    outer loop
      vertex 2.91587 -2.73819 -30
      vertex 3.23607 -2.35114 30
      vertex 3.23607 -2.35114 -30
    endloop
  endfacet
  facet normal -0.770509 0.637429 0
    outer loop
      vertex 3.23607 -2.35114 30
      vertex 2.91587 -2.73819 -30
      vertex 2.91587 -2.73819 30
    endloop
  endfacet
  facet normal -0.951061 0.309004 0
    outer loop
      vertex 3.71911 -1.4725 -30
      vertex 3.87433 -0.994759 30
      vertex 3.87433 -0.994759 -30
    endloop
  endfacet
  facet normal -0.951061 0.309004 0
    outer loop
      vertex 3.87433 -0.994759 30
      vertex 3.71911 -1.4725 -30
      vertex 3.71911 -1.4725 30
    endloop
  endfacet
  facet normal -0.982286 0.187389 0
    outer loop
      vertex 3.87433 -0.994759 -30
      vertex 3.96846 -0.501332 30
      vertex 3.96846 -0.501332 -30
    endloop
  endfacet
  facet normal -0.982286 0.187389 0
    outer loop
      vertex 3.96846 -0.501332 30
      vertex 3.87433 -0.994759 -30
      vertex 3.87433 -0.994759 30
    endloop
  endfacet
  facet normal 0.770509 0.637429 0
    outer loop
      vertex -2.91587 -2.73819 30
      vertex -3.23607 -2.35114 -30
      vertex -3.23607 -2.35114 30
    endloop
  endfacet
  facet normal 0.770509 0.637429 0
    outer loop
      vertex -3.23607 -2.35114 -30
      vertex -2.91587 -2.73819 30
      vertex -2.91587 -2.73819 -30
    endloop
  endfacet
  facet normal -0.844329 0.535825 0
    outer loop
      vertex 3.23607 -2.35114 -30
      vertex 3.50523 -1.92701 30
      vertex 3.50523 -1.92701 -30
    endloop
  endfacet
  facet normal -0.844329 0.535825 0
    outer loop
      vertex 3.50523 -1.92701 30
      vertex 3.23607 -2.35114 -30
      vertex 3.23607 -2.35114 30
    endloop
  endfacet
  facet normal 0.248683 0.968585 -0
    outer loop
      vertex -0.749525 -3.92915 -30
      vertex -1.23607 -3.80423 30
      vertex -0.749525 -3.92915 30
    endloop
  endfacet
  facet normal 0.248683 0.968585 0
    outer loop
      vertex -1.23607 -3.80423 30
      vertex -0.749525 -3.92915 -30
      vertex -1.23607 -3.80423 -30
    endloop
  endfacet
  facet normal 0.951061 0.309004 0
    outer loop
      vertex -3.71911 -1.4725 30
      vertex -3.87433 -0.994759 -30
      vertex -3.87433 -0.994759 30
    endloop
  endfacet
  facet normal 0.951061 0.309004 0
    outer loop
      vertex -3.87433 -0.994759 -30
      vertex -3.71911 -1.4725 30
      vertex -3.71911 -1.4725 -30
    endloop
  endfacet
  facet normal 0.998027 0.0627883 0
    outer loop
      vertex -3.96846 -0.501332 30
      vertex -4 0 -30
      vertex -4 0 30
    endloop
  endfacet
  facet normal 0.998027 0.0627883 0
    outer loop
      vertex -4 0 -30
      vertex -3.96846 -0.501332 30
      vertex -3.96846 -0.501332 -30
    endloop
  endfacet
  facet normal -0.248683 0.968585 0
    outer loop
      vertex 1.23607 -3.80423 -30
      vertex 0.749525 -3.92915 30
      vertex 1.23607 -3.80423 30
    endloop
  endfacet
  facet normal -0.248683 0.968585 0
    outer loop
      vertex 0.749525 -3.92915 30
      vertex 1.23607 -3.80423 -30
      vertex 0.749525 -3.92915 -30
    endloop
  endfacet
  facet normal -0.684551 0.728965 0
    outer loop
      vertex 2.91587 -2.73819 -30
      vertex 2.5497 -3.08205 30
      vertex 2.91587 -2.73819 30
    endloop
  endfacet
  facet normal -0.684551 0.728965 0
    outer loop
      vertex 2.5497 -3.08205 30
      vertex 2.91587 -2.73819 -30
      vertex 2.5497 -3.08205 -30
    endloop
  endfacet
  facet normal -0.587786 0.809017 0
    outer loop
      vertex 2.5497 -3.08205 -30
      vertex 2.14331 -3.37731 30
      vertex 2.5497 -3.08205 30
    endloop
  endfacet
  facet normal -0.587786 0.809017 0
    outer loop
      vertex 2.14331 -3.37731 30
      vertex 2.5497 -3.08205 -30
      vertex 2.14331 -3.37731 -30
    endloop
  endfacet
  facet normal -0.481759 0.876304 0
    outer loop
      vertex 2.14331 -3.37731 -30
      vertex 1.70312 -3.61931 30
      vertex 2.14331 -3.37731 30
    endloop
  endfacet
  facet normal -0.481759 0.876304 0
    outer loop
      vertex 1.70312 -3.61931 30
      vertex 2.14331 -3.37731 -30
      vertex 1.70312 -3.61931 -30
    endloop
  endfacet
  facet normal 0.125337 0.992114 -0
    outer loop
      vertex -0.251162 -3.99211 -30
      vertex -0.749525 -3.92915 30
      vertex -0.251162 -3.99211 30
    endloop
  endfacet
  facet normal 0.125337 0.992114 0
    outer loop
      vertex -0.749525 -3.92915 30
      vertex -0.251162 -3.99211 -30
      vertex -0.749525 -3.92915 -30
    endloop
  endfacet
  facet normal 0.368128 0.929775 -0
    outer loop
      vertex -1.23607 -3.80423 -30
      vertex -1.70312 -3.61931 30
      vertex -1.23607 -3.80423 30
    endloop
  endfacet
  facet normal 0.368128 0.929775 0
    outer loop
      vertex -1.70312 -3.61931 30
      vertex -1.23607 -3.80423 -30
      vertex -1.70312 -3.61931 -30
    endloop
  endfacet
  facet normal 0.844329 0.535825 0
    outer loop
      vertex -3.23607 -2.35114 30
      vertex -3.50523 -1.92701 -30
      vertex -3.50523 -1.92701 30
    endloop
  endfacet
  facet normal 0.844329 0.535825 0
    outer loop
      vertex -3.50523 -1.92701 -30
      vertex -3.23607 -2.35114 30
      vertex -3.23607 -2.35114 -30
    endloop
  endfacet
  facet normal 0.904824 0.425786 0
    outer loop
      vertex -3.50523 -1.92701 30
      vertex -3.71911 -1.4725 -30
      vertex -3.71911 -1.4725 30
    endloop
  endfacet
  facet normal 0.904824 0.425786 0
    outer loop
      vertex -3.71911 -1.4725 -30
      vertex -3.50523 -1.92701 30
      vertex -3.50523 -1.92701 -30
    endloop
  endfacet
  facet normal 0.982286 0.187389 0
    outer loop
      vertex -3.87433 -0.994759 30
      vertex -3.96846 -0.501332 -30
      vertex -3.96846 -0.501332 30
    endloop
  endfacet
  facet normal 0.982286 0.187389 0
    outer loop
      vertex -3.96846 -0.501332 -30
      vertex -3.87433 -0.994759 30
      vertex -3.87433 -0.994759 -30
    endloop
  endfacet
  facet normal 0.481759 0.876304 -0
    outer loop
      vertex -1.70312 -3.61931 -30
      vertex -2.14331 -3.37731 30
      vertex -1.70312 -3.61931 30
    endloop
  endfacet
  facet normal 0.481759 0.876304 0
    outer loop
      vertex -2.14331 -3.37731 30
      vertex -1.70312 -3.61931 -30
      vertex -2.14331 -3.37731 -30
    endloop
  endfacet
  facet normal 0.587786 0.809017 -0
    outer loop
      vertex -2.14331 -3.37731 -30
      vertex -2.5497 -3.08205 30
      vertex -2.14331 -3.37731 30
    endloop
  endfacet
  facet normal 0.587786 0.809017 0
    outer loop
      vertex -2.5497 -3.08205 30
      vertex -2.14331 -3.37731 -30
      vertex -2.5497 -3.08205 -30
    endloop
  endfacet
  facet normal 0.684551 0.728965 -0
    outer loop
      vertex -2.5497 -3.08205 -30
      vertex -2.91587 -2.73819 30
      vertex -2.5497 -3.08205 30
    endloop
  endfacet
  facet normal 0.684551 0.728965 0
    outer loop
      vertex -2.91587 -2.73819 30
      vertex -2.5497 -3.08205 -30
      vertex -2.91587 -2.73819 -30
    endloop
  endfacet
endsolid OpenSCAD_Model
