solid OpenSCAD_Model
  facet normal 0.998026 0.0628015 0
    outer loop
      vertex 3 0 50
      vertex 2.97634 0.375999 -50
      vertex 2.97634 0.375999 50
    endloop
  endfacet
  facet normal 0.998026 0.0628015 0
    outer loop
      vertex 2.97634 0.375999 -50
      vertex 3 0 50
      vertex 3 0 -50
    endloop
  endfacet
  facet normal -0.998026 0.0628015 0
    outer loop
      vertex -3 0 -50
      vertex -2.97634 0.375999 50
      vertex -2.97634 0.375999 -50
    endloop
  endfacet
  facet normal -0.998026 0.0628015 0
    outer loop
      vertex -2.97634 0.375999 50
      vertex -3 0 -50
      vertex -3 0 50
    endloop
  endfacet
  facet normal 0 1 -0
    outer loop
      vertex 0.188371 2.99408 -50
      vertex -0.188371 2.99408 50
      vertex 0.188371 2.99408 50
    endloop
  endfacet
  facet normal 0 1 0
    outer loop
      vertex -0.188371 2.99408 50
      vertex 0.188371 2.99408 -50
      vertex -0.188371 2.99408 -50
    endloop
  endfacet
  facet normal 0.684541 0.728974 -0
    outer loop
      vertex 2.18691 2.05364 -50
      vertex 1.91227 2.31154 50
      vertex 2.18691 2.05364 50
    endloop
  endfacet
  facet normal 0.684541 0.728974 0
    outer loop
      vertex 1.91227 2.31154 50
      vertex 2.18691 2.05364 -50
      vertex 1.91227 2.31154 -50
    endloop
  endfacet
  facet normal -0.684541 0.728974 0
    outer loop
      vertex -1.91227 2.31154 -50
      vertex -2.18691 2.05364 50
      vertex -1.91227 2.31154 50
    endloop
  endfacet
  facet normal -0.684541 0.728974 0
    outer loop
      vertex -2.18691 2.05364 50
      vertex -1.91227 2.31154 -50
      vertex -2.18691 2.05364 -50
    endloop
  endfacet
  facet normal -0.368126 0.929776 0
    outer loop
      vertex -0.927051 2.85317 -50
      vertex -1.27734 2.71448 50
      vertex -0.927051 2.85317 50
    endloop
  endfacet
  facet normal -0.368126 0.929776 0
    outer loop
      vertex -1.27734 2.71448 50
      vertex -0.927051 2.85317 -50
      vertex -1.27734 2.71448 -50
    endloop
  endfacet
  facet normal 0.904828 0.425778 0
    outer loop
      vertex 2.78933 1.10437 50
      vertex 2.62892 1.44526 -50
      vertex 2.62892 1.44526 50
    endloop
  endfacet
  facet normal 0.904828 0.425778 0
    outer loop
      vertex 2.62892 1.44526 -50
      vertex 2.78933 1.10437 50
      vertex 2.78933 1.10437 -50
    endloop
  endfacet
  facet normal 0.98229 0.187369 0
    outer loop
      vertex 2.97634 0.375999 50
      vertex 2.90575 0.746069 -50
      vertex 2.90575 0.746069 50
    endloop
  endfacet
  facet normal 0.98229 0.187369 0
    outer loop
      vertex 2.90575 0.746069 -50
      vertex 2.97634 0.375999 50
      vertex 2.97634 0.375999 -50
    endloop
  endfacet
  facet normal 0.368126 0.929776 -0
    outer loop
      vertex 1.27734 2.71448 -50
      vertex 0.927051 2.85317 50
      vertex 1.27734 2.71448 50
    endloop
  endfacet
  facet normal 0.368126 0.929776 0
    outer loop
      vertex 0.927051 2.85317 50
      vertex 1.27734 2.71448 -50
      vertex 0.927051 2.85317 -50
    endloop
  endfacet
  facet normal 0.248684 0.968585 -0
    outer loop
      vertex 0.927051 2.85317 -50
      vertex 0.562143 2.94686 50
      vertex 0.927051 2.85317 50
    endloop
  endfacet
  facet normal 0.248684 0.968585 0
    outer loop
      vertex 0.562143 2.94686 50
      vertex 0.927051 2.85317 -50
      vertex 0.562143 2.94686 -50
    endloop
  endfacet
  facet normal 0.58778 0.809021 -0
    outer loop
      vertex 1.91227 2.31154 -50
      vertex 1.60748 2.53298 50
      vertex 1.91227 2.31154 50
    endloop
  endfacet
  facet normal 0.58778 0.809021 0
    outer loop
      vertex 1.60748 2.53298 50
      vertex 1.91227 2.31154 -50
      vertex 1.60748 2.53298 -50
    endloop
  endfacet
  facet normal -0.904828 0.425778 0
    outer loop
      vertex -2.78933 1.10437 -50
      vertex -2.62892 1.44526 50
      vertex -2.62892 1.44526 -50
    endloop
  endfacet
  facet normal -0.904828 0.425778 0
    outer loop
      vertex -2.62892 1.44526 50
      vertex -2.78933 1.10437 -50
      vertex -2.78933 1.10437 50
    endloop
  endfacet
  facet normal -0.844331 0.535822 0
    outer loop
      vertex -2.62892 1.44526 -50
      vertex -2.42705 1.76336 50
      vertex -2.42705 1.76336 -50
    endloop
  endfacet
  facet normal -0.844331 0.535822 0
    outer loop
      vertex -2.42705 1.76336 50
      vertex -2.62892 1.44526 -50
      vertex -2.62892 1.44526 50
    endloop
  endfacet
  facet normal -0.951056 0.309019 0
    outer loop
      vertex -2.90575 0.746069 -50
      vertex -2.78933 1.10437 50
      vertex -2.78933 1.10437 -50
    endloop
  endfacet
  facet normal -0.951056 0.309019 0
    outer loop
      vertex -2.78933 1.10437 50
      vertex -2.90575 0.746069 -50
      vertex -2.90575 0.746069 50
    endloop
  endfacet
  facet normal -0.58778 0.809021 0
    outer loop
      vertex -1.60748 2.53298 -50
      vertex -1.91227 2.31154 50
      vertex -1.60748 2.53298 50
    endloop
  endfacet
  facet normal -0.58778 0.809021 0
    outer loop
      vertex -1.91227 2.31154 50
      vertex -1.60748 2.53298 -50
      vertex -1.91227 2.31154 -50
    endloop
  endfacet
  facet normal -0.125337 0.992114 0
    outer loop
      vertex -0.188371 2.99408 -50
      vertex -0.562143 2.94686 50
      vertex -0.188371 2.99408 50
    endloop
  endfacet
  facet normal -0.125337 0.992114 0
    outer loop
      vertex -0.562143 2.94686 50
      vertex -0.188371 2.99408 -50
      vertex -0.562143 2.94686 -50
    endloop
  endfacet
  facet normal 0.998026 -0.0628015 0
    outer loop
      vertex 2.97634 -0.375999 50
      vertex 3 0 -50
      vertex 3 0 50
    endloop
  endfacet
  facet normal 0.998026 -0.0628015 0
    outer loop
      vertex 3 0 -50
      vertex 2.97634 -0.375999 50
      vertex 2.97634 -0.375999 -50
    endloop
  endfacet
  facet normal -0.904828 -0.425778 0
    outer loop
      vertex -2.62892 -1.44526 -50
      vertex -2.78933 -1.10437 50
      vertex -2.78933 -1.10437 -50
    endloop
  endfacet
  facet normal -0.904828 -0.425778 0
    outer loop
      vertex -2.78933 -1.10437 50
      vertex -2.62892 -1.44526 -50
      vertex -2.62892 -1.44526 50
    endloop
  endfacet
  facet normal 0.125337 -0.992114 0
    outer loop
      vertex 0.188371 -2.99408 -50
      vertex 0.562143 -2.94686 50
      vertex 0.188371 -2.99408 50
    endloop
  endfacet
  facet normal 0.125337 -0.992114 0
    outer loop
      vertex 0.562143 -2.94686 50
      vertex 0.188371 -2.99408 -50
      vertex 0.562143 -2.94686 -50
    endloop
  endfacet
  facet normal 0.951056 0.309019 0
    outer loop
      vertex 2.90575 0.746069 50
      vertex 2.78933 1.10437 -50
      vertex 2.78933 1.10437 50
    endloop
  endfacet
  facet normal 0.951056 0.309019 0
    outer loop
      vertex 2.78933 1.10437 -50
      vertex 2.90575 0.746069 50
      vertex 2.90575 0.746069 -50
    endloop
  endfacet
  facet normal 0.770514 0.637423 0
    outer loop
      vertex 2.42705 1.76336 50
      vertex 2.18691 2.05364 -50
      vertex 2.18691 2.05364 50
    endloop
  endfacet
  facet normal 0.770514 0.637423 0
    outer loop
      vertex 2.18691 2.05364 -50
      vertex 2.42705 1.76336 50
      vertex 2.42705 1.76336 -50
    endloop
  endfacet
  facet normal 0.844331 0.535822 0
    outer loop
      vertex 2.62892 1.44526 50
      vertex 2.42705 1.76336 -50
      vertex 2.42705 1.76336 50
    endloop
  endfacet
  facet normal 0.844331 0.535822 0
    outer loop
      vertex 2.42705 1.76336 -50
      vertex 2.62892 1.44526 50
      vertex 2.62892 1.44526 -50
    endloop
  endfacet
  facet normal 0.125337 0.992114 -0
    outer loop
      vertex 0.562143 2.94686 -50
      vertex 0.188371 2.99408 50
      vertex 0.562143 2.94686 50
    endloop
  endfacet
  facet normal 0.125337 0.992114 0
    outer loop
      vertex 0.188371 2.99408 50
      vertex 0.562143 2.94686 -50
      vertex 0.188371 2.99408 -50
    endloop
  endfacet
  facet normal -0.248684 0.968585 0
    outer loop
      vertex -0.562143 2.94686 -50
      vertex -0.927051 2.85317 50
      vertex -0.562143 2.94686 50
    endloop
  endfacet
  facet normal -0.248684 0.968585 0
    outer loop
      vertex -0.927051 2.85317 50
      vertex -0.562143 2.94686 -50
      vertex -0.927051 2.85317 -50
    endloop
  endfacet
  facet normal 0.951056 -0.309019 0
    outer loop
      vertex 2.78933 -1.10437 50
      vertex 2.90575 -0.746069 -50
      vertex 2.90575 -0.746069 50
    endloop
  endfacet
  facet normal 0.951056 -0.309019 0
    outer loop
      vertex 2.90575 -0.746069 -50
      vertex 2.78933 -1.10437 50
      vertex 2.78933 -1.10437 -50
    endloop
  endfacet
  facet normal 0.98229 -0.187369 0
    outer loop
      vertex 2.90575 -0.746069 50
      vertex 2.97634 -0.375999 -50
      vertex 2.97634 -0.375999 50
    endloop
  endfacet
  facet normal 0.98229 -0.187369 0
    outer loop
      vertex 2.97634 -0.375999 -50
      vertex 2.90575 -0.746069 50
      vertex 2.90575 -0.746069 -50
    endloop
  endfacet
  facet normal -0.951056 -0.309019 0
    outer loop
      vertex -2.78933 -1.10437 -50
      vertex -2.90575 -0.746069 50
      vertex -2.90575 -0.746069 -50
    endloop
  endfacet
  facet normal -0.951056 -0.309019 0
    outer loop
      vertex -2.90575 -0.746069 50
      vertex -2.78933 -1.10437 -50
      vertex -2.78933 -1.10437 50
    endloop
  endfacet
  facet normal 0.368126 -0.929776 0
    outer loop
      vertex 0.927051 -2.85317 -50
      vertex 1.27734 -2.71448 50
      vertex 0.927051 -2.85317 50
    endloop
  endfacet
  facet normal 0.368126 -0.929776 0
    outer loop
      vertex 1.27734 -2.71448 50
      vertex 0.927051 -2.85317 -50
      vertex 1.27734 -2.71448 -50
    endloop
  endfacet
  facet normal 0.248684 -0.968585 0
    outer loop
      vertex 0.562143 -2.94686 -50
      vertex 0.927051 -2.85317 50
      vertex 0.562143 -2.94686 50
    endloop
  endfacet
  facet normal 0.248684 -0.968585 0
    outer loop
      vertex 0.927051 -2.85317 50
      vertex 0.562143 -2.94686 -50
      vertex 0.927051 -2.85317 -50
    endloop
  endfacet
  facet normal 0.481762 0.876302 -0
    outer loop
      vertex 1.60748 2.53298 -50
      vertex 1.27734 2.71448 50
      vertex 1.60748 2.53298 50
    endloop
  endfacet
  facet normal 0.481762 0.876302 0
    outer loop
      vertex 1.27734 2.71448 50
      vertex 1.60748 2.53298 -50
      vertex 1.27734 2.71448 -50
    endloop
  endfacet
  facet normal -0.770514 0.637423 0
    outer loop
      vertex -2.42705 1.76336 -50
      vertex -2.18691 2.05364 50
      vertex -2.18691 2.05364 -50
    endloop
  endfacet
  facet normal -0.770514 0.637423 0
    outer loop
      vertex -2.18691 2.05364 50
      vertex -2.42705 1.76336 -50
      vertex -2.42705 1.76336 50
    endloop
  endfacet
  facet normal 0 0 1
    outer loop
      vertex 1 0 50
      vertex 3 0 50
      vertex 2.97634 0.375999 50
    endloop
  endfacet
  facet normal 0 0 1
    outer loop
      vertex 0.992114 0.125333 50
      vertex 2.97634 0.375999 50
      vertex 2.90575 0.746069 50
    endloop
  endfacet
  facet normal 0 0 1
    outer loop
      vertex 3 0 50
      vertex 1 0 50
      vertex 2.97634 -0.375999 50
    endloop
  endfacet
  facet normal 0 0 1
    outer loop
      vertex 0.968583 0.24869 50
      vertex 2.90575 0.746069 50
      vertex 2.78933 1.10437 50
    endloop
  endfacet
  facet normal -0 0 1
    outer loop
      vertex 0.992114 -0.125333 50
      vertex 2.97634 -0.375999 50
      vertex 1 0 50
    endloop
  endfacet
  facet normal 0 0 1
    outer loop
      vertex 0.929776 0.368124 50
      vertex 2.78933 1.10437 50
      vertex 2.62892 1.44526 50
    endloop
  endfacet
  facet normal 0 0 1
    outer loop
      vertex 2.97634 -0.375999 50
      vertex 0.992114 -0.125333 50
      vertex 2.90575 -0.746069 50
    endloop
  endfacet
  facet normal 0 0 1
    outer loop
      vertex 0.876307 0.481753 50
      vertex 2.62892 1.44526 50
      vertex 2.42705 1.76336 50
    endloop
  endfacet
  facet normal -0 0 1
    outer loop
      vertex 0.968583 -0.24869 50
      vertex 2.90575 -0.746069 50
      vertex 0.992114 -0.125333 50
    endloop
  endfacet
  facet normal 0 0 1
    outer loop
      vertex 0.809016 0.587785 50
      vertex 2.42705 1.76336 50
      vertex 2.18691 2.05364 50
    endloop
  endfacet
  facet normal 0 0 1
    outer loop
      vertex 2.90575 -0.746069 50
      vertex 0.968583 -0.24869 50
      vertex 2.78933 -1.10437 50
    endloop
  endfacet
  facet normal 0 0 1
    outer loop
      vertex 0.728969 0.684546 50
      vertex 2.18691 2.05364 50
      vertex 1.91227 2.31154 50
    endloop
  endfacet
  facet normal -0 0 1
    outer loop
      vertex 0.929776 -0.368124 50
      vertex 2.78933 -1.10437 50
      vertex 0.968583 -0.24869 50
    endloop
  endfacet
  facet normal 0 0 1
    outer loop
      vertex 0.637424 0.770513 50
      vertex 1.91227 2.31154 50
      vertex 1.60748 2.53298 50
    endloop
  endfacet
  facet normal 0 0 1
    outer loop
      vertex 2.78933 -1.10437 50
      vertex 0.929776 -0.368124 50
      vertex 2.62892 -1.44526 50
    endloop
  endfacet
  facet normal 0 0 1
    outer loop
      vertex 0.535827 0.844327 50
      vertex 1.60748 2.53298 50
      vertex 1.27734 2.71448 50
    endloop
  endfacet
  facet normal -0 0 1
    outer loop
      vertex 0.876307 -0.481753 50
      vertex 2.62892 -1.44526 50
      vertex 0.929776 -0.368124 50
    endloop
  endfacet
  facet normal 0 0 1
    outer loop
      vertex 2.62892 -1.44526 50
      vertex 0.876307 -0.481753 50
      vertex 2.42705 -1.76336 50
    endloop
  endfacet
  facet normal 0 0 1
    outer loop
      vertex 2.97634 0.375999 50
      vertex 0.992114 0.125333 50
      vertex 1 0 50
    endloop
  endfacet
  facet normal 0 0 1
    outer loop
      vertex 2.90575 0.746069 50
      vertex 0.968583 0.24869 50
      vertex 0.992114 0.125333 50
    endloop
  endfacet
  facet normal 0 0 1
    outer loop
      vertex 2.78933 1.10437 50
      vertex 0.929776 0.368124 50
      vertex 0.968583 0.24869 50
    endloop
  endfacet
  facet normal 0 0 1
    outer loop
      vertex 0.425778 0.904826 50
      vertex 1.27734 2.71448 50
      vertex 0.927051 2.85317 50
    endloop
  endfacet
  facet normal 0 0 1
    outer loop
      vertex 2.62892 1.44526 50
      vertex 0.876307 0.481753 50
      vertex 0.929776 0.368124 50
    endloop
  endfacet
  facet normal 0 0 1
    outer loop
      vertex 2.42705 1.76336 50
      vertex 0.809016 0.587785 50
      vertex 0.876307 0.481753 50
    endloop
  endfacet
  facet normal 0 0 1
    outer loop
      vertex 2.18691 2.05364 50
      vertex 0.728969 0.684546 50
      vertex 0.809016 0.587785 50
    endloop
  endfacet
  facet normal 0 0 1
    outer loop
      vertex 1.91227 2.31154 50
      vertex 0.637424 0.770513 50
      vertex 0.728969 0.684546 50
    endloop
  endfacet
  facet normal 0 0 1
    outer loop
      vertex 0.309016 0.951056 50
      vertex 0.927051 2.85317 50
      vertex 0.562143 2.94686 50
    endloop
  endfacet
  facet normal 0 0 1
    outer loop
      vertex 1.60748 2.53298 50
      vertex 0.535827 0.844327 50
      vertex 0.637424 0.770513 50
    endloop
  endfacet
  facet normal 0 0 1
    outer loop
      vertex 1.27734 2.71448 50
      vertex 0.425778 0.904826 50
      vertex 0.535827 0.844327 50
    endloop
  endfacet
  facet normal 0 0 1
    outer loop
      vertex 0.927051 2.85317 50
      vertex 0.309016 0.951056 50
      vertex 0.425778 0.904826 50
    endloop
  endfacet
  facet normal 0 0 1
    outer loop
      vertex 0.187381 0.982286 50
      vertex 0.562143 2.94686 50
      vertex 0.188371 2.99408 50
    endloop
  endfacet
  facet normal 0 0 1
    outer loop
      vertex 0.562143 2.94686 50
      vertex 0.187381 0.982286 50
      vertex 0.309016 0.951056 50
    endloop
  endfacet
  facet normal 0 0 1
    outer loop
      vertex 0.188371 2.99408 50
      vertex 0.0627899 0.998026 50
      vertex 0.187381 0.982286 50
    endloop
  endfacet
  facet normal 0 0 1
    outer loop
      vertex 0.188371 2.99408 50
      vertex -0.0627899 0.998026 50
      vertex 0.0627899 0.998026 50
    endloop
  endfacet
  facet normal -0 0 1
    outer loop
      vertex -0.188371 2.99408 50
      vertex -0.0627899 0.998026 50
      vertex 0.188371 2.99408 50
    endloop
  endfacet
  facet normal 0 0 1
    outer loop
      vertex -0.0627899 0.998026 50
      vertex -0.188371 2.99408 50
      vertex -0.187381 0.982286 50
    endloop
  endfacet
  facet normal -0 0 1
    outer loop
      vertex -0.562143 2.94686 50
      vertex -0.187381 0.982286 50
      vertex -0.188371 2.99408 50
    endloop
  endfacet
  facet normal 0 0 1
    outer loop
      vertex -0.187381 0.982286 50
      vertex -0.562143 2.94686 50
      vertex -0.309016 0.951056 50
    endloop
  endfacet
  facet normal -0 0 1
    outer loop
      vertex -0.927051 2.85317 50
      vertex -0.309016 0.951056 50
      vertex -0.562143 2.94686 50
    endloop
  endfacet
  facet normal 0 0 1
    outer loop
      vertex -0.309016 0.951056 50
      vertex -0.927051 2.85317 50
      vertex -0.425778 0.904826 50
    endloop
  endfacet
  facet normal -0 0 1
    outer loop
      vertex -1.27734 2.71448 50
      vertex -0.425778 0.904826 50
      vertex -0.927051 2.85317 50
    endloop
  endfacet
  facet normal 0 0 1
    outer loop
      vertex -0.425778 0.904826 50
      vertex -1.27734 2.71448 50
      vertex -0.535827 0.844327 50
    endloop
  endfacet
  facet normal -0 0 1
    outer loop
      vertex -1.60748 2.53298 50
      vertex -0.535827 0.844327 50
      vertex -1.27734 2.71448 50
    endloop
  endfacet
  facet normal 0 0 1
    outer loop
      vertex -0.535827 0.844327 50
      vertex -1.60748 2.53298 50
      vertex -0.637424 0.770513 50
    endloop
  endfacet
  facet normal -0 0 1
    outer loop
      vertex -1.91227 2.31154 50
      vertex -0.637424 0.770513 50
      vertex -1.60748 2.53298 50
    endloop
  endfacet
  facet normal 0 0 1
    outer loop
      vertex -0.637424 0.770513 50
      vertex -1.91227 2.31154 50
      vertex -0.728969 0.684546 50
    endloop
  endfacet
  facet normal -0 0 1
    outer loop
      vertex -2.18691 2.05364 50
      vertex -0.728969 0.684546 50
      vertex -1.91227 2.31154 50
    endloop
  endfacet
  facet normal 0 0 1
    outer loop
      vertex -0.728969 0.684546 50
      vertex -2.18691 2.05364 50
      vertex -0.809016 0.587785 50
    endloop
  endfacet
  facet normal -0 0 1
    outer loop
      vertex -2.42705 1.76336 50
      vertex -0.809016 0.587785 50
      vertex -2.18691 2.05364 50
    endloop
  endfacet
  facet normal 0 0 1
    outer loop
      vertex -0.809016 0.587785 50
      vertex -2.42705 1.76336 50
      vertex -0.876307 0.481753 50
    endloop
  endfacet
  facet normal -0 0 1
    outer loop
      vertex 0.809016 -0.587785 50
      vertex 2.42705 -1.76336 50
      vertex 0.876307 -0.481753 50
    endloop
  endfacet
  facet normal 0 0 1
    outer loop
      vertex 2.42705 -1.76336 50
      vertex 0.809016 -0.587785 50
      vertex 2.18691 -2.05364 50
    endloop
  endfacet
  facet normal -0 0 1
    outer loop
      vertex 0.728969 -0.684546 50
      vertex 2.18691 -2.05364 50
      vertex 0.809016 -0.587785 50
    endloop
  endfacet
  facet normal 0 0 1
    outer loop
      vertex 2.18691 -2.05364 50
      vertex 0.728969 -0.684546 50
      vertex 1.91227 -2.31154 50
    endloop
  endfacet
  facet normal -0 0 1
    outer loop
      vertex 0.637424 -0.770513 50
      vertex 1.91227 -2.31154 50
      vertex 0.728969 -0.684546 50
    endloop
  endfacet
  facet normal 0 0 1
    outer loop
      vertex 1.91227 -2.31154 50
      vertex 0.637424 -0.770513 50
      vertex 1.60748 -2.53298 50
    endloop
  endfacet
  facet normal -0 0 1
    outer loop
      vertex 0.535827 -0.844327 50
      vertex 1.60748 -2.53298 50
      vertex 0.637424 -0.770513 50
    endloop
  endfacet
  facet normal 0 0 1
    outer loop
      vertex 1.60748 -2.53298 50
      vertex 0.535827 -0.844327 50
      vertex 1.27734 -2.71448 50
    endloop
  endfacet
  facet normal -0 0 1
    outer loop
      vertex 0.425778 -0.904826 50
      vertex 1.27734 -2.71448 50
      vertex 0.535827 -0.844327 50
    endloop
  endfacet
  facet normal 0 0 1
    outer loop
      vertex 1.27734 -2.71448 50
      vertex 0.425778 -0.904826 50
      vertex 0.927051 -2.85317 50
    endloop
  endfacet
  facet normal -0 0 1
    outer loop
      vertex 0.309016 -0.951056 50
      vertex 0.927051 -2.85317 50
      vertex 0.425778 -0.904826 50
    endloop
  endfacet
  facet normal 0 0 1
    outer loop
      vertex 0.927051 -2.85317 50
      vertex 0.309016 -0.951056 50
      vertex 0.562143 -2.94686 50
    endloop
  endfacet
  facet normal -0 0 1
    outer loop
      vertex 0.187381 -0.982286 50
      vertex 0.562143 -2.94686 50
      vertex 0.309016 -0.951056 50
    endloop
  endfacet
  facet normal 0 0 1
    outer loop
      vertex 0.562143 -2.94686 50
      vertex 0.187381 -0.982286 50
      vertex 0.188371 -2.99408 50
    endloop
  endfacet
  facet normal -0 0 1
    outer loop
      vertex 0.0627899 -0.998026 50
      vertex 0.188371 -2.99408 50
      vertex 0.187381 -0.982286 50
    endloop
  endfacet
  facet normal -0 0 1
    outer loop
      vertex -0.0627899 -0.998026 50
      vertex 0.188371 -2.99408 50
      vertex 0.0627899 -0.998026 50
    endloop
  endfacet
  facet normal 0 0 1
    outer loop
      vertex -0.188371 -2.99408 50
      vertex -0.0627899 -0.998026 50
      vertex -0.187381 -0.982286 50
    endloop
  endfacet
  facet normal 0 0 1
    outer loop
      vertex -0.0627899 -0.998026 50
      vertex -0.188371 -2.99408 50
      vertex 0.188371 -2.99408 50
    endloop
  endfacet
  facet normal 0 0 1
    outer loop
      vertex -0.562143 -2.94686 50
      vertex -0.187381 -0.982286 50
      vertex -0.309016 -0.951056 50
    endloop
  endfacet
  facet normal 0 0 1
    outer loop
      vertex -0.927051 -2.85317 50
      vertex -0.309016 -0.951056 50
      vertex -0.425778 -0.904826 50
    endloop
  endfacet
  facet normal 0 0 1
    outer loop
      vertex -1.27734 -2.71448 50
      vertex -0.425778 -0.904826 50
      vertex -0.535827 -0.844327 50
    endloop
  endfacet
  facet normal 0 0 1
    outer loop
      vertex -0.187381 -0.982286 50
      vertex -0.562143 -2.94686 50
      vertex -0.188371 -2.99408 50
    endloop
  endfacet
  facet normal 0 0 1
    outer loop
      vertex -1.60748 -2.53298 50
      vertex -0.535827 -0.844327 50
      vertex -0.637424 -0.770513 50
    endloop
  endfacet
  facet normal 0 0 1
    outer loop
      vertex -1.91227 -2.31154 50
      vertex -0.637424 -0.770513 50
      vertex -0.728969 -0.684546 50
    endloop
  endfacet
  facet normal 0 0 1
    outer loop
      vertex -2.18691 -2.05364 50
      vertex -0.728969 -0.684546 50
      vertex -0.809016 -0.587785 50
    endloop
  endfacet
  facet normal 0 0 1
    outer loop
      vertex -2.42705 -1.76336 50
      vertex -0.809016 -0.587785 50
      vertex -0.876307 -0.481753 50
    endloop
  endfacet
  facet normal 0 0 1
    outer loop
      vertex -0.309016 -0.951056 50
      vertex -0.927051 -2.85317 50
      vertex -0.562143 -2.94686 50
    endloop
  endfacet
  facet normal 0 0 1
    outer loop
      vertex -2.62892 -1.44526 50
      vertex -0.876307 -0.481753 50
      vertex -0.929776 -0.368124 50
    endloop
  endfacet
  facet normal 0 0 1
    outer loop
      vertex -2.78933 -1.10437 50
      vertex -0.929776 -0.368124 50
      vertex -0.968583 -0.24869 50
    endloop
  endfacet
  facet normal 0 0 1
    outer loop
      vertex -2.90575 -0.746069 50
      vertex -0.968583 -0.24869 50
      vertex -0.992114 -0.125333 50
    endloop
  endfacet
  facet normal 0 0 1
    outer loop
      vertex -2.97634 -0.375999 50
      vertex -0.992114 -0.125333 50
      vertex -1 0 50
    endloop
  endfacet
  facet normal -0 0 1
    outer loop
      vertex -2.62892 1.44526 50
      vertex -0.876307 0.481753 50
      vertex -2.42705 1.76336 50
    endloop
  endfacet
  facet normal 0 0 1
    outer loop
      vertex -0.425778 -0.904826 50
      vertex -1.27734 -2.71448 50
      vertex -0.927051 -2.85317 50
    endloop
  endfacet
  facet normal 0 0 1
    outer loop
      vertex -0.876307 0.481753 50
      vertex -2.62892 1.44526 50
      vertex -0.929776 0.368124 50
    endloop
  endfacet
  facet normal 0 0 1
    outer loop
      vertex -0.535827 -0.844327 50
      vertex -1.60748 -2.53298 50
      vertex -1.27734 -2.71448 50
    endloop
  endfacet
  facet normal -0 0 1
    outer loop
      vertex -2.78933 1.10437 50
      vertex -0.929776 0.368124 50
      vertex -2.62892 1.44526 50
    endloop
  endfacet
  facet normal 0 0 1
    outer loop
      vertex -0.637424 -0.770513 50
      vertex -1.91227 -2.31154 50
      vertex -1.60748 -2.53298 50
    endloop
  endfacet
  facet normal 0 0 1
    outer loop
      vertex -0.929776 0.368124 50
      vertex -2.78933 1.10437 50
      vertex -0.968583 0.24869 50
    endloop
  endfacet
  facet normal 0 0 1
    outer loop
      vertex -0.728969 -0.684546 50
      vertex -2.18691 -2.05364 50
      vertex -1.91227 -2.31154 50
    endloop
  endfacet
  facet normal -0 0 1
    outer loop
      vertex -2.90575 0.746069 50
      vertex -0.968583 0.24869 50
      vertex -2.78933 1.10437 50
    endloop
  endfacet
  facet normal 0 0 1
    outer loop
      vertex -0.809016 -0.587785 50
      vertex -2.42705 -1.76336 50
      vertex -2.18691 -2.05364 50
    endloop
  endfacet
  facet normal 0 0 1
    outer loop
      vertex -0.968583 0.24869 50
      vertex -2.90575 0.746069 50
      vertex -0.992114 0.125333 50
    endloop
  endfacet
  facet normal 0 0 1
    outer loop
      vertex -0.876307 -0.481753 50
      vertex -2.62892 -1.44526 50
      vertex -2.42705 -1.76336 50
    endloop
  endfacet
  facet normal -0 0 1
    outer loop
      vertex -2.97634 0.375999 50
      vertex -0.992114 0.125333 50
      vertex -2.90575 0.746069 50
    endloop
  endfacet
  facet normal 0 0 1
    outer loop
      vertex -0.929776 -0.368124 50
      vertex -2.78933 -1.10437 50
      vertex -2.62892 -1.44526 50
    endloop
  endfacet
  facet normal 0 0 1
    outer loop
      vertex -0.992114 0.125333 50
      vertex -2.97634 0.375999 50
      vertex -1 0 50
    endloop
  endfacet
  facet normal 0 0 1
    outer loop
      vertex -0.968583 -0.24869 50
      vertex -2.90575 -0.746069 50
      vertex -2.78933 -1.10437 50
    endloop
  endfacet
  facet normal 0 0 1
    outer loop
      vertex -3 0 50
      vertex -1 0 50
      vertex -2.97634 0.375999 50
    endloop
  endfacet
  facet normal 0 0 1
    outer loop
      vertex -0.992114 -0.125333 50
      vertex -2.97634 -0.375999 50
      vertex -2.90575 -0.746069 50
    endloop
  endfacet
  facet normal 0 0 1
    outer loop
      vertex -1 0 50
      vertex -3 0 50
      vertex -2.97634 -0.375999 50
    endloop
  endfacet
  facet normal -0.98229 0.187369 0
    outer loop
      vertex -2.97634 0.375999 -50
      vertex -2.90575 0.746069 50
      vertex -2.90575 0.746069 -50
    endloop
  endfacet
  facet normal -0.98229 0.187369 0
    outer loop
      vertex -2.90575 0.746069 50
      vertex -2.97634 0.375999 -50
      vertex -2.97634 0.375999 50
    endloop
  endfacet
  facet normal -0.481762 0.876302 0
    outer loop
      vertex -1.27734 2.71448 -50
      vertex -1.60748 2.53298 50
      vertex -1.27734 2.71448 50
    endloop
  endfacet
  facet normal -0.481762 0.876302 0
    outer loop
      vertex -1.60748 2.53298 50
      vertex -1.27734 2.71448 -50
      vertex -1.60748 2.53298 -50
    endloop
  endfacet
  facet normal 0.481762 -0.876302 0
    outer loop
      vertex 1.27734 -2.71448 -50
      vertex 1.60748 -2.53298 50
      vertex 1.27734 -2.71448 50
    endloop
  endfacet
  facet normal 0.481762 -0.876302 0
    outer loop
      vertex 1.60748 -2.53298 50
      vertex 1.27734 -2.71448 -50
      vertex 1.60748 -2.53298 -50
    endloop
  endfacet
  facet normal 0.684541 -0.728974 0
    outer loop
      vertex 1.91227 -2.31154 -50
      vertex 2.18691 -2.05364 50
      vertex 1.91227 -2.31154 50
    endloop
  endfacet
  facet normal 0.684541 -0.728974 0
    outer loop
      vertex 2.18691 -2.05364 50
      vertex 1.91227 -2.31154 -50
      vertex 2.18691 -2.05364 -50
    endloop
  endfacet
  facet normal 0.904828 -0.425778 0
    outer loop
      vertex 2.62892 -1.44526 50
      vertex 2.78933 -1.10437 -50
      vertex 2.78933 -1.10437 50
    endloop
  endfacet
  facet normal 0.904828 -0.425778 0
    outer loop
      vertex 2.78933 -1.10437 -50
      vertex 2.62892 -1.44526 50
      vertex 2.62892 -1.44526 -50
    endloop
  endfacet
  facet normal 0.770514 -0.637423 0
    outer loop
      vertex 2.18691 -2.05364 50
      vertex 2.42705 -1.76336 -50
      vertex 2.42705 -1.76336 50
    endloop
  endfacet
  facet normal 0.770514 -0.637423 0
    outer loop
      vertex 2.42705 -1.76336 -50
      vertex 2.18691 -2.05364 50
      vertex 2.18691 -2.05364 -50
    endloop
  endfacet
  facet normal -0.368126 -0.929776 0
    outer loop
      vertex -1.27734 -2.71448 -50
      vertex -0.927051 -2.85317 50
      vertex -1.27734 -2.71448 50
    endloop
  endfacet
  facet normal -0.368126 -0.929776 -0
    outer loop
      vertex -0.927051 -2.85317 50
      vertex -1.27734 -2.71448 -50
      vertex -0.927051 -2.85317 -50
    endloop
  endfacet
  facet normal -0.684541 -0.728974 0
    outer loop
      vertex -2.18691 -2.05364 -50
      vertex -1.91227 -2.31154 50
      vertex -2.18691 -2.05364 50
    endloop
  endfacet
  facet normal -0.684541 -0.728974 -0
    outer loop
      vertex -1.91227 -2.31154 50
      vertex -2.18691 -2.05364 -50
      vertex -1.91227 -2.31154 -50
    endloop
  endfacet
  facet normal -0.998026 -0.0628015 0
    outer loop
      vertex -2.97634 -0.375999 -50
      vertex -3 0 50
      vertex -3 0 -50
    endloop
  endfacet
  facet normal -0.998026 -0.0628015 0
    outer loop
      vertex -3 0 50
      vertex -2.97634 -0.375999 -50
      vertex -2.97634 -0.375999 50
    endloop
  endfacet
  facet normal 0 0 -1
    outer loop
      vertex 1 0 -50
      vertex 3 0 -50
      vertex 2.97634 -0.375999 -50
    endloop
  endfacet
  facet normal 0 0 -1
    outer loop
      vertex 0.992114 -0.125333 -50
      vertex 2.97634 -0.375999 -50
      vertex 2.90575 -0.746069 -50
    endloop
  endfacet
  facet normal 0 0 -1
    outer loop
      vertex 3 0 -50
      vertex 1 0 -50
      vertex 2.97634 0.375999 -50
    endloop
  endfacet
  facet normal 0 0 -1
    outer loop
      vertex 0.968583 -0.24869 -50
      vertex 2.90575 -0.746069 -50
      vertex 2.78933 -1.10437 -50
    endloop
  endfacet
  facet normal 0 0 -1
    outer loop
      vertex 0.992114 0.125333 -50
      vertex 2.97634 0.375999 -50
      vertex 1 0 -50
    endloop
  endfacet
  facet normal 0 0 -1
    outer loop
      vertex 0.929776 -0.368124 -50
      vertex 2.78933 -1.10437 -50
      vertex 2.62892 -1.44526 -50
    endloop
  endfacet
  facet normal -0 0 -1
    outer loop
      vertex 2.97634 0.375999 -50
      vertex 0.992114 0.125333 -50
      vertex 2.90575 0.746069 -50
    endloop
  endfacet
  facet normal 0 0 -1
    outer loop
      vertex 0.876307 -0.481753 -50
      vertex 2.62892 -1.44526 -50
      vertex 2.42705 -1.76336 -50
    endloop
  endfacet
  facet normal 0 0 -1
    outer loop
      vertex 0.968583 0.24869 -50
      vertex 2.90575 0.746069 -50
      vertex 0.992114 0.125333 -50
    endloop
  endfacet
  facet normal 0 0 -1
    outer loop
      vertex 0.809016 -0.587785 -50
      vertex 2.42705 -1.76336 -50
      vertex 2.18691 -2.05364 -50
    endloop
  endfacet
  facet normal -0 0 -1
    outer loop
      vertex 2.90575 0.746069 -50
      vertex 0.968583 0.24869 -50
      vertex 2.78933 1.10437 -50
    endloop
  endfacet
  facet normal 0 0 -1
    outer loop
      vertex 0.728969 -0.684546 -50
      vertex 2.18691 -2.05364 -50
      vertex 1.91227 -2.31154 -50
    endloop
  endfacet
  facet normal 0 0 -1
    outer loop
      vertex 0.929776 0.368124 -50
      vertex 2.78933 1.10437 -50
      vertex 0.968583 0.24869 -50
    endloop
  endfacet
  facet normal 0 0 -1
    outer loop
      vertex 0.637424 -0.770513 -50
      vertex 1.91227 -2.31154 -50
      vertex 1.60748 -2.53298 -50
    endloop
  endfacet
  facet normal -0 0 -1
    outer loop
      vertex 2.78933 1.10437 -50
      vertex 0.929776 0.368124 -50
      vertex 2.62892 1.44526 -50
    endloop
  endfacet
  facet normal 0 0 -1
    outer loop
      vertex 0.535827 -0.844327 -50
      vertex 1.60748 -2.53298 -50
      vertex 1.27734 -2.71448 -50
    endloop
  endfacet
  facet normal 0 0 -1
    outer loop
      vertex 0.876307 0.481753 -50
      vertex 2.62892 1.44526 -50
      vertex 0.929776 0.368124 -50
    endloop
  endfacet
  facet normal -0 0 -1
    outer loop
      vertex 2.62892 1.44526 -50
      vertex 0.876307 0.481753 -50
      vertex 2.42705 1.76336 -50
    endloop
  endfacet
  facet normal 0 0 -1
    outer loop
      vertex 2.97634 -0.375999 -50
      vertex 0.992114 -0.125333 -50
      vertex 1 0 -50
    endloop
  endfacet
  facet normal 0 0 -1
    outer loop
      vertex 2.90575 -0.746069 -50
      vertex 0.968583 -0.24869 -50
      vertex 0.992114 -0.125333 -50
    endloop
  endfacet
  facet normal 0 0 -1
    outer loop
      vertex 2.78933 -1.10437 -50
      vertex 0.929776 -0.368124 -50
      vertex 0.968583 -0.24869 -50
    endloop
  endfacet
  facet normal 0 0 -1
    outer loop
      vertex 0.425778 -0.904826 -50
      vertex 1.27734 -2.71448 -50
      vertex 0.927051 -2.85317 -50
    endloop
  endfacet
  facet normal 0 0 -1
    outer loop
      vertex 2.62892 -1.44526 -50
      vertex 0.876307 -0.481753 -50
      vertex 0.929776 -0.368124 -50
    endloop
  endfacet
  facet normal 0 0 -1
    outer loop
      vertex 2.42705 -1.76336 -50
      vertex 0.809016 -0.587785 -50
      vertex 0.876307 -0.481753 -50
    endloop
  endfacet
  facet normal 0 0 -1
    outer loop
      vertex 2.18691 -2.05364 -50
      vertex 0.728969 -0.684546 -50
      vertex 0.809016 -0.587785 -50
    endloop
  endfacet
  facet normal 0 0 -1
    outer loop
      vertex 1.91227 -2.31154 -50
      vertex 0.637424 -0.770513 -50
      vertex 0.728969 -0.684546 -50
    endloop
  endfacet
  facet normal 0 0 -1
    outer loop
      vertex 0.309016 -0.951056 -50
      vertex 0.927051 -2.85317 -50
      vertex 0.562143 -2.94686 -50
    endloop
  endfacet
  facet normal 0 0 -1
    outer loop
      vertex 1.60748 -2.53298 -50
      vertex 0.535827 -0.844327 -50
      vertex 0.637424 -0.770513 -50
    endloop
  endfacet
  facet normal 0 0 -1
    outer loop
      vertex 1.27734 -2.71448 -50
      vertex 0.425778 -0.904826 -50
      vertex 0.535827 -0.844327 -50
    endloop
  endfacet
  facet normal 0 0 -1
    outer loop
      vertex 0.927051 -2.85317 -50
      vertex 0.309016 -0.951056 -50
      vertex 0.425778 -0.904826 -50
    endloop
  endfacet
  facet normal 0 0 -1
    outer loop
      vertex 0.187381 -0.982286 -50
      vertex 0.562143 -2.94686 -50
      vertex 0.188371 -2.99408 -50
    endloop
  endfacet
  facet normal 0 0 -1
    outer loop
      vertex 0.562143 -2.94686 -50
      vertex 0.187381 -0.982286 -50
      vertex 0.309016 -0.951056 -50
    endloop
  endfacet
  facet normal 0 0 -1
    outer loop
      vertex 0.188371 -2.99408 -50
      vertex 0.0627899 -0.998026 -50
      vertex 0.187381 -0.982286 -50
    endloop
  endfacet
  facet normal 0 0 -1
    outer loop
      vertex 0.188371 -2.99408 -50
      vertex -0.0627899 -0.998026 -50
      vertex 0.0627899 -0.998026 -50
    endloop
  endfacet
  facet normal 0 0 -1
    outer loop
      vertex -0.188371 -2.99408 -50
      vertex -0.0627899 -0.998026 -50
      vertex 0.188371 -2.99408 -50
    endloop
  endfacet
  facet normal -0 0 -1
    outer loop
      vertex -0.0627899 -0.998026 -50
      vertex -0.188371 -2.99408 -50
      vertex -0.187381 -0.982286 -50
    endloop
  endfacet
  facet normal 0 0 -1
    outer loop
      vertex -0.562143 -2.94686 -50
      vertex -0.187381 -0.982286 -50
      vertex -0.188371 -2.99408 -50
    endloop
  endfacet
  facet normal -0 0 -1
    outer loop
      vertex -0.187381 -0.982286 -50
      vertex -0.562143 -2.94686 -50
      vertex -0.309016 -0.951056 -50
    endloop
  endfacet
  facet normal 0 0 -1
    outer loop
      vertex -0.927051 -2.85317 -50
      vertex -0.309016 -0.951056 -50
      vertex -0.562143 -2.94686 -50
    endloop
  endfacet
  facet normal -0 0 -1
    outer loop
      vertex -0.309016 -0.951056 -50
      vertex -0.927051 -2.85317 -50
      vertex -0.425778 -0.904826 -50
    endloop
  endfacet
  facet normal 0 0 -1
    outer loop
      vertex -1.27734 -2.71448 -50
      vertex -0.425778 -0.904826 -50
      vertex -0.927051 -2.85317 -50
    endloop
  endfacet
  facet normal -0 0 -1
    outer loop
      vertex -0.425778 -0.904826 -50
      vertex -1.27734 -2.71448 -50
      vertex -0.535827 -0.844327 -50
    endloop
  endfacet
  facet normal 0 0 -1
    outer loop
      vertex -1.60748 -2.53298 -50
      vertex -0.535827 -0.844327 -50
      vertex -1.27734 -2.71448 -50
    endloop
  endfacet
  facet normal -0 0 -1
    outer loop
      vertex -0.535827 -0.844327 -50
      vertex -1.60748 -2.53298 -50
      vertex -0.637424 -0.770513 -50
    endloop
  endfacet
  facet normal 0 0 -1
    outer loop
      vertex -1.91227 -2.31154 -50
      vertex -0.637424 -0.770513 -50
      vertex -1.60748 -2.53298 -50
    endloop
  endfacet
  facet normal -0 0 -1
    outer loop
      vertex -0.637424 -0.770513 -50
      vertex -1.91227 -2.31154 -50
      vertex -0.728969 -0.684546 -50
    endloop
  endfacet
  facet normal 0 0 -1
    outer loop
      vertex -2.18691 -2.05364 -50
      vertex -0.728969 -0.684546 -50
      vertex -1.91227 -2.31154 -50
    endloop
  endfacet
  facet normal -0 0 -1
    outer loop
      vertex -0.728969 -0.684546 -50
      vertex -2.18691 -2.05364 -50
      vertex -0.809016 -0.587785 -50
    endloop
  endfacet
  facet normal 0 0 -1
    outer loop
      vertex -2.42705 -1.76336 -50
      vertex -0.809016 -0.587785 -50
      vertex -2.18691 -2.05364 -50
    endloop
  endfacet
  facet normal -0 0 -1
    outer loop
      vertex -0.809016 -0.587785 -50
      vertex -2.42705 -1.76336 -50
      vertex -0.876307 -0.481753 -50
    endloop
  endfacet
  facet normal 0 0 -1
    outer loop
      vertex 0.809016 0.587785 -50
      vertex 2.42705 1.76336 -50
      vertex 0.876307 0.481753 -50
    endloop
  endfacet
  facet normal -0 0 -1
    outer loop
      vertex 2.42705 1.76336 -50
      vertex 0.809016 0.587785 -50
      vertex 2.18691 2.05364 -50
    endloop
  endfacet
  facet normal 0 0 -1
    outer loop
      vertex 0.728969 0.684546 -50
      vertex 2.18691 2.05364 -50
      vertex 0.809016 0.587785 -50
    endloop
  endfacet
  facet normal -0 0 -1
    outer loop
      vertex 2.18691 2.05364 -50
      vertex 0.728969 0.684546 -50
      vertex 1.91227 2.31154 -50
    endloop
  endfacet
  facet normal 0 0 -1
    outer loop
      vertex 0.637424 0.770513 -50
      vertex 1.91227 2.31154 -50
      vertex 0.728969 0.684546 -50
    endloop
  endfacet
  facet normal -0 0 -1
    outer loop
      vertex 1.91227 2.31154 -50
      vertex 0.637424 0.770513 -50
      vertex 1.60748 2.53298 -50
    endloop
  endfacet
  facet normal 0 0 -1
    outer loop
      vertex 0.535827 0.844327 -50
      vertex 1.60748 2.53298 -50
      vertex 0.637424 0.770513 -50
    endloop
  endfacet
  facet normal -0 0 -1
    outer loop
      vertex 1.60748 2.53298 -50
      vertex 0.535827 0.844327 -50
      vertex 1.27734 2.71448 -50
    endloop
  endfacet
  facet normal 0 0 -1
    outer loop
      vertex 0.425778 0.904826 -50
      vertex 1.27734 2.71448 -50
      vertex 0.535827 0.844327 -50
    endloop
  endfacet
  facet normal -0 0 -1
    outer loop
      vertex 1.27734 2.71448 -50
      vertex 0.425778 0.904826 -50
      vertex 0.927051 2.85317 -50
    endloop
  endfacet
  facet normal 0 0 -1
    outer loop
      vertex 0.309016 0.951056 -50
      vertex 0.927051 2.85317 -50
      vertex 0.425778 0.904826 -50
    endloop
  endfacet
  facet normal -0 0 -1
    outer loop
      vertex 0.927051 2.85317 -50
      vertex 0.309016 0.951056 -50
      vertex 0.562143 2.94686 -50
    endloop
  endfacet
  facet normal 0 0 -1
    outer loop
      vertex 0.187381 0.982286 -50
      vertex 0.562143 2.94686 -50
      vertex 0.309016 0.951056 -50
    endloop
  endfacet
  facet normal -0 0 -1
    outer loop
      vertex 0.562143 2.94686 -50
      vertex 0.187381 0.982286 -50
      vertex 0.188371 2.99408 -50
    endloop
  endfacet
  facet normal 0 0 -1
    outer loop
      vertex 0.0627899 0.998026 -50
      vertex 0.188371 2.99408 -50
      vertex 0.187381 0.982286 -50
    endloop
  endfacet
  facet normal 0 0 -1
    outer loop
      vertex -0.0627899 0.998026 -50
      vertex 0.188371 2.99408 -50
      vertex 0.0627899 0.998026 -50
    endloop
  endfacet
  facet normal 0 0 -1
    outer loop
      vertex -0.188371 2.99408 -50
      vertex -0.0627899 0.998026 -50
      vertex -0.187381 0.982286 -50
    endloop
  endfacet
  facet normal 0 0 -1
    outer loop
      vertex -0.0627899 0.998026 -50
      vertex -0.188371 2.99408 -50
      vertex 0.188371 2.99408 -50
    endloop
  endfacet
  facet normal 0 0 -1
    outer loop
      vertex -0.562143 2.94686 -50
      vertex -0.187381 0.982286 -50
      vertex -0.309016 0.951056 -50
    endloop
  endfacet
  facet normal 0 0 -1
    outer loop
      vertex -0.927051 2.85317 -50
      vertex -0.309016 0.951056 -50
      vertex -0.425778 0.904826 -50
    endloop
  endfacet
  facet normal 0 0 -1
    outer loop
      vertex -1.27734 2.71448 -50
      vertex -0.425778 0.904826 -50
      vertex -0.535827 0.844327 -50
    endloop
  endfacet
  facet normal 0 0 -1
    outer loop
      vertex -0.187381 0.982286 -50
      vertex -0.562143 2.94686 -50
      vertex -0.188371 2.99408 -50
    endloop
  endfacet
  facet normal 0 0 -1
    outer loop
      vertex -1.60748 2.53298 -50
      vertex -0.535827 0.844327 -50
      vertex -0.637424 0.770513 -50
    endloop
  endfacet
  facet normal 0 0 -1
    outer loop
      vertex -1.91227 2.31154 -50
      vertex -0.637424 0.770513 -50
      vertex -0.728969 0.684546 -50
    endloop
  endfacet
  facet normal 0 0 -1
    outer loop
      vertex -2.18691 2.05364 -50
      vertex -0.728969 0.684546 -50
      vertex -0.809016 0.587785 -50
    endloop
  endfacet
  facet normal 0 0 -1
    outer loop
      vertex -2.42705 1.76336 -50
      vertex -0.809016 0.587785 -50
      vertex -0.876307 0.481753 -50
    endloop
  endfacet
  facet normal 0 0 -1
    outer loop
      vertex -0.309016 0.951056 -50
      vertex -0.927051 2.85317 -50
      vertex -0.562143 2.94686 -50
    endloop
  endfacet
  facet normal 0 0 -1
    outer loop
      vertex -2.62892 1.44526 -50
      vertex -0.876307 0.481753 -50
      vertex -0.929776 0.368124 -50
    endloop
  endfacet
  facet normal 0 0 -1
    outer loop
      vertex -2.78933 1.10437 -50
      vertex -0.929776 0.368124 -50
      vertex -0.968583 0.24869 -50
    endloop
  endfacet
  facet normal 0 0 -1
    outer loop
      vertex -2.90575 0.746069 -50
      vertex -0.968583 0.24869 -50
      vertex -0.992114 0.125333 -50
    endloop
  endfacet
  facet normal 0 0 -1
    outer loop
      vertex -2.97634 0.375999 -50
      vertex -0.992114 0.125333 -50
      vertex -1 0 -50
    endloop
  endfacet
  facet normal 0 0 -1
    outer loop
      vertex -2.62892 -1.44526 -50
      vertex -0.876307 -0.481753 -50
      vertex -2.42705 -1.76336 -50
    endloop
  endfacet
  facet normal 0 0 -1
    outer loop
      vertex -0.425778 0.904826 -50
      vertex -1.27734 2.71448 -50
      vertex -0.927051 2.85317 -50
    endloop
  endfacet
  facet normal -0 0 -1
    outer loop
      vertex -0.876307 -0.481753 -50
      vertex -2.62892 -1.44526 -50
      vertex -0.929776 -0.368124 -50
    endloop
  endfacet
  facet normal 0 0 -1
    outer loop
      vertex -0.535827 0.844327 -50
      vertex -1.60748 2.53298 -50
      vertex -1.27734 2.71448 -50
    endloop
  endfacet
  facet normal 0 0 -1
    outer loop
      vertex -2.78933 -1.10437 -50
      vertex -0.929776 -0.368124 -50
      vertex -2.62892 -1.44526 -50
    endloop
  endfacet
  facet normal 0 0 -1
    outer loop
      vertex -0.637424 0.770513 -50
      vertex -1.91227 2.31154 -50
      vertex -1.60748 2.53298 -50
    endloop
  endfacet
  facet normal -0 0 -1
    outer loop
      vertex -0.929776 -0.368124 -50
      vertex -2.78933 -1.10437 -50
      vertex -0.968583 -0.24869 -50
    endloop
  endfacet
  facet normal 0 0 -1
    outer loop
      vertex -0.728969 0.684546 -50
      vertex -2.18691 2.05364 -50
      vertex -1.91227 2.31154 -50
    endloop
  endfacet
  facet normal 0 0 -1
    outer loop
      vertex -2.90575 -0.746069 -50
      vertex -0.968583 -0.24869 -50
      vertex -2.78933 -1.10437 -50
    endloop
  endfacet
  facet normal 0 0 -1
    outer loop
      vertex -0.809016 0.587785 -50
      vertex -2.42705 1.76336 -50
      vertex -2.18691 2.05364 -50
    endloop
  endfacet
  facet normal -0 0 -1
    outer loop
      vertex -0.968583 -0.24869 -50
      vertex -2.90575 -0.746069 -50
      vertex -0.992114 -0.125333 -50
    endloop
  endfacet
  facet normal 0 0 -1
    outer loop
      vertex -0.876307 0.481753 -50
      vertex -2.62892 1.44526 -50
      vertex -2.42705 1.76336 -50
    endloop
  endfacet
  facet normal 0 0 -1
    outer loop
      vertex -2.97634 -0.375999 -50
      vertex -0.992114 -0.125333 -50
      vertex -2.90575 -0.746069 -50
    endloop
  endfacet
  facet normal 0 0 -1
    outer loop
      vertex -0.929776 0.368124 -50
      vertex -2.78933 1.10437 -50
      vertex -2.62892 1.44526 -50
    endloop
  endfacet
  facet normal -0 0 -1
    outer loop
      vertex -0.992114 -0.125333 -50
      vertex -2.97634 -0.375999 -50
      vertex -1 0 -50
    endloop
  endfacet
  facet normal 0 0 -1
    outer loop
      vertex -0.968583 0.24869 -50
      vertex -2.90575 0.746069 -50
      vertex -2.78933 1.10437 -50
    endloop
  endfacet
  facet normal 0 0 -1
    outer loop
      vertex -3 0 -50
      vertex -1 0 -50
      vertex -2.97634 -0.375999 -50
    endloop
  endfacet
  facet normal 0 0 -1
    outer loop
      vertex -0.992114 0.125333 -50
      vertex -2.97634 0.375999 -50
      vertex -2.90575 0.746069 -50
    endloop
  endfacet
  facet normal 0 0 -1
    outer loop
      vertex -1 0 -50
      vertex -3 0 -50
      vertex -2.97634 0.375999 -50
    endloop
  endfacet
  facet normal -0.98229 -0.187369 0
    outer loop
      vertex -2.90575 -0.746069 -50
      vertex -2.97634 -0.375999 50
      vertex -2.97634 -0.375999 -50
    endloop
  endfacet
  facet normal -0.98229 -0.187369 0
    outer loop
      vertex -2.97634 -0.375999 50
      vertex -2.90575 -0.746069 -50
      vertex -2.90575 -0.746069 50
    endloop
  endfacet
  facet normal 0.58778 -0.809021 0
    outer loop
      vertex 1.60748 -2.53298 -50
      vertex 1.91227 -2.31154 50
      vertex 1.60748 -2.53298 50
    endloop
  endfacet
  facet normal 0.58778 -0.809021 0
    outer loop
      vertex 1.91227 -2.31154 50
      vertex 1.60748 -2.53298 -50
      vertex 1.91227 -2.31154 -50
    endloop
  endfacet
  facet normal 0.844331 -0.535822 0
    outer loop
      vertex 2.42705 -1.76336 50
      vertex 2.62892 -1.44526 -50
      vertex 2.62892 -1.44526 50
    endloop
  endfacet
  facet normal 0.844331 -0.535822 0
    outer loop
      vertex 2.62892 -1.44526 -50
      vertex 2.42705 -1.76336 50
      vertex 2.42705 -1.76336 -50
    endloop
  endfacet
  facet normal 0 -1 0
    outer loop
      vertex -0.188371 -2.99408 -50
      vertex 0.188371 -2.99408 50
      vertex -0.188371 -2.99408 50
    endloop
  endfacet
  facet normal 0 -1 -0
    outer loop
      vertex 0.188371 -2.99408 50
      vertex -0.188371 -2.99408 -50
      vertex 0.188371 -2.99408 -50
    endloop
  endfacet
  facet normal -0.125337 -0.992114 0
    outer loop
      vertex -0.562143 -2.94686 -50
      vertex -0.188371 -2.99408 50
      vertex -0.562143 -2.94686 50
    endloop
  endfacet
  facet normal -0.125337 -0.992114 -0
    outer loop
      vertex -0.188371 -2.99408 50
      vertex -0.562143 -2.94686 -50
      vertex -0.188371 -2.99408 -50
    endloop
  endfacet
  facet normal -0.248684 -0.968585 0
    outer loop
      vertex -0.927051 -2.85317 -50
      vertex -0.562143 -2.94686 50
      vertex -0.927051 -2.85317 50
    endloop
  endfacet
  facet normal -0.248684 -0.968585 -0
    outer loop
      vertex -0.562143 -2.94686 50
      vertex -0.927051 -2.85317 -50
      vertex -0.562143 -2.94686 -50
    endloop
  endfacet
  facet normal -0.58778 -0.809021 0
    outer loop
      vertex -1.91227 -2.31154 -50
      vertex -1.60748 -2.53298 50
      vertex -1.91227 -2.31154 50
    endloop
  endfacet
  facet normal -0.58778 -0.809021 -0
    outer loop
      vertex -1.60748 -2.53298 50
      vertex -1.91227 -2.31154 -50
      vertex -1.60748 -2.53298 -50
    endloop
  endfacet
  facet normal -0.844331 -0.535822 0
    outer loop
      vertex -2.42705 -1.76336 -50
      vertex -2.62892 -1.44526 50
      vertex -2.62892 -1.44526 -50
    endloop
  endfacet
  facet normal -0.844331 -0.535822 0
    outer loop
      vertex -2.62892 -1.44526 50
      vertex -2.42705 -1.76336 -50
      vertex -2.42705 -1.76336 50
    endloop
  endfacet
  facet normal -0.481762 -0.876302 0
    outer loop
      vertex -1.60748 -2.53298 -50
      vertex -1.27734 -2.71448 50
      vertex -1.60748 -2.53298 50
    endloop
  endfacet
  facet normal -0.481762 -0.876302 -0
    outer loop
      vertex -1.27734 -2.71448 50
      vertex -1.60748 -2.53298 -50
      vertex -1.27734 -2.71448 -50
    endloop
  endfacet
  facet normal -0.770514 -0.637423 0
    outer loop
      vertex -2.18691 -2.05364 -50
      vertex -2.42705 -1.76336 50
      vertex -2.42705 -1.76336 -50
    endloop
  endfacet
  facet normal -0.770514 -0.637423 0
    outer loop
      vertex -2.42705 -1.76336 50
      vertex -2.18691 -2.05364 -50
      vertex -2.18691 -2.05364 50
    endloop
  endfacet
  facet normal -0.998026 -0.0627962 0
    outer loop
      vertex 1 0 -50
      vertex 0.992114 0.125333 50
      vertex 0.992114 0.125333 -50
    endloop
  endfacet
  facet normal -0.998026 -0.0627962 0
    outer loop
      vertex 0.992114 0.125333 50
      vertex 1 0 -50
      vertex 1 0 50
    endloop
  endfacet
  facet normal 0.998026 -0.0627962 0
    outer loop
      vertex -1 0 50
      vertex -0.992114 0.125333 -50
      vertex -0.992114 0.125333 50
    endloop
  endfacet
  facet normal 0.998026 -0.0627962 0
    outer loop
      vertex -0.992114 0.125333 -50
      vertex -1 0 50
      vertex -1 0 -50
    endloop
  endfacet
  facet normal 0 -1 0
    outer loop
      vertex -0.0627899 0.998026 -50
      vertex 0.0627899 0.998026 50
      vertex -0.0627899 0.998026 50
    endloop
  endfacet
  facet normal 0 -1 -0
    outer loop
      vertex 0.0627899 0.998026 50
      vertex -0.0627899 0.998026 -50
      vertex 0.0627899 0.998026 -50
    endloop
  endfacet
  facet normal -0.684549 -0.728967 0
    outer loop
      vertex 0.637424 0.770513 -50
      vertex 0.728969 0.684546 50
      vertex 0.637424 0.770513 50
    endloop
  endfacet
  facet normal -0.684549 -0.728967 -0
    outer loop
      vertex 0.728969 0.684546 50
      vertex 0.637424 0.770513 -50
      vertex 0.728969 0.684546 -50
    endloop
  endfacet
  facet normal 0.684549 -0.728967 0
    outer loop
      vertex -0.728969 0.684546 -50
      vertex -0.637424 0.770513 50
      vertex -0.728969 0.684546 50
    endloop
  endfacet
  facet normal 0.684549 -0.728967 0
    outer loop
      vertex -0.637424 0.770513 50
      vertex -0.728969 0.684546 -50
      vertex -0.637424 0.770513 -50
    endloop
  endfacet
  facet normal 0.368129 -0.929775 0
    outer loop
      vertex -0.425778 0.904826 -50
      vertex -0.309016 0.951056 50
      vertex -0.425778 0.904826 50
    endloop
  endfacet
  facet normal 0.368129 -0.929775 0
    outer loop
      vertex -0.309016 0.951056 50
      vertex -0.425778 0.904826 -50
      vertex -0.309016 0.951056 -50
    endloop
  endfacet
  facet normal -0.770516 0.637421 0
    outer loop
      vertex 0.728969 -0.684546 -50
      vertex 0.809016 -0.587785 50
      vertex 0.809016 -0.587785 -50
    endloop
  endfacet
  facet normal -0.770516 0.637421 0
    outer loop
      vertex 0.809016 -0.587785 50
      vertex 0.728969 -0.684546 -50
      vertex 0.728969 -0.684546 50
    endloop
  endfacet
  facet normal -0.904829 -0.425774 0
    outer loop
      vertex 0.929776 0.368124 -50
      vertex 0.876307 0.481753 50
      vertex 0.876307 0.481753 -50
    endloop
  endfacet
  facet normal -0.904829 -0.425774 0
    outer loop
      vertex 0.876307 0.481753 50
      vertex 0.929776 0.368124 -50
      vertex 0.929776 0.368124 50
    endloop
  endfacet
  facet normal -0.982288 -0.187377 0
    outer loop
      vertex 0.992114 0.125333 -50
      vertex 0.968583 0.24869 50
      vertex 0.968583 0.24869 -50
    endloop
  endfacet
  facet normal -0.982288 -0.187377 0
    outer loop
      vertex 0.968583 0.24869 50
      vertex 0.992114 0.125333 -50
      vertex 0.992114 0.125333 50
    endloop
  endfacet
  facet normal -0.368129 -0.929775 0
    outer loop
      vertex 0.309016 0.951056 -50
      vertex 0.425778 0.904826 50
      vertex 0.309016 0.951056 50
    endloop
  endfacet
  facet normal -0.368129 -0.929775 -0
    outer loop
      vertex 0.425778 0.904826 50
      vertex 0.309016 0.951056 -50
      vertex 0.425778 0.904826 -50
    endloop
  endfacet
  facet normal -0.587782 -0.809019 0
    outer loop
      vertex 0.535827 0.844327 -50
      vertex 0.637424 0.770513 50
      vertex 0.535827 0.844327 50
    endloop
  endfacet
  facet normal -0.587782 -0.809019 -0
    outer loop
      vertex 0.637424 0.770513 50
      vertex 0.535827 0.844327 -50
      vertex 0.637424 0.770513 -50
    endloop
  endfacet
  facet normal 0.904829 -0.425774 0
    outer loop
      vertex -0.929776 0.368124 50
      vertex -0.876307 0.481753 -50
      vertex -0.876307 0.481753 50
    endloop
  endfacet
  facet normal 0.904829 -0.425774 0
    outer loop
      vertex -0.876307 0.481753 -50
      vertex -0.929776 0.368124 50
      vertex -0.929776 0.368124 -50
    endloop
  endfacet
  facet normal 0.844324 -0.535833 0
    outer loop
      vertex -0.876307 0.481753 50
      vertex -0.809016 0.587785 -50
      vertex -0.809016 0.587785 50
    endloop
  endfacet
  facet normal 0.844324 -0.535833 0
    outer loop
      vertex -0.809016 0.587785 -50
      vertex -0.876307 0.481753 50
      vertex -0.876307 0.481753 -50
    endloop
  endfacet
  facet normal 0.951055 -0.309021 0
    outer loop
      vertex -0.968583 0.24869 50
      vertex -0.929776 0.368124 -50
      vertex -0.929776 0.368124 50
    endloop
  endfacet
  facet normal 0.951055 -0.309021 0
    outer loop
      vertex -0.929776 0.368124 -50
      vertex -0.968583 0.24869 50
      vertex -0.968583 0.24869 -50
    endloop
  endfacet
  facet normal 0.481748 -0.87631 0
    outer loop
      vertex -0.535827 0.844327 -50
      vertex -0.425778 0.904826 50
      vertex -0.535827 0.844327 50
    endloop
  endfacet
  facet normal 0.481748 -0.87631 0
    outer loop
      vertex -0.425778 0.904826 50
      vertex -0.535827 0.844327 -50
      vertex -0.425778 0.904826 -50
    endloop
  endfacet
  facet normal 0.125337 -0.992114 0
    outer loop
      vertex -0.187381 0.982286 -50
      vertex -0.0627899 0.998026 50
      vertex -0.187381 0.982286 50
    endloop
  endfacet
  facet normal 0.125337 -0.992114 0
    outer loop
      vertex -0.0627899 0.998026 50
      vertex -0.187381 0.982286 -50
      vertex -0.0627899 0.998026 -50
    endloop
  endfacet
  facet normal -0.998026 0.0627962 0
    outer loop
      vertex 0.992114 -0.125333 -50
      vertex 1 0 50
      vertex 1 0 -50
    endloop
  endfacet
  facet normal -0.998026 0.0627962 0
    outer loop
      vertex 1 0 50
      vertex 0.992114 -0.125333 -50
      vertex 0.992114 -0.125333 50
    endloop
  endfacet
  facet normal 0.248686 0.968584 -0
    outer loop
      vertex -0.187381 -0.982286 -50
      vertex -0.309016 -0.951056 50
      vertex -0.187381 -0.982286 50
    endloop
  endfacet
  facet normal 0.248686 0.968584 0
    outer loop
      vertex -0.309016 -0.951056 50
      vertex -0.187381 -0.982286 -50
      vertex -0.309016 -0.951056 -50
    endloop
  endfacet
  facet normal -0.125337 0.992114 0
    outer loop
      vertex 0.187381 -0.982286 -50
      vertex 0.0627899 -0.998026 50
      vertex 0.187381 -0.982286 50
    endloop
  endfacet
  facet normal -0.125337 0.992114 0
    outer loop
      vertex 0.0627899 -0.998026 50
      vertex 0.187381 -0.982286 -50
      vertex 0.0627899 -0.998026 -50
    endloop
  endfacet
  facet normal -0.951055 -0.309021 0
    outer loop
      vertex 0.968583 0.24869 -50
      vertex 0.929776 0.368124 50
      vertex 0.929776 0.368124 -50
    endloop
  endfacet
  facet normal -0.951055 -0.309021 0
    outer loop
      vertex 0.929776 0.368124 50
      vertex 0.968583 0.24869 -50
      vertex 0.968583 0.24869 50
    endloop
  endfacet
  facet normal -0.770516 -0.637421 0
    outer loop
      vertex 0.809016 0.587785 -50
      vertex 0.728969 0.684546 50
      vertex 0.728969 0.684546 -50
    endloop
  endfacet
  facet normal -0.770516 -0.637421 0
    outer loop
      vertex 0.728969 0.684546 50
      vertex 0.809016 0.587785 -50
      vertex 0.809016 0.587785 50
    endloop
  endfacet
  facet normal -0.844324 -0.535833 0
    outer loop
      vertex 0.876307 0.481753 -50
      vertex 0.809016 0.587785 50
      vertex 0.809016 0.587785 -50
    endloop
  endfacet
  facet normal -0.844324 -0.535833 0
    outer loop
      vertex 0.809016 0.587785 50
      vertex 0.876307 0.481753 -50
      vertex 0.876307 0.481753 50
    endloop
  endfacet
  facet normal -0.248686 -0.968584 0
    outer loop
      vertex 0.187381 0.982286 -50
      vertex 0.309016 0.951056 50
      vertex 0.187381 0.982286 50
    endloop
  endfacet
  facet normal -0.248686 -0.968584 -0
    outer loop
      vertex 0.309016 0.951056 50
      vertex 0.187381 0.982286 -50
      vertex 0.309016 0.951056 -50
    endloop
  endfacet
  facet normal -0.125337 -0.992114 0
    outer loop
      vertex 0.0627899 0.998026 -50
      vertex 0.187381 0.982286 50
      vertex 0.0627899 0.998026 50
    endloop
  endfacet
  facet normal -0.125337 -0.992114 -0
    outer loop
      vertex 0.187381 0.982286 50
      vertex 0.0627899 0.998026 -50
      vertex 0.187381 0.982286 -50
    endloop
  endfacet
  facet normal -0.481748 -0.87631 0
    outer loop
      vertex 0.425778 0.904826 -50
      vertex 0.535827 0.844327 50
      vertex 0.425778 0.904826 50
    endloop
  endfacet
  facet normal -0.481748 -0.87631 -0
    outer loop
      vertex 0.535827 0.844327 50
      vertex 0.425778 0.904826 -50
      vertex 0.535827 0.844327 -50
    endloop
  endfacet
  facet normal 0.982288 -0.187377 0
    outer loop
      vertex -0.992114 0.125333 50
      vertex -0.968583 0.24869 -50
      vertex -0.968583 0.24869 50
    endloop
  endfacet
  facet normal 0.982288 -0.187377 0
    outer loop
      vertex -0.968583 0.24869 -50
      vertex -0.992114 0.125333 50
      vertex -0.992114 0.125333 -50
    endloop
  endfacet
  facet normal 0.587782 -0.809019 0
    outer loop
      vertex -0.637424 0.770513 -50
      vertex -0.535827 0.844327 50
      vertex -0.637424 0.770513 50
    endloop
  endfacet
  facet normal 0.587782 -0.809019 0
    outer loop
      vertex -0.535827 0.844327 50
      vertex -0.637424 0.770513 -50
      vertex -0.535827 0.844327 -50
    endloop
  endfacet
  facet normal 0.248686 -0.968584 0
    outer loop
      vertex -0.309016 0.951056 -50
      vertex -0.187381 0.982286 50
      vertex -0.309016 0.951056 50
    endloop
  endfacet
  facet normal 0.248686 -0.968584 0
    outer loop
      vertex -0.187381 0.982286 50
      vertex -0.309016 0.951056 -50
      vertex -0.187381 0.982286 -50
    endloop
  endfacet
  facet normal -0.481748 0.87631 0
    outer loop
      vertex 0.535827 -0.844327 -50
      vertex 0.425778 -0.904826 50
      vertex 0.535827 -0.844327 50
    endloop
  endfacet
  facet normal -0.481748 0.87631 0
    outer loop
      vertex 0.425778 -0.904826 50
      vertex 0.535827 -0.844327 -50
      vertex 0.425778 -0.904826 -50
    endloop
  endfacet
  facet normal -0.844324 0.535833 0
    outer loop
      vertex 0.809016 -0.587785 -50
      vertex 0.876307 -0.481753 50
      vertex 0.876307 -0.481753 -50
    endloop
  endfacet
  facet normal -0.844324 0.535833 0
    outer loop
      vertex 0.876307 -0.481753 50
      vertex 0.809016 -0.587785 -50
      vertex 0.809016 -0.587785 50
    endloop
  endfacet
  facet normal -0.951055 0.309021 0
    outer loop
      vertex 0.929776 -0.368124 -50
      vertex 0.968583 -0.24869 50
      vertex 0.968583 -0.24869 -50
    endloop
  endfacet
  facet normal -0.951055 0.309021 0
    outer loop
      vertex 0.968583 -0.24869 50
      vertex 0.929776 -0.368124 -50
      vertex 0.929776 -0.368124 50
    endloop
  endfacet
  facet normal -0.982288 0.187377 0
    outer loop
      vertex 0.968583 -0.24869 -50
      vertex 0.992114 -0.125333 50
      vertex 0.992114 -0.125333 -50
    endloop
  endfacet
  facet normal -0.982288 0.187377 0
    outer loop
      vertex 0.992114 -0.125333 50
      vertex 0.968583 -0.24869 -50
      vertex 0.968583 -0.24869 50
    endloop
  endfacet
  facet normal 0.904829 0.425774 0
    outer loop
      vertex -0.876307 -0.481753 50
      vertex -0.929776 -0.368124 -50
      vertex -0.929776 -0.368124 50
    endloop
  endfacet
  facet normal 0.904829 0.425774 0
    outer loop
      vertex -0.929776 -0.368124 -50
      vertex -0.876307 -0.481753 50
      vertex -0.876307 -0.481753 -50
    endloop
  endfacet
  facet normal 0.951055 0.309021 0
    outer loop
      vertex -0.929776 -0.368124 50
      vertex -0.968583 -0.24869 -50
      vertex -0.968583 -0.24869 50
    endloop
  endfacet
  facet normal 0.951055 0.309021 0
    outer loop
      vertex -0.968583 -0.24869 -50
      vertex -0.929776 -0.368124 50
      vertex -0.929776 -0.368124 -50
    endloop
  endfacet
  facet normal -0.368129 0.929775 0
    outer loop
      vertex 0.425778 -0.904826 -50
      vertex 0.309016 -0.951056 50
      vertex 0.425778 -0.904826 50
    endloop
  endfacet
  facet normal -0.368129 0.929775 0
    outer loop
      vertex 0.309016 -0.951056 50
      vertex 0.425778 -0.904826 -50
      vertex 0.309016 -0.951056 -50
    endloop
  endfacet
  facet normal -0.248686 0.968584 0
    outer loop
      vertex 0.309016 -0.951056 -50
      vertex 0.187381 -0.982286 50
      vertex 0.309016 -0.951056 50
    endloop
  endfacet
  facet normal -0.248686 0.968584 0
    outer loop
      vertex 0.187381 -0.982286 50
      vertex 0.309016 -0.951056 -50
      vertex 0.187381 -0.982286 -50
    endloop
  endfacet
  facet normal 0.770516 -0.637421 0
    outer loop
      vertex -0.809016 0.587785 50
      vertex -0.728969 0.684546 -50
      vertex -0.728969 0.684546 50
    endloop
  endfacet
  facet normal 0.770516 -0.637421 0
    outer loop
      vertex -0.728969 0.684546 -50
      vertex -0.809016 0.587785 50
      vertex -0.809016 0.587785 -50
    endloop
  endfacet
  facet normal -0.904829 0.425774 0
    outer loop
      vertex 0.876307 -0.481753 -50
      vertex 0.929776 -0.368124 50
      vertex 0.929776 -0.368124 -50
    endloop
  endfacet
  facet normal -0.904829 0.425774 0
    outer loop
      vertex 0.929776 -0.368124 50
      vertex 0.876307 -0.481753 -50
      vertex 0.876307 -0.481753 50
    endloop
  endfacet
  facet normal 0 1 -0
    outer loop
      vertex 0.0627899 -0.998026 -50
      vertex -0.0627899 -0.998026 50
      vertex 0.0627899 -0.998026 50
    endloop
  endfacet
  facet normal 0 1 0
    outer loop
      vertex -0.0627899 -0.998026 50
      vertex 0.0627899 -0.998026 -50
      vertex -0.0627899 -0.998026 -50
    endloop
  endfacet
  facet normal 0.368129 0.929775 -0
    outer loop
      vertex -0.309016 -0.951056 -50
      vertex -0.425778 -0.904826 50
      vertex -0.309016 -0.951056 50
    endloop
  endfacet
  facet normal 0.368129 0.929775 0
    outer loop
      vertex -0.425778 -0.904826 50
      vertex -0.309016 -0.951056 -50
      vertex -0.425778 -0.904826 -50
    endloop
  endfacet
  facet normal 0.998026 0.0627962 0
    outer loop
      vertex -0.992114 -0.125333 50
      vertex -1 0 -50
      vertex -1 0 50
    endloop
  endfacet
  facet normal 0.998026 0.0627962 0
    outer loop
      vertex -1 0 -50
      vertex -0.992114 -0.125333 50
      vertex -0.992114 -0.125333 -50
    endloop
  endfacet
  facet normal -0.587782 0.809019 0
    outer loop
      vertex 0.637424 -0.770513 -50
      vertex 0.535827 -0.844327 50
      vertex 0.637424 -0.770513 50
    endloop
  endfacet
  facet normal -0.587782 0.809019 0
    outer loop
      vertex 0.535827 -0.844327 50
      vertex 0.637424 -0.770513 -50
      vertex 0.535827 -0.844327 -50
    endloop
  endfacet
  facet normal 0.125337 0.992114 -0
    outer loop
      vertex -0.0627899 -0.998026 -50
      vertex -0.187381 -0.982286 50
      vertex -0.0627899 -0.998026 50
    endloop
  endfacet
  facet normal 0.125337 0.992114 0
    outer loop
      vertex -0.187381 -0.982286 50
      vertex -0.0627899 -0.998026 -50
      vertex -0.187381 -0.982286 -50
    endloop
  endfacet
  facet normal 0.481748 0.87631 -0
    outer loop
      vertex -0.425778 -0.904826 -50
      vertex -0.535827 -0.844327 50
      vertex -0.425778 -0.904826 50
    endloop
  endfacet
  facet normal 0.481748 0.87631 0
    outer loop
      vertex -0.535827 -0.844327 50
      vertex -0.425778 -0.904826 -50
      vertex -0.535827 -0.844327 -50
    endloop
  endfacet
  facet normal 0.770516 0.637421 0
    outer loop
      vertex -0.728969 -0.684546 50
      vertex -0.809016 -0.587785 -50
      vertex -0.809016 -0.587785 50
    endloop
  endfacet
  facet normal 0.770516 0.637421 0
    outer loop
      vertex -0.809016 -0.587785 -50
      vertex -0.728969 -0.684546 50
      vertex -0.728969 -0.684546 -50
    endloop
  endfacet
  facet normal 0.844324 0.535833 0
    outer loop
      vertex -0.809016 -0.587785 50
      vertex -0.876307 -0.481753 -50
      vertex -0.876307 -0.481753 50
    endloop
  endfacet
  facet normal 0.844324 0.535833 0
    outer loop
      vertex -0.876307 -0.481753 -50
      vertex -0.809016 -0.587785 50
      vertex -0.809016 -0.587785 -50
    endloop
  endfacet
  facet normal 0.982288 0.187377 0
    outer loop
      vertex -0.968583 -0.24869 50
      vertex -0.992114 -0.125333 -50
      vertex -0.992114 -0.125333 50
    endloop
  endfacet
  facet normal 0.982288 0.187377 0
    outer loop
      vertex -0.992114 -0.125333 -50
      vertex -0.968583 -0.24869 50
      vertex -0.968583 -0.24869 -50
    endloop
  endfacet
  facet normal -0.684549 0.728967 0
    outer loop
      vertex 0.728969 -0.684546 -50
      vertex 0.637424 -0.770513 50
      vertex 0.728969 -0.684546 50
    endloop
  endfacet
  facet normal -0.684549 0.728967 0
    outer loop
      vertex 0.637424 -0.770513 50
      vertex 0.728969 -0.684546 -50
      vertex 0.637424 -0.770513 -50
    endloop
  endfacet
  facet normal 0.684549 0.728967 -0
    outer loop
      vertex -0.637424 -0.770513 -50
      vertex -0.728969 -0.684546 50
      vertex -0.637424 -0.770513 50
    endloop
  endfacet
  facet normal 0.684549 0.728967 0
    outer loop
      vertex -0.728969 -0.684546 50
      vertex -0.637424 -0.770513 -50
      vertex -0.728969 -0.684546 -50
    endloop
  endfacet
  facet normal 0.587782 0.809019 -0
    outer loop
      vertex -0.535827 -0.844327 -50
      vertex -0.637424 -0.770513 50
      vertex -0.535827 -0.844327 50
    endloop
  endfacet
  facet normal 0.587782 0.809019 0
    outer loop
      vertex -0.637424 -0.770513 50
      vertex -0.535827 -0.844327 -50
      vertex -0.637424 -0.770513 -50
    endloop
  endfacet
endsolid OpenSCAD_Model
