solid OpenSCAD_Model
  facet normal 0.998027 0.0627883 0
    outer loop
      vertex 4 0 50
      vertex 3.96846 0.501332 -50
      vertex 3.96846 0.501332 50
    endloop
  endfacet
  facet normal 0.998027 0.0627883 0
    outer loop
      vertex 3.96846 0.501332 -50
      vertex 4 0 50
      vertex 4 0 -50
    endloop
  endfacet
  facet normal -0.998027 0.0627883 0
    outer loop
      vertex -4 0 -50
      vertex -3.96846 0.501332 50
      vertex -3.96846 0.501332 -50
    endloop
  endfacet
  facet normal -0.998027 0.0627883 0
    outer loop
      vertex -3.96846 0.501332 50
      vertex -4 0 -50
      vertex -4 0 50
    endloop
  endfacet
  facet normal 0 1 -0
    outer loop
      vertex 0.251162 3.99211 -50
      vertex -0.251162 3.99211 50
      vertex 0.251162 3.99211 50
    endloop
  endfacet
  facet normal 0 1 0
    outer loop
      vertex -0.251162 3.99211 50
      vertex 0.251162 3.99211 -50
      vertex -0.251162 3.99211 -50
    endloop
  endfacet
  facet normal 0 -1 0
    outer loop
      vertex -0.251162 -3.99211 -50
      vertex 0.251162 -3.99211 50
      vertex -0.251162 -3.99211 50
    endloop
  endfacet
  facet normal 0 -1 -0
    outer loop
      vertex 0.251162 -3.99211 50
      vertex -0.251162 -3.99211 -50
      vertex 0.251162 -3.99211 -50
    endloop
  endfacet
  facet normal 0.684551 0.728965 -0
    outer loop
      vertex 2.91587 2.73819 -50
      vertex 2.5497 3.08205 50
      vertex 2.91587 2.73819 50
    endloop
  endfacet
  facet normal 0.684551 0.728965 0
    outer loop
      vertex 2.5497 3.08205 50
      vertex 2.91587 2.73819 -50
      vertex 2.5497 3.08205 -50
    endloop
  endfacet
  facet normal -0.684551 0.728965 0
    outer loop
      vertex -2.5497 3.08205 -50
      vertex -2.91587 2.73819 50
      vertex -2.5497 3.08205 50
    endloop
  endfacet
  facet normal -0.684551 0.728965 0
    outer loop
      vertex -2.91587 2.73819 50
      vertex -2.5497 3.08205 -50
      vertex -2.91587 2.73819 -50
    endloop
  endfacet
  facet normal -0.368128 0.929775 0
    outer loop
      vertex -1.23607 3.80423 -50
      vertex -1.70312 3.61931 50
      vertex -1.23607 3.80423 50
    endloop
  endfacet
  facet normal -0.368128 0.929775 0
    outer loop
      vertex -1.70312 3.61931 50
      vertex -1.23607 3.80423 -50
      vertex -1.70312 3.61931 -50
    endloop
  endfacet
  facet normal 0.904824 0.425786 0
    outer loop
      vertex 3.71911 1.4725 50
      vertex 3.50523 1.92701 -50
      vertex 3.50523 1.92701 50
    endloop
  endfacet
  facet normal 0.904824 0.425786 0
    outer loop
      vertex 3.50523 1.92701 -50
      vertex 3.71911 1.4725 50
      vertex 3.71911 1.4725 -50
    endloop
  endfacet
  facet normal 0.844329 0.535825 0
    outer loop
      vertex 3.50523 1.92701 50
      vertex 3.23607 2.35114 -50
      vertex 3.23607 2.35114 50
    endloop
  endfacet
  facet normal 0.844329 0.535825 0
    outer loop
      vertex 3.23607 2.35114 -50
      vertex 3.50523 1.92701 50
      vertex 3.50523 1.92701 -50
    endloop
  endfacet
  facet normal 0.368128 0.929775 -0
    outer loop
      vertex 1.70312 3.61931 -50
      vertex 1.23607 3.80423 50
      vertex 1.70312 3.61931 50
    endloop
  endfacet
  facet normal 0.368128 0.929775 0
    outer loop
      vertex 1.23607 3.80423 50
      vertex 1.70312 3.61931 -50
      vertex 1.23607 3.80423 -50
    endloop
  endfacet
  facet normal 0.248683 0.968585 -0
    outer loop
      vertex 1.23607 3.80423 -50
      vertex 0.749525 3.92915 50
      vertex 1.23607 3.80423 50
    endloop
  endfacet
  facet normal 0.248683 0.968585 0
    outer loop
      vertex 0.749525 3.92915 50
      vertex 1.23607 3.80423 -50
      vertex 0.749525 3.92915 -50
    endloop
  endfacet
  facet normal 0.587786 0.809017 -0
    outer loop
      vertex 2.5497 3.08205 -50
      vertex 2.14331 3.37731 50
      vertex 2.5497 3.08205 50
    endloop
  endfacet
  facet normal 0.587786 0.809017 0
    outer loop
      vertex 2.14331 3.37731 50
      vertex 2.5497 3.08205 -50
      vertex 2.14331 3.37731 -50
    endloop
  endfacet
  facet normal -0.904824 0.425786 0
    outer loop
      vertex -3.71911 1.4725 -50
      vertex -3.50523 1.92701 50
      vertex -3.50523 1.92701 -50
    endloop
  endfacet
  facet normal -0.904824 0.425786 0
    outer loop
      vertex -3.50523 1.92701 50
      vertex -3.71911 1.4725 -50
      vertex -3.71911 1.4725 50
    endloop
  endfacet
  facet normal -0.770509 0.637429 0
    outer loop
      vertex -3.23607 2.35114 -50
      vertex -2.91587 2.73819 50
      vertex -2.91587 2.73819 -50
    endloop
  endfacet
  facet normal -0.770509 0.637429 0
    outer loop
      vertex -2.91587 2.73819 50
      vertex -3.23607 2.35114 -50
      vertex -3.23607 2.35114 50
    endloop
  endfacet
  facet normal -0.951061 0.309004 0
    outer loop
      vertex -3.87433 0.994759 -50
      vertex -3.71911 1.4725 50
      vertex -3.71911 1.4725 -50
    endloop
  endfacet
  facet normal -0.951061 0.309004 0
    outer loop
      vertex -3.71911 1.4725 50
      vertex -3.87433 0.994759 -50
      vertex -3.87433 0.994759 50
    endloop
  endfacet
  facet normal -0.481759 0.876304 0
    outer loop
      vertex -1.70312 3.61931 -50
      vertex -2.14331 3.37731 50
      vertex -1.70312 3.61931 50
    endloop
  endfacet
  facet normal -0.481759 0.876304 0
    outer loop
      vertex -2.14331 3.37731 50
      vertex -1.70312 3.61931 -50
      vertex -2.14331 3.37731 -50
    endloop
  endfacet
  facet normal -0.248683 0.968585 0
    outer loop
      vertex -0.749525 3.92915 -50
      vertex -1.23607 3.80423 50
      vertex -0.749525 3.92915 50
    endloop
  endfacet
  facet normal -0.248683 0.968585 0
    outer loop
      vertex -1.23607 3.80423 50
      vertex -0.749525 3.92915 -50
      vertex -1.23607 3.80423 -50
    endloop
  endfacet
  facet normal 0.125337 -0.992114 0
    outer loop
      vertex 0.251162 -3.99211 -50
      vertex 0.749525 -3.92915 50
      vertex 0.251162 -3.99211 50
    endloop
  endfacet
  facet normal 0.125337 -0.992114 0
    outer loop
      vertex 0.749525 -3.92915 50
      vertex 0.251162 -3.99211 -50
      vertex 0.749525 -3.92915 -50
    endloop
  endfacet
  facet normal 0.368128 -0.929775 0
    outer loop
      vertex 1.23607 -3.80423 -50
      vertex 1.70312 -3.61931 50
      vertex 1.23607 -3.80423 50
    endloop
  endfacet
  facet normal 0.368128 -0.929775 0
    outer loop
      vertex 1.70312 -3.61931 50
      vertex 1.23607 -3.80423 -50
      vertex 1.70312 -3.61931 -50
    endloop
  endfacet
  facet normal 0.951061 0.309004 0
    outer loop
      vertex 3.87433 0.994759 50
      vertex 3.71911 1.4725 -50
      vertex 3.71911 1.4725 50
    endloop
  endfacet
  facet normal 0.951061 0.309004 0
    outer loop
      vertex 3.71911 1.4725 -50
      vertex 3.87433 0.994759 50
      vertex 3.87433 0.994759 -50
    endloop
  endfacet
  facet normal 0.982286 0.187389 0
    outer loop
      vertex 3.96846 0.501332 50
      vertex 3.87433 0.994759 -50
      vertex 3.87433 0.994759 50
    endloop
  endfacet
  facet normal 0.982286 0.187389 0
    outer loop
      vertex 3.87433 0.994759 -50
      vertex 3.96846 0.501332 50
      vertex 3.96846 0.501332 -50
    endloop
  endfacet
  facet normal 0.770509 0.637429 0
    outer loop
      vertex 3.23607 2.35114 50
      vertex 2.91587 2.73819 -50
      vertex 2.91587 2.73819 50
    endloop
  endfacet
  facet normal 0.770509 0.637429 0
    outer loop
      vertex 2.91587 2.73819 -50
      vertex 3.23607 2.35114 50
      vertex 3.23607 2.35114 -50
    endloop
  endfacet
  facet normal 0.125337 0.992114 -0
    outer loop
      vertex 0.749525 3.92915 -50
      vertex 0.251162 3.99211 50
      vertex 0.749525 3.92915 50
    endloop
  endfacet
  facet normal 0.125337 0.992114 0
    outer loop
      vertex 0.251162 3.99211 50
      vertex 0.749525 3.92915 -50
      vertex 0.251162 3.99211 -50
    endloop
  endfacet
  facet normal 0.481759 0.876304 -0
    outer loop
      vertex 2.14331 3.37731 -50
      vertex 1.70312 3.61931 50
      vertex 2.14331 3.37731 50
    endloop
  endfacet
  facet normal 0.481759 0.876304 0
    outer loop
      vertex 1.70312 3.61931 50
      vertex 2.14331 3.37731 -50
      vertex 1.70312 3.61931 -50
    endloop
  endfacet
  facet normal -0.844329 0.535825 0
    outer loop
      vertex -3.50523 1.92701 -50
      vertex -3.23607 2.35114 50
      vertex -3.23607 2.35114 -50
    endloop
  endfacet
  facet normal -0.844329 0.535825 0
    outer loop
      vertex -3.23607 2.35114 50
      vertex -3.50523 1.92701 -50
      vertex -3.50523 1.92701 50
    endloop
  endfacet
  facet normal -0.982286 0.187389 0
    outer loop
      vertex -3.96846 0.501332 -50
      vertex -3.87433 0.994759 50
      vertex -3.87433 0.994759 -50
    endloop
  endfacet
  facet normal -0.982286 0.187389 0
    outer loop
      vertex -3.87433 0.994759 50
      vertex -3.96846 0.501332 -50
      vertex -3.96846 0.501332 50
    endloop
  endfacet
  facet normal 0 0 1
    outer loop
      vertex 3 0 50
      vertex 4 0 50
      vertex 3.96846 0.501332 50
    endloop
  endfacet
  facet normal 0 0 1
    outer loop
      vertex 2.97634 0.375999 50
      vertex 3.96846 0.501332 50
      vertex 3.87433 0.994759 50
    endloop
  endfacet
  facet normal 0 0 1
    outer loop
      vertex 4 0 50
      vertex 3 0 50
      vertex 3.96846 -0.501332 50
    endloop
  endfacet
  facet normal 0 0 1
    outer loop
      vertex 2.90575 0.746069 50
      vertex 3.87433 0.994759 50
      vertex 3.71911 1.4725 50
    endloop
  endfacet
  facet normal -0 0 1
    outer loop
      vertex 2.97634 -0.375999 50
      vertex 3.96846 -0.501332 50
      vertex 3 0 50
    endloop
  endfacet
  facet normal 0 0 1
    outer loop
      vertex 2.78933 1.10437 50
      vertex 3.71911 1.4725 50
      vertex 3.50523 1.92701 50
    endloop
  endfacet
  facet normal 0 0 1
    outer loop
      vertex 3.96846 -0.501332 50
      vertex 2.97634 -0.375999 50
      vertex 3.87433 -0.994759 50
    endloop
  endfacet
  facet normal 0 0 1
    outer loop
      vertex 2.62892 1.44526 50
      vertex 3.50523 1.92701 50
      vertex 3.23607 2.35114 50
    endloop
  endfacet
  facet normal -0 0 1
    outer loop
      vertex 2.90575 -0.746069 50
      vertex 3.87433 -0.994759 50
      vertex 2.97634 -0.375999 50
    endloop
  endfacet
  facet normal 0 0 1
    outer loop
      vertex 3.87433 -0.994759 50
      vertex 2.90575 -0.746069 50
      vertex 3.71911 -1.4725 50
    endloop
  endfacet
  facet normal 0 0 1
    outer loop
      vertex 3.96846 0.501332 50
      vertex 2.97634 0.375999 50
      vertex 3 0 50
    endloop
  endfacet
  facet normal 0 0 1
    outer loop
      vertex 2.42705 1.76336 50
      vertex 3.23607 2.35114 50
      vertex 2.91587 2.73819 50
    endloop
  endfacet
  facet normal 0 0 1
    outer loop
      vertex 3.87433 0.994759 50
      vertex 2.90575 0.746069 50
      vertex 2.97634 0.375999 50
    endloop
  endfacet
  facet normal 0 0 1
    outer loop
      vertex 3.71911 1.4725 50
      vertex 2.78933 1.10437 50
      vertex 2.90575 0.746069 50
    endloop
  endfacet
  facet normal 0 0 1
    outer loop
      vertex 3.50523 1.92701 50
      vertex 2.62892 1.44526 50
      vertex 2.78933 1.10437 50
    endloop
  endfacet
  facet normal 0 0 1
    outer loop
      vertex 2.18691 2.05364 50
      vertex 2.91587 2.73819 50
      vertex 2.5497 3.08205 50
    endloop
  endfacet
  facet normal 0 0 1
    outer loop
      vertex 3.23607 2.35114 50
      vertex 2.42705 1.76336 50
      vertex 2.62892 1.44526 50
    endloop
  endfacet
  facet normal 0 0 1
    outer loop
      vertex 2.91587 2.73819 50
      vertex 2.18691 2.05364 50
      vertex 2.42705 1.76336 50
    endloop
  endfacet
  facet normal 0 0 1
    outer loop
      vertex 1.91227 2.31154 50
      vertex 2.5497 3.08205 50
      vertex 2.14331 3.37731 50
    endloop
  endfacet
  facet normal 0 0 1
    outer loop
      vertex 2.5497 3.08205 50
      vertex 1.91227 2.31154 50
      vertex 2.18691 2.05364 50
    endloop
  endfacet
  facet normal 0 0 1
    outer loop
      vertex 1.60748 2.53298 50
      vertex 2.14331 3.37731 50
      vertex 1.70312 3.61931 50
    endloop
  endfacet
  facet normal 0 0 1
    outer loop
      vertex 2.14331 3.37731 50
      vertex 1.60748 2.53298 50
      vertex 1.91227 2.31154 50
    endloop
  endfacet
  facet normal 0 0 1
    outer loop
      vertex 1.70312 3.61931 50
      vertex 1.27734 2.71448 50
      vertex 1.60748 2.53298 50
    endloop
  endfacet
  facet normal 0 0 1
    outer loop
      vertex 1.23607 3.80423 50
      vertex 1.27734 2.71448 50
      vertex 1.70312 3.61931 50
    endloop
  endfacet
  facet normal 0 0 1
    outer loop
      vertex 1.23607 3.80423 50
      vertex 0.927051 2.85317 50
      vertex 1.27734 2.71448 50
    endloop
  endfacet
  facet normal 0 0 1
    outer loop
      vertex 0.749525 3.92915 50
      vertex 0.927051 2.85317 50
      vertex 1.23607 3.80423 50
    endloop
  endfacet
  facet normal 0 0 1
    outer loop
      vertex 0.749525 3.92915 50
      vertex 0.562143 2.94686 50
      vertex 0.927051 2.85317 50
    endloop
  endfacet
  facet normal 0 0 1
    outer loop
      vertex 0.251162 3.99211 50
      vertex 0.562143 2.94686 50
      vertex 0.749525 3.92915 50
    endloop
  endfacet
  facet normal 0 0 1
    outer loop
      vertex 0.251162 3.99211 50
      vertex 0.188371 2.99408 50
      vertex 0.562143 2.94686 50
    endloop
  endfacet
  facet normal 0 0 1
    outer loop
      vertex 0.251162 3.99211 50
      vertex -0.188371 2.99408 50
      vertex 0.188371 2.99408 50
    endloop
  endfacet
  facet normal -0 0 1
    outer loop
      vertex -0.251162 3.99211 50
      vertex -0.188371 2.99408 50
      vertex 0.251162 3.99211 50
    endloop
  endfacet
  facet normal 0 0 1
    outer loop
      vertex -0.251162 3.99211 50
      vertex -0.562143 2.94686 50
      vertex -0.188371 2.99408 50
    endloop
  endfacet
  facet normal -0 0 1
    outer loop
      vertex -0.749525 3.92915 50
      vertex -0.562143 2.94686 50
      vertex -0.251162 3.99211 50
    endloop
  endfacet
  facet normal 0 0 1
    outer loop
      vertex -0.749525 3.92915 50
      vertex -0.927051 2.85317 50
      vertex -0.562143 2.94686 50
    endloop
  endfacet
  facet normal -0 0 1
    outer loop
      vertex -1.23607 3.80423 50
      vertex -0.927051 2.85317 50
      vertex -0.749525 3.92915 50
    endloop
  endfacet
  facet normal 0 0 1
    outer loop
      vertex -1.23607 3.80423 50
      vertex -1.27734 2.71448 50
      vertex -0.927051 2.85317 50
    endloop
  endfacet
  facet normal -0 0 1
    outer loop
      vertex -1.70312 3.61931 50
      vertex -1.27734 2.71448 50
      vertex -1.23607 3.80423 50
    endloop
  endfacet
  facet normal 0 0 1
    outer loop
      vertex -1.27734 2.71448 50
      vertex -1.70312 3.61931 50
      vertex -1.60748 2.53298 50
    endloop
  endfacet
  facet normal -0 0 1
    outer loop
      vertex -2.14331 3.37731 50
      vertex -1.60748 2.53298 50
      vertex -1.70312 3.61931 50
    endloop
  endfacet
  facet normal 0 0 1
    outer loop
      vertex -1.60748 2.53298 50
      vertex -2.14331 3.37731 50
      vertex -1.91227 2.31154 50
    endloop
  endfacet
  facet normal -0 0 1
    outer loop
      vertex -2.5497 3.08205 50
      vertex -1.91227 2.31154 50
      vertex -2.14331 3.37731 50
    endloop
  endfacet
  facet normal 0 0 1
    outer loop
      vertex -1.91227 2.31154 50
      vertex -2.5497 3.08205 50
      vertex -2.18691 2.05364 50
    endloop
  endfacet
  facet normal -0 0 1
    outer loop
      vertex -2.91587 2.73819 50
      vertex -2.18691 2.05364 50
      vertex -2.5497 3.08205 50
    endloop
  endfacet
  facet normal 0 0 1
    outer loop
      vertex -2.18691 2.05364 50
      vertex -2.91587 2.73819 50
      vertex -2.42705 1.76336 50
    endloop
  endfacet
  facet normal -0 0 1
    outer loop
      vertex -3.23607 2.35114 50
      vertex -2.42705 1.76336 50
      vertex -2.91587 2.73819 50
    endloop
  endfacet
  facet normal 0 0 1
    outer loop
      vertex -2.42705 1.76336 50
      vertex -3.23607 2.35114 50
      vertex -2.62892 1.44526 50
    endloop
  endfacet
  facet normal -0 0 1
    outer loop
      vertex -3.50523 1.92701 50
      vertex -2.62892 1.44526 50
      vertex -3.23607 2.35114 50
    endloop
  endfacet
  facet normal 0 0 1
    outer loop
      vertex -2.62892 1.44526 50
      vertex -3.50523 1.92701 50
      vertex -2.78933 1.10437 50
    endloop
  endfacet
  facet normal -0 0 1
    outer loop
      vertex -3.71911 1.4725 50
      vertex -2.78933 1.10437 50
      vertex -3.50523 1.92701 50
    endloop
  endfacet
  facet normal 0 0 1
    outer loop
      vertex -2.78933 1.10437 50
      vertex -3.71911 1.4725 50
      vertex -2.90575 0.746069 50
    endloop
  endfacet
  facet normal -0 0 1
    outer loop
      vertex 2.78933 -1.10437 50
      vertex 3.71911 -1.4725 50
      vertex 2.90575 -0.746069 50
    endloop
  endfacet
  facet normal 0 0 1
    outer loop
      vertex 3.71911 -1.4725 50
      vertex 2.78933 -1.10437 50
      vertex 3.50523 -1.92701 50
    endloop
  endfacet
  facet normal -0 0 1
    outer loop
      vertex 2.62892 -1.44526 50
      vertex 3.50523 -1.92701 50
      vertex 2.78933 -1.10437 50
    endloop
  endfacet
  facet normal 0 0 1
    outer loop
      vertex 3.50523 -1.92701 50
      vertex 2.62892 -1.44526 50
      vertex 3.23607 -2.35114 50
    endloop
  endfacet
  facet normal -0 0 1
    outer loop
      vertex 2.42705 -1.76336 50
      vertex 3.23607 -2.35114 50
      vertex 2.62892 -1.44526 50
    endloop
  endfacet
  facet normal 0 0 1
    outer loop
      vertex 3.23607 -2.35114 50
      vertex 2.42705 -1.76336 50
      vertex 2.91587 -2.73819 50
    endloop
  endfacet
  facet normal -0 0 1
    outer loop
      vertex 2.18691 -2.05364 50
      vertex 2.91587 -2.73819 50
      vertex 2.42705 -1.76336 50
    endloop
  endfacet
  facet normal 0 0 1
    outer loop
      vertex 2.91587 -2.73819 50
      vertex 2.18691 -2.05364 50
      vertex 2.5497 -3.08205 50
    endloop
  endfacet
  facet normal -0 0 1
    outer loop
      vertex 1.91227 -2.31154 50
      vertex 2.5497 -3.08205 50
      vertex 2.18691 -2.05364 50
    endloop
  endfacet
  facet normal 0 0 1
    outer loop
      vertex 2.5497 -3.08205 50
      vertex 1.91227 -2.31154 50
      vertex 2.14331 -3.37731 50
    endloop
  endfacet
  facet normal -0 0 1
    outer loop
      vertex 1.60748 -2.53298 50
      vertex 2.14331 -3.37731 50
      vertex 1.91227 -2.31154 50
    endloop
  endfacet
  facet normal 0 0 1
    outer loop
      vertex 2.14331 -3.37731 50
      vertex 1.60748 -2.53298 50
      vertex 1.70312 -3.61931 50
    endloop
  endfacet
  facet normal -0 0 1
    outer loop
      vertex 1.27734 -2.71448 50
      vertex 1.70312 -3.61931 50
      vertex 1.60748 -2.53298 50
    endloop
  endfacet
  facet normal 0 0 1
    outer loop
      vertex 1.27734 -2.71448 50
      vertex 1.23607 -3.80423 50
      vertex 1.70312 -3.61931 50
    endloop
  endfacet
  facet normal -0 0 1
    outer loop
      vertex 0.927051 -2.85317 50
      vertex 1.23607 -3.80423 50
      vertex 1.27734 -2.71448 50
    endloop
  endfacet
  facet normal 0 0 1
    outer loop
      vertex 0.927051 -2.85317 50
      vertex 0.749525 -3.92915 50
      vertex 1.23607 -3.80423 50
    endloop
  endfacet
  facet normal -0 0 1
    outer loop
      vertex 0.562143 -2.94686 50
      vertex 0.749525 -3.92915 50
      vertex 0.927051 -2.85317 50
    endloop
  endfacet
  facet normal 0 0 1
    outer loop
      vertex 0.562143 -2.94686 50
      vertex 0.251162 -3.99211 50
      vertex 0.749525 -3.92915 50
    endloop
  endfacet
  facet normal -0 0 1
    outer loop
      vertex 0.188371 -2.99408 50
      vertex 0.251162 -3.99211 50
      vertex 0.562143 -2.94686 50
    endloop
  endfacet
  facet normal -0 0 1
    outer loop
      vertex -0.188371 -2.99408 50
      vertex 0.251162 -3.99211 50
      vertex 0.188371 -2.99408 50
    endloop
  endfacet
  facet normal 0 0 1
    outer loop
      vertex -0.188371 -2.99408 50
      vertex -0.251162 -3.99211 50
      vertex 0.251162 -3.99211 50
    endloop
  endfacet
  facet normal 0 0 1
    outer loop
      vertex -0.562143 -2.94686 50
      vertex -0.251162 -3.99211 50
      vertex -0.188371 -2.99408 50
    endloop
  endfacet
  facet normal 0 0 1
    outer loop
      vertex -0.562143 -2.94686 50
      vertex -0.749525 -3.92915 50
      vertex -0.251162 -3.99211 50
    endloop
  endfacet
  facet normal 0 0 1
    outer loop
      vertex -0.927051 -2.85317 50
      vertex -0.749525 -3.92915 50
      vertex -0.562143 -2.94686 50
    endloop
  endfacet
  facet normal 0 0 1
    outer loop
      vertex -0.927051 -2.85317 50
      vertex -1.23607 -3.80423 50
      vertex -0.749525 -3.92915 50
    endloop
  endfacet
  facet normal 0 0 1
    outer loop
      vertex -1.27734 -2.71448 50
      vertex -1.23607 -3.80423 50
      vertex -0.927051 -2.85317 50
    endloop
  endfacet
  facet normal 0 0 1
    outer loop
      vertex -1.70312 -3.61931 50
      vertex -1.27734 -2.71448 50
      vertex -1.60748 -2.53298 50
    endloop
  endfacet
  facet normal 0 0 1
    outer loop
      vertex -1.27734 -2.71448 50
      vertex -1.70312 -3.61931 50
      vertex -1.23607 -3.80423 50
    endloop
  endfacet
  facet normal 0 0 1
    outer loop
      vertex -2.14331 -3.37731 50
      vertex -1.60748 -2.53298 50
      vertex -1.91227 -2.31154 50
    endloop
  endfacet
  facet normal 0 0 1
    outer loop
      vertex -1.60748 -2.53298 50
      vertex -2.14331 -3.37731 50
      vertex -1.70312 -3.61931 50
    endloop
  endfacet
  facet normal 0 0 1
    outer loop
      vertex -2.5497 -3.08205 50
      vertex -1.91227 -2.31154 50
      vertex -2.18691 -2.05364 50
    endloop
  endfacet
  facet normal 0 0 1
    outer loop
      vertex -2.91587 -2.73819 50
      vertex -2.18691 -2.05364 50
      vertex -2.42705 -1.76336 50
    endloop
  endfacet
  facet normal 0 0 1
    outer loop
      vertex -1.91227 -2.31154 50
      vertex -2.5497 -3.08205 50
      vertex -2.14331 -3.37731 50
    endloop
  endfacet
  facet normal 0 0 1
    outer loop
      vertex -3.23607 -2.35114 50
      vertex -2.42705 -1.76336 50
      vertex -2.62892 -1.44526 50
    endloop
  endfacet
  facet normal 0 0 1
    outer loop
      vertex -3.50523 -1.92701 50
      vertex -2.62892 -1.44526 50
      vertex -2.78933 -1.10437 50
    endloop
  endfacet
  facet normal 0 0 1
    outer loop
      vertex -3.71911 -1.4725 50
      vertex -2.78933 -1.10437 50
      vertex -2.90575 -0.746069 50
    endloop
  endfacet
  facet normal 0 0 1
    outer loop
      vertex -2.18691 -2.05364 50
      vertex -2.91587 -2.73819 50
      vertex -2.5497 -3.08205 50
    endloop
  endfacet
  facet normal 0 0 1
    outer loop
      vertex -3.87433 -0.994759 50
      vertex -2.90575 -0.746069 50
      vertex -2.97634 -0.375999 50
    endloop
  endfacet
  facet normal 0 0 1
    outer loop
      vertex -3.96846 -0.501332 50
      vertex -2.97634 -0.375999 50
      vertex -3 0 50
    endloop
  endfacet
  facet normal -0 0 1
    outer loop
      vertex -3.87433 0.994759 50
      vertex -2.90575 0.746069 50
      vertex -3.71911 1.4725 50
    endloop
  endfacet
  facet normal 0 0 1
    outer loop
      vertex -2.42705 -1.76336 50
      vertex -3.23607 -2.35114 50
      vertex -2.91587 -2.73819 50
    endloop
  endfacet
  facet normal 0 0 1
    outer loop
      vertex -2.90575 0.746069 50
      vertex -3.87433 0.994759 50
      vertex -2.97634 0.375999 50
    endloop
  endfacet
  facet normal 0 0 1
    outer loop
      vertex -2.62892 -1.44526 50
      vertex -3.50523 -1.92701 50
      vertex -3.23607 -2.35114 50
    endloop
  endfacet
  facet normal -0 0 1
    outer loop
      vertex -3.96846 0.501332 50
      vertex -2.97634 0.375999 50
      vertex -3.87433 0.994759 50
    endloop
  endfacet
  facet normal 0 0 1
    outer loop
      vertex -2.78933 -1.10437 50
      vertex -3.71911 -1.4725 50
      vertex -3.50523 -1.92701 50
    endloop
  endfacet
  facet normal 0 0 1
    outer loop
      vertex -2.97634 0.375999 50
      vertex -3.96846 0.501332 50
      vertex -3 0 50
    endloop
  endfacet
  facet normal 0 0 1
    outer loop
      vertex -2.90575 -0.746069 50
      vertex -3.87433 -0.994759 50
      vertex -3.71911 -1.4725 50
    endloop
  endfacet
  facet normal 0 0 1
    outer loop
      vertex -4 0 50
      vertex -3 0 50
      vertex -3.96846 0.501332 50
    endloop
  endfacet
  facet normal 0 0 1
    outer loop
      vertex -2.97634 -0.375999 50
      vertex -3.96846 -0.501332 50
      vertex -3.87433 -0.994759 50
    endloop
  endfacet
  facet normal 0 0 1
    outer loop
      vertex -3 0 50
      vertex -4 0 50
      vertex -3.96846 -0.501332 50
    endloop
  endfacet
  facet normal -0.587786 0.809017 0
    outer loop
      vertex -2.14331 3.37731 -50
      vertex -2.5497 3.08205 50
      vertex -2.14331 3.37731 50
    endloop
  endfacet
  facet normal -0.587786 0.809017 0
    outer loop
      vertex -2.5497 3.08205 50
      vertex -2.14331 3.37731 -50
      vertex -2.5497 3.08205 -50
    endloop
  endfacet
  facet normal -0.125337 0.992114 0
    outer loop
      vertex -0.251162 3.99211 -50
      vertex -0.749525 3.92915 50
      vertex -0.251162 3.99211 50
    endloop
  endfacet
  facet normal -0.125337 0.992114 0
    outer loop
      vertex -0.749525 3.92915 50
      vertex -0.251162 3.99211 -50
      vertex -0.749525 3.92915 -50
    endloop
  endfacet
  facet normal 0.998027 -0.0627883 0
    outer loop
      vertex 3.96846 -0.501332 50
      vertex 4 0 -50
      vertex 4 0 50
    endloop
  endfacet
  facet normal 0.998027 -0.0627883 0
    outer loop
      vertex 4 0 -50
      vertex 3.96846 -0.501332 50
      vertex 3.96846 -0.501332 -50
    endloop
  endfacet
  facet normal 0.481759 -0.876304 0
    outer loop
      vertex 1.70312 -3.61931 -50
      vertex 2.14331 -3.37731 50
      vertex 1.70312 -3.61931 50
    endloop
  endfacet
  facet normal 0.481759 -0.876304 0
    outer loop
      vertex 2.14331 -3.37731 50
      vertex 1.70312 -3.61931 -50
      vertex 2.14331 -3.37731 -50
    endloop
  endfacet
  facet normal 0.770509 -0.637429 0
    outer loop
      vertex 2.91587 -2.73819 50
      vertex 3.23607 -2.35114 -50
      vertex 3.23607 -2.35114 50
    endloop
  endfacet
  facet normal 0.770509 -0.637429 0
    outer loop
      vertex 3.23607 -2.35114 -50
      vertex 2.91587 -2.73819 50
      vertex 2.91587 -2.73819 -50
    endloop
  endfacet
  facet normal 0.951061 -0.309004 0
    outer loop
      vertex 3.71911 -1.4725 50
      vertex 3.87433 -0.994759 -50
      vertex 3.87433 -0.994759 50
    endloop
  endfacet
  facet normal 0.951061 -0.309004 0
    outer loop
      vertex 3.87433 -0.994759 -50
      vertex 3.71911 -1.4725 50
      vertex 3.71911 -1.4725 -50
    endloop
  endfacet
  facet normal 0.982286 -0.187389 0
    outer loop
      vertex 3.87433 -0.994759 50
      vertex 3.96846 -0.501332 -50
      vertex 3.96846 -0.501332 50
    endloop
  endfacet
  facet normal 0.982286 -0.187389 0
    outer loop
      vertex 3.96846 -0.501332 -50
      vertex 3.87433 -0.994759 50
      vertex 3.87433 -0.994759 -50
    endloop
  endfacet
  facet normal -0.684551 -0.728965 0
    outer loop
      vertex -2.91587 -2.73819 -50
      vertex -2.5497 -3.08205 50
      vertex -2.91587 -2.73819 50
    endloop
  endfacet
  facet normal -0.684551 -0.728965 -0
    outer loop
      vertex -2.5497 -3.08205 50
      vertex -2.91587 -2.73819 -50
      vertex -2.5497 -3.08205 -50
    endloop
  endfacet
  facet normal -0.904824 -0.425786 0
    outer loop
      vertex -3.50523 -1.92701 -50
      vertex -3.71911 -1.4725 50
      vertex -3.71911 -1.4725 -50
    endloop
  endfacet
  facet normal -0.904824 -0.425786 0
    outer loop
      vertex -3.71911 -1.4725 50
      vertex -3.50523 -1.92701 -50
      vertex -3.50523 -1.92701 50
    endloop
  endfacet
  facet normal -0.770509 -0.637429 0
    outer loop
      vertex -2.91587 -2.73819 -50
      vertex -3.23607 -2.35114 50
      vertex -3.23607 -2.35114 -50
    endloop
  endfacet
  facet normal -0.770509 -0.637429 0
    outer loop
      vertex -3.23607 -2.35114 50
      vertex -2.91587 -2.73819 -50
      vertex -2.91587 -2.73819 50
    endloop
  endfacet
  facet normal 0 0 -1
    outer loop
      vertex 3 0 -50
      vertex 4 0 -50
      vertex 3.96846 -0.501332 -50
    endloop
  endfacet
  facet normal 0 0 -1
    outer loop
      vertex 2.97634 -0.375999 -50
      vertex 3.96846 -0.501332 -50
      vertex 3.87433 -0.994759 -50
    endloop
  endfacet
  facet normal 0 0 -1
    outer loop
      vertex 4 0 -50
      vertex 3 0 -50
      vertex 3.96846 0.501332 -50
    endloop
  endfacet
  facet normal 0 0 -1
    outer loop
      vertex 2.90575 -0.746069 -50
      vertex 3.87433 -0.994759 -50
      vertex 3.71911 -1.4725 -50
    endloop
  endfacet
  facet normal 0 0 -1
    outer loop
      vertex 2.97634 0.375999 -50
      vertex 3.96846 0.501332 -50
      vertex 3 0 -50
    endloop
  endfacet
  facet normal 0 0 -1
    outer loop
      vertex 2.78933 -1.10437 -50
      vertex 3.71911 -1.4725 -50
      vertex 3.50523 -1.92701 -50
    endloop
  endfacet
  facet normal -0 0 -1
    outer loop
      vertex 3.96846 0.501332 -50
      vertex 2.97634 0.375999 -50
      vertex 3.87433 0.994759 -50
    endloop
  endfacet
  facet normal 0 0 -1
    outer loop
      vertex 2.62892 -1.44526 -50
      vertex 3.50523 -1.92701 -50
      vertex 3.23607 -2.35114 -50
    endloop
  endfacet
  facet normal 0 0 -1
    outer loop
      vertex 2.90575 0.746069 -50
      vertex 3.87433 0.994759 -50
      vertex 2.97634 0.375999 -50
    endloop
  endfacet
  facet normal -0 0 -1
    outer loop
      vertex 3.87433 0.994759 -50
      vertex 2.90575 0.746069 -50
      vertex 3.71911 1.4725 -50
    endloop
  endfacet
  facet normal 0 0 -1
    outer loop
      vertex 3.96846 -0.501332 -50
      vertex 2.97634 -0.375999 -50
      vertex 3 0 -50
    endloop
  endfacet
  facet normal 0 0 -1
    outer loop
      vertex 2.42705 -1.76336 -50
      vertex 3.23607 -2.35114 -50
      vertex 2.91587 -2.73819 -50
    endloop
  endfacet
  facet normal 0 0 -1
    outer loop
      vertex 3.87433 -0.994759 -50
      vertex 2.90575 -0.746069 -50
      vertex 2.97634 -0.375999 -50
    endloop
  endfacet
  facet normal 0 0 -1
    outer loop
      vertex 3.71911 -1.4725 -50
      vertex 2.78933 -1.10437 -50
      vertex 2.90575 -0.746069 -50
    endloop
  endfacet
  facet normal 0 0 -1
    outer loop
      vertex 3.50523 -1.92701 -50
      vertex 2.62892 -1.44526 -50
      vertex 2.78933 -1.10437 -50
    endloop
  endfacet
  facet normal 0 0 -1
    outer loop
      vertex 2.18691 -2.05364 -50
      vertex 2.91587 -2.73819 -50
      vertex 2.5497 -3.08205 -50
    endloop
  endfacet
  facet normal 0 0 -1
    outer loop
      vertex 3.23607 -2.35114 -50
      vertex 2.42705 -1.76336 -50
      vertex 2.62892 -1.44526 -50
    endloop
  endfacet
  facet normal 0 0 -1
    outer loop
      vertex 2.91587 -2.73819 -50
      vertex 2.18691 -2.05364 -50
      vertex 2.42705 -1.76336 -50
    endloop
  endfacet
  facet normal 0 0 -1
    outer loop
      vertex 1.91227 -2.31154 -50
      vertex 2.5497 -3.08205 -50
      vertex 2.14331 -3.37731 -50
    endloop
  endfacet
  facet normal 0 0 -1
    outer loop
      vertex 2.5497 -3.08205 -50
      vertex 1.91227 -2.31154 -50
      vertex 2.18691 -2.05364 -50
    endloop
  endfacet
  facet normal 0 0 -1
    outer loop
      vertex 1.60748 -2.53298 -50
      vertex 2.14331 -3.37731 -50
      vertex 1.70312 -3.61931 -50
    endloop
  endfacet
  facet normal 0 0 -1
    outer loop
      vertex 2.14331 -3.37731 -50
      vertex 1.60748 -2.53298 -50
      vertex 1.91227 -2.31154 -50
    endloop
  endfacet
  facet normal 0 0 -1
    outer loop
      vertex 1.70312 -3.61931 -50
      vertex 1.27734 -2.71448 -50
      vertex 1.60748 -2.53298 -50
    endloop
  endfacet
  facet normal 0 0 -1
    outer loop
      vertex 1.23607 -3.80423 -50
      vertex 1.27734 -2.71448 -50
      vertex 1.70312 -3.61931 -50
    endloop
  endfacet
  facet normal 0 0 -1
    outer loop
      vertex 1.23607 -3.80423 -50
      vertex 0.927051 -2.85317 -50
      vertex 1.27734 -2.71448 -50
    endloop
  endfacet
  facet normal 0 0 -1
    outer loop
      vertex 0.749525 -3.92915 -50
      vertex 0.927051 -2.85317 -50
      vertex 1.23607 -3.80423 -50
    endloop
  endfacet
  facet normal 0 0 -1
    outer loop
      vertex 0.749525 -3.92915 -50
      vertex 0.562143 -2.94686 -50
      vertex 0.927051 -2.85317 -50
    endloop
  endfacet
  facet normal 0 0 -1
    outer loop
      vertex 0.251162 -3.99211 -50
      vertex 0.562143 -2.94686 -50
      vertex 0.749525 -3.92915 -50
    endloop
  endfacet
  facet normal 0 0 -1
    outer loop
      vertex 0.251162 -3.99211 -50
      vertex 0.188371 -2.99408 -50
      vertex 0.562143 -2.94686 -50
    endloop
  endfacet
  facet normal 0 0 -1
    outer loop
      vertex 0.251162 -3.99211 -50
      vertex -0.188371 -2.99408 -50
      vertex 0.188371 -2.99408 -50
    endloop
  endfacet
  facet normal 0 0 -1
    outer loop
      vertex -0.251162 -3.99211 -50
      vertex -0.188371 -2.99408 -50
      vertex 0.251162 -3.99211 -50
    endloop
  endfacet
  facet normal 0 0 -1
    outer loop
      vertex -0.251162 -3.99211 -50
      vertex -0.562143 -2.94686 -50
      vertex -0.188371 -2.99408 -50
    endloop
  endfacet
  facet normal 0 0 -1
    outer loop
      vertex -0.749525 -3.92915 -50
      vertex -0.562143 -2.94686 -50
      vertex -0.251162 -3.99211 -50
    endloop
  endfacet
  facet normal 0 0 -1
    outer loop
      vertex -0.749525 -3.92915 -50
      vertex -0.927051 -2.85317 -50
      vertex -0.562143 -2.94686 -50
    endloop
  endfacet
  facet normal 0 0 -1
    outer loop
      vertex -1.23607 -3.80423 -50
      vertex -0.927051 -2.85317 -50
      vertex -0.749525 -3.92915 -50
    endloop
  endfacet
  facet normal 0 0 -1
    outer loop
      vertex -1.23607 -3.80423 -50
      vertex -1.27734 -2.71448 -50
      vertex -0.927051 -2.85317 -50
    endloop
  endfacet
  facet normal 0 0 -1
    outer loop
      vertex -1.70312 -3.61931 -50
      vertex -1.27734 -2.71448 -50
      vertex -1.23607 -3.80423 -50
    endloop
  endfacet
  facet normal -0 0 -1
    outer loop
      vertex -1.27734 -2.71448 -50
      vertex -1.70312 -3.61931 -50
      vertex -1.60748 -2.53298 -50
    endloop
  endfacet
  facet normal 0 0 -1
    outer loop
      vertex -2.14331 -3.37731 -50
      vertex -1.60748 -2.53298 -50
      vertex -1.70312 -3.61931 -50
    endloop
  endfacet
  facet normal -0 0 -1
    outer loop
      vertex -1.60748 -2.53298 -50
      vertex -2.14331 -3.37731 -50
      vertex -1.91227 -2.31154 -50
    endloop
  endfacet
  facet normal 0 0 -1
    outer loop
      vertex -2.5497 -3.08205 -50
      vertex -1.91227 -2.31154 -50
      vertex -2.14331 -3.37731 -50
    endloop
  endfacet
  facet normal -0 0 -1
    outer loop
      vertex -1.91227 -2.31154 -50
      vertex -2.5497 -3.08205 -50
      vertex -2.18691 -2.05364 -50
    endloop
  endfacet
  facet normal 0 0 -1
    outer loop
      vertex -2.91587 -2.73819 -50
      vertex -2.18691 -2.05364 -50
      vertex -2.5497 -3.08205 -50
    endloop
  endfacet
  facet normal -0 0 -1
    outer loop
      vertex -2.18691 -2.05364 -50
      vertex -2.91587 -2.73819 -50
      vertex -2.42705 -1.76336 -50
    endloop
  endfacet
  facet normal 0 0 -1
    outer loop
      vertex -3.23607 -2.35114 -50
      vertex -2.42705 -1.76336 -50
      vertex -2.91587 -2.73819 -50
    endloop
  endfacet
  facet normal -0 0 -1
    outer loop
      vertex -2.42705 -1.76336 -50
      vertex -3.23607 -2.35114 -50
      vertex -2.62892 -1.44526 -50
    endloop
  endfacet
  facet normal 0 0 -1
    outer loop
      vertex -3.50523 -1.92701 -50
      vertex -2.62892 -1.44526 -50
      vertex -3.23607 -2.35114 -50
    endloop
  endfacet
  facet normal -0 0 -1
    outer loop
      vertex -2.62892 -1.44526 -50
      vertex -3.50523 -1.92701 -50
      vertex -2.78933 -1.10437 -50
    endloop
  endfacet
  facet normal 0 0 -1
    outer loop
      vertex -3.71911 -1.4725 -50
      vertex -2.78933 -1.10437 -50
      vertex -3.50523 -1.92701 -50
    endloop
  endfacet
  facet normal -0 0 -1
    outer loop
      vertex -2.78933 -1.10437 -50
      vertex -3.71911 -1.4725 -50
      vertex -2.90575 -0.746069 -50
    endloop
  endfacet
  facet normal 0 0 -1
    outer loop
      vertex 2.78933 1.10437 -50
      vertex 3.71911 1.4725 -50
      vertex 2.90575 0.746069 -50
    endloop
  endfacet
  facet normal -0 0 -1
    outer loop
      vertex 3.71911 1.4725 -50
      vertex 2.78933 1.10437 -50
      vertex 3.50523 1.92701 -50
    endloop
  endfacet
  facet normal 0 0 -1
    outer loop
      vertex 2.62892 1.44526 -50
      vertex 3.50523 1.92701 -50
      vertex 2.78933 1.10437 -50
    endloop
  endfacet
  facet normal -0 0 -1
    outer loop
      vertex 3.50523 1.92701 -50
      vertex 2.62892 1.44526 -50
      vertex 3.23607 2.35114 -50
    endloop
  endfacet
  facet normal 0 0 -1
    outer loop
      vertex 2.42705 1.76336 -50
      vertex 3.23607 2.35114 -50
      vertex 2.62892 1.44526 -50
    endloop
  endfacet
  facet normal -0 0 -1
    outer loop
      vertex 3.23607 2.35114 -50
      vertex 2.42705 1.76336 -50
      vertex 2.91587 2.73819 -50
    endloop
  endfacet
  facet normal 0 0 -1
    outer loop
      vertex 2.18691 2.05364 -50
      vertex 2.91587 2.73819 -50
      vertex 2.42705 1.76336 -50
    endloop
  endfacet
  facet normal -0 0 -1
    outer loop
      vertex 2.91587 2.73819 -50
      vertex 2.18691 2.05364 -50
      vertex 2.5497 3.08205 -50
    endloop
  endfacet
  facet normal 0 0 -1
    outer loop
      vertex 1.91227 2.31154 -50
      vertex 2.5497 3.08205 -50
      vertex 2.18691 2.05364 -50
    endloop
  endfacet
  facet normal -0 0 -1
    outer loop
      vertex 2.5497 3.08205 -50
      vertex 1.91227 2.31154 -50
      vertex 2.14331 3.37731 -50
    endloop
  endfacet
  facet normal 0 0 -1
    outer loop
      vertex 1.60748 2.53298 -50
      vertex 2.14331 3.37731 -50
      vertex 1.91227 2.31154 -50
    endloop
  endfacet
  facet normal -0 0 -1
    outer loop
      vertex 2.14331 3.37731 -50
      vertex 1.60748 2.53298 -50
      vertex 1.70312 3.61931 -50
    endloop
  endfacet
  facet normal 0 0 -1
    outer loop
      vertex 1.27734 2.71448 -50
      vertex 1.70312 3.61931 -50
      vertex 1.60748 2.53298 -50
    endloop
  endfacet
  facet normal 0 0 -1
    outer loop
      vertex 1.27734 2.71448 -50
      vertex 1.23607 3.80423 -50
      vertex 1.70312 3.61931 -50
    endloop
  endfacet
  facet normal 0 0 -1
    outer loop
      vertex 0.927051 2.85317 -50
      vertex 1.23607 3.80423 -50
      vertex 1.27734 2.71448 -50
    endloop
  endfacet
  facet normal 0 0 -1
    outer loop
      vertex 0.927051 2.85317 -50
      vertex 0.749525 3.92915 -50
      vertex 1.23607 3.80423 -50
    endloop
  endfacet
  facet normal 0 0 -1
    outer loop
      vertex 0.562143 2.94686 -50
      vertex 0.749525 3.92915 -50
      vertex 0.927051 2.85317 -50
    endloop
  endfacet
  facet normal 0 0 -1
    outer loop
      vertex 0.562143 2.94686 -50
      vertex 0.251162 3.99211 -50
      vertex 0.749525 3.92915 -50
    endloop
  endfacet
  facet normal 0 0 -1
    outer loop
      vertex 0.188371 2.99408 -50
      vertex 0.251162 3.99211 -50
      vertex 0.562143 2.94686 -50
    endloop
  endfacet
  facet normal 0 0 -1
    outer loop
      vertex -0.188371 2.99408 -50
      vertex 0.251162 3.99211 -50
      vertex 0.188371 2.99408 -50
    endloop
  endfacet
  facet normal 0 0 -1
    outer loop
      vertex -0.188371 2.99408 -50
      vertex -0.251162 3.99211 -50
      vertex 0.251162 3.99211 -50
    endloop
  endfacet
  facet normal 0 0 -1
    outer loop
      vertex -0.562143 2.94686 -50
      vertex -0.251162 3.99211 -50
      vertex -0.188371 2.99408 -50
    endloop
  endfacet
  facet normal 0 0 -1
    outer loop
      vertex -0.562143 2.94686 -50
      vertex -0.749525 3.92915 -50
      vertex -0.251162 3.99211 -50
    endloop
  endfacet
  facet normal 0 0 -1
    outer loop
      vertex -0.927051 2.85317 -50
      vertex -0.749525 3.92915 -50
      vertex -0.562143 2.94686 -50
    endloop
  endfacet
  facet normal 0 0 -1
    outer loop
      vertex -0.927051 2.85317 -50
      vertex -1.23607 3.80423 -50
      vertex -0.749525 3.92915 -50
    endloop
  endfacet
  facet normal 0 0 -1
    outer loop
      vertex -1.27734 2.71448 -50
      vertex -1.23607 3.80423 -50
      vertex -0.927051 2.85317 -50
    endloop
  endfacet
  facet normal 0 0 -1
    outer loop
      vertex -1.70312 3.61931 -50
      vertex -1.27734 2.71448 -50
      vertex -1.60748 2.53298 -50
    endloop
  endfacet
  facet normal 0 0 -1
    outer loop
      vertex -1.27734 2.71448 -50
      vertex -1.70312 3.61931 -50
      vertex -1.23607 3.80423 -50
    endloop
  endfacet
  facet normal 0 0 -1
    outer loop
      vertex -2.14331 3.37731 -50
      vertex -1.60748 2.53298 -50
      vertex -1.91227 2.31154 -50
    endloop
  endfacet
  facet normal 0 0 -1
    outer loop
      vertex -1.60748 2.53298 -50
      vertex -2.14331 3.37731 -50
      vertex -1.70312 3.61931 -50
    endloop
  endfacet
  facet normal 0 0 -1
    outer loop
      vertex -2.5497 3.08205 -50
      vertex -1.91227 2.31154 -50
      vertex -2.18691 2.05364 -50
    endloop
  endfacet
  facet normal 0 0 -1
    outer loop
      vertex -2.91587 2.73819 -50
      vertex -2.18691 2.05364 -50
      vertex -2.42705 1.76336 -50
    endloop
  endfacet
  facet normal 0 0 -1
    outer loop
      vertex -1.91227 2.31154 -50
      vertex -2.5497 3.08205 -50
      vertex -2.14331 3.37731 -50
    endloop
  endfacet
  facet normal 0 0 -1
    outer loop
      vertex -3.23607 2.35114 -50
      vertex -2.42705 1.76336 -50
      vertex -2.62892 1.44526 -50
    endloop
  endfacet
  facet normal 0 0 -1
    outer loop
      vertex -3.50523 1.92701 -50
      vertex -2.62892 1.44526 -50
      vertex -2.78933 1.10437 -50
    endloop
  endfacet
  facet normal 0 0 -1
    outer loop
      vertex -3.71911 1.4725 -50
      vertex -2.78933 1.10437 -50
      vertex -2.90575 0.746069 -50
    endloop
  endfacet
  facet normal 0 0 -1
    outer loop
      vertex -2.18691 2.05364 -50
      vertex -2.91587 2.73819 -50
      vertex -2.5497 3.08205 -50
    endloop
  endfacet
  facet normal 0 0 -1
    outer loop
      vertex -3.87433 0.994759 -50
      vertex -2.90575 0.746069 -50
      vertex -2.97634 0.375999 -50
    endloop
  endfacet
  facet normal 0 0 -1
    outer loop
      vertex -3.96846 0.501332 -50
      vertex -2.97634 0.375999 -50
      vertex -3 0 -50
    endloop
  endfacet
  facet normal 0 0 -1
    outer loop
      vertex -3.87433 -0.994759 -50
      vertex -2.90575 -0.746069 -50
      vertex -3.71911 -1.4725 -50
    endloop
  endfacet
  facet normal 0 0 -1
    outer loop
      vertex -2.42705 1.76336 -50
      vertex -3.23607 2.35114 -50
      vertex -2.91587 2.73819 -50
    endloop
  endfacet
  facet normal -0 0 -1
    outer loop
      vertex -2.90575 -0.746069 -50
      vertex -3.87433 -0.994759 -50
      vertex -2.97634 -0.375999 -50
    endloop
  endfacet
  facet normal 0 0 -1
    outer loop
      vertex -2.62892 1.44526 -50
      vertex -3.50523 1.92701 -50
      vertex -3.23607 2.35114 -50
    endloop
  endfacet
  facet normal 0 0 -1
    outer loop
      vertex -3.96846 -0.501332 -50
      vertex -2.97634 -0.375999 -50
      vertex -3.87433 -0.994759 -50
    endloop
  endfacet
  facet normal 0 0 -1
    outer loop
      vertex -2.78933 1.10437 -50
      vertex -3.71911 1.4725 -50
      vertex -3.50523 1.92701 -50
    endloop
  endfacet
  facet normal -0 0 -1
    outer loop
      vertex -2.97634 -0.375999 -50
      vertex -3.96846 -0.501332 -50
      vertex -3 0 -50
    endloop
  endfacet
  facet normal 0 0 -1
    outer loop
      vertex -2.90575 0.746069 -50
      vertex -3.87433 0.994759 -50
      vertex -3.71911 1.4725 -50
    endloop
  endfacet
  facet normal 0 0 -1
    outer loop
      vertex -4 0 -50
      vertex -3 0 -50
      vertex -3.96846 -0.501332 -50
    endloop
  endfacet
  facet normal 0 0 -1
    outer loop
      vertex -2.97634 0.375999 -50
      vertex -3.96846 0.501332 -50
      vertex -3.87433 0.994759 -50
    endloop
  endfacet
  facet normal 0 0 -1
    outer loop
      vertex -3 0 -50
      vertex -4 0 -50
      vertex -3.96846 0.501332 -50
    endloop
  endfacet
  facet normal 0.844329 -0.535825 0
    outer loop
      vertex 3.23607 -2.35114 50
      vertex 3.50523 -1.92701 -50
      vertex 3.50523 -1.92701 50
    endloop
  endfacet
  facet normal 0.844329 -0.535825 0
    outer loop
      vertex 3.50523 -1.92701 -50
      vertex 3.23607 -2.35114 50
      vertex 3.23607 -2.35114 -50
    endloop
  endfacet
  facet normal -0.248683 -0.968585 0
    outer loop
      vertex -1.23607 -3.80423 -50
      vertex -0.749525 -3.92915 50
      vertex -1.23607 -3.80423 50
    endloop
  endfacet
  facet normal -0.248683 -0.968585 -0
    outer loop
      vertex -0.749525 -3.92915 50
      vertex -1.23607 -3.80423 -50
      vertex -0.749525 -3.92915 -50
    endloop
  endfacet
  facet normal -0.951061 -0.309004 0
    outer loop
      vertex -3.71911 -1.4725 -50
      vertex -3.87433 -0.994759 50
      vertex -3.87433 -0.994759 -50
    endloop
  endfacet
  facet normal -0.951061 -0.309004 0
    outer loop
      vertex -3.87433 -0.994759 50
      vertex -3.71911 -1.4725 -50
      vertex -3.71911 -1.4725 50
    endloop
  endfacet
  facet normal 0.248683 -0.968585 0
    outer loop
      vertex 0.749525 -3.92915 -50
      vertex 1.23607 -3.80423 50
      vertex 0.749525 -3.92915 50
    endloop
  endfacet
  facet normal 0.248683 -0.968585 0
    outer loop
      vertex 1.23607 -3.80423 50
      vertex 0.749525 -3.92915 -50
      vertex 1.23607 -3.80423 -50
    endloop
  endfacet
  facet normal 0.684551 -0.728965 0
    outer loop
      vertex 2.5497 -3.08205 -50
      vertex 2.91587 -2.73819 50
      vertex 2.5497 -3.08205 50
    endloop
  endfacet
  facet normal 0.684551 -0.728965 0
    outer loop
      vertex 2.91587 -2.73819 50
      vertex 2.5497 -3.08205 -50
      vertex 2.91587 -2.73819 -50
    endloop
  endfacet
  facet normal 0.587786 -0.809017 0
    outer loop
      vertex 2.14331 -3.37731 -50
      vertex 2.5497 -3.08205 50
      vertex 2.14331 -3.37731 50
    endloop
  endfacet
  facet normal 0.587786 -0.809017 0
    outer loop
      vertex 2.5497 -3.08205 50
      vertex 2.14331 -3.37731 -50
      vertex 2.5497 -3.08205 -50
    endloop
  endfacet
  facet normal 0.904824 -0.425786 0
    outer loop
      vertex 3.50523 -1.92701 50
      vertex 3.71911 -1.4725 -50
      vertex 3.71911 -1.4725 50
    endloop
  endfacet
  facet normal 0.904824 -0.425786 0
    outer loop
      vertex 3.71911 -1.4725 -50
      vertex 3.50523 -1.92701 50
      vertex 3.50523 -1.92701 -50
    endloop
  endfacet
  facet normal -0.125337 -0.992114 0
    outer loop
      vertex -0.749525 -3.92915 -50
      vertex -0.251162 -3.99211 50
      vertex -0.749525 -3.92915 50
    endloop
  endfacet
  facet normal -0.125337 -0.992114 -0
    outer loop
      vertex -0.251162 -3.99211 50
      vertex -0.749525 -3.92915 -50
      vertex -0.251162 -3.99211 -50
    endloop
  endfacet
  facet normal -0.368128 -0.929775 0
    outer loop
      vertex -1.70312 -3.61931 -50
      vertex -1.23607 -3.80423 50
      vertex -1.70312 -3.61931 50
    endloop
  endfacet
  facet normal -0.368128 -0.929775 -0
    outer loop
      vertex -1.23607 -3.80423 50
      vertex -1.70312 -3.61931 -50
      vertex -1.23607 -3.80423 -50
    endloop
  endfacet
  facet normal -0.844329 -0.535825 0
    outer loop
      vertex -3.23607 -2.35114 -50
      vertex -3.50523 -1.92701 50
      vertex -3.50523 -1.92701 -50
    endloop
  endfacet
  facet normal -0.844329 -0.535825 0
    outer loop
      vertex -3.50523 -1.92701 50
      vertex -3.23607 -2.35114 -50
      vertex -3.23607 -2.35114 50
    endloop
  endfacet
  facet normal -0.982286 -0.187389 0
    outer loop
      vertex -3.87433 -0.994759 -50
      vertex -3.96846 -0.501332 50
      vertex -3.96846 -0.501332 -50
    endloop
  endfacet
  facet normal -0.982286 -0.187389 0
    outer loop
      vertex -3.96846 -0.501332 50
      vertex -3.87433 -0.994759 -50
      vertex -3.87433 -0.994759 50
    endloop
  endfacet
  facet normal -0.998027 -0.0627883 0
    outer loop
      vertex -3.96846 -0.501332 -50
      vertex -4 0 50
      vertex -4 0 -50
    endloop
  endfacet
  facet normal -0.998027 -0.0627883 0
    outer loop
      vertex -4 0 50
      vertex -3.96846 -0.501332 -50
      vertex -3.96846 -0.501332 50
    endloop
  endfacet
  facet normal -0.481759 -0.876304 0
    outer loop
      vertex -2.14331 -3.37731 -50
      vertex -1.70312 -3.61931 50
      vertex -2.14331 -3.37731 50
    endloop
  endfacet
  facet normal -0.481759 -0.876304 -0
    outer loop
      vertex -1.70312 -3.61931 50
      vertex -2.14331 -3.37731 -50
      vertex -1.70312 -3.61931 -50
    endloop
  endfacet
  facet normal -0.587786 -0.809017 0
    outer loop
      vertex -2.5497 -3.08205 -50
      vertex -2.14331 -3.37731 50
      vertex -2.5497 -3.08205 50
    endloop
  endfacet
  facet normal -0.587786 -0.809017 -0
    outer loop
      vertex -2.14331 -3.37731 50
      vertex -2.5497 -3.08205 -50
      vertex -2.14331 -3.37731 -50
    endloop
  endfacet
  facet normal -0.998026 -0.0628015 0
    outer loop
      vertex 3 0 -50
      vertex 2.97634 0.375999 50
      vertex 2.97634 0.375999 -50
    endloop
  endfacet
  facet normal -0.998026 -0.0628015 0
    outer loop
      vertex 2.97634 0.375999 50
      vertex 3 0 -50
      vertex 3 0 50
    endloop
  endfacet
  facet normal 0.998026 -0.0628015 0
    outer loop
      vertex -3 0 50
      vertex -2.97634 0.375999 -50
      vertex -2.97634 0.375999 50
    endloop
  endfacet
  facet normal 0.998026 -0.0628015 0
    outer loop
      vertex -2.97634 0.375999 -50
      vertex -3 0 50
      vertex -3 0 -50
    endloop
  endfacet
  facet normal 0 -1 0
    outer loop
      vertex -0.188371 2.99408 -50
      vertex 0.188371 2.99408 50
      vertex -0.188371 2.99408 50
    endloop
  endfacet
  facet normal 0 -1 -0
    outer loop
      vertex 0.188371 2.99408 50
      vertex -0.188371 2.99408 -50
      vertex 0.188371 2.99408 -50
    endloop
  endfacet
  facet normal 0 1 -0
    outer loop
      vertex 0.188371 -2.99408 -50
      vertex -0.188371 -2.99408 50
      vertex 0.188371 -2.99408 50
    endloop
  endfacet
  facet normal 0 1 0
    outer loop
      vertex -0.188371 -2.99408 50
      vertex 0.188371 -2.99408 -50
      vertex -0.188371 -2.99408 -50
    endloop
  endfacet
  facet normal -0.684541 -0.728974 0
    outer loop
      vertex 1.91227 2.31154 -50
      vertex 2.18691 2.05364 50
      vertex 1.91227 2.31154 50
    endloop
  endfacet
  facet normal -0.684541 -0.728974 -0
    outer loop
      vertex 2.18691 2.05364 50
      vertex 1.91227 2.31154 -50
      vertex 2.18691 2.05364 -50
    endloop
  endfacet
  facet normal 0.684541 -0.728974 0
    outer loop
      vertex -2.18691 2.05364 -50
      vertex -1.91227 2.31154 50
      vertex -2.18691 2.05364 50
    endloop
  endfacet
  facet normal 0.684541 -0.728974 0
    outer loop
      vertex -1.91227 2.31154 50
      vertex -2.18691 2.05364 -50
      vertex -1.91227 2.31154 -50
    endloop
  endfacet
  facet normal 0.368126 -0.929776 0
    outer loop
      vertex -1.27734 2.71448 -50
      vertex -0.927051 2.85317 50
      vertex -1.27734 2.71448 50
    endloop
  endfacet
  facet normal 0.368126 -0.929776 0
    outer loop
      vertex -0.927051 2.85317 50
      vertex -1.27734 2.71448 -50
      vertex -0.927051 2.85317 -50
    endloop
  endfacet
  facet normal -0.904828 -0.425778 0
    outer loop
      vertex 2.78933 1.10437 -50
      vertex 2.62892 1.44526 50
      vertex 2.62892 1.44526 -50
    endloop
  endfacet
  facet normal -0.904828 -0.425778 0
    outer loop
      vertex 2.62892 1.44526 50
      vertex 2.78933 1.10437 -50
      vertex 2.78933 1.10437 50
    endloop
  endfacet
  facet normal -0.98229 -0.187369 0
    outer loop
      vertex 2.97634 0.375999 -50
      vertex 2.90575 0.746069 50
      vertex 2.90575 0.746069 -50
    endloop
  endfacet
  facet normal -0.98229 -0.187369 0
    outer loop
      vertex 2.90575 0.746069 50
      vertex 2.97634 0.375999 -50
      vertex 2.97634 0.375999 50
    endloop
  endfacet
  facet normal -0.368126 -0.929776 0
    outer loop
      vertex 0.927051 2.85317 -50
      vertex 1.27734 2.71448 50
      vertex 0.927051 2.85317 50
    endloop
  endfacet
  facet normal -0.368126 -0.929776 -0
    outer loop
      vertex 1.27734 2.71448 50
      vertex 0.927051 2.85317 -50
      vertex 1.27734 2.71448 -50
    endloop
  endfacet
  facet normal -0.248684 -0.968585 0
    outer loop
      vertex 0.562143 2.94686 -50
      vertex 0.927051 2.85317 50
      vertex 0.562143 2.94686 50
    endloop
  endfacet
  facet normal -0.248684 -0.968585 -0
    outer loop
      vertex 0.927051 2.85317 50
      vertex 0.562143 2.94686 -50
      vertex 0.927051 2.85317 -50
    endloop
  endfacet
  facet normal -0.58778 -0.809021 0
    outer loop
      vertex 1.60748 2.53298 -50
      vertex 1.91227 2.31154 50
      vertex 1.60748 2.53298 50
    endloop
  endfacet
  facet normal -0.58778 -0.809021 -0
    outer loop
      vertex 1.91227 2.31154 50
      vertex 1.60748 2.53298 -50
      vertex 1.91227 2.31154 -50
    endloop
  endfacet
  facet normal 0.904828 -0.425778 0
    outer loop
      vertex -2.78933 1.10437 50
      vertex -2.62892 1.44526 -50
      vertex -2.62892 1.44526 50
    endloop
  endfacet
  facet normal 0.904828 -0.425778 0
    outer loop
      vertex -2.62892 1.44526 -50
      vertex -2.78933 1.10437 50
      vertex -2.78933 1.10437 -50
    endloop
  endfacet
  facet normal 0.951056 -0.309019 0
    outer loop
      vertex -2.90575 0.746069 50
      vertex -2.78933 1.10437 -50
      vertex -2.78933 1.10437 50
    endloop
  endfacet
  facet normal 0.951056 -0.309019 0
    outer loop
      vertex -2.78933 1.10437 -50
      vertex -2.90575 0.746069 50
      vertex -2.90575 0.746069 -50
    endloop
  endfacet
  facet normal 0.248684 -0.968585 0
    outer loop
      vertex -0.927051 2.85317 -50
      vertex -0.562143 2.94686 50
      vertex -0.927051 2.85317 50
    endloop
  endfacet
  facet normal 0.248684 -0.968585 0
    outer loop
      vertex -0.562143 2.94686 50
      vertex -0.927051 2.85317 -50
      vertex -0.562143 2.94686 -50
    endloop
  endfacet
  facet normal -0.125337 0.992114 0
    outer loop
      vertex 0.562143 -2.94686 -50
      vertex 0.188371 -2.99408 50
      vertex 0.562143 -2.94686 50
    endloop
  endfacet
  facet normal -0.125337 0.992114 0
    outer loop
      vertex 0.188371 -2.99408 50
      vertex 0.562143 -2.94686 -50
      vertex 0.188371 -2.99408 -50
    endloop
  endfacet
  facet normal -0.368126 0.929776 0
    outer loop
      vertex 1.27734 -2.71448 -50
      vertex 0.927051 -2.85317 50
      vertex 1.27734 -2.71448 50
    endloop
  endfacet
  facet normal -0.368126 0.929776 0
    outer loop
      vertex 0.927051 -2.85317 50
      vertex 1.27734 -2.71448 -50
      vertex 0.927051 -2.85317 -50
    endloop
  endfacet
  facet normal -0.951056 -0.309019 0
    outer loop
      vertex 2.90575 0.746069 -50
      vertex 2.78933 1.10437 50
      vertex 2.78933 1.10437 -50
    endloop
  endfacet
  facet normal -0.951056 -0.309019 0
    outer loop
      vertex 2.78933 1.10437 50
      vertex 2.90575 0.746069 -50
      vertex 2.90575 0.746069 50
    endloop
  endfacet
  facet normal -0.770514 -0.637423 0
    outer loop
      vertex 2.42705 1.76336 -50
      vertex 2.18691 2.05364 50
      vertex 2.18691 2.05364 -50
    endloop
  endfacet
  facet normal -0.770514 -0.637423 0
    outer loop
      vertex 2.18691 2.05364 50
      vertex 2.42705 1.76336 -50
      vertex 2.42705 1.76336 50
    endloop
  endfacet
  facet normal -0.844331 -0.535822 0
    outer loop
      vertex 2.62892 1.44526 -50
      vertex 2.42705 1.76336 50
      vertex 2.42705 1.76336 -50
    endloop
  endfacet
  facet normal -0.844331 -0.535822 0
    outer loop
      vertex 2.42705 1.76336 50
      vertex 2.62892 1.44526 -50
      vertex 2.62892 1.44526 50
    endloop
  endfacet
  facet normal -0.125337 -0.992114 0
    outer loop
      vertex 0.188371 2.99408 -50
      vertex 0.562143 2.94686 50
      vertex 0.188371 2.99408 50
    endloop
  endfacet
  facet normal -0.125337 -0.992114 -0
    outer loop
      vertex 0.562143 2.94686 50
      vertex 0.188371 2.99408 -50
      vertex 0.562143 2.94686 -50
    endloop
  endfacet
  facet normal -0.481762 -0.876302 0
    outer loop
      vertex 1.27734 2.71448 -50
      vertex 1.60748 2.53298 50
      vertex 1.27734 2.71448 50
    endloop
  endfacet
  facet normal -0.481762 -0.876302 -0
    outer loop
      vertex 1.60748 2.53298 50
      vertex 1.27734 2.71448 -50
      vertex 1.60748 2.53298 -50
    endloop
  endfacet
  facet normal 0.844331 -0.535822 0
    outer loop
      vertex -2.62892 1.44526 50
      vertex -2.42705 1.76336 -50
      vertex -2.42705 1.76336 50
    endloop
  endfacet
  facet normal 0.844331 -0.535822 0
    outer loop
      vertex -2.42705 1.76336 -50
      vertex -2.62892 1.44526 50
      vertex -2.62892 1.44526 -50
    endloop
  endfacet
  facet normal 0.770514 -0.637423 0
    outer loop
      vertex -2.42705 1.76336 50
      vertex -2.18691 2.05364 -50
      vertex -2.18691 2.05364 50
    endloop
  endfacet
  facet normal 0.770514 -0.637423 0
    outer loop
      vertex -2.18691 2.05364 -50
      vertex -2.42705 1.76336 50
      vertex -2.42705 1.76336 -50
    endloop
  endfacet
  facet normal 0.98229 -0.187369 0
    outer loop
      vertex -2.97634 0.375999 50
      vertex -2.90575 0.746069 -50
      vertex -2.90575 0.746069 50
    endloop
  endfacet
  facet normal 0.98229 -0.187369 0
    outer loop
      vertex -2.90575 0.746069 -50
      vertex -2.97634 0.375999 50
      vertex -2.97634 0.375999 -50
    endloop
  endfacet
  facet normal 0.481762 -0.876302 0
    outer loop
      vertex -1.60748 2.53298 -50
      vertex -1.27734 2.71448 50
      vertex -1.60748 2.53298 50
    endloop
  endfacet
  facet normal 0.481762 -0.876302 0
    outer loop
      vertex -1.27734 2.71448 50
      vertex -1.60748 2.53298 -50
      vertex -1.27734 2.71448 -50
    endloop
  endfacet
  facet normal 0.58778 -0.809021 0
    outer loop
      vertex -1.91227 2.31154 -50
      vertex -1.60748 2.53298 50
      vertex -1.91227 2.31154 50
    endloop
  endfacet
  facet normal 0.58778 -0.809021 0
    outer loop
      vertex -1.60748 2.53298 50
      vertex -1.91227 2.31154 -50
      vertex -1.60748 2.53298 -50
    endloop
  endfacet
  facet normal 0.125337 -0.992114 0
    outer loop
      vertex -0.562143 2.94686 -50
      vertex -0.188371 2.99408 50
      vertex -0.562143 2.94686 50
    endloop
  endfacet
  facet normal 0.125337 -0.992114 0
    outer loop
      vertex -0.188371 2.99408 50
      vertex -0.562143 2.94686 -50
      vertex -0.188371 2.99408 -50
    endloop
  endfacet
  facet normal -0.998026 0.0628015 0
    outer loop
      vertex 2.97634 -0.375999 -50
      vertex 3 0 50
      vertex 3 0 -50
    endloop
  endfacet
  facet normal -0.998026 0.0628015 0
    outer loop
      vertex 3 0 50
      vertex 2.97634 -0.375999 -50
      vertex 2.97634 -0.375999 50
    endloop
  endfacet
  facet normal -0.481762 0.876302 0
    outer loop
      vertex 1.60748 -2.53298 -50
      vertex 1.27734 -2.71448 50
      vertex 1.60748 -2.53298 50
    endloop
  endfacet
  facet normal -0.481762 0.876302 0
    outer loop
      vertex 1.27734 -2.71448 50
      vertex 1.60748 -2.53298 -50
      vertex 1.27734 -2.71448 -50
    endloop
  endfacet
  facet normal -0.684541 0.728974 0
    outer loop
      vertex 2.18691 -2.05364 -50
      vertex 1.91227 -2.31154 50
      vertex 2.18691 -2.05364 50
    endloop
  endfacet
  facet normal -0.684541 0.728974 0
    outer loop
      vertex 1.91227 -2.31154 50
      vertex 2.18691 -2.05364 -50
      vertex 1.91227 -2.31154 -50
    endloop
  endfacet
  facet normal -0.98229 0.187369 0
    outer loop
      vertex 2.90575 -0.746069 -50
      vertex 2.97634 -0.375999 50
      vertex 2.97634 -0.375999 -50
    endloop
  endfacet
  facet normal -0.98229 0.187369 0
    outer loop
      vertex 2.97634 -0.375999 50
      vertex 2.90575 -0.746069 -50
      vertex 2.90575 -0.746069 50
    endloop
  endfacet
  facet normal -0.904828 0.425778 0
    outer loop
      vertex 2.62892 -1.44526 -50
      vertex 2.78933 -1.10437 50
      vertex 2.78933 -1.10437 -50
    endloop
  endfacet
  facet normal -0.904828 0.425778 0
    outer loop
      vertex 2.78933 -1.10437 50
      vertex 2.62892 -1.44526 -50
      vertex 2.62892 -1.44526 50
    endloop
  endfacet
  facet normal -0.770514 0.637423 0
    outer loop
      vertex 2.18691 -2.05364 -50
      vertex 2.42705 -1.76336 50
      vertex 2.42705 -1.76336 -50
    endloop
  endfacet
  facet normal -0.770514 0.637423 0
    outer loop
      vertex 2.42705 -1.76336 50
      vertex 2.18691 -2.05364 -50
      vertex 2.18691 -2.05364 50
    endloop
  endfacet
  facet normal 0.248684 0.968585 -0
    outer loop
      vertex -0.562143 -2.94686 -50
      vertex -0.927051 -2.85317 50
      vertex -0.562143 -2.94686 50
    endloop
  endfacet
  facet normal 0.248684 0.968585 0
    outer loop
      vertex -0.927051 -2.85317 50
      vertex -0.562143 -2.94686 -50
      vertex -0.927051 -2.85317 -50
    endloop
  endfacet
  facet normal 0.684541 0.728974 -0
    outer loop
      vertex -1.91227 -2.31154 -50
      vertex -2.18691 -2.05364 50
      vertex -1.91227 -2.31154 50
    endloop
  endfacet
  facet normal 0.684541 0.728974 0
    outer loop
      vertex -2.18691 -2.05364 50
      vertex -1.91227 -2.31154 -50
      vertex -2.18691 -2.05364 -50
    endloop
  endfacet
  facet normal 0.844331 0.535822 0
    outer loop
      vertex -2.42705 -1.76336 50
      vertex -2.62892 -1.44526 -50
      vertex -2.62892 -1.44526 50
    endloop
  endfacet
  facet normal 0.844331 0.535822 0
    outer loop
      vertex -2.62892 -1.44526 -50
      vertex -2.42705 -1.76336 50
      vertex -2.42705 -1.76336 -50
    endloop
  endfacet
  facet normal 0.951056 0.309019 0
    outer loop
      vertex -2.78933 -1.10437 50
      vertex -2.90575 -0.746069 -50
      vertex -2.90575 -0.746069 50
    endloop
  endfacet
  facet normal 0.951056 0.309019 0
    outer loop
      vertex -2.90575 -0.746069 -50
      vertex -2.78933 -1.10437 50
      vertex -2.78933 -1.10437 -50
    endloop
  endfacet
  facet normal -0.248684 0.968585 0
    outer loop
      vertex 0.927051 -2.85317 -50
      vertex 0.562143 -2.94686 50
      vertex 0.927051 -2.85317 50
    endloop
  endfacet
  facet normal -0.248684 0.968585 0
    outer loop
      vertex 0.562143 -2.94686 50
      vertex 0.927051 -2.85317 -50
      vertex 0.562143 -2.94686 -50
    endloop
  endfacet
  facet normal -0.58778 0.809021 0
    outer loop
      vertex 1.91227 -2.31154 -50
      vertex 1.60748 -2.53298 50
      vertex 1.91227 -2.31154 50
    endloop
  endfacet
  facet normal -0.58778 0.809021 0
    outer loop
      vertex 1.60748 -2.53298 50
      vertex 1.91227 -2.31154 -50
      vertex 1.60748 -2.53298 -50
    endloop
  endfacet
  facet normal -0.951056 0.309019 0
    outer loop
      vertex 2.78933 -1.10437 -50
      vertex 2.90575 -0.746069 50
      vertex 2.90575 -0.746069 -50
    endloop
  endfacet
  facet normal -0.951056 0.309019 0
    outer loop
      vertex 2.90575 -0.746069 50
      vertex 2.78933 -1.10437 -50
      vertex 2.78933 -1.10437 50
    endloop
  endfacet
  facet normal -0.844331 0.535822 0
    outer loop
      vertex 2.42705 -1.76336 -50
      vertex 2.62892 -1.44526 50
      vertex 2.62892 -1.44526 -50
    endloop
  endfacet
  facet normal -0.844331 0.535822 0
    outer loop
      vertex 2.62892 -1.44526 50
      vertex 2.42705 -1.76336 -50
      vertex 2.42705 -1.76336 50
    endloop
  endfacet
  facet normal 0.125337 0.992114 -0
    outer loop
      vertex -0.188371 -2.99408 -50
      vertex -0.562143 -2.94686 50
      vertex -0.188371 -2.99408 50
    endloop
  endfacet
  facet normal 0.125337 0.992114 0
    outer loop
      vertex -0.562143 -2.94686 50
      vertex -0.188371 -2.99408 -50
      vertex -0.562143 -2.94686 -50
    endloop
  endfacet
  facet normal 0.368126 0.929776 -0
    outer loop
      vertex -0.927051 -2.85317 -50
      vertex -1.27734 -2.71448 50
      vertex -0.927051 -2.85317 50
    endloop
  endfacet
  facet normal 0.368126 0.929776 0
    outer loop
      vertex -1.27734 -2.71448 50
      vertex -0.927051 -2.85317 -50
      vertex -1.27734 -2.71448 -50
    endloop
  endfacet
  facet normal 0.58778 0.809021 -0
    outer loop
      vertex -1.60748 -2.53298 -50
      vertex -1.91227 -2.31154 50
      vertex -1.60748 -2.53298 50
    endloop
  endfacet
  facet normal 0.58778 0.809021 0
    outer loop
      vertex -1.91227 -2.31154 50
      vertex -1.60748 -2.53298 -50
      vertex -1.91227 -2.31154 -50
    endloop
  endfacet
  facet normal 0.770514 0.637423 0
    outer loop
      vertex -2.18691 -2.05364 50
      vertex -2.42705 -1.76336 -50
      vertex -2.42705 -1.76336 50
    endloop
  endfacet
  facet normal 0.770514 0.637423 0
    outer loop
      vertex -2.42705 -1.76336 -50
      vertex -2.18691 -2.05364 50
      vertex -2.18691 -2.05364 -50
    endloop
  endfacet
  facet normal 0.904828 0.425778 0
    outer loop
      vertex -2.62892 -1.44526 50
      vertex -2.78933 -1.10437 -50
      vertex -2.78933 -1.10437 50
    endloop
  endfacet
  facet normal 0.904828 0.425778 0
    outer loop
      vertex -2.78933 -1.10437 -50
      vertex -2.62892 -1.44526 50
      vertex -2.62892 -1.44526 -50
    endloop
  endfacet
  facet normal 0.98229 0.187369 0
    outer loop
      vertex -2.90575 -0.746069 50
      vertex -2.97634 -0.375999 -50
      vertex -2.97634 -0.375999 50
    endloop
  endfacet
  facet normal 0.98229 0.187369 0
    outer loop
      vertex -2.97634 -0.375999 -50
      vertex -2.90575 -0.746069 50
      vertex -2.90575 -0.746069 -50
    endloop
  endfacet
  facet normal 0.998026 0.0628015 0
    outer loop
      vertex -2.97634 -0.375999 50
      vertex -3 0 -50
      vertex -3 0 50
    endloop
  endfacet
  facet normal 0.998026 0.0628015 0
    outer loop
      vertex -3 0 -50
      vertex -2.97634 -0.375999 50
      vertex -2.97634 -0.375999 -50
    endloop
  endfacet
  facet normal 0.481762 0.876302 -0
    outer loop
      vertex -1.27734 -2.71448 -50
      vertex -1.60748 -2.53298 50
      vertex -1.27734 -2.71448 50
    endloop
  endfacet
  facet normal 0.481762 0.876302 0
    outer loop
      vertex -1.60748 -2.53298 50
      vertex -1.27734 -2.71448 -50
      vertex -1.60748 -2.53298 -50
    endloop
  endfacet
endsolid OpenSCAD_Model
