solid OpenSCAD_Model
  facet normal 0.998026 0.0627973 0
    outer loop
      vertex 6.5 0 36
      vertex 6.44874 0.814666 -36
      vertex 6.44874 0.814666 36
    endloop
  endfacet
  facet normal 0.998026 0.0627973 0
    outer loop
      vertex 6.44874 0.814666 -36
      vertex 6.5 0 36
      vertex 6.5 0 -36
    endloop
  endfacet
  facet normal -0.998026 0.0627973 0
    outer loop
      vertex -6.5 0 -36
      vertex -6.44874 0.814666 36
      vertex -6.44874 0.814666 -36
    endloop
  endfacet
  facet normal -0.998026 0.0627973 0
    outer loop
      vertex -6.44874 0.814666 36
      vertex -6.5 0 -36
      vertex -6.5 0 36
    endloop
  endfacet
  facet normal 0 1 -0
    outer loop
      vertex 0.408138 6.48717 -36
      vertex -0.408138 6.48717 36
      vertex 0.408138 6.48717 36
    endloop
  endfacet
  facet normal 0 1 0
    outer loop
      vertex -0.408138 6.48717 36
      vertex 0.408138 6.48717 -36
      vertex -0.408138 6.48717 -36
    endloop
  endfacet
  facet normal 0 -1 0
    outer loop
      vertex -0.408138 -6.48717 -36
      vertex 0.408138 -6.48717 36
      vertex -0.408138 -6.48717 36
    endloop
  endfacet
  facet normal 0 -1 -0
    outer loop
      vertex 0.408138 -6.48717 36
      vertex -0.408138 -6.48717 -36
      vertex 0.408138 -6.48717 -36
    endloop
  endfacet
  facet normal 0.684547 0.728968 -0
    outer loop
      vertex 4.7383 4.44956 -36
      vertex 4.14326 5.00834 36
      vertex 4.7383 4.44956 36
    endloop
  endfacet
  facet normal 0.684547 0.728968 0
    outer loop
      vertex 4.14326 5.00834 36
      vertex 4.7383 4.44956 -36
      vertex 4.14326 5.00834 -36
    endloop
  endfacet
  facet normal -0.684547 0.728968 0
    outer loop
      vertex -4.14326 5.00834 -36
      vertex -4.7383 4.44956 36
      vertex -4.14326 5.00834 36
    endloop
  endfacet
  facet normal -0.684547 0.728968 0
    outer loop
      vertex -4.7383 4.44956 36
      vertex -4.14326 5.00834 -36
      vertex -4.7383 4.44956 -36
    endloop
  endfacet
  facet normal -0.368125 0.929776 0
    outer loop
      vertex -2.00861 6.18187 -36
      vertex -2.76756 5.88138 36
      vertex -2.00861 6.18187 36
    endloop
  endfacet
  facet normal -0.368125 0.929776 0
    outer loop
      vertex -2.76756 5.88138 36
      vertex -2.00861 6.18187 -36
      vertex -2.76756 5.88138 -36
    endloop
  endfacet
  facet normal 0.904824 -0.425785 0
    outer loop
      vertex 5.69599 -3.1314 36
      vertex 6.04355 -2.39281 -36
      vertex 6.04355 -2.39281 36
    endloop
  endfacet
  facet normal 0.904824 -0.425785 0
    outer loop
      vertex 6.04355 -2.39281 -36
      vertex 5.69599 -3.1314 36
      vertex 5.69599 -3.1314 -36
    endloop
  endfacet
  facet normal 0.904824 0.425785 0
    outer loop
      vertex 6.04355 2.39281 36
      vertex 5.69599 3.1314 -36
      vertex 5.69599 3.1314 36
    endloop
  endfacet
  facet normal 0.904824 0.425785 0
    outer loop
      vertex 5.69599 3.1314 -36
      vertex 6.04355 2.39281 36
      vertex 6.04355 2.39281 -36
    endloop
  endfacet
  facet normal 0.844328 0.535827 0
    outer loop
      vertex 5.69599 3.1314 36
      vertex 5.25861 3.8206 -36
      vertex 5.25861 3.8206 36
    endloop
  endfacet
  facet normal 0.844328 0.535827 0
    outer loop
      vertex 5.25861 3.8206 -36
      vertex 5.69599 3.1314 36
      vertex 5.69599 3.1314 -36
    endloop
  endfacet
  facet normal 0.368125 0.929776 -0
    outer loop
      vertex 2.76756 5.88138 -36
      vertex 2.00861 6.18187 36
      vertex 2.76756 5.88138 36
    endloop
  endfacet
  facet normal 0.368125 0.929776 0
    outer loop
      vertex 2.00861 6.18187 36
      vertex 2.76756 5.88138 -36
      vertex 2.00861 6.18187 -36
    endloop
  endfacet
  facet normal 0.248691 0.968583 -0
    outer loop
      vertex 2.00861 6.18187 -36
      vertex 1.21798 6.38487 36
      vertex 2.00861 6.18187 36
    endloop
  endfacet
  facet normal 0.248691 0.968583 0
    outer loop
      vertex 1.21798 6.38487 36
      vertex 2.00861 6.18187 -36
      vertex 1.21798 6.38487 -36
    endloop
  endfacet
  facet normal 0.481758 0.876304 -0
    outer loop
      vertex 3.48287 5.48813 -36
      vertex 2.76756 5.88138 36
      vertex 3.48287 5.48813 36
    endloop
  endfacet
  facet normal 0.481758 0.876304 0
    outer loop
      vertex 2.76756 5.88138 36
      vertex 3.48287 5.48813 -36
      vertex 2.76756 5.88138 -36
    endloop
  endfacet
  facet normal -0.904824 0.425785 0
    outer loop
      vertex -6.04355 2.39281 -36
      vertex -5.69599 3.1314 36
      vertex -5.69599 3.1314 -36
    endloop
  endfacet
  facet normal -0.904824 0.425785 0
    outer loop
      vertex -5.69599 3.1314 36
      vertex -6.04355 2.39281 -36
      vertex -6.04355 2.39281 36
    endloop
  endfacet
  facet normal -0.77052 0.637416 0
    outer loop
      vertex -5.25861 3.8206 -36
      vertex -4.7383 4.44956 36
      vertex -4.7383 4.44956 -36
    endloop
  endfacet
  facet normal -0.77052 0.637416 0
    outer loop
      vertex -4.7383 4.44956 36
      vertex -5.25861 3.8206 -36
      vertex -5.25861 3.8206 36
    endloop
  endfacet
  facet normal -0.951058 0.309012 0
    outer loop
      vertex -6.29579 1.61648 -36
      vertex -6.04355 2.39281 36
      vertex -6.04355 2.39281 -36
    endloop
  endfacet
  facet normal -0.951058 0.309012 0
    outer loop
      vertex -6.04355 2.39281 36
      vertex -6.29579 1.61648 -36
      vertex -6.29579 1.61648 36
    endloop
  endfacet
  facet normal -0.125325 0.992116 0
    outer loop
      vertex -0.408138 6.48717 -36
      vertex -1.21798 6.38487 36
      vertex -0.408138 6.48717 36
    endloop
  endfacet
  facet normal -0.125325 0.992116 0
    outer loop
      vertex -1.21798 6.38487 36
      vertex -0.408138 6.48717 -36
      vertex -1.21798 6.38487 -36
    endloop
  endfacet
  facet normal 0.125325 -0.992116 0
    outer loop
      vertex 0.408138 -6.48717 -36
      vertex 1.21798 -6.38487 36
      vertex 0.408138 -6.48717 36
    endloop
  endfacet
  facet normal 0.125325 -0.992116 0
    outer loop
      vertex 1.21798 -6.38487 36
      vertex 0.408138 -6.48717 -36
      vertex 1.21798 -6.38487 -36
    endloop
  endfacet
  facet normal 0.368125 -0.929776 0
    outer loop
      vertex 2.00861 -6.18187 -36
      vertex 2.76756 -5.88138 36
      vertex 2.00861 -6.18187 36
    endloop
  endfacet
  facet normal 0.368125 -0.929776 0
    outer loop
      vertex 2.76756 -5.88138 36
      vertex 2.00861 -6.18187 -36
      vertex 2.76756 -5.88138 -36
    endloop
  endfacet
  facet normal 0.951058 0.309012 0
    outer loop
      vertex 6.29579 1.61648 36
      vertex 6.04355 2.39281 -36
      vertex 6.04355 2.39281 36
    endloop
  endfacet
  facet normal 0.951058 0.309012 0
    outer loop
      vertex 6.04355 2.39281 -36
      vertex 6.29579 1.61648 36
      vertex 6.29579 1.61648 -36
    endloop
  endfacet
  facet normal 0.982288 0.187376 0
    outer loop
      vertex 6.44874 0.814666 36
      vertex 6.29579 1.61648 -36
      vertex 6.29579 1.61648 36
    endloop
  endfacet
  facet normal 0.982288 0.187376 0
    outer loop
      vertex 6.29579 1.61648 -36
      vertex 6.44874 0.814666 36
      vertex 6.44874 0.814666 -36
    endloop
  endfacet
  facet normal 0.77052 0.637416 0
    outer loop
      vertex 5.25861 3.8206 36
      vertex 4.7383 4.44956 -36
      vertex 4.7383 4.44956 36
    endloop
  endfacet
  facet normal 0.77052 0.637416 0
    outer loop
      vertex 4.7383 4.44956 -36
      vertex 5.25861 3.8206 36
      vertex 5.25861 3.8206 -36
    endloop
  endfacet
  facet normal 0.125325 0.992116 -0
    outer loop
      vertex 1.21798 6.38487 -36
      vertex 0.408138 6.48717 36
      vertex 1.21798 6.38487 36
    endloop
  endfacet
  facet normal 0.125325 0.992116 0
    outer loop
      vertex 0.408138 6.48717 36
      vertex 1.21798 6.38487 -36
      vertex 0.408138 6.48717 -36
    endloop
  endfacet
  facet normal 0.587776 0.809024 -0
    outer loop
      vertex 4.14326 5.00834 -36
      vertex 3.48287 5.48813 36
      vertex 4.14326 5.00834 36
    endloop
  endfacet
  facet normal 0.587776 0.809024 0
    outer loop
      vertex 3.48287 5.48813 36
      vertex 4.14326 5.00834 -36
      vertex 3.48287 5.48813 -36
    endloop
  endfacet
  facet normal -0.844328 0.535827 0
    outer loop
      vertex -5.69599 3.1314 -36
      vertex -5.25861 3.8206 36
      vertex -5.25861 3.8206 -36
    endloop
  endfacet
  facet normal -0.844328 0.535827 0
    outer loop
      vertex -5.25861 3.8206 36
      vertex -5.69599 3.1314 -36
      vertex -5.69599 3.1314 36
    endloop
  endfacet
  facet normal -0.982288 0.187376 0
    outer loop
      vertex -6.44874 0.814666 -36
      vertex -6.29579 1.61648 36
      vertex -6.29579 1.61648 -36
    endloop
  endfacet
  facet normal -0.982288 0.187376 0
    outer loop
      vertex -6.29579 1.61648 36
      vertex -6.44874 0.814666 -36
      vertex -6.44874 0.814666 36
    endloop
  endfacet
  facet normal 0 0 1
    outer loop
      vertex 6 0 36
      vertex 6.5 0 36
      vertex 6.44874 0.814666 36
    endloop
  endfacet
  facet normal 0 0 1
    outer loop
      vertex 5.95269 0.751999 36
      vertex 6.44874 0.814666 36
      vertex 6.29579 1.61648 36
    endloop
  endfacet
  facet normal 0 0 1
    outer loop
      vertex 6.5 0 36
      vertex 6 0 36
      vertex 6.44874 -0.814666 36
    endloop
  endfacet
  facet normal 0 0 1
    outer loop
      vertex 5.8115 1.49214 36
      vertex 6.29579 1.61648 36
      vertex 6.04355 2.39281 36
    endloop
  endfacet
  facet normal -0 0 1
    outer loop
      vertex 5.95269 -0.751999 36
      vertex 6.44874 -0.814666 36
      vertex 6 0 36
    endloop
  endfacet
  facet normal 0 0 1
    outer loop
      vertex 6.44874 -0.814666 36
      vertex 5.95269 -0.751999 36
      vertex 6.29579 -1.61648 36
    endloop
  endfacet
  facet normal 0 0 1
    outer loop
      vertex 6.44874 0.814666 36
      vertex 5.95269 0.751999 36
      vertex 6 0 36
    endloop
  endfacet
  facet normal 0 0 1
    outer loop
      vertex 6.29579 1.61648 36
      vertex 5.8115 1.49214 36
      vertex 5.95269 0.751999 36
    endloop
  endfacet
  facet normal 0 0 1
    outer loop
      vertex 5.57866 2.20875 36
      vertex 6.04355 2.39281 36
      vertex 5.69599 3.1314 36
    endloop
  endfacet
  facet normal 0 0 1
    outer loop
      vertex 6.04355 2.39281 36
      vertex 5.57866 2.20875 36
      vertex 5.8115 1.49214 36
    endloop
  endfacet
  facet normal 0 0 1
    outer loop
      vertex 5.25784 2.89052 36
      vertex 5.69599 3.1314 36
      vertex 5.25861 3.8206 36
    endloop
  endfacet
  facet normal 0 0 1
    outer loop
      vertex 5.69599 3.1314 36
      vertex 5.25784 2.89052 36
      vertex 5.57866 2.20875 36
    endloop
  endfacet
  facet normal 0 0 1
    outer loop
      vertex 5.25861 3.8206 36
      vertex 4.8541 3.52671 36
      vertex 5.25784 2.89052 36
    endloop
  endfacet
  facet normal 0 0 1
    outer loop
      vertex 4.7383 4.44956 36
      vertex 4.8541 3.52671 36
      vertex 5.25861 3.8206 36
    endloop
  endfacet
  facet normal 0 0 1
    outer loop
      vertex 4.7383 4.44956 36
      vertex 4.37381 4.10728 36
      vertex 4.8541 3.52671 36
    endloop
  endfacet
  facet normal 0 0 1
    outer loop
      vertex 4.14326 5.00834 36
      vertex 4.37381 4.10728 36
      vertex 4.7383 4.44956 36
    endloop
  endfacet
  facet normal 0 0 1
    outer loop
      vertex 4.14326 5.00834 36
      vertex 3.82454 4.62308 36
      vertex 4.37381 4.10728 36
    endloop
  endfacet
  facet normal 0 0 1
    outer loop
      vertex 3.48287 5.48813 36
      vertex 3.82454 4.62308 36
      vertex 4.14326 5.00834 36
    endloop
  endfacet
  facet normal 0 0 1
    outer loop
      vertex 3.48287 5.48813 36
      vertex 3.21496 5.06597 36
      vertex 3.82454 4.62308 36
    endloop
  endfacet
  facet normal 0 0 1
    outer loop
      vertex 2.76756 5.88138 36
      vertex 3.21496 5.06597 36
      vertex 3.48287 5.48813 36
    endloop
  endfacet
  facet normal 0 0 1
    outer loop
      vertex 2.76756 5.88138 36
      vertex 2.55468 5.42896 36
      vertex 3.21496 5.06597 36
    endloop
  endfacet
  facet normal 0 0 1
    outer loop
      vertex 2.00861 6.18187 36
      vertex 2.55468 5.42896 36
      vertex 2.76756 5.88138 36
    endloop
  endfacet
  facet normal 0 0 1
    outer loop
      vertex 2.00861 6.18187 36
      vertex 1.8541 5.70634 36
      vertex 2.55468 5.42896 36
    endloop
  endfacet
  facet normal 0 0 1
    outer loop
      vertex 1.21798 6.38487 36
      vertex 1.8541 5.70634 36
      vertex 2.00861 6.18187 36
    endloop
  endfacet
  facet normal 0 0 1
    outer loop
      vertex 1.21798 6.38487 36
      vertex 1.12429 5.89372 36
      vertex 1.8541 5.70634 36
    endloop
  endfacet
  facet normal 0 0 1
    outer loop
      vertex 0.408138 6.48717 36
      vertex 1.12429 5.89372 36
      vertex 1.21798 6.38487 36
    endloop
  endfacet
  facet normal 0 0 1
    outer loop
      vertex 0.408138 6.48717 36
      vertex 0.376742 5.98816 36
      vertex 1.12429 5.89372 36
    endloop
  endfacet
  facet normal 0 0 1
    outer loop
      vertex 0.408138 6.48717 36
      vertex -0.376742 5.98816 36
      vertex 0.376742 5.98816 36
    endloop
  endfacet
  facet normal -0 0 1
    outer loop
      vertex -0.408138 6.48717 36
      vertex -0.376742 5.98816 36
      vertex 0.408138 6.48717 36
    endloop
  endfacet
  facet normal 0 0 1
    outer loop
      vertex -0.408138 6.48717 36
      vertex -1.12429 5.89372 36
      vertex -0.376742 5.98816 36
    endloop
  endfacet
  facet normal -0 0 1
    outer loop
      vertex -1.21798 6.38487 36
      vertex -1.12429 5.89372 36
      vertex -0.408138 6.48717 36
    endloop
  endfacet
  facet normal 0 0 1
    outer loop
      vertex -1.21798 6.38487 36
      vertex -1.8541 5.70634 36
      vertex -1.12429 5.89372 36
    endloop
  endfacet
  facet normal -0 0 1
    outer loop
      vertex -2.00861 6.18187 36
      vertex -1.8541 5.70634 36
      vertex -1.21798 6.38487 36
    endloop
  endfacet
  facet normal 0 0 1
    outer loop
      vertex -2.00861 6.18187 36
      vertex -2.55468 5.42896 36
      vertex -1.8541 5.70634 36
    endloop
  endfacet
  facet normal -0 0 1
    outer loop
      vertex -2.76756 5.88138 36
      vertex -2.55468 5.42896 36
      vertex -2.00861 6.18187 36
    endloop
  endfacet
  facet normal 0 0 1
    outer loop
      vertex -2.76756 5.88138 36
      vertex -3.21496 5.06597 36
      vertex -2.55468 5.42896 36
    endloop
  endfacet
  facet normal -0 0 1
    outer loop
      vertex -3.48287 5.48813 36
      vertex -3.21496 5.06597 36
      vertex -2.76756 5.88138 36
    endloop
  endfacet
  facet normal 0 0 1
    outer loop
      vertex -3.48287 5.48813 36
      vertex -3.82454 4.62308 36
      vertex -3.21496 5.06597 36
    endloop
  endfacet
  facet normal -0 0 1
    outer loop
      vertex -4.14326 5.00834 36
      vertex -3.82454 4.62308 36
      vertex -3.48287 5.48813 36
    endloop
  endfacet
  facet normal 0 0 1
    outer loop
      vertex -4.14326 5.00834 36
      vertex -4.37381 4.10728 36
      vertex -3.82454 4.62308 36
    endloop
  endfacet
  facet normal -0 0 1
    outer loop
      vertex -4.7383 4.44956 36
      vertex -4.37381 4.10728 36
      vertex -4.14326 5.00834 36
    endloop
  endfacet
  facet normal 0 0 1
    outer loop
      vertex -4.7383 4.44956 36
      vertex -4.8541 3.52671 36
      vertex -4.37381 4.10728 36
    endloop
  endfacet
  facet normal -0 0 1
    outer loop
      vertex -5.25861 3.8206 36
      vertex -4.8541 3.52671 36
      vertex -4.7383 4.44956 36
    endloop
  endfacet
  facet normal 0 0 1
    outer loop
      vertex -4.8541 3.52671 36
      vertex -5.25861 3.8206 36
      vertex -5.25784 2.89052 36
    endloop
  endfacet
  facet normal -0 0 1
    outer loop
      vertex -5.69599 3.1314 36
      vertex -5.25784 2.89052 36
      vertex -5.25861 3.8206 36
    endloop
  endfacet
  facet normal 0 0 1
    outer loop
      vertex -5.25784 2.89052 36
      vertex -5.69599 3.1314 36
      vertex -5.57866 2.20875 36
    endloop
  endfacet
  facet normal -0 0 1
    outer loop
      vertex -6.04355 2.39281 36
      vertex -5.57866 2.20875 36
      vertex -5.69599 3.1314 36
    endloop
  endfacet
  facet normal 0 0 1
    outer loop
      vertex -5.57866 2.20875 36
      vertex -6.04355 2.39281 36
      vertex -5.8115 1.49214 36
    endloop
  endfacet
  facet normal 0 0 1
    outer loop
      vertex -5.8115 1.49214 36
      vertex -6.29579 1.61648 36
      vertex -5.95269 0.751999 36
    endloop
  endfacet
  facet normal -0 0 1
    outer loop
      vertex -6.29579 1.61648 36
      vertex -5.8115 1.49214 36
      vertex -6.04355 2.39281 36
    endloop
  endfacet
  facet normal -0 0 1
    outer loop
      vertex 5.8115 -1.49214 36
      vertex 6.29579 -1.61648 36
      vertex 5.95269 -0.751999 36
    endloop
  endfacet
  facet normal 0 0 1
    outer loop
      vertex 6.29579 -1.61648 36
      vertex 5.8115 -1.49214 36
      vertex 6.04355 -2.39281 36
    endloop
  endfacet
  facet normal -0 0 1
    outer loop
      vertex 5.57866 -2.20875 36
      vertex 6.04355 -2.39281 36
      vertex 5.8115 -1.49214 36
    endloop
  endfacet
  facet normal 0 0 1
    outer loop
      vertex 6.04355 -2.39281 36
      vertex 5.57866 -2.20875 36
      vertex 5.69599 -3.1314 36
    endloop
  endfacet
  facet normal -0 0 1
    outer loop
      vertex 5.25784 -2.89052 36
      vertex 5.69599 -3.1314 36
      vertex 5.57866 -2.20875 36
    endloop
  endfacet
  facet normal 0 0 1
    outer loop
      vertex 5.69599 -3.1314 36
      vertex 5.25784 -2.89052 36
      vertex 5.25861 -3.8206 36
    endloop
  endfacet
  facet normal -0 0 1
    outer loop
      vertex 4.8541 -3.52671 36
      vertex 5.25861 -3.8206 36
      vertex 5.25784 -2.89052 36
    endloop
  endfacet
  facet normal 0 0 1
    outer loop
      vertex 4.8541 -3.52671 36
      vertex 4.7383 -4.44956 36
      vertex 5.25861 -3.8206 36
    endloop
  endfacet
  facet normal -0 0 1
    outer loop
      vertex 4.37381 -4.10728 36
      vertex 4.7383 -4.44956 36
      vertex 4.8541 -3.52671 36
    endloop
  endfacet
  facet normal 0 0 1
    outer loop
      vertex 4.37381 -4.10728 36
      vertex 4.14326 -5.00834 36
      vertex 4.7383 -4.44956 36
    endloop
  endfacet
  facet normal -0 0 1
    outer loop
      vertex 3.82454 -4.62308 36
      vertex 4.14326 -5.00834 36
      vertex 4.37381 -4.10728 36
    endloop
  endfacet
  facet normal 0 0 1
    outer loop
      vertex 3.82454 -4.62308 36
      vertex 3.48287 -5.48813 36
      vertex 4.14326 -5.00834 36
    endloop
  endfacet
  facet normal -0 0 1
    outer loop
      vertex 3.21496 -5.06597 36
      vertex 3.48287 -5.48813 36
      vertex 3.82454 -4.62308 36
    endloop
  endfacet
  facet normal 0 0 1
    outer loop
      vertex 3.21496 -5.06597 36
      vertex 2.76756 -5.88138 36
      vertex 3.48287 -5.48813 36
    endloop
  endfacet
  facet normal -0 0 1
    outer loop
      vertex 2.55468 -5.42896 36
      vertex 2.76756 -5.88138 36
      vertex 3.21496 -5.06597 36
    endloop
  endfacet
  facet normal 0 0 1
    outer loop
      vertex 2.55468 -5.42896 36
      vertex 2.00861 -6.18187 36
      vertex 2.76756 -5.88138 36
    endloop
  endfacet
  facet normal -0 0 1
    outer loop
      vertex 1.8541 -5.70634 36
      vertex 2.00861 -6.18187 36
      vertex 2.55468 -5.42896 36
    endloop
  endfacet
  facet normal 0 0 1
    outer loop
      vertex 1.8541 -5.70634 36
      vertex 1.21798 -6.38487 36
      vertex 2.00861 -6.18187 36
    endloop
  endfacet
  facet normal -0 0 1
    outer loop
      vertex 1.12429 -5.89372 36
      vertex 1.21798 -6.38487 36
      vertex 1.8541 -5.70634 36
    endloop
  endfacet
  facet normal 0 0 1
    outer loop
      vertex 1.12429 -5.89372 36
      vertex 0.408138 -6.48717 36
      vertex 1.21798 -6.38487 36
    endloop
  endfacet
  facet normal -0 0 1
    outer loop
      vertex 0.376742 -5.98816 36
      vertex 0.408138 -6.48717 36
      vertex 1.12429 -5.89372 36
    endloop
  endfacet
  facet normal -0 0 1
    outer loop
      vertex -0.376742 -5.98816 36
      vertex 0.408138 -6.48717 36
      vertex 0.376742 -5.98816 36
    endloop
  endfacet
  facet normal 0 0 1
    outer loop
      vertex -0.376742 -5.98816 36
      vertex -0.408138 -6.48717 36
      vertex 0.408138 -6.48717 36
    endloop
  endfacet
  facet normal 0 0 1
    outer loop
      vertex -1.12429 -5.89372 36
      vertex -0.408138 -6.48717 36
      vertex -0.376742 -5.98816 36
    endloop
  endfacet
  facet normal 0 0 1
    outer loop
      vertex -1.12429 -5.89372 36
      vertex -1.21798 -6.38487 36
      vertex -0.408138 -6.48717 36
    endloop
  endfacet
  facet normal 0 0 1
    outer loop
      vertex -1.8541 -5.70634 36
      vertex -1.21798 -6.38487 36
      vertex -1.12429 -5.89372 36
    endloop
  endfacet
  facet normal 0 0 1
    outer loop
      vertex -1.8541 -5.70634 36
      vertex -2.00861 -6.18187 36
      vertex -1.21798 -6.38487 36
    endloop
  endfacet
  facet normal 0 0 1
    outer loop
      vertex -2.55468 -5.42896 36
      vertex -2.00861 -6.18187 36
      vertex -1.8541 -5.70634 36
    endloop
  endfacet
  facet normal 0 0 1
    outer loop
      vertex -2.55468 -5.42896 36
      vertex -2.76756 -5.88138 36
      vertex -2.00861 -6.18187 36
    endloop
  endfacet
  facet normal 0 0 1
    outer loop
      vertex -3.21496 -5.06597 36
      vertex -2.76756 -5.88138 36
      vertex -2.55468 -5.42896 36
    endloop
  endfacet
  facet normal 0 0 1
    outer loop
      vertex -3.21496 -5.06597 36
      vertex -3.48287 -5.48813 36
      vertex -2.76756 -5.88138 36
    endloop
  endfacet
  facet normal 0 0 1
    outer loop
      vertex -3.82454 -4.62308 36
      vertex -3.48287 -5.48813 36
      vertex -3.21496 -5.06597 36
    endloop
  endfacet
  facet normal 0 0 1
    outer loop
      vertex -3.82454 -4.62308 36
      vertex -4.14326 -5.00834 36
      vertex -3.48287 -5.48813 36
    endloop
  endfacet
  facet normal 0 0 1
    outer loop
      vertex -4.37381 -4.10728 36
      vertex -4.14326 -5.00834 36
      vertex -3.82454 -4.62308 36
    endloop
  endfacet
  facet normal 0 0 1
    outer loop
      vertex -4.37381 -4.10728 36
      vertex -4.7383 -4.44956 36
      vertex -4.14326 -5.00834 36
    endloop
  endfacet
  facet normal 0 0 1
    outer loop
      vertex -4.8541 -3.52671 36
      vertex -4.7383 -4.44956 36
      vertex -4.37381 -4.10728 36
    endloop
  endfacet
  facet normal 0 0 1
    outer loop
      vertex -5.25861 -3.8206 36
      vertex -4.8541 -3.52671 36
      vertex -5.25784 -2.89052 36
    endloop
  endfacet
  facet normal 0 0 1
    outer loop
      vertex -4.8541 -3.52671 36
      vertex -5.25861 -3.8206 36
      vertex -4.7383 -4.44956 36
    endloop
  endfacet
  facet normal 0 0 1
    outer loop
      vertex -5.69599 -3.1314 36
      vertex -5.25784 -2.89052 36
      vertex -5.57866 -2.20875 36
    endloop
  endfacet
  facet normal 0 0 1
    outer loop
      vertex -5.25784 -2.89052 36
      vertex -5.69599 -3.1314 36
      vertex -5.25861 -3.8206 36
    endloop
  endfacet
  facet normal 0 0 1
    outer loop
      vertex -6.04355 -2.39281 36
      vertex -5.57866 -2.20875 36
      vertex -5.8115 -1.49214 36
    endloop
  endfacet
  facet normal 0 0 1
    outer loop
      vertex -6.29579 -1.61648 36
      vertex -5.8115 -1.49214 36
      vertex -5.95269 -0.751999 36
    endloop
  endfacet
  facet normal 0 0 1
    outer loop
      vertex -5.57866 -2.20875 36
      vertex -6.04355 -2.39281 36
      vertex -5.69599 -3.1314 36
    endloop
  endfacet
  facet normal 0 0 1
    outer loop
      vertex -6.44874 -0.814666 36
      vertex -5.95269 -0.751999 36
      vertex -6 0 36
    endloop
  endfacet
  facet normal -0 0 1
    outer loop
      vertex -6.44874 0.814666 36
      vertex -5.95269 0.751999 36
      vertex -6.29579 1.61648 36
    endloop
  endfacet
  facet normal 0 0 1
    outer loop
      vertex -5.95269 0.751999 36
      vertex -6.44874 0.814666 36
      vertex -6 0 36
    endloop
  endfacet
  facet normal 0 0 1
    outer loop
      vertex -5.8115 -1.49214 36
      vertex -6.29579 -1.61648 36
      vertex -6.04355 -2.39281 36
    endloop
  endfacet
  facet normal 0 0 1
    outer loop
      vertex -6.5 0 36
      vertex -6 0 36
      vertex -6.44874 0.814666 36
    endloop
  endfacet
  facet normal 0 0 1
    outer loop
      vertex -5.95269 -0.751999 36
      vertex -6.44874 -0.814666 36
      vertex -6.29579 -1.61648 36
    endloop
  endfacet
  facet normal 0 0 1
    outer loop
      vertex -6 0 36
      vertex -6.5 0 36
      vertex -6.44874 -0.814666 36
    endloop
  endfacet
  facet normal -0.481758 0.876304 0
    outer loop
      vertex -2.76756 5.88138 -36
      vertex -3.48287 5.48813 36
      vertex -2.76756 5.88138 36
    endloop
  endfacet
  facet normal -0.481758 0.876304 0
    outer loop
      vertex -3.48287 5.48813 36
      vertex -2.76756 5.88138 -36
      vertex -3.48287 5.48813 -36
    endloop
  endfacet
  facet normal -0.587776 0.809024 0
    outer loop
      vertex -3.48287 5.48813 -36
      vertex -4.14326 5.00834 36
      vertex -3.48287 5.48813 36
    endloop
  endfacet
  facet normal -0.587776 0.809024 0
    outer loop
      vertex -4.14326 5.00834 36
      vertex -3.48287 5.48813 -36
      vertex -4.14326 5.00834 -36
    endloop
  endfacet
  facet normal -0.248691 0.968583 0
    outer loop
      vertex -1.21798 6.38487 -36
      vertex -2.00861 6.18187 36
      vertex -1.21798 6.38487 36
    endloop
  endfacet
  facet normal -0.248691 0.968583 0
    outer loop
      vertex -2.00861 6.18187 36
      vertex -1.21798 6.38487 -36
      vertex -2.00861 6.18187 -36
    endloop
  endfacet
  facet normal 0.998026 -0.0627973 0
    outer loop
      vertex 6.44874 -0.814666 36
      vertex 6.5 0 -36
      vertex 6.5 0 36
    endloop
  endfacet
  facet normal 0.998026 -0.0627973 0
    outer loop
      vertex 6.5 0 -36
      vertex 6.44874 -0.814666 36
      vertex 6.44874 -0.814666 -36
    endloop
  endfacet
  facet normal 0.481758 -0.876304 0
    outer loop
      vertex 2.76756 -5.88138 -36
      vertex 3.48287 -5.48813 36
      vertex 2.76756 -5.88138 36
    endloop
  endfacet
  facet normal 0.481758 -0.876304 0
    outer loop
      vertex 3.48287 -5.48813 36
      vertex 2.76756 -5.88138 -36
      vertex 3.48287 -5.48813 -36
    endloop
  endfacet
  facet normal 0.684547 -0.728968 0
    outer loop
      vertex 4.14326 -5.00834 -36
      vertex 4.7383 -4.44956 36
      vertex 4.14326 -5.00834 36
    endloop
  endfacet
  facet normal 0.684547 -0.728968 0
    outer loop
      vertex 4.7383 -4.44956 36
      vertex 4.14326 -5.00834 -36
      vertex 4.7383 -4.44956 -36
    endloop
  endfacet
  facet normal 0.844328 -0.535827 0
    outer loop
      vertex 5.25861 -3.8206 36
      vertex 5.69599 -3.1314 -36
      vertex 5.69599 -3.1314 36
    endloop
  endfacet
  facet normal 0.844328 -0.535827 0
    outer loop
      vertex 5.69599 -3.1314 -36
      vertex 5.25861 -3.8206 36
      vertex 5.25861 -3.8206 -36
    endloop
  endfacet
  facet normal -0.904824 -0.425785 0
    outer loop
      vertex -5.69599 -3.1314 -36
      vertex -6.04355 -2.39281 36
      vertex -6.04355 -2.39281 -36
    endloop
  endfacet
  facet normal -0.904824 -0.425785 0
    outer loop
      vertex -6.04355 -2.39281 36
      vertex -5.69599 -3.1314 -36
      vertex -5.69599 -3.1314 36
    endloop
  endfacet
  facet normal 0 0 -1
    outer loop
      vertex 6 0 -36
      vertex 6.5 0 -36
      vertex 6.44874 -0.814666 -36
    endloop
  endfacet
  facet normal 0 0 -1
    outer loop
      vertex 5.95269 -0.751999 -36
      vertex 6.44874 -0.814666 -36
      vertex 6.29579 -1.61648 -36
    endloop
  endfacet
  facet normal 0 0 -1
    outer loop
      vertex 6.5 0 -36
      vertex 6 0 -36
      vertex 6.44874 0.814666 -36
    endloop
  endfacet
  facet normal 0 0 -1
    outer loop
      vertex 5.8115 -1.49214 -36
      vertex 6.29579 -1.61648 -36
      vertex 6.04355 -2.39281 -36
    endloop
  endfacet
  facet normal 0 0 -1
    outer loop
      vertex 5.95269 0.751999 -36
      vertex 6.44874 0.814666 -36
      vertex 6 0 -36
    endloop
  endfacet
  facet normal -0 0 -1
    outer loop
      vertex 6.44874 0.814666 -36
      vertex 5.95269 0.751999 -36
      vertex 6.29579 1.61648 -36
    endloop
  endfacet
  facet normal 0 0 -1
    outer loop
      vertex 6.44874 -0.814666 -36
      vertex 5.95269 -0.751999 -36
      vertex 6 0 -36
    endloop
  endfacet
  facet normal 0 0 -1
    outer loop
      vertex 6.29579 -1.61648 -36
      vertex 5.8115 -1.49214 -36
      vertex 5.95269 -0.751999 -36
    endloop
  endfacet
  facet normal 0 0 -1
    outer loop
      vertex 5.57866 -2.20875 -36
      vertex 6.04355 -2.39281 -36
      vertex 5.69599 -3.1314 -36
    endloop
  endfacet
  facet normal 0 0 -1
    outer loop
      vertex 6.04355 -2.39281 -36
      vertex 5.57866 -2.20875 -36
      vertex 5.8115 -1.49214 -36
    endloop
  endfacet
  facet normal 0 0 -1
    outer loop
      vertex 5.25784 -2.89052 -36
      vertex 5.69599 -3.1314 -36
      vertex 5.25861 -3.8206 -36
    endloop
  endfacet
  facet normal 0 0 -1
    outer loop
      vertex 5.69599 -3.1314 -36
      vertex 5.25784 -2.89052 -36
      vertex 5.57866 -2.20875 -36
    endloop
  endfacet
  facet normal 0 0 -1
    outer loop
      vertex 5.25861 -3.8206 -36
      vertex 4.8541 -3.52671 -36
      vertex 5.25784 -2.89052 -36
    endloop
  endfacet
  facet normal 0 0 -1
    outer loop
      vertex 4.7383 -4.44956 -36
      vertex 4.8541 -3.52671 -36
      vertex 5.25861 -3.8206 -36
    endloop
  endfacet
  facet normal 0 0 -1
    outer loop
      vertex 4.7383 -4.44956 -36
      vertex 4.37381 -4.10728 -36
      vertex 4.8541 -3.52671 -36
    endloop
  endfacet
  facet normal 0 0 -1
    outer loop
      vertex 4.14326 -5.00834 -36
      vertex 4.37381 -4.10728 -36
      vertex 4.7383 -4.44956 -36
    endloop
  endfacet
  facet normal 0 0 -1
    outer loop
      vertex 4.14326 -5.00834 -36
      vertex 3.82454 -4.62308 -36
      vertex 4.37381 -4.10728 -36
    endloop
  endfacet
  facet normal 0 0 -1
    outer loop
      vertex 3.48287 -5.48813 -36
      vertex 3.82454 -4.62308 -36
      vertex 4.14326 -5.00834 -36
    endloop
  endfacet
  facet normal 0 0 -1
    outer loop
      vertex 3.48287 -5.48813 -36
      vertex 3.21496 -5.06597 -36
      vertex 3.82454 -4.62308 -36
    endloop
  endfacet
  facet normal 0 0 -1
    outer loop
      vertex 2.76756 -5.88138 -36
      vertex 3.21496 -5.06597 -36
      vertex 3.48287 -5.48813 -36
    endloop
  endfacet
  facet normal 0 0 -1
    outer loop
      vertex 2.76756 -5.88138 -36
      vertex 2.55468 -5.42896 -36
      vertex 3.21496 -5.06597 -36
    endloop
  endfacet
  facet normal 0 0 -1
    outer loop
      vertex 2.00861 -6.18187 -36
      vertex 2.55468 -5.42896 -36
      vertex 2.76756 -5.88138 -36
    endloop
  endfacet
  facet normal 0 0 -1
    outer loop
      vertex 2.00861 -6.18187 -36
      vertex 1.8541 -5.70634 -36
      vertex 2.55468 -5.42896 -36
    endloop
  endfacet
  facet normal 0 0 -1
    outer loop
      vertex 1.21798 -6.38487 -36
      vertex 1.8541 -5.70634 -36
      vertex 2.00861 -6.18187 -36
    endloop
  endfacet
  facet normal 0 0 -1
    outer loop
      vertex 1.21798 -6.38487 -36
      vertex 1.12429 -5.89372 -36
      vertex 1.8541 -5.70634 -36
    endloop
  endfacet
  facet normal 0 0 -1
    outer loop
      vertex 0.408138 -6.48717 -36
      vertex 1.12429 -5.89372 -36
      vertex 1.21798 -6.38487 -36
    endloop
  endfacet
  facet normal 0 0 -1
    outer loop
      vertex 0.408138 -6.48717 -36
      vertex 0.376742 -5.98816 -36
      vertex 1.12429 -5.89372 -36
    endloop
  endfacet
  facet normal 0 0 -1
    outer loop
      vertex 0.408138 -6.48717 -36
      vertex -0.376742 -5.98816 -36
      vertex 0.376742 -5.98816 -36
    endloop
  endfacet
  facet normal 0 0 -1
    outer loop
      vertex -0.408138 -6.48717 -36
      vertex -0.376742 -5.98816 -36
      vertex 0.408138 -6.48717 -36
    endloop
  endfacet
  facet normal 0 0 -1
    outer loop
      vertex -0.408138 -6.48717 -36
      vertex -1.12429 -5.89372 -36
      vertex -0.376742 -5.98816 -36
    endloop
  endfacet
  facet normal 0 0 -1
    outer loop
      vertex -1.21798 -6.38487 -36
      vertex -1.12429 -5.89372 -36
      vertex -0.408138 -6.48717 -36
    endloop
  endfacet
  facet normal 0 0 -1
    outer loop
      vertex -1.21798 -6.38487 -36
      vertex -1.8541 -5.70634 -36
      vertex -1.12429 -5.89372 -36
    endloop
  endfacet
  facet normal 0 0 -1
    outer loop
      vertex -2.00861 -6.18187 -36
      vertex -1.8541 -5.70634 -36
      vertex -1.21798 -6.38487 -36
    endloop
  endfacet
  facet normal 0 0 -1
    outer loop
      vertex -2.00861 -6.18187 -36
      vertex -2.55468 -5.42896 -36
      vertex -1.8541 -5.70634 -36
    endloop
  endfacet
  facet normal 0 0 -1
    outer loop
      vertex -2.76756 -5.88138 -36
      vertex -2.55468 -5.42896 -36
      vertex -2.00861 -6.18187 -36
    endloop
  endfacet
  facet normal 0 0 -1
    outer loop
      vertex -2.76756 -5.88138 -36
      vertex -3.21496 -5.06597 -36
      vertex -2.55468 -5.42896 -36
    endloop
  endfacet
  facet normal 0 0 -1
    outer loop
      vertex -3.48287 -5.48813 -36
      vertex -3.21496 -5.06597 -36
      vertex -2.76756 -5.88138 -36
    endloop
  endfacet
  facet normal 0 0 -1
    outer loop
      vertex -3.48287 -5.48813 -36
      vertex -3.82454 -4.62308 -36
      vertex -3.21496 -5.06597 -36
    endloop
  endfacet
  facet normal 0 0 -1
    outer loop
      vertex -4.14326 -5.00834 -36
      vertex -3.82454 -4.62308 -36
      vertex -3.48287 -5.48813 -36
    endloop
  endfacet
  facet normal 0 0 -1
    outer loop
      vertex -4.14326 -5.00834 -36
      vertex -4.37381 -4.10728 -36
      vertex -3.82454 -4.62308 -36
    endloop
  endfacet
  facet normal 0 0 -1
    outer loop
      vertex -4.7383 -4.44956 -36
      vertex -4.37381 -4.10728 -36
      vertex -4.14326 -5.00834 -36
    endloop
  endfacet
  facet normal 0 0 -1
    outer loop
      vertex -4.7383 -4.44956 -36
      vertex -4.8541 -3.52671 -36
      vertex -4.37381 -4.10728 -36
    endloop
  endfacet
  facet normal 0 0 -1
    outer loop
      vertex -5.25861 -3.8206 -36
      vertex -4.8541 -3.52671 -36
      vertex -4.7383 -4.44956 -36
    endloop
  endfacet
  facet normal -0 0 -1
    outer loop
      vertex -4.8541 -3.52671 -36
      vertex -5.25861 -3.8206 -36
      vertex -5.25784 -2.89052 -36
    endloop
  endfacet
  facet normal 0 0 -1
    outer loop
      vertex -5.69599 -3.1314 -36
      vertex -5.25784 -2.89052 -36
      vertex -5.25861 -3.8206 -36
    endloop
  endfacet
  facet normal -0 0 -1
    outer loop
      vertex -5.25784 -2.89052 -36
      vertex -5.69599 -3.1314 -36
      vertex -5.57866 -2.20875 -36
    endloop
  endfacet
  facet normal 0 0 -1
    outer loop
      vertex -6.04355 -2.39281 -36
      vertex -5.57866 -2.20875 -36
      vertex -5.69599 -3.1314 -36
    endloop
  endfacet
  facet normal -0 0 -1
    outer loop
      vertex -5.57866 -2.20875 -36
      vertex -6.04355 -2.39281 -36
      vertex -5.8115 -1.49214 -36
    endloop
  endfacet
  facet normal -0 0 -1
    outer loop
      vertex -5.8115 -1.49214 -36
      vertex -6.29579 -1.61648 -36
      vertex -5.95269 -0.751999 -36
    endloop
  endfacet
  facet normal 0 0 -1
    outer loop
      vertex -6.29579 -1.61648 -36
      vertex -5.8115 -1.49214 -36
      vertex -6.04355 -2.39281 -36
    endloop
  endfacet
  facet normal 0 0 -1
    outer loop
      vertex 5.8115 1.49214 -36
      vertex 6.29579 1.61648 -36
      vertex 5.95269 0.751999 -36
    endloop
  endfacet
  facet normal -0 0 -1
    outer loop
      vertex 6.29579 1.61648 -36
      vertex 5.8115 1.49214 -36
      vertex 6.04355 2.39281 -36
    endloop
  endfacet
  facet normal 0 0 -1
    outer loop
      vertex 5.57866 2.20875 -36
      vertex 6.04355 2.39281 -36
      vertex 5.8115 1.49214 -36
    endloop
  endfacet
  facet normal -0 0 -1
    outer loop
      vertex 6.04355 2.39281 -36
      vertex 5.57866 2.20875 -36
      vertex 5.69599 3.1314 -36
    endloop
  endfacet
  facet normal 0 0 -1
    outer loop
      vertex 5.25784 2.89052 -36
      vertex 5.69599 3.1314 -36
      vertex 5.57866 2.20875 -36
    endloop
  endfacet
  facet normal -0 0 -1
    outer loop
      vertex 5.69599 3.1314 -36
      vertex 5.25784 2.89052 -36
      vertex 5.25861 3.8206 -36
    endloop
  endfacet
  facet normal 0 0 -1
    outer loop
      vertex 4.8541 3.52671 -36
      vertex 5.25861 3.8206 -36
      vertex 5.25784 2.89052 -36
    endloop
  endfacet
  facet normal 0 0 -1
    outer loop
      vertex 4.8541 3.52671 -36
      vertex 4.7383 4.44956 -36
      vertex 5.25861 3.8206 -36
    endloop
  endfacet
  facet normal 0 0 -1
    outer loop
      vertex 4.37381 4.10728 -36
      vertex 4.7383 4.44956 -36
      vertex 4.8541 3.52671 -36
    endloop
  endfacet
  facet normal 0 0 -1
    outer loop
      vertex 4.37381 4.10728 -36
      vertex 4.14326 5.00834 -36
      vertex 4.7383 4.44956 -36
    endloop
  endfacet
  facet normal 0 0 -1
    outer loop
      vertex 3.82454 4.62308 -36
      vertex 4.14326 5.00834 -36
      vertex 4.37381 4.10728 -36
    endloop
  endfacet
  facet normal 0 0 -1
    outer loop
      vertex 3.82454 4.62308 -36
      vertex 3.48287 5.48813 -36
      vertex 4.14326 5.00834 -36
    endloop
  endfacet
  facet normal 0 0 -1
    outer loop
      vertex 3.21496 5.06597 -36
      vertex 3.48287 5.48813 -36
      vertex 3.82454 4.62308 -36
    endloop
  endfacet
  facet normal 0 0 -1
    outer loop
      vertex 3.21496 5.06597 -36
      vertex 2.76756 5.88138 -36
      vertex 3.48287 5.48813 -36
    endloop
  endfacet
  facet normal 0 0 -1
    outer loop
      vertex 2.55468 5.42896 -36
      vertex 2.76756 5.88138 -36
      vertex 3.21496 5.06597 -36
    endloop
  endfacet
  facet normal 0 0 -1
    outer loop
      vertex 2.55468 5.42896 -36
      vertex 2.00861 6.18187 -36
      vertex 2.76756 5.88138 -36
    endloop
  endfacet
  facet normal 0 0 -1
    outer loop
      vertex 1.8541 5.70634 -36
      vertex 2.00861 6.18187 -36
      vertex 2.55468 5.42896 -36
    endloop
  endfacet
  facet normal 0 0 -1
    outer loop
      vertex 1.8541 5.70634 -36
      vertex 1.21798 6.38487 -36
      vertex 2.00861 6.18187 -36
    endloop
  endfacet
  facet normal 0 0 -1
    outer loop
      vertex 1.12429 5.89372 -36
      vertex 1.21798 6.38487 -36
      vertex 1.8541 5.70634 -36
    endloop
  endfacet
  facet normal 0 0 -1
    outer loop
      vertex 1.12429 5.89372 -36
      vertex 0.408138 6.48717 -36
      vertex 1.21798 6.38487 -36
    endloop
  endfacet
  facet normal 0 0 -1
    outer loop
      vertex 0.376742 5.98816 -36
      vertex 0.408138 6.48717 -36
      vertex 1.12429 5.89372 -36
    endloop
  endfacet
  facet normal 0 0 -1
    outer loop
      vertex -0.376742 5.98816 -36
      vertex 0.408138 6.48717 -36
      vertex 0.376742 5.98816 -36
    endloop
  endfacet
  facet normal 0 0 -1
    outer loop
      vertex -0.376742 5.98816 -36
      vertex -0.408138 6.48717 -36
      vertex 0.408138 6.48717 -36
    endloop
  endfacet
  facet normal 0 0 -1
    outer loop
      vertex -1.12429 5.89372 -36
      vertex -0.408138 6.48717 -36
      vertex -0.376742 5.98816 -36
    endloop
  endfacet
  facet normal 0 0 -1
    outer loop
      vertex -1.12429 5.89372 -36
      vertex -1.21798 6.38487 -36
      vertex -0.408138 6.48717 -36
    endloop
  endfacet
  facet normal 0 0 -1
    outer loop
      vertex -1.8541 5.70634 -36
      vertex -1.21798 6.38487 -36
      vertex -1.12429 5.89372 -36
    endloop
  endfacet
  facet normal 0 0 -1
    outer loop
      vertex -1.8541 5.70634 -36
      vertex -2.00861 6.18187 -36
      vertex -1.21798 6.38487 -36
    endloop
  endfacet
  facet normal 0 0 -1
    outer loop
      vertex -2.55468 5.42896 -36
      vertex -2.00861 6.18187 -36
      vertex -1.8541 5.70634 -36
    endloop
  endfacet
  facet normal 0 0 -1
    outer loop
      vertex -2.55468 5.42896 -36
      vertex -2.76756 5.88138 -36
      vertex -2.00861 6.18187 -36
    endloop
  endfacet
  facet normal 0 0 -1
    outer loop
      vertex -3.21496 5.06597 -36
      vertex -2.76756 5.88138 -36
      vertex -2.55468 5.42896 -36
    endloop
  endfacet
  facet normal 0 0 -1
    outer loop
      vertex -3.21496 5.06597 -36
      vertex -3.48287 5.48813 -36
      vertex -2.76756 5.88138 -36
    endloop
  endfacet
  facet normal 0 0 -1
    outer loop
      vertex -3.82454 4.62308 -36
      vertex -3.48287 5.48813 -36
      vertex -3.21496 5.06597 -36
    endloop
  endfacet
  facet normal 0 0 -1
    outer loop
      vertex -3.82454 4.62308 -36
      vertex -4.14326 5.00834 -36
      vertex -3.48287 5.48813 -36
    endloop
  endfacet
  facet normal 0 0 -1
    outer loop
      vertex -4.37381 4.10728 -36
      vertex -4.14326 5.00834 -36
      vertex -3.82454 4.62308 -36
    endloop
  endfacet
  facet normal 0 0 -1
    outer loop
      vertex -4.37381 4.10728 -36
      vertex -4.7383 4.44956 -36
      vertex -4.14326 5.00834 -36
    endloop
  endfacet
  facet normal 0 0 -1
    outer loop
      vertex -4.8541 3.52671 -36
      vertex -4.7383 4.44956 -36
      vertex -4.37381 4.10728 -36
    endloop
  endfacet
  facet normal 0 0 -1
    outer loop
      vertex -5.25861 3.8206 -36
      vertex -4.8541 3.52671 -36
      vertex -5.25784 2.89052 -36
    endloop
  endfacet
  facet normal 0 0 -1
    outer loop
      vertex -4.8541 3.52671 -36
      vertex -5.25861 3.8206 -36
      vertex -4.7383 4.44956 -36
    endloop
  endfacet
  facet normal 0 0 -1
    outer loop
      vertex -5.69599 3.1314 -36
      vertex -5.25784 2.89052 -36
      vertex -5.57866 2.20875 -36
    endloop
  endfacet
  facet normal 0 0 -1
    outer loop
      vertex -5.25784 2.89052 -36
      vertex -5.69599 3.1314 -36
      vertex -5.25861 3.8206 -36
    endloop
  endfacet
  facet normal 0 0 -1
    outer loop
      vertex -6.04355 2.39281 -36
      vertex -5.57866 2.20875 -36
      vertex -5.8115 1.49214 -36
    endloop
  endfacet
  facet normal 0 0 -1
    outer loop
      vertex -6.29579 1.61648 -36
      vertex -5.8115 1.49214 -36
      vertex -5.95269 0.751999 -36
    endloop
  endfacet
  facet normal 0 0 -1
    outer loop
      vertex -5.57866 2.20875 -36
      vertex -6.04355 2.39281 -36
      vertex -5.69599 3.1314 -36
    endloop
  endfacet
  facet normal 0 0 -1
    outer loop
      vertex -6.44874 0.814666 -36
      vertex -5.95269 0.751999 -36
      vertex -6 0 -36
    endloop
  endfacet
  facet normal 0 0 -1
    outer loop
      vertex -6.44874 -0.814666 -36
      vertex -5.95269 -0.751999 -36
      vertex -6.29579 -1.61648 -36
    endloop
  endfacet
  facet normal -0 0 -1
    outer loop
      vertex -5.95269 -0.751999 -36
      vertex -6.44874 -0.814666 -36
      vertex -6 0 -36
    endloop
  endfacet
  facet normal 0 0 -1
    outer loop
      vertex -5.8115 1.49214 -36
      vertex -6.29579 1.61648 -36
      vertex -6.04355 2.39281 -36
    endloop
  endfacet
  facet normal 0 0 -1
    outer loop
      vertex -6.5 0 -36
      vertex -6 0 -36
      vertex -6.44874 -0.814666 -36
    endloop
  endfacet
  facet normal 0 0 -1
    outer loop
      vertex -5.95269 0.751999 -36
      vertex -6.44874 0.814666 -36
      vertex -6.29579 1.61648 -36
    endloop
  endfacet
  facet normal 0 0 -1
    outer loop
      vertex -6 0 -36
      vertex -6.5 0 -36
      vertex -6.44874 0.814666 -36
    endloop
  endfacet
  facet normal 0.951058 -0.309012 0
    outer loop
      vertex 6.04355 -2.39281 36
      vertex 6.29579 -1.61648 -36
      vertex 6.29579 -1.61648 36
    endloop
  endfacet
  facet normal 0.951058 -0.309012 0
    outer loop
      vertex 6.29579 -1.61648 -36
      vertex 6.04355 -2.39281 36
      vertex 6.04355 -2.39281 -36
    endloop
  endfacet
  facet normal 0.77052 -0.637416 0
    outer loop
      vertex 4.7383 -4.44956 36
      vertex 5.25861 -3.8206 -36
      vertex 5.25861 -3.8206 36
    endloop
  endfacet
  facet normal 0.77052 -0.637416 0
    outer loop
      vertex 5.25861 -3.8206 -36
      vertex 4.7383 -4.44956 36
      vertex 4.7383 -4.44956 -36
    endloop
  endfacet
  facet normal -0.951058 -0.309012 0
    outer loop
      vertex -6.04355 -2.39281 -36
      vertex -6.29579 -1.61648 36
      vertex -6.29579 -1.61648 -36
    endloop
  endfacet
  facet normal -0.951058 -0.309012 0
    outer loop
      vertex -6.29579 -1.61648 36
      vertex -6.04355 -2.39281 -36
      vertex -6.04355 -2.39281 36
    endloop
  endfacet
  facet normal 0.248691 -0.968583 0
    outer loop
      vertex 1.21798 -6.38487 -36
      vertex 2.00861 -6.18187 36
      vertex 1.21798 -6.38487 36
    endloop
  endfacet
  facet normal 0.248691 -0.968583 0
    outer loop
      vertex 2.00861 -6.18187 36
      vertex 1.21798 -6.38487 -36
      vertex 2.00861 -6.18187 -36
    endloop
  endfacet
  facet normal 0.982288 -0.187376 0
    outer loop
      vertex 6.29579 -1.61648 36
      vertex 6.44874 -0.814666 -36
      vertex 6.44874 -0.814666 36
    endloop
  endfacet
  facet normal 0.982288 -0.187376 0
    outer loop
      vertex 6.44874 -0.814666 -36
      vertex 6.29579 -1.61648 36
      vertex 6.29579 -1.61648 -36
    endloop
  endfacet
  facet normal 0.587776 -0.809024 0
    outer loop
      vertex 3.48287 -5.48813 -36
      vertex 4.14326 -5.00834 36
      vertex 3.48287 -5.48813 36
    endloop
  endfacet
  facet normal 0.587776 -0.809024 0
    outer loop
      vertex 4.14326 -5.00834 36
      vertex 3.48287 -5.48813 -36
      vertex 4.14326 -5.00834 -36
    endloop
  endfacet
  facet normal -0.125325 -0.992116 0
    outer loop
      vertex -1.21798 -6.38487 -36
      vertex -0.408138 -6.48717 36
      vertex -1.21798 -6.38487 36
    endloop
  endfacet
  facet normal -0.125325 -0.992116 -0
    outer loop
      vertex -0.408138 -6.48717 36
      vertex -1.21798 -6.38487 -36
      vertex -0.408138 -6.48717 -36
    endloop
  endfacet
  facet normal -0.368125 -0.929776 0
    outer loop
      vertex -2.76756 -5.88138 -36
      vertex -2.00861 -6.18187 36
      vertex -2.76756 -5.88138 36
    endloop
  endfacet
  facet normal -0.368125 -0.929776 -0
    outer loop
      vertex -2.00861 -6.18187 36
      vertex -2.76756 -5.88138 -36
      vertex -2.00861 -6.18187 -36
    endloop
  endfacet
  facet normal -0.248691 -0.968583 0
    outer loop
      vertex -2.00861 -6.18187 -36
      vertex -1.21798 -6.38487 36
      vertex -2.00861 -6.18187 36
    endloop
  endfacet
  facet normal -0.248691 -0.968583 -0
    outer loop
      vertex -1.21798 -6.38487 36
      vertex -2.00861 -6.18187 -36
      vertex -1.21798 -6.38487 -36
    endloop
  endfacet
  facet normal -0.77052 -0.637416 0
    outer loop
      vertex -4.7383 -4.44956 -36
      vertex -5.25861 -3.8206 36
      vertex -5.25861 -3.8206 -36
    endloop
  endfacet
  facet normal -0.77052 -0.637416 0
    outer loop
      vertex -5.25861 -3.8206 36
      vertex -4.7383 -4.44956 -36
      vertex -4.7383 -4.44956 36
    endloop
  endfacet
  facet normal -0.684547 -0.728968 0
    outer loop
      vertex -4.7383 -4.44956 -36
      vertex -4.14326 -5.00834 36
      vertex -4.7383 -4.44956 36
    endloop
  endfacet
  facet normal -0.684547 -0.728968 -0
    outer loop
      vertex -4.14326 -5.00834 36
      vertex -4.7383 -4.44956 -36
      vertex -4.14326 -5.00834 -36
    endloop
  endfacet
  facet normal -0.982288 -0.187376 0
    outer loop
      vertex -6.29579 -1.61648 -36
      vertex -6.44874 -0.814666 36
      vertex -6.44874 -0.814666 -36
    endloop
  endfacet
  facet normal -0.982288 -0.187376 0
    outer loop
      vertex -6.44874 -0.814666 36
      vertex -6.29579 -1.61648 -36
      vertex -6.29579 -1.61648 36
    endloop
  endfacet
  facet normal -0.998026 -0.0627973 0
    outer loop
      vertex -6.44874 -0.814666 -36
      vertex -6.5 0 36
      vertex -6.5 0 -36
    endloop
  endfacet
  facet normal -0.998026 -0.0627973 0
    outer loop
      vertex -6.5 0 36
      vertex -6.44874 -0.814666 -36
      vertex -6.44874 -0.814666 36
    endloop
  endfacet
  facet normal -0.844328 -0.535827 0
    outer loop
      vertex -5.25861 -3.8206 -36
      vertex -5.69599 -3.1314 36
      vertex -5.69599 -3.1314 -36
    endloop
  endfacet
  facet normal -0.844328 -0.535827 0
    outer loop
      vertex -5.69599 -3.1314 36
      vertex -5.25861 -3.8206 -36
      vertex -5.25861 -3.8206 36
    endloop
  endfacet
  facet normal -0.481758 -0.876304 0
    outer loop
      vertex -3.48287 -5.48813 -36
      vertex -2.76756 -5.88138 36
      vertex -3.48287 -5.48813 36
    endloop
  endfacet
  facet normal -0.481758 -0.876304 -0
    outer loop
      vertex -2.76756 -5.88138 36
      vertex -3.48287 -5.48813 -36
      vertex -2.76756 -5.88138 -36
    endloop
  endfacet
  facet normal -0.587776 -0.809024 0
    outer loop
      vertex -4.14326 -5.00834 -36
      vertex -3.48287 -5.48813 36
      vertex -4.14326 -5.00834 36
    endloop
  endfacet
  facet normal -0.587776 -0.809024 -0
    outer loop
      vertex -3.48287 -5.48813 36
      vertex -4.14326 -5.00834 -36
      vertex -3.48287 -5.48813 -36
    endloop
  endfacet
  facet normal -0.998027 -0.0627882 0
    outer loop
      vertex 6 0 -36
      vertex 5.95269 0.751999 36
      vertex 5.95269 0.751999 -36
    endloop
  endfacet
  facet normal -0.998027 -0.0627882 0
    outer loop
      vertex 5.95269 0.751999 36
      vertex 6 0 -36
      vertex 6 0 36
    endloop
  endfacet
  facet normal 0.998027 -0.0627882 0
    outer loop
      vertex -6 0 36
      vertex -5.95269 0.751999 -36
      vertex -5.95269 0.751999 36
    endloop
  endfacet
  facet normal 0.998027 -0.0627882 0
    outer loop
      vertex -5.95269 0.751999 -36
      vertex -6 0 36
      vertex -6 0 -36
    endloop
  endfacet
  facet normal 0 -1 0
    outer loop
      vertex -0.376742 5.98816 -36
      vertex 0.376742 5.98816 36
      vertex -0.376742 5.98816 36
    endloop
  endfacet
  facet normal 0 -1 -0
    outer loop
      vertex 0.376742 5.98816 36
      vertex -0.376742 5.98816 -36
      vertex 0.376742 5.98816 -36
    endloop
  endfacet
  facet normal -0.684548 -0.728968 0
    outer loop
      vertex 3.82454 4.62308 -36
      vertex 4.37381 4.10728 36
      vertex 3.82454 4.62308 36
    endloop
  endfacet
  facet normal -0.684548 -0.728968 -0
    outer loop
      vertex 4.37381 4.10728 36
      vertex 3.82454 4.62308 -36
      vertex 4.37381 4.10728 -36
    endloop
  endfacet
  facet normal 0.684548 -0.728968 0
    outer loop
      vertex -4.37381 4.10728 -36
      vertex -3.82454 4.62308 36
      vertex -4.37381 4.10728 36
    endloop
  endfacet
  facet normal 0.684548 -0.728968 0
    outer loop
      vertex -3.82454 4.62308 36
      vertex -4.37381 4.10728 -36
      vertex -3.82454 4.62308 -36
    endloop
  endfacet
  facet normal 0.368125 -0.929776 0
    outer loop
      vertex -2.55468 5.42896 -36
      vertex -1.8541 5.70634 36
      vertex -2.55468 5.42896 36
    endloop
  endfacet
  facet normal 0.368125 -0.929776 0
    outer loop
      vertex -1.8541 5.70634 36
      vertex -2.55468 5.42896 -36
      vertex -1.8541 5.70634 -36
    endloop
  endfacet
  facet normal -0.904825 -0.425783 0
    outer loop
      vertex 5.57866 2.20875 -36
      vertex 5.25784 2.89052 36
      vertex 5.25784 2.89052 -36
    endloop
  endfacet
  facet normal -0.904825 -0.425783 0
    outer loop
      vertex 5.25784 2.89052 36
      vertex 5.57866 2.20875 -36
      vertex 5.57866 2.20875 36
    endloop
  endfacet
  facet normal -0.982287 -0.187382 0
    outer loop
      vertex 5.95269 0.751999 -36
      vertex 5.8115 1.49214 36
      vertex 5.8115 1.49214 -36
    endloop
  endfacet
  facet normal -0.982287 -0.187382 0
    outer loop
      vertex 5.8115 1.49214 36
      vertex 5.95269 0.751999 -36
      vertex 5.95269 0.751999 36
    endloop
  endfacet
  facet normal -0.368125 -0.929776 0
    outer loop
      vertex 1.8541 5.70634 -36
      vertex 2.55468 5.42896 36
      vertex 1.8541 5.70634 36
    endloop
  endfacet
  facet normal -0.368125 -0.929776 -0
    outer loop
      vertex 2.55468 5.42896 36
      vertex 1.8541 5.70634 -36
      vertex 2.55468 5.42896 -36
    endloop
  endfacet
  facet normal -0.248686 -0.968584 0
    outer loop
      vertex 1.12429 5.89372 -36
      vertex 1.8541 5.70634 36
      vertex 1.12429 5.89372 36
    endloop
  endfacet
  facet normal -0.248686 -0.968584 -0
    outer loop
      vertex 1.8541 5.70634 36
      vertex 1.12429 5.89372 -36
      vertex 1.8541 5.70634 -36
    endloop
  endfacet
  facet normal -0.587789 -0.809014 0
    outer loop
      vertex 3.21496 5.06597 -36
      vertex 3.82454 4.62308 36
      vertex 3.21496 5.06597 36
    endloop
  endfacet
  facet normal -0.587789 -0.809014 -0
    outer loop
      vertex 3.82454 4.62308 36
      vertex 3.21496 5.06597 -36
      vertex 3.82454 4.62308 -36
    endloop
  endfacet
  facet normal 0.904825 -0.425783 0
    outer loop
      vertex -5.57866 2.20875 36
      vertex -5.25784 2.89052 -36
      vertex -5.25784 2.89052 36
    endloop
  endfacet
  facet normal 0.904825 -0.425783 0
    outer loop
      vertex -5.25784 2.89052 -36
      vertex -5.57866 2.20875 36
      vertex -5.57866 2.20875 -36
    endloop
  endfacet
  facet normal 0.844327 -0.535828 0
    outer loop
      vertex -5.25784 2.89052 36
      vertex -4.8541 3.52671 -36
      vertex -4.8541 3.52671 36
    endloop
  endfacet
  facet normal 0.844327 -0.535828 0
    outer loop
      vertex -4.8541 3.52671 -36
      vertex -5.25784 2.89052 36
      vertex -5.25784 2.89052 -36
    endloop
  endfacet
  facet normal 0.951057 -0.309016 0
    outer loop
      vertex -5.8115 1.49214 36
      vertex -5.57866 2.20875 -36
      vertex -5.57866 2.20875 36
    endloop
  endfacet
  facet normal 0.951057 -0.309016 0
    outer loop
      vertex -5.57866 2.20875 -36
      vertex -5.8115 1.49214 36
      vertex -5.8115 1.49214 -36
    endloop
  endfacet
  facet normal 0.587789 -0.809014 0
    outer loop
      vertex -3.82454 4.62308 -36
      vertex -3.21496 5.06597 36
      vertex -3.82454 4.62308 36
    endloop
  endfacet
  facet normal 0.587789 -0.809014 0
    outer loop
      vertex -3.21496 5.06597 36
      vertex -3.82454 4.62308 -36
      vertex -3.21496 5.06597 -36
    endloop
  endfacet
  facet normal 0.125337 -0.992114 0
    outer loop
      vertex -1.12429 5.89372 -36
      vertex -0.376742 5.98816 36
      vertex -1.12429 5.89372 36
    endloop
  endfacet
  facet normal 0.125337 -0.992114 0
    outer loop
      vertex -0.376742 5.98816 36
      vertex -1.12429 5.89372 -36
      vertex -0.376742 5.98816 -36
    endloop
  endfacet
  facet normal -0.998027 0.0627882 0
    outer loop
      vertex 5.95269 -0.751999 -36
      vertex 6 0 36
      vertex 6 0 -36
    endloop
  endfacet
  facet normal -0.998027 0.0627882 0
    outer loop
      vertex 6 0 36
      vertex 5.95269 -0.751999 -36
      vertex 5.95269 -0.751999 36
    endloop
  endfacet
  facet normal 0.248686 0.968584 -0
    outer loop
      vertex -1.12429 -5.89372 -36
      vertex -1.8541 -5.70634 36
      vertex -1.12429 -5.89372 36
    endloop
  endfacet
  facet normal 0.248686 0.968584 0
    outer loop
      vertex -1.8541 -5.70634 36
      vertex -1.12429 -5.89372 -36
      vertex -1.8541 -5.70634 -36
    endloop
  endfacet
  facet normal -0.125337 0.992114 0
    outer loop
      vertex 1.12429 -5.89372 -36
      vertex 0.376742 -5.98816 36
      vertex 1.12429 -5.89372 36
    endloop
  endfacet
  facet normal -0.125337 0.992114 0
    outer loop
      vertex 0.376742 -5.98816 36
      vertex 1.12429 -5.89372 -36
      vertex 0.376742 -5.98816 -36
    endloop
  endfacet
  facet normal -0.951057 -0.309016 0
    outer loop
      vertex 5.8115 1.49214 -36
      vertex 5.57866 2.20875 36
      vertex 5.57866 2.20875 -36
    endloop
  endfacet
  facet normal -0.951057 -0.309016 0
    outer loop
      vertex 5.57866 2.20875 36
      vertex 5.8115 1.49214 -36
      vertex 5.8115 1.49214 36
    endloop
  endfacet
  facet normal -0.770513 -0.637425 0
    outer loop
      vertex 4.8541 3.52671 -36
      vertex 4.37381 4.10728 36
      vertex 4.37381 4.10728 -36
    endloop
  endfacet
  facet normal -0.770513 -0.637425 0
    outer loop
      vertex 4.37381 4.10728 36
      vertex 4.8541 3.52671 -36
      vertex 4.8541 3.52671 36
    endloop
  endfacet
  facet normal -0.844327 -0.535828 0
    outer loop
      vertex 5.25784 2.89052 -36
      vertex 4.8541 3.52671 36
      vertex 4.8541 3.52671 -36
    endloop
  endfacet
  facet normal -0.844327 -0.535828 0
    outer loop
      vertex 4.8541 3.52671 36
      vertex 5.25784 2.89052 -36
      vertex 5.25784 2.89052 36
    endloop
  endfacet
  facet normal -0.125337 -0.992114 0
    outer loop
      vertex 0.376742 5.98816 -36
      vertex 1.12429 5.89372 36
      vertex 0.376742 5.98816 36
    endloop
  endfacet
  facet normal -0.125337 -0.992114 -0
    outer loop
      vertex 1.12429 5.89372 36
      vertex 0.376742 5.98816 -36
      vertex 1.12429 5.89372 -36
    endloop
  endfacet
  facet normal -0.481752 -0.876308 0
    outer loop
      vertex 2.55468 5.42896 -36
      vertex 3.21496 5.06597 36
      vertex 2.55468 5.42896 36
    endloop
  endfacet
  facet normal -0.481752 -0.876308 -0
    outer loop
      vertex 3.21496 5.06597 36
      vertex 2.55468 5.42896 -36
      vertex 3.21496 5.06597 -36
    endloop
  endfacet
  facet normal 0.982287 -0.187382 0
    outer loop
      vertex -5.95269 0.751999 36
      vertex -5.8115 1.49214 -36
      vertex -5.8115 1.49214 36
    endloop
  endfacet
  facet normal 0.982287 -0.187382 0
    outer loop
      vertex -5.8115 1.49214 -36
      vertex -5.95269 0.751999 36
      vertex -5.95269 0.751999 -36
    endloop
  endfacet
  facet normal 0.481752 -0.876308 0
    outer loop
      vertex -3.21496 5.06597 -36
      vertex -2.55468 5.42896 36
      vertex -3.21496 5.06597 36
    endloop
  endfacet
  facet normal 0.481752 -0.876308 0
    outer loop
      vertex -2.55468 5.42896 36
      vertex -3.21496 5.06597 -36
      vertex -2.55468 5.42896 -36
    endloop
  endfacet
  facet normal 0.248686 -0.968584 0
    outer loop
      vertex -1.8541 5.70634 -36
      vertex -1.12429 5.89372 36
      vertex -1.8541 5.70634 36
    endloop
  endfacet
  facet normal 0.248686 -0.968584 0
    outer loop
      vertex -1.12429 5.89372 36
      vertex -1.8541 5.70634 -36
      vertex -1.12429 5.89372 -36
    endloop
  endfacet
  facet normal -0.982287 0.187382 0
    outer loop
      vertex 5.8115 -1.49214 -36
      vertex 5.95269 -0.751999 36
      vertex 5.95269 -0.751999 -36
    endloop
  endfacet
  facet normal -0.982287 0.187382 0
    outer loop
      vertex 5.95269 -0.751999 36
      vertex 5.8115 -1.49214 -36
      vertex 5.8115 -1.49214 36
    endloop
  endfacet
  facet normal 0.125337 0.992114 -0
    outer loop
      vertex -0.376742 -5.98816 -36
      vertex -1.12429 -5.89372 36
      vertex -0.376742 -5.98816 36
    endloop
  endfacet
  facet normal 0.125337 0.992114 0
    outer loop
      vertex -1.12429 -5.89372 36
      vertex -0.376742 -5.98816 -36
      vertex -1.12429 -5.89372 -36
    endloop
  endfacet
  facet normal 0.844327 0.535828 0
    outer loop
      vertex -4.8541 -3.52671 36
      vertex -5.25784 -2.89052 -36
      vertex -5.25784 -2.89052 36
    endloop
  endfacet
  facet normal 0.844327 0.535828 0
    outer loop
      vertex -5.25784 -2.89052 -36
      vertex -4.8541 -3.52671 36
      vertex -4.8541 -3.52671 -36
    endloop
  endfacet
  facet normal 0.904825 0.425783 0
    outer loop
      vertex -5.25784 -2.89052 36
      vertex -5.57866 -2.20875 -36
      vertex -5.57866 -2.20875 36
    endloop
  endfacet
  facet normal 0.904825 0.425783 0
    outer loop
      vertex -5.57866 -2.20875 -36
      vertex -5.25784 -2.89052 36
      vertex -5.25784 -2.89052 -36
    endloop
  endfacet
  facet normal 0.951057 0.309016 0
    outer loop
      vertex -5.57866 -2.20875 36
      vertex -5.8115 -1.49214 -36
      vertex -5.8115 -1.49214 36
    endloop
  endfacet
  facet normal 0.951057 0.309016 0
    outer loop
      vertex -5.8115 -1.49214 -36
      vertex -5.57866 -2.20875 36
      vertex -5.57866 -2.20875 -36
    endloop
  endfacet
  facet normal -0.368125 0.929776 0
    outer loop
      vertex 2.55468 -5.42896 -36
      vertex 1.8541 -5.70634 36
      vertex 2.55468 -5.42896 36
    endloop
  endfacet
  facet normal -0.368125 0.929776 0
    outer loop
      vertex 1.8541 -5.70634 36
      vertex 2.55468 -5.42896 -36
      vertex 1.8541 -5.70634 -36
    endloop
  endfacet
  facet normal -0.248686 0.968584 0
    outer loop
      vertex 1.8541 -5.70634 -36
      vertex 1.12429 -5.89372 36
      vertex 1.8541 -5.70634 36
    endloop
  endfacet
  facet normal -0.248686 0.968584 0
    outer loop
      vertex 1.12429 -5.89372 36
      vertex 1.8541 -5.70634 -36
      vertex 1.12429 -5.89372 -36
    endloop
  endfacet
  facet normal 0.770513 -0.637425 0
    outer loop
      vertex -4.8541 3.52671 36
      vertex -4.37381 4.10728 -36
      vertex -4.37381 4.10728 36
    endloop
  endfacet
  facet normal 0.770513 -0.637425 0
    outer loop
      vertex -4.37381 4.10728 -36
      vertex -4.8541 3.52671 36
      vertex -4.8541 3.52671 -36
    endloop
  endfacet
  facet normal -0.481752 0.876308 0
    outer loop
      vertex 3.21496 -5.06597 -36
      vertex 2.55468 -5.42896 36
      vertex 3.21496 -5.06597 36
    endloop
  endfacet
  facet normal -0.481752 0.876308 0
    outer loop
      vertex 2.55468 -5.42896 36
      vertex 3.21496 -5.06597 -36
      vertex 2.55468 -5.42896 -36
    endloop
  endfacet
  facet normal -0.684548 0.728968 0
    outer loop
      vertex 4.37381 -4.10728 -36
      vertex 3.82454 -4.62308 36
      vertex 4.37381 -4.10728 36
    endloop
  endfacet
  facet normal -0.684548 0.728968 0
    outer loop
      vertex 3.82454 -4.62308 36
      vertex 4.37381 -4.10728 -36
      vertex 3.82454 -4.62308 -36
    endloop
  endfacet
  facet normal -0.904825 0.425783 0
    outer loop
      vertex 5.25784 -2.89052 -36
      vertex 5.57866 -2.20875 36
      vertex 5.57866 -2.20875 -36
    endloop
  endfacet
  facet normal -0.904825 0.425783 0
    outer loop
      vertex 5.57866 -2.20875 36
      vertex 5.25784 -2.89052 -36
      vertex 5.25784 -2.89052 36
    endloop
  endfacet
  facet normal -0.770513 0.637425 0
    outer loop
      vertex 4.37381 -4.10728 -36
      vertex 4.8541 -3.52671 36
      vertex 4.8541 -3.52671 -36
    endloop
  endfacet
  facet normal -0.770513 0.637425 0
    outer loop
      vertex 4.8541 -3.52671 36
      vertex 4.37381 -4.10728 -36
      vertex 4.37381 -4.10728 36
    endloop
  endfacet
  facet normal 0.368125 0.929776 -0
    outer loop
      vertex -1.8541 -5.70634 -36
      vertex -2.55468 -5.42896 36
      vertex -1.8541 -5.70634 36
    endloop
  endfacet
  facet normal 0.368125 0.929776 0
    outer loop
      vertex -2.55468 -5.42896 36
      vertex -1.8541 -5.70634 -36
      vertex -2.55468 -5.42896 -36
    endloop
  endfacet
  facet normal 0.998027 0.0627882 0
    outer loop
      vertex -5.95269 -0.751999 36
      vertex -6 0 -36
      vertex -6 0 36
    endloop
  endfacet
  facet normal 0.998027 0.0627882 0
    outer loop
      vertex -6 0 -36
      vertex -5.95269 -0.751999 36
      vertex -5.95269 -0.751999 -36
    endloop
  endfacet
  facet normal -0.587789 0.809014 0
    outer loop
      vertex 3.82454 -4.62308 -36
      vertex 3.21496 -5.06597 36
      vertex 3.82454 -4.62308 36
    endloop
  endfacet
  facet normal -0.587789 0.809014 0
    outer loop
      vertex 3.21496 -5.06597 36
      vertex 3.82454 -4.62308 -36
      vertex 3.21496 -5.06597 -36
    endloop
  endfacet
  facet normal -0.951057 0.309016 0
    outer loop
      vertex 5.57866 -2.20875 -36
      vertex 5.8115 -1.49214 36
      vertex 5.8115 -1.49214 -36
    endloop
  endfacet
  facet normal -0.951057 0.309016 0
    outer loop
      vertex 5.8115 -1.49214 36
      vertex 5.57866 -2.20875 -36
      vertex 5.57866 -2.20875 36
    endloop
  endfacet
  facet normal -0.844327 0.535828 0
    outer loop
      vertex 4.8541 -3.52671 -36
      vertex 5.25784 -2.89052 36
      vertex 5.25784 -2.89052 -36
    endloop
  endfacet
  facet normal -0.844327 0.535828 0
    outer loop
      vertex 5.25784 -2.89052 36
      vertex 4.8541 -3.52671 -36
      vertex 4.8541 -3.52671 36
    endloop
  endfacet
  facet normal 0 1 -0
    outer loop
      vertex 0.376742 -5.98816 -36
      vertex -0.376742 -5.98816 36
      vertex 0.376742 -5.98816 36
    endloop
  endfacet
  facet normal 0 1 0
    outer loop
      vertex -0.376742 -5.98816 36
      vertex 0.376742 -5.98816 -36
      vertex -0.376742 -5.98816 -36
    endloop
  endfacet
  facet normal 0.684548 0.728968 -0
    outer loop
      vertex -3.82454 -4.62308 -36
      vertex -4.37381 -4.10728 36
      vertex -3.82454 -4.62308 36
    endloop
  endfacet
  facet normal 0.684548 0.728968 0
    outer loop
      vertex -4.37381 -4.10728 36
      vertex -3.82454 -4.62308 -36
      vertex -4.37381 -4.10728 -36
    endloop
  endfacet
  facet normal 0.770513 0.637425 0
    outer loop
      vertex -4.37381 -4.10728 36
      vertex -4.8541 -3.52671 -36
      vertex -4.8541 -3.52671 36
    endloop
  endfacet
  facet normal 0.770513 0.637425 0
    outer loop
      vertex -4.8541 -3.52671 -36
      vertex -4.37381 -4.10728 36
      vertex -4.37381 -4.10728 -36
    endloop
  endfacet
  facet normal 0.982287 0.187382 0
    outer loop
      vertex -5.8115 -1.49214 36
      vertex -5.95269 -0.751999 -36
      vertex -5.95269 -0.751999 36
    endloop
  endfacet
  facet normal 0.982287 0.187382 0
    outer loop
      vertex -5.95269 -0.751999 -36
      vertex -5.8115 -1.49214 36
      vertex -5.8115 -1.49214 -36
    endloop
  endfacet
  facet normal 0.481752 0.876308 -0
    outer loop
      vertex -2.55468 -5.42896 -36
      vertex -3.21496 -5.06597 36
      vertex -2.55468 -5.42896 36
    endloop
  endfacet
  facet normal 0.481752 0.876308 0
    outer loop
      vertex -3.21496 -5.06597 36
      vertex -2.55468 -5.42896 -36
      vertex -3.21496 -5.06597 -36
    endloop
  endfacet
  facet normal 0.587789 0.809014 -0
    outer loop
      vertex -3.21496 -5.06597 -36
      vertex -3.82454 -4.62308 36
      vertex -3.21496 -5.06597 36
    endloop
  endfacet
  facet normal 0.587789 0.809014 0
    outer loop
      vertex -3.82454 -4.62308 36
      vertex -3.21496 -5.06597 -36
      vertex -3.82454 -4.62308 -36
    endloop
  endfacet
endsolid OpenSCAD_Model
