solid OpenSCAD_Model
  facet normal 0.998027 0.0627918 0
    outer loop
      vertex 5.5 0 27
      vertex 5.45663 0.689332 -27
      vertex 5.45663 0.689332 27
    endloop
  endfacet
  facet normal 0.998027 0.0627918 0
    outer loop
      vertex 5.45663 0.689332 -27
      vertex 5.5 0 27
      vertex 5.5 0 -27
    endloop
  endfacet
  facet normal -0.998027 0.0627918 0
    outer loop
      vertex -5.5 0 -27
      vertex -5.45663 0.689332 27
      vertex -5.45663 0.689332 -27
    endloop
  endfacet
  facet normal -0.998027 0.0627918 0
    outer loop
      vertex -5.45663 0.689332 27
      vertex -5.5 0 -27
      vertex -5.5 0 27
    endloop
  endfacet
  facet normal 0 1 -0
    outer loop
      vertex 0.345347 5.48915 -27
      vertex -0.345347 5.48915 27
      vertex 0.345347 5.48915 27
    endloop
  endfacet
  facet normal 0 1 0
    outer loop
      vertex -0.345347 5.48915 27
      vertex 0.345347 5.48915 -27
      vertex -0.345347 5.48915 -27
    endloop
  endfacet
  facet normal 0 -1 0
    outer loop
      vertex -0.345347 -5.48915 -27
      vertex 0.345347 -5.48915 27
      vertex -0.345347 -5.48915 27
    endloop
  endfacet
  facet normal 0 -1 -0
    outer loop
      vertex 0.345347 -5.48915 27
      vertex -0.345347 -5.48915 -27
      vertex 0.345347 -5.48915 -27
    endloop
  endfacet
  facet normal 0.684541 0.728974 -0
    outer loop
      vertex 4.00933 3.76501 -27
      vertex 3.50583 4.23782 27
      vertex 4.00933 3.76501 27
    endloop
  endfacet
  facet normal 0.684541 0.728974 0
    outer loop
      vertex 3.50583 4.23782 27
      vertex 4.00933 3.76501 -27
      vertex 3.50583 4.23782 -27
    endloop
  endfacet
  facet normal -0.684541 0.728974 0
    outer loop
      vertex -3.50583 4.23782 -27
      vertex -4.00933 3.76501 27
      vertex -3.50583 4.23782 27
    endloop
  endfacet
  facet normal -0.684541 0.728974 0
    outer loop
      vertex -4.00933 3.76501 27
      vertex -3.50583 4.23782 -27
      vertex -4.00933 3.76501 -27
    endloop
  endfacet
  facet normal -0.368118 0.929779 0
    outer loop
      vertex -1.69959 5.23081 -27
      vertex -2.34179 4.97655 27
      vertex -1.69959 5.23081 27
    endloop
  endfacet
  facet normal -0.368118 0.929779 0
    outer loop
      vertex -2.34179 4.97655 27
      vertex -1.69959 5.23081 -27
      vertex -2.34179 4.97655 -27
    endloop
  endfacet
  facet normal 0.770517 -0.637419 0
    outer loop
      vertex 4.00933 -3.76501 27
      vertex 4.44959 -3.23282 -27
      vertex 4.44959 -3.23282 27
    endloop
  endfacet
  facet normal 0.770517 -0.637419 0
    outer loop
      vertex 4.44959 -3.23282 -27
      vertex 4.00933 -3.76501 27
      vertex 4.00933 -3.76501 -27
    endloop
  endfacet
  facet normal 0.904829 0.425775 0
    outer loop
      vertex 5.11377 2.02468 27
      vertex 4.81969 2.64964 -27
      vertex 4.81969 2.64964 27
    endloop
  endfacet
  facet normal 0.904829 0.425775 0
    outer loop
      vertex 4.81969 2.64964 -27
      vertex 5.11377 2.02468 27
      vertex 5.11377 2.02468 -27
    endloop
  endfacet
  facet normal 0.368118 0.929779 -0
    outer loop
      vertex 2.34179 4.97655 -27
      vertex 1.69959 5.23081 27
      vertex 2.34179 4.97655 27
    endloop
  endfacet
  facet normal 0.368118 0.929779 0
    outer loop
      vertex 1.69959 5.23081 27
      vertex 2.34179 4.97655 -27
      vertex 1.69959 5.23081 -27
    endloop
  endfacet
  facet normal 0.248693 0.968582 -0
    outer loop
      vertex 1.69959 5.23081 -27
      vertex 1.0306 5.40258 27
      vertex 1.69959 5.23081 27
    endloop
  endfacet
  facet normal 0.248693 0.968582 0
    outer loop
      vertex 1.0306 5.40258 27
      vertex 1.69959 5.23081 -27
      vertex 1.0306 5.40258 -27
    endloop
  endfacet
  facet normal 0.48176 0.876303 -0
    outer loop
      vertex 2.94705 4.6438 -27
      vertex 2.34179 4.97655 27
      vertex 2.94705 4.6438 27
    endloop
  endfacet
  facet normal 0.48176 0.876303 0
    outer loop
      vertex 2.34179 4.97655 27
      vertex 2.94705 4.6438 -27
      vertex 2.34179 4.97655 -27
    endloop
  endfacet
  facet normal -0.904829 0.425775 0
    outer loop
      vertex -5.11377 2.02468 -27
      vertex -4.81969 2.64964 27
      vertex -4.81969 2.64964 -27
    endloop
  endfacet
  facet normal -0.904829 0.425775 0
    outer loop
      vertex -4.81969 2.64964 27
      vertex -5.11377 2.02468 -27
      vertex -5.11377 2.02468 27
    endloop
  endfacet
  facet normal -0.770517 0.637419 0
    outer loop
      vertex -4.44959 3.23282 -27
      vertex -4.00933 3.76501 27
      vertex -4.00933 3.76501 -27
    endloop
  endfacet
  facet normal -0.770517 0.637419 0
    outer loop
      vertex -4.00933 3.76501 27
      vertex -4.44959 3.23282 -27
      vertex -4.44959 3.23282 27
    endloop
  endfacet
  facet normal 0 0 1
    outer loop
      vertex 1.35 0 27
      vertex 5.5 0 27
      vertex 5.45663 0.689332 27
    endloop
  endfacet
  facet normal 0 0 1
    outer loop
      vertex 1.33935 0.169199 27
      vertex 5.45663 0.689332 27
      vertex 5.32721 1.36779 27
    endloop
  endfacet
  facet normal 0 0 1
    outer loop
      vertex 5.5 0 27
      vertex 1.35 0 27
      vertex 5.45663 -0.689332 27
    endloop
  endfacet
  facet normal 0 0 1
    outer loop
      vertex 1.30759 0.335731 27
      vertex 5.32721 1.36779 27
      vertex 5.11377 2.02468 27
    endloop
  endfacet
  facet normal -0 0 1
    outer loop
      vertex 1.33935 -0.169199 27
      vertex 5.45663 -0.689332 27
      vertex 1.35 0 27
    endloop
  endfacet
  facet normal 0 0 1
    outer loop
      vertex 1.2552 0.496967 27
      vertex 5.11377 2.02468 27
      vertex 4.81969 2.64964 27
    endloop
  endfacet
  facet normal 0 0 1
    outer loop
      vertex 5.45663 -0.689332 27
      vertex 1.33935 -0.169199 27
      vertex 5.32721 -1.36779 27
    endloop
  endfacet
  facet normal 0 0 1
    outer loop
      vertex 1.18301 0.650367 27
      vertex 4.81969 2.64964 27
      vertex 4.44959 3.23282 27
    endloop
  endfacet
  facet normal -0 0 1
    outer loop
      vertex 1.30759 -0.335731 27
      vertex 5.32721 -1.36779 27
      vertex 1.33935 -0.169199 27
    endloop
  endfacet
  facet normal 0 0 1
    outer loop
      vertex 1.09217 0.793509 27
      vertex 4.44959 3.23282 27
      vertex 4.00933 3.76501 27
    endloop
  endfacet
  facet normal 0 0 1
    outer loop
      vertex 5.32721 -1.36779 27
      vertex 1.30759 -0.335731 27
      vertex 5.11377 -2.02468 27
    endloop
  endfacet
  facet normal 0 0 1
    outer loop
      vertex 0.984107 0.924138 27
      vertex 4.00933 3.76501 27
      vertex 3.50583 4.23782 27
    endloop
  endfacet
  facet normal -0 0 1
    outer loop
      vertex 1.2552 -0.496967 27
      vertex 5.11377 -2.02468 27
      vertex 1.30759 -0.335731 27
    endloop
  endfacet
  facet normal 0 0 1
    outer loop
      vertex 0.860522 1.04019 27
      vertex 3.50583 4.23782 27
      vertex 2.94705 4.6438 27
    endloop
  endfacet
  facet normal 0 0 1
    outer loop
      vertex 5.11377 -2.02468 27
      vertex 1.2552 -0.496967 27
      vertex 4.81969 -2.64964 27
    endloop
  endfacet
  facet normal 0 0 1
    outer loop
      vertex 0.723366 1.13984 27
      vertex 2.94705 4.6438 27
      vertex 2.34179 4.97655 27
    endloop
  endfacet
  facet normal -0 0 1
    outer loop
      vertex 1.18301 -0.650367 27
      vertex 4.81969 -2.64964 27
      vertex 1.2552 -0.496967 27
    endloop
  endfacet
  facet normal 0 0 1
    outer loop
      vertex 0.574801 1.22152 27
      vertex 2.34179 4.97655 27
      vertex 1.69959 5.23081 27
    endloop
  endfacet
  facet normal 0 0 1
    outer loop
      vertex 4.81969 -2.64964 27
      vertex 1.18301 -0.650367 27
      vertex 4.44959 -3.23282 27
    endloop
  endfacet
  facet normal -0 0 1
    outer loop
      vertex 1.09217 -0.793509 27
      vertex 4.44959 -3.23282 27
      vertex 1.18301 -0.650367 27
    endloop
  endfacet
  facet normal 0 0 1
    outer loop
      vertex 5.45663 0.689332 27
      vertex 1.33935 0.169199 27
      vertex 1.35 0 27
    endloop
  endfacet
  facet normal 0 0 1
    outer loop
      vertex 5.32721 1.36779 27
      vertex 1.30759 0.335731 27
      vertex 1.33935 0.169199 27
    endloop
  endfacet
  facet normal 0 0 1
    outer loop
      vertex 5.11377 2.02468 27
      vertex 1.2552 0.496967 27
      vertex 1.30759 0.335731 27
    endloop
  endfacet
  facet normal 0 0 1
    outer loop
      vertex 4.81969 2.64964 27
      vertex 1.18301 0.650367 27
      vertex 1.2552 0.496967 27
    endloop
  endfacet
  facet normal 0 0 1
    outer loop
      vertex 4.44959 3.23282 27
      vertex 1.09217 0.793509 27
      vertex 1.18301 0.650367 27
    endloop
  endfacet
  facet normal 0 0 1
    outer loop
      vertex 0.417172 1.28393 27
      vertex 1.69959 5.23081 27
      vertex 1.0306 5.40258 27
    endloop
  endfacet
  facet normal 0 0 1
    outer loop
      vertex 4.00933 3.76501 27
      vertex 0.984107 0.924138 27
      vertex 1.09217 0.793509 27
    endloop
  endfacet
  facet normal 0 0 1
    outer loop
      vertex 3.50583 4.23782 27
      vertex 0.860522 1.04019 27
      vertex 0.984107 0.924138 27
    endloop
  endfacet
  facet normal 0 0 1
    outer loop
      vertex 2.94705 4.6438 27
      vertex 0.723366 1.13984 27
      vertex 0.860522 1.04019 27
    endloop
  endfacet
  facet normal 0 0 1
    outer loop
      vertex 2.34179 4.97655 27
      vertex 0.574801 1.22152 27
      vertex 0.723366 1.13984 27
    endloop
  endfacet
  facet normal 0 0 1
    outer loop
      vertex 1.69959 5.23081 27
      vertex 0.417172 1.28393 27
      vertex 0.574801 1.22152 27
    endloop
  endfacet
  facet normal 0 0 1
    outer loop
      vertex 0.252964 1.32609 27
      vertex 1.0306 5.40258 27
      vertex 0.345347 5.48915 27
    endloop
  endfacet
  facet normal 0 0 1
    outer loop
      vertex 1.0306 5.40258 27
      vertex 0.252964 1.32609 27
      vertex 0.417172 1.28393 27
    endloop
  endfacet
  facet normal 0 0 1
    outer loop
      vertex 0.345347 5.48915 27
      vertex 0.0847664 1.34734 27
      vertex 0.252964 1.32609 27
    endloop
  endfacet
  facet normal 0 0 1
    outer loop
      vertex 0.345347 5.48915 27
      vertex -0.0847664 1.34734 27
      vertex 0.0847664 1.34734 27
    endloop
  endfacet
  facet normal -0 0 1
    outer loop
      vertex -0.345347 5.48915 27
      vertex -0.0847664 1.34734 27
      vertex 0.345347 5.48915 27
    endloop
  endfacet
  facet normal 0 0 1
    outer loop
      vertex -0.0847664 1.34734 27
      vertex -0.345347 5.48915 27
      vertex -0.252964 1.32609 27
    endloop
  endfacet
  facet normal -0 0 1
    outer loop
      vertex -1.0306 5.40258 27
      vertex -0.252964 1.32609 27
      vertex -0.345347 5.48915 27
    endloop
  endfacet
  facet normal 0 0 1
    outer loop
      vertex -0.252964 1.32609 27
      vertex -1.0306 5.40258 27
      vertex -0.417172 1.28393 27
    endloop
  endfacet
  facet normal -0 0 1
    outer loop
      vertex -1.69959 5.23081 27
      vertex -0.417172 1.28393 27
      vertex -1.0306 5.40258 27
    endloop
  endfacet
  facet normal 0 0 1
    outer loop
      vertex -0.417172 1.28393 27
      vertex -1.69959 5.23081 27
      vertex -0.574801 1.22152 27
    endloop
  endfacet
  facet normal -0 0 1
    outer loop
      vertex -2.34179 4.97655 27
      vertex -0.574801 1.22152 27
      vertex -1.69959 5.23081 27
    endloop
  endfacet
  facet normal 0 0 1
    outer loop
      vertex -0.574801 1.22152 27
      vertex -2.34179 4.97655 27
      vertex -0.723366 1.13984 27
    endloop
  endfacet
  facet normal -0 0 1
    outer loop
      vertex -2.94705 4.6438 27
      vertex -0.723366 1.13984 27
      vertex -2.34179 4.97655 27
    endloop
  endfacet
  facet normal 0 0 1
    outer loop
      vertex -0.723366 1.13984 27
      vertex -2.94705 4.6438 27
      vertex -0.860522 1.04019 27
    endloop
  endfacet
  facet normal -0 0 1
    outer loop
      vertex -3.50583 4.23782 27
      vertex -0.860522 1.04019 27
      vertex -2.94705 4.6438 27
    endloop
  endfacet
  facet normal 0 0 1
    outer loop
      vertex -0.860522 1.04019 27
      vertex -3.50583 4.23782 27
      vertex -0.984107 0.924138 27
    endloop
  endfacet
  facet normal -0 0 1
    outer loop
      vertex -4.00933 3.76501 27
      vertex -0.984107 0.924138 27
      vertex -3.50583 4.23782 27
    endloop
  endfacet
  facet normal 0 0 1
    outer loop
      vertex -0.984107 0.924138 27
      vertex -4.00933 3.76501 27
      vertex -1.09217 0.793509 27
    endloop
  endfacet
  facet normal -0 0 1
    outer loop
      vertex -4.44959 3.23282 27
      vertex -1.09217 0.793509 27
      vertex -4.00933 3.76501 27
    endloop
  endfacet
  facet normal 0 0 1
    outer loop
      vertex 4.44959 -3.23282 27
      vertex 1.09217 -0.793509 27
      vertex 4.00933 -3.76501 27
    endloop
  endfacet
  facet normal -0 0 1
    outer loop
      vertex 0.984107 -0.924138 27
      vertex 4.00933 -3.76501 27
      vertex 1.09217 -0.793509 27
    endloop
  endfacet
  facet normal 0 0 1
    outer loop
      vertex 4.00933 -3.76501 27
      vertex 0.984107 -0.924138 27
      vertex 3.50583 -4.23782 27
    endloop
  endfacet
  facet normal -0 0 1
    outer loop
      vertex 0.860522 -1.04019 27
      vertex 3.50583 -4.23782 27
      vertex 0.984107 -0.924138 27
    endloop
  endfacet
  facet normal 0 0 1
    outer loop
      vertex 3.50583 -4.23782 27
      vertex 0.860522 -1.04019 27
      vertex 2.94705 -4.6438 27
    endloop
  endfacet
  facet normal -0 0 1
    outer loop
      vertex 0.723366 -1.13984 27
      vertex 2.94705 -4.6438 27
      vertex 0.860522 -1.04019 27
    endloop
  endfacet
  facet normal 0 0 1
    outer loop
      vertex 2.94705 -4.6438 27
      vertex 0.723366 -1.13984 27
      vertex 2.34179 -4.97655 27
    endloop
  endfacet
  facet normal -0 0 1
    outer loop
      vertex 0.574801 -1.22152 27
      vertex 2.34179 -4.97655 27
      vertex 0.723366 -1.13984 27
    endloop
  endfacet
  facet normal 0 0 1
    outer loop
      vertex 2.34179 -4.97655 27
      vertex 0.574801 -1.22152 27
      vertex 1.69959 -5.23081 27
    endloop
  endfacet
  facet normal -0 0 1
    outer loop
      vertex 0.417172 -1.28393 27
      vertex 1.69959 -5.23081 27
      vertex 0.574801 -1.22152 27
    endloop
  endfacet
  facet normal 0 0 1
    outer loop
      vertex 1.69959 -5.23081 27
      vertex 0.417172 -1.28393 27
      vertex 1.0306 -5.40258 27
    endloop
  endfacet
  facet normal -0 0 1
    outer loop
      vertex 0.252964 -1.32609 27
      vertex 1.0306 -5.40258 27
      vertex 0.417172 -1.28393 27
    endloop
  endfacet
  facet normal 0 0 1
    outer loop
      vertex 1.0306 -5.40258 27
      vertex 0.252964 -1.32609 27
      vertex 0.345347 -5.48915 27
    endloop
  endfacet
  facet normal -0 0 1
    outer loop
      vertex 0.0847664 -1.34734 27
      vertex 0.345347 -5.48915 27
      vertex 0.252964 -1.32609 27
    endloop
  endfacet
  facet normal -0 0 1
    outer loop
      vertex -0.0847664 -1.34734 27
      vertex 0.345347 -5.48915 27
      vertex 0.0847664 -1.34734 27
    endloop
  endfacet
  facet normal 0 0 1
    outer loop
      vertex -0.345347 -5.48915 27
      vertex -0.0847664 -1.34734 27
      vertex -0.252964 -1.32609 27
    endloop
  endfacet
  facet normal 0 0 1
    outer loop
      vertex -0.0847664 -1.34734 27
      vertex -0.345347 -5.48915 27
      vertex 0.345347 -5.48915 27
    endloop
  endfacet
  facet normal 0 0 1
    outer loop
      vertex -1.0306 -5.40258 27
      vertex -0.252964 -1.32609 27
      vertex -0.417172 -1.28393 27
    endloop
  endfacet
  facet normal 0 0 1
    outer loop
      vertex -1.69959 -5.23081 27
      vertex -0.417172 -1.28393 27
      vertex -0.574801 -1.22152 27
    endloop
  endfacet
  facet normal 0 0 1
    outer loop
      vertex -2.34179 -4.97655 27
      vertex -0.574801 -1.22152 27
      vertex -0.723366 -1.13984 27
    endloop
  endfacet
  facet normal 0 0 1
    outer loop
      vertex -2.94705 -4.6438 27
      vertex -0.723366 -1.13984 27
      vertex -0.860522 -1.04019 27
    endloop
  endfacet
  facet normal 0 0 1
    outer loop
      vertex -3.50583 -4.23782 27
      vertex -0.860522 -1.04019 27
      vertex -0.984107 -0.924138 27
    endloop
  endfacet
  facet normal 0 0 1
    outer loop
      vertex -0.252964 -1.32609 27
      vertex -1.0306 -5.40258 27
      vertex -0.345347 -5.48915 27
    endloop
  endfacet
  facet normal 0 0 1
    outer loop
      vertex -4.00933 -3.76501 27
      vertex -0.984107 -0.924138 27
      vertex -1.09217 -0.793509 27
    endloop
  endfacet
  facet normal 0 0 1
    outer loop
      vertex -4.44959 -3.23282 27
      vertex -1.09217 -0.793509 27
      vertex -1.18301 -0.650367 27
    endloop
  endfacet
  facet normal 0 0 1
    outer loop
      vertex -4.81969 -2.64964 27
      vertex -1.18301 -0.650367 27
      vertex -1.2552 -0.496967 27
    endloop
  endfacet
  facet normal 0 0 1
    outer loop
      vertex -5.11377 -2.02468 27
      vertex -1.2552 -0.496967 27
      vertex -1.30759 -0.335731 27
    endloop
  endfacet
  facet normal 0 0 1
    outer loop
      vertex -5.32721 -1.36779 27
      vertex -1.30759 -0.335731 27
      vertex -1.33935 -0.169199 27
    endloop
  endfacet
  facet normal 0 0 1
    outer loop
      vertex -5.45663 -0.689332 27
      vertex -1.33935 -0.169199 27
      vertex -1.35 0 27
    endloop
  endfacet
  facet normal 0 0 1
    outer loop
      vertex -1.09217 0.793509 27
      vertex -4.44959 3.23282 27
      vertex -1.18301 0.650367 27
    endloop
  endfacet
  facet normal 0 0 1
    outer loop
      vertex -0.417172 -1.28393 27
      vertex -1.69959 -5.23081 27
      vertex -1.0306 -5.40258 27
    endloop
  endfacet
  facet normal -0 0 1
    outer loop
      vertex -4.81969 2.64964 27
      vertex -1.18301 0.650367 27
      vertex -4.44959 3.23282 27
    endloop
  endfacet
  facet normal 0 0 1
    outer loop
      vertex -0.574801 -1.22152 27
      vertex -2.34179 -4.97655 27
      vertex -1.69959 -5.23081 27
    endloop
  endfacet
  facet normal 0 0 1
    outer loop
      vertex -1.18301 0.650367 27
      vertex -4.81969 2.64964 27
      vertex -1.2552 0.496967 27
    endloop
  endfacet
  facet normal 0 0 1
    outer loop
      vertex -0.723366 -1.13984 27
      vertex -2.94705 -4.6438 27
      vertex -2.34179 -4.97655 27
    endloop
  endfacet
  facet normal -0 0 1
    outer loop
      vertex -5.11377 2.02468 27
      vertex -1.2552 0.496967 27
      vertex -4.81969 2.64964 27
    endloop
  endfacet
  facet normal 0 0 1
    outer loop
      vertex -0.860522 -1.04019 27
      vertex -3.50583 -4.23782 27
      vertex -2.94705 -4.6438 27
    endloop
  endfacet
  facet normal 0 0 1
    outer loop
      vertex -1.2552 0.496967 27
      vertex -5.11377 2.02468 27
      vertex -1.30759 0.335731 27
    endloop
  endfacet
  facet normal 0 0 1
    outer loop
      vertex -0.984107 -0.924138 27
      vertex -4.00933 -3.76501 27
      vertex -3.50583 -4.23782 27
    endloop
  endfacet
  facet normal -0 0 1
    outer loop
      vertex -5.32721 1.36779 27
      vertex -1.30759 0.335731 27
      vertex -5.11377 2.02468 27
    endloop
  endfacet
  facet normal 0 0 1
    outer loop
      vertex -1.09217 -0.793509 27
      vertex -4.44959 -3.23282 27
      vertex -4.00933 -3.76501 27
    endloop
  endfacet
  facet normal 0 0 1
    outer loop
      vertex -1.30759 0.335731 27
      vertex -5.32721 1.36779 27
      vertex -1.33935 0.169199 27
    endloop
  endfacet
  facet normal 0 0 1
    outer loop
      vertex -1.18301 -0.650367 27
      vertex -4.81969 -2.64964 27
      vertex -4.44959 -3.23282 27
    endloop
  endfacet
  facet normal -0 0 1
    outer loop
      vertex -5.45663 0.689332 27
      vertex -1.33935 0.169199 27
      vertex -5.32721 1.36779 27
    endloop
  endfacet
  facet normal 0 0 1
    outer loop
      vertex -1.2552 -0.496967 27
      vertex -5.11377 -2.02468 27
      vertex -4.81969 -2.64964 27
    endloop
  endfacet
  facet normal 0 0 1
    outer loop
      vertex -1.33935 0.169199 27
      vertex -5.45663 0.689332 27
      vertex -1.35 0 27
    endloop
  endfacet
  facet normal 0 0 1
    outer loop
      vertex -1.30759 -0.335731 27
      vertex -5.32721 -1.36779 27
      vertex -5.11377 -2.02468 27
    endloop
  endfacet
  facet normal 0 0 1
    outer loop
      vertex -5.5 0 27
      vertex -1.35 0 27
      vertex -5.45663 0.689332 27
    endloop
  endfacet
  facet normal 0 0 1
    outer loop
      vertex -1.33935 -0.169199 27
      vertex -5.45663 -0.689332 27
      vertex -5.32721 -1.36779 27
    endloop
  endfacet
  facet normal 0 0 1
    outer loop
      vertex -1.35 0 27
      vertex -5.5 0 27
      vertex -5.45663 -0.689332 27
    endloop
  endfacet
  facet normal -0.125337 0.992114 0
    outer loop
      vertex -0.345347 5.48915 -27
      vertex -1.0306 5.40258 27
      vertex -0.345347 5.48915 27
    endloop
  endfacet
  facet normal -0.125337 0.992114 0
    outer loop
      vertex -1.0306 5.40258 27
      vertex -0.345347 5.48915 -27
      vertex -1.0306 5.40258 -27
    endloop
  endfacet
  facet normal 0 0 -1
    outer loop
      vertex 1.35 0 -27
      vertex 5.5 0 -27
      vertex 5.45663 -0.689332 -27
    endloop
  endfacet
  facet normal 0 0 -1
    outer loop
      vertex 1.33935 -0.169199 -27
      vertex 5.45663 -0.689332 -27
      vertex 5.32721 -1.36779 -27
    endloop
  endfacet
  facet normal 0 0 -1
    outer loop
      vertex 5.5 0 -27
      vertex 1.35 0 -27
      vertex 5.45663 0.689332 -27
    endloop
  endfacet
  facet normal 0 0 -1
    outer loop
      vertex 1.30759 -0.335731 -27
      vertex 5.32721 -1.36779 -27
      vertex 5.11377 -2.02468 -27
    endloop
  endfacet
  facet normal 0 0 -1
    outer loop
      vertex 1.33935 0.169199 -27
      vertex 5.45663 0.689332 -27
      vertex 1.35 0 -27
    endloop
  endfacet
  facet normal 0 0 -1
    outer loop
      vertex 1.2552 -0.496967 -27
      vertex 5.11377 -2.02468 -27
      vertex 4.81969 -2.64964 -27
    endloop
  endfacet
  facet normal -0 0 -1
    outer loop
      vertex 5.45663 0.689332 -27
      vertex 1.33935 0.169199 -27
      vertex 5.32721 1.36779 -27
    endloop
  endfacet
  facet normal 0 0 -1
    outer loop
      vertex 1.18301 -0.650367 -27
      vertex 4.81969 -2.64964 -27
      vertex 4.44959 -3.23282 -27
    endloop
  endfacet
  facet normal 0 0 -1
    outer loop
      vertex 1.30759 0.335731 -27
      vertex 5.32721 1.36779 -27
      vertex 1.33935 0.169199 -27
    endloop
  endfacet
  facet normal 0 0 -1
    outer loop
      vertex 1.09217 -0.793509 -27
      vertex 4.44959 -3.23282 -27
      vertex 4.00933 -3.76501 -27
    endloop
  endfacet
  facet normal -0 0 -1
    outer loop
      vertex 5.32721 1.36779 -27
      vertex 1.30759 0.335731 -27
      vertex 5.11377 2.02468 -27
    endloop
  endfacet
  facet normal 0 0 -1
    outer loop
      vertex 0.984107 -0.924138 -27
      vertex 4.00933 -3.76501 -27
      vertex 3.50583 -4.23782 -27
    endloop
  endfacet
  facet normal 0 0 -1
    outer loop
      vertex 1.2552 0.496967 -27
      vertex 5.11377 2.02468 -27
      vertex 1.30759 0.335731 -27
    endloop
  endfacet
  facet normal 0 0 -1
    outer loop
      vertex 0.860522 -1.04019 -27
      vertex 3.50583 -4.23782 -27
      vertex 2.94705 -4.6438 -27
    endloop
  endfacet
  facet normal -0 0 -1
    outer loop
      vertex 5.11377 2.02468 -27
      vertex 1.2552 0.496967 -27
      vertex 4.81969 2.64964 -27
    endloop
  endfacet
  facet normal 0 0 -1
    outer loop
      vertex 0.723366 -1.13984 -27
      vertex 2.94705 -4.6438 -27
      vertex 2.34179 -4.97655 -27
    endloop
  endfacet
  facet normal 0 0 -1
    outer loop
      vertex 1.18301 0.650367 -27
      vertex 4.81969 2.64964 -27
      vertex 1.2552 0.496967 -27
    endloop
  endfacet
  facet normal 0 0 -1
    outer loop
      vertex 0.574801 -1.22152 -27
      vertex 2.34179 -4.97655 -27
      vertex 1.69959 -5.23081 -27
    endloop
  endfacet
  facet normal -0 0 -1
    outer loop
      vertex 4.81969 2.64964 -27
      vertex 1.18301 0.650367 -27
      vertex 4.44959 3.23282 -27
    endloop
  endfacet
  facet normal 0 0 -1
    outer loop
      vertex 1.09217 0.793509 -27
      vertex 4.44959 3.23282 -27
      vertex 1.18301 0.650367 -27
    endloop
  endfacet
  facet normal 0 0 -1
    outer loop
      vertex 5.45663 -0.689332 -27
      vertex 1.33935 -0.169199 -27
      vertex 1.35 0 -27
    endloop
  endfacet
  facet normal 0 0 -1
    outer loop
      vertex 5.32721 -1.36779 -27
      vertex 1.30759 -0.335731 -27
      vertex 1.33935 -0.169199 -27
    endloop
  endfacet
  facet normal 0 0 -1
    outer loop
      vertex 5.11377 -2.02468 -27
      vertex 1.2552 -0.496967 -27
      vertex 1.30759 -0.335731 -27
    endloop
  endfacet
  facet normal 0 0 -1
    outer loop
      vertex 4.81969 -2.64964 -27
      vertex 1.18301 -0.650367 -27
      vertex 1.2552 -0.496967 -27
    endloop
  endfacet
  facet normal 0 0 -1
    outer loop
      vertex 4.44959 -3.23282 -27
      vertex 1.09217 -0.793509 -27
      vertex 1.18301 -0.650367 -27
    endloop
  endfacet
  facet normal 0 0 -1
    outer loop
      vertex 0.417172 -1.28393 -27
      vertex 1.69959 -5.23081 -27
      vertex 1.0306 -5.40258 -27
    endloop
  endfacet
  facet normal 0 0 -1
    outer loop
      vertex 4.00933 -3.76501 -27
      vertex 0.984107 -0.924138 -27
      vertex 1.09217 -0.793509 -27
    endloop
  endfacet
  facet normal 0 0 -1
    outer loop
      vertex 3.50583 -4.23782 -27
      vertex 0.860522 -1.04019 -27
      vertex 0.984107 -0.924138 -27
    endloop
  endfacet
  facet normal 0 0 -1
    outer loop
      vertex 2.94705 -4.6438 -27
      vertex 0.723366 -1.13984 -27
      vertex 0.860522 -1.04019 -27
    endloop
  endfacet
  facet normal 0 0 -1
    outer loop
      vertex 2.34179 -4.97655 -27
      vertex 0.574801 -1.22152 -27
      vertex 0.723366 -1.13984 -27
    endloop
  endfacet
  facet normal 0 0 -1
    outer loop
      vertex 1.69959 -5.23081 -27
      vertex 0.417172 -1.28393 -27
      vertex 0.574801 -1.22152 -27
    endloop
  endfacet
  facet normal 0 0 -1
    outer loop
      vertex 0.252964 -1.32609 -27
      vertex 1.0306 -5.40258 -27
      vertex 0.345347 -5.48915 -27
    endloop
  endfacet
  facet normal 0 0 -1
    outer loop
      vertex 1.0306 -5.40258 -27
      vertex 0.252964 -1.32609 -27
      vertex 0.417172 -1.28393 -27
    endloop
  endfacet
  facet normal 0 0 -1
    outer loop
      vertex 0.345347 -5.48915 -27
      vertex 0.0847664 -1.34734 -27
      vertex 0.252964 -1.32609 -27
    endloop
  endfacet
  facet normal 0 0 -1
    outer loop
      vertex 0.345347 -5.48915 -27
      vertex -0.0847664 -1.34734 -27
      vertex 0.0847664 -1.34734 -27
    endloop
  endfacet
  facet normal 0 0 -1
    outer loop
      vertex -0.345347 -5.48915 -27
      vertex -0.0847664 -1.34734 -27
      vertex 0.345347 -5.48915 -27
    endloop
  endfacet
  facet normal -0 0 -1
    outer loop
      vertex -0.0847664 -1.34734 -27
      vertex -0.345347 -5.48915 -27
      vertex -0.252964 -1.32609 -27
    endloop
  endfacet
  facet normal 0 0 -1
    outer loop
      vertex -1.0306 -5.40258 -27
      vertex -0.252964 -1.32609 -27
      vertex -0.345347 -5.48915 -27
    endloop
  endfacet
  facet normal -0 0 -1
    outer loop
      vertex -0.252964 -1.32609 -27
      vertex -1.0306 -5.40258 -27
      vertex -0.417172 -1.28393 -27
    endloop
  endfacet
  facet normal 0 0 -1
    outer loop
      vertex -1.69959 -5.23081 -27
      vertex -0.417172 -1.28393 -27
      vertex -1.0306 -5.40258 -27
    endloop
  endfacet
  facet normal -0 0 -1
    outer loop
      vertex -0.417172 -1.28393 -27
      vertex -1.69959 -5.23081 -27
      vertex -0.574801 -1.22152 -27
    endloop
  endfacet
  facet normal 0 0 -1
    outer loop
      vertex -2.34179 -4.97655 -27
      vertex -0.574801 -1.22152 -27
      vertex -1.69959 -5.23081 -27
    endloop
  endfacet
  facet normal -0 0 -1
    outer loop
      vertex -0.574801 -1.22152 -27
      vertex -2.34179 -4.97655 -27
      vertex -0.723366 -1.13984 -27
    endloop
  endfacet
  facet normal 0 0 -1
    outer loop
      vertex -2.94705 -4.6438 -27
      vertex -0.723366 -1.13984 -27
      vertex -2.34179 -4.97655 -27
    endloop
  endfacet
  facet normal -0 0 -1
    outer loop
      vertex -0.723366 -1.13984 -27
      vertex -2.94705 -4.6438 -27
      vertex -0.860522 -1.04019 -27
    endloop
  endfacet
  facet normal 0 0 -1
    outer loop
      vertex -3.50583 -4.23782 -27
      vertex -0.860522 -1.04019 -27
      vertex -2.94705 -4.6438 -27
    endloop
  endfacet
  facet normal -0 0 -1
    outer loop
      vertex -0.860522 -1.04019 -27
      vertex -3.50583 -4.23782 -27
      vertex -0.984107 -0.924138 -27
    endloop
  endfacet
  facet normal 0 0 -1
    outer loop
      vertex -4.00933 -3.76501 -27
      vertex -0.984107 -0.924138 -27
      vertex -3.50583 -4.23782 -27
    endloop
  endfacet
  facet normal -0 0 -1
    outer loop
      vertex -0.984107 -0.924138 -27
      vertex -4.00933 -3.76501 -27
      vertex -1.09217 -0.793509 -27
    endloop
  endfacet
  facet normal 0 0 -1
    outer loop
      vertex -4.44959 -3.23282 -27
      vertex -1.09217 -0.793509 -27
      vertex -4.00933 -3.76501 -27
    endloop
  endfacet
  facet normal -0 0 -1
    outer loop
      vertex 4.44959 3.23282 -27
      vertex 1.09217 0.793509 -27
      vertex 4.00933 3.76501 -27
    endloop
  endfacet
  facet normal 0 0 -1
    outer loop
      vertex 0.984107 0.924138 -27
      vertex 4.00933 3.76501 -27
      vertex 1.09217 0.793509 -27
    endloop
  endfacet
  facet normal -0 0 -1
    outer loop
      vertex 4.00933 3.76501 -27
      vertex 0.984107 0.924138 -27
      vertex 3.50583 4.23782 -27
    endloop
  endfacet
  facet normal 0 0 -1
    outer loop
      vertex 0.860522 1.04019 -27
      vertex 3.50583 4.23782 -27
      vertex 0.984107 0.924138 -27
    endloop
  endfacet
  facet normal -0 0 -1
    outer loop
      vertex 3.50583 4.23782 -27
      vertex 0.860522 1.04019 -27
      vertex 2.94705 4.6438 -27
    endloop
  endfacet
  facet normal 0 0 -1
    outer loop
      vertex 0.723366 1.13984 -27
      vertex 2.94705 4.6438 -27
      vertex 0.860522 1.04019 -27
    endloop
  endfacet
  facet normal -0 0 -1
    outer loop
      vertex 2.94705 4.6438 -27
      vertex 0.723366 1.13984 -27
      vertex 2.34179 4.97655 -27
    endloop
  endfacet
  facet normal 0 0 -1
    outer loop
      vertex 0.574801 1.22152 -27
      vertex 2.34179 4.97655 -27
      vertex 0.723366 1.13984 -27
    endloop
  endfacet
  facet normal -0 0 -1
    outer loop
      vertex 2.34179 4.97655 -27
      vertex 0.574801 1.22152 -27
      vertex 1.69959 5.23081 -27
    endloop
  endfacet
  facet normal 0 0 -1
    outer loop
      vertex 0.417172 1.28393 -27
      vertex 1.69959 5.23081 -27
      vertex 0.574801 1.22152 -27
    endloop
  endfacet
  facet normal -0 0 -1
    outer loop
      vertex 1.69959 5.23081 -27
      vertex 0.417172 1.28393 -27
      vertex 1.0306 5.40258 -27
    endloop
  endfacet
  facet normal 0 0 -1
    outer loop
      vertex 0.252964 1.32609 -27
      vertex 1.0306 5.40258 -27
      vertex 0.417172 1.28393 -27
    endloop
  endfacet
  facet normal -0 0 -1
    outer loop
      vertex 1.0306 5.40258 -27
      vertex 0.252964 1.32609 -27
      vertex 0.345347 5.48915 -27
    endloop
  endfacet
  facet normal 0 0 -1
    outer loop
      vertex 0.0847664 1.34734 -27
      vertex 0.345347 5.48915 -27
      vertex 0.252964 1.32609 -27
    endloop
  endfacet
  facet normal 0 0 -1
    outer loop
      vertex -0.0847664 1.34734 -27
      vertex 0.345347 5.48915 -27
      vertex 0.0847664 1.34734 -27
    endloop
  endfacet
  facet normal 0 0 -1
    outer loop
      vertex -0.345347 5.48915 -27
      vertex -0.0847664 1.34734 -27
      vertex -0.252964 1.32609 -27
    endloop
  endfacet
  facet normal 0 0 -1
    outer loop
      vertex -0.0847664 1.34734 -27
      vertex -0.345347 5.48915 -27
      vertex 0.345347 5.48915 -27
    endloop
  endfacet
  facet normal 0 0 -1
    outer loop
      vertex -1.0306 5.40258 -27
      vertex -0.252964 1.32609 -27
      vertex -0.417172 1.28393 -27
    endloop
  endfacet
  facet normal 0 0 -1
    outer loop
      vertex -1.69959 5.23081 -27
      vertex -0.417172 1.28393 -27
      vertex -0.574801 1.22152 -27
    endloop
  endfacet
  facet normal 0 0 -1
    outer loop
      vertex -2.34179 4.97655 -27
      vertex -0.574801 1.22152 -27
      vertex -0.723366 1.13984 -27
    endloop
  endfacet
  facet normal 0 0 -1
    outer loop
      vertex -2.94705 4.6438 -27
      vertex -0.723366 1.13984 -27
      vertex -0.860522 1.04019 -27
    endloop
  endfacet
  facet normal 0 0 -1
    outer loop
      vertex -3.50583 4.23782 -27
      vertex -0.860522 1.04019 -27
      vertex -0.984107 0.924138 -27
    endloop
  endfacet
  facet normal 0 0 -1
    outer loop
      vertex -0.252964 1.32609 -27
      vertex -1.0306 5.40258 -27
      vertex -0.345347 5.48915 -27
    endloop
  endfacet
  facet normal 0 0 -1
    outer loop
      vertex -4.00933 3.76501 -27
      vertex -0.984107 0.924138 -27
      vertex -1.09217 0.793509 -27
    endloop
  endfacet
  facet normal 0 0 -1
    outer loop
      vertex -4.44959 3.23282 -27
      vertex -1.09217 0.793509 -27
      vertex -1.18301 0.650367 -27
    endloop
  endfacet
  facet normal 0 0 -1
    outer loop
      vertex -4.81969 2.64964 -27
      vertex -1.18301 0.650367 -27
      vertex -1.2552 0.496967 -27
    endloop
  endfacet
  facet normal 0 0 -1
    outer loop
      vertex -5.11377 2.02468 -27
      vertex -1.2552 0.496967 -27
      vertex -1.30759 0.335731 -27
    endloop
  endfacet
  facet normal 0 0 -1
    outer loop
      vertex -5.32721 1.36779 -27
      vertex -1.30759 0.335731 -27
      vertex -1.33935 0.169199 -27
    endloop
  endfacet
  facet normal 0 0 -1
    outer loop
      vertex -5.45663 0.689332 -27
      vertex -1.33935 0.169199 -27
      vertex -1.35 0 -27
    endloop
  endfacet
  facet normal -0 0 -1
    outer loop
      vertex -1.09217 -0.793509 -27
      vertex -4.44959 -3.23282 -27
      vertex -1.18301 -0.650367 -27
    endloop
  endfacet
  facet normal 0 0 -1
    outer loop
      vertex -0.417172 1.28393 -27
      vertex -1.69959 5.23081 -27
      vertex -1.0306 5.40258 -27
    endloop
  endfacet
  facet normal 0 0 -1
    outer loop
      vertex -4.81969 -2.64964 -27
      vertex -1.18301 -0.650367 -27
      vertex -4.44959 -3.23282 -27
    endloop
  endfacet
  facet normal 0 0 -1
    outer loop
      vertex -0.574801 1.22152 -27
      vertex -2.34179 4.97655 -27
      vertex -1.69959 5.23081 -27
    endloop
  endfacet
  facet normal -0 0 -1
    outer loop
      vertex -1.18301 -0.650367 -27
      vertex -4.81969 -2.64964 -27
      vertex -1.2552 -0.496967 -27
    endloop
  endfacet
  facet normal 0 0 -1
    outer loop
      vertex -0.723366 1.13984 -27
      vertex -2.94705 4.6438 -27
      vertex -2.34179 4.97655 -27
    endloop
  endfacet
  facet normal 0 0 -1
    outer loop
      vertex -5.11377 -2.02468 -27
      vertex -1.2552 -0.496967 -27
      vertex -4.81969 -2.64964 -27
    endloop
  endfacet
  facet normal 0 0 -1
    outer loop
      vertex -0.860522 1.04019 -27
      vertex -3.50583 4.23782 -27
      vertex -2.94705 4.6438 -27
    endloop
  endfacet
  facet normal -0 0 -1
    outer loop
      vertex -1.2552 -0.496967 -27
      vertex -5.11377 -2.02468 -27
      vertex -1.30759 -0.335731 -27
    endloop
  endfacet
  facet normal 0 0 -1
    outer loop
      vertex -0.984107 0.924138 -27
      vertex -4.00933 3.76501 -27
      vertex -3.50583 4.23782 -27
    endloop
  endfacet
  facet normal 0 0 -1
    outer loop
      vertex -5.32721 -1.36779 -27
      vertex -1.30759 -0.335731 -27
      vertex -5.11377 -2.02468 -27
    endloop
  endfacet
  facet normal 0 0 -1
    outer loop
      vertex -1.09217 0.793509 -27
      vertex -4.44959 3.23282 -27
      vertex -4.00933 3.76501 -27
    endloop
  endfacet
  facet normal -0 0 -1
    outer loop
      vertex -1.30759 -0.335731 -27
      vertex -5.32721 -1.36779 -27
      vertex -1.33935 -0.169199 -27
    endloop
  endfacet
  facet normal 0 0 -1
    outer loop
      vertex -1.18301 0.650367 -27
      vertex -4.81969 2.64964 -27
      vertex -4.44959 3.23282 -27
    endloop
  endfacet
  facet normal 0 0 -1
    outer loop
      vertex -5.45663 -0.689332 -27
      vertex -1.33935 -0.169199 -27
      vertex -5.32721 -1.36779 -27
    endloop
  endfacet
  facet normal 0 0 -1
    outer loop
      vertex -1.2552 0.496967 -27
      vertex -5.11377 2.02468 -27
      vertex -4.81969 2.64964 -27
    endloop
  endfacet
  facet normal -0 0 -1
    outer loop
      vertex -1.33935 -0.169199 -27
      vertex -5.45663 -0.689332 -27
      vertex -1.35 0 -27
    endloop
  endfacet
  facet normal 0 0 -1
    outer loop
      vertex -1.30759 0.335731 -27
      vertex -5.32721 1.36779 -27
      vertex -5.11377 2.02468 -27
    endloop
  endfacet
  facet normal 0 0 -1
    outer loop
      vertex -5.5 0 -27
      vertex -1.35 0 -27
      vertex -5.45663 -0.689332 -27
    endloop
  endfacet
  facet normal 0 0 -1
    outer loop
      vertex -1.33935 0.169199 -27
      vertex -5.45663 0.689332 -27
      vertex -5.32721 1.36779 -27
    endloop
  endfacet
  facet normal 0 0 -1
    outer loop
      vertex -1.35 0 -27
      vertex -5.5 0 -27
      vertex -5.45663 0.689332 -27
    endloop
  endfacet
  facet normal 0.125337 -0.992114 0
    outer loop
      vertex 0.345347 -5.48915 -27
      vertex 1.0306 -5.40258 27
      vertex 0.345347 -5.48915 27
    endloop
  endfacet
  facet normal 0.125337 -0.992114 0
    outer loop
      vertex 1.0306 -5.40258 27
      vertex 0.345347 -5.48915 -27
      vertex 1.0306 -5.40258 -27
    endloop
  endfacet
  facet normal 0.368118 -0.929779 0
    outer loop
      vertex 1.69959 -5.23081 -27
      vertex 2.34179 -4.97655 27
      vertex 1.69959 -5.23081 27
    endloop
  endfacet
  facet normal 0.368118 -0.929779 0
    outer loop
      vertex 2.34179 -4.97655 27
      vertex 1.69959 -5.23081 -27
      vertex 2.34179 -4.97655 -27
    endloop
  endfacet
  facet normal 0.951055 0.309022 0
    outer loop
      vertex 5.32721 1.36779 27
      vertex 5.11377 2.02468 -27
      vertex 5.11377 2.02468 27
    endloop
  endfacet
  facet normal 0.951055 0.309022 0
    outer loop
      vertex 5.11377 2.02468 -27
      vertex 5.32721 1.36779 27
      vertex 5.32721 1.36779 -27
    endloop
  endfacet
  facet normal 0.982288 0.187377 0
    outer loop
      vertex 5.45663 0.689332 27
      vertex 5.32721 1.36779 -27
      vertex 5.32721 1.36779 27
    endloop
  endfacet
  facet normal 0.982288 0.187377 0
    outer loop
      vertex 5.32721 1.36779 -27
      vertex 5.45663 0.689332 27
      vertex 5.45663 0.689332 -27
    endloop
  endfacet
  facet normal 0.770517 0.637419 0
    outer loop
      vertex 4.44959 3.23282 27
      vertex 4.00933 3.76501 -27
      vertex 4.00933 3.76501 27
    endloop
  endfacet
  facet normal 0.770517 0.637419 0
    outer loop
      vertex 4.00933 3.76501 -27
      vertex 4.44959 3.23282 27
      vertex 4.44959 3.23282 -27
    endloop
  endfacet
  facet normal 0.844326 0.53583 0
    outer loop
      vertex 4.81969 2.64964 27
      vertex 4.44959 3.23282 -27
      vertex 4.44959 3.23282 27
    endloop
  endfacet
  facet normal 0.844326 0.53583 0
    outer loop
      vertex 4.44959 3.23282 -27
      vertex 4.81969 2.64964 27
      vertex 4.81969 2.64964 -27
    endloop
  endfacet
  facet normal 0.125337 0.992114 -0
    outer loop
      vertex 1.0306 5.40258 -27
      vertex 0.345347 5.48915 27
      vertex 1.0306 5.40258 27
    endloop
  endfacet
  facet normal 0.125337 0.992114 0
    outer loop
      vertex 0.345347 5.48915 27
      vertex 1.0306 5.40258 -27
      vertex 0.345347 5.48915 -27
    endloop
  endfacet
  facet normal 0.587788 0.809015 -0
    outer loop
      vertex 3.50583 4.23782 -27
      vertex 2.94705 4.6438 27
      vertex 3.50583 4.23782 27
    endloop
  endfacet
  facet normal 0.587788 0.809015 0
    outer loop
      vertex 2.94705 4.6438 27
      vertex 3.50583 4.23782 -27
      vertex 2.94705 4.6438 -27
    endloop
  endfacet
  facet normal -0.844326 0.53583 0
    outer loop
      vertex -4.81969 2.64964 -27
      vertex -4.44959 3.23282 27
      vertex -4.44959 3.23282 -27
    endloop
  endfacet
  facet normal -0.844326 0.53583 0
    outer loop
      vertex -4.44959 3.23282 27
      vertex -4.81969 2.64964 -27
      vertex -4.81969 2.64964 27
    endloop
  endfacet
  facet normal -0.951055 0.309022 0
    outer loop
      vertex -5.32721 1.36779 -27
      vertex -5.11377 2.02468 27
      vertex -5.11377 2.02468 -27
    endloop
  endfacet
  facet normal -0.951055 0.309022 0
    outer loop
      vertex -5.11377 2.02468 27
      vertex -5.32721 1.36779 -27
      vertex -5.32721 1.36779 27
    endloop
  endfacet
  facet normal -0.982288 0.187377 0
    outer loop
      vertex -5.45663 0.689332 -27
      vertex -5.32721 1.36779 27
      vertex -5.32721 1.36779 -27
    endloop
  endfacet
  facet normal -0.982288 0.187377 0
    outer loop
      vertex -5.32721 1.36779 27
      vertex -5.45663 0.689332 -27
      vertex -5.45663 0.689332 27
    endloop
  endfacet
  facet normal -0.48176 0.876303 0
    outer loop
      vertex -2.34179 4.97655 -27
      vertex -2.94705 4.6438 27
      vertex -2.34179 4.97655 27
    endloop
  endfacet
  facet normal -0.48176 0.876303 0
    outer loop
      vertex -2.94705 4.6438 27
      vertex -2.34179 4.97655 -27
      vertex -2.94705 4.6438 -27
    endloop
  endfacet
  facet normal -0.587788 0.809015 0
    outer loop
      vertex -2.94705 4.6438 -27
      vertex -3.50583 4.23782 27
      vertex -2.94705 4.6438 27
    endloop
  endfacet
  facet normal -0.587788 0.809015 0
    outer loop
      vertex -3.50583 4.23782 27
      vertex -2.94705 4.6438 -27
      vertex -3.50583 4.23782 -27
    endloop
  endfacet
  facet normal -0.248693 0.968582 0
    outer loop
      vertex -1.0306 5.40258 -27
      vertex -1.69959 5.23081 27
      vertex -1.0306 5.40258 27
    endloop
  endfacet
  facet normal -0.248693 0.968582 0
    outer loop
      vertex -1.69959 5.23081 27
      vertex -1.0306 5.40258 -27
      vertex -1.69959 5.23081 -27
    endloop
  endfacet
  facet normal 0.998027 -0.0627918 0
    outer loop
      vertex 5.45663 -0.689332 27
      vertex 5.5 0 -27
      vertex 5.5 0 27
    endloop
  endfacet
  facet normal 0.998027 -0.0627918 0
    outer loop
      vertex 5.5 0 -27
      vertex 5.45663 -0.689332 27
      vertex 5.45663 -0.689332 -27
    endloop
  endfacet
  facet normal 0.48176 -0.876303 0
    outer loop
      vertex 2.34179 -4.97655 -27
      vertex 2.94705 -4.6438 27
      vertex 2.34179 -4.97655 27
    endloop
  endfacet
  facet normal 0.48176 -0.876303 0
    outer loop
      vertex 2.94705 -4.6438 27
      vertex 2.34179 -4.97655 -27
      vertex 2.94705 -4.6438 -27
    endloop
  endfacet
  facet normal 0.684541 -0.728974 0
    outer loop
      vertex 3.50583 -4.23782 -27
      vertex 4.00933 -3.76501 27
      vertex 3.50583 -4.23782 27
    endloop
  endfacet
  facet normal 0.684541 -0.728974 0
    outer loop
      vertex 4.00933 -3.76501 27
      vertex 3.50583 -4.23782 -27
      vertex 4.00933 -3.76501 -27
    endloop
  endfacet
  facet normal 0.904829 -0.425775 0
    outer loop
      vertex 4.81969 -2.64964 27
      vertex 5.11377 -2.02468 -27
      vertex 5.11377 -2.02468 27
    endloop
  endfacet
  facet normal 0.904829 -0.425775 0
    outer loop
      vertex 5.11377 -2.02468 -27
      vertex 4.81969 -2.64964 27
      vertex 4.81969 -2.64964 -27
    endloop
  endfacet
  facet normal -0.904829 -0.425775 0
    outer loop
      vertex -4.81969 -2.64964 -27
      vertex -5.11377 -2.02468 27
      vertex -5.11377 -2.02468 -27
    endloop
  endfacet
  facet normal -0.904829 -0.425775 0
    outer loop
      vertex -5.11377 -2.02468 27
      vertex -4.81969 -2.64964 -27
      vertex -4.81969 -2.64964 27
    endloop
  endfacet
  facet normal 0.951055 -0.309022 0
    outer loop
      vertex 5.11377 -2.02468 27
      vertex 5.32721 -1.36779 -27
      vertex 5.32721 -1.36779 27
    endloop
  endfacet
  facet normal 0.951055 -0.309022 0
    outer loop
      vertex 5.32721 -1.36779 -27
      vertex 5.11377 -2.02468 27
      vertex 5.11377 -2.02468 -27
    endloop
  endfacet
  facet normal 0.844326 -0.53583 0
    outer loop
      vertex 4.44959 -3.23282 27
      vertex 4.81969 -2.64964 -27
      vertex 4.81969 -2.64964 27
    endloop
  endfacet
  facet normal 0.844326 -0.53583 0
    outer loop
      vertex 4.81969 -2.64964 -27
      vertex 4.44959 -3.23282 27
      vertex 4.44959 -3.23282 -27
    endloop
  endfacet
  facet normal -0.982288 -0.187377 0
    outer loop
      vertex -5.32721 -1.36779 -27
      vertex -5.45663 -0.689332 27
      vertex -5.45663 -0.689332 -27
    endloop
  endfacet
  facet normal -0.982288 -0.187377 0
    outer loop
      vertex -5.45663 -0.689332 27
      vertex -5.32721 -1.36779 -27
      vertex -5.32721 -1.36779 27
    endloop
  endfacet
  facet normal -0.998027 -0.0627918 0
    outer loop
      vertex -5.45663 -0.689332 -27
      vertex -5.5 0 27
      vertex -5.5 0 -27
    endloop
  endfacet
  facet normal -0.998027 -0.0627918 0
    outer loop
      vertex -5.5 0 27
      vertex -5.45663 -0.689332 -27
      vertex -5.45663 -0.689332 27
    endloop
  endfacet
  facet normal -0.951055 -0.309022 0
    outer loop
      vertex -5.11377 -2.02468 -27
      vertex -5.32721 -1.36779 27
      vertex -5.32721 -1.36779 -27
    endloop
  endfacet
  facet normal -0.951055 -0.309022 0
    outer loop
      vertex -5.32721 -1.36779 27
      vertex -5.11377 -2.02468 -27
      vertex -5.11377 -2.02468 27
    endloop
  endfacet
  facet normal 0.248693 -0.968582 0
    outer loop
      vertex 1.0306 -5.40258 -27
      vertex 1.69959 -5.23081 27
      vertex 1.0306 -5.40258 27
    endloop
  endfacet
  facet normal 0.248693 -0.968582 0
    outer loop
      vertex 1.69959 -5.23081 27
      vertex 1.0306 -5.40258 -27
      vertex 1.69959 -5.23081 -27
    endloop
  endfacet
  facet normal 0.982288 -0.187377 0
    outer loop
      vertex 5.32721 -1.36779 27
      vertex 5.45663 -0.689332 -27
      vertex 5.45663 -0.689332 27
    endloop
  endfacet
  facet normal 0.982288 -0.187377 0
    outer loop
      vertex 5.45663 -0.689332 -27
      vertex 5.32721 -1.36779 27
      vertex 5.32721 -1.36779 -27
    endloop
  endfacet
  facet normal 0.587788 -0.809015 0
    outer loop
      vertex 2.94705 -4.6438 -27
      vertex 3.50583 -4.23782 27
      vertex 2.94705 -4.6438 27
    endloop
  endfacet
  facet normal 0.587788 -0.809015 0
    outer loop
      vertex 3.50583 -4.23782 27
      vertex 2.94705 -4.6438 -27
      vertex 3.50583 -4.23782 -27
    endloop
  endfacet
  facet normal -0.125337 -0.992114 0
    outer loop
      vertex -1.0306 -5.40258 -27
      vertex -0.345347 -5.48915 27
      vertex -1.0306 -5.40258 27
    endloop
  endfacet
  facet normal -0.125337 -0.992114 -0
    outer loop
      vertex -0.345347 -5.48915 27
      vertex -1.0306 -5.40258 -27
      vertex -0.345347 -5.48915 -27
    endloop
  endfacet
  facet normal -0.368118 -0.929779 0
    outer loop
      vertex -2.34179 -4.97655 -27
      vertex -1.69959 -5.23081 27
      vertex -2.34179 -4.97655 27
    endloop
  endfacet
  facet normal -0.368118 -0.929779 -0
    outer loop
      vertex -1.69959 -5.23081 27
      vertex -2.34179 -4.97655 -27
      vertex -1.69959 -5.23081 -27
    endloop
  endfacet
  facet normal -0.248693 -0.968582 0
    outer loop
      vertex -1.69959 -5.23081 -27
      vertex -1.0306 -5.40258 27
      vertex -1.69959 -5.23081 27
    endloop
  endfacet
  facet normal -0.248693 -0.968582 -0
    outer loop
      vertex -1.0306 -5.40258 27
      vertex -1.69959 -5.23081 -27
      vertex -1.0306 -5.40258 -27
    endloop
  endfacet
  facet normal -0.770517 -0.637419 0
    outer loop
      vertex -4.00933 -3.76501 -27
      vertex -4.44959 -3.23282 27
      vertex -4.44959 -3.23282 -27
    endloop
  endfacet
  facet normal -0.770517 -0.637419 0
    outer loop
      vertex -4.44959 -3.23282 27
      vertex -4.00933 -3.76501 -27
      vertex -4.00933 -3.76501 27
    endloop
  endfacet
  facet normal -0.684541 -0.728974 0
    outer loop
      vertex -4.00933 -3.76501 -27
      vertex -3.50583 -4.23782 27
      vertex -4.00933 -3.76501 27
    endloop
  endfacet
  facet normal -0.684541 -0.728974 -0
    outer loop
      vertex -3.50583 -4.23782 27
      vertex -4.00933 -3.76501 -27
      vertex -3.50583 -4.23782 -27
    endloop
  endfacet
  facet normal -0.844326 -0.53583 0
    outer loop
      vertex -4.44959 -3.23282 -27
      vertex -4.81969 -2.64964 27
      vertex -4.81969 -2.64964 -27
    endloop
  endfacet
  facet normal -0.844326 -0.53583 0
    outer loop
      vertex -4.81969 -2.64964 27
      vertex -4.44959 -3.23282 -27
      vertex -4.44959 -3.23282 27
    endloop
  endfacet
  facet normal -0.48176 -0.876303 0
    outer loop
      vertex -2.94705 -4.6438 -27
      vertex -2.34179 -4.97655 27
      vertex -2.94705 -4.6438 27
    endloop
  endfacet
  facet normal -0.48176 -0.876303 -0
    outer loop
      vertex -2.34179 -4.97655 27
      vertex -2.94705 -4.6438 -27
      vertex -2.34179 -4.97655 -27
    endloop
  endfacet
  facet normal -0.587788 -0.809015 0
    outer loop
      vertex -3.50583 -4.23782 -27
      vertex -2.94705 -4.6438 27
      vertex -3.50583 -4.23782 27
    endloop
  endfacet
  facet normal -0.587788 -0.809015 -0
    outer loop
      vertex -2.94705 -4.6438 27
      vertex -3.50583 -4.23782 -27
      vertex -2.94705 -4.6438 -27
    endloop
  endfacet
  facet normal -0.998025 -0.0628193 0
    outer loop
      vertex 1.35 0 -27
      vertex 1.33935 0.169199 27
      vertex 1.33935 0.169199 -27
    endloop
  endfacet
  facet normal -0.998025 -0.0628193 0
    outer loop
      vertex 1.33935 0.169199 27
      vertex 1.35 0 -27
      vertex 1.35 0 27
    endloop
  endfacet
  facet normal 0.998025 -0.0628193 0
    outer loop
      vertex -1.35 0 27
      vertex -1.33935 0.169199 -27
      vertex -1.33935 0.169199 27
    endloop
  endfacet
  facet normal 0.998025 -0.0628193 0
    outer loop
      vertex -1.33935 0.169199 -27
      vertex -1.35 0 27
      vertex -1.35 0 -27
    endloop
  endfacet
  facet normal 0 -1 0
    outer loop
      vertex -0.0847664 1.34734 -27
      vertex 0.0847664 1.34734 27
      vertex -0.0847664 1.34734 27
    endloop
  endfacet
  facet normal 0 -1 -0
    outer loop
      vertex 0.0847664 1.34734 27
      vertex -0.0847664 1.34734 -27
      vertex 0.0847664 1.34734 -27
    endloop
  endfacet
  facet normal 0 1 -0
    outer loop
      vertex 0.0847664 -1.34734 -27
      vertex -0.0847664 -1.34734 27
      vertex 0.0847664 -1.34734 27
    endloop
  endfacet
  facet normal 0 1 0
    outer loop
      vertex -0.0847664 -1.34734 27
      vertex 0.0847664 -1.34734 -27
      vertex -0.0847664 -1.34734 -27
    endloop
  endfacet
  facet normal -0.684541 -0.728975 0
    outer loop
      vertex 0.860522 1.04019 -27
      vertex 0.984107 0.924138 27
      vertex 0.860522 1.04019 27
    endloop
  endfacet
  facet normal -0.684541 -0.728975 -0
    outer loop
      vertex 0.984107 0.924138 27
      vertex 0.860522 1.04019 -27
      vertex 0.984107 0.924138 -27
    endloop
  endfacet
  facet normal 0.684541 -0.728975 0
    outer loop
      vertex -0.984107 0.924138 -27
      vertex -0.860522 1.04019 27
      vertex -0.984107 0.924138 27
    endloop
  endfacet
  facet normal 0.684541 -0.728975 0
    outer loop
      vertex -0.860522 1.04019 27
      vertex -0.984107 0.924138 -27
      vertex -0.860522 1.04019 -27
    endloop
  endfacet
  facet normal 0.368126 -0.929776 0
    outer loop
      vertex -0.574801 1.22152 -27
      vertex -0.417172 1.28393 27
      vertex -0.574801 1.22152 27
    endloop
  endfacet
  facet normal 0.368126 -0.929776 0
    outer loop
      vertex -0.417172 1.28393 27
      vertex -0.574801 1.22152 -27
      vertex -0.417172 1.28393 -27
    endloop
  endfacet
  facet normal -0.84433 0.535824 0
    outer loop
      vertex 1.09217 -0.793509 -27
      vertex 1.18301 -0.650367 27
      vertex 1.18301 -0.650367 -27
    endloop
  endfacet
  facet normal -0.84433 0.535824 0
    outer loop
      vertex 1.18301 -0.650367 27
      vertex 1.09217 -0.793509 -27
      vertex 1.09217 -0.793509 27
    endloop
  endfacet
  facet normal -0.904815 -0.425806 0
    outer loop
      vertex 1.2552 0.496967 -27
      vertex 1.18301 0.650367 27
      vertex 1.18301 0.650367 -27
    endloop
  endfacet
  facet normal -0.904815 -0.425806 0
    outer loop
      vertex 1.18301 0.650367 27
      vertex 1.2552 0.496967 -27
      vertex 1.2552 0.496967 27
    endloop
  endfacet
  facet normal -0.982296 -0.187338 0
    outer loop
      vertex 1.33935 0.169199 -27
      vertex 1.30759 0.335731 27
      vertex 1.30759 0.335731 -27
    endloop
  endfacet
  facet normal -0.982296 -0.187338 0
    outer loop
      vertex 1.30759 0.335731 27
      vertex 1.33935 0.169199 -27
      vertex 1.33935 0.169199 27
    endloop
  endfacet
  facet normal -0.84433 -0.535824 0
    outer loop
      vertex 1.18301 0.650367 -27
      vertex 1.09217 0.793509 27
      vertex 1.09217 0.793509 -27
    endloop
  endfacet
  facet normal -0.84433 -0.535824 0
    outer loop
      vertex 1.09217 0.793509 27
      vertex 1.18301 0.650367 -27
      vertex 1.18301 0.650367 27
    endloop
  endfacet
  facet normal -0.368126 -0.929776 0
    outer loop
      vertex 0.417172 1.28393 -27
      vertex 0.574801 1.22152 27
      vertex 0.417172 1.28393 27
    endloop
  endfacet
  facet normal -0.368126 -0.929776 -0
    outer loop
      vertex 0.574801 1.22152 27
      vertex 0.417172 1.28393 -27
      vertex 0.574801 1.22152 -27
    endloop
  endfacet
  facet normal -0.587787 -0.809016 0
    outer loop
      vertex 0.723366 1.13984 -27
      vertex 0.860522 1.04019 27
      vertex 0.723366 1.13984 27
    endloop
  endfacet
  facet normal -0.587787 -0.809016 -0
    outer loop
      vertex 0.860522 1.04019 27
      vertex 0.723366 1.13984 -27
      vertex 0.860522 1.04019 -27
    endloop
  endfacet
  facet normal 0.904815 -0.425806 0
    outer loop
      vertex -1.2552 0.496967 27
      vertex -1.18301 0.650367 -27
      vertex -1.18301 0.650367 27
    endloop
  endfacet
  facet normal 0.904815 -0.425806 0
    outer loop
      vertex -1.18301 0.650367 -27
      vertex -1.2552 0.496967 27
      vertex -1.2552 0.496967 -27
    endloop
  endfacet
  facet normal 0.248682 -0.968585 0
    outer loop
      vertex -0.417172 1.28393 -27
      vertex -0.252964 1.32609 27
      vertex -0.417172 1.28393 27
    endloop
  endfacet
  facet normal 0.248682 -0.968585 0
    outer loop
      vertex -0.252964 1.32609 27
      vertex -0.417172 1.28393 -27
      vertex -0.252964 1.32609 -27
    endloop
  endfacet
  facet normal -0.982296 0.187338 0
    outer loop
      vertex 1.30759 -0.335731 -27
      vertex 1.33935 -0.169199 27
      vertex 1.33935 -0.169199 -27
    endloop
  endfacet
  facet normal -0.982296 0.187338 0
    outer loop
      vertex 1.33935 -0.169199 27
      vertex 1.30759 -0.335731 -27
      vertex 1.30759 -0.335731 27
    endloop
  endfacet
  facet normal -0.368126 0.929776 0
    outer loop
      vertex 0.574801 -1.22152 -27
      vertex 0.417172 -1.28393 27
      vertex 0.574801 -1.22152 27
    endloop
  endfacet
  facet normal -0.368126 0.929776 0
    outer loop
      vertex 0.417172 -1.28393 27
      vertex 0.574801 -1.22152 -27
      vertex 0.417172 -1.28393 -27
    endloop
  endfacet
  facet normal -0.951054 -0.309024 0
    outer loop
      vertex 1.30759 0.335731 -27
      vertex 1.2552 0.496967 27
      vertex 1.2552 0.496967 -27
    endloop
  endfacet
  facet normal -0.951054 -0.309024 0
    outer loop
      vertex 1.2552 0.496967 27
      vertex 1.30759 0.335731 -27
      vertex 1.30759 0.335731 27
    endloop
  endfacet
  facet normal -0.770521 -0.637415 0
    outer loop
      vertex 1.09217 0.793509 -27
      vertex 0.984107 0.924138 27
      vertex 0.984107 0.924138 -27
    endloop
  endfacet
  facet normal -0.770521 -0.637415 0
    outer loop
      vertex 0.984107 0.924138 27
      vertex 1.09217 0.793509 -27
      vertex 1.09217 0.793509 27
    endloop
  endfacet
  facet normal -0.248682 -0.968585 0
    outer loop
      vertex 0.252964 1.32609 -27
      vertex 0.417172 1.28393 27
      vertex 0.252964 1.32609 27
    endloop
  endfacet
  facet normal -0.248682 -0.968585 -0
    outer loop
      vertex 0.417172 1.28393 27
      vertex 0.252964 1.32609 -27
      vertex 0.417172 1.28393 -27
    endloop
  endfacet
  facet normal -0.125343 -0.992113 0
    outer loop
      vertex 0.0847664 1.34734 -27
      vertex 0.252964 1.32609 27
      vertex 0.0847664 1.34734 27
    endloop
  endfacet
  facet normal -0.125343 -0.992113 -0
    outer loop
      vertex 0.252964 1.32609 27
      vertex 0.0847664 1.34734 -27
      vertex 0.252964 1.32609 -27
    endloop
  endfacet
  facet normal -0.481779 -0.876292 0
    outer loop
      vertex 0.574801 1.22152 -27
      vertex 0.723366 1.13984 27
      vertex 0.574801 1.22152 27
    endloop
  endfacet
  facet normal -0.481779 -0.876292 -0
    outer loop
      vertex 0.723366 1.13984 27
      vertex 0.574801 1.22152 -27
      vertex 0.723366 1.13984 -27
    endloop
  endfacet
  facet normal 0.84433 -0.535824 0
    outer loop
      vertex -1.18301 0.650367 27
      vertex -1.09217 0.793509 -27
      vertex -1.09217 0.793509 27
    endloop
  endfacet
  facet normal 0.84433 -0.535824 0
    outer loop
      vertex -1.09217 0.793509 -27
      vertex -1.18301 0.650367 27
      vertex -1.18301 0.650367 -27
    endloop
  endfacet
  facet normal 0.770521 -0.637415 0
    outer loop
      vertex -1.09217 0.793509 27
      vertex -0.984107 0.924138 -27
      vertex -0.984107 0.924138 27
    endloop
  endfacet
  facet normal 0.770521 -0.637415 0
    outer loop
      vertex -0.984107 0.924138 -27
      vertex -1.09217 0.793509 27
      vertex -1.09217 0.793509 -27
    endloop
  endfacet
  facet normal 0.951054 -0.309024 0
    outer loop
      vertex -1.30759 0.335731 27
      vertex -1.2552 0.496967 -27
      vertex -1.2552 0.496967 27
    endloop
  endfacet
  facet normal 0.951054 -0.309024 0
    outer loop
      vertex -1.2552 0.496967 -27
      vertex -1.30759 0.335731 27
      vertex -1.30759 0.335731 -27
    endloop
  endfacet
  facet normal 0.982296 -0.187338 0
    outer loop
      vertex -1.33935 0.169199 27
      vertex -1.30759 0.335731 -27
      vertex -1.30759 0.335731 27
    endloop
  endfacet
  facet normal 0.982296 -0.187338 0
    outer loop
      vertex -1.30759 0.335731 -27
      vertex -1.33935 0.169199 27
      vertex -1.33935 0.169199 -27
    endloop
  endfacet
  facet normal 0.481779 -0.876292 0
    outer loop
      vertex -0.723366 1.13984 -27
      vertex -0.574801 1.22152 27
      vertex -0.723366 1.13984 27
    endloop
  endfacet
  facet normal 0.481779 -0.876292 0
    outer loop
      vertex -0.574801 1.22152 27
      vertex -0.723366 1.13984 -27
      vertex -0.574801 1.22152 -27
    endloop
  endfacet
  facet normal 0.587787 -0.809016 0
    outer loop
      vertex -0.860522 1.04019 -27
      vertex -0.723366 1.13984 27
      vertex -0.860522 1.04019 27
    endloop
  endfacet
  facet normal 0.587787 -0.809016 0
    outer loop
      vertex -0.723366 1.13984 27
      vertex -0.860522 1.04019 -27
      vertex -0.723366 1.13984 -27
    endloop
  endfacet
  facet normal 0.125343 -0.992113 0
    outer loop
      vertex -0.252964 1.32609 -27
      vertex -0.0847664 1.34734 27
      vertex -0.252964 1.32609 27
    endloop
  endfacet
  facet normal 0.125343 -0.992113 0
    outer loop
      vertex -0.0847664 1.34734 27
      vertex -0.252964 1.32609 -27
      vertex -0.0847664 1.34734 -27
    endloop
  endfacet
  facet normal -0.998025 0.0628193 0
    outer loop
      vertex 1.33935 -0.169199 -27
      vertex 1.35 0 27
      vertex 1.35 0 -27
    endloop
  endfacet
  facet normal -0.998025 0.0628193 0
    outer loop
      vertex 1.35 0 27
      vertex 1.33935 -0.169199 -27
      vertex 1.33935 -0.169199 27
    endloop
  endfacet
  facet normal -0.770521 0.637415 0
    outer loop
      vertex 0.984107 -0.924138 -27
      vertex 1.09217 -0.793509 27
      vertex 1.09217 -0.793509 -27
    endloop
  endfacet
  facet normal -0.770521 0.637415 0
    outer loop
      vertex 1.09217 -0.793509 27
      vertex 0.984107 -0.924138 -27
      vertex 0.984107 -0.924138 27
    endloop
  endfacet
  facet normal -0.587787 0.809016 0
    outer loop
      vertex 0.860522 -1.04019 -27
      vertex 0.723366 -1.13984 27
      vertex 0.860522 -1.04019 27
    endloop
  endfacet
  facet normal -0.587787 0.809016 0
    outer loop
      vertex 0.723366 -1.13984 27
      vertex 0.860522 -1.04019 -27
      vertex 0.723366 -1.13984 -27
    endloop
  endfacet
  facet normal -0.684541 0.728975 0
    outer loop
      vertex 0.984107 -0.924138 -27
      vertex 0.860522 -1.04019 27
      vertex 0.984107 -0.924138 27
    endloop
  endfacet
  facet normal -0.684541 0.728975 0
    outer loop
      vertex 0.860522 -1.04019 27
      vertex 0.984107 -0.924138 -27
      vertex 0.860522 -1.04019 -27
    endloop
  endfacet
  facet normal -0.904815 0.425806 0
    outer loop
      vertex 1.18301 -0.650367 -27
      vertex 1.2552 -0.496967 27
      vertex 1.2552 -0.496967 -27
    endloop
  endfacet
  facet normal -0.904815 0.425806 0
    outer loop
      vertex 1.2552 -0.496967 27
      vertex 1.18301 -0.650367 -27
      vertex 1.18301 -0.650367 27
    endloop
  endfacet
  facet normal 0.84433 0.535824 0
    outer loop
      vertex -1.09217 -0.793509 27
      vertex -1.18301 -0.650367 -27
      vertex -1.18301 -0.650367 27
    endloop
  endfacet
  facet normal 0.84433 0.535824 0
    outer loop
      vertex -1.18301 -0.650367 -27
      vertex -1.09217 -0.793509 27
      vertex -1.09217 -0.793509 -27
    endloop
  endfacet
  facet normal -0.125343 0.992113 0
    outer loop
      vertex 0.252964 -1.32609 -27
      vertex 0.0847664 -1.34734 27
      vertex 0.252964 -1.32609 27
    endloop
  endfacet
  facet normal -0.125343 0.992113 0
    outer loop
      vertex 0.0847664 -1.34734 27
      vertex 0.252964 -1.32609 -27
      vertex 0.0847664 -1.34734 -27
    endloop
  endfacet
  facet normal -0.481779 0.876292 0
    outer loop
      vertex 0.723366 -1.13984 -27
      vertex 0.574801 -1.22152 27
      vertex 0.723366 -1.13984 27
    endloop
  endfacet
  facet normal -0.481779 0.876292 0
    outer loop
      vertex 0.574801 -1.22152 27
      vertex 0.723366 -1.13984 -27
      vertex 0.574801 -1.22152 -27
    endloop
  endfacet
  facet normal -0.951054 0.309024 0
    outer loop
      vertex 1.2552 -0.496967 -27
      vertex 1.30759 -0.335731 27
      vertex 1.30759 -0.335731 -27
    endloop
  endfacet
  facet normal -0.951054 0.309024 0
    outer loop
      vertex 1.30759 -0.335731 27
      vertex 1.2552 -0.496967 -27
      vertex 1.2552 -0.496967 27
    endloop
  endfacet
  facet normal 0.368126 0.929776 -0
    outer loop
      vertex -0.417172 -1.28393 -27
      vertex -0.574801 -1.22152 27
      vertex -0.417172 -1.28393 27
    endloop
  endfacet
  facet normal 0.368126 0.929776 0
    outer loop
      vertex -0.574801 -1.22152 27
      vertex -0.417172 -1.28393 -27
      vertex -0.574801 -1.22152 -27
    endloop
  endfacet
  facet normal 0.587787 0.809016 -0
    outer loop
      vertex -0.723366 -1.13984 -27
      vertex -0.860522 -1.04019 27
      vertex -0.723366 -1.13984 27
    endloop
  endfacet
  facet normal 0.587787 0.809016 0
    outer loop
      vertex -0.860522 -1.04019 27
      vertex -0.723366 -1.13984 -27
      vertex -0.860522 -1.04019 -27
    endloop
  endfacet
  facet normal 0.248682 0.968585 -0
    outer loop
      vertex -0.252964 -1.32609 -27
      vertex -0.417172 -1.28393 27
      vertex -0.252964 -1.32609 27
    endloop
  endfacet
  facet normal 0.248682 0.968585 0
    outer loop
      vertex -0.417172 -1.28393 27
      vertex -0.252964 -1.32609 -27
      vertex -0.417172 -1.28393 -27
    endloop
  endfacet
  facet normal 0.684541 0.728975 -0
    outer loop
      vertex -0.860522 -1.04019 -27
      vertex -0.984107 -0.924138 27
      vertex -0.860522 -1.04019 27
    endloop
  endfacet
  facet normal 0.684541 0.728975 0
    outer loop
      vertex -0.984107 -0.924138 27
      vertex -0.860522 -1.04019 -27
      vertex -0.984107 -0.924138 -27
    endloop
  endfacet
  facet normal 0.770521 0.637415 0
    outer loop
      vertex -0.984107 -0.924138 27
      vertex -1.09217 -0.793509 -27
      vertex -1.09217 -0.793509 27
    endloop
  endfacet
  facet normal 0.770521 0.637415 0
    outer loop
      vertex -1.09217 -0.793509 -27
      vertex -0.984107 -0.924138 27
      vertex -0.984107 -0.924138 -27
    endloop
  endfacet
  facet normal 0.904815 0.425806 0
    outer loop
      vertex -1.18301 -0.650367 27
      vertex -1.2552 -0.496967 -27
      vertex -1.2552 -0.496967 27
    endloop
  endfacet
  facet normal 0.904815 0.425806 0
    outer loop
      vertex -1.2552 -0.496967 -27
      vertex -1.18301 -0.650367 27
      vertex -1.18301 -0.650367 -27
    endloop
  endfacet
  facet normal 0.951054 0.309024 0
    outer loop
      vertex -1.2552 -0.496967 27
      vertex -1.30759 -0.335731 -27
      vertex -1.30759 -0.335731 27
    endloop
  endfacet
  facet normal 0.951054 0.309024 0
    outer loop
      vertex -1.30759 -0.335731 -27
      vertex -1.2552 -0.496967 27
      vertex -1.2552 -0.496967 -27
    endloop
  endfacet
  facet normal 0.982296 0.187338 0
    outer loop
      vertex -1.30759 -0.335731 27
      vertex -1.33935 -0.169199 -27
      vertex -1.33935 -0.169199 27
    endloop
  endfacet
  facet normal 0.982296 0.187338 0
    outer loop
      vertex -1.33935 -0.169199 -27
      vertex -1.30759 -0.335731 27
      vertex -1.30759 -0.335731 -27
    endloop
  endfacet
  facet normal 0.998025 0.0628193 0
    outer loop
      vertex -1.33935 -0.169199 27
      vertex -1.35 0 -27
      vertex -1.35 0 27
    endloop
  endfacet
  facet normal 0.998025 0.0628193 0
    outer loop
      vertex -1.35 0 -27
      vertex -1.33935 -0.169199 27
      vertex -1.33935 -0.169199 -27
    endloop
  endfacet
  facet normal -0.248682 0.968585 0
    outer loop
      vertex 0.417172 -1.28393 -27
      vertex 0.252964 -1.32609 27
      vertex 0.417172 -1.28393 27
    endloop
  endfacet
  facet normal -0.248682 0.968585 0
    outer loop
      vertex 0.252964 -1.32609 27
      vertex 0.417172 -1.28393 -27
      vertex 0.252964 -1.32609 -27
    endloop
  endfacet
  facet normal 0.481779 0.876292 -0
    outer loop
      vertex -0.574801 -1.22152 -27
      vertex -0.723366 -1.13984 27
      vertex -0.574801 -1.22152 27
    endloop
  endfacet
  facet normal 0.481779 0.876292 0
    outer loop
      vertex -0.723366 -1.13984 27
      vertex -0.574801 -1.22152 -27
      vertex -0.723366 -1.13984 -27
    endloop
  endfacet
  facet normal 0.125343 0.992113 -0
    outer loop
      vertex -0.0847664 -1.34734 -27
      vertex -0.252964 -1.32609 27
      vertex -0.0847664 -1.34734 27
    endloop
  endfacet
  facet normal 0.125343 0.992113 0
    outer loop
      vertex -0.252964 -1.32609 27
      vertex -0.0847664 -1.34734 -27
      vertex -0.252964 -1.32609 -27
    endloop
  endfacet
endsolid OpenSCAD_Model
