solid OpenSCAD_Model
  facet normal 0.998027 0.0627925 0
    outer loop
      vertex 9 0 42
      vertex 8.92903 1.128 -42
      vertex 8.92903 1.128 42
    endloop
  endfacet
  facet normal 0.998027 0.0627925 0
    outer loop
      vertex 8.92903 1.128 -42
      vertex 9 0 42
      vertex 9 0 -42
    endloop
  endfacet
  facet normal -0.998027 0.0627925 0
    outer loop
      vertex -9 0 -42
      vertex -8.92903 1.128 42
      vertex -8.92903 1.128 -42
    endloop
  endfacet
  facet normal -0.998027 0.0627925 0
    outer loop
      vertex -8.92903 1.128 42
      vertex -9 0 -42
      vertex -9 0 42
    endloop
  endfacet
  facet normal 0 1 -0
    outer loop
      vertex 0.565114 8.98224 -42
      vertex -0.565114 8.98224 42
      vertex 0.565114 8.98224 42
    endloop
  endfacet
  facet normal 0 1 0
    outer loop
      vertex -0.565114 8.98224 42
      vertex 0.565114 8.98224 -42
      vertex -0.565114 8.98224 -42
    endloop
  endfacet
  facet normal 0 -1 0
    outer loop
      vertex -0.565114 -8.98224 -42
      vertex 0.565114 -8.98224 42
      vertex -0.565114 -8.98224 42
    endloop
  endfacet
  facet normal 0 -1 -0
    outer loop
      vertex 0.565114 -8.98224 42
      vertex -0.565114 -8.98224 -42
      vertex 0.565114 -8.98224 -42
    endloop
  endfacet
  facet normal 0.68455 0.728966 -0
    outer loop
      vertex 6.56072 6.16092 -42
      vertex 5.73682 6.93462 42
      vertex 6.56072 6.16092 42
    endloop
  endfacet
  facet normal 0.68455 0.728966 0
    outer loop
      vertex 5.73682 6.93462 42
      vertex 6.56072 6.16092 -42
      vertex 5.73682 6.93462 -42
    endloop
  endfacet
  facet normal -0.68455 0.728966 0
    outer loop
      vertex -5.73682 6.93462 -42
      vertex -6.56072 6.16092 42
      vertex -5.73682 6.93462 42
    endloop
  endfacet
  facet normal -0.68455 0.728966 0
    outer loop
      vertex -6.56072 6.16092 42
      vertex -5.73682 6.93462 -42
      vertex -6.56072 6.16092 -42
    endloop
  endfacet
  facet normal -0.368128 0.929775 0
    outer loop
      vertex -2.78115 8.55951 -42
      vertex -3.83201 8.14344 42
      vertex -2.78115 8.55951 42
    endloop
  endfacet
  facet normal -0.368128 0.929775 0
    outer loop
      vertex -3.83201 8.14344 42
      vertex -2.78115 8.55951 -42
      vertex -3.83201 8.14344 -42
    endloop
  endfacet
  facet normal 0.951056 -0.309017 0
    outer loop
      vertex 8.36799 -3.31312 42
      vertex 8.71725 -2.23821 -42
      vertex 8.71725 -2.23821 42
    endloop
  endfacet
  facet normal 0.951056 -0.309017 0
    outer loop
      vertex 8.71725 -2.23821 -42
      vertex 8.36799 -3.31312 42
      vertex 8.36799 -3.31312 -42
    endloop
  endfacet
  facet normal 0.904826 0.425781 0
    outer loop
      vertex 8.36799 3.31312 42
      vertex 7.88676 4.33578 -42
      vertex 7.88676 4.33578 42
    endloop
  endfacet
  facet normal 0.904826 0.425781 0
    outer loop
      vertex 7.88676 4.33578 -42
      vertex 8.36799 3.31312 42
      vertex 8.36799 3.31312 -42
    endloop
  endfacet
  facet normal 0.982288 0.187378 0
    outer loop
      vertex 8.92903 1.128 42
      vertex 8.71725 2.23821 -42
      vertex 8.71725 2.23821 42
    endloop
  endfacet
  facet normal 0.982288 0.187378 0
    outer loop
      vertex 8.71725 2.23821 -42
      vertex 8.92903 1.128 42
      vertex 8.92903 1.128 -42
    endloop
  endfacet
  facet normal 0.844328 0.535826 0
    outer loop
      vertex 7.88676 4.33578 42
      vertex 7.28115 5.29007 -42
      vertex 7.28115 5.29007 42
    endloop
  endfacet
  facet normal 0.844328 0.535826 0
    outer loop
      vertex 7.28115 5.29007 -42
      vertex 7.88676 4.33578 42
      vertex 7.88676 4.33578 -42
    endloop
  endfacet
  facet normal 0.368128 0.929775 -0
    outer loop
      vertex 3.83201 8.14344 -42
      vertex 2.78115 8.55951 42
      vertex 3.83201 8.14344 42
    endloop
  endfacet
  facet normal 0.368128 0.929775 0
    outer loop
      vertex 2.78115 8.55951 42
      vertex 3.83201 8.14344 -42
      vertex 2.78115 8.55951 -42
    endloop
  endfacet
  facet normal 0.248685 0.968585 -0
    outer loop
      vertex 2.78115 8.55951 -42
      vertex 1.68643 8.84058 42
      vertex 2.78115 8.55951 42
    endloop
  endfacet
  facet normal 0.248685 0.968585 0
    outer loop
      vertex 1.68643 8.84058 42
      vertex 2.78115 8.55951 -42
      vertex 1.68643 8.84058 -42
    endloop
  endfacet
  facet normal 0.481751 0.876308 -0
    outer loop
      vertex 4.82244 7.59895 -42
      vertex 3.83201 8.14344 42
      vertex 4.82244 7.59895 42
    endloop
  endfacet
  facet normal 0.481751 0.876308 0
    outer loop
      vertex 3.83201 8.14344 42
      vertex 4.82244 7.59895 -42
      vertex 3.83201 8.14344 -42
    endloop
  endfacet
  facet normal -0.904826 0.425781 0
    outer loop
      vertex -8.36799 3.31312 -42
      vertex -7.88676 4.33578 42
      vertex -7.88676 4.33578 -42
    endloop
  endfacet
  facet normal -0.904826 0.425781 0
    outer loop
      vertex -7.88676 4.33578 42
      vertex -8.36799 3.31312 -42
      vertex -8.36799 3.31312 42
    endloop
  endfacet
  facet normal -0.951056 0.309017 0
    outer loop
      vertex -8.71725 2.23821 -42
      vertex -8.36799 3.31312 42
      vertex -8.36799 3.31312 -42
    endloop
  endfacet
  facet normal -0.951056 0.309017 0
    outer loop
      vertex -8.36799 3.31312 42
      vertex -8.71725 2.23821 -42
      vertex -8.71725 2.23821 42
    endloop
  endfacet
  facet normal -0.248685 0.968585 0
    outer loop
      vertex -1.68643 8.84058 -42
      vertex -2.78115 8.55951 42
      vertex -1.68643 8.84058 42
    endloop
  endfacet
  facet normal -0.248685 0.968585 0
    outer loop
      vertex -2.78115 8.55951 42
      vertex -1.68643 8.84058 -42
      vertex -2.78115 8.55951 -42
    endloop
  endfacet
  facet normal 0.125337 -0.992114 0
    outer loop
      vertex 0.565114 -8.98224 -42
      vertex 1.68643 -8.84058 42
      vertex 0.565114 -8.98224 42
    endloop
  endfacet
  facet normal 0.125337 -0.992114 0
    outer loop
      vertex 1.68643 -8.84058 42
      vertex 0.565114 -8.98224 -42
      vertex 1.68643 -8.84058 -42
    endloop
  endfacet
  facet normal 0.951056 0.309017 0
    outer loop
      vertex 8.71725 2.23821 42
      vertex 8.36799 3.31312 -42
      vertex 8.36799 3.31312 42
    endloop
  endfacet
  facet normal 0.951056 0.309017 0
    outer loop
      vertex 8.36799 3.31312 -42
      vertex 8.71725 2.23821 42
      vertex 8.71725 2.23821 -42
    endloop
  endfacet
  facet normal 0.770513 0.637424 0
    outer loop
      vertex 7.28115 5.29007 42
      vertex 6.56072 6.16092 -42
      vertex 6.56072 6.16092 42
    endloop
  endfacet
  facet normal 0.770513 0.637424 0
    outer loop
      vertex 6.56072 6.16092 -42
      vertex 7.28115 5.29007 42
      vertex 7.28115 5.29007 -42
    endloop
  endfacet
  facet normal 0.125337 0.992114 -0
    outer loop
      vertex 1.68643 8.84058 -42
      vertex 0.565114 8.98224 42
      vertex 1.68643 8.84058 42
    endloop
  endfacet
  facet normal 0.125337 0.992114 0
    outer loop
      vertex 0.565114 8.98224 42
      vertex 1.68643 8.84058 -42
      vertex 0.565114 8.98224 -42
    endloop
  endfacet
  facet normal 0.587782 0.80902 -0
    outer loop
      vertex 5.73682 6.93462 -42
      vertex 4.82244 7.59895 42
      vertex 5.73682 6.93462 42
    endloop
  endfacet
  facet normal 0.587782 0.80902 0
    outer loop
      vertex 4.82244 7.59895 42
      vertex 5.73682 6.93462 -42
      vertex 4.82244 7.59895 -42
    endloop
  endfacet
  facet normal -0.844328 0.535826 0
    outer loop
      vertex -7.88676 4.33578 -42
      vertex -7.28115 5.29007 42
      vertex -7.28115 5.29007 -42
    endloop
  endfacet
  facet normal -0.844328 0.535826 0
    outer loop
      vertex -7.28115 5.29007 42
      vertex -7.88676 4.33578 -42
      vertex -7.88676 4.33578 42
    endloop
  endfacet
  facet normal -0.770513 0.637424 0
    outer loop
      vertex -7.28115 5.29007 -42
      vertex -6.56072 6.16092 42
      vertex -6.56072 6.16092 -42
    endloop
  endfacet
  facet normal -0.770513 0.637424 0
    outer loop
      vertex -6.56072 6.16092 42
      vertex -7.28115 5.29007 -42
      vertex -7.28115 5.29007 42
    endloop
  endfacet
  facet normal -0.982288 0.187378 0
    outer loop
      vertex -8.92903 1.128 -42
      vertex -8.71725 2.23821 42
      vertex -8.71725 2.23821 -42
    endloop
  endfacet
  facet normal -0.982288 0.187378 0
    outer loop
      vertex -8.71725 2.23821 42
      vertex -8.92903 1.128 -42
      vertex -8.92903 1.128 42
    endloop
  endfacet
  facet normal 0 0 1
    outer loop
      vertex 8 0 42
      vertex 9 0 42
      vertex 8.92903 1.128 42
    endloop
  endfacet
  facet normal 0 0 1
    outer loop
      vertex 7.93692 1.00267 42
      vertex 8.92903 1.128 42
      vertex 8.71725 2.23821 42
    endloop
  endfacet
  facet normal 0 0 1
    outer loop
      vertex 9 0 42
      vertex 8 0 42
      vertex 8.92903 -1.128 42
    endloop
  endfacet
  facet normal 0 0 1
    outer loop
      vertex 7.74866 1.98952 42
      vertex 8.71725 2.23821 42
      vertex 8.36799 3.31312 42
    endloop
  endfacet
  facet normal -0 0 1
    outer loop
      vertex 7.93692 -1.00267 42
      vertex 8.92903 -1.128 42
      vertex 8 0 42
    endloop
  endfacet
  facet normal 0 0 1
    outer loop
      vertex 8.92903 -1.128 42
      vertex 7.93692 -1.00267 42
      vertex 8.71725 -2.23821 42
    endloop
  endfacet
  facet normal 0 0 1
    outer loop
      vertex 8.92903 1.128 42
      vertex 7.93692 1.00267 42
      vertex 8 0 42
    endloop
  endfacet
  facet normal 0 0 1
    outer loop
      vertex 7.43821 2.945 42
      vertex 8.36799 3.31312 42
      vertex 7.88676 4.33578 42
    endloop
  endfacet
  facet normal 0 0 1
    outer loop
      vertex 8.71725 2.23821 42
      vertex 7.74866 1.98952 42
      vertex 7.93692 1.00267 42
    endloop
  endfacet
  facet normal 0 0 1
    outer loop
      vertex 8.36799 3.31312 42
      vertex 7.43821 2.945 42
      vertex 7.74866 1.98952 42
    endloop
  endfacet
  facet normal 0 0 1
    outer loop
      vertex 7.01045 3.85403 42
      vertex 7.88676 4.33578 42
      vertex 7.28115 5.29007 42
    endloop
  endfacet
  facet normal 0 0 1
    outer loop
      vertex 7.88676 4.33578 42
      vertex 7.01045 3.85403 42
      vertex 7.43821 2.945 42
    endloop
  endfacet
  facet normal 0 0 1
    outer loop
      vertex 6.47214 4.70228 42
      vertex 7.28115 5.29007 42
      vertex 6.56072 6.16092 42
    endloop
  endfacet
  facet normal 0 0 1
    outer loop
      vertex 7.28115 5.29007 42
      vertex 6.47214 4.70228 42
      vertex 7.01045 3.85403 42
    endloop
  endfacet
  facet normal 0 0 1
    outer loop
      vertex 6.56072 6.16092 42
      vertex 5.83175 5.47638 42
      vertex 6.47214 4.70228 42
    endloop
  endfacet
  facet normal 0 0 1
    outer loop
      vertex 5.73682 6.93462 42
      vertex 5.83175 5.47638 42
      vertex 6.56072 6.16092 42
    endloop
  endfacet
  facet normal 0 0 1
    outer loop
      vertex 5.73682 6.93462 42
      vertex 5.09939 6.16411 42
      vertex 5.83175 5.47638 42
    endloop
  endfacet
  facet normal 0 0 1
    outer loop
      vertex 4.82244 7.59895 42
      vertex 5.09939 6.16411 42
      vertex 5.73682 6.93462 42
    endloop
  endfacet
  facet normal 0 0 1
    outer loop
      vertex 4.82244 7.59895 42
      vertex 4.28661 6.75462 42
      vertex 5.09939 6.16411 42
    endloop
  endfacet
  facet normal 0 0 1
    outer loop
      vertex 3.83201 8.14344 42
      vertex 4.28661 6.75462 42
      vertex 4.82244 7.59895 42
    endloop
  endfacet
  facet normal 0 0 1
    outer loop
      vertex 3.83201 8.14344 42
      vertex 3.40623 7.23862 42
      vertex 4.28661 6.75462 42
    endloop
  endfacet
  facet normal 0 0 1
    outer loop
      vertex 2.78115 8.55951 42
      vertex 3.40623 7.23862 42
      vertex 3.83201 8.14344 42
    endloop
  endfacet
  facet normal 0 0 1
    outer loop
      vertex 2.78115 8.55951 42
      vertex 2.47214 7.60845 42
      vertex 3.40623 7.23862 42
    endloop
  endfacet
  facet normal 0 0 1
    outer loop
      vertex 1.68643 8.84058 42
      vertex 2.47214 7.60845 42
      vertex 2.78115 8.55951 42
    endloop
  endfacet
  facet normal 0 0 1
    outer loop
      vertex 1.68643 8.84058 42
      vertex 1.49905 7.8583 42
      vertex 2.47214 7.60845 42
    endloop
  endfacet
  facet normal 0 0 1
    outer loop
      vertex 0.565114 8.98224 42
      vertex 1.49905 7.8583 42
      vertex 1.68643 8.84058 42
    endloop
  endfacet
  facet normal 0 0 1
    outer loop
      vertex 0.565114 8.98224 42
      vertex 0.502324 7.98421 42
      vertex 1.49905 7.8583 42
    endloop
  endfacet
  facet normal 0 0 1
    outer loop
      vertex 0.565114 8.98224 42
      vertex -0.502324 7.98421 42
      vertex 0.502324 7.98421 42
    endloop
  endfacet
  facet normal -0 0 1
    outer loop
      vertex -0.565114 8.98224 42
      vertex -0.502324 7.98421 42
      vertex 0.565114 8.98224 42
    endloop
  endfacet
  facet normal 0 0 1
    outer loop
      vertex -0.565114 8.98224 42
      vertex -1.49905 7.8583 42
      vertex -0.502324 7.98421 42
    endloop
  endfacet
  facet normal -0 0 1
    outer loop
      vertex -1.68643 8.84058 42
      vertex -1.49905 7.8583 42
      vertex -0.565114 8.98224 42
    endloop
  endfacet
  facet normal 0 0 1
    outer loop
      vertex -1.68643 8.84058 42
      vertex -2.47214 7.60845 42
      vertex -1.49905 7.8583 42
    endloop
  endfacet
  facet normal -0 0 1
    outer loop
      vertex -2.78115 8.55951 42
      vertex -2.47214 7.60845 42
      vertex -1.68643 8.84058 42
    endloop
  endfacet
  facet normal 0 0 1
    outer loop
      vertex -2.78115 8.55951 42
      vertex -3.40623 7.23862 42
      vertex -2.47214 7.60845 42
    endloop
  endfacet
  facet normal -0 0 1
    outer loop
      vertex -3.83201 8.14344 42
      vertex -3.40623 7.23862 42
      vertex -2.78115 8.55951 42
    endloop
  endfacet
  facet normal 0 0 1
    outer loop
      vertex -3.83201 8.14344 42
      vertex -4.28661 6.75462 42
      vertex -3.40623 7.23862 42
    endloop
  endfacet
  facet normal -0 0 1
    outer loop
      vertex -4.82244 7.59895 42
      vertex -4.28661 6.75462 42
      vertex -3.83201 8.14344 42
    endloop
  endfacet
  facet normal 0 0 1
    outer loop
      vertex -4.82244 7.59895 42
      vertex -5.09939 6.16411 42
      vertex -4.28661 6.75462 42
    endloop
  endfacet
  facet normal -0 0 1
    outer loop
      vertex -5.73682 6.93462 42
      vertex -5.09939 6.16411 42
      vertex -4.82244 7.59895 42
    endloop
  endfacet
  facet normal 0 0 1
    outer loop
      vertex -5.73682 6.93462 42
      vertex -5.83175 5.47638 42
      vertex -5.09939 6.16411 42
    endloop
  endfacet
  facet normal -0 0 1
    outer loop
      vertex -6.56072 6.16092 42
      vertex -5.83175 5.47638 42
      vertex -5.73682 6.93462 42
    endloop
  endfacet
  facet normal 0 0 1
    outer loop
      vertex -5.83175 5.47638 42
      vertex -6.56072 6.16092 42
      vertex -6.47214 4.70228 42
    endloop
  endfacet
  facet normal -0 0 1
    outer loop
      vertex -7.28115 5.29007 42
      vertex -6.47214 4.70228 42
      vertex -6.56072 6.16092 42
    endloop
  endfacet
  facet normal 0 0 1
    outer loop
      vertex -6.47214 4.70228 42
      vertex -7.28115 5.29007 42
      vertex -7.01045 3.85403 42
    endloop
  endfacet
  facet normal -0 0 1
    outer loop
      vertex -7.88676 4.33578 42
      vertex -7.01045 3.85403 42
      vertex -7.28115 5.29007 42
    endloop
  endfacet
  facet normal 0 0 1
    outer loop
      vertex -7.01045 3.85403 42
      vertex -7.88676 4.33578 42
      vertex -7.43821 2.945 42
    endloop
  endfacet
  facet normal -0 0 1
    outer loop
      vertex -8.36799 3.31312 42
      vertex -7.43821 2.945 42
      vertex -7.88676 4.33578 42
    endloop
  endfacet
  facet normal 0 0 1
    outer loop
      vertex -7.43821 2.945 42
      vertex -8.36799 3.31312 42
      vertex -7.74866 1.98952 42
    endloop
  endfacet
  facet normal -0 0 1
    outer loop
      vertex -8.71725 2.23821 42
      vertex -7.74866 1.98952 42
      vertex -8.36799 3.31312 42
    endloop
  endfacet
  facet normal 0 0 1
    outer loop
      vertex -7.74866 1.98952 42
      vertex -8.71725 2.23821 42
      vertex -7.93692 1.00267 42
    endloop
  endfacet
  facet normal -0 0 1
    outer loop
      vertex 7.74866 -1.98952 42
      vertex 8.71725 -2.23821 42
      vertex 7.93692 -1.00267 42
    endloop
  endfacet
  facet normal 0 0 1
    outer loop
      vertex 8.71725 -2.23821 42
      vertex 7.74866 -1.98952 42
      vertex 8.36799 -3.31312 42
    endloop
  endfacet
  facet normal -0 0 1
    outer loop
      vertex 7.43821 -2.945 42
      vertex 8.36799 -3.31312 42
      vertex 7.74866 -1.98952 42
    endloop
  endfacet
  facet normal 0 0 1
    outer loop
      vertex 8.36799 -3.31312 42
      vertex 7.43821 -2.945 42
      vertex 7.88676 -4.33578 42
    endloop
  endfacet
  facet normal -0 0 1
    outer loop
      vertex 7.01045 -3.85403 42
      vertex 7.88676 -4.33578 42
      vertex 7.43821 -2.945 42
    endloop
  endfacet
  facet normal 0 0 1
    outer loop
      vertex 7.88676 -4.33578 42
      vertex 7.01045 -3.85403 42
      vertex 7.28115 -5.29007 42
    endloop
  endfacet
  facet normal -0 0 1
    outer loop
      vertex 6.47214 -4.70228 42
      vertex 7.28115 -5.29007 42
      vertex 7.01045 -3.85403 42
    endloop
  endfacet
  facet normal 0 0 1
    outer loop
      vertex 7.28115 -5.29007 42
      vertex 6.47214 -4.70228 42
      vertex 6.56072 -6.16092 42
    endloop
  endfacet
  facet normal -0 0 1
    outer loop
      vertex 5.83175 -5.47638 42
      vertex 6.56072 -6.16092 42
      vertex 6.47214 -4.70228 42
    endloop
  endfacet
  facet normal 0 0 1
    outer loop
      vertex 5.83175 -5.47638 42
      vertex 5.73682 -6.93462 42
      vertex 6.56072 -6.16092 42
    endloop
  endfacet
  facet normal -0 0 1
    outer loop
      vertex 5.09939 -6.16411 42
      vertex 5.73682 -6.93462 42
      vertex 5.83175 -5.47638 42
    endloop
  endfacet
  facet normal 0 0 1
    outer loop
      vertex 5.09939 -6.16411 42
      vertex 4.82244 -7.59895 42
      vertex 5.73682 -6.93462 42
    endloop
  endfacet
  facet normal -0 0 1
    outer loop
      vertex 4.28661 -6.75462 42
      vertex 4.82244 -7.59895 42
      vertex 5.09939 -6.16411 42
    endloop
  endfacet
  facet normal 0 0 1
    outer loop
      vertex 4.28661 -6.75462 42
      vertex 3.83201 -8.14344 42
      vertex 4.82244 -7.59895 42
    endloop
  endfacet
  facet normal -0 0 1
    outer loop
      vertex 3.40623 -7.23862 42
      vertex 3.83201 -8.14344 42
      vertex 4.28661 -6.75462 42
    endloop
  endfacet
  facet normal 0 0 1
    outer loop
      vertex 3.40623 -7.23862 42
      vertex 2.78115 -8.55951 42
      vertex 3.83201 -8.14344 42
    endloop
  endfacet
  facet normal -0 0 1
    outer loop
      vertex 2.47214 -7.60845 42
      vertex 2.78115 -8.55951 42
      vertex 3.40623 -7.23862 42
    endloop
  endfacet
  facet normal 0 0 1
    outer loop
      vertex 2.47214 -7.60845 42
      vertex 1.68643 -8.84058 42
      vertex 2.78115 -8.55951 42
    endloop
  endfacet
  facet normal -0 0 1
    outer loop
      vertex 1.49905 -7.8583 42
      vertex 1.68643 -8.84058 42
      vertex 2.47214 -7.60845 42
    endloop
  endfacet
  facet normal 0 0 1
    outer loop
      vertex 1.49905 -7.8583 42
      vertex 0.565114 -8.98224 42
      vertex 1.68643 -8.84058 42
    endloop
  endfacet
  facet normal -0 0 1
    outer loop
      vertex 0.502324 -7.98421 42
      vertex 0.565114 -8.98224 42
      vertex 1.49905 -7.8583 42
    endloop
  endfacet
  facet normal -0 0 1
    outer loop
      vertex -0.502324 -7.98421 42
      vertex 0.565114 -8.98224 42
      vertex 0.502324 -7.98421 42
    endloop
  endfacet
  facet normal 0 0 1
    outer loop
      vertex -0.502324 -7.98421 42
      vertex -0.565114 -8.98224 42
      vertex 0.565114 -8.98224 42
    endloop
  endfacet
  facet normal 0 0 1
    outer loop
      vertex -1.49905 -7.8583 42
      vertex -0.565114 -8.98224 42
      vertex -0.502324 -7.98421 42
    endloop
  endfacet
  facet normal 0 0 1
    outer loop
      vertex -1.49905 -7.8583 42
      vertex -1.68643 -8.84058 42
      vertex -0.565114 -8.98224 42
    endloop
  endfacet
  facet normal 0 0 1
    outer loop
      vertex -2.47214 -7.60845 42
      vertex -1.68643 -8.84058 42
      vertex -1.49905 -7.8583 42
    endloop
  endfacet
  facet normal 0 0 1
    outer loop
      vertex -2.47214 -7.60845 42
      vertex -2.78115 -8.55951 42
      vertex -1.68643 -8.84058 42
    endloop
  endfacet
  facet normal 0 0 1
    outer loop
      vertex -3.40623 -7.23862 42
      vertex -2.78115 -8.55951 42
      vertex -2.47214 -7.60845 42
    endloop
  endfacet
  facet normal 0 0 1
    outer loop
      vertex -3.40623 -7.23862 42
      vertex -3.83201 -8.14344 42
      vertex -2.78115 -8.55951 42
    endloop
  endfacet
  facet normal 0 0 1
    outer loop
      vertex -4.28661 -6.75462 42
      vertex -3.83201 -8.14344 42
      vertex -3.40623 -7.23862 42
    endloop
  endfacet
  facet normal 0 0 1
    outer loop
      vertex -4.28661 -6.75462 42
      vertex -4.82244 -7.59895 42
      vertex -3.83201 -8.14344 42
    endloop
  endfacet
  facet normal 0 0 1
    outer loop
      vertex -5.09939 -6.16411 42
      vertex -4.82244 -7.59895 42
      vertex -4.28661 -6.75462 42
    endloop
  endfacet
  facet normal 0 0 1
    outer loop
      vertex -5.09939 -6.16411 42
      vertex -5.73682 -6.93462 42
      vertex -4.82244 -7.59895 42
    endloop
  endfacet
  facet normal 0 0 1
    outer loop
      vertex -5.83175 -5.47638 42
      vertex -5.73682 -6.93462 42
      vertex -5.09939 -6.16411 42
    endloop
  endfacet
  facet normal 0 0 1
    outer loop
      vertex -6.56072 -6.16092 42
      vertex -5.83175 -5.47638 42
      vertex -6.47214 -4.70228 42
    endloop
  endfacet
  facet normal 0 0 1
    outer loop
      vertex -5.83175 -5.47638 42
      vertex -6.56072 -6.16092 42
      vertex -5.73682 -6.93462 42
    endloop
  endfacet
  facet normal 0 0 1
    outer loop
      vertex -7.28115 -5.29007 42
      vertex -6.47214 -4.70228 42
      vertex -7.01045 -3.85403 42
    endloop
  endfacet
  facet normal 0 0 1
    outer loop
      vertex -6.47214 -4.70228 42
      vertex -7.28115 -5.29007 42
      vertex -6.56072 -6.16092 42
    endloop
  endfacet
  facet normal 0 0 1
    outer loop
      vertex -7.88676 -4.33578 42
      vertex -7.01045 -3.85403 42
      vertex -7.43821 -2.945 42
    endloop
  endfacet
  facet normal 0 0 1
    outer loop
      vertex -8.36799 -3.31312 42
      vertex -7.43821 -2.945 42
      vertex -7.74866 -1.98952 42
    endloop
  endfacet
  facet normal 0 0 1
    outer loop
      vertex -7.01045 -3.85403 42
      vertex -7.88676 -4.33578 42
      vertex -7.28115 -5.29007 42
    endloop
  endfacet
  facet normal 0 0 1
    outer loop
      vertex -8.71725 -2.23821 42
      vertex -7.74866 -1.98952 42
      vertex -7.93692 -1.00267 42
    endloop
  endfacet
  facet normal 0 0 1
    outer loop
      vertex -8.92903 -1.128 42
      vertex -7.93692 -1.00267 42
      vertex -8 0 42
    endloop
  endfacet
  facet normal -0 0 1
    outer loop
      vertex -8.92903 1.128 42
      vertex -7.93692 1.00267 42
      vertex -8.71725 2.23821 42
    endloop
  endfacet
  facet normal 0 0 1
    outer loop
      vertex -7.43821 -2.945 42
      vertex -8.36799 -3.31312 42
      vertex -7.88676 -4.33578 42
    endloop
  endfacet
  facet normal 0 0 1
    outer loop
      vertex -7.93692 1.00267 42
      vertex -8.92903 1.128 42
      vertex -8 0 42
    endloop
  endfacet
  facet normal 0 0 1
    outer loop
      vertex -7.74866 -1.98952 42
      vertex -8.71725 -2.23821 42
      vertex -8.36799 -3.31312 42
    endloop
  endfacet
  facet normal 0 0 1
    outer loop
      vertex -9 0 42
      vertex -8 0 42
      vertex -8.92903 1.128 42
    endloop
  endfacet
  facet normal 0 0 1
    outer loop
      vertex -7.93692 -1.00267 42
      vertex -8.92903 -1.128 42
      vertex -8.71725 -2.23821 42
    endloop
  endfacet
  facet normal 0 0 1
    outer loop
      vertex -8 0 42
      vertex -9 0 42
      vertex -8.92903 -1.128 42
    endloop
  endfacet
  facet normal -0.481751 0.876308 0
    outer loop
      vertex -3.83201 8.14344 -42
      vertex -4.82244 7.59895 42
      vertex -3.83201 8.14344 42
    endloop
  endfacet
  facet normal -0.481751 0.876308 0
    outer loop
      vertex -4.82244 7.59895 42
      vertex -3.83201 8.14344 -42
      vertex -4.82244 7.59895 -42
    endloop
  endfacet
  facet normal -0.587782 0.80902 0
    outer loop
      vertex -4.82244 7.59895 -42
      vertex -5.73682 6.93462 42
      vertex -4.82244 7.59895 42
    endloop
  endfacet
  facet normal -0.587782 0.80902 0
    outer loop
      vertex -5.73682 6.93462 42
      vertex -4.82244 7.59895 -42
      vertex -5.73682 6.93462 -42
    endloop
  endfacet
  facet normal -0.125337 0.992114 0
    outer loop
      vertex -0.565114 8.98224 -42
      vertex -1.68643 8.84058 42
      vertex -0.565114 8.98224 42
    endloop
  endfacet
  facet normal -0.125337 0.992114 0
    outer loop
      vertex -1.68643 8.84058 42
      vertex -0.565114 8.98224 -42
      vertex -1.68643 8.84058 -42
    endloop
  endfacet
  facet normal 0.998027 -0.0627925 0
    outer loop
      vertex 8.92903 -1.128 42
      vertex 9 0 -42
      vertex 9 0 42
    endloop
  endfacet
  facet normal 0.998027 -0.0627925 0
    outer loop
      vertex 9 0 -42
      vertex 8.92903 -1.128 42
      vertex 8.92903 -1.128 -42
    endloop
  endfacet
  facet normal 0.770513 -0.637424 0
    outer loop
      vertex 6.56072 -6.16092 42
      vertex 7.28115 -5.29007 -42
      vertex 7.28115 -5.29007 42
    endloop
  endfacet
  facet normal 0.770513 -0.637424 0
    outer loop
      vertex 7.28115 -5.29007 -42
      vertex 6.56072 -6.16092 42
      vertex 6.56072 -6.16092 -42
    endloop
  endfacet
  facet normal 0.904826 -0.425781 0
    outer loop
      vertex 7.88676 -4.33578 42
      vertex 8.36799 -3.31312 -42
      vertex 8.36799 -3.31312 42
    endloop
  endfacet
  facet normal 0.904826 -0.425781 0
    outer loop
      vertex 8.36799 -3.31312 -42
      vertex 7.88676 -4.33578 42
      vertex 7.88676 -4.33578 -42
    endloop
  endfacet
  facet normal 0.982288 -0.187378 0
    outer loop
      vertex 8.71725 -2.23821 42
      vertex 8.92903 -1.128 -42
      vertex 8.92903 -1.128 42
    endloop
  endfacet
  facet normal 0.982288 -0.187378 0
    outer loop
      vertex 8.92903 -1.128 -42
      vertex 8.71725 -2.23821 42
      vertex 8.71725 -2.23821 -42
    endloop
  endfacet
  facet normal 0 0 -1
    outer loop
      vertex 8 0 -42
      vertex 9 0 -42
      vertex 8.92903 -1.128 -42
    endloop
  endfacet
  facet normal 0 0 -1
    outer loop
      vertex 7.93692 -1.00267 -42
      vertex 8.92903 -1.128 -42
      vertex 8.71725 -2.23821 -42
    endloop
  endfacet
  facet normal 0 0 -1
    outer loop
      vertex 9 0 -42
      vertex 8 0 -42
      vertex 8.92903 1.128 -42
    endloop
  endfacet
  facet normal 0 0 -1
    outer loop
      vertex 7.74866 -1.98952 -42
      vertex 8.71725 -2.23821 -42
      vertex 8.36799 -3.31312 -42
    endloop
  endfacet
  facet normal 0 0 -1
    outer loop
      vertex 7.93692 1.00267 -42
      vertex 8.92903 1.128 -42
      vertex 8 0 -42
    endloop
  endfacet
  facet normal -0 0 -1
    outer loop
      vertex 8.92903 1.128 -42
      vertex 7.93692 1.00267 -42
      vertex 8.71725 2.23821 -42
    endloop
  endfacet
  facet normal 0 0 -1
    outer loop
      vertex 8.92903 -1.128 -42
      vertex 7.93692 -1.00267 -42
      vertex 8 0 -42
    endloop
  endfacet
  facet normal 0 0 -1
    outer loop
      vertex 7.43821 -2.945 -42
      vertex 8.36799 -3.31312 -42
      vertex 7.88676 -4.33578 -42
    endloop
  endfacet
  facet normal 0 0 -1
    outer loop
      vertex 8.71725 -2.23821 -42
      vertex 7.74866 -1.98952 -42
      vertex 7.93692 -1.00267 -42
    endloop
  endfacet
  facet normal 0 0 -1
    outer loop
      vertex 8.36799 -3.31312 -42
      vertex 7.43821 -2.945 -42
      vertex 7.74866 -1.98952 -42
    endloop
  endfacet
  facet normal 0 0 -1
    outer loop
      vertex 7.01045 -3.85403 -42
      vertex 7.88676 -4.33578 -42
      vertex 7.28115 -5.29007 -42
    endloop
  endfacet
  facet normal 0 0 -1
    outer loop
      vertex 7.88676 -4.33578 -42
      vertex 7.01045 -3.85403 -42
      vertex 7.43821 -2.945 -42
    endloop
  endfacet
  facet normal 0 0 -1
    outer loop
      vertex 6.47214 -4.70228 -42
      vertex 7.28115 -5.29007 -42
      vertex 6.56072 -6.16092 -42
    endloop
  endfacet
  facet normal 0 0 -1
    outer loop
      vertex 7.28115 -5.29007 -42
      vertex 6.47214 -4.70228 -42
      vertex 7.01045 -3.85403 -42
    endloop
  endfacet
  facet normal 0 0 -1
    outer loop
      vertex 6.56072 -6.16092 -42
      vertex 5.83175 -5.47638 -42
      vertex 6.47214 -4.70228 -42
    endloop
  endfacet
  facet normal 0 0 -1
    outer loop
      vertex 5.73682 -6.93462 -42
      vertex 5.83175 -5.47638 -42
      vertex 6.56072 -6.16092 -42
    endloop
  endfacet
  facet normal 0 0 -1
    outer loop
      vertex 5.73682 -6.93462 -42
      vertex 5.09939 -6.16411 -42
      vertex 5.83175 -5.47638 -42
    endloop
  endfacet
  facet normal 0 0 -1
    outer loop
      vertex 4.82244 -7.59895 -42
      vertex 5.09939 -6.16411 -42
      vertex 5.73682 -6.93462 -42
    endloop
  endfacet
  facet normal 0 0 -1
    outer loop
      vertex 4.82244 -7.59895 -42
      vertex 4.28661 -6.75462 -42
      vertex 5.09939 -6.16411 -42
    endloop
  endfacet
  facet normal 0 0 -1
    outer loop
      vertex 3.83201 -8.14344 -42
      vertex 4.28661 -6.75462 -42
      vertex 4.82244 -7.59895 -42
    endloop
  endfacet
  facet normal 0 0 -1
    outer loop
      vertex 3.83201 -8.14344 -42
      vertex 3.40623 -7.23862 -42
      vertex 4.28661 -6.75462 -42
    endloop
  endfacet
  facet normal 0 0 -1
    outer loop
      vertex 2.78115 -8.55951 -42
      vertex 3.40623 -7.23862 -42
      vertex 3.83201 -8.14344 -42
    endloop
  endfacet
  facet normal 0 0 -1
    outer loop
      vertex 2.78115 -8.55951 -42
      vertex 2.47214 -7.60845 -42
      vertex 3.40623 -7.23862 -42
    endloop
  endfacet
  facet normal 0 0 -1
    outer loop
      vertex 1.68643 -8.84058 -42
      vertex 2.47214 -7.60845 -42
      vertex 2.78115 -8.55951 -42
    endloop
  endfacet
  facet normal 0 0 -1
    outer loop
      vertex 1.68643 -8.84058 -42
      vertex 1.49905 -7.8583 -42
      vertex 2.47214 -7.60845 -42
    endloop
  endfacet
  facet normal 0 0 -1
    outer loop
      vertex 0.565114 -8.98224 -42
      vertex 1.49905 -7.8583 -42
      vertex 1.68643 -8.84058 -42
    endloop
  endfacet
  facet normal 0 0 -1
    outer loop
      vertex 0.565114 -8.98224 -42
      vertex 0.502324 -7.98421 -42
      vertex 1.49905 -7.8583 -42
    endloop
  endfacet
  facet normal 0 0 -1
    outer loop
      vertex 0.565114 -8.98224 -42
      vertex -0.502324 -7.98421 -42
      vertex 0.502324 -7.98421 -42
    endloop
  endfacet
  facet normal 0 0 -1
    outer loop
      vertex -0.565114 -8.98224 -42
      vertex -0.502324 -7.98421 -42
      vertex 0.565114 -8.98224 -42
    endloop
  endfacet
  facet normal 0 0 -1
    outer loop
      vertex -0.565114 -8.98224 -42
      vertex -1.49905 -7.8583 -42
      vertex -0.502324 -7.98421 -42
    endloop
  endfacet
  facet normal 0 0 -1
    outer loop
      vertex -1.68643 -8.84058 -42
      vertex -1.49905 -7.8583 -42
      vertex -0.565114 -8.98224 -42
    endloop
  endfacet
  facet normal 0 0 -1
    outer loop
      vertex -1.68643 -8.84058 -42
      vertex -2.47214 -7.60845 -42
      vertex -1.49905 -7.8583 -42
    endloop
  endfacet
  facet normal 0 0 -1
    outer loop
      vertex -2.78115 -8.55951 -42
      vertex -2.47214 -7.60845 -42
      vertex -1.68643 -8.84058 -42
    endloop
  endfacet
  facet normal 0 0 -1
    outer loop
      vertex -2.78115 -8.55951 -42
      vertex -3.40623 -7.23862 -42
      vertex -2.47214 -7.60845 -42
    endloop
  endfacet
  facet normal 0 0 -1
    outer loop
      vertex -3.83201 -8.14344 -42
      vertex -3.40623 -7.23862 -42
      vertex -2.78115 -8.55951 -42
    endloop
  endfacet
  facet normal 0 0 -1
    outer loop
      vertex -3.83201 -8.14344 -42
      vertex -4.28661 -6.75462 -42
      vertex -3.40623 -7.23862 -42
    endloop
  endfacet
  facet normal 0 0 -1
    outer loop
      vertex -4.82244 -7.59895 -42
      vertex -4.28661 -6.75462 -42
      vertex -3.83201 -8.14344 -42
    endloop
  endfacet
  facet normal 0 0 -1
    outer loop
      vertex -4.82244 -7.59895 -42
      vertex -5.09939 -6.16411 -42
      vertex -4.28661 -6.75462 -42
    endloop
  endfacet
  facet normal 0 0 -1
    outer loop
      vertex -5.73682 -6.93462 -42
      vertex -5.09939 -6.16411 -42
      vertex -4.82244 -7.59895 -42
    endloop
  endfacet
  facet normal 0 0 -1
    outer loop
      vertex -5.73682 -6.93462 -42
      vertex -5.83175 -5.47638 -42
      vertex -5.09939 -6.16411 -42
    endloop
  endfacet
  facet normal 0 0 -1
    outer loop
      vertex -6.56072 -6.16092 -42
      vertex -5.83175 -5.47638 -42
      vertex -5.73682 -6.93462 -42
    endloop
  endfacet
  facet normal -0 0 -1
    outer loop
      vertex -5.83175 -5.47638 -42
      vertex -6.56072 -6.16092 -42
      vertex -6.47214 -4.70228 -42
    endloop
  endfacet
  facet normal 0 0 -1
    outer loop
      vertex -7.28115 -5.29007 -42
      vertex -6.47214 -4.70228 -42
      vertex -6.56072 -6.16092 -42
    endloop
  endfacet
  facet normal -0 0 -1
    outer loop
      vertex -6.47214 -4.70228 -42
      vertex -7.28115 -5.29007 -42
      vertex -7.01045 -3.85403 -42
    endloop
  endfacet
  facet normal 0 0 -1
    outer loop
      vertex -7.88676 -4.33578 -42
      vertex -7.01045 -3.85403 -42
      vertex -7.28115 -5.29007 -42
    endloop
  endfacet
  facet normal -0 0 -1
    outer loop
      vertex -7.01045 -3.85403 -42
      vertex -7.88676 -4.33578 -42
      vertex -7.43821 -2.945 -42
    endloop
  endfacet
  facet normal 0 0 -1
    outer loop
      vertex -8.36799 -3.31312 -42
      vertex -7.43821 -2.945 -42
      vertex -7.88676 -4.33578 -42
    endloop
  endfacet
  facet normal -0 0 -1
    outer loop
      vertex -7.43821 -2.945 -42
      vertex -8.36799 -3.31312 -42
      vertex -7.74866 -1.98952 -42
    endloop
  endfacet
  facet normal 0 0 -1
    outer loop
      vertex -8.71725 -2.23821 -42
      vertex -7.74866 -1.98952 -42
      vertex -8.36799 -3.31312 -42
    endloop
  endfacet
  facet normal -0 0 -1
    outer loop
      vertex -7.74866 -1.98952 -42
      vertex -8.71725 -2.23821 -42
      vertex -7.93692 -1.00267 -42
    endloop
  endfacet
  facet normal 0 0 -1
    outer loop
      vertex 7.74866 1.98952 -42
      vertex 8.71725 2.23821 -42
      vertex 7.93692 1.00267 -42
    endloop
  endfacet
  facet normal -0 0 -1
    outer loop
      vertex 8.71725 2.23821 -42
      vertex 7.74866 1.98952 -42
      vertex 8.36799 3.31312 -42
    endloop
  endfacet
  facet normal 0 0 -1
    outer loop
      vertex 7.43821 2.945 -42
      vertex 8.36799 3.31312 -42
      vertex 7.74866 1.98952 -42
    endloop
  endfacet
  facet normal -0 0 -1
    outer loop
      vertex 8.36799 3.31312 -42
      vertex 7.43821 2.945 -42
      vertex 7.88676 4.33578 -42
    endloop
  endfacet
  facet normal 0 0 -1
    outer loop
      vertex 7.01045 3.85403 -42
      vertex 7.88676 4.33578 -42
      vertex 7.43821 2.945 -42
    endloop
  endfacet
  facet normal -0 0 -1
    outer loop
      vertex 7.88676 4.33578 -42
      vertex 7.01045 3.85403 -42
      vertex 7.28115 5.29007 -42
    endloop
  endfacet
  facet normal 0 0 -1
    outer loop
      vertex 6.47214 4.70228 -42
      vertex 7.28115 5.29007 -42
      vertex 7.01045 3.85403 -42
    endloop
  endfacet
  facet normal -0 0 -1
    outer loop
      vertex 7.28115 5.29007 -42
      vertex 6.47214 4.70228 -42
      vertex 6.56072 6.16092 -42
    endloop
  endfacet
  facet normal 0 0 -1
    outer loop
      vertex 5.83175 5.47638 -42
      vertex 6.56072 6.16092 -42
      vertex 6.47214 4.70228 -42
    endloop
  endfacet
  facet normal 0 0 -1
    outer loop
      vertex 5.83175 5.47638 -42
      vertex 5.73682 6.93462 -42
      vertex 6.56072 6.16092 -42
    endloop
  endfacet
  facet normal 0 0 -1
    outer loop
      vertex 5.09939 6.16411 -42
      vertex 5.73682 6.93462 -42
      vertex 5.83175 5.47638 -42
    endloop
  endfacet
  facet normal 0 0 -1
    outer loop
      vertex 5.09939 6.16411 -42
      vertex 4.82244 7.59895 -42
      vertex 5.73682 6.93462 -42
    endloop
  endfacet
  facet normal 0 0 -1
    outer loop
      vertex 4.28661 6.75462 -42
      vertex 4.82244 7.59895 -42
      vertex 5.09939 6.16411 -42
    endloop
  endfacet
  facet normal 0 0 -1
    outer loop
      vertex 4.28661 6.75462 -42
      vertex 3.83201 8.14344 -42
      vertex 4.82244 7.59895 -42
    endloop
  endfacet
  facet normal 0 0 -1
    outer loop
      vertex 3.40623 7.23862 -42
      vertex 3.83201 8.14344 -42
      vertex 4.28661 6.75462 -42
    endloop
  endfacet
  facet normal 0 0 -1
    outer loop
      vertex 3.40623 7.23862 -42
      vertex 2.78115 8.55951 -42
      vertex 3.83201 8.14344 -42
    endloop
  endfacet
  facet normal 0 0 -1
    outer loop
      vertex 2.47214 7.60845 -42
      vertex 2.78115 8.55951 -42
      vertex 3.40623 7.23862 -42
    endloop
  endfacet
  facet normal 0 0 -1
    outer loop
      vertex 2.47214 7.60845 -42
      vertex 1.68643 8.84058 -42
      vertex 2.78115 8.55951 -42
    endloop
  endfacet
  facet normal 0 0 -1
    outer loop
      vertex 1.49905 7.8583 -42
      vertex 1.68643 8.84058 -42
      vertex 2.47214 7.60845 -42
    endloop
  endfacet
  facet normal 0 0 -1
    outer loop
      vertex 1.49905 7.8583 -42
      vertex 0.565114 8.98224 -42
      vertex 1.68643 8.84058 -42
    endloop
  endfacet
  facet normal 0 0 -1
    outer loop
      vertex 0.502324 7.98421 -42
      vertex 0.565114 8.98224 -42
      vertex 1.49905 7.8583 -42
    endloop
  endfacet
  facet normal 0 0 -1
    outer loop
      vertex -0.502324 7.98421 -42
      vertex 0.565114 8.98224 -42
      vertex 0.502324 7.98421 -42
    endloop
  endfacet
  facet normal 0 0 -1
    outer loop
      vertex -0.502324 7.98421 -42
      vertex -0.565114 8.98224 -42
      vertex 0.565114 8.98224 -42
    endloop
  endfacet
  facet normal 0 0 -1
    outer loop
      vertex -1.49905 7.8583 -42
      vertex -0.565114 8.98224 -42
      vertex -0.502324 7.98421 -42
    endloop
  endfacet
  facet normal 0 0 -1
    outer loop
      vertex -1.49905 7.8583 -42
      vertex -1.68643 8.84058 -42
      vertex -0.565114 8.98224 -42
    endloop
  endfacet
  facet normal 0 0 -1
    outer loop
      vertex -2.47214 7.60845 -42
      vertex -1.68643 8.84058 -42
      vertex -1.49905 7.8583 -42
    endloop
  endfacet
  facet normal 0 0 -1
    outer loop
      vertex -2.47214 7.60845 -42
      vertex -2.78115 8.55951 -42
      vertex -1.68643 8.84058 -42
    endloop
  endfacet
  facet normal 0 0 -1
    outer loop
      vertex -3.40623 7.23862 -42
      vertex -2.78115 8.55951 -42
      vertex -2.47214 7.60845 -42
    endloop
  endfacet
  facet normal 0 0 -1
    outer loop
      vertex -3.40623 7.23862 -42
      vertex -3.83201 8.14344 -42
      vertex -2.78115 8.55951 -42
    endloop
  endfacet
  facet normal 0 0 -1
    outer loop
      vertex -4.28661 6.75462 -42
      vertex -3.83201 8.14344 -42
      vertex -3.40623 7.23862 -42
    endloop
  endfacet
  facet normal 0 0 -1
    outer loop
      vertex -4.28661 6.75462 -42
      vertex -4.82244 7.59895 -42
      vertex -3.83201 8.14344 -42
    endloop
  endfacet
  facet normal 0 0 -1
    outer loop
      vertex -5.09939 6.16411 -42
      vertex -4.82244 7.59895 -42
      vertex -4.28661 6.75462 -42
    endloop
  endfacet
  facet normal 0 0 -1
    outer loop
      vertex -5.09939 6.16411 -42
      vertex -5.73682 6.93462 -42
      vertex -4.82244 7.59895 -42
    endloop
  endfacet
  facet normal 0 0 -1
    outer loop
      vertex -5.83175 5.47638 -42
      vertex -5.73682 6.93462 -42
      vertex -5.09939 6.16411 -42
    endloop
  endfacet
  facet normal 0 0 -1
    outer loop
      vertex -6.56072 6.16092 -42
      vertex -5.83175 5.47638 -42
      vertex -6.47214 4.70228 -42
    endloop
  endfacet
  facet normal 0 0 -1
    outer loop
      vertex -5.83175 5.47638 -42
      vertex -6.56072 6.16092 -42
      vertex -5.73682 6.93462 -42
    endloop
  endfacet
  facet normal 0 0 -1
    outer loop
      vertex -7.28115 5.29007 -42
      vertex -6.47214 4.70228 -42
      vertex -7.01045 3.85403 -42
    endloop
  endfacet
  facet normal 0 0 -1
    outer loop
      vertex -6.47214 4.70228 -42
      vertex -7.28115 5.29007 -42
      vertex -6.56072 6.16092 -42
    endloop
  endfacet
  facet normal 0 0 -1
    outer loop
      vertex -7.88676 4.33578 -42
      vertex -7.01045 3.85403 -42
      vertex -7.43821 2.945 -42
    endloop
  endfacet
  facet normal 0 0 -1
    outer loop
      vertex -8.36799 3.31312 -42
      vertex -7.43821 2.945 -42
      vertex -7.74866 1.98952 -42
    endloop
  endfacet
  facet normal 0 0 -1
    outer loop
      vertex -7.01045 3.85403 -42
      vertex -7.88676 4.33578 -42
      vertex -7.28115 5.29007 -42
    endloop
  endfacet
  facet normal 0 0 -1
    outer loop
      vertex -8.71725 2.23821 -42
      vertex -7.74866 1.98952 -42
      vertex -7.93692 1.00267 -42
    endloop
  endfacet
  facet normal 0 0 -1
    outer loop
      vertex -8.92903 1.128 -42
      vertex -7.93692 1.00267 -42
      vertex -8 0 -42
    endloop
  endfacet
  facet normal 0 0 -1
    outer loop
      vertex -8.92903 -1.128 -42
      vertex -7.93692 -1.00267 -42
      vertex -8.71725 -2.23821 -42
    endloop
  endfacet
  facet normal 0 0 -1
    outer loop
      vertex -7.43821 2.945 -42
      vertex -8.36799 3.31312 -42
      vertex -7.88676 4.33578 -42
    endloop
  endfacet
  facet normal -0 0 -1
    outer loop
      vertex -7.93692 -1.00267 -42
      vertex -8.92903 -1.128 -42
      vertex -8 0 -42
    endloop
  endfacet
  facet normal 0 0 -1
    outer loop
      vertex -7.74866 1.98952 -42
      vertex -8.71725 2.23821 -42
      vertex -8.36799 3.31312 -42
    endloop
  endfacet
  facet normal 0 0 -1
    outer loop
      vertex -9 0 -42
      vertex -8 0 -42
      vertex -8.92903 -1.128 -42
    endloop
  endfacet
  facet normal 0 0 -1
    outer loop
      vertex -7.93692 1.00267 -42
      vertex -8.92903 1.128 -42
      vertex -8.71725 2.23821 -42
    endloop
  endfacet
  facet normal 0 0 -1
    outer loop
      vertex -8 0 -42
      vertex -9 0 -42
      vertex -8.92903 1.128 -42
    endloop
  endfacet
  facet normal 0.481751 -0.876308 0
    outer loop
      vertex 3.83201 -8.14344 -42
      vertex 4.82244 -7.59895 42
      vertex 3.83201 -8.14344 42
    endloop
  endfacet
  facet normal 0.481751 -0.876308 0
    outer loop
      vertex 4.82244 -7.59895 42
      vertex 3.83201 -8.14344 -42
      vertex 4.82244 -7.59895 -42
    endloop
  endfacet
  facet normal 0.68455 -0.728966 0
    outer loop
      vertex 5.73682 -6.93462 -42
      vertex 6.56072 -6.16092 42
      vertex 5.73682 -6.93462 42
    endloop
  endfacet
  facet normal 0.68455 -0.728966 0
    outer loop
      vertex 6.56072 -6.16092 42
      vertex 5.73682 -6.93462 -42
      vertex 6.56072 -6.16092 -42
    endloop
  endfacet
  facet normal 0.844328 -0.535826 0
    outer loop
      vertex 7.28115 -5.29007 42
      vertex 7.88676 -4.33578 -42
      vertex 7.88676 -4.33578 42
    endloop
  endfacet
  facet normal 0.844328 -0.535826 0
    outer loop
      vertex 7.88676 -4.33578 -42
      vertex 7.28115 -5.29007 42
      vertex 7.28115 -5.29007 -42
    endloop
  endfacet
  facet normal -0.248685 -0.968585 0
    outer loop
      vertex -2.78115 -8.55951 -42
      vertex -1.68643 -8.84058 42
      vertex -2.78115 -8.55951 42
    endloop
  endfacet
  facet normal -0.248685 -0.968585 -0
    outer loop
      vertex -1.68643 -8.84058 42
      vertex -2.78115 -8.55951 -42
      vertex -1.68643 -8.84058 -42
    endloop
  endfacet
  facet normal -0.770513 -0.637424 0
    outer loop
      vertex -6.56072 -6.16092 -42
      vertex -7.28115 -5.29007 42
      vertex -7.28115 -5.29007 -42
    endloop
  endfacet
  facet normal -0.770513 -0.637424 0
    outer loop
      vertex -7.28115 -5.29007 42
      vertex -6.56072 -6.16092 -42
      vertex -6.56072 -6.16092 42
    endloop
  endfacet
  facet normal -0.844328 -0.535826 0
    outer loop
      vertex -7.28115 -5.29007 -42
      vertex -7.88676 -4.33578 42
      vertex -7.88676 -4.33578 -42
    endloop
  endfacet
  facet normal -0.844328 -0.535826 0
    outer loop
      vertex -7.88676 -4.33578 42
      vertex -7.28115 -5.29007 -42
      vertex -7.28115 -5.29007 42
    endloop
  endfacet
  facet normal -0.951056 -0.309017 0
    outer loop
      vertex -8.36799 -3.31312 -42
      vertex -8.71725 -2.23821 42
      vertex -8.71725 -2.23821 -42
    endloop
  endfacet
  facet normal -0.951056 -0.309017 0
    outer loop
      vertex -8.71725 -2.23821 42
      vertex -8.36799 -3.31312 -42
      vertex -8.36799 -3.31312 42
    endloop
  endfacet
  facet normal 0.368128 -0.929775 0
    outer loop
      vertex 2.78115 -8.55951 -42
      vertex 3.83201 -8.14344 42
      vertex 2.78115 -8.55951 42
    endloop
  endfacet
  facet normal 0.368128 -0.929775 0
    outer loop
      vertex 3.83201 -8.14344 42
      vertex 2.78115 -8.55951 -42
      vertex 3.83201 -8.14344 -42
    endloop
  endfacet
  facet normal 0.248685 -0.968585 0
    outer loop
      vertex 1.68643 -8.84058 -42
      vertex 2.78115 -8.55951 42
      vertex 1.68643 -8.84058 42
    endloop
  endfacet
  facet normal 0.248685 -0.968585 0
    outer loop
      vertex 2.78115 -8.55951 42
      vertex 1.68643 -8.84058 -42
      vertex 2.78115 -8.55951 -42
    endloop
  endfacet
  facet normal -0.125337 -0.992114 0
    outer loop
      vertex -1.68643 -8.84058 -42
      vertex -0.565114 -8.98224 42
      vertex -1.68643 -8.84058 42
    endloop
  endfacet
  facet normal -0.125337 -0.992114 -0
    outer loop
      vertex -0.565114 -8.98224 42
      vertex -1.68643 -8.84058 -42
      vertex -0.565114 -8.98224 -42
    endloop
  endfacet
  facet normal -0.368128 -0.929775 0
    outer loop
      vertex -3.83201 -8.14344 -42
      vertex -2.78115 -8.55951 42
      vertex -3.83201 -8.14344 42
    endloop
  endfacet
  facet normal -0.368128 -0.929775 -0
    outer loop
      vertex -2.78115 -8.55951 42
      vertex -3.83201 -8.14344 -42
      vertex -2.78115 -8.55951 -42
    endloop
  endfacet
  facet normal -0.68455 -0.728966 0
    outer loop
      vertex -6.56072 -6.16092 -42
      vertex -5.73682 -6.93462 42
      vertex -6.56072 -6.16092 42
    endloop
  endfacet
  facet normal -0.68455 -0.728966 -0
    outer loop
      vertex -5.73682 -6.93462 42
      vertex -6.56072 -6.16092 -42
      vertex -5.73682 -6.93462 -42
    endloop
  endfacet
  facet normal -0.904826 -0.425781 0
    outer loop
      vertex -7.88676 -4.33578 -42
      vertex -8.36799 -3.31312 42
      vertex -8.36799 -3.31312 -42
    endloop
  endfacet
  facet normal -0.904826 -0.425781 0
    outer loop
      vertex -8.36799 -3.31312 42
      vertex -7.88676 -4.33578 -42
      vertex -7.88676 -4.33578 42
    endloop
  endfacet
  facet normal -0.982288 -0.187378 0
    outer loop
      vertex -8.71725 -2.23821 -42
      vertex -8.92903 -1.128 42
      vertex -8.92903 -1.128 -42
    endloop
  endfacet
  facet normal -0.982288 -0.187378 0
    outer loop
      vertex -8.92903 -1.128 42
      vertex -8.71725 -2.23821 -42
      vertex -8.71725 -2.23821 42
    endloop
  endfacet
  facet normal -0.998027 -0.0627925 0
    outer loop
      vertex -8.92903 -1.128 -42
      vertex -9 0 42
      vertex -9 0 -42
    endloop
  endfacet
  facet normal -0.998027 -0.0627925 0
    outer loop
      vertex -9 0 42
      vertex -8.92903 -1.128 -42
      vertex -8.92903 -1.128 42
    endloop
  endfacet
  facet normal 0.587782 -0.80902 0
    outer loop
      vertex 4.82244 -7.59895 -42
      vertex 5.73682 -6.93462 42
      vertex 4.82244 -7.59895 42
    endloop
  endfacet
  facet normal 0.587782 -0.80902 0
    outer loop
      vertex 5.73682 -6.93462 42
      vertex 4.82244 -7.59895 -42
      vertex 5.73682 -6.93462 -42
    endloop
  endfacet
  facet normal -0.481751 -0.876308 0
    outer loop
      vertex -4.82244 -7.59895 -42
      vertex -3.83201 -8.14344 42
      vertex -4.82244 -7.59895 42
    endloop
  endfacet
  facet normal -0.481751 -0.876308 -0
    outer loop
      vertex -3.83201 -8.14344 42
      vertex -4.82244 -7.59895 -42
      vertex -3.83201 -8.14344 -42
    endloop
  endfacet
  facet normal -0.587782 -0.80902 0
    outer loop
      vertex -5.73682 -6.93462 -42
      vertex -4.82244 -7.59895 42
      vertex -5.73682 -6.93462 42
    endloop
  endfacet
  facet normal -0.587782 -0.80902 -0
    outer loop
      vertex -4.82244 -7.59895 42
      vertex -5.73682 -6.93462 -42
      vertex -4.82244 -7.59895 -42
    endloop
  endfacet
  facet normal -0.904826 -0.425782 0
    outer loop
      vertex 7.43821 2.945 -42
      vertex 7.01045 3.85403 42
      vertex 7.01045 3.85403 -42
    endloop
  endfacet
  facet normal -0.904826 -0.425782 0
    outer loop
      vertex 7.01045 3.85403 42
      vertex 7.43821 2.945 -42
      vertex 7.43821 2.945 42
    endloop
  endfacet
  facet normal -0.844331 -0.535823 0
    outer loop
      vertex 7.01045 3.85403 -42
      vertex 6.47214 4.70228 42
      vertex 6.47214 4.70228 -42
    endloop
  endfacet
  facet normal -0.844331 -0.535823 0
    outer loop
      vertex 6.47214 4.70228 42
      vertex 7.01045 3.85403 -42
      vertex 7.01045 3.85403 42
    endloop
  endfacet
  facet normal -0.248693 -0.968582 0
    outer loop
      vertex 1.49905 7.8583 -42
      vertex 2.47214 7.60845 42
      vertex 1.49905 7.8583 42
    endloop
  endfacet
  facet normal -0.248693 -0.968582 -0
    outer loop
      vertex 2.47214 7.60845 42
      vertex 1.49905 7.8583 -42
      vertex 2.47214 7.60845 -42
    endloop
  endfacet
  facet normal -0.368122 -0.929777 0
    outer loop
      vertex 2.47214 7.60845 -42
      vertex 3.40623 7.23862 42
      vertex 2.47214 7.60845 42
    endloop
  endfacet
  facet normal -0.368122 -0.929777 -0
    outer loop
      vertex 3.40623 7.23862 42
      vertex 2.47214 7.60845 -42
      vertex 3.40623 7.23862 -42
    endloop
  endfacet
  facet normal 0.368122 -0.929777 0
    outer loop
      vertex -3.40623 7.23862 -42
      vertex -2.47214 7.60845 42
      vertex -3.40623 7.23862 42
    endloop
  endfacet
  facet normal 0.368122 -0.929777 0
    outer loop
      vertex -2.47214 7.60845 42
      vertex -3.40623 7.23862 -42
      vertex -2.47214 7.60845 -42
    endloop
  endfacet
  facet normal 0.904826 -0.425782 0
    outer loop
      vertex -7.43821 2.945 42
      vertex -7.01045 3.85403 -42
      vertex -7.01045 3.85403 42
    endloop
  endfacet
  facet normal 0.904826 -0.425782 0
    outer loop
      vertex -7.01045 3.85403 -42
      vertex -7.43821 2.945 42
      vertex -7.43821 2.945 -42
    endloop
  endfacet
  facet normal -0.998027 0.0627879 0
    outer loop
      vertex 7.93692 -1.00267 -42
      vertex 8 0 42
      vertex 8 0 -42
    endloop
  endfacet
  facet normal -0.998027 0.0627879 0
    outer loop
      vertex 8 0 42
      vertex 7.93692 -1.00267 -42
      vertex 7.93692 -1.00267 42
    endloop
  endfacet
  facet normal -0.684546 -0.72897 0
    outer loop
      vertex 5.09939 6.16411 -42
      vertex 5.83175 5.47638 42
      vertex 5.09939 6.16411 42
    endloop
  endfacet
  facet normal -0.684546 -0.72897 -0
    outer loop
      vertex 5.83175 5.47638 42
      vertex 5.09939 6.16411 -42
      vertex 5.83175 5.47638 -42
    endloop
  endfacet
  facet normal -0.481759 -0.876304 0
    outer loop
      vertex 3.40623 7.23862 -42
      vertex 4.28661 6.75462 42
      vertex 3.40623 7.23862 42
    endloop
  endfacet
  facet normal -0.481759 -0.876304 -0
    outer loop
      vertex 4.28661 6.75462 42
      vertex 3.40623 7.23862 -42
      vertex 4.28661 6.75462 -42
    endloop
  endfacet
  facet normal 0.998027 -0.0627879 0
    outer loop
      vertex -8 0 42
      vertex -7.93692 1.00267 -42
      vertex -7.93692 1.00267 42
    endloop
  endfacet
  facet normal 0.998027 -0.0627879 0
    outer loop
      vertex -7.93692 1.00267 -42
      vertex -8 0 42
      vertex -8 0 -42
    endloop
  endfacet
  facet normal 0.770514 -0.637423 0
    outer loop
      vertex -6.47214 4.70228 42
      vertex -5.83175 5.47638 -42
      vertex -5.83175 5.47638 42
    endloop
  endfacet
  facet normal 0.770514 -0.637423 0
    outer loop
      vertex -5.83175 5.47638 -42
      vertex -6.47214 4.70228 42
      vertex -6.47214 4.70228 -42
    endloop
  endfacet
  facet normal 0.248693 -0.968582 0
    outer loop
      vertex -2.47214 7.60845 -42
      vertex -1.49905 7.8583 42
      vertex -2.47214 7.60845 42
    endloop
  endfacet
  facet normal 0.248693 -0.968582 0
    outer loop
      vertex -1.49905 7.8583 42
      vertex -2.47214 7.60845 -42
      vertex -1.49905 7.8583 -42
    endloop
  endfacet
  facet normal 0.684546 -0.72897 0
    outer loop
      vertex -5.83175 5.47638 -42
      vertex -5.09939 6.16411 42
      vertex -5.83175 5.47638 42
    endloop
  endfacet
  facet normal 0.684546 -0.72897 0
    outer loop
      vertex -5.09939 6.16411 42
      vertex -5.83175 5.47638 -42
      vertex -5.09939 6.16411 -42
    endloop
  endfacet
  facet normal -0.904826 0.425782 0
    outer loop
      vertex 7.01045 -3.85403 -42
      vertex 7.43821 -2.945 42
      vertex 7.43821 -2.945 -42
    endloop
  endfacet
  facet normal -0.904826 0.425782 0
    outer loop
      vertex 7.43821 -2.945 42
      vertex 7.01045 -3.85403 -42
      vertex 7.01045 -3.85403 42
    endloop
  endfacet
  facet normal 0.684546 0.72897 -0
    outer loop
      vertex -5.09939 -6.16411 -42
      vertex -5.83175 -5.47638 42
      vertex -5.09939 -6.16411 42
    endloop
  endfacet
  facet normal 0.684546 0.72897 0
    outer loop
      vertex -5.83175 -5.47638 42
      vertex -5.09939 -6.16411 -42
      vertex -5.83175 -5.47638 -42
    endloop
  endfacet
  facet normal 0.904826 0.425782 0
    outer loop
      vertex -7.01045 -3.85403 42
      vertex -7.43821 -2.945 -42
      vertex -7.43821 -2.945 42
    endloop
  endfacet
  facet normal 0.904826 0.425782 0
    outer loop
      vertex -7.43821 -2.945 -42
      vertex -7.01045 -3.85403 42
      vertex -7.01045 -3.85403 -42
    endloop
  endfacet
  facet normal -0.481759 0.876304 0
    outer loop
      vertex 4.28661 -6.75462 -42
      vertex 3.40623 -7.23862 42
      vertex 4.28661 -6.75462 42
    endloop
  endfacet
  facet normal -0.481759 0.876304 0
    outer loop
      vertex 3.40623 -7.23862 42
      vertex 4.28661 -6.75462 -42
      vertex 3.40623 -7.23862 -42
    endloop
  endfacet
  facet normal -0.951058 -0.309013 0
    outer loop
      vertex 7.74866 1.98952 -42
      vertex 7.43821 2.945 42
      vertex 7.43821 2.945 -42
    endloop
  endfacet
  facet normal -0.951058 -0.309013 0
    outer loop
      vertex 7.43821 2.945 42
      vertex 7.74866 1.98952 -42
      vertex 7.74866 1.98952 42
    endloop
  endfacet
  facet normal -0.770514 -0.637423 0
    outer loop
      vertex 6.47214 4.70228 -42
      vertex 5.83175 5.47638 42
      vertex 5.83175 5.47638 -42
    endloop
  endfacet
  facet normal -0.770514 -0.637423 0
    outer loop
      vertex 5.83175 5.47638 42
      vertex 6.47214 4.70228 -42
      vertex 6.47214 4.70228 42
    endloop
  endfacet
  facet normal 0 -1 0
    outer loop
      vertex -0.502324 7.98421 -42
      vertex 0.502324 7.98421 42
      vertex -0.502324 7.98421 42
    endloop
  endfacet
  facet normal 0 -1 -0
    outer loop
      vertex 0.502324 7.98421 42
      vertex -0.502324 7.98421 -42
      vertex 0.502324 7.98421 -42
    endloop
  endfacet
  facet normal -0.587779 -0.809021 0
    outer loop
      vertex 4.28661 6.75462 -42
      vertex 5.09939 6.16411 42
      vertex 4.28661 6.75462 42
    endloop
  endfacet
  facet normal -0.587779 -0.809021 -0
    outer loop
      vertex 5.09939 6.16411 42
      vertex 4.28661 6.75462 -42
      vertex 5.09939 6.16411 -42
    endloop
  endfacet
  facet normal 0.951058 -0.309013 0
    outer loop
      vertex -7.74866 1.98952 42
      vertex -7.43821 2.945 -42
      vertex -7.43821 2.945 42
    endloop
  endfacet
  facet normal 0.951058 -0.309013 0
    outer loop
      vertex -7.43821 2.945 -42
      vertex -7.74866 1.98952 42
      vertex -7.74866 1.98952 -42
    endloop
  endfacet
  facet normal 0.982286 -0.187389 0
    outer loop
      vertex -7.93692 1.00267 42
      vertex -7.74866 1.98952 -42
      vertex -7.74866 1.98952 42
    endloop
  endfacet
  facet normal 0.982286 -0.187389 0
    outer loop
      vertex -7.74866 1.98952 -42
      vertex -7.93692 1.00267 42
      vertex -7.93692 1.00267 -42
    endloop
  endfacet
  facet normal 0.844331 -0.535823 0
    outer loop
      vertex -7.01045 3.85403 42
      vertex -6.47214 4.70228 -42
      vertex -6.47214 4.70228 42
    endloop
  endfacet
  facet normal 0.844331 -0.535823 0
    outer loop
      vertex -6.47214 4.70228 -42
      vertex -7.01045 3.85403 42
      vertex -7.01045 3.85403 -42
    endloop
  endfacet
  facet normal 0.125328 -0.992115 0
    outer loop
      vertex -1.49905 7.8583 -42
      vertex -0.502324 7.98421 42
      vertex -1.49905 7.8583 42
    endloop
  endfacet
  facet normal 0.125328 -0.992115 0
    outer loop
      vertex -0.502324 7.98421 42
      vertex -1.49905 7.8583 -42
      vertex -0.502324 7.98421 -42
    endloop
  endfacet
  facet normal 0.587779 -0.809021 0
    outer loop
      vertex -5.09939 6.16411 -42
      vertex -4.28661 6.75462 42
      vertex -5.09939 6.16411 42
    endloop
  endfacet
  facet normal 0.587779 -0.809021 0
    outer loop
      vertex -4.28661 6.75462 42
      vertex -5.09939 6.16411 -42
      vertex -4.28661 6.75462 -42
    endloop
  endfacet
  facet normal 0.481759 -0.876304 0
    outer loop
      vertex -4.28661 6.75462 -42
      vertex -3.40623 7.23862 42
      vertex -4.28661 6.75462 42
    endloop
  endfacet
  facet normal 0.481759 -0.876304 0
    outer loop
      vertex -3.40623 7.23862 42
      vertex -4.28661 6.75462 -42
      vertex -3.40623 7.23862 -42
    endloop
  endfacet
  facet normal -0.998027 -0.0627879 0
    outer loop
      vertex 8 0 -42
      vertex 7.93692 1.00267 42
      vertex 7.93692 1.00267 -42
    endloop
  endfacet
  facet normal -0.998027 -0.0627879 0
    outer loop
      vertex 7.93692 1.00267 42
      vertex 8 0 -42
      vertex 8 0 42
    endloop
  endfacet
  facet normal -0.951058 0.309013 0
    outer loop
      vertex 7.43821 -2.945 -42
      vertex 7.74866 -1.98952 42
      vertex 7.74866 -1.98952 -42
    endloop
  endfacet
  facet normal -0.951058 0.309013 0
    outer loop
      vertex 7.74866 -1.98952 42
      vertex 7.43821 -2.945 -42
      vertex 7.43821 -2.945 42
    endloop
  endfacet
  facet normal -0.770514 0.637423 0
    outer loop
      vertex 5.83175 -5.47638 -42
      vertex 6.47214 -4.70228 42
      vertex 6.47214 -4.70228 -42
    endloop
  endfacet
  facet normal -0.770514 0.637423 0
    outer loop
      vertex 6.47214 -4.70228 42
      vertex 5.83175 -5.47638 -42
      vertex 5.83175 -5.47638 42
    endloop
  endfacet
  facet normal 0 1 -0
    outer loop
      vertex 0.502324 -7.98421 -42
      vertex -0.502324 -7.98421 42
      vertex 0.502324 -7.98421 42
    endloop
  endfacet
  facet normal 0 1 0
    outer loop
      vertex -0.502324 -7.98421 42
      vertex 0.502324 -7.98421 -42
      vertex -0.502324 -7.98421 -42
    endloop
  endfacet
  facet normal 0.998027 0.0627879 0
    outer loop
      vertex -7.93692 -1.00267 42
      vertex -8 0 -42
      vertex -8 0 42
    endloop
  endfacet
  facet normal 0.998027 0.0627879 0
    outer loop
      vertex -8 0 -42
      vertex -7.93692 -1.00267 42
      vertex -7.93692 -1.00267 -42
    endloop
  endfacet
  facet normal 0.770514 0.637423 0
    outer loop
      vertex -5.83175 -5.47638 42
      vertex -6.47214 -4.70228 -42
      vertex -6.47214 -4.70228 42
    endloop
  endfacet
  facet normal 0.770514 0.637423 0
    outer loop
      vertex -6.47214 -4.70228 -42
      vertex -5.83175 -5.47638 42
      vertex -5.83175 -5.47638 -42
    endloop
  endfacet
  facet normal -0.125328 0.992115 0
    outer loop
      vertex 1.49905 -7.8583 -42
      vertex 0.502324 -7.98421 42
      vertex 1.49905 -7.8583 42
    endloop
  endfacet
  facet normal -0.125328 0.992115 0
    outer loop
      vertex 0.502324 -7.98421 42
      vertex 1.49905 -7.8583 -42
      vertex 0.502324 -7.98421 -42
    endloop
  endfacet
  facet normal -0.982286 -0.187389 0
    outer loop
      vertex 7.93692 1.00267 -42
      vertex 7.74866 1.98952 42
      vertex 7.74866 1.98952 -42
    endloop
  endfacet
  facet normal -0.982286 -0.187389 0
    outer loop
      vertex 7.74866 1.98952 42
      vertex 7.93692 1.00267 -42
      vertex 7.93692 1.00267 42
    endloop
  endfacet
  facet normal -0.125328 -0.992115 0
    outer loop
      vertex 0.502324 7.98421 -42
      vertex 1.49905 7.8583 42
      vertex 0.502324 7.98421 42
    endloop
  endfacet
  facet normal -0.125328 -0.992115 -0
    outer loop
      vertex 1.49905 7.8583 42
      vertex 0.502324 7.98421 -42
      vertex 1.49905 7.8583 -42
    endloop
  endfacet
  facet normal -0.844331 0.535823 0
    outer loop
      vertex 6.47214 -4.70228 -42
      vertex 7.01045 -3.85403 42
      vertex 7.01045 -3.85403 -42
    endloop
  endfacet
  facet normal -0.844331 0.535823 0
    outer loop
      vertex 7.01045 -3.85403 42
      vertex 6.47214 -4.70228 -42
      vertex 6.47214 -4.70228 42
    endloop
  endfacet
  facet normal 0.248693 0.968582 -0
    outer loop
      vertex -1.49905 -7.8583 -42
      vertex -2.47214 -7.60845 42
      vertex -1.49905 -7.8583 42
    endloop
  endfacet
  facet normal 0.248693 0.968582 0
    outer loop
      vertex -2.47214 -7.60845 42
      vertex -1.49905 -7.8583 -42
      vertex -2.47214 -7.60845 -42
    endloop
  endfacet
  facet normal 0.951058 0.309013 0
    outer loop
      vertex -7.43821 -2.945 42
      vertex -7.74866 -1.98952 -42
      vertex -7.74866 -1.98952 42
    endloop
  endfacet
  facet normal 0.951058 0.309013 0
    outer loop
      vertex -7.74866 -1.98952 -42
      vertex -7.43821 -2.945 42
      vertex -7.43821 -2.945 -42
    endloop
  endfacet
  facet normal 0.982286 0.187389 0
    outer loop
      vertex -7.74866 -1.98952 42
      vertex -7.93692 -1.00267 -42
      vertex -7.93692 -1.00267 42
    endloop
  endfacet
  facet normal 0.982286 0.187389 0
    outer loop
      vertex -7.93692 -1.00267 -42
      vertex -7.74866 -1.98952 42
      vertex -7.74866 -1.98952 -42
    endloop
  endfacet
  facet normal -0.368122 0.929777 0
    outer loop
      vertex 3.40623 -7.23862 -42
      vertex 2.47214 -7.60845 42
      vertex 3.40623 -7.23862 42
    endloop
  endfacet
  facet normal -0.368122 0.929777 0
    outer loop
      vertex 2.47214 -7.60845 42
      vertex 3.40623 -7.23862 -42
      vertex 2.47214 -7.60845 -42
    endloop
  endfacet
  facet normal -0.248693 0.968582 0
    outer loop
      vertex 2.47214 -7.60845 -42
      vertex 1.49905 -7.8583 42
      vertex 2.47214 -7.60845 42
    endloop
  endfacet
  facet normal -0.248693 0.968582 0
    outer loop
      vertex 1.49905 -7.8583 42
      vertex 2.47214 -7.60845 -42
      vertex 1.49905 -7.8583 -42
    endloop
  endfacet
  facet normal -0.684546 0.72897 0
    outer loop
      vertex 5.83175 -5.47638 -42
      vertex 5.09939 -6.16411 42
      vertex 5.83175 -5.47638 42
    endloop
  endfacet
  facet normal -0.684546 0.72897 0
    outer loop
      vertex 5.09939 -6.16411 42
      vertex 5.83175 -5.47638 -42
      vertex 5.09939 -6.16411 -42
    endloop
  endfacet
  facet normal -0.982286 0.187389 0
    outer loop
      vertex 7.74866 -1.98952 -42
      vertex 7.93692 -1.00267 42
      vertex 7.93692 -1.00267 -42
    endloop
  endfacet
  facet normal -0.982286 0.187389 0
    outer loop
      vertex 7.93692 -1.00267 42
      vertex 7.74866 -1.98952 -42
      vertex 7.74866 -1.98952 42
    endloop
  endfacet
  facet normal 0.125328 0.992115 -0
    outer loop
      vertex -0.502324 -7.98421 -42
      vertex -1.49905 -7.8583 42
      vertex -0.502324 -7.98421 42
    endloop
  endfacet
  facet normal 0.125328 0.992115 0
    outer loop
      vertex -1.49905 -7.8583 42
      vertex -0.502324 -7.98421 -42
      vertex -1.49905 -7.8583 -42
    endloop
  endfacet
  facet normal 0.481759 0.876304 -0
    outer loop
      vertex -3.40623 -7.23862 -42
      vertex -4.28661 -6.75462 42
      vertex -3.40623 -7.23862 42
    endloop
  endfacet
  facet normal 0.481759 0.876304 0
    outer loop
      vertex -4.28661 -6.75462 42
      vertex -3.40623 -7.23862 -42
      vertex -4.28661 -6.75462 -42
    endloop
  endfacet
  facet normal 0.844331 0.535823 0
    outer loop
      vertex -6.47214 -4.70228 42
      vertex -7.01045 -3.85403 -42
      vertex -7.01045 -3.85403 42
    endloop
  endfacet
  facet normal 0.844331 0.535823 0
    outer loop
      vertex -7.01045 -3.85403 -42
      vertex -6.47214 -4.70228 42
      vertex -6.47214 -4.70228 -42
    endloop
  endfacet
  facet normal -0.587779 0.809021 0
    outer loop
      vertex 5.09939 -6.16411 -42
      vertex 4.28661 -6.75462 42
      vertex 5.09939 -6.16411 42
    endloop
  endfacet
  facet normal -0.587779 0.809021 0
    outer loop
      vertex 4.28661 -6.75462 42
      vertex 5.09939 -6.16411 -42
      vertex 4.28661 -6.75462 -42
    endloop
  endfacet
  facet normal 0.587779 0.809021 -0
    outer loop
      vertex -4.28661 -6.75462 -42
      vertex -5.09939 -6.16411 42
      vertex -4.28661 -6.75462 42
    endloop
  endfacet
  facet normal 0.587779 0.809021 0
    outer loop
      vertex -5.09939 -6.16411 42
      vertex -4.28661 -6.75462 -42
      vertex -5.09939 -6.16411 -42
    endloop
  endfacet
  facet normal 0.368122 0.929777 -0
    outer loop
      vertex -2.47214 -7.60845 -42
      vertex -3.40623 -7.23862 42
      vertex -2.47214 -7.60845 42
    endloop
  endfacet
  facet normal 0.368122 0.929777 0
    outer loop
      vertex -3.40623 -7.23862 42
      vertex -2.47214 -7.60845 -42
      vertex -3.40623 -7.23862 -42
    endloop
  endfacet
endsolid OpenSCAD_Model
