solid OpenSCAD_Model
  facet normal 0.998027 0.062794 0
    outer loop
      vertex 14 0 16.5
      vertex 13.8896 1.75466 -16.5
      vertex 13.8896 1.75466 16.5
    endloop
  endfacet
  facet normal 0.998027 0.062794 0
    outer loop
      vertex 13.8896 1.75466 -16.5
      vertex 14 0 16.5
      vertex 14 0 -16.5
    endloop
  endfacet
  facet normal -0.998027 0.062794 0
    outer loop
      vertex -14 0 -16.5
      vertex -13.8896 1.75466 16.5
      vertex -13.8896 1.75466 -16.5
    endloop
  endfacet
  facet normal -0.998027 0.062794 0
    outer loop
      vertex -13.8896 1.75466 16.5
      vertex -14 0 -16.5
      vertex -14 0 16.5
    endloop
  endfacet
  facet normal 0 1 -0
    outer loop
      vertex 0.879066 13.9724 -16.5
      vertex -0.879066 13.9724 16.5
      vertex 0.879066 13.9724 16.5
    endloop
  endfacet
  facet normal 0 1 0
    outer loop
      vertex -0.879066 13.9724 16.5
      vertex 0.879066 13.9724 -16.5
      vertex -0.879066 13.9724 -16.5
    endloop
  endfacet
  facet normal 0 -1 0
    outer loop
      vertex -0.879066 -13.9724 -16.5
      vertex 0.879066 -13.9724 16.5
      vertex -0.879066 -13.9724 16.5
    endloop
  endfacet
  facet normal 0 -1 -0
    outer loop
      vertex 0.879066 -13.9724 16.5
      vertex -0.879066 -13.9724 -16.5
      vertex 0.879066 -13.9724 -16.5
    endloop
  endfacet
  facet normal 0.684539 0.728977 -0
    outer loop
      vertex 10.2056 9.58366 -16.5
      vertex 8.92393 10.7872 16.5
      vertex 10.2056 9.58366 16.5
    endloop
  endfacet
  facet normal 0.684539 0.728977 0
    outer loop
      vertex 8.92393 10.7872 16.5
      vertex 10.2056 9.58366 -16.5
      vertex 8.92393 10.7872 -16.5
    endloop
  endfacet
  facet normal -0.684539 0.728977 0
    outer loop
      vertex -8.92393 10.7872 -16.5
      vertex -10.2056 9.58366 16.5
      vertex -8.92393 10.7872 16.5
    endloop
  endfacet
  facet normal -0.684539 0.728977 0
    outer loop
      vertex -10.2056 9.58366 16.5
      vertex -8.92393 10.7872 -16.5
      vertex -10.2056 9.58366 -16.5
    endloop
  endfacet
  facet normal -0.368119 0.929779 0
    outer loop
      vertex -4.32624 13.3148 -16.5
      vertex -5.96091 12.6676 16.5
      vertex -4.32624 13.3148 16.5
    endloop
  endfacet
  facet normal -0.368119 0.929779 0
    outer loop
      vertex -5.96091 12.6676 16.5
      vertex -4.32624 13.3148 -16.5
      vertex -5.96091 12.6676 -16.5
    endloop
  endfacet
  facet normal 0.904822 -0.425789 0
    outer loop
      vertex 12.2683 -6.74455 16.5
      vertex 13.0169 -5.15374 -16.5
      vertex 13.0169 -5.15374 16.5
    endloop
  endfacet
  facet normal 0.904822 -0.425789 0
    outer loop
      vertex 13.0169 -5.15374 -16.5
      vertex 12.2683 -6.74455 16.5
      vertex 12.2683 -6.74455 -16.5
    endloop
  endfacet
  facet normal 0.904822 0.425789 0
    outer loop
      vertex 13.0169 5.15374 16.5
      vertex 12.2683 6.74455 -16.5
      vertex 12.2683 6.74455 16.5
    endloop
  endfacet
  facet normal 0.904822 0.425789 0
    outer loop
      vertex 12.2683 6.74455 -16.5
      vertex 13.0169 5.15374 16.5
      vertex 13.0169 5.15374 -16.5
    endloop
  endfacet
  facet normal 0.368119 0.929779 -0
    outer loop
      vertex 5.96091 12.6676 -16.5
      vertex 4.32624 13.3148 16.5
      vertex 5.96091 12.6676 16.5
    endloop
  endfacet
  facet normal 0.368119 0.929779 0
    outer loop
      vertex 4.32624 13.3148 16.5
      vertex 5.96091 12.6676 -16.5
      vertex 4.32624 13.3148 -16.5
    endloop
  endfacet
  facet normal 0.48176 0.876303 -0
    outer loop
      vertex 7.50157 11.8206 -16.5
      vertex 5.96091 12.6676 16.5
      vertex 7.50157 11.8206 16.5
    endloop
  endfacet
  facet normal 0.48176 0.876303 0
    outer loop
      vertex 5.96091 12.6676 16.5
      vertex 7.50157 11.8206 -16.5
      vertex 5.96091 12.6676 -16.5
    endloop
  endfacet
  facet normal -0.904822 0.425789 0
    outer loop
      vertex -13.0169 5.15374 -16.5
      vertex -12.2683 6.74455 16.5
      vertex -12.2683 6.74455 -16.5
    endloop
  endfacet
  facet normal -0.904822 0.425789 0
    outer loop
      vertex -12.2683 6.74455 16.5
      vertex -13.0169 5.15374 -16.5
      vertex -13.0169 5.15374 16.5
    endloop
  endfacet
  facet normal -0.770536 0.637397 0
    outer loop
      vertex -11.3262 8.22899 -16.5
      vertex -10.2056 9.58366 16.5
      vertex -10.2056 9.58366 -16.5
    endloop
  endfacet
  facet normal -0.770536 0.637397 0
    outer loop
      vertex -10.2056 9.58366 16.5
      vertex -11.3262 8.22899 -16.5
      vertex -11.3262 8.22899 16.5
    endloop
  endfacet
  facet normal 0 0 1
    outer loop
      vertex 4 0 16.5
      vertex 14 0 16.5
      vertex 13.8896 1.75466 16.5
    endloop
  endfacet
  facet normal 0 0 1
    outer loop
      vertex 3.96846 0.501332 16.5
      vertex 13.8896 1.75466 16.5
      vertex 13.5602 3.48166 16.5
    endloop
  endfacet
  facet normal 0 0 1
    outer loop
      vertex 14 0 16.5
      vertex 4 0 16.5
      vertex 13.8896 -1.75466 16.5
    endloop
  endfacet
  facet normal 0 0 1
    outer loop
      vertex 3.87433 0.994759 16.5
      vertex 13.5602 3.48166 16.5
      vertex 13.0169 5.15374 16.5
    endloop
  endfacet
  facet normal -0 0 1
    outer loop
      vertex 3.96846 -0.501332 16.5
      vertex 13.8896 -1.75466 16.5
      vertex 4 0 16.5
    endloop
  endfacet
  facet normal 0 0 1
    outer loop
      vertex 3.71911 1.4725 16.5
      vertex 13.0169 5.15374 16.5
      vertex 12.2683 6.74455 16.5
    endloop
  endfacet
  facet normal 0 0 1
    outer loop
      vertex 13.8896 -1.75466 16.5
      vertex 3.96846 -0.501332 16.5
      vertex 13.5602 -3.48166 16.5
    endloop
  endfacet
  facet normal 0 0 1
    outer loop
      vertex 3.50523 1.92701 16.5
      vertex 12.2683 6.74455 16.5
      vertex 11.3262 8.22899 16.5
    endloop
  endfacet
  facet normal -0 0 1
    outer loop
      vertex 3.87433 -0.994759 16.5
      vertex 13.5602 -3.48166 16.5
      vertex 3.96846 -0.501332 16.5
    endloop
  endfacet
  facet normal 0 0 1
    outer loop
      vertex 3.23607 2.35114 16.5
      vertex 11.3262 8.22899 16.5
      vertex 10.2056 9.58366 16.5
    endloop
  endfacet
  facet normal 0 0 1
    outer loop
      vertex 13.5602 -3.48166 16.5
      vertex 3.87433 -0.994759 16.5
      vertex 13.0169 -5.15374 16.5
    endloop
  endfacet
  facet normal 0 0 1
    outer loop
      vertex 2.91587 2.73819 16.5
      vertex 10.2056 9.58366 16.5
      vertex 8.92393 10.7872 16.5
    endloop
  endfacet
  facet normal -0 0 1
    outer loop
      vertex 3.71911 -1.4725 16.5
      vertex 13.0169 -5.15374 16.5
      vertex 3.87433 -0.994759 16.5
    endloop
  endfacet
  facet normal 0 0 1
    outer loop
      vertex 2.5497 3.08205 16.5
      vertex 8.92393 10.7872 16.5
      vertex 7.50157 11.8206 16.5
    endloop
  endfacet
  facet normal 0 0 1
    outer loop
      vertex 13.0169 -5.15374 16.5
      vertex 3.71911 -1.4725 16.5
      vertex 12.2683 -6.74455 16.5
    endloop
  endfacet
  facet normal 0 0 1
    outer loop
      vertex 2.14331 3.37731 16.5
      vertex 7.50157 11.8206 16.5
      vertex 5.96091 12.6676 16.5
    endloop
  endfacet
  facet normal -0 0 1
    outer loop
      vertex 3.50523 -1.92701 16.5
      vertex 12.2683 -6.74455 16.5
      vertex 3.71911 -1.4725 16.5
    endloop
  endfacet
  facet normal 0 0 1
    outer loop
      vertex 1.70312 3.61931 16.5
      vertex 5.96091 12.6676 16.5
      vertex 4.32624 13.3148 16.5
    endloop
  endfacet
  facet normal 0 0 1
    outer loop
      vertex 12.2683 -6.74455 16.5
      vertex 3.50523 -1.92701 16.5
      vertex 11.3262 -8.22899 16.5
    endloop
  endfacet
  facet normal -0 0 1
    outer loop
      vertex 3.23607 -2.35114 16.5
      vertex 11.3262 -8.22899 16.5
      vertex 3.50523 -1.92701 16.5
    endloop
  endfacet
  facet normal 0 0 1
    outer loop
      vertex 13.8896 1.75466 16.5
      vertex 3.96846 0.501332 16.5
      vertex 4 0 16.5
    endloop
  endfacet
  facet normal 0 0 1
    outer loop
      vertex 13.5602 3.48166 16.5
      vertex 3.87433 0.994759 16.5
      vertex 3.96846 0.501332 16.5
    endloop
  endfacet
  facet normal 0 0 1
    outer loop
      vertex 13.0169 5.15374 16.5
      vertex 3.71911 1.4725 16.5
      vertex 3.87433 0.994759 16.5
    endloop
  endfacet
  facet normal 0 0 1
    outer loop
      vertex 12.2683 6.74455 16.5
      vertex 3.50523 1.92701 16.5
      vertex 3.71911 1.4725 16.5
    endloop
  endfacet
  facet normal 0 0 1
    outer loop
      vertex 11.3262 8.22899 16.5
      vertex 3.23607 2.35114 16.5
      vertex 3.50523 1.92701 16.5
    endloop
  endfacet
  facet normal 0 0 1
    outer loop
      vertex 10.2056 9.58366 16.5
      vertex 2.91587 2.73819 16.5
      vertex 3.23607 2.35114 16.5
    endloop
  endfacet
  facet normal 0 0 1
    outer loop
      vertex 1.23607 3.80423 16.5
      vertex 4.32624 13.3148 16.5
      vertex 2.62334 13.752 16.5
    endloop
  endfacet
  facet normal 0 0 1
    outer loop
      vertex 8.92393 10.7872 16.5
      vertex 2.5497 3.08205 16.5
      vertex 2.91587 2.73819 16.5
    endloop
  endfacet
  facet normal 0 0 1
    outer loop
      vertex 7.50157 11.8206 16.5
      vertex 2.14331 3.37731 16.5
      vertex 2.5497 3.08205 16.5
    endloop
  endfacet
  facet normal 0 0 1
    outer loop
      vertex 5.96091 12.6676 16.5
      vertex 1.70312 3.61931 16.5
      vertex 2.14331 3.37731 16.5
    endloop
  endfacet
  facet normal 0 0 1
    outer loop
      vertex 4.32624 13.3148 16.5
      vertex 1.23607 3.80423 16.5
      vertex 1.70312 3.61931 16.5
    endloop
  endfacet
  facet normal 0 0 1
    outer loop
      vertex 0.749525 3.92915 16.5
      vertex 2.62334 13.752 16.5
      vertex 0.879066 13.9724 16.5
    endloop
  endfacet
  facet normal 0 0 1
    outer loop
      vertex 2.62334 13.752 16.5
      vertex 0.749525 3.92915 16.5
      vertex 1.23607 3.80423 16.5
    endloop
  endfacet
  facet normal 0 0 1
    outer loop
      vertex 0.879066 13.9724 16.5
      vertex 0.251162 3.99211 16.5
      vertex 0.749525 3.92915 16.5
    endloop
  endfacet
  facet normal 0 0 1
    outer loop
      vertex 0.879066 13.9724 16.5
      vertex -0.251162 3.99211 16.5
      vertex 0.251162 3.99211 16.5
    endloop
  endfacet
  facet normal -0 0 1
    outer loop
      vertex -0.879066 13.9724 16.5
      vertex -0.251162 3.99211 16.5
      vertex 0.879066 13.9724 16.5
    endloop
  endfacet
  facet normal 0 0 1
    outer loop
      vertex -0.251162 3.99211 16.5
      vertex -0.879066 13.9724 16.5
      vertex -0.749525 3.92915 16.5
    endloop
  endfacet
  facet normal -0 0 1
    outer loop
      vertex -2.62334 13.752 16.5
      vertex -0.749525 3.92915 16.5
      vertex -0.879066 13.9724 16.5
    endloop
  endfacet
  facet normal 0 0 1
    outer loop
      vertex -0.749525 3.92915 16.5
      vertex -2.62334 13.752 16.5
      vertex -1.23607 3.80423 16.5
    endloop
  endfacet
  facet normal -0 0 1
    outer loop
      vertex -4.32624 13.3148 16.5
      vertex -1.23607 3.80423 16.5
      vertex -2.62334 13.752 16.5
    endloop
  endfacet
  facet normal 0 0 1
    outer loop
      vertex -1.23607 3.80423 16.5
      vertex -4.32624 13.3148 16.5
      vertex -1.70312 3.61931 16.5
    endloop
  endfacet
  facet normal -0 0 1
    outer loop
      vertex -5.96091 12.6676 16.5
      vertex -1.70312 3.61931 16.5
      vertex -4.32624 13.3148 16.5
    endloop
  endfacet
  facet normal 0 0 1
    outer loop
      vertex -1.70312 3.61931 16.5
      vertex -5.96091 12.6676 16.5
      vertex -2.14331 3.37731 16.5
    endloop
  endfacet
  facet normal -0 0 1
    outer loop
      vertex -7.50157 11.8206 16.5
      vertex -2.14331 3.37731 16.5
      vertex -5.96091 12.6676 16.5
    endloop
  endfacet
  facet normal 0 0 1
    outer loop
      vertex -2.14331 3.37731 16.5
      vertex -7.50157 11.8206 16.5
      vertex -2.5497 3.08205 16.5
    endloop
  endfacet
  facet normal -0 0 1
    outer loop
      vertex -8.92393 10.7872 16.5
      vertex -2.5497 3.08205 16.5
      vertex -7.50157 11.8206 16.5
    endloop
  endfacet
  facet normal 0 0 1
    outer loop
      vertex -2.5497 3.08205 16.5
      vertex -8.92393 10.7872 16.5
      vertex -2.91587 2.73819 16.5
    endloop
  endfacet
  facet normal -0 0 1
    outer loop
      vertex -10.2056 9.58366 16.5
      vertex -2.91587 2.73819 16.5
      vertex -8.92393 10.7872 16.5
    endloop
  endfacet
  facet normal -0 0 1
    outer loop
      vertex -11.3262 8.22899 16.5
      vertex -3.23607 2.35114 16.5
      vertex -10.2056 9.58366 16.5
    endloop
  endfacet
  facet normal 0 0 1
    outer loop
      vertex -2.91587 2.73819 16.5
      vertex -10.2056 9.58366 16.5
      vertex -3.23607 2.35114 16.5
    endloop
  endfacet
  facet normal 0 0 1
    outer loop
      vertex 11.3262 -8.22899 16.5
      vertex 3.23607 -2.35114 16.5
      vertex 10.2056 -9.58366 16.5
    endloop
  endfacet
  facet normal -0 0 1
    outer loop
      vertex 2.91587 -2.73819 16.5
      vertex 10.2056 -9.58366 16.5
      vertex 3.23607 -2.35114 16.5
    endloop
  endfacet
  facet normal 0 0 1
    outer loop
      vertex 10.2056 -9.58366 16.5
      vertex 2.91587 -2.73819 16.5
      vertex 8.92393 -10.7872 16.5
    endloop
  endfacet
  facet normal -0 0 1
    outer loop
      vertex 2.5497 -3.08205 16.5
      vertex 8.92393 -10.7872 16.5
      vertex 2.91587 -2.73819 16.5
    endloop
  endfacet
  facet normal 0 0 1
    outer loop
      vertex 8.92393 -10.7872 16.5
      vertex 2.5497 -3.08205 16.5
      vertex 7.50157 -11.8206 16.5
    endloop
  endfacet
  facet normal -0 0 1
    outer loop
      vertex 2.14331 -3.37731 16.5
      vertex 7.50157 -11.8206 16.5
      vertex 2.5497 -3.08205 16.5
    endloop
  endfacet
  facet normal 0 0 1
    outer loop
      vertex 7.50157 -11.8206 16.5
      vertex 2.14331 -3.37731 16.5
      vertex 5.96091 -12.6676 16.5
    endloop
  endfacet
  facet normal -0 0 1
    outer loop
      vertex 1.70312 -3.61931 16.5
      vertex 5.96091 -12.6676 16.5
      vertex 2.14331 -3.37731 16.5
    endloop
  endfacet
  facet normal 0 0 1
    outer loop
      vertex 5.96091 -12.6676 16.5
      vertex 1.70312 -3.61931 16.5
      vertex 4.32624 -13.3148 16.5
    endloop
  endfacet
  facet normal -0 0 1
    outer loop
      vertex 1.23607 -3.80423 16.5
      vertex 4.32624 -13.3148 16.5
      vertex 1.70312 -3.61931 16.5
    endloop
  endfacet
  facet normal 0 0 1
    outer loop
      vertex 4.32624 -13.3148 16.5
      vertex 1.23607 -3.80423 16.5
      vertex 2.62334 -13.752 16.5
    endloop
  endfacet
  facet normal -0 0 1
    outer loop
      vertex 0.749525 -3.92915 16.5
      vertex 2.62334 -13.752 16.5
      vertex 1.23607 -3.80423 16.5
    endloop
  endfacet
  facet normal 0 0 1
    outer loop
      vertex 2.62334 -13.752 16.5
      vertex 0.749525 -3.92915 16.5
      vertex 0.879066 -13.9724 16.5
    endloop
  endfacet
  facet normal -0 0 1
    outer loop
      vertex 0.251162 -3.99211 16.5
      vertex 0.879066 -13.9724 16.5
      vertex 0.749525 -3.92915 16.5
    endloop
  endfacet
  facet normal -0 0 1
    outer loop
      vertex -0.251162 -3.99211 16.5
      vertex 0.879066 -13.9724 16.5
      vertex 0.251162 -3.99211 16.5
    endloop
  endfacet
  facet normal 0 0 1
    outer loop
      vertex -0.879066 -13.9724 16.5
      vertex -0.251162 -3.99211 16.5
      vertex -0.749525 -3.92915 16.5
    endloop
  endfacet
  facet normal 0 0 1
    outer loop
      vertex -0.251162 -3.99211 16.5
      vertex -0.879066 -13.9724 16.5
      vertex 0.879066 -13.9724 16.5
    endloop
  endfacet
  facet normal 0 0 1
    outer loop
      vertex -2.62334 -13.752 16.5
      vertex -0.749525 -3.92915 16.5
      vertex -1.23607 -3.80423 16.5
    endloop
  endfacet
  facet normal 0 0 1
    outer loop
      vertex -4.32624 -13.3148 16.5
      vertex -1.23607 -3.80423 16.5
      vertex -1.70312 -3.61931 16.5
    endloop
  endfacet
  facet normal 0 0 1
    outer loop
      vertex -5.96091 -12.6676 16.5
      vertex -1.70312 -3.61931 16.5
      vertex -2.14331 -3.37731 16.5
    endloop
  endfacet
  facet normal 0 0 1
    outer loop
      vertex -7.50157 -11.8206 16.5
      vertex -2.14331 -3.37731 16.5
      vertex -2.5497 -3.08205 16.5
    endloop
  endfacet
  facet normal 0 0 1
    outer loop
      vertex -0.749525 -3.92915 16.5
      vertex -2.62334 -13.752 16.5
      vertex -0.879066 -13.9724 16.5
    endloop
  endfacet
  facet normal 0 0 1
    outer loop
      vertex -8.92393 -10.7872 16.5
      vertex -2.5497 -3.08205 16.5
      vertex -2.91587 -2.73819 16.5
    endloop
  endfacet
  facet normal 0 0 1
    outer loop
      vertex -10.2056 -9.58366 16.5
      vertex -2.91587 -2.73819 16.5
      vertex -3.23607 -2.35114 16.5
    endloop
  endfacet
  facet normal 0 0 1
    outer loop
      vertex -11.3262 -8.22899 16.5
      vertex -3.23607 -2.35114 16.5
      vertex -3.50523 -1.92701 16.5
    endloop
  endfacet
  facet normal 0 0 1
    outer loop
      vertex -12.2683 -6.74455 16.5
      vertex -3.50523 -1.92701 16.5
      vertex -3.71911 -1.4725 16.5
    endloop
  endfacet
  facet normal 0 0 1
    outer loop
      vertex -13.0169 -5.15374 16.5
      vertex -3.71911 -1.4725 16.5
      vertex -3.87433 -0.994759 16.5
    endloop
  endfacet
  facet normal 0 0 1
    outer loop
      vertex -13.5602 -3.48166 16.5
      vertex -3.87433 -0.994759 16.5
      vertex -3.96846 -0.501332 16.5
    endloop
  endfacet
  facet normal 0 0 1
    outer loop
      vertex -1.23607 -3.80423 16.5
      vertex -4.32624 -13.3148 16.5
      vertex -2.62334 -13.752 16.5
    endloop
  endfacet
  facet normal 0 0 1
    outer loop
      vertex -13.8896 -1.75466 16.5
      vertex -3.96846 -0.501332 16.5
      vertex -4 0 16.5
    endloop
  endfacet
  facet normal 0 0 1
    outer loop
      vertex -3.23607 2.35114 16.5
      vertex -11.3262 8.22899 16.5
      vertex -3.50523 1.92701 16.5
    endloop
  endfacet
  facet normal -0 0 1
    outer loop
      vertex -12.2683 6.74455 16.5
      vertex -3.50523 1.92701 16.5
      vertex -11.3262 8.22899 16.5
    endloop
  endfacet
  facet normal 0 0 1
    outer loop
      vertex -1.70312 -3.61931 16.5
      vertex -5.96091 -12.6676 16.5
      vertex -4.32624 -13.3148 16.5
    endloop
  endfacet
  facet normal 0 0 1
    outer loop
      vertex -3.50523 1.92701 16.5
      vertex -12.2683 6.74455 16.5
      vertex -3.71911 1.4725 16.5
    endloop
  endfacet
  facet normal 0 0 1
    outer loop
      vertex -2.14331 -3.37731 16.5
      vertex -7.50157 -11.8206 16.5
      vertex -5.96091 -12.6676 16.5
    endloop
  endfacet
  facet normal -0 0 1
    outer loop
      vertex -13.0169 5.15374 16.5
      vertex -3.71911 1.4725 16.5
      vertex -12.2683 6.74455 16.5
    endloop
  endfacet
  facet normal 0 0 1
    outer loop
      vertex -2.5497 -3.08205 16.5
      vertex -8.92393 -10.7872 16.5
      vertex -7.50157 -11.8206 16.5
    endloop
  endfacet
  facet normal 0 0 1
    outer loop
      vertex -3.71911 1.4725 16.5
      vertex -13.0169 5.15374 16.5
      vertex -3.87433 0.994759 16.5
    endloop
  endfacet
  facet normal 0 0 1
    outer loop
      vertex -2.91587 -2.73819 16.5
      vertex -10.2056 -9.58366 16.5
      vertex -8.92393 -10.7872 16.5
    endloop
  endfacet
  facet normal -0 0 1
    outer loop
      vertex -13.5602 3.48166 16.5
      vertex -3.87433 0.994759 16.5
      vertex -13.0169 5.15374 16.5
    endloop
  endfacet
  facet normal 0 0 1
    outer loop
      vertex -3.23607 -2.35114 16.5
      vertex -11.3262 -8.22899 16.5
      vertex -10.2056 -9.58366 16.5
    endloop
  endfacet
  facet normal 0 0 1
    outer loop
      vertex -3.87433 0.994759 16.5
      vertex -13.5602 3.48166 16.5
      vertex -3.96846 0.501332 16.5
    endloop
  endfacet
  facet normal 0 0 1
    outer loop
      vertex -3.50523 -1.92701 16.5
      vertex -12.2683 -6.74455 16.5
      vertex -11.3262 -8.22899 16.5
    endloop
  endfacet
  facet normal -0 0 1
    outer loop
      vertex -13.8896 1.75466 16.5
      vertex -3.96846 0.501332 16.5
      vertex -13.5602 3.48166 16.5
    endloop
  endfacet
  facet normal 0 0 1
    outer loop
      vertex -3.71911 -1.4725 16.5
      vertex -13.0169 -5.15374 16.5
      vertex -12.2683 -6.74455 16.5
    endloop
  endfacet
  facet normal 0 0 1
    outer loop
      vertex -3.96846 0.501332 16.5
      vertex -13.8896 1.75466 16.5
      vertex -4 0 16.5
    endloop
  endfacet
  facet normal 0 0 1
    outer loop
      vertex -3.87433 -0.994759 16.5
      vertex -13.5602 -3.48166 16.5
      vertex -13.0169 -5.15374 16.5
    endloop
  endfacet
  facet normal 0 0 1
    outer loop
      vertex -14 0 16.5
      vertex -4 0 16.5
      vertex -13.8896 1.75466 16.5
    endloop
  endfacet
  facet normal 0 0 1
    outer loop
      vertex -3.96846 -0.501332 16.5
      vertex -13.8896 -1.75466 16.5
      vertex -13.5602 -3.48166 16.5
    endloop
  endfacet
  facet normal 0 0 1
    outer loop
      vertex -4 0 16.5
      vertex -14 0 16.5
      vertex -13.8896 -1.75466 16.5
    endloop
  endfacet
  facet normal -0.248674 0.968587 0
    outer loop
      vertex -2.62334 13.752 -16.5
      vertex -4.32624 13.3148 16.5
      vertex -2.62334 13.752 16.5
    endloop
  endfacet
  facet normal -0.248674 0.968587 0
    outer loop
      vertex -4.32624 13.3148 16.5
      vertex -2.62334 13.752 -16.5
      vertex -4.32624 13.3148 -16.5
    endloop
  endfacet
  facet normal 0 0 -1
    outer loop
      vertex 4 0 -16.5
      vertex 14 0 -16.5
      vertex 13.8896 -1.75466 -16.5
    endloop
  endfacet
  facet normal 0 0 -1
    outer loop
      vertex 3.96846 -0.501332 -16.5
      vertex 13.8896 -1.75466 -16.5
      vertex 13.5602 -3.48166 -16.5
    endloop
  endfacet
  facet normal 0 0 -1
    outer loop
      vertex 14 0 -16.5
      vertex 4 0 -16.5
      vertex 13.8896 1.75466 -16.5
    endloop
  endfacet
  facet normal 0 0 -1
    outer loop
      vertex 3.87433 -0.994759 -16.5
      vertex 13.5602 -3.48166 -16.5
      vertex 13.0169 -5.15374 -16.5
    endloop
  endfacet
  facet normal 0 0 -1
    outer loop
      vertex 3.96846 0.501332 -16.5
      vertex 13.8896 1.75466 -16.5
      vertex 4 0 -16.5
    endloop
  endfacet
  facet normal 0 0 -1
    outer loop
      vertex 3.71911 -1.4725 -16.5
      vertex 13.0169 -5.15374 -16.5
      vertex 12.2683 -6.74455 -16.5
    endloop
  endfacet
  facet normal -0 0 -1
    outer loop
      vertex 13.8896 1.75466 -16.5
      vertex 3.96846 0.501332 -16.5
      vertex 13.5602 3.48166 -16.5
    endloop
  endfacet
  facet normal 0 0 -1
    outer loop
      vertex 3.50523 -1.92701 -16.5
      vertex 12.2683 -6.74455 -16.5
      vertex 11.3262 -8.22899 -16.5
    endloop
  endfacet
  facet normal 0 0 -1
    outer loop
      vertex 3.87433 0.994759 -16.5
      vertex 13.5602 3.48166 -16.5
      vertex 3.96846 0.501332 -16.5
    endloop
  endfacet
  facet normal 0 0 -1
    outer loop
      vertex 3.23607 -2.35114 -16.5
      vertex 11.3262 -8.22899 -16.5
      vertex 10.2056 -9.58366 -16.5
    endloop
  endfacet
  facet normal -0 0 -1
    outer loop
      vertex 13.5602 3.48166 -16.5
      vertex 3.87433 0.994759 -16.5
      vertex 13.0169 5.15374 -16.5
    endloop
  endfacet
  facet normal 0 0 -1
    outer loop
      vertex 2.91587 -2.73819 -16.5
      vertex 10.2056 -9.58366 -16.5
      vertex 8.92393 -10.7872 -16.5
    endloop
  endfacet
  facet normal 0 0 -1
    outer loop
      vertex 3.71911 1.4725 -16.5
      vertex 13.0169 5.15374 -16.5
      vertex 3.87433 0.994759 -16.5
    endloop
  endfacet
  facet normal 0 0 -1
    outer loop
      vertex 2.5497 -3.08205 -16.5
      vertex 8.92393 -10.7872 -16.5
      vertex 7.50157 -11.8206 -16.5
    endloop
  endfacet
  facet normal -0 0 -1
    outer loop
      vertex 13.0169 5.15374 -16.5
      vertex 3.71911 1.4725 -16.5
      vertex 12.2683 6.74455 -16.5
    endloop
  endfacet
  facet normal 0 0 -1
    outer loop
      vertex 2.14331 -3.37731 -16.5
      vertex 7.50157 -11.8206 -16.5
      vertex 5.96091 -12.6676 -16.5
    endloop
  endfacet
  facet normal 0 0 -1
    outer loop
      vertex 3.50523 1.92701 -16.5
      vertex 12.2683 6.74455 -16.5
      vertex 3.71911 1.4725 -16.5
    endloop
  endfacet
  facet normal 0 0 -1
    outer loop
      vertex 1.70312 -3.61931 -16.5
      vertex 5.96091 -12.6676 -16.5
      vertex 4.32624 -13.3148 -16.5
    endloop
  endfacet
  facet normal -0 0 -1
    outer loop
      vertex 12.2683 6.74455 -16.5
      vertex 3.50523 1.92701 -16.5
      vertex 11.3262 8.22899 -16.5
    endloop
  endfacet
  facet normal 0 0 -1
    outer loop
      vertex 3.23607 2.35114 -16.5
      vertex 11.3262 8.22899 -16.5
      vertex 3.50523 1.92701 -16.5
    endloop
  endfacet
  facet normal 0 0 -1
    outer loop
      vertex 13.8896 -1.75466 -16.5
      vertex 3.96846 -0.501332 -16.5
      vertex 4 0 -16.5
    endloop
  endfacet
  facet normal 0 0 -1
    outer loop
      vertex 13.5602 -3.48166 -16.5
      vertex 3.87433 -0.994759 -16.5
      vertex 3.96846 -0.501332 -16.5
    endloop
  endfacet
  facet normal 0 0 -1
    outer loop
      vertex 13.0169 -5.15374 -16.5
      vertex 3.71911 -1.4725 -16.5
      vertex 3.87433 -0.994759 -16.5
    endloop
  endfacet
  facet normal 0 0 -1
    outer loop
      vertex 12.2683 -6.74455 -16.5
      vertex 3.50523 -1.92701 -16.5
      vertex 3.71911 -1.4725 -16.5
    endloop
  endfacet
  facet normal 0 0 -1
    outer loop
      vertex 11.3262 -8.22899 -16.5
      vertex 3.23607 -2.35114 -16.5
      vertex 3.50523 -1.92701 -16.5
    endloop
  endfacet
  facet normal 0 0 -1
    outer loop
      vertex 10.2056 -9.58366 -16.5
      vertex 2.91587 -2.73819 -16.5
      vertex 3.23607 -2.35114 -16.5
    endloop
  endfacet
  facet normal 0 0 -1
    outer loop
      vertex 1.23607 -3.80423 -16.5
      vertex 4.32624 -13.3148 -16.5
      vertex 2.62334 -13.752 -16.5
    endloop
  endfacet
  facet normal 0 0 -1
    outer loop
      vertex 8.92393 -10.7872 -16.5
      vertex 2.5497 -3.08205 -16.5
      vertex 2.91587 -2.73819 -16.5
    endloop
  endfacet
  facet normal 0 0 -1
    outer loop
      vertex 7.50157 -11.8206 -16.5
      vertex 2.14331 -3.37731 -16.5
      vertex 2.5497 -3.08205 -16.5
    endloop
  endfacet
  facet normal 0 0 -1
    outer loop
      vertex 5.96091 -12.6676 -16.5
      vertex 1.70312 -3.61931 -16.5
      vertex 2.14331 -3.37731 -16.5
    endloop
  endfacet
  facet normal 0 0 -1
    outer loop
      vertex 4.32624 -13.3148 -16.5
      vertex 1.23607 -3.80423 -16.5
      vertex 1.70312 -3.61931 -16.5
    endloop
  endfacet
  facet normal 0 0 -1
    outer loop
      vertex 0.749525 -3.92915 -16.5
      vertex 2.62334 -13.752 -16.5
      vertex 0.879066 -13.9724 -16.5
    endloop
  endfacet
  facet normal 0 0 -1
    outer loop
      vertex 2.62334 -13.752 -16.5
      vertex 0.749525 -3.92915 -16.5
      vertex 1.23607 -3.80423 -16.5
    endloop
  endfacet
  facet normal 0 0 -1
    outer loop
      vertex 0.879066 -13.9724 -16.5
      vertex 0.251162 -3.99211 -16.5
      vertex 0.749525 -3.92915 -16.5
    endloop
  endfacet
  facet normal 0 0 -1
    outer loop
      vertex 0.879066 -13.9724 -16.5
      vertex -0.251162 -3.99211 -16.5
      vertex 0.251162 -3.99211 -16.5
    endloop
  endfacet
  facet normal 0 0 -1
    outer loop
      vertex -0.879066 -13.9724 -16.5
      vertex -0.251162 -3.99211 -16.5
      vertex 0.879066 -13.9724 -16.5
    endloop
  endfacet
  facet normal -0 0 -1
    outer loop
      vertex -0.251162 -3.99211 -16.5
      vertex -0.879066 -13.9724 -16.5
      vertex -0.749525 -3.92915 -16.5
    endloop
  endfacet
  facet normal 0 0 -1
    outer loop
      vertex -2.62334 -13.752 -16.5
      vertex -0.749525 -3.92915 -16.5
      vertex -0.879066 -13.9724 -16.5
    endloop
  endfacet
  facet normal -0 0 -1
    outer loop
      vertex -0.749525 -3.92915 -16.5
      vertex -2.62334 -13.752 -16.5
      vertex -1.23607 -3.80423 -16.5
    endloop
  endfacet
  facet normal 0 0 -1
    outer loop
      vertex -4.32624 -13.3148 -16.5
      vertex -1.23607 -3.80423 -16.5
      vertex -2.62334 -13.752 -16.5
    endloop
  endfacet
  facet normal -0 0 -1
    outer loop
      vertex -1.23607 -3.80423 -16.5
      vertex -4.32624 -13.3148 -16.5
      vertex -1.70312 -3.61931 -16.5
    endloop
  endfacet
  facet normal 0 0 -1
    outer loop
      vertex -5.96091 -12.6676 -16.5
      vertex -1.70312 -3.61931 -16.5
      vertex -4.32624 -13.3148 -16.5
    endloop
  endfacet
  facet normal -0 0 -1
    outer loop
      vertex -1.70312 -3.61931 -16.5
      vertex -5.96091 -12.6676 -16.5
      vertex -2.14331 -3.37731 -16.5
    endloop
  endfacet
  facet normal 0 0 -1
    outer loop
      vertex -7.50157 -11.8206 -16.5
      vertex -2.14331 -3.37731 -16.5
      vertex -5.96091 -12.6676 -16.5
    endloop
  endfacet
  facet normal -0 0 -1
    outer loop
      vertex -2.14331 -3.37731 -16.5
      vertex -7.50157 -11.8206 -16.5
      vertex -2.5497 -3.08205 -16.5
    endloop
  endfacet
  facet normal 0 0 -1
    outer loop
      vertex -8.92393 -10.7872 -16.5
      vertex -2.5497 -3.08205 -16.5
      vertex -7.50157 -11.8206 -16.5
    endloop
  endfacet
  facet normal -0 0 -1
    outer loop
      vertex -2.5497 -3.08205 -16.5
      vertex -8.92393 -10.7872 -16.5
      vertex -2.91587 -2.73819 -16.5
    endloop
  endfacet
  facet normal 0 0 -1
    outer loop
      vertex -10.2056 -9.58366 -16.5
      vertex -2.91587 -2.73819 -16.5
      vertex -8.92393 -10.7872 -16.5
    endloop
  endfacet
  facet normal 0 0 -1
    outer loop
      vertex -11.3262 -8.22899 -16.5
      vertex -3.23607 -2.35114 -16.5
      vertex -10.2056 -9.58366 -16.5
    endloop
  endfacet
  facet normal -0 0 -1
    outer loop
      vertex -2.91587 -2.73819 -16.5
      vertex -10.2056 -9.58366 -16.5
      vertex -3.23607 -2.35114 -16.5
    endloop
  endfacet
  facet normal -0 0 -1
    outer loop
      vertex 11.3262 8.22899 -16.5
      vertex 3.23607 2.35114 -16.5
      vertex 10.2056 9.58366 -16.5
    endloop
  endfacet
  facet normal 0 0 -1
    outer loop
      vertex 2.91587 2.73819 -16.5
      vertex 10.2056 9.58366 -16.5
      vertex 3.23607 2.35114 -16.5
    endloop
  endfacet
  facet normal -0 0 -1
    outer loop
      vertex 10.2056 9.58366 -16.5
      vertex 2.91587 2.73819 -16.5
      vertex 8.92393 10.7872 -16.5
    endloop
  endfacet
  facet normal 0 0 -1
    outer loop
      vertex 2.5497 3.08205 -16.5
      vertex 8.92393 10.7872 -16.5
      vertex 2.91587 2.73819 -16.5
    endloop
  endfacet
  facet normal -0 0 -1
    outer loop
      vertex 8.92393 10.7872 -16.5
      vertex 2.5497 3.08205 -16.5
      vertex 7.50157 11.8206 -16.5
    endloop
  endfacet
  facet normal 0 0 -1
    outer loop
      vertex 2.14331 3.37731 -16.5
      vertex 7.50157 11.8206 -16.5
      vertex 2.5497 3.08205 -16.5
    endloop
  endfacet
  facet normal -0 0 -1
    outer loop
      vertex 7.50157 11.8206 -16.5
      vertex 2.14331 3.37731 -16.5
      vertex 5.96091 12.6676 -16.5
    endloop
  endfacet
  facet normal 0 0 -1
    outer loop
      vertex 1.70312 3.61931 -16.5
      vertex 5.96091 12.6676 -16.5
      vertex 2.14331 3.37731 -16.5
    endloop
  endfacet
  facet normal -0 0 -1
    outer loop
      vertex 5.96091 12.6676 -16.5
      vertex 1.70312 3.61931 -16.5
      vertex 4.32624 13.3148 -16.5
    endloop
  endfacet
  facet normal 0 0 -1
    outer loop
      vertex 1.23607 3.80423 -16.5
      vertex 4.32624 13.3148 -16.5
      vertex 1.70312 3.61931 -16.5
    endloop
  endfacet
  facet normal -0 0 -1
    outer loop
      vertex 4.32624 13.3148 -16.5
      vertex 1.23607 3.80423 -16.5
      vertex 2.62334 13.752 -16.5
    endloop
  endfacet
  facet normal 0 0 -1
    outer loop
      vertex 0.749525 3.92915 -16.5
      vertex 2.62334 13.752 -16.5
      vertex 1.23607 3.80423 -16.5
    endloop
  endfacet
  facet normal -0 0 -1
    outer loop
      vertex 2.62334 13.752 -16.5
      vertex 0.749525 3.92915 -16.5
      vertex 0.879066 13.9724 -16.5
    endloop
  endfacet
  facet normal 0 0 -1
    outer loop
      vertex 0.251162 3.99211 -16.5
      vertex 0.879066 13.9724 -16.5
      vertex 0.749525 3.92915 -16.5
    endloop
  endfacet
  facet normal 0 0 -1
    outer loop
      vertex -0.251162 3.99211 -16.5
      vertex 0.879066 13.9724 -16.5
      vertex 0.251162 3.99211 -16.5
    endloop
  endfacet
  facet normal 0 0 -1
    outer loop
      vertex -0.879066 13.9724 -16.5
      vertex -0.251162 3.99211 -16.5
      vertex -0.749525 3.92915 -16.5
    endloop
  endfacet
  facet normal 0 0 -1
    outer loop
      vertex -0.251162 3.99211 -16.5
      vertex -0.879066 13.9724 -16.5
      vertex 0.879066 13.9724 -16.5
    endloop
  endfacet
  facet normal 0 0 -1
    outer loop
      vertex -2.62334 13.752 -16.5
      vertex -0.749525 3.92915 -16.5
      vertex -1.23607 3.80423 -16.5
    endloop
  endfacet
  facet normal 0 0 -1
    outer loop
      vertex -4.32624 13.3148 -16.5
      vertex -1.23607 3.80423 -16.5
      vertex -1.70312 3.61931 -16.5
    endloop
  endfacet
  facet normal 0 0 -1
    outer loop
      vertex -5.96091 12.6676 -16.5
      vertex -1.70312 3.61931 -16.5
      vertex -2.14331 3.37731 -16.5
    endloop
  endfacet
  facet normal 0 0 -1
    outer loop
      vertex -7.50157 11.8206 -16.5
      vertex -2.14331 3.37731 -16.5
      vertex -2.5497 3.08205 -16.5
    endloop
  endfacet
  facet normal 0 0 -1
    outer loop
      vertex -0.749525 3.92915 -16.5
      vertex -2.62334 13.752 -16.5
      vertex -0.879066 13.9724 -16.5
    endloop
  endfacet
  facet normal 0 0 -1
    outer loop
      vertex -8.92393 10.7872 -16.5
      vertex -2.5497 3.08205 -16.5
      vertex -2.91587 2.73819 -16.5
    endloop
  endfacet
  facet normal 0 0 -1
    outer loop
      vertex -10.2056 9.58366 -16.5
      vertex -2.91587 2.73819 -16.5
      vertex -3.23607 2.35114 -16.5
    endloop
  endfacet
  facet normal 0 0 -1
    outer loop
      vertex -11.3262 8.22899 -16.5
      vertex -3.23607 2.35114 -16.5
      vertex -3.50523 1.92701 -16.5
    endloop
  endfacet
  facet normal 0 0 -1
    outer loop
      vertex -12.2683 6.74455 -16.5
      vertex -3.50523 1.92701 -16.5
      vertex -3.71911 1.4725 -16.5
    endloop
  endfacet
  facet normal 0 0 -1
    outer loop
      vertex -13.0169 5.15374 -16.5
      vertex -3.71911 1.4725 -16.5
      vertex -3.87433 0.994759 -16.5
    endloop
  endfacet
  facet normal 0 0 -1
    outer loop
      vertex -13.5602 3.48166 -16.5
      vertex -3.87433 0.994759 -16.5
      vertex -3.96846 0.501332 -16.5
    endloop
  endfacet
  facet normal 0 0 -1
    outer loop
      vertex -1.23607 3.80423 -16.5
      vertex -4.32624 13.3148 -16.5
      vertex -2.62334 13.752 -16.5
    endloop
  endfacet
  facet normal 0 0 -1
    outer loop
      vertex -13.8896 1.75466 -16.5
      vertex -3.96846 0.501332 -16.5
      vertex -4 0 -16.5
    endloop
  endfacet
  facet normal -0 0 -1
    outer loop
      vertex -3.23607 -2.35114 -16.5
      vertex -11.3262 -8.22899 -16.5
      vertex -3.50523 -1.92701 -16.5
    endloop
  endfacet
  facet normal 0 0 -1
    outer loop
      vertex -12.2683 -6.74455 -16.5
      vertex -3.50523 -1.92701 -16.5
      vertex -11.3262 -8.22899 -16.5
    endloop
  endfacet
  facet normal 0 0 -1
    outer loop
      vertex -1.70312 3.61931 -16.5
      vertex -5.96091 12.6676 -16.5
      vertex -4.32624 13.3148 -16.5
    endloop
  endfacet
  facet normal -0 0 -1
    outer loop
      vertex -3.50523 -1.92701 -16.5
      vertex -12.2683 -6.74455 -16.5
      vertex -3.71911 -1.4725 -16.5
    endloop
  endfacet
  facet normal 0 0 -1
    outer loop
      vertex -2.14331 3.37731 -16.5
      vertex -7.50157 11.8206 -16.5
      vertex -5.96091 12.6676 -16.5
    endloop
  endfacet
  facet normal 0 0 -1
    outer loop
      vertex -13.0169 -5.15374 -16.5
      vertex -3.71911 -1.4725 -16.5
      vertex -12.2683 -6.74455 -16.5
    endloop
  endfacet
  facet normal 0 0 -1
    outer loop
      vertex -2.5497 3.08205 -16.5
      vertex -8.92393 10.7872 -16.5
      vertex -7.50157 11.8206 -16.5
    endloop
  endfacet
  facet normal -0 0 -1
    outer loop
      vertex -3.71911 -1.4725 -16.5
      vertex -13.0169 -5.15374 -16.5
      vertex -3.87433 -0.994759 -16.5
    endloop
  endfacet
  facet normal 0 0 -1
    outer loop
      vertex -2.91587 2.73819 -16.5
      vertex -10.2056 9.58366 -16.5
      vertex -8.92393 10.7872 -16.5
    endloop
  endfacet
  facet normal 0 0 -1
    outer loop
      vertex -13.5602 -3.48166 -16.5
      vertex -3.87433 -0.994759 -16.5
      vertex -13.0169 -5.15374 -16.5
    endloop
  endfacet
  facet normal 0 0 -1
    outer loop
      vertex -3.23607 2.35114 -16.5
      vertex -11.3262 8.22899 -16.5
      vertex -10.2056 9.58366 -16.5
    endloop
  endfacet
  facet normal -0 0 -1
    outer loop
      vertex -3.87433 -0.994759 -16.5
      vertex -13.5602 -3.48166 -16.5
      vertex -3.96846 -0.501332 -16.5
    endloop
  endfacet
  facet normal 0 0 -1
    outer loop
      vertex -3.50523 1.92701 -16.5
      vertex -12.2683 6.74455 -16.5
      vertex -11.3262 8.22899 -16.5
    endloop
  endfacet
  facet normal 0 0 -1
    outer loop
      vertex -13.8896 -1.75466 -16.5
      vertex -3.96846 -0.501332 -16.5
      vertex -13.5602 -3.48166 -16.5
    endloop
  endfacet
  facet normal 0 0 -1
    outer loop
      vertex -3.71911 1.4725 -16.5
      vertex -13.0169 5.15374 -16.5
      vertex -12.2683 6.74455 -16.5
    endloop
  endfacet
  facet normal -0 0 -1
    outer loop
      vertex -3.96846 -0.501332 -16.5
      vertex -13.8896 -1.75466 -16.5
      vertex -4 0 -16.5
    endloop
  endfacet
  facet normal 0 0 -1
    outer loop
      vertex -3.87433 0.994759 -16.5
      vertex -13.5602 3.48166 -16.5
      vertex -13.0169 5.15374 -16.5
    endloop
  endfacet
  facet normal 0 0 -1
    outer loop
      vertex -14 0 -16.5
      vertex -4 0 -16.5
      vertex -13.8896 -1.75466 -16.5
    endloop
  endfacet
  facet normal 0 0 -1
    outer loop
      vertex -3.96846 0.501332 -16.5
      vertex -13.8896 1.75466 -16.5
      vertex -13.5602 3.48166 -16.5
    endloop
  endfacet
  facet normal 0 0 -1
    outer loop
      vertex -4 0 -16.5
      vertex -14 0 -16.5
      vertex -13.8896 1.75466 -16.5
    endloop
  endfacet
  facet normal 0.12536 -0.992111 0
    outer loop
      vertex 0.879066 -13.9724 -16.5
      vertex 2.62334 -13.752 16.5
      vertex 0.879066 -13.9724 16.5
    endloop
  endfacet
  facet normal 0.12536 -0.992111 0
    outer loop
      vertex 2.62334 -13.752 16.5
      vertex 0.879066 -13.9724 -16.5
      vertex 2.62334 -13.752 -16.5
    endloop
  endfacet
  facet normal 0.951055 0.309021 0
    outer loop
      vertex 13.5602 3.48166 16.5
      vertex 13.0169 5.15374 -16.5
      vertex 13.0169 5.15374 16.5
    endloop
  endfacet
  facet normal 0.951055 0.309021 0
    outer loop
      vertex 13.0169 5.15374 -16.5
      vertex 13.5602 3.48166 16.5
      vertex 13.5602 3.48166 -16.5
    endloop
  endfacet
  facet normal 0.982292 0.187358 0
    outer loop
      vertex 13.8896 1.75466 16.5
      vertex 13.5602 3.48166 -16.5
      vertex 13.5602 3.48166 16.5
    endloop
  endfacet
  facet normal 0.982292 0.187358 0
    outer loop
      vertex 13.5602 3.48166 -16.5
      vertex 13.8896 1.75466 16.5
      vertex 13.8896 1.75466 -16.5
    endloop
  endfacet
  facet normal 0.770536 0.637397 0
    outer loop
      vertex 11.3262 8.22899 16.5
      vertex 10.2056 9.58366 -16.5
      vertex 10.2056 9.58366 16.5
    endloop
  endfacet
  facet normal 0.770536 0.637397 0
    outer loop
      vertex 10.2056 9.58366 -16.5
      vertex 11.3262 8.22899 16.5
      vertex 11.3262 8.22899 -16.5
    endloop
  endfacet
  facet normal 0.844316 0.535845 0
    outer loop
      vertex 12.2683 6.74455 16.5
      vertex 11.3262 8.22899 -16.5
      vertex 11.3262 8.22899 16.5
    endloop
  endfacet
  facet normal 0.844316 0.535845 0
    outer loop
      vertex 11.3262 8.22899 -16.5
      vertex 12.2683 6.74455 16.5
      vertex 12.2683 6.74455 -16.5
    endloop
  endfacet
  facet normal 0.248674 0.968587 -0
    outer loop
      vertex 4.32624 13.3148 -16.5
      vertex 2.62334 13.752 16.5
      vertex 4.32624 13.3148 16.5
    endloop
  endfacet
  facet normal 0.248674 0.968587 0
    outer loop
      vertex 2.62334 13.752 16.5
      vertex 4.32624 13.3148 -16.5
      vertex 2.62334 13.752 -16.5
    endloop
  endfacet
  facet normal 0.12536 0.992111 -0
    outer loop
      vertex 2.62334 13.752 -16.5
      vertex 0.879066 13.9724 16.5
      vertex 2.62334 13.752 16.5
    endloop
  endfacet
  facet normal 0.12536 0.992111 0
    outer loop
      vertex 0.879066 13.9724 16.5
      vertex 2.62334 13.752 -16.5
      vertex 0.879066 13.9724 -16.5
    endloop
  endfacet
  facet normal 0.587783 0.809018 -0
    outer loop
      vertex 8.92393 10.7872 -16.5
      vertex 7.50157 11.8206 16.5
      vertex 8.92393 10.7872 16.5
    endloop
  endfacet
  facet normal 0.587783 0.809018 0
    outer loop
      vertex 7.50157 11.8206 16.5
      vertex 8.92393 10.7872 -16.5
      vertex 7.50157 11.8206 -16.5
    endloop
  endfacet
  facet normal -0.844316 0.535845 0
    outer loop
      vertex -12.2683 6.74455 -16.5
      vertex -11.3262 8.22899 16.5
      vertex -11.3262 8.22899 -16.5
    endloop
  endfacet
  facet normal -0.844316 0.535845 0
    outer loop
      vertex -11.3262 8.22899 16.5
      vertex -12.2683 6.74455 -16.5
      vertex -12.2683 6.74455 16.5
    endloop
  endfacet
  facet normal -0.951055 0.309021 0
    outer loop
      vertex -13.5602 3.48166 -16.5
      vertex -13.0169 5.15374 16.5
      vertex -13.0169 5.15374 -16.5
    endloop
  endfacet
  facet normal -0.951055 0.309021 0
    outer loop
      vertex -13.0169 5.15374 16.5
      vertex -13.5602 3.48166 -16.5
      vertex -13.5602 3.48166 16.5
    endloop
  endfacet
  facet normal -0.982292 0.187358 0
    outer loop
      vertex -13.8896 1.75466 -16.5
      vertex -13.5602 3.48166 16.5
      vertex -13.5602 3.48166 -16.5
    endloop
  endfacet
  facet normal -0.982292 0.187358 0
    outer loop
      vertex -13.5602 3.48166 16.5
      vertex -13.8896 1.75466 -16.5
      vertex -13.8896 1.75466 16.5
    endloop
  endfacet
  facet normal -0.48176 0.876303 0
    outer loop
      vertex -5.96091 12.6676 -16.5
      vertex -7.50157 11.8206 16.5
      vertex -5.96091 12.6676 16.5
    endloop
  endfacet
  facet normal -0.48176 0.876303 0
    outer loop
      vertex -7.50157 11.8206 16.5
      vertex -5.96091 12.6676 -16.5
      vertex -7.50157 11.8206 -16.5
    endloop
  endfacet
  facet normal -0.587783 0.809018 0
    outer loop
      vertex -7.50157 11.8206 -16.5
      vertex -8.92393 10.7872 16.5
      vertex -7.50157 11.8206 16.5
    endloop
  endfacet
  facet normal -0.587783 0.809018 0
    outer loop
      vertex -8.92393 10.7872 16.5
      vertex -7.50157 11.8206 -16.5
      vertex -8.92393 10.7872 -16.5
    endloop
  endfacet
  facet normal -0.12536 0.992111 0
    outer loop
      vertex -0.879066 13.9724 -16.5
      vertex -2.62334 13.752 16.5
      vertex -0.879066 13.9724 16.5
    endloop
  endfacet
  facet normal -0.12536 0.992111 0
    outer loop
      vertex -2.62334 13.752 16.5
      vertex -0.879066 13.9724 -16.5
      vertex -2.62334 13.752 -16.5
    endloop
  endfacet
  facet normal 0.998027 -0.062794 0
    outer loop
      vertex 13.8896 -1.75466 16.5
      vertex 14 0 -16.5
      vertex 14 0 16.5
    endloop
  endfacet
  facet normal 0.998027 -0.062794 0
    outer loop
      vertex 14 0 -16.5
      vertex 13.8896 -1.75466 16.5
      vertex 13.8896 -1.75466 -16.5
    endloop
  endfacet
  facet normal 0.770536 -0.637397 0
    outer loop
      vertex 10.2056 -9.58366 16.5
      vertex 11.3262 -8.22899 -16.5
      vertex 11.3262 -8.22899 16.5
    endloop
  endfacet
  facet normal 0.770536 -0.637397 0
    outer loop
      vertex 11.3262 -8.22899 -16.5
      vertex 10.2056 -9.58366 16.5
      vertex 10.2056 -9.58366 -16.5
    endloop
  endfacet
  facet normal -0.684539 -0.728977 0
    outer loop
      vertex -10.2056 -9.58366 -16.5
      vertex -8.92393 -10.7872 16.5
      vertex -10.2056 -9.58366 16.5
    endloop
  endfacet
  facet normal -0.684539 -0.728977 -0
    outer loop
      vertex -8.92393 -10.7872 16.5
      vertex -10.2056 -9.58366 -16.5
      vertex -8.92393 -10.7872 -16.5
    endloop
  endfacet
  facet normal -0.904822 -0.425789 0
    outer loop
      vertex -12.2683 -6.74455 -16.5
      vertex -13.0169 -5.15374 16.5
      vertex -13.0169 -5.15374 -16.5
    endloop
  endfacet
  facet normal -0.904822 -0.425789 0
    outer loop
      vertex -13.0169 -5.15374 16.5
      vertex -12.2683 -6.74455 -16.5
      vertex -12.2683 -6.74455 16.5
    endloop
  endfacet
  facet normal -0.770536 -0.637397 0
    outer loop
      vertex -10.2056 -9.58366 -16.5
      vertex -11.3262 -8.22899 16.5
      vertex -11.3262 -8.22899 -16.5
    endloop
  endfacet
  facet normal -0.770536 -0.637397 0
    outer loop
      vertex -11.3262 -8.22899 16.5
      vertex -10.2056 -9.58366 -16.5
      vertex -10.2056 -9.58366 16.5
    endloop
  endfacet
  facet normal 0.48176 -0.876303 0
    outer loop
      vertex 5.96091 -12.6676 -16.5
      vertex 7.50157 -11.8206 16.5
      vertex 5.96091 -12.6676 16.5
    endloop
  endfacet
  facet normal 0.48176 -0.876303 0
    outer loop
      vertex 7.50157 -11.8206 16.5
      vertex 5.96091 -12.6676 -16.5
      vertex 7.50157 -11.8206 -16.5
    endloop
  endfacet
  facet normal 0.951055 -0.309021 0
    outer loop
      vertex 13.0169 -5.15374 16.5
      vertex 13.5602 -3.48166 -16.5
      vertex 13.5602 -3.48166 16.5
    endloop
  endfacet
  facet normal 0.951055 -0.309021 0
    outer loop
      vertex 13.5602 -3.48166 -16.5
      vertex 13.0169 -5.15374 16.5
      vertex 13.0169 -5.15374 -16.5
    endloop
  endfacet
  facet normal 0.844316 -0.535845 0
    outer loop
      vertex 11.3262 -8.22899 16.5
      vertex 12.2683 -6.74455 -16.5
      vertex 12.2683 -6.74455 16.5
    endloop
  endfacet
  facet normal 0.844316 -0.535845 0
    outer loop
      vertex 12.2683 -6.74455 -16.5
      vertex 11.3262 -8.22899 16.5
      vertex 11.3262 -8.22899 -16.5
    endloop
  endfacet
  facet normal -0.368119 -0.929779 0
    outer loop
      vertex -5.96091 -12.6676 -16.5
      vertex -4.32624 -13.3148 16.5
      vertex -5.96091 -12.6676 16.5
    endloop
  endfacet
  facet normal -0.368119 -0.929779 -0
    outer loop
      vertex -4.32624 -13.3148 16.5
      vertex -5.96091 -12.6676 -16.5
      vertex -4.32624 -13.3148 -16.5
    endloop
  endfacet
  facet normal -0.982292 -0.187358 0
    outer loop
      vertex -13.5602 -3.48166 -16.5
      vertex -13.8896 -1.75466 16.5
      vertex -13.8896 -1.75466 -16.5
    endloop
  endfacet
  facet normal -0.982292 -0.187358 0
    outer loop
      vertex -13.8896 -1.75466 16.5
      vertex -13.5602 -3.48166 -16.5
      vertex -13.5602 -3.48166 16.5
    endloop
  endfacet
  facet normal -0.998027 -0.062794 0
    outer loop
      vertex -13.8896 -1.75466 -16.5
      vertex -14 0 16.5
      vertex -14 0 -16.5
    endloop
  endfacet
  facet normal -0.998027 -0.062794 0
    outer loop
      vertex -14 0 16.5
      vertex -13.8896 -1.75466 -16.5
      vertex -13.8896 -1.75466 16.5
    endloop
  endfacet
  facet normal -0.951055 -0.309021 0
    outer loop
      vertex -13.0169 -5.15374 -16.5
      vertex -13.5602 -3.48166 16.5
      vertex -13.5602 -3.48166 -16.5
    endloop
  endfacet
  facet normal -0.951055 -0.309021 0
    outer loop
      vertex -13.5602 -3.48166 16.5
      vertex -13.0169 -5.15374 -16.5
      vertex -13.0169 -5.15374 16.5
    endloop
  endfacet
  facet normal 0.684539 -0.728977 0
    outer loop
      vertex 8.92393 -10.7872 -16.5
      vertex 10.2056 -9.58366 16.5
      vertex 8.92393 -10.7872 16.5
    endloop
  endfacet
  facet normal 0.684539 -0.728977 0
    outer loop
      vertex 10.2056 -9.58366 16.5
      vertex 8.92393 -10.7872 -16.5
      vertex 10.2056 -9.58366 -16.5
    endloop
  endfacet
  facet normal 0.368119 -0.929779 0
    outer loop
      vertex 4.32624 -13.3148 -16.5
      vertex 5.96091 -12.6676 16.5
      vertex 4.32624 -13.3148 16.5
    endloop
  endfacet
  facet normal 0.368119 -0.929779 0
    outer loop
      vertex 5.96091 -12.6676 16.5
      vertex 4.32624 -13.3148 -16.5
      vertex 5.96091 -12.6676 -16.5
    endloop
  endfacet
  facet normal 0.248674 -0.968587 0
    outer loop
      vertex 2.62334 -13.752 -16.5
      vertex 4.32624 -13.3148 16.5
      vertex 2.62334 -13.752 16.5
    endloop
  endfacet
  facet normal 0.248674 -0.968587 0
    outer loop
      vertex 4.32624 -13.3148 16.5
      vertex 2.62334 -13.752 -16.5
      vertex 4.32624 -13.3148 -16.5
    endloop
  endfacet
  facet normal 0.982292 -0.187358 0
    outer loop
      vertex 13.5602 -3.48166 16.5
      vertex 13.8896 -1.75466 -16.5
      vertex 13.8896 -1.75466 16.5
    endloop
  endfacet
  facet normal 0.982292 -0.187358 0
    outer loop
      vertex 13.8896 -1.75466 -16.5
      vertex 13.5602 -3.48166 16.5
      vertex 13.5602 -3.48166 -16.5
    endloop
  endfacet
  facet normal -0.12536 -0.992111 0
    outer loop
      vertex -2.62334 -13.752 -16.5
      vertex -0.879066 -13.9724 16.5
      vertex -2.62334 -13.752 16.5
    endloop
  endfacet
  facet normal -0.12536 -0.992111 -0
    outer loop
      vertex -0.879066 -13.9724 16.5
      vertex -2.62334 -13.752 -16.5
      vertex -0.879066 -13.9724 -16.5
    endloop
  endfacet
  facet normal -0.587783 -0.809018 0
    outer loop
      vertex -8.92393 -10.7872 -16.5
      vertex -7.50157 -11.8206 16.5
      vertex -8.92393 -10.7872 16.5
    endloop
  endfacet
  facet normal -0.587783 -0.809018 -0
    outer loop
      vertex -7.50157 -11.8206 16.5
      vertex -8.92393 -10.7872 -16.5
      vertex -7.50157 -11.8206 -16.5
    endloop
  endfacet
  facet normal -0.48176 -0.876303 0
    outer loop
      vertex -7.50157 -11.8206 -16.5
      vertex -5.96091 -12.6676 16.5
      vertex -7.50157 -11.8206 16.5
    endloop
  endfacet
  facet normal -0.48176 -0.876303 -0
    outer loop
      vertex -5.96091 -12.6676 16.5
      vertex -7.50157 -11.8206 -16.5
      vertex -5.96091 -12.6676 -16.5
    endloop
  endfacet
  facet normal -0.844316 -0.535845 0
    outer loop
      vertex -11.3262 -8.22899 -16.5
      vertex -12.2683 -6.74455 16.5
      vertex -12.2683 -6.74455 -16.5
    endloop
  endfacet
  facet normal -0.844316 -0.535845 0
    outer loop
      vertex -12.2683 -6.74455 16.5
      vertex -11.3262 -8.22899 -16.5
      vertex -11.3262 -8.22899 16.5
    endloop
  endfacet
  facet normal 0.587783 -0.809018 0
    outer loop
      vertex 7.50157 -11.8206 -16.5
      vertex 8.92393 -10.7872 16.5
      vertex 7.50157 -11.8206 16.5
    endloop
  endfacet
  facet normal 0.587783 -0.809018 0
    outer loop
      vertex 8.92393 -10.7872 16.5
      vertex 7.50157 -11.8206 -16.5
      vertex 8.92393 -10.7872 -16.5
    endloop
  endfacet
  facet normal -0.248674 -0.968587 0
    outer loop
      vertex -4.32624 -13.3148 -16.5
      vertex -2.62334 -13.752 16.5
      vertex -4.32624 -13.3148 16.5
    endloop
  endfacet
  facet normal -0.248674 -0.968587 -0
    outer loop
      vertex -2.62334 -13.752 16.5
      vertex -4.32624 -13.3148 -16.5
      vertex -2.62334 -13.752 -16.5
    endloop
  endfacet
  facet normal -0.998027 -0.0627883 0
    outer loop
      vertex 4 0 -16.5
      vertex 3.96846 0.501332 16.5
      vertex 3.96846 0.501332 -16.5
    endloop
  endfacet
  facet normal -0.998027 -0.0627883 0
    outer loop
      vertex 3.96846 0.501332 16.5
      vertex 4 0 -16.5
      vertex 4 0 16.5
    endloop
  endfacet
  facet normal 0.998027 -0.0627883 0
    outer loop
      vertex -4 0 16.5
      vertex -3.96846 0.501332 -16.5
      vertex -3.96846 0.501332 16.5
    endloop
  endfacet
  facet normal 0.998027 -0.0627883 0
    outer loop
      vertex -3.96846 0.501332 -16.5
      vertex -4 0 16.5
      vertex -4 0 -16.5
    endloop
  endfacet
  facet normal 0 -1 0
    outer loop
      vertex -0.251162 3.99211 -16.5
      vertex 0.251162 3.99211 16.5
      vertex -0.251162 3.99211 16.5
    endloop
  endfacet
  facet normal 0 -1 -0
    outer loop
      vertex 0.251162 3.99211 16.5
      vertex -0.251162 3.99211 -16.5
      vertex 0.251162 3.99211 -16.5
    endloop
  endfacet
  facet normal 0 1 -0
    outer loop
      vertex 0.251162 -3.99211 -16.5
      vertex -0.251162 -3.99211 16.5
      vertex 0.251162 -3.99211 16.5
    endloop
  endfacet
  facet normal 0 1 0
    outer loop
      vertex -0.251162 -3.99211 16.5
      vertex 0.251162 -3.99211 -16.5
      vertex -0.251162 -3.99211 -16.5
    endloop
  endfacet
  facet normal -0.684551 -0.728965 0
    outer loop
      vertex 2.5497 3.08205 -16.5
      vertex 2.91587 2.73819 16.5
      vertex 2.5497 3.08205 16.5
    endloop
  endfacet
  facet normal -0.684551 -0.728965 -0
    outer loop
      vertex 2.91587 2.73819 16.5
      vertex 2.5497 3.08205 -16.5
      vertex 2.91587 2.73819 -16.5
    endloop
  endfacet
  facet normal 0.684551 -0.728965 0
    outer loop
      vertex -2.91587 2.73819 -16.5
      vertex -2.5497 3.08205 16.5
      vertex -2.91587 2.73819 16.5
    endloop
  endfacet
  facet normal 0.684551 -0.728965 0
    outer loop
      vertex -2.5497 3.08205 16.5
      vertex -2.91587 2.73819 -16.5
      vertex -2.5497 3.08205 -16.5
    endloop
  endfacet
  facet normal 0.368128 -0.929775 0
    outer loop
      vertex -1.70312 3.61931 -16.5
      vertex -1.23607 3.80423 16.5
      vertex -1.70312 3.61931 16.5
    endloop
  endfacet
  facet normal 0.368128 -0.929775 0
    outer loop
      vertex -1.23607 3.80423 16.5
      vertex -1.70312 3.61931 -16.5
      vertex -1.23607 3.80423 -16.5
    endloop
  endfacet
  facet normal -0.904824 -0.425786 0
    outer loop
      vertex 3.71911 1.4725 -16.5
      vertex 3.50523 1.92701 16.5
      vertex 3.50523 1.92701 -16.5
    endloop
  endfacet
  facet normal -0.904824 -0.425786 0
    outer loop
      vertex 3.50523 1.92701 16.5
      vertex 3.71911 1.4725 -16.5
      vertex 3.71911 1.4725 16.5
    endloop
  endfacet
  facet normal -0.844329 -0.535825 0
    outer loop
      vertex 3.50523 1.92701 -16.5
      vertex 3.23607 2.35114 16.5
      vertex 3.23607 2.35114 -16.5
    endloop
  endfacet
  facet normal -0.844329 -0.535825 0
    outer loop
      vertex 3.23607 2.35114 16.5
      vertex 3.50523 1.92701 -16.5
      vertex 3.50523 1.92701 16.5
    endloop
  endfacet
  facet normal -0.368128 -0.929775 0
    outer loop
      vertex 1.23607 3.80423 -16.5
      vertex 1.70312 3.61931 16.5
      vertex 1.23607 3.80423 16.5
    endloop
  endfacet
  facet normal -0.368128 -0.929775 -0
    outer loop
      vertex 1.70312 3.61931 16.5
      vertex 1.23607 3.80423 -16.5
      vertex 1.70312 3.61931 -16.5
    endloop
  endfacet
  facet normal -0.248683 -0.968585 0
    outer loop
      vertex 0.749525 3.92915 -16.5
      vertex 1.23607 3.80423 16.5
      vertex 0.749525 3.92915 16.5
    endloop
  endfacet
  facet normal -0.248683 -0.968585 -0
    outer loop
      vertex 1.23607 3.80423 16.5
      vertex 0.749525 3.92915 -16.5
      vertex 1.23607 3.80423 -16.5
    endloop
  endfacet
  facet normal -0.587786 -0.809017 0
    outer loop
      vertex 2.14331 3.37731 -16.5
      vertex 2.5497 3.08205 16.5
      vertex 2.14331 3.37731 16.5
    endloop
  endfacet
  facet normal -0.587786 -0.809017 -0
    outer loop
      vertex 2.5497 3.08205 16.5
      vertex 2.14331 3.37731 -16.5
      vertex 2.5497 3.08205 -16.5
    endloop
  endfacet
  facet normal 0.844329 -0.535825 0
    outer loop
      vertex -3.50523 1.92701 16.5
      vertex -3.23607 2.35114 -16.5
      vertex -3.23607 2.35114 16.5
    endloop
  endfacet
  facet normal 0.844329 -0.535825 0
    outer loop
      vertex -3.23607 2.35114 -16.5
      vertex -3.50523 1.92701 16.5
      vertex -3.50523 1.92701 -16.5
    endloop
  endfacet
  facet normal 0.770509 -0.637429 0
    outer loop
      vertex -3.23607 2.35114 16.5
      vertex -2.91587 2.73819 -16.5
      vertex -2.91587 2.73819 16.5
    endloop
  endfacet
  facet normal 0.770509 -0.637429 0
    outer loop
      vertex -2.91587 2.73819 -16.5
      vertex -3.23607 2.35114 16.5
      vertex -3.23607 2.35114 -16.5
    endloop
  endfacet
  facet normal 0.951061 -0.309004 0
    outer loop
      vertex -3.87433 0.994759 16.5
      vertex -3.71911 1.4725 -16.5
      vertex -3.71911 1.4725 16.5
    endloop
  endfacet
  facet normal 0.951061 -0.309004 0
    outer loop
      vertex -3.71911 1.4725 -16.5
      vertex -3.87433 0.994759 16.5
      vertex -3.87433 0.994759 -16.5
    endloop
  endfacet
  facet normal 0.481759 -0.876304 0
    outer loop
      vertex -2.14331 3.37731 -16.5
      vertex -1.70312 3.61931 16.5
      vertex -2.14331 3.37731 16.5
    endloop
  endfacet
  facet normal 0.481759 -0.876304 0
    outer loop
      vertex -1.70312 3.61931 16.5
      vertex -2.14331 3.37731 -16.5
      vertex -1.70312 3.61931 -16.5
    endloop
  endfacet
  facet normal 0.248683 -0.968585 0
    outer loop
      vertex -1.23607 3.80423 -16.5
      vertex -0.749525 3.92915 16.5
      vertex -1.23607 3.80423 16.5
    endloop
  endfacet
  facet normal 0.248683 -0.968585 0
    outer loop
      vertex -0.749525 3.92915 16.5
      vertex -1.23607 3.80423 -16.5
      vertex -0.749525 3.92915 -16.5
    endloop
  endfacet
  facet normal -0.125337 0.992114 0
    outer loop
      vertex 0.749525 -3.92915 -16.5
      vertex 0.251162 -3.99211 16.5
      vertex 0.749525 -3.92915 16.5
    endloop
  endfacet
  facet normal -0.125337 0.992114 0
    outer loop
      vertex 0.251162 -3.99211 16.5
      vertex 0.749525 -3.92915 -16.5
      vertex 0.251162 -3.99211 -16.5
    endloop
  endfacet
  facet normal -0.951061 -0.309004 0
    outer loop
      vertex 3.87433 0.994759 -16.5
      vertex 3.71911 1.4725 16.5
      vertex 3.71911 1.4725 -16.5
    endloop
  endfacet
  facet normal -0.951061 -0.309004 0
    outer loop
      vertex 3.71911 1.4725 16.5
      vertex 3.87433 0.994759 -16.5
      vertex 3.87433 0.994759 16.5
    endloop
  endfacet
  facet normal -0.982286 -0.187389 0
    outer loop
      vertex 3.96846 0.501332 -16.5
      vertex 3.87433 0.994759 16.5
      vertex 3.87433 0.994759 -16.5
    endloop
  endfacet
  facet normal -0.982286 -0.187389 0
    outer loop
      vertex 3.87433 0.994759 16.5
      vertex 3.96846 0.501332 -16.5
      vertex 3.96846 0.501332 16.5
    endloop
  endfacet
  facet normal -0.770509 -0.637429 0
    outer loop
      vertex 3.23607 2.35114 -16.5
      vertex 2.91587 2.73819 16.5
      vertex 2.91587 2.73819 -16.5
    endloop
  endfacet
  facet normal -0.770509 -0.637429 0
    outer loop
      vertex 2.91587 2.73819 16.5
      vertex 3.23607 2.35114 -16.5
      vertex 3.23607 2.35114 16.5
    endloop
  endfacet
  facet normal -0.125337 -0.992114 0
    outer loop
      vertex 0.251162 3.99211 -16.5
      vertex 0.749525 3.92915 16.5
      vertex 0.251162 3.99211 16.5
    endloop
  endfacet
  facet normal -0.125337 -0.992114 -0
    outer loop
      vertex 0.749525 3.92915 16.5
      vertex 0.251162 3.99211 -16.5
      vertex 0.749525 3.92915 -16.5
    endloop
  endfacet
  facet normal -0.481759 -0.876304 0
    outer loop
      vertex 1.70312 3.61931 -16.5
      vertex 2.14331 3.37731 16.5
      vertex 1.70312 3.61931 16.5
    endloop
  endfacet
  facet normal -0.481759 -0.876304 -0
    outer loop
      vertex 2.14331 3.37731 16.5
      vertex 1.70312 3.61931 -16.5
      vertex 2.14331 3.37731 -16.5
    endloop
  endfacet
  facet normal 0.904824 -0.425786 0
    outer loop
      vertex -3.71911 1.4725 16.5
      vertex -3.50523 1.92701 -16.5
      vertex -3.50523 1.92701 16.5
    endloop
  endfacet
  facet normal 0.904824 -0.425786 0
    outer loop
      vertex -3.50523 1.92701 -16.5
      vertex -3.71911 1.4725 16.5
      vertex -3.71911 1.4725 -16.5
    endloop
  endfacet
  facet normal 0.982286 -0.187389 0
    outer loop
      vertex -3.96846 0.501332 16.5
      vertex -3.87433 0.994759 -16.5
      vertex -3.87433 0.994759 16.5
    endloop
  endfacet
  facet normal 0.982286 -0.187389 0
    outer loop
      vertex -3.87433 0.994759 -16.5
      vertex -3.96846 0.501332 16.5
      vertex -3.96846 0.501332 -16.5
    endloop
  endfacet
  facet normal 0.587786 -0.809017 0
    outer loop
      vertex -2.5497 3.08205 -16.5
      vertex -2.14331 3.37731 16.5
      vertex -2.5497 3.08205 16.5
    endloop
  endfacet
  facet normal 0.587786 -0.809017 0
    outer loop
      vertex -2.14331 3.37731 16.5
      vertex -2.5497 3.08205 -16.5
      vertex -2.14331 3.37731 -16.5
    endloop
  endfacet
  facet normal 0.125337 -0.992114 0
    outer loop
      vertex -0.749525 3.92915 -16.5
      vertex -0.251162 3.99211 16.5
      vertex -0.749525 3.92915 16.5
    endloop
  endfacet
  facet normal 0.125337 -0.992114 0
    outer loop
      vertex -0.251162 3.99211 16.5
      vertex -0.749525 3.92915 -16.5
      vertex -0.251162 3.99211 -16.5
    endloop
  endfacet
  facet normal -0.998027 0.0627883 0
    outer loop
      vertex 3.96846 -0.501332 -16.5
      vertex 4 0 16.5
      vertex 4 0 -16.5
    endloop
  endfacet
  facet normal -0.998027 0.0627883 0
    outer loop
      vertex 4 0 16.5
      vertex 3.96846 -0.501332 -16.5
      vertex 3.96846 -0.501332 16.5
    endloop
  endfacet
  facet normal -0.770509 0.637429 0
    outer loop
      vertex 2.91587 -2.73819 -16.5
      vertex 3.23607 -2.35114 16.5
      vertex 3.23607 -2.35114 -16.5
    endloop
  endfacet
  facet normal -0.770509 0.637429 0
    outer loop
      vertex 3.23607 -2.35114 16.5
      vertex 2.91587 -2.73819 -16.5
      vertex 2.91587 -2.73819 16.5
    endloop
  endfacet
  facet normal -0.951061 0.309004 0
    outer loop
      vertex 3.71911 -1.4725 -16.5
      vertex 3.87433 -0.994759 16.5
      vertex 3.87433 -0.994759 -16.5
    endloop
  endfacet
  facet normal -0.951061 0.309004 0
    outer loop
      vertex 3.87433 -0.994759 16.5
      vertex 3.71911 -1.4725 -16.5
      vertex 3.71911 -1.4725 16.5
    endloop
  endfacet
  facet normal -0.982286 0.187389 0
    outer loop
      vertex 3.87433 -0.994759 -16.5
      vertex 3.96846 -0.501332 16.5
      vertex 3.96846 -0.501332 -16.5
    endloop
  endfacet
  facet normal -0.982286 0.187389 0
    outer loop
      vertex 3.96846 -0.501332 16.5
      vertex 3.87433 -0.994759 -16.5
      vertex 3.87433 -0.994759 16.5
    endloop
  endfacet
  facet normal 0.368128 0.929775 -0
    outer loop
      vertex -1.23607 -3.80423 -16.5
      vertex -1.70312 -3.61931 16.5
      vertex -1.23607 -3.80423 16.5
    endloop
  endfacet
  facet normal 0.368128 0.929775 0
    outer loop
      vertex -1.70312 -3.61931 16.5
      vertex -1.23607 -3.80423 -16.5
      vertex -1.70312 -3.61931 -16.5
    endloop
  endfacet
  facet normal -0.368128 0.929775 0
    outer loop
      vertex 1.70312 -3.61931 -16.5
      vertex 1.23607 -3.80423 16.5
      vertex 1.70312 -3.61931 16.5
    endloop
  endfacet
  facet normal -0.368128 0.929775 0
    outer loop
      vertex 1.23607 -3.80423 16.5
      vertex 1.70312 -3.61931 -16.5
      vertex 1.23607 -3.80423 -16.5
    endloop
  endfacet
  facet normal -0.481759 0.876304 0
    outer loop
      vertex 2.14331 -3.37731 -16.5
      vertex 1.70312 -3.61931 16.5
      vertex 2.14331 -3.37731 16.5
    endloop
  endfacet
  facet normal -0.481759 0.876304 0
    outer loop
      vertex 1.70312 -3.61931 16.5
      vertex 2.14331 -3.37731 -16.5
      vertex 1.70312 -3.61931 -16.5
    endloop
  endfacet
  facet normal -0.844329 0.535825 0
    outer loop
      vertex 3.23607 -2.35114 -16.5
      vertex 3.50523 -1.92701 16.5
      vertex 3.50523 -1.92701 -16.5
    endloop
  endfacet
  facet normal -0.844329 0.535825 0
    outer loop
      vertex 3.50523 -1.92701 16.5
      vertex 3.23607 -2.35114 -16.5
      vertex 3.23607 -2.35114 16.5
    endloop
  endfacet
  facet normal 0.248683 0.968585 -0
    outer loop
      vertex -0.749525 -3.92915 -16.5
      vertex -1.23607 -3.80423 16.5
      vertex -0.749525 -3.92915 16.5
    endloop
  endfacet
  facet normal 0.248683 0.968585 0
    outer loop
      vertex -1.23607 -3.80423 16.5
      vertex -0.749525 -3.92915 -16.5
      vertex -1.23607 -3.80423 -16.5
    endloop
  endfacet
  facet normal 0.770509 0.637429 0
    outer loop
      vertex -2.91587 -2.73819 16.5
      vertex -3.23607 -2.35114 -16.5
      vertex -3.23607 -2.35114 16.5
    endloop
  endfacet
  facet normal 0.770509 0.637429 0
    outer loop
      vertex -3.23607 -2.35114 -16.5
      vertex -2.91587 -2.73819 16.5
      vertex -2.91587 -2.73819 -16.5
    endloop
  endfacet
  facet normal 0.904824 0.425786 0
    outer loop
      vertex -3.50523 -1.92701 16.5
      vertex -3.71911 -1.4725 -16.5
      vertex -3.71911 -1.4725 16.5
    endloop
  endfacet
  facet normal 0.904824 0.425786 0
    outer loop
      vertex -3.71911 -1.4725 -16.5
      vertex -3.50523 -1.92701 16.5
      vertex -3.50523 -1.92701 -16.5
    endloop
  endfacet
  facet normal 0.951061 0.309004 0
    outer loop
      vertex -3.71911 -1.4725 16.5
      vertex -3.87433 -0.994759 -16.5
      vertex -3.87433 -0.994759 16.5
    endloop
  endfacet
  facet normal 0.951061 0.309004 0
    outer loop
      vertex -3.87433 -0.994759 -16.5
      vertex -3.71911 -1.4725 16.5
      vertex -3.71911 -1.4725 -16.5
    endloop
  endfacet
  facet normal 0.998027 0.0627883 0
    outer loop
      vertex -3.96846 -0.501332 16.5
      vertex -4 0 -16.5
      vertex -4 0 16.5
    endloop
  endfacet
  facet normal 0.998027 0.0627883 0
    outer loop
      vertex -4 0 -16.5
      vertex -3.96846 -0.501332 16.5
      vertex -3.96846 -0.501332 -16.5
    endloop
  endfacet
  facet normal -0.248683 0.968585 0
    outer loop
      vertex 1.23607 -3.80423 -16.5
      vertex 0.749525 -3.92915 16.5
      vertex 1.23607 -3.80423 16.5
    endloop
  endfacet
  facet normal -0.248683 0.968585 0
    outer loop
      vertex 0.749525 -3.92915 16.5
      vertex 1.23607 -3.80423 -16.5
      vertex 0.749525 -3.92915 -16.5
    endloop
  endfacet
  facet normal -0.684551 0.728965 0
    outer loop
      vertex 2.91587 -2.73819 -16.5
      vertex 2.5497 -3.08205 16.5
      vertex 2.91587 -2.73819 16.5
    endloop
  endfacet
  facet normal -0.684551 0.728965 0
    outer loop
      vertex 2.5497 -3.08205 16.5
      vertex 2.91587 -2.73819 -16.5
      vertex 2.5497 -3.08205 -16.5
    endloop
  endfacet
  facet normal -0.587786 0.809017 0
    outer loop
      vertex 2.5497 -3.08205 -16.5
      vertex 2.14331 -3.37731 16.5
      vertex 2.5497 -3.08205 16.5
    endloop
  endfacet
  facet normal -0.587786 0.809017 0
    outer loop
      vertex 2.14331 -3.37731 16.5
      vertex 2.5497 -3.08205 -16.5
      vertex 2.14331 -3.37731 -16.5
    endloop
  endfacet
  facet normal -0.904824 0.425786 0
    outer loop
      vertex 3.50523 -1.92701 -16.5
      vertex 3.71911 -1.4725 16.5
      vertex 3.71911 -1.4725 -16.5
    endloop
  endfacet
  facet normal -0.904824 0.425786 0
    outer loop
      vertex 3.71911 -1.4725 16.5
      vertex 3.50523 -1.92701 -16.5
      vertex 3.50523 -1.92701 16.5
    endloop
  endfacet
  facet normal 0.125337 0.992114 -0
    outer loop
      vertex -0.251162 -3.99211 -16.5
      vertex -0.749525 -3.92915 16.5
      vertex -0.251162 -3.99211 16.5
    endloop
  endfacet
  facet normal 0.125337 0.992114 0
    outer loop
      vertex -0.749525 -3.92915 16.5
      vertex -0.251162 -3.99211 -16.5
      vertex -0.749525 -3.92915 -16.5
    endloop
  endfacet
  facet normal 0.481759 0.876304 -0
    outer loop
      vertex -1.70312 -3.61931 -16.5
      vertex -2.14331 -3.37731 16.5
      vertex -1.70312 -3.61931 16.5
    endloop
  endfacet
  facet normal 0.481759 0.876304 0
    outer loop
      vertex -2.14331 -3.37731 16.5
      vertex -1.70312 -3.61931 -16.5
      vertex -2.14331 -3.37731 -16.5
    endloop
  endfacet
  facet normal 0.844329 0.535825 0
    outer loop
      vertex -3.23607 -2.35114 16.5
      vertex -3.50523 -1.92701 -16.5
      vertex -3.50523 -1.92701 16.5
    endloop
  endfacet
  facet normal 0.844329 0.535825 0
    outer loop
      vertex -3.50523 -1.92701 -16.5
      vertex -3.23607 -2.35114 16.5
      vertex -3.23607 -2.35114 -16.5
    endloop
  endfacet
  facet normal 0.982286 0.187389 0
    outer loop
      vertex -3.87433 -0.994759 16.5
      vertex -3.96846 -0.501332 -16.5
      vertex -3.96846 -0.501332 16.5
    endloop
  endfacet
  facet normal 0.982286 0.187389 0
    outer loop
      vertex -3.96846 -0.501332 -16.5
      vertex -3.87433 -0.994759 16.5
      vertex -3.87433 -0.994759 -16.5
    endloop
  endfacet
  facet normal 0.684551 0.728965 -0
    outer loop
      vertex -2.5497 -3.08205 -16.5
      vertex -2.91587 -2.73819 16.5
      vertex -2.5497 -3.08205 16.5
    endloop
  endfacet
  facet normal 0.684551 0.728965 0
    outer loop
      vertex -2.91587 -2.73819 16.5
      vertex -2.5497 -3.08205 -16.5
      vertex -2.91587 -2.73819 -16.5
    endloop
  endfacet
  facet normal 0.587786 0.809017 -0
    outer loop
      vertex -2.14331 -3.37731 -16.5
      vertex -2.5497 -3.08205 16.5
      vertex -2.14331 -3.37731 16.5
    endloop
  endfacet
  facet normal 0.587786 0.809017 0
    outer loop
      vertex -2.5497 -3.08205 16.5
      vertex -2.14331 -3.37731 -16.5
      vertex -2.5497 -3.08205 -16.5
    endloop
  endfacet
endsolid OpenSCAD_Model
