solid OpenSCAD_Model
  facet normal 0.998026 0.0627973 0
    outer loop
      vertex 6.5 0 9
      vertex 6.44874 0.814666 -9
      vertex 6.44874 0.814666 9
    endloop
  endfacet
  facet normal 0.998026 0.0627973 0
    outer loop
      vertex 6.44874 0.814666 -9
      vertex 6.5 0 9
      vertex 6.5 0 -9
    endloop
  endfacet
  facet normal -0.998026 0.0627973 0
    outer loop
      vertex -6.5 0 -9
      vertex -6.44874 0.814666 9
      vertex -6.44874 0.814666 -9
    endloop
  endfacet
  facet normal -0.998026 0.0627973 0
    outer loop
      vertex -6.44874 0.814666 9
      vertex -6.5 0 -9
      vertex -6.5 0 9
    endloop
  endfacet
  facet normal 0 1 -0
    outer loop
      vertex 0.408138 6.48717 -9
      vertex -0.408138 6.48717 9
      vertex 0.408138 6.48717 9
    endloop
  endfacet
  facet normal 0 1 0
    outer loop
      vertex -0.408138 6.48717 9
      vertex 0.408138 6.48717 -9
      vertex -0.408138 6.48717 -9
    endloop
  endfacet
  facet normal 0 -1 0
    outer loop
      vertex -0.408138 -6.48717 -9
      vertex 0.408138 -6.48717 9
      vertex -0.408138 -6.48717 9
    endloop
  endfacet
  facet normal 0 -1 -0
    outer loop
      vertex 0.408138 -6.48717 9
      vertex -0.408138 -6.48717 -9
      vertex 0.408138 -6.48717 -9
    endloop
  endfacet
  facet normal 0.684547 0.728968 -0
    outer loop
      vertex 4.7383 4.44956 -9
      vertex 4.14326 5.00834 9
      vertex 4.7383 4.44956 9
    endloop
  endfacet
  facet normal 0.684547 0.728968 0
    outer loop
      vertex 4.14326 5.00834 9
      vertex 4.7383 4.44956 -9
      vertex 4.14326 5.00834 -9
    endloop
  endfacet
  facet normal -0.684547 0.728968 0
    outer loop
      vertex -4.14326 5.00834 -9
      vertex -4.7383 4.44956 9
      vertex -4.14326 5.00834 9
    endloop
  endfacet
  facet normal -0.684547 0.728968 0
    outer loop
      vertex -4.7383 4.44956 9
      vertex -4.14326 5.00834 -9
      vertex -4.7383 4.44956 -9
    endloop
  endfacet
  facet normal -0.368125 0.929776 0
    outer loop
      vertex -2.00861 6.18187 -9
      vertex -2.76756 5.88138 9
      vertex -2.00861 6.18187 9
    endloop
  endfacet
  facet normal -0.368125 0.929776 0
    outer loop
      vertex -2.76756 5.88138 9
      vertex -2.00861 6.18187 -9
      vertex -2.76756 5.88138 -9
    endloop
  endfacet
  facet normal 0.904824 0.425785 0
    outer loop
      vertex 6.04355 2.39281 9
      vertex 5.69599 3.1314 -9
      vertex 5.69599 3.1314 9
    endloop
  endfacet
  facet normal 0.904824 0.425785 0
    outer loop
      vertex 5.69599 3.1314 -9
      vertex 6.04355 2.39281 9
      vertex 6.04355 2.39281 -9
    endloop
  endfacet
  facet normal 0.844328 0.535827 0
    outer loop
      vertex 5.69599 3.1314 9
      vertex 5.25861 3.8206 -9
      vertex 5.25861 3.8206 9
    endloop
  endfacet
  facet normal 0.844328 0.535827 0
    outer loop
      vertex 5.25861 3.8206 -9
      vertex 5.69599 3.1314 9
      vertex 5.69599 3.1314 -9
    endloop
  endfacet
  facet normal 0.368125 0.929776 -0
    outer loop
      vertex 2.76756 5.88138 -9
      vertex 2.00861 6.18187 9
      vertex 2.76756 5.88138 9
    endloop
  endfacet
  facet normal 0.368125 0.929776 0
    outer loop
      vertex 2.00861 6.18187 9
      vertex 2.76756 5.88138 -9
      vertex 2.00861 6.18187 -9
    endloop
  endfacet
  facet normal 0.248691 0.968583 -0
    outer loop
      vertex 2.00861 6.18187 -9
      vertex 1.21798 6.38487 9
      vertex 2.00861 6.18187 9
    endloop
  endfacet
  facet normal 0.248691 0.968583 0
    outer loop
      vertex 1.21798 6.38487 9
      vertex 2.00861 6.18187 -9
      vertex 1.21798 6.38487 -9
    endloop
  endfacet
  facet normal 0.481758 0.876304 -0
    outer loop
      vertex 3.48287 5.48813 -9
      vertex 2.76756 5.88138 9
      vertex 3.48287 5.48813 9
    endloop
  endfacet
  facet normal 0.481758 0.876304 0
    outer loop
      vertex 2.76756 5.88138 9
      vertex 3.48287 5.48813 -9
      vertex 2.76756 5.88138 -9
    endloop
  endfacet
  facet normal -0.844328 0.535827 0
    outer loop
      vertex -5.69599 3.1314 -9
      vertex -5.25861 3.8206 9
      vertex -5.25861 3.8206 -9
    endloop
  endfacet
  facet normal -0.844328 0.535827 0
    outer loop
      vertex -5.25861 3.8206 9
      vertex -5.69599 3.1314 -9
      vertex -5.69599 3.1314 9
    endloop
  endfacet
  facet normal -0.77052 0.637416 0
    outer loop
      vertex -5.25861 3.8206 -9
      vertex -4.7383 4.44956 9
      vertex -4.7383 4.44956 -9
    endloop
  endfacet
  facet normal -0.77052 0.637416 0
    outer loop
      vertex -4.7383 4.44956 9
      vertex -5.25861 3.8206 -9
      vertex -5.25861 3.8206 9
    endloop
  endfacet
  facet normal -0.951058 0.309012 0
    outer loop
      vertex -6.29579 1.61648 -9
      vertex -6.04355 2.39281 9
      vertex -6.04355 2.39281 -9
    endloop
  endfacet
  facet normal -0.951058 0.309012 0
    outer loop
      vertex -6.04355 2.39281 9
      vertex -6.29579 1.61648 -9
      vertex -6.29579 1.61648 9
    endloop
  endfacet
  facet normal -0.587776 0.809024 0
    outer loop
      vertex -3.48287 5.48813 -9
      vertex -4.14326 5.00834 9
      vertex -3.48287 5.48813 9
    endloop
  endfacet
  facet normal -0.587776 0.809024 0
    outer loop
      vertex -4.14326 5.00834 9
      vertex -3.48287 5.48813 -9
      vertex -4.14326 5.00834 -9
    endloop
  endfacet
  facet normal -0.125325 0.992116 0
    outer loop
      vertex -0.408138 6.48717 -9
      vertex -1.21798 6.38487 9
      vertex -0.408138 6.48717 9
    endloop
  endfacet
  facet normal -0.125325 0.992116 0
    outer loop
      vertex -1.21798 6.38487 9
      vertex -0.408138 6.48717 -9
      vertex -1.21798 6.38487 -9
    endloop
  endfacet
  facet normal 0.125325 -0.992116 0
    outer loop
      vertex 0.408138 -6.48717 -9
      vertex 1.21798 -6.38487 9
      vertex 0.408138 -6.48717 9
    endloop
  endfacet
  facet normal 0.125325 -0.992116 0
    outer loop
      vertex 1.21798 -6.38487 9
      vertex 0.408138 -6.48717 -9
      vertex 1.21798 -6.38487 -9
    endloop
  endfacet
  facet normal 0.951058 0.309012 0
    outer loop
      vertex 6.29579 1.61648 9
      vertex 6.04355 2.39281 -9
      vertex 6.04355 2.39281 9
    endloop
  endfacet
  facet normal 0.951058 0.309012 0
    outer loop
      vertex 6.04355 2.39281 -9
      vertex 6.29579 1.61648 9
      vertex 6.29579 1.61648 -9
    endloop
  endfacet
  facet normal 0.982288 0.187376 0
    outer loop
      vertex 6.44874 0.814666 9
      vertex 6.29579 1.61648 -9
      vertex 6.29579 1.61648 9
    endloop
  endfacet
  facet normal 0.982288 0.187376 0
    outer loop
      vertex 6.29579 1.61648 -9
      vertex 6.44874 0.814666 9
      vertex 6.44874 0.814666 -9
    endloop
  endfacet
  facet normal 0.77052 0.637416 0
    outer loop
      vertex 5.25861 3.8206 9
      vertex 4.7383 4.44956 -9
      vertex 4.7383 4.44956 9
    endloop
  endfacet
  facet normal 0.77052 0.637416 0
    outer loop
      vertex 4.7383 4.44956 -9
      vertex 5.25861 3.8206 9
      vertex 5.25861 3.8206 -9
    endloop
  endfacet
  facet normal 0.125325 0.992116 -0
    outer loop
      vertex 1.21798 6.38487 -9
      vertex 0.408138 6.48717 9
      vertex 1.21798 6.38487 9
    endloop
  endfacet
  facet normal 0.125325 0.992116 0
    outer loop
      vertex 0.408138 6.48717 9
      vertex 1.21798 6.38487 -9
      vertex 0.408138 6.48717 -9
    endloop
  endfacet
  facet normal 0.587776 0.809024 -0
    outer loop
      vertex 4.14326 5.00834 -9
      vertex 3.48287 5.48813 9
      vertex 4.14326 5.00834 9
    endloop
  endfacet
  facet normal 0.587776 0.809024 0
    outer loop
      vertex 3.48287 5.48813 9
      vertex 4.14326 5.00834 -9
      vertex 3.48287 5.48813 -9
    endloop
  endfacet
  facet normal -0.904824 0.425785 0
    outer loop
      vertex -6.04355 2.39281 -9
      vertex -5.69599 3.1314 9
      vertex -5.69599 3.1314 -9
    endloop
  endfacet
  facet normal -0.904824 0.425785 0
    outer loop
      vertex -5.69599 3.1314 9
      vertex -6.04355 2.39281 -9
      vertex -6.04355 2.39281 9
    endloop
  endfacet
  facet normal -0.982288 0.187376 0
    outer loop
      vertex -6.44874 0.814666 -9
      vertex -6.29579 1.61648 9
      vertex -6.29579 1.61648 -9
    endloop
  endfacet
  facet normal -0.982288 0.187376 0
    outer loop
      vertex -6.29579 1.61648 9
      vertex -6.44874 0.814666 -9
      vertex -6.44874 0.814666 9
    endloop
  endfacet
  facet normal 0 0 1
    outer loop
      vertex 2.75 0 9
      vertex 6.5 0 9
      vertex 6.44874 0.814666 9
    endloop
  endfacet
  facet normal 0 0 1
    outer loop
      vertex 2.72832 0.344666 9
      vertex 6.44874 0.814666 9
      vertex 6.29579 1.61648 9
    endloop
  endfacet
  facet normal 0 0 1
    outer loop
      vertex 6.5 0 9
      vertex 2.75 0 9
      vertex 6.44874 -0.814666 9
    endloop
  endfacet
  facet normal 0 0 1
    outer loop
      vertex 2.6636 0.683897 9
      vertex 6.29579 1.61648 9
      vertex 6.04355 2.39281 9
    endloop
  endfacet
  facet normal -0 0 1
    outer loop
      vertex 2.72832 -0.344666 9
      vertex 6.44874 -0.814666 9
      vertex 2.75 0 9
    endloop
  endfacet
  facet normal 0 0 1
    outer loop
      vertex 2.55688 1.01234 9
      vertex 6.04355 2.39281 9
      vertex 5.69599 3.1314 9
    endloop
  endfacet
  facet normal 0 0 1
    outer loop
      vertex 6.44874 -0.814666 9
      vertex 2.72832 -0.344666 9
      vertex 6.29579 -1.61648 9
    endloop
  endfacet
  facet normal 0 0 1
    outer loop
      vertex 2.40984 1.32482 9
      vertex 5.69599 3.1314 9
      vertex 5.25861 3.8206 9
    endloop
  endfacet
  facet normal -0 0 1
    outer loop
      vertex 2.6636 -0.683897 9
      vertex 6.29579 -1.61648 9
      vertex 2.72832 -0.344666 9
    endloop
  endfacet
  facet normal 0 0 1
    outer loop
      vertex 2.2248 1.61641 9
      vertex 5.25861 3.8206 9
      vertex 4.7383 4.44956 9
    endloop
  endfacet
  facet normal 0 0 1
    outer loop
      vertex 6.29579 -1.61648 9
      vertex 2.6636 -0.683897 9
      vertex 6.04355 -2.39281 9
    endloop
  endfacet
  facet normal 0 0 1
    outer loop
      vertex 2.00466 1.8825 9
      vertex 4.7383 4.44956 9
      vertex 4.14326 5.00834 9
    endloop
  endfacet
  facet normal -0 0 1
    outer loop
      vertex 2.55688 -1.01234 9
      vertex 6.04355 -2.39281 9
      vertex 2.6636 -0.683897 9
    endloop
  endfacet
  facet normal 0 0 1
    outer loop
      vertex 1.75292 2.11891 9
      vertex 4.14326 5.00834 9
      vertex 3.48287 5.48813 9
    endloop
  endfacet
  facet normal 0 0 1
    outer loop
      vertex 6.04355 -2.39281 9
      vertex 2.55688 -1.01234 9
      vertex 5.69599 -3.1314 9
    endloop
  endfacet
  facet normal 0 0 1
    outer loop
      vertex 1.47352 2.3219 9
      vertex 3.48287 5.48813 9
      vertex 2.76756 5.88138 9
    endloop
  endfacet
  facet normal -0 0 1
    outer loop
      vertex 2.40984 -1.32482 9
      vertex 5.69599 -3.1314 9
      vertex 2.55688 -1.01234 9
    endloop
  endfacet
  facet normal 0 0 1
    outer loop
      vertex 5.69599 -3.1314 9
      vertex 2.40984 -1.32482 9
      vertex 5.25861 -3.8206 9
    endloop
  endfacet
  facet normal 0 0 1
    outer loop
      vertex 6.44874 0.814666 9
      vertex 2.72832 0.344666 9
      vertex 2.75 0 9
    endloop
  endfacet
  facet normal 0 0 1
    outer loop
      vertex 6.29579 1.61648 9
      vertex 2.6636 0.683897 9
      vertex 2.72832 0.344666 9
    endloop
  endfacet
  facet normal 0 0 1
    outer loop
      vertex 6.04355 2.39281 9
      vertex 2.55688 1.01234 9
      vertex 2.6636 0.683897 9
    endloop
  endfacet
  facet normal 0 0 1
    outer loop
      vertex 5.69599 3.1314 9
      vertex 2.40984 1.32482 9
      vertex 2.55688 1.01234 9
    endloop
  endfacet
  facet normal 0 0 1
    outer loop
      vertex 5.25861 3.8206 9
      vertex 2.2248 1.61641 9
      vertex 2.40984 1.32482 9
    endloop
  endfacet
  facet normal 0 0 1
    outer loop
      vertex 1.17089 2.48827 9
      vertex 2.76756 5.88138 9
      vertex 2.00861 6.18187 9
    endloop
  endfacet
  facet normal 0 0 1
    outer loop
      vertex 4.7383 4.44956 9
      vertex 2.00466 1.8825 9
      vertex 2.2248 1.61641 9
    endloop
  endfacet
  facet normal 0 0 1
    outer loop
      vertex 4.14326 5.00834 9
      vertex 1.75292 2.11891 9
      vertex 2.00466 1.8825 9
    endloop
  endfacet
  facet normal 0 0 1
    outer loop
      vertex 3.48287 5.48813 9
      vertex 1.47352 2.3219 9
      vertex 1.75292 2.11891 9
    endloop
  endfacet
  facet normal 0 0 1
    outer loop
      vertex 0.849796 2.61541 9
      vertex 2.00861 6.18187 9
      vertex 1.21798 6.38487 9
    endloop
  endfacet
  facet normal 0 0 1
    outer loop
      vertex 2.76756 5.88138 9
      vertex 1.17089 2.48827 9
      vertex 1.47352 2.3219 9
    endloop
  endfacet
  facet normal 0 0 1
    outer loop
      vertex 2.00861 6.18187 9
      vertex 0.849796 2.61541 9
      vertex 1.17089 2.48827 9
    endloop
  endfacet
  facet normal 0 0 1
    outer loop
      vertex 1.21798 6.38487 9
      vertex 0.515298 2.70129 9
      vertex 0.849796 2.61541 9
    endloop
  endfacet
  facet normal 0 0 1
    outer loop
      vertex 0.408138 6.48717 9
      vertex 0.515298 2.70129 9
      vertex 1.21798 6.38487 9
    endloop
  endfacet
  facet normal 0 0 1
    outer loop
      vertex 0.408138 6.48717 9
      vertex 0.172673 2.74457 9
      vertex 0.515298 2.70129 9
    endloop
  endfacet
  facet normal 0 0 1
    outer loop
      vertex 0.408138 6.48717 9
      vertex -0.172673 2.74457 9
      vertex 0.172673 2.74457 9
    endloop
  endfacet
  facet normal -0 0 1
    outer loop
      vertex -0.408138 6.48717 9
      vertex -0.172673 2.74457 9
      vertex 0.408138 6.48717 9
    endloop
  endfacet
  facet normal 0 0 1
    outer loop
      vertex -0.408138 6.48717 9
      vertex -0.515298 2.70129 9
      vertex -0.172673 2.74457 9
    endloop
  endfacet
  facet normal -0 0 1
    outer loop
      vertex -1.21798 6.38487 9
      vertex -0.515298 2.70129 9
      vertex -0.408138 6.48717 9
    endloop
  endfacet
  facet normal 0 0 1
    outer loop
      vertex -0.515298 2.70129 9
      vertex -1.21798 6.38487 9
      vertex -0.849796 2.61541 9
    endloop
  endfacet
  facet normal -0 0 1
    outer loop
      vertex -2.00861 6.18187 9
      vertex -0.849796 2.61541 9
      vertex -1.21798 6.38487 9
    endloop
  endfacet
  facet normal 0 0 1
    outer loop
      vertex -0.849796 2.61541 9
      vertex -2.00861 6.18187 9
      vertex -1.17089 2.48827 9
    endloop
  endfacet
  facet normal -0 0 1
    outer loop
      vertex -2.76756 5.88138 9
      vertex -1.17089 2.48827 9
      vertex -2.00861 6.18187 9
    endloop
  endfacet
  facet normal 0 0 1
    outer loop
      vertex -1.17089 2.48827 9
      vertex -2.76756 5.88138 9
      vertex -1.47352 2.3219 9
    endloop
  endfacet
  facet normal -0 0 1
    outer loop
      vertex -3.48287 5.48813 9
      vertex -1.47352 2.3219 9
      vertex -2.76756 5.88138 9
    endloop
  endfacet
  facet normal 0 0 1
    outer loop
      vertex -1.47352 2.3219 9
      vertex -3.48287 5.48813 9
      vertex -1.75292 2.11891 9
    endloop
  endfacet
  facet normal -0 0 1
    outer loop
      vertex -4.14326 5.00834 9
      vertex -1.75292 2.11891 9
      vertex -3.48287 5.48813 9
    endloop
  endfacet
  facet normal 0 0 1
    outer loop
      vertex -1.75292 2.11891 9
      vertex -4.14326 5.00834 9
      vertex -2.00466 1.8825 9
    endloop
  endfacet
  facet normal -0 0 1
    outer loop
      vertex -4.7383 4.44956 9
      vertex -2.00466 1.8825 9
      vertex -4.14326 5.00834 9
    endloop
  endfacet
  facet normal 0 0 1
    outer loop
      vertex -2.00466 1.8825 9
      vertex -4.7383 4.44956 9
      vertex -2.2248 1.61641 9
    endloop
  endfacet
  facet normal 0 0 1
    outer loop
      vertex -2.2248 1.61641 9
      vertex -5.25861 3.8206 9
      vertex -2.40984 1.32482 9
    endloop
  endfacet
  facet normal -0 0 1
    outer loop
      vertex -5.25861 3.8206 9
      vertex -2.2248 1.61641 9
      vertex -4.7383 4.44956 9
    endloop
  endfacet
  facet normal -0 0 1
    outer loop
      vertex 2.2248 -1.61641 9
      vertex 5.25861 -3.8206 9
      vertex 2.40984 -1.32482 9
    endloop
  endfacet
  facet normal 0 0 1
    outer loop
      vertex 5.25861 -3.8206 9
      vertex 2.2248 -1.61641 9
      vertex 4.7383 -4.44956 9
    endloop
  endfacet
  facet normal -0 0 1
    outer loop
      vertex 2.00466 -1.8825 9
      vertex 4.7383 -4.44956 9
      vertex 2.2248 -1.61641 9
    endloop
  endfacet
  facet normal 0 0 1
    outer loop
      vertex 4.7383 -4.44956 9
      vertex 2.00466 -1.8825 9
      vertex 4.14326 -5.00834 9
    endloop
  endfacet
  facet normal -0 0 1
    outer loop
      vertex 1.75292 -2.11891 9
      vertex 4.14326 -5.00834 9
      vertex 2.00466 -1.8825 9
    endloop
  endfacet
  facet normal 0 0 1
    outer loop
      vertex 4.14326 -5.00834 9
      vertex 1.75292 -2.11891 9
      vertex 3.48287 -5.48813 9
    endloop
  endfacet
  facet normal -0 0 1
    outer loop
      vertex 1.47352 -2.3219 9
      vertex 3.48287 -5.48813 9
      vertex 1.75292 -2.11891 9
    endloop
  endfacet
  facet normal 0 0 1
    outer loop
      vertex 3.48287 -5.48813 9
      vertex 1.47352 -2.3219 9
      vertex 2.76756 -5.88138 9
    endloop
  endfacet
  facet normal -0 0 1
    outer loop
      vertex 1.17089 -2.48827 9
      vertex 2.76756 -5.88138 9
      vertex 1.47352 -2.3219 9
    endloop
  endfacet
  facet normal 0 0 1
    outer loop
      vertex 2.76756 -5.88138 9
      vertex 1.17089 -2.48827 9
      vertex 2.00861 -6.18187 9
    endloop
  endfacet
  facet normal -0 0 1
    outer loop
      vertex 0.849796 -2.61541 9
      vertex 2.00861 -6.18187 9
      vertex 1.17089 -2.48827 9
    endloop
  endfacet
  facet normal 0 0 1
    outer loop
      vertex 2.00861 -6.18187 9
      vertex 0.849796 -2.61541 9
      vertex 1.21798 -6.38487 9
    endloop
  endfacet
  facet normal -0 0 1
    outer loop
      vertex 0.515298 -2.70129 9
      vertex 1.21798 -6.38487 9
      vertex 0.849796 -2.61541 9
    endloop
  endfacet
  facet normal 0 0 1
    outer loop
      vertex 0.515298 -2.70129 9
      vertex 0.408138 -6.48717 9
      vertex 1.21798 -6.38487 9
    endloop
  endfacet
  facet normal -0 0 1
    outer loop
      vertex 0.172673 -2.74457 9
      vertex 0.408138 -6.48717 9
      vertex 0.515298 -2.70129 9
    endloop
  endfacet
  facet normal -0 0 1
    outer loop
      vertex -0.172673 -2.74457 9
      vertex 0.408138 -6.48717 9
      vertex 0.172673 -2.74457 9
    endloop
  endfacet
  facet normal 0 0 1
    outer loop
      vertex -0.172673 -2.74457 9
      vertex -0.408138 -6.48717 9
      vertex 0.408138 -6.48717 9
    endloop
  endfacet
  facet normal 0 0 1
    outer loop
      vertex -0.515298 -2.70129 9
      vertex -0.408138 -6.48717 9
      vertex -0.172673 -2.74457 9
    endloop
  endfacet
  facet normal 0 0 1
    outer loop
      vertex -1.21798 -6.38487 9
      vertex -0.515298 -2.70129 9
      vertex -0.849796 -2.61541 9
    endloop
  endfacet
  facet normal 0 0 1
    outer loop
      vertex -2.00861 -6.18187 9
      vertex -0.849796 -2.61541 9
      vertex -1.17089 -2.48827 9
    endloop
  endfacet
  facet normal 0 0 1
    outer loop
      vertex -0.515298 -2.70129 9
      vertex -1.21798 -6.38487 9
      vertex -0.408138 -6.48717 9
    endloop
  endfacet
  facet normal 0 0 1
    outer loop
      vertex -2.76756 -5.88138 9
      vertex -1.17089 -2.48827 9
      vertex -1.47352 -2.3219 9
    endloop
  endfacet
  facet normal 0 0 1
    outer loop
      vertex -3.48287 -5.48813 9
      vertex -1.47352 -2.3219 9
      vertex -1.75292 -2.11891 9
    endloop
  endfacet
  facet normal 0 0 1
    outer loop
      vertex -4.14326 -5.00834 9
      vertex -1.75292 -2.11891 9
      vertex -2.00466 -1.8825 9
    endloop
  endfacet
  facet normal 0 0 1
    outer loop
      vertex -0.849796 -2.61541 9
      vertex -2.00861 -6.18187 9
      vertex -1.21798 -6.38487 9
    endloop
  endfacet
  facet normal 0 0 1
    outer loop
      vertex -4.7383 -4.44956 9
      vertex -2.00466 -1.8825 9
      vertex -2.2248 -1.61641 9
    endloop
  endfacet
  facet normal 0 0 1
    outer loop
      vertex -5.25861 -3.8206 9
      vertex -2.2248 -1.61641 9
      vertex -2.40984 -1.32482 9
    endloop
  endfacet
  facet normal 0 0 1
    outer loop
      vertex -5.69599 -3.1314 9
      vertex -2.40984 -1.32482 9
      vertex -2.55688 -1.01234 9
    endloop
  endfacet
  facet normal 0 0 1
    outer loop
      vertex -6.04355 -2.39281 9
      vertex -2.55688 -1.01234 9
      vertex -2.6636 -0.683897 9
    endloop
  endfacet
  facet normal 0 0 1
    outer loop
      vertex -6.29579 -1.61648 9
      vertex -2.6636 -0.683897 9
      vertex -2.72832 -0.344666 9
    endloop
  endfacet
  facet normal 0 0 1
    outer loop
      vertex -1.17089 -2.48827 9
      vertex -2.76756 -5.88138 9
      vertex -2.00861 -6.18187 9
    endloop
  endfacet
  facet normal 0 0 1
    outer loop
      vertex -6.44874 -0.814666 9
      vertex -2.72832 -0.344666 9
      vertex -2.75 0 9
    endloop
  endfacet
  facet normal -0 0 1
    outer loop
      vertex -5.69599 3.1314 9
      vertex -2.40984 1.32482 9
      vertex -5.25861 3.8206 9
    endloop
  endfacet
  facet normal 0 0 1
    outer loop
      vertex -2.40984 1.32482 9
      vertex -5.69599 3.1314 9
      vertex -2.55688 1.01234 9
    endloop
  endfacet
  facet normal 0 0 1
    outer loop
      vertex -1.47352 -2.3219 9
      vertex -3.48287 -5.48813 9
      vertex -2.76756 -5.88138 9
    endloop
  endfacet
  facet normal -0 0 1
    outer loop
      vertex -6.04355 2.39281 9
      vertex -2.55688 1.01234 9
      vertex -5.69599 3.1314 9
    endloop
  endfacet
  facet normal 0 0 1
    outer loop
      vertex -1.75292 -2.11891 9
      vertex -4.14326 -5.00834 9
      vertex -3.48287 -5.48813 9
    endloop
  endfacet
  facet normal 0 0 1
    outer loop
      vertex -2.55688 1.01234 9
      vertex -6.04355 2.39281 9
      vertex -2.6636 0.683897 9
    endloop
  endfacet
  facet normal 0 0 1
    outer loop
      vertex -2.00466 -1.8825 9
      vertex -4.7383 -4.44956 9
      vertex -4.14326 -5.00834 9
    endloop
  endfacet
  facet normal -0 0 1
    outer loop
      vertex -6.29579 1.61648 9
      vertex -2.6636 0.683897 9
      vertex -6.04355 2.39281 9
    endloop
  endfacet
  facet normal 0 0 1
    outer loop
      vertex -2.2248 -1.61641 9
      vertex -5.25861 -3.8206 9
      vertex -4.7383 -4.44956 9
    endloop
  endfacet
  facet normal 0 0 1
    outer loop
      vertex -2.6636 0.683897 9
      vertex -6.29579 1.61648 9
      vertex -2.72832 0.344666 9
    endloop
  endfacet
  facet normal 0 0 1
    outer loop
      vertex -2.40984 -1.32482 9
      vertex -5.69599 -3.1314 9
      vertex -5.25861 -3.8206 9
    endloop
  endfacet
  facet normal -0 0 1
    outer loop
      vertex -6.44874 0.814666 9
      vertex -2.72832 0.344666 9
      vertex -6.29579 1.61648 9
    endloop
  endfacet
  facet normal 0 0 1
    outer loop
      vertex -2.55688 -1.01234 9
      vertex -6.04355 -2.39281 9
      vertex -5.69599 -3.1314 9
    endloop
  endfacet
  facet normal 0 0 1
    outer loop
      vertex -2.72832 0.344666 9
      vertex -6.44874 0.814666 9
      vertex -2.75 0 9
    endloop
  endfacet
  facet normal 0 0 1
    outer loop
      vertex -2.6636 -0.683897 9
      vertex -6.29579 -1.61648 9
      vertex -6.04355 -2.39281 9
    endloop
  endfacet
  facet normal 0 0 1
    outer loop
      vertex -6.5 0 9
      vertex -2.75 0 9
      vertex -6.44874 0.814666 9
    endloop
  endfacet
  facet normal 0 0 1
    outer loop
      vertex -2.72832 -0.344666 9
      vertex -6.44874 -0.814666 9
      vertex -6.29579 -1.61648 9
    endloop
  endfacet
  facet normal 0 0 1
    outer loop
      vertex -2.75 0 9
      vertex -6.5 0 9
      vertex -6.44874 -0.814666 9
    endloop
  endfacet
  facet normal 0.998026 -0.0627973 0
    outer loop
      vertex 6.44874 -0.814666 9
      vertex 6.5 0 -9
      vertex 6.5 0 9
    endloop
  endfacet
  facet normal 0.998026 -0.0627973 0
    outer loop
      vertex 6.5 0 -9
      vertex 6.44874 -0.814666 9
      vertex 6.44874 -0.814666 -9
    endloop
  endfacet
  facet normal 0.684547 -0.728968 0
    outer loop
      vertex 4.14326 -5.00834 -9
      vertex 4.7383 -4.44956 9
      vertex 4.14326 -5.00834 9
    endloop
  endfacet
  facet normal 0.684547 -0.728968 0
    outer loop
      vertex 4.7383 -4.44956 9
      vertex 4.14326 -5.00834 -9
      vertex 4.7383 -4.44956 -9
    endloop
  endfacet
  facet normal 0.844328 -0.535827 0
    outer loop
      vertex 5.25861 -3.8206 9
      vertex 5.69599 -3.1314 -9
      vertex 5.69599 -3.1314 9
    endloop
  endfacet
  facet normal 0.844328 -0.535827 0
    outer loop
      vertex 5.69599 -3.1314 -9
      vertex 5.25861 -3.8206 9
      vertex 5.25861 -3.8206 -9
    endloop
  endfacet
  facet normal 0 0 -1
    outer loop
      vertex 2.75 0 -9
      vertex 6.5 0 -9
      vertex 6.44874 -0.814666 -9
    endloop
  endfacet
  facet normal 0 0 -1
    outer loop
      vertex 2.72832 -0.344666 -9
      vertex 6.44874 -0.814666 -9
      vertex 6.29579 -1.61648 -9
    endloop
  endfacet
  facet normal 0 0 -1
    outer loop
      vertex 6.5 0 -9
      vertex 2.75 0 -9
      vertex 6.44874 0.814666 -9
    endloop
  endfacet
  facet normal 0 0 -1
    outer loop
      vertex 2.6636 -0.683897 -9
      vertex 6.29579 -1.61648 -9
      vertex 6.04355 -2.39281 -9
    endloop
  endfacet
  facet normal 0 0 -1
    outer loop
      vertex 2.72832 0.344666 -9
      vertex 6.44874 0.814666 -9
      vertex 2.75 0 -9
    endloop
  endfacet
  facet normal 0 0 -1
    outer loop
      vertex 2.55688 -1.01234 -9
      vertex 6.04355 -2.39281 -9
      vertex 5.69599 -3.1314 -9
    endloop
  endfacet
  facet normal -0 0 -1
    outer loop
      vertex 6.44874 0.814666 -9
      vertex 2.72832 0.344666 -9
      vertex 6.29579 1.61648 -9
    endloop
  endfacet
  facet normal 0 0 -1
    outer loop
      vertex 2.40984 -1.32482 -9
      vertex 5.69599 -3.1314 -9
      vertex 5.25861 -3.8206 -9
    endloop
  endfacet
  facet normal 0 0 -1
    outer loop
      vertex 2.6636 0.683897 -9
      vertex 6.29579 1.61648 -9
      vertex 2.72832 0.344666 -9
    endloop
  endfacet
  facet normal 0 0 -1
    outer loop
      vertex 2.2248 -1.61641 -9
      vertex 5.25861 -3.8206 -9
      vertex 4.7383 -4.44956 -9
    endloop
  endfacet
  facet normal -0 0 -1
    outer loop
      vertex 6.29579 1.61648 -9
      vertex 2.6636 0.683897 -9
      vertex 6.04355 2.39281 -9
    endloop
  endfacet
  facet normal 0 0 -1
    outer loop
      vertex 2.00466 -1.8825 -9
      vertex 4.7383 -4.44956 -9
      vertex 4.14326 -5.00834 -9
    endloop
  endfacet
  facet normal 0 0 -1
    outer loop
      vertex 2.55688 1.01234 -9
      vertex 6.04355 2.39281 -9
      vertex 2.6636 0.683897 -9
    endloop
  endfacet
  facet normal 0 0 -1
    outer loop
      vertex 1.75292 -2.11891 -9
      vertex 4.14326 -5.00834 -9
      vertex 3.48287 -5.48813 -9
    endloop
  endfacet
  facet normal -0 0 -1
    outer loop
      vertex 6.04355 2.39281 -9
      vertex 2.55688 1.01234 -9
      vertex 5.69599 3.1314 -9
    endloop
  endfacet
  facet normal 0 0 -1
    outer loop
      vertex 1.47352 -2.3219 -9
      vertex 3.48287 -5.48813 -9
      vertex 2.76756 -5.88138 -9
    endloop
  endfacet
  facet normal 0 0 -1
    outer loop
      vertex 2.40984 1.32482 -9
      vertex 5.69599 3.1314 -9
      vertex 2.55688 1.01234 -9
    endloop
  endfacet
  facet normal -0 0 -1
    outer loop
      vertex 5.69599 3.1314 -9
      vertex 2.40984 1.32482 -9
      vertex 5.25861 3.8206 -9
    endloop
  endfacet
  facet normal 0 0 -1
    outer loop
      vertex 6.44874 -0.814666 -9
      vertex 2.72832 -0.344666 -9
      vertex 2.75 0 -9
    endloop
  endfacet
  facet normal 0 0 -1
    outer loop
      vertex 6.29579 -1.61648 -9
      vertex 2.6636 -0.683897 -9
      vertex 2.72832 -0.344666 -9
    endloop
  endfacet
  facet normal 0 0 -1
    outer loop
      vertex 6.04355 -2.39281 -9
      vertex 2.55688 -1.01234 -9
      vertex 2.6636 -0.683897 -9
    endloop
  endfacet
  facet normal 0 0 -1
    outer loop
      vertex 5.69599 -3.1314 -9
      vertex 2.40984 -1.32482 -9
      vertex 2.55688 -1.01234 -9
    endloop
  endfacet
  facet normal 0 0 -1
    outer loop
      vertex 5.25861 -3.8206 -9
      vertex 2.2248 -1.61641 -9
      vertex 2.40984 -1.32482 -9
    endloop
  endfacet
  facet normal 0 0 -1
    outer loop
      vertex 1.17089 -2.48827 -9
      vertex 2.76756 -5.88138 -9
      vertex 2.00861 -6.18187 -9
    endloop
  endfacet
  facet normal 0 0 -1
    outer loop
      vertex 4.7383 -4.44956 -9
      vertex 2.00466 -1.8825 -9
      vertex 2.2248 -1.61641 -9
    endloop
  endfacet
  facet normal 0 0 -1
    outer loop
      vertex 4.14326 -5.00834 -9
      vertex 1.75292 -2.11891 -9
      vertex 2.00466 -1.8825 -9
    endloop
  endfacet
  facet normal 0 0 -1
    outer loop
      vertex 3.48287 -5.48813 -9
      vertex 1.47352 -2.3219 -9
      vertex 1.75292 -2.11891 -9
    endloop
  endfacet
  facet normal 0 0 -1
    outer loop
      vertex 0.849796 -2.61541 -9
      vertex 2.00861 -6.18187 -9
      vertex 1.21798 -6.38487 -9
    endloop
  endfacet
  facet normal 0 0 -1
    outer loop
      vertex 2.76756 -5.88138 -9
      vertex 1.17089 -2.48827 -9
      vertex 1.47352 -2.3219 -9
    endloop
  endfacet
  facet normal 0 0 -1
    outer loop
      vertex 2.00861 -6.18187 -9
      vertex 0.849796 -2.61541 -9
      vertex 1.17089 -2.48827 -9
    endloop
  endfacet
  facet normal 0 0 -1
    outer loop
      vertex 1.21798 -6.38487 -9
      vertex 0.515298 -2.70129 -9
      vertex 0.849796 -2.61541 -9
    endloop
  endfacet
  facet normal 0 0 -1
    outer loop
      vertex 0.408138 -6.48717 -9
      vertex 0.515298 -2.70129 -9
      vertex 1.21798 -6.38487 -9
    endloop
  endfacet
  facet normal 0 0 -1
    outer loop
      vertex 0.408138 -6.48717 -9
      vertex 0.172673 -2.74457 -9
      vertex 0.515298 -2.70129 -9
    endloop
  endfacet
  facet normal 0 0 -1
    outer loop
      vertex 0.408138 -6.48717 -9
      vertex -0.172673 -2.74457 -9
      vertex 0.172673 -2.74457 -9
    endloop
  endfacet
  facet normal 0 0 -1
    outer loop
      vertex -0.408138 -6.48717 -9
      vertex -0.172673 -2.74457 -9
      vertex 0.408138 -6.48717 -9
    endloop
  endfacet
  facet normal 0 0 -1
    outer loop
      vertex -0.408138 -6.48717 -9
      vertex -0.515298 -2.70129 -9
      vertex -0.172673 -2.74457 -9
    endloop
  endfacet
  facet normal 0 0 -1
    outer loop
      vertex -1.21798 -6.38487 -9
      vertex -0.515298 -2.70129 -9
      vertex -0.408138 -6.48717 -9
    endloop
  endfacet
  facet normal -0 0 -1
    outer loop
      vertex -0.515298 -2.70129 -9
      vertex -1.21798 -6.38487 -9
      vertex -0.849796 -2.61541 -9
    endloop
  endfacet
  facet normal 0 0 -1
    outer loop
      vertex -2.00861 -6.18187 -9
      vertex -0.849796 -2.61541 -9
      vertex -1.21798 -6.38487 -9
    endloop
  endfacet
  facet normal -0 0 -1
    outer loop
      vertex -0.849796 -2.61541 -9
      vertex -2.00861 -6.18187 -9
      vertex -1.17089 -2.48827 -9
    endloop
  endfacet
  facet normal 0 0 -1
    outer loop
      vertex -2.76756 -5.88138 -9
      vertex -1.17089 -2.48827 -9
      vertex -2.00861 -6.18187 -9
    endloop
  endfacet
  facet normal -0 0 -1
    outer loop
      vertex -1.17089 -2.48827 -9
      vertex -2.76756 -5.88138 -9
      vertex -1.47352 -2.3219 -9
    endloop
  endfacet
  facet normal 0 0 -1
    outer loop
      vertex -3.48287 -5.48813 -9
      vertex -1.47352 -2.3219 -9
      vertex -2.76756 -5.88138 -9
    endloop
  endfacet
  facet normal -0 0 -1
    outer loop
      vertex -1.47352 -2.3219 -9
      vertex -3.48287 -5.48813 -9
      vertex -1.75292 -2.11891 -9
    endloop
  endfacet
  facet normal 0 0 -1
    outer loop
      vertex -4.14326 -5.00834 -9
      vertex -1.75292 -2.11891 -9
      vertex -3.48287 -5.48813 -9
    endloop
  endfacet
  facet normal -0 0 -1
    outer loop
      vertex -1.75292 -2.11891 -9
      vertex -4.14326 -5.00834 -9
      vertex -2.00466 -1.8825 -9
    endloop
  endfacet
  facet normal 0 0 -1
    outer loop
      vertex -4.7383 -4.44956 -9
      vertex -2.00466 -1.8825 -9
      vertex -4.14326 -5.00834 -9
    endloop
  endfacet
  facet normal -0 0 -1
    outer loop
      vertex -2.00466 -1.8825 -9
      vertex -4.7383 -4.44956 -9
      vertex -2.2248 -1.61641 -9
    endloop
  endfacet
  facet normal -0 0 -1
    outer loop
      vertex -2.2248 -1.61641 -9
      vertex -5.25861 -3.8206 -9
      vertex -2.40984 -1.32482 -9
    endloop
  endfacet
  facet normal 0 0 -1
    outer loop
      vertex -5.25861 -3.8206 -9
      vertex -2.2248 -1.61641 -9
      vertex -4.7383 -4.44956 -9
    endloop
  endfacet
  facet normal 0 0 -1
    outer loop
      vertex 2.2248 1.61641 -9
      vertex 5.25861 3.8206 -9
      vertex 2.40984 1.32482 -9
    endloop
  endfacet
  facet normal -0 0 -1
    outer loop
      vertex 5.25861 3.8206 -9
      vertex 2.2248 1.61641 -9
      vertex 4.7383 4.44956 -9
    endloop
  endfacet
  facet normal 0 0 -1
    outer loop
      vertex 2.00466 1.8825 -9
      vertex 4.7383 4.44956 -9
      vertex 2.2248 1.61641 -9
    endloop
  endfacet
  facet normal -0 0 -1
    outer loop
      vertex 4.7383 4.44956 -9
      vertex 2.00466 1.8825 -9
      vertex 4.14326 5.00834 -9
    endloop
  endfacet
  facet normal 0 0 -1
    outer loop
      vertex 1.75292 2.11891 -9
      vertex 4.14326 5.00834 -9
      vertex 2.00466 1.8825 -9
    endloop
  endfacet
  facet normal -0 0 -1
    outer loop
      vertex 4.14326 5.00834 -9
      vertex 1.75292 2.11891 -9
      vertex 3.48287 5.48813 -9
    endloop
  endfacet
  facet normal 0 0 -1
    outer loop
      vertex 1.47352 2.3219 -9
      vertex 3.48287 5.48813 -9
      vertex 1.75292 2.11891 -9
    endloop
  endfacet
  facet normal -0 0 -1
    outer loop
      vertex 3.48287 5.48813 -9
      vertex 1.47352 2.3219 -9
      vertex 2.76756 5.88138 -9
    endloop
  endfacet
  facet normal 0 0 -1
    outer loop
      vertex 1.17089 2.48827 -9
      vertex 2.76756 5.88138 -9
      vertex 1.47352 2.3219 -9
    endloop
  endfacet
  facet normal -0 0 -1
    outer loop
      vertex 2.76756 5.88138 -9
      vertex 1.17089 2.48827 -9
      vertex 2.00861 6.18187 -9
    endloop
  endfacet
  facet normal 0 0 -1
    outer loop
      vertex 0.849796 2.61541 -9
      vertex 2.00861 6.18187 -9
      vertex 1.17089 2.48827 -9
    endloop
  endfacet
  facet normal -0 0 -1
    outer loop
      vertex 2.00861 6.18187 -9
      vertex 0.849796 2.61541 -9
      vertex 1.21798 6.38487 -9
    endloop
  endfacet
  facet normal 0 0 -1
    outer loop
      vertex 0.515298 2.70129 -9
      vertex 1.21798 6.38487 -9
      vertex 0.849796 2.61541 -9
    endloop
  endfacet
  facet normal 0 0 -1
    outer loop
      vertex 0.515298 2.70129 -9
      vertex 0.408138 6.48717 -9
      vertex 1.21798 6.38487 -9
    endloop
  endfacet
  facet normal 0 0 -1
    outer loop
      vertex 0.172673 2.74457 -9
      vertex 0.408138 6.48717 -9
      vertex 0.515298 2.70129 -9
    endloop
  endfacet
  facet normal 0 0 -1
    outer loop
      vertex -0.172673 2.74457 -9
      vertex 0.408138 6.48717 -9
      vertex 0.172673 2.74457 -9
    endloop
  endfacet
  facet normal 0 0 -1
    outer loop
      vertex -0.172673 2.74457 -9
      vertex -0.408138 6.48717 -9
      vertex 0.408138 6.48717 -9
    endloop
  endfacet
  facet normal 0 0 -1
    outer loop
      vertex -0.515298 2.70129 -9
      vertex -0.408138 6.48717 -9
      vertex -0.172673 2.74457 -9
    endloop
  endfacet
  facet normal 0 0 -1
    outer loop
      vertex -1.21798 6.38487 -9
      vertex -0.515298 2.70129 -9
      vertex -0.849796 2.61541 -9
    endloop
  endfacet
  facet normal 0 0 -1
    outer loop
      vertex -2.00861 6.18187 -9
      vertex -0.849796 2.61541 -9
      vertex -1.17089 2.48827 -9
    endloop
  endfacet
  facet normal 0 0 -1
    outer loop
      vertex -0.515298 2.70129 -9
      vertex -1.21798 6.38487 -9
      vertex -0.408138 6.48717 -9
    endloop
  endfacet
  facet normal 0 0 -1
    outer loop
      vertex -2.76756 5.88138 -9
      vertex -1.17089 2.48827 -9
      vertex -1.47352 2.3219 -9
    endloop
  endfacet
  facet normal 0 0 -1
    outer loop
      vertex -3.48287 5.48813 -9
      vertex -1.47352 2.3219 -9
      vertex -1.75292 2.11891 -9
    endloop
  endfacet
  facet normal 0 0 -1
    outer loop
      vertex -4.14326 5.00834 -9
      vertex -1.75292 2.11891 -9
      vertex -2.00466 1.8825 -9
    endloop
  endfacet
  facet normal 0 0 -1
    outer loop
      vertex -0.849796 2.61541 -9
      vertex -2.00861 6.18187 -9
      vertex -1.21798 6.38487 -9
    endloop
  endfacet
  facet normal 0 0 -1
    outer loop
      vertex -4.7383 4.44956 -9
      vertex -2.00466 1.8825 -9
      vertex -2.2248 1.61641 -9
    endloop
  endfacet
  facet normal 0 0 -1
    outer loop
      vertex -5.25861 3.8206 -9
      vertex -2.2248 1.61641 -9
      vertex -2.40984 1.32482 -9
    endloop
  endfacet
  facet normal 0 0 -1
    outer loop
      vertex -5.69599 3.1314 -9
      vertex -2.40984 1.32482 -9
      vertex -2.55688 1.01234 -9
    endloop
  endfacet
  facet normal 0 0 -1
    outer loop
      vertex -6.04355 2.39281 -9
      vertex -2.55688 1.01234 -9
      vertex -2.6636 0.683897 -9
    endloop
  endfacet
  facet normal 0 0 -1
    outer loop
      vertex -6.29579 1.61648 -9
      vertex -2.6636 0.683897 -9
      vertex -2.72832 0.344666 -9
    endloop
  endfacet
  facet normal 0 0 -1
    outer loop
      vertex -1.17089 2.48827 -9
      vertex -2.76756 5.88138 -9
      vertex -2.00861 6.18187 -9
    endloop
  endfacet
  facet normal 0 0 -1
    outer loop
      vertex -6.44874 0.814666 -9
      vertex -2.72832 0.344666 -9
      vertex -2.75 0 -9
    endloop
  endfacet
  facet normal 0 0 -1
    outer loop
      vertex -5.69599 -3.1314 -9
      vertex -2.40984 -1.32482 -9
      vertex -5.25861 -3.8206 -9
    endloop
  endfacet
  facet normal -0 0 -1
    outer loop
      vertex -2.40984 -1.32482 -9
      vertex -5.69599 -3.1314 -9
      vertex -2.55688 -1.01234 -9
    endloop
  endfacet
  facet normal 0 0 -1
    outer loop
      vertex -1.47352 2.3219 -9
      vertex -3.48287 5.48813 -9
      vertex -2.76756 5.88138 -9
    endloop
  endfacet
  facet normal 0 0 -1
    outer loop
      vertex -6.04355 -2.39281 -9
      vertex -2.55688 -1.01234 -9
      vertex -5.69599 -3.1314 -9
    endloop
  endfacet
  facet normal 0 0 -1
    outer loop
      vertex -1.75292 2.11891 -9
      vertex -4.14326 5.00834 -9
      vertex -3.48287 5.48813 -9
    endloop
  endfacet
  facet normal -0 0 -1
    outer loop
      vertex -2.55688 -1.01234 -9
      vertex -6.04355 -2.39281 -9
      vertex -2.6636 -0.683897 -9
    endloop
  endfacet
  facet normal 0 0 -1
    outer loop
      vertex -2.00466 1.8825 -9
      vertex -4.7383 4.44956 -9
      vertex -4.14326 5.00834 -9
    endloop
  endfacet
  facet normal 0 0 -1
    outer loop
      vertex -6.29579 -1.61648 -9
      vertex -2.6636 -0.683897 -9
      vertex -6.04355 -2.39281 -9
    endloop
  endfacet
  facet normal 0 0 -1
    outer loop
      vertex -2.2248 1.61641 -9
      vertex -5.25861 3.8206 -9
      vertex -4.7383 4.44956 -9
    endloop
  endfacet
  facet normal -0 0 -1
    outer loop
      vertex -2.6636 -0.683897 -9
      vertex -6.29579 -1.61648 -9
      vertex -2.72832 -0.344666 -9
    endloop
  endfacet
  facet normal 0 0 -1
    outer loop
      vertex -2.40984 1.32482 -9
      vertex -5.69599 3.1314 -9
      vertex -5.25861 3.8206 -9
    endloop
  endfacet
  facet normal 0 0 -1
    outer loop
      vertex -6.44874 -0.814666 -9
      vertex -2.72832 -0.344666 -9
      vertex -6.29579 -1.61648 -9
    endloop
  endfacet
  facet normal 0 0 -1
    outer loop
      vertex -2.55688 1.01234 -9
      vertex -6.04355 2.39281 -9
      vertex -5.69599 3.1314 -9
    endloop
  endfacet
  facet normal -0 0 -1
    outer loop
      vertex -2.72832 -0.344666 -9
      vertex -6.44874 -0.814666 -9
      vertex -2.75 0 -9
    endloop
  endfacet
  facet normal 0 0 -1
    outer loop
      vertex -2.6636 0.683897 -9
      vertex -6.29579 1.61648 -9
      vertex -6.04355 2.39281 -9
    endloop
  endfacet
  facet normal 0 0 -1
    outer loop
      vertex -6.5 0 -9
      vertex -2.75 0 -9
      vertex -6.44874 -0.814666 -9
    endloop
  endfacet
  facet normal 0 0 -1
    outer loop
      vertex -2.72832 0.344666 -9
      vertex -6.44874 0.814666 -9
      vertex -6.29579 1.61648 -9
    endloop
  endfacet
  facet normal 0 0 -1
    outer loop
      vertex -2.75 0 -9
      vertex -6.5 0 -9
      vertex -6.44874 0.814666 -9
    endloop
  endfacet
  facet normal 0.368125 -0.929776 0
    outer loop
      vertex 2.00861 -6.18187 -9
      vertex 2.76756 -5.88138 9
      vertex 2.00861 -6.18187 9
    endloop
  endfacet
  facet normal 0.368125 -0.929776 0
    outer loop
      vertex 2.76756 -5.88138 9
      vertex 2.00861 -6.18187 -9
      vertex 2.76756 -5.88138 -9
    endloop
  endfacet
  facet normal -0.481758 0.876304 0
    outer loop
      vertex -2.76756 5.88138 -9
      vertex -3.48287 5.48813 9
      vertex -2.76756 5.88138 9
    endloop
  endfacet
  facet normal -0.481758 0.876304 0
    outer loop
      vertex -3.48287 5.48813 9
      vertex -2.76756 5.88138 -9
      vertex -3.48287 5.48813 -9
    endloop
  endfacet
  facet normal -0.248691 0.968583 0
    outer loop
      vertex -1.21798 6.38487 -9
      vertex -2.00861 6.18187 9
      vertex -1.21798 6.38487 9
    endloop
  endfacet
  facet normal -0.248691 0.968583 0
    outer loop
      vertex -2.00861 6.18187 9
      vertex -1.21798 6.38487 -9
      vertex -2.00861 6.18187 -9
    endloop
  endfacet
  facet normal 0.951058 -0.309012 0
    outer loop
      vertex 6.04355 -2.39281 9
      vertex 6.29579 -1.61648 -9
      vertex 6.29579 -1.61648 9
    endloop
  endfacet
  facet normal 0.951058 -0.309012 0
    outer loop
      vertex 6.29579 -1.61648 -9
      vertex 6.04355 -2.39281 9
      vertex 6.04355 -2.39281 -9
    endloop
  endfacet
  facet normal 0.982288 -0.187376 0
    outer loop
      vertex 6.29579 -1.61648 9
      vertex 6.44874 -0.814666 -9
      vertex 6.44874 -0.814666 9
    endloop
  endfacet
  facet normal 0.982288 -0.187376 0
    outer loop
      vertex 6.44874 -0.814666 -9
      vertex 6.29579 -1.61648 9
      vertex 6.29579 -1.61648 -9
    endloop
  endfacet
  facet normal 0.481758 -0.876304 0
    outer loop
      vertex 2.76756 -5.88138 -9
      vertex 3.48287 -5.48813 9
      vertex 2.76756 -5.88138 9
    endloop
  endfacet
  facet normal 0.481758 -0.876304 0
    outer loop
      vertex 3.48287 -5.48813 9
      vertex 2.76756 -5.88138 -9
      vertex 3.48287 -5.48813 -9
    endloop
  endfacet
  facet normal 0.904824 -0.425785 0
    outer loop
      vertex 5.69599 -3.1314 9
      vertex 6.04355 -2.39281 -9
      vertex 6.04355 -2.39281 9
    endloop
  endfacet
  facet normal 0.904824 -0.425785 0
    outer loop
      vertex 6.04355 -2.39281 -9
      vertex 5.69599 -3.1314 9
      vertex 5.69599 -3.1314 -9
    endloop
  endfacet
  facet normal 0.77052 -0.637416 0
    outer loop
      vertex 4.7383 -4.44956 9
      vertex 5.25861 -3.8206 -9
      vertex 5.25861 -3.8206 9
    endloop
  endfacet
  facet normal 0.77052 -0.637416 0
    outer loop
      vertex 5.25861 -3.8206 -9
      vertex 4.7383 -4.44956 9
      vertex 4.7383 -4.44956 -9
    endloop
  endfacet
  facet normal -0.368125 -0.929776 0
    outer loop
      vertex -2.76756 -5.88138 -9
      vertex -2.00861 -6.18187 9
      vertex -2.76756 -5.88138 9
    endloop
  endfacet
  facet normal -0.368125 -0.929776 -0
    outer loop
      vertex -2.00861 -6.18187 9
      vertex -2.76756 -5.88138 -9
      vertex -2.00861 -6.18187 -9
    endloop
  endfacet
  facet normal -0.77052 -0.637416 0
    outer loop
      vertex -4.7383 -4.44956 -9
      vertex -5.25861 -3.8206 9
      vertex -5.25861 -3.8206 -9
    endloop
  endfacet
  facet normal -0.77052 -0.637416 0
    outer loop
      vertex -5.25861 -3.8206 9
      vertex -4.7383 -4.44956 -9
      vertex -4.7383 -4.44956 9
    endloop
  endfacet
  facet normal -0.951058 -0.309012 0
    outer loop
      vertex -6.04355 -2.39281 -9
      vertex -6.29579 -1.61648 9
      vertex -6.29579 -1.61648 -9
    endloop
  endfacet
  facet normal -0.951058 -0.309012 0
    outer loop
      vertex -6.29579 -1.61648 9
      vertex -6.04355 -2.39281 -9
      vertex -6.04355 -2.39281 9
    endloop
  endfacet
  facet normal 0.248691 -0.968583 0
    outer loop
      vertex 1.21798 -6.38487 -9
      vertex 2.00861 -6.18187 9
      vertex 1.21798 -6.38487 9
    endloop
  endfacet
  facet normal 0.248691 -0.968583 0
    outer loop
      vertex 2.00861 -6.18187 9
      vertex 1.21798 -6.38487 -9
      vertex 2.00861 -6.18187 -9
    endloop
  endfacet
  facet normal 0.587776 -0.809024 0
    outer loop
      vertex 3.48287 -5.48813 -9
      vertex 4.14326 -5.00834 9
      vertex 3.48287 -5.48813 9
    endloop
  endfacet
  facet normal 0.587776 -0.809024 0
    outer loop
      vertex 4.14326 -5.00834 9
      vertex 3.48287 -5.48813 -9
      vertex 4.14326 -5.00834 -9
    endloop
  endfacet
  facet normal -0.125325 -0.992116 0
    outer loop
      vertex -1.21798 -6.38487 -9
      vertex -0.408138 -6.48717 9
      vertex -1.21798 -6.38487 9
    endloop
  endfacet
  facet normal -0.125325 -0.992116 -0
    outer loop
      vertex -0.408138 -6.48717 9
      vertex -1.21798 -6.38487 -9
      vertex -0.408138 -6.48717 -9
    endloop
  endfacet
  facet normal -0.248691 -0.968583 0
    outer loop
      vertex -2.00861 -6.18187 -9
      vertex -1.21798 -6.38487 9
      vertex -2.00861 -6.18187 9
    endloop
  endfacet
  facet normal -0.248691 -0.968583 -0
    outer loop
      vertex -1.21798 -6.38487 9
      vertex -2.00861 -6.18187 -9
      vertex -1.21798 -6.38487 -9
    endloop
  endfacet
  facet normal -0.684547 -0.728968 0
    outer loop
      vertex -4.7383 -4.44956 -9
      vertex -4.14326 -5.00834 9
      vertex -4.7383 -4.44956 9
    endloop
  endfacet
  facet normal -0.684547 -0.728968 -0
    outer loop
      vertex -4.14326 -5.00834 9
      vertex -4.7383 -4.44956 -9
      vertex -4.14326 -5.00834 -9
    endloop
  endfacet
  facet normal -0.904824 -0.425785 0
    outer loop
      vertex -5.69599 -3.1314 -9
      vertex -6.04355 -2.39281 9
      vertex -6.04355 -2.39281 -9
    endloop
  endfacet
  facet normal -0.904824 -0.425785 0
    outer loop
      vertex -6.04355 -2.39281 9
      vertex -5.69599 -3.1314 -9
      vertex -5.69599 -3.1314 9
    endloop
  endfacet
  facet normal -0.982288 -0.187376 0
    outer loop
      vertex -6.29579 -1.61648 -9
      vertex -6.44874 -0.814666 9
      vertex -6.44874 -0.814666 -9
    endloop
  endfacet
  facet normal -0.982288 -0.187376 0
    outer loop
      vertex -6.44874 -0.814666 9
      vertex -6.29579 -1.61648 -9
      vertex -6.29579 -1.61648 9
    endloop
  endfacet
  facet normal -0.998026 -0.0627973 0
    outer loop
      vertex -6.44874 -0.814666 -9
      vertex -6.5 0 9
      vertex -6.5 0 -9
    endloop
  endfacet
  facet normal -0.998026 -0.0627973 0
    outer loop
      vertex -6.5 0 9
      vertex -6.44874 -0.814666 -9
      vertex -6.44874 -0.814666 9
    endloop
  endfacet
  facet normal -0.844328 -0.535827 0
    outer loop
      vertex -5.25861 -3.8206 -9
      vertex -5.69599 -3.1314 9
      vertex -5.69599 -3.1314 -9
    endloop
  endfacet
  facet normal -0.844328 -0.535827 0
    outer loop
      vertex -5.69599 -3.1314 9
      vertex -5.25861 -3.8206 -9
      vertex -5.25861 -3.8206 9
    endloop
  endfacet
  facet normal -0.481758 -0.876304 0
    outer loop
      vertex -3.48287 -5.48813 -9
      vertex -2.76756 -5.88138 9
      vertex -3.48287 -5.48813 9
    endloop
  endfacet
  facet normal -0.481758 -0.876304 -0
    outer loop
      vertex -2.76756 -5.88138 9
      vertex -3.48287 -5.48813 -9
      vertex -2.76756 -5.88138 -9
    endloop
  endfacet
  facet normal -0.587776 -0.809024 0
    outer loop
      vertex -4.14326 -5.00834 -9
      vertex -3.48287 -5.48813 9
      vertex -4.14326 -5.00834 9
    endloop
  endfacet
  facet normal -0.587776 -0.809024 -0
    outer loop
      vertex -3.48287 -5.48813 9
      vertex -4.14326 -5.00834 -9
      vertex -3.48287 -5.48813 -9
    endloop
  endfacet
  facet normal -0.904829 -0.425775 0
    outer loop
      vertex 2.55688 1.01234 -9
      vertex 2.40984 1.32482 9
      vertex 2.40984 1.32482 -9
    endloop
  endfacet
  facet normal -0.904829 -0.425775 0
    outer loop
      vertex 2.40984 1.32482 9
      vertex 2.55688 1.01234 -9
      vertex 2.55688 1.01234 9
    endloop
  endfacet
  facet normal -0.844339 -0.535809 0
    outer loop
      vertex 2.40984 1.32482 -9
      vertex 2.2248 1.61641 9
      vertex 2.2248 1.61641 -9
    endloop
  endfacet
  facet normal -0.844339 -0.535809 0
    outer loop
      vertex 2.2248 1.61641 9
      vertex 2.40984 1.32482 -9
      vertex 2.40984 1.32482 9
    endloop
  endfacet
  facet normal -0.368149 -0.929767 0
    outer loop
      vertex 0.849796 2.61541 -9
      vertex 1.17089 2.48827 9
      vertex 0.849796 2.61541 9
    endloop
  endfacet
  facet normal -0.368149 -0.929767 -0
    outer loop
      vertex 1.17089 2.48827 9
      vertex 0.849796 2.61541 -9
      vertex 1.17089 2.48827 -9
    endloop
  endfacet
  facet normal 0.368149 -0.929767 0
    outer loop
      vertex -1.17089 2.48827 -9
      vertex -0.849796 2.61541 9
      vertex -1.17089 2.48827 9
    endloop
  endfacet
  facet normal 0.368149 -0.929767 0
    outer loop
      vertex -0.849796 2.61541 9
      vertex -1.17089 2.48827 -9
      vertex -0.849796 2.61541 -9
    endloop
  endfacet
  facet normal 0.904829 -0.425775 0
    outer loop
      vertex -2.55688 1.01234 9
      vertex -2.40984 1.32482 -9
      vertex -2.40984 1.32482 9
    endloop
  endfacet
  facet normal 0.904829 -0.425775 0
    outer loop
      vertex -2.40984 1.32482 -9
      vertex -2.55688 1.01234 9
      vertex -2.55688 1.01234 -9
    endloop
  endfacet
  facet normal -0.998028 0.0627774 0
    outer loop
      vertex 2.72832 -0.344666 -9
      vertex 2.75 0 9
      vertex 2.75 0 -9
    endloop
  endfacet
  facet normal -0.998028 0.0627774 0
    outer loop
      vertex 2.75 0 9
      vertex 2.72832 -0.344666 -9
      vertex 2.72832 -0.344666 9
    endloop
  endfacet
  facet normal -0.368149 0.929767 0
    outer loop
      vertex 1.17089 -2.48827 -9
      vertex 0.849796 -2.61541 9
      vertex 1.17089 -2.48827 9
    endloop
  endfacet
  facet normal -0.368149 0.929767 0
    outer loop
      vertex 0.849796 -2.61541 9
      vertex 1.17089 -2.48827 -9
      vertex 0.849796 -2.61541 -9
    endloop
  endfacet
  facet normal -0.684563 -0.728954 0
    outer loop
      vertex 1.75292 2.11891 -9
      vertex 2.00466 1.8825 9
      vertex 1.75292 2.11891 9
    endloop
  endfacet
  facet normal -0.684563 -0.728954 -0
    outer loop
      vertex 2.00466 1.8825 9
      vertex 1.75292 2.11891 -9
      vertex 2.00466 1.8825 -9
    endloop
  endfacet
  facet normal 0 -1 0
    outer loop
      vertex -0.172673 2.74457 -9
      vertex 0.172673 2.74457 9
      vertex -0.172673 2.74457 9
    endloop
  endfacet
  facet normal 0 -1 -0
    outer loop
      vertex 0.172673 2.74457 9
      vertex -0.172673 2.74457 -9
      vertex 0.172673 2.74457 -9
    endloop
  endfacet
  facet normal -0.587774 -0.809025 0
    outer loop
      vertex 1.47352 2.3219 -9
      vertex 1.75292 2.11891 9
      vertex 1.47352 2.3219 9
    endloop
  endfacet
  facet normal -0.587774 -0.809025 -0
    outer loop
      vertex 1.75292 2.11891 9
      vertex 1.47352 2.3219 -9
      vertex 1.75292 2.11891 -9
    endloop
  endfacet
  facet normal 0.998028 -0.0627774 0
    outer loop
      vertex -2.75 0 9
      vertex -2.72832 0.344666 -9
      vertex -2.72832 0.344666 9
    endloop
  endfacet
  facet normal 0.998028 -0.0627774 0
    outer loop
      vertex -2.72832 0.344666 -9
      vertex -2.75 0 9
      vertex -2.75 0 -9
    endloop
  endfacet
  facet normal 0.982283 -0.187404 0
    outer loop
      vertex -2.72832 0.344666 9
      vertex -2.6636 0.683897 -9
      vertex -2.6636 0.683897 9
    endloop
  endfacet
  facet normal 0.982283 -0.187404 0
    outer loop
      vertex -2.6636 0.683897 -9
      vertex -2.72832 0.344666 9
      vertex -2.72832 0.344666 -9
    endloop
  endfacet
  facet normal 0.770497 -0.637443 0
    outer loop
      vertex -2.2248 1.61641 9
      vertex -2.00466 1.8825 -9
      vertex -2.00466 1.8825 9
    endloop
  endfacet
  facet normal 0.770497 -0.637443 0
    outer loop
      vertex -2.00466 1.8825 -9
      vertex -2.2248 1.61641 9
      vertex -2.2248 1.61641 -9
    endloop
  endfacet
  facet normal 0.481749 -0.876309 0
    outer loop
      vertex -1.47352 2.3219 -9
      vertex -1.17089 2.48827 9
      vertex -1.47352 2.3219 9
    endloop
  endfacet
  facet normal 0.481749 -0.876309 0
    outer loop
      vertex -1.17089 2.48827 9
      vertex -1.47352 2.3219 -9
      vertex -1.17089 2.48827 -9
    endloop
  endfacet
  facet normal 0.587774 -0.809025 0
    outer loop
      vertex -1.75292 2.11891 -9
      vertex -1.47352 2.3219 9
      vertex -1.75292 2.11891 9
    endloop
  endfacet
  facet normal 0.587774 -0.809025 0
    outer loop
      vertex -1.47352 2.3219 9
      vertex -1.75292 2.11891 -9
      vertex -1.47352 2.3219 -9
    endloop
  endfacet
  facet normal -0.481749 0.876309 0
    outer loop
      vertex 1.47352 -2.3219 -9
      vertex 1.17089 -2.48827 9
      vertex 1.47352 -2.3219 9
    endloop
  endfacet
  facet normal -0.481749 0.876309 0
    outer loop
      vertex 1.17089 -2.48827 9
      vertex 1.47352 -2.3219 -9
      vertex 1.17089 -2.48827 -9
    endloop
  endfacet
  facet normal -0.770497 0.637443 0
    outer loop
      vertex 2.00466 -1.8825 -9
      vertex 2.2248 -1.61641 9
      vertex 2.2248 -1.61641 -9
    endloop
  endfacet
  facet normal -0.770497 0.637443 0
    outer loop
      vertex 2.2248 -1.61641 9
      vertex 2.00466 -1.8825 -9
      vertex 2.00466 -1.8825 9
    endloop
  endfacet
  facet normal -0.248678 0.968586 0
    outer loop
      vertex 0.849796 -2.61541 -9
      vertex 0.515298 -2.70129 9
      vertex 0.849796 -2.61541 9
    endloop
  endfacet
  facet normal -0.248678 0.968586 0
    outer loop
      vertex 0.515298 -2.70129 9
      vertex 0.849796 -2.61541 -9
      vertex 0.515298 -2.70129 -9
    endloop
  endfacet
  facet normal -0.982283 -0.187404 0
    outer loop
      vertex 2.72832 0.344666 -9
      vertex 2.6636 0.683897 9
      vertex 2.6636 0.683897 -9
    endloop
  endfacet
  facet normal -0.982283 -0.187404 0
    outer loop
      vertex 2.6636 0.683897 9
      vertex 2.72832 0.344666 -9
      vertex 2.72832 0.344666 9
    endloop
  endfacet
  facet normal -0.951054 -0.309023 0
    outer loop
      vertex 2.6636 0.683897 -9
      vertex 2.55688 1.01234 9
      vertex 2.55688 1.01234 -9
    endloop
  endfacet
  facet normal -0.951054 -0.309023 0
    outer loop
      vertex 2.55688 1.01234 9
      vertex 2.6636 0.683897 -9
      vertex 2.6636 0.683897 9
    endloop
  endfacet
  facet normal -0.770497 -0.637443 0
    outer loop
      vertex 2.2248 1.61641 -9
      vertex 2.00466 1.8825 9
      vertex 2.00466 1.8825 -9
    endloop
  endfacet
  facet normal -0.770497 -0.637443 0
    outer loop
      vertex 2.00466 1.8825 9
      vertex 2.2248 1.61641 -9
      vertex 2.2248 1.61641 9
    endloop
  endfacet
  facet normal -0.248678 -0.968586 0
    outer loop
      vertex 0.515298 2.70129 -9
      vertex 0.849796 2.61541 9
      vertex 0.515298 2.70129 9
    endloop
  endfacet
  facet normal -0.248678 -0.968586 -0
    outer loop
      vertex 0.849796 2.61541 9
      vertex 0.515298 2.70129 -9
      vertex 0.849796 2.61541 -9
    endloop
  endfacet
  facet normal -0.125323 -0.992116 0
    outer loop
      vertex 0.172673 2.74457 -9
      vertex 0.515298 2.70129 9
      vertex 0.172673 2.74457 9
    endloop
  endfacet
  facet normal -0.125323 -0.992116 -0
    outer loop
      vertex 0.515298 2.70129 9
      vertex 0.172673 2.74457 -9
      vertex 0.515298 2.70129 -9
    endloop
  endfacet
  facet normal -0.481749 -0.876309 0
    outer loop
      vertex 1.17089 2.48827 -9
      vertex 1.47352 2.3219 9
      vertex 1.17089 2.48827 9
    endloop
  endfacet
  facet normal -0.481749 -0.876309 -0
    outer loop
      vertex 1.47352 2.3219 9
      vertex 1.17089 2.48827 -9
      vertex 1.47352 2.3219 -9
    endloop
  endfacet
  facet normal 0.951054 -0.309023 0
    outer loop
      vertex -2.6636 0.683897 9
      vertex -2.55688 1.01234 -9
      vertex -2.55688 1.01234 9
    endloop
  endfacet
  facet normal 0.951054 -0.309023 0
    outer loop
      vertex -2.55688 1.01234 -9
      vertex -2.6636 0.683897 9
      vertex -2.6636 0.683897 -9
    endloop
  endfacet
  facet normal 0.844339 -0.535809 0
    outer loop
      vertex -2.40984 1.32482 9
      vertex -2.2248 1.61641 -9
      vertex -2.2248 1.61641 9
    endloop
  endfacet
  facet normal 0.844339 -0.535809 0
    outer loop
      vertex -2.2248 1.61641 -9
      vertex -2.40984 1.32482 9
      vertex -2.40984 1.32482 -9
    endloop
  endfacet
  facet normal 0.125323 -0.992116 0
    outer loop
      vertex -0.515298 2.70129 -9
      vertex -0.172673 2.74457 9
      vertex -0.515298 2.70129 9
    endloop
  endfacet
  facet normal 0.125323 -0.992116 0
    outer loop
      vertex -0.172673 2.74457 9
      vertex -0.515298 2.70129 -9
      vertex -0.172673 2.74457 -9
    endloop
  endfacet
  facet normal 0.248678 -0.968586 0
    outer loop
      vertex -0.849796 2.61541 -9
      vertex -0.515298 2.70129 9
      vertex -0.849796 2.61541 9
    endloop
  endfacet
  facet normal 0.248678 -0.968586 0
    outer loop
      vertex -0.515298 2.70129 9
      vertex -0.849796 2.61541 -9
      vertex -0.515298 2.70129 -9
    endloop
  endfacet
  facet normal 0.684563 -0.728954 0
    outer loop
      vertex -2.00466 1.8825 -9
      vertex -1.75292 2.11891 9
      vertex -2.00466 1.8825 9
    endloop
  endfacet
  facet normal 0.684563 -0.728954 0
    outer loop
      vertex -1.75292 2.11891 9
      vertex -2.00466 1.8825 -9
      vertex -1.75292 2.11891 -9
    endloop
  endfacet
  facet normal -0.998028 -0.0627774 0
    outer loop
      vertex 2.75 0 -9
      vertex 2.72832 0.344666 9
      vertex 2.72832 0.344666 -9
    endloop
  endfacet
  facet normal -0.998028 -0.0627774 0
    outer loop
      vertex 2.72832 0.344666 9
      vertex 2.75 0 -9
      vertex 2.75 0 9
    endloop
  endfacet
  facet normal 0.998028 0.0627774 0
    outer loop
      vertex -2.72832 -0.344666 9
      vertex -2.75 0 -9
      vertex -2.75 0 9
    endloop
  endfacet
  facet normal 0.998028 0.0627774 0
    outer loop
      vertex -2.75 0 -9
      vertex -2.72832 -0.344666 9
      vertex -2.72832 -0.344666 -9
    endloop
  endfacet
  facet normal 0.982283 0.187404 0
    outer loop
      vertex -2.6636 -0.683897 9
      vertex -2.72832 -0.344666 -9
      vertex -2.72832 -0.344666 9
    endloop
  endfacet
  facet normal 0.982283 0.187404 0
    outer loop
      vertex -2.72832 -0.344666 -9
      vertex -2.6636 -0.683897 9
      vertex -2.6636 -0.683897 -9
    endloop
  endfacet
  facet normal -0.125323 0.992116 0
    outer loop
      vertex 0.515298 -2.70129 -9
      vertex 0.172673 -2.74457 9
      vertex 0.515298 -2.70129 9
    endloop
  endfacet
  facet normal -0.125323 0.992116 0
    outer loop
      vertex 0.172673 -2.74457 9
      vertex 0.515298 -2.70129 -9
      vertex 0.172673 -2.74457 -9
    endloop
  endfacet
  facet normal -0.982283 0.187404 0
    outer loop
      vertex 2.6636 -0.683897 -9
      vertex 2.72832 -0.344666 9
      vertex 2.72832 -0.344666 -9
    endloop
  endfacet
  facet normal -0.982283 0.187404 0
    outer loop
      vertex 2.72832 -0.344666 9
      vertex 2.6636 -0.683897 -9
      vertex 2.6636 -0.683897 9
    endloop
  endfacet
  facet normal -0.951054 0.309023 0
    outer loop
      vertex 2.55688 -1.01234 -9
      vertex 2.6636 -0.683897 9
      vertex 2.6636 -0.683897 -9
    endloop
  endfacet
  facet normal -0.951054 0.309023 0
    outer loop
      vertex 2.6636 -0.683897 9
      vertex 2.55688 -1.01234 -9
      vertex 2.55688 -1.01234 9
    endloop
  endfacet
  facet normal -0.904829 0.425775 0
    outer loop
      vertex 2.40984 -1.32482 -9
      vertex 2.55688 -1.01234 9
      vertex 2.55688 -1.01234 -9
    endloop
  endfacet
  facet normal -0.904829 0.425775 0
    outer loop
      vertex 2.55688 -1.01234 9
      vertex 2.40984 -1.32482 -9
      vertex 2.40984 -1.32482 9
    endloop
  endfacet
  facet normal -0.844339 0.535809 0
    outer loop
      vertex 2.2248 -1.61641 -9
      vertex 2.40984 -1.32482 9
      vertex 2.40984 -1.32482 -9
    endloop
  endfacet
  facet normal -0.844339 0.535809 0
    outer loop
      vertex 2.40984 -1.32482 9
      vertex 2.2248 -1.61641 -9
      vertex 2.2248 -1.61641 9
    endloop
  endfacet
  facet normal 0 1 -0
    outer loop
      vertex 0.172673 -2.74457 -9
      vertex -0.172673 -2.74457 9
      vertex 0.172673 -2.74457 9
    endloop
  endfacet
  facet normal 0 1 0
    outer loop
      vertex -0.172673 -2.74457 9
      vertex 0.172673 -2.74457 -9
      vertex -0.172673 -2.74457 -9
    endloop
  endfacet
  facet normal 0.368149 0.929767 -0
    outer loop
      vertex -0.849796 -2.61541 -9
      vertex -1.17089 -2.48827 9
      vertex -0.849796 -2.61541 9
    endloop
  endfacet
  facet normal 0.368149 0.929767 0
    outer loop
      vertex -1.17089 -2.48827 9
      vertex -0.849796 -2.61541 -9
      vertex -1.17089 -2.48827 -9
    endloop
  endfacet
  facet normal 0.951054 0.309023 0
    outer loop
      vertex -2.55688 -1.01234 9
      vertex -2.6636 -0.683897 -9
      vertex -2.6636 -0.683897 9
    endloop
  endfacet
  facet normal 0.951054 0.309023 0
    outer loop
      vertex -2.6636 -0.683897 -9
      vertex -2.55688 -1.01234 9
      vertex -2.55688 -1.01234 -9
    endloop
  endfacet
  facet normal 0.770497 0.637443 0
    outer loop
      vertex -2.00466 -1.8825 9
      vertex -2.2248 -1.61641 -9
      vertex -2.2248 -1.61641 9
    endloop
  endfacet
  facet normal 0.770497 0.637443 0
    outer loop
      vertex -2.2248 -1.61641 -9
      vertex -2.00466 -1.8825 9
      vertex -2.00466 -1.8825 -9
    endloop
  endfacet
  facet normal -0.587774 0.809025 0
    outer loop
      vertex 1.75292 -2.11891 -9
      vertex 1.47352 -2.3219 9
      vertex 1.75292 -2.11891 9
    endloop
  endfacet
  facet normal -0.587774 0.809025 0
    outer loop
      vertex 1.47352 -2.3219 9
      vertex 1.75292 -2.11891 -9
      vertex 1.47352 -2.3219 -9
    endloop
  endfacet
  facet normal -0.684563 0.728954 0
    outer loop
      vertex 2.00466 -1.8825 -9
      vertex 1.75292 -2.11891 9
      vertex 2.00466 -1.8825 9
    endloop
  endfacet
  facet normal -0.684563 0.728954 0
    outer loop
      vertex 1.75292 -2.11891 9
      vertex 2.00466 -1.8825 -9
      vertex 1.75292 -2.11891 -9
    endloop
  endfacet
  facet normal 0.684563 0.728954 -0
    outer loop
      vertex -1.75292 -2.11891 -9
      vertex -2.00466 -1.8825 9
      vertex -1.75292 -2.11891 9
    endloop
  endfacet
  facet normal 0.684563 0.728954 0
    outer loop
      vertex -2.00466 -1.8825 9
      vertex -1.75292 -2.11891 -9
      vertex -2.00466 -1.8825 -9
    endloop
  endfacet
  facet normal 0.248678 0.968586 -0
    outer loop
      vertex -0.515298 -2.70129 -9
      vertex -0.849796 -2.61541 9
      vertex -0.515298 -2.70129 9
    endloop
  endfacet
  facet normal 0.248678 0.968586 0
    outer loop
      vertex -0.849796 -2.61541 9
      vertex -0.515298 -2.70129 -9
      vertex -0.849796 -2.61541 -9
    endloop
  endfacet
  facet normal 0.481749 0.876309 -0
    outer loop
      vertex -1.17089 -2.48827 -9
      vertex -1.47352 -2.3219 9
      vertex -1.17089 -2.48827 9
    endloop
  endfacet
  facet normal 0.481749 0.876309 0
    outer loop
      vertex -1.47352 -2.3219 9
      vertex -1.17089 -2.48827 -9
      vertex -1.47352 -2.3219 -9
    endloop
  endfacet
  facet normal 0.844339 0.535809 0
    outer loop
      vertex -2.2248 -1.61641 9
      vertex -2.40984 -1.32482 -9
      vertex -2.40984 -1.32482 9
    endloop
  endfacet
  facet normal 0.844339 0.535809 0
    outer loop
      vertex -2.40984 -1.32482 -9
      vertex -2.2248 -1.61641 9
      vertex -2.2248 -1.61641 -9
    endloop
  endfacet
  facet normal 0.904829 0.425775 0
    outer loop
      vertex -2.40984 -1.32482 9
      vertex -2.55688 -1.01234 -9
      vertex -2.55688 -1.01234 9
    endloop
  endfacet
  facet normal 0.904829 0.425775 0
    outer loop
      vertex -2.55688 -1.01234 -9
      vertex -2.40984 -1.32482 9
      vertex -2.40984 -1.32482 -9
    endloop
  endfacet
  facet normal 0.125323 0.992116 -0
    outer loop
      vertex -0.172673 -2.74457 -9
      vertex -0.515298 -2.70129 9
      vertex -0.172673 -2.74457 9
    endloop
  endfacet
  facet normal 0.125323 0.992116 0
    outer loop
      vertex -0.515298 -2.70129 9
      vertex -0.172673 -2.74457 -9
      vertex -0.515298 -2.70129 -9
    endloop
  endfacet
  facet normal 0.587774 0.809025 -0
    outer loop
      vertex -1.47352 -2.3219 -9
      vertex -1.75292 -2.11891 9
      vertex -1.47352 -2.3219 9
    endloop
  endfacet
  facet normal 0.587774 0.809025 0
    outer loop
      vertex -1.75292 -2.11891 9
      vertex -1.47352 -2.3219 -9
      vertex -1.75292 -2.11891 -9
    endloop
  endfacet
endsolid OpenSCAD_Model
