solid OpenSCAD_Model
  facet normal 0.998027 0.0627908 0
    outer loop
      vertex 7.5 0 3.5
      vertex 7.44086 0.939999 -3.5
      vertex 7.44086 0.939999 3.5
    endloop
  endfacet
  facet normal 0.998027 0.0627908 0
    outer loop
      vertex 7.44086 0.939999 -3.5
      vertex 7.5 0 3.5
      vertex 7.5 0 -3.5
    endloop
  endfacet
  facet normal -0.998027 0.0627908 0
    outer loop
      vertex -7.5 0 -3.5
      vertex -7.44086 0.939999 3.5
      vertex -7.44086 0.939999 -3.5
    endloop
  endfacet
  facet normal -0.998027 0.0627908 0
    outer loop
      vertex -7.44086 0.939999 3.5
      vertex -7.5 0 -3.5
      vertex -7.5 0 3.5
    endloop
  endfacet
  facet normal 0 1 -0
    outer loop
      vertex 0.470928 7.4852 -3.5
      vertex -0.470928 7.4852 3.5
      vertex 0.470928 7.4852 3.5
    endloop
  endfacet
  facet normal 0 1 0
    outer loop
      vertex -0.470928 7.4852 3.5
      vertex 0.470928 7.4852 -3.5
      vertex -0.470928 7.4852 -3.5
    endloop
  endfacet
  facet normal 0 -1 0
    outer loop
      vertex -0.470928 -7.4852 -3.5
      vertex 0.470928 -7.4852 3.5
      vertex -0.470928 -7.4852 3.5
    endloop
  endfacet
  facet normal 0 -1 -0
    outer loop
      vertex 0.470928 -7.4852 3.5
      vertex -0.470928 -7.4852 -3.5
      vertex 0.470928 -7.4852 -3.5
    endloop
  endfacet
  facet normal 0.684552 0.728964 -0
    outer loop
      vertex 5.46726 5.1341 -3.5
      vertex 4.78068 5.77885 3.5
      vertex 5.46726 5.1341 3.5
    endloop
  endfacet
  facet normal 0.684552 0.728964 0
    outer loop
      vertex 4.78068 5.77885 3.5
      vertex 5.46726 5.1341 -3.5
      vertex 4.78068 5.77885 -3.5
    endloop
  endfacet
  facet normal -0.684552 0.728964 0
    outer loop
      vertex -4.78068 5.77885 -3.5
      vertex -5.46726 5.1341 3.5
      vertex -4.78068 5.77885 3.5
    endloop
  endfacet
  facet normal -0.684552 0.728964 0
    outer loop
      vertex -5.46726 5.1341 3.5
      vertex -4.78068 5.77885 -3.5
      vertex -5.46726 5.1341 -3.5
    endloop
  endfacet
  facet normal -0.368126 0.929776 0
    outer loop
      vertex -2.31763 7.13292 -3.5
      vertex -3.19334 6.7862 3.5
      vertex -2.31763 7.13292 3.5
    endloop
  endfacet
  facet normal -0.368126 0.929776 0
    outer loop
      vertex -3.19334 6.7862 3.5
      vertex -2.31763 7.13292 -3.5
      vertex -3.19334 6.7862 -3.5
    endloop
  endfacet
  facet normal 0.84433 -0.535823 0
    outer loop
      vertex 6.06763 -4.40839 3.5
      vertex 6.5723 -3.61315 -3.5
      vertex 6.5723 -3.61315 3.5
    endloop
  endfacet
  facet normal 0.84433 -0.535823 0
    outer loop
      vertex 6.5723 -3.61315 -3.5
      vertex 6.06763 -4.40839 3.5
      vertex 6.06763 -4.40839 -3.5
    endloop
  endfacet
  facet normal 0.904829 0.425776 0
    outer loop
      vertex 6.97332 2.76093 3.5
      vertex 6.5723 3.61315 -3.5
      vertex 6.5723 3.61315 3.5
    endloop
  endfacet
  facet normal 0.904829 0.425776 0
    outer loop
      vertex 6.5723 3.61315 -3.5
      vertex 6.97332 2.76093 3.5
      vertex 6.97332 2.76093 -3.5
    endloop
  endfacet
  facet normal 0.368126 0.929776 -0
    outer loop
      vertex 3.19334 6.7862 -3.5
      vertex 2.31763 7.13292 3.5
      vertex 3.19334 6.7862 3.5
    endloop
  endfacet
  facet normal 0.368126 0.929776 0
    outer loop
      vertex 2.31763 7.13292 3.5
      vertex 3.19334 6.7862 -3.5
      vertex 2.31763 7.13292 -3.5
    endloop
  endfacet
  facet normal 0.248689 0.968583 -0
    outer loop
      vertex 2.31763 7.13292 -3.5
      vertex 1.40536 7.36715 3.5
      vertex 2.31763 7.13292 3.5
    endloop
  endfacet
  facet normal 0.248689 0.968583 0
    outer loop
      vertex 1.40536 7.36715 3.5
      vertex 2.31763 7.13292 -3.5
      vertex 1.40536 7.36715 -3.5
    endloop
  endfacet
  facet normal 0.481749 0.876309 -0
    outer loop
      vertex 4.0187 6.33246 -3.5
      vertex 3.19334 6.7862 3.5
      vertex 4.0187 6.33246 3.5
    endloop
  endfacet
  facet normal 0.481749 0.876309 0
    outer loop
      vertex 3.19334 6.7862 3.5
      vertex 4.0187 6.33246 -3.5
      vertex 3.19334 6.7862 -3.5
    endloop
  endfacet
  facet normal -0.904829 0.425776 0
    outer loop
      vertex -6.97332 2.76093 -3.5
      vertex -6.5723 3.61315 3.5
      vertex -6.5723 3.61315 -3.5
    endloop
  endfacet
  facet normal -0.904829 0.425776 0
    outer loop
      vertex -6.5723 3.61315 3.5
      vertex -6.97332 2.76093 -3.5
      vertex -6.97332 2.76093 3.5
    endloop
  endfacet
  facet normal 0 0 1
    outer loop
      vertex 4.25 0 3.5
      vertex 7.5 0 3.5
      vertex 7.44086 0.939999 3.5
    endloop
  endfacet
  facet normal 0 0 1
    outer loop
      vertex 4.21649 0.532666 3.5
      vertex 7.44086 0.939999 3.5
      vertex 7.26437 1.86517 3.5
    endloop
  endfacet
  facet normal 0 0 1
    outer loop
      vertex 7.5 0 3.5
      vertex 4.25 0 3.5
      vertex 7.44086 -0.939999 3.5
    endloop
  endfacet
  facet normal 0 0 1
    outer loop
      vertex 4.11648 1.05693 3.5
      vertex 7.26437 1.86517 3.5
      vertex 6.97332 2.76093 3.5
    endloop
  endfacet
  facet normal -0 0 1
    outer loop
      vertex 4.21649 -0.532666 3.5
      vertex 7.44086 -0.939999 3.5
      vertex 4.25 0 3.5
    endloop
  endfacet
  facet normal 0 0 1
    outer loop
      vertex 3.95155 1.56453 3.5
      vertex 6.97332 2.76093 3.5
      vertex 6.5723 3.61315 3.5
    endloop
  endfacet
  facet normal 0 0 1
    outer loop
      vertex 7.44086 -0.939999 3.5
      vertex 4.21649 -0.532666 3.5
      vertex 7.26437 -1.86517 3.5
    endloop
  endfacet
  facet normal 0 0 1
    outer loop
      vertex 3.7243 2.04745 3.5
      vertex 6.5723 3.61315 3.5
      vertex 6.06763 4.40839 3.5
    endloop
  endfacet
  facet normal -0 0 1
    outer loop
      vertex 4.11648 -1.05693 3.5
      vertex 7.26437 -1.86517 3.5
      vertex 4.21649 -0.532666 3.5
    endloop
  endfacet
  facet normal 0 0 1
    outer loop
      vertex 3.43832 2.49809 3.5
      vertex 6.06763 4.40839 3.5
      vertex 5.46726 5.1341 3.5
    endloop
  endfacet
  facet normal 0 0 1
    outer loop
      vertex 7.26437 -1.86517 3.5
      vertex 4.11648 -1.05693 3.5
      vertex 6.97332 -2.76093 3.5
    endloop
  endfacet
  facet normal 0 0 1
    outer loop
      vertex 3.09812 2.90932 3.5
      vertex 5.46726 5.1341 3.5
      vertex 4.78068 5.77885 3.5
    endloop
  endfacet
  facet normal -0 0 1
    outer loop
      vertex 3.95155 -1.56453 3.5
      vertex 6.97332 -2.76093 3.5
      vertex 4.11648 -1.05693 3.5
    endloop
  endfacet
  facet normal 0 0 1
    outer loop
      vertex 6.97332 -2.76093 3.5
      vertex 3.95155 -1.56453 3.5
      vertex 6.5723 -3.61315 3.5
    endloop
  endfacet
  facet normal 0 0 1
    outer loop
      vertex 7.44086 0.939999 3.5
      vertex 4.21649 0.532666 3.5
      vertex 4.25 0 3.5
    endloop
  endfacet
  facet normal 0 0 1
    outer loop
      vertex 7.26437 1.86517 3.5
      vertex 4.11648 1.05693 3.5
      vertex 4.21649 0.532666 3.5
    endloop
  endfacet
  facet normal 0 0 1
    outer loop
      vertex 2.70905 3.27468 3.5
      vertex 4.78068 5.77885 3.5
      vertex 4.0187 6.33246 3.5
    endloop
  endfacet
  facet normal 0 0 1
    outer loop
      vertex 6.97332 2.76093 3.5
      vertex 3.95155 1.56453 3.5
      vertex 4.11648 1.05693 3.5
    endloop
  endfacet
  facet normal 0 0 1
    outer loop
      vertex 6.5723 3.61315 3.5
      vertex 3.7243 2.04745 3.5
      vertex 3.95155 1.56453 3.5
    endloop
  endfacet
  facet normal 0 0 1
    outer loop
      vertex 6.06763 4.40839 3.5
      vertex 3.43832 2.49809 3.5
      vertex 3.7243 2.04745 3.5
    endloop
  endfacet
  facet normal 0 0 1
    outer loop
      vertex 2.27726 3.58839 3.5
      vertex 4.0187 6.33246 3.5
      vertex 3.19334 6.7862 3.5
    endloop
  endfacet
  facet normal 0 0 1
    outer loop
      vertex 5.46726 5.1341 3.5
      vertex 3.09812 2.90932 3.5
      vertex 3.43832 2.49809 3.5
    endloop
  endfacet
  facet normal 0 0 1
    outer loop
      vertex 4.78068 5.77885 3.5
      vertex 2.70905 3.27468 3.5
      vertex 3.09812 2.90932 3.5
    endloop
  endfacet
  facet normal 0 0 1
    outer loop
      vertex 1.80956 3.84551 3.5
      vertex 3.19334 6.7862 3.5
      vertex 2.31763 7.13292 3.5
    endloop
  endfacet
  facet normal 0 0 1
    outer loop
      vertex 4.0187 6.33246 3.5
      vertex 2.27726 3.58839 3.5
      vertex 2.70905 3.27468 3.5
    endloop
  endfacet
  facet normal 0 0 1
    outer loop
      vertex 3.19334 6.7862 3.5
      vertex 1.80956 3.84551 3.5
      vertex 2.27726 3.58839 3.5
    endloop
  endfacet
  facet normal 0 0 1
    outer loop
      vertex 1.31332 4.04199 3.5
      vertex 2.31763 7.13292 3.5
      vertex 1.40536 7.36715 3.5
    endloop
  endfacet
  facet normal 0 0 1
    outer loop
      vertex 2.31763 7.13292 3.5
      vertex 1.31332 4.04199 3.5
      vertex 1.80956 3.84551 3.5
    endloop
  endfacet
  facet normal 0 0 1
    outer loop
      vertex 1.40536 7.36715 3.5
      vertex 0.796371 4.17472 3.5
      vertex 1.31332 4.04199 3.5
    endloop
  endfacet
  facet normal 0 0 1
    outer loop
      vertex 0.470928 7.4852 3.5
      vertex 0.796371 4.17472 3.5
      vertex 1.40536 7.36715 3.5
    endloop
  endfacet
  facet normal 0 0 1
    outer loop
      vertex 0.470928 7.4852 3.5
      vertex 0.266859 4.24161 3.5
      vertex 0.796371 4.17472 3.5
    endloop
  endfacet
  facet normal 0 0 1
    outer loop
      vertex 0.470928 7.4852 3.5
      vertex -0.266859 4.24161 3.5
      vertex 0.266859 4.24161 3.5
    endloop
  endfacet
  facet normal -0 0 1
    outer loop
      vertex -0.470928 7.4852 3.5
      vertex -0.266859 4.24161 3.5
      vertex 0.470928 7.4852 3.5
    endloop
  endfacet
  facet normal 0 0 1
    outer loop
      vertex -0.470928 7.4852 3.5
      vertex -0.796371 4.17472 3.5
      vertex -0.266859 4.24161 3.5
    endloop
  endfacet
  facet normal -0 0 1
    outer loop
      vertex -1.40536 7.36715 3.5
      vertex -0.796371 4.17472 3.5
      vertex -0.470928 7.4852 3.5
    endloop
  endfacet
  facet normal 0 0 1
    outer loop
      vertex -0.796371 4.17472 3.5
      vertex -1.40536 7.36715 3.5
      vertex -1.31332 4.04199 3.5
    endloop
  endfacet
  facet normal -0 0 1
    outer loop
      vertex -2.31763 7.13292 3.5
      vertex -1.31332 4.04199 3.5
      vertex -1.40536 7.36715 3.5
    endloop
  endfacet
  facet normal 0 0 1
    outer loop
      vertex -1.31332 4.04199 3.5
      vertex -2.31763 7.13292 3.5
      vertex -1.80956 3.84551 3.5
    endloop
  endfacet
  facet normal -0 0 1
    outer loop
      vertex -3.19334 6.7862 3.5
      vertex -1.80956 3.84551 3.5
      vertex -2.31763 7.13292 3.5
    endloop
  endfacet
  facet normal 0 0 1
    outer loop
      vertex -1.80956 3.84551 3.5
      vertex -3.19334 6.7862 3.5
      vertex -2.27726 3.58839 3.5
    endloop
  endfacet
  facet normal -0 0 1
    outer loop
      vertex -4.0187 6.33246 3.5
      vertex -2.27726 3.58839 3.5
      vertex -3.19334 6.7862 3.5
    endloop
  endfacet
  facet normal 0 0 1
    outer loop
      vertex -2.27726 3.58839 3.5
      vertex -4.0187 6.33246 3.5
      vertex -2.70905 3.27468 3.5
    endloop
  endfacet
  facet normal -0 0 1
    outer loop
      vertex -4.78068 5.77885 3.5
      vertex -2.70905 3.27468 3.5
      vertex -4.0187 6.33246 3.5
    endloop
  endfacet
  facet normal 0 0 1
    outer loop
      vertex -2.70905 3.27468 3.5
      vertex -4.78068 5.77885 3.5
      vertex -3.09812 2.90932 3.5
    endloop
  endfacet
  facet normal -0 0 1
    outer loop
      vertex -5.46726 5.1341 3.5
      vertex -3.09812 2.90932 3.5
      vertex -4.78068 5.77885 3.5
    endloop
  endfacet
  facet normal 0 0 1
    outer loop
      vertex -3.09812 2.90932 3.5
      vertex -5.46726 5.1341 3.5
      vertex -3.43832 2.49809 3.5
    endloop
  endfacet
  facet normal -0 0 1
    outer loop
      vertex -6.06763 4.40839 3.5
      vertex -3.43832 2.49809 3.5
      vertex -5.46726 5.1341 3.5
    endloop
  endfacet
  facet normal 0 0 1
    outer loop
      vertex -3.43832 2.49809 3.5
      vertex -6.06763 4.40839 3.5
      vertex -3.7243 2.04745 3.5
    endloop
  endfacet
  facet normal -0 0 1
    outer loop
      vertex -6.5723 3.61315 3.5
      vertex -3.7243 2.04745 3.5
      vertex -6.06763 4.40839 3.5
    endloop
  endfacet
  facet normal 0 0 1
    outer loop
      vertex -3.7243 2.04745 3.5
      vertex -6.5723 3.61315 3.5
      vertex -3.95155 1.56453 3.5
    endloop
  endfacet
  facet normal -0 0 1
    outer loop
      vertex 3.7243 -2.04745 3.5
      vertex 6.5723 -3.61315 3.5
      vertex 3.95155 -1.56453 3.5
    endloop
  endfacet
  facet normal 0 0 1
    outer loop
      vertex 6.5723 -3.61315 3.5
      vertex 3.7243 -2.04745 3.5
      vertex 6.06763 -4.40839 3.5
    endloop
  endfacet
  facet normal -0 0 1
    outer loop
      vertex 3.43832 -2.49809 3.5
      vertex 6.06763 -4.40839 3.5
      vertex 3.7243 -2.04745 3.5
    endloop
  endfacet
  facet normal 0 0 1
    outer loop
      vertex 6.06763 -4.40839 3.5
      vertex 3.43832 -2.49809 3.5
      vertex 5.46726 -5.1341 3.5
    endloop
  endfacet
  facet normal -0 0 1
    outer loop
      vertex 3.09812 -2.90932 3.5
      vertex 5.46726 -5.1341 3.5
      vertex 3.43832 -2.49809 3.5
    endloop
  endfacet
  facet normal 0 0 1
    outer loop
      vertex 5.46726 -5.1341 3.5
      vertex 3.09812 -2.90932 3.5
      vertex 4.78068 -5.77885 3.5
    endloop
  endfacet
  facet normal -0 0 1
    outer loop
      vertex 2.70905 -3.27468 3.5
      vertex 4.78068 -5.77885 3.5
      vertex 3.09812 -2.90932 3.5
    endloop
  endfacet
  facet normal 0 0 1
    outer loop
      vertex 4.78068 -5.77885 3.5
      vertex 2.70905 -3.27468 3.5
      vertex 4.0187 -6.33246 3.5
    endloop
  endfacet
  facet normal -0 0 1
    outer loop
      vertex 2.27726 -3.58839 3.5
      vertex 4.0187 -6.33246 3.5
      vertex 2.70905 -3.27468 3.5
    endloop
  endfacet
  facet normal 0 0 1
    outer loop
      vertex 4.0187 -6.33246 3.5
      vertex 2.27726 -3.58839 3.5
      vertex 3.19334 -6.7862 3.5
    endloop
  endfacet
  facet normal -0 0 1
    outer loop
      vertex 1.80956 -3.84551 3.5
      vertex 3.19334 -6.7862 3.5
      vertex 2.27726 -3.58839 3.5
    endloop
  endfacet
  facet normal 0 0 1
    outer loop
      vertex 3.19334 -6.7862 3.5
      vertex 1.80956 -3.84551 3.5
      vertex 2.31763 -7.13292 3.5
    endloop
  endfacet
  facet normal -0 0 1
    outer loop
      vertex 1.31332 -4.04199 3.5
      vertex 2.31763 -7.13292 3.5
      vertex 1.80956 -3.84551 3.5
    endloop
  endfacet
  facet normal 0 0 1
    outer loop
      vertex 2.31763 -7.13292 3.5
      vertex 1.31332 -4.04199 3.5
      vertex 1.40536 -7.36715 3.5
    endloop
  endfacet
  facet normal -0 0 1
    outer loop
      vertex 0.796371 -4.17472 3.5
      vertex 1.40536 -7.36715 3.5
      vertex 1.31332 -4.04199 3.5
    endloop
  endfacet
  facet normal 0 0 1
    outer loop
      vertex 0.796371 -4.17472 3.5
      vertex 0.470928 -7.4852 3.5
      vertex 1.40536 -7.36715 3.5
    endloop
  endfacet
  facet normal -0 0 1
    outer loop
      vertex 0.266859 -4.24161 3.5
      vertex 0.470928 -7.4852 3.5
      vertex 0.796371 -4.17472 3.5
    endloop
  endfacet
  facet normal -0 0 1
    outer loop
      vertex -0.266859 -4.24161 3.5
      vertex 0.470928 -7.4852 3.5
      vertex 0.266859 -4.24161 3.5
    endloop
  endfacet
  facet normal 0 0 1
    outer loop
      vertex -0.266859 -4.24161 3.5
      vertex -0.470928 -7.4852 3.5
      vertex 0.470928 -7.4852 3.5
    endloop
  endfacet
  facet normal 0 0 1
    outer loop
      vertex -0.796371 -4.17472 3.5
      vertex -0.470928 -7.4852 3.5
      vertex -0.266859 -4.24161 3.5
    endloop
  endfacet
  facet normal 0 0 1
    outer loop
      vertex -1.40536 -7.36715 3.5
      vertex -0.796371 -4.17472 3.5
      vertex -1.31332 -4.04199 3.5
    endloop
  endfacet
  facet normal 0 0 1
    outer loop
      vertex -0.796371 -4.17472 3.5
      vertex -1.40536 -7.36715 3.5
      vertex -0.470928 -7.4852 3.5
    endloop
  endfacet
  facet normal 0 0 1
    outer loop
      vertex -2.31763 -7.13292 3.5
      vertex -1.31332 -4.04199 3.5
      vertex -1.80956 -3.84551 3.5
    endloop
  endfacet
  facet normal 0 0 1
    outer loop
      vertex -3.19334 -6.7862 3.5
      vertex -1.80956 -3.84551 3.5
      vertex -2.27726 -3.58839 3.5
    endloop
  endfacet
  facet normal 0 0 1
    outer loop
      vertex -1.31332 -4.04199 3.5
      vertex -2.31763 -7.13292 3.5
      vertex -1.40536 -7.36715 3.5
    endloop
  endfacet
  facet normal 0 0 1
    outer loop
      vertex -4.0187 -6.33246 3.5
      vertex -2.27726 -3.58839 3.5
      vertex -2.70905 -3.27468 3.5
    endloop
  endfacet
  facet normal 0 0 1
    outer loop
      vertex -4.78068 -5.77885 3.5
      vertex -2.70905 -3.27468 3.5
      vertex -3.09812 -2.90932 3.5
    endloop
  endfacet
  facet normal 0 0 1
    outer loop
      vertex -1.80956 -3.84551 3.5
      vertex -3.19334 -6.7862 3.5
      vertex -2.31763 -7.13292 3.5
    endloop
  endfacet
  facet normal 0 0 1
    outer loop
      vertex -5.46726 -5.1341 3.5
      vertex -3.09812 -2.90932 3.5
      vertex -3.43832 -2.49809 3.5
    endloop
  endfacet
  facet normal 0 0 1
    outer loop
      vertex -6.06763 -4.40839 3.5
      vertex -3.43832 -2.49809 3.5
      vertex -3.7243 -2.04745 3.5
    endloop
  endfacet
  facet normal 0 0 1
    outer loop
      vertex -6.5723 -3.61315 3.5
      vertex -3.7243 -2.04745 3.5
      vertex -3.95155 -1.56453 3.5
    endloop
  endfacet
  facet normal 0 0 1
    outer loop
      vertex -2.27726 -3.58839 3.5
      vertex -4.0187 -6.33246 3.5
      vertex -3.19334 -6.7862 3.5
    endloop
  endfacet
  facet normal 0 0 1
    outer loop
      vertex -6.97332 -2.76093 3.5
      vertex -3.95155 -1.56453 3.5
      vertex -4.11648 -1.05693 3.5
    endloop
  endfacet
  facet normal 0 0 1
    outer loop
      vertex -7.26437 -1.86517 3.5
      vertex -4.11648 -1.05693 3.5
      vertex -4.21649 -0.532666 3.5
    endloop
  endfacet
  facet normal 0 0 1
    outer loop
      vertex -7.44086 -0.939999 3.5
      vertex -4.21649 -0.532666 3.5
      vertex -4.25 0 3.5
    endloop
  endfacet
  facet normal -0 0 1
    outer loop
      vertex -6.97332 2.76093 3.5
      vertex -3.95155 1.56453 3.5
      vertex -6.5723 3.61315 3.5
    endloop
  endfacet
  facet normal 0 0 1
    outer loop
      vertex -2.70905 -3.27468 3.5
      vertex -4.78068 -5.77885 3.5
      vertex -4.0187 -6.33246 3.5
    endloop
  endfacet
  facet normal 0 0 1
    outer loop
      vertex -3.95155 1.56453 3.5
      vertex -6.97332 2.76093 3.5
      vertex -4.11648 1.05693 3.5
    endloop
  endfacet
  facet normal 0 0 1
    outer loop
      vertex -3.09812 -2.90932 3.5
      vertex -5.46726 -5.1341 3.5
      vertex -4.78068 -5.77885 3.5
    endloop
  endfacet
  facet normal -0 0 1
    outer loop
      vertex -7.26437 1.86517 3.5
      vertex -4.11648 1.05693 3.5
      vertex -6.97332 2.76093 3.5
    endloop
  endfacet
  facet normal 0 0 1
    outer loop
      vertex -3.43832 -2.49809 3.5
      vertex -6.06763 -4.40839 3.5
      vertex -5.46726 -5.1341 3.5
    endloop
  endfacet
  facet normal 0 0 1
    outer loop
      vertex -4.11648 1.05693 3.5
      vertex -7.26437 1.86517 3.5
      vertex -4.21649 0.532666 3.5
    endloop
  endfacet
  facet normal 0 0 1
    outer loop
      vertex -3.7243 -2.04745 3.5
      vertex -6.5723 -3.61315 3.5
      vertex -6.06763 -4.40839 3.5
    endloop
  endfacet
  facet normal -0 0 1
    outer loop
      vertex -7.44086 0.939999 3.5
      vertex -4.21649 0.532666 3.5
      vertex -7.26437 1.86517 3.5
    endloop
  endfacet
  facet normal 0 0 1
    outer loop
      vertex -3.95155 -1.56453 3.5
      vertex -6.97332 -2.76093 3.5
      vertex -6.5723 -3.61315 3.5
    endloop
  endfacet
  facet normal 0 0 1
    outer loop
      vertex -4.21649 0.532666 3.5
      vertex -7.44086 0.939999 3.5
      vertex -4.25 0 3.5
    endloop
  endfacet
  facet normal 0 0 1
    outer loop
      vertex -4.11648 -1.05693 3.5
      vertex -7.26437 -1.86517 3.5
      vertex -6.97332 -2.76093 3.5
    endloop
  endfacet
  facet normal 0 0 1
    outer loop
      vertex -7.5 0 3.5
      vertex -4.25 0 3.5
      vertex -7.44086 0.939999 3.5
    endloop
  endfacet
  facet normal 0 0 1
    outer loop
      vertex -4.21649 -0.532666 3.5
      vertex -7.44086 -0.939999 3.5
      vertex -7.26437 -1.86517 3.5
    endloop
  endfacet
  facet normal 0 0 1
    outer loop
      vertex -4.25 0 3.5
      vertex -7.5 0 3.5
      vertex -7.44086 -0.939999 3.5
    endloop
  endfacet
  facet normal -0.125337 0.992114 0
    outer loop
      vertex -0.470928 7.4852 -3.5
      vertex -1.40536 7.36715 3.5
      vertex -0.470928 7.4852 3.5
    endloop
  endfacet
  facet normal -0.125337 0.992114 0
    outer loop
      vertex -1.40536 7.36715 3.5
      vertex -0.470928 7.4852 -3.5
      vertex -1.40536 7.36715 -3.5
    endloop
  endfacet
  facet normal 0.125337 -0.992114 0
    outer loop
      vertex 0.470928 -7.4852 -3.5
      vertex 1.40536 -7.36715 3.5
      vertex 0.470928 -7.4852 3.5
    endloop
  endfacet
  facet normal 0.125337 -0.992114 0
    outer loop
      vertex 1.40536 -7.36715 3.5
      vertex 0.470928 -7.4852 -3.5
      vertex 1.40536 -7.36715 -3.5
    endloop
  endfacet
  facet normal 0.368126 -0.929776 0
    outer loop
      vertex 2.31763 -7.13292 -3.5
      vertex 3.19334 -6.7862 3.5
      vertex 2.31763 -7.13292 3.5
    endloop
  endfacet
  facet normal 0.368126 -0.929776 0
    outer loop
      vertex 3.19334 -6.7862 3.5
      vertex 2.31763 -7.13292 -3.5
      vertex 3.19334 -6.7862 -3.5
    endloop
  endfacet
  facet normal 0.951057 0.309017 0
    outer loop
      vertex 7.26437 1.86517 3.5
      vertex 6.97332 2.76093 -3.5
      vertex 6.97332 2.76093 3.5
    endloop
  endfacet
  facet normal 0.951057 0.309017 0
    outer loop
      vertex 6.97332 2.76093 -3.5
      vertex 7.26437 1.86517 3.5
      vertex 7.26437 1.86517 -3.5
    endloop
  endfacet
  facet normal 0.982286 0.187386 0
    outer loop
      vertex 7.44086 0.939999 3.5
      vertex 7.26437 1.86517 -3.5
      vertex 7.26437 1.86517 3.5
    endloop
  endfacet
  facet normal 0.982286 0.187386 0
    outer loop
      vertex 7.26437 1.86517 -3.5
      vertex 7.44086 0.939999 3.5
      vertex 7.44086 0.939999 -3.5
    endloop
  endfacet
  facet normal 0.770508 0.637431 0
    outer loop
      vertex 6.06763 4.40839 3.5
      vertex 5.46726 5.1341 -3.5
      vertex 5.46726 5.1341 3.5
    endloop
  endfacet
  facet normal 0.770508 0.637431 0
    outer loop
      vertex 5.46726 5.1341 -3.5
      vertex 6.06763 4.40839 3.5
      vertex 6.06763 4.40839 -3.5
    endloop
  endfacet
  facet normal 0.84433 0.535823 0
    outer loop
      vertex 6.5723 3.61315 3.5
      vertex 6.06763 4.40839 -3.5
      vertex 6.06763 4.40839 3.5
    endloop
  endfacet
  facet normal 0.84433 0.535823 0
    outer loop
      vertex 6.06763 4.40839 -3.5
      vertex 6.5723 3.61315 3.5
      vertex 6.5723 3.61315 -3.5
    endloop
  endfacet
  facet normal 0.125337 0.992114 -0
    outer loop
      vertex 1.40536 7.36715 -3.5
      vertex 0.470928 7.4852 3.5
      vertex 1.40536 7.36715 3.5
    endloop
  endfacet
  facet normal 0.125337 0.992114 0
    outer loop
      vertex 0.470928 7.4852 3.5
      vertex 1.40536 7.36715 -3.5
      vertex 0.470928 7.4852 -3.5
    endloop
  endfacet
  facet normal 0.587785 0.809017 -0
    outer loop
      vertex 4.78068 5.77885 -3.5
      vertex 4.0187 6.33246 3.5
      vertex 4.78068 5.77885 3.5
    endloop
  endfacet
  facet normal 0.587785 0.809017 0
    outer loop
      vertex 4.0187 6.33246 3.5
      vertex 4.78068 5.77885 -3.5
      vertex 4.0187 6.33246 -3.5
    endloop
  endfacet
  facet normal -0.84433 0.535823 0
    outer loop
      vertex -6.5723 3.61315 -3.5
      vertex -6.06763 4.40839 3.5
      vertex -6.06763 4.40839 -3.5
    endloop
  endfacet
  facet normal -0.84433 0.535823 0
    outer loop
      vertex -6.06763 4.40839 3.5
      vertex -6.5723 3.61315 -3.5
      vertex -6.5723 3.61315 3.5
    endloop
  endfacet
  facet normal -0.770508 0.637431 0
    outer loop
      vertex -6.06763 4.40839 -3.5
      vertex -5.46726 5.1341 3.5
      vertex -5.46726 5.1341 -3.5
    endloop
  endfacet
  facet normal -0.770508 0.637431 0
    outer loop
      vertex -5.46726 5.1341 3.5
      vertex -6.06763 4.40839 -3.5
      vertex -6.06763 4.40839 3.5
    endloop
  endfacet
  facet normal -0.951057 0.309017 0
    outer loop
      vertex -7.26437 1.86517 -3.5
      vertex -6.97332 2.76093 3.5
      vertex -6.97332 2.76093 -3.5
    endloop
  endfacet
  facet normal -0.951057 0.309017 0
    outer loop
      vertex -6.97332 2.76093 3.5
      vertex -7.26437 1.86517 -3.5
      vertex -7.26437 1.86517 3.5
    endloop
  endfacet
  facet normal -0.982286 0.187386 0
    outer loop
      vertex -7.44086 0.939999 -3.5
      vertex -7.26437 1.86517 3.5
      vertex -7.26437 1.86517 -3.5
    endloop
  endfacet
  facet normal -0.982286 0.187386 0
    outer loop
      vertex -7.26437 1.86517 3.5
      vertex -7.44086 0.939999 -3.5
      vertex -7.44086 0.939999 3.5
    endloop
  endfacet
  facet normal -0.481749 0.876309 0
    outer loop
      vertex -3.19334 6.7862 -3.5
      vertex -4.0187 6.33246 3.5
      vertex -3.19334 6.7862 3.5
    endloop
  endfacet
  facet normal -0.481749 0.876309 0
    outer loop
      vertex -4.0187 6.33246 3.5
      vertex -3.19334 6.7862 -3.5
      vertex -4.0187 6.33246 -3.5
    endloop
  endfacet
  facet normal -0.587785 0.809017 0
    outer loop
      vertex -4.0187 6.33246 -3.5
      vertex -4.78068 5.77885 3.5
      vertex -4.0187 6.33246 3.5
    endloop
  endfacet
  facet normal -0.587785 0.809017 0
    outer loop
      vertex -4.78068 5.77885 3.5
      vertex -4.0187 6.33246 -3.5
      vertex -4.78068 5.77885 -3.5
    endloop
  endfacet
  facet normal -0.248689 0.968583 0
    outer loop
      vertex -1.40536 7.36715 -3.5
      vertex -2.31763 7.13292 3.5
      vertex -1.40536 7.36715 3.5
    endloop
  endfacet
  facet normal -0.248689 0.968583 0
    outer loop
      vertex -2.31763 7.13292 3.5
      vertex -1.40536 7.36715 -3.5
      vertex -2.31763 7.13292 -3.5
    endloop
  endfacet
  facet normal 0.998027 -0.0627908 0
    outer loop
      vertex 7.44086 -0.939999 3.5
      vertex 7.5 0 -3.5
      vertex 7.5 0 3.5
    endloop
  endfacet
  facet normal 0.998027 -0.0627908 0
    outer loop
      vertex 7.5 0 -3.5
      vertex 7.44086 -0.939999 3.5
      vertex 7.44086 -0.939999 -3.5
    endloop
  endfacet
  facet normal 0.481749 -0.876309 0
    outer loop
      vertex 3.19334 -6.7862 -3.5
      vertex 4.0187 -6.33246 3.5
      vertex 3.19334 -6.7862 3.5
    endloop
  endfacet
  facet normal 0.481749 -0.876309 0
    outer loop
      vertex 4.0187 -6.33246 3.5
      vertex 3.19334 -6.7862 -3.5
      vertex 4.0187 -6.33246 -3.5
    endloop
  endfacet
  facet normal 0.770508 -0.637431 0
    outer loop
      vertex 5.46726 -5.1341 3.5
      vertex 6.06763 -4.40839 -3.5
      vertex 6.06763 -4.40839 3.5
    endloop
  endfacet
  facet normal 0.770508 -0.637431 0
    outer loop
      vertex 6.06763 -4.40839 -3.5
      vertex 5.46726 -5.1341 3.5
      vertex 5.46726 -5.1341 -3.5
    endloop
  endfacet
  facet normal 0.982286 -0.187386 0
    outer loop
      vertex 7.26437 -1.86517 3.5
      vertex 7.44086 -0.939999 -3.5
      vertex 7.44086 -0.939999 3.5
    endloop
  endfacet
  facet normal 0.982286 -0.187386 0
    outer loop
      vertex 7.44086 -0.939999 -3.5
      vertex 7.26437 -1.86517 3.5
      vertex 7.26437 -1.86517 -3.5
    endloop
  endfacet
  facet normal -0.951057 -0.309017 0
    outer loop
      vertex -6.97332 -2.76093 -3.5
      vertex -7.26437 -1.86517 3.5
      vertex -7.26437 -1.86517 -3.5
    endloop
  endfacet
  facet normal -0.951057 -0.309017 0
    outer loop
      vertex -7.26437 -1.86517 3.5
      vertex -6.97332 -2.76093 -3.5
      vertex -6.97332 -2.76093 3.5
    endloop
  endfacet
  facet normal 0.684552 -0.728964 0
    outer loop
      vertex 4.78068 -5.77885 -3.5
      vertex 5.46726 -5.1341 3.5
      vertex 4.78068 -5.77885 3.5
    endloop
  endfacet
  facet normal 0.684552 -0.728964 0
    outer loop
      vertex 5.46726 -5.1341 3.5
      vertex 4.78068 -5.77885 -3.5
      vertex 5.46726 -5.1341 -3.5
    endloop
  endfacet
  facet normal 0.904829 -0.425776 0
    outer loop
      vertex 6.5723 -3.61315 3.5
      vertex 6.97332 -2.76093 -3.5
      vertex 6.97332 -2.76093 3.5
    endloop
  endfacet
  facet normal 0.904829 -0.425776 0
    outer loop
      vertex 6.97332 -2.76093 -3.5
      vertex 6.5723 -3.61315 3.5
      vertex 6.5723 -3.61315 -3.5
    endloop
  endfacet
  facet normal -0.684552 -0.728964 0
    outer loop
      vertex -5.46726 -5.1341 -3.5
      vertex -4.78068 -5.77885 3.5
      vertex -5.46726 -5.1341 3.5
    endloop
  endfacet
  facet normal -0.684552 -0.728964 -0
    outer loop
      vertex -4.78068 -5.77885 3.5
      vertex -5.46726 -5.1341 -3.5
      vertex -4.78068 -5.77885 -3.5
    endloop
  endfacet
  facet normal -0.84433 -0.535823 0
    outer loop
      vertex -6.06763 -4.40839 -3.5
      vertex -6.5723 -3.61315 3.5
      vertex -6.5723 -3.61315 -3.5
    endloop
  endfacet
  facet normal -0.84433 -0.535823 0
    outer loop
      vertex -6.5723 -3.61315 3.5
      vertex -6.06763 -4.40839 -3.5
      vertex -6.06763 -4.40839 3.5
    endloop
  endfacet
  facet normal 0 0 -1
    outer loop
      vertex 4.25 0 -3.5
      vertex 7.5 0 -3.5
      vertex 7.44086 -0.939999 -3.5
    endloop
  endfacet
  facet normal 0 0 -1
    outer loop
      vertex 4.21649 -0.532666 -3.5
      vertex 7.44086 -0.939999 -3.5
      vertex 7.26437 -1.86517 -3.5
    endloop
  endfacet
  facet normal 0 0 -1
    outer loop
      vertex 7.5 0 -3.5
      vertex 4.25 0 -3.5
      vertex 7.44086 0.939999 -3.5
    endloop
  endfacet
  facet normal 0 0 -1
    outer loop
      vertex 4.11648 -1.05693 -3.5
      vertex 7.26437 -1.86517 -3.5
      vertex 6.97332 -2.76093 -3.5
    endloop
  endfacet
  facet normal 0 0 -1
    outer loop
      vertex 4.21649 0.532666 -3.5
      vertex 7.44086 0.939999 -3.5
      vertex 4.25 0 -3.5
    endloop
  endfacet
  facet normal 0 0 -1
    outer loop
      vertex 3.95155 -1.56453 -3.5
      vertex 6.97332 -2.76093 -3.5
      vertex 6.5723 -3.61315 -3.5
    endloop
  endfacet
  facet normal -0 0 -1
    outer loop
      vertex 7.44086 0.939999 -3.5
      vertex 4.21649 0.532666 -3.5
      vertex 7.26437 1.86517 -3.5
    endloop
  endfacet
  facet normal 0 0 -1
    outer loop
      vertex 3.7243 -2.04745 -3.5
      vertex 6.5723 -3.61315 -3.5
      vertex 6.06763 -4.40839 -3.5
    endloop
  endfacet
  facet normal 0 0 -1
    outer loop
      vertex 4.11648 1.05693 -3.5
      vertex 7.26437 1.86517 -3.5
      vertex 4.21649 0.532666 -3.5
    endloop
  endfacet
  facet normal 0 0 -1
    outer loop
      vertex 3.43832 -2.49809 -3.5
      vertex 6.06763 -4.40839 -3.5
      vertex 5.46726 -5.1341 -3.5
    endloop
  endfacet
  facet normal -0 0 -1
    outer loop
      vertex 7.26437 1.86517 -3.5
      vertex 4.11648 1.05693 -3.5
      vertex 6.97332 2.76093 -3.5
    endloop
  endfacet
  facet normal 0 0 -1
    outer loop
      vertex 3.09812 -2.90932 -3.5
      vertex 5.46726 -5.1341 -3.5
      vertex 4.78068 -5.77885 -3.5
    endloop
  endfacet
  facet normal 0 0 -1
    outer loop
      vertex 3.95155 1.56453 -3.5
      vertex 6.97332 2.76093 -3.5
      vertex 4.11648 1.05693 -3.5
    endloop
  endfacet
  facet normal -0 0 -1
    outer loop
      vertex 6.97332 2.76093 -3.5
      vertex 3.95155 1.56453 -3.5
      vertex 6.5723 3.61315 -3.5
    endloop
  endfacet
  facet normal 0 0 -1
    outer loop
      vertex 7.44086 -0.939999 -3.5
      vertex 4.21649 -0.532666 -3.5
      vertex 4.25 0 -3.5
    endloop
  endfacet
  facet normal 0 0 -1
    outer loop
      vertex 7.26437 -1.86517 -3.5
      vertex 4.11648 -1.05693 -3.5
      vertex 4.21649 -0.532666 -3.5
    endloop
  endfacet
  facet normal 0 0 -1
    outer loop
      vertex 2.70905 -3.27468 -3.5
      vertex 4.78068 -5.77885 -3.5
      vertex 4.0187 -6.33246 -3.5
    endloop
  endfacet
  facet normal 0 0 -1
    outer loop
      vertex 6.97332 -2.76093 -3.5
      vertex 3.95155 -1.56453 -3.5
      vertex 4.11648 -1.05693 -3.5
    endloop
  endfacet
  facet normal 0 0 -1
    outer loop
      vertex 6.5723 -3.61315 -3.5
      vertex 3.7243 -2.04745 -3.5
      vertex 3.95155 -1.56453 -3.5
    endloop
  endfacet
  facet normal 0 0 -1
    outer loop
      vertex 6.06763 -4.40839 -3.5
      vertex 3.43832 -2.49809 -3.5
      vertex 3.7243 -2.04745 -3.5
    endloop
  endfacet
  facet normal 0 0 -1
    outer loop
      vertex 2.27726 -3.58839 -3.5
      vertex 4.0187 -6.33246 -3.5
      vertex 3.19334 -6.7862 -3.5
    endloop
  endfacet
  facet normal 0 0 -1
    outer loop
      vertex 5.46726 -5.1341 -3.5
      vertex 3.09812 -2.90932 -3.5
      vertex 3.43832 -2.49809 -3.5
    endloop
  endfacet
  facet normal 0 0 -1
    outer loop
      vertex 4.78068 -5.77885 -3.5
      vertex 2.70905 -3.27468 -3.5
      vertex 3.09812 -2.90932 -3.5
    endloop
  endfacet
  facet normal 0 0 -1
    outer loop
      vertex 1.80956 -3.84551 -3.5
      vertex 3.19334 -6.7862 -3.5
      vertex 2.31763 -7.13292 -3.5
    endloop
  endfacet
  facet normal 0 0 -1
    outer loop
      vertex 4.0187 -6.33246 -3.5
      vertex 2.27726 -3.58839 -3.5
      vertex 2.70905 -3.27468 -3.5
    endloop
  endfacet
  facet normal 0 0 -1
    outer loop
      vertex 3.19334 -6.7862 -3.5
      vertex 1.80956 -3.84551 -3.5
      vertex 2.27726 -3.58839 -3.5
    endloop
  endfacet
  facet normal 0 0 -1
    outer loop
      vertex 1.31332 -4.04199 -3.5
      vertex 2.31763 -7.13292 -3.5
      vertex 1.40536 -7.36715 -3.5
    endloop
  endfacet
  facet normal 0 0 -1
    outer loop
      vertex 2.31763 -7.13292 -3.5
      vertex 1.31332 -4.04199 -3.5
      vertex 1.80956 -3.84551 -3.5
    endloop
  endfacet
  facet normal 0 0 -1
    outer loop
      vertex 1.40536 -7.36715 -3.5
      vertex 0.796371 -4.17472 -3.5
      vertex 1.31332 -4.04199 -3.5
    endloop
  endfacet
  facet normal 0 0 -1
    outer loop
      vertex 0.470928 -7.4852 -3.5
      vertex 0.796371 -4.17472 -3.5
      vertex 1.40536 -7.36715 -3.5
    endloop
  endfacet
  facet normal 0 0 -1
    outer loop
      vertex 0.470928 -7.4852 -3.5
      vertex 0.266859 -4.24161 -3.5
      vertex 0.796371 -4.17472 -3.5
    endloop
  endfacet
  facet normal 0 0 -1
    outer loop
      vertex 0.470928 -7.4852 -3.5
      vertex -0.266859 -4.24161 -3.5
      vertex 0.266859 -4.24161 -3.5
    endloop
  endfacet
  facet normal 0 0 -1
    outer loop
      vertex -0.470928 -7.4852 -3.5
      vertex -0.266859 -4.24161 -3.5
      vertex 0.470928 -7.4852 -3.5
    endloop
  endfacet
  facet normal 0 0 -1
    outer loop
      vertex -0.470928 -7.4852 -3.5
      vertex -0.796371 -4.17472 -3.5
      vertex -0.266859 -4.24161 -3.5
    endloop
  endfacet
  facet normal 0 0 -1
    outer loop
      vertex -1.40536 -7.36715 -3.5
      vertex -0.796371 -4.17472 -3.5
      vertex -0.470928 -7.4852 -3.5
    endloop
  endfacet
  facet normal -0 0 -1
    outer loop
      vertex -0.796371 -4.17472 -3.5
      vertex -1.40536 -7.36715 -3.5
      vertex -1.31332 -4.04199 -3.5
    endloop
  endfacet
  facet normal 0 0 -1
    outer loop
      vertex -2.31763 -7.13292 -3.5
      vertex -1.31332 -4.04199 -3.5
      vertex -1.40536 -7.36715 -3.5
    endloop
  endfacet
  facet normal -0 0 -1
    outer loop
      vertex -1.31332 -4.04199 -3.5
      vertex -2.31763 -7.13292 -3.5
      vertex -1.80956 -3.84551 -3.5
    endloop
  endfacet
  facet normal 0 0 -1
    outer loop
      vertex -3.19334 -6.7862 -3.5
      vertex -1.80956 -3.84551 -3.5
      vertex -2.31763 -7.13292 -3.5
    endloop
  endfacet
  facet normal -0 0 -1
    outer loop
      vertex -1.80956 -3.84551 -3.5
      vertex -3.19334 -6.7862 -3.5
      vertex -2.27726 -3.58839 -3.5
    endloop
  endfacet
  facet normal 0 0 -1
    outer loop
      vertex -4.0187 -6.33246 -3.5
      vertex -2.27726 -3.58839 -3.5
      vertex -3.19334 -6.7862 -3.5
    endloop
  endfacet
  facet normal -0 0 -1
    outer loop
      vertex -2.27726 -3.58839 -3.5
      vertex -4.0187 -6.33246 -3.5
      vertex -2.70905 -3.27468 -3.5
    endloop
  endfacet
  facet normal 0 0 -1
    outer loop
      vertex -4.78068 -5.77885 -3.5
      vertex -2.70905 -3.27468 -3.5
      vertex -4.0187 -6.33246 -3.5
    endloop
  endfacet
  facet normal -0 0 -1
    outer loop
      vertex -2.70905 -3.27468 -3.5
      vertex -4.78068 -5.77885 -3.5
      vertex -3.09812 -2.90932 -3.5
    endloop
  endfacet
  facet normal 0 0 -1
    outer loop
      vertex -5.46726 -5.1341 -3.5
      vertex -3.09812 -2.90932 -3.5
      vertex -4.78068 -5.77885 -3.5
    endloop
  endfacet
  facet normal -0 0 -1
    outer loop
      vertex -3.09812 -2.90932 -3.5
      vertex -5.46726 -5.1341 -3.5
      vertex -3.43832 -2.49809 -3.5
    endloop
  endfacet
  facet normal 0 0 -1
    outer loop
      vertex -6.06763 -4.40839 -3.5
      vertex -3.43832 -2.49809 -3.5
      vertex -5.46726 -5.1341 -3.5
    endloop
  endfacet
  facet normal -0 0 -1
    outer loop
      vertex -3.43832 -2.49809 -3.5
      vertex -6.06763 -4.40839 -3.5
      vertex -3.7243 -2.04745 -3.5
    endloop
  endfacet
  facet normal 0 0 -1
    outer loop
      vertex -6.5723 -3.61315 -3.5
      vertex -3.7243 -2.04745 -3.5
      vertex -6.06763 -4.40839 -3.5
    endloop
  endfacet
  facet normal -0 0 -1
    outer loop
      vertex -3.7243 -2.04745 -3.5
      vertex -6.5723 -3.61315 -3.5
      vertex -3.95155 -1.56453 -3.5
    endloop
  endfacet
  facet normal 0 0 -1
    outer loop
      vertex 3.7243 2.04745 -3.5
      vertex 6.5723 3.61315 -3.5
      vertex 3.95155 1.56453 -3.5
    endloop
  endfacet
  facet normal -0 0 -1
    outer loop
      vertex 6.5723 3.61315 -3.5
      vertex 3.7243 2.04745 -3.5
      vertex 6.06763 4.40839 -3.5
    endloop
  endfacet
  facet normal 0 0 -1
    outer loop
      vertex 3.43832 2.49809 -3.5
      vertex 6.06763 4.40839 -3.5
      vertex 3.7243 2.04745 -3.5
    endloop
  endfacet
  facet normal -0 0 -1
    outer loop
      vertex 6.06763 4.40839 -3.5
      vertex 3.43832 2.49809 -3.5
      vertex 5.46726 5.1341 -3.5
    endloop
  endfacet
  facet normal 0 0 -1
    outer loop
      vertex 3.09812 2.90932 -3.5
      vertex 5.46726 5.1341 -3.5
      vertex 3.43832 2.49809 -3.5
    endloop
  endfacet
  facet normal -0 0 -1
    outer loop
      vertex 5.46726 5.1341 -3.5
      vertex 3.09812 2.90932 -3.5
      vertex 4.78068 5.77885 -3.5
    endloop
  endfacet
  facet normal 0 0 -1
    outer loop
      vertex 2.70905 3.27468 -3.5
      vertex 4.78068 5.77885 -3.5
      vertex 3.09812 2.90932 -3.5
    endloop
  endfacet
  facet normal -0 0 -1
    outer loop
      vertex 4.78068 5.77885 -3.5
      vertex 2.70905 3.27468 -3.5
      vertex 4.0187 6.33246 -3.5
    endloop
  endfacet
  facet normal 0 0 -1
    outer loop
      vertex 2.27726 3.58839 -3.5
      vertex 4.0187 6.33246 -3.5
      vertex 2.70905 3.27468 -3.5
    endloop
  endfacet
  facet normal -0 0 -1
    outer loop
      vertex 4.0187 6.33246 -3.5
      vertex 2.27726 3.58839 -3.5
      vertex 3.19334 6.7862 -3.5
    endloop
  endfacet
  facet normal 0 0 -1
    outer loop
      vertex 1.80956 3.84551 -3.5
      vertex 3.19334 6.7862 -3.5
      vertex 2.27726 3.58839 -3.5
    endloop
  endfacet
  facet normal -0 0 -1
    outer loop
      vertex 3.19334 6.7862 -3.5
      vertex 1.80956 3.84551 -3.5
      vertex 2.31763 7.13292 -3.5
    endloop
  endfacet
  facet normal 0 0 -1
    outer loop
      vertex 1.31332 4.04199 -3.5
      vertex 2.31763 7.13292 -3.5
      vertex 1.80956 3.84551 -3.5
    endloop
  endfacet
  facet normal -0 0 -1
    outer loop
      vertex 2.31763 7.13292 -3.5
      vertex 1.31332 4.04199 -3.5
      vertex 1.40536 7.36715 -3.5
    endloop
  endfacet
  facet normal 0 0 -1
    outer loop
      vertex 0.796371 4.17472 -3.5
      vertex 1.40536 7.36715 -3.5
      vertex 1.31332 4.04199 -3.5
    endloop
  endfacet
  facet normal 0 0 -1
    outer loop
      vertex 0.796371 4.17472 -3.5
      vertex 0.470928 7.4852 -3.5
      vertex 1.40536 7.36715 -3.5
    endloop
  endfacet
  facet normal 0 0 -1
    outer loop
      vertex 0.266859 4.24161 -3.5
      vertex 0.470928 7.4852 -3.5
      vertex 0.796371 4.17472 -3.5
    endloop
  endfacet
  facet normal 0 0 -1
    outer loop
      vertex -0.266859 4.24161 -3.5
      vertex 0.470928 7.4852 -3.5
      vertex 0.266859 4.24161 -3.5
    endloop
  endfacet
  facet normal 0 0 -1
    outer loop
      vertex -0.266859 4.24161 -3.5
      vertex -0.470928 7.4852 -3.5
      vertex 0.470928 7.4852 -3.5
    endloop
  endfacet
  facet normal 0 0 -1
    outer loop
      vertex -0.796371 4.17472 -3.5
      vertex -0.470928 7.4852 -3.5
      vertex -0.266859 4.24161 -3.5
    endloop
  endfacet
  facet normal 0 0 -1
    outer loop
      vertex -1.40536 7.36715 -3.5
      vertex -0.796371 4.17472 -3.5
      vertex -1.31332 4.04199 -3.5
    endloop
  endfacet
  facet normal 0 0 -1
    outer loop
      vertex -0.796371 4.17472 -3.5
      vertex -1.40536 7.36715 -3.5
      vertex -0.470928 7.4852 -3.5
    endloop
  endfacet
  facet normal 0 0 -1
    outer loop
      vertex -2.31763 7.13292 -3.5
      vertex -1.31332 4.04199 -3.5
      vertex -1.80956 3.84551 -3.5
    endloop
  endfacet
  facet normal 0 0 -1
    outer loop
      vertex -3.19334 6.7862 -3.5
      vertex -1.80956 3.84551 -3.5
      vertex -2.27726 3.58839 -3.5
    endloop
  endfacet
  facet normal 0 0 -1
    outer loop
      vertex -1.31332 4.04199 -3.5
      vertex -2.31763 7.13292 -3.5
      vertex -1.40536 7.36715 -3.5
    endloop
  endfacet
  facet normal 0 0 -1
    outer loop
      vertex -4.0187 6.33246 -3.5
      vertex -2.27726 3.58839 -3.5
      vertex -2.70905 3.27468 -3.5
    endloop
  endfacet
  facet normal 0 0 -1
    outer loop
      vertex -4.78068 5.77885 -3.5
      vertex -2.70905 3.27468 -3.5
      vertex -3.09812 2.90932 -3.5
    endloop
  endfacet
  facet normal 0 0 -1
    outer loop
      vertex -1.80956 3.84551 -3.5
      vertex -3.19334 6.7862 -3.5
      vertex -2.31763 7.13292 -3.5
    endloop
  endfacet
  facet normal 0 0 -1
    outer loop
      vertex -5.46726 5.1341 -3.5
      vertex -3.09812 2.90932 -3.5
      vertex -3.43832 2.49809 -3.5
    endloop
  endfacet
  facet normal 0 0 -1
    outer loop
      vertex -6.06763 4.40839 -3.5
      vertex -3.43832 2.49809 -3.5
      vertex -3.7243 2.04745 -3.5
    endloop
  endfacet
  facet normal 0 0 -1
    outer loop
      vertex -6.5723 3.61315 -3.5
      vertex -3.7243 2.04745 -3.5
      vertex -3.95155 1.56453 -3.5
    endloop
  endfacet
  facet normal 0 0 -1
    outer loop
      vertex -2.27726 3.58839 -3.5
      vertex -4.0187 6.33246 -3.5
      vertex -3.19334 6.7862 -3.5
    endloop
  endfacet
  facet normal 0 0 -1
    outer loop
      vertex -6.97332 2.76093 -3.5
      vertex -3.95155 1.56453 -3.5
      vertex -4.11648 1.05693 -3.5
    endloop
  endfacet
  facet normal 0 0 -1
    outer loop
      vertex -7.26437 1.86517 -3.5
      vertex -4.11648 1.05693 -3.5
      vertex -4.21649 0.532666 -3.5
    endloop
  endfacet
  facet normal 0 0 -1
    outer loop
      vertex -7.44086 0.939999 -3.5
      vertex -4.21649 0.532666 -3.5
      vertex -4.25 0 -3.5
    endloop
  endfacet
  facet normal 0 0 -1
    outer loop
      vertex -6.97332 -2.76093 -3.5
      vertex -3.95155 -1.56453 -3.5
      vertex -6.5723 -3.61315 -3.5
    endloop
  endfacet
  facet normal 0 0 -1
    outer loop
      vertex -2.70905 3.27468 -3.5
      vertex -4.78068 5.77885 -3.5
      vertex -4.0187 6.33246 -3.5
    endloop
  endfacet
  facet normal -0 0 -1
    outer loop
      vertex -3.95155 -1.56453 -3.5
      vertex -6.97332 -2.76093 -3.5
      vertex -4.11648 -1.05693 -3.5
    endloop
  endfacet
  facet normal 0 0 -1
    outer loop
      vertex -3.09812 2.90932 -3.5
      vertex -5.46726 5.1341 -3.5
      vertex -4.78068 5.77885 -3.5
    endloop
  endfacet
  facet normal 0 0 -1
    outer loop
      vertex -7.26437 -1.86517 -3.5
      vertex -4.11648 -1.05693 -3.5
      vertex -6.97332 -2.76093 -3.5
    endloop
  endfacet
  facet normal 0 0 -1
    outer loop
      vertex -3.43832 2.49809 -3.5
      vertex -6.06763 4.40839 -3.5
      vertex -5.46726 5.1341 -3.5
    endloop
  endfacet
  facet normal -0 0 -1
    outer loop
      vertex -4.11648 -1.05693 -3.5
      vertex -7.26437 -1.86517 -3.5
      vertex -4.21649 -0.532666 -3.5
    endloop
  endfacet
  facet normal 0 0 -1
    outer loop
      vertex -3.7243 2.04745 -3.5
      vertex -6.5723 3.61315 -3.5
      vertex -6.06763 4.40839 -3.5
    endloop
  endfacet
  facet normal 0 0 -1
    outer loop
      vertex -7.44086 -0.939999 -3.5
      vertex -4.21649 -0.532666 -3.5
      vertex -7.26437 -1.86517 -3.5
    endloop
  endfacet
  facet normal 0 0 -1
    outer loop
      vertex -3.95155 1.56453 -3.5
      vertex -6.97332 2.76093 -3.5
      vertex -6.5723 3.61315 -3.5
    endloop
  endfacet
  facet normal -0 0 -1
    outer loop
      vertex -4.21649 -0.532666 -3.5
      vertex -7.44086 -0.939999 -3.5
      vertex -4.25 0 -3.5
    endloop
  endfacet
  facet normal 0 0 -1
    outer loop
      vertex -4.11648 1.05693 -3.5
      vertex -7.26437 1.86517 -3.5
      vertex -6.97332 2.76093 -3.5
    endloop
  endfacet
  facet normal 0 0 -1
    outer loop
      vertex -7.5 0 -3.5
      vertex -4.25 0 -3.5
      vertex -7.44086 -0.939999 -3.5
    endloop
  endfacet
  facet normal 0 0 -1
    outer loop
      vertex -4.21649 0.532666 -3.5
      vertex -7.44086 0.939999 -3.5
      vertex -7.26437 1.86517 -3.5
    endloop
  endfacet
  facet normal 0 0 -1
    outer loop
      vertex -4.25 0 -3.5
      vertex -7.5 0 -3.5
      vertex -7.44086 0.939999 -3.5
    endloop
  endfacet
  facet normal 0.248689 -0.968583 0
    outer loop
      vertex 1.40536 -7.36715 -3.5
      vertex 2.31763 -7.13292 3.5
      vertex 1.40536 -7.36715 3.5
    endloop
  endfacet
  facet normal 0.248689 -0.968583 0
    outer loop
      vertex 2.31763 -7.13292 3.5
      vertex 1.40536 -7.36715 -3.5
      vertex 2.31763 -7.13292 -3.5
    endloop
  endfacet
  facet normal 0.587785 -0.809017 0
    outer loop
      vertex 4.0187 -6.33246 -3.5
      vertex 4.78068 -5.77885 3.5
      vertex 4.0187 -6.33246 3.5
    endloop
  endfacet
  facet normal 0.587785 -0.809017 0
    outer loop
      vertex 4.78068 -5.77885 3.5
      vertex 4.0187 -6.33246 -3.5
      vertex 4.78068 -5.77885 -3.5
    endloop
  endfacet
  facet normal 0.951057 -0.309017 0
    outer loop
      vertex 6.97332 -2.76093 3.5
      vertex 7.26437 -1.86517 -3.5
      vertex 7.26437 -1.86517 3.5
    endloop
  endfacet
  facet normal 0.951057 -0.309017 0
    outer loop
      vertex 7.26437 -1.86517 -3.5
      vertex 6.97332 -2.76093 3.5
      vertex 6.97332 -2.76093 -3.5
    endloop
  endfacet
  facet normal -0.368126 -0.929776 0
    outer loop
      vertex -3.19334 -6.7862 -3.5
      vertex -2.31763 -7.13292 3.5
      vertex -3.19334 -6.7862 3.5
    endloop
  endfacet
  facet normal -0.368126 -0.929776 -0
    outer loop
      vertex -2.31763 -7.13292 3.5
      vertex -3.19334 -6.7862 -3.5
      vertex -2.31763 -7.13292 -3.5
    endloop
  endfacet
  facet normal -0.248689 -0.968583 0
    outer loop
      vertex -2.31763 -7.13292 -3.5
      vertex -1.40536 -7.36715 3.5
      vertex -2.31763 -7.13292 3.5
    endloop
  endfacet
  facet normal -0.248689 -0.968583 -0
    outer loop
      vertex -1.40536 -7.36715 3.5
      vertex -2.31763 -7.13292 -3.5
      vertex -1.40536 -7.36715 -3.5
    endloop
  endfacet
  facet normal -0.770508 -0.637431 0
    outer loop
      vertex -5.46726 -5.1341 -3.5
      vertex -6.06763 -4.40839 3.5
      vertex -6.06763 -4.40839 -3.5
    endloop
  endfacet
  facet normal -0.770508 -0.637431 0
    outer loop
      vertex -6.06763 -4.40839 3.5
      vertex -5.46726 -5.1341 -3.5
      vertex -5.46726 -5.1341 3.5
    endloop
  endfacet
  facet normal -0.904829 -0.425776 0
    outer loop
      vertex -6.5723 -3.61315 -3.5
      vertex -6.97332 -2.76093 3.5
      vertex -6.97332 -2.76093 -3.5
    endloop
  endfacet
  facet normal -0.904829 -0.425776 0
    outer loop
      vertex -6.97332 -2.76093 3.5
      vertex -6.5723 -3.61315 -3.5
      vertex -6.5723 -3.61315 3.5
    endloop
  endfacet
  facet normal -0.982286 -0.187386 0
    outer loop
      vertex -7.26437 -1.86517 -3.5
      vertex -7.44086 -0.939999 3.5
      vertex -7.44086 -0.939999 -3.5
    endloop
  endfacet
  facet normal -0.982286 -0.187386 0
    outer loop
      vertex -7.44086 -0.939999 3.5
      vertex -7.26437 -1.86517 -3.5
      vertex -7.26437 -1.86517 3.5
    endloop
  endfacet
  facet normal -0.998027 -0.0627908 0
    outer loop
      vertex -7.44086 -0.939999 -3.5
      vertex -7.5 0 3.5
      vertex -7.5 0 -3.5
    endloop
  endfacet
  facet normal -0.998027 -0.0627908 0
    outer loop
      vertex -7.5 0 3.5
      vertex -7.44086 -0.939999 -3.5
      vertex -7.44086 -0.939999 3.5
    endloop
  endfacet
  facet normal -0.125337 -0.992114 0
    outer loop
      vertex -1.40536 -7.36715 -3.5
      vertex -0.470928 -7.4852 3.5
      vertex -1.40536 -7.36715 3.5
    endloop
  endfacet
  facet normal -0.125337 -0.992114 -0
    outer loop
      vertex -0.470928 -7.4852 3.5
      vertex -1.40536 -7.36715 -3.5
      vertex -0.470928 -7.4852 -3.5
    endloop
  endfacet
  facet normal -0.481749 -0.876309 0
    outer loop
      vertex -4.0187 -6.33246 -3.5
      vertex -3.19334 -6.7862 3.5
      vertex -4.0187 -6.33246 3.5
    endloop
  endfacet
  facet normal -0.481749 -0.876309 -0
    outer loop
      vertex -3.19334 -6.7862 3.5
      vertex -4.0187 -6.33246 -3.5
      vertex -3.19334 -6.7862 -3.5
    endloop
  endfacet
  facet normal -0.587785 -0.809017 0
    outer loop
      vertex -4.78068 -5.77885 -3.5
      vertex -4.0187 -6.33246 3.5
      vertex -4.78068 -5.77885 3.5
    endloop
  endfacet
  facet normal -0.587785 -0.809017 -0
    outer loop
      vertex -4.0187 -6.33246 3.5
      vertex -4.78068 -5.77885 -3.5
      vertex -4.0187 -6.33246 -3.5
    endloop
  endfacet
  facet normal -0.844332 -0.53582 0
    outer loop
      vertex 3.7243 2.04745 -3.5
      vertex 3.43832 2.49809 3.5
      vertex 3.43832 2.49809 -3.5
    endloop
  endfacet
  facet normal -0.844332 -0.53582 0
    outer loop
      vertex 3.43832 2.49809 3.5
      vertex 3.7243 2.04745 -3.5
      vertex 3.7243 2.04745 3.5
    endloop
  endfacet
  facet normal -0.24869 -0.968583 0
    outer loop
      vertex 0.796371 4.17472 -3.5
      vertex 1.31332 4.04199 3.5
      vertex 0.796371 4.17472 3.5
    endloop
  endfacet
  facet normal -0.24869 -0.968583 -0
    outer loop
      vertex 1.31332 4.04199 3.5
      vertex 0.796371 4.17472 -3.5
      vertex 1.31332 4.04199 -3.5
    endloop
  endfacet
  facet normal -0.368132 -0.929773 0
    outer loop
      vertex 1.31332 4.04199 -3.5
      vertex 1.80956 3.84551 3.5
      vertex 1.31332 4.04199 3.5
    endloop
  endfacet
  facet normal -0.368132 -0.929773 -0
    outer loop
      vertex 1.80956 3.84551 3.5
      vertex 1.31332 4.04199 -3.5
      vertex 1.80956 3.84551 -3.5
    endloop
  endfacet
  facet normal 0.368132 -0.929773 0
    outer loop
      vertex -1.80956 3.84551 -3.5
      vertex -1.31332 4.04199 3.5
      vertex -1.80956 3.84551 3.5
    endloop
  endfacet
  facet normal 0.368132 -0.929773 0
    outer loop
      vertex -1.31332 4.04199 3.5
      vertex -1.80956 3.84551 -3.5
      vertex -1.31332 4.04199 -3.5
    endloop
  endfacet
  facet normal 0.904823 -0.425787 0
    outer loop
      vertex -3.95155 1.56453 3.5
      vertex -3.7243 2.04745 -3.5
      vertex -3.7243 2.04745 3.5
    endloop
  endfacet
  facet normal 0.904823 -0.425787 0
    outer loop
      vertex -3.7243 2.04745 -3.5
      vertex -3.95155 1.56453 3.5
      vertex -3.95155 1.56453 -3.5
    endloop
  endfacet
  facet normal -0.982287 0.187384 0
    outer loop
      vertex 4.11648 -1.05693 -3.5
      vertex 4.21649 -0.532666 3.5
      vertex 4.21649 -0.532666 -3.5
    endloop
  endfacet
  facet normal -0.982287 0.187384 0
    outer loop
      vertex 4.21649 -0.532666 3.5
      vertex 4.11648 -1.05693 -3.5
      vertex 4.11648 -1.05693 3.5
    endloop
  endfacet
  facet normal -0.587781 -0.80902 0
    outer loop
      vertex 2.27726 3.58839 -3.5
      vertex 2.70905 3.27468 3.5
      vertex 2.27726 3.58839 3.5
    endloop
  endfacet
  facet normal -0.587781 -0.80902 -0
    outer loop
      vertex 2.70905 3.27468 3.5
      vertex 2.27726 3.58839 -3.5
      vertex 2.70905 3.27468 -3.5
    endloop
  endfacet
  facet normal 0.770512 -0.637425 0
    outer loop
      vertex -3.43832 2.49809 3.5
      vertex -3.09812 2.90932 -3.5
      vertex -3.09812 2.90932 3.5
    endloop
  endfacet
  facet normal 0.770512 -0.637425 0
    outer loop
      vertex -3.09812 2.90932 -3.5
      vertex -3.43832 2.49809 3.5
      vertex -3.43832 2.49809 -3.5
    endloop
  endfacet
  facet normal 0.481753 -0.876307 0
    outer loop
      vertex -2.27726 3.58839 -3.5
      vertex -1.80956 3.84551 3.5
      vertex -2.27726 3.58839 3.5
    endloop
  endfacet
  facet normal 0.481753 -0.876307 0
    outer loop
      vertex -1.80956 3.84551 3.5
      vertex -2.27726 3.58839 -3.5
      vertex -1.80956 3.84551 -3.5
    endloop
  endfacet
  facet normal 0.125328 -0.992115 0
    outer loop
      vertex -0.796371 4.17472 -3.5
      vertex -0.266859 4.24161 3.5
      vertex -0.796371 4.17472 3.5
    endloop
  endfacet
  facet normal 0.125328 -0.992115 0
    outer loop
      vertex -0.266859 4.24161 3.5
      vertex -0.796371 4.17472 -3.5
      vertex -0.266859 4.24161 -3.5
    endloop
  endfacet
  facet normal -0.998027 -0.0627858 0
    outer loop
      vertex 4.25 0 -3.5
      vertex 4.21649 0.532666 3.5
      vertex 4.21649 0.532666 -3.5
    endloop
  endfacet
  facet normal -0.998027 -0.0627858 0
    outer loop
      vertex 4.21649 0.532666 3.5
      vertex 4.25 0 -3.5
      vertex 4.25 0 3.5
    endloop
  endfacet
  facet normal -0.951056 0.309018 0
    outer loop
      vertex 3.95155 -1.56453 -3.5
      vertex 4.11648 -1.05693 3.5
      vertex 4.11648 -1.05693 -3.5
    endloop
  endfacet
  facet normal -0.951056 0.309018 0
    outer loop
      vertex 4.11648 -1.05693 3.5
      vertex 3.95155 -1.56453 -3.5
      vertex 3.95155 -1.56453 3.5
    endloop
  endfacet
  facet normal -0.587781 0.80902 0
    outer loop
      vertex 2.70905 -3.27468 -3.5
      vertex 2.27726 -3.58839 3.5
      vertex 2.70905 -3.27468 3.5
    endloop
  endfacet
  facet normal -0.587781 0.80902 0
    outer loop
      vertex 2.27726 -3.58839 3.5
      vertex 2.70905 -3.27468 -3.5
      vertex 2.27726 -3.58839 -3.5
    endloop
  endfacet
  facet normal -0.684546 -0.72897 0
    outer loop
      vertex 2.70905 3.27468 -3.5
      vertex 3.09812 2.90932 3.5
      vertex 2.70905 3.27468 3.5
    endloop
  endfacet
  facet normal -0.684546 -0.72897 -0
    outer loop
      vertex 3.09812 2.90932 3.5
      vertex 2.70905 3.27468 -3.5
      vertex 3.09812 2.90932 -3.5
    endloop
  endfacet
  facet normal -0.770512 -0.637425 0
    outer loop
      vertex 3.43832 2.49809 -3.5
      vertex 3.09812 2.90932 3.5
      vertex 3.09812 2.90932 -3.5
    endloop
  endfacet
  facet normal -0.770512 -0.637425 0
    outer loop
      vertex 3.09812 2.90932 3.5
      vertex 3.43832 2.49809 -3.5
      vertex 3.43832 2.49809 3.5
    endloop
  endfacet
  facet normal 0 -1 0
    outer loop
      vertex -0.266859 4.24161 -3.5
      vertex 0.266859 4.24161 3.5
      vertex -0.266859 4.24161 3.5
    endloop
  endfacet
  facet normal 0 -1 -0
    outer loop
      vertex 0.266859 4.24161 3.5
      vertex -0.266859 4.24161 -3.5
      vertex 0.266859 4.24161 -3.5
    endloop
  endfacet
  facet normal -0.481753 -0.876307 0
    outer loop
      vertex 1.80956 3.84551 -3.5
      vertex 2.27726 3.58839 3.5
      vertex 1.80956 3.84551 3.5
    endloop
  endfacet
  facet normal -0.481753 -0.876307 -0
    outer loop
      vertex 2.27726 3.58839 3.5
      vertex 1.80956 3.84551 -3.5
      vertex 2.27726 3.58839 -3.5
    endloop
  endfacet
  facet normal 0.998027 -0.0627858 0
    outer loop
      vertex -4.25 0 3.5
      vertex -4.21649 0.532666 -3.5
      vertex -4.21649 0.532666 3.5
    endloop
  endfacet
  facet normal 0.998027 -0.0627858 0
    outer loop
      vertex -4.21649 0.532666 -3.5
      vertex -4.25 0 3.5
      vertex -4.25 0 -3.5
    endloop
  endfacet
  facet normal 0.951056 -0.309018 0
    outer loop
      vertex -4.11648 1.05693 3.5
      vertex -3.95155 1.56453 -3.5
      vertex -3.95155 1.56453 3.5
    endloop
  endfacet
  facet normal 0.951056 -0.309018 0
    outer loop
      vertex -3.95155 1.56453 -3.5
      vertex -4.11648 1.05693 3.5
      vertex -4.11648 1.05693 -3.5
    endloop
  endfacet
  facet normal 0.844332 -0.53582 0
    outer loop
      vertex -3.7243 2.04745 3.5
      vertex -3.43832 2.49809 -3.5
      vertex -3.43832 2.49809 3.5
    endloop
  endfacet
  facet normal 0.844332 -0.53582 0
    outer loop
      vertex -3.43832 2.49809 -3.5
      vertex -3.7243 2.04745 3.5
      vertex -3.7243 2.04745 -3.5
    endloop
  endfacet
  facet normal 0.24869 -0.968583 0
    outer loop
      vertex -1.31332 4.04199 -3.5
      vertex -0.796371 4.17472 3.5
      vertex -1.31332 4.04199 3.5
    endloop
  endfacet
  facet normal 0.24869 -0.968583 0
    outer loop
      vertex -0.796371 4.17472 3.5
      vertex -1.31332 4.04199 -3.5
      vertex -0.796371 4.17472 -3.5
    endloop
  endfacet
  facet normal 0.587781 -0.80902 0
    outer loop
      vertex -2.70905 3.27468 -3.5
      vertex -2.27726 3.58839 3.5
      vertex -2.70905 3.27468 3.5
    endloop
  endfacet
  facet normal 0.587781 -0.80902 0
    outer loop
      vertex -2.27726 3.58839 3.5
      vertex -2.70905 3.27468 -3.5
      vertex -2.27726 3.58839 -3.5
    endloop
  endfacet
  facet normal 0.684546 -0.72897 0
    outer loop
      vertex -3.09812 2.90932 -3.5
      vertex -2.70905 3.27468 3.5
      vertex -3.09812 2.90932 3.5
    endloop
  endfacet
  facet normal 0.684546 -0.72897 0
    outer loop
      vertex -2.70905 3.27468 3.5
      vertex -3.09812 2.90932 -3.5
      vertex -2.70905 3.27468 -3.5
    endloop
  endfacet
  facet normal -0.998027 0.0627858 0
    outer loop
      vertex 4.21649 -0.532666 -3.5
      vertex 4.25 0 3.5
      vertex 4.25 0 -3.5
    endloop
  endfacet
  facet normal -0.998027 0.0627858 0
    outer loop
      vertex 4.25 0 3.5
      vertex 4.21649 -0.532666 -3.5
      vertex 4.21649 -0.532666 3.5
    endloop
  endfacet
  facet normal -0.844332 0.53582 0
    outer loop
      vertex 3.43832 -2.49809 -3.5
      vertex 3.7243 -2.04745 3.5
      vertex 3.7243 -2.04745 -3.5
    endloop
  endfacet
  facet normal -0.844332 0.53582 0
    outer loop
      vertex 3.7243 -2.04745 3.5
      vertex 3.43832 -2.49809 -3.5
      vertex 3.43832 -2.49809 3.5
    endloop
  endfacet
  facet normal -0.125328 0.992115 0
    outer loop
      vertex 0.796371 -4.17472 -3.5
      vertex 0.266859 -4.24161 3.5
      vertex 0.796371 -4.17472 3.5
    endloop
  endfacet
  facet normal -0.125328 0.992115 0
    outer loop
      vertex 0.266859 -4.24161 3.5
      vertex 0.796371 -4.17472 -3.5
      vertex 0.266859 -4.24161 -3.5
    endloop
  endfacet
  facet normal -0.684546 0.72897 0
    outer loop
      vertex 3.09812 -2.90932 -3.5
      vertex 2.70905 -3.27468 3.5
      vertex 3.09812 -2.90932 3.5
    endloop
  endfacet
  facet normal -0.684546 0.72897 0
    outer loop
      vertex 2.70905 -3.27468 3.5
      vertex 3.09812 -2.90932 -3.5
      vertex 2.70905 -3.27468 -3.5
    endloop
  endfacet
  facet normal -0.904823 -0.425787 0
    outer loop
      vertex 3.95155 1.56453 -3.5
      vertex 3.7243 2.04745 3.5
      vertex 3.7243 2.04745 -3.5
    endloop
  endfacet
  facet normal -0.904823 -0.425787 0
    outer loop
      vertex 3.7243 2.04745 3.5
      vertex 3.95155 1.56453 -3.5
      vertex 3.95155 1.56453 3.5
    endloop
  endfacet
  facet normal -0.951056 -0.309018 0
    outer loop
      vertex 4.11648 1.05693 -3.5
      vertex 3.95155 1.56453 3.5
      vertex 3.95155 1.56453 -3.5
    endloop
  endfacet
  facet normal -0.951056 -0.309018 0
    outer loop
      vertex 3.95155 1.56453 3.5
      vertex 4.11648 1.05693 -3.5
      vertex 4.11648 1.05693 3.5
    endloop
  endfacet
  facet normal -0.982287 -0.187384 0
    outer loop
      vertex 4.21649 0.532666 -3.5
      vertex 4.11648 1.05693 3.5
      vertex 4.11648 1.05693 -3.5
    endloop
  endfacet
  facet normal -0.982287 -0.187384 0
    outer loop
      vertex 4.11648 1.05693 3.5
      vertex 4.21649 0.532666 -3.5
      vertex 4.21649 0.532666 3.5
    endloop
  endfacet
  facet normal -0.125328 -0.992115 0
    outer loop
      vertex 0.266859 4.24161 -3.5
      vertex 0.796371 4.17472 3.5
      vertex 0.266859 4.24161 3.5
    endloop
  endfacet
  facet normal -0.125328 -0.992115 -0
    outer loop
      vertex 0.796371 4.17472 3.5
      vertex 0.266859 4.24161 -3.5
      vertex 0.796371 4.17472 -3.5
    endloop
  endfacet
  facet normal 0.982287 -0.187384 0
    outer loop
      vertex -4.21649 0.532666 3.5
      vertex -4.11648 1.05693 -3.5
      vertex -4.11648 1.05693 3.5
    endloop
  endfacet
  facet normal 0.982287 -0.187384 0
    outer loop
      vertex -4.11648 1.05693 -3.5
      vertex -4.21649 0.532666 3.5
      vertex -4.21649 0.532666 -3.5
    endloop
  endfacet
  facet normal -0.904823 0.425787 0
    outer loop
      vertex 3.7243 -2.04745 -3.5
      vertex 3.95155 -1.56453 3.5
      vertex 3.95155 -1.56453 -3.5
    endloop
  endfacet
  facet normal -0.904823 0.425787 0
    outer loop
      vertex 3.95155 -1.56453 3.5
      vertex 3.7243 -2.04745 -3.5
      vertex 3.7243 -2.04745 3.5
    endloop
  endfacet
  facet normal 0.24869 0.968583 -0
    outer loop
      vertex -0.796371 -4.17472 -3.5
      vertex -1.31332 -4.04199 3.5
      vertex -0.796371 -4.17472 3.5
    endloop
  endfacet
  facet normal 0.24869 0.968583 0
    outer loop
      vertex -1.31332 -4.04199 3.5
      vertex -0.796371 -4.17472 -3.5
      vertex -1.31332 -4.04199 -3.5
    endloop
  endfacet
  facet normal 0.125328 0.992115 -0
    outer loop
      vertex -0.266859 -4.24161 -3.5
      vertex -0.796371 -4.17472 3.5
      vertex -0.266859 -4.24161 3.5
    endloop
  endfacet
  facet normal 0.125328 0.992115 0
    outer loop
      vertex -0.796371 -4.17472 3.5
      vertex -0.266859 -4.24161 -3.5
      vertex -0.796371 -4.17472 -3.5
    endloop
  endfacet
  facet normal 0.998027 0.0627858 0
    outer loop
      vertex -4.21649 -0.532666 3.5
      vertex -4.25 0 -3.5
      vertex -4.25 0 3.5
    endloop
  endfacet
  facet normal 0.998027 0.0627858 0
    outer loop
      vertex -4.25 0 -3.5
      vertex -4.21649 -0.532666 3.5
      vertex -4.21649 -0.532666 -3.5
    endloop
  endfacet
  facet normal 0.982287 0.187384 0
    outer loop
      vertex -4.11648 -1.05693 3.5
      vertex -4.21649 -0.532666 -3.5
      vertex -4.21649 -0.532666 3.5
    endloop
  endfacet
  facet normal 0.982287 0.187384 0
    outer loop
      vertex -4.21649 -0.532666 -3.5
      vertex -4.11648 -1.05693 3.5
      vertex -4.11648 -1.05693 -3.5
    endloop
  endfacet
  facet normal 0.844332 0.53582 0
    outer loop
      vertex -3.43832 -2.49809 3.5
      vertex -3.7243 -2.04745 -3.5
      vertex -3.7243 -2.04745 3.5
    endloop
  endfacet
  facet normal 0.844332 0.53582 0
    outer loop
      vertex -3.7243 -2.04745 -3.5
      vertex -3.43832 -2.49809 3.5
      vertex -3.43832 -2.49809 -3.5
    endloop
  endfacet
  facet normal 0.904823 0.425787 0
    outer loop
      vertex -3.7243 -2.04745 3.5
      vertex -3.95155 -1.56453 -3.5
      vertex -3.95155 -1.56453 3.5
    endloop
  endfacet
  facet normal 0.904823 0.425787 0
    outer loop
      vertex -3.95155 -1.56453 -3.5
      vertex -3.7243 -2.04745 3.5
      vertex -3.7243 -2.04745 -3.5
    endloop
  endfacet
  facet normal -0.24869 0.968583 0
    outer loop
      vertex 1.31332 -4.04199 -3.5
      vertex 0.796371 -4.17472 3.5
      vertex 1.31332 -4.04199 3.5
    endloop
  endfacet
  facet normal -0.24869 0.968583 0
    outer loop
      vertex 0.796371 -4.17472 3.5
      vertex 1.31332 -4.04199 -3.5
      vertex 0.796371 -4.17472 -3.5
    endloop
  endfacet
  facet normal -0.481753 0.876307 0
    outer loop
      vertex 2.27726 -3.58839 -3.5
      vertex 1.80956 -3.84551 3.5
      vertex 2.27726 -3.58839 3.5
    endloop
  endfacet
  facet normal -0.481753 0.876307 0
    outer loop
      vertex 1.80956 -3.84551 3.5
      vertex 2.27726 -3.58839 -3.5
      vertex 1.80956 -3.84551 -3.5
    endloop
  endfacet
  facet normal -0.368132 0.929773 0
    outer loop
      vertex 1.80956 -3.84551 -3.5
      vertex 1.31332 -4.04199 3.5
      vertex 1.80956 -3.84551 3.5
    endloop
  endfacet
  facet normal -0.368132 0.929773 0
    outer loop
      vertex 1.31332 -4.04199 3.5
      vertex 1.80956 -3.84551 -3.5
      vertex 1.31332 -4.04199 -3.5
    endloop
  endfacet
  facet normal 0.587781 0.80902 -0
    outer loop
      vertex -2.27726 -3.58839 -3.5
      vertex -2.70905 -3.27468 3.5
      vertex -2.27726 -3.58839 3.5
    endloop
  endfacet
  facet normal 0.587781 0.80902 0
    outer loop
      vertex -2.70905 -3.27468 3.5
      vertex -2.27726 -3.58839 -3.5
      vertex -2.70905 -3.27468 -3.5
    endloop
  endfacet
  facet normal 0 1 -0
    outer loop
      vertex 0.266859 -4.24161 -3.5
      vertex -0.266859 -4.24161 3.5
      vertex 0.266859 -4.24161 3.5
    endloop
  endfacet
  facet normal 0 1 0
    outer loop
      vertex -0.266859 -4.24161 3.5
      vertex 0.266859 -4.24161 -3.5
      vertex -0.266859 -4.24161 -3.5
    endloop
  endfacet
  facet normal 0.770512 0.637425 0
    outer loop
      vertex -3.09812 -2.90932 3.5
      vertex -3.43832 -2.49809 -3.5
      vertex -3.43832 -2.49809 3.5
    endloop
  endfacet
  facet normal 0.770512 0.637425 0
    outer loop
      vertex -3.43832 -2.49809 -3.5
      vertex -3.09812 -2.90932 3.5
      vertex -3.09812 -2.90932 -3.5
    endloop
  endfacet
  facet normal 0.684546 0.72897 -0
    outer loop
      vertex -2.70905 -3.27468 -3.5
      vertex -3.09812 -2.90932 3.5
      vertex -2.70905 -3.27468 3.5
    endloop
  endfacet
  facet normal 0.684546 0.72897 0
    outer loop
      vertex -3.09812 -2.90932 3.5
      vertex -2.70905 -3.27468 -3.5
      vertex -3.09812 -2.90932 -3.5
    endloop
  endfacet
  facet normal -0.770512 0.637425 0
    outer loop
      vertex 3.09812 -2.90932 -3.5
      vertex 3.43832 -2.49809 3.5
      vertex 3.43832 -2.49809 -3.5
    endloop
  endfacet
  facet normal -0.770512 0.637425 0
    outer loop
      vertex 3.43832 -2.49809 3.5
      vertex 3.09812 -2.90932 -3.5
      vertex 3.09812 -2.90932 3.5
    endloop
  endfacet
  facet normal 0.481753 0.876307 -0
    outer loop
      vertex -1.80956 -3.84551 -3.5
      vertex -2.27726 -3.58839 3.5
      vertex -1.80956 -3.84551 3.5
    endloop
  endfacet
  facet normal 0.481753 0.876307 0
    outer loop
      vertex -2.27726 -3.58839 3.5
      vertex -1.80956 -3.84551 -3.5
      vertex -2.27726 -3.58839 -3.5
    endloop
  endfacet
  facet normal 0.951056 0.309018 0
    outer loop
      vertex -3.95155 -1.56453 3.5
      vertex -4.11648 -1.05693 -3.5
      vertex -4.11648 -1.05693 3.5
    endloop
  endfacet
  facet normal 0.951056 0.309018 0
    outer loop
      vertex -4.11648 -1.05693 -3.5
      vertex -3.95155 -1.56453 3.5
      vertex -3.95155 -1.56453 -3.5
    endloop
  endfacet
  facet normal 0.368132 0.929773 -0
    outer loop
      vertex -1.31332 -4.04199 -3.5
      vertex -1.80956 -3.84551 3.5
      vertex -1.31332 -4.04199 3.5
    endloop
  endfacet
  facet normal 0.368132 0.929773 0
    outer loop
      vertex -1.80956 -3.84551 3.5
      vertex -1.31332 -4.04199 -3.5
      vertex -1.80956 -3.84551 -3.5
    endloop
  endfacet
endsolid OpenSCAD_Model
