solid OpenSCAD_Model
  facet normal 0.998028 0.0627749 0
    outer loop
      vertex 18 0 10.5
      vertex 17.8581 2.256 -10.5
      vertex 17.8581 2.256 10.5
    endloop
  endfacet
  facet normal 0.998028 0.0627749 0
    outer loop
      vertex 17.8581 2.256 -10.5
      vertex 18 0 10.5
      vertex 18 0 -10.5
    endloop
  endfacet
  facet normal -0.998028 0.0627749 0
    outer loop
      vertex -18 0 -10.5
      vertex -17.8581 2.256 10.5
      vertex -17.8581 2.256 -10.5
    endloop
  endfacet
  facet normal -0.998028 0.0627749 0
    outer loop
      vertex -17.8581 2.256 10.5
      vertex -18 0 -10.5
      vertex -18 0 10.5
    endloop
  endfacet
  facet normal 0 1 -0
    outer loop
      vertex 1.13023 17.9645 -10.5
      vertex -1.13023 17.9645 10.5
      vertex 1.13023 17.9645 10.5
    endloop
  endfacet
  facet normal 0 1 0
    outer loop
      vertex -1.13023 17.9645 10.5
      vertex 1.13023 17.9645 -10.5
      vertex -1.13023 17.9645 -10.5
    endloop
  endfacet
  facet normal 0 -1 0
    outer loop
      vertex -1.13023 -17.9645 -10.5
      vertex 1.13023 -17.9645 10.5
      vertex -1.13023 -17.9645 10.5
    endloop
  endfacet
  facet normal 0 -1 -0
    outer loop
      vertex 1.13023 -17.9645 10.5
      vertex -1.13023 -17.9645 -10.5
      vertex 1.13023 -17.9645 -10.5
    endloop
  endfacet
  facet normal 0.68455 0.728966 -0
    outer loop
      vertex 13.1214 12.3218 -10.5
      vertex 11.4736 13.8692 10.5
      vertex 13.1214 12.3218 10.5
    endloop
  endfacet
  facet normal 0.68455 0.728966 0
    outer loop
      vertex 11.4736 13.8692 10.5
      vertex 13.1214 12.3218 -10.5
      vertex 11.4736 13.8692 -10.5
    endloop
  endfacet
  facet normal -0.68455 0.728966 0
    outer loop
      vertex -11.4736 13.8692 -10.5
      vertex -13.1214 12.3218 10.5
      vertex -11.4736 13.8692 10.5
    endloop
  endfacet
  facet normal -0.68455 0.728966 0
    outer loop
      vertex -13.1214 12.3218 10.5
      vertex -11.4736 13.8692 -10.5
      vertex -13.1214 12.3218 -10.5
    endloop
  endfacet
  facet normal -0.368113 0.929781 0
    outer loop
      vertex -5.56231 17.119 -10.5
      vertex -7.66403 16.2869 10.5
      vertex -5.56231 17.119 10.5
    endloop
  endfacet
  facet normal -0.368113 0.929781 0
    outer loop
      vertex -7.66403 16.2869 10.5
      vertex -5.56231 17.119 -10.5
      vertex -7.66403 16.2869 -10.5
    endloop
  endfacet
  facet normal 0.90482 0.425794 0
    outer loop
      vertex 16.736 6.62624 10.5
      vertex 15.7735 8.67157 -10.5
      vertex 15.7735 8.67157 10.5
    endloop
  endfacet
  facet normal 0.90482 0.425794 0
    outer loop
      vertex 15.7735 8.67157 -10.5
      vertex 16.736 6.62624 10.5
      vertex 16.736 6.62624 -10.5
    endloop
  endfacet
  facet normal 0.982285 0.187395 0
    outer loop
      vertex 17.8581 2.256 10.5
      vertex 17.4345 4.47642 -10.5
      vertex 17.4345 4.47642 10.5
    endloop
  endfacet
  facet normal 0.982285 0.187395 0
    outer loop
      vertex 17.4345 4.47642 -10.5
      vertex 17.8581 2.256 10.5
      vertex 17.8581 2.256 -10.5
    endloop
  endfacet
  facet normal 0.844326 0.53583 0
    outer loop
      vertex 15.7735 8.67157 10.5
      vertex 14.5623 10.5801 -10.5
      vertex 14.5623 10.5801 10.5
    endloop
  endfacet
  facet normal 0.844326 0.53583 0
    outer loop
      vertex 14.5623 10.5801 -10.5
      vertex 15.7735 8.67157 10.5
      vertex 15.7735 8.67157 -10.5
    endloop
  endfacet
  facet normal 0.368113 0.929781 -0
    outer loop
      vertex 7.66403 16.2869 -10.5
      vertex 5.56231 17.119 10.5
      vertex 7.66403 16.2869 10.5
    endloop
  endfacet
  facet normal 0.368113 0.929781 0
    outer loop
      vertex 5.56231 17.119 10.5
      vertex 7.66403 16.2869 -10.5
      vertex 5.56231 17.119 -10.5
    endloop
  endfacet
  facet normal 0.248708 0.968578 -0
    outer loop
      vertex 5.56231 17.119 -10.5
      vertex 3.37286 17.6812 10.5
      vertex 5.56231 17.119 10.5
    endloop
  endfacet
  facet normal 0.248708 0.968578 0
    outer loop
      vertex 3.37286 17.6812 10.5
      vertex 5.56231 17.119 -10.5
      vertex 3.37286 17.6812 -10.5
    endloop
  endfacet
  facet normal 0.48176 0.876303 -0
    outer loop
      vertex 9.64488 15.1979 -10.5
      vertex 7.66403 16.2869 10.5
      vertex 9.64488 15.1979 10.5
    endloop
  endfacet
  facet normal 0.48176 0.876303 0
    outer loop
      vertex 7.66403 16.2869 10.5
      vertex 9.64488 15.1979 -10.5
      vertex 7.66403 16.2869 -10.5
    endloop
  endfacet
  facet normal -0.90482 0.425794 0
    outer loop
      vertex -16.736 6.62624 -10.5
      vertex -15.7735 8.67157 10.5
      vertex -15.7735 8.67157 -10.5
    endloop
  endfacet
  facet normal -0.90482 0.425794 0
    outer loop
      vertex -15.7735 8.67157 10.5
      vertex -16.736 6.62624 -10.5
      vertex -16.736 6.62624 10.5
    endloop
  endfacet
  facet normal -0.770504 0.637435 0
    outer loop
      vertex -14.5623 10.5801 -10.5
      vertex -13.1214 12.3218 10.5
      vertex -13.1214 12.3218 -10.5
    endloop
  endfacet
  facet normal -0.770504 0.637435 0
    outer loop
      vertex -13.1214 12.3218 10.5
      vertex -14.5623 10.5801 -10.5
      vertex -14.5623 10.5801 10.5
    endloop
  endfacet
  facet normal -0.951059 0.309009 0
    outer loop
      vertex -17.4345 4.47642 -10.5
      vertex -16.736 6.62624 10.5
      vertex -16.736 6.62624 -10.5
    endloop
  endfacet
  facet normal -0.951059 0.309009 0
    outer loop
      vertex -16.736 6.62624 10.5
      vertex -17.4345 4.47642 -10.5
      vertex -17.4345 4.47642 10.5
    endloop
  endfacet
  facet normal -0.48176 0.876303 0
    outer loop
      vertex -7.66403 16.2869 -10.5
      vertex -9.64488 15.1979 10.5
      vertex -7.66403 16.2869 10.5
    endloop
  endfacet
  facet normal -0.48176 0.876303 0
    outer loop
      vertex -9.64488 15.1979 10.5
      vertex -7.66403 16.2869 -10.5
      vertex -9.64488 15.1979 -10.5
    endloop
  endfacet
  facet normal -0.125329 0.992115 0
    outer loop
      vertex -1.13023 17.9645 -10.5
      vertex -3.37286 17.6812 10.5
      vertex -1.13023 17.9645 10.5
    endloop
  endfacet
  facet normal -0.125329 0.992115 0
    outer loop
      vertex -3.37286 17.6812 10.5
      vertex -1.13023 17.9645 -10.5
      vertex -3.37286 17.6812 -10.5
    endloop
  endfacet
  facet normal 0.125329 -0.992115 0
    outer loop
      vertex 1.13023 -17.9645 -10.5
      vertex 3.37286 -17.6812 10.5
      vertex 1.13023 -17.9645 10.5
    endloop
  endfacet
  facet normal 0.125329 -0.992115 0
    outer loop
      vertex 3.37286 -17.6812 10.5
      vertex 1.13023 -17.9645 -10.5
      vertex 3.37286 -17.6812 -10.5
    endloop
  endfacet
  facet normal 0.368113 -0.929781 0
    outer loop
      vertex 5.56231 -17.119 -10.5
      vertex 7.66403 -16.2869 10.5
      vertex 5.56231 -17.119 10.5
    endloop
  endfacet
  facet normal 0.368113 -0.929781 0
    outer loop
      vertex 7.66403 -16.2869 10.5
      vertex 5.56231 -17.119 -10.5
      vertex 7.66403 -16.2869 -10.5
    endloop
  endfacet
  facet normal 0.951059 0.309009 0
    outer loop
      vertex 17.4345 4.47642 10.5
      vertex 16.736 6.62624 -10.5
      vertex 16.736 6.62624 10.5
    endloop
  endfacet
  facet normal 0.951059 0.309009 0
    outer loop
      vertex 16.736 6.62624 -10.5
      vertex 17.4345 4.47642 10.5
      vertex 17.4345 4.47642 -10.5
    endloop
  endfacet
  facet normal 0.770504 0.637435 0
    outer loop
      vertex 14.5623 10.5801 10.5
      vertex 13.1214 12.3218 -10.5
      vertex 13.1214 12.3218 10.5
    endloop
  endfacet
  facet normal 0.770504 0.637435 0
    outer loop
      vertex 13.1214 12.3218 -10.5
      vertex 14.5623 10.5801 10.5
      vertex 14.5623 10.5801 -10.5
    endloop
  endfacet
  facet normal 0.125329 0.992115 -0
    outer loop
      vertex 3.37286 17.6812 -10.5
      vertex 1.13023 17.9645 10.5
      vertex 3.37286 17.6812 10.5
    endloop
  endfacet
  facet normal 0.125329 0.992115 0
    outer loop
      vertex 1.13023 17.9645 10.5
      vertex 3.37286 17.6812 -10.5
      vertex 1.13023 17.9645 -10.5
    endloop
  endfacet
  facet normal 0.587802 0.809005 -0
    outer loop
      vertex 11.4736 13.8692 -10.5
      vertex 9.64488 15.1979 10.5
      vertex 11.4736 13.8692 10.5
    endloop
  endfacet
  facet normal 0.587802 0.809005 0
    outer loop
      vertex 9.64488 15.1979 10.5
      vertex 11.4736 13.8692 -10.5
      vertex 9.64488 15.1979 -10.5
    endloop
  endfacet
  facet normal -0.844326 0.53583 0
    outer loop
      vertex -15.7735 8.67157 -10.5
      vertex -14.5623 10.5801 10.5
      vertex -14.5623 10.5801 -10.5
    endloop
  endfacet
  facet normal -0.844326 0.53583 0
    outer loop
      vertex -14.5623 10.5801 10.5
      vertex -15.7735 8.67157 -10.5
      vertex -15.7735 8.67157 10.5
    endloop
  endfacet
  facet normal -0.982285 0.187395 0
    outer loop
      vertex -17.8581 2.256 -10.5
      vertex -17.4345 4.47642 10.5
      vertex -17.4345 4.47642 -10.5
    endloop
  endfacet
  facet normal -0.982285 0.187395 0
    outer loop
      vertex -17.4345 4.47642 10.5
      vertex -17.8581 2.256 -10.5
      vertex -17.8581 2.256 10.5
    endloop
  endfacet
  facet normal 0 0 1
    outer loop
      vertex 3.25 0 10.5
      vertex 18 0 10.5
      vertex 17.8581 2.256 10.5
    endloop
  endfacet
  facet normal 0 0 1
    outer loop
      vertex 3.22437 0.407332 10.5
      vertex 17.8581 2.256 10.5
      vertex 17.4345 4.47642 10.5
    endloop
  endfacet
  facet normal 0 0 1
    outer loop
      vertex 18 0 10.5
      vertex 3.25 0 10.5
      vertex 17.8581 -2.256 10.5
    endloop
  endfacet
  facet normal 0 0 1
    outer loop
      vertex 3.14789 0.808242 10.5
      vertex 17.4345 4.47642 10.5
      vertex 16.736 6.62624 10.5
    endloop
  endfacet
  facet normal -0 0 1
    outer loop
      vertex 3.22437 -0.407332 10.5
      vertex 17.8581 -2.256 10.5
      vertex 3.25 0 10.5
    endloop
  endfacet
  facet normal 0 0 1
    outer loop
      vertex 3.02177 1.1964 10.5
      vertex 16.736 6.62624 10.5
      vertex 15.7735 8.67157 10.5
    endloop
  endfacet
  facet normal 0 0 1
    outer loop
      vertex 17.8581 -2.256 10.5
      vertex 3.22437 -0.407332 10.5
      vertex 17.4345 -4.47642 10.5
    endloop
  endfacet
  facet normal 0 0 1
    outer loop
      vertex 2.848 1.5657 10.5
      vertex 15.7735 8.67157 10.5
      vertex 14.5623 10.5801 10.5
    endloop
  endfacet
  facet normal -0 0 1
    outer loop
      vertex 3.14789 -0.808242 10.5
      vertex 17.4345 -4.47642 10.5
      vertex 3.22437 -0.407332 10.5
    endloop
  endfacet
  facet normal 0 0 1
    outer loop
      vertex 2.6293 1.9103 10.5
      vertex 14.5623 10.5801 10.5
      vertex 13.1214 12.3218 10.5
    endloop
  endfacet
  facet normal 0 0 1
    outer loop
      vertex 17.4345 -4.47642 10.5
      vertex 3.14789 -0.808242 10.5
      vertex 16.736 -6.62624 10.5
    endloop
  endfacet
  facet normal 0 0 1
    outer loop
      vertex 2.36915 2.22478 10.5
      vertex 13.1214 12.3218 10.5
      vertex 11.4736 13.8692 10.5
    endloop
  endfacet
  facet normal -0 0 1
    outer loop
      vertex 3.02177 -1.1964 10.5
      vertex 16.736 -6.62624 10.5
      vertex 3.14789 -0.808242 10.5
    endloop
  endfacet
  facet normal 0 0 1
    outer loop
      vertex 2.07163 2.50417 10.5
      vertex 11.4736 13.8692 10.5
      vertex 9.64488 15.1979 10.5
    endloop
  endfacet
  facet normal 0 0 1
    outer loop
      vertex 16.736 -6.62624 10.5
      vertex 3.02177 -1.1964 10.5
      vertex 15.7735 -8.67157 10.5
    endloop
  endfacet
  facet normal 0 0 1
    outer loop
      vertex 1.74144 2.74407 10.5
      vertex 9.64488 15.1979 10.5
      vertex 7.66403 16.2869 10.5
    endloop
  endfacet
  facet normal -0 0 1
    outer loop
      vertex 2.848 -1.5657 10.5
      vertex 15.7735 -8.67157 10.5
      vertex 3.02177 -1.1964 10.5
    endloop
  endfacet
  facet normal 0 0 1
    outer loop
      vertex 1.38378 2.94069 10.5
      vertex 7.66403 16.2869 10.5
      vertex 5.56231 17.119 10.5
    endloop
  endfacet
  facet normal 0 0 1
    outer loop
      vertex 15.7735 -8.67157 10.5
      vertex 2.848 -1.5657 10.5
      vertex 14.5623 -10.5801 10.5
    endloop
  endfacet
  facet normal 0 0 1
    outer loop
      vertex 1.0043 3.09093 10.5
      vertex 5.56231 17.119 10.5
      vertex 3.37286 17.6812 10.5
    endloop
  endfacet
  facet normal -0 0 1
    outer loop
      vertex 2.6293 -1.9103 10.5
      vertex 14.5623 -10.5801 10.5
      vertex 2.848 -1.5657 10.5
    endloop
  endfacet
  facet normal 0 0 1
    outer loop
      vertex 14.5623 -10.5801 10.5
      vertex 2.6293 -1.9103 10.5
      vertex 13.1214 -12.3218 10.5
    endloop
  endfacet
  facet normal 0 0 1
    outer loop
      vertex 17.8581 2.256 10.5
      vertex 3.22437 0.407332 10.5
      vertex 3.25 0 10.5
    endloop
  endfacet
  facet normal 0 0 1
    outer loop
      vertex 17.4345 4.47642 10.5
      vertex 3.14789 0.808242 10.5
      vertex 3.22437 0.407332 10.5
    endloop
  endfacet
  facet normal 0 0 1
    outer loop
      vertex 16.736 6.62624 10.5
      vertex 3.02177 1.1964 10.5
      vertex 3.14789 0.808242 10.5
    endloop
  endfacet
  facet normal 0 0 1
    outer loop
      vertex 15.7735 8.67157 10.5
      vertex 2.848 1.5657 10.5
      vertex 3.02177 1.1964 10.5
    endloop
  endfacet
  facet normal 0 0 1
    outer loop
      vertex 14.5623 10.5801 10.5
      vertex 2.6293 1.9103 10.5
      vertex 2.848 1.5657 10.5
    endloop
  endfacet
  facet normal 0 0 1
    outer loop
      vertex 13.1214 12.3218 10.5
      vertex 2.36915 2.22478 10.5
      vertex 2.6293 1.9103 10.5
    endloop
  endfacet
  facet normal 0 0 1
    outer loop
      vertex 11.4736 13.8692 10.5
      vertex 2.07163 2.50417 10.5
      vertex 2.36915 2.22478 10.5
    endloop
  endfacet
  facet normal 0 0 1
    outer loop
      vertex 9.64488 15.1979 10.5
      vertex 1.74144 2.74407 10.5
      vertex 2.07163 2.50417 10.5
    endloop
  endfacet
  facet normal 0 0 1
    outer loop
      vertex 7.66403 16.2869 10.5
      vertex 1.38378 2.94069 10.5
      vertex 1.74144 2.74407 10.5
    endloop
  endfacet
  facet normal 0 0 1
    outer loop
      vertex 0.608989 3.19243 10.5
      vertex 3.37286 17.6812 10.5
      vertex 1.13023 17.9645 10.5
    endloop
  endfacet
  facet normal 0 0 1
    outer loop
      vertex 5.56231 17.119 10.5
      vertex 1.0043 3.09093 10.5
      vertex 1.38378 2.94069 10.5
    endloop
  endfacet
  facet normal 0 0 1
    outer loop
      vertex 3.37286 17.6812 10.5
      vertex 0.608989 3.19243 10.5
      vertex 1.0043 3.09093 10.5
    endloop
  endfacet
  facet normal 0 0 1
    outer loop
      vertex 1.13023 17.9645 10.5
      vertex 0.204069 3.24359 10.5
      vertex 0.608989 3.19243 10.5
    endloop
  endfacet
  facet normal 0 0 1
    outer loop
      vertex 1.13023 17.9645 10.5
      vertex -0.204069 3.24359 10.5
      vertex 0.204069 3.24359 10.5
    endloop
  endfacet
  facet normal -0 0 1
    outer loop
      vertex -1.13023 17.9645 10.5
      vertex -0.204069 3.24359 10.5
      vertex 1.13023 17.9645 10.5
    endloop
  endfacet
  facet normal 0 0 1
    outer loop
      vertex -0.204069 3.24359 10.5
      vertex -1.13023 17.9645 10.5
      vertex -0.608989 3.19243 10.5
    endloop
  endfacet
  facet normal -0 0 1
    outer loop
      vertex -3.37286 17.6812 10.5
      vertex -0.608989 3.19243 10.5
      vertex -1.13023 17.9645 10.5
    endloop
  endfacet
  facet normal 0 0 1
    outer loop
      vertex -0.608989 3.19243 10.5
      vertex -3.37286 17.6812 10.5
      vertex -1.0043 3.09093 10.5
    endloop
  endfacet
  facet normal -0 0 1
    outer loop
      vertex -5.56231 17.119 10.5
      vertex -1.0043 3.09093 10.5
      vertex -3.37286 17.6812 10.5
    endloop
  endfacet
  facet normal 0 0 1
    outer loop
      vertex -1.0043 3.09093 10.5
      vertex -5.56231 17.119 10.5
      vertex -1.38378 2.94069 10.5
    endloop
  endfacet
  facet normal -0 0 1
    outer loop
      vertex -7.66403 16.2869 10.5
      vertex -1.38378 2.94069 10.5
      vertex -5.56231 17.119 10.5
    endloop
  endfacet
  facet normal 0 0 1
    outer loop
      vertex -1.38378 2.94069 10.5
      vertex -7.66403 16.2869 10.5
      vertex -1.74144 2.74407 10.5
    endloop
  endfacet
  facet normal -0 0 1
    outer loop
      vertex -9.64488 15.1979 10.5
      vertex -1.74144 2.74407 10.5
      vertex -7.66403 16.2869 10.5
    endloop
  endfacet
  facet normal 0 0 1
    outer loop
      vertex -1.74144 2.74407 10.5
      vertex -9.64488 15.1979 10.5
      vertex -2.07163 2.50417 10.5
    endloop
  endfacet
  facet normal -0 0 1
    outer loop
      vertex -11.4736 13.8692 10.5
      vertex -2.07163 2.50417 10.5
      vertex -9.64488 15.1979 10.5
    endloop
  endfacet
  facet normal 0 0 1
    outer loop
      vertex -2.07163 2.50417 10.5
      vertex -11.4736 13.8692 10.5
      vertex -2.36915 2.22478 10.5
    endloop
  endfacet
  facet normal 0 0 1
    outer loop
      vertex -2.36915 2.22478 10.5
      vertex -13.1214 12.3218 10.5
      vertex -2.6293 1.9103 10.5
    endloop
  endfacet
  facet normal -0 0 1
    outer loop
      vertex -13.1214 12.3218 10.5
      vertex -2.36915 2.22478 10.5
      vertex -11.4736 13.8692 10.5
    endloop
  endfacet
  facet normal -0 0 1
    outer loop
      vertex 2.36915 -2.22478 10.5
      vertex 13.1214 -12.3218 10.5
      vertex 2.6293 -1.9103 10.5
    endloop
  endfacet
  facet normal 0 0 1
    outer loop
      vertex 13.1214 -12.3218 10.5
      vertex 2.36915 -2.22478 10.5
      vertex 11.4736 -13.8692 10.5
    endloop
  endfacet
  facet normal -0 0 1
    outer loop
      vertex 2.07163 -2.50417 10.5
      vertex 11.4736 -13.8692 10.5
      vertex 2.36915 -2.22478 10.5
    endloop
  endfacet
  facet normal 0 0 1
    outer loop
      vertex 11.4736 -13.8692 10.5
      vertex 2.07163 -2.50417 10.5
      vertex 9.64488 -15.1979 10.5
    endloop
  endfacet
  facet normal -0 0 1
    outer loop
      vertex 1.74144 -2.74407 10.5
      vertex 9.64488 -15.1979 10.5
      vertex 2.07163 -2.50417 10.5
    endloop
  endfacet
  facet normal 0 0 1
    outer loop
      vertex 9.64488 -15.1979 10.5
      vertex 1.74144 -2.74407 10.5
      vertex 7.66403 -16.2869 10.5
    endloop
  endfacet
  facet normal -0 0 1
    outer loop
      vertex 1.38378 -2.94069 10.5
      vertex 7.66403 -16.2869 10.5
      vertex 1.74144 -2.74407 10.5
    endloop
  endfacet
  facet normal 0 0 1
    outer loop
      vertex 7.66403 -16.2869 10.5
      vertex 1.38378 -2.94069 10.5
      vertex 5.56231 -17.119 10.5
    endloop
  endfacet
  facet normal -0 0 1
    outer loop
      vertex 1.0043 -3.09093 10.5
      vertex 5.56231 -17.119 10.5
      vertex 1.38378 -2.94069 10.5
    endloop
  endfacet
  facet normal 0 0 1
    outer loop
      vertex 5.56231 -17.119 10.5
      vertex 1.0043 -3.09093 10.5
      vertex 3.37286 -17.6812 10.5
    endloop
  endfacet
  facet normal -0 0 1
    outer loop
      vertex 0.608989 -3.19243 10.5
      vertex 3.37286 -17.6812 10.5
      vertex 1.0043 -3.09093 10.5
    endloop
  endfacet
  facet normal 0 0 1
    outer loop
      vertex 3.37286 -17.6812 10.5
      vertex 0.608989 -3.19243 10.5
      vertex 1.13023 -17.9645 10.5
    endloop
  endfacet
  facet normal -0 0 1
    outer loop
      vertex 0.204069 -3.24359 10.5
      vertex 1.13023 -17.9645 10.5
      vertex 0.608989 -3.19243 10.5
    endloop
  endfacet
  facet normal -0 0 1
    outer loop
      vertex -0.204069 -3.24359 10.5
      vertex 1.13023 -17.9645 10.5
      vertex 0.204069 -3.24359 10.5
    endloop
  endfacet
  facet normal 0 0 1
    outer loop
      vertex -1.13023 -17.9645 10.5
      vertex -0.204069 -3.24359 10.5
      vertex -0.608989 -3.19243 10.5
    endloop
  endfacet
  facet normal 0 0 1
    outer loop
      vertex -3.37286 -17.6812 10.5
      vertex -0.608989 -3.19243 10.5
      vertex -1.0043 -3.09093 10.5
    endloop
  endfacet
  facet normal 0 0 1
    outer loop
      vertex -0.204069 -3.24359 10.5
      vertex -1.13023 -17.9645 10.5
      vertex 1.13023 -17.9645 10.5
    endloop
  endfacet
  facet normal 0 0 1
    outer loop
      vertex -5.56231 -17.119 10.5
      vertex -1.0043 -3.09093 10.5
      vertex -1.38378 -2.94069 10.5
    endloop
  endfacet
  facet normal 0 0 1
    outer loop
      vertex -7.66403 -16.2869 10.5
      vertex -1.38378 -2.94069 10.5
      vertex -1.74144 -2.74407 10.5
    endloop
  endfacet
  facet normal 0 0 1
    outer loop
      vertex -9.64488 -15.1979 10.5
      vertex -1.74144 -2.74407 10.5
      vertex -2.07163 -2.50417 10.5
    endloop
  endfacet
  facet normal 0 0 1
    outer loop
      vertex -11.4736 -13.8692 10.5
      vertex -2.07163 -2.50417 10.5
      vertex -2.36915 -2.22478 10.5
    endloop
  endfacet
  facet normal 0 0 1
    outer loop
      vertex -13.1214 -12.3218 10.5
      vertex -2.36915 -2.22478 10.5
      vertex -2.6293 -1.9103 10.5
    endloop
  endfacet
  facet normal 0 0 1
    outer loop
      vertex -14.5623 -10.5801 10.5
      vertex -2.6293 -1.9103 10.5
      vertex -2.848 -1.5657 10.5
    endloop
  endfacet
  facet normal 0 0 1
    outer loop
      vertex -15.7735 -8.67157 10.5
      vertex -2.848 -1.5657 10.5
      vertex -3.02177 -1.1964 10.5
    endloop
  endfacet
  facet normal 0 0 1
    outer loop
      vertex -16.736 -6.62624 10.5
      vertex -3.02177 -1.1964 10.5
      vertex -3.14789 -0.808242 10.5
    endloop
  endfacet
  facet normal 0 0 1
    outer loop
      vertex -17.4345 -4.47642 10.5
      vertex -3.14789 -0.808242 10.5
      vertex -3.22437 -0.407332 10.5
    endloop
  endfacet
  facet normal 0 0 1
    outer loop
      vertex -0.608989 -3.19243 10.5
      vertex -3.37286 -17.6812 10.5
      vertex -1.13023 -17.9645 10.5
    endloop
  endfacet
  facet normal 0 0 1
    outer loop
      vertex -17.8581 -2.256 10.5
      vertex -3.22437 -0.407332 10.5
      vertex -3.25 0 10.5
    endloop
  endfacet
  facet normal -0 0 1
    outer loop
      vertex -14.5623 10.5801 10.5
      vertex -2.6293 1.9103 10.5
      vertex -13.1214 12.3218 10.5
    endloop
  endfacet
  facet normal 0 0 1
    outer loop
      vertex -2.6293 1.9103 10.5
      vertex -14.5623 10.5801 10.5
      vertex -2.848 1.5657 10.5
    endloop
  endfacet
  facet normal 0 0 1
    outer loop
      vertex -1.0043 -3.09093 10.5
      vertex -5.56231 -17.119 10.5
      vertex -3.37286 -17.6812 10.5
    endloop
  endfacet
  facet normal -0 0 1
    outer loop
      vertex -15.7735 8.67157 10.5
      vertex -2.848 1.5657 10.5
      vertex -14.5623 10.5801 10.5
    endloop
  endfacet
  facet normal 0 0 1
    outer loop
      vertex -1.38378 -2.94069 10.5
      vertex -7.66403 -16.2869 10.5
      vertex -5.56231 -17.119 10.5
    endloop
  endfacet
  facet normal 0 0 1
    outer loop
      vertex -2.848 1.5657 10.5
      vertex -15.7735 8.67157 10.5
      vertex -3.02177 1.1964 10.5
    endloop
  endfacet
  facet normal 0 0 1
    outer loop
      vertex -1.74144 -2.74407 10.5
      vertex -9.64488 -15.1979 10.5
      vertex -7.66403 -16.2869 10.5
    endloop
  endfacet
  facet normal -0 0 1
    outer loop
      vertex -16.736 6.62624 10.5
      vertex -3.02177 1.1964 10.5
      vertex -15.7735 8.67157 10.5
    endloop
  endfacet
  facet normal 0 0 1
    outer loop
      vertex -2.07163 -2.50417 10.5
      vertex -11.4736 -13.8692 10.5
      vertex -9.64488 -15.1979 10.5
    endloop
  endfacet
  facet normal 0 0 1
    outer loop
      vertex -3.02177 1.1964 10.5
      vertex -16.736 6.62624 10.5
      vertex -3.14789 0.808242 10.5
    endloop
  endfacet
  facet normal 0 0 1
    outer loop
      vertex -2.36915 -2.22478 10.5
      vertex -13.1214 -12.3218 10.5
      vertex -11.4736 -13.8692 10.5
    endloop
  endfacet
  facet normal -0 0 1
    outer loop
      vertex -17.4345 4.47642 10.5
      vertex -3.14789 0.808242 10.5
      vertex -16.736 6.62624 10.5
    endloop
  endfacet
  facet normal 0 0 1
    outer loop
      vertex -2.6293 -1.9103 10.5
      vertex -14.5623 -10.5801 10.5
      vertex -13.1214 -12.3218 10.5
    endloop
  endfacet
  facet normal 0 0 1
    outer loop
      vertex -3.14789 0.808242 10.5
      vertex -17.4345 4.47642 10.5
      vertex -3.22437 0.407332 10.5
    endloop
  endfacet
  facet normal 0 0 1
    outer loop
      vertex -2.848 -1.5657 10.5
      vertex -15.7735 -8.67157 10.5
      vertex -14.5623 -10.5801 10.5
    endloop
  endfacet
  facet normal -0 0 1
    outer loop
      vertex -17.8581 2.256 10.5
      vertex -3.22437 0.407332 10.5
      vertex -17.4345 4.47642 10.5
    endloop
  endfacet
  facet normal 0 0 1
    outer loop
      vertex -3.02177 -1.1964 10.5
      vertex -16.736 -6.62624 10.5
      vertex -15.7735 -8.67157 10.5
    endloop
  endfacet
  facet normal 0 0 1
    outer loop
      vertex -3.22437 0.407332 10.5
      vertex -17.8581 2.256 10.5
      vertex -3.25 0 10.5
    endloop
  endfacet
  facet normal 0 0 1
    outer loop
      vertex -3.14789 -0.808242 10.5
      vertex -17.4345 -4.47642 10.5
      vertex -16.736 -6.62624 10.5
    endloop
  endfacet
  facet normal 0 0 1
    outer loop
      vertex -18 0 10.5
      vertex -3.25 0 10.5
      vertex -17.8581 2.256 10.5
    endloop
  endfacet
  facet normal 0 0 1
    outer loop
      vertex -3.22437 -0.407332 10.5
      vertex -17.8581 -2.256 10.5
      vertex -17.4345 -4.47642 10.5
    endloop
  endfacet
  facet normal 0 0 1
    outer loop
      vertex -3.25 0 10.5
      vertex -18 0 10.5
      vertex -17.8581 -2.256 10.5
    endloop
  endfacet
  facet normal -0.587802 0.809005 0
    outer loop
      vertex -9.64488 15.1979 -10.5
      vertex -11.4736 13.8692 10.5
      vertex -9.64488 15.1979 10.5
    endloop
  endfacet
  facet normal -0.587802 0.809005 0
    outer loop
      vertex -11.4736 13.8692 10.5
      vertex -9.64488 15.1979 -10.5
      vertex -11.4736 13.8692 -10.5
    endloop
  endfacet
  facet normal -0.248708 0.968578 0
    outer loop
      vertex -3.37286 17.6812 -10.5
      vertex -5.56231 17.119 10.5
      vertex -3.37286 17.6812 10.5
    endloop
  endfacet
  facet normal -0.248708 0.968578 0
    outer loop
      vertex -5.56231 17.119 10.5
      vertex -3.37286 17.6812 -10.5
      vertex -5.56231 17.119 -10.5
    endloop
  endfacet
  facet normal 0.998028 -0.0627749 0
    outer loop
      vertex 17.8581 -2.256 10.5
      vertex 18 0 -10.5
      vertex 18 0 10.5
    endloop
  endfacet
  facet normal 0.998028 -0.0627749 0
    outer loop
      vertex 18 0 -10.5
      vertex 17.8581 -2.256 10.5
      vertex 17.8581 -2.256 -10.5
    endloop
  endfacet
  facet normal 0.770504 -0.637435 0
    outer loop
      vertex 13.1214 -12.3218 10.5
      vertex 14.5623 -10.5801 -10.5
      vertex 14.5623 -10.5801 10.5
    endloop
  endfacet
  facet normal 0.770504 -0.637435 0
    outer loop
      vertex 14.5623 -10.5801 -10.5
      vertex 13.1214 -12.3218 10.5
      vertex 13.1214 -12.3218 -10.5
    endloop
  endfacet
  facet normal 0.951059 -0.309009 0
    outer loop
      vertex 16.736 -6.62624 10.5
      vertex 17.4345 -4.47642 -10.5
      vertex 17.4345 -4.47642 10.5
    endloop
  endfacet
  facet normal 0.951059 -0.309009 0
    outer loop
      vertex 17.4345 -4.47642 -10.5
      vertex 16.736 -6.62624 10.5
      vertex 16.736 -6.62624 -10.5
    endloop
  endfacet
  facet normal 0.982285 -0.187395 0
    outer loop
      vertex 17.4345 -4.47642 10.5
      vertex 17.8581 -2.256 -10.5
      vertex 17.8581 -2.256 10.5
    endloop
  endfacet
  facet normal 0.982285 -0.187395 0
    outer loop
      vertex 17.8581 -2.256 -10.5
      vertex 17.4345 -4.47642 10.5
      vertex 17.4345 -4.47642 -10.5
    endloop
  endfacet
  facet normal -0.68455 -0.728966 0
    outer loop
      vertex -13.1214 -12.3218 -10.5
      vertex -11.4736 -13.8692 10.5
      vertex -13.1214 -12.3218 10.5
    endloop
  endfacet
  facet normal -0.68455 -0.728966 -0
    outer loop
      vertex -11.4736 -13.8692 10.5
      vertex -13.1214 -12.3218 -10.5
      vertex -11.4736 -13.8692 -10.5
    endloop
  endfacet
  facet normal -0.90482 -0.425794 0
    outer loop
      vertex -15.7735 -8.67157 -10.5
      vertex -16.736 -6.62624 10.5
      vertex -16.736 -6.62624 -10.5
    endloop
  endfacet
  facet normal -0.90482 -0.425794 0
    outer loop
      vertex -16.736 -6.62624 10.5
      vertex -15.7735 -8.67157 -10.5
      vertex -15.7735 -8.67157 10.5
    endloop
  endfacet
  facet normal -0.770504 -0.637435 0
    outer loop
      vertex -13.1214 -12.3218 -10.5
      vertex -14.5623 -10.5801 10.5
      vertex -14.5623 -10.5801 -10.5
    endloop
  endfacet
  facet normal -0.770504 -0.637435 0
    outer loop
      vertex -14.5623 -10.5801 10.5
      vertex -13.1214 -12.3218 -10.5
      vertex -13.1214 -12.3218 10.5
    endloop
  endfacet
  facet normal 0 0 -1
    outer loop
      vertex 3.25 0 -10.5
      vertex 18 0 -10.5
      vertex 17.8581 -2.256 -10.5
    endloop
  endfacet
  facet normal 0 0 -1
    outer loop
      vertex 3.22437 -0.407332 -10.5
      vertex 17.8581 -2.256 -10.5
      vertex 17.4345 -4.47642 -10.5
    endloop
  endfacet
  facet normal 0 0 -1
    outer loop
      vertex 18 0 -10.5
      vertex 3.25 0 -10.5
      vertex 17.8581 2.256 -10.5
    endloop
  endfacet
  facet normal 0 0 -1
    outer loop
      vertex 3.14789 -0.808242 -10.5
      vertex 17.4345 -4.47642 -10.5
      vertex 16.736 -6.62624 -10.5
    endloop
  endfacet
  facet normal 0 0 -1
    outer loop
      vertex 3.22437 0.407332 -10.5
      vertex 17.8581 2.256 -10.5
      vertex 3.25 0 -10.5
    endloop
  endfacet
  facet normal 0 0 -1
    outer loop
      vertex 3.02177 -1.1964 -10.5
      vertex 16.736 -6.62624 -10.5
      vertex 15.7735 -8.67157 -10.5
    endloop
  endfacet
  facet normal -0 0 -1
    outer loop
      vertex 17.8581 2.256 -10.5
      vertex 3.22437 0.407332 -10.5
      vertex 17.4345 4.47642 -10.5
    endloop
  endfacet
  facet normal 0 0 -1
    outer loop
      vertex 2.848 -1.5657 -10.5
      vertex 15.7735 -8.67157 -10.5
      vertex 14.5623 -10.5801 -10.5
    endloop
  endfacet
  facet normal 0 0 -1
    outer loop
      vertex 3.14789 0.808242 -10.5
      vertex 17.4345 4.47642 -10.5
      vertex 3.22437 0.407332 -10.5
    endloop
  endfacet
  facet normal 0 0 -1
    outer loop
      vertex 2.6293 -1.9103 -10.5
      vertex 14.5623 -10.5801 -10.5
      vertex 13.1214 -12.3218 -10.5
    endloop
  endfacet
  facet normal -0 0 -1
    outer loop
      vertex 17.4345 4.47642 -10.5
      vertex 3.14789 0.808242 -10.5
      vertex 16.736 6.62624 -10.5
    endloop
  endfacet
  facet normal 0 0 -1
    outer loop
      vertex 2.36915 -2.22478 -10.5
      vertex 13.1214 -12.3218 -10.5
      vertex 11.4736 -13.8692 -10.5
    endloop
  endfacet
  facet normal 0 0 -1
    outer loop
      vertex 3.02177 1.1964 -10.5
      vertex 16.736 6.62624 -10.5
      vertex 3.14789 0.808242 -10.5
    endloop
  endfacet
  facet normal 0 0 -1
    outer loop
      vertex 2.07163 -2.50417 -10.5
      vertex 11.4736 -13.8692 -10.5
      vertex 9.64488 -15.1979 -10.5
    endloop
  endfacet
  facet normal -0 0 -1
    outer loop
      vertex 16.736 6.62624 -10.5
      vertex 3.02177 1.1964 -10.5
      vertex 15.7735 8.67157 -10.5
    endloop
  endfacet
  facet normal 0 0 -1
    outer loop
      vertex 1.74144 -2.74407 -10.5
      vertex 9.64488 -15.1979 -10.5
      vertex 7.66403 -16.2869 -10.5
    endloop
  endfacet
  facet normal 0 0 -1
    outer loop
      vertex 2.848 1.5657 -10.5
      vertex 15.7735 8.67157 -10.5
      vertex 3.02177 1.1964 -10.5
    endloop
  endfacet
  facet normal 0 0 -1
    outer loop
      vertex 1.38378 -2.94069 -10.5
      vertex 7.66403 -16.2869 -10.5
      vertex 5.56231 -17.119 -10.5
    endloop
  endfacet
  facet normal -0 0 -1
    outer loop
      vertex 15.7735 8.67157 -10.5
      vertex 2.848 1.5657 -10.5
      vertex 14.5623 10.5801 -10.5
    endloop
  endfacet
  facet normal 0 0 -1
    outer loop
      vertex 1.0043 -3.09093 -10.5
      vertex 5.56231 -17.119 -10.5
      vertex 3.37286 -17.6812 -10.5
    endloop
  endfacet
  facet normal 0 0 -1
    outer loop
      vertex 2.6293 1.9103 -10.5
      vertex 14.5623 10.5801 -10.5
      vertex 2.848 1.5657 -10.5
    endloop
  endfacet
  facet normal -0 0 -1
    outer loop
      vertex 14.5623 10.5801 -10.5
      vertex 2.6293 1.9103 -10.5
      vertex 13.1214 12.3218 -10.5
    endloop
  endfacet
  facet normal 0 0 -1
    outer loop
      vertex 17.8581 -2.256 -10.5
      vertex 3.22437 -0.407332 -10.5
      vertex 3.25 0 -10.5
    endloop
  endfacet
  facet normal 0 0 -1
    outer loop
      vertex 17.4345 -4.47642 -10.5
      vertex 3.14789 -0.808242 -10.5
      vertex 3.22437 -0.407332 -10.5
    endloop
  endfacet
  facet normal 0 0 -1
    outer loop
      vertex 16.736 -6.62624 -10.5
      vertex 3.02177 -1.1964 -10.5
      vertex 3.14789 -0.808242 -10.5
    endloop
  endfacet
  facet normal 0 0 -1
    outer loop
      vertex 15.7735 -8.67157 -10.5
      vertex 2.848 -1.5657 -10.5
      vertex 3.02177 -1.1964 -10.5
    endloop
  endfacet
  facet normal 0 0 -1
    outer loop
      vertex 14.5623 -10.5801 -10.5
      vertex 2.6293 -1.9103 -10.5
      vertex 2.848 -1.5657 -10.5
    endloop
  endfacet
  facet normal 0 0 -1
    outer loop
      vertex 13.1214 -12.3218 -10.5
      vertex 2.36915 -2.22478 -10.5
      vertex 2.6293 -1.9103 -10.5
    endloop
  endfacet
  facet normal 0 0 -1
    outer loop
      vertex 11.4736 -13.8692 -10.5
      vertex 2.07163 -2.50417 -10.5
      vertex 2.36915 -2.22478 -10.5
    endloop
  endfacet
  facet normal 0 0 -1
    outer loop
      vertex 9.64488 -15.1979 -10.5
      vertex 1.74144 -2.74407 -10.5
      vertex 2.07163 -2.50417 -10.5
    endloop
  endfacet
  facet normal 0 0 -1
    outer loop
      vertex 7.66403 -16.2869 -10.5
      vertex 1.38378 -2.94069 -10.5
      vertex 1.74144 -2.74407 -10.5
    endloop
  endfacet
  facet normal 0 0 -1
    outer loop
      vertex 0.608989 -3.19243 -10.5
      vertex 3.37286 -17.6812 -10.5
      vertex 1.13023 -17.9645 -10.5
    endloop
  endfacet
  facet normal 0 0 -1
    outer loop
      vertex 5.56231 -17.119 -10.5
      vertex 1.0043 -3.09093 -10.5
      vertex 1.38378 -2.94069 -10.5
    endloop
  endfacet
  facet normal 0 0 -1
    outer loop
      vertex 3.37286 -17.6812 -10.5
      vertex 0.608989 -3.19243 -10.5
      vertex 1.0043 -3.09093 -10.5
    endloop
  endfacet
  facet normal 0 0 -1
    outer loop
      vertex 1.13023 -17.9645 -10.5
      vertex 0.204069 -3.24359 -10.5
      vertex 0.608989 -3.19243 -10.5
    endloop
  endfacet
  facet normal 0 0 -1
    outer loop
      vertex 1.13023 -17.9645 -10.5
      vertex -0.204069 -3.24359 -10.5
      vertex 0.204069 -3.24359 -10.5
    endloop
  endfacet
  facet normal 0 0 -1
    outer loop
      vertex -1.13023 -17.9645 -10.5
      vertex -0.204069 -3.24359 -10.5
      vertex 1.13023 -17.9645 -10.5
    endloop
  endfacet
  facet normal -0 0 -1
    outer loop
      vertex -0.204069 -3.24359 -10.5
      vertex -1.13023 -17.9645 -10.5
      vertex -0.608989 -3.19243 -10.5
    endloop
  endfacet
  facet normal 0 0 -1
    outer loop
      vertex -3.37286 -17.6812 -10.5
      vertex -0.608989 -3.19243 -10.5
      vertex -1.13023 -17.9645 -10.5
    endloop
  endfacet
  facet normal -0 0 -1
    outer loop
      vertex -0.608989 -3.19243 -10.5
      vertex -3.37286 -17.6812 -10.5
      vertex -1.0043 -3.09093 -10.5
    endloop
  endfacet
  facet normal 0 0 -1
    outer loop
      vertex -5.56231 -17.119 -10.5
      vertex -1.0043 -3.09093 -10.5
      vertex -3.37286 -17.6812 -10.5
    endloop
  endfacet
  facet normal -0 0 -1
    outer loop
      vertex -1.0043 -3.09093 -10.5
      vertex -5.56231 -17.119 -10.5
      vertex -1.38378 -2.94069 -10.5
    endloop
  endfacet
  facet normal 0 0 -1
    outer loop
      vertex -7.66403 -16.2869 -10.5
      vertex -1.38378 -2.94069 -10.5
      vertex -5.56231 -17.119 -10.5
    endloop
  endfacet
  facet normal -0 0 -1
    outer loop
      vertex -1.38378 -2.94069 -10.5
      vertex -7.66403 -16.2869 -10.5
      vertex -1.74144 -2.74407 -10.5
    endloop
  endfacet
  facet normal 0 0 -1
    outer loop
      vertex -9.64488 -15.1979 -10.5
      vertex -1.74144 -2.74407 -10.5
      vertex -7.66403 -16.2869 -10.5
    endloop
  endfacet
  facet normal -0 0 -1
    outer loop
      vertex -1.74144 -2.74407 -10.5
      vertex -9.64488 -15.1979 -10.5
      vertex -2.07163 -2.50417 -10.5
    endloop
  endfacet
  facet normal 0 0 -1
    outer loop
      vertex -11.4736 -13.8692 -10.5
      vertex -2.07163 -2.50417 -10.5
      vertex -9.64488 -15.1979 -10.5
    endloop
  endfacet
  facet normal -0 0 -1
    outer loop
      vertex -2.07163 -2.50417 -10.5
      vertex -11.4736 -13.8692 -10.5
      vertex -2.36915 -2.22478 -10.5
    endloop
  endfacet
  facet normal -0 0 -1
    outer loop
      vertex -2.36915 -2.22478 -10.5
      vertex -13.1214 -12.3218 -10.5
      vertex -2.6293 -1.9103 -10.5
    endloop
  endfacet
  facet normal 0 0 -1
    outer loop
      vertex -13.1214 -12.3218 -10.5
      vertex -2.36915 -2.22478 -10.5
      vertex -11.4736 -13.8692 -10.5
    endloop
  endfacet
  facet normal 0 0 -1
    outer loop
      vertex 2.36915 2.22478 -10.5
      vertex 13.1214 12.3218 -10.5
      vertex 2.6293 1.9103 -10.5
    endloop
  endfacet
  facet normal -0 0 -1
    outer loop
      vertex 13.1214 12.3218 -10.5
      vertex 2.36915 2.22478 -10.5
      vertex 11.4736 13.8692 -10.5
    endloop
  endfacet
  facet normal 0 0 -1
    outer loop
      vertex 2.07163 2.50417 -10.5
      vertex 11.4736 13.8692 -10.5
      vertex 2.36915 2.22478 -10.5
    endloop
  endfacet
  facet normal -0 0 -1
    outer loop
      vertex 11.4736 13.8692 -10.5
      vertex 2.07163 2.50417 -10.5
      vertex 9.64488 15.1979 -10.5
    endloop
  endfacet
  facet normal 0 0 -1
    outer loop
      vertex 1.74144 2.74407 -10.5
      vertex 9.64488 15.1979 -10.5
      vertex 2.07163 2.50417 -10.5
    endloop
  endfacet
  facet normal -0 0 -1
    outer loop
      vertex 9.64488 15.1979 -10.5
      vertex 1.74144 2.74407 -10.5
      vertex 7.66403 16.2869 -10.5
    endloop
  endfacet
  facet normal 0 0 -1
    outer loop
      vertex 1.38378 2.94069 -10.5
      vertex 7.66403 16.2869 -10.5
      vertex 1.74144 2.74407 -10.5
    endloop
  endfacet
  facet normal -0 0 -1
    outer loop
      vertex 7.66403 16.2869 -10.5
      vertex 1.38378 2.94069 -10.5
      vertex 5.56231 17.119 -10.5
    endloop
  endfacet
  facet normal 0 0 -1
    outer loop
      vertex 1.0043 3.09093 -10.5
      vertex 5.56231 17.119 -10.5
      vertex 1.38378 2.94069 -10.5
    endloop
  endfacet
  facet normal -0 0 -1
    outer loop
      vertex 5.56231 17.119 -10.5
      vertex 1.0043 3.09093 -10.5
      vertex 3.37286 17.6812 -10.5
    endloop
  endfacet
  facet normal 0 0 -1
    outer loop
      vertex 0.608989 3.19243 -10.5
      vertex 3.37286 17.6812 -10.5
      vertex 1.0043 3.09093 -10.5
    endloop
  endfacet
  facet normal -0 0 -1
    outer loop
      vertex 3.37286 17.6812 -10.5
      vertex 0.608989 3.19243 -10.5
      vertex 1.13023 17.9645 -10.5
    endloop
  endfacet
  facet normal 0 0 -1
    outer loop
      vertex 0.204069 3.24359 -10.5
      vertex 1.13023 17.9645 -10.5
      vertex 0.608989 3.19243 -10.5
    endloop
  endfacet
  facet normal 0 0 -1
    outer loop
      vertex -0.204069 3.24359 -10.5
      vertex 1.13023 17.9645 -10.5
      vertex 0.204069 3.24359 -10.5
    endloop
  endfacet
  facet normal 0 0 -1
    outer loop
      vertex -1.13023 17.9645 -10.5
      vertex -0.204069 3.24359 -10.5
      vertex -0.608989 3.19243 -10.5
    endloop
  endfacet
  facet normal 0 0 -1
    outer loop
      vertex -3.37286 17.6812 -10.5
      vertex -0.608989 3.19243 -10.5
      vertex -1.0043 3.09093 -10.5
    endloop
  endfacet
  facet normal 0 0 -1
    outer loop
      vertex -0.204069 3.24359 -10.5
      vertex -1.13023 17.9645 -10.5
      vertex 1.13023 17.9645 -10.5
    endloop
  endfacet
  facet normal 0 0 -1
    outer loop
      vertex -5.56231 17.119 -10.5
      vertex -1.0043 3.09093 -10.5
      vertex -1.38378 2.94069 -10.5
    endloop
  endfacet
  facet normal 0 0 -1
    outer loop
      vertex -7.66403 16.2869 -10.5
      vertex -1.38378 2.94069 -10.5
      vertex -1.74144 2.74407 -10.5
    endloop
  endfacet
  facet normal 0 0 -1
    outer loop
      vertex -9.64488 15.1979 -10.5
      vertex -1.74144 2.74407 -10.5
      vertex -2.07163 2.50417 -10.5
    endloop
  endfacet
  facet normal 0 0 -1
    outer loop
      vertex -11.4736 13.8692 -10.5
      vertex -2.07163 2.50417 -10.5
      vertex -2.36915 2.22478 -10.5
    endloop
  endfacet
  facet normal 0 0 -1
    outer loop
      vertex -13.1214 12.3218 -10.5
      vertex -2.36915 2.22478 -10.5
      vertex -2.6293 1.9103 -10.5
    endloop
  endfacet
  facet normal 0 0 -1
    outer loop
      vertex -14.5623 10.5801 -10.5
      vertex -2.6293 1.9103 -10.5
      vertex -2.848 1.5657 -10.5
    endloop
  endfacet
  facet normal 0 0 -1
    outer loop
      vertex -15.7735 8.67157 -10.5
      vertex -2.848 1.5657 -10.5
      vertex -3.02177 1.1964 -10.5
    endloop
  endfacet
  facet normal 0 0 -1
    outer loop
      vertex -16.736 6.62624 -10.5
      vertex -3.02177 1.1964 -10.5
      vertex -3.14789 0.808242 -10.5
    endloop
  endfacet
  facet normal 0 0 -1
    outer loop
      vertex -17.4345 4.47642 -10.5
      vertex -3.14789 0.808242 -10.5
      vertex -3.22437 0.407332 -10.5
    endloop
  endfacet
  facet normal 0 0 -1
    outer loop
      vertex -0.608989 3.19243 -10.5
      vertex -3.37286 17.6812 -10.5
      vertex -1.13023 17.9645 -10.5
    endloop
  endfacet
  facet normal 0 0 -1
    outer loop
      vertex -17.8581 2.256 -10.5
      vertex -3.22437 0.407332 -10.5
      vertex -3.25 0 -10.5
    endloop
  endfacet
  facet normal 0 0 -1
    outer loop
      vertex -14.5623 -10.5801 -10.5
      vertex -2.6293 -1.9103 -10.5
      vertex -13.1214 -12.3218 -10.5
    endloop
  endfacet
  facet normal -0 0 -1
    outer loop
      vertex -2.6293 -1.9103 -10.5
      vertex -14.5623 -10.5801 -10.5
      vertex -2.848 -1.5657 -10.5
    endloop
  endfacet
  facet normal 0 0 -1
    outer loop
      vertex -1.0043 3.09093 -10.5
      vertex -5.56231 17.119 -10.5
      vertex -3.37286 17.6812 -10.5
    endloop
  endfacet
  facet normal 0 0 -1
    outer loop
      vertex -15.7735 -8.67157 -10.5
      vertex -2.848 -1.5657 -10.5
      vertex -14.5623 -10.5801 -10.5
    endloop
  endfacet
  facet normal 0 0 -1
    outer loop
      vertex -1.38378 2.94069 -10.5
      vertex -7.66403 16.2869 -10.5
      vertex -5.56231 17.119 -10.5
    endloop
  endfacet
  facet normal -0 0 -1
    outer loop
      vertex -2.848 -1.5657 -10.5
      vertex -15.7735 -8.67157 -10.5
      vertex -3.02177 -1.1964 -10.5
    endloop
  endfacet
  facet normal 0 0 -1
    outer loop
      vertex -1.74144 2.74407 -10.5
      vertex -9.64488 15.1979 -10.5
      vertex -7.66403 16.2869 -10.5
    endloop
  endfacet
  facet normal 0 0 -1
    outer loop
      vertex -16.736 -6.62624 -10.5
      vertex -3.02177 -1.1964 -10.5
      vertex -15.7735 -8.67157 -10.5
    endloop
  endfacet
  facet normal 0 0 -1
    outer loop
      vertex -2.07163 2.50417 -10.5
      vertex -11.4736 13.8692 -10.5
      vertex -9.64488 15.1979 -10.5
    endloop
  endfacet
  facet normal -0 0 -1
    outer loop
      vertex -3.02177 -1.1964 -10.5
      vertex -16.736 -6.62624 -10.5
      vertex -3.14789 -0.808242 -10.5
    endloop
  endfacet
  facet normal 0 0 -1
    outer loop
      vertex -2.36915 2.22478 -10.5
      vertex -13.1214 12.3218 -10.5
      vertex -11.4736 13.8692 -10.5
    endloop
  endfacet
  facet normal 0 0 -1
    outer loop
      vertex -17.4345 -4.47642 -10.5
      vertex -3.14789 -0.808242 -10.5
      vertex -16.736 -6.62624 -10.5
    endloop
  endfacet
  facet normal 0 0 -1
    outer loop
      vertex -2.6293 1.9103 -10.5
      vertex -14.5623 10.5801 -10.5
      vertex -13.1214 12.3218 -10.5
    endloop
  endfacet
  facet normal -0 0 -1
    outer loop
      vertex -3.14789 -0.808242 -10.5
      vertex -17.4345 -4.47642 -10.5
      vertex -3.22437 -0.407332 -10.5
    endloop
  endfacet
  facet normal 0 0 -1
    outer loop
      vertex -2.848 1.5657 -10.5
      vertex -15.7735 8.67157 -10.5
      vertex -14.5623 10.5801 -10.5
    endloop
  endfacet
  facet normal 0 0 -1
    outer loop
      vertex -17.8581 -2.256 -10.5
      vertex -3.22437 -0.407332 -10.5
      vertex -17.4345 -4.47642 -10.5
    endloop
  endfacet
  facet normal 0 0 -1
    outer loop
      vertex -3.02177 1.1964 -10.5
      vertex -16.736 6.62624 -10.5
      vertex -15.7735 8.67157 -10.5
    endloop
  endfacet
  facet normal -0 0 -1
    outer loop
      vertex -3.22437 -0.407332 -10.5
      vertex -17.8581 -2.256 -10.5
      vertex -3.25 0 -10.5
    endloop
  endfacet
  facet normal 0 0 -1
    outer loop
      vertex -3.14789 0.808242 -10.5
      vertex -17.4345 4.47642 -10.5
      vertex -16.736 6.62624 -10.5
    endloop
  endfacet
  facet normal 0 0 -1
    outer loop
      vertex -18 0 -10.5
      vertex -3.25 0 -10.5
      vertex -17.8581 -2.256 -10.5
    endloop
  endfacet
  facet normal 0 0 -1
    outer loop
      vertex -3.22437 0.407332 -10.5
      vertex -17.8581 2.256 -10.5
      vertex -17.4345 4.47642 -10.5
    endloop
  endfacet
  facet normal 0 0 -1
    outer loop
      vertex -3.25 0 -10.5
      vertex -18 0 -10.5
      vertex -17.8581 2.256 -10.5
    endloop
  endfacet
  facet normal 0.48176 -0.876303 0
    outer loop
      vertex 7.66403 -16.2869 -10.5
      vertex 9.64488 -15.1979 10.5
      vertex 7.66403 -16.2869 10.5
    endloop
  endfacet
  facet normal 0.48176 -0.876303 0
    outer loop
      vertex 9.64488 -15.1979 10.5
      vertex 7.66403 -16.2869 -10.5
      vertex 9.64488 -15.1979 -10.5
    endloop
  endfacet
  facet normal 0.844326 -0.53583 0
    outer loop
      vertex 14.5623 -10.5801 10.5
      vertex 15.7735 -8.67157 -10.5
      vertex 15.7735 -8.67157 10.5
    endloop
  endfacet
  facet normal 0.844326 -0.53583 0
    outer loop
      vertex 15.7735 -8.67157 -10.5
      vertex 14.5623 -10.5801 10.5
      vertex 14.5623 -10.5801 -10.5
    endloop
  endfacet
  facet normal -0.951059 -0.309009 0
    outer loop
      vertex -16.736 -6.62624 -10.5
      vertex -17.4345 -4.47642 10.5
      vertex -17.4345 -4.47642 -10.5
    endloop
  endfacet
  facet normal -0.951059 -0.309009 0
    outer loop
      vertex -17.4345 -4.47642 10.5
      vertex -16.736 -6.62624 -10.5
      vertex -16.736 -6.62624 10.5
    endloop
  endfacet
  facet normal 0.248708 -0.968578 0
    outer loop
      vertex 3.37286 -17.6812 -10.5
      vertex 5.56231 -17.119 10.5
      vertex 3.37286 -17.6812 10.5
    endloop
  endfacet
  facet normal 0.248708 -0.968578 0
    outer loop
      vertex 5.56231 -17.119 10.5
      vertex 3.37286 -17.6812 -10.5
      vertex 5.56231 -17.119 -10.5
    endloop
  endfacet
  facet normal 0.90482 -0.425794 0
    outer loop
      vertex 15.7735 -8.67157 10.5
      vertex 16.736 -6.62624 -10.5
      vertex 16.736 -6.62624 10.5
    endloop
  endfacet
  facet normal 0.90482 -0.425794 0
    outer loop
      vertex 16.736 -6.62624 -10.5
      vertex 15.7735 -8.67157 10.5
      vertex 15.7735 -8.67157 -10.5
    endloop
  endfacet
  facet normal -0.125329 -0.992115 0
    outer loop
      vertex -3.37286 -17.6812 -10.5
      vertex -1.13023 -17.9645 10.5
      vertex -3.37286 -17.6812 10.5
    endloop
  endfacet
  facet normal -0.125329 -0.992115 -0
    outer loop
      vertex -1.13023 -17.9645 10.5
      vertex -3.37286 -17.6812 -10.5
      vertex -1.13023 -17.9645 -10.5
    endloop
  endfacet
  facet normal -0.368113 -0.929781 0
    outer loop
      vertex -7.66403 -16.2869 -10.5
      vertex -5.56231 -17.119 10.5
      vertex -7.66403 -16.2869 10.5
    endloop
  endfacet
  facet normal -0.368113 -0.929781 -0
    outer loop
      vertex -5.56231 -17.119 10.5
      vertex -7.66403 -16.2869 -10.5
      vertex -5.56231 -17.119 -10.5
    endloop
  endfacet
  facet normal -0.48176 -0.876303 0
    outer loop
      vertex -9.64488 -15.1979 -10.5
      vertex -7.66403 -16.2869 10.5
      vertex -9.64488 -15.1979 10.5
    endloop
  endfacet
  facet normal -0.48176 -0.876303 -0
    outer loop
      vertex -7.66403 -16.2869 10.5
      vertex -9.64488 -15.1979 -10.5
      vertex -7.66403 -16.2869 -10.5
    endloop
  endfacet
  facet normal -0.844326 -0.53583 0
    outer loop
      vertex -14.5623 -10.5801 -10.5
      vertex -15.7735 -8.67157 10.5
      vertex -15.7735 -8.67157 -10.5
    endloop
  endfacet
  facet normal -0.844326 -0.53583 0
    outer loop
      vertex -15.7735 -8.67157 10.5
      vertex -14.5623 -10.5801 -10.5
      vertex -14.5623 -10.5801 10.5
    endloop
  endfacet
  facet normal -0.982285 -0.187395 0
    outer loop
      vertex -17.4345 -4.47642 -10.5
      vertex -17.8581 -2.256 10.5
      vertex -17.8581 -2.256 -10.5
    endloop
  endfacet
  facet normal -0.982285 -0.187395 0
    outer loop
      vertex -17.8581 -2.256 10.5
      vertex -17.4345 -4.47642 -10.5
      vertex -17.4345 -4.47642 10.5
    endloop
  endfacet
  facet normal -0.998028 -0.0627749 0
    outer loop
      vertex -17.8581 -2.256 -10.5
      vertex -18 0 10.5
      vertex -18 0 -10.5
    endloop
  endfacet
  facet normal -0.998028 -0.0627749 0
    outer loop
      vertex -18 0 10.5
      vertex -17.8581 -2.256 -10.5
      vertex -17.8581 -2.256 10.5
    endloop
  endfacet
  facet normal 0.68455 -0.728966 0
    outer loop
      vertex 11.4736 -13.8692 -10.5
      vertex 13.1214 -12.3218 10.5
      vertex 11.4736 -13.8692 10.5
    endloop
  endfacet
  facet normal 0.68455 -0.728966 0
    outer loop
      vertex 13.1214 -12.3218 10.5
      vertex 11.4736 -13.8692 -10.5
      vertex 13.1214 -12.3218 -10.5
    endloop
  endfacet
  facet normal 0.587802 -0.809005 0
    outer loop
      vertex 9.64488 -15.1979 -10.5
      vertex 11.4736 -13.8692 10.5
      vertex 9.64488 -15.1979 10.5
    endloop
  endfacet
  facet normal 0.587802 -0.809005 0
    outer loop
      vertex 11.4736 -13.8692 10.5
      vertex 9.64488 -15.1979 -10.5
      vertex 11.4736 -13.8692 -10.5
    endloop
  endfacet
  facet normal -0.248708 -0.968578 0
    outer loop
      vertex -5.56231 -17.119 -10.5
      vertex -3.37286 -17.6812 10.5
      vertex -5.56231 -17.119 10.5
    endloop
  endfacet
  facet normal -0.248708 -0.968578 -0
    outer loop
      vertex -3.37286 -17.6812 10.5
      vertex -5.56231 -17.119 -10.5
      vertex -3.37286 -17.6812 -10.5
    endloop
  endfacet
  facet normal -0.587802 -0.809005 0
    outer loop
      vertex -11.4736 -13.8692 -10.5
      vertex -9.64488 -15.1979 10.5
      vertex -11.4736 -13.8692 10.5
    endloop
  endfacet
  facet normal -0.587802 -0.809005 -0
    outer loop
      vertex -9.64488 -15.1979 10.5
      vertex -11.4736 -13.8692 -10.5
      vertex -9.64488 -15.1979 -10.5
    endloop
  endfacet
  facet normal -0.998026 -0.0627975 0
    outer loop
      vertex 3.25 0 -10.5
      vertex 3.22437 0.407332 10.5
      vertex 3.22437 0.407332 -10.5
    endloop
  endfacet
  facet normal -0.998026 -0.0627975 0
    outer loop
      vertex 3.22437 0.407332 10.5
      vertex 3.25 0 -10.5
      vertex 3.25 0 10.5
    endloop
  endfacet
  facet normal 0.998026 -0.0627975 0
    outer loop
      vertex -3.25 0 10.5
      vertex -3.22437 0.407332 -10.5
      vertex -3.22437 0.407332 10.5
    endloop
  endfacet
  facet normal 0.998026 -0.0627975 0
    outer loop
      vertex -3.22437 0.407332 -10.5
      vertex -3.25 0 10.5
      vertex -3.25 0 -10.5
    endloop
  endfacet
  facet normal 0 -1 0
    outer loop
      vertex -0.204069 3.24359 -10.5
      vertex 0.204069 3.24359 10.5
      vertex -0.204069 3.24359 10.5
    endloop
  endfacet
  facet normal 0 -1 -0
    outer loop
      vertex 0.204069 3.24359 10.5
      vertex -0.204069 3.24359 -10.5
      vertex 0.204069 3.24359 -10.5
    endloop
  endfacet
  facet normal 0 1 -0
    outer loop
      vertex 0.204069 -3.24359 -10.5
      vertex -0.204069 -3.24359 10.5
      vertex 0.204069 -3.24359 10.5
    endloop
  endfacet
  facet normal 0 1 0
    outer loop
      vertex -0.204069 -3.24359 10.5
      vertex 0.204069 -3.24359 -10.5
      vertex -0.204069 -3.24359 -10.5
    endloop
  endfacet
  facet normal -0.770526 0.637409 0
    outer loop
      vertex 2.36915 -2.22478 -10.5
      vertex 2.6293 -1.9103 10.5
      vertex 2.6293 -1.9103 -10.5
    endloop
  endfacet
  facet normal -0.770526 0.637409 0
    outer loop
      vertex 2.6293 -1.9103 10.5
      vertex 2.36915 -2.22478 -10.5
      vertex 2.36915 -2.22478 10.5
    endloop
  endfacet
  facet normal -0.684547 -0.728968 0
    outer loop
      vertex 2.07163 2.50417 -10.5
      vertex 2.36915 2.22478 10.5
      vertex 2.07163 2.50417 10.5
    endloop
  endfacet
  facet normal -0.684547 -0.728968 -0
    outer loop
      vertex 2.36915 2.22478 10.5
      vertex 2.07163 2.50417 -10.5
      vertex 2.36915 2.22478 -10.5
    endloop
  endfacet
  facet normal 0.684547 -0.728968 0
    outer loop
      vertex -2.36915 2.22478 -10.5
      vertex -2.07163 2.50417 10.5
      vertex -2.36915 2.22478 10.5
    endloop
  endfacet
  facet normal 0.684547 -0.728968 0
    outer loop
      vertex -2.07163 2.50417 10.5
      vertex -2.36915 2.22478 -10.5
      vertex -2.07163 2.50417 -10.5
    endloop
  endfacet
  facet normal 0.36811 -0.929782 0
    outer loop
      vertex -1.38378 2.94069 -10.5
      vertex -1.0043 3.09093 10.5
      vertex -1.38378 2.94069 10.5
    endloop
  endfacet
  facet normal 0.36811 -0.929782 0
    outer loop
      vertex -1.0043 3.09093 10.5
      vertex -1.38378 2.94069 -10.5
      vertex -1.0043 3.09093 -10.5
    endloop
  endfacet
  facet normal -0.904836 -0.42576 0
    outer loop
      vertex 3.02177 1.1964 -10.5
      vertex 2.848 1.5657 10.5
      vertex 2.848 1.5657 -10.5
    endloop
  endfacet
  facet normal -0.904836 -0.42576 0
    outer loop
      vertex 2.848 1.5657 10.5
      vertex 3.02177 1.1964 -10.5
      vertex 3.02177 1.1964 10.5
    endloop
  endfacet
  facet normal -0.844317 -0.535845 0
    outer loop
      vertex 2.848 1.5657 -10.5
      vertex 2.6293 1.9103 10.5
      vertex 2.6293 1.9103 -10.5
    endloop
  endfacet
  facet normal -0.844317 -0.535845 0
    outer loop
      vertex 2.6293 1.9103 10.5
      vertex 2.848 1.5657 -10.5
      vertex 2.848 1.5657 10.5
    endloop
  endfacet
  facet normal -0.36811 -0.929782 0
    outer loop
      vertex 1.0043 3.09093 -10.5
      vertex 1.38378 2.94069 10.5
      vertex 1.0043 3.09093 10.5
    endloop
  endfacet
  facet normal -0.36811 -0.929782 -0
    outer loop
      vertex 1.38378 2.94069 10.5
      vertex 1.0043 3.09093 -10.5
      vertex 1.38378 2.94069 -10.5
    endloop
  endfacet
  facet normal -0.248693 -0.968582 0
    outer loop
      vertex 0.608989 3.19243 -10.5
      vertex 1.0043 3.09093 10.5
      vertex 0.608989 3.19243 10.5
    endloop
  endfacet
  facet normal -0.248693 -0.968582 -0
    outer loop
      vertex 1.0043 3.09093 10.5
      vertex 0.608989 3.19243 -10.5
      vertex 1.0043 3.09093 -10.5
    endloop
  endfacet
  facet normal -0.58779 -0.809014 0
    outer loop
      vertex 1.74144 2.74407 -10.5
      vertex 2.07163 2.50417 10.5
      vertex 1.74144 2.74407 10.5
    endloop
  endfacet
  facet normal -0.58779 -0.809014 -0
    outer loop
      vertex 2.07163 2.50417 10.5
      vertex 1.74144 2.74407 -10.5
      vertex 2.07163 2.50417 -10.5
    endloop
  endfacet
  facet normal 0.904836 -0.42576 0
    outer loop
      vertex -3.02177 1.1964 10.5
      vertex -2.848 1.5657 -10.5
      vertex -2.848 1.5657 10.5
    endloop
  endfacet
  facet normal 0.904836 -0.42576 0
    outer loop
      vertex -2.848 1.5657 -10.5
      vertex -3.02177 1.1964 10.5
      vertex -3.02177 1.1964 -10.5
    endloop
  endfacet
  facet normal 0.770526 -0.637409 0
    outer loop
      vertex -2.6293 1.9103 10.5
      vertex -2.36915 2.22478 -10.5
      vertex -2.36915 2.22478 10.5
    endloop
  endfacet
  facet normal 0.770526 -0.637409 0
    outer loop
      vertex -2.36915 2.22478 -10.5
      vertex -2.6293 1.9103 10.5
      vertex -2.6293 1.9103 -10.5
    endloop
  endfacet
  facet normal 0.951057 -0.309017 0
    outer loop
      vertex -3.14789 0.808242 10.5
      vertex -3.02177 1.1964 -10.5
      vertex -3.02177 1.1964 10.5
    endloop
  endfacet
  facet normal 0.951057 -0.309017 0
    outer loop
      vertex -3.02177 1.1964 -10.5
      vertex -3.14789 0.808242 10.5
      vertex -3.14789 0.808242 -10.5
    endloop
  endfacet
  facet normal 0.481744 -0.876312 0
    outer loop
      vertex -1.74144 2.74407 -10.5
      vertex -1.38378 2.94069 10.5
      vertex -1.74144 2.74407 10.5
    endloop
  endfacet
  facet normal 0.481744 -0.876312 0
    outer loop
      vertex -1.38378 2.94069 10.5
      vertex -1.74144 2.74407 -10.5
      vertex -1.38378 2.94069 -10.5
    endloop
  endfacet
  facet normal 0.125349 -0.992113 0
    outer loop
      vertex -0.608989 3.19243 -10.5
      vertex -0.204069 3.24359 10.5
      vertex -0.608989 3.19243 10.5
    endloop
  endfacet
  facet normal 0.125349 -0.992113 0
    outer loop
      vertex -0.204069 3.24359 10.5
      vertex -0.608989 3.19243 -10.5
      vertex -0.204069 3.24359 -10.5
    endloop
  endfacet
  facet normal -0.125349 0.992113 0
    outer loop
      vertex 0.608989 -3.19243 -10.5
      vertex 0.204069 -3.24359 10.5
      vertex 0.608989 -3.19243 10.5
    endloop
  endfacet
  facet normal -0.125349 0.992113 0
    outer loop
      vertex 0.204069 -3.24359 10.5
      vertex 0.608989 -3.19243 -10.5
      vertex 0.204069 -3.24359 -10.5
    endloop
  endfacet
  facet normal -0.481744 0.876312 0
    outer loop
      vertex 1.74144 -2.74407 -10.5
      vertex 1.38378 -2.94069 10.5
      vertex 1.74144 -2.74407 10.5
    endloop
  endfacet
  facet normal -0.481744 0.876312 0
    outer loop
      vertex 1.38378 -2.94069 10.5
      vertex 1.74144 -2.74407 -10.5
      vertex 1.38378 -2.94069 -10.5
    endloop
  endfacet
  facet normal -0.951057 -0.309017 0
    outer loop
      vertex 3.14789 0.808242 -10.5
      vertex 3.02177 1.1964 10.5
      vertex 3.02177 1.1964 -10.5
    endloop
  endfacet
  facet normal -0.951057 -0.309017 0
    outer loop
      vertex 3.02177 1.1964 10.5
      vertex 3.14789 0.808242 -10.5
      vertex 3.14789 0.808242 10.5
    endloop
  endfacet
  facet normal -0.982286 -0.187387 0
    outer loop
      vertex 3.22437 0.407332 -10.5
      vertex 3.14789 0.808242 10.5
      vertex 3.14789 0.808242 -10.5
    endloop
  endfacet
  facet normal -0.982286 -0.187387 0
    outer loop
      vertex 3.14789 0.808242 10.5
      vertex 3.22437 0.407332 -10.5
      vertex 3.22437 0.407332 10.5
    endloop
  endfacet
  facet normal -0.770526 -0.637409 0
    outer loop
      vertex 2.6293 1.9103 -10.5
      vertex 2.36915 2.22478 10.5
      vertex 2.36915 2.22478 -10.5
    endloop
  endfacet
  facet normal -0.770526 -0.637409 0
    outer loop
      vertex 2.36915 2.22478 10.5
      vertex 2.6293 1.9103 -10.5
      vertex 2.6293 1.9103 10.5
    endloop
  endfacet
  facet normal -0.125349 -0.992113 0
    outer loop
      vertex 0.204069 3.24359 -10.5
      vertex 0.608989 3.19243 10.5
      vertex 0.204069 3.24359 10.5
    endloop
  endfacet
  facet normal -0.125349 -0.992113 -0
    outer loop
      vertex 0.608989 3.19243 10.5
      vertex 0.204069 3.24359 -10.5
      vertex 0.608989 3.19243 -10.5
    endloop
  endfacet
  facet normal -0.481744 -0.876312 0
    outer loop
      vertex 1.38378 2.94069 -10.5
      vertex 1.74144 2.74407 10.5
      vertex 1.38378 2.94069 10.5
    endloop
  endfacet
  facet normal -0.481744 -0.876312 -0
    outer loop
      vertex 1.74144 2.74407 10.5
      vertex 1.38378 2.94069 -10.5
      vertex 1.74144 2.74407 -10.5
    endloop
  endfacet
  facet normal 0.844317 -0.535845 0
    outer loop
      vertex -2.848 1.5657 10.5
      vertex -2.6293 1.9103 -10.5
      vertex -2.6293 1.9103 10.5
    endloop
  endfacet
  facet normal 0.844317 -0.535845 0
    outer loop
      vertex -2.6293 1.9103 -10.5
      vertex -2.848 1.5657 10.5
      vertex -2.848 1.5657 -10.5
    endloop
  endfacet
  facet normal 0.982286 -0.187387 0
    outer loop
      vertex -3.22437 0.407332 10.5
      vertex -3.14789 0.808242 -10.5
      vertex -3.14789 0.808242 10.5
    endloop
  endfacet
  facet normal 0.982286 -0.187387 0
    outer loop
      vertex -3.14789 0.808242 -10.5
      vertex -3.22437 0.407332 10.5
      vertex -3.22437 0.407332 -10.5
    endloop
  endfacet
  facet normal 0.58779 -0.809014 0
    outer loop
      vertex -2.07163 2.50417 -10.5
      vertex -1.74144 2.74407 10.5
      vertex -2.07163 2.50417 10.5
    endloop
  endfacet
  facet normal 0.58779 -0.809014 0
    outer loop
      vertex -1.74144 2.74407 10.5
      vertex -2.07163 2.50417 -10.5
      vertex -1.74144 2.74407 -10.5
    endloop
  endfacet
  facet normal 0.248693 -0.968582 0
    outer loop
      vertex -1.0043 3.09093 -10.5
      vertex -0.608989 3.19243 10.5
      vertex -1.0043 3.09093 10.5
    endloop
  endfacet
  facet normal 0.248693 -0.968582 0
    outer loop
      vertex -0.608989 3.19243 10.5
      vertex -1.0043 3.09093 -10.5
      vertex -0.608989 3.19243 -10.5
    endloop
  endfacet
  facet normal -0.951057 0.309017 0
    outer loop
      vertex 3.02177 -1.1964 -10.5
      vertex 3.14789 -0.808242 10.5
      vertex 3.14789 -0.808242 -10.5
    endloop
  endfacet
  facet normal -0.951057 0.309017 0
    outer loop
      vertex 3.14789 -0.808242 10.5
      vertex 3.02177 -1.1964 -10.5
      vertex 3.02177 -1.1964 10.5
    endloop
  endfacet
  facet normal -0.982286 0.187387 0
    outer loop
      vertex 3.14789 -0.808242 -10.5
      vertex 3.22437 -0.407332 10.5
      vertex 3.22437 -0.407332 -10.5
    endloop
  endfacet
  facet normal -0.982286 0.187387 0
    outer loop
      vertex 3.22437 -0.407332 10.5
      vertex 3.14789 -0.808242 -10.5
      vertex 3.14789 -0.808242 10.5
    endloop
  endfacet
  facet normal 0.904836 0.42576 0
    outer loop
      vertex -2.848 -1.5657 10.5
      vertex -3.02177 -1.1964 -10.5
      vertex -3.02177 -1.1964 10.5
    endloop
  endfacet
  facet normal 0.904836 0.42576 0
    outer loop
      vertex -3.02177 -1.1964 -10.5
      vertex -2.848 -1.5657 10.5
      vertex -2.848 -1.5657 -10.5
    endloop
  endfacet
  facet normal -0.58779 0.809014 0
    outer loop
      vertex 2.07163 -2.50417 -10.5
      vertex 1.74144 -2.74407 10.5
      vertex 2.07163 -2.50417 10.5
    endloop
  endfacet
  facet normal -0.58779 0.809014 0
    outer loop
      vertex 1.74144 -2.74407 10.5
      vertex 2.07163 -2.50417 -10.5
      vertex 1.74144 -2.74407 -10.5
    endloop
  endfacet
  facet normal -0.844317 0.535845 0
    outer loop
      vertex 2.6293 -1.9103 -10.5
      vertex 2.848 -1.5657 10.5
      vertex 2.848 -1.5657 -10.5
    endloop
  endfacet
  facet normal -0.844317 0.535845 0
    outer loop
      vertex 2.848 -1.5657 10.5
      vertex 2.6293 -1.9103 -10.5
      vertex 2.6293 -1.9103 10.5
    endloop
  endfacet
  facet normal -0.998026 0.0627975 0
    outer loop
      vertex 3.22437 -0.407332 -10.5
      vertex 3.25 0 10.5
      vertex 3.25 0 -10.5
    endloop
  endfacet
  facet normal -0.998026 0.0627975 0
    outer loop
      vertex 3.25 0 10.5
      vertex 3.22437 -0.407332 -10.5
      vertex 3.22437 -0.407332 10.5
    endloop
  endfacet
  facet normal 0.951057 0.309017 0
    outer loop
      vertex -3.02177 -1.1964 10.5
      vertex -3.14789 -0.808242 -10.5
      vertex -3.14789 -0.808242 10.5
    endloop
  endfacet
  facet normal 0.951057 0.309017 0
    outer loop
      vertex -3.14789 -0.808242 -10.5
      vertex -3.02177 -1.1964 10.5
      vertex -3.02177 -1.1964 -10.5
    endloop
  endfacet
  facet normal 0.998026 0.0627975 0
    outer loop
      vertex -3.22437 -0.407332 10.5
      vertex -3.25 0 -10.5
      vertex -3.25 0 10.5
    endloop
  endfacet
  facet normal 0.998026 0.0627975 0
    outer loop
      vertex -3.25 0 -10.5
      vertex -3.22437 -0.407332 10.5
      vertex -3.22437 -0.407332 -10.5
    endloop
  endfacet
  facet normal -0.684547 0.728968 0
    outer loop
      vertex 2.36915 -2.22478 -10.5
      vertex 2.07163 -2.50417 10.5
      vertex 2.36915 -2.22478 10.5
    endloop
  endfacet
  facet normal -0.684547 0.728968 0
    outer loop
      vertex 2.07163 -2.50417 10.5
      vertex 2.36915 -2.22478 -10.5
      vertex 2.07163 -2.50417 -10.5
    endloop
  endfacet
  facet normal -0.248693 0.968582 0
    outer loop
      vertex 1.0043 -3.09093 -10.5
      vertex 0.608989 -3.19243 10.5
      vertex 1.0043 -3.09093 10.5
    endloop
  endfacet
  facet normal -0.248693 0.968582 0
    outer loop
      vertex 0.608989 -3.19243 10.5
      vertex 1.0043 -3.09093 -10.5
      vertex 0.608989 -3.19243 -10.5
    endloop
  endfacet
  facet normal -0.904836 0.42576 0
    outer loop
      vertex 2.848 -1.5657 -10.5
      vertex 3.02177 -1.1964 10.5
      vertex 3.02177 -1.1964 -10.5
    endloop
  endfacet
  facet normal -0.904836 0.42576 0
    outer loop
      vertex 3.02177 -1.1964 10.5
      vertex 2.848 -1.5657 -10.5
      vertex 2.848 -1.5657 10.5
    endloop
  endfacet
  facet normal 0.125349 0.992113 -0
    outer loop
      vertex -0.204069 -3.24359 -10.5
      vertex -0.608989 -3.19243 10.5
      vertex -0.204069 -3.24359 10.5
    endloop
  endfacet
  facet normal 0.125349 0.992113 0
    outer loop
      vertex -0.608989 -3.19243 10.5
      vertex -0.204069 -3.24359 -10.5
      vertex -0.608989 -3.19243 -10.5
    endloop
  endfacet
  facet normal 0.248693 0.968582 -0
    outer loop
      vertex -0.608989 -3.19243 -10.5
      vertex -1.0043 -3.09093 10.5
      vertex -0.608989 -3.19243 10.5
    endloop
  endfacet
  facet normal 0.248693 0.968582 0
    outer loop
      vertex -1.0043 -3.09093 10.5
      vertex -0.608989 -3.19243 -10.5
      vertex -1.0043 -3.09093 -10.5
    endloop
  endfacet
  facet normal 0.770526 0.637409 0
    outer loop
      vertex -2.36915 -2.22478 10.5
      vertex -2.6293 -1.9103 -10.5
      vertex -2.6293 -1.9103 10.5
    endloop
  endfacet
  facet normal 0.770526 0.637409 0
    outer loop
      vertex -2.6293 -1.9103 -10.5
      vertex -2.36915 -2.22478 10.5
      vertex -2.36915 -2.22478 -10.5
    endloop
  endfacet
  facet normal 0.684547 0.728968 -0
    outer loop
      vertex -2.07163 -2.50417 -10.5
      vertex -2.36915 -2.22478 10.5
      vertex -2.07163 -2.50417 10.5
    endloop
  endfacet
  facet normal 0.684547 0.728968 0
    outer loop
      vertex -2.36915 -2.22478 10.5
      vertex -2.07163 -2.50417 -10.5
      vertex -2.36915 -2.22478 -10.5
    endloop
  endfacet
  facet normal 0.982286 0.187387 0
    outer loop
      vertex -3.14789 -0.808242 10.5
      vertex -3.22437 -0.407332 -10.5
      vertex -3.22437 -0.407332 10.5
    endloop
  endfacet
  facet normal 0.982286 0.187387 0
    outer loop
      vertex -3.22437 -0.407332 -10.5
      vertex -3.14789 -0.808242 10.5
      vertex -3.14789 -0.808242 -10.5
    endloop
  endfacet
  facet normal 0.58779 0.809014 -0
    outer loop
      vertex -1.74144 -2.74407 -10.5
      vertex -2.07163 -2.50417 10.5
      vertex -1.74144 -2.74407 10.5
    endloop
  endfacet
  facet normal 0.58779 0.809014 0
    outer loop
      vertex -2.07163 -2.50417 10.5
      vertex -1.74144 -2.74407 -10.5
      vertex -2.07163 -2.50417 -10.5
    endloop
  endfacet
  facet normal 0.844317 0.535845 0
    outer loop
      vertex -2.6293 -1.9103 10.5
      vertex -2.848 -1.5657 -10.5
      vertex -2.848 -1.5657 10.5
    endloop
  endfacet
  facet normal 0.844317 0.535845 0
    outer loop
      vertex -2.848 -1.5657 -10.5
      vertex -2.6293 -1.9103 10.5
      vertex -2.6293 -1.9103 -10.5
    endloop
  endfacet
  facet normal -0.36811 0.929782 0
    outer loop
      vertex 1.38378 -2.94069 -10.5
      vertex 1.0043 -3.09093 10.5
      vertex 1.38378 -2.94069 10.5
    endloop
  endfacet
  facet normal -0.36811 0.929782 0
    outer loop
      vertex 1.0043 -3.09093 10.5
      vertex 1.38378 -2.94069 -10.5
      vertex 1.0043 -3.09093 -10.5
    endloop
  endfacet
  facet normal 0.36811 0.929782 -0
    outer loop
      vertex -1.0043 -3.09093 -10.5
      vertex -1.38378 -2.94069 10.5
      vertex -1.0043 -3.09093 10.5
    endloop
  endfacet
  facet normal 0.36811 0.929782 0
    outer loop
      vertex -1.38378 -2.94069 10.5
      vertex -1.0043 -3.09093 -10.5
      vertex -1.38378 -2.94069 -10.5
    endloop
  endfacet
  facet normal 0.481744 0.876312 -0
    outer loop
      vertex -1.38378 -2.94069 -10.5
      vertex -1.74144 -2.74407 10.5
      vertex -1.38378 -2.94069 10.5
    endloop
  endfacet
  facet normal 0.481744 0.876312 0
    outer loop
      vertex -1.74144 -2.74407 10.5
      vertex -1.38378 -2.94069 -10.5
      vertex -1.74144 -2.74407 -10.5
    endloop
  endfacet
endsolid OpenSCAD_Model
