solid OpenSCAD_Model
  facet normal 0.998027 0.0627939 0
    outer loop
      vertex 7 0 24
      vertex 6.9448 0.877332 -24
      vertex 6.9448 0.877332 24
    endloop
  endfacet
  facet normal 0.998027 0.0627939 0
    outer loop
      vertex 6.9448 0.877332 -24
      vertex 7 0 24
      vertex 7 0 -24
    endloop
  endfacet
  facet normal -0.998027 0.0627939 0
    outer loop
      vertex -7 0 -24
      vertex -6.9448 0.877332 24
      vertex -6.9448 0.877332 -24
    endloop
  endfacet
  facet normal -0.998027 0.0627939 0
    outer loop
      vertex -6.9448 0.877332 24
      vertex -7 0 -24
      vertex -7 0 24
    endloop
  endfacet
  facet normal 0 1 -0
    outer loop
      vertex 0.439533 6.98619 -24
      vertex -0.439533 6.98619 24
      vertex 0.439533 6.98619 24
    endloop
  endfacet
  facet normal 0 1 0
    outer loop
      vertex -0.439533 6.98619 24
      vertex 0.439533 6.98619 -24
      vertex -0.439533 6.98619 -24
    endloop
  endfacet
  facet normal 0 -1 0
    outer loop
      vertex -0.439533 -6.98619 -24
      vertex 0.439533 -6.98619 24
      vertex -0.439533 -6.98619 24
    endloop
  endfacet
  facet normal 0 -1 -0
    outer loop
      vertex 0.439533 -6.98619 24
      vertex -0.439533 -6.98619 -24
      vertex 0.439533 -6.98619 -24
    endloop
  endfacet
  facet normal 0.684547 0.728969 -0
    outer loop
      vertex 5.10278 4.79183 -24
      vertex 4.46197 5.39359 24
      vertex 5.10278 4.79183 24
    endloop
  endfacet
  facet normal 0.684547 0.728969 0
    outer loop
      vertex 4.46197 5.39359 24
      vertex 5.10278 4.79183 -24
      vertex 4.46197 5.39359 -24
    endloop
  endfacet
  facet normal -0.684547 0.728969 0
    outer loop
      vertex -4.46197 5.39359 -24
      vertex -5.10278 4.79183 24
      vertex -4.46197 5.39359 24
    endloop
  endfacet
  facet normal -0.684547 0.728969 0
    outer loop
      vertex -5.10278 4.79183 24
      vertex -4.46197 5.39359 -24
      vertex -5.10278 4.79183 -24
    endloop
  endfacet
  facet normal -0.368131 0.929774 0
    outer loop
      vertex -2.16312 6.6574 -24
      vertex -2.98045 6.33379 24
      vertex -2.16312 6.6574 24
    endloop
  endfacet
  facet normal -0.368131 0.929774 0
    outer loop
      vertex -2.98045 6.33379 24
      vertex -2.16312 6.6574 -24
      vertex -2.98045 6.33379 -24
    endloop
  endfacet
  facet normal 0.904828 0.425778 0
    outer loop
      vertex 6.50844 2.57687 24
      vertex 6.13415 3.37228 -24
      vertex 6.13415 3.37228 24
    endloop
  endfacet
  facet normal 0.904828 0.425778 0
    outer loop
      vertex 6.13415 3.37228 -24
      vertex 6.50844 2.57687 24
      vertex 6.50844 2.57687 -24
    endloop
  endfacet
  facet normal 0.982287 0.18738 0
    outer loop
      vertex 6.9448 0.877332 24
      vertex 6.78008 1.74083 -24
      vertex 6.78008 1.74083 24
    endloop
  endfacet
  facet normal 0.982287 0.18738 0
    outer loop
      vertex 6.78008 1.74083 -24
      vertex 6.9448 0.877332 24
      vertex 6.9448 0.877332 -24
    endloop
  endfacet
  facet normal 0.368131 0.929774 -0
    outer loop
      vertex 2.98045 6.33379 -24
      vertex 2.16312 6.6574 24
      vertex 2.98045 6.33379 24
    endloop
  endfacet
  facet normal 0.368131 0.929774 0
    outer loop
      vertex 2.16312 6.6574 24
      vertex 2.98045 6.33379 -24
      vertex 2.16312 6.6574 -24
    endloop
  endfacet
  facet normal 0.481755 0.876306 -0
    outer loop
      vertex 3.75079 5.91029 -24
      vertex 2.98045 6.33379 24
      vertex 3.75079 5.91029 24
    endloop
  endfacet
  facet normal 0.481755 0.876306 0
    outer loop
      vertex 2.98045 6.33379 24
      vertex 3.75079 5.91029 -24
      vertex 2.98045 6.33379 -24
    endloop
  endfacet
  facet normal -0.904828 0.425778 0
    outer loop
      vertex -6.50844 2.57687 -24
      vertex -6.13415 3.37228 24
      vertex -6.13415 3.37228 -24
    endloop
  endfacet
  facet normal -0.904828 0.425778 0
    outer loop
      vertex -6.13415 3.37228 24
      vertex -6.50844 2.57687 -24
      vertex -6.50844 2.57687 24
    endloop
  endfacet
  facet normal -0.951058 0.309011 0
    outer loop
      vertex -6.78008 1.74083 -24
      vertex -6.50844 2.57687 24
      vertex -6.50844 2.57687 -24
    endloop
  endfacet
  facet normal -0.951058 0.309011 0
    outer loop
      vertex -6.50844 2.57687 24
      vertex -6.78008 1.74083 -24
      vertex -6.78008 1.74083 24
    endloop
  endfacet
  facet normal -0.248684 0.968585 0
    outer loop
      vertex -1.31167 6.87601 -24
      vertex -2.16312 6.6574 24
      vertex -1.31167 6.87601 24
    endloop
  endfacet
  facet normal -0.248684 0.968585 0
    outer loop
      vertex -2.16312 6.6574 24
      vertex -1.31167 6.87601 -24
      vertex -2.16312 6.6574 -24
    endloop
  endfacet
  facet normal 0.951058 0.309011 0
    outer loop
      vertex 6.78008 1.74083 24
      vertex 6.50844 2.57687 -24
      vertex 6.50844 2.57687 24
    endloop
  endfacet
  facet normal 0.951058 0.309011 0
    outer loop
      vertex 6.50844 2.57687 -24
      vertex 6.78008 1.74083 24
      vertex 6.78008 1.74083 -24
    endloop
  endfacet
  facet normal 0.770511 0.637427 0
    outer loop
      vertex 5.66312 4.1145 24
      vertex 5.10278 4.79183 -24
      vertex 5.10278 4.79183 24
    endloop
  endfacet
  facet normal 0.770511 0.637427 0
    outer loop
      vertex 5.10278 4.79183 -24
      vertex 5.66312 4.1145 24
      vertex 5.66312 4.1145 -24
    endloop
  endfacet
  facet normal 0.844326 0.535829 0
    outer loop
      vertex 6.13415 3.37228 24
      vertex 5.66312 4.1145 -24
      vertex 5.66312 4.1145 24
    endloop
  endfacet
  facet normal 0.844326 0.535829 0
    outer loop
      vertex 5.66312 4.1145 -24
      vertex 6.13415 3.37228 24
      vertex 6.13415 3.37228 -24
    endloop
  endfacet
  facet normal 0.248684 0.968585 -0
    outer loop
      vertex 2.16312 6.6574 -24
      vertex 1.31167 6.87601 24
      vertex 2.16312 6.6574 24
    endloop
  endfacet
  facet normal 0.248684 0.968585 0
    outer loop
      vertex 1.31167 6.87601 24
      vertex 2.16312 6.6574 -24
      vertex 1.31167 6.87601 -24
    endloop
  endfacet
  facet normal 0.125337 0.992114 -0
    outer loop
      vertex 1.31167 6.87601 -24
      vertex 0.439533 6.98619 24
      vertex 1.31167 6.87601 24
    endloop
  endfacet
  facet normal 0.125337 0.992114 0
    outer loop
      vertex 0.439533 6.98619 24
      vertex 1.31167 6.87601 -24
      vertex 0.439533 6.98619 -24
    endloop
  endfacet
  facet normal 0.587783 0.809018 -0
    outer loop
      vertex 4.46197 5.39359 -24
      vertex 3.75079 5.91029 24
      vertex 4.46197 5.39359 24
    endloop
  endfacet
  facet normal 0.587783 0.809018 0
    outer loop
      vertex 3.75079 5.91029 24
      vertex 4.46197 5.39359 -24
      vertex 3.75079 5.91029 -24
    endloop
  endfacet
  facet normal -0.844326 0.535829 0
    outer loop
      vertex -6.13415 3.37228 -24
      vertex -5.66312 4.1145 24
      vertex -5.66312 4.1145 -24
    endloop
  endfacet
  facet normal -0.844326 0.535829 0
    outer loop
      vertex -5.66312 4.1145 24
      vertex -6.13415 3.37228 -24
      vertex -6.13415 3.37228 24
    endloop
  endfacet
  facet normal -0.770511 0.637427 0
    outer loop
      vertex -5.66312 4.1145 -24
      vertex -5.10278 4.79183 24
      vertex -5.10278 4.79183 -24
    endloop
  endfacet
  facet normal -0.770511 0.637427 0
    outer loop
      vertex -5.10278 4.79183 24
      vertex -5.66312 4.1145 -24
      vertex -5.66312 4.1145 24
    endloop
  endfacet
  facet normal -0.982287 0.18738 0
    outer loop
      vertex -6.9448 0.877332 -24
      vertex -6.78008 1.74083 24
      vertex -6.78008 1.74083 -24
    endloop
  endfacet
  facet normal -0.982287 0.18738 0
    outer loop
      vertex -6.78008 1.74083 24
      vertex -6.9448 0.877332 -24
      vertex -6.9448 0.877332 24
    endloop
  endfacet
  facet normal 0 0 1
    outer loop
      vertex 2.5 0 24
      vertex 7 0 24
      vertex 6.9448 0.877332 24
    endloop
  endfacet
  facet normal 0 0 1
    outer loop
      vertex 2.48029 0.313333 24
      vertex 6.9448 0.877332 24
      vertex 6.78008 1.74083 24
    endloop
  endfacet
  facet normal 0 0 1
    outer loop
      vertex 7 0 24
      vertex 2.5 0 24
      vertex 6.9448 -0.877332 24
    endloop
  endfacet
  facet normal 0 0 1
    outer loop
      vertex 2.42146 0.621724 24
      vertex 6.78008 1.74083 24
      vertex 6.50844 2.57687 24
    endloop
  endfacet
  facet normal -0 0 1
    outer loop
      vertex 2.48029 -0.313333 24
      vertex 6.9448 -0.877332 24
      vertex 2.5 0 24
    endloop
  endfacet
  facet normal 0 0 1
    outer loop
      vertex 2.32444 0.920311 24
      vertex 6.50844 2.57687 24
      vertex 6.13415 3.37228 24
    endloop
  endfacet
  facet normal 0 0 1
    outer loop
      vertex 6.9448 -0.877332 24
      vertex 2.48029 -0.313333 24
      vertex 6.78008 -1.74083 24
    endloop
  endfacet
  facet normal 0 0 1
    outer loop
      vertex 2.19077 1.20438 24
      vertex 6.13415 3.37228 24
      vertex 5.66312 4.1145 24
    endloop
  endfacet
  facet normal -0 0 1
    outer loop
      vertex 2.42146 -0.621724 24
      vertex 6.78008 -1.74083 24
      vertex 2.48029 -0.313333 24
    endloop
  endfacet
  facet normal 0 0 1
    outer loop
      vertex 2.02254 1.46946 24
      vertex 5.66312 4.1145 24
      vertex 5.10278 4.79183 24
    endloop
  endfacet
  facet normal 0 0 1
    outer loop
      vertex 6.78008 -1.74083 24
      vertex 2.42146 -0.621724 24
      vertex 6.50844 -2.57687 24
    endloop
  endfacet
  facet normal 0 0 1
    outer loop
      vertex 1.82242 1.71137 24
      vertex 5.10278 4.79183 24
      vertex 4.46197 5.39359 24
    endloop
  endfacet
  facet normal -0 0 1
    outer loop
      vertex 2.32444 -0.920311 24
      vertex 6.50844 -2.57687 24
      vertex 2.42146 -0.621724 24
    endloop
  endfacet
  facet normal 0 0 1
    outer loop
      vertex 1.59356 1.92628 24
      vertex 4.46197 5.39359 24
      vertex 3.75079 5.91029 24
    endloop
  endfacet
  facet normal 0 0 1
    outer loop
      vertex 6.50844 -2.57687 24
      vertex 2.32444 -0.920311 24
      vertex 6.13415 -3.37228 24
    endloop
  endfacet
  facet normal 0 0 1
    outer loop
      vertex 1.33957 2.11082 24
      vertex 3.75079 5.91029 24
      vertex 2.98045 6.33379 24
    endloop
  endfacet
  facet normal -0 0 1
    outer loop
      vertex 2.19077 -1.20438 24
      vertex 6.13415 -3.37228 24
      vertex 2.32444 -0.920311 24
    endloop
  endfacet
  facet normal 0 0 1
    outer loop
      vertex 6.13415 -3.37228 24
      vertex 2.19077 -1.20438 24
      vertex 5.66312 -4.1145 24
    endloop
  endfacet
  facet normal 0 0 1
    outer loop
      vertex 6.9448 0.877332 24
      vertex 2.48029 0.313333 24
      vertex 2.5 0 24
    endloop
  endfacet
  facet normal 0 0 1
    outer loop
      vertex 6.78008 1.74083 24
      vertex 2.42146 0.621724 24
      vertex 2.48029 0.313333 24
    endloop
  endfacet
  facet normal 0 0 1
    outer loop
      vertex 6.50844 2.57687 24
      vertex 2.32444 0.920311 24
      vertex 2.42146 0.621724 24
    endloop
  endfacet
  facet normal 0 0 1
    outer loop
      vertex 6.13415 3.37228 24
      vertex 2.19077 1.20438 24
      vertex 2.32444 0.920311 24
    endloop
  endfacet
  facet normal 0 0 1
    outer loop
      vertex 1.06445 2.26207 24
      vertex 2.98045 6.33379 24
      vertex 2.16312 6.6574 24
    endloop
  endfacet
  facet normal 0 0 1
    outer loop
      vertex 5.66312 4.1145 24
      vertex 2.02254 1.46946 24
      vertex 2.19077 1.20438 24
    endloop
  endfacet
  facet normal 0 0 1
    outer loop
      vertex 5.10278 4.79183 24
      vertex 1.82242 1.71137 24
      vertex 2.02254 1.46946 24
    endloop
  endfacet
  facet normal 0 0 1
    outer loop
      vertex 4.46197 5.39359 24
      vertex 1.59356 1.92628 24
      vertex 1.82242 1.71137 24
    endloop
  endfacet
  facet normal 0 0 1
    outer loop
      vertex 3.75079 5.91029 24
      vertex 1.33957 2.11082 24
      vertex 1.59356 1.92628 24
    endloop
  endfacet
  facet normal 0 0 1
    outer loop
      vertex 0.772542 2.37764 24
      vertex 2.16312 6.6574 24
      vertex 1.31167 6.87601 24
    endloop
  endfacet
  facet normal 0 0 1
    outer loop
      vertex 2.98045 6.33379 24
      vertex 1.06445 2.26207 24
      vertex 1.33957 2.11082 24
    endloop
  endfacet
  facet normal 0 0 1
    outer loop
      vertex 2.16312 6.6574 24
      vertex 0.772542 2.37764 24
      vertex 1.06445 2.26207 24
    endloop
  endfacet
  facet normal 0 0 1
    outer loop
      vertex 1.31167 6.87601 24
      vertex 0.468452 2.45572 24
      vertex 0.772542 2.37764 24
    endloop
  endfacet
  facet normal 0 0 1
    outer loop
      vertex 0.439533 6.98619 24
      vertex 0.468452 2.45572 24
      vertex 1.31167 6.87601 24
    endloop
  endfacet
  facet normal 0 0 1
    outer loop
      vertex 0.439533 6.98619 24
      vertex 0.156976 2.49507 24
      vertex 0.468452 2.45572 24
    endloop
  endfacet
  facet normal 0 0 1
    outer loop
      vertex 0.439533 6.98619 24
      vertex -0.156976 2.49507 24
      vertex 0.156976 2.49507 24
    endloop
  endfacet
  facet normal -0 0 1
    outer loop
      vertex -0.439533 6.98619 24
      vertex -0.156976 2.49507 24
      vertex 0.439533 6.98619 24
    endloop
  endfacet
  facet normal 0 0 1
    outer loop
      vertex -0.439533 6.98619 24
      vertex -0.468452 2.45572 24
      vertex -0.156976 2.49507 24
    endloop
  endfacet
  facet normal -0 0 1
    outer loop
      vertex -1.31167 6.87601 24
      vertex -0.468452 2.45572 24
      vertex -0.439533 6.98619 24
    endloop
  endfacet
  facet normal 0 0 1
    outer loop
      vertex -0.468452 2.45572 24
      vertex -1.31167 6.87601 24
      vertex -0.772542 2.37764 24
    endloop
  endfacet
  facet normal -0 0 1
    outer loop
      vertex -2.16312 6.6574 24
      vertex -0.772542 2.37764 24
      vertex -1.31167 6.87601 24
    endloop
  endfacet
  facet normal 0 0 1
    outer loop
      vertex -0.772542 2.37764 24
      vertex -2.16312 6.6574 24
      vertex -1.06445 2.26207 24
    endloop
  endfacet
  facet normal -0 0 1
    outer loop
      vertex -2.98045 6.33379 24
      vertex -1.06445 2.26207 24
      vertex -2.16312 6.6574 24
    endloop
  endfacet
  facet normal 0 0 1
    outer loop
      vertex -1.06445 2.26207 24
      vertex -2.98045 6.33379 24
      vertex -1.33957 2.11082 24
    endloop
  endfacet
  facet normal -0 0 1
    outer loop
      vertex -3.75079 5.91029 24
      vertex -1.33957 2.11082 24
      vertex -2.98045 6.33379 24
    endloop
  endfacet
  facet normal 0 0 1
    outer loop
      vertex -1.33957 2.11082 24
      vertex -3.75079 5.91029 24
      vertex -1.59356 1.92628 24
    endloop
  endfacet
  facet normal -0 0 1
    outer loop
      vertex -4.46197 5.39359 24
      vertex -1.59356 1.92628 24
      vertex -3.75079 5.91029 24
    endloop
  endfacet
  facet normal 0 0 1
    outer loop
      vertex -1.59356 1.92628 24
      vertex -4.46197 5.39359 24
      vertex -1.82242 1.71137 24
    endloop
  endfacet
  facet normal -0 0 1
    outer loop
      vertex -5.10278 4.79183 24
      vertex -1.82242 1.71137 24
      vertex -4.46197 5.39359 24
    endloop
  endfacet
  facet normal 0 0 1
    outer loop
      vertex -1.82242 1.71137 24
      vertex -5.10278 4.79183 24
      vertex -2.02254 1.46946 24
    endloop
  endfacet
  facet normal -0 0 1
    outer loop
      vertex -5.66312 4.1145 24
      vertex -2.02254 1.46946 24
      vertex -5.10278 4.79183 24
    endloop
  endfacet
  facet normal 0 0 1
    outer loop
      vertex -2.02254 1.46946 24
      vertex -5.66312 4.1145 24
      vertex -2.19077 1.20438 24
    endloop
  endfacet
  facet normal -0 0 1
    outer loop
      vertex 2.02254 -1.46946 24
      vertex 5.66312 -4.1145 24
      vertex 2.19077 -1.20438 24
    endloop
  endfacet
  facet normal 0 0 1
    outer loop
      vertex 5.66312 -4.1145 24
      vertex 2.02254 -1.46946 24
      vertex 5.10278 -4.79183 24
    endloop
  endfacet
  facet normal -0 0 1
    outer loop
      vertex 1.82242 -1.71137 24
      vertex 5.10278 -4.79183 24
      vertex 2.02254 -1.46946 24
    endloop
  endfacet
  facet normal 0 0 1
    outer loop
      vertex 5.10278 -4.79183 24
      vertex 1.82242 -1.71137 24
      vertex 4.46197 -5.39359 24
    endloop
  endfacet
  facet normal -0 0 1
    outer loop
      vertex 1.59356 -1.92628 24
      vertex 4.46197 -5.39359 24
      vertex 1.82242 -1.71137 24
    endloop
  endfacet
  facet normal 0 0 1
    outer loop
      vertex 4.46197 -5.39359 24
      vertex 1.59356 -1.92628 24
      vertex 3.75079 -5.91029 24
    endloop
  endfacet
  facet normal -0 0 1
    outer loop
      vertex 1.33957 -2.11082 24
      vertex 3.75079 -5.91029 24
      vertex 1.59356 -1.92628 24
    endloop
  endfacet
  facet normal 0 0 1
    outer loop
      vertex 3.75079 -5.91029 24
      vertex 1.33957 -2.11082 24
      vertex 2.98045 -6.33379 24
    endloop
  endfacet
  facet normal -0 0 1
    outer loop
      vertex 1.06445 -2.26207 24
      vertex 2.98045 -6.33379 24
      vertex 1.33957 -2.11082 24
    endloop
  endfacet
  facet normal 0 0 1
    outer loop
      vertex 2.98045 -6.33379 24
      vertex 1.06445 -2.26207 24
      vertex 2.16312 -6.6574 24
    endloop
  endfacet
  facet normal -0 0 1
    outer loop
      vertex 0.772542 -2.37764 24
      vertex 2.16312 -6.6574 24
      vertex 1.06445 -2.26207 24
    endloop
  endfacet
  facet normal 0 0 1
    outer loop
      vertex 2.16312 -6.6574 24
      vertex 0.772542 -2.37764 24
      vertex 1.31167 -6.87601 24
    endloop
  endfacet
  facet normal -0 0 1
    outer loop
      vertex 0.468452 -2.45572 24
      vertex 1.31167 -6.87601 24
      vertex 0.772542 -2.37764 24
    endloop
  endfacet
  facet normal 0 0 1
    outer loop
      vertex 0.468452 -2.45572 24
      vertex 0.439533 -6.98619 24
      vertex 1.31167 -6.87601 24
    endloop
  endfacet
  facet normal -0 0 1
    outer loop
      vertex 0.156976 -2.49507 24
      vertex 0.439533 -6.98619 24
      vertex 0.468452 -2.45572 24
    endloop
  endfacet
  facet normal -0 0 1
    outer loop
      vertex -0.156976 -2.49507 24
      vertex 0.439533 -6.98619 24
      vertex 0.156976 -2.49507 24
    endloop
  endfacet
  facet normal 0 0 1
    outer loop
      vertex -0.156976 -2.49507 24
      vertex -0.439533 -6.98619 24
      vertex 0.439533 -6.98619 24
    endloop
  endfacet
  facet normal 0 0 1
    outer loop
      vertex -0.468452 -2.45572 24
      vertex -0.439533 -6.98619 24
      vertex -0.156976 -2.49507 24
    endloop
  endfacet
  facet normal 0 0 1
    outer loop
      vertex -1.31167 -6.87601 24
      vertex -0.468452 -2.45572 24
      vertex -0.772542 -2.37764 24
    endloop
  endfacet
  facet normal 0 0 1
    outer loop
      vertex -2.16312 -6.6574 24
      vertex -0.772542 -2.37764 24
      vertex -1.06445 -2.26207 24
    endloop
  endfacet
  facet normal 0 0 1
    outer loop
      vertex -0.468452 -2.45572 24
      vertex -1.31167 -6.87601 24
      vertex -0.439533 -6.98619 24
    endloop
  endfacet
  facet normal 0 0 1
    outer loop
      vertex -2.98045 -6.33379 24
      vertex -1.06445 -2.26207 24
      vertex -1.33957 -2.11082 24
    endloop
  endfacet
  facet normal 0 0 1
    outer loop
      vertex -3.75079 -5.91029 24
      vertex -1.33957 -2.11082 24
      vertex -1.59356 -1.92628 24
    endloop
  endfacet
  facet normal 0 0 1
    outer loop
      vertex -4.46197 -5.39359 24
      vertex -1.59356 -1.92628 24
      vertex -1.82242 -1.71137 24
    endloop
  endfacet
  facet normal 0 0 1
    outer loop
      vertex -5.10278 -4.79183 24
      vertex -1.82242 -1.71137 24
      vertex -2.02254 -1.46946 24
    endloop
  endfacet
  facet normal 0 0 1
    outer loop
      vertex -0.772542 -2.37764 24
      vertex -2.16312 -6.6574 24
      vertex -1.31167 -6.87601 24
    endloop
  endfacet
  facet normal 0 0 1
    outer loop
      vertex -5.66312 -4.1145 24
      vertex -2.02254 -1.46946 24
      vertex -2.19077 -1.20438 24
    endloop
  endfacet
  facet normal 0 0 1
    outer loop
      vertex -6.13415 -3.37228 24
      vertex -2.19077 -1.20438 24
      vertex -2.32444 -0.920311 24
    endloop
  endfacet
  facet normal 0 0 1
    outer loop
      vertex -6.50844 -2.57687 24
      vertex -2.32444 -0.920311 24
      vertex -2.42146 -0.621724 24
    endloop
  endfacet
  facet normal 0 0 1
    outer loop
      vertex -6.78008 -1.74083 24
      vertex -2.42146 -0.621724 24
      vertex -2.48029 -0.313333 24
    endloop
  endfacet
  facet normal 0 0 1
    outer loop
      vertex -6.9448 -0.877332 24
      vertex -2.48029 -0.313333 24
      vertex -2.5 0 24
    endloop
  endfacet
  facet normal -0 0 1
    outer loop
      vertex -6.13415 3.37228 24
      vertex -2.19077 1.20438 24
      vertex -5.66312 4.1145 24
    endloop
  endfacet
  facet normal 0 0 1
    outer loop
      vertex -1.06445 -2.26207 24
      vertex -2.98045 -6.33379 24
      vertex -2.16312 -6.6574 24
    endloop
  endfacet
  facet normal 0 0 1
    outer loop
      vertex -2.19077 1.20438 24
      vertex -6.13415 3.37228 24
      vertex -2.32444 0.920311 24
    endloop
  endfacet
  facet normal 0 0 1
    outer loop
      vertex -1.33957 -2.11082 24
      vertex -3.75079 -5.91029 24
      vertex -2.98045 -6.33379 24
    endloop
  endfacet
  facet normal -0 0 1
    outer loop
      vertex -6.50844 2.57687 24
      vertex -2.32444 0.920311 24
      vertex -6.13415 3.37228 24
    endloop
  endfacet
  facet normal 0 0 1
    outer loop
      vertex -1.59356 -1.92628 24
      vertex -4.46197 -5.39359 24
      vertex -3.75079 -5.91029 24
    endloop
  endfacet
  facet normal 0 0 1
    outer loop
      vertex -2.32444 0.920311 24
      vertex -6.50844 2.57687 24
      vertex -2.42146 0.621724 24
    endloop
  endfacet
  facet normal 0 0 1
    outer loop
      vertex -1.82242 -1.71137 24
      vertex -5.10278 -4.79183 24
      vertex -4.46197 -5.39359 24
    endloop
  endfacet
  facet normal -0 0 1
    outer loop
      vertex -6.78008 1.74083 24
      vertex -2.42146 0.621724 24
      vertex -6.50844 2.57687 24
    endloop
  endfacet
  facet normal 0 0 1
    outer loop
      vertex -2.02254 -1.46946 24
      vertex -5.66312 -4.1145 24
      vertex -5.10278 -4.79183 24
    endloop
  endfacet
  facet normal 0 0 1
    outer loop
      vertex -2.42146 0.621724 24
      vertex -6.78008 1.74083 24
      vertex -2.48029 0.313333 24
    endloop
  endfacet
  facet normal 0 0 1
    outer loop
      vertex -2.19077 -1.20438 24
      vertex -6.13415 -3.37228 24
      vertex -5.66312 -4.1145 24
    endloop
  endfacet
  facet normal -0 0 1
    outer loop
      vertex -6.9448 0.877332 24
      vertex -2.48029 0.313333 24
      vertex -6.78008 1.74083 24
    endloop
  endfacet
  facet normal 0 0 1
    outer loop
      vertex -2.32444 -0.920311 24
      vertex -6.50844 -2.57687 24
      vertex -6.13415 -3.37228 24
    endloop
  endfacet
  facet normal 0 0 1
    outer loop
      vertex -2.48029 0.313333 24
      vertex -6.9448 0.877332 24
      vertex -2.5 0 24
    endloop
  endfacet
  facet normal 0 0 1
    outer loop
      vertex -2.42146 -0.621724 24
      vertex -6.78008 -1.74083 24
      vertex -6.50844 -2.57687 24
    endloop
  endfacet
  facet normal 0 0 1
    outer loop
      vertex -7 0 24
      vertex -2.5 0 24
      vertex -6.9448 0.877332 24
    endloop
  endfacet
  facet normal 0 0 1
    outer loop
      vertex -2.48029 -0.313333 24
      vertex -6.9448 -0.877332 24
      vertex -6.78008 -1.74083 24
    endloop
  endfacet
  facet normal 0 0 1
    outer loop
      vertex -2.5 0 24
      vertex -7 0 24
      vertex -6.9448 -0.877332 24
    endloop
  endfacet
  facet normal -0.481755 0.876306 0
    outer loop
      vertex -2.98045 6.33379 -24
      vertex -3.75079 5.91029 24
      vertex -2.98045 6.33379 24
    endloop
  endfacet
  facet normal -0.481755 0.876306 0
    outer loop
      vertex -3.75079 5.91029 24
      vertex -2.98045 6.33379 -24
      vertex -3.75079 5.91029 -24
    endloop
  endfacet
  facet normal -0.587783 0.809018 0
    outer loop
      vertex -3.75079 5.91029 -24
      vertex -4.46197 5.39359 24
      vertex -3.75079 5.91029 24
    endloop
  endfacet
  facet normal -0.587783 0.809018 0
    outer loop
      vertex -4.46197 5.39359 24
      vertex -3.75079 5.91029 -24
      vertex -4.46197 5.39359 -24
    endloop
  endfacet
  facet normal -0.125337 0.992114 0
    outer loop
      vertex -0.439533 6.98619 -24
      vertex -1.31167 6.87601 24
      vertex -0.439533 6.98619 24
    endloop
  endfacet
  facet normal -0.125337 0.992114 0
    outer loop
      vertex -1.31167 6.87601 24
      vertex -0.439533 6.98619 -24
      vertex -1.31167 6.87601 -24
    endloop
  endfacet
  facet normal 0.998027 -0.0627939 0
    outer loop
      vertex 6.9448 -0.877332 24
      vertex 7 0 -24
      vertex 7 0 24
    endloop
  endfacet
  facet normal 0.998027 -0.0627939 0
    outer loop
      vertex 7 0 -24
      vertex 6.9448 -0.877332 24
      vertex 6.9448 -0.877332 -24
    endloop
  endfacet
  facet normal 0.904828 -0.425778 0
    outer loop
      vertex 6.13415 -3.37228 24
      vertex 6.50844 -2.57687 -24
      vertex 6.50844 -2.57687 24
    endloop
  endfacet
  facet normal 0.904828 -0.425778 0
    outer loop
      vertex 6.50844 -2.57687 -24
      vertex 6.13415 -3.37228 24
      vertex 6.13415 -3.37228 -24
    endloop
  endfacet
  facet normal -0.684547 -0.728969 0
    outer loop
      vertex -5.10278 -4.79183 -24
      vertex -4.46197 -5.39359 24
      vertex -5.10278 -4.79183 24
    endloop
  endfacet
  facet normal -0.684547 -0.728969 -0
    outer loop
      vertex -4.46197 -5.39359 24
      vertex -5.10278 -4.79183 -24
      vertex -4.46197 -5.39359 -24
    endloop
  endfacet
  facet normal -0.904828 -0.425778 0
    outer loop
      vertex -6.13415 -3.37228 -24
      vertex -6.50844 -2.57687 24
      vertex -6.50844 -2.57687 -24
    endloop
  endfacet
  facet normal -0.904828 -0.425778 0
    outer loop
      vertex -6.50844 -2.57687 24
      vertex -6.13415 -3.37228 -24
      vertex -6.13415 -3.37228 24
    endloop
  endfacet
  facet normal -0.844326 -0.535829 0
    outer loop
      vertex -5.66312 -4.1145 -24
      vertex -6.13415 -3.37228 24
      vertex -6.13415 -3.37228 -24
    endloop
  endfacet
  facet normal -0.844326 -0.535829 0
    outer loop
      vertex -6.13415 -3.37228 24
      vertex -5.66312 -4.1145 -24
      vertex -5.66312 -4.1145 24
    endloop
  endfacet
  facet normal 0 0 -1
    outer loop
      vertex 2.5 0 -24
      vertex 7 0 -24
      vertex 6.9448 -0.877332 -24
    endloop
  endfacet
  facet normal 0 0 -1
    outer loop
      vertex 2.48029 -0.313333 -24
      vertex 6.9448 -0.877332 -24
      vertex 6.78008 -1.74083 -24
    endloop
  endfacet
  facet normal 0 0 -1
    outer loop
      vertex 7 0 -24
      vertex 2.5 0 -24
      vertex 6.9448 0.877332 -24
    endloop
  endfacet
  facet normal 0 0 -1
    outer loop
      vertex 2.42146 -0.621724 -24
      vertex 6.78008 -1.74083 -24
      vertex 6.50844 -2.57687 -24
    endloop
  endfacet
  facet normal 0 0 -1
    outer loop
      vertex 2.48029 0.313333 -24
      vertex 6.9448 0.877332 -24
      vertex 2.5 0 -24
    endloop
  endfacet
  facet normal 0 0 -1
    outer loop
      vertex 2.32444 -0.920311 -24
      vertex 6.50844 -2.57687 -24
      vertex 6.13415 -3.37228 -24
    endloop
  endfacet
  facet normal -0 0 -1
    outer loop
      vertex 6.9448 0.877332 -24
      vertex 2.48029 0.313333 -24
      vertex 6.78008 1.74083 -24
    endloop
  endfacet
  facet normal 0 0 -1
    outer loop
      vertex 2.19077 -1.20438 -24
      vertex 6.13415 -3.37228 -24
      vertex 5.66312 -4.1145 -24
    endloop
  endfacet
  facet normal 0 0 -1
    outer loop
      vertex 2.42146 0.621724 -24
      vertex 6.78008 1.74083 -24
      vertex 2.48029 0.313333 -24
    endloop
  endfacet
  facet normal 0 0 -1
    outer loop
      vertex 2.02254 -1.46946 -24
      vertex 5.66312 -4.1145 -24
      vertex 5.10278 -4.79183 -24
    endloop
  endfacet
  facet normal -0 0 -1
    outer loop
      vertex 6.78008 1.74083 -24
      vertex 2.42146 0.621724 -24
      vertex 6.50844 2.57687 -24
    endloop
  endfacet
  facet normal 0 0 -1
    outer loop
      vertex 1.82242 -1.71137 -24
      vertex 5.10278 -4.79183 -24
      vertex 4.46197 -5.39359 -24
    endloop
  endfacet
  facet normal 0 0 -1
    outer loop
      vertex 2.32444 0.920311 -24
      vertex 6.50844 2.57687 -24
      vertex 2.42146 0.621724 -24
    endloop
  endfacet
  facet normal 0 0 -1
    outer loop
      vertex 1.59356 -1.92628 -24
      vertex 4.46197 -5.39359 -24
      vertex 3.75079 -5.91029 -24
    endloop
  endfacet
  facet normal -0 0 -1
    outer loop
      vertex 6.50844 2.57687 -24
      vertex 2.32444 0.920311 -24
      vertex 6.13415 3.37228 -24
    endloop
  endfacet
  facet normal 0 0 -1
    outer loop
      vertex 1.33957 -2.11082 -24
      vertex 3.75079 -5.91029 -24
      vertex 2.98045 -6.33379 -24
    endloop
  endfacet
  facet normal 0 0 -1
    outer loop
      vertex 2.19077 1.20438 -24
      vertex 6.13415 3.37228 -24
      vertex 2.32444 0.920311 -24
    endloop
  endfacet
  facet normal -0 0 -1
    outer loop
      vertex 6.13415 3.37228 -24
      vertex 2.19077 1.20438 -24
      vertex 5.66312 4.1145 -24
    endloop
  endfacet
  facet normal 0 0 -1
    outer loop
      vertex 6.9448 -0.877332 -24
      vertex 2.48029 -0.313333 -24
      vertex 2.5 0 -24
    endloop
  endfacet
  facet normal 0 0 -1
    outer loop
      vertex 6.78008 -1.74083 -24
      vertex 2.42146 -0.621724 -24
      vertex 2.48029 -0.313333 -24
    endloop
  endfacet
  facet normal 0 0 -1
    outer loop
      vertex 6.50844 -2.57687 -24
      vertex 2.32444 -0.920311 -24
      vertex 2.42146 -0.621724 -24
    endloop
  endfacet
  facet normal 0 0 -1
    outer loop
      vertex 6.13415 -3.37228 -24
      vertex 2.19077 -1.20438 -24
      vertex 2.32444 -0.920311 -24
    endloop
  endfacet
  facet normal 0 0 -1
    outer loop
      vertex 1.06445 -2.26207 -24
      vertex 2.98045 -6.33379 -24
      vertex 2.16312 -6.6574 -24
    endloop
  endfacet
  facet normal 0 0 -1
    outer loop
      vertex 5.66312 -4.1145 -24
      vertex 2.02254 -1.46946 -24
      vertex 2.19077 -1.20438 -24
    endloop
  endfacet
  facet normal 0 0 -1
    outer loop
      vertex 5.10278 -4.79183 -24
      vertex 1.82242 -1.71137 -24
      vertex 2.02254 -1.46946 -24
    endloop
  endfacet
  facet normal 0 0 -1
    outer loop
      vertex 4.46197 -5.39359 -24
      vertex 1.59356 -1.92628 -24
      vertex 1.82242 -1.71137 -24
    endloop
  endfacet
  facet normal 0 0 -1
    outer loop
      vertex 3.75079 -5.91029 -24
      vertex 1.33957 -2.11082 -24
      vertex 1.59356 -1.92628 -24
    endloop
  endfacet
  facet normal 0 0 -1
    outer loop
      vertex 0.772542 -2.37764 -24
      vertex 2.16312 -6.6574 -24
      vertex 1.31167 -6.87601 -24
    endloop
  endfacet
  facet normal 0 0 -1
    outer loop
      vertex 2.98045 -6.33379 -24
      vertex 1.06445 -2.26207 -24
      vertex 1.33957 -2.11082 -24
    endloop
  endfacet
  facet normal 0 0 -1
    outer loop
      vertex 2.16312 -6.6574 -24
      vertex 0.772542 -2.37764 -24
      vertex 1.06445 -2.26207 -24
    endloop
  endfacet
  facet normal 0 0 -1
    outer loop
      vertex 1.31167 -6.87601 -24
      vertex 0.468452 -2.45572 -24
      vertex 0.772542 -2.37764 -24
    endloop
  endfacet
  facet normal 0 0 -1
    outer loop
      vertex 0.439533 -6.98619 -24
      vertex 0.468452 -2.45572 -24
      vertex 1.31167 -6.87601 -24
    endloop
  endfacet
  facet normal 0 0 -1
    outer loop
      vertex 0.439533 -6.98619 -24
      vertex 0.156976 -2.49507 -24
      vertex 0.468452 -2.45572 -24
    endloop
  endfacet
  facet normal 0 0 -1
    outer loop
      vertex 0.439533 -6.98619 -24
      vertex -0.156976 -2.49507 -24
      vertex 0.156976 -2.49507 -24
    endloop
  endfacet
  facet normal 0 0 -1
    outer loop
      vertex -0.439533 -6.98619 -24
      vertex -0.156976 -2.49507 -24
      vertex 0.439533 -6.98619 -24
    endloop
  endfacet
  facet normal 0 0 -1
    outer loop
      vertex -0.439533 -6.98619 -24
      vertex -0.468452 -2.45572 -24
      vertex -0.156976 -2.49507 -24
    endloop
  endfacet
  facet normal 0 0 -1
    outer loop
      vertex -1.31167 -6.87601 -24
      vertex -0.468452 -2.45572 -24
      vertex -0.439533 -6.98619 -24
    endloop
  endfacet
  facet normal -0 0 -1
    outer loop
      vertex -0.468452 -2.45572 -24
      vertex -1.31167 -6.87601 -24
      vertex -0.772542 -2.37764 -24
    endloop
  endfacet
  facet normal 0 0 -1
    outer loop
      vertex -2.16312 -6.6574 -24
      vertex -0.772542 -2.37764 -24
      vertex -1.31167 -6.87601 -24
    endloop
  endfacet
  facet normal -0 0 -1
    outer loop
      vertex -0.772542 -2.37764 -24
      vertex -2.16312 -6.6574 -24
      vertex -1.06445 -2.26207 -24
    endloop
  endfacet
  facet normal 0 0 -1
    outer loop
      vertex -2.98045 -6.33379 -24
      vertex -1.06445 -2.26207 -24
      vertex -2.16312 -6.6574 -24
    endloop
  endfacet
  facet normal -0 0 -1
    outer loop
      vertex -1.06445 -2.26207 -24
      vertex -2.98045 -6.33379 -24
      vertex -1.33957 -2.11082 -24
    endloop
  endfacet
  facet normal 0 0 -1
    outer loop
      vertex -3.75079 -5.91029 -24
      vertex -1.33957 -2.11082 -24
      vertex -2.98045 -6.33379 -24
    endloop
  endfacet
  facet normal -0 0 -1
    outer loop
      vertex -1.33957 -2.11082 -24
      vertex -3.75079 -5.91029 -24
      vertex -1.59356 -1.92628 -24
    endloop
  endfacet
  facet normal 0 0 -1
    outer loop
      vertex -4.46197 -5.39359 -24
      vertex -1.59356 -1.92628 -24
      vertex -3.75079 -5.91029 -24
    endloop
  endfacet
  facet normal -0 0 -1
    outer loop
      vertex -1.59356 -1.92628 -24
      vertex -4.46197 -5.39359 -24
      vertex -1.82242 -1.71137 -24
    endloop
  endfacet
  facet normal 0 0 -1
    outer loop
      vertex -5.10278 -4.79183 -24
      vertex -1.82242 -1.71137 -24
      vertex -4.46197 -5.39359 -24
    endloop
  endfacet
  facet normal -0 0 -1
    outer loop
      vertex -1.82242 -1.71137 -24
      vertex -5.10278 -4.79183 -24
      vertex -2.02254 -1.46946 -24
    endloop
  endfacet
  facet normal 0 0 -1
    outer loop
      vertex -5.66312 -4.1145 -24
      vertex -2.02254 -1.46946 -24
      vertex -5.10278 -4.79183 -24
    endloop
  endfacet
  facet normal -0 0 -1
    outer loop
      vertex -2.02254 -1.46946 -24
      vertex -5.66312 -4.1145 -24
      vertex -2.19077 -1.20438 -24
    endloop
  endfacet
  facet normal 0 0 -1
    outer loop
      vertex 2.02254 1.46946 -24
      vertex 5.66312 4.1145 -24
      vertex 2.19077 1.20438 -24
    endloop
  endfacet
  facet normal -0 0 -1
    outer loop
      vertex 5.66312 4.1145 -24
      vertex 2.02254 1.46946 -24
      vertex 5.10278 4.79183 -24
    endloop
  endfacet
  facet normal 0 0 -1
    outer loop
      vertex 1.82242 1.71137 -24
      vertex 5.10278 4.79183 -24
      vertex 2.02254 1.46946 -24
    endloop
  endfacet
  facet normal -0 0 -1
    outer loop
      vertex 5.10278 4.79183 -24
      vertex 1.82242 1.71137 -24
      vertex 4.46197 5.39359 -24
    endloop
  endfacet
  facet normal 0 0 -1
    outer loop
      vertex 1.59356 1.92628 -24
      vertex 4.46197 5.39359 -24
      vertex 1.82242 1.71137 -24
    endloop
  endfacet
  facet normal -0 0 -1
    outer loop
      vertex 4.46197 5.39359 -24
      vertex 1.59356 1.92628 -24
      vertex 3.75079 5.91029 -24
    endloop
  endfacet
  facet normal 0 0 -1
    outer loop
      vertex 1.33957 2.11082 -24
      vertex 3.75079 5.91029 -24
      vertex 1.59356 1.92628 -24
    endloop
  endfacet
  facet normal -0 0 -1
    outer loop
      vertex 3.75079 5.91029 -24
      vertex 1.33957 2.11082 -24
      vertex 2.98045 6.33379 -24
    endloop
  endfacet
  facet normal 0 0 -1
    outer loop
      vertex 1.06445 2.26207 -24
      vertex 2.98045 6.33379 -24
      vertex 1.33957 2.11082 -24
    endloop
  endfacet
  facet normal -0 0 -1
    outer loop
      vertex 2.98045 6.33379 -24
      vertex 1.06445 2.26207 -24
      vertex 2.16312 6.6574 -24
    endloop
  endfacet
  facet normal 0 0 -1
    outer loop
      vertex 0.772542 2.37764 -24
      vertex 2.16312 6.6574 -24
      vertex 1.06445 2.26207 -24
    endloop
  endfacet
  facet normal -0 0 -1
    outer loop
      vertex 2.16312 6.6574 -24
      vertex 0.772542 2.37764 -24
      vertex 1.31167 6.87601 -24
    endloop
  endfacet
  facet normal 0 0 -1
    outer loop
      vertex 0.468452 2.45572 -24
      vertex 1.31167 6.87601 -24
      vertex 0.772542 2.37764 -24
    endloop
  endfacet
  facet normal 0 0 -1
    outer loop
      vertex 0.468452 2.45572 -24
      vertex 0.439533 6.98619 -24
      vertex 1.31167 6.87601 -24
    endloop
  endfacet
  facet normal 0 0 -1
    outer loop
      vertex 0.156976 2.49507 -24
      vertex 0.439533 6.98619 -24
      vertex 0.468452 2.45572 -24
    endloop
  endfacet
  facet normal 0 0 -1
    outer loop
      vertex -0.156976 2.49507 -24
      vertex 0.439533 6.98619 -24
      vertex 0.156976 2.49507 -24
    endloop
  endfacet
  facet normal 0 0 -1
    outer loop
      vertex -0.156976 2.49507 -24
      vertex -0.439533 6.98619 -24
      vertex 0.439533 6.98619 -24
    endloop
  endfacet
  facet normal 0 0 -1
    outer loop
      vertex -0.468452 2.45572 -24
      vertex -0.439533 6.98619 -24
      vertex -0.156976 2.49507 -24
    endloop
  endfacet
  facet normal 0 0 -1
    outer loop
      vertex -1.31167 6.87601 -24
      vertex -0.468452 2.45572 -24
      vertex -0.772542 2.37764 -24
    endloop
  endfacet
  facet normal 0 0 -1
    outer loop
      vertex -2.16312 6.6574 -24
      vertex -0.772542 2.37764 -24
      vertex -1.06445 2.26207 -24
    endloop
  endfacet
  facet normal 0 0 -1
    outer loop
      vertex -0.468452 2.45572 -24
      vertex -1.31167 6.87601 -24
      vertex -0.439533 6.98619 -24
    endloop
  endfacet
  facet normal 0 0 -1
    outer loop
      vertex -2.98045 6.33379 -24
      vertex -1.06445 2.26207 -24
      vertex -1.33957 2.11082 -24
    endloop
  endfacet
  facet normal 0 0 -1
    outer loop
      vertex -3.75079 5.91029 -24
      vertex -1.33957 2.11082 -24
      vertex -1.59356 1.92628 -24
    endloop
  endfacet
  facet normal 0 0 -1
    outer loop
      vertex -4.46197 5.39359 -24
      vertex -1.59356 1.92628 -24
      vertex -1.82242 1.71137 -24
    endloop
  endfacet
  facet normal 0 0 -1
    outer loop
      vertex -5.10278 4.79183 -24
      vertex -1.82242 1.71137 -24
      vertex -2.02254 1.46946 -24
    endloop
  endfacet
  facet normal 0 0 -1
    outer loop
      vertex -0.772542 2.37764 -24
      vertex -2.16312 6.6574 -24
      vertex -1.31167 6.87601 -24
    endloop
  endfacet
  facet normal 0 0 -1
    outer loop
      vertex -5.66312 4.1145 -24
      vertex -2.02254 1.46946 -24
      vertex -2.19077 1.20438 -24
    endloop
  endfacet
  facet normal 0 0 -1
    outer loop
      vertex -6.13415 3.37228 -24
      vertex -2.19077 1.20438 -24
      vertex -2.32444 0.920311 -24
    endloop
  endfacet
  facet normal 0 0 -1
    outer loop
      vertex -6.50844 2.57687 -24
      vertex -2.32444 0.920311 -24
      vertex -2.42146 0.621724 -24
    endloop
  endfacet
  facet normal 0 0 -1
    outer loop
      vertex -6.78008 1.74083 -24
      vertex -2.42146 0.621724 -24
      vertex -2.48029 0.313333 -24
    endloop
  endfacet
  facet normal 0 0 -1
    outer loop
      vertex -6.9448 0.877332 -24
      vertex -2.48029 0.313333 -24
      vertex -2.5 0 -24
    endloop
  endfacet
  facet normal 0 0 -1
    outer loop
      vertex -6.13415 -3.37228 -24
      vertex -2.19077 -1.20438 -24
      vertex -5.66312 -4.1145 -24
    endloop
  endfacet
  facet normal 0 0 -1
    outer loop
      vertex -1.06445 2.26207 -24
      vertex -2.98045 6.33379 -24
      vertex -2.16312 6.6574 -24
    endloop
  endfacet
  facet normal -0 0 -1
    outer loop
      vertex -2.19077 -1.20438 -24
      vertex -6.13415 -3.37228 -24
      vertex -2.32444 -0.920311 -24
    endloop
  endfacet
  facet normal 0 0 -1
    outer loop
      vertex -1.33957 2.11082 -24
      vertex -3.75079 5.91029 -24
      vertex -2.98045 6.33379 -24
    endloop
  endfacet
  facet normal 0 0 -1
    outer loop
      vertex -6.50844 -2.57687 -24
      vertex -2.32444 -0.920311 -24
      vertex -6.13415 -3.37228 -24
    endloop
  endfacet
  facet normal 0 0 -1
    outer loop
      vertex -1.59356 1.92628 -24
      vertex -4.46197 5.39359 -24
      vertex -3.75079 5.91029 -24
    endloop
  endfacet
  facet normal -0 0 -1
    outer loop
      vertex -2.32444 -0.920311 -24
      vertex -6.50844 -2.57687 -24
      vertex -2.42146 -0.621724 -24
    endloop
  endfacet
  facet normal 0 0 -1
    outer loop
      vertex -1.82242 1.71137 -24
      vertex -5.10278 4.79183 -24
      vertex -4.46197 5.39359 -24
    endloop
  endfacet
  facet normal 0 0 -1
    outer loop
      vertex -6.78008 -1.74083 -24
      vertex -2.42146 -0.621724 -24
      vertex -6.50844 -2.57687 -24
    endloop
  endfacet
  facet normal 0 0 -1
    outer loop
      vertex -2.02254 1.46946 -24
      vertex -5.66312 4.1145 -24
      vertex -5.10278 4.79183 -24
    endloop
  endfacet
  facet normal -0 0 -1
    outer loop
      vertex -2.42146 -0.621724 -24
      vertex -6.78008 -1.74083 -24
      vertex -2.48029 -0.313333 -24
    endloop
  endfacet
  facet normal 0 0 -1
    outer loop
      vertex -2.19077 1.20438 -24
      vertex -6.13415 3.37228 -24
      vertex -5.66312 4.1145 -24
    endloop
  endfacet
  facet normal 0 0 -1
    outer loop
      vertex -6.9448 -0.877332 -24
      vertex -2.48029 -0.313333 -24
      vertex -6.78008 -1.74083 -24
    endloop
  endfacet
  facet normal 0 0 -1
    outer loop
      vertex -2.32444 0.920311 -24
      vertex -6.50844 2.57687 -24
      vertex -6.13415 3.37228 -24
    endloop
  endfacet
  facet normal -0 0 -1
    outer loop
      vertex -2.48029 -0.313333 -24
      vertex -6.9448 -0.877332 -24
      vertex -2.5 0 -24
    endloop
  endfacet
  facet normal 0 0 -1
    outer loop
      vertex -2.42146 0.621724 -24
      vertex -6.78008 1.74083 -24
      vertex -6.50844 2.57687 -24
    endloop
  endfacet
  facet normal 0 0 -1
    outer loop
      vertex -7 0 -24
      vertex -2.5 0 -24
      vertex -6.9448 -0.877332 -24
    endloop
  endfacet
  facet normal 0 0 -1
    outer loop
      vertex -2.48029 0.313333 -24
      vertex -6.9448 0.877332 -24
      vertex -6.78008 1.74083 -24
    endloop
  endfacet
  facet normal 0 0 -1
    outer loop
      vertex -2.5 0 -24
      vertex -7 0 -24
      vertex -6.9448 0.877332 -24
    endloop
  endfacet
  facet normal 0.481755 -0.876306 0
    outer loop
      vertex 2.98045 -6.33379 -24
      vertex 3.75079 -5.91029 24
      vertex 2.98045 -6.33379 24
    endloop
  endfacet
  facet normal 0.481755 -0.876306 0
    outer loop
      vertex 3.75079 -5.91029 24
      vertex 2.98045 -6.33379 -24
      vertex 3.75079 -5.91029 -24
    endloop
  endfacet
  facet normal 0.951058 -0.309011 0
    outer loop
      vertex 6.50844 -2.57687 24
      vertex 6.78008 -1.74083 -24
      vertex 6.78008 -1.74083 24
    endloop
  endfacet
  facet normal 0.951058 -0.309011 0
    outer loop
      vertex 6.78008 -1.74083 -24
      vertex 6.50844 -2.57687 24
      vertex 6.50844 -2.57687 -24
    endloop
  endfacet
  facet normal -0.770511 -0.637427 0
    outer loop
      vertex -5.10278 -4.79183 -24
      vertex -5.66312 -4.1145 24
      vertex -5.66312 -4.1145 -24
    endloop
  endfacet
  facet normal -0.770511 -0.637427 0
    outer loop
      vertex -5.66312 -4.1145 24
      vertex -5.10278 -4.79183 -24
      vertex -5.10278 -4.79183 24
    endloop
  endfacet
  facet normal -0.951058 -0.309011 0
    outer loop
      vertex -6.50844 -2.57687 -24
      vertex -6.78008 -1.74083 24
      vertex -6.78008 -1.74083 -24
    endloop
  endfacet
  facet normal -0.951058 -0.309011 0
    outer loop
      vertex -6.78008 -1.74083 24
      vertex -6.50844 -2.57687 -24
      vertex -6.50844 -2.57687 24
    endloop
  endfacet
  facet normal 0.684547 -0.728969 0
    outer loop
      vertex 4.46197 -5.39359 -24
      vertex 5.10278 -4.79183 24
      vertex 4.46197 -5.39359 24
    endloop
  endfacet
  facet normal 0.684547 -0.728969 0
    outer loop
      vertex 5.10278 -4.79183 24
      vertex 4.46197 -5.39359 -24
      vertex 5.10278 -4.79183 -24
    endloop
  endfacet
  facet normal 0.368131 -0.929774 0
    outer loop
      vertex 2.16312 -6.6574 -24
      vertex 2.98045 -6.33379 24
      vertex 2.16312 -6.6574 24
    endloop
  endfacet
  facet normal 0.368131 -0.929774 0
    outer loop
      vertex 2.98045 -6.33379 24
      vertex 2.16312 -6.6574 -24
      vertex 2.98045 -6.33379 -24
    endloop
  endfacet
  facet normal 0.248684 -0.968585 0
    outer loop
      vertex 1.31167 -6.87601 -24
      vertex 2.16312 -6.6574 24
      vertex 1.31167 -6.87601 24
    endloop
  endfacet
  facet normal 0.248684 -0.968585 0
    outer loop
      vertex 2.16312 -6.6574 24
      vertex 1.31167 -6.87601 -24
      vertex 2.16312 -6.6574 -24
    endloop
  endfacet
  facet normal 0.125337 -0.992114 0
    outer loop
      vertex 0.439533 -6.98619 -24
      vertex 1.31167 -6.87601 24
      vertex 0.439533 -6.98619 24
    endloop
  endfacet
  facet normal 0.125337 -0.992114 0
    outer loop
      vertex 1.31167 -6.87601 24
      vertex 0.439533 -6.98619 -24
      vertex 1.31167 -6.87601 -24
    endloop
  endfacet
  facet normal 0.982287 -0.18738 0
    outer loop
      vertex 6.78008 -1.74083 24
      vertex 6.9448 -0.877332 -24
      vertex 6.9448 -0.877332 24
    endloop
  endfacet
  facet normal 0.982287 -0.18738 0
    outer loop
      vertex 6.9448 -0.877332 -24
      vertex 6.78008 -1.74083 24
      vertex 6.78008 -1.74083 -24
    endloop
  endfacet
  facet normal 0.844326 -0.535829 0
    outer loop
      vertex 5.66312 -4.1145 24
      vertex 6.13415 -3.37228 -24
      vertex 6.13415 -3.37228 24
    endloop
  endfacet
  facet normal 0.844326 -0.535829 0
    outer loop
      vertex 6.13415 -3.37228 -24
      vertex 5.66312 -4.1145 24
      vertex 5.66312 -4.1145 -24
    endloop
  endfacet
  facet normal 0.770511 -0.637427 0
    outer loop
      vertex 5.10278 -4.79183 24
      vertex 5.66312 -4.1145 -24
      vertex 5.66312 -4.1145 24
    endloop
  endfacet
  facet normal 0.770511 -0.637427 0
    outer loop
      vertex 5.66312 -4.1145 -24
      vertex 5.10278 -4.79183 24
      vertex 5.10278 -4.79183 -24
    endloop
  endfacet
  facet normal -0.125337 -0.992114 0
    outer loop
      vertex -1.31167 -6.87601 -24
      vertex -0.439533 -6.98619 24
      vertex -1.31167 -6.87601 24
    endloop
  endfacet
  facet normal -0.125337 -0.992114 -0
    outer loop
      vertex -0.439533 -6.98619 24
      vertex -1.31167 -6.87601 -24
      vertex -0.439533 -6.98619 -24
    endloop
  endfacet
  facet normal -0.368131 -0.929774 0
    outer loop
      vertex -2.98045 -6.33379 -24
      vertex -2.16312 -6.6574 24
      vertex -2.98045 -6.33379 24
    endloop
  endfacet
  facet normal -0.368131 -0.929774 -0
    outer loop
      vertex -2.16312 -6.6574 24
      vertex -2.98045 -6.33379 -24
      vertex -2.16312 -6.6574 -24
    endloop
  endfacet
  facet normal -0.248684 -0.968585 0
    outer loop
      vertex -2.16312 -6.6574 -24
      vertex -1.31167 -6.87601 24
      vertex -2.16312 -6.6574 24
    endloop
  endfacet
  facet normal -0.248684 -0.968585 -0
    outer loop
      vertex -1.31167 -6.87601 24
      vertex -2.16312 -6.6574 -24
      vertex -1.31167 -6.87601 -24
    endloop
  endfacet
  facet normal -0.982287 -0.18738 0
    outer loop
      vertex -6.78008 -1.74083 -24
      vertex -6.9448 -0.877332 24
      vertex -6.9448 -0.877332 -24
    endloop
  endfacet
  facet normal -0.982287 -0.18738 0
    outer loop
      vertex -6.9448 -0.877332 24
      vertex -6.78008 -1.74083 -24
      vertex -6.78008 -1.74083 24
    endloop
  endfacet
  facet normal -0.998027 -0.0627939 0
    outer loop
      vertex -6.9448 -0.877332 -24
      vertex -7 0 24
      vertex -7 0 -24
    endloop
  endfacet
  facet normal -0.998027 -0.0627939 0
    outer loop
      vertex -7 0 24
      vertex -6.9448 -0.877332 -24
      vertex -6.9448 -0.877332 24
    endloop
  endfacet
  facet normal 0.587783 -0.809018 0
    outer loop
      vertex 3.75079 -5.91029 -24
      vertex 4.46197 -5.39359 24
      vertex 3.75079 -5.91029 24
    endloop
  endfacet
  facet normal 0.587783 -0.809018 0
    outer loop
      vertex 4.46197 -5.39359 24
      vertex 3.75079 -5.91029 -24
      vertex 4.46197 -5.39359 -24
    endloop
  endfacet
  facet normal -0.481755 -0.876306 0
    outer loop
      vertex -3.75079 -5.91029 -24
      vertex -2.98045 -6.33379 24
      vertex -3.75079 -5.91029 24
    endloop
  endfacet
  facet normal -0.481755 -0.876306 -0
    outer loop
      vertex -2.98045 -6.33379 24
      vertex -3.75079 -5.91029 -24
      vertex -2.98045 -6.33379 -24
    endloop
  endfacet
  facet normal -0.587783 -0.809018 0
    outer loop
      vertex -4.46197 -5.39359 -24
      vertex -3.75079 -5.91029 24
      vertex -4.46197 -5.39359 24
    endloop
  endfacet
  facet normal -0.587783 -0.809018 -0
    outer loop
      vertex -3.75079 -5.91029 24
      vertex -4.46197 -5.39359 -24
      vertex -3.75079 -5.91029 -24
    endloop
  endfacet
  facet normal -0.998027 -0.0627802 0
    outer loop
      vertex 2.5 0 -24
      vertex 2.48029 0.313333 24
      vertex 2.48029 0.313333 -24
    endloop
  endfacet
  facet normal -0.998027 -0.0627802 0
    outer loop
      vertex 2.48029 0.313333 24
      vertex 2.5 0 -24
      vertex 2.5 0 24
    endloop
  endfacet
  facet normal 0.998027 -0.0627802 0
    outer loop
      vertex -2.5 0 24
      vertex -2.48029 0.313333 -24
      vertex -2.48029 0.313333 24
    endloop
  endfacet
  facet normal 0.998027 -0.0627802 0
    outer loop
      vertex -2.48029 0.313333 -24
      vertex -2.5 0 24
      vertex -2.5 0 -24
    endloop
  endfacet
  facet normal 0 -1 0
    outer loop
      vertex -0.156976 2.49507 -24
      vertex 0.156976 2.49507 24
      vertex -0.156976 2.49507 24
    endloop
  endfacet
  facet normal 0 -1 -0
    outer loop
      vertex 0.156976 2.49507 24
      vertex -0.156976 2.49507 -24
      vertex 0.156976 2.49507 -24
    endloop
  endfacet
  facet normal 0 1 -0
    outer loop
      vertex 0.156976 -2.49507 -24
      vertex -0.156976 -2.49507 24
      vertex 0.156976 -2.49507 24
    endloop
  endfacet
  facet normal 0 1 0
    outer loop
      vertex -0.156976 -2.49507 24
      vertex 0.156976 -2.49507 -24
      vertex -0.156976 -2.49507 -24
    endloop
  endfacet
  facet normal -0.684541 -0.728975 0
    outer loop
      vertex 1.59356 1.92628 -24
      vertex 1.82242 1.71137 24
      vertex 1.59356 1.92628 24
    endloop
  endfacet
  facet normal -0.684541 -0.728975 -0
    outer loop
      vertex 1.82242 1.71137 24
      vertex 1.59356 1.92628 -24
      vertex 1.82242 1.71137 -24
    endloop
  endfacet
  facet normal 0.684541 -0.728975 0
    outer loop
      vertex -1.82242 1.71137 -24
      vertex -1.59356 1.92628 24
      vertex -1.82242 1.71137 24
    endloop
  endfacet
  facet normal 0.684541 -0.728975 0
    outer loop
      vertex -1.59356 1.92628 24
      vertex -1.82242 1.71137 -24
      vertex -1.59356 1.92628 -24
    endloop
  endfacet
  facet normal 0.368112 -0.929781 0
    outer loop
      vertex -1.06445 2.26207 -24
      vertex -0.772542 2.37764 24
      vertex -1.06445 2.26207 24
    endloop
  endfacet
  facet normal 0.368112 -0.929781 0
    outer loop
      vertex -0.772542 2.37764 24
      vertex -1.06445 2.26207 -24
      vertex -0.772542 2.37764 -24
    endloop
  endfacet
  facet normal -0.90483 -0.425772 0
    outer loop
      vertex 2.32444 0.920311 -24
      vertex 2.19077 1.20438 24
      vertex 2.19077 1.20438 -24
    endloop
  endfacet
  facet normal -0.90483 -0.425772 0
    outer loop
      vertex 2.19077 1.20438 24
      vertex 2.32444 0.920311 -24
      vertex 2.32444 0.920311 24
    endloop
  endfacet
  facet normal -0.368112 -0.929781 0
    outer loop
      vertex 0.772542 2.37764 -24
      vertex 1.06445 2.26207 24
      vertex 0.772542 2.37764 24
    endloop
  endfacet
  facet normal -0.368112 -0.929781 -0
    outer loop
      vertex 1.06445 2.26207 24
      vertex 0.772542 2.37764 -24
      vertex 1.06445 2.26207 -24
    endloop
  endfacet
  facet normal -0.248699 -0.968581 0
    outer loop
      vertex 0.468452 2.45572 -24
      vertex 0.772542 2.37764 24
      vertex 0.468452 2.45572 24
    endloop
  endfacet
  facet normal -0.248699 -0.968581 -0
    outer loop
      vertex 0.772542 2.37764 24
      vertex 0.468452 2.45572 -24
      vertex 0.772542 2.37764 -24
    endloop
  endfacet
  facet normal -0.481757 -0.876305 0
    outer loop
      vertex 1.06445 2.26207 -24
      vertex 1.33957 2.11082 24
      vertex 1.06445 2.26207 24
    endloop
  endfacet
  facet normal -0.481757 -0.876305 -0
    outer loop
      vertex 1.33957 2.11082 24
      vertex 1.06445 2.26207 -24
      vertex 1.33957 2.11082 -24
    endloop
  endfacet
  facet normal 0.90483 -0.425772 0
    outer loop
      vertex -2.32444 0.920311 24
      vertex -2.19077 1.20438 -24
      vertex -2.19077 1.20438 24
    endloop
  endfacet
  facet normal 0.90483 -0.425772 0
    outer loop
      vertex -2.19077 1.20438 -24
      vertex -2.32444 0.920311 24
      vertex -2.32444 0.920311 -24
    endloop
  endfacet
  facet normal 0.125338 -0.992114 0
    outer loop
      vertex -0.468452 2.45572 -24
      vertex -0.156976 2.49507 24
      vertex -0.468452 2.45572 24
    endloop
  endfacet
  facet normal 0.125338 -0.992114 0
    outer loop
      vertex -0.156976 2.49507 24
      vertex -0.468452 2.45572 -24
      vertex -0.156976 2.49507 -24
    endloop
  endfacet
  facet normal -0.125338 0.992114 0
    outer loop
      vertex 0.468452 -2.45572 -24
      vertex 0.156976 -2.49507 24
      vertex 0.468452 -2.45572 24
    endloop
  endfacet
  facet normal -0.125338 0.992114 0
    outer loop
      vertex 0.156976 -2.49507 24
      vertex 0.468452 -2.45572 -24
      vertex 0.156976 -2.49507 -24
    endloop
  endfacet
  facet normal -0.951054 -0.309026 0
    outer loop
      vertex 2.42146 0.621724 -24
      vertex 2.32444 0.920311 24
      vertex 2.32444 0.920311 -24
    endloop
  endfacet
  facet normal -0.951054 -0.309026 0
    outer loop
      vertex 2.32444 0.920311 24
      vertex 2.42146 0.621724 -24
      vertex 2.42146 0.621724 24
    endloop
  endfacet
  facet normal -0.982287 -0.187385 0
    outer loop
      vertex 2.48029 0.313333 -24
      vertex 2.42146 0.621724 24
      vertex 2.42146 0.621724 -24
    endloop
  endfacet
  facet normal -0.982287 -0.187385 0
    outer loop
      vertex 2.42146 0.621724 24
      vertex 2.48029 0.313333 -24
      vertex 2.48029 0.313333 24
    endloop
  endfacet
  facet normal -0.770522 -0.637414 0
    outer loop
      vertex 2.02254 1.46946 -24
      vertex 1.82242 1.71137 24
      vertex 1.82242 1.71137 -24
    endloop
  endfacet
  facet normal -0.770522 -0.637414 0
    outer loop
      vertex 1.82242 1.71137 24
      vertex 2.02254 1.46946 -24
      vertex 2.02254 1.46946 24
    endloop
  endfacet
  facet normal -0.844321 -0.535838 0
    outer loop
      vertex 2.19077 1.20438 -24
      vertex 2.02254 1.46946 24
      vertex 2.02254 1.46946 -24
    endloop
  endfacet
  facet normal -0.844321 -0.535838 0
    outer loop
      vertex 2.02254 1.46946 24
      vertex 2.19077 1.20438 -24
      vertex 2.19077 1.20438 24
    endloop
  endfacet
  facet normal -0.125338 -0.992114 0
    outer loop
      vertex 0.156976 2.49507 -24
      vertex 0.468452 2.45572 24
      vertex 0.156976 2.49507 24
    endloop
  endfacet
  facet normal -0.125338 -0.992114 -0
    outer loop
      vertex 0.468452 2.45572 24
      vertex 0.156976 2.49507 -24
      vertex 0.468452 2.45572 -24
    endloop
  endfacet
  facet normal -0.587797 -0.809009 0
    outer loop
      vertex 1.33957 2.11082 -24
      vertex 1.59356 1.92628 24
      vertex 1.33957 2.11082 24
    endloop
  endfacet
  facet normal -0.587797 -0.809009 -0
    outer loop
      vertex 1.59356 1.92628 24
      vertex 1.33957 2.11082 -24
      vertex 1.59356 1.92628 -24
    endloop
  endfacet
  facet normal 0.844321 -0.535838 0
    outer loop
      vertex -2.19077 1.20438 24
      vertex -2.02254 1.46946 -24
      vertex -2.02254 1.46946 24
    endloop
  endfacet
  facet normal 0.844321 -0.535838 0
    outer loop
      vertex -2.02254 1.46946 -24
      vertex -2.19077 1.20438 24
      vertex -2.19077 1.20438 -24
    endloop
  endfacet
  facet normal 0.770522 -0.637414 0
    outer loop
      vertex -2.02254 1.46946 24
      vertex -1.82242 1.71137 -24
      vertex -1.82242 1.71137 24
    endloop
  endfacet
  facet normal 0.770522 -0.637414 0
    outer loop
      vertex -1.82242 1.71137 -24
      vertex -2.02254 1.46946 24
      vertex -2.02254 1.46946 -24
    endloop
  endfacet
  facet normal 0.951054 -0.309026 0
    outer loop
      vertex -2.42146 0.621724 24
      vertex -2.32444 0.920311 -24
      vertex -2.32444 0.920311 24
    endloop
  endfacet
  facet normal 0.951054 -0.309026 0
    outer loop
      vertex -2.32444 0.920311 -24
      vertex -2.42146 0.621724 24
      vertex -2.42146 0.621724 -24
    endloop
  endfacet
  facet normal 0.982287 -0.187385 0
    outer loop
      vertex -2.48029 0.313333 24
      vertex -2.42146 0.621724 -24
      vertex -2.42146 0.621724 24
    endloop
  endfacet
  facet normal 0.982287 -0.187385 0
    outer loop
      vertex -2.42146 0.621724 -24
      vertex -2.48029 0.313333 24
      vertex -2.48029 0.313333 -24
    endloop
  endfacet
  facet normal 0.481757 -0.876305 0
    outer loop
      vertex -1.33957 2.11082 -24
      vertex -1.06445 2.26207 24
      vertex -1.33957 2.11082 24
    endloop
  endfacet
  facet normal 0.481757 -0.876305 0
    outer loop
      vertex -1.06445 2.26207 24
      vertex -1.33957 2.11082 -24
      vertex -1.06445 2.26207 -24
    endloop
  endfacet
  facet normal 0.587797 -0.809009 0
    outer loop
      vertex -1.59356 1.92628 -24
      vertex -1.33957 2.11082 24
      vertex -1.59356 1.92628 24
    endloop
  endfacet
  facet normal 0.587797 -0.809009 0
    outer loop
      vertex -1.33957 2.11082 24
      vertex -1.59356 1.92628 -24
      vertex -1.33957 2.11082 -24
    endloop
  endfacet
  facet normal 0.248699 -0.968581 0
    outer loop
      vertex -0.772542 2.37764 -24
      vertex -0.468452 2.45572 24
      vertex -0.772542 2.37764 24
    endloop
  endfacet
  facet normal 0.248699 -0.968581 0
    outer loop
      vertex -0.468452 2.45572 24
      vertex -0.772542 2.37764 -24
      vertex -0.468452 2.45572 -24
    endloop
  endfacet
  facet normal -0.998027 0.0627802 0
    outer loop
      vertex 2.48029 -0.313333 -24
      vertex 2.5 0 24
      vertex 2.5 0 -24
    endloop
  endfacet
  facet normal -0.998027 0.0627802 0
    outer loop
      vertex 2.5 0 24
      vertex 2.48029 -0.313333 -24
      vertex 2.48029 -0.313333 24
    endloop
  endfacet
  facet normal -0.90483 0.425772 0
    outer loop
      vertex 2.19077 -1.20438 -24
      vertex 2.32444 -0.920311 24
      vertex 2.32444 -0.920311 -24
    endloop
  endfacet
  facet normal -0.90483 0.425772 0
    outer loop
      vertex 2.32444 -0.920311 24
      vertex 2.19077 -1.20438 -24
      vertex 2.19077 -1.20438 24
    endloop
  endfacet
  facet normal 0.684541 0.728975 -0
    outer loop
      vertex -1.59356 -1.92628 -24
      vertex -1.82242 -1.71137 24
      vertex -1.59356 -1.92628 24
    endloop
  endfacet
  facet normal 0.684541 0.728975 0
    outer loop
      vertex -1.82242 -1.71137 24
      vertex -1.59356 -1.92628 -24
      vertex -1.82242 -1.71137 -24
    endloop
  endfacet
  facet normal 0.90483 0.425772 0
    outer loop
      vertex -2.19077 -1.20438 24
      vertex -2.32444 -0.920311 -24
      vertex -2.32444 -0.920311 24
    endloop
  endfacet
  facet normal 0.90483 0.425772 0
    outer loop
      vertex -2.32444 -0.920311 -24
      vertex -2.19077 -1.20438 24
      vertex -2.19077 -1.20438 -24
    endloop
  endfacet
  facet normal 0.844321 0.535838 0
    outer loop
      vertex -2.02254 -1.46946 24
      vertex -2.19077 -1.20438 -24
      vertex -2.19077 -1.20438 24
    endloop
  endfacet
  facet normal 0.844321 0.535838 0
    outer loop
      vertex -2.19077 -1.20438 -24
      vertex -2.02254 -1.46946 24
      vertex -2.02254 -1.46946 -24
    endloop
  endfacet
  facet normal -0.481757 0.876305 0
    outer loop
      vertex 1.33957 -2.11082 -24
      vertex 1.06445 -2.26207 24
      vertex 1.33957 -2.11082 24
    endloop
  endfacet
  facet normal -0.481757 0.876305 0
    outer loop
      vertex 1.06445 -2.26207 24
      vertex 1.33957 -2.11082 -24
      vertex 1.06445 -2.26207 -24
    endloop
  endfacet
  facet normal -0.951054 0.309026 0
    outer loop
      vertex 2.32444 -0.920311 -24
      vertex 2.42146 -0.621724 24
      vertex 2.42146 -0.621724 -24
    endloop
  endfacet
  facet normal -0.951054 0.309026 0
    outer loop
      vertex 2.42146 -0.621724 24
      vertex 2.32444 -0.920311 -24
      vertex 2.32444 -0.920311 24
    endloop
  endfacet
  facet normal 0.770522 0.637414 0
    outer loop
      vertex -1.82242 -1.71137 24
      vertex -2.02254 -1.46946 -24
      vertex -2.02254 -1.46946 24
    endloop
  endfacet
  facet normal 0.770522 0.637414 0
    outer loop
      vertex -2.02254 -1.46946 -24
      vertex -1.82242 -1.71137 24
      vertex -1.82242 -1.71137 -24
    endloop
  endfacet
  facet normal 0.982287 0.187385 0
    outer loop
      vertex -2.42146 -0.621724 24
      vertex -2.48029 -0.313333 -24
      vertex -2.48029 -0.313333 24
    endloop
  endfacet
  facet normal 0.982287 0.187385 0
    outer loop
      vertex -2.48029 -0.313333 -24
      vertex -2.42146 -0.621724 24
      vertex -2.42146 -0.621724 -24
    endloop
  endfacet
  facet normal 0.998027 0.0627802 0
    outer loop
      vertex -2.48029 -0.313333 24
      vertex -2.5 0 -24
      vertex -2.5 0 24
    endloop
  endfacet
  facet normal 0.998027 0.0627802 0
    outer loop
      vertex -2.5 0 -24
      vertex -2.48029 -0.313333 24
      vertex -2.48029 -0.313333 -24
    endloop
  endfacet
  facet normal 0.951054 0.309026 0
    outer loop
      vertex -2.32444 -0.920311 24
      vertex -2.42146 -0.621724 -24
      vertex -2.42146 -0.621724 24
    endloop
  endfacet
  facet normal 0.951054 0.309026 0
    outer loop
      vertex -2.42146 -0.621724 -24
      vertex -2.32444 -0.920311 24
      vertex -2.32444 -0.920311 -24
    endloop
  endfacet
  facet normal -0.684541 0.728975 0
    outer loop
      vertex 1.82242 -1.71137 -24
      vertex 1.59356 -1.92628 24
      vertex 1.82242 -1.71137 24
    endloop
  endfacet
  facet normal -0.684541 0.728975 0
    outer loop
      vertex 1.59356 -1.92628 24
      vertex 1.82242 -1.71137 -24
      vertex 1.59356 -1.92628 -24
    endloop
  endfacet
  facet normal -0.368112 0.929781 0
    outer loop
      vertex 1.06445 -2.26207 -24
      vertex 0.772542 -2.37764 24
      vertex 1.06445 -2.26207 24
    endloop
  endfacet
  facet normal -0.368112 0.929781 0
    outer loop
      vertex 0.772542 -2.37764 24
      vertex 1.06445 -2.26207 -24
      vertex 0.772542 -2.37764 -24
    endloop
  endfacet
  facet normal -0.248699 0.968581 0
    outer loop
      vertex 0.772542 -2.37764 -24
      vertex 0.468452 -2.45572 24
      vertex 0.772542 -2.37764 24
    endloop
  endfacet
  facet normal -0.248699 0.968581 0
    outer loop
      vertex 0.468452 -2.45572 24
      vertex 0.772542 -2.37764 -24
      vertex 0.468452 -2.45572 -24
    endloop
  endfacet
  facet normal -0.982287 0.187385 0
    outer loop
      vertex 2.42146 -0.621724 -24
      vertex 2.48029 -0.313333 24
      vertex 2.48029 -0.313333 -24
    endloop
  endfacet
  facet normal -0.982287 0.187385 0
    outer loop
      vertex 2.48029 -0.313333 24
      vertex 2.42146 -0.621724 -24
      vertex 2.42146 -0.621724 24
    endloop
  endfacet
  facet normal -0.844321 0.535838 0
    outer loop
      vertex 2.02254 -1.46946 -24
      vertex 2.19077 -1.20438 24
      vertex 2.19077 -1.20438 -24
    endloop
  endfacet
  facet normal -0.844321 0.535838 0
    outer loop
      vertex 2.19077 -1.20438 24
      vertex 2.02254 -1.46946 -24
      vertex 2.02254 -1.46946 24
    endloop
  endfacet
  facet normal -0.770522 0.637414 0
    outer loop
      vertex 1.82242 -1.71137 -24
      vertex 2.02254 -1.46946 24
      vertex 2.02254 -1.46946 -24
    endloop
  endfacet
  facet normal -0.770522 0.637414 0
    outer loop
      vertex 2.02254 -1.46946 24
      vertex 1.82242 -1.71137 -24
      vertex 1.82242 -1.71137 24
    endloop
  endfacet
  facet normal 0.248699 0.968581 -0
    outer loop
      vertex -0.468452 -2.45572 -24
      vertex -0.772542 -2.37764 24
      vertex -0.468452 -2.45572 24
    endloop
  endfacet
  facet normal 0.248699 0.968581 0
    outer loop
      vertex -0.772542 -2.37764 24
      vertex -0.468452 -2.45572 -24
      vertex -0.772542 -2.37764 -24
    endloop
  endfacet
  facet normal -0.587797 0.809009 0
    outer loop
      vertex 1.59356 -1.92628 -24
      vertex 1.33957 -2.11082 24
      vertex 1.59356 -1.92628 24
    endloop
  endfacet
  facet normal -0.587797 0.809009 0
    outer loop
      vertex 1.33957 -2.11082 24
      vertex 1.59356 -1.92628 -24
      vertex 1.33957 -2.11082 -24
    endloop
  endfacet
  facet normal 0.125338 0.992114 -0
    outer loop
      vertex -0.156976 -2.49507 -24
      vertex -0.468452 -2.45572 24
      vertex -0.156976 -2.49507 24
    endloop
  endfacet
  facet normal 0.125338 0.992114 0
    outer loop
      vertex -0.468452 -2.45572 24
      vertex -0.156976 -2.49507 -24
      vertex -0.468452 -2.45572 -24
    endloop
  endfacet
  facet normal 0.368112 0.929781 -0
    outer loop
      vertex -0.772542 -2.37764 -24
      vertex -1.06445 -2.26207 24
      vertex -0.772542 -2.37764 24
    endloop
  endfacet
  facet normal 0.368112 0.929781 0
    outer loop
      vertex -1.06445 -2.26207 24
      vertex -0.772542 -2.37764 -24
      vertex -1.06445 -2.26207 -24
    endloop
  endfacet
  facet normal 0.481757 0.876305 -0
    outer loop
      vertex -1.06445 -2.26207 -24
      vertex -1.33957 -2.11082 24
      vertex -1.06445 -2.26207 24
    endloop
  endfacet
  facet normal 0.481757 0.876305 0
    outer loop
      vertex -1.33957 -2.11082 24
      vertex -1.06445 -2.26207 -24
      vertex -1.33957 -2.11082 -24
    endloop
  endfacet
  facet normal 0.587797 0.809009 -0
    outer loop
      vertex -1.33957 -2.11082 -24
      vertex -1.59356 -1.92628 24
      vertex -1.33957 -2.11082 24
    endloop
  endfacet
  facet normal 0.587797 0.809009 0
    outer loop
      vertex -1.59356 -1.92628 24
      vertex -1.33957 -2.11082 -24
      vertex -1.59356 -1.92628 -24
    endloop
  endfacet
endsolid OpenSCAD_Model
