solid OpenSCAD_Model
  facet normal 0.998027 0.0627883 0
    outer loop
      vertex 4 0 9
      vertex 3.96846 0.501332 -9
      vertex 3.96846 0.501332 9
    endloop
  endfacet
  facet normal 0.998027 0.0627883 0
    outer loop
      vertex 3.96846 0.501332 -9
      vertex 4 0 9
      vertex 4 0 -9
    endloop
  endfacet
  facet normal -0.998027 0.0627883 0
    outer loop
      vertex -4 0 -9
      vertex -3.96846 0.501332 9
      vertex -3.96846 0.501332 -9
    endloop
  endfacet
  facet normal -0.998027 0.0627883 0
    outer loop
      vertex -3.96846 0.501332 9
      vertex -4 0 -9
      vertex -4 0 9
    endloop
  endfacet
  facet normal 0 1 -0
    outer loop
      vertex 0.251162 3.99211 -9
      vertex -0.251162 3.99211 9
      vertex 0.251162 3.99211 9
    endloop
  endfacet
  facet normal 0 1 0
    outer loop
      vertex -0.251162 3.99211 9
      vertex 0.251162 3.99211 -9
      vertex -0.251162 3.99211 -9
    endloop
  endfacet
  facet normal 0 -1 0
    outer loop
      vertex -0.251162 -3.99211 -9
      vertex 0.251162 -3.99211 9
      vertex -0.251162 -3.99211 9
    endloop
  endfacet
  facet normal 0 -1 -0
    outer loop
      vertex 0.251162 -3.99211 9
      vertex -0.251162 -3.99211 -9
      vertex 0.251162 -3.99211 -9
    endloop
  endfacet
  facet normal 0.684551 0.728965 -0
    outer loop
      vertex 2.91587 2.73819 -9
      vertex 2.5497 3.08205 9
      vertex 2.91587 2.73819 9
    endloop
  endfacet
  facet normal 0.684551 0.728965 0
    outer loop
      vertex 2.5497 3.08205 9
      vertex 2.91587 2.73819 -9
      vertex 2.5497 3.08205 -9
    endloop
  endfacet
  facet normal -0.684551 0.728965 0
    outer loop
      vertex -2.5497 3.08205 -9
      vertex -2.91587 2.73819 9
      vertex -2.5497 3.08205 9
    endloop
  endfacet
  facet normal -0.684551 0.728965 0
    outer loop
      vertex -2.91587 2.73819 9
      vertex -2.5497 3.08205 -9
      vertex -2.91587 2.73819 -9
    endloop
  endfacet
  facet normal -0.368128 0.929775 0
    outer loop
      vertex -1.23607 3.80423 -9
      vertex -1.70312 3.61931 9
      vertex -1.23607 3.80423 9
    endloop
  endfacet
  facet normal -0.368128 0.929775 0
    outer loop
      vertex -1.70312 3.61931 9
      vertex -1.23607 3.80423 -9
      vertex -1.70312 3.61931 -9
    endloop
  endfacet
  facet normal 0.904824 0.425786 0
    outer loop
      vertex 3.71911 1.4725 9
      vertex 3.50523 1.92701 -9
      vertex 3.50523 1.92701 9
    endloop
  endfacet
  facet normal 0.904824 0.425786 0
    outer loop
      vertex 3.50523 1.92701 -9
      vertex 3.71911 1.4725 9
      vertex 3.71911 1.4725 -9
    endloop
  endfacet
  facet normal 0.844329 0.535825 0
    outer loop
      vertex 3.50523 1.92701 9
      vertex 3.23607 2.35114 -9
      vertex 3.23607 2.35114 9
    endloop
  endfacet
  facet normal 0.844329 0.535825 0
    outer loop
      vertex 3.23607 2.35114 -9
      vertex 3.50523 1.92701 9
      vertex 3.50523 1.92701 -9
    endloop
  endfacet
  facet normal 0.368128 0.929775 -0
    outer loop
      vertex 1.70312 3.61931 -9
      vertex 1.23607 3.80423 9
      vertex 1.70312 3.61931 9
    endloop
  endfacet
  facet normal 0.368128 0.929775 0
    outer loop
      vertex 1.23607 3.80423 9
      vertex 1.70312 3.61931 -9
      vertex 1.23607 3.80423 -9
    endloop
  endfacet
  facet normal 0.248683 0.968585 -0
    outer loop
      vertex 1.23607 3.80423 -9
      vertex 0.749525 3.92915 9
      vertex 1.23607 3.80423 9
    endloop
  endfacet
  facet normal 0.248683 0.968585 0
    outer loop
      vertex 0.749525 3.92915 9
      vertex 1.23607 3.80423 -9
      vertex 0.749525 3.92915 -9
    endloop
  endfacet
  facet normal 0.587786 0.809017 -0
    outer loop
      vertex 2.5497 3.08205 -9
      vertex 2.14331 3.37731 9
      vertex 2.5497 3.08205 9
    endloop
  endfacet
  facet normal 0.587786 0.809017 0
    outer loop
      vertex 2.14331 3.37731 9
      vertex 2.5497 3.08205 -9
      vertex 2.14331 3.37731 -9
    endloop
  endfacet
  facet normal -0.844329 0.535825 0
    outer loop
      vertex -3.50523 1.92701 -9
      vertex -3.23607 2.35114 9
      vertex -3.23607 2.35114 -9
    endloop
  endfacet
  facet normal -0.844329 0.535825 0
    outer loop
      vertex -3.23607 2.35114 9
      vertex -3.50523 1.92701 -9
      vertex -3.50523 1.92701 9
    endloop
  endfacet
  facet normal -0.770509 0.637429 0
    outer loop
      vertex -3.23607 2.35114 -9
      vertex -2.91587 2.73819 9
      vertex -2.91587 2.73819 -9
    endloop
  endfacet
  facet normal -0.770509 0.637429 0
    outer loop
      vertex -2.91587 2.73819 9
      vertex -3.23607 2.35114 -9
      vertex -3.23607 2.35114 9
    endloop
  endfacet
  facet normal -0.951061 0.309004 0
    outer loop
      vertex -3.87433 0.994759 -9
      vertex -3.71911 1.4725 9
      vertex -3.71911 1.4725 -9
    endloop
  endfacet
  facet normal -0.951061 0.309004 0
    outer loop
      vertex -3.71911 1.4725 9
      vertex -3.87433 0.994759 -9
      vertex -3.87433 0.994759 9
    endloop
  endfacet
  facet normal -0.481759 0.876304 0
    outer loop
      vertex -1.70312 3.61931 -9
      vertex -2.14331 3.37731 9
      vertex -1.70312 3.61931 9
    endloop
  endfacet
  facet normal -0.481759 0.876304 0
    outer loop
      vertex -2.14331 3.37731 9
      vertex -1.70312 3.61931 -9
      vertex -2.14331 3.37731 -9
    endloop
  endfacet
  facet normal -0.248683 0.968585 0
    outer loop
      vertex -0.749525 3.92915 -9
      vertex -1.23607 3.80423 9
      vertex -0.749525 3.92915 9
    endloop
  endfacet
  facet normal -0.248683 0.968585 0
    outer loop
      vertex -1.23607 3.80423 9
      vertex -0.749525 3.92915 -9
      vertex -1.23607 3.80423 -9
    endloop
  endfacet
  facet normal 0.125337 -0.992114 0
    outer loop
      vertex 0.251162 -3.99211 -9
      vertex 0.749525 -3.92915 9
      vertex 0.251162 -3.99211 9
    endloop
  endfacet
  facet normal 0.125337 -0.992114 0
    outer loop
      vertex 0.749525 -3.92915 9
      vertex 0.251162 -3.99211 -9
      vertex 0.749525 -3.92915 -9
    endloop
  endfacet
  facet normal 0.951061 0.309004 0
    outer loop
      vertex 3.87433 0.994759 9
      vertex 3.71911 1.4725 -9
      vertex 3.71911 1.4725 9
    endloop
  endfacet
  facet normal 0.951061 0.309004 0
    outer loop
      vertex 3.71911 1.4725 -9
      vertex 3.87433 0.994759 9
      vertex 3.87433 0.994759 -9
    endloop
  endfacet
  facet normal 0.982286 0.187389 0
    outer loop
      vertex 3.96846 0.501332 9
      vertex 3.87433 0.994759 -9
      vertex 3.87433 0.994759 9
    endloop
  endfacet
  facet normal 0.982286 0.187389 0
    outer loop
      vertex 3.87433 0.994759 -9
      vertex 3.96846 0.501332 9
      vertex 3.96846 0.501332 -9
    endloop
  endfacet
  facet normal 0.770509 0.637429 0
    outer loop
      vertex 3.23607 2.35114 9
      vertex 2.91587 2.73819 -9
      vertex 2.91587 2.73819 9
    endloop
  endfacet
  facet normal 0.770509 0.637429 0
    outer loop
      vertex 2.91587 2.73819 -9
      vertex 3.23607 2.35114 9
      vertex 3.23607 2.35114 -9
    endloop
  endfacet
  facet normal 0.125337 0.992114 -0
    outer loop
      vertex 0.749525 3.92915 -9
      vertex 0.251162 3.99211 9
      vertex 0.749525 3.92915 9
    endloop
  endfacet
  facet normal 0.125337 0.992114 0
    outer loop
      vertex 0.251162 3.99211 9
      vertex 0.749525 3.92915 -9
      vertex 0.251162 3.99211 -9
    endloop
  endfacet
  facet normal -0.904824 0.425786 0
    outer loop
      vertex -3.71911 1.4725 -9
      vertex -3.50523 1.92701 9
      vertex -3.50523 1.92701 -9
    endloop
  endfacet
  facet normal -0.904824 0.425786 0
    outer loop
      vertex -3.50523 1.92701 9
      vertex -3.71911 1.4725 -9
      vertex -3.71911 1.4725 9
    endloop
  endfacet
  facet normal -0.982286 0.187389 0
    outer loop
      vertex -3.96846 0.501332 -9
      vertex -3.87433 0.994759 9
      vertex -3.87433 0.994759 -9
    endloop
  endfacet
  facet normal -0.982286 0.187389 0
    outer loop
      vertex -3.87433 0.994759 9
      vertex -3.96846 0.501332 -9
      vertex -3.96846 0.501332 9
    endloop
  endfacet
  facet normal 0 0 1
    outer loop
      vertex 2.25 0 9
      vertex 4 0 9
      vertex 3.96846 0.501332 9
    endloop
  endfacet
  facet normal 0 0 1
    outer loop
      vertex 2.23226 0.282 9
      vertex 3.96846 0.501332 9
      vertex 3.87433 0.994759 9
    endloop
  endfacet
  facet normal 0 0 1
    outer loop
      vertex 4 0 9
      vertex 2.25 0 9
      vertex 3.96846 -0.501332 9
    endloop
  endfacet
  facet normal 0 0 1
    outer loop
      vertex 2.17931 0.559552 9
      vertex 3.87433 0.994759 9
      vertex 3.71911 1.4725 9
    endloop
  endfacet
  facet normal -0 0 1
    outer loop
      vertex 2.23226 -0.282 9
      vertex 3.96846 -0.501332 9
      vertex 2.25 0 9
    endloop
  endfacet
  facet normal 0 0 1
    outer loop
      vertex 2.092 0.828279 9
      vertex 3.71911 1.4725 9
      vertex 3.50523 1.92701 9
    endloop
  endfacet
  facet normal 0 0 1
    outer loop
      vertex 3.96846 -0.501332 9
      vertex 2.23226 -0.282 9
      vertex 3.87433 -0.994759 9
    endloop
  endfacet
  facet normal 0 0 1
    outer loop
      vertex 1.97169 1.08395 9
      vertex 3.50523 1.92701 9
      vertex 3.23607 2.35114 9
    endloop
  endfacet
  facet normal -0 0 1
    outer loop
      vertex 2.17931 -0.559552 9
      vertex 3.87433 -0.994759 9
      vertex 2.23226 -0.282 9
    endloop
  endfacet
  facet normal 0 0 1
    outer loop
      vertex 1.82029 1.32252 9
      vertex 3.23607 2.35114 9
      vertex 2.91587 2.73819 9
    endloop
  endfacet
  facet normal 0 0 1
    outer loop
      vertex 3.87433 -0.994759 9
      vertex 2.17931 -0.559552 9
      vertex 3.71911 -1.4725 9
    endloop
  endfacet
  facet normal 0 0 1
    outer loop
      vertex 1.64018 1.54023 9
      vertex 2.91587 2.73819 9
      vertex 2.5497 3.08205 9
    endloop
  endfacet
  facet normal -0 0 1
    outer loop
      vertex 2.092 -0.828279 9
      vertex 3.71911 -1.4725 9
      vertex 2.17931 -0.559552 9
    endloop
  endfacet
  facet normal 0 0 1
    outer loop
      vertex 3.71911 -1.4725 9
      vertex 2.092 -0.828279 9
      vertex 3.50523 -1.92701 9
    endloop
  endfacet
  facet normal 0 0 1
    outer loop
      vertex 3.96846 0.501332 9
      vertex 2.23226 0.282 9
      vertex 2.25 0 9
    endloop
  endfacet
  facet normal 0 0 1
    outer loop
      vertex 3.87433 0.994759 9
      vertex 2.17931 0.559552 9
      vertex 2.23226 0.282 9
    endloop
  endfacet
  facet normal 0 0 1
    outer loop
      vertex 1.4342 1.73365 9
      vertex 2.5497 3.08205 9
      vertex 2.14331 3.37731 9
    endloop
  endfacet
  facet normal 0 0 1
    outer loop
      vertex 3.71911 1.4725 9
      vertex 2.092 0.828279 9
      vertex 2.17931 0.559552 9
    endloop
  endfacet
  facet normal 0 0 1
    outer loop
      vertex 3.50523 1.92701 9
      vertex 1.97169 1.08395 9
      vertex 2.092 0.828279 9
    endloop
  endfacet
  facet normal 0 0 1
    outer loop
      vertex 3.23607 2.35114 9
      vertex 1.82029 1.32252 9
      vertex 1.97169 1.08395 9
    endloop
  endfacet
  facet normal 0 0 1
    outer loop
      vertex 1.20561 1.89974 9
      vertex 2.14331 3.37731 9
      vertex 1.70312 3.61931 9
    endloop
  endfacet
  facet normal 0 0 1
    outer loop
      vertex 2.91587 2.73819 9
      vertex 1.64018 1.54023 9
      vertex 1.82029 1.32252 9
    endloop
  endfacet
  facet normal 0 0 1
    outer loop
      vertex 2.5497 3.08205 9
      vertex 1.4342 1.73365 9
      vertex 1.64018 1.54023 9
    endloop
  endfacet
  facet normal 0 0 1
    outer loop
      vertex 0.958003 2.03586 9
      vertex 1.70312 3.61931 9
      vertex 1.23607 3.80423 9
    endloop
  endfacet
  facet normal 0 0 1
    outer loop
      vertex 2.14331 3.37731 9
      vertex 1.20561 1.89974 9
      vertex 1.4342 1.73365 9
    endloop
  endfacet
  facet normal 0 0 1
    outer loop
      vertex 1.70312 3.61931 9
      vertex 0.958003 2.03586 9
      vertex 1.20561 1.89974 9
    endloop
  endfacet
  facet normal 0 0 1
    outer loop
      vertex 0.695288 2.13988 9
      vertex 1.23607 3.80423 9
      vertex 0.749525 3.92915 9
    endloop
  endfacet
  facet normal 0 0 1
    outer loop
      vertex 1.23607 3.80423 9
      vertex 0.695288 2.13988 9
      vertex 0.958003 2.03586 9
    endloop
  endfacet
  facet normal 0 0 1
    outer loop
      vertex 0.749525 3.92915 9
      vertex 0.421607 2.21015 9
      vertex 0.695288 2.13988 9
    endloop
  endfacet
  facet normal 0 0 1
    outer loop
      vertex 0.251162 3.99211 9
      vertex 0.421607 2.21015 9
      vertex 0.749525 3.92915 9
    endloop
  endfacet
  facet normal 0 0 1
    outer loop
      vertex 0.251162 3.99211 9
      vertex 0.141278 2.24556 9
      vertex 0.421607 2.21015 9
    endloop
  endfacet
  facet normal 0 0 1
    outer loop
      vertex 0.251162 3.99211 9
      vertex -0.141278 2.24556 9
      vertex 0.141278 2.24556 9
    endloop
  endfacet
  facet normal -0 0 1
    outer loop
      vertex -0.251162 3.99211 9
      vertex -0.141278 2.24556 9
      vertex 0.251162 3.99211 9
    endloop
  endfacet
  facet normal 0 0 1
    outer loop
      vertex -0.251162 3.99211 9
      vertex -0.421607 2.21015 9
      vertex -0.141278 2.24556 9
    endloop
  endfacet
  facet normal -0 0 1
    outer loop
      vertex -0.749525 3.92915 9
      vertex -0.421607 2.21015 9
      vertex -0.251162 3.99211 9
    endloop
  endfacet
  facet normal 0 0 1
    outer loop
      vertex -0.421607 2.21015 9
      vertex -0.749525 3.92915 9
      vertex -0.695288 2.13988 9
    endloop
  endfacet
  facet normal -0 0 1
    outer loop
      vertex -1.23607 3.80423 9
      vertex -0.695288 2.13988 9
      vertex -0.749525 3.92915 9
    endloop
  endfacet
  facet normal 0 0 1
    outer loop
      vertex -0.695288 2.13988 9
      vertex -1.23607 3.80423 9
      vertex -0.958003 2.03586 9
    endloop
  endfacet
  facet normal -0 0 1
    outer loop
      vertex -1.70312 3.61931 9
      vertex -0.958003 2.03586 9
      vertex -1.23607 3.80423 9
    endloop
  endfacet
  facet normal 0 0 1
    outer loop
      vertex -0.958003 2.03586 9
      vertex -1.70312 3.61931 9
      vertex -1.20561 1.89974 9
    endloop
  endfacet
  facet normal -0 0 1
    outer loop
      vertex -2.14331 3.37731 9
      vertex -1.20561 1.89974 9
      vertex -1.70312 3.61931 9
    endloop
  endfacet
  facet normal 0 0 1
    outer loop
      vertex -1.20561 1.89974 9
      vertex -2.14331 3.37731 9
      vertex -1.4342 1.73365 9
    endloop
  endfacet
  facet normal -0 0 1
    outer loop
      vertex -2.5497 3.08205 9
      vertex -1.4342 1.73365 9
      vertex -2.14331 3.37731 9
    endloop
  endfacet
  facet normal 0 0 1
    outer loop
      vertex -1.4342 1.73365 9
      vertex -2.5497 3.08205 9
      vertex -1.64018 1.54023 9
    endloop
  endfacet
  facet normal -0 0 1
    outer loop
      vertex -2.91587 2.73819 9
      vertex -1.64018 1.54023 9
      vertex -2.5497 3.08205 9
    endloop
  endfacet
  facet normal 0 0 1
    outer loop
      vertex -1.64018 1.54023 9
      vertex -2.91587 2.73819 9
      vertex -1.82029 1.32252 9
    endloop
  endfacet
  facet normal -0 0 1
    outer loop
      vertex -3.23607 2.35114 9
      vertex -1.82029 1.32252 9
      vertex -2.91587 2.73819 9
    endloop
  endfacet
  facet normal 0 0 1
    outer loop
      vertex -1.82029 1.32252 9
      vertex -3.23607 2.35114 9
      vertex -1.97169 1.08395 9
    endloop
  endfacet
  facet normal -0 0 1
    outer loop
      vertex -3.50523 1.92701 9
      vertex -1.97169 1.08395 9
      vertex -3.23607 2.35114 9
    endloop
  endfacet
  facet normal 0 0 1
    outer loop
      vertex -1.97169 1.08395 9
      vertex -3.50523 1.92701 9
      vertex -2.092 0.828279 9
    endloop
  endfacet
  facet normal -0 0 1
    outer loop
      vertex 1.97169 -1.08395 9
      vertex 3.50523 -1.92701 9
      vertex 2.092 -0.828279 9
    endloop
  endfacet
  facet normal 0 0 1
    outer loop
      vertex 3.50523 -1.92701 9
      vertex 1.97169 -1.08395 9
      vertex 3.23607 -2.35114 9
    endloop
  endfacet
  facet normal -0 0 1
    outer loop
      vertex 1.82029 -1.32252 9
      vertex 3.23607 -2.35114 9
      vertex 1.97169 -1.08395 9
    endloop
  endfacet
  facet normal 0 0 1
    outer loop
      vertex 3.23607 -2.35114 9
      vertex 1.82029 -1.32252 9
      vertex 2.91587 -2.73819 9
    endloop
  endfacet
  facet normal -0 0 1
    outer loop
      vertex 1.64018 -1.54023 9
      vertex 2.91587 -2.73819 9
      vertex 1.82029 -1.32252 9
    endloop
  endfacet
  facet normal 0 0 1
    outer loop
      vertex 2.91587 -2.73819 9
      vertex 1.64018 -1.54023 9
      vertex 2.5497 -3.08205 9
    endloop
  endfacet
  facet normal -0 0 1
    outer loop
      vertex 1.4342 -1.73365 9
      vertex 2.5497 -3.08205 9
      vertex 1.64018 -1.54023 9
    endloop
  endfacet
  facet normal 0 0 1
    outer loop
      vertex 2.5497 -3.08205 9
      vertex 1.4342 -1.73365 9
      vertex 2.14331 -3.37731 9
    endloop
  endfacet
  facet normal -0 0 1
    outer loop
      vertex 1.20561 -1.89974 9
      vertex 2.14331 -3.37731 9
      vertex 1.4342 -1.73365 9
    endloop
  endfacet
  facet normal 0 0 1
    outer loop
      vertex 2.14331 -3.37731 9
      vertex 1.20561 -1.89974 9
      vertex 1.70312 -3.61931 9
    endloop
  endfacet
  facet normal -0 0 1
    outer loop
      vertex 0.958003 -2.03586 9
      vertex 1.70312 -3.61931 9
      vertex 1.20561 -1.89974 9
    endloop
  endfacet
  facet normal 0 0 1
    outer loop
      vertex 1.70312 -3.61931 9
      vertex 0.958003 -2.03586 9
      vertex 1.23607 -3.80423 9
    endloop
  endfacet
  facet normal -0 0 1
    outer loop
      vertex 0.695288 -2.13988 9
      vertex 1.23607 -3.80423 9
      vertex 0.958003 -2.03586 9
    endloop
  endfacet
  facet normal 0 0 1
    outer loop
      vertex 1.23607 -3.80423 9
      vertex 0.695288 -2.13988 9
      vertex 0.749525 -3.92915 9
    endloop
  endfacet
  facet normal -0 0 1
    outer loop
      vertex 0.421607 -2.21015 9
      vertex 0.749525 -3.92915 9
      vertex 0.695288 -2.13988 9
    endloop
  endfacet
  facet normal 0 0 1
    outer loop
      vertex 0.421607 -2.21015 9
      vertex 0.251162 -3.99211 9
      vertex 0.749525 -3.92915 9
    endloop
  endfacet
  facet normal -0 0 1
    outer loop
      vertex 0.141278 -2.24556 9
      vertex 0.251162 -3.99211 9
      vertex 0.421607 -2.21015 9
    endloop
  endfacet
  facet normal -0 0 1
    outer loop
      vertex -0.141278 -2.24556 9
      vertex 0.251162 -3.99211 9
      vertex 0.141278 -2.24556 9
    endloop
  endfacet
  facet normal 0 0 1
    outer loop
      vertex -0.141278 -2.24556 9
      vertex -0.251162 -3.99211 9
      vertex 0.251162 -3.99211 9
    endloop
  endfacet
  facet normal 0 0 1
    outer loop
      vertex -0.421607 -2.21015 9
      vertex -0.251162 -3.99211 9
      vertex -0.141278 -2.24556 9
    endloop
  endfacet
  facet normal 0 0 1
    outer loop
      vertex -0.749525 -3.92915 9
      vertex -0.421607 -2.21015 9
      vertex -0.695288 -2.13988 9
    endloop
  endfacet
  facet normal 0 0 1
    outer loop
      vertex -0.421607 -2.21015 9
      vertex -0.749525 -3.92915 9
      vertex -0.251162 -3.99211 9
    endloop
  endfacet
  facet normal 0 0 1
    outer loop
      vertex -1.23607 -3.80423 9
      vertex -0.695288 -2.13988 9
      vertex -0.958003 -2.03586 9
    endloop
  endfacet
  facet normal 0 0 1
    outer loop
      vertex -1.70312 -3.61931 9
      vertex -0.958003 -2.03586 9
      vertex -1.20561 -1.89974 9
    endloop
  endfacet
  facet normal 0 0 1
    outer loop
      vertex -0.695288 -2.13988 9
      vertex -1.23607 -3.80423 9
      vertex -0.749525 -3.92915 9
    endloop
  endfacet
  facet normal 0 0 1
    outer loop
      vertex -2.14331 -3.37731 9
      vertex -1.20561 -1.89974 9
      vertex -1.4342 -1.73365 9
    endloop
  endfacet
  facet normal 0 0 1
    outer loop
      vertex -2.5497 -3.08205 9
      vertex -1.4342 -1.73365 9
      vertex -1.64018 -1.54023 9
    endloop
  endfacet
  facet normal 0 0 1
    outer loop
      vertex -0.958003 -2.03586 9
      vertex -1.70312 -3.61931 9
      vertex -1.23607 -3.80423 9
    endloop
  endfacet
  facet normal 0 0 1
    outer loop
      vertex -2.91587 -2.73819 9
      vertex -1.64018 -1.54023 9
      vertex -1.82029 -1.32252 9
    endloop
  endfacet
  facet normal 0 0 1
    outer loop
      vertex -3.23607 -2.35114 9
      vertex -1.82029 -1.32252 9
      vertex -1.97169 -1.08395 9
    endloop
  endfacet
  facet normal 0 0 1
    outer loop
      vertex -3.50523 -1.92701 9
      vertex -1.97169 -1.08395 9
      vertex -2.092 -0.828279 9
    endloop
  endfacet
  facet normal 0 0 1
    outer loop
      vertex -1.20561 -1.89974 9
      vertex -2.14331 -3.37731 9
      vertex -1.70312 -3.61931 9
    endloop
  endfacet
  facet normal 0 0 1
    outer loop
      vertex -3.71911 -1.4725 9
      vertex -2.092 -0.828279 9
      vertex -2.17931 -0.559552 9
    endloop
  endfacet
  facet normal 0 0 1
    outer loop
      vertex -3.87433 -0.994759 9
      vertex -2.17931 -0.559552 9
      vertex -2.23226 -0.282 9
    endloop
  endfacet
  facet normal 0 0 1
    outer loop
      vertex -3.96846 -0.501332 9
      vertex -2.23226 -0.282 9
      vertex -2.25 0 9
    endloop
  endfacet
  facet normal -0 0 1
    outer loop
      vertex -3.71911 1.4725 9
      vertex -2.092 0.828279 9
      vertex -3.50523 1.92701 9
    endloop
  endfacet
  facet normal 0 0 1
    outer loop
      vertex -1.4342 -1.73365 9
      vertex -2.5497 -3.08205 9
      vertex -2.14331 -3.37731 9
    endloop
  endfacet
  facet normal 0 0 1
    outer loop
      vertex -2.092 0.828279 9
      vertex -3.71911 1.4725 9
      vertex -2.17931 0.559552 9
    endloop
  endfacet
  facet normal 0 0 1
    outer loop
      vertex -1.64018 -1.54023 9
      vertex -2.91587 -2.73819 9
      vertex -2.5497 -3.08205 9
    endloop
  endfacet
  facet normal -0 0 1
    outer loop
      vertex -3.87433 0.994759 9
      vertex -2.17931 0.559552 9
      vertex -3.71911 1.4725 9
    endloop
  endfacet
  facet normal 0 0 1
    outer loop
      vertex -1.82029 -1.32252 9
      vertex -3.23607 -2.35114 9
      vertex -2.91587 -2.73819 9
    endloop
  endfacet
  facet normal 0 0 1
    outer loop
      vertex -2.17931 0.559552 9
      vertex -3.87433 0.994759 9
      vertex -2.23226 0.282 9
    endloop
  endfacet
  facet normal 0 0 1
    outer loop
      vertex -1.97169 -1.08395 9
      vertex -3.50523 -1.92701 9
      vertex -3.23607 -2.35114 9
    endloop
  endfacet
  facet normal -0 0 1
    outer loop
      vertex -3.96846 0.501332 9
      vertex -2.23226 0.282 9
      vertex -3.87433 0.994759 9
    endloop
  endfacet
  facet normal 0 0 1
    outer loop
      vertex -2.092 -0.828279 9
      vertex -3.71911 -1.4725 9
      vertex -3.50523 -1.92701 9
    endloop
  endfacet
  facet normal 0 0 1
    outer loop
      vertex -2.23226 0.282 9
      vertex -3.96846 0.501332 9
      vertex -2.25 0 9
    endloop
  endfacet
  facet normal 0 0 1
    outer loop
      vertex -2.17931 -0.559552 9
      vertex -3.87433 -0.994759 9
      vertex -3.71911 -1.4725 9
    endloop
  endfacet
  facet normal 0 0 1
    outer loop
      vertex -4 0 9
      vertex -2.25 0 9
      vertex -3.96846 0.501332 9
    endloop
  endfacet
  facet normal 0 0 1
    outer loop
      vertex -2.23226 -0.282 9
      vertex -3.96846 -0.501332 9
      vertex -3.87433 -0.994759 9
    endloop
  endfacet
  facet normal 0 0 1
    outer loop
      vertex -2.25 0 9
      vertex -4 0 9
      vertex -3.96846 -0.501332 9
    endloop
  endfacet
  facet normal -0.125337 0.992114 0
    outer loop
      vertex -0.251162 3.99211 -9
      vertex -0.749525 3.92915 9
      vertex -0.251162 3.99211 9
    endloop
  endfacet
  facet normal -0.125337 0.992114 0
    outer loop
      vertex -0.749525 3.92915 9
      vertex -0.251162 3.99211 -9
      vertex -0.749525 3.92915 -9
    endloop
  endfacet
  facet normal 0.770509 -0.637429 0
    outer loop
      vertex 2.91587 -2.73819 9
      vertex 3.23607 -2.35114 -9
      vertex 3.23607 -2.35114 9
    endloop
  endfacet
  facet normal 0.770509 -0.637429 0
    outer loop
      vertex 3.23607 -2.35114 -9
      vertex 2.91587 -2.73819 9
      vertex 2.91587 -2.73819 -9
    endloop
  endfacet
  facet normal 0.951061 -0.309004 0
    outer loop
      vertex 3.71911 -1.4725 9
      vertex 3.87433 -0.994759 -9
      vertex 3.87433 -0.994759 9
    endloop
  endfacet
  facet normal 0.951061 -0.309004 0
    outer loop
      vertex 3.87433 -0.994759 -9
      vertex 3.71911 -1.4725 9
      vertex 3.71911 -1.4725 -9
    endloop
  endfacet
  facet normal 0.982286 -0.187389 0
    outer loop
      vertex 3.87433 -0.994759 9
      vertex 3.96846 -0.501332 -9
      vertex 3.96846 -0.501332 9
    endloop
  endfacet
  facet normal 0.982286 -0.187389 0
    outer loop
      vertex 3.96846 -0.501332 -9
      vertex 3.87433 -0.994759 9
      vertex 3.87433 -0.994759 -9
    endloop
  endfacet
  facet normal -0.368128 -0.929775 0
    outer loop
      vertex -1.70312 -3.61931 -9
      vertex -1.23607 -3.80423 9
      vertex -1.70312 -3.61931 9
    endloop
  endfacet
  facet normal -0.368128 -0.929775 -0
    outer loop
      vertex -1.23607 -3.80423 9
      vertex -1.70312 -3.61931 -9
      vertex -1.23607 -3.80423 -9
    endloop
  endfacet
  facet normal 0 0 -1
    outer loop
      vertex 2.25 0 -9
      vertex 4 0 -9
      vertex 3.96846 -0.501332 -9
    endloop
  endfacet
  facet normal 0 0 -1
    outer loop
      vertex 2.23226 -0.282 -9
      vertex 3.96846 -0.501332 -9
      vertex 3.87433 -0.994759 -9
    endloop
  endfacet
  facet normal 0 0 -1
    outer loop
      vertex 4 0 -9
      vertex 2.25 0 -9
      vertex 3.96846 0.501332 -9
    endloop
  endfacet
  facet normal 0 0 -1
    outer loop
      vertex 2.17931 -0.559552 -9
      vertex 3.87433 -0.994759 -9
      vertex 3.71911 -1.4725 -9
    endloop
  endfacet
  facet normal 0 0 -1
    outer loop
      vertex 2.23226 0.282 -9
      vertex 3.96846 0.501332 -9
      vertex 2.25 0 -9
    endloop
  endfacet
  facet normal 0 0 -1
    outer loop
      vertex 2.092 -0.828279 -9
      vertex 3.71911 -1.4725 -9
      vertex 3.50523 -1.92701 -9
    endloop
  endfacet
  facet normal -0 0 -1
    outer loop
      vertex 3.96846 0.501332 -9
      vertex 2.23226 0.282 -9
      vertex 3.87433 0.994759 -9
    endloop
  endfacet
  facet normal 0 0 -1
    outer loop
      vertex 1.97169 -1.08395 -9
      vertex 3.50523 -1.92701 -9
      vertex 3.23607 -2.35114 -9
    endloop
  endfacet
  facet normal 0 0 -1
    outer loop
      vertex 2.17931 0.559552 -9
      vertex 3.87433 0.994759 -9
      vertex 2.23226 0.282 -9
    endloop
  endfacet
  facet normal 0 0 -1
    outer loop
      vertex 1.82029 -1.32252 -9
      vertex 3.23607 -2.35114 -9
      vertex 2.91587 -2.73819 -9
    endloop
  endfacet
  facet normal -0 0 -1
    outer loop
      vertex 3.87433 0.994759 -9
      vertex 2.17931 0.559552 -9
      vertex 3.71911 1.4725 -9
    endloop
  endfacet
  facet normal 0 0 -1
    outer loop
      vertex 1.64018 -1.54023 -9
      vertex 2.91587 -2.73819 -9
      vertex 2.5497 -3.08205 -9
    endloop
  endfacet
  facet normal 0 0 -1
    outer loop
      vertex 2.092 0.828279 -9
      vertex 3.71911 1.4725 -9
      vertex 2.17931 0.559552 -9
    endloop
  endfacet
  facet normal -0 0 -1
    outer loop
      vertex 3.71911 1.4725 -9
      vertex 2.092 0.828279 -9
      vertex 3.50523 1.92701 -9
    endloop
  endfacet
  facet normal 0 0 -1
    outer loop
      vertex 3.96846 -0.501332 -9
      vertex 2.23226 -0.282 -9
      vertex 2.25 0 -9
    endloop
  endfacet
  facet normal 0 0 -1
    outer loop
      vertex 3.87433 -0.994759 -9
      vertex 2.17931 -0.559552 -9
      vertex 2.23226 -0.282 -9
    endloop
  endfacet
  facet normal 0 0 -1
    outer loop
      vertex 1.4342 -1.73365 -9
      vertex 2.5497 -3.08205 -9
      vertex 2.14331 -3.37731 -9
    endloop
  endfacet
  facet normal 0 0 -1
    outer loop
      vertex 3.71911 -1.4725 -9
      vertex 2.092 -0.828279 -9
      vertex 2.17931 -0.559552 -9
    endloop
  endfacet
  facet normal 0 0 -1
    outer loop
      vertex 3.50523 -1.92701 -9
      vertex 1.97169 -1.08395 -9
      vertex 2.092 -0.828279 -9
    endloop
  endfacet
  facet normal 0 0 -1
    outer loop
      vertex 3.23607 -2.35114 -9
      vertex 1.82029 -1.32252 -9
      vertex 1.97169 -1.08395 -9
    endloop
  endfacet
  facet normal 0 0 -1
    outer loop
      vertex 1.20561 -1.89974 -9
      vertex 2.14331 -3.37731 -9
      vertex 1.70312 -3.61931 -9
    endloop
  endfacet
  facet normal 0 0 -1
    outer loop
      vertex 2.91587 -2.73819 -9
      vertex 1.64018 -1.54023 -9
      vertex 1.82029 -1.32252 -9
    endloop
  endfacet
  facet normal 0 0 -1
    outer loop
      vertex 2.5497 -3.08205 -9
      vertex 1.4342 -1.73365 -9
      vertex 1.64018 -1.54023 -9
    endloop
  endfacet
  facet normal 0 0 -1
    outer loop
      vertex 0.958003 -2.03586 -9
      vertex 1.70312 -3.61931 -9
      vertex 1.23607 -3.80423 -9
    endloop
  endfacet
  facet normal 0 0 -1
    outer loop
      vertex 2.14331 -3.37731 -9
      vertex 1.20561 -1.89974 -9
      vertex 1.4342 -1.73365 -9
    endloop
  endfacet
  facet normal 0 0 -1
    outer loop
      vertex 1.70312 -3.61931 -9
      vertex 0.958003 -2.03586 -9
      vertex 1.20561 -1.89974 -9
    endloop
  endfacet
  facet normal 0 0 -1
    outer loop
      vertex 0.695288 -2.13988 -9
      vertex 1.23607 -3.80423 -9
      vertex 0.749525 -3.92915 -9
    endloop
  endfacet
  facet normal 0 0 -1
    outer loop
      vertex 1.23607 -3.80423 -9
      vertex 0.695288 -2.13988 -9
      vertex 0.958003 -2.03586 -9
    endloop
  endfacet
  facet normal 0 0 -1
    outer loop
      vertex 0.749525 -3.92915 -9
      vertex 0.421607 -2.21015 -9
      vertex 0.695288 -2.13988 -9
    endloop
  endfacet
  facet normal 0 0 -1
    outer loop
      vertex 0.251162 -3.99211 -9
      vertex 0.421607 -2.21015 -9
      vertex 0.749525 -3.92915 -9
    endloop
  endfacet
  facet normal 0 0 -1
    outer loop
      vertex 0.251162 -3.99211 -9
      vertex 0.141278 -2.24556 -9
      vertex 0.421607 -2.21015 -9
    endloop
  endfacet
  facet normal 0 0 -1
    outer loop
      vertex 0.251162 -3.99211 -9
      vertex -0.141278 -2.24556 -9
      vertex 0.141278 -2.24556 -9
    endloop
  endfacet
  facet normal 0 0 -1
    outer loop
      vertex -0.251162 -3.99211 -9
      vertex -0.141278 -2.24556 -9
      vertex 0.251162 -3.99211 -9
    endloop
  endfacet
  facet normal 0 0 -1
    outer loop
      vertex -0.251162 -3.99211 -9
      vertex -0.421607 -2.21015 -9
      vertex -0.141278 -2.24556 -9
    endloop
  endfacet
  facet normal 0 0 -1
    outer loop
      vertex -0.749525 -3.92915 -9
      vertex -0.421607 -2.21015 -9
      vertex -0.251162 -3.99211 -9
    endloop
  endfacet
  facet normal -0 0 -1
    outer loop
      vertex -0.421607 -2.21015 -9
      vertex -0.749525 -3.92915 -9
      vertex -0.695288 -2.13988 -9
    endloop
  endfacet
  facet normal 0 0 -1
    outer loop
      vertex -1.23607 -3.80423 -9
      vertex -0.695288 -2.13988 -9
      vertex -0.749525 -3.92915 -9
    endloop
  endfacet
  facet normal -0 0 -1
    outer loop
      vertex -0.695288 -2.13988 -9
      vertex -1.23607 -3.80423 -9
      vertex -0.958003 -2.03586 -9
    endloop
  endfacet
  facet normal 0 0 -1
    outer loop
      vertex -1.70312 -3.61931 -9
      vertex -0.958003 -2.03586 -9
      vertex -1.23607 -3.80423 -9
    endloop
  endfacet
  facet normal -0 0 -1
    outer loop
      vertex -0.958003 -2.03586 -9
      vertex -1.70312 -3.61931 -9
      vertex -1.20561 -1.89974 -9
    endloop
  endfacet
  facet normal 0 0 -1
    outer loop
      vertex -2.14331 -3.37731 -9
      vertex -1.20561 -1.89974 -9
      vertex -1.70312 -3.61931 -9
    endloop
  endfacet
  facet normal -0 0 -1
    outer loop
      vertex -1.20561 -1.89974 -9
      vertex -2.14331 -3.37731 -9
      vertex -1.4342 -1.73365 -9
    endloop
  endfacet
  facet normal 0 0 -1
    outer loop
      vertex -2.5497 -3.08205 -9
      vertex -1.4342 -1.73365 -9
      vertex -2.14331 -3.37731 -9
    endloop
  endfacet
  facet normal -0 0 -1
    outer loop
      vertex -1.4342 -1.73365 -9
      vertex -2.5497 -3.08205 -9
      vertex -1.64018 -1.54023 -9
    endloop
  endfacet
  facet normal 0 0 -1
    outer loop
      vertex -2.91587 -2.73819 -9
      vertex -1.64018 -1.54023 -9
      vertex -2.5497 -3.08205 -9
    endloop
  endfacet
  facet normal -0 0 -1
    outer loop
      vertex -1.64018 -1.54023 -9
      vertex -2.91587 -2.73819 -9
      vertex -1.82029 -1.32252 -9
    endloop
  endfacet
  facet normal 0 0 -1
    outer loop
      vertex -3.23607 -2.35114 -9
      vertex -1.82029 -1.32252 -9
      vertex -2.91587 -2.73819 -9
    endloop
  endfacet
  facet normal -0 0 -1
    outer loop
      vertex -1.82029 -1.32252 -9
      vertex -3.23607 -2.35114 -9
      vertex -1.97169 -1.08395 -9
    endloop
  endfacet
  facet normal 0 0 -1
    outer loop
      vertex -3.50523 -1.92701 -9
      vertex -1.97169 -1.08395 -9
      vertex -3.23607 -2.35114 -9
    endloop
  endfacet
  facet normal -0 0 -1
    outer loop
      vertex -1.97169 -1.08395 -9
      vertex -3.50523 -1.92701 -9
      vertex -2.092 -0.828279 -9
    endloop
  endfacet
  facet normal 0 0 -1
    outer loop
      vertex 1.97169 1.08395 -9
      vertex 3.50523 1.92701 -9
      vertex 2.092 0.828279 -9
    endloop
  endfacet
  facet normal -0 0 -1
    outer loop
      vertex 3.50523 1.92701 -9
      vertex 1.97169 1.08395 -9
      vertex 3.23607 2.35114 -9
    endloop
  endfacet
  facet normal 0 0 -1
    outer loop
      vertex 1.82029 1.32252 -9
      vertex 3.23607 2.35114 -9
      vertex 1.97169 1.08395 -9
    endloop
  endfacet
  facet normal -0 0 -1
    outer loop
      vertex 3.23607 2.35114 -9
      vertex 1.82029 1.32252 -9
      vertex 2.91587 2.73819 -9
    endloop
  endfacet
  facet normal 0 0 -1
    outer loop
      vertex 1.64018 1.54023 -9
      vertex 2.91587 2.73819 -9
      vertex 1.82029 1.32252 -9
    endloop
  endfacet
  facet normal -0 0 -1
    outer loop
      vertex 2.91587 2.73819 -9
      vertex 1.64018 1.54023 -9
      vertex 2.5497 3.08205 -9
    endloop
  endfacet
  facet normal 0 0 -1
    outer loop
      vertex 1.4342 1.73365 -9
      vertex 2.5497 3.08205 -9
      vertex 1.64018 1.54023 -9
    endloop
  endfacet
  facet normal -0 0 -1
    outer loop
      vertex 2.5497 3.08205 -9
      vertex 1.4342 1.73365 -9
      vertex 2.14331 3.37731 -9
    endloop
  endfacet
  facet normal 0 0 -1
    outer loop
      vertex 1.20561 1.89974 -9
      vertex 2.14331 3.37731 -9
      vertex 1.4342 1.73365 -9
    endloop
  endfacet
  facet normal -0 0 -1
    outer loop
      vertex 2.14331 3.37731 -9
      vertex 1.20561 1.89974 -9
      vertex 1.70312 3.61931 -9
    endloop
  endfacet
  facet normal 0 0 -1
    outer loop
      vertex 0.958003 2.03586 -9
      vertex 1.70312 3.61931 -9
      vertex 1.20561 1.89974 -9
    endloop
  endfacet
  facet normal -0 0 -1
    outer loop
      vertex 1.70312 3.61931 -9
      vertex 0.958003 2.03586 -9
      vertex 1.23607 3.80423 -9
    endloop
  endfacet
  facet normal 0 0 -1
    outer loop
      vertex 0.695288 2.13988 -9
      vertex 1.23607 3.80423 -9
      vertex 0.958003 2.03586 -9
    endloop
  endfacet
  facet normal -0 0 -1
    outer loop
      vertex 1.23607 3.80423 -9
      vertex 0.695288 2.13988 -9
      vertex 0.749525 3.92915 -9
    endloop
  endfacet
  facet normal 0 0 -1
    outer loop
      vertex 0.421607 2.21015 -9
      vertex 0.749525 3.92915 -9
      vertex 0.695288 2.13988 -9
    endloop
  endfacet
  facet normal 0 0 -1
    outer loop
      vertex 0.421607 2.21015 -9
      vertex 0.251162 3.99211 -9
      vertex 0.749525 3.92915 -9
    endloop
  endfacet
  facet normal 0 0 -1
    outer loop
      vertex 0.141278 2.24556 -9
      vertex 0.251162 3.99211 -9
      vertex 0.421607 2.21015 -9
    endloop
  endfacet
  facet normal 0 0 -1
    outer loop
      vertex -0.141278 2.24556 -9
      vertex 0.251162 3.99211 -9
      vertex 0.141278 2.24556 -9
    endloop
  endfacet
  facet normal 0 0 -1
    outer loop
      vertex -0.141278 2.24556 -9
      vertex -0.251162 3.99211 -9
      vertex 0.251162 3.99211 -9
    endloop
  endfacet
  facet normal 0 0 -1
    outer loop
      vertex -0.421607 2.21015 -9
      vertex -0.251162 3.99211 -9
      vertex -0.141278 2.24556 -9
    endloop
  endfacet
  facet normal 0 0 -1
    outer loop
      vertex -0.749525 3.92915 -9
      vertex -0.421607 2.21015 -9
      vertex -0.695288 2.13988 -9
    endloop
  endfacet
  facet normal 0 0 -1
    outer loop
      vertex -0.421607 2.21015 -9
      vertex -0.749525 3.92915 -9
      vertex -0.251162 3.99211 -9
    endloop
  endfacet
  facet normal 0 0 -1
    outer loop
      vertex -1.23607 3.80423 -9
      vertex -0.695288 2.13988 -9
      vertex -0.958003 2.03586 -9
    endloop
  endfacet
  facet normal 0 0 -1
    outer loop
      vertex -1.70312 3.61931 -9
      vertex -0.958003 2.03586 -9
      vertex -1.20561 1.89974 -9
    endloop
  endfacet
  facet normal 0 0 -1
    outer loop
      vertex -0.695288 2.13988 -9
      vertex -1.23607 3.80423 -9
      vertex -0.749525 3.92915 -9
    endloop
  endfacet
  facet normal 0 0 -1
    outer loop
      vertex -2.14331 3.37731 -9
      vertex -1.20561 1.89974 -9
      vertex -1.4342 1.73365 -9
    endloop
  endfacet
  facet normal 0 0 -1
    outer loop
      vertex -2.5497 3.08205 -9
      vertex -1.4342 1.73365 -9
      vertex -1.64018 1.54023 -9
    endloop
  endfacet
  facet normal 0 0 -1
    outer loop
      vertex -0.958003 2.03586 -9
      vertex -1.70312 3.61931 -9
      vertex -1.23607 3.80423 -9
    endloop
  endfacet
  facet normal 0 0 -1
    outer loop
      vertex -2.91587 2.73819 -9
      vertex -1.64018 1.54023 -9
      vertex -1.82029 1.32252 -9
    endloop
  endfacet
  facet normal 0 0 -1
    outer loop
      vertex -3.23607 2.35114 -9
      vertex -1.82029 1.32252 -9
      vertex -1.97169 1.08395 -9
    endloop
  endfacet
  facet normal 0 0 -1
    outer loop
      vertex -3.50523 1.92701 -9
      vertex -1.97169 1.08395 -9
      vertex -2.092 0.828279 -9
    endloop
  endfacet
  facet normal 0 0 -1
    outer loop
      vertex -1.20561 1.89974 -9
      vertex -2.14331 3.37731 -9
      vertex -1.70312 3.61931 -9
    endloop
  endfacet
  facet normal 0 0 -1
    outer loop
      vertex -3.71911 1.4725 -9
      vertex -2.092 0.828279 -9
      vertex -2.17931 0.559552 -9
    endloop
  endfacet
  facet normal 0 0 -1
    outer loop
      vertex -3.87433 0.994759 -9
      vertex -2.17931 0.559552 -9
      vertex -2.23226 0.282 -9
    endloop
  endfacet
  facet normal 0 0 -1
    outer loop
      vertex -3.96846 0.501332 -9
      vertex -2.23226 0.282 -9
      vertex -2.25 0 -9
    endloop
  endfacet
  facet normal 0 0 -1
    outer loop
      vertex -3.71911 -1.4725 -9
      vertex -2.092 -0.828279 -9
      vertex -3.50523 -1.92701 -9
    endloop
  endfacet
  facet normal 0 0 -1
    outer loop
      vertex -1.4342 1.73365 -9
      vertex -2.5497 3.08205 -9
      vertex -2.14331 3.37731 -9
    endloop
  endfacet
  facet normal -0 0 -1
    outer loop
      vertex -2.092 -0.828279 -9
      vertex -3.71911 -1.4725 -9
      vertex -2.17931 -0.559552 -9
    endloop
  endfacet
  facet normal 0 0 -1
    outer loop
      vertex -1.64018 1.54023 -9
      vertex -2.91587 2.73819 -9
      vertex -2.5497 3.08205 -9
    endloop
  endfacet
  facet normal 0 0 -1
    outer loop
      vertex -3.87433 -0.994759 -9
      vertex -2.17931 -0.559552 -9
      vertex -3.71911 -1.4725 -9
    endloop
  endfacet
  facet normal 0 0 -1
    outer loop
      vertex -1.82029 1.32252 -9
      vertex -3.23607 2.35114 -9
      vertex -2.91587 2.73819 -9
    endloop
  endfacet
  facet normal -0 0 -1
    outer loop
      vertex -2.17931 -0.559552 -9
      vertex -3.87433 -0.994759 -9
      vertex -2.23226 -0.282 -9
    endloop
  endfacet
  facet normal 0 0 -1
    outer loop
      vertex -1.97169 1.08395 -9
      vertex -3.50523 1.92701 -9
      vertex -3.23607 2.35114 -9
    endloop
  endfacet
  facet normal 0 0 -1
    outer loop
      vertex -3.96846 -0.501332 -9
      vertex -2.23226 -0.282 -9
      vertex -3.87433 -0.994759 -9
    endloop
  endfacet
  facet normal 0 0 -1
    outer loop
      vertex -2.092 0.828279 -9
      vertex -3.71911 1.4725 -9
      vertex -3.50523 1.92701 -9
    endloop
  endfacet
  facet normal -0 0 -1
    outer loop
      vertex -2.23226 -0.282 -9
      vertex -3.96846 -0.501332 -9
      vertex -2.25 0 -9
    endloop
  endfacet
  facet normal 0 0 -1
    outer loop
      vertex -2.17931 0.559552 -9
      vertex -3.87433 0.994759 -9
      vertex -3.71911 1.4725 -9
    endloop
  endfacet
  facet normal 0 0 -1
    outer loop
      vertex -4 0 -9
      vertex -2.25 0 -9
      vertex -3.96846 -0.501332 -9
    endloop
  endfacet
  facet normal 0 0 -1
    outer loop
      vertex -2.23226 0.282 -9
      vertex -3.96846 0.501332 -9
      vertex -3.87433 0.994759 -9
    endloop
  endfacet
  facet normal 0 0 -1
    outer loop
      vertex -2.25 0 -9
      vertex -4 0 -9
      vertex -3.96846 0.501332 -9
    endloop
  endfacet
  facet normal 0.368128 -0.929775 0
    outer loop
      vertex 1.23607 -3.80423 -9
      vertex 1.70312 -3.61931 9
      vertex 1.23607 -3.80423 9
    endloop
  endfacet
  facet normal 0.368128 -0.929775 0
    outer loop
      vertex 1.70312 -3.61931 9
      vertex 1.23607 -3.80423 -9
      vertex 1.70312 -3.61931 -9
    endloop
  endfacet
  facet normal 0.481759 0.876304 -0
    outer loop
      vertex 2.14331 3.37731 -9
      vertex 1.70312 3.61931 9
      vertex 2.14331 3.37731 9
    endloop
  endfacet
  facet normal 0.481759 0.876304 0
    outer loop
      vertex 1.70312 3.61931 9
      vertex 2.14331 3.37731 -9
      vertex 1.70312 3.61931 -9
    endloop
  endfacet
  facet normal -0.587786 0.809017 0
    outer loop
      vertex -2.14331 3.37731 -9
      vertex -2.5497 3.08205 9
      vertex -2.14331 3.37731 9
    endloop
  endfacet
  facet normal -0.587786 0.809017 0
    outer loop
      vertex -2.5497 3.08205 9
      vertex -2.14331 3.37731 -9
      vertex -2.5497 3.08205 -9
    endloop
  endfacet
  facet normal 0.481759 -0.876304 0
    outer loop
      vertex 1.70312 -3.61931 -9
      vertex 2.14331 -3.37731 9
      vertex 1.70312 -3.61931 9
    endloop
  endfacet
  facet normal 0.481759 -0.876304 0
    outer loop
      vertex 2.14331 -3.37731 9
      vertex 1.70312 -3.61931 -9
      vertex 2.14331 -3.37731 -9
    endloop
  endfacet
  facet normal 0.844329 -0.535825 0
    outer loop
      vertex 3.23607 -2.35114 9
      vertex 3.50523 -1.92701 -9
      vertex 3.50523 -1.92701 9
    endloop
  endfacet
  facet normal 0.844329 -0.535825 0
    outer loop
      vertex 3.50523 -1.92701 -9
      vertex 3.23607 -2.35114 9
      vertex 3.23607 -2.35114 -9
    endloop
  endfacet
  facet normal 0.998027 -0.0627883 0
    outer loop
      vertex 3.96846 -0.501332 9
      vertex 4 0 -9
      vertex 4 0 9
    endloop
  endfacet
  facet normal 0.998027 -0.0627883 0
    outer loop
      vertex 4 0 -9
      vertex 3.96846 -0.501332 9
      vertex 3.96846 -0.501332 -9
    endloop
  endfacet
  facet normal -0.248683 -0.968585 0
    outer loop
      vertex -1.23607 -3.80423 -9
      vertex -0.749525 -3.92915 9
      vertex -1.23607 -3.80423 9
    endloop
  endfacet
  facet normal -0.248683 -0.968585 -0
    outer loop
      vertex -0.749525 -3.92915 9
      vertex -1.23607 -3.80423 -9
      vertex -0.749525 -3.92915 -9
    endloop
  endfacet
  facet normal -0.770509 -0.637429 0
    outer loop
      vertex -2.91587 -2.73819 -9
      vertex -3.23607 -2.35114 9
      vertex -3.23607 -2.35114 -9
    endloop
  endfacet
  facet normal -0.770509 -0.637429 0
    outer loop
      vertex -3.23607 -2.35114 9
      vertex -2.91587 -2.73819 -9
      vertex -2.91587 -2.73819 9
    endloop
  endfacet
  facet normal -0.951061 -0.309004 0
    outer loop
      vertex -3.71911 -1.4725 -9
      vertex -3.87433 -0.994759 9
      vertex -3.87433 -0.994759 -9
    endloop
  endfacet
  facet normal -0.951061 -0.309004 0
    outer loop
      vertex -3.87433 -0.994759 9
      vertex -3.71911 -1.4725 -9
      vertex -3.71911 -1.4725 9
    endloop
  endfacet
  facet normal 0.248683 -0.968585 0
    outer loop
      vertex 0.749525 -3.92915 -9
      vertex 1.23607 -3.80423 9
      vertex 0.749525 -3.92915 9
    endloop
  endfacet
  facet normal 0.248683 -0.968585 0
    outer loop
      vertex 1.23607 -3.80423 9
      vertex 0.749525 -3.92915 -9
      vertex 1.23607 -3.80423 -9
    endloop
  endfacet
  facet normal 0.684551 -0.728965 0
    outer loop
      vertex 2.5497 -3.08205 -9
      vertex 2.91587 -2.73819 9
      vertex 2.5497 -3.08205 9
    endloop
  endfacet
  facet normal 0.684551 -0.728965 0
    outer loop
      vertex 2.91587 -2.73819 9
      vertex 2.5497 -3.08205 -9
      vertex 2.91587 -2.73819 -9
    endloop
  endfacet
  facet normal 0.587786 -0.809017 0
    outer loop
      vertex 2.14331 -3.37731 -9
      vertex 2.5497 -3.08205 9
      vertex 2.14331 -3.37731 9
    endloop
  endfacet
  facet normal 0.587786 -0.809017 0
    outer loop
      vertex 2.5497 -3.08205 9
      vertex 2.14331 -3.37731 -9
      vertex 2.5497 -3.08205 -9
    endloop
  endfacet
  facet normal 0.904824 -0.425786 0
    outer loop
      vertex 3.50523 -1.92701 9
      vertex 3.71911 -1.4725 -9
      vertex 3.71911 -1.4725 9
    endloop
  endfacet
  facet normal 0.904824 -0.425786 0
    outer loop
      vertex 3.71911 -1.4725 -9
      vertex 3.50523 -1.92701 9
      vertex 3.50523 -1.92701 -9
    endloop
  endfacet
  facet normal -0.125337 -0.992114 0
    outer loop
      vertex -0.749525 -3.92915 -9
      vertex -0.251162 -3.99211 9
      vertex -0.749525 -3.92915 9
    endloop
  endfacet
  facet normal -0.125337 -0.992114 -0
    outer loop
      vertex -0.251162 -3.99211 9
      vertex -0.749525 -3.92915 -9
      vertex -0.251162 -3.99211 -9
    endloop
  endfacet
  facet normal -0.684551 -0.728965 0
    outer loop
      vertex -2.91587 -2.73819 -9
      vertex -2.5497 -3.08205 9
      vertex -2.91587 -2.73819 9
    endloop
  endfacet
  facet normal -0.684551 -0.728965 -0
    outer loop
      vertex -2.5497 -3.08205 9
      vertex -2.91587 -2.73819 -9
      vertex -2.5497 -3.08205 -9
    endloop
  endfacet
  facet normal -0.481759 -0.876304 0
    outer loop
      vertex -2.14331 -3.37731 -9
      vertex -1.70312 -3.61931 9
      vertex -2.14331 -3.37731 9
    endloop
  endfacet
  facet normal -0.481759 -0.876304 -0
    outer loop
      vertex -1.70312 -3.61931 9
      vertex -2.14331 -3.37731 -9
      vertex -1.70312 -3.61931 -9
    endloop
  endfacet
  facet normal -0.844329 -0.535825 0
    outer loop
      vertex -3.23607 -2.35114 -9
      vertex -3.50523 -1.92701 9
      vertex -3.50523 -1.92701 -9
    endloop
  endfacet
  facet normal -0.844329 -0.535825 0
    outer loop
      vertex -3.50523 -1.92701 9
      vertex -3.23607 -2.35114 -9
      vertex -3.23607 -2.35114 9
    endloop
  endfacet
  facet normal -0.904824 -0.425786 0
    outer loop
      vertex -3.50523 -1.92701 -9
      vertex -3.71911 -1.4725 9
      vertex -3.71911 -1.4725 -9
    endloop
  endfacet
  facet normal -0.904824 -0.425786 0
    outer loop
      vertex -3.71911 -1.4725 9
      vertex -3.50523 -1.92701 -9
      vertex -3.50523 -1.92701 9
    endloop
  endfacet
  facet normal -0.982286 -0.187389 0
    outer loop
      vertex -3.87433 -0.994759 -9
      vertex -3.96846 -0.501332 9
      vertex -3.96846 -0.501332 -9
    endloop
  endfacet
  facet normal -0.982286 -0.187389 0
    outer loop
      vertex -3.96846 -0.501332 9
      vertex -3.87433 -0.994759 -9
      vertex -3.87433 -0.994759 9
    endloop
  endfacet
  facet normal -0.998027 -0.0627883 0
    outer loop
      vertex -3.96846 -0.501332 -9
      vertex -4 0 9
      vertex -4 0 -9
    endloop
  endfacet
  facet normal -0.998027 -0.0627883 0
    outer loop
      vertex -4 0 9
      vertex -3.96846 -0.501332 -9
      vertex -3.96846 -0.501332 9
    endloop
  endfacet
  facet normal -0.587786 -0.809017 0
    outer loop
      vertex -2.5497 -3.08205 -9
      vertex -2.14331 -3.37731 9
      vertex -2.5497 -3.08205 9
    endloop
  endfacet
  facet normal -0.587786 -0.809017 -0
    outer loop
      vertex -2.14331 -3.37731 9
      vertex -2.5497 -3.08205 -9
      vertex -2.14331 -3.37731 -9
    endloop
  endfacet
  facet normal 0.951061 -0.309002 0
    outer loop
      vertex -2.17931 0.559552 9
      vertex -2.092 0.828279 -9
      vertex -2.092 0.828279 9
    endloop
  endfacet
  facet normal 0.951061 -0.309002 0
    outer loop
      vertex -2.092 0.828279 -9
      vertex -2.17931 0.559552 9
      vertex -2.17931 0.559552 -9
    endloop
  endfacet
  facet normal -0.84433 -0.535824 0
    outer loop
      vertex 1.97169 1.08395 -9
      vertex 1.82029 1.32252 9
      vertex 1.82029 1.32252 -9
    endloop
  endfacet
  facet normal -0.84433 -0.535824 0
    outer loop
      vertex 1.82029 1.32252 9
      vertex 1.97169 1.08395 -9
      vertex 1.97169 1.08395 9
    endloop
  endfacet
  facet normal -0.248692 -0.968583 0
    outer loop
      vertex 0.421607 2.21015 -9
      vertex 0.695288 2.13988 9
      vertex 0.421607 2.21015 9
    endloop
  endfacet
  facet normal -0.248692 -0.968583 -0
    outer loop
      vertex 0.695288 2.13988 9
      vertex 0.421607 2.21015 -9
      vertex 0.695288 2.13988 -9
    endloop
  endfacet
  facet normal -0.368136 -0.929772 0
    outer loop
      vertex 0.695288 2.13988 -9
      vertex 0.958003 2.03586 9
      vertex 0.695288 2.13988 9
    endloop
  endfacet
  facet normal -0.368136 -0.929772 -0
    outer loop
      vertex 0.958003 2.03586 9
      vertex 0.695288 2.13988 -9
      vertex 0.958003 2.03586 -9
    endloop
  endfacet
  facet normal 0.368136 -0.929772 0
    outer loop
      vertex -0.958003 2.03586 -9
      vertex -0.695288 2.13988 9
      vertex -0.958003 2.03586 9
    endloop
  endfacet
  facet normal 0.368136 -0.929772 0
    outer loop
      vertex -0.695288 2.13988 9
      vertex -0.958003 2.03586 -9
      vertex -0.695288 2.13988 -9
    endloop
  endfacet
  facet normal 0.904827 -0.42578 0
    outer loop
      vertex -2.092 0.828279 9
      vertex -1.97169 1.08395 -9
      vertex -1.97169 1.08395 9
    endloop
  endfacet
  facet normal 0.904827 -0.42578 0
    outer loop
      vertex -1.97169 1.08395 -9
      vertex -2.092 0.828279 9
      vertex -2.092 0.828279 -9
    endloop
  endfacet
  facet normal -0.982285 0.187395 0
    outer loop
      vertex 2.17931 -0.559552 -9
      vertex 2.23226 -0.282 9
      vertex 2.23226 -0.282 -9
    endloop
  endfacet
  facet normal -0.982285 0.187395 0
    outer loop
      vertex 2.23226 -0.282 9
      vertex 2.17931 -0.559552 -9
      vertex 2.17931 -0.559552 9
    endloop
  endfacet
  facet normal -0.684532 -0.728983 0
    outer loop
      vertex 1.4342 1.73365 -9
      vertex 1.64018 1.54023 9
      vertex 1.4342 1.73365 9
    endloop
  endfacet
  facet normal -0.684532 -0.728983 -0
    outer loop
      vertex 1.64018 1.54023 9
      vertex 1.4342 1.73365 -9
      vertex 1.64018 1.54023 -9
    endloop
  endfacet
  facet normal -0.587808 -0.809001 0
    outer loop
      vertex 1.20561 1.89974 -9
      vertex 1.4342 1.73365 9
      vertex 1.20561 1.89974 9
    endloop
  endfacet
  facet normal -0.587808 -0.809001 -0
    outer loop
      vertex 1.4342 1.73365 9
      vertex 1.20561 1.89974 -9
      vertex 1.4342 1.73365 -9
    endloop
  endfacet
  facet normal 0.982285 -0.187395 0
    outer loop
      vertex -2.23226 0.282 9
      vertex -2.17931 0.559552 -9
      vertex -2.17931 0.559552 9
    endloop
  endfacet
  facet normal 0.982285 -0.187395 0
    outer loop
      vertex -2.17931 0.559552 -9
      vertex -2.23226 0.282 9
      vertex -2.23226 0.282 -9
    endloop
  endfacet
  facet normal 0.770505 -0.637434 0
    outer loop
      vertex -1.82029 1.32252 9
      vertex -1.64018 1.54023 -9
      vertex -1.64018 1.54023 9
    endloop
  endfacet
  facet normal 0.770505 -0.637434 0
    outer loop
      vertex -1.64018 1.54023 -9
      vertex -1.82029 1.32252 9
      vertex -1.82029 1.32252 -9
    endloop
  endfacet
  facet normal 0.481745 -0.876311 0
    outer loop
      vertex -1.20561 1.89974 -9
      vertex -0.958003 2.03586 9
      vertex -1.20561 1.89974 9
    endloop
  endfacet
  facet normal 0.481745 -0.876311 0
    outer loop
      vertex -0.958003 2.03586 9
      vertex -1.20561 1.89974 -9
      vertex -0.958003 2.03586 -9
    endloop
  endfacet
  facet normal 0.12532 -0.992116 0
    outer loop
      vertex -0.421607 2.21015 -9
      vertex -0.141278 2.24556 9
      vertex -0.421607 2.21015 9
    endloop
  endfacet
  facet normal 0.12532 -0.992116 0
    outer loop
      vertex -0.141278 2.24556 9
      vertex -0.421607 2.21015 -9
      vertex -0.141278 2.24556 -9
    endloop
  endfacet
  facet normal -0.998027 -0.0627837 0
    outer loop
      vertex 2.25 0 -9
      vertex 2.23226 0.282 9
      vertex 2.23226 0.282 -9
    endloop
  endfacet
  facet normal -0.998027 -0.0627837 0
    outer loop
      vertex 2.23226 0.282 9
      vertex 2.25 0 -9
      vertex 2.25 0 9
    endloop
  endfacet
  facet normal -0.951061 0.309002 0
    outer loop
      vertex 2.092 -0.828279 -9
      vertex 2.17931 -0.559552 9
      vertex 2.17931 -0.559552 -9
    endloop
  endfacet
  facet normal -0.951061 0.309002 0
    outer loop
      vertex 2.17931 -0.559552 9
      vertex 2.092 -0.828279 -9
      vertex 2.092 -0.828279 9
    endloop
  endfacet
  facet normal 0.684532 0.728983 -0
    outer loop
      vertex -1.4342 -1.73365 -9
      vertex -1.64018 -1.54023 9
      vertex -1.4342 -1.73365 9
    endloop
  endfacet
  facet normal 0.684532 0.728983 0
    outer loop
      vertex -1.64018 -1.54023 9
      vertex -1.4342 -1.73365 -9
      vertex -1.64018 -1.54023 -9
    endloop
  endfacet
  facet normal 0.904827 0.42578 0
    outer loop
      vertex -1.97169 -1.08395 9
      vertex -2.092 -0.828279 -9
      vertex -2.092 -0.828279 9
    endloop
  endfacet
  facet normal 0.904827 0.42578 0
    outer loop
      vertex -2.092 -0.828279 -9
      vertex -1.97169 -1.08395 9
      vertex -1.97169 -1.08395 -9
    endloop
  endfacet
  facet normal -0.587808 0.809001 0
    outer loop
      vertex 1.4342 -1.73365 -9
      vertex 1.20561 -1.89974 9
      vertex 1.4342 -1.73365 9
    endloop
  endfacet
  facet normal -0.587808 0.809001 0
    outer loop
      vertex 1.20561 -1.89974 9
      vertex 1.4342 -1.73365 -9
      vertex 1.20561 -1.89974 -9
    endloop
  endfacet
  facet normal -0.770505 -0.637434 0
    outer loop
      vertex 1.82029 1.32252 -9
      vertex 1.64018 1.54023 9
      vertex 1.64018 1.54023 -9
    endloop
  endfacet
  facet normal -0.770505 -0.637434 0
    outer loop
      vertex 1.64018 1.54023 9
      vertex 1.82029 1.32252 -9
      vertex 1.82029 1.32252 9
    endloop
  endfacet
  facet normal 0 -1 0
    outer loop
      vertex -0.141278 2.24556 -9
      vertex 0.141278 2.24556 9
      vertex -0.141278 2.24556 9
    endloop
  endfacet
  facet normal 0 -1 -0
    outer loop
      vertex 0.141278 2.24556 9
      vertex -0.141278 2.24556 -9
      vertex 0.141278 2.24556 -9
    endloop
  endfacet
  facet normal -0.481745 -0.876311 0
    outer loop
      vertex 0.958003 2.03586 -9
      vertex 1.20561 1.89974 9
      vertex 0.958003 2.03586 9
    endloop
  endfacet
  facet normal -0.481745 -0.876311 -0
    outer loop
      vertex 1.20561 1.89974 9
      vertex 0.958003 2.03586 -9
      vertex 1.20561 1.89974 -9
    endloop
  endfacet
  facet normal 0.998027 -0.0627837 0
    outer loop
      vertex -2.25 0 9
      vertex -2.23226 0.282 -9
      vertex -2.23226 0.282 9
    endloop
  endfacet
  facet normal 0.998027 -0.0627837 0
    outer loop
      vertex -2.23226 0.282 -9
      vertex -2.25 0 9
      vertex -2.25 0 -9
    endloop
  endfacet
  facet normal 0.84433 -0.535824 0
    outer loop
      vertex -1.97169 1.08395 9
      vertex -1.82029 1.32252 -9
      vertex -1.82029 1.32252 9
    endloop
  endfacet
  facet normal 0.84433 -0.535824 0
    outer loop
      vertex -1.82029 1.32252 -9
      vertex -1.97169 1.08395 9
      vertex -1.97169 1.08395 -9
    endloop
  endfacet
  facet normal 0.248692 -0.968583 0
    outer loop
      vertex -0.695288 2.13988 -9
      vertex -0.421607 2.21015 9
      vertex -0.695288 2.13988 9
    endloop
  endfacet
  facet normal 0.248692 -0.968583 0
    outer loop
      vertex -0.421607 2.21015 9
      vertex -0.695288 2.13988 -9
      vertex -0.421607 2.21015 -9
    endloop
  endfacet
  facet normal 0.587808 -0.809001 0
    outer loop
      vertex -1.4342 1.73365 -9
      vertex -1.20561 1.89974 9
      vertex -1.4342 1.73365 9
    endloop
  endfacet
  facet normal 0.587808 -0.809001 0
    outer loop
      vertex -1.20561 1.89974 9
      vertex -1.4342 1.73365 -9
      vertex -1.20561 1.89974 -9
    endloop
  endfacet
  facet normal 0.684532 -0.728983 0
    outer loop
      vertex -1.64018 1.54023 -9
      vertex -1.4342 1.73365 9
      vertex -1.64018 1.54023 9
    endloop
  endfacet
  facet normal 0.684532 -0.728983 0
    outer loop
      vertex -1.4342 1.73365 9
      vertex -1.64018 1.54023 -9
      vertex -1.4342 1.73365 -9
    endloop
  endfacet
  facet normal -0.84433 0.535824 0
    outer loop
      vertex 1.82029 -1.32252 -9
      vertex 1.97169 -1.08395 9
      vertex 1.97169 -1.08395 -9
    endloop
  endfacet
  facet normal -0.84433 0.535824 0
    outer loop
      vertex 1.97169 -1.08395 9
      vertex 1.82029 -1.32252 -9
      vertex 1.82029 -1.32252 9
    endloop
  endfacet
  facet normal 0 1 -0
    outer loop
      vertex 0.141278 -2.24556 -9
      vertex -0.141278 -2.24556 9
      vertex 0.141278 -2.24556 9
    endloop
  endfacet
  facet normal 0 1 0
    outer loop
      vertex -0.141278 -2.24556 9
      vertex 0.141278 -2.24556 -9
      vertex -0.141278 -2.24556 -9
    endloop
  endfacet
  facet normal 0.951061 0.309002 0
    outer loop
      vertex -2.092 -0.828279 9
      vertex -2.17931 -0.559552 -9
      vertex -2.17931 -0.559552 9
    endloop
  endfacet
  facet normal 0.951061 0.309002 0
    outer loop
      vertex -2.17931 -0.559552 -9
      vertex -2.092 -0.828279 9
      vertex -2.092 -0.828279 -9
    endloop
  endfacet
  facet normal 0.770505 0.637434 0
    outer loop
      vertex -1.64018 -1.54023 9
      vertex -1.82029 -1.32252 -9
      vertex -1.82029 -1.32252 9
    endloop
  endfacet
  facet normal 0.770505 0.637434 0
    outer loop
      vertex -1.82029 -1.32252 -9
      vertex -1.64018 -1.54023 9
      vertex -1.64018 -1.54023 -9
    endloop
  endfacet
  facet normal -0.12532 0.992116 0
    outer loop
      vertex 0.421607 -2.21015 -9
      vertex 0.141278 -2.24556 9
      vertex 0.421607 -2.21015 9
    endloop
  endfacet
  facet normal -0.12532 0.992116 0
    outer loop
      vertex 0.141278 -2.24556 9
      vertex 0.421607 -2.21015 -9
      vertex 0.141278 -2.24556 -9
    endloop
  endfacet
  facet normal -0.904827 -0.42578 0
    outer loop
      vertex 2.092 0.828279 -9
      vertex 1.97169 1.08395 9
      vertex 1.97169 1.08395 -9
    endloop
  endfacet
  facet normal -0.904827 -0.42578 0
    outer loop
      vertex 1.97169 1.08395 9
      vertex 2.092 0.828279 -9
      vertex 2.092 0.828279 9
    endloop
  endfacet
  facet normal -0.951061 -0.309002 0
    outer loop
      vertex 2.17931 0.559552 -9
      vertex 2.092 0.828279 9
      vertex 2.092 0.828279 -9
    endloop
  endfacet
  facet normal -0.951061 -0.309002 0
    outer loop
      vertex 2.092 0.828279 9
      vertex 2.17931 0.559552 -9
      vertex 2.17931 0.559552 9
    endloop
  endfacet
  facet normal -0.982285 -0.187395 0
    outer loop
      vertex 2.23226 0.282 -9
      vertex 2.17931 0.559552 9
      vertex 2.17931 0.559552 -9
    endloop
  endfacet
  facet normal -0.982285 -0.187395 0
    outer loop
      vertex 2.17931 0.559552 9
      vertex 2.23226 0.282 -9
      vertex 2.23226 0.282 9
    endloop
  endfacet
  facet normal -0.12532 -0.992116 0
    outer loop
      vertex 0.141278 2.24556 -9
      vertex 0.421607 2.21015 9
      vertex 0.141278 2.24556 9
    endloop
  endfacet
  facet normal -0.12532 -0.992116 -0
    outer loop
      vertex 0.421607 2.21015 9
      vertex 0.141278 2.24556 -9
      vertex 0.421607 2.21015 -9
    endloop
  endfacet
  facet normal -0.998027 0.0627837 0
    outer loop
      vertex 2.23226 -0.282 -9
      vertex 2.25 0 9
      vertex 2.25 0 -9
    endloop
  endfacet
  facet normal -0.998027 0.0627837 0
    outer loop
      vertex 2.25 0 9
      vertex 2.23226 -0.282 -9
      vertex 2.23226 -0.282 9
    endloop
  endfacet
  facet normal -0.904827 0.42578 0
    outer loop
      vertex 1.97169 -1.08395 -9
      vertex 2.092 -0.828279 9
      vertex 2.092 -0.828279 -9
    endloop
  endfacet
  facet normal -0.904827 0.42578 0
    outer loop
      vertex 2.092 -0.828279 9
      vertex 1.97169 -1.08395 -9
      vertex 1.97169 -1.08395 9
    endloop
  endfacet
  facet normal 0.368136 0.929772 -0
    outer loop
      vertex -0.695288 -2.13988 -9
      vertex -0.958003 -2.03586 9
      vertex -0.695288 -2.13988 9
    endloop
  endfacet
  facet normal 0.368136 0.929772 0
    outer loop
      vertex -0.958003 -2.03586 9
      vertex -0.695288 -2.13988 -9
      vertex -0.958003 -2.03586 -9
    endloop
  endfacet
  facet normal 0.998027 0.0627837 0
    outer loop
      vertex -2.23226 -0.282 9
      vertex -2.25 0 -9
      vertex -2.25 0 9
    endloop
  endfacet
  facet normal 0.998027 0.0627837 0
    outer loop
      vertex -2.25 0 -9
      vertex -2.23226 -0.282 9
      vertex -2.23226 -0.282 -9
    endloop
  endfacet
  facet normal -0.368136 0.929772 0
    outer loop
      vertex 0.958003 -2.03586 -9
      vertex 0.695288 -2.13988 9
      vertex 0.958003 -2.03586 9
    endloop
  endfacet
  facet normal -0.368136 0.929772 0
    outer loop
      vertex 0.695288 -2.13988 9
      vertex 0.958003 -2.03586 -9
      vertex 0.695288 -2.13988 -9
    endloop
  endfacet
  facet normal -0.248692 0.968583 0
    outer loop
      vertex 0.695288 -2.13988 -9
      vertex 0.421607 -2.21015 9
      vertex 0.695288 -2.13988 9
    endloop
  endfacet
  facet normal -0.248692 0.968583 0
    outer loop
      vertex 0.421607 -2.21015 9
      vertex 0.695288 -2.13988 -9
      vertex 0.421607 -2.21015 -9
    endloop
  endfacet
  facet normal -0.770505 0.637434 0
    outer loop
      vertex 1.64018 -1.54023 -9
      vertex 1.82029 -1.32252 9
      vertex 1.82029 -1.32252 -9
    endloop
  endfacet
  facet normal -0.770505 0.637434 0
    outer loop
      vertex 1.82029 -1.32252 9
      vertex 1.64018 -1.54023 -9
      vertex 1.64018 -1.54023 9
    endloop
  endfacet
  facet normal 0.12532 0.992116 -0
    outer loop
      vertex -0.141278 -2.24556 -9
      vertex -0.421607 -2.21015 9
      vertex -0.141278 -2.24556 9
    endloop
  endfacet
  facet normal 0.12532 0.992116 0
    outer loop
      vertex -0.421607 -2.21015 9
      vertex -0.141278 -2.24556 -9
      vertex -0.421607 -2.21015 -9
    endloop
  endfacet
  facet normal 0.481745 0.876311 -0
    outer loop
      vertex -0.958003 -2.03586 -9
      vertex -1.20561 -1.89974 9
      vertex -0.958003 -2.03586 9
    endloop
  endfacet
  facet normal 0.481745 0.876311 0
    outer loop
      vertex -1.20561 -1.89974 9
      vertex -0.958003 -2.03586 -9
      vertex -1.20561 -1.89974 -9
    endloop
  endfacet
  facet normal 0.982285 0.187395 0
    outer loop
      vertex -2.17931 -0.559552 9
      vertex -2.23226 -0.282 -9
      vertex -2.23226 -0.282 9
    endloop
  endfacet
  facet normal 0.982285 0.187395 0
    outer loop
      vertex -2.23226 -0.282 -9
      vertex -2.17931 -0.559552 9
      vertex -2.17931 -0.559552 -9
    endloop
  endfacet
  facet normal 0.84433 0.535824 0
    outer loop
      vertex -1.82029 -1.32252 9
      vertex -1.97169 -1.08395 -9
      vertex -1.97169 -1.08395 9
    endloop
  endfacet
  facet normal 0.84433 0.535824 0
    outer loop
      vertex -1.97169 -1.08395 -9
      vertex -1.82029 -1.32252 9
      vertex -1.82029 -1.32252 -9
    endloop
  endfacet
  facet normal -0.481745 0.876311 0
    outer loop
      vertex 1.20561 -1.89974 -9
      vertex 0.958003 -2.03586 9
      vertex 1.20561 -1.89974 9
    endloop
  endfacet
  facet normal -0.481745 0.876311 0
    outer loop
      vertex 0.958003 -2.03586 9
      vertex 1.20561 -1.89974 -9
      vertex 0.958003 -2.03586 -9
    endloop
  endfacet
  facet normal -0.684532 0.728983 0
    outer loop
      vertex 1.64018 -1.54023 -9
      vertex 1.4342 -1.73365 9
      vertex 1.64018 -1.54023 9
    endloop
  endfacet
  facet normal -0.684532 0.728983 0
    outer loop
      vertex 1.4342 -1.73365 9
      vertex 1.64018 -1.54023 -9
      vertex 1.4342 -1.73365 -9
    endloop
  endfacet
  facet normal 0.587808 0.809001 -0
    outer loop
      vertex -1.20561 -1.89974 -9
      vertex -1.4342 -1.73365 9
      vertex -1.20561 -1.89974 9
    endloop
  endfacet
  facet normal 0.587808 0.809001 0
    outer loop
      vertex -1.4342 -1.73365 9
      vertex -1.20561 -1.89974 -9
      vertex -1.4342 -1.73365 -9
    endloop
  endfacet
  facet normal 0.248692 0.968583 -0
    outer loop
      vertex -0.421607 -2.21015 -9
      vertex -0.695288 -2.13988 9
      vertex -0.421607 -2.21015 9
    endloop
  endfacet
  facet normal 0.248692 0.968583 0
    outer loop
      vertex -0.695288 -2.13988 9
      vertex -0.421607 -2.21015 -9
      vertex -0.695288 -2.13988 -9
    endloop
  endfacet
endsolid OpenSCAD_Model
