solid OpenSCAD_Model
  facet normal 0.998026 0.0627973 0
    outer loop
      vertex 6.5 0 6
      vertex 6.44874 0.814666 -6
      vertex 6.44874 0.814666 6
    endloop
  endfacet
  facet normal 0.998026 0.0627973 0
    outer loop
      vertex 6.44874 0.814666 -6
      vertex 6.5 0 6
      vertex 6.5 0 -6
    endloop
  endfacet
  facet normal -0.998026 0.0627973 0
    outer loop
      vertex -6.5 0 -6
      vertex -6.44874 0.814666 6
      vertex -6.44874 0.814666 -6
    endloop
  endfacet
  facet normal -0.998026 0.0627973 0
    outer loop
      vertex -6.44874 0.814666 6
      vertex -6.5 0 -6
      vertex -6.5 0 6
    endloop
  endfacet
  facet normal 0 1 -0
    outer loop
      vertex 0.408138 6.48717 -6
      vertex -0.408138 6.48717 6
      vertex 0.408138 6.48717 6
    endloop
  endfacet
  facet normal 0 1 0
    outer loop
      vertex -0.408138 6.48717 6
      vertex 0.408138 6.48717 -6
      vertex -0.408138 6.48717 -6
    endloop
  endfacet
  facet normal 0.684547 0.728968 -0
    outer loop
      vertex 4.7383 4.44956 -6
      vertex 4.14326 5.00834 6
      vertex 4.7383 4.44956 6
    endloop
  endfacet
  facet normal 0.684547 0.728968 0
    outer loop
      vertex 4.14326 5.00834 6
      vertex 4.7383 4.44956 -6
      vertex 4.14326 5.00834 -6
    endloop
  endfacet
  facet normal -0.684547 0.728968 0
    outer loop
      vertex -4.14326 5.00834 -6
      vertex -4.7383 4.44956 6
      vertex -4.14326 5.00834 6
    endloop
  endfacet
  facet normal -0.684547 0.728968 0
    outer loop
      vertex -4.7383 4.44956 6
      vertex -4.14326 5.00834 -6
      vertex -4.7383 4.44956 -6
    endloop
  endfacet
  facet normal -0.368125 0.929776 0
    outer loop
      vertex -2.00861 6.18187 -6
      vertex -2.76756 5.88138 6
      vertex -2.00861 6.18187 6
    endloop
  endfacet
  facet normal -0.368125 0.929776 0
    outer loop
      vertex -2.76756 5.88138 6
      vertex -2.00861 6.18187 -6
      vertex -2.76756 5.88138 -6
    endloop
  endfacet
  facet normal 0.904824 0.425785 0
    outer loop
      vertex 6.04355 2.39281 6
      vertex 5.69599 3.1314 -6
      vertex 5.69599 3.1314 6
    endloop
  endfacet
  facet normal 0.904824 0.425785 0
    outer loop
      vertex 5.69599 3.1314 -6
      vertex 6.04355 2.39281 6
      vertex 6.04355 2.39281 -6
    endloop
  endfacet
  facet normal 0.844328 0.535827 0
    outer loop
      vertex 5.69599 3.1314 6
      vertex 5.25861 3.8206 -6
      vertex 5.25861 3.8206 6
    endloop
  endfacet
  facet normal 0.844328 0.535827 0
    outer loop
      vertex 5.25861 3.8206 -6
      vertex 5.69599 3.1314 6
      vertex 5.69599 3.1314 -6
    endloop
  endfacet
  facet normal 0.368125 0.929776 -0
    outer loop
      vertex 2.76756 5.88138 -6
      vertex 2.00861 6.18187 6
      vertex 2.76756 5.88138 6
    endloop
  endfacet
  facet normal 0.368125 0.929776 0
    outer loop
      vertex 2.00861 6.18187 6
      vertex 2.76756 5.88138 -6
      vertex 2.00861 6.18187 -6
    endloop
  endfacet
  facet normal 0.248691 0.968583 -0
    outer loop
      vertex 2.00861 6.18187 -6
      vertex 1.21798 6.38487 6
      vertex 2.00861 6.18187 6
    endloop
  endfacet
  facet normal 0.248691 0.968583 0
    outer loop
      vertex 1.21798 6.38487 6
      vertex 2.00861 6.18187 -6
      vertex 1.21798 6.38487 -6
    endloop
  endfacet
  facet normal 0.587776 0.809024 -0
    outer loop
      vertex 4.14326 5.00834 -6
      vertex 3.48287 5.48813 6
      vertex 4.14326 5.00834 6
    endloop
  endfacet
  facet normal 0.587776 0.809024 0
    outer loop
      vertex 3.48287 5.48813 6
      vertex 4.14326 5.00834 -6
      vertex 3.48287 5.48813 -6
    endloop
  endfacet
  facet normal -0.844328 0.535827 0
    outer loop
      vertex -5.69599 3.1314 -6
      vertex -5.25861 3.8206 6
      vertex -5.25861 3.8206 -6
    endloop
  endfacet
  facet normal -0.844328 0.535827 0
    outer loop
      vertex -5.25861 3.8206 6
      vertex -5.69599 3.1314 -6
      vertex -5.69599 3.1314 6
    endloop
  endfacet
  facet normal -0.77052 0.637416 0
    outer loop
      vertex -5.25861 3.8206 -6
      vertex -4.7383 4.44956 6
      vertex -4.7383 4.44956 -6
    endloop
  endfacet
  facet normal -0.77052 0.637416 0
    outer loop
      vertex -4.7383 4.44956 6
      vertex -5.25861 3.8206 -6
      vertex -5.25861 3.8206 6
    endloop
  endfacet
  facet normal -0.951058 0.309012 0
    outer loop
      vertex -6.29579 1.61648 -6
      vertex -6.04355 2.39281 6
      vertex -6.04355 2.39281 -6
    endloop
  endfacet
  facet normal -0.951058 0.309012 0
    outer loop
      vertex -6.04355 2.39281 6
      vertex -6.29579 1.61648 -6
      vertex -6.29579 1.61648 6
    endloop
  endfacet
  facet normal -0.587776 0.809024 0
    outer loop
      vertex -3.48287 5.48813 -6
      vertex -4.14326 5.00834 6
      vertex -3.48287 5.48813 6
    endloop
  endfacet
  facet normal -0.587776 0.809024 0
    outer loop
      vertex -4.14326 5.00834 6
      vertex -3.48287 5.48813 -6
      vertex -4.14326 5.00834 -6
    endloop
  endfacet
  facet normal -0.125325 0.992116 0
    outer loop
      vertex -0.408138 6.48717 -6
      vertex -1.21798 6.38487 6
      vertex -0.408138 6.48717 6
    endloop
  endfacet
  facet normal -0.125325 0.992116 0
    outer loop
      vertex -1.21798 6.38487 6
      vertex -0.408138 6.48717 -6
      vertex -1.21798 6.38487 -6
    endloop
  endfacet
  facet normal -0.248691 -0.968583 0
    outer loop
      vertex -2.00861 -6.18187 -6
      vertex -1.21798 -6.38487 6
      vertex -2.00861 -6.18187 6
    endloop
  endfacet
  facet normal -0.248691 -0.968583 -0
    outer loop
      vertex -1.21798 -6.38487 6
      vertex -2.00861 -6.18187 -6
      vertex -1.21798 -6.38487 -6
    endloop
  endfacet
  facet normal 0.125325 -0.992116 0
    outer loop
      vertex 0.408138 -6.48717 -6
      vertex 1.21798 -6.38487 6
      vertex 0.408138 -6.48717 6
    endloop
  endfacet
  facet normal 0.125325 -0.992116 0
    outer loop
      vertex 1.21798 -6.38487 6
      vertex 0.408138 -6.48717 -6
      vertex 1.21798 -6.38487 -6
    endloop
  endfacet
  facet normal 0.951058 0.309012 0
    outer loop
      vertex 6.29579 1.61648 6
      vertex 6.04355 2.39281 -6
      vertex 6.04355 2.39281 6
    endloop
  endfacet
  facet normal 0.951058 0.309012 0
    outer loop
      vertex 6.04355 2.39281 -6
      vertex 6.29579 1.61648 6
      vertex 6.29579 1.61648 -6
    endloop
  endfacet
  facet normal 0.982288 0.187376 0
    outer loop
      vertex 6.44874 0.814666 6
      vertex 6.29579 1.61648 -6
      vertex 6.29579 1.61648 6
    endloop
  endfacet
  facet normal 0.982288 0.187376 0
    outer loop
      vertex 6.29579 1.61648 -6
      vertex 6.44874 0.814666 6
      vertex 6.44874 0.814666 -6
    endloop
  endfacet
  facet normal 0.77052 0.637416 0
    outer loop
      vertex 5.25861 3.8206 6
      vertex 4.7383 4.44956 -6
      vertex 4.7383 4.44956 6
    endloop
  endfacet
  facet normal 0.77052 0.637416 0
    outer loop
      vertex 4.7383 4.44956 -6
      vertex 5.25861 3.8206 6
      vertex 5.25861 3.8206 -6
    endloop
  endfacet
  facet normal 0.125325 0.992116 -0
    outer loop
      vertex 1.21798 6.38487 -6
      vertex 0.408138 6.48717 6
      vertex 1.21798 6.38487 6
    endloop
  endfacet
  facet normal 0.125325 0.992116 0
    outer loop
      vertex 0.408138 6.48717 6
      vertex 1.21798 6.38487 -6
      vertex 0.408138 6.48717 -6
    endloop
  endfacet
  facet normal 0.481758 0.876304 -0
    outer loop
      vertex 3.48287 5.48813 -6
      vertex 2.76756 5.88138 6
      vertex 3.48287 5.48813 6
    endloop
  endfacet
  facet normal 0.481758 0.876304 0
    outer loop
      vertex 2.76756 5.88138 6
      vertex 3.48287 5.48813 -6
      vertex 2.76756 5.88138 -6
    endloop
  endfacet
  facet normal -0.904824 0.425785 0
    outer loop
      vertex -6.04355 2.39281 -6
      vertex -5.69599 3.1314 6
      vertex -5.69599 3.1314 -6
    endloop
  endfacet
  facet normal -0.904824 0.425785 0
    outer loop
      vertex -5.69599 3.1314 6
      vertex -6.04355 2.39281 -6
      vertex -6.04355 2.39281 6
    endloop
  endfacet
  facet normal 0.998026 -0.0627973 0
    outer loop
      vertex 6.44874 -0.814666 6
      vertex 6.5 0 -6
      vertex 6.5 0 6
    endloop
  endfacet
  facet normal 0.998026 -0.0627973 0
    outer loop
      vertex 6.5 0 -6
      vertex 6.44874 -0.814666 6
      vertex 6.44874 -0.814666 -6
    endloop
  endfacet
  facet normal 0.77052 -0.637416 0
    outer loop
      vertex 4.7383 -4.44956 6
      vertex 5.25861 -3.8206 -6
      vertex 5.25861 -3.8206 6
    endloop
  endfacet
  facet normal 0.77052 -0.637416 0
    outer loop
      vertex 5.25861 -3.8206 -6
      vertex 4.7383 -4.44956 6
      vertex 4.7383 -4.44956 -6
    endloop
  endfacet
  facet normal -0.125325 -0.992116 0
    outer loop
      vertex -1.21798 -6.38487 -6
      vertex -0.408138 -6.48717 6
      vertex -1.21798 -6.38487 6
    endloop
  endfacet
  facet normal -0.125325 -0.992116 -0
    outer loop
      vertex -0.408138 -6.48717 6
      vertex -1.21798 -6.38487 -6
      vertex -0.408138 -6.48717 -6
    endloop
  endfacet
  facet normal -0.951058 -0.309012 0
    outer loop
      vertex -6.04355 -2.39281 -6
      vertex -6.29579 -1.61648 6
      vertex -6.29579 -1.61648 -6
    endloop
  endfacet
  facet normal -0.951058 -0.309012 0
    outer loop
      vertex -6.29579 -1.61648 6
      vertex -6.04355 -2.39281 -6
      vertex -6.04355 -2.39281 6
    endloop
  endfacet
  facet normal 0.368125 -0.929776 0
    outer loop
      vertex 2.00861 -6.18187 -6
      vertex 2.76756 -5.88138 6
      vertex 2.00861 -6.18187 6
    endloop
  endfacet
  facet normal 0.368125 -0.929776 0
    outer loop
      vertex 2.76756 -5.88138 6
      vertex 2.00861 -6.18187 -6
      vertex 2.76756 -5.88138 -6
    endloop
  endfacet
  facet normal 0.248691 -0.968583 0
    outer loop
      vertex 1.21798 -6.38487 -6
      vertex 2.00861 -6.18187 6
      vertex 1.21798 -6.38487 6
    endloop
  endfacet
  facet normal 0.248691 -0.968583 0
    outer loop
      vertex 2.00861 -6.18187 6
      vertex 1.21798 -6.38487 -6
      vertex 2.00861 -6.18187 -6
    endloop
  endfacet
  facet normal 0 0 1
    outer loop
      vertex 2.25 0 6
      vertex 6.5 0 6
      vertex 6.44874 0.814666 6
    endloop
  endfacet
  facet normal 0 0 1
    outer loop
      vertex 2.23226 0.282 6
      vertex 6.44874 0.814666 6
      vertex 6.29579 1.61648 6
    endloop
  endfacet
  facet normal 0 0 1
    outer loop
      vertex 6.5 0 6
      vertex 2.25 0 6
      vertex 6.44874 -0.814666 6
    endloop
  endfacet
  facet normal 0 0 1
    outer loop
      vertex 2.17931 0.559552 6
      vertex 6.29579 1.61648 6
      vertex 6.04355 2.39281 6
    endloop
  endfacet
  facet normal -0 0 1
    outer loop
      vertex 2.23226 -0.282 6
      vertex 6.44874 -0.814666 6
      vertex 2.25 0 6
    endloop
  endfacet
  facet normal 0 0 1
    outer loop
      vertex 2.092 0.828279 6
      vertex 6.04355 2.39281 6
      vertex 5.69599 3.1314 6
    endloop
  endfacet
  facet normal 0 0 1
    outer loop
      vertex 6.44874 -0.814666 6
      vertex 2.23226 -0.282 6
      vertex 6.29579 -1.61648 6
    endloop
  endfacet
  facet normal 0 0 1
    outer loop
      vertex 1.97169 1.08395 6
      vertex 5.69599 3.1314 6
      vertex 5.25861 3.8206 6
    endloop
  endfacet
  facet normal -0 0 1
    outer loop
      vertex 2.17931 -0.559552 6
      vertex 6.29579 -1.61648 6
      vertex 2.23226 -0.282 6
    endloop
  endfacet
  facet normal 0 0 1
    outer loop
      vertex 1.82029 1.32252 6
      vertex 5.25861 3.8206 6
      vertex 4.7383 4.44956 6
    endloop
  endfacet
  facet normal 0 0 1
    outer loop
      vertex 6.29579 -1.61648 6
      vertex 2.17931 -0.559552 6
      vertex 6.04355 -2.39281 6
    endloop
  endfacet
  facet normal 0 0 1
    outer loop
      vertex 1.64018 1.54023 6
      vertex 4.7383 4.44956 6
      vertex 4.14326 5.00834 6
    endloop
  endfacet
  facet normal -0 0 1
    outer loop
      vertex 2.092 -0.828279 6
      vertex 6.04355 -2.39281 6
      vertex 2.17931 -0.559552 6
    endloop
  endfacet
  facet normal 0 0 1
    outer loop
      vertex 1.4342 1.73365 6
      vertex 4.14326 5.00834 6
      vertex 3.48287 5.48813 6
    endloop
  endfacet
  facet normal 0 0 1
    outer loop
      vertex 6.04355 -2.39281 6
      vertex 2.092 -0.828279 6
      vertex 5.69599 -3.1314 6
    endloop
  endfacet
  facet normal 0 0 1
    outer loop
      vertex 1.20561 1.89974 6
      vertex 3.48287 5.48813 6
      vertex 2.76756 5.88138 6
    endloop
  endfacet
  facet normal -0 0 1
    outer loop
      vertex 1.97169 -1.08395 6
      vertex 5.69599 -3.1314 6
      vertex 2.092 -0.828279 6
    endloop
  endfacet
  facet normal 0 0 1
    outer loop
      vertex 5.69599 -3.1314 6
      vertex 1.97169 -1.08395 6
      vertex 5.25861 -3.8206 6
    endloop
  endfacet
  facet normal 0 0 1
    outer loop
      vertex 6.44874 0.814666 6
      vertex 2.23226 0.282 6
      vertex 2.25 0 6
    endloop
  endfacet
  facet normal 0 0 1
    outer loop
      vertex 6.29579 1.61648 6
      vertex 2.17931 0.559552 6
      vertex 2.23226 0.282 6
    endloop
  endfacet
  facet normal 0 0 1
    outer loop
      vertex 6.04355 2.39281 6
      vertex 2.092 0.828279 6
      vertex 2.17931 0.559552 6
    endloop
  endfacet
  facet normal 0 0 1
    outer loop
      vertex 0.958003 2.03586 6
      vertex 2.76756 5.88138 6
      vertex 2.00861 6.18187 6
    endloop
  endfacet
  facet normal 0 0 1
    outer loop
      vertex 5.69599 3.1314 6
      vertex 1.97169 1.08395 6
      vertex 2.092 0.828279 6
    endloop
  endfacet
  facet normal 0 0 1
    outer loop
      vertex 5.25861 3.8206 6
      vertex 1.82029 1.32252 6
      vertex 1.97169 1.08395 6
    endloop
  endfacet
  facet normal 0 0 1
    outer loop
      vertex 4.7383 4.44956 6
      vertex 1.64018 1.54023 6
      vertex 1.82029 1.32252 6
    endloop
  endfacet
  facet normal 0 0 1
    outer loop
      vertex 4.14326 5.00834 6
      vertex 1.4342 1.73365 6
      vertex 1.64018 1.54023 6
    endloop
  endfacet
  facet normal 0 0 1
    outer loop
      vertex 0.695288 2.13988 6
      vertex 2.00861 6.18187 6
      vertex 1.21798 6.38487 6
    endloop
  endfacet
  facet normal 0 0 1
    outer loop
      vertex 3.48287 5.48813 6
      vertex 1.20561 1.89974 6
      vertex 1.4342 1.73365 6
    endloop
  endfacet
  facet normal 0 0 1
    outer loop
      vertex 2.76756 5.88138 6
      vertex 0.958003 2.03586 6
      vertex 1.20561 1.89974 6
    endloop
  endfacet
  facet normal 0 0 1
    outer loop
      vertex 2.00861 6.18187 6
      vertex 0.695288 2.13988 6
      vertex 0.958003 2.03586 6
    endloop
  endfacet
  facet normal 0 0 1
    outer loop
      vertex 1.21798 6.38487 6
      vertex 0.421607 2.21015 6
      vertex 0.695288 2.13988 6
    endloop
  endfacet
  facet normal 0 0 1
    outer loop
      vertex 0.408138 6.48717 6
      vertex 0.421607 2.21015 6
      vertex 1.21798 6.38487 6
    endloop
  endfacet
  facet normal 0 0 1
    outer loop
      vertex 0.408138 6.48717 6
      vertex 0.141278 2.24556 6
      vertex 0.421607 2.21015 6
    endloop
  endfacet
  facet normal 0 0 1
    outer loop
      vertex 0.408138 6.48717 6
      vertex -0.141278 2.24556 6
      vertex 0.141278 2.24556 6
    endloop
  endfacet
  facet normal -0 0 1
    outer loop
      vertex -0.408138 6.48717 6
      vertex -0.141278 2.24556 6
      vertex 0.408138 6.48717 6
    endloop
  endfacet
  facet normal 0 0 1
    outer loop
      vertex -0.408138 6.48717 6
      vertex -0.421607 2.21015 6
      vertex -0.141278 2.24556 6
    endloop
  endfacet
  facet normal -0 0 1
    outer loop
      vertex -1.21798 6.38487 6
      vertex -0.421607 2.21015 6
      vertex -0.408138 6.48717 6
    endloop
  endfacet
  facet normal 0 0 1
    outer loop
      vertex -0.421607 2.21015 6
      vertex -1.21798 6.38487 6
      vertex -0.695288 2.13988 6
    endloop
  endfacet
  facet normal -0 0 1
    outer loop
      vertex -2.00861 6.18187 6
      vertex -0.695288 2.13988 6
      vertex -1.21798 6.38487 6
    endloop
  endfacet
  facet normal 0 0 1
    outer loop
      vertex -0.695288 2.13988 6
      vertex -2.00861 6.18187 6
      vertex -0.958003 2.03586 6
    endloop
  endfacet
  facet normal -0 0 1
    outer loop
      vertex -2.76756 5.88138 6
      vertex -0.958003 2.03586 6
      vertex -2.00861 6.18187 6
    endloop
  endfacet
  facet normal 0 0 1
    outer loop
      vertex -0.958003 2.03586 6
      vertex -2.76756 5.88138 6
      vertex -1.20561 1.89974 6
    endloop
  endfacet
  facet normal -0 0 1
    outer loop
      vertex -3.48287 5.48813 6
      vertex -1.20561 1.89974 6
      vertex -2.76756 5.88138 6
    endloop
  endfacet
  facet normal 0 0 1
    outer loop
      vertex -1.20561 1.89974 6
      vertex -3.48287 5.48813 6
      vertex -1.4342 1.73365 6
    endloop
  endfacet
  facet normal -0 0 1
    outer loop
      vertex -4.14326 5.00834 6
      vertex -1.4342 1.73365 6
      vertex -3.48287 5.48813 6
    endloop
  endfacet
  facet normal 0 0 1
    outer loop
      vertex -1.4342 1.73365 6
      vertex -4.14326 5.00834 6
      vertex -1.64018 1.54023 6
    endloop
  endfacet
  facet normal -0 0 1
    outer loop
      vertex -4.7383 4.44956 6
      vertex -1.64018 1.54023 6
      vertex -4.14326 5.00834 6
    endloop
  endfacet
  facet normal 0 0 1
    outer loop
      vertex -1.64018 1.54023 6
      vertex -4.7383 4.44956 6
      vertex -1.82029 1.32252 6
    endloop
  endfacet
  facet normal -0 0 1
    outer loop
      vertex -5.25861 3.8206 6
      vertex -1.82029 1.32252 6
      vertex -4.7383 4.44956 6
    endloop
  endfacet
  facet normal 0 0 1
    outer loop
      vertex -1.82029 1.32252 6
      vertex -5.25861 3.8206 6
      vertex -1.97169 1.08395 6
    endloop
  endfacet
  facet normal -0 0 1
    outer loop
      vertex 1.82029 -1.32252 6
      vertex 5.25861 -3.8206 6
      vertex 1.97169 -1.08395 6
    endloop
  endfacet
  facet normal 0 0 1
    outer loop
      vertex 5.25861 -3.8206 6
      vertex 1.82029 -1.32252 6
      vertex 4.7383 -4.44956 6
    endloop
  endfacet
  facet normal -0 0 1
    outer loop
      vertex 1.64018 -1.54023 6
      vertex 4.7383 -4.44956 6
      vertex 1.82029 -1.32252 6
    endloop
  endfacet
  facet normal 0 0 1
    outer loop
      vertex 4.7383 -4.44956 6
      vertex 1.64018 -1.54023 6
      vertex 4.14326 -5.00834 6
    endloop
  endfacet
  facet normal -0 0 1
    outer loop
      vertex 1.4342 -1.73365 6
      vertex 4.14326 -5.00834 6
      vertex 1.64018 -1.54023 6
    endloop
  endfacet
  facet normal 0 0 1
    outer loop
      vertex 4.14326 -5.00834 6
      vertex 1.4342 -1.73365 6
      vertex 3.48287 -5.48813 6
    endloop
  endfacet
  facet normal -0 0 1
    outer loop
      vertex 1.20561 -1.89974 6
      vertex 3.48287 -5.48813 6
      vertex 1.4342 -1.73365 6
    endloop
  endfacet
  facet normal 0 0 1
    outer loop
      vertex 3.48287 -5.48813 6
      vertex 1.20561 -1.89974 6
      vertex 2.76756 -5.88138 6
    endloop
  endfacet
  facet normal -0 0 1
    outer loop
      vertex 0.958003 -2.03586 6
      vertex 2.76756 -5.88138 6
      vertex 1.20561 -1.89974 6
    endloop
  endfacet
  facet normal 0 0 1
    outer loop
      vertex 2.76756 -5.88138 6
      vertex 0.958003 -2.03586 6
      vertex 2.00861 -6.18187 6
    endloop
  endfacet
  facet normal -0 0 1
    outer loop
      vertex 0.695288 -2.13988 6
      vertex 2.00861 -6.18187 6
      vertex 0.958003 -2.03586 6
    endloop
  endfacet
  facet normal 0 0 1
    outer loop
      vertex 2.00861 -6.18187 6
      vertex 0.695288 -2.13988 6
      vertex 1.21798 -6.38487 6
    endloop
  endfacet
  facet normal -0 0 1
    outer loop
      vertex 0.421607 -2.21015 6
      vertex 1.21798 -6.38487 6
      vertex 0.695288 -2.13988 6
    endloop
  endfacet
  facet normal 0 0 1
    outer loop
      vertex 0.421607 -2.21015 6
      vertex 0.408138 -6.48717 6
      vertex 1.21798 -6.38487 6
    endloop
  endfacet
  facet normal -0 0 1
    outer loop
      vertex 0.141278 -2.24556 6
      vertex 0.408138 -6.48717 6
      vertex 0.421607 -2.21015 6
    endloop
  endfacet
  facet normal -0 0 1
    outer loop
      vertex -0.141278 -2.24556 6
      vertex 0.408138 -6.48717 6
      vertex 0.141278 -2.24556 6
    endloop
  endfacet
  facet normal 0 0 1
    outer loop
      vertex -0.141278 -2.24556 6
      vertex -0.408138 -6.48717 6
      vertex 0.408138 -6.48717 6
    endloop
  endfacet
  facet normal 0 0 1
    outer loop
      vertex -0.421607 -2.21015 6
      vertex -0.408138 -6.48717 6
      vertex -0.141278 -2.24556 6
    endloop
  endfacet
  facet normal 0 0 1
    outer loop
      vertex -1.21798 -6.38487 6
      vertex -0.421607 -2.21015 6
      vertex -0.695288 -2.13988 6
    endloop
  endfacet
  facet normal 0 0 1
    outer loop
      vertex -2.00861 -6.18187 6
      vertex -0.695288 -2.13988 6
      vertex -0.958003 -2.03586 6
    endloop
  endfacet
  facet normal 0 0 1
    outer loop
      vertex -2.76756 -5.88138 6
      vertex -0.958003 -2.03586 6
      vertex -1.20561 -1.89974 6
    endloop
  endfacet
  facet normal 0 0 1
    outer loop
      vertex -0.421607 -2.21015 6
      vertex -1.21798 -6.38487 6
      vertex -0.408138 -6.48717 6
    endloop
  endfacet
  facet normal 0 0 1
    outer loop
      vertex -3.48287 -5.48813 6
      vertex -1.20561 -1.89974 6
      vertex -1.4342 -1.73365 6
    endloop
  endfacet
  facet normal 0 0 1
    outer loop
      vertex -4.14326 -5.00834 6
      vertex -1.4342 -1.73365 6
      vertex -1.64018 -1.54023 6
    endloop
  endfacet
  facet normal 0 0 1
    outer loop
      vertex -4.7383 -4.44956 6
      vertex -1.64018 -1.54023 6
      vertex -1.82029 -1.32252 6
    endloop
  endfacet
  facet normal 0 0 1
    outer loop
      vertex -5.25861 -3.8206 6
      vertex -1.82029 -1.32252 6
      vertex -1.97169 -1.08395 6
    endloop
  endfacet
  facet normal 0 0 1
    outer loop
      vertex -0.695288 -2.13988 6
      vertex -2.00861 -6.18187 6
      vertex -1.21798 -6.38487 6
    endloop
  endfacet
  facet normal 0 0 1
    outer loop
      vertex -5.69599 -3.1314 6
      vertex -1.97169 -1.08395 6
      vertex -2.092 -0.828279 6
    endloop
  endfacet
  facet normal 0 0 1
    outer loop
      vertex -6.04355 -2.39281 6
      vertex -2.092 -0.828279 6
      vertex -2.17931 -0.559552 6
    endloop
  endfacet
  facet normal 0 0 1
    outer loop
      vertex -6.29579 -1.61648 6
      vertex -2.17931 -0.559552 6
      vertex -2.23226 -0.282 6
    endloop
  endfacet
  facet normal 0 0 1
    outer loop
      vertex -6.44874 -0.814666 6
      vertex -2.23226 -0.282 6
      vertex -2.25 0 6
    endloop
  endfacet
  facet normal -0 0 1
    outer loop
      vertex -5.69599 3.1314 6
      vertex -1.97169 1.08395 6
      vertex -5.25861 3.8206 6
    endloop
  endfacet
  facet normal 0 0 1
    outer loop
      vertex -0.958003 -2.03586 6
      vertex -2.76756 -5.88138 6
      vertex -2.00861 -6.18187 6
    endloop
  endfacet
  facet normal 0 0 1
    outer loop
      vertex -1.97169 1.08395 6
      vertex -5.69599 3.1314 6
      vertex -2.092 0.828279 6
    endloop
  endfacet
  facet normal 0 0 1
    outer loop
      vertex -1.20561 -1.89974 6
      vertex -3.48287 -5.48813 6
      vertex -2.76756 -5.88138 6
    endloop
  endfacet
  facet normal -0 0 1
    outer loop
      vertex -6.04355 2.39281 6
      vertex -2.092 0.828279 6
      vertex -5.69599 3.1314 6
    endloop
  endfacet
  facet normal 0 0 1
    outer loop
      vertex -1.4342 -1.73365 6
      vertex -4.14326 -5.00834 6
      vertex -3.48287 -5.48813 6
    endloop
  endfacet
  facet normal 0 0 1
    outer loop
      vertex -2.092 0.828279 6
      vertex -6.04355 2.39281 6
      vertex -2.17931 0.559552 6
    endloop
  endfacet
  facet normal 0 0 1
    outer loop
      vertex -1.64018 -1.54023 6
      vertex -4.7383 -4.44956 6
      vertex -4.14326 -5.00834 6
    endloop
  endfacet
  facet normal -0 0 1
    outer loop
      vertex -6.29579 1.61648 6
      vertex -2.17931 0.559552 6
      vertex -6.04355 2.39281 6
    endloop
  endfacet
  facet normal 0 0 1
    outer loop
      vertex -1.82029 -1.32252 6
      vertex -5.25861 -3.8206 6
      vertex -4.7383 -4.44956 6
    endloop
  endfacet
  facet normal 0 0 1
    outer loop
      vertex -2.17931 0.559552 6
      vertex -6.29579 1.61648 6
      vertex -2.23226 0.282 6
    endloop
  endfacet
  facet normal 0 0 1
    outer loop
      vertex -1.97169 -1.08395 6
      vertex -5.69599 -3.1314 6
      vertex -5.25861 -3.8206 6
    endloop
  endfacet
  facet normal -0 0 1
    outer loop
      vertex -6.44874 0.814666 6
      vertex -2.23226 0.282 6
      vertex -6.29579 1.61648 6
    endloop
  endfacet
  facet normal 0 0 1
    outer loop
      vertex -2.092 -0.828279 6
      vertex -6.04355 -2.39281 6
      vertex -5.69599 -3.1314 6
    endloop
  endfacet
  facet normal 0 0 1
    outer loop
      vertex -2.23226 0.282 6
      vertex -6.44874 0.814666 6
      vertex -2.25 0 6
    endloop
  endfacet
  facet normal 0 0 1
    outer loop
      vertex -2.17931 -0.559552 6
      vertex -6.29579 -1.61648 6
      vertex -6.04355 -2.39281 6
    endloop
  endfacet
  facet normal 0 0 1
    outer loop
      vertex -6.5 0 6
      vertex -2.25 0 6
      vertex -6.44874 0.814666 6
    endloop
  endfacet
  facet normal 0 0 1
    outer loop
      vertex -2.23226 -0.282 6
      vertex -6.44874 -0.814666 6
      vertex -6.29579 -1.61648 6
    endloop
  endfacet
  facet normal 0 0 1
    outer loop
      vertex -2.25 0 6
      vertex -6.5 0 6
      vertex -6.44874 -0.814666 6
    endloop
  endfacet
  facet normal -0.982288 0.187376 0
    outer loop
      vertex -6.44874 0.814666 -6
      vertex -6.29579 1.61648 6
      vertex -6.29579 1.61648 -6
    endloop
  endfacet
  facet normal -0.982288 0.187376 0
    outer loop
      vertex -6.29579 1.61648 6
      vertex -6.44874 0.814666 -6
      vertex -6.44874 0.814666 6
    endloop
  endfacet
  facet normal -0.481758 0.876304 0
    outer loop
      vertex -2.76756 5.88138 -6
      vertex -3.48287 5.48813 6
      vertex -2.76756 5.88138 6
    endloop
  endfacet
  facet normal -0.481758 0.876304 0
    outer loop
      vertex -3.48287 5.48813 6
      vertex -2.76756 5.88138 -6
      vertex -3.48287 5.48813 -6
    endloop
  endfacet
  facet normal -0.248691 0.968583 0
    outer loop
      vertex -1.21798 6.38487 -6
      vertex -2.00861 6.18187 6
      vertex -1.21798 6.38487 6
    endloop
  endfacet
  facet normal -0.248691 0.968583 0
    outer loop
      vertex -2.00861 6.18187 6
      vertex -1.21798 6.38487 -6
      vertex -2.00861 6.18187 -6
    endloop
  endfacet
  facet normal 0.951058 -0.309012 0
    outer loop
      vertex 6.04355 -2.39281 6
      vertex 6.29579 -1.61648 -6
      vertex 6.29579 -1.61648 6
    endloop
  endfacet
  facet normal 0.951058 -0.309012 0
    outer loop
      vertex 6.29579 -1.61648 -6
      vertex 6.04355 -2.39281 6
      vertex 6.04355 -2.39281 -6
    endloop
  endfacet
  facet normal 0.982288 -0.187376 0
    outer loop
      vertex 6.29579 -1.61648 6
      vertex 6.44874 -0.814666 -6
      vertex 6.44874 -0.814666 6
    endloop
  endfacet
  facet normal 0.982288 -0.187376 0
    outer loop
      vertex 6.44874 -0.814666 -6
      vertex 6.29579 -1.61648 6
      vertex 6.29579 -1.61648 -6
    endloop
  endfacet
  facet normal 0.481758 -0.876304 0
    outer loop
      vertex 2.76756 -5.88138 -6
      vertex 3.48287 -5.48813 6
      vertex 2.76756 -5.88138 6
    endloop
  endfacet
  facet normal 0.481758 -0.876304 0
    outer loop
      vertex 3.48287 -5.48813 6
      vertex 2.76756 -5.88138 -6
      vertex 3.48287 -5.48813 -6
    endloop
  endfacet
  facet normal 0.684547 -0.728968 0
    outer loop
      vertex 4.14326 -5.00834 -6
      vertex 4.7383 -4.44956 6
      vertex 4.14326 -5.00834 6
    endloop
  endfacet
  facet normal 0.684547 -0.728968 0
    outer loop
      vertex 4.7383 -4.44956 6
      vertex 4.14326 -5.00834 -6
      vertex 4.7383 -4.44956 -6
    endloop
  endfacet
  facet normal 0.844328 -0.535827 0
    outer loop
      vertex 5.25861 -3.8206 6
      vertex 5.69599 -3.1314 -6
      vertex 5.69599 -3.1314 6
    endloop
  endfacet
  facet normal 0.844328 -0.535827 0
    outer loop
      vertex 5.69599 -3.1314 -6
      vertex 5.25861 -3.8206 6
      vertex 5.25861 -3.8206 -6
    endloop
  endfacet
  facet normal 0.904824 -0.425785 0
    outer loop
      vertex 5.69599 -3.1314 6
      vertex 6.04355 -2.39281 -6
      vertex 6.04355 -2.39281 6
    endloop
  endfacet
  facet normal 0.904824 -0.425785 0
    outer loop
      vertex 6.04355 -2.39281 -6
      vertex 5.69599 -3.1314 6
      vertex 5.69599 -3.1314 -6
    endloop
  endfacet
  facet normal -0.368125 -0.929776 0
    outer loop
      vertex -2.76756 -5.88138 -6
      vertex -2.00861 -6.18187 6
      vertex -2.76756 -5.88138 6
    endloop
  endfacet
  facet normal -0.368125 -0.929776 -0
    outer loop
      vertex -2.00861 -6.18187 6
      vertex -2.76756 -5.88138 -6
      vertex -2.00861 -6.18187 -6
    endloop
  endfacet
  facet normal -0.77052 -0.637416 0
    outer loop
      vertex -4.7383 -4.44956 -6
      vertex -5.25861 -3.8206 6
      vertex -5.25861 -3.8206 -6
    endloop
  endfacet
  facet normal -0.77052 -0.637416 0
    outer loop
      vertex -5.25861 -3.8206 6
      vertex -4.7383 -4.44956 -6
      vertex -4.7383 -4.44956 6
    endloop
  endfacet
  facet normal -0.998026 -0.0627973 0
    outer loop
      vertex -6.44874 -0.814666 -6
      vertex -6.5 0 6
      vertex -6.5 0 -6
    endloop
  endfacet
  facet normal -0.998026 -0.0627973 0
    outer loop
      vertex -6.5 0 6
      vertex -6.44874 -0.814666 -6
      vertex -6.44874 -0.814666 6
    endloop
  endfacet
  facet normal 0.587776 -0.809024 0
    outer loop
      vertex 3.48287 -5.48813 -6
      vertex 4.14326 -5.00834 6
      vertex 3.48287 -5.48813 6
    endloop
  endfacet
  facet normal 0.587776 -0.809024 0
    outer loop
      vertex 4.14326 -5.00834 6
      vertex 3.48287 -5.48813 -6
      vertex 4.14326 -5.00834 -6
    endloop
  endfacet
  facet normal 0 -1 0
    outer loop
      vertex -0.408138 -6.48717 -6
      vertex 0.408138 -6.48717 6
      vertex -0.408138 -6.48717 6
    endloop
  endfacet
  facet normal 0 -1 -0
    outer loop
      vertex 0.408138 -6.48717 6
      vertex -0.408138 -6.48717 -6
      vertex 0.408138 -6.48717 -6
    endloop
  endfacet
  facet normal -0.684547 -0.728968 0
    outer loop
      vertex -4.7383 -4.44956 -6
      vertex -4.14326 -5.00834 6
      vertex -4.7383 -4.44956 6
    endloop
  endfacet
  facet normal -0.684547 -0.728968 -0
    outer loop
      vertex -4.14326 -5.00834 6
      vertex -4.7383 -4.44956 -6
      vertex -4.14326 -5.00834 -6
    endloop
  endfacet
  facet normal -0.904824 -0.425785 0
    outer loop
      vertex -5.69599 -3.1314 -6
      vertex -6.04355 -2.39281 6
      vertex -6.04355 -2.39281 -6
    endloop
  endfacet
  facet normal -0.904824 -0.425785 0
    outer loop
      vertex -6.04355 -2.39281 6
      vertex -5.69599 -3.1314 -6
      vertex -5.69599 -3.1314 6
    endloop
  endfacet
  facet normal 0 0 -1
    outer loop
      vertex 2.25 0 -6
      vertex 6.5 0 -6
      vertex 6.44874 -0.814666 -6
    endloop
  endfacet
  facet normal 0 0 -1
    outer loop
      vertex 2.23226 -0.282 -6
      vertex 6.44874 -0.814666 -6
      vertex 6.29579 -1.61648 -6
    endloop
  endfacet
  facet normal 0 0 -1
    outer loop
      vertex 6.5 0 -6
      vertex 2.25 0 -6
      vertex 6.44874 0.814666 -6
    endloop
  endfacet
  facet normal 0 0 -1
    outer loop
      vertex 2.17931 -0.559552 -6
      vertex 6.29579 -1.61648 -6
      vertex 6.04355 -2.39281 -6
    endloop
  endfacet
  facet normal 0 0 -1
    outer loop
      vertex 2.23226 0.282 -6
      vertex 6.44874 0.814666 -6
      vertex 2.25 0 -6
    endloop
  endfacet
  facet normal 0 0 -1
    outer loop
      vertex 2.092 -0.828279 -6
      vertex 6.04355 -2.39281 -6
      vertex 5.69599 -3.1314 -6
    endloop
  endfacet
  facet normal -0 0 -1
    outer loop
      vertex 6.44874 0.814666 -6
      vertex 2.23226 0.282 -6
      vertex 6.29579 1.61648 -6
    endloop
  endfacet
  facet normal 0 0 -1
    outer loop
      vertex 1.97169 -1.08395 -6
      vertex 5.69599 -3.1314 -6
      vertex 5.25861 -3.8206 -6
    endloop
  endfacet
  facet normal 0 0 -1
    outer loop
      vertex 2.17931 0.559552 -6
      vertex 6.29579 1.61648 -6
      vertex 2.23226 0.282 -6
    endloop
  endfacet
  facet normal 0 0 -1
    outer loop
      vertex 1.82029 -1.32252 -6
      vertex 5.25861 -3.8206 -6
      vertex 4.7383 -4.44956 -6
    endloop
  endfacet
  facet normal -0 0 -1
    outer loop
      vertex 6.29579 1.61648 -6
      vertex 2.17931 0.559552 -6
      vertex 6.04355 2.39281 -6
    endloop
  endfacet
  facet normal 0 0 -1
    outer loop
      vertex 1.64018 -1.54023 -6
      vertex 4.7383 -4.44956 -6
      vertex 4.14326 -5.00834 -6
    endloop
  endfacet
  facet normal 0 0 -1
    outer loop
      vertex 2.092 0.828279 -6
      vertex 6.04355 2.39281 -6
      vertex 2.17931 0.559552 -6
    endloop
  endfacet
  facet normal 0 0 -1
    outer loop
      vertex 1.4342 -1.73365 -6
      vertex 4.14326 -5.00834 -6
      vertex 3.48287 -5.48813 -6
    endloop
  endfacet
  facet normal -0 0 -1
    outer loop
      vertex 6.04355 2.39281 -6
      vertex 2.092 0.828279 -6
      vertex 5.69599 3.1314 -6
    endloop
  endfacet
  facet normal 0 0 -1
    outer loop
      vertex 1.20561 -1.89974 -6
      vertex 3.48287 -5.48813 -6
      vertex 2.76756 -5.88138 -6
    endloop
  endfacet
  facet normal 0 0 -1
    outer loop
      vertex 1.97169 1.08395 -6
      vertex 5.69599 3.1314 -6
      vertex 2.092 0.828279 -6
    endloop
  endfacet
  facet normal -0 0 -1
    outer loop
      vertex 5.69599 3.1314 -6
      vertex 1.97169 1.08395 -6
      vertex 5.25861 3.8206 -6
    endloop
  endfacet
  facet normal 0 0 -1
    outer loop
      vertex 6.44874 -0.814666 -6
      vertex 2.23226 -0.282 -6
      vertex 2.25 0 -6
    endloop
  endfacet
  facet normal 0 0 -1
    outer loop
      vertex 6.29579 -1.61648 -6
      vertex 2.17931 -0.559552 -6
      vertex 2.23226 -0.282 -6
    endloop
  endfacet
  facet normal 0 0 -1
    outer loop
      vertex 6.04355 -2.39281 -6
      vertex 2.092 -0.828279 -6
      vertex 2.17931 -0.559552 -6
    endloop
  endfacet
  facet normal 0 0 -1
    outer loop
      vertex 0.958003 -2.03586 -6
      vertex 2.76756 -5.88138 -6
      vertex 2.00861 -6.18187 -6
    endloop
  endfacet
  facet normal 0 0 -1
    outer loop
      vertex 5.69599 -3.1314 -6
      vertex 1.97169 -1.08395 -6
      vertex 2.092 -0.828279 -6
    endloop
  endfacet
  facet normal 0 0 -1
    outer loop
      vertex 5.25861 -3.8206 -6
      vertex 1.82029 -1.32252 -6
      vertex 1.97169 -1.08395 -6
    endloop
  endfacet
  facet normal 0 0 -1
    outer loop
      vertex 4.7383 -4.44956 -6
      vertex 1.64018 -1.54023 -6
      vertex 1.82029 -1.32252 -6
    endloop
  endfacet
  facet normal 0 0 -1
    outer loop
      vertex 4.14326 -5.00834 -6
      vertex 1.4342 -1.73365 -6
      vertex 1.64018 -1.54023 -6
    endloop
  endfacet
  facet normal 0 0 -1
    outer loop
      vertex 0.695288 -2.13988 -6
      vertex 2.00861 -6.18187 -6
      vertex 1.21798 -6.38487 -6
    endloop
  endfacet
  facet normal 0 0 -1
    outer loop
      vertex 3.48287 -5.48813 -6
      vertex 1.20561 -1.89974 -6
      vertex 1.4342 -1.73365 -6
    endloop
  endfacet
  facet normal 0 0 -1
    outer loop
      vertex 2.76756 -5.88138 -6
      vertex 0.958003 -2.03586 -6
      vertex 1.20561 -1.89974 -6
    endloop
  endfacet
  facet normal 0 0 -1
    outer loop
      vertex 2.00861 -6.18187 -6
      vertex 0.695288 -2.13988 -6
      vertex 0.958003 -2.03586 -6
    endloop
  endfacet
  facet normal 0 0 -1
    outer loop
      vertex 1.21798 -6.38487 -6
      vertex 0.421607 -2.21015 -6
      vertex 0.695288 -2.13988 -6
    endloop
  endfacet
  facet normal 0 0 -1
    outer loop
      vertex 0.408138 -6.48717 -6
      vertex 0.421607 -2.21015 -6
      vertex 1.21798 -6.38487 -6
    endloop
  endfacet
  facet normal 0 0 -1
    outer loop
      vertex 0.408138 -6.48717 -6
      vertex 0.141278 -2.24556 -6
      vertex 0.421607 -2.21015 -6
    endloop
  endfacet
  facet normal 0 0 -1
    outer loop
      vertex 0.408138 -6.48717 -6
      vertex -0.141278 -2.24556 -6
      vertex 0.141278 -2.24556 -6
    endloop
  endfacet
  facet normal 0 0 -1
    outer loop
      vertex -0.408138 -6.48717 -6
      vertex -0.141278 -2.24556 -6
      vertex 0.408138 -6.48717 -6
    endloop
  endfacet
  facet normal 0 0 -1
    outer loop
      vertex -0.408138 -6.48717 -6
      vertex -0.421607 -2.21015 -6
      vertex -0.141278 -2.24556 -6
    endloop
  endfacet
  facet normal 0 0 -1
    outer loop
      vertex -1.21798 -6.38487 -6
      vertex -0.421607 -2.21015 -6
      vertex -0.408138 -6.48717 -6
    endloop
  endfacet
  facet normal -0 0 -1
    outer loop
      vertex -0.421607 -2.21015 -6
      vertex -1.21798 -6.38487 -6
      vertex -0.695288 -2.13988 -6
    endloop
  endfacet
  facet normal 0 0 -1
    outer loop
      vertex -2.00861 -6.18187 -6
      vertex -0.695288 -2.13988 -6
      vertex -1.21798 -6.38487 -6
    endloop
  endfacet
  facet normal -0 0 -1
    outer loop
      vertex -0.695288 -2.13988 -6
      vertex -2.00861 -6.18187 -6
      vertex -0.958003 -2.03586 -6
    endloop
  endfacet
  facet normal 0 0 -1
    outer loop
      vertex -2.76756 -5.88138 -6
      vertex -0.958003 -2.03586 -6
      vertex -2.00861 -6.18187 -6
    endloop
  endfacet
  facet normal -0 0 -1
    outer loop
      vertex -0.958003 -2.03586 -6
      vertex -2.76756 -5.88138 -6
      vertex -1.20561 -1.89974 -6
    endloop
  endfacet
  facet normal 0 0 -1
    outer loop
      vertex -3.48287 -5.48813 -6
      vertex -1.20561 -1.89974 -6
      vertex -2.76756 -5.88138 -6
    endloop
  endfacet
  facet normal -0 0 -1
    outer loop
      vertex -1.20561 -1.89974 -6
      vertex -3.48287 -5.48813 -6
      vertex -1.4342 -1.73365 -6
    endloop
  endfacet
  facet normal 0 0 -1
    outer loop
      vertex -4.14326 -5.00834 -6
      vertex -1.4342 -1.73365 -6
      vertex -3.48287 -5.48813 -6
    endloop
  endfacet
  facet normal -0 0 -1
    outer loop
      vertex -1.4342 -1.73365 -6
      vertex -4.14326 -5.00834 -6
      vertex -1.64018 -1.54023 -6
    endloop
  endfacet
  facet normal 0 0 -1
    outer loop
      vertex -4.7383 -4.44956 -6
      vertex -1.64018 -1.54023 -6
      vertex -4.14326 -5.00834 -6
    endloop
  endfacet
  facet normal -0 0 -1
    outer loop
      vertex -1.64018 -1.54023 -6
      vertex -4.7383 -4.44956 -6
      vertex -1.82029 -1.32252 -6
    endloop
  endfacet
  facet normal 0 0 -1
    outer loop
      vertex -5.25861 -3.8206 -6
      vertex -1.82029 -1.32252 -6
      vertex -4.7383 -4.44956 -6
    endloop
  endfacet
  facet normal -0 0 -1
    outer loop
      vertex -1.82029 -1.32252 -6
      vertex -5.25861 -3.8206 -6
      vertex -1.97169 -1.08395 -6
    endloop
  endfacet
  facet normal 0 0 -1
    outer loop
      vertex 1.82029 1.32252 -6
      vertex 5.25861 3.8206 -6
      vertex 1.97169 1.08395 -6
    endloop
  endfacet
  facet normal -0 0 -1
    outer loop
      vertex 5.25861 3.8206 -6
      vertex 1.82029 1.32252 -6
      vertex 4.7383 4.44956 -6
    endloop
  endfacet
  facet normal 0 0 -1
    outer loop
      vertex 1.64018 1.54023 -6
      vertex 4.7383 4.44956 -6
      vertex 1.82029 1.32252 -6
    endloop
  endfacet
  facet normal -0 0 -1
    outer loop
      vertex 4.7383 4.44956 -6
      vertex 1.64018 1.54023 -6
      vertex 4.14326 5.00834 -6
    endloop
  endfacet
  facet normal 0 0 -1
    outer loop
      vertex 1.4342 1.73365 -6
      vertex 4.14326 5.00834 -6
      vertex 1.64018 1.54023 -6
    endloop
  endfacet
  facet normal -0 0 -1
    outer loop
      vertex 4.14326 5.00834 -6
      vertex 1.4342 1.73365 -6
      vertex 3.48287 5.48813 -6
    endloop
  endfacet
  facet normal 0 0 -1
    outer loop
      vertex 1.20561 1.89974 -6
      vertex 3.48287 5.48813 -6
      vertex 1.4342 1.73365 -6
    endloop
  endfacet
  facet normal -0 0 -1
    outer loop
      vertex 3.48287 5.48813 -6
      vertex 1.20561 1.89974 -6
      vertex 2.76756 5.88138 -6
    endloop
  endfacet
  facet normal 0 0 -1
    outer loop
      vertex 0.958003 2.03586 -6
      vertex 2.76756 5.88138 -6
      vertex 1.20561 1.89974 -6
    endloop
  endfacet
  facet normal -0 0 -1
    outer loop
      vertex 2.76756 5.88138 -6
      vertex 0.958003 2.03586 -6
      vertex 2.00861 6.18187 -6
    endloop
  endfacet
  facet normal 0 0 -1
    outer loop
      vertex 0.695288 2.13988 -6
      vertex 2.00861 6.18187 -6
      vertex 0.958003 2.03586 -6
    endloop
  endfacet
  facet normal -0 0 -1
    outer loop
      vertex 2.00861 6.18187 -6
      vertex 0.695288 2.13988 -6
      vertex 1.21798 6.38487 -6
    endloop
  endfacet
  facet normal 0 0 -1
    outer loop
      vertex 0.421607 2.21015 -6
      vertex 1.21798 6.38487 -6
      vertex 0.695288 2.13988 -6
    endloop
  endfacet
  facet normal 0 0 -1
    outer loop
      vertex 0.421607 2.21015 -6
      vertex 0.408138 6.48717 -6
      vertex 1.21798 6.38487 -6
    endloop
  endfacet
  facet normal 0 0 -1
    outer loop
      vertex 0.141278 2.24556 -6
      vertex 0.408138 6.48717 -6
      vertex 0.421607 2.21015 -6
    endloop
  endfacet
  facet normal 0 0 -1
    outer loop
      vertex -0.141278 2.24556 -6
      vertex 0.408138 6.48717 -6
      vertex 0.141278 2.24556 -6
    endloop
  endfacet
  facet normal 0 0 -1
    outer loop
      vertex -0.141278 2.24556 -6
      vertex -0.408138 6.48717 -6
      vertex 0.408138 6.48717 -6
    endloop
  endfacet
  facet normal 0 0 -1
    outer loop
      vertex -0.421607 2.21015 -6
      vertex -0.408138 6.48717 -6
      vertex -0.141278 2.24556 -6
    endloop
  endfacet
  facet normal 0 0 -1
    outer loop
      vertex -1.21798 6.38487 -6
      vertex -0.421607 2.21015 -6
      vertex -0.695288 2.13988 -6
    endloop
  endfacet
  facet normal 0 0 -1
    outer loop
      vertex -2.00861 6.18187 -6
      vertex -0.695288 2.13988 -6
      vertex -0.958003 2.03586 -6
    endloop
  endfacet
  facet normal 0 0 -1
    outer loop
      vertex -2.76756 5.88138 -6
      vertex -0.958003 2.03586 -6
      vertex -1.20561 1.89974 -6
    endloop
  endfacet
  facet normal 0 0 -1
    outer loop
      vertex -0.421607 2.21015 -6
      vertex -1.21798 6.38487 -6
      vertex -0.408138 6.48717 -6
    endloop
  endfacet
  facet normal 0 0 -1
    outer loop
      vertex -3.48287 5.48813 -6
      vertex -1.20561 1.89974 -6
      vertex -1.4342 1.73365 -6
    endloop
  endfacet
  facet normal 0 0 -1
    outer loop
      vertex -4.14326 5.00834 -6
      vertex -1.4342 1.73365 -6
      vertex -1.64018 1.54023 -6
    endloop
  endfacet
  facet normal 0 0 -1
    outer loop
      vertex -4.7383 4.44956 -6
      vertex -1.64018 1.54023 -6
      vertex -1.82029 1.32252 -6
    endloop
  endfacet
  facet normal 0 0 -1
    outer loop
      vertex -5.25861 3.8206 -6
      vertex -1.82029 1.32252 -6
      vertex -1.97169 1.08395 -6
    endloop
  endfacet
  facet normal 0 0 -1
    outer loop
      vertex -0.695288 2.13988 -6
      vertex -2.00861 6.18187 -6
      vertex -1.21798 6.38487 -6
    endloop
  endfacet
  facet normal 0 0 -1
    outer loop
      vertex -5.69599 3.1314 -6
      vertex -1.97169 1.08395 -6
      vertex -2.092 0.828279 -6
    endloop
  endfacet
  facet normal 0 0 -1
    outer loop
      vertex -6.04355 2.39281 -6
      vertex -2.092 0.828279 -6
      vertex -2.17931 0.559552 -6
    endloop
  endfacet
  facet normal 0 0 -1
    outer loop
      vertex -6.29579 1.61648 -6
      vertex -2.17931 0.559552 -6
      vertex -2.23226 0.282 -6
    endloop
  endfacet
  facet normal 0 0 -1
    outer loop
      vertex -6.44874 0.814666 -6
      vertex -2.23226 0.282 -6
      vertex -2.25 0 -6
    endloop
  endfacet
  facet normal 0 0 -1
    outer loop
      vertex -5.69599 -3.1314 -6
      vertex -1.97169 -1.08395 -6
      vertex -5.25861 -3.8206 -6
    endloop
  endfacet
  facet normal 0 0 -1
    outer loop
      vertex -0.958003 2.03586 -6
      vertex -2.76756 5.88138 -6
      vertex -2.00861 6.18187 -6
    endloop
  endfacet
  facet normal -0 0 -1
    outer loop
      vertex -1.97169 -1.08395 -6
      vertex -5.69599 -3.1314 -6
      vertex -2.092 -0.828279 -6
    endloop
  endfacet
  facet normal 0 0 -1
    outer loop
      vertex -1.20561 1.89974 -6
      vertex -3.48287 5.48813 -6
      vertex -2.76756 5.88138 -6
    endloop
  endfacet
  facet normal 0 0 -1
    outer loop
      vertex -6.04355 -2.39281 -6
      vertex -2.092 -0.828279 -6
      vertex -5.69599 -3.1314 -6
    endloop
  endfacet
  facet normal 0 0 -1
    outer loop
      vertex -1.4342 1.73365 -6
      vertex -4.14326 5.00834 -6
      vertex -3.48287 5.48813 -6
    endloop
  endfacet
  facet normal -0 0 -1
    outer loop
      vertex -2.092 -0.828279 -6
      vertex -6.04355 -2.39281 -6
      vertex -2.17931 -0.559552 -6
    endloop
  endfacet
  facet normal 0 0 -1
    outer loop
      vertex -1.64018 1.54023 -6
      vertex -4.7383 4.44956 -6
      vertex -4.14326 5.00834 -6
    endloop
  endfacet
  facet normal 0 0 -1
    outer loop
      vertex -6.29579 -1.61648 -6
      vertex -2.17931 -0.559552 -6
      vertex -6.04355 -2.39281 -6
    endloop
  endfacet
  facet normal 0 0 -1
    outer loop
      vertex -1.82029 1.32252 -6
      vertex -5.25861 3.8206 -6
      vertex -4.7383 4.44956 -6
    endloop
  endfacet
  facet normal -0 0 -1
    outer loop
      vertex -2.17931 -0.559552 -6
      vertex -6.29579 -1.61648 -6
      vertex -2.23226 -0.282 -6
    endloop
  endfacet
  facet normal 0 0 -1
    outer loop
      vertex -1.97169 1.08395 -6
      vertex -5.69599 3.1314 -6
      vertex -5.25861 3.8206 -6
    endloop
  endfacet
  facet normal 0 0 -1
    outer loop
      vertex -6.44874 -0.814666 -6
      vertex -2.23226 -0.282 -6
      vertex -6.29579 -1.61648 -6
    endloop
  endfacet
  facet normal 0 0 -1
    outer loop
      vertex -2.092 0.828279 -6
      vertex -6.04355 2.39281 -6
      vertex -5.69599 3.1314 -6
    endloop
  endfacet
  facet normal -0 0 -1
    outer loop
      vertex -2.23226 -0.282 -6
      vertex -6.44874 -0.814666 -6
      vertex -2.25 0 -6
    endloop
  endfacet
  facet normal 0 0 -1
    outer loop
      vertex -2.17931 0.559552 -6
      vertex -6.29579 1.61648 -6
      vertex -6.04355 2.39281 -6
    endloop
  endfacet
  facet normal 0 0 -1
    outer loop
      vertex -6.5 0 -6
      vertex -2.25 0 -6
      vertex -6.44874 -0.814666 -6
    endloop
  endfacet
  facet normal 0 0 -1
    outer loop
      vertex -2.23226 0.282 -6
      vertex -6.44874 0.814666 -6
      vertex -6.29579 1.61648 -6
    endloop
  endfacet
  facet normal 0 0 -1
    outer loop
      vertex -2.25 0 -6
      vertex -6.5 0 -6
      vertex -6.44874 0.814666 -6
    endloop
  endfacet
  facet normal -0.982288 -0.187376 0
    outer loop
      vertex -6.29579 -1.61648 -6
      vertex -6.44874 -0.814666 6
      vertex -6.44874 -0.814666 -6
    endloop
  endfacet
  facet normal -0.982288 -0.187376 0
    outer loop
      vertex -6.44874 -0.814666 6
      vertex -6.29579 -1.61648 -6
      vertex -6.29579 -1.61648 6
    endloop
  endfacet
  facet normal -0.844328 -0.535827 0
    outer loop
      vertex -5.25861 -3.8206 -6
      vertex -5.69599 -3.1314 6
      vertex -5.69599 -3.1314 -6
    endloop
  endfacet
  facet normal -0.844328 -0.535827 0
    outer loop
      vertex -5.69599 -3.1314 6
      vertex -5.25861 -3.8206 -6
      vertex -5.25861 -3.8206 6
    endloop
  endfacet
  facet normal -0.481758 -0.876304 0
    outer loop
      vertex -3.48287 -5.48813 -6
      vertex -2.76756 -5.88138 6
      vertex -3.48287 -5.48813 6
    endloop
  endfacet
  facet normal -0.481758 -0.876304 -0
    outer loop
      vertex -2.76756 -5.88138 6
      vertex -3.48287 -5.48813 -6
      vertex -2.76756 -5.88138 -6
    endloop
  endfacet
  facet normal -0.587776 -0.809024 0
    outer loop
      vertex -4.14326 -5.00834 -6
      vertex -3.48287 -5.48813 6
      vertex -4.14326 -5.00834 6
    endloop
  endfacet
  facet normal -0.587776 -0.809024 -0
    outer loop
      vertex -3.48287 -5.48813 6
      vertex -4.14326 -5.00834 -6
      vertex -3.48287 -5.48813 -6
    endloop
  endfacet
  facet normal 0.951061 -0.309002 0
    outer loop
      vertex -2.17931 0.559552 6
      vertex -2.092 0.828279 -6
      vertex -2.092 0.828279 6
    endloop
  endfacet
  facet normal 0.951061 -0.309002 0
    outer loop
      vertex -2.092 0.828279 -6
      vertex -2.17931 0.559552 6
      vertex -2.17931 0.559552 -6
    endloop
  endfacet
  facet normal -0.84433 -0.535824 0
    outer loop
      vertex 1.97169 1.08395 -6
      vertex 1.82029 1.32252 6
      vertex 1.82029 1.32252 -6
    endloop
  endfacet
  facet normal -0.84433 -0.535824 0
    outer loop
      vertex 1.82029 1.32252 6
      vertex 1.97169 1.08395 -6
      vertex 1.97169 1.08395 6
    endloop
  endfacet
  facet normal -0.368136 -0.929772 0
    outer loop
      vertex 0.695288 2.13988 -6
      vertex 0.958003 2.03586 6
      vertex 0.695288 2.13988 6
    endloop
  endfacet
  facet normal -0.368136 -0.929772 -0
    outer loop
      vertex 0.958003 2.03586 6
      vertex 0.695288 2.13988 -6
      vertex 0.958003 2.03586 -6
    endloop
  endfacet
  facet normal 0.368136 -0.929772 0
    outer loop
      vertex -0.958003 2.03586 -6
      vertex -0.695288 2.13988 6
      vertex -0.958003 2.03586 6
    endloop
  endfacet
  facet normal 0.368136 -0.929772 0
    outer loop
      vertex -0.695288 2.13988 6
      vertex -0.958003 2.03586 -6
      vertex -0.695288 2.13988 -6
    endloop
  endfacet
  facet normal 0.904827 -0.42578 0
    outer loop
      vertex -2.092 0.828279 6
      vertex -1.97169 1.08395 -6
      vertex -1.97169 1.08395 6
    endloop
  endfacet
  facet normal 0.904827 -0.42578 0
    outer loop
      vertex -1.97169 1.08395 -6
      vertex -2.092 0.828279 6
      vertex -2.092 0.828279 -6
    endloop
  endfacet
  facet normal -0.982285 0.187395 0
    outer loop
      vertex 2.17931 -0.559552 -6
      vertex 2.23226 -0.282 6
      vertex 2.23226 -0.282 -6
    endloop
  endfacet
  facet normal -0.982285 0.187395 0
    outer loop
      vertex 2.23226 -0.282 6
      vertex 2.17931 -0.559552 -6
      vertex 2.17931 -0.559552 6
    endloop
  endfacet
  facet normal -0.982285 -0.187395 0
    outer loop
      vertex 2.23226 0.282 -6
      vertex 2.17931 0.559552 6
      vertex 2.17931 0.559552 -6
    endloop
  endfacet
  facet normal -0.982285 -0.187395 0
    outer loop
      vertex 2.17931 0.559552 6
      vertex 2.23226 0.282 -6
      vertex 2.23226 0.282 6
    endloop
  endfacet
  facet normal -0.684532 -0.728983 0
    outer loop
      vertex 1.4342 1.73365 -6
      vertex 1.64018 1.54023 6
      vertex 1.4342 1.73365 6
    endloop
  endfacet
  facet normal -0.684532 -0.728983 -0
    outer loop
      vertex 1.64018 1.54023 6
      vertex 1.4342 1.73365 -6
      vertex 1.64018 1.54023 -6
    endloop
  endfacet
  facet normal -0.587808 -0.809001 0
    outer loop
      vertex 1.20561 1.89974 -6
      vertex 1.4342 1.73365 6
      vertex 1.20561 1.89974 6
    endloop
  endfacet
  facet normal -0.587808 -0.809001 -0
    outer loop
      vertex 1.4342 1.73365 6
      vertex 1.20561 1.89974 -6
      vertex 1.4342 1.73365 -6
    endloop
  endfacet
  facet normal 0.982285 -0.187395 0
    outer loop
      vertex -2.23226 0.282 6
      vertex -2.17931 0.559552 -6
      vertex -2.17931 0.559552 6
    endloop
  endfacet
  facet normal 0.982285 -0.187395 0
    outer loop
      vertex -2.17931 0.559552 -6
      vertex -2.23226 0.282 6
      vertex -2.23226 0.282 -6
    endloop
  endfacet
  facet normal 0.770505 -0.637434 0
    outer loop
      vertex -1.82029 1.32252 6
      vertex -1.64018 1.54023 -6
      vertex -1.64018 1.54023 6
    endloop
  endfacet
  facet normal 0.770505 -0.637434 0
    outer loop
      vertex -1.64018 1.54023 -6
      vertex -1.82029 1.32252 6
      vertex -1.82029 1.32252 -6
    endloop
  endfacet
  facet normal 0.481745 -0.876311 0
    outer loop
      vertex -1.20561 1.89974 -6
      vertex -0.958003 2.03586 6
      vertex -1.20561 1.89974 6
    endloop
  endfacet
  facet normal 0.481745 -0.876311 0
    outer loop
      vertex -0.958003 2.03586 6
      vertex -1.20561 1.89974 -6
      vertex -0.958003 2.03586 -6
    endloop
  endfacet
  facet normal 0.12532 -0.992116 0
    outer loop
      vertex -0.421607 2.21015 -6
      vertex -0.141278 2.24556 6
      vertex -0.421607 2.21015 6
    endloop
  endfacet
  facet normal 0.12532 -0.992116 0
    outer loop
      vertex -0.141278 2.24556 6
      vertex -0.421607 2.21015 -6
      vertex -0.141278 2.24556 -6
    endloop
  endfacet
  facet normal -0.998027 -0.0627837 0
    outer loop
      vertex 2.25 0 -6
      vertex 2.23226 0.282 6
      vertex 2.23226 0.282 -6
    endloop
  endfacet
  facet normal -0.998027 -0.0627837 0
    outer loop
      vertex 2.23226 0.282 6
      vertex 2.25 0 -6
      vertex 2.25 0 6
    endloop
  endfacet
  facet normal -0.951061 0.309002 0
    outer loop
      vertex 2.092 -0.828279 -6
      vertex 2.17931 -0.559552 6
      vertex 2.17931 -0.559552 -6
    endloop
  endfacet
  facet normal -0.951061 0.309002 0
    outer loop
      vertex 2.17931 -0.559552 6
      vertex 2.092 -0.828279 -6
      vertex 2.092 -0.828279 6
    endloop
  endfacet
  facet normal 0.684532 0.728983 -0
    outer loop
      vertex -1.4342 -1.73365 -6
      vertex -1.64018 -1.54023 6
      vertex -1.4342 -1.73365 6
    endloop
  endfacet
  facet normal 0.684532 0.728983 0
    outer loop
      vertex -1.64018 -1.54023 6
      vertex -1.4342 -1.73365 -6
      vertex -1.64018 -1.54023 -6
    endloop
  endfacet
  facet normal 0.904827 0.42578 0
    outer loop
      vertex -1.97169 -1.08395 6
      vertex -2.092 -0.828279 -6
      vertex -2.092 -0.828279 6
    endloop
  endfacet
  facet normal 0.904827 0.42578 0
    outer loop
      vertex -2.092 -0.828279 -6
      vertex -1.97169 -1.08395 6
      vertex -1.97169 -1.08395 -6
    endloop
  endfacet
  facet normal -0.587808 0.809001 0
    outer loop
      vertex 1.4342 -1.73365 -6
      vertex 1.20561 -1.89974 6
      vertex 1.4342 -1.73365 6
    endloop
  endfacet
  facet normal -0.587808 0.809001 0
    outer loop
      vertex 1.20561 -1.89974 6
      vertex 1.4342 -1.73365 -6
      vertex 1.20561 -1.89974 -6
    endloop
  endfacet
  facet normal -0.770505 -0.637434 0
    outer loop
      vertex 1.82029 1.32252 -6
      vertex 1.64018 1.54023 6
      vertex 1.64018 1.54023 -6
    endloop
  endfacet
  facet normal -0.770505 -0.637434 0
    outer loop
      vertex 1.64018 1.54023 6
      vertex 1.82029 1.32252 -6
      vertex 1.82029 1.32252 6
    endloop
  endfacet
  facet normal 0 -1 0
    outer loop
      vertex -0.141278 2.24556 -6
      vertex 0.141278 2.24556 6
      vertex -0.141278 2.24556 6
    endloop
  endfacet
  facet normal 0 -1 -0
    outer loop
      vertex 0.141278 2.24556 6
      vertex -0.141278 2.24556 -6
      vertex 0.141278 2.24556 -6
    endloop
  endfacet
  facet normal -0.248692 -0.968583 0
    outer loop
      vertex 0.421607 2.21015 -6
      vertex 0.695288 2.13988 6
      vertex 0.421607 2.21015 6
    endloop
  endfacet
  facet normal -0.248692 -0.968583 -0
    outer loop
      vertex 0.695288 2.13988 6
      vertex 0.421607 2.21015 -6
      vertex 0.695288 2.13988 -6
    endloop
  endfacet
  facet normal -0.481745 -0.876311 0
    outer loop
      vertex 0.958003 2.03586 -6
      vertex 1.20561 1.89974 6
      vertex 0.958003 2.03586 6
    endloop
  endfacet
  facet normal -0.481745 -0.876311 -0
    outer loop
      vertex 1.20561 1.89974 6
      vertex 0.958003 2.03586 -6
      vertex 1.20561 1.89974 -6
    endloop
  endfacet
  facet normal 0.998027 -0.0627837 0
    outer loop
      vertex -2.25 0 6
      vertex -2.23226 0.282 -6
      vertex -2.23226 0.282 6
    endloop
  endfacet
  facet normal 0.998027 -0.0627837 0
    outer loop
      vertex -2.23226 0.282 -6
      vertex -2.25 0 6
      vertex -2.25 0 -6
    endloop
  endfacet
  facet normal 0.84433 -0.535824 0
    outer loop
      vertex -1.97169 1.08395 6
      vertex -1.82029 1.32252 -6
      vertex -1.82029 1.32252 6
    endloop
  endfacet
  facet normal 0.84433 -0.535824 0
    outer loop
      vertex -1.82029 1.32252 -6
      vertex -1.97169 1.08395 6
      vertex -1.97169 1.08395 -6
    endloop
  endfacet
  facet normal 0.248692 -0.968583 0
    outer loop
      vertex -0.695288 2.13988 -6
      vertex -0.421607 2.21015 6
      vertex -0.695288 2.13988 6
    endloop
  endfacet
  facet normal 0.248692 -0.968583 0
    outer loop
      vertex -0.421607 2.21015 6
      vertex -0.695288 2.13988 -6
      vertex -0.421607 2.21015 -6
    endloop
  endfacet
  facet normal 0.587808 -0.809001 0
    outer loop
      vertex -1.4342 1.73365 -6
      vertex -1.20561 1.89974 6
      vertex -1.4342 1.73365 6
    endloop
  endfacet
  facet normal 0.587808 -0.809001 0
    outer loop
      vertex -1.20561 1.89974 6
      vertex -1.4342 1.73365 -6
      vertex -1.20561 1.89974 -6
    endloop
  endfacet
  facet normal 0.684532 -0.728983 0
    outer loop
      vertex -1.64018 1.54023 -6
      vertex -1.4342 1.73365 6
      vertex -1.64018 1.54023 6
    endloop
  endfacet
  facet normal 0.684532 -0.728983 0
    outer loop
      vertex -1.4342 1.73365 6
      vertex -1.64018 1.54023 -6
      vertex -1.4342 1.73365 -6
    endloop
  endfacet
  facet normal -0.84433 0.535824 0
    outer loop
      vertex 1.82029 -1.32252 -6
      vertex 1.97169 -1.08395 6
      vertex 1.97169 -1.08395 -6
    endloop
  endfacet
  facet normal -0.84433 0.535824 0
    outer loop
      vertex 1.97169 -1.08395 6
      vertex 1.82029 -1.32252 -6
      vertex 1.82029 -1.32252 6
    endloop
  endfacet
  facet normal 0 1 -0
    outer loop
      vertex 0.141278 -2.24556 -6
      vertex -0.141278 -2.24556 6
      vertex 0.141278 -2.24556 6
    endloop
  endfacet
  facet normal 0 1 0
    outer loop
      vertex -0.141278 -2.24556 6
      vertex 0.141278 -2.24556 -6
      vertex -0.141278 -2.24556 -6
    endloop
  endfacet
  facet normal 0.951061 0.309002 0
    outer loop
      vertex -2.092 -0.828279 6
      vertex -2.17931 -0.559552 -6
      vertex -2.17931 -0.559552 6
    endloop
  endfacet
  facet normal 0.951061 0.309002 0
    outer loop
      vertex -2.17931 -0.559552 -6
      vertex -2.092 -0.828279 6
      vertex -2.092 -0.828279 -6
    endloop
  endfacet
  facet normal 0.770505 0.637434 0
    outer loop
      vertex -1.64018 -1.54023 6
      vertex -1.82029 -1.32252 -6
      vertex -1.82029 -1.32252 6
    endloop
  endfacet
  facet normal 0.770505 0.637434 0
    outer loop
      vertex -1.82029 -1.32252 -6
      vertex -1.64018 -1.54023 6
      vertex -1.64018 -1.54023 -6
    endloop
  endfacet
  facet normal -0.12532 0.992116 0
    outer loop
      vertex 0.421607 -2.21015 -6
      vertex 0.141278 -2.24556 6
      vertex 0.421607 -2.21015 6
    endloop
  endfacet
  facet normal -0.12532 0.992116 0
    outer loop
      vertex 0.141278 -2.24556 6
      vertex 0.421607 -2.21015 -6
      vertex 0.141278 -2.24556 -6
    endloop
  endfacet
  facet normal -0.904827 -0.42578 0
    outer loop
      vertex 2.092 0.828279 -6
      vertex 1.97169 1.08395 6
      vertex 1.97169 1.08395 -6
    endloop
  endfacet
  facet normal -0.904827 -0.42578 0
    outer loop
      vertex 1.97169 1.08395 6
      vertex 2.092 0.828279 -6
      vertex 2.092 0.828279 6
    endloop
  endfacet
  facet normal -0.951061 -0.309002 0
    outer loop
      vertex 2.17931 0.559552 -6
      vertex 2.092 0.828279 6
      vertex 2.092 0.828279 -6
    endloop
  endfacet
  facet normal -0.951061 -0.309002 0
    outer loop
      vertex 2.092 0.828279 6
      vertex 2.17931 0.559552 -6
      vertex 2.17931 0.559552 6
    endloop
  endfacet
  facet normal -0.12532 -0.992116 0
    outer loop
      vertex 0.141278 2.24556 -6
      vertex 0.421607 2.21015 6
      vertex 0.141278 2.24556 6
    endloop
  endfacet
  facet normal -0.12532 -0.992116 -0
    outer loop
      vertex 0.421607 2.21015 6
      vertex 0.141278 2.24556 -6
      vertex 0.421607 2.21015 -6
    endloop
  endfacet
  facet normal -0.998027 0.0627837 0
    outer loop
      vertex 2.23226 -0.282 -6
      vertex 2.25 0 6
      vertex 2.25 0 -6
    endloop
  endfacet
  facet normal -0.998027 0.0627837 0
    outer loop
      vertex 2.25 0 6
      vertex 2.23226 -0.282 -6
      vertex 2.23226 -0.282 6
    endloop
  endfacet
  facet normal -0.904827 0.42578 0
    outer loop
      vertex 1.97169 -1.08395 -6
      vertex 2.092 -0.828279 6
      vertex 2.092 -0.828279 -6
    endloop
  endfacet
  facet normal -0.904827 0.42578 0
    outer loop
      vertex 2.092 -0.828279 6
      vertex 1.97169 -1.08395 -6
      vertex 1.97169 -1.08395 6
    endloop
  endfacet
  facet normal 0.368136 0.929772 -0
    outer loop
      vertex -0.695288 -2.13988 -6
      vertex -0.958003 -2.03586 6
      vertex -0.695288 -2.13988 6
    endloop
  endfacet
  facet normal 0.368136 0.929772 0
    outer loop
      vertex -0.958003 -2.03586 6
      vertex -0.695288 -2.13988 -6
      vertex -0.958003 -2.03586 -6
    endloop
  endfacet
  facet normal -0.368136 0.929772 0
    outer loop
      vertex 0.958003 -2.03586 -6
      vertex 0.695288 -2.13988 6
      vertex 0.958003 -2.03586 6
    endloop
  endfacet
  facet normal -0.368136 0.929772 0
    outer loop
      vertex 0.695288 -2.13988 6
      vertex 0.958003 -2.03586 -6
      vertex 0.695288 -2.13988 -6
    endloop
  endfacet
  facet normal -0.248692 0.968583 0
    outer loop
      vertex 0.695288 -2.13988 -6
      vertex 0.421607 -2.21015 6
      vertex 0.695288 -2.13988 6
    endloop
  endfacet
  facet normal -0.248692 0.968583 0
    outer loop
      vertex 0.421607 -2.21015 6
      vertex 0.695288 -2.13988 -6
      vertex 0.421607 -2.21015 -6
    endloop
  endfacet
  facet normal -0.770505 0.637434 0
    outer loop
      vertex 1.64018 -1.54023 -6
      vertex 1.82029 -1.32252 6
      vertex 1.82029 -1.32252 -6
    endloop
  endfacet
  facet normal -0.770505 0.637434 0
    outer loop
      vertex 1.82029 -1.32252 6
      vertex 1.64018 -1.54023 -6
      vertex 1.64018 -1.54023 6
    endloop
  endfacet
  facet normal 0.481745 0.876311 -0
    outer loop
      vertex -0.958003 -2.03586 -6
      vertex -1.20561 -1.89974 6
      vertex -0.958003 -2.03586 6
    endloop
  endfacet
  facet normal 0.481745 0.876311 0
    outer loop
      vertex -1.20561 -1.89974 6
      vertex -0.958003 -2.03586 -6
      vertex -1.20561 -1.89974 -6
    endloop
  endfacet
  facet normal 0.982285 0.187395 0
    outer loop
      vertex -2.17931 -0.559552 6
      vertex -2.23226 -0.282 -6
      vertex -2.23226 -0.282 6
    endloop
  endfacet
  facet normal 0.982285 0.187395 0
    outer loop
      vertex -2.23226 -0.282 -6
      vertex -2.17931 -0.559552 6
      vertex -2.17931 -0.559552 -6
    endloop
  endfacet
  facet normal 0.998027 0.0627837 0
    outer loop
      vertex -2.23226 -0.282 6
      vertex -2.25 0 -6
      vertex -2.25 0 6
    endloop
  endfacet
  facet normal 0.998027 0.0627837 0
    outer loop
      vertex -2.25 0 -6
      vertex -2.23226 -0.282 6
      vertex -2.23226 -0.282 -6
    endloop
  endfacet
  facet normal 0.84433 0.535824 0
    outer loop
      vertex -1.82029 -1.32252 6
      vertex -1.97169 -1.08395 -6
      vertex -1.97169 -1.08395 6
    endloop
  endfacet
  facet normal 0.84433 0.535824 0
    outer loop
      vertex -1.97169 -1.08395 -6
      vertex -1.82029 -1.32252 6
      vertex -1.82029 -1.32252 -6
    endloop
  endfacet
  facet normal -0.481745 0.876311 0
    outer loop
      vertex 1.20561 -1.89974 -6
      vertex 0.958003 -2.03586 6
      vertex 1.20561 -1.89974 6
    endloop
  endfacet
  facet normal -0.481745 0.876311 0
    outer loop
      vertex 0.958003 -2.03586 6
      vertex 1.20561 -1.89974 -6
      vertex 0.958003 -2.03586 -6
    endloop
  endfacet
  facet normal -0.684532 0.728983 0
    outer loop
      vertex 1.64018 -1.54023 -6
      vertex 1.4342 -1.73365 6
      vertex 1.64018 -1.54023 6
    endloop
  endfacet
  facet normal -0.684532 0.728983 0
    outer loop
      vertex 1.4342 -1.73365 6
      vertex 1.64018 -1.54023 -6
      vertex 1.4342 -1.73365 -6
    endloop
  endfacet
  facet normal 0.587808 0.809001 -0
    outer loop
      vertex -1.20561 -1.89974 -6
      vertex -1.4342 -1.73365 6
      vertex -1.20561 -1.89974 6
    endloop
  endfacet
  facet normal 0.587808 0.809001 0
    outer loop
      vertex -1.4342 -1.73365 6
      vertex -1.20561 -1.89974 -6
      vertex -1.4342 -1.73365 -6
    endloop
  endfacet
  facet normal 0.248692 0.968583 -0
    outer loop
      vertex -0.421607 -2.21015 -6
      vertex -0.695288 -2.13988 6
      vertex -0.421607 -2.21015 6
    endloop
  endfacet
  facet normal 0.248692 0.968583 0
    outer loop
      vertex -0.695288 -2.13988 6
      vertex -0.421607 -2.21015 -6
      vertex -0.695288 -2.13988 -6
    endloop
  endfacet
  facet normal 0.12532 0.992116 -0
    outer loop
      vertex -0.141278 -2.24556 -6
      vertex -0.421607 -2.21015 6
      vertex -0.141278 -2.24556 6
    endloop
  endfacet
  facet normal 0.12532 0.992116 0
    outer loop
      vertex -0.421607 -2.21015 6
      vertex -0.141278 -2.24556 -6
      vertex -0.421607 -2.21015 -6
    endloop
  endfacet
endsolid OpenSCAD_Model
