solid OpenSCAD_Model
  facet normal 0.998027 0.0627802 0
    outer loop
      vertex 2.5 0 13.5
      vertex 2.48029 0.313333 -13.5
      vertex 2.48029 0.313333 13.5
    endloop
  endfacet
  facet normal 0.998027 0.0627802 0
    outer loop
      vertex 2.48029 0.313333 -13.5
      vertex 2.5 0 13.5
      vertex 2.5 0 -13.5
    endloop
  endfacet
  facet normal -0.998027 0.0627802 0
    outer loop
      vertex -2.5 0 -13.5
      vertex -2.48029 0.313333 13.5
      vertex -2.48029 0.313333 -13.5
    endloop
  endfacet
  facet normal -0.998027 0.0627802 0
    outer loop
      vertex -2.48029 0.313333 13.5
      vertex -2.5 0 -13.5
      vertex -2.5 0 13.5
    endloop
  endfacet
  facet normal 0 1 -0
    outer loop
      vertex 0.156976 2.49507 -13.5
      vertex -0.156976 2.49507 13.5
      vertex 0.156976 2.49507 13.5
    endloop
  endfacet
  facet normal 0 1 0
    outer loop
      vertex -0.156976 2.49507 13.5
      vertex 0.156976 2.49507 -13.5
      vertex -0.156976 2.49507 -13.5
    endloop
  endfacet
  facet normal 0.684541 0.728975 -0
    outer loop
      vertex 1.82242 1.71137 -13.5
      vertex 1.59356 1.92628 13.5
      vertex 1.82242 1.71137 13.5
    endloop
  endfacet
  facet normal 0.684541 0.728975 0
    outer loop
      vertex 1.59356 1.92628 13.5
      vertex 1.82242 1.71137 -13.5
      vertex 1.59356 1.92628 -13.5
    endloop
  endfacet
  facet normal -0.684541 0.728975 0
    outer loop
      vertex -1.59356 1.92628 -13.5
      vertex -1.82242 1.71137 13.5
      vertex -1.59356 1.92628 13.5
    endloop
  endfacet
  facet normal -0.684541 0.728975 0
    outer loop
      vertex -1.82242 1.71137 13.5
      vertex -1.59356 1.92628 -13.5
      vertex -1.82242 1.71137 -13.5
    endloop
  endfacet
  facet normal -0.368112 0.929781 0
    outer loop
      vertex -0.772542 2.37764 -13.5
      vertex -1.06445 2.26207 13.5
      vertex -0.772542 2.37764 13.5
    endloop
  endfacet
  facet normal -0.368112 0.929781 0
    outer loop
      vertex -1.06445 2.26207 13.5
      vertex -0.772542 2.37764 -13.5
      vertex -1.06445 2.26207 -13.5
    endloop
  endfacet
  facet normal 0.770522 -0.637414 0
    outer loop
      vertex 1.82242 -1.71137 13.5
      vertex 2.02254 -1.46946 -13.5
      vertex 2.02254 -1.46946 13.5
    endloop
  endfacet
  facet normal 0.770522 -0.637414 0
    outer loop
      vertex 2.02254 -1.46946 -13.5
      vertex 1.82242 -1.71137 13.5
      vertex 1.82242 -1.71137 -13.5
    endloop
  endfacet
  facet normal 0.90483 0.425772 0
    outer loop
      vertex 2.32444 0.920311 13.5
      vertex 2.19077 1.20438 -13.5
      vertex 2.19077 1.20438 13.5
    endloop
  endfacet
  facet normal 0.90483 0.425772 0
    outer loop
      vertex 2.19077 1.20438 -13.5
      vertex 2.32444 0.920311 13.5
      vertex 2.32444 0.920311 -13.5
    endloop
  endfacet
  facet normal 0.368112 0.929781 -0
    outer loop
      vertex 1.06445 2.26207 -13.5
      vertex 0.772542 2.37764 13.5
      vertex 1.06445 2.26207 13.5
    endloop
  endfacet
  facet normal 0.368112 0.929781 0
    outer loop
      vertex 0.772542 2.37764 13.5
      vertex 1.06445 2.26207 -13.5
      vertex 0.772542 2.37764 -13.5
    endloop
  endfacet
  facet normal 0.248699 0.968581 -0
    outer loop
      vertex 0.772542 2.37764 -13.5
      vertex 0.468452 2.45572 13.5
      vertex 0.772542 2.37764 13.5
    endloop
  endfacet
  facet normal 0.248699 0.968581 0
    outer loop
      vertex 0.468452 2.45572 13.5
      vertex 0.772542 2.37764 -13.5
      vertex 0.468452 2.45572 -13.5
    endloop
  endfacet
  facet normal 0.587797 0.809009 -0
    outer loop
      vertex 1.59356 1.92628 -13.5
      vertex 1.33957 2.11082 13.5
      vertex 1.59356 1.92628 13.5
    endloop
  endfacet
  facet normal 0.587797 0.809009 0
    outer loop
      vertex 1.33957 2.11082 13.5
      vertex 1.59356 1.92628 -13.5
      vertex 1.33957 2.11082 -13.5
    endloop
  endfacet
  facet normal -0.90483 0.425772 0
    outer loop
      vertex -2.32444 0.920311 -13.5
      vertex -2.19077 1.20438 13.5
      vertex -2.19077 1.20438 -13.5
    endloop
  endfacet
  facet normal -0.90483 0.425772 0
    outer loop
      vertex -2.19077 1.20438 13.5
      vertex -2.32444 0.920311 -13.5
      vertex -2.32444 0.920311 13.5
    endloop
  endfacet
  facet normal -0.844321 0.535838 0
    outer loop
      vertex -2.19077 1.20438 -13.5
      vertex -2.02254 1.46946 13.5
      vertex -2.02254 1.46946 -13.5
    endloop
  endfacet
  facet normal -0.844321 0.535838 0
    outer loop
      vertex -2.02254 1.46946 13.5
      vertex -2.19077 1.20438 -13.5
      vertex -2.19077 1.20438 13.5
    endloop
  endfacet
  facet normal -0.982287 0.187385 0
    outer loop
      vertex -2.48029 0.313333 -13.5
      vertex -2.42146 0.621724 13.5
      vertex -2.42146 0.621724 -13.5
    endloop
  endfacet
  facet normal -0.982287 0.187385 0
    outer loop
      vertex -2.42146 0.621724 13.5
      vertex -2.48029 0.313333 -13.5
      vertex -2.48029 0.313333 13.5
    endloop
  endfacet
  facet normal -0.587797 0.809009 0
    outer loop
      vertex -1.33957 2.11082 -13.5
      vertex -1.59356 1.92628 13.5
      vertex -1.33957 2.11082 13.5
    endloop
  endfacet
  facet normal -0.587797 0.809009 0
    outer loop
      vertex -1.59356 1.92628 13.5
      vertex -1.33957 2.11082 -13.5
      vertex -1.59356 1.92628 -13.5
    endloop
  endfacet
  facet normal -0.125338 0.992114 0
    outer loop
      vertex -0.156976 2.49507 -13.5
      vertex -0.468452 2.45572 13.5
      vertex -0.156976 2.49507 13.5
    endloop
  endfacet
  facet normal -0.125338 0.992114 0
    outer loop
      vertex -0.468452 2.45572 13.5
      vertex -0.156976 2.49507 -13.5
      vertex -0.468452 2.45572 -13.5
    endloop
  endfacet
  facet normal -0.248699 -0.968581 0
    outer loop
      vertex -0.772542 -2.37764 -13.5
      vertex -0.468452 -2.45572 13.5
      vertex -0.772542 -2.37764 13.5
    endloop
  endfacet
  facet normal -0.248699 -0.968581 -0
    outer loop
      vertex -0.468452 -2.45572 13.5
      vertex -0.772542 -2.37764 -13.5
      vertex -0.468452 -2.45572 -13.5
    endloop
  endfacet
  facet normal 0.125338 -0.992114 0
    outer loop
      vertex 0.156976 -2.49507 -13.5
      vertex 0.468452 -2.45572 13.5
      vertex 0.156976 -2.49507 13.5
    endloop
  endfacet
  facet normal 0.125338 -0.992114 0
    outer loop
      vertex 0.468452 -2.45572 13.5
      vertex 0.156976 -2.49507 -13.5
      vertex 0.468452 -2.45572 -13.5
    endloop
  endfacet
  facet normal 0.951054 0.309026 0
    outer loop
      vertex 2.42146 0.621724 13.5
      vertex 2.32444 0.920311 -13.5
      vertex 2.32444 0.920311 13.5
    endloop
  endfacet
  facet normal 0.951054 0.309026 0
    outer loop
      vertex 2.32444 0.920311 -13.5
      vertex 2.42146 0.621724 13.5
      vertex 2.42146 0.621724 -13.5
    endloop
  endfacet
  facet normal 0.982287 0.187385 0
    outer loop
      vertex 2.48029 0.313333 13.5
      vertex 2.42146 0.621724 -13.5
      vertex 2.42146 0.621724 13.5
    endloop
  endfacet
  facet normal 0.982287 0.187385 0
    outer loop
      vertex 2.42146 0.621724 -13.5
      vertex 2.48029 0.313333 13.5
      vertex 2.48029 0.313333 -13.5
    endloop
  endfacet
  facet normal 0.770522 0.637414 0
    outer loop
      vertex 2.02254 1.46946 13.5
      vertex 1.82242 1.71137 -13.5
      vertex 1.82242 1.71137 13.5
    endloop
  endfacet
  facet normal 0.770522 0.637414 0
    outer loop
      vertex 1.82242 1.71137 -13.5
      vertex 2.02254 1.46946 13.5
      vertex 2.02254 1.46946 -13.5
    endloop
  endfacet
  facet normal 0.844321 0.535838 0
    outer loop
      vertex 2.19077 1.20438 13.5
      vertex 2.02254 1.46946 -13.5
      vertex 2.02254 1.46946 13.5
    endloop
  endfacet
  facet normal 0.844321 0.535838 0
    outer loop
      vertex 2.02254 1.46946 -13.5
      vertex 2.19077 1.20438 13.5
      vertex 2.19077 1.20438 -13.5
    endloop
  endfacet
  facet normal 0.125338 0.992114 -0
    outer loop
      vertex 0.468452 2.45572 -13.5
      vertex 0.156976 2.49507 13.5
      vertex 0.468452 2.45572 13.5
    endloop
  endfacet
  facet normal 0.125338 0.992114 0
    outer loop
      vertex 0.156976 2.49507 13.5
      vertex 0.468452 2.45572 -13.5
      vertex 0.156976 2.49507 -13.5
    endloop
  endfacet
  facet normal 0.481757 0.876305 -0
    outer loop
      vertex 1.33957 2.11082 -13.5
      vertex 1.06445 2.26207 13.5
      vertex 1.33957 2.11082 13.5
    endloop
  endfacet
  facet normal 0.481757 0.876305 0
    outer loop
      vertex 1.06445 2.26207 13.5
      vertex 1.33957 2.11082 -13.5
      vertex 1.06445 2.26207 -13.5
    endloop
  endfacet
  facet normal 0 0 1
    outer loop
      vertex 1.5 0 13.5
      vertex 2.5 0 13.5
      vertex 2.48029 0.313333 13.5
    endloop
  endfacet
  facet normal 0 0 1
    outer loop
      vertex 1.48817 0.188 13.5
      vertex 2.48029 0.313333 13.5
      vertex 2.42146 0.621724 13.5
    endloop
  endfacet
  facet normal 0 0 1
    outer loop
      vertex 2.5 0 13.5
      vertex 1.5 0 13.5
      vertex 2.48029 -0.313333 13.5
    endloop
  endfacet
  facet normal 0 0 1
    outer loop
      vertex 1.45287 0.373034 13.5
      vertex 2.42146 0.621724 13.5
      vertex 2.32444 0.920311 13.5
    endloop
  endfacet
  facet normal -0 0 1
    outer loop
      vertex 1.48817 -0.188 13.5
      vertex 2.48029 -0.313333 13.5
      vertex 1.5 0 13.5
    endloop
  endfacet
  facet normal 0 0 1
    outer loop
      vertex 1.39466 0.552186 13.5
      vertex 2.32444 0.920311 13.5
      vertex 2.19077 1.20438 13.5
    endloop
  endfacet
  facet normal 0 0 1
    outer loop
      vertex 2.48029 -0.313333 13.5
      vertex 1.48817 -0.188 13.5
      vertex 2.42146 -0.621724 13.5
    endloop
  endfacet
  facet normal 0 0 1
    outer loop
      vertex 1.31446 0.722631 13.5
      vertex 2.19077 1.20438 13.5
      vertex 2.02254 1.46946 13.5
    endloop
  endfacet
  facet normal -0 0 1
    outer loop
      vertex 1.45287 -0.373034 13.5
      vertex 2.42146 -0.621724 13.5
      vertex 1.48817 -0.188 13.5
    endloop
  endfacet
  facet normal 0 0 1
    outer loop
      vertex 1.21352 0.881678 13.5
      vertex 2.02254 1.46946 13.5
      vertex 1.82242 1.71137 13.5
    endloop
  endfacet
  facet normal 0 0 1
    outer loop
      vertex 2.42146 -0.621724 13.5
      vertex 1.45287 -0.373034 13.5
      vertex 2.32444 -0.920311 13.5
    endloop
  endfacet
  facet normal 0 0 1
    outer loop
      vertex 1.09345 1.02682 13.5
      vertex 1.82242 1.71137 13.5
      vertex 1.59356 1.92628 13.5
    endloop
  endfacet
  facet normal -0 0 1
    outer loop
      vertex 1.39466 -0.552186 13.5
      vertex 2.32444 -0.920311 13.5
      vertex 1.45287 -0.373034 13.5
    endloop
  endfacet
  facet normal 0 0 1
    outer loop
      vertex 2.32444 -0.920311 13.5
      vertex 1.39466 -0.552186 13.5
      vertex 2.19077 -1.20438 13.5
    endloop
  endfacet
  facet normal 0 0 1
    outer loop
      vertex 2.48029 0.313333 13.5
      vertex 1.48817 0.188 13.5
      vertex 1.5 0 13.5
    endloop
  endfacet
  facet normal 0 0 1
    outer loop
      vertex 2.42146 0.621724 13.5
      vertex 1.45287 0.373034 13.5
      vertex 1.48817 0.188 13.5
    endloop
  endfacet
  facet normal 0 0 1
    outer loop
      vertex 2.32444 0.920311 13.5
      vertex 1.39466 0.552186 13.5
      vertex 1.45287 0.373034 13.5
    endloop
  endfacet
  facet normal 0 0 1
    outer loop
      vertex 0.956136 1.15577 13.5
      vertex 1.59356 1.92628 13.5
      vertex 1.33957 2.11082 13.5
    endloop
  endfacet
  facet normal 0 0 1
    outer loop
      vertex 2.19077 1.20438 13.5
      vertex 1.31446 0.722631 13.5
      vertex 1.39466 0.552186 13.5
    endloop
  endfacet
  facet normal 0 0 1
    outer loop
      vertex 2.02254 1.46946 13.5
      vertex 1.21352 0.881678 13.5
      vertex 1.31446 0.722631 13.5
    endloop
  endfacet
  facet normal 0 0 1
    outer loop
      vertex 1.82242 1.71137 13.5
      vertex 1.09345 1.02682 13.5
      vertex 1.21352 0.881678 13.5
    endloop
  endfacet
  facet normal 0 0 1
    outer loop
      vertex 0.80374 1.26649 13.5
      vertex 1.33957 2.11082 13.5
      vertex 1.06445 2.26207 13.5
    endloop
  endfacet
  facet normal 0 0 1
    outer loop
      vertex 1.59356 1.92628 13.5
      vertex 0.956136 1.15577 13.5
      vertex 1.09345 1.02682 13.5
    endloop
  endfacet
  facet normal 0 0 1
    outer loop
      vertex 1.33957 2.11082 13.5
      vertex 0.80374 1.26649 13.5
      vertex 0.956136 1.15577 13.5
    endloop
  endfacet
  facet normal 0 0 1
    outer loop
      vertex 0.638668 1.35724 13.5
      vertex 1.06445 2.26207 13.5
      vertex 0.772542 2.37764 13.5
    endloop
  endfacet
  facet normal 0 0 1
    outer loop
      vertex 1.06445 2.26207 13.5
      vertex 0.638668 1.35724 13.5
      vertex 0.80374 1.26649 13.5
    endloop
  endfacet
  facet normal 0 0 1
    outer loop
      vertex 0.463525 1.42658 13.5
      vertex 0.772542 2.37764 13.5
      vertex 0.468452 2.45572 13.5
    endloop
  endfacet
  facet normal 0 0 1
    outer loop
      vertex 0.772542 2.37764 13.5
      vertex 0.463525 1.42658 13.5
      vertex 0.638668 1.35724 13.5
    endloop
  endfacet
  facet normal 0 0 1
    outer loop
      vertex 0.468452 2.45572 13.5
      vertex 0.281072 1.47343 13.5
      vertex 0.463525 1.42658 13.5
    endloop
  endfacet
  facet normal 0 0 1
    outer loop
      vertex 0.156976 2.49507 13.5
      vertex 0.281072 1.47343 13.5
      vertex 0.468452 2.45572 13.5
    endloop
  endfacet
  facet normal 0 0 1
    outer loop
      vertex 0.156976 2.49507 13.5
      vertex 0.0941849 1.49704 13.5
      vertex 0.281072 1.47343 13.5
    endloop
  endfacet
  facet normal 0 0 1
    outer loop
      vertex 0.156976 2.49507 13.5
      vertex -0.0941849 1.49704 13.5
      vertex 0.0941849 1.49704 13.5
    endloop
  endfacet
  facet normal -0 0 1
    outer loop
      vertex -0.156976 2.49507 13.5
      vertex -0.0941849 1.49704 13.5
      vertex 0.156976 2.49507 13.5
    endloop
  endfacet
  facet normal 0 0 1
    outer loop
      vertex -0.156976 2.49507 13.5
      vertex -0.281072 1.47343 13.5
      vertex -0.0941849 1.49704 13.5
    endloop
  endfacet
  facet normal -0 0 1
    outer loop
      vertex -0.468452 2.45572 13.5
      vertex -0.281072 1.47343 13.5
      vertex -0.156976 2.49507 13.5
    endloop
  endfacet
  facet normal 0 0 1
    outer loop
      vertex -0.281072 1.47343 13.5
      vertex -0.468452 2.45572 13.5
      vertex -0.463525 1.42658 13.5
    endloop
  endfacet
  facet normal -0 0 1
    outer loop
      vertex -0.772542 2.37764 13.5
      vertex -0.463525 1.42658 13.5
      vertex -0.468452 2.45572 13.5
    endloop
  endfacet
  facet normal 0 0 1
    outer loop
      vertex -0.463525 1.42658 13.5
      vertex -0.772542 2.37764 13.5
      vertex -0.638668 1.35724 13.5
    endloop
  endfacet
  facet normal -0 0 1
    outer loop
      vertex -1.06445 2.26207 13.5
      vertex -0.638668 1.35724 13.5
      vertex -0.772542 2.37764 13.5
    endloop
  endfacet
  facet normal 0 0 1
    outer loop
      vertex -0.638668 1.35724 13.5
      vertex -1.06445 2.26207 13.5
      vertex -0.80374 1.26649 13.5
    endloop
  endfacet
  facet normal -0 0 1
    outer loop
      vertex -1.33957 2.11082 13.5
      vertex -0.80374 1.26649 13.5
      vertex -1.06445 2.26207 13.5
    endloop
  endfacet
  facet normal 0 0 1
    outer loop
      vertex -0.80374 1.26649 13.5
      vertex -1.33957 2.11082 13.5
      vertex -0.956136 1.15577 13.5
    endloop
  endfacet
  facet normal -0 0 1
    outer loop
      vertex -1.59356 1.92628 13.5
      vertex -0.956136 1.15577 13.5
      vertex -1.33957 2.11082 13.5
    endloop
  endfacet
  facet normal 0 0 1
    outer loop
      vertex -0.956136 1.15577 13.5
      vertex -1.59356 1.92628 13.5
      vertex -1.09345 1.02682 13.5
    endloop
  endfacet
  facet normal -0 0 1
    outer loop
      vertex -1.82242 1.71137 13.5
      vertex -1.09345 1.02682 13.5
      vertex -1.59356 1.92628 13.5
    endloop
  endfacet
  facet normal 0 0 1
    outer loop
      vertex -1.09345 1.02682 13.5
      vertex -1.82242 1.71137 13.5
      vertex -1.21352 0.881678 13.5
    endloop
  endfacet
  facet normal -0 0 1
    outer loop
      vertex -2.02254 1.46946 13.5
      vertex -1.21352 0.881678 13.5
      vertex -1.82242 1.71137 13.5
    endloop
  endfacet
  facet normal 0 0 1
    outer loop
      vertex -1.21352 0.881678 13.5
      vertex -2.02254 1.46946 13.5
      vertex -1.31446 0.722631 13.5
    endloop
  endfacet
  facet normal 0 0 1
    outer loop
      vertex -1.31446 0.722631 13.5
      vertex -2.19077 1.20438 13.5
      vertex -1.39466 0.552186 13.5
    endloop
  endfacet
  facet normal -0 0 1
    outer loop
      vertex -2.19077 1.20438 13.5
      vertex -1.31446 0.722631 13.5
      vertex -2.02254 1.46946 13.5
    endloop
  endfacet
  facet normal -0 0 1
    outer loop
      vertex 1.31446 -0.722631 13.5
      vertex 2.19077 -1.20438 13.5
      vertex 1.39466 -0.552186 13.5
    endloop
  endfacet
  facet normal 0 0 1
    outer loop
      vertex 2.19077 -1.20438 13.5
      vertex 1.31446 -0.722631 13.5
      vertex 2.02254 -1.46946 13.5
    endloop
  endfacet
  facet normal -0 0 1
    outer loop
      vertex 1.21352 -0.881678 13.5
      vertex 2.02254 -1.46946 13.5
      vertex 1.31446 -0.722631 13.5
    endloop
  endfacet
  facet normal 0 0 1
    outer loop
      vertex 2.02254 -1.46946 13.5
      vertex 1.21352 -0.881678 13.5
      vertex 1.82242 -1.71137 13.5
    endloop
  endfacet
  facet normal -0 0 1
    outer loop
      vertex 1.09345 -1.02682 13.5
      vertex 1.82242 -1.71137 13.5
      vertex 1.21352 -0.881678 13.5
    endloop
  endfacet
  facet normal 0 0 1
    outer loop
      vertex 1.82242 -1.71137 13.5
      vertex 1.09345 -1.02682 13.5
      vertex 1.59356 -1.92628 13.5
    endloop
  endfacet
  facet normal -0 0 1
    outer loop
      vertex 0.956136 -1.15577 13.5
      vertex 1.59356 -1.92628 13.5
      vertex 1.09345 -1.02682 13.5
    endloop
  endfacet
  facet normal 0 0 1
    outer loop
      vertex 1.59356 -1.92628 13.5
      vertex 0.956136 -1.15577 13.5
      vertex 1.33957 -2.11082 13.5
    endloop
  endfacet
  facet normal -0 0 1
    outer loop
      vertex 0.80374 -1.26649 13.5
      vertex 1.33957 -2.11082 13.5
      vertex 0.956136 -1.15577 13.5
    endloop
  endfacet
  facet normal 0 0 1
    outer loop
      vertex 1.33957 -2.11082 13.5
      vertex 0.80374 -1.26649 13.5
      vertex 1.06445 -2.26207 13.5
    endloop
  endfacet
  facet normal -0 0 1
    outer loop
      vertex 0.638668 -1.35724 13.5
      vertex 1.06445 -2.26207 13.5
      vertex 0.80374 -1.26649 13.5
    endloop
  endfacet
  facet normal 0 0 1
    outer loop
      vertex 1.06445 -2.26207 13.5
      vertex 0.638668 -1.35724 13.5
      vertex 0.772542 -2.37764 13.5
    endloop
  endfacet
  facet normal -0 0 1
    outer loop
      vertex 0.463525 -1.42658 13.5
      vertex 0.772542 -2.37764 13.5
      vertex 0.638668 -1.35724 13.5
    endloop
  endfacet
  facet normal 0 0 1
    outer loop
      vertex 0.772542 -2.37764 13.5
      vertex 0.463525 -1.42658 13.5
      vertex 0.468452 -2.45572 13.5
    endloop
  endfacet
  facet normal -0 0 1
    outer loop
      vertex 0.281072 -1.47343 13.5
      vertex 0.468452 -2.45572 13.5
      vertex 0.463525 -1.42658 13.5
    endloop
  endfacet
  facet normal 0 0 1
    outer loop
      vertex 0.281072 -1.47343 13.5
      vertex 0.156976 -2.49507 13.5
      vertex 0.468452 -2.45572 13.5
    endloop
  endfacet
  facet normal -0 0 1
    outer loop
      vertex 0.0941849 -1.49704 13.5
      vertex 0.156976 -2.49507 13.5
      vertex 0.281072 -1.47343 13.5
    endloop
  endfacet
  facet normal -0 0 1
    outer loop
      vertex -0.0941849 -1.49704 13.5
      vertex 0.156976 -2.49507 13.5
      vertex 0.0941849 -1.49704 13.5
    endloop
  endfacet
  facet normal 0 0 1
    outer loop
      vertex -0.0941849 -1.49704 13.5
      vertex -0.156976 -2.49507 13.5
      vertex 0.156976 -2.49507 13.5
    endloop
  endfacet
  facet normal 0 0 1
    outer loop
      vertex -0.281072 -1.47343 13.5
      vertex -0.156976 -2.49507 13.5
      vertex -0.0941849 -1.49704 13.5
    endloop
  endfacet
  facet normal 0 0 1
    outer loop
      vertex -0.468452 -2.45572 13.5
      vertex -0.281072 -1.47343 13.5
      vertex -0.463525 -1.42658 13.5
    endloop
  endfacet
  facet normal 0 0 1
    outer loop
      vertex -0.281072 -1.47343 13.5
      vertex -0.468452 -2.45572 13.5
      vertex -0.156976 -2.49507 13.5
    endloop
  endfacet
  facet normal 0 0 1
    outer loop
      vertex -0.772542 -2.37764 13.5
      vertex -0.463525 -1.42658 13.5
      vertex -0.638668 -1.35724 13.5
    endloop
  endfacet
  facet normal 0 0 1
    outer loop
      vertex -0.463525 -1.42658 13.5
      vertex -0.772542 -2.37764 13.5
      vertex -0.468452 -2.45572 13.5
    endloop
  endfacet
  facet normal 0 0 1
    outer loop
      vertex -1.06445 -2.26207 13.5
      vertex -0.638668 -1.35724 13.5
      vertex -0.80374 -1.26649 13.5
    endloop
  endfacet
  facet normal 0 0 1
    outer loop
      vertex -1.33957 -2.11082 13.5
      vertex -0.80374 -1.26649 13.5
      vertex -0.956136 -1.15577 13.5
    endloop
  endfacet
  facet normal 0 0 1
    outer loop
      vertex -0.638668 -1.35724 13.5
      vertex -1.06445 -2.26207 13.5
      vertex -0.772542 -2.37764 13.5
    endloop
  endfacet
  facet normal 0 0 1
    outer loop
      vertex -1.59356 -1.92628 13.5
      vertex -0.956136 -1.15577 13.5
      vertex -1.09345 -1.02682 13.5
    endloop
  endfacet
  facet normal 0 0 1
    outer loop
      vertex -1.82242 -1.71137 13.5
      vertex -1.09345 -1.02682 13.5
      vertex -1.21352 -0.881678 13.5
    endloop
  endfacet
  facet normal 0 0 1
    outer loop
      vertex -2.02254 -1.46946 13.5
      vertex -1.21352 -0.881678 13.5
      vertex -1.31446 -0.722631 13.5
    endloop
  endfacet
  facet normal 0 0 1
    outer loop
      vertex -0.80374 -1.26649 13.5
      vertex -1.33957 -2.11082 13.5
      vertex -1.06445 -2.26207 13.5
    endloop
  endfacet
  facet normal 0 0 1
    outer loop
      vertex -2.19077 -1.20438 13.5
      vertex -1.31446 -0.722631 13.5
      vertex -1.39466 -0.552186 13.5
    endloop
  endfacet
  facet normal 0 0 1
    outer loop
      vertex -2.32444 -0.920311 13.5
      vertex -1.39466 -0.552186 13.5
      vertex -1.45287 -0.373034 13.5
    endloop
  endfacet
  facet normal 0 0 1
    outer loop
      vertex -2.42146 -0.621724 13.5
      vertex -1.45287 -0.373034 13.5
      vertex -1.48817 -0.188 13.5
    endloop
  endfacet
  facet normal 0 0 1
    outer loop
      vertex -0.956136 -1.15577 13.5
      vertex -1.59356 -1.92628 13.5
      vertex -1.33957 -2.11082 13.5
    endloop
  endfacet
  facet normal 0 0 1
    outer loop
      vertex -2.48029 -0.313333 13.5
      vertex -1.48817 -0.188 13.5
      vertex -1.5 0 13.5
    endloop
  endfacet
  facet normal -0 0 1
    outer loop
      vertex -2.32444 0.920311 13.5
      vertex -1.39466 0.552186 13.5
      vertex -2.19077 1.20438 13.5
    endloop
  endfacet
  facet normal 0 0 1
    outer loop
      vertex -1.39466 0.552186 13.5
      vertex -2.32444 0.920311 13.5
      vertex -1.45287 0.373034 13.5
    endloop
  endfacet
  facet normal 0 0 1
    outer loop
      vertex -1.09345 -1.02682 13.5
      vertex -1.82242 -1.71137 13.5
      vertex -1.59356 -1.92628 13.5
    endloop
  endfacet
  facet normal -0 0 1
    outer loop
      vertex -2.42146 0.621724 13.5
      vertex -1.45287 0.373034 13.5
      vertex -2.32444 0.920311 13.5
    endloop
  endfacet
  facet normal 0 0 1
    outer loop
      vertex -1.21352 -0.881678 13.5
      vertex -2.02254 -1.46946 13.5
      vertex -1.82242 -1.71137 13.5
    endloop
  endfacet
  facet normal 0 0 1
    outer loop
      vertex -1.45287 0.373034 13.5
      vertex -2.42146 0.621724 13.5
      vertex -1.48817 0.188 13.5
    endloop
  endfacet
  facet normal 0 0 1
    outer loop
      vertex -1.31446 -0.722631 13.5
      vertex -2.19077 -1.20438 13.5
      vertex -2.02254 -1.46946 13.5
    endloop
  endfacet
  facet normal -0 0 1
    outer loop
      vertex -2.48029 0.313333 13.5
      vertex -1.48817 0.188 13.5
      vertex -2.42146 0.621724 13.5
    endloop
  endfacet
  facet normal 0 0 1
    outer loop
      vertex -1.39466 -0.552186 13.5
      vertex -2.32444 -0.920311 13.5
      vertex -2.19077 -1.20438 13.5
    endloop
  endfacet
  facet normal 0 0 1
    outer loop
      vertex -1.48817 0.188 13.5
      vertex -2.48029 0.313333 13.5
      vertex -1.5 0 13.5
    endloop
  endfacet
  facet normal 0 0 1
    outer loop
      vertex -1.45287 -0.373034 13.5
      vertex -2.42146 -0.621724 13.5
      vertex -2.32444 -0.920311 13.5
    endloop
  endfacet
  facet normal 0 0 1
    outer loop
      vertex -2.5 0 13.5
      vertex -1.5 0 13.5
      vertex -2.48029 0.313333 13.5
    endloop
  endfacet
  facet normal 0 0 1
    outer loop
      vertex -1.48817 -0.188 13.5
      vertex -2.48029 -0.313333 13.5
      vertex -2.42146 -0.621724 13.5
    endloop
  endfacet
  facet normal 0 0 1
    outer loop
      vertex -1.5 0 13.5
      vertex -2.5 0 13.5
      vertex -2.48029 -0.313333 13.5
    endloop
  endfacet
  facet normal 0.998027 -0.0627802 0
    outer loop
      vertex 2.48029 -0.313333 13.5
      vertex 2.5 0 -13.5
      vertex 2.5 0 13.5
    endloop
  endfacet
  facet normal 0.998027 -0.0627802 0
    outer loop
      vertex 2.5 0 -13.5
      vertex 2.48029 -0.313333 13.5
      vertex 2.48029 -0.313333 -13.5
    endloop
  endfacet
  facet normal 0.587797 -0.809009 0
    outer loop
      vertex 1.33957 -2.11082 -13.5
      vertex 1.59356 -1.92628 13.5
      vertex 1.33957 -2.11082 13.5
    endloop
  endfacet
  facet normal 0.587797 -0.809009 0
    outer loop
      vertex 1.59356 -1.92628 13.5
      vertex 1.33957 -2.11082 -13.5
      vertex 1.59356 -1.92628 -13.5
    endloop
  endfacet
  facet normal 0.90483 -0.425772 0
    outer loop
      vertex 2.19077 -1.20438 13.5
      vertex 2.32444 -0.920311 -13.5
      vertex 2.32444 -0.920311 13.5
    endloop
  endfacet
  facet normal 0.90483 -0.425772 0
    outer loop
      vertex 2.32444 -0.920311 -13.5
      vertex 2.19077 -1.20438 13.5
      vertex 2.19077 -1.20438 -13.5
    endloop
  endfacet
  facet normal 0.844321 -0.535838 0
    outer loop
      vertex 2.02254 -1.46946 13.5
      vertex 2.19077 -1.20438 -13.5
      vertex 2.19077 -1.20438 13.5
    endloop
  endfacet
  facet normal 0.844321 -0.535838 0
    outer loop
      vertex 2.19077 -1.20438 -13.5
      vertex 2.02254 -1.46946 13.5
      vertex 2.02254 -1.46946 -13.5
    endloop
  endfacet
  facet normal -0.125338 -0.992114 0
    outer loop
      vertex -0.468452 -2.45572 -13.5
      vertex -0.156976 -2.49507 13.5
      vertex -0.468452 -2.45572 13.5
    endloop
  endfacet
  facet normal -0.125338 -0.992114 -0
    outer loop
      vertex -0.156976 -2.49507 13.5
      vertex -0.468452 -2.45572 -13.5
      vertex -0.156976 -2.49507 -13.5
    endloop
  endfacet
  facet normal -0.90483 -0.425772 0
    outer loop
      vertex -2.19077 -1.20438 -13.5
      vertex -2.32444 -0.920311 13.5
      vertex -2.32444 -0.920311 -13.5
    endloop
  endfacet
  facet normal -0.90483 -0.425772 0
    outer loop
      vertex -2.32444 -0.920311 13.5
      vertex -2.19077 -1.20438 -13.5
      vertex -2.19077 -1.20438 13.5
    endloop
  endfacet
  facet normal -0.998027 -0.0627802 0
    outer loop
      vertex -2.48029 -0.313333 -13.5
      vertex -2.5 0 13.5
      vertex -2.5 0 -13.5
    endloop
  endfacet
  facet normal -0.998027 -0.0627802 0
    outer loop
      vertex -2.5 0 13.5
      vertex -2.48029 -0.313333 -13.5
      vertex -2.48029 -0.313333 13.5
    endloop
  endfacet
  facet normal -0.951054 -0.309026 0
    outer loop
      vertex -2.32444 -0.920311 -13.5
      vertex -2.42146 -0.621724 13.5
      vertex -2.42146 -0.621724 -13.5
    endloop
  endfacet
  facet normal -0.951054 -0.309026 0
    outer loop
      vertex -2.42146 -0.621724 13.5
      vertex -2.32444 -0.920311 -13.5
      vertex -2.32444 -0.920311 13.5
    endloop
  endfacet
  facet normal 0.684541 -0.728975 0
    outer loop
      vertex 1.59356 -1.92628 -13.5
      vertex 1.82242 -1.71137 13.5
      vertex 1.59356 -1.92628 13.5
    endloop
  endfacet
  facet normal 0.684541 -0.728975 0
    outer loop
      vertex 1.82242 -1.71137 13.5
      vertex 1.59356 -1.92628 -13.5
      vertex 1.82242 -1.71137 -13.5
    endloop
  endfacet
  facet normal 0.368112 -0.929781 0
    outer loop
      vertex 0.772542 -2.37764 -13.5
      vertex 1.06445 -2.26207 13.5
      vertex 0.772542 -2.37764 13.5
    endloop
  endfacet
  facet normal 0.368112 -0.929781 0
    outer loop
      vertex 1.06445 -2.26207 13.5
      vertex 0.772542 -2.37764 -13.5
      vertex 1.06445 -2.26207 -13.5
    endloop
  endfacet
  facet normal 0.248699 -0.968581 0
    outer loop
      vertex 0.468452 -2.45572 -13.5
      vertex 0.772542 -2.37764 13.5
      vertex 0.468452 -2.45572 13.5
    endloop
  endfacet
  facet normal 0.248699 -0.968581 0
    outer loop
      vertex 0.772542 -2.37764 13.5
      vertex 0.468452 -2.45572 -13.5
      vertex 0.772542 -2.37764 -13.5
    endloop
  endfacet
  facet normal -0.770522 0.637414 0
    outer loop
      vertex -2.02254 1.46946 -13.5
      vertex -1.82242 1.71137 13.5
      vertex -1.82242 1.71137 -13.5
    endloop
  endfacet
  facet normal -0.770522 0.637414 0
    outer loop
      vertex -1.82242 1.71137 13.5
      vertex -2.02254 1.46946 -13.5
      vertex -2.02254 1.46946 13.5
    endloop
  endfacet
  facet normal -0.951054 0.309026 0
    outer loop
      vertex -2.42146 0.621724 -13.5
      vertex -2.32444 0.920311 13.5
      vertex -2.32444 0.920311 -13.5
    endloop
  endfacet
  facet normal -0.951054 0.309026 0
    outer loop
      vertex -2.32444 0.920311 13.5
      vertex -2.42146 0.621724 -13.5
      vertex -2.42146 0.621724 13.5
    endloop
  endfacet
  facet normal -0.481757 0.876305 0
    outer loop
      vertex -1.06445 2.26207 -13.5
      vertex -1.33957 2.11082 13.5
      vertex -1.06445 2.26207 13.5
    endloop
  endfacet
  facet normal -0.481757 0.876305 0
    outer loop
      vertex -1.33957 2.11082 13.5
      vertex -1.06445 2.26207 -13.5
      vertex -1.33957 2.11082 -13.5
    endloop
  endfacet
  facet normal -0.248699 0.968581 0
    outer loop
      vertex -0.468452 2.45572 -13.5
      vertex -0.772542 2.37764 13.5
      vertex -0.468452 2.45572 13.5
    endloop
  endfacet
  facet normal -0.248699 0.968581 0
    outer loop
      vertex -0.772542 2.37764 13.5
      vertex -0.468452 2.45572 -13.5
      vertex -0.772542 2.37764 -13.5
    endloop
  endfacet
  facet normal 0.951054 -0.309026 0
    outer loop
      vertex 2.32444 -0.920311 13.5
      vertex 2.42146 -0.621724 -13.5
      vertex 2.42146 -0.621724 13.5
    endloop
  endfacet
  facet normal 0.951054 -0.309026 0
    outer loop
      vertex 2.42146 -0.621724 -13.5
      vertex 2.32444 -0.920311 13.5
      vertex 2.32444 -0.920311 -13.5
    endloop
  endfacet
  facet normal 0.982287 -0.187385 0
    outer loop
      vertex 2.42146 -0.621724 13.5
      vertex 2.48029 -0.313333 -13.5
      vertex 2.48029 -0.313333 13.5
    endloop
  endfacet
  facet normal 0.982287 -0.187385 0
    outer loop
      vertex 2.48029 -0.313333 -13.5
      vertex 2.42146 -0.621724 13.5
      vertex 2.42146 -0.621724 -13.5
    endloop
  endfacet
  facet normal -0.368112 -0.929781 0
    outer loop
      vertex -1.06445 -2.26207 -13.5
      vertex -0.772542 -2.37764 13.5
      vertex -1.06445 -2.26207 13.5
    endloop
  endfacet
  facet normal -0.368112 -0.929781 -0
    outer loop
      vertex -0.772542 -2.37764 13.5
      vertex -1.06445 -2.26207 -13.5
      vertex -0.772542 -2.37764 -13.5
    endloop
  endfacet
  facet normal -0.982287 -0.187385 0
    outer loop
      vertex -2.42146 -0.621724 -13.5
      vertex -2.48029 -0.313333 13.5
      vertex -2.48029 -0.313333 -13.5
    endloop
  endfacet
  facet normal -0.982287 -0.187385 0
    outer loop
      vertex -2.48029 -0.313333 13.5
      vertex -2.42146 -0.621724 -13.5
      vertex -2.42146 -0.621724 13.5
    endloop
  endfacet
  facet normal 0 0 -1
    outer loop
      vertex 1.5 0 -13.5
      vertex 2.5 0 -13.5
      vertex 2.48029 -0.313333 -13.5
    endloop
  endfacet
  facet normal 0 0 -1
    outer loop
      vertex 1.48817 -0.188 -13.5
      vertex 2.48029 -0.313333 -13.5
      vertex 2.42146 -0.621724 -13.5
    endloop
  endfacet
  facet normal 0 0 -1
    outer loop
      vertex 2.5 0 -13.5
      vertex 1.5 0 -13.5
      vertex 2.48029 0.313333 -13.5
    endloop
  endfacet
  facet normal 0 0 -1
    outer loop
      vertex 1.45287 -0.373034 -13.5
      vertex 2.42146 -0.621724 -13.5
      vertex 2.32444 -0.920311 -13.5
    endloop
  endfacet
  facet normal 0 0 -1
    outer loop
      vertex 1.48817 0.188 -13.5
      vertex 2.48029 0.313333 -13.5
      vertex 1.5 0 -13.5
    endloop
  endfacet
  facet normal 0 0 -1
    outer loop
      vertex 1.39466 -0.552186 -13.5
      vertex 2.32444 -0.920311 -13.5
      vertex 2.19077 -1.20438 -13.5
    endloop
  endfacet
  facet normal -0 0 -1
    outer loop
      vertex 2.48029 0.313333 -13.5
      vertex 1.48817 0.188 -13.5
      vertex 2.42146 0.621724 -13.5
    endloop
  endfacet
  facet normal 0 0 -1
    outer loop
      vertex 1.31446 -0.722631 -13.5
      vertex 2.19077 -1.20438 -13.5
      vertex 2.02254 -1.46946 -13.5
    endloop
  endfacet
  facet normal 0 0 -1
    outer loop
      vertex 1.45287 0.373034 -13.5
      vertex 2.42146 0.621724 -13.5
      vertex 1.48817 0.188 -13.5
    endloop
  endfacet
  facet normal 0 0 -1
    outer loop
      vertex 1.21352 -0.881678 -13.5
      vertex 2.02254 -1.46946 -13.5
      vertex 1.82242 -1.71137 -13.5
    endloop
  endfacet
  facet normal -0 0 -1
    outer loop
      vertex 2.42146 0.621724 -13.5
      vertex 1.45287 0.373034 -13.5
      vertex 2.32444 0.920311 -13.5
    endloop
  endfacet
  facet normal 0 0 -1
    outer loop
      vertex 1.09345 -1.02682 -13.5
      vertex 1.82242 -1.71137 -13.5
      vertex 1.59356 -1.92628 -13.5
    endloop
  endfacet
  facet normal 0 0 -1
    outer loop
      vertex 1.39466 0.552186 -13.5
      vertex 2.32444 0.920311 -13.5
      vertex 1.45287 0.373034 -13.5
    endloop
  endfacet
  facet normal -0 0 -1
    outer loop
      vertex 2.32444 0.920311 -13.5
      vertex 1.39466 0.552186 -13.5
      vertex 2.19077 1.20438 -13.5
    endloop
  endfacet
  facet normal 0 0 -1
    outer loop
      vertex 2.48029 -0.313333 -13.5
      vertex 1.48817 -0.188 -13.5
      vertex 1.5 0 -13.5
    endloop
  endfacet
  facet normal 0 0 -1
    outer loop
      vertex 2.42146 -0.621724 -13.5
      vertex 1.45287 -0.373034 -13.5
      vertex 1.48817 -0.188 -13.5
    endloop
  endfacet
  facet normal 0 0 -1
    outer loop
      vertex 2.32444 -0.920311 -13.5
      vertex 1.39466 -0.552186 -13.5
      vertex 1.45287 -0.373034 -13.5
    endloop
  endfacet
  facet normal 0 0 -1
    outer loop
      vertex 0.956136 -1.15577 -13.5
      vertex 1.59356 -1.92628 -13.5
      vertex 1.33957 -2.11082 -13.5
    endloop
  endfacet
  facet normal 0 0 -1
    outer loop
      vertex 2.19077 -1.20438 -13.5
      vertex 1.31446 -0.722631 -13.5
      vertex 1.39466 -0.552186 -13.5
    endloop
  endfacet
  facet normal 0 0 -1
    outer loop
      vertex 2.02254 -1.46946 -13.5
      vertex 1.21352 -0.881678 -13.5
      vertex 1.31446 -0.722631 -13.5
    endloop
  endfacet
  facet normal 0 0 -1
    outer loop
      vertex 1.82242 -1.71137 -13.5
      vertex 1.09345 -1.02682 -13.5
      vertex 1.21352 -0.881678 -13.5
    endloop
  endfacet
  facet normal 0 0 -1
    outer loop
      vertex 0.80374 -1.26649 -13.5
      vertex 1.33957 -2.11082 -13.5
      vertex 1.06445 -2.26207 -13.5
    endloop
  endfacet
  facet normal 0 0 -1
    outer loop
      vertex 1.59356 -1.92628 -13.5
      vertex 0.956136 -1.15577 -13.5
      vertex 1.09345 -1.02682 -13.5
    endloop
  endfacet
  facet normal 0 0 -1
    outer loop
      vertex 1.33957 -2.11082 -13.5
      vertex 0.80374 -1.26649 -13.5
      vertex 0.956136 -1.15577 -13.5
    endloop
  endfacet
  facet normal 0 0 -1
    outer loop
      vertex 0.638668 -1.35724 -13.5
      vertex 1.06445 -2.26207 -13.5
      vertex 0.772542 -2.37764 -13.5
    endloop
  endfacet
  facet normal 0 0 -1
    outer loop
      vertex 1.06445 -2.26207 -13.5
      vertex 0.638668 -1.35724 -13.5
      vertex 0.80374 -1.26649 -13.5
    endloop
  endfacet
  facet normal 0 0 -1
    outer loop
      vertex 0.463525 -1.42658 -13.5
      vertex 0.772542 -2.37764 -13.5
      vertex 0.468452 -2.45572 -13.5
    endloop
  endfacet
  facet normal 0 0 -1
    outer loop
      vertex 0.772542 -2.37764 -13.5
      vertex 0.463525 -1.42658 -13.5
      vertex 0.638668 -1.35724 -13.5
    endloop
  endfacet
  facet normal 0 0 -1
    outer loop
      vertex 0.468452 -2.45572 -13.5
      vertex 0.281072 -1.47343 -13.5
      vertex 0.463525 -1.42658 -13.5
    endloop
  endfacet
  facet normal 0 0 -1
    outer loop
      vertex 0.156976 -2.49507 -13.5
      vertex 0.281072 -1.47343 -13.5
      vertex 0.468452 -2.45572 -13.5
    endloop
  endfacet
  facet normal 0 0 -1
    outer loop
      vertex 0.156976 -2.49507 -13.5
      vertex 0.0941849 -1.49704 -13.5
      vertex 0.281072 -1.47343 -13.5
    endloop
  endfacet
  facet normal 0 0 -1
    outer loop
      vertex 0.156976 -2.49507 -13.5
      vertex -0.0941849 -1.49704 -13.5
      vertex 0.0941849 -1.49704 -13.5
    endloop
  endfacet
  facet normal 0 0 -1
    outer loop
      vertex -0.156976 -2.49507 -13.5
      vertex -0.0941849 -1.49704 -13.5
      vertex 0.156976 -2.49507 -13.5
    endloop
  endfacet
  facet normal 0 0 -1
    outer loop
      vertex -0.156976 -2.49507 -13.5
      vertex -0.281072 -1.47343 -13.5
      vertex -0.0941849 -1.49704 -13.5
    endloop
  endfacet
  facet normal 0 0 -1
    outer loop
      vertex -0.468452 -2.45572 -13.5
      vertex -0.281072 -1.47343 -13.5
      vertex -0.156976 -2.49507 -13.5
    endloop
  endfacet
  facet normal -0 0 -1
    outer loop
      vertex -0.281072 -1.47343 -13.5
      vertex -0.468452 -2.45572 -13.5
      vertex -0.463525 -1.42658 -13.5
    endloop
  endfacet
  facet normal 0 0 -1
    outer loop
      vertex -0.772542 -2.37764 -13.5
      vertex -0.463525 -1.42658 -13.5
      vertex -0.468452 -2.45572 -13.5
    endloop
  endfacet
  facet normal -0 0 -1
    outer loop
      vertex -0.463525 -1.42658 -13.5
      vertex -0.772542 -2.37764 -13.5
      vertex -0.638668 -1.35724 -13.5
    endloop
  endfacet
  facet normal 0 0 -1
    outer loop
      vertex -1.06445 -2.26207 -13.5
      vertex -0.638668 -1.35724 -13.5
      vertex -0.772542 -2.37764 -13.5
    endloop
  endfacet
  facet normal -0 0 -1
    outer loop
      vertex -0.638668 -1.35724 -13.5
      vertex -1.06445 -2.26207 -13.5
      vertex -0.80374 -1.26649 -13.5
    endloop
  endfacet
  facet normal 0 0 -1
    outer loop
      vertex -1.33957 -2.11082 -13.5
      vertex -0.80374 -1.26649 -13.5
      vertex -1.06445 -2.26207 -13.5
    endloop
  endfacet
  facet normal -0 0 -1
    outer loop
      vertex -0.80374 -1.26649 -13.5
      vertex -1.33957 -2.11082 -13.5
      vertex -0.956136 -1.15577 -13.5
    endloop
  endfacet
  facet normal 0 0 -1
    outer loop
      vertex -1.59356 -1.92628 -13.5
      vertex -0.956136 -1.15577 -13.5
      vertex -1.33957 -2.11082 -13.5
    endloop
  endfacet
  facet normal -0 0 -1
    outer loop
      vertex -0.956136 -1.15577 -13.5
      vertex -1.59356 -1.92628 -13.5
      vertex -1.09345 -1.02682 -13.5
    endloop
  endfacet
  facet normal 0 0 -1
    outer loop
      vertex -1.82242 -1.71137 -13.5
      vertex -1.09345 -1.02682 -13.5
      vertex -1.59356 -1.92628 -13.5
    endloop
  endfacet
  facet normal -0 0 -1
    outer loop
      vertex -1.09345 -1.02682 -13.5
      vertex -1.82242 -1.71137 -13.5
      vertex -1.21352 -0.881678 -13.5
    endloop
  endfacet
  facet normal 0 0 -1
    outer loop
      vertex -2.02254 -1.46946 -13.5
      vertex -1.21352 -0.881678 -13.5
      vertex -1.82242 -1.71137 -13.5
    endloop
  endfacet
  facet normal -0 0 -1
    outer loop
      vertex -1.21352 -0.881678 -13.5
      vertex -2.02254 -1.46946 -13.5
      vertex -1.31446 -0.722631 -13.5
    endloop
  endfacet
  facet normal -0 0 -1
    outer loop
      vertex -1.31446 -0.722631 -13.5
      vertex -2.19077 -1.20438 -13.5
      vertex -1.39466 -0.552186 -13.5
    endloop
  endfacet
  facet normal 0 0 -1
    outer loop
      vertex -2.19077 -1.20438 -13.5
      vertex -1.31446 -0.722631 -13.5
      vertex -2.02254 -1.46946 -13.5
    endloop
  endfacet
  facet normal 0 0 -1
    outer loop
      vertex 1.31446 0.722631 -13.5
      vertex 2.19077 1.20438 -13.5
      vertex 1.39466 0.552186 -13.5
    endloop
  endfacet
  facet normal -0 0 -1
    outer loop
      vertex 2.19077 1.20438 -13.5
      vertex 1.31446 0.722631 -13.5
      vertex 2.02254 1.46946 -13.5
    endloop
  endfacet
  facet normal 0 0 -1
    outer loop
      vertex 1.21352 0.881678 -13.5
      vertex 2.02254 1.46946 -13.5
      vertex 1.31446 0.722631 -13.5
    endloop
  endfacet
  facet normal -0 0 -1
    outer loop
      vertex 2.02254 1.46946 -13.5
      vertex 1.21352 0.881678 -13.5
      vertex 1.82242 1.71137 -13.5
    endloop
  endfacet
  facet normal 0 0 -1
    outer loop
      vertex 1.09345 1.02682 -13.5
      vertex 1.82242 1.71137 -13.5
      vertex 1.21352 0.881678 -13.5
    endloop
  endfacet
  facet normal -0 0 -1
    outer loop
      vertex 1.82242 1.71137 -13.5
      vertex 1.09345 1.02682 -13.5
      vertex 1.59356 1.92628 -13.5
    endloop
  endfacet
  facet normal 0 0 -1
    outer loop
      vertex 0.956136 1.15577 -13.5
      vertex 1.59356 1.92628 -13.5
      vertex 1.09345 1.02682 -13.5
    endloop
  endfacet
  facet normal -0 0 -1
    outer loop
      vertex 1.59356 1.92628 -13.5
      vertex 0.956136 1.15577 -13.5
      vertex 1.33957 2.11082 -13.5
    endloop
  endfacet
  facet normal 0 0 -1
    outer loop
      vertex 0.80374 1.26649 -13.5
      vertex 1.33957 2.11082 -13.5
      vertex 0.956136 1.15577 -13.5
    endloop
  endfacet
  facet normal -0 0 -1
    outer loop
      vertex 1.33957 2.11082 -13.5
      vertex 0.80374 1.26649 -13.5
      vertex 1.06445 2.26207 -13.5
    endloop
  endfacet
  facet normal 0 0 -1
    outer loop
      vertex 0.638668 1.35724 -13.5
      vertex 1.06445 2.26207 -13.5
      vertex 0.80374 1.26649 -13.5
    endloop
  endfacet
  facet normal -0 0 -1
    outer loop
      vertex 1.06445 2.26207 -13.5
      vertex 0.638668 1.35724 -13.5
      vertex 0.772542 2.37764 -13.5
    endloop
  endfacet
  facet normal 0 0 -1
    outer loop
      vertex 0.463525 1.42658 -13.5
      vertex 0.772542 2.37764 -13.5
      vertex 0.638668 1.35724 -13.5
    endloop
  endfacet
  facet normal -0 0 -1
    outer loop
      vertex 0.772542 2.37764 -13.5
      vertex 0.463525 1.42658 -13.5
      vertex 0.468452 2.45572 -13.5
    endloop
  endfacet
  facet normal 0 0 -1
    outer loop
      vertex 0.281072 1.47343 -13.5
      vertex 0.468452 2.45572 -13.5
      vertex 0.463525 1.42658 -13.5
    endloop
  endfacet
  facet normal 0 0 -1
    outer loop
      vertex 0.281072 1.47343 -13.5
      vertex 0.156976 2.49507 -13.5
      vertex 0.468452 2.45572 -13.5
    endloop
  endfacet
  facet normal 0 0 -1
    outer loop
      vertex 0.0941849 1.49704 -13.5
      vertex 0.156976 2.49507 -13.5
      vertex 0.281072 1.47343 -13.5
    endloop
  endfacet
  facet normal 0 0 -1
    outer loop
      vertex -0.0941849 1.49704 -13.5
      vertex 0.156976 2.49507 -13.5
      vertex 0.0941849 1.49704 -13.5
    endloop
  endfacet
  facet normal 0 0 -1
    outer loop
      vertex -0.0941849 1.49704 -13.5
      vertex -0.156976 2.49507 -13.5
      vertex 0.156976 2.49507 -13.5
    endloop
  endfacet
  facet normal 0 0 -1
    outer loop
      vertex -0.281072 1.47343 -13.5
      vertex -0.156976 2.49507 -13.5
      vertex -0.0941849 1.49704 -13.5
    endloop
  endfacet
  facet normal 0 0 -1
    outer loop
      vertex -0.468452 2.45572 -13.5
      vertex -0.281072 1.47343 -13.5
      vertex -0.463525 1.42658 -13.5
    endloop
  endfacet
  facet normal 0 0 -1
    outer loop
      vertex -0.281072 1.47343 -13.5
      vertex -0.468452 2.45572 -13.5
      vertex -0.156976 2.49507 -13.5
    endloop
  endfacet
  facet normal 0 0 -1
    outer loop
      vertex -0.772542 2.37764 -13.5
      vertex -0.463525 1.42658 -13.5
      vertex -0.638668 1.35724 -13.5
    endloop
  endfacet
  facet normal 0 0 -1
    outer loop
      vertex -0.463525 1.42658 -13.5
      vertex -0.772542 2.37764 -13.5
      vertex -0.468452 2.45572 -13.5
    endloop
  endfacet
  facet normal 0 0 -1
    outer loop
      vertex -1.06445 2.26207 -13.5
      vertex -0.638668 1.35724 -13.5
      vertex -0.80374 1.26649 -13.5
    endloop
  endfacet
  facet normal 0 0 -1
    outer loop
      vertex -1.33957 2.11082 -13.5
      vertex -0.80374 1.26649 -13.5
      vertex -0.956136 1.15577 -13.5
    endloop
  endfacet
  facet normal 0 0 -1
    outer loop
      vertex -0.638668 1.35724 -13.5
      vertex -1.06445 2.26207 -13.5
      vertex -0.772542 2.37764 -13.5
    endloop
  endfacet
  facet normal 0 0 -1
    outer loop
      vertex -1.59356 1.92628 -13.5
      vertex -0.956136 1.15577 -13.5
      vertex -1.09345 1.02682 -13.5
    endloop
  endfacet
  facet normal 0 0 -1
    outer loop
      vertex -1.82242 1.71137 -13.5
      vertex -1.09345 1.02682 -13.5
      vertex -1.21352 0.881678 -13.5
    endloop
  endfacet
  facet normal 0 0 -1
    outer loop
      vertex -2.02254 1.46946 -13.5
      vertex -1.21352 0.881678 -13.5
      vertex -1.31446 0.722631 -13.5
    endloop
  endfacet
  facet normal 0 0 -1
    outer loop
      vertex -0.80374 1.26649 -13.5
      vertex -1.33957 2.11082 -13.5
      vertex -1.06445 2.26207 -13.5
    endloop
  endfacet
  facet normal 0 0 -1
    outer loop
      vertex -2.19077 1.20438 -13.5
      vertex -1.31446 0.722631 -13.5
      vertex -1.39466 0.552186 -13.5
    endloop
  endfacet
  facet normal 0 0 -1
    outer loop
      vertex -2.32444 0.920311 -13.5
      vertex -1.39466 0.552186 -13.5
      vertex -1.45287 0.373034 -13.5
    endloop
  endfacet
  facet normal 0 0 -1
    outer loop
      vertex -2.42146 0.621724 -13.5
      vertex -1.45287 0.373034 -13.5
      vertex -1.48817 0.188 -13.5
    endloop
  endfacet
  facet normal 0 0 -1
    outer loop
      vertex -0.956136 1.15577 -13.5
      vertex -1.59356 1.92628 -13.5
      vertex -1.33957 2.11082 -13.5
    endloop
  endfacet
  facet normal 0 0 -1
    outer loop
      vertex -2.48029 0.313333 -13.5
      vertex -1.48817 0.188 -13.5
      vertex -1.5 0 -13.5
    endloop
  endfacet
  facet normal 0 0 -1
    outer loop
      vertex -2.32444 -0.920311 -13.5
      vertex -1.39466 -0.552186 -13.5
      vertex -2.19077 -1.20438 -13.5
    endloop
  endfacet
  facet normal -0 0 -1
    outer loop
      vertex -1.39466 -0.552186 -13.5
      vertex -2.32444 -0.920311 -13.5
      vertex -1.45287 -0.373034 -13.5
    endloop
  endfacet
  facet normal 0 0 -1
    outer loop
      vertex -1.09345 1.02682 -13.5
      vertex -1.82242 1.71137 -13.5
      vertex -1.59356 1.92628 -13.5
    endloop
  endfacet
  facet normal 0 0 -1
    outer loop
      vertex -2.42146 -0.621724 -13.5
      vertex -1.45287 -0.373034 -13.5
      vertex -2.32444 -0.920311 -13.5
    endloop
  endfacet
  facet normal 0 0 -1
    outer loop
      vertex -1.21352 0.881678 -13.5
      vertex -2.02254 1.46946 -13.5
      vertex -1.82242 1.71137 -13.5
    endloop
  endfacet
  facet normal -0 0 -1
    outer loop
      vertex -1.45287 -0.373034 -13.5
      vertex -2.42146 -0.621724 -13.5
      vertex -1.48817 -0.188 -13.5
    endloop
  endfacet
  facet normal 0 0 -1
    outer loop
      vertex -1.31446 0.722631 -13.5
      vertex -2.19077 1.20438 -13.5
      vertex -2.02254 1.46946 -13.5
    endloop
  endfacet
  facet normal 0 0 -1
    outer loop
      vertex -2.48029 -0.313333 -13.5
      vertex -1.48817 -0.188 -13.5
      vertex -2.42146 -0.621724 -13.5
    endloop
  endfacet
  facet normal 0 0 -1
    outer loop
      vertex -1.39466 0.552186 -13.5
      vertex -2.32444 0.920311 -13.5
      vertex -2.19077 1.20438 -13.5
    endloop
  endfacet
  facet normal -0 0 -1
    outer loop
      vertex -1.48817 -0.188 -13.5
      vertex -2.48029 -0.313333 -13.5
      vertex -1.5 0 -13.5
    endloop
  endfacet
  facet normal 0 0 -1
    outer loop
      vertex -1.45287 0.373034 -13.5
      vertex -2.42146 0.621724 -13.5
      vertex -2.32444 0.920311 -13.5
    endloop
  endfacet
  facet normal 0 0 -1
    outer loop
      vertex -2.5 0 -13.5
      vertex -1.5 0 -13.5
      vertex -2.48029 -0.313333 -13.5
    endloop
  endfacet
  facet normal 0 0 -1
    outer loop
      vertex -1.48817 0.188 -13.5
      vertex -2.48029 0.313333 -13.5
      vertex -2.42146 0.621724 -13.5
    endloop
  endfacet
  facet normal 0 0 -1
    outer loop
      vertex -1.5 0 -13.5
      vertex -2.5 0 -13.5
      vertex -2.48029 0.313333 -13.5
    endloop
  endfacet
  facet normal 0.481757 -0.876305 0
    outer loop
      vertex 1.06445 -2.26207 -13.5
      vertex 1.33957 -2.11082 13.5
      vertex 1.06445 -2.26207 13.5
    endloop
  endfacet
  facet normal 0.481757 -0.876305 0
    outer loop
      vertex 1.33957 -2.11082 13.5
      vertex 1.06445 -2.26207 -13.5
      vertex 1.33957 -2.11082 -13.5
    endloop
  endfacet
  facet normal 0 -1 0
    outer loop
      vertex -0.156976 -2.49507 -13.5
      vertex 0.156976 -2.49507 13.5
      vertex -0.156976 -2.49507 13.5
    endloop
  endfacet
  facet normal 0 -1 -0
    outer loop
      vertex 0.156976 -2.49507 13.5
      vertex -0.156976 -2.49507 -13.5
      vertex 0.156976 -2.49507 -13.5
    endloop
  endfacet
  facet normal -0.684541 -0.728975 0
    outer loop
      vertex -1.82242 -1.71137 -13.5
      vertex -1.59356 -1.92628 13.5
      vertex -1.82242 -1.71137 13.5
    endloop
  endfacet
  facet normal -0.684541 -0.728975 -0
    outer loop
      vertex -1.59356 -1.92628 13.5
      vertex -1.82242 -1.71137 -13.5
      vertex -1.59356 -1.92628 -13.5
    endloop
  endfacet
  facet normal -0.770522 -0.637414 0
    outer loop
      vertex -1.82242 -1.71137 -13.5
      vertex -2.02254 -1.46946 13.5
      vertex -2.02254 -1.46946 -13.5
    endloop
  endfacet
  facet normal -0.770522 -0.637414 0
    outer loop
      vertex -2.02254 -1.46946 13.5
      vertex -1.82242 -1.71137 -13.5
      vertex -1.82242 -1.71137 13.5
    endloop
  endfacet
  facet normal -0.844321 -0.535838 0
    outer loop
      vertex -2.02254 -1.46946 -13.5
      vertex -2.19077 -1.20438 13.5
      vertex -2.19077 -1.20438 -13.5
    endloop
  endfacet
  facet normal -0.844321 -0.535838 0
    outer loop
      vertex -2.19077 -1.20438 13.5
      vertex -2.02254 -1.46946 -13.5
      vertex -2.02254 -1.46946 13.5
    endloop
  endfacet
  facet normal -0.481757 -0.876305 0
    outer loop
      vertex -1.33957 -2.11082 -13.5
      vertex -1.06445 -2.26207 13.5
      vertex -1.33957 -2.11082 13.5
    endloop
  endfacet
  facet normal -0.481757 -0.876305 -0
    outer loop
      vertex -1.06445 -2.26207 13.5
      vertex -1.33957 -2.11082 -13.5
      vertex -1.06445 -2.26207 -13.5
    endloop
  endfacet
  facet normal -0.587797 -0.809009 0
    outer loop
      vertex -1.59356 -1.92628 -13.5
      vertex -1.33957 -2.11082 13.5
      vertex -1.59356 -1.92628 13.5
    endloop
  endfacet
  facet normal -0.587797 -0.809009 -0
    outer loop
      vertex -1.33957 -2.11082 13.5
      vertex -1.59356 -1.92628 -13.5
      vertex -1.33957 -2.11082 -13.5
    endloop
  endfacet
  facet normal 0.951057 -0.309017 0
    outer loop
      vertex -1.45287 0.373034 13.5
      vertex -1.39466 0.552186 -13.5
      vertex -1.39466 0.552186 13.5
    endloop
  endfacet
  facet normal 0.951057 -0.309017 0
    outer loop
      vertex -1.39466 0.552186 -13.5
      vertex -1.45287 0.373034 13.5
      vertex -1.45287 0.373034 -13.5
    endloop
  endfacet
  facet normal -0.844314 -0.535848 0
    outer loop
      vertex 1.31446 0.722631 -13.5
      vertex 1.21352 0.881678 13.5
      vertex 1.21352 0.881678 -13.5
    endloop
  endfacet
  facet normal -0.844314 -0.535848 0
    outer loop
      vertex 1.21352 0.881678 13.5
      vertex 1.31446 0.722631 -13.5
      vertex 1.31446 0.722631 13.5
    endloop
  endfacet
  facet normal -0.24871 -0.968578 0
    outer loop
      vertex 0.281072 1.47343 -13.5
      vertex 0.463525 1.42658 13.5
      vertex 0.281072 1.47343 13.5
    endloop
  endfacet
  facet normal -0.24871 -0.968578 -0
    outer loop
      vertex 0.463525 1.42658 13.5
      vertex 0.281072 1.47343 -13.5
      vertex 0.463525 1.42658 -13.5
    endloop
  endfacet
  facet normal -0.368106 -0.929784 0
    outer loop
      vertex 0.463525 1.42658 -13.5
      vertex 0.638668 1.35724 13.5
      vertex 0.463525 1.42658 13.5
    endloop
  endfacet
  facet normal -0.368106 -0.929784 -0
    outer loop
      vertex 0.638668 1.35724 13.5
      vertex 0.463525 1.42658 -13.5
      vertex 0.638668 1.35724 -13.5
    endloop
  endfacet
  facet normal 0.368106 -0.929784 0
    outer loop
      vertex -0.638668 1.35724 -13.5
      vertex -0.463525 1.42658 13.5
      vertex -0.638668 1.35724 13.5
    endloop
  endfacet
  facet normal 0.368106 -0.929784 0
    outer loop
      vertex -0.463525 1.42658 13.5
      vertex -0.638668 1.35724 -13.5
      vertex -0.463525 1.42658 -13.5
    endloop
  endfacet
  facet normal 0.904838 -0.425756 0
    outer loop
      vertex -1.39466 0.552186 13.5
      vertex -1.31446 0.722631 -13.5
      vertex -1.31446 0.722631 13.5
    endloop
  endfacet
  facet normal 0.904838 -0.425756 0
    outer loop
      vertex -1.31446 0.722631 -13.5
      vertex -1.39466 0.552186 13.5
      vertex -1.39466 0.552186 -13.5
    endloop
  endfacet
  facet normal -0.998026 0.0628013 0
    outer loop
      vertex 1.48817 -0.188 -13.5
      vertex 1.5 0 13.5
      vertex 1.5 0 -13.5
    endloop
  endfacet
  facet normal -0.998026 0.0628013 0
    outer loop
      vertex 1.5 0 13.5
      vertex 1.48817 -0.188 -13.5
      vertex 1.48817 -0.188 13.5
    endloop
  endfacet
  facet normal -0.368106 0.929784 0
    outer loop
      vertex 0.638668 -1.35724 -13.5
      vertex 0.463525 -1.42658 13.5
      vertex 0.638668 -1.35724 13.5
    endloop
  endfacet
  facet normal -0.368106 0.929784 0
    outer loop
      vertex 0.463525 -1.42658 13.5
      vertex 0.638668 -1.35724 -13.5
      vertex 0.463525 -1.42658 -13.5
    endloop
  endfacet
  facet normal -0.684557 -0.728959 0
    outer loop
      vertex 0.956136 1.15577 -13.5
      vertex 1.09345 1.02682 13.5
      vertex 0.956136 1.15577 13.5
    endloop
  endfacet
  facet normal -0.684557 -0.728959 -0
    outer loop
      vertex 1.09345 1.02682 13.5
      vertex 0.956136 1.15577 -13.5
      vertex 1.09345 1.02682 -13.5
    endloop
  endfacet
  facet normal -0.125337 -0.992114 0
    outer loop
      vertex 0.0941849 1.49704 -13.5
      vertex 0.281072 1.47343 13.5
      vertex 0.0941849 1.49704 13.5
    endloop
  endfacet
  facet normal -0.125337 -0.992114 -0
    outer loop
      vertex 0.281072 1.47343 13.5
      vertex 0.0941849 1.49704 -13.5
      vertex 0.281072 1.47343 -13.5
    endloop
  endfacet
  facet normal 0.770518 -0.637418 0
    outer loop
      vertex -1.21352 0.881678 13.5
      vertex -1.09345 1.02682 -13.5
      vertex -1.09345 1.02682 13.5
    endloop
  endfacet
  facet normal 0.770518 -0.637418 0
    outer loop
      vertex -1.09345 1.02682 -13.5
      vertex -1.21352 0.881678 13.5
      vertex -1.21352 0.881678 -13.5
    endloop
  endfacet
  facet normal 0.125337 -0.992114 0
    outer loop
      vertex -0.281072 1.47343 -13.5
      vertex -0.0941849 1.49704 13.5
      vertex -0.281072 1.47343 13.5
    endloop
  endfacet
  facet normal 0.125337 -0.992114 0
    outer loop
      vertex -0.0941849 1.49704 13.5
      vertex -0.281072 1.47343 -13.5
      vertex -0.0941849 1.49704 -13.5
    endloop
  endfacet
  facet normal 0.684557 -0.728959 0
    outer loop
      vertex -1.09345 1.02682 -13.5
      vertex -0.956136 1.15577 13.5
      vertex -1.09345 1.02682 13.5
    endloop
  endfacet
  facet normal 0.684557 -0.728959 0
    outer loop
      vertex -0.956136 1.15577 13.5
      vertex -1.09345 1.02682 -13.5
      vertex -0.956136 1.15577 -13.5
    endloop
  endfacet
  facet normal -0.998026 -0.0628013 0
    outer loop
      vertex 1.5 0 -13.5
      vertex 1.48817 0.188 13.5
      vertex 1.48817 0.188 -13.5
    endloop
  endfacet
  facet normal -0.998026 -0.0628013 0
    outer loop
      vertex 1.48817 0.188 13.5
      vertex 1.5 0 -13.5
      vertex 1.5 0 13.5
    endloop
  endfacet
  facet normal -0.24871 0.968578 0
    outer loop
      vertex 0.463525 -1.42658 -13.5
      vertex 0.281072 -1.47343 13.5
      vertex 0.463525 -1.42658 13.5
    endloop
  endfacet
  facet normal -0.24871 0.968578 0
    outer loop
      vertex 0.281072 -1.47343 13.5
      vertex 0.463525 -1.42658 -13.5
      vertex 0.281072 -1.47343 -13.5
    endloop
  endfacet
  facet normal -0.770518 -0.637418 0
    outer loop
      vertex 1.21352 0.881678 -13.5
      vertex 1.09345 1.02682 13.5
      vertex 1.09345 1.02682 -13.5
    endloop
  endfacet
  facet normal -0.770518 -0.637418 0
    outer loop
      vertex 1.09345 1.02682 13.5
      vertex 1.21352 0.881678 -13.5
      vertex 1.21352 0.881678 13.5
    endloop
  endfacet
  facet normal 0 -1 0
    outer loop
      vertex -0.0941849 1.49704 -13.5
      vertex 0.0941849 1.49704 13.5
      vertex -0.0941849 1.49704 13.5
    endloop
  endfacet
  facet normal 0 -1 -0
    outer loop
      vertex 0.0941849 1.49704 13.5
      vertex -0.0941849 1.49704 -13.5
      vertex 0.0941849 1.49704 -13.5
    endloop
  endfacet
  facet normal -0.587778 -0.809022 0
    outer loop
      vertex 0.80374 1.26649 -13.5
      vertex 0.956136 1.15577 13.5
      vertex 0.80374 1.26649 13.5
    endloop
  endfacet
  facet normal -0.587778 -0.809022 -0
    outer loop
      vertex 0.956136 1.15577 13.5
      vertex 0.80374 1.26649 -13.5
      vertex 0.956136 1.15577 -13.5
    endloop
  endfacet
  facet normal -0.481757 -0.876305 0
    outer loop
      vertex 0.638668 1.35724 -13.5
      vertex 0.80374 1.26649 13.5
      vertex 0.638668 1.35724 13.5
    endloop
  endfacet
  facet normal -0.481757 -0.876305 -0
    outer loop
      vertex 0.80374 1.26649 13.5
      vertex 0.638668 1.35724 -13.5
      vertex 0.80374 1.26649 -13.5
    endloop
  endfacet
  facet normal 0.998026 -0.0628013 0
    outer loop
      vertex -1.5 0 13.5
      vertex -1.48817 0.188 -13.5
      vertex -1.48817 0.188 13.5
    endloop
  endfacet
  facet normal 0.998026 -0.0628013 0
    outer loop
      vertex -1.48817 0.188 -13.5
      vertex -1.5 0 13.5
      vertex -1.5 0 -13.5
    endloop
  endfacet
  facet normal 0.982284 -0.187396 0
    outer loop
      vertex -1.48817 0.188 13.5
      vertex -1.45287 0.373034 -13.5
      vertex -1.45287 0.373034 13.5
    endloop
  endfacet
  facet normal 0.982284 -0.187396 0
    outer loop
      vertex -1.45287 0.373034 -13.5
      vertex -1.48817 0.188 13.5
      vertex -1.48817 0.188 -13.5
    endloop
  endfacet
  facet normal 0.844314 -0.535848 0
    outer loop
      vertex -1.31446 0.722631 13.5
      vertex -1.21352 0.881678 -13.5
      vertex -1.21352 0.881678 13.5
    endloop
  endfacet
  facet normal 0.844314 -0.535848 0
    outer loop
      vertex -1.21352 0.881678 -13.5
      vertex -1.31446 0.722631 13.5
      vertex -1.31446 0.722631 -13.5
    endloop
  endfacet
  facet normal 0.24871 -0.968578 0
    outer loop
      vertex -0.463525 1.42658 -13.5
      vertex -0.281072 1.47343 13.5
      vertex -0.463525 1.42658 13.5
    endloop
  endfacet
  facet normal 0.24871 -0.968578 0
    outer loop
      vertex -0.281072 1.47343 13.5
      vertex -0.463525 1.42658 -13.5
      vertex -0.281072 1.47343 -13.5
    endloop
  endfacet
  facet normal 0.481757 -0.876305 0
    outer loop
      vertex -0.80374 1.26649 -13.5
      vertex -0.638668 1.35724 13.5
      vertex -0.80374 1.26649 13.5
    endloop
  endfacet
  facet normal 0.481757 -0.876305 0
    outer loop
      vertex -0.638668 1.35724 13.5
      vertex -0.80374 1.26649 -13.5
      vertex -0.638668 1.35724 -13.5
    endloop
  endfacet
  facet normal 0.587778 -0.809022 0
    outer loop
      vertex -0.956136 1.15577 -13.5
      vertex -0.80374 1.26649 13.5
      vertex -0.956136 1.15577 13.5
    endloop
  endfacet
  facet normal 0.587778 -0.809022 0
    outer loop
      vertex -0.80374 1.26649 13.5
      vertex -0.956136 1.15577 -13.5
      vertex -0.80374 1.26649 -13.5
    endloop
  endfacet
  facet normal -0.982284 0.187396 0
    outer loop
      vertex 1.45287 -0.373034 -13.5
      vertex 1.48817 -0.188 13.5
      vertex 1.48817 -0.188 -13.5
    endloop
  endfacet
  facet normal -0.982284 0.187396 0
    outer loop
      vertex 1.48817 -0.188 13.5
      vertex 1.45287 -0.373034 -13.5
      vertex 1.45287 -0.373034 13.5
    endloop
  endfacet
  facet normal -0.125337 0.992114 0
    outer loop
      vertex 0.281072 -1.47343 -13.5
      vertex 0.0941849 -1.49704 13.5
      vertex 0.281072 -1.47343 13.5
    endloop
  endfacet
  facet normal -0.125337 0.992114 0
    outer loop
      vertex 0.0941849 -1.49704 13.5
      vertex 0.281072 -1.47343 -13.5
      vertex 0.0941849 -1.49704 -13.5
    endloop
  endfacet
  facet normal -0.904838 -0.425756 0
    outer loop
      vertex 1.39466 0.552186 -13.5
      vertex 1.31446 0.722631 13.5
      vertex 1.31446 0.722631 -13.5
    endloop
  endfacet
  facet normal -0.904838 -0.425756 0
    outer loop
      vertex 1.31446 0.722631 13.5
      vertex 1.39466 0.552186 -13.5
      vertex 1.39466 0.552186 13.5
    endloop
  endfacet
  facet normal -0.951057 -0.309017 0
    outer loop
      vertex 1.45287 0.373034 -13.5
      vertex 1.39466 0.552186 13.5
      vertex 1.39466 0.552186 -13.5
    endloop
  endfacet
  facet normal -0.951057 -0.309017 0
    outer loop
      vertex 1.39466 0.552186 13.5
      vertex 1.45287 0.373034 -13.5
      vertex 1.45287 0.373034 13.5
    endloop
  endfacet
  facet normal -0.982284 -0.187396 0
    outer loop
      vertex 1.48817 0.188 -13.5
      vertex 1.45287 0.373034 13.5
      vertex 1.45287 0.373034 -13.5
    endloop
  endfacet
  facet normal -0.982284 -0.187396 0
    outer loop
      vertex 1.45287 0.373034 13.5
      vertex 1.48817 0.188 -13.5
      vertex 1.48817 0.188 13.5
    endloop
  endfacet
  facet normal -0.481757 0.876305 0
    outer loop
      vertex 0.80374 -1.26649 -13.5
      vertex 0.638668 -1.35724 13.5
      vertex 0.80374 -1.26649 13.5
    endloop
  endfacet
  facet normal -0.481757 0.876305 0
    outer loop
      vertex 0.638668 -1.35724 13.5
      vertex 0.80374 -1.26649 -13.5
      vertex 0.638668 -1.35724 -13.5
    endloop
  endfacet
  facet normal -0.684557 0.728959 0
    outer loop
      vertex 1.09345 -1.02682 -13.5
      vertex 0.956136 -1.15577 13.5
      vertex 1.09345 -1.02682 13.5
    endloop
  endfacet
  facet normal -0.684557 0.728959 0
    outer loop
      vertex 0.956136 -1.15577 13.5
      vertex 1.09345 -1.02682 -13.5
      vertex 0.956136 -1.15577 -13.5
    endloop
  endfacet
  facet normal -0.770518 0.637418 0
    outer loop
      vertex 1.09345 -1.02682 -13.5
      vertex 1.21352 -0.881678 13.5
      vertex 1.21352 -0.881678 -13.5
    endloop
  endfacet
  facet normal -0.770518 0.637418 0
    outer loop
      vertex 1.21352 -0.881678 13.5
      vertex 1.09345 -1.02682 -13.5
      vertex 1.09345 -1.02682 13.5
    endloop
  endfacet
  facet normal 0.368106 0.929784 -0
    outer loop
      vertex -0.463525 -1.42658 -13.5
      vertex -0.638668 -1.35724 13.5
      vertex -0.463525 -1.42658 13.5
    endloop
  endfacet
  facet normal 0.368106 0.929784 0
    outer loop
      vertex -0.638668 -1.35724 13.5
      vertex -0.463525 -1.42658 -13.5
      vertex -0.638668 -1.35724 -13.5
    endloop
  endfacet
  facet normal 0.125337 0.992114 -0
    outer loop
      vertex -0.0941849 -1.49704 -13.5
      vertex -0.281072 -1.47343 13.5
      vertex -0.0941849 -1.49704 13.5
    endloop
  endfacet
  facet normal 0.125337 0.992114 0
    outer loop
      vertex -0.281072 -1.47343 13.5
      vertex -0.0941849 -1.49704 -13.5
      vertex -0.281072 -1.47343 -13.5
    endloop
  endfacet
  facet normal 0.998026 0.0628013 0
    outer loop
      vertex -1.48817 -0.188 13.5
      vertex -1.5 0 -13.5
      vertex -1.5 0 13.5
    endloop
  endfacet
  facet normal 0.998026 0.0628013 0
    outer loop
      vertex -1.5 0 -13.5
      vertex -1.48817 -0.188 13.5
      vertex -1.48817 -0.188 -13.5
    endloop
  endfacet
  facet normal 0.904838 0.425756 0
    outer loop
      vertex -1.31446 -0.722631 13.5
      vertex -1.39466 -0.552186 -13.5
      vertex -1.39466 -0.552186 13.5
    endloop
  endfacet
  facet normal 0.904838 0.425756 0
    outer loop
      vertex -1.39466 -0.552186 -13.5
      vertex -1.31446 -0.722631 13.5
      vertex -1.31446 -0.722631 -13.5
    endloop
  endfacet
  facet normal 0.951057 0.309017 0
    outer loop
      vertex -1.39466 -0.552186 13.5
      vertex -1.45287 -0.373034 -13.5
      vertex -1.45287 -0.373034 13.5
    endloop
  endfacet
  facet normal 0.951057 0.309017 0
    outer loop
      vertex -1.45287 -0.373034 -13.5
      vertex -1.39466 -0.552186 13.5
      vertex -1.39466 -0.552186 -13.5
    endloop
  endfacet
  facet normal 0.684557 0.728959 -0
    outer loop
      vertex -0.956136 -1.15577 -13.5
      vertex -1.09345 -1.02682 13.5
      vertex -0.956136 -1.15577 13.5
    endloop
  endfacet
  facet normal 0.684557 0.728959 0
    outer loop
      vertex -1.09345 -1.02682 13.5
      vertex -0.956136 -1.15577 -13.5
      vertex -1.09345 -1.02682 -13.5
    endloop
  endfacet
  facet normal -0.951057 0.309017 0
    outer loop
      vertex 1.39466 -0.552186 -13.5
      vertex 1.45287 -0.373034 13.5
      vertex 1.45287 -0.373034 -13.5
    endloop
  endfacet
  facet normal -0.951057 0.309017 0
    outer loop
      vertex 1.45287 -0.373034 13.5
      vertex 1.39466 -0.552186 -13.5
      vertex 1.39466 -0.552186 13.5
    endloop
  endfacet
  facet normal -0.904838 0.425756 0
    outer loop
      vertex 1.31446 -0.722631 -13.5
      vertex 1.39466 -0.552186 13.5
      vertex 1.39466 -0.552186 -13.5
    endloop
  endfacet
  facet normal -0.904838 0.425756 0
    outer loop
      vertex 1.39466 -0.552186 13.5
      vertex 1.31446 -0.722631 -13.5
      vertex 1.31446 -0.722631 13.5
    endloop
  endfacet
  facet normal -0.587778 0.809022 0
    outer loop
      vertex 0.956136 -1.15577 -13.5
      vertex 0.80374 -1.26649 13.5
      vertex 0.956136 -1.15577 13.5
    endloop
  endfacet
  facet normal -0.587778 0.809022 0
    outer loop
      vertex 0.80374 -1.26649 13.5
      vertex 0.956136 -1.15577 -13.5
      vertex 0.80374 -1.26649 -13.5
    endloop
  endfacet
  facet normal -0.844314 0.535848 0
    outer loop
      vertex 1.21352 -0.881678 -13.5
      vertex 1.31446 -0.722631 13.5
      vertex 1.31446 -0.722631 -13.5
    endloop
  endfacet
  facet normal -0.844314 0.535848 0
    outer loop
      vertex 1.31446 -0.722631 13.5
      vertex 1.21352 -0.881678 -13.5
      vertex 1.21352 -0.881678 13.5
    endloop
  endfacet
  facet normal 0.587778 0.809022 -0
    outer loop
      vertex -0.80374 -1.26649 -13.5
      vertex -0.956136 -1.15577 13.5
      vertex -0.80374 -1.26649 13.5
    endloop
  endfacet
  facet normal 0.587778 0.809022 0
    outer loop
      vertex -0.956136 -1.15577 13.5
      vertex -0.80374 -1.26649 -13.5
      vertex -0.956136 -1.15577 -13.5
    endloop
  endfacet
  facet normal 0 1 -0
    outer loop
      vertex 0.0941849 -1.49704 -13.5
      vertex -0.0941849 -1.49704 13.5
      vertex 0.0941849 -1.49704 13.5
    endloop
  endfacet
  facet normal 0 1 0
    outer loop
      vertex -0.0941849 -1.49704 13.5
      vertex 0.0941849 -1.49704 -13.5
      vertex -0.0941849 -1.49704 -13.5
    endloop
  endfacet
  facet normal 0.24871 0.968578 -0
    outer loop
      vertex -0.281072 -1.47343 -13.5
      vertex -0.463525 -1.42658 13.5
      vertex -0.281072 -1.47343 13.5
    endloop
  endfacet
  facet normal 0.24871 0.968578 0
    outer loop
      vertex -0.463525 -1.42658 13.5
      vertex -0.281072 -1.47343 -13.5
      vertex -0.463525 -1.42658 -13.5
    endloop
  endfacet
  facet normal 0.982284 0.187396 0
    outer loop
      vertex -1.45287 -0.373034 13.5
      vertex -1.48817 -0.188 -13.5
      vertex -1.48817 -0.188 13.5
    endloop
  endfacet
  facet normal 0.982284 0.187396 0
    outer loop
      vertex -1.48817 -0.188 -13.5
      vertex -1.45287 -0.373034 13.5
      vertex -1.45287 -0.373034 -13.5
    endloop
  endfacet
  facet normal 0.844314 0.535848 0
    outer loop
      vertex -1.21352 -0.881678 13.5
      vertex -1.31446 -0.722631 -13.5
      vertex -1.31446 -0.722631 13.5
    endloop
  endfacet
  facet normal 0.844314 0.535848 0
    outer loop
      vertex -1.31446 -0.722631 -13.5
      vertex -1.21352 -0.881678 13.5
      vertex -1.21352 -0.881678 -13.5
    endloop
  endfacet
  facet normal 0.481757 0.876305 -0
    outer loop
      vertex -0.638668 -1.35724 -13.5
      vertex -0.80374 -1.26649 13.5
      vertex -0.638668 -1.35724 13.5
    endloop
  endfacet
  facet normal 0.481757 0.876305 0
    outer loop
      vertex -0.80374 -1.26649 13.5
      vertex -0.638668 -1.35724 -13.5
      vertex -0.80374 -1.26649 -13.5
    endloop
  endfacet
  facet normal 0.770518 0.637418 0
    outer loop
      vertex -1.09345 -1.02682 13.5
      vertex -1.21352 -0.881678 -13.5
      vertex -1.21352 -0.881678 13.5
    endloop
  endfacet
  facet normal 0.770518 0.637418 0
    outer loop
      vertex -1.21352 -0.881678 -13.5
      vertex -1.09345 -1.02682 13.5
      vertex -1.09345 -1.02682 -13.5
    endloop
  endfacet
endsolid OpenSCAD_Model
