solid OpenSCAD_Model
  facet normal 0.998027 0.0627879 0
    outer loop
      vertex 8 0 1.5
      vertex 7.93692 1.00267 -1.5
      vertex 7.93692 1.00267 1.5
    endloop
  endfacet
  facet normal 0.998027 0.0627879 0
    outer loop
      vertex 7.93692 1.00267 -1.5
      vertex 8 0 1.5
      vertex 8 0 -1.5
    endloop
  endfacet
  facet normal -0.998027 0.0627879 0
    outer loop
      vertex -8 0 -1.5
      vertex -7.93692 1.00267 1.5
      vertex -7.93692 1.00267 -1.5
    endloop
  endfacet
  facet normal -0.998027 0.0627879 0
    outer loop
      vertex -7.93692 1.00267 1.5
      vertex -8 0 -1.5
      vertex -8 0 1.5
    endloop
  endfacet
  facet normal 0 1 -0
    outer loop
      vertex 0.502324 7.98421 -1.5
      vertex -0.502324 7.98421 1.5
      vertex 0.502324 7.98421 1.5
    endloop
  endfacet
  facet normal 0 1 0
    outer loop
      vertex -0.502324 7.98421 1.5
      vertex 0.502324 7.98421 -1.5
      vertex -0.502324 7.98421 -1.5
    endloop
  endfacet
  facet normal 0.684546 0.72897 -0
    outer loop
      vertex 5.83175 5.47638 -1.5
      vertex 5.09939 6.16411 1.5
      vertex 5.83175 5.47638 1.5
    endloop
  endfacet
  facet normal 0.684546 0.72897 0
    outer loop
      vertex 5.09939 6.16411 1.5
      vertex 5.83175 5.47638 -1.5
      vertex 5.09939 6.16411 -1.5
    endloop
  endfacet
  facet normal -0.684546 0.72897 0
    outer loop
      vertex -5.09939 6.16411 -1.5
      vertex -5.83175 5.47638 1.5
      vertex -5.09939 6.16411 1.5
    endloop
  endfacet
  facet normal -0.684546 0.72897 0
    outer loop
      vertex -5.83175 5.47638 1.5
      vertex -5.09939 6.16411 -1.5
      vertex -5.83175 5.47638 -1.5
    endloop
  endfacet
  facet normal -0.368122 0.929777 0
    outer loop
      vertex -2.47214 7.60845 -1.5
      vertex -3.40623 7.23862 1.5
      vertex -2.47214 7.60845 1.5
    endloop
  endfacet
  facet normal -0.368122 0.929777 0
    outer loop
      vertex -3.40623 7.23862 1.5
      vertex -2.47214 7.60845 -1.5
      vertex -3.40623 7.23862 -1.5
    endloop
  endfacet
  facet normal 0.904826 0.425782 0
    outer loop
      vertex 7.43821 2.945 1.5
      vertex 7.01045 3.85403 -1.5
      vertex 7.01045 3.85403 1.5
    endloop
  endfacet
  facet normal 0.904826 0.425782 0
    outer loop
      vertex 7.01045 3.85403 -1.5
      vertex 7.43821 2.945 1.5
      vertex 7.43821 2.945 -1.5
    endloop
  endfacet
  facet normal 0.368122 0.929777 -0
    outer loop
      vertex 3.40623 7.23862 -1.5
      vertex 2.47214 7.60845 1.5
      vertex 3.40623 7.23862 1.5
    endloop
  endfacet
  facet normal 0.368122 0.929777 0
    outer loop
      vertex 2.47214 7.60845 1.5
      vertex 3.40623 7.23862 -1.5
      vertex 2.47214 7.60845 -1.5
    endloop
  endfacet
  facet normal 0.248693 0.968582 -0
    outer loop
      vertex 2.47214 7.60845 -1.5
      vertex 1.49905 7.8583 1.5
      vertex 2.47214 7.60845 1.5
    endloop
  endfacet
  facet normal 0.248693 0.968582 0
    outer loop
      vertex 1.49905 7.8583 1.5
      vertex 2.47214 7.60845 -1.5
      vertex 1.49905 7.8583 -1.5
    endloop
  endfacet
  facet normal 0.587779 0.809021 -0
    outer loop
      vertex 5.09939 6.16411 -1.5
      vertex 4.28661 6.75462 1.5
      vertex 5.09939 6.16411 1.5
    endloop
  endfacet
  facet normal 0.587779 0.809021 0
    outer loop
      vertex 4.28661 6.75462 1.5
      vertex 5.09939 6.16411 -1.5
      vertex 4.28661 6.75462 -1.5
    endloop
  endfacet
  facet normal -0.844331 0.535823 0
    outer loop
      vertex -7.01045 3.85403 -1.5
      vertex -6.47214 4.70228 1.5
      vertex -6.47214 4.70228 -1.5
    endloop
  endfacet
  facet normal -0.844331 0.535823 0
    outer loop
      vertex -6.47214 4.70228 1.5
      vertex -7.01045 3.85403 -1.5
      vertex -7.01045 3.85403 1.5
    endloop
  endfacet
  facet normal -0.770514 0.637423 0
    outer loop
      vertex -6.47214 4.70228 -1.5
      vertex -5.83175 5.47638 1.5
      vertex -5.83175 5.47638 -1.5
    endloop
  endfacet
  facet normal -0.770514 0.637423 0
    outer loop
      vertex -5.83175 5.47638 1.5
      vertex -6.47214 4.70228 -1.5
      vertex -6.47214 4.70228 1.5
    endloop
  endfacet
  facet normal -0.982286 0.187389 0
    outer loop
      vertex -7.93692 1.00267 -1.5
      vertex -7.74866 1.98952 1.5
      vertex -7.74866 1.98952 -1.5
    endloop
  endfacet
  facet normal -0.982286 0.187389 0
    outer loop
      vertex -7.74866 1.98952 1.5
      vertex -7.93692 1.00267 -1.5
      vertex -7.93692 1.00267 1.5
    endloop
  endfacet
  facet normal -0.587779 0.809021 0
    outer loop
      vertex -4.28661 6.75462 -1.5
      vertex -5.09939 6.16411 1.5
      vertex -4.28661 6.75462 1.5
    endloop
  endfacet
  facet normal -0.587779 0.809021 0
    outer loop
      vertex -5.09939 6.16411 1.5
      vertex -4.28661 6.75462 -1.5
      vertex -5.09939 6.16411 -1.5
    endloop
  endfacet
  facet normal -0.125328 0.992115 0
    outer loop
      vertex -0.502324 7.98421 -1.5
      vertex -1.49905 7.8583 1.5
      vertex -0.502324 7.98421 1.5
    endloop
  endfacet
  facet normal -0.125328 0.992115 0
    outer loop
      vertex -1.49905 7.8583 1.5
      vertex -0.502324 7.98421 -1.5
      vertex -1.49905 7.8583 -1.5
    endloop
  endfacet
  facet normal 0.770514 -0.637423 0
    outer loop
      vertex 5.83175 -5.47638 1.5
      vertex 6.47214 -4.70228 -1.5
      vertex 6.47214 -4.70228 1.5
    endloop
  endfacet
  facet normal 0.770514 -0.637423 0
    outer loop
      vertex 6.47214 -4.70228 -1.5
      vertex 5.83175 -5.47638 1.5
      vertex 5.83175 -5.47638 -1.5
    endloop
  endfacet
  facet normal 0.125328 -0.992115 0
    outer loop
      vertex 0.502324 -7.98421 -1.5
      vertex 1.49905 -7.8583 1.5
      vertex 0.502324 -7.98421 1.5
    endloop
  endfacet
  facet normal 0.125328 -0.992115 0
    outer loop
      vertex 1.49905 -7.8583 1.5
      vertex 0.502324 -7.98421 -1.5
      vertex 1.49905 -7.8583 -1.5
    endloop
  endfacet
  facet normal 0.951058 0.309013 0
    outer loop
      vertex 7.74866 1.98952 1.5
      vertex 7.43821 2.945 -1.5
      vertex 7.43821 2.945 1.5
    endloop
  endfacet
  facet normal 0.951058 0.309013 0
    outer loop
      vertex 7.43821 2.945 -1.5
      vertex 7.74866 1.98952 1.5
      vertex 7.74866 1.98952 -1.5
    endloop
  endfacet
  facet normal 0.982286 0.187389 0
    outer loop
      vertex 7.93692 1.00267 1.5
      vertex 7.74866 1.98952 -1.5
      vertex 7.74866 1.98952 1.5
    endloop
  endfacet
  facet normal 0.982286 0.187389 0
    outer loop
      vertex 7.74866 1.98952 -1.5
      vertex 7.93692 1.00267 1.5
      vertex 7.93692 1.00267 -1.5
    endloop
  endfacet
  facet normal 0.770514 0.637423 0
    outer loop
      vertex 6.47214 4.70228 1.5
      vertex 5.83175 5.47638 -1.5
      vertex 5.83175 5.47638 1.5
    endloop
  endfacet
  facet normal 0.770514 0.637423 0
    outer loop
      vertex 5.83175 5.47638 -1.5
      vertex 6.47214 4.70228 1.5
      vertex 6.47214 4.70228 -1.5
    endloop
  endfacet
  facet normal 0.844331 0.535823 0
    outer loop
      vertex 7.01045 3.85403 1.5
      vertex 6.47214 4.70228 -1.5
      vertex 6.47214 4.70228 1.5
    endloop
  endfacet
  facet normal 0.844331 0.535823 0
    outer loop
      vertex 6.47214 4.70228 -1.5
      vertex 7.01045 3.85403 1.5
      vertex 7.01045 3.85403 -1.5
    endloop
  endfacet
  facet normal 0.125328 0.992115 -0
    outer loop
      vertex 1.49905 7.8583 -1.5
      vertex 0.502324 7.98421 1.5
      vertex 1.49905 7.8583 1.5
    endloop
  endfacet
  facet normal 0.125328 0.992115 0
    outer loop
      vertex 0.502324 7.98421 1.5
      vertex 1.49905 7.8583 -1.5
      vertex 0.502324 7.98421 -1.5
    endloop
  endfacet
  facet normal 0.481759 0.876304 -0
    outer loop
      vertex 4.28661 6.75462 -1.5
      vertex 3.40623 7.23862 1.5
      vertex 4.28661 6.75462 1.5
    endloop
  endfacet
  facet normal 0.481759 0.876304 0
    outer loop
      vertex 3.40623 7.23862 1.5
      vertex 4.28661 6.75462 -1.5
      vertex 3.40623 7.23862 -1.5
    endloop
  endfacet
  facet normal -0.904826 0.425782 0
    outer loop
      vertex -7.43821 2.945 -1.5
      vertex -7.01045 3.85403 1.5
      vertex -7.01045 3.85403 -1.5
    endloop
  endfacet
  facet normal -0.904826 0.425782 0
    outer loop
      vertex -7.01045 3.85403 1.5
      vertex -7.43821 2.945 -1.5
      vertex -7.43821 2.945 1.5
    endloop
  endfacet
  facet normal 0 0 1
    outer loop
      vertex 4 0 1.5
      vertex 8 0 1.5
      vertex 7.93692 1.00267 1.5
    endloop
  endfacet
  facet normal 0 0 1
    outer loop
      vertex 3.96846 0.501332 1.5
      vertex 7.93692 1.00267 1.5
      vertex 7.74866 1.98952 1.5
    endloop
  endfacet
  facet normal 0 0 1
    outer loop
      vertex 8 0 1.5
      vertex 4 0 1.5
      vertex 7.93692 -1.00267 1.5
    endloop
  endfacet
  facet normal 0 0 1
    outer loop
      vertex 3.87433 0.994759 1.5
      vertex 7.74866 1.98952 1.5
      vertex 7.43821 2.945 1.5
    endloop
  endfacet
  facet normal -0 0 1
    outer loop
      vertex 3.96846 -0.501332 1.5
      vertex 7.93692 -1.00267 1.5
      vertex 4 0 1.5
    endloop
  endfacet
  facet normal 0 0 1
    outer loop
      vertex 3.71911 1.4725 1.5
      vertex 7.43821 2.945 1.5
      vertex 7.01045 3.85403 1.5
    endloop
  endfacet
  facet normal 0 0 1
    outer loop
      vertex 7.93692 -1.00267 1.5
      vertex 3.96846 -0.501332 1.5
      vertex 7.74866 -1.98952 1.5
    endloop
  endfacet
  facet normal 0 0 1
    outer loop
      vertex 3.50523 1.92701 1.5
      vertex 7.01045 3.85403 1.5
      vertex 6.47214 4.70228 1.5
    endloop
  endfacet
  facet normal -0 0 1
    outer loop
      vertex 3.87433 -0.994759 1.5
      vertex 7.74866 -1.98952 1.5
      vertex 3.96846 -0.501332 1.5
    endloop
  endfacet
  facet normal 0 0 1
    outer loop
      vertex 3.23607 2.35114 1.5
      vertex 6.47214 4.70228 1.5
      vertex 5.83175 5.47638 1.5
    endloop
  endfacet
  facet normal 0 0 1
    outer loop
      vertex 7.74866 -1.98952 1.5
      vertex 3.87433 -0.994759 1.5
      vertex 7.43821 -2.945 1.5
    endloop
  endfacet
  facet normal 0 0 1
    outer loop
      vertex 2.91587 2.73819 1.5
      vertex 5.83175 5.47638 1.5
      vertex 5.09939 6.16411 1.5
    endloop
  endfacet
  facet normal -0 0 1
    outer loop
      vertex 3.71911 -1.4725 1.5
      vertex 7.43821 -2.945 1.5
      vertex 3.87433 -0.994759 1.5
    endloop
  endfacet
  facet normal 0 0 1
    outer loop
      vertex 2.5497 3.08205 1.5
      vertex 5.09939 6.16411 1.5
      vertex 4.28661 6.75462 1.5
    endloop
  endfacet
  facet normal 0 0 1
    outer loop
      vertex 7.43821 -2.945 1.5
      vertex 3.71911 -1.4725 1.5
      vertex 7.01045 -3.85403 1.5
    endloop
  endfacet
  facet normal -0 0 1
    outer loop
      vertex 3.50523 -1.92701 1.5
      vertex 7.01045 -3.85403 1.5
      vertex 3.71911 -1.4725 1.5
    endloop
  endfacet
  facet normal 0 0 1
    outer loop
      vertex 7.93692 1.00267 1.5
      vertex 3.96846 0.501332 1.5
      vertex 4 0 1.5
    endloop
  endfacet
  facet normal 0 0 1
    outer loop
      vertex 7.74866 1.98952 1.5
      vertex 3.87433 0.994759 1.5
      vertex 3.96846 0.501332 1.5
    endloop
  endfacet
  facet normal 0 0 1
    outer loop
      vertex 7.43821 2.945 1.5
      vertex 3.71911 1.4725 1.5
      vertex 3.87433 0.994759 1.5
    endloop
  endfacet
  facet normal 0 0 1
    outer loop
      vertex 7.01045 3.85403 1.5
      vertex 3.50523 1.92701 1.5
      vertex 3.71911 1.4725 1.5
    endloop
  endfacet
  facet normal 0 0 1
    outer loop
      vertex 2.14331 3.37731 1.5
      vertex 4.28661 6.75462 1.5
      vertex 3.40623 7.23862 1.5
    endloop
  endfacet
  facet normal 0 0 1
    outer loop
      vertex 6.47214 4.70228 1.5
      vertex 3.23607 2.35114 1.5
      vertex 3.50523 1.92701 1.5
    endloop
  endfacet
  facet normal 0 0 1
    outer loop
      vertex 5.83175 5.47638 1.5
      vertex 2.91587 2.73819 1.5
      vertex 3.23607 2.35114 1.5
    endloop
  endfacet
  facet normal 0 0 1
    outer loop
      vertex 5.09939 6.16411 1.5
      vertex 2.5497 3.08205 1.5
      vertex 2.91587 2.73819 1.5
    endloop
  endfacet
  facet normal 0 0 1
    outer loop
      vertex 1.70312 3.61931 1.5
      vertex 3.40623 7.23862 1.5
      vertex 2.47214 7.60845 1.5
    endloop
  endfacet
  facet normal 0 0 1
    outer loop
      vertex 4.28661 6.75462 1.5
      vertex 2.14331 3.37731 1.5
      vertex 2.5497 3.08205 1.5
    endloop
  endfacet
  facet normal 0 0 1
    outer loop
      vertex 3.40623 7.23862 1.5
      vertex 1.70312 3.61931 1.5
      vertex 2.14331 3.37731 1.5
    endloop
  endfacet
  facet normal 0 0 1
    outer loop
      vertex 1.23607 3.80423 1.5
      vertex 2.47214 7.60845 1.5
      vertex 1.49905 7.8583 1.5
    endloop
  endfacet
  facet normal 0 0 1
    outer loop
      vertex 2.47214 7.60845 1.5
      vertex 1.23607 3.80423 1.5
      vertex 1.70312 3.61931 1.5
    endloop
  endfacet
  facet normal 0 0 1
    outer loop
      vertex 1.49905 7.8583 1.5
      vertex 0.749525 3.92915 1.5
      vertex 1.23607 3.80423 1.5
    endloop
  endfacet
  facet normal 0 0 1
    outer loop
      vertex 0.502324 7.98421 1.5
      vertex 0.749525 3.92915 1.5
      vertex 1.49905 7.8583 1.5
    endloop
  endfacet
  facet normal 0 0 1
    outer loop
      vertex 0.502324 7.98421 1.5
      vertex 0.251162 3.99211 1.5
      vertex 0.749525 3.92915 1.5
    endloop
  endfacet
  facet normal 0 0 1
    outer loop
      vertex 0.502324 7.98421 1.5
      vertex -0.251162 3.99211 1.5
      vertex 0.251162 3.99211 1.5
    endloop
  endfacet
  facet normal -0 0 1
    outer loop
      vertex -0.502324 7.98421 1.5
      vertex -0.251162 3.99211 1.5
      vertex 0.502324 7.98421 1.5
    endloop
  endfacet
  facet normal 0 0 1
    outer loop
      vertex -0.502324 7.98421 1.5
      vertex -0.749525 3.92915 1.5
      vertex -0.251162 3.99211 1.5
    endloop
  endfacet
  facet normal -0 0 1
    outer loop
      vertex -1.49905 7.8583 1.5
      vertex -0.749525 3.92915 1.5
      vertex -0.502324 7.98421 1.5
    endloop
  endfacet
  facet normal 0 0 1
    outer loop
      vertex -0.749525 3.92915 1.5
      vertex -1.49905 7.8583 1.5
      vertex -1.23607 3.80423 1.5
    endloop
  endfacet
  facet normal -0 0 1
    outer loop
      vertex -2.47214 7.60845 1.5
      vertex -1.23607 3.80423 1.5
      vertex -1.49905 7.8583 1.5
    endloop
  endfacet
  facet normal 0 0 1
    outer loop
      vertex -1.23607 3.80423 1.5
      vertex -2.47214 7.60845 1.5
      vertex -1.70312 3.61931 1.5
    endloop
  endfacet
  facet normal -0 0 1
    outer loop
      vertex -3.40623 7.23862 1.5
      vertex -1.70312 3.61931 1.5
      vertex -2.47214 7.60845 1.5
    endloop
  endfacet
  facet normal 0 0 1
    outer loop
      vertex -1.70312 3.61931 1.5
      vertex -3.40623 7.23862 1.5
      vertex -2.14331 3.37731 1.5
    endloop
  endfacet
  facet normal -0 0 1
    outer loop
      vertex -4.28661 6.75462 1.5
      vertex -2.14331 3.37731 1.5
      vertex -3.40623 7.23862 1.5
    endloop
  endfacet
  facet normal 0 0 1
    outer loop
      vertex -2.14331 3.37731 1.5
      vertex -4.28661 6.75462 1.5
      vertex -2.5497 3.08205 1.5
    endloop
  endfacet
  facet normal -0 0 1
    outer loop
      vertex -5.09939 6.16411 1.5
      vertex -2.5497 3.08205 1.5
      vertex -4.28661 6.75462 1.5
    endloop
  endfacet
  facet normal 0 0 1
    outer loop
      vertex -2.5497 3.08205 1.5
      vertex -5.09939 6.16411 1.5
      vertex -2.91587 2.73819 1.5
    endloop
  endfacet
  facet normal -0 0 1
    outer loop
      vertex -5.83175 5.47638 1.5
      vertex -2.91587 2.73819 1.5
      vertex -5.09939 6.16411 1.5
    endloop
  endfacet
  facet normal 0 0 1
    outer loop
      vertex -2.91587 2.73819 1.5
      vertex -5.83175 5.47638 1.5
      vertex -3.23607 2.35114 1.5
    endloop
  endfacet
  facet normal -0 0 1
    outer loop
      vertex -6.47214 4.70228 1.5
      vertex -3.23607 2.35114 1.5
      vertex -5.83175 5.47638 1.5
    endloop
  endfacet
  facet normal -0 0 1
    outer loop
      vertex -7.01045 3.85403 1.5
      vertex -3.50523 1.92701 1.5
      vertex -6.47214 4.70228 1.5
    endloop
  endfacet
  facet normal 0 0 1
    outer loop
      vertex -3.23607 2.35114 1.5
      vertex -6.47214 4.70228 1.5
      vertex -3.50523 1.92701 1.5
    endloop
  endfacet
  facet normal 0 0 1
    outer loop
      vertex 7.01045 -3.85403 1.5
      vertex 3.50523 -1.92701 1.5
      vertex 6.47214 -4.70228 1.5
    endloop
  endfacet
  facet normal -0 0 1
    outer loop
      vertex 3.23607 -2.35114 1.5
      vertex 6.47214 -4.70228 1.5
      vertex 3.50523 -1.92701 1.5
    endloop
  endfacet
  facet normal 0 0 1
    outer loop
      vertex 6.47214 -4.70228 1.5
      vertex 3.23607 -2.35114 1.5
      vertex 5.83175 -5.47638 1.5
    endloop
  endfacet
  facet normal -0 0 1
    outer loop
      vertex 2.91587 -2.73819 1.5
      vertex 5.83175 -5.47638 1.5
      vertex 3.23607 -2.35114 1.5
    endloop
  endfacet
  facet normal 0 0 1
    outer loop
      vertex 5.83175 -5.47638 1.5
      vertex 2.91587 -2.73819 1.5
      vertex 5.09939 -6.16411 1.5
    endloop
  endfacet
  facet normal -0 0 1
    outer loop
      vertex 2.5497 -3.08205 1.5
      vertex 5.09939 -6.16411 1.5
      vertex 2.91587 -2.73819 1.5
    endloop
  endfacet
  facet normal 0 0 1
    outer loop
      vertex 5.09939 -6.16411 1.5
      vertex 2.5497 -3.08205 1.5
      vertex 4.28661 -6.75462 1.5
    endloop
  endfacet
  facet normal -0 0 1
    outer loop
      vertex 2.14331 -3.37731 1.5
      vertex 4.28661 -6.75462 1.5
      vertex 2.5497 -3.08205 1.5
    endloop
  endfacet
  facet normal 0 0 1
    outer loop
      vertex 4.28661 -6.75462 1.5
      vertex 2.14331 -3.37731 1.5
      vertex 3.40623 -7.23862 1.5
    endloop
  endfacet
  facet normal -0 0 1
    outer loop
      vertex 1.70312 -3.61931 1.5
      vertex 3.40623 -7.23862 1.5
      vertex 2.14331 -3.37731 1.5
    endloop
  endfacet
  facet normal 0 0 1
    outer loop
      vertex 3.40623 -7.23862 1.5
      vertex 1.70312 -3.61931 1.5
      vertex 2.47214 -7.60845 1.5
    endloop
  endfacet
  facet normal -0 0 1
    outer loop
      vertex 1.23607 -3.80423 1.5
      vertex 2.47214 -7.60845 1.5
      vertex 1.70312 -3.61931 1.5
    endloop
  endfacet
  facet normal 0 0 1
    outer loop
      vertex 2.47214 -7.60845 1.5
      vertex 1.23607 -3.80423 1.5
      vertex 1.49905 -7.8583 1.5
    endloop
  endfacet
  facet normal -0 0 1
    outer loop
      vertex 0.749525 -3.92915 1.5
      vertex 1.49905 -7.8583 1.5
      vertex 1.23607 -3.80423 1.5
    endloop
  endfacet
  facet normal 0 0 1
    outer loop
      vertex 0.749525 -3.92915 1.5
      vertex 0.502324 -7.98421 1.5
      vertex 1.49905 -7.8583 1.5
    endloop
  endfacet
  facet normal -0 0 1
    outer loop
      vertex 0.251162 -3.99211 1.5
      vertex 0.502324 -7.98421 1.5
      vertex 0.749525 -3.92915 1.5
    endloop
  endfacet
  facet normal -0 0 1
    outer loop
      vertex -0.251162 -3.99211 1.5
      vertex 0.502324 -7.98421 1.5
      vertex 0.251162 -3.99211 1.5
    endloop
  endfacet
  facet normal 0 0 1
    outer loop
      vertex -0.251162 -3.99211 1.5
      vertex -0.502324 -7.98421 1.5
      vertex 0.502324 -7.98421 1.5
    endloop
  endfacet
  facet normal 0 0 1
    outer loop
      vertex -0.749525 -3.92915 1.5
      vertex -0.502324 -7.98421 1.5
      vertex -0.251162 -3.99211 1.5
    endloop
  endfacet
  facet normal 0 0 1
    outer loop
      vertex -1.49905 -7.8583 1.5
      vertex -0.749525 -3.92915 1.5
      vertex -1.23607 -3.80423 1.5
    endloop
  endfacet
  facet normal 0 0 1
    outer loop
      vertex -0.749525 -3.92915 1.5
      vertex -1.49905 -7.8583 1.5
      vertex -0.502324 -7.98421 1.5
    endloop
  endfacet
  facet normal 0 0 1
    outer loop
      vertex -2.47214 -7.60845 1.5
      vertex -1.23607 -3.80423 1.5
      vertex -1.70312 -3.61931 1.5
    endloop
  endfacet
  facet normal 0 0 1
    outer loop
      vertex -3.40623 -7.23862 1.5
      vertex -1.70312 -3.61931 1.5
      vertex -2.14331 -3.37731 1.5
    endloop
  endfacet
  facet normal 0 0 1
    outer loop
      vertex -1.23607 -3.80423 1.5
      vertex -2.47214 -7.60845 1.5
      vertex -1.49905 -7.8583 1.5
    endloop
  endfacet
  facet normal 0 0 1
    outer loop
      vertex -4.28661 -6.75462 1.5
      vertex -2.14331 -3.37731 1.5
      vertex -2.5497 -3.08205 1.5
    endloop
  endfacet
  facet normal 0 0 1
    outer loop
      vertex -5.09939 -6.16411 1.5
      vertex -2.5497 -3.08205 1.5
      vertex -2.91587 -2.73819 1.5
    endloop
  endfacet
  facet normal 0 0 1
    outer loop
      vertex -5.83175 -5.47638 1.5
      vertex -2.91587 -2.73819 1.5
      vertex -3.23607 -2.35114 1.5
    endloop
  endfacet
  facet normal 0 0 1
    outer loop
      vertex -1.70312 -3.61931 1.5
      vertex -3.40623 -7.23862 1.5
      vertex -2.47214 -7.60845 1.5
    endloop
  endfacet
  facet normal 0 0 1
    outer loop
      vertex -6.47214 -4.70228 1.5
      vertex -3.23607 -2.35114 1.5
      vertex -3.50523 -1.92701 1.5
    endloop
  endfacet
  facet normal 0 0 1
    outer loop
      vertex -7.01045 -3.85403 1.5
      vertex -3.50523 -1.92701 1.5
      vertex -3.71911 -1.4725 1.5
    endloop
  endfacet
  facet normal 0 0 1
    outer loop
      vertex -7.43821 -2.945 1.5
      vertex -3.71911 -1.4725 1.5
      vertex -3.87433 -0.994759 1.5
    endloop
  endfacet
  facet normal 0 0 1
    outer loop
      vertex -7.74866 -1.98952 1.5
      vertex -3.87433 -0.994759 1.5
      vertex -3.96846 -0.501332 1.5
    endloop
  endfacet
  facet normal 0 0 1
    outer loop
      vertex -2.14331 -3.37731 1.5
      vertex -4.28661 -6.75462 1.5
      vertex -3.40623 -7.23862 1.5
    endloop
  endfacet
  facet normal 0 0 1
    outer loop
      vertex -7.93692 -1.00267 1.5
      vertex -3.96846 -0.501332 1.5
      vertex -4 0 1.5
    endloop
  endfacet
  facet normal 0 0 1
    outer loop
      vertex -3.50523 1.92701 1.5
      vertex -7.01045 3.85403 1.5
      vertex -3.71911 1.4725 1.5
    endloop
  endfacet
  facet normal -0 0 1
    outer loop
      vertex -7.43821 2.945 1.5
      vertex -3.71911 1.4725 1.5
      vertex -7.01045 3.85403 1.5
    endloop
  endfacet
  facet normal 0 0 1
    outer loop
      vertex -2.5497 -3.08205 1.5
      vertex -5.09939 -6.16411 1.5
      vertex -4.28661 -6.75462 1.5
    endloop
  endfacet
  facet normal 0 0 1
    outer loop
      vertex -3.71911 1.4725 1.5
      vertex -7.43821 2.945 1.5
      vertex -3.87433 0.994759 1.5
    endloop
  endfacet
  facet normal 0 0 1
    outer loop
      vertex -2.91587 -2.73819 1.5
      vertex -5.83175 -5.47638 1.5
      vertex -5.09939 -6.16411 1.5
    endloop
  endfacet
  facet normal -0 0 1
    outer loop
      vertex -7.74866 1.98952 1.5
      vertex -3.87433 0.994759 1.5
      vertex -7.43821 2.945 1.5
    endloop
  endfacet
  facet normal 0 0 1
    outer loop
      vertex -3.23607 -2.35114 1.5
      vertex -6.47214 -4.70228 1.5
      vertex -5.83175 -5.47638 1.5
    endloop
  endfacet
  facet normal 0 0 1
    outer loop
      vertex -3.87433 0.994759 1.5
      vertex -7.74866 1.98952 1.5
      vertex -3.96846 0.501332 1.5
    endloop
  endfacet
  facet normal 0 0 1
    outer loop
      vertex -3.50523 -1.92701 1.5
      vertex -7.01045 -3.85403 1.5
      vertex -6.47214 -4.70228 1.5
    endloop
  endfacet
  facet normal -0 0 1
    outer loop
      vertex -7.93692 1.00267 1.5
      vertex -3.96846 0.501332 1.5
      vertex -7.74866 1.98952 1.5
    endloop
  endfacet
  facet normal 0 0 1
    outer loop
      vertex -3.71911 -1.4725 1.5
      vertex -7.43821 -2.945 1.5
      vertex -7.01045 -3.85403 1.5
    endloop
  endfacet
  facet normal 0 0 1
    outer loop
      vertex -3.96846 0.501332 1.5
      vertex -7.93692 1.00267 1.5
      vertex -4 0 1.5
    endloop
  endfacet
  facet normal 0 0 1
    outer loop
      vertex -3.87433 -0.994759 1.5
      vertex -7.74866 -1.98952 1.5
      vertex -7.43821 -2.945 1.5
    endloop
  endfacet
  facet normal 0 0 1
    outer loop
      vertex -8 0 1.5
      vertex -4 0 1.5
      vertex -7.93692 1.00267 1.5
    endloop
  endfacet
  facet normal 0 0 1
    outer loop
      vertex -3.96846 -0.501332 1.5
      vertex -7.93692 -1.00267 1.5
      vertex -7.74866 -1.98952 1.5
    endloop
  endfacet
  facet normal 0 0 1
    outer loop
      vertex -4 0 1.5
      vertex -8 0 1.5
      vertex -7.93692 -1.00267 1.5
    endloop
  endfacet
  facet normal -0.248693 0.968582 0
    outer loop
      vertex -1.49905 7.8583 -1.5
      vertex -2.47214 7.60845 1.5
      vertex -1.49905 7.8583 1.5
    endloop
  endfacet
  facet normal -0.248693 0.968582 0
    outer loop
      vertex -2.47214 7.60845 1.5
      vertex -1.49905 7.8583 -1.5
      vertex -2.47214 7.60845 -1.5
    endloop
  endfacet
  facet normal 0.998027 -0.0627879 0
    outer loop
      vertex 7.93692 -1.00267 1.5
      vertex 8 0 -1.5
      vertex 8 0 1.5
    endloop
  endfacet
  facet normal 0.998027 -0.0627879 0
    outer loop
      vertex 8 0 -1.5
      vertex 7.93692 -1.00267 1.5
      vertex 7.93692 -1.00267 -1.5
    endloop
  endfacet
  facet normal 0.587779 -0.809021 0
    outer loop
      vertex 4.28661 -6.75462 -1.5
      vertex 5.09939 -6.16411 1.5
      vertex 4.28661 -6.75462 1.5
    endloop
  endfacet
  facet normal 0.587779 -0.809021 0
    outer loop
      vertex 5.09939 -6.16411 1.5
      vertex 4.28661 -6.75462 -1.5
      vertex 5.09939 -6.16411 -1.5
    endloop
  endfacet
  facet normal -0.998027 -0.0627879 0
    outer loop
      vertex -7.93692 -1.00267 -1.5
      vertex -8 0 1.5
      vertex -8 0 -1.5
    endloop
  endfacet
  facet normal -0.998027 -0.0627879 0
    outer loop
      vertex -8 0 1.5
      vertex -7.93692 -1.00267 -1.5
      vertex -7.93692 -1.00267 1.5
    endloop
  endfacet
  facet normal -0.951058 -0.309013 0
    outer loop
      vertex -7.43821 -2.945 -1.5
      vertex -7.74866 -1.98952 1.5
      vertex -7.74866 -1.98952 -1.5
    endloop
  endfacet
  facet normal -0.951058 -0.309013 0
    outer loop
      vertex -7.74866 -1.98952 1.5
      vertex -7.43821 -2.945 -1.5
      vertex -7.43821 -2.945 1.5
    endloop
  endfacet
  facet normal 0.684546 -0.72897 0
    outer loop
      vertex 5.09939 -6.16411 -1.5
      vertex 5.83175 -5.47638 1.5
      vertex 5.09939 -6.16411 1.5
    endloop
  endfacet
  facet normal 0.684546 -0.72897 0
    outer loop
      vertex 5.83175 -5.47638 1.5
      vertex 5.09939 -6.16411 -1.5
      vertex 5.83175 -5.47638 -1.5
    endloop
  endfacet
  facet normal 0.368122 -0.929777 0
    outer loop
      vertex 2.47214 -7.60845 -1.5
      vertex 3.40623 -7.23862 1.5
      vertex 2.47214 -7.60845 1.5
    endloop
  endfacet
  facet normal 0.368122 -0.929777 0
    outer loop
      vertex 3.40623 -7.23862 1.5
      vertex 2.47214 -7.60845 -1.5
      vertex 3.40623 -7.23862 -1.5
    endloop
  endfacet
  facet normal 0.248693 -0.968582 0
    outer loop
      vertex 1.49905 -7.8583 -1.5
      vertex 2.47214 -7.60845 1.5
      vertex 1.49905 -7.8583 1.5
    endloop
  endfacet
  facet normal 0.248693 -0.968582 0
    outer loop
      vertex 2.47214 -7.60845 1.5
      vertex 1.49905 -7.8583 -1.5
      vertex 2.47214 -7.60845 -1.5
    endloop
  endfacet
  facet normal -0.951058 0.309013 0
    outer loop
      vertex -7.74866 1.98952 -1.5
      vertex -7.43821 2.945 1.5
      vertex -7.43821 2.945 -1.5
    endloop
  endfacet
  facet normal -0.951058 0.309013 0
    outer loop
      vertex -7.43821 2.945 1.5
      vertex -7.74866 1.98952 -1.5
      vertex -7.74866 1.98952 1.5
    endloop
  endfacet
  facet normal -0.481759 0.876304 0
    outer loop
      vertex -3.40623 7.23862 -1.5
      vertex -4.28661 6.75462 1.5
      vertex -3.40623 7.23862 1.5
    endloop
  endfacet
  facet normal -0.481759 0.876304 0
    outer loop
      vertex -4.28661 6.75462 1.5
      vertex -3.40623 7.23862 -1.5
      vertex -4.28661 6.75462 -1.5
    endloop
  endfacet
  facet normal 0.951058 -0.309013 0
    outer loop
      vertex 7.43821 -2.945 1.5
      vertex 7.74866 -1.98952 -1.5
      vertex 7.74866 -1.98952 1.5
    endloop
  endfacet
  facet normal 0.951058 -0.309013 0
    outer loop
      vertex 7.74866 -1.98952 -1.5
      vertex 7.43821 -2.945 1.5
      vertex 7.43821 -2.945 -1.5
    endloop
  endfacet
  facet normal 0.982286 -0.187389 0
    outer loop
      vertex 7.74866 -1.98952 1.5
      vertex 7.93692 -1.00267 -1.5
      vertex 7.93692 -1.00267 1.5
    endloop
  endfacet
  facet normal 0.982286 -0.187389 0
    outer loop
      vertex 7.93692 -1.00267 -1.5
      vertex 7.74866 -1.98952 1.5
      vertex 7.74866 -1.98952 -1.5
    endloop
  endfacet
  facet normal 0.904826 -0.425782 0
    outer loop
      vertex 7.01045 -3.85403 1.5
      vertex 7.43821 -2.945 -1.5
      vertex 7.43821 -2.945 1.5
    endloop
  endfacet
  facet normal 0.904826 -0.425782 0
    outer loop
      vertex 7.43821 -2.945 -1.5
      vertex 7.01045 -3.85403 1.5
      vertex 7.01045 -3.85403 -1.5
    endloop
  endfacet
  facet normal 0.844331 -0.535823 0
    outer loop
      vertex 6.47214 -4.70228 1.5
      vertex 7.01045 -3.85403 -1.5
      vertex 7.01045 -3.85403 1.5
    endloop
  endfacet
  facet normal 0.844331 -0.535823 0
    outer loop
      vertex 7.01045 -3.85403 -1.5
      vertex 6.47214 -4.70228 1.5
      vertex 6.47214 -4.70228 -1.5
    endloop
  endfacet
  facet normal -0.368122 -0.929777 0
    outer loop
      vertex -3.40623 -7.23862 -1.5
      vertex -2.47214 -7.60845 1.5
      vertex -3.40623 -7.23862 1.5
    endloop
  endfacet
  facet normal -0.368122 -0.929777 -0
    outer loop
      vertex -2.47214 -7.60845 1.5
      vertex -3.40623 -7.23862 -1.5
      vertex -2.47214 -7.60845 -1.5
    endloop
  endfacet
  facet normal -0.770514 -0.637423 0
    outer loop
      vertex -5.83175 -5.47638 -1.5
      vertex -6.47214 -4.70228 1.5
      vertex -6.47214 -4.70228 -1.5
    endloop
  endfacet
  facet normal -0.770514 -0.637423 0
    outer loop
      vertex -6.47214 -4.70228 1.5
      vertex -5.83175 -5.47638 -1.5
      vertex -5.83175 -5.47638 1.5
    endloop
  endfacet
  facet normal -0.904826 -0.425782 0
    outer loop
      vertex -7.01045 -3.85403 -1.5
      vertex -7.43821 -2.945 1.5
      vertex -7.43821 -2.945 -1.5
    endloop
  endfacet
  facet normal -0.904826 -0.425782 0
    outer loop
      vertex -7.43821 -2.945 1.5
      vertex -7.01045 -3.85403 -1.5
      vertex -7.01045 -3.85403 1.5
    endloop
  endfacet
  facet normal -0.982286 -0.187389 0
    outer loop
      vertex -7.74866 -1.98952 -1.5
      vertex -7.93692 -1.00267 1.5
      vertex -7.93692 -1.00267 -1.5
    endloop
  endfacet
  facet normal -0.982286 -0.187389 0
    outer loop
      vertex -7.93692 -1.00267 1.5
      vertex -7.74866 -1.98952 -1.5
      vertex -7.74866 -1.98952 1.5
    endloop
  endfacet
  facet normal 0 0 -1
    outer loop
      vertex 4 0 -1.5
      vertex 8 0 -1.5
      vertex 7.93692 -1.00267 -1.5
    endloop
  endfacet
  facet normal 0 0 -1
    outer loop
      vertex 3.96846 -0.501332 -1.5
      vertex 7.93692 -1.00267 -1.5
      vertex 7.74866 -1.98952 -1.5
    endloop
  endfacet
  facet normal 0 0 -1
    outer loop
      vertex 8 0 -1.5
      vertex 4 0 -1.5
      vertex 7.93692 1.00267 -1.5
    endloop
  endfacet
  facet normal 0 0 -1
    outer loop
      vertex 3.87433 -0.994759 -1.5
      vertex 7.74866 -1.98952 -1.5
      vertex 7.43821 -2.945 -1.5
    endloop
  endfacet
  facet normal 0 0 -1
    outer loop
      vertex 3.96846 0.501332 -1.5
      vertex 7.93692 1.00267 -1.5
      vertex 4 0 -1.5
    endloop
  endfacet
  facet normal 0 0 -1
    outer loop
      vertex 3.71911 -1.4725 -1.5
      vertex 7.43821 -2.945 -1.5
      vertex 7.01045 -3.85403 -1.5
    endloop
  endfacet
  facet normal -0 0 -1
    outer loop
      vertex 7.93692 1.00267 -1.5
      vertex 3.96846 0.501332 -1.5
      vertex 7.74866 1.98952 -1.5
    endloop
  endfacet
  facet normal 0 0 -1
    outer loop
      vertex 3.50523 -1.92701 -1.5
      vertex 7.01045 -3.85403 -1.5
      vertex 6.47214 -4.70228 -1.5
    endloop
  endfacet
  facet normal 0 0 -1
    outer loop
      vertex 3.87433 0.994759 -1.5
      vertex 7.74866 1.98952 -1.5
      vertex 3.96846 0.501332 -1.5
    endloop
  endfacet
  facet normal 0 0 -1
    outer loop
      vertex 3.23607 -2.35114 -1.5
      vertex 6.47214 -4.70228 -1.5
      vertex 5.83175 -5.47638 -1.5
    endloop
  endfacet
  facet normal -0 0 -1
    outer loop
      vertex 7.74866 1.98952 -1.5
      vertex 3.87433 0.994759 -1.5
      vertex 7.43821 2.945 -1.5
    endloop
  endfacet
  facet normal 0 0 -1
    outer loop
      vertex 2.91587 -2.73819 -1.5
      vertex 5.83175 -5.47638 -1.5
      vertex 5.09939 -6.16411 -1.5
    endloop
  endfacet
  facet normal 0 0 -1
    outer loop
      vertex 3.71911 1.4725 -1.5
      vertex 7.43821 2.945 -1.5
      vertex 3.87433 0.994759 -1.5
    endloop
  endfacet
  facet normal 0 0 -1
    outer loop
      vertex 2.5497 -3.08205 -1.5
      vertex 5.09939 -6.16411 -1.5
      vertex 4.28661 -6.75462 -1.5
    endloop
  endfacet
  facet normal -0 0 -1
    outer loop
      vertex 7.43821 2.945 -1.5
      vertex 3.71911 1.4725 -1.5
      vertex 7.01045 3.85403 -1.5
    endloop
  endfacet
  facet normal 0 0 -1
    outer loop
      vertex 3.50523 1.92701 -1.5
      vertex 7.01045 3.85403 -1.5
      vertex 3.71911 1.4725 -1.5
    endloop
  endfacet
  facet normal 0 0 -1
    outer loop
      vertex 7.93692 -1.00267 -1.5
      vertex 3.96846 -0.501332 -1.5
      vertex 4 0 -1.5
    endloop
  endfacet
  facet normal 0 0 -1
    outer loop
      vertex 7.74866 -1.98952 -1.5
      vertex 3.87433 -0.994759 -1.5
      vertex 3.96846 -0.501332 -1.5
    endloop
  endfacet
  facet normal 0 0 -1
    outer loop
      vertex 7.43821 -2.945 -1.5
      vertex 3.71911 -1.4725 -1.5
      vertex 3.87433 -0.994759 -1.5
    endloop
  endfacet
  facet normal 0 0 -1
    outer loop
      vertex 7.01045 -3.85403 -1.5
      vertex 3.50523 -1.92701 -1.5
      vertex 3.71911 -1.4725 -1.5
    endloop
  endfacet
  facet normal 0 0 -1
    outer loop
      vertex 2.14331 -3.37731 -1.5
      vertex 4.28661 -6.75462 -1.5
      vertex 3.40623 -7.23862 -1.5
    endloop
  endfacet
  facet normal 0 0 -1
    outer loop
      vertex 6.47214 -4.70228 -1.5
      vertex 3.23607 -2.35114 -1.5
      vertex 3.50523 -1.92701 -1.5
    endloop
  endfacet
  facet normal 0 0 -1
    outer loop
      vertex 5.83175 -5.47638 -1.5
      vertex 2.91587 -2.73819 -1.5
      vertex 3.23607 -2.35114 -1.5
    endloop
  endfacet
  facet normal 0 0 -1
    outer loop
      vertex 5.09939 -6.16411 -1.5
      vertex 2.5497 -3.08205 -1.5
      vertex 2.91587 -2.73819 -1.5
    endloop
  endfacet
  facet normal 0 0 -1
    outer loop
      vertex 1.70312 -3.61931 -1.5
      vertex 3.40623 -7.23862 -1.5
      vertex 2.47214 -7.60845 -1.5
    endloop
  endfacet
  facet normal 0 0 -1
    outer loop
      vertex 4.28661 -6.75462 -1.5
      vertex 2.14331 -3.37731 -1.5
      vertex 2.5497 -3.08205 -1.5
    endloop
  endfacet
  facet normal 0 0 -1
    outer loop
      vertex 3.40623 -7.23862 -1.5
      vertex 1.70312 -3.61931 -1.5
      vertex 2.14331 -3.37731 -1.5
    endloop
  endfacet
  facet normal 0 0 -1
    outer loop
      vertex 1.23607 -3.80423 -1.5
      vertex 2.47214 -7.60845 -1.5
      vertex 1.49905 -7.8583 -1.5
    endloop
  endfacet
  facet normal 0 0 -1
    outer loop
      vertex 2.47214 -7.60845 -1.5
      vertex 1.23607 -3.80423 -1.5
      vertex 1.70312 -3.61931 -1.5
    endloop
  endfacet
  facet normal 0 0 -1
    outer loop
      vertex 1.49905 -7.8583 -1.5
      vertex 0.749525 -3.92915 -1.5
      vertex 1.23607 -3.80423 -1.5
    endloop
  endfacet
  facet normal 0 0 -1
    outer loop
      vertex 0.502324 -7.98421 -1.5
      vertex 0.749525 -3.92915 -1.5
      vertex 1.49905 -7.8583 -1.5
    endloop
  endfacet
  facet normal 0 0 -1
    outer loop
      vertex 0.502324 -7.98421 -1.5
      vertex 0.251162 -3.99211 -1.5
      vertex 0.749525 -3.92915 -1.5
    endloop
  endfacet
  facet normal 0 0 -1
    outer loop
      vertex 0.502324 -7.98421 -1.5
      vertex -0.251162 -3.99211 -1.5
      vertex 0.251162 -3.99211 -1.5
    endloop
  endfacet
  facet normal 0 0 -1
    outer loop
      vertex -0.502324 -7.98421 -1.5
      vertex -0.251162 -3.99211 -1.5
      vertex 0.502324 -7.98421 -1.5
    endloop
  endfacet
  facet normal 0 0 -1
    outer loop
      vertex -0.502324 -7.98421 -1.5
      vertex -0.749525 -3.92915 -1.5
      vertex -0.251162 -3.99211 -1.5
    endloop
  endfacet
  facet normal 0 0 -1
    outer loop
      vertex -1.49905 -7.8583 -1.5
      vertex -0.749525 -3.92915 -1.5
      vertex -0.502324 -7.98421 -1.5
    endloop
  endfacet
  facet normal -0 0 -1
    outer loop
      vertex -0.749525 -3.92915 -1.5
      vertex -1.49905 -7.8583 -1.5
      vertex -1.23607 -3.80423 -1.5
    endloop
  endfacet
  facet normal 0 0 -1
    outer loop
      vertex -2.47214 -7.60845 -1.5
      vertex -1.23607 -3.80423 -1.5
      vertex -1.49905 -7.8583 -1.5
    endloop
  endfacet
  facet normal -0 0 -1
    outer loop
      vertex -1.23607 -3.80423 -1.5
      vertex -2.47214 -7.60845 -1.5
      vertex -1.70312 -3.61931 -1.5
    endloop
  endfacet
  facet normal 0 0 -1
    outer loop
      vertex -3.40623 -7.23862 -1.5
      vertex -1.70312 -3.61931 -1.5
      vertex -2.47214 -7.60845 -1.5
    endloop
  endfacet
  facet normal -0 0 -1
    outer loop
      vertex -1.70312 -3.61931 -1.5
      vertex -3.40623 -7.23862 -1.5
      vertex -2.14331 -3.37731 -1.5
    endloop
  endfacet
  facet normal 0 0 -1
    outer loop
      vertex -4.28661 -6.75462 -1.5
      vertex -2.14331 -3.37731 -1.5
      vertex -3.40623 -7.23862 -1.5
    endloop
  endfacet
  facet normal -0 0 -1
    outer loop
      vertex -2.14331 -3.37731 -1.5
      vertex -4.28661 -6.75462 -1.5
      vertex -2.5497 -3.08205 -1.5
    endloop
  endfacet
  facet normal 0 0 -1
    outer loop
      vertex -5.09939 -6.16411 -1.5
      vertex -2.5497 -3.08205 -1.5
      vertex -4.28661 -6.75462 -1.5
    endloop
  endfacet
  facet normal -0 0 -1
    outer loop
      vertex -2.5497 -3.08205 -1.5
      vertex -5.09939 -6.16411 -1.5
      vertex -2.91587 -2.73819 -1.5
    endloop
  endfacet
  facet normal 0 0 -1
    outer loop
      vertex -5.83175 -5.47638 -1.5
      vertex -2.91587 -2.73819 -1.5
      vertex -5.09939 -6.16411 -1.5
    endloop
  endfacet
  facet normal -0 0 -1
    outer loop
      vertex -2.91587 -2.73819 -1.5
      vertex -5.83175 -5.47638 -1.5
      vertex -3.23607 -2.35114 -1.5
    endloop
  endfacet
  facet normal 0 0 -1
    outer loop
      vertex -6.47214 -4.70228 -1.5
      vertex -3.23607 -2.35114 -1.5
      vertex -5.83175 -5.47638 -1.5
    endloop
  endfacet
  facet normal 0 0 -1
    outer loop
      vertex -7.01045 -3.85403 -1.5
      vertex -3.50523 -1.92701 -1.5
      vertex -6.47214 -4.70228 -1.5
    endloop
  endfacet
  facet normal -0 0 -1
    outer loop
      vertex -3.23607 -2.35114 -1.5
      vertex -6.47214 -4.70228 -1.5
      vertex -3.50523 -1.92701 -1.5
    endloop
  endfacet
  facet normal -0 0 -1
    outer loop
      vertex 7.01045 3.85403 -1.5
      vertex 3.50523 1.92701 -1.5
      vertex 6.47214 4.70228 -1.5
    endloop
  endfacet
  facet normal 0 0 -1
    outer loop
      vertex 3.23607 2.35114 -1.5
      vertex 6.47214 4.70228 -1.5
      vertex 3.50523 1.92701 -1.5
    endloop
  endfacet
  facet normal -0 0 -1
    outer loop
      vertex 6.47214 4.70228 -1.5
      vertex 3.23607 2.35114 -1.5
      vertex 5.83175 5.47638 -1.5
    endloop
  endfacet
  facet normal 0 0 -1
    outer loop
      vertex 2.91587 2.73819 -1.5
      vertex 5.83175 5.47638 -1.5
      vertex 3.23607 2.35114 -1.5
    endloop
  endfacet
  facet normal -0 0 -1
    outer loop
      vertex 5.83175 5.47638 -1.5
      vertex 2.91587 2.73819 -1.5
      vertex 5.09939 6.16411 -1.5
    endloop
  endfacet
  facet normal 0 0 -1
    outer loop
      vertex 2.5497 3.08205 -1.5
      vertex 5.09939 6.16411 -1.5
      vertex 2.91587 2.73819 -1.5
    endloop
  endfacet
  facet normal -0 0 -1
    outer loop
      vertex 5.09939 6.16411 -1.5
      vertex 2.5497 3.08205 -1.5
      vertex 4.28661 6.75462 -1.5
    endloop
  endfacet
  facet normal 0 0 -1
    outer loop
      vertex 2.14331 3.37731 -1.5
      vertex 4.28661 6.75462 -1.5
      vertex 2.5497 3.08205 -1.5
    endloop
  endfacet
  facet normal -0 0 -1
    outer loop
      vertex 4.28661 6.75462 -1.5
      vertex 2.14331 3.37731 -1.5
      vertex 3.40623 7.23862 -1.5
    endloop
  endfacet
  facet normal 0 0 -1
    outer loop
      vertex 1.70312 3.61931 -1.5
      vertex 3.40623 7.23862 -1.5
      vertex 2.14331 3.37731 -1.5
    endloop
  endfacet
  facet normal -0 0 -1
    outer loop
      vertex 3.40623 7.23862 -1.5
      vertex 1.70312 3.61931 -1.5
      vertex 2.47214 7.60845 -1.5
    endloop
  endfacet
  facet normal 0 0 -1
    outer loop
      vertex 1.23607 3.80423 -1.5
      vertex 2.47214 7.60845 -1.5
      vertex 1.70312 3.61931 -1.5
    endloop
  endfacet
  facet normal -0 0 -1
    outer loop
      vertex 2.47214 7.60845 -1.5
      vertex 1.23607 3.80423 -1.5
      vertex 1.49905 7.8583 -1.5
    endloop
  endfacet
  facet normal 0 0 -1
    outer loop
      vertex 0.749525 3.92915 -1.5
      vertex 1.49905 7.8583 -1.5
      vertex 1.23607 3.80423 -1.5
    endloop
  endfacet
  facet normal 0 0 -1
    outer loop
      vertex 0.749525 3.92915 -1.5
      vertex 0.502324 7.98421 -1.5
      vertex 1.49905 7.8583 -1.5
    endloop
  endfacet
  facet normal 0 0 -1
    outer loop
      vertex 0.251162 3.99211 -1.5
      vertex 0.502324 7.98421 -1.5
      vertex 0.749525 3.92915 -1.5
    endloop
  endfacet
  facet normal 0 0 -1
    outer loop
      vertex -0.251162 3.99211 -1.5
      vertex 0.502324 7.98421 -1.5
      vertex 0.251162 3.99211 -1.5
    endloop
  endfacet
  facet normal 0 0 -1
    outer loop
      vertex -0.251162 3.99211 -1.5
      vertex -0.502324 7.98421 -1.5
      vertex 0.502324 7.98421 -1.5
    endloop
  endfacet
  facet normal 0 0 -1
    outer loop
      vertex -0.749525 3.92915 -1.5
      vertex -0.502324 7.98421 -1.5
      vertex -0.251162 3.99211 -1.5
    endloop
  endfacet
  facet normal 0 0 -1
    outer loop
      vertex -1.49905 7.8583 -1.5
      vertex -0.749525 3.92915 -1.5
      vertex -1.23607 3.80423 -1.5
    endloop
  endfacet
  facet normal 0 0 -1
    outer loop
      vertex -0.749525 3.92915 -1.5
      vertex -1.49905 7.8583 -1.5
      vertex -0.502324 7.98421 -1.5
    endloop
  endfacet
  facet normal 0 0 -1
    outer loop
      vertex -2.47214 7.60845 -1.5
      vertex -1.23607 3.80423 -1.5
      vertex -1.70312 3.61931 -1.5
    endloop
  endfacet
  facet normal 0 0 -1
    outer loop
      vertex -3.40623 7.23862 -1.5
      vertex -1.70312 3.61931 -1.5
      vertex -2.14331 3.37731 -1.5
    endloop
  endfacet
  facet normal 0 0 -1
    outer loop
      vertex -1.23607 3.80423 -1.5
      vertex -2.47214 7.60845 -1.5
      vertex -1.49905 7.8583 -1.5
    endloop
  endfacet
  facet normal 0 0 -1
    outer loop
      vertex -4.28661 6.75462 -1.5
      vertex -2.14331 3.37731 -1.5
      vertex -2.5497 3.08205 -1.5
    endloop
  endfacet
  facet normal 0 0 -1
    outer loop
      vertex -5.09939 6.16411 -1.5
      vertex -2.5497 3.08205 -1.5
      vertex -2.91587 2.73819 -1.5
    endloop
  endfacet
  facet normal 0 0 -1
    outer loop
      vertex -5.83175 5.47638 -1.5
      vertex -2.91587 2.73819 -1.5
      vertex -3.23607 2.35114 -1.5
    endloop
  endfacet
  facet normal 0 0 -1
    outer loop
      vertex -1.70312 3.61931 -1.5
      vertex -3.40623 7.23862 -1.5
      vertex -2.47214 7.60845 -1.5
    endloop
  endfacet
  facet normal 0 0 -1
    outer loop
      vertex -6.47214 4.70228 -1.5
      vertex -3.23607 2.35114 -1.5
      vertex -3.50523 1.92701 -1.5
    endloop
  endfacet
  facet normal 0 0 -1
    outer loop
      vertex -7.01045 3.85403 -1.5
      vertex -3.50523 1.92701 -1.5
      vertex -3.71911 1.4725 -1.5
    endloop
  endfacet
  facet normal 0 0 -1
    outer loop
      vertex -7.43821 2.945 -1.5
      vertex -3.71911 1.4725 -1.5
      vertex -3.87433 0.994759 -1.5
    endloop
  endfacet
  facet normal 0 0 -1
    outer loop
      vertex -7.74866 1.98952 -1.5
      vertex -3.87433 0.994759 -1.5
      vertex -3.96846 0.501332 -1.5
    endloop
  endfacet
  facet normal 0 0 -1
    outer loop
      vertex -2.14331 3.37731 -1.5
      vertex -4.28661 6.75462 -1.5
      vertex -3.40623 7.23862 -1.5
    endloop
  endfacet
  facet normal 0 0 -1
    outer loop
      vertex -7.93692 1.00267 -1.5
      vertex -3.96846 0.501332 -1.5
      vertex -4 0 -1.5
    endloop
  endfacet
  facet normal -0 0 -1
    outer loop
      vertex -3.50523 -1.92701 -1.5
      vertex -7.01045 -3.85403 -1.5
      vertex -3.71911 -1.4725 -1.5
    endloop
  endfacet
  facet normal 0 0 -1
    outer loop
      vertex -7.43821 -2.945 -1.5
      vertex -3.71911 -1.4725 -1.5
      vertex -7.01045 -3.85403 -1.5
    endloop
  endfacet
  facet normal 0 0 -1
    outer loop
      vertex -2.5497 3.08205 -1.5
      vertex -5.09939 6.16411 -1.5
      vertex -4.28661 6.75462 -1.5
    endloop
  endfacet
  facet normal -0 0 -1
    outer loop
      vertex -3.71911 -1.4725 -1.5
      vertex -7.43821 -2.945 -1.5
      vertex -3.87433 -0.994759 -1.5
    endloop
  endfacet
  facet normal 0 0 -1
    outer loop
      vertex -2.91587 2.73819 -1.5
      vertex -5.83175 5.47638 -1.5
      vertex -5.09939 6.16411 -1.5
    endloop
  endfacet
  facet normal 0 0 -1
    outer loop
      vertex -7.74866 -1.98952 -1.5
      vertex -3.87433 -0.994759 -1.5
      vertex -7.43821 -2.945 -1.5
    endloop
  endfacet
  facet normal 0 0 -1
    outer loop
      vertex -3.23607 2.35114 -1.5
      vertex -6.47214 4.70228 -1.5
      vertex -5.83175 5.47638 -1.5
    endloop
  endfacet
  facet normal -0 0 -1
    outer loop
      vertex -3.87433 -0.994759 -1.5
      vertex -7.74866 -1.98952 -1.5
      vertex -3.96846 -0.501332 -1.5
    endloop
  endfacet
  facet normal 0 0 -1
    outer loop
      vertex -3.50523 1.92701 -1.5
      vertex -7.01045 3.85403 -1.5
      vertex -6.47214 4.70228 -1.5
    endloop
  endfacet
  facet normal 0 0 -1
    outer loop
      vertex -7.93692 -1.00267 -1.5
      vertex -3.96846 -0.501332 -1.5
      vertex -7.74866 -1.98952 -1.5
    endloop
  endfacet
  facet normal 0 0 -1
    outer loop
      vertex -3.71911 1.4725 -1.5
      vertex -7.43821 2.945 -1.5
      vertex -7.01045 3.85403 -1.5
    endloop
  endfacet
  facet normal -0 0 -1
    outer loop
      vertex -3.96846 -0.501332 -1.5
      vertex -7.93692 -1.00267 -1.5
      vertex -4 0 -1.5
    endloop
  endfacet
  facet normal 0 0 -1
    outer loop
      vertex -3.87433 0.994759 -1.5
      vertex -7.74866 1.98952 -1.5
      vertex -7.43821 2.945 -1.5
    endloop
  endfacet
  facet normal 0 0 -1
    outer loop
      vertex -8 0 -1.5
      vertex -4 0 -1.5
      vertex -7.93692 -1.00267 -1.5
    endloop
  endfacet
  facet normal 0 0 -1
    outer loop
      vertex -3.96846 0.501332 -1.5
      vertex -7.93692 1.00267 -1.5
      vertex -7.74866 1.98952 -1.5
    endloop
  endfacet
  facet normal 0 0 -1
    outer loop
      vertex -4 0 -1.5
      vertex -8 0 -1.5
      vertex -7.93692 1.00267 -1.5
    endloop
  endfacet
  facet normal 0.481759 -0.876304 0
    outer loop
      vertex 3.40623 -7.23862 -1.5
      vertex 4.28661 -6.75462 1.5
      vertex 3.40623 -7.23862 1.5
    endloop
  endfacet
  facet normal 0.481759 -0.876304 0
    outer loop
      vertex 4.28661 -6.75462 1.5
      vertex 3.40623 -7.23862 -1.5
      vertex 4.28661 -6.75462 -1.5
    endloop
  endfacet
  facet normal 0 -1 0
    outer loop
      vertex -0.502324 -7.98421 -1.5
      vertex 0.502324 -7.98421 1.5
      vertex -0.502324 -7.98421 1.5
    endloop
  endfacet
  facet normal 0 -1 -0
    outer loop
      vertex 0.502324 -7.98421 1.5
      vertex -0.502324 -7.98421 -1.5
      vertex 0.502324 -7.98421 -1.5
    endloop
  endfacet
  facet normal -0.125328 -0.992115 0
    outer loop
      vertex -1.49905 -7.8583 -1.5
      vertex -0.502324 -7.98421 1.5
      vertex -1.49905 -7.8583 1.5
    endloop
  endfacet
  facet normal -0.125328 -0.992115 -0
    outer loop
      vertex -0.502324 -7.98421 1.5
      vertex -1.49905 -7.8583 -1.5
      vertex -0.502324 -7.98421 -1.5
    endloop
  endfacet
  facet normal -0.248693 -0.968582 0
    outer loop
      vertex -2.47214 -7.60845 -1.5
      vertex -1.49905 -7.8583 1.5
      vertex -2.47214 -7.60845 1.5
    endloop
  endfacet
  facet normal -0.248693 -0.968582 -0
    outer loop
      vertex -1.49905 -7.8583 1.5
      vertex -2.47214 -7.60845 -1.5
      vertex -1.49905 -7.8583 -1.5
    endloop
  endfacet
  facet normal -0.684546 -0.72897 0
    outer loop
      vertex -5.83175 -5.47638 -1.5
      vertex -5.09939 -6.16411 1.5
      vertex -5.83175 -5.47638 1.5
    endloop
  endfacet
  facet normal -0.684546 -0.72897 -0
    outer loop
      vertex -5.09939 -6.16411 1.5
      vertex -5.83175 -5.47638 -1.5
      vertex -5.09939 -6.16411 -1.5
    endloop
  endfacet
  facet normal -0.844331 -0.535823 0
    outer loop
      vertex -6.47214 -4.70228 -1.5
      vertex -7.01045 -3.85403 1.5
      vertex -7.01045 -3.85403 -1.5
    endloop
  endfacet
  facet normal -0.844331 -0.535823 0
    outer loop
      vertex -7.01045 -3.85403 1.5
      vertex -6.47214 -4.70228 -1.5
      vertex -6.47214 -4.70228 1.5
    endloop
  endfacet
  facet normal -0.481759 -0.876304 0
    outer loop
      vertex -4.28661 -6.75462 -1.5
      vertex -3.40623 -7.23862 1.5
      vertex -4.28661 -6.75462 1.5
    endloop
  endfacet
  facet normal -0.481759 -0.876304 -0
    outer loop
      vertex -3.40623 -7.23862 1.5
      vertex -4.28661 -6.75462 -1.5
      vertex -3.40623 -7.23862 -1.5
    endloop
  endfacet
  facet normal -0.587779 -0.809021 0
    outer loop
      vertex -5.09939 -6.16411 -1.5
      vertex -4.28661 -6.75462 1.5
      vertex -5.09939 -6.16411 1.5
    endloop
  endfacet
  facet normal -0.587779 -0.809021 -0
    outer loop
      vertex -4.28661 -6.75462 1.5
      vertex -5.09939 -6.16411 -1.5
      vertex -4.28661 -6.75462 -1.5
    endloop
  endfacet
  facet normal -0.904824 -0.425786 0
    outer loop
      vertex 3.71911 1.4725 -1.5
      vertex 3.50523 1.92701 1.5
      vertex 3.50523 1.92701 -1.5
    endloop
  endfacet
  facet normal -0.904824 -0.425786 0
    outer loop
      vertex 3.50523 1.92701 1.5
      vertex 3.71911 1.4725 -1.5
      vertex 3.71911 1.4725 1.5
    endloop
  endfacet
  facet normal 0.951061 -0.309004 0
    outer loop
      vertex -3.87433 0.994759 1.5
      vertex -3.71911 1.4725 -1.5
      vertex -3.71911 1.4725 1.5
    endloop
  endfacet
  facet normal 0.951061 -0.309004 0
    outer loop
      vertex -3.71911 1.4725 -1.5
      vertex -3.87433 0.994759 1.5
      vertex -3.87433 0.994759 -1.5
    endloop
  endfacet
  facet normal -0.844329 -0.535825 0
    outer loop
      vertex 3.50523 1.92701 -1.5
      vertex 3.23607 2.35114 1.5
      vertex 3.23607 2.35114 -1.5
    endloop
  endfacet
  facet normal -0.844329 -0.535825 0
    outer loop
      vertex 3.23607 2.35114 1.5
      vertex 3.50523 1.92701 -1.5
      vertex 3.50523 1.92701 1.5
    endloop
  endfacet
  facet normal -0.368128 -0.929775 0
    outer loop
      vertex 1.23607 3.80423 -1.5
      vertex 1.70312 3.61931 1.5
      vertex 1.23607 3.80423 1.5
    endloop
  endfacet
  facet normal -0.368128 -0.929775 -0
    outer loop
      vertex 1.70312 3.61931 1.5
      vertex 1.23607 3.80423 -1.5
      vertex 1.70312 3.61931 -1.5
    endloop
  endfacet
  facet normal 0.368128 -0.929775 0
    outer loop
      vertex -1.70312 3.61931 -1.5
      vertex -1.23607 3.80423 1.5
      vertex -1.70312 3.61931 1.5
    endloop
  endfacet
  facet normal 0.368128 -0.929775 0
    outer loop
      vertex -1.23607 3.80423 1.5
      vertex -1.70312 3.61931 -1.5
      vertex -1.23607 3.80423 -1.5
    endloop
  endfacet
  facet normal 0.904824 -0.425786 0
    outer loop
      vertex -3.71911 1.4725 1.5
      vertex -3.50523 1.92701 -1.5
      vertex -3.50523 1.92701 1.5
    endloop
  endfacet
  facet normal 0.904824 -0.425786 0
    outer loop
      vertex -3.50523 1.92701 -1.5
      vertex -3.71911 1.4725 1.5
      vertex -3.71911 1.4725 -1.5
    endloop
  endfacet
  facet normal -0.982286 0.187389 0
    outer loop
      vertex 3.87433 -0.994759 -1.5
      vertex 3.96846 -0.501332 1.5
      vertex 3.96846 -0.501332 -1.5
    endloop
  endfacet
  facet normal -0.982286 0.187389 0
    outer loop
      vertex 3.96846 -0.501332 1.5
      vertex 3.87433 -0.994759 -1.5
      vertex 3.87433 -0.994759 1.5
    endloop
  endfacet
  facet normal -0.587786 -0.809017 0
    outer loop
      vertex 2.14331 3.37731 -1.5
      vertex 2.5497 3.08205 1.5
      vertex 2.14331 3.37731 1.5
    endloop
  endfacet
  facet normal -0.587786 -0.809017 -0
    outer loop
      vertex 2.5497 3.08205 1.5
      vertex 2.14331 3.37731 -1.5
      vertex 2.5497 3.08205 -1.5
    endloop
  endfacet
  facet normal 0.770509 -0.637429 0
    outer loop
      vertex -3.23607 2.35114 1.5
      vertex -2.91587 2.73819 -1.5
      vertex -2.91587 2.73819 1.5
    endloop
  endfacet
  facet normal 0.770509 -0.637429 0
    outer loop
      vertex -2.91587 2.73819 -1.5
      vertex -3.23607 2.35114 1.5
      vertex -3.23607 2.35114 -1.5
    endloop
  endfacet
  facet normal 0.481759 -0.876304 0
    outer loop
      vertex -2.14331 3.37731 -1.5
      vertex -1.70312 3.61931 1.5
      vertex -2.14331 3.37731 1.5
    endloop
  endfacet
  facet normal 0.481759 -0.876304 0
    outer loop
      vertex -1.70312 3.61931 1.5
      vertex -2.14331 3.37731 -1.5
      vertex -1.70312 3.61931 -1.5
    endloop
  endfacet
  facet normal 0.248683 -0.968585 0
    outer loop
      vertex -1.23607 3.80423 -1.5
      vertex -0.749525 3.92915 1.5
      vertex -1.23607 3.80423 1.5
    endloop
  endfacet
  facet normal 0.248683 -0.968585 0
    outer loop
      vertex -0.749525 3.92915 1.5
      vertex -1.23607 3.80423 -1.5
      vertex -0.749525 3.92915 -1.5
    endloop
  endfacet
  facet normal -0.998027 -0.0627883 0
    outer loop
      vertex 4 0 -1.5
      vertex 3.96846 0.501332 1.5
      vertex 3.96846 0.501332 -1.5
    endloop
  endfacet
  facet normal -0.998027 -0.0627883 0
    outer loop
      vertex 3.96846 0.501332 1.5
      vertex 4 0 -1.5
      vertex 4 0 1.5
    endloop
  endfacet
  facet normal -0.951061 0.309004 0
    outer loop
      vertex 3.71911 -1.4725 -1.5
      vertex 3.87433 -0.994759 1.5
      vertex 3.87433 -0.994759 -1.5
    endloop
  endfacet
  facet normal -0.951061 0.309004 0
    outer loop
      vertex 3.87433 -0.994759 1.5
      vertex 3.71911 -1.4725 -1.5
      vertex 3.71911 -1.4725 1.5
    endloop
  endfacet
  facet normal 0.684551 0.728965 -0
    outer loop
      vertex -2.5497 -3.08205 -1.5
      vertex -2.91587 -2.73819 1.5
      vertex -2.5497 -3.08205 1.5
    endloop
  endfacet
  facet normal 0.684551 0.728965 0
    outer loop
      vertex -2.91587 -2.73819 1.5
      vertex -2.5497 -3.08205 -1.5
      vertex -2.91587 -2.73819 -1.5
    endloop
  endfacet
  facet normal -0.951061 -0.309004 0
    outer loop
      vertex 3.87433 0.994759 -1.5
      vertex 3.71911 1.4725 1.5
      vertex 3.71911 1.4725 -1.5
    endloop
  endfacet
  facet normal -0.951061 -0.309004 0
    outer loop
      vertex 3.71911 1.4725 1.5
      vertex 3.87433 0.994759 -1.5
      vertex 3.87433 0.994759 1.5
    endloop
  endfacet
  facet normal -0.684551 -0.728965 0
    outer loop
      vertex 2.5497 3.08205 -1.5
      vertex 2.91587 2.73819 1.5
      vertex 2.5497 3.08205 1.5
    endloop
  endfacet
  facet normal -0.684551 -0.728965 -0
    outer loop
      vertex 2.91587 2.73819 1.5
      vertex 2.5497 3.08205 -1.5
      vertex 2.91587 2.73819 -1.5
    endloop
  endfacet
  facet normal -0.770509 -0.637429 0
    outer loop
      vertex 3.23607 2.35114 -1.5
      vertex 2.91587 2.73819 1.5
      vertex 2.91587 2.73819 -1.5
    endloop
  endfacet
  facet normal -0.770509 -0.637429 0
    outer loop
      vertex 2.91587 2.73819 1.5
      vertex 3.23607 2.35114 -1.5
      vertex 3.23607 2.35114 1.5
    endloop
  endfacet
  facet normal 0 -1 0
    outer loop
      vertex -0.251162 3.99211 -1.5
      vertex 0.251162 3.99211 1.5
      vertex -0.251162 3.99211 1.5
    endloop
  endfacet
  facet normal 0 -1 -0
    outer loop
      vertex 0.251162 3.99211 1.5
      vertex -0.251162 3.99211 -1.5
      vertex 0.251162 3.99211 -1.5
    endloop
  endfacet
  facet normal -0.248683 -0.968585 0
    outer loop
      vertex 0.749525 3.92915 -1.5
      vertex 1.23607 3.80423 1.5
      vertex 0.749525 3.92915 1.5
    endloop
  endfacet
  facet normal -0.248683 -0.968585 -0
    outer loop
      vertex 1.23607 3.80423 1.5
      vertex 0.749525 3.92915 -1.5
      vertex 1.23607 3.80423 -1.5
    endloop
  endfacet
  facet normal -0.481759 -0.876304 0
    outer loop
      vertex 1.70312 3.61931 -1.5
      vertex 2.14331 3.37731 1.5
      vertex 1.70312 3.61931 1.5
    endloop
  endfacet
  facet normal -0.481759 -0.876304 -0
    outer loop
      vertex 2.14331 3.37731 1.5
      vertex 1.70312 3.61931 -1.5
      vertex 2.14331 3.37731 -1.5
    endloop
  endfacet
  facet normal 0.998027 -0.0627883 0
    outer loop
      vertex -4 0 1.5
      vertex -3.96846 0.501332 -1.5
      vertex -3.96846 0.501332 1.5
    endloop
  endfacet
  facet normal 0.998027 -0.0627883 0
    outer loop
      vertex -3.96846 0.501332 -1.5
      vertex -4 0 1.5
      vertex -4 0 -1.5
    endloop
  endfacet
  facet normal 0.844329 -0.535825 0
    outer loop
      vertex -3.50523 1.92701 1.5
      vertex -3.23607 2.35114 -1.5
      vertex -3.23607 2.35114 1.5
    endloop
  endfacet
  facet normal 0.844329 -0.535825 0
    outer loop
      vertex -3.23607 2.35114 -1.5
      vertex -3.50523 1.92701 1.5
      vertex -3.50523 1.92701 -1.5
    endloop
  endfacet
  facet normal 0.125337 -0.992114 0
    outer loop
      vertex -0.749525 3.92915 -1.5
      vertex -0.251162 3.99211 1.5
      vertex -0.749525 3.92915 1.5
    endloop
  endfacet
  facet normal 0.125337 -0.992114 0
    outer loop
      vertex -0.251162 3.99211 1.5
      vertex -0.749525 3.92915 -1.5
      vertex -0.251162 3.99211 -1.5
    endloop
  endfacet
  facet normal 0.587786 -0.809017 0
    outer loop
      vertex -2.5497 3.08205 -1.5
      vertex -2.14331 3.37731 1.5
      vertex -2.5497 3.08205 1.5
    endloop
  endfacet
  facet normal 0.587786 -0.809017 0
    outer loop
      vertex -2.14331 3.37731 1.5
      vertex -2.5497 3.08205 -1.5
      vertex -2.14331 3.37731 -1.5
    endloop
  endfacet
  facet normal 0.684551 -0.728965 0
    outer loop
      vertex -2.91587 2.73819 -1.5
      vertex -2.5497 3.08205 1.5
      vertex -2.91587 2.73819 1.5
    endloop
  endfacet
  facet normal 0.684551 -0.728965 0
    outer loop
      vertex -2.5497 3.08205 1.5
      vertex -2.91587 2.73819 -1.5
      vertex -2.5497 3.08205 -1.5
    endloop
  endfacet
  facet normal -0.998027 0.0627883 0
    outer loop
      vertex 3.96846 -0.501332 -1.5
      vertex 4 0 1.5
      vertex 4 0 -1.5
    endloop
  endfacet
  facet normal -0.998027 0.0627883 0
    outer loop
      vertex 4 0 1.5
      vertex 3.96846 -0.501332 -1.5
      vertex 3.96846 -0.501332 1.5
    endloop
  endfacet
  facet normal 0.770509 0.637429 0
    outer loop
      vertex -2.91587 -2.73819 1.5
      vertex -3.23607 -2.35114 -1.5
      vertex -3.23607 -2.35114 1.5
    endloop
  endfacet
  facet normal 0.770509 0.637429 0
    outer loop
      vertex -3.23607 -2.35114 -1.5
      vertex -2.91587 -2.73819 1.5
      vertex -2.91587 -2.73819 -1.5
    endloop
  endfacet
  facet normal -0.125337 0.992114 0
    outer loop
      vertex 0.749525 -3.92915 -1.5
      vertex 0.251162 -3.99211 1.5
      vertex 0.749525 -3.92915 1.5
    endloop
  endfacet
  facet normal -0.125337 0.992114 0
    outer loop
      vertex 0.251162 -3.99211 1.5
      vertex 0.749525 -3.92915 -1.5
      vertex 0.251162 -3.99211 -1.5
    endloop
  endfacet
  facet normal -0.982286 -0.187389 0
    outer loop
      vertex 3.96846 0.501332 -1.5
      vertex 3.87433 0.994759 1.5
      vertex 3.87433 0.994759 -1.5
    endloop
  endfacet
  facet normal -0.982286 -0.187389 0
    outer loop
      vertex 3.87433 0.994759 1.5
      vertex 3.96846 0.501332 -1.5
      vertex 3.96846 0.501332 1.5
    endloop
  endfacet
  facet normal -0.125337 -0.992114 0
    outer loop
      vertex 0.251162 3.99211 -1.5
      vertex 0.749525 3.92915 1.5
      vertex 0.251162 3.99211 1.5
    endloop
  endfacet
  facet normal -0.125337 -0.992114 -0
    outer loop
      vertex 0.749525 3.92915 1.5
      vertex 0.251162 3.99211 -1.5
      vertex 0.749525 3.92915 -1.5
    endloop
  endfacet
  facet normal 0.982286 -0.187389 0
    outer loop
      vertex -3.96846 0.501332 1.5
      vertex -3.87433 0.994759 -1.5
      vertex -3.87433 0.994759 1.5
    endloop
  endfacet
  facet normal 0.982286 -0.187389 0
    outer loop
      vertex -3.87433 0.994759 -1.5
      vertex -3.96846 0.501332 1.5
      vertex -3.96846 0.501332 -1.5
    endloop
  endfacet
  facet normal -0.770509 0.637429 0
    outer loop
      vertex 2.91587 -2.73819 -1.5
      vertex 3.23607 -2.35114 1.5
      vertex 3.23607 -2.35114 -1.5
    endloop
  endfacet
  facet normal -0.770509 0.637429 0
    outer loop
      vertex 3.23607 -2.35114 1.5
      vertex 2.91587 -2.73819 -1.5
      vertex 2.91587 -2.73819 1.5
    endloop
  endfacet
  facet normal -0.844329 0.535825 0
    outer loop
      vertex 3.23607 -2.35114 -1.5
      vertex 3.50523 -1.92701 1.5
      vertex 3.50523 -1.92701 -1.5
    endloop
  endfacet
  facet normal -0.844329 0.535825 0
    outer loop
      vertex 3.50523 -1.92701 1.5
      vertex 3.23607 -2.35114 -1.5
      vertex 3.23607 -2.35114 1.5
    endloop
  endfacet
  facet normal -0.904824 0.425786 0
    outer loop
      vertex 3.50523 -1.92701 -1.5
      vertex 3.71911 -1.4725 1.5
      vertex 3.71911 -1.4725 -1.5
    endloop
  endfacet
  facet normal -0.904824 0.425786 0
    outer loop
      vertex 3.71911 -1.4725 1.5
      vertex 3.50523 -1.92701 -1.5
      vertex 3.50523 -1.92701 1.5
    endloop
  endfacet
  facet normal 0.368128 0.929775 -0
    outer loop
      vertex -1.23607 -3.80423 -1.5
      vertex -1.70312 -3.61931 1.5
      vertex -1.23607 -3.80423 1.5
    endloop
  endfacet
  facet normal 0.368128 0.929775 0
    outer loop
      vertex -1.70312 -3.61931 1.5
      vertex -1.23607 -3.80423 -1.5
      vertex -1.70312 -3.61931 -1.5
    endloop
  endfacet
  facet normal 0.248683 0.968585 -0
    outer loop
      vertex -0.749525 -3.92915 -1.5
      vertex -1.23607 -3.80423 1.5
      vertex -0.749525 -3.92915 1.5
    endloop
  endfacet
  facet normal 0.248683 0.968585 0
    outer loop
      vertex -1.23607 -3.80423 1.5
      vertex -0.749525 -3.92915 -1.5
      vertex -1.23607 -3.80423 -1.5
    endloop
  endfacet
  facet normal 0.125337 0.992114 -0
    outer loop
      vertex -0.251162 -3.99211 -1.5
      vertex -0.749525 -3.92915 1.5
      vertex -0.251162 -3.99211 1.5
    endloop
  endfacet
  facet normal 0.125337 0.992114 0
    outer loop
      vertex -0.749525 -3.92915 1.5
      vertex -0.251162 -3.99211 -1.5
      vertex -0.749525 -3.92915 -1.5
    endloop
  endfacet
  facet normal 0.998027 0.0627883 0
    outer loop
      vertex -3.96846 -0.501332 1.5
      vertex -4 0 -1.5
      vertex -4 0 1.5
    endloop
  endfacet
  facet normal 0.998027 0.0627883 0
    outer loop
      vertex -4 0 -1.5
      vertex -3.96846 -0.501332 1.5
      vertex -3.96846 -0.501332 -1.5
    endloop
  endfacet
  facet normal 0.951061 0.309004 0
    outer loop
      vertex -3.71911 -1.4725 1.5
      vertex -3.87433 -0.994759 -1.5
      vertex -3.87433 -0.994759 1.5
    endloop
  endfacet
  facet normal 0.951061 0.309004 0
    outer loop
      vertex -3.87433 -0.994759 -1.5
      vertex -3.71911 -1.4725 1.5
      vertex -3.71911 -1.4725 -1.5
    endloop
  endfacet
  facet normal -0.368128 0.929775 0
    outer loop
      vertex 1.70312 -3.61931 -1.5
      vertex 1.23607 -3.80423 1.5
      vertex 1.70312 -3.61931 1.5
    endloop
  endfacet
  facet normal -0.368128 0.929775 0
    outer loop
      vertex 1.23607 -3.80423 1.5
      vertex 1.70312 -3.61931 -1.5
      vertex 1.23607 -3.80423 -1.5
    endloop
  endfacet
  facet normal -0.248683 0.968585 0
    outer loop
      vertex 1.23607 -3.80423 -1.5
      vertex 0.749525 -3.92915 1.5
      vertex 1.23607 -3.80423 1.5
    endloop
  endfacet
  facet normal -0.248683 0.968585 0
    outer loop
      vertex 0.749525 -3.92915 1.5
      vertex 1.23607 -3.80423 -1.5
      vertex 0.749525 -3.92915 -1.5
    endloop
  endfacet
  facet normal -0.684551 0.728965 0
    outer loop
      vertex 2.91587 -2.73819 -1.5
      vertex 2.5497 -3.08205 1.5
      vertex 2.91587 -2.73819 1.5
    endloop
  endfacet
  facet normal -0.684551 0.728965 0
    outer loop
      vertex 2.5497 -3.08205 1.5
      vertex 2.91587 -2.73819 -1.5
      vertex 2.5497 -3.08205 -1.5
    endloop
  endfacet
  facet normal -0.587786 0.809017 0
    outer loop
      vertex 2.5497 -3.08205 -1.5
      vertex 2.14331 -3.37731 1.5
      vertex 2.5497 -3.08205 1.5
    endloop
  endfacet
  facet normal -0.587786 0.809017 0
    outer loop
      vertex 2.14331 -3.37731 1.5
      vertex 2.5497 -3.08205 -1.5
      vertex 2.14331 -3.37731 -1.5
    endloop
  endfacet
  facet normal -0.481759 0.876304 0
    outer loop
      vertex 2.14331 -3.37731 -1.5
      vertex 1.70312 -3.61931 1.5
      vertex 2.14331 -3.37731 1.5
    endloop
  endfacet
  facet normal -0.481759 0.876304 0
    outer loop
      vertex 1.70312 -3.61931 1.5
      vertex 2.14331 -3.37731 -1.5
      vertex 1.70312 -3.61931 -1.5
    endloop
  endfacet
  facet normal 0 1 -0
    outer loop
      vertex 0.251162 -3.99211 -1.5
      vertex -0.251162 -3.99211 1.5
      vertex 0.251162 -3.99211 1.5
    endloop
  endfacet
  facet normal 0 1 0
    outer loop
      vertex -0.251162 -3.99211 1.5
      vertex 0.251162 -3.99211 -1.5
      vertex -0.251162 -3.99211 -1.5
    endloop
  endfacet
  facet normal 0.481759 0.876304 -0
    outer loop
      vertex -1.70312 -3.61931 -1.5
      vertex -2.14331 -3.37731 1.5
      vertex -1.70312 -3.61931 1.5
    endloop
  endfacet
  facet normal 0.481759 0.876304 0
    outer loop
      vertex -2.14331 -3.37731 1.5
      vertex -1.70312 -3.61931 -1.5
      vertex -2.14331 -3.37731 -1.5
    endloop
  endfacet
  facet normal 0.982286 0.187389 0
    outer loop
      vertex -3.87433 -0.994759 1.5
      vertex -3.96846 -0.501332 -1.5
      vertex -3.96846 -0.501332 1.5
    endloop
  endfacet
  facet normal 0.982286 0.187389 0
    outer loop
      vertex -3.96846 -0.501332 -1.5
      vertex -3.87433 -0.994759 1.5
      vertex -3.87433 -0.994759 -1.5
    endloop
  endfacet
  facet normal 0.844329 0.535825 0
    outer loop
      vertex -3.23607 -2.35114 1.5
      vertex -3.50523 -1.92701 -1.5
      vertex -3.50523 -1.92701 1.5
    endloop
  endfacet
  facet normal 0.844329 0.535825 0
    outer loop
      vertex -3.50523 -1.92701 -1.5
      vertex -3.23607 -2.35114 1.5
      vertex -3.23607 -2.35114 -1.5
    endloop
  endfacet
  facet normal 0.904824 0.425786 0
    outer loop
      vertex -3.50523 -1.92701 1.5
      vertex -3.71911 -1.4725 -1.5
      vertex -3.71911 -1.4725 1.5
    endloop
  endfacet
  facet normal 0.904824 0.425786 0
    outer loop
      vertex -3.71911 -1.4725 -1.5
      vertex -3.50523 -1.92701 1.5
      vertex -3.50523 -1.92701 -1.5
    endloop
  endfacet
  facet normal 0.587786 0.809017 -0
    outer loop
      vertex -2.14331 -3.37731 -1.5
      vertex -2.5497 -3.08205 1.5
      vertex -2.14331 -3.37731 1.5
    endloop
  endfacet
  facet normal 0.587786 0.809017 0
    outer loop
      vertex -2.5497 -3.08205 1.5
      vertex -2.14331 -3.37731 -1.5
      vertex -2.5497 -3.08205 -1.5
    endloop
  endfacet
endsolid OpenSCAD_Model
