solid OpenSCAD_Model
  facet normal 0.998027 0.0627909 0
    outer loop
      vertex 3.75 0 3.5
      vertex 3.72043 0.469999 -3.5
      vertex 3.72043 0.469999 3.5
    endloop
  endfacet
  facet normal 0.998027 0.0627909 0
    outer loop
      vertex 3.72043 0.469999 -3.5
      vertex 3.75 0 3.5
      vertex 3.75 0 -3.5
    endloop
  endfacet
  facet normal -0.998027 0.0627909 0
    outer loop
      vertex -3.75 0 -3.5
      vertex -3.72043 0.469999 3.5
      vertex -3.72043 0.469999 -3.5
    endloop
  endfacet
  facet normal -0.998027 0.0627909 0
    outer loop
      vertex -3.72043 0.469999 3.5
      vertex -3.75 0 -3.5
      vertex -3.75 0 3.5
    endloop
  endfacet
  facet normal 0 1 -0
    outer loop
      vertex 0.235464 3.7426 -3.5
      vertex -0.235464 3.7426 3.5
      vertex 0.235464 3.7426 3.5
    endloop
  endfacet
  facet normal 0 1 0
    outer loop
      vertex -0.235464 3.7426 3.5
      vertex 0.235464 3.7426 -3.5
      vertex -0.235464 3.7426 -3.5
    endloop
  endfacet
  facet normal 0 -1 0
    outer loop
      vertex -0.235464 -3.7426 -3.5
      vertex 0.235464 -3.7426 3.5
      vertex -0.235464 -3.7426 3.5
    endloop
  endfacet
  facet normal 0 -1 -0
    outer loop
      vertex 0.235464 -3.7426 3.5
      vertex -0.235464 -3.7426 -3.5
      vertex 0.235464 -3.7426 -3.5
    endloop
  endfacet
  facet normal 0.684546 0.728969 -0
    outer loop
      vertex 2.73363 2.56705 -3.5
      vertex 2.39034 2.88942 3.5
      vertex 2.73363 2.56705 3.5
    endloop
  endfacet
  facet normal 0.684546 0.728969 0
    outer loop
      vertex 2.39034 2.88942 3.5
      vertex 2.73363 2.56705 -3.5
      vertex 2.39034 2.88942 -3.5
    endloop
  endfacet
  facet normal -0.684546 0.728969 0
    outer loop
      vertex -2.39034 2.88942 -3.5
      vertex -2.73363 2.56705 3.5
      vertex -2.39034 2.88942 3.5
    endloop
  endfacet
  facet normal -0.684546 0.728969 0
    outer loop
      vertex -2.73363 2.56705 3.5
      vertex -2.39034 2.88942 -3.5
      vertex -2.73363 2.56705 -3.5
    endloop
  endfacet
  facet normal -0.368123 0.929777 0
    outer loop
      vertex -1.15881 3.56646 -3.5
      vertex -1.59667 3.3931 3.5
      vertex -1.15881 3.56646 3.5
    endloop
  endfacet
  facet normal -0.368123 0.929777 0
    outer loop
      vertex -1.59667 3.3931 3.5
      vertex -1.15881 3.56646 -3.5
      vertex -1.59667 3.3931 -3.5
    endloop
  endfacet
  facet normal 0.951054 -0.309025 0
    outer loop
      vertex 3.48666 -1.38047 3.5
      vertex 3.63219 -0.932587 -3.5
      vertex 3.63219 -0.932587 3.5
    endloop
  endfacet
  facet normal 0.951054 -0.309025 0
    outer loop
      vertex 3.63219 -0.932587 -3.5
      vertex 3.48666 -1.38047 3.5
      vertex 3.48666 -1.38047 -3.5
    endloop
  endfacet
  facet normal 0.904829 0.425776 0
    outer loop
      vertex 3.48666 1.38047 3.5
      vertex 3.28615 1.80658 -3.5
      vertex 3.28615 1.80658 3.5
    endloop
  endfacet
  facet normal 0.904829 0.425776 0
    outer loop
      vertex 3.28615 1.80658 -3.5
      vertex 3.48666 1.38047 3.5
      vertex 3.48666 1.38047 -3.5
    endloop
  endfacet
  facet normal 0.982289 0.187374 0
    outer loop
      vertex 3.72043 0.469999 3.5
      vertex 3.63219 0.932587 -3.5
      vertex 3.63219 0.932587 3.5
    endloop
  endfacet
  facet normal 0.982289 0.187374 0
    outer loop
      vertex 3.63219 0.932587 -3.5
      vertex 3.72043 0.469999 3.5
      vertex 3.72043 0.469999 -3.5
    endloop
  endfacet
  facet normal 0.844319 0.53584 0
    outer loop
      vertex 3.28615 1.80658 3.5
      vertex 3.03381 2.20419 -3.5
      vertex 3.03381 2.20419 3.5
    endloop
  endfacet
  facet normal 0.844319 0.53584 0
    outer loop
      vertex 3.03381 2.20419 -3.5
      vertex 3.28615 1.80658 3.5
      vertex 3.28615 1.80658 -3.5
    endloop
  endfacet
  facet normal 0.368123 0.929777 -0
    outer loop
      vertex 1.59667 3.3931 -3.5
      vertex 1.15881 3.56646 3.5
      vertex 1.59667 3.3931 3.5
    endloop
  endfacet
  facet normal 0.368123 0.929777 0
    outer loop
      vertex 1.15881 3.56646 3.5
      vertex 1.59667 3.3931 -3.5
      vertex 1.15881 3.56646 -3.5
    endloop
  endfacet
  facet normal 0.248701 0.96858 -0
    outer loop
      vertex 1.15881 3.56646 -3.5
      vertex 0.70268 3.68358 3.5
      vertex 1.15881 3.56646 3.5
    endloop
  endfacet
  facet normal 0.248701 0.96858 0
    outer loop
      vertex 0.70268 3.68358 3.5
      vertex 1.15881 3.56646 -3.5
      vertex 0.70268 3.68358 -3.5
    endloop
  endfacet
  facet normal 0.481749 0.876309 -0
    outer loop
      vertex 2.00935 3.16623 -3.5
      vertex 1.59667 3.3931 3.5
      vertex 2.00935 3.16623 3.5
    endloop
  endfacet
  facet normal 0.481749 0.876309 0
    outer loop
      vertex 1.59667 3.3931 3.5
      vertex 2.00935 3.16623 -3.5
      vertex 1.59667 3.3931 -3.5
    endloop
  endfacet
  facet normal -0.904829 0.425776 0
    outer loop
      vertex -3.48666 1.38047 -3.5
      vertex -3.28615 1.80658 3.5
      vertex -3.28615 1.80658 -3.5
    endloop
  endfacet
  facet normal -0.904829 0.425776 0
    outer loop
      vertex -3.28615 1.80658 3.5
      vertex -3.48666 1.38047 -3.5
      vertex -3.48666 1.38047 3.5
    endloop
  endfacet
  facet normal -0.951054 0.309025 0
    outer loop
      vertex -3.63219 0.932587 -3.5
      vertex -3.48666 1.38047 3.5
      vertex -3.48666 1.38047 -3.5
    endloop
  endfacet
  facet normal -0.951054 0.309025 0
    outer loop
      vertex -3.48666 1.38047 3.5
      vertex -3.63219 0.932587 -3.5
      vertex -3.63219 0.932587 3.5
    endloop
  endfacet
  facet normal -0.248701 0.96858 0
    outer loop
      vertex -0.70268 3.68358 -3.5
      vertex -1.15881 3.56646 3.5
      vertex -0.70268 3.68358 3.5
    endloop
  endfacet
  facet normal -0.248701 0.96858 0
    outer loop
      vertex -1.15881 3.56646 3.5
      vertex -0.70268 3.68358 -3.5
      vertex -1.15881 3.56646 -3.5
    endloop
  endfacet
  facet normal 0.368123 -0.929777 0
    outer loop
      vertex 1.15881 -3.56646 -3.5
      vertex 1.59667 -3.3931 3.5
      vertex 1.15881 -3.56646 3.5
    endloop
  endfacet
  facet normal 0.368123 -0.929777 0
    outer loop
      vertex 1.59667 -3.3931 3.5
      vertex 1.15881 -3.56646 -3.5
      vertex 1.59667 -3.3931 -3.5
    endloop
  endfacet
  facet normal 0.951054 0.309025 0
    outer loop
      vertex 3.63219 0.932587 3.5
      vertex 3.48666 1.38047 -3.5
      vertex 3.48666 1.38047 3.5
    endloop
  endfacet
  facet normal 0.951054 0.309025 0
    outer loop
      vertex 3.48666 1.38047 -3.5
      vertex 3.63219 0.932587 3.5
      vertex 3.63219 0.932587 -3.5
    endloop
  endfacet
  facet normal 0.770517 0.637419 0
    outer loop
      vertex 3.03381 2.20419 3.5
      vertex 2.73363 2.56705 -3.5
      vertex 2.73363 2.56705 3.5
    endloop
  endfacet
  facet normal 0.770517 0.637419 0
    outer loop
      vertex 2.73363 2.56705 -3.5
      vertex 3.03381 2.20419 3.5
      vertex 3.03381 2.20419 -3.5
    endloop
  endfacet
  facet normal 0.125327 0.992116 -0
    outer loop
      vertex 0.70268 3.68358 -3.5
      vertex 0.235464 3.7426 3.5
      vertex 0.70268 3.68358 3.5
    endloop
  endfacet
  facet normal 0.125327 0.992116 0
    outer loop
      vertex 0.235464 3.7426 3.5
      vertex 0.70268 3.68358 -3.5
      vertex 0.235464 3.7426 -3.5
    endloop
  endfacet
  facet normal 0.587792 0.809012 -0
    outer loop
      vertex 2.39034 2.88942 -3.5
      vertex 2.00935 3.16623 3.5
      vertex 2.39034 2.88942 3.5
    endloop
  endfacet
  facet normal 0.587792 0.809012 0
    outer loop
      vertex 2.00935 3.16623 3.5
      vertex 2.39034 2.88942 -3.5
      vertex 2.00935 3.16623 -3.5
    endloop
  endfacet
  facet normal -0.844319 0.53584 0
    outer loop
      vertex -3.28615 1.80658 -3.5
      vertex -3.03381 2.20419 3.5
      vertex -3.03381 2.20419 -3.5
    endloop
  endfacet
  facet normal -0.844319 0.53584 0
    outer loop
      vertex -3.03381 2.20419 3.5
      vertex -3.28615 1.80658 -3.5
      vertex -3.28615 1.80658 3.5
    endloop
  endfacet
  facet normal -0.770517 0.637419 0
    outer loop
      vertex -3.03381 2.20419 -3.5
      vertex -2.73363 2.56705 3.5
      vertex -2.73363 2.56705 -3.5
    endloop
  endfacet
  facet normal -0.770517 0.637419 0
    outer loop
      vertex -2.73363 2.56705 3.5
      vertex -3.03381 2.20419 -3.5
      vertex -3.03381 2.20419 3.5
    endloop
  endfacet
  facet normal -0.982289 0.187374 0
    outer loop
      vertex -3.72043 0.469999 -3.5
      vertex -3.63219 0.932587 3.5
      vertex -3.63219 0.932587 -3.5
    endloop
  endfacet
  facet normal -0.982289 0.187374 0
    outer loop
      vertex -3.63219 0.932587 3.5
      vertex -3.72043 0.469999 -3.5
      vertex -3.72043 0.469999 3.5
    endloop
  endfacet
  facet normal 0 0 1
    outer loop
      vertex 3 0 3.5
      vertex 3.75 0 3.5
      vertex 3.72043 0.469999 3.5
    endloop
  endfacet
  facet normal 0 0 1
    outer loop
      vertex 2.97634 0.375999 3.5
      vertex 3.72043 0.469999 3.5
      vertex 3.63219 0.932587 3.5
    endloop
  endfacet
  facet normal 0 0 1
    outer loop
      vertex 3.75 0 3.5
      vertex 3 0 3.5
      vertex 3.72043 -0.469999 3.5
    endloop
  endfacet
  facet normal 0 0 1
    outer loop
      vertex 2.90575 0.746069 3.5
      vertex 3.63219 0.932587 3.5
      vertex 3.48666 1.38047 3.5
    endloop
  endfacet
  facet normal -0 0 1
    outer loop
      vertex 2.97634 -0.375999 3.5
      vertex 3.72043 -0.469999 3.5
      vertex 3 0 3.5
    endloop
  endfacet
  facet normal 0 0 1
    outer loop
      vertex 2.78933 1.10437 3.5
      vertex 3.48666 1.38047 3.5
      vertex 3.28615 1.80658 3.5
    endloop
  endfacet
  facet normal 0 0 1
    outer loop
      vertex 3.72043 -0.469999 3.5
      vertex 2.97634 -0.375999 3.5
      vertex 3.63219 -0.932587 3.5
    endloop
  endfacet
  facet normal 0 0 1
    outer loop
      vertex 2.62892 1.44526 3.5
      vertex 3.28615 1.80658 3.5
      vertex 3.03381 2.20419 3.5
    endloop
  endfacet
  facet normal -0 0 1
    outer loop
      vertex 2.90575 -0.746069 3.5
      vertex 3.63219 -0.932587 3.5
      vertex 2.97634 -0.375999 3.5
    endloop
  endfacet
  facet normal 0 0 1
    outer loop
      vertex 3.63219 -0.932587 3.5
      vertex 2.90575 -0.746069 3.5
      vertex 3.48666 -1.38047 3.5
    endloop
  endfacet
  facet normal 0 0 1
    outer loop
      vertex 3.72043 0.469999 3.5
      vertex 2.97634 0.375999 3.5
      vertex 3 0 3.5
    endloop
  endfacet
  facet normal 0 0 1
    outer loop
      vertex 3.63219 0.932587 3.5
      vertex 2.90575 0.746069 3.5
      vertex 2.97634 0.375999 3.5
    endloop
  endfacet
  facet normal 0 0 1
    outer loop
      vertex 3.48666 1.38047 3.5
      vertex 2.78933 1.10437 3.5
      vertex 2.90575 0.746069 3.5
    endloop
  endfacet
  facet normal 0 0 1
    outer loop
      vertex 2.42705 1.76336 3.5
      vertex 3.03381 2.20419 3.5
      vertex 2.73363 2.56705 3.5
    endloop
  endfacet
  facet normal 0 0 1
    outer loop
      vertex 3.28615 1.80658 3.5
      vertex 2.62892 1.44526 3.5
      vertex 2.78933 1.10437 3.5
    endloop
  endfacet
  facet normal 0 0 1
    outer loop
      vertex 3.03381 2.20419 3.5
      vertex 2.42705 1.76336 3.5
      vertex 2.62892 1.44526 3.5
    endloop
  endfacet
  facet normal 0 0 1
    outer loop
      vertex 2.18691 2.05364 3.5
      vertex 2.73363 2.56705 3.5
      vertex 2.39034 2.88942 3.5
    endloop
  endfacet
  facet normal 0 0 1
    outer loop
      vertex 2.73363 2.56705 3.5
      vertex 2.18691 2.05364 3.5
      vertex 2.42705 1.76336 3.5
    endloop
  endfacet
  facet normal 0 0 1
    outer loop
      vertex 1.91227 2.31154 3.5
      vertex 2.39034 2.88942 3.5
      vertex 2.00935 3.16623 3.5
    endloop
  endfacet
  facet normal 0 0 1
    outer loop
      vertex 2.39034 2.88942 3.5
      vertex 1.91227 2.31154 3.5
      vertex 2.18691 2.05364 3.5
    endloop
  endfacet
  facet normal 0 0 1
    outer loop
      vertex 2.00935 3.16623 3.5
      vertex 1.60748 2.53298 3.5
      vertex 1.91227 2.31154 3.5
    endloop
  endfacet
  facet normal 0 0 1
    outer loop
      vertex 1.59667 3.3931 3.5
      vertex 1.60748 2.53298 3.5
      vertex 2.00935 3.16623 3.5
    endloop
  endfacet
  facet normal 0 0 1
    outer loop
      vertex 1.59667 3.3931 3.5
      vertex 1.27734 2.71448 3.5
      vertex 1.60748 2.53298 3.5
    endloop
  endfacet
  facet normal 0 0 1
    outer loop
      vertex 1.15881 3.56646 3.5
      vertex 1.27734 2.71448 3.5
      vertex 1.59667 3.3931 3.5
    endloop
  endfacet
  facet normal 0 0 1
    outer loop
      vertex 1.15881 3.56646 3.5
      vertex 0.927051 2.85317 3.5
      vertex 1.27734 2.71448 3.5
    endloop
  endfacet
  facet normal 0 0 1
    outer loop
      vertex 0.70268 3.68358 3.5
      vertex 0.927051 2.85317 3.5
      vertex 1.15881 3.56646 3.5
    endloop
  endfacet
  facet normal 0 0 1
    outer loop
      vertex 0.70268 3.68358 3.5
      vertex 0.562143 2.94686 3.5
      vertex 0.927051 2.85317 3.5
    endloop
  endfacet
  facet normal 0 0 1
    outer loop
      vertex 0.235464 3.7426 3.5
      vertex 0.562143 2.94686 3.5
      vertex 0.70268 3.68358 3.5
    endloop
  endfacet
  facet normal 0 0 1
    outer loop
      vertex 0.235464 3.7426 3.5
      vertex 0.188371 2.99408 3.5
      vertex 0.562143 2.94686 3.5
    endloop
  endfacet
  facet normal 0 0 1
    outer loop
      vertex 0.235464 3.7426 3.5
      vertex -0.188371 2.99408 3.5
      vertex 0.188371 2.99408 3.5
    endloop
  endfacet
  facet normal -0 0 1
    outer loop
      vertex -0.235464 3.7426 3.5
      vertex -0.188371 2.99408 3.5
      vertex 0.235464 3.7426 3.5
    endloop
  endfacet
  facet normal 0 0 1
    outer loop
      vertex -0.235464 3.7426 3.5
      vertex -0.562143 2.94686 3.5
      vertex -0.188371 2.99408 3.5
    endloop
  endfacet
  facet normal -0 0 1
    outer loop
      vertex -0.70268 3.68358 3.5
      vertex -0.562143 2.94686 3.5
      vertex -0.235464 3.7426 3.5
    endloop
  endfacet
  facet normal 0 0 1
    outer loop
      vertex -0.70268 3.68358 3.5
      vertex -0.927051 2.85317 3.5
      vertex -0.562143 2.94686 3.5
    endloop
  endfacet
  facet normal -0 0 1
    outer loop
      vertex -1.15881 3.56646 3.5
      vertex -0.927051 2.85317 3.5
      vertex -0.70268 3.68358 3.5
    endloop
  endfacet
  facet normal 0 0 1
    outer loop
      vertex -1.15881 3.56646 3.5
      vertex -1.27734 2.71448 3.5
      vertex -0.927051 2.85317 3.5
    endloop
  endfacet
  facet normal -0 0 1
    outer loop
      vertex -1.59667 3.3931 3.5
      vertex -1.27734 2.71448 3.5
      vertex -1.15881 3.56646 3.5
    endloop
  endfacet
  facet normal 0 0 1
    outer loop
      vertex -1.59667 3.3931 3.5
      vertex -1.60748 2.53298 3.5
      vertex -1.27734 2.71448 3.5
    endloop
  endfacet
  facet normal -0 0 1
    outer loop
      vertex -2.00935 3.16623 3.5
      vertex -1.60748 2.53298 3.5
      vertex -1.59667 3.3931 3.5
    endloop
  endfacet
  facet normal 0 0 1
    outer loop
      vertex -1.60748 2.53298 3.5
      vertex -2.00935 3.16623 3.5
      vertex -1.91227 2.31154 3.5
    endloop
  endfacet
  facet normal -0 0 1
    outer loop
      vertex -2.39034 2.88942 3.5
      vertex -1.91227 2.31154 3.5
      vertex -2.00935 3.16623 3.5
    endloop
  endfacet
  facet normal 0 0 1
    outer loop
      vertex -1.91227 2.31154 3.5
      vertex -2.39034 2.88942 3.5
      vertex -2.18691 2.05364 3.5
    endloop
  endfacet
  facet normal -0 0 1
    outer loop
      vertex -2.73363 2.56705 3.5
      vertex -2.18691 2.05364 3.5
      vertex -2.39034 2.88942 3.5
    endloop
  endfacet
  facet normal 0 0 1
    outer loop
      vertex -2.18691 2.05364 3.5
      vertex -2.73363 2.56705 3.5
      vertex -2.42705 1.76336 3.5
    endloop
  endfacet
  facet normal -0 0 1
    outer loop
      vertex -3.03381 2.20419 3.5
      vertex -2.42705 1.76336 3.5
      vertex -2.73363 2.56705 3.5
    endloop
  endfacet
  facet normal 0 0 1
    outer loop
      vertex -2.42705 1.76336 3.5
      vertex -3.03381 2.20419 3.5
      vertex -2.62892 1.44526 3.5
    endloop
  endfacet
  facet normal -0 0 1
    outer loop
      vertex -3.28615 1.80658 3.5
      vertex -2.62892 1.44526 3.5
      vertex -3.03381 2.20419 3.5
    endloop
  endfacet
  facet normal 0 0 1
    outer loop
      vertex -2.62892 1.44526 3.5
      vertex -3.28615 1.80658 3.5
      vertex -2.78933 1.10437 3.5
    endloop
  endfacet
  facet normal 0 0 1
    outer loop
      vertex -2.78933 1.10437 3.5
      vertex -3.48666 1.38047 3.5
      vertex -2.90575 0.746069 3.5
    endloop
  endfacet
  facet normal -0 0 1
    outer loop
      vertex -3.48666 1.38047 3.5
      vertex -2.78933 1.10437 3.5
      vertex -3.28615 1.80658 3.5
    endloop
  endfacet
  facet normal -0 0 1
    outer loop
      vertex 2.78933 -1.10437 3.5
      vertex 3.48666 -1.38047 3.5
      vertex 2.90575 -0.746069 3.5
    endloop
  endfacet
  facet normal 0 0 1
    outer loop
      vertex 3.48666 -1.38047 3.5
      vertex 2.78933 -1.10437 3.5
      vertex 3.28615 -1.80658 3.5
    endloop
  endfacet
  facet normal -0 0 1
    outer loop
      vertex 2.62892 -1.44526 3.5
      vertex 3.28615 -1.80658 3.5
      vertex 2.78933 -1.10437 3.5
    endloop
  endfacet
  facet normal 0 0 1
    outer loop
      vertex 3.28615 -1.80658 3.5
      vertex 2.62892 -1.44526 3.5
      vertex 3.03381 -2.20419 3.5
    endloop
  endfacet
  facet normal -0 0 1
    outer loop
      vertex 2.42705 -1.76336 3.5
      vertex 3.03381 -2.20419 3.5
      vertex 2.62892 -1.44526 3.5
    endloop
  endfacet
  facet normal 0 0 1
    outer loop
      vertex 3.03381 -2.20419 3.5
      vertex 2.42705 -1.76336 3.5
      vertex 2.73363 -2.56705 3.5
    endloop
  endfacet
  facet normal -0 0 1
    outer loop
      vertex 2.18691 -2.05364 3.5
      vertex 2.73363 -2.56705 3.5
      vertex 2.42705 -1.76336 3.5
    endloop
  endfacet
  facet normal 0 0 1
    outer loop
      vertex 2.73363 -2.56705 3.5
      vertex 2.18691 -2.05364 3.5
      vertex 2.39034 -2.88942 3.5
    endloop
  endfacet
  facet normal -0 0 1
    outer loop
      vertex 1.91227 -2.31154 3.5
      vertex 2.39034 -2.88942 3.5
      vertex 2.18691 -2.05364 3.5
    endloop
  endfacet
  facet normal 0 0 1
    outer loop
      vertex 2.39034 -2.88942 3.5
      vertex 1.91227 -2.31154 3.5
      vertex 2.00935 -3.16623 3.5
    endloop
  endfacet
  facet normal -0 0 1
    outer loop
      vertex 1.60748 -2.53298 3.5
      vertex 2.00935 -3.16623 3.5
      vertex 1.91227 -2.31154 3.5
    endloop
  endfacet
  facet normal 0 0 1
    outer loop
      vertex 1.60748 -2.53298 3.5
      vertex 1.59667 -3.3931 3.5
      vertex 2.00935 -3.16623 3.5
    endloop
  endfacet
  facet normal -0 0 1
    outer loop
      vertex 1.27734 -2.71448 3.5
      vertex 1.59667 -3.3931 3.5
      vertex 1.60748 -2.53298 3.5
    endloop
  endfacet
  facet normal 0 0 1
    outer loop
      vertex 1.27734 -2.71448 3.5
      vertex 1.15881 -3.56646 3.5
      vertex 1.59667 -3.3931 3.5
    endloop
  endfacet
  facet normal -0 0 1
    outer loop
      vertex 0.927051 -2.85317 3.5
      vertex 1.15881 -3.56646 3.5
      vertex 1.27734 -2.71448 3.5
    endloop
  endfacet
  facet normal 0 0 1
    outer loop
      vertex 0.927051 -2.85317 3.5
      vertex 0.70268 -3.68358 3.5
      vertex 1.15881 -3.56646 3.5
    endloop
  endfacet
  facet normal -0 0 1
    outer loop
      vertex 0.562143 -2.94686 3.5
      vertex 0.70268 -3.68358 3.5
      vertex 0.927051 -2.85317 3.5
    endloop
  endfacet
  facet normal 0 0 1
    outer loop
      vertex 0.562143 -2.94686 3.5
      vertex 0.235464 -3.7426 3.5
      vertex 0.70268 -3.68358 3.5
    endloop
  endfacet
  facet normal -0 0 1
    outer loop
      vertex 0.188371 -2.99408 3.5
      vertex 0.235464 -3.7426 3.5
      vertex 0.562143 -2.94686 3.5
    endloop
  endfacet
  facet normal -0 0 1
    outer loop
      vertex -0.188371 -2.99408 3.5
      vertex 0.235464 -3.7426 3.5
      vertex 0.188371 -2.99408 3.5
    endloop
  endfacet
  facet normal 0 0 1
    outer loop
      vertex -0.188371 -2.99408 3.5
      vertex -0.235464 -3.7426 3.5
      vertex 0.235464 -3.7426 3.5
    endloop
  endfacet
  facet normal 0 0 1
    outer loop
      vertex -0.562143 -2.94686 3.5
      vertex -0.235464 -3.7426 3.5
      vertex -0.188371 -2.99408 3.5
    endloop
  endfacet
  facet normal 0 0 1
    outer loop
      vertex -0.562143 -2.94686 3.5
      vertex -0.70268 -3.68358 3.5
      vertex -0.235464 -3.7426 3.5
    endloop
  endfacet
  facet normal 0 0 1
    outer loop
      vertex -0.927051 -2.85317 3.5
      vertex -0.70268 -3.68358 3.5
      vertex -0.562143 -2.94686 3.5
    endloop
  endfacet
  facet normal 0 0 1
    outer loop
      vertex -0.927051 -2.85317 3.5
      vertex -1.15881 -3.56646 3.5
      vertex -0.70268 -3.68358 3.5
    endloop
  endfacet
  facet normal 0 0 1
    outer loop
      vertex -1.27734 -2.71448 3.5
      vertex -1.15881 -3.56646 3.5
      vertex -0.927051 -2.85317 3.5
    endloop
  endfacet
  facet normal 0 0 1
    outer loop
      vertex -1.27734 -2.71448 3.5
      vertex -1.59667 -3.3931 3.5
      vertex -1.15881 -3.56646 3.5
    endloop
  endfacet
  facet normal 0 0 1
    outer loop
      vertex -1.60748 -2.53298 3.5
      vertex -1.59667 -3.3931 3.5
      vertex -1.27734 -2.71448 3.5
    endloop
  endfacet
  facet normal 0 0 1
    outer loop
      vertex -2.00935 -3.16623 3.5
      vertex -1.60748 -2.53298 3.5
      vertex -1.91227 -2.31154 3.5
    endloop
  endfacet
  facet normal 0 0 1
    outer loop
      vertex -1.60748 -2.53298 3.5
      vertex -2.00935 -3.16623 3.5
      vertex -1.59667 -3.3931 3.5
    endloop
  endfacet
  facet normal 0 0 1
    outer loop
      vertex -2.39034 -2.88942 3.5
      vertex -1.91227 -2.31154 3.5
      vertex -2.18691 -2.05364 3.5
    endloop
  endfacet
  facet normal 0 0 1
    outer loop
      vertex -1.91227 -2.31154 3.5
      vertex -2.39034 -2.88942 3.5
      vertex -2.00935 -3.16623 3.5
    endloop
  endfacet
  facet normal 0 0 1
    outer loop
      vertex -2.73363 -2.56705 3.5
      vertex -2.18691 -2.05364 3.5
      vertex -2.42705 -1.76336 3.5
    endloop
  endfacet
  facet normal 0 0 1
    outer loop
      vertex -3.03381 -2.20419 3.5
      vertex -2.42705 -1.76336 3.5
      vertex -2.62892 -1.44526 3.5
    endloop
  endfacet
  facet normal 0 0 1
    outer loop
      vertex -2.18691 -2.05364 3.5
      vertex -2.73363 -2.56705 3.5
      vertex -2.39034 -2.88942 3.5
    endloop
  endfacet
  facet normal 0 0 1
    outer loop
      vertex -3.28615 -1.80658 3.5
      vertex -2.62892 -1.44526 3.5
      vertex -2.78933 -1.10437 3.5
    endloop
  endfacet
  facet normal 0 0 1
    outer loop
      vertex -3.48666 -1.38047 3.5
      vertex -2.78933 -1.10437 3.5
      vertex -2.90575 -0.746069 3.5
    endloop
  endfacet
  facet normal 0 0 1
    outer loop
      vertex -3.63219 -0.932587 3.5
      vertex -2.90575 -0.746069 3.5
      vertex -2.97634 -0.375999 3.5
    endloop
  endfacet
  facet normal 0 0 1
    outer loop
      vertex -2.42705 -1.76336 3.5
      vertex -3.03381 -2.20419 3.5
      vertex -2.73363 -2.56705 3.5
    endloop
  endfacet
  facet normal 0 0 1
    outer loop
      vertex -3.72043 -0.469999 3.5
      vertex -2.97634 -0.375999 3.5
      vertex -3 0 3.5
    endloop
  endfacet
  facet normal -0 0 1
    outer loop
      vertex -3.63219 0.932587 3.5
      vertex -2.90575 0.746069 3.5
      vertex -3.48666 1.38047 3.5
    endloop
  endfacet
  facet normal 0 0 1
    outer loop
      vertex -2.90575 0.746069 3.5
      vertex -3.63219 0.932587 3.5
      vertex -2.97634 0.375999 3.5
    endloop
  endfacet
  facet normal 0 0 1
    outer loop
      vertex -2.62892 -1.44526 3.5
      vertex -3.28615 -1.80658 3.5
      vertex -3.03381 -2.20419 3.5
    endloop
  endfacet
  facet normal -0 0 1
    outer loop
      vertex -3.72043 0.469999 3.5
      vertex -2.97634 0.375999 3.5
      vertex -3.63219 0.932587 3.5
    endloop
  endfacet
  facet normal 0 0 1
    outer loop
      vertex -2.78933 -1.10437 3.5
      vertex -3.48666 -1.38047 3.5
      vertex -3.28615 -1.80658 3.5
    endloop
  endfacet
  facet normal 0 0 1
    outer loop
      vertex -2.97634 0.375999 3.5
      vertex -3.72043 0.469999 3.5
      vertex -3 0 3.5
    endloop
  endfacet
  facet normal 0 0 1
    outer loop
      vertex -2.90575 -0.746069 3.5
      vertex -3.63219 -0.932587 3.5
      vertex -3.48666 -1.38047 3.5
    endloop
  endfacet
  facet normal 0 0 1
    outer loop
      vertex -3.75 0 3.5
      vertex -3 0 3.5
      vertex -3.72043 0.469999 3.5
    endloop
  endfacet
  facet normal 0 0 1
    outer loop
      vertex -2.97634 -0.375999 3.5
      vertex -3.72043 -0.469999 3.5
      vertex -3.63219 -0.932587 3.5
    endloop
  endfacet
  facet normal 0 0 1
    outer loop
      vertex -3 0 3.5
      vertex -3.75 0 3.5
      vertex -3.72043 -0.469999 3.5
    endloop
  endfacet
  facet normal -0.481749 0.876309 0
    outer loop
      vertex -1.59667 3.3931 -3.5
      vertex -2.00935 3.16623 3.5
      vertex -1.59667 3.3931 3.5
    endloop
  endfacet
  facet normal -0.481749 0.876309 0
    outer loop
      vertex -2.00935 3.16623 3.5
      vertex -1.59667 3.3931 -3.5
      vertex -2.00935 3.16623 -3.5
    endloop
  endfacet
  facet normal -0.587792 0.809012 0
    outer loop
      vertex -2.00935 3.16623 -3.5
      vertex -2.39034 2.88942 3.5
      vertex -2.00935 3.16623 3.5
    endloop
  endfacet
  facet normal -0.587792 0.809012 0
    outer loop
      vertex -2.39034 2.88942 3.5
      vertex -2.00935 3.16623 -3.5
      vertex -2.39034 2.88942 -3.5
    endloop
  endfacet
  facet normal -0.125327 0.992116 0
    outer loop
      vertex -0.235464 3.7426 -3.5
      vertex -0.70268 3.68358 3.5
      vertex -0.235464 3.7426 3.5
    endloop
  endfacet
  facet normal -0.125327 0.992116 0
    outer loop
      vertex -0.70268 3.68358 3.5
      vertex -0.235464 3.7426 -3.5
      vertex -0.70268 3.68358 -3.5
    endloop
  endfacet
  facet normal 0.998027 -0.0627909 0
    outer loop
      vertex 3.72043 -0.469999 3.5
      vertex 3.75 0 -3.5
      vertex 3.75 0 3.5
    endloop
  endfacet
  facet normal 0.998027 -0.0627909 0
    outer loop
      vertex 3.75 0 -3.5
      vertex 3.72043 -0.469999 3.5
      vertex 3.72043 -0.469999 -3.5
    endloop
  endfacet
  facet normal 0.844319 -0.53584 0
    outer loop
      vertex 3.03381 -2.20419 3.5
      vertex 3.28615 -1.80658 -3.5
      vertex 3.28615 -1.80658 3.5
    endloop
  endfacet
  facet normal 0.844319 -0.53584 0
    outer loop
      vertex 3.28615 -1.80658 -3.5
      vertex 3.03381 -2.20419 3.5
      vertex 3.03381 -2.20419 -3.5
    endloop
  endfacet
  facet normal 0.982289 -0.187374 0
    outer loop
      vertex 3.63219 -0.932587 3.5
      vertex 3.72043 -0.469999 -3.5
      vertex 3.72043 -0.469999 3.5
    endloop
  endfacet
  facet normal 0.982289 -0.187374 0
    outer loop
      vertex 3.72043 -0.469999 -3.5
      vertex 3.63219 -0.932587 3.5
      vertex 3.63219 -0.932587 -3.5
    endloop
  endfacet
  facet normal 0 0 -1
    outer loop
      vertex 3 0 -3.5
      vertex 3.75 0 -3.5
      vertex 3.72043 -0.469999 -3.5
    endloop
  endfacet
  facet normal 0 0 -1
    outer loop
      vertex 2.97634 -0.375999 -3.5
      vertex 3.72043 -0.469999 -3.5
      vertex 3.63219 -0.932587 -3.5
    endloop
  endfacet
  facet normal 0 0 -1
    outer loop
      vertex 3.75 0 -3.5
      vertex 3 0 -3.5
      vertex 3.72043 0.469999 -3.5
    endloop
  endfacet
  facet normal 0 0 -1
    outer loop
      vertex 2.90575 -0.746069 -3.5
      vertex 3.63219 -0.932587 -3.5
      vertex 3.48666 -1.38047 -3.5
    endloop
  endfacet
  facet normal 0 0 -1
    outer loop
      vertex 2.97634 0.375999 -3.5
      vertex 3.72043 0.469999 -3.5
      vertex 3 0 -3.5
    endloop
  endfacet
  facet normal 0 0 -1
    outer loop
      vertex 2.78933 -1.10437 -3.5
      vertex 3.48666 -1.38047 -3.5
      vertex 3.28615 -1.80658 -3.5
    endloop
  endfacet
  facet normal -0 0 -1
    outer loop
      vertex 3.72043 0.469999 -3.5
      vertex 2.97634 0.375999 -3.5
      vertex 3.63219 0.932587 -3.5
    endloop
  endfacet
  facet normal 0 0 -1
    outer loop
      vertex 2.62892 -1.44526 -3.5
      vertex 3.28615 -1.80658 -3.5
      vertex 3.03381 -2.20419 -3.5
    endloop
  endfacet
  facet normal 0 0 -1
    outer loop
      vertex 2.90575 0.746069 -3.5
      vertex 3.63219 0.932587 -3.5
      vertex 2.97634 0.375999 -3.5
    endloop
  endfacet
  facet normal -0 0 -1
    outer loop
      vertex 3.63219 0.932587 -3.5
      vertex 2.90575 0.746069 -3.5
      vertex 3.48666 1.38047 -3.5
    endloop
  endfacet
  facet normal 0 0 -1
    outer loop
      vertex 3.72043 -0.469999 -3.5
      vertex 2.97634 -0.375999 -3.5
      vertex 3 0 -3.5
    endloop
  endfacet
  facet normal 0 0 -1
    outer loop
      vertex 3.63219 -0.932587 -3.5
      vertex 2.90575 -0.746069 -3.5
      vertex 2.97634 -0.375999 -3.5
    endloop
  endfacet
  facet normal 0 0 -1
    outer loop
      vertex 3.48666 -1.38047 -3.5
      vertex 2.78933 -1.10437 -3.5
      vertex 2.90575 -0.746069 -3.5
    endloop
  endfacet
  facet normal 0 0 -1
    outer loop
      vertex 2.42705 -1.76336 -3.5
      vertex 3.03381 -2.20419 -3.5
      vertex 2.73363 -2.56705 -3.5
    endloop
  endfacet
  facet normal 0 0 -1
    outer loop
      vertex 3.28615 -1.80658 -3.5
      vertex 2.62892 -1.44526 -3.5
      vertex 2.78933 -1.10437 -3.5
    endloop
  endfacet
  facet normal 0 0 -1
    outer loop
      vertex 3.03381 -2.20419 -3.5
      vertex 2.42705 -1.76336 -3.5
      vertex 2.62892 -1.44526 -3.5
    endloop
  endfacet
  facet normal 0 0 -1
    outer loop
      vertex 2.18691 -2.05364 -3.5
      vertex 2.73363 -2.56705 -3.5
      vertex 2.39034 -2.88942 -3.5
    endloop
  endfacet
  facet normal 0 0 -1
    outer loop
      vertex 2.73363 -2.56705 -3.5
      vertex 2.18691 -2.05364 -3.5
      vertex 2.42705 -1.76336 -3.5
    endloop
  endfacet
  facet normal 0 0 -1
    outer loop
      vertex 1.91227 -2.31154 -3.5
      vertex 2.39034 -2.88942 -3.5
      vertex 2.00935 -3.16623 -3.5
    endloop
  endfacet
  facet normal 0 0 -1
    outer loop
      vertex 2.39034 -2.88942 -3.5
      vertex 1.91227 -2.31154 -3.5
      vertex 2.18691 -2.05364 -3.5
    endloop
  endfacet
  facet normal 0 0 -1
    outer loop
      vertex 2.00935 -3.16623 -3.5
      vertex 1.60748 -2.53298 -3.5
      vertex 1.91227 -2.31154 -3.5
    endloop
  endfacet
  facet normal 0 0 -1
    outer loop
      vertex 1.59667 -3.3931 -3.5
      vertex 1.60748 -2.53298 -3.5
      vertex 2.00935 -3.16623 -3.5
    endloop
  endfacet
  facet normal 0 0 -1
    outer loop
      vertex 1.59667 -3.3931 -3.5
      vertex 1.27734 -2.71448 -3.5
      vertex 1.60748 -2.53298 -3.5
    endloop
  endfacet
  facet normal 0 0 -1
    outer loop
      vertex 1.15881 -3.56646 -3.5
      vertex 1.27734 -2.71448 -3.5
      vertex 1.59667 -3.3931 -3.5
    endloop
  endfacet
  facet normal 0 0 -1
    outer loop
      vertex 1.15881 -3.56646 -3.5
      vertex 0.927051 -2.85317 -3.5
      vertex 1.27734 -2.71448 -3.5
    endloop
  endfacet
  facet normal 0 0 -1
    outer loop
      vertex 0.70268 -3.68358 -3.5
      vertex 0.927051 -2.85317 -3.5
      vertex 1.15881 -3.56646 -3.5
    endloop
  endfacet
  facet normal 0 0 -1
    outer loop
      vertex 0.70268 -3.68358 -3.5
      vertex 0.562143 -2.94686 -3.5
      vertex 0.927051 -2.85317 -3.5
    endloop
  endfacet
  facet normal 0 0 -1
    outer loop
      vertex 0.235464 -3.7426 -3.5
      vertex 0.562143 -2.94686 -3.5
      vertex 0.70268 -3.68358 -3.5
    endloop
  endfacet
  facet normal 0 0 -1
    outer loop
      vertex 0.235464 -3.7426 -3.5
      vertex 0.188371 -2.99408 -3.5
      vertex 0.562143 -2.94686 -3.5
    endloop
  endfacet
  facet normal 0 0 -1
    outer loop
      vertex 0.235464 -3.7426 -3.5
      vertex -0.188371 -2.99408 -3.5
      vertex 0.188371 -2.99408 -3.5
    endloop
  endfacet
  facet normal 0 0 -1
    outer loop
      vertex -0.235464 -3.7426 -3.5
      vertex -0.188371 -2.99408 -3.5
      vertex 0.235464 -3.7426 -3.5
    endloop
  endfacet
  facet normal 0 0 -1
    outer loop
      vertex -0.235464 -3.7426 -3.5
      vertex -0.562143 -2.94686 -3.5
      vertex -0.188371 -2.99408 -3.5
    endloop
  endfacet
  facet normal 0 0 -1
    outer loop
      vertex -0.70268 -3.68358 -3.5
      vertex -0.562143 -2.94686 -3.5
      vertex -0.235464 -3.7426 -3.5
    endloop
  endfacet
  facet normal 0 0 -1
    outer loop
      vertex -0.70268 -3.68358 -3.5
      vertex -0.927051 -2.85317 -3.5
      vertex -0.562143 -2.94686 -3.5
    endloop
  endfacet
  facet normal 0 0 -1
    outer loop
      vertex -1.15881 -3.56646 -3.5
      vertex -0.927051 -2.85317 -3.5
      vertex -0.70268 -3.68358 -3.5
    endloop
  endfacet
  facet normal 0 0 -1
    outer loop
      vertex -1.15881 -3.56646 -3.5
      vertex -1.27734 -2.71448 -3.5
      vertex -0.927051 -2.85317 -3.5
    endloop
  endfacet
  facet normal 0 0 -1
    outer loop
      vertex -1.59667 -3.3931 -3.5
      vertex -1.27734 -2.71448 -3.5
      vertex -1.15881 -3.56646 -3.5
    endloop
  endfacet
  facet normal 0 0 -1
    outer loop
      vertex -1.59667 -3.3931 -3.5
      vertex -1.60748 -2.53298 -3.5
      vertex -1.27734 -2.71448 -3.5
    endloop
  endfacet
  facet normal 0 0 -1
    outer loop
      vertex -2.00935 -3.16623 -3.5
      vertex -1.60748 -2.53298 -3.5
      vertex -1.59667 -3.3931 -3.5
    endloop
  endfacet
  facet normal -0 0 -1
    outer loop
      vertex -1.60748 -2.53298 -3.5
      vertex -2.00935 -3.16623 -3.5
      vertex -1.91227 -2.31154 -3.5
    endloop
  endfacet
  facet normal 0 0 -1
    outer loop
      vertex -2.39034 -2.88942 -3.5
      vertex -1.91227 -2.31154 -3.5
      vertex -2.00935 -3.16623 -3.5
    endloop
  endfacet
  facet normal -0 0 -1
    outer loop
      vertex -1.91227 -2.31154 -3.5
      vertex -2.39034 -2.88942 -3.5
      vertex -2.18691 -2.05364 -3.5
    endloop
  endfacet
  facet normal 0 0 -1
    outer loop
      vertex -2.73363 -2.56705 -3.5
      vertex -2.18691 -2.05364 -3.5
      vertex -2.39034 -2.88942 -3.5
    endloop
  endfacet
  facet normal -0 0 -1
    outer loop
      vertex -2.18691 -2.05364 -3.5
      vertex -2.73363 -2.56705 -3.5
      vertex -2.42705 -1.76336 -3.5
    endloop
  endfacet
  facet normal 0 0 -1
    outer loop
      vertex -3.03381 -2.20419 -3.5
      vertex -2.42705 -1.76336 -3.5
      vertex -2.73363 -2.56705 -3.5
    endloop
  endfacet
  facet normal -0 0 -1
    outer loop
      vertex -2.42705 -1.76336 -3.5
      vertex -3.03381 -2.20419 -3.5
      vertex -2.62892 -1.44526 -3.5
    endloop
  endfacet
  facet normal 0 0 -1
    outer loop
      vertex -3.28615 -1.80658 -3.5
      vertex -2.62892 -1.44526 -3.5
      vertex -3.03381 -2.20419 -3.5
    endloop
  endfacet
  facet normal -0 0 -1
    outer loop
      vertex -2.62892 -1.44526 -3.5
      vertex -3.28615 -1.80658 -3.5
      vertex -2.78933 -1.10437 -3.5
    endloop
  endfacet
  facet normal -0 0 -1
    outer loop
      vertex -2.78933 -1.10437 -3.5
      vertex -3.48666 -1.38047 -3.5
      vertex -2.90575 -0.746069 -3.5
    endloop
  endfacet
  facet normal 0 0 -1
    outer loop
      vertex -3.48666 -1.38047 -3.5
      vertex -2.78933 -1.10437 -3.5
      vertex -3.28615 -1.80658 -3.5
    endloop
  endfacet
  facet normal 0 0 -1
    outer loop
      vertex 2.78933 1.10437 -3.5
      vertex 3.48666 1.38047 -3.5
      vertex 2.90575 0.746069 -3.5
    endloop
  endfacet
  facet normal -0 0 -1
    outer loop
      vertex 3.48666 1.38047 -3.5
      vertex 2.78933 1.10437 -3.5
      vertex 3.28615 1.80658 -3.5
    endloop
  endfacet
  facet normal 0 0 -1
    outer loop
      vertex 2.62892 1.44526 -3.5
      vertex 3.28615 1.80658 -3.5
      vertex 2.78933 1.10437 -3.5
    endloop
  endfacet
  facet normal -0 0 -1
    outer loop
      vertex 3.28615 1.80658 -3.5
      vertex 2.62892 1.44526 -3.5
      vertex 3.03381 2.20419 -3.5
    endloop
  endfacet
  facet normal 0 0 -1
    outer loop
      vertex 2.42705 1.76336 -3.5
      vertex 3.03381 2.20419 -3.5
      vertex 2.62892 1.44526 -3.5
    endloop
  endfacet
  facet normal -0 0 -1
    outer loop
      vertex 3.03381 2.20419 -3.5
      vertex 2.42705 1.76336 -3.5
      vertex 2.73363 2.56705 -3.5
    endloop
  endfacet
  facet normal 0 0 -1
    outer loop
      vertex 2.18691 2.05364 -3.5
      vertex 2.73363 2.56705 -3.5
      vertex 2.42705 1.76336 -3.5
    endloop
  endfacet
  facet normal -0 0 -1
    outer loop
      vertex 2.73363 2.56705 -3.5
      vertex 2.18691 2.05364 -3.5
      vertex 2.39034 2.88942 -3.5
    endloop
  endfacet
  facet normal 0 0 -1
    outer loop
      vertex 1.91227 2.31154 -3.5
      vertex 2.39034 2.88942 -3.5
      vertex 2.18691 2.05364 -3.5
    endloop
  endfacet
  facet normal -0 0 -1
    outer loop
      vertex 2.39034 2.88942 -3.5
      vertex 1.91227 2.31154 -3.5
      vertex 2.00935 3.16623 -3.5
    endloop
  endfacet
  facet normal 0 0 -1
    outer loop
      vertex 1.60748 2.53298 -3.5
      vertex 2.00935 3.16623 -3.5
      vertex 1.91227 2.31154 -3.5
    endloop
  endfacet
  facet normal 0 0 -1
    outer loop
      vertex 1.60748 2.53298 -3.5
      vertex 1.59667 3.3931 -3.5
      vertex 2.00935 3.16623 -3.5
    endloop
  endfacet
  facet normal 0 0 -1
    outer loop
      vertex 1.27734 2.71448 -3.5
      vertex 1.59667 3.3931 -3.5
      vertex 1.60748 2.53298 -3.5
    endloop
  endfacet
  facet normal 0 0 -1
    outer loop
      vertex 1.27734 2.71448 -3.5
      vertex 1.15881 3.56646 -3.5
      vertex 1.59667 3.3931 -3.5
    endloop
  endfacet
  facet normal 0 0 -1
    outer loop
      vertex 0.927051 2.85317 -3.5
      vertex 1.15881 3.56646 -3.5
      vertex 1.27734 2.71448 -3.5
    endloop
  endfacet
  facet normal 0 0 -1
    outer loop
      vertex 0.927051 2.85317 -3.5
      vertex 0.70268 3.68358 -3.5
      vertex 1.15881 3.56646 -3.5
    endloop
  endfacet
  facet normal 0 0 -1
    outer loop
      vertex 0.562143 2.94686 -3.5
      vertex 0.70268 3.68358 -3.5
      vertex 0.927051 2.85317 -3.5
    endloop
  endfacet
  facet normal 0 0 -1
    outer loop
      vertex 0.562143 2.94686 -3.5
      vertex 0.235464 3.7426 -3.5
      vertex 0.70268 3.68358 -3.5
    endloop
  endfacet
  facet normal 0 0 -1
    outer loop
      vertex 0.188371 2.99408 -3.5
      vertex 0.235464 3.7426 -3.5
      vertex 0.562143 2.94686 -3.5
    endloop
  endfacet
  facet normal 0 0 -1
    outer loop
      vertex -0.188371 2.99408 -3.5
      vertex 0.235464 3.7426 -3.5
      vertex 0.188371 2.99408 -3.5
    endloop
  endfacet
  facet normal 0 0 -1
    outer loop
      vertex -0.188371 2.99408 -3.5
      vertex -0.235464 3.7426 -3.5
      vertex 0.235464 3.7426 -3.5
    endloop
  endfacet
  facet normal 0 0 -1
    outer loop
      vertex -0.562143 2.94686 -3.5
      vertex -0.235464 3.7426 -3.5
      vertex -0.188371 2.99408 -3.5
    endloop
  endfacet
  facet normal 0 0 -1
    outer loop
      vertex -0.562143 2.94686 -3.5
      vertex -0.70268 3.68358 -3.5
      vertex -0.235464 3.7426 -3.5
    endloop
  endfacet
  facet normal 0 0 -1
    outer loop
      vertex -0.927051 2.85317 -3.5
      vertex -0.70268 3.68358 -3.5
      vertex -0.562143 2.94686 -3.5
    endloop
  endfacet
  facet normal 0 0 -1
    outer loop
      vertex -0.927051 2.85317 -3.5
      vertex -1.15881 3.56646 -3.5
      vertex -0.70268 3.68358 -3.5
    endloop
  endfacet
  facet normal 0 0 -1
    outer loop
      vertex -1.27734 2.71448 -3.5
      vertex -1.15881 3.56646 -3.5
      vertex -0.927051 2.85317 -3.5
    endloop
  endfacet
  facet normal 0 0 -1
    outer loop
      vertex -1.27734 2.71448 -3.5
      vertex -1.59667 3.3931 -3.5
      vertex -1.15881 3.56646 -3.5
    endloop
  endfacet
  facet normal 0 0 -1
    outer loop
      vertex -1.60748 2.53298 -3.5
      vertex -1.59667 3.3931 -3.5
      vertex -1.27734 2.71448 -3.5
    endloop
  endfacet
  facet normal 0 0 -1
    outer loop
      vertex -2.00935 3.16623 -3.5
      vertex -1.60748 2.53298 -3.5
      vertex -1.91227 2.31154 -3.5
    endloop
  endfacet
  facet normal 0 0 -1
    outer loop
      vertex -1.60748 2.53298 -3.5
      vertex -2.00935 3.16623 -3.5
      vertex -1.59667 3.3931 -3.5
    endloop
  endfacet
  facet normal 0 0 -1
    outer loop
      vertex -2.39034 2.88942 -3.5
      vertex -1.91227 2.31154 -3.5
      vertex -2.18691 2.05364 -3.5
    endloop
  endfacet
  facet normal 0 0 -1
    outer loop
      vertex -1.91227 2.31154 -3.5
      vertex -2.39034 2.88942 -3.5
      vertex -2.00935 3.16623 -3.5
    endloop
  endfacet
  facet normal 0 0 -1
    outer loop
      vertex -2.73363 2.56705 -3.5
      vertex -2.18691 2.05364 -3.5
      vertex -2.42705 1.76336 -3.5
    endloop
  endfacet
  facet normal 0 0 -1
    outer loop
      vertex -3.03381 2.20419 -3.5
      vertex -2.42705 1.76336 -3.5
      vertex -2.62892 1.44526 -3.5
    endloop
  endfacet
  facet normal 0 0 -1
    outer loop
      vertex -2.18691 2.05364 -3.5
      vertex -2.73363 2.56705 -3.5
      vertex -2.39034 2.88942 -3.5
    endloop
  endfacet
  facet normal 0 0 -1
    outer loop
      vertex -3.28615 1.80658 -3.5
      vertex -2.62892 1.44526 -3.5
      vertex -2.78933 1.10437 -3.5
    endloop
  endfacet
  facet normal 0 0 -1
    outer loop
      vertex -3.48666 1.38047 -3.5
      vertex -2.78933 1.10437 -3.5
      vertex -2.90575 0.746069 -3.5
    endloop
  endfacet
  facet normal 0 0 -1
    outer loop
      vertex -3.63219 0.932587 -3.5
      vertex -2.90575 0.746069 -3.5
      vertex -2.97634 0.375999 -3.5
    endloop
  endfacet
  facet normal 0 0 -1
    outer loop
      vertex -2.42705 1.76336 -3.5
      vertex -3.03381 2.20419 -3.5
      vertex -2.73363 2.56705 -3.5
    endloop
  endfacet
  facet normal 0 0 -1
    outer loop
      vertex -3.72043 0.469999 -3.5
      vertex -2.97634 0.375999 -3.5
      vertex -3 0 -3.5
    endloop
  endfacet
  facet normal 0 0 -1
    outer loop
      vertex -3.63219 -0.932587 -3.5
      vertex -2.90575 -0.746069 -3.5
      vertex -3.48666 -1.38047 -3.5
    endloop
  endfacet
  facet normal -0 0 -1
    outer loop
      vertex -2.90575 -0.746069 -3.5
      vertex -3.63219 -0.932587 -3.5
      vertex -2.97634 -0.375999 -3.5
    endloop
  endfacet
  facet normal 0 0 -1
    outer loop
      vertex -2.62892 1.44526 -3.5
      vertex -3.28615 1.80658 -3.5
      vertex -3.03381 2.20419 -3.5
    endloop
  endfacet
  facet normal 0 0 -1
    outer loop
      vertex -3.72043 -0.469999 -3.5
      vertex -2.97634 -0.375999 -3.5
      vertex -3.63219 -0.932587 -3.5
    endloop
  endfacet
  facet normal 0 0 -1
    outer loop
      vertex -2.78933 1.10437 -3.5
      vertex -3.48666 1.38047 -3.5
      vertex -3.28615 1.80658 -3.5
    endloop
  endfacet
  facet normal -0 0 -1
    outer loop
      vertex -2.97634 -0.375999 -3.5
      vertex -3.72043 -0.469999 -3.5
      vertex -3 0 -3.5
    endloop
  endfacet
  facet normal 0 0 -1
    outer loop
      vertex -2.90575 0.746069 -3.5
      vertex -3.63219 0.932587 -3.5
      vertex -3.48666 1.38047 -3.5
    endloop
  endfacet
  facet normal 0 0 -1
    outer loop
      vertex -3.75 0 -3.5
      vertex -3 0 -3.5
      vertex -3.72043 -0.469999 -3.5
    endloop
  endfacet
  facet normal 0 0 -1
    outer loop
      vertex -2.97634 0.375999 -3.5
      vertex -3.72043 0.469999 -3.5
      vertex -3.63219 0.932587 -3.5
    endloop
  endfacet
  facet normal 0 0 -1
    outer loop
      vertex -3 0 -3.5
      vertex -3.75 0 -3.5
      vertex -3.72043 0.469999 -3.5
    endloop
  endfacet
  facet normal 0.125327 -0.992116 0
    outer loop
      vertex 0.235464 -3.7426 -3.5
      vertex 0.70268 -3.68358 3.5
      vertex 0.235464 -3.7426 3.5
    endloop
  endfacet
  facet normal 0.125327 -0.992116 0
    outer loop
      vertex 0.70268 -3.68358 3.5
      vertex 0.235464 -3.7426 -3.5
      vertex 0.70268 -3.68358 -3.5
    endloop
  endfacet
  facet normal 0.587792 -0.809012 0
    outer loop
      vertex 2.00935 -3.16623 -3.5
      vertex 2.39034 -2.88942 3.5
      vertex 2.00935 -3.16623 3.5
    endloop
  endfacet
  facet normal 0.587792 -0.809012 0
    outer loop
      vertex 2.39034 -2.88942 3.5
      vertex 2.00935 -3.16623 -3.5
      vertex 2.39034 -2.88942 -3.5
    endloop
  endfacet
  facet normal 0.904829 -0.425776 0
    outer loop
      vertex 3.28615 -1.80658 3.5
      vertex 3.48666 -1.38047 -3.5
      vertex 3.48666 -1.38047 3.5
    endloop
  endfacet
  facet normal 0.904829 -0.425776 0
    outer loop
      vertex 3.48666 -1.38047 -3.5
      vertex 3.28615 -1.80658 3.5
      vertex 3.28615 -1.80658 -3.5
    endloop
  endfacet
  facet normal -0.248701 -0.96858 0
    outer loop
      vertex -1.15881 -3.56646 -3.5
      vertex -0.70268 -3.68358 3.5
      vertex -1.15881 -3.56646 3.5
    endloop
  endfacet
  facet normal -0.248701 -0.96858 -0
    outer loop
      vertex -0.70268 -3.68358 3.5
      vertex -1.15881 -3.56646 -3.5
      vertex -0.70268 -3.68358 -3.5
    endloop
  endfacet
  facet normal -0.844319 -0.53584 0
    outer loop
      vertex -3.03381 -2.20419 -3.5
      vertex -3.28615 -1.80658 3.5
      vertex -3.28615 -1.80658 -3.5
    endloop
  endfacet
  facet normal -0.844319 -0.53584 0
    outer loop
      vertex -3.28615 -1.80658 3.5
      vertex -3.03381 -2.20419 -3.5
      vertex -3.03381 -2.20419 3.5
    endloop
  endfacet
  facet normal -0.951054 -0.309025 0
    outer loop
      vertex -3.48666 -1.38047 -3.5
      vertex -3.63219 -0.932587 3.5
      vertex -3.63219 -0.932587 -3.5
    endloop
  endfacet
  facet normal -0.951054 -0.309025 0
    outer loop
      vertex -3.63219 -0.932587 3.5
      vertex -3.48666 -1.38047 -3.5
      vertex -3.48666 -1.38047 3.5
    endloop
  endfacet
  facet normal 0.684546 -0.728969 0
    outer loop
      vertex 2.39034 -2.88942 -3.5
      vertex 2.73363 -2.56705 3.5
      vertex 2.39034 -2.88942 3.5
    endloop
  endfacet
  facet normal 0.684546 -0.728969 0
    outer loop
      vertex 2.73363 -2.56705 3.5
      vertex 2.39034 -2.88942 -3.5
      vertex 2.73363 -2.56705 -3.5
    endloop
  endfacet
  facet normal 0.481749 -0.876309 0
    outer loop
      vertex 1.59667 -3.3931 -3.5
      vertex 2.00935 -3.16623 3.5
      vertex 1.59667 -3.3931 3.5
    endloop
  endfacet
  facet normal 0.481749 -0.876309 0
    outer loop
      vertex 2.00935 -3.16623 3.5
      vertex 1.59667 -3.3931 -3.5
      vertex 2.00935 -3.16623 -3.5
    endloop
  endfacet
  facet normal -0.125327 -0.992116 0
    outer loop
      vertex -0.70268 -3.68358 -3.5
      vertex -0.235464 -3.7426 3.5
      vertex -0.70268 -3.68358 3.5
    endloop
  endfacet
  facet normal -0.125327 -0.992116 -0
    outer loop
      vertex -0.235464 -3.7426 3.5
      vertex -0.70268 -3.68358 -3.5
      vertex -0.235464 -3.7426 -3.5
    endloop
  endfacet
  facet normal -0.368123 -0.929777 0
    outer loop
      vertex -1.59667 -3.3931 -3.5
      vertex -1.15881 -3.56646 3.5
      vertex -1.59667 -3.3931 3.5
    endloop
  endfacet
  facet normal -0.368123 -0.929777 -0
    outer loop
      vertex -1.15881 -3.56646 3.5
      vertex -1.59667 -3.3931 -3.5
      vertex -1.15881 -3.56646 -3.5
    endloop
  endfacet
  facet normal -0.684546 -0.728969 0
    outer loop
      vertex -2.73363 -2.56705 -3.5
      vertex -2.39034 -2.88942 3.5
      vertex -2.73363 -2.56705 3.5
    endloop
  endfacet
  facet normal -0.684546 -0.728969 -0
    outer loop
      vertex -2.39034 -2.88942 3.5
      vertex -2.73363 -2.56705 -3.5
      vertex -2.39034 -2.88942 -3.5
    endloop
  endfacet
  facet normal -0.770517 -0.637419 0
    outer loop
      vertex -2.73363 -2.56705 -3.5
      vertex -3.03381 -2.20419 3.5
      vertex -3.03381 -2.20419 -3.5
    endloop
  endfacet
  facet normal -0.770517 -0.637419 0
    outer loop
      vertex -3.03381 -2.20419 3.5
      vertex -2.73363 -2.56705 -3.5
      vertex -2.73363 -2.56705 3.5
    endloop
  endfacet
  facet normal -0.904829 -0.425776 0
    outer loop
      vertex -3.28615 -1.80658 -3.5
      vertex -3.48666 -1.38047 3.5
      vertex -3.48666 -1.38047 -3.5
    endloop
  endfacet
  facet normal -0.904829 -0.425776 0
    outer loop
      vertex -3.48666 -1.38047 3.5
      vertex -3.28615 -1.80658 -3.5
      vertex -3.28615 -1.80658 3.5
    endloop
  endfacet
  facet normal -0.982289 -0.187374 0
    outer loop
      vertex -3.63219 -0.932587 -3.5
      vertex -3.72043 -0.469999 3.5
      vertex -3.72043 -0.469999 -3.5
    endloop
  endfacet
  facet normal -0.982289 -0.187374 0
    outer loop
      vertex -3.72043 -0.469999 3.5
      vertex -3.63219 -0.932587 -3.5
      vertex -3.63219 -0.932587 3.5
    endloop
  endfacet
  facet normal -0.998027 -0.0627909 0
    outer loop
      vertex -3.72043 -0.469999 -3.5
      vertex -3.75 0 3.5
      vertex -3.75 0 -3.5
    endloop
  endfacet
  facet normal -0.998027 -0.0627909 0
    outer loop
      vertex -3.75 0 3.5
      vertex -3.72043 -0.469999 -3.5
      vertex -3.72043 -0.469999 3.5
    endloop
  endfacet
  facet normal 0.770517 -0.637419 0
    outer loop
      vertex 2.73363 -2.56705 3.5
      vertex 3.03381 -2.20419 -3.5
      vertex 3.03381 -2.20419 3.5
    endloop
  endfacet
  facet normal 0.770517 -0.637419 0
    outer loop
      vertex 3.03381 -2.20419 -3.5
      vertex 2.73363 -2.56705 3.5
      vertex 2.73363 -2.56705 -3.5
    endloop
  endfacet
  facet normal 0.248701 -0.96858 0
    outer loop
      vertex 0.70268 -3.68358 -3.5
      vertex 1.15881 -3.56646 3.5
      vertex 0.70268 -3.68358 3.5
    endloop
  endfacet
  facet normal 0.248701 -0.96858 0
    outer loop
      vertex 1.15881 -3.56646 3.5
      vertex 0.70268 -3.68358 -3.5
      vertex 1.15881 -3.56646 -3.5
    endloop
  endfacet
  facet normal -0.481749 -0.876309 0
    outer loop
      vertex -2.00935 -3.16623 -3.5
      vertex -1.59667 -3.3931 3.5
      vertex -2.00935 -3.16623 3.5
    endloop
  endfacet
  facet normal -0.481749 -0.876309 -0
    outer loop
      vertex -1.59667 -3.3931 3.5
      vertex -2.00935 -3.16623 -3.5
      vertex -1.59667 -3.3931 -3.5
    endloop
  endfacet
  facet normal -0.587792 -0.809012 0
    outer loop
      vertex -2.39034 -2.88942 -3.5
      vertex -2.00935 -3.16623 3.5
      vertex -2.39034 -2.88942 3.5
    endloop
  endfacet
  facet normal -0.587792 -0.809012 -0
    outer loop
      vertex -2.00935 -3.16623 3.5
      vertex -2.39034 -2.88942 -3.5
      vertex -2.00935 -3.16623 -3.5
    endloop
  endfacet
  facet normal 0.951056 -0.309019 0
    outer loop
      vertex -2.90575 0.746069 3.5
      vertex -2.78933 1.10437 -3.5
      vertex -2.78933 1.10437 3.5
    endloop
  endfacet
  facet normal 0.951056 -0.309019 0
    outer loop
      vertex -2.78933 1.10437 -3.5
      vertex -2.90575 0.746069 3.5
      vertex -2.90575 0.746069 -3.5
    endloop
  endfacet
  facet normal -0.844331 -0.535822 0
    outer loop
      vertex 2.62892 1.44526 -3.5
      vertex 2.42705 1.76336 3.5
      vertex 2.42705 1.76336 -3.5
    endloop
  endfacet
  facet normal -0.844331 -0.535822 0
    outer loop
      vertex 2.42705 1.76336 3.5
      vertex 2.62892 1.44526 -3.5
      vertex 2.62892 1.44526 3.5
    endloop
  endfacet
  facet normal -0.248684 -0.968585 0
    outer loop
      vertex 0.562143 2.94686 -3.5
      vertex 0.927051 2.85317 3.5
      vertex 0.562143 2.94686 3.5
    endloop
  endfacet
  facet normal -0.248684 -0.968585 -0
    outer loop
      vertex 0.927051 2.85317 3.5
      vertex 0.562143 2.94686 -3.5
      vertex 0.927051 2.85317 -3.5
    endloop
  endfacet
  facet normal -0.368126 -0.929776 0
    outer loop
      vertex 0.927051 2.85317 -3.5
      vertex 1.27734 2.71448 3.5
      vertex 0.927051 2.85317 3.5
    endloop
  endfacet
  facet normal -0.368126 -0.929776 -0
    outer loop
      vertex 1.27734 2.71448 3.5
      vertex 0.927051 2.85317 -3.5
      vertex 1.27734 2.71448 -3.5
    endloop
  endfacet
  facet normal 0.368126 -0.929776 0
    outer loop
      vertex -1.27734 2.71448 -3.5
      vertex -0.927051 2.85317 3.5
      vertex -1.27734 2.71448 3.5
    endloop
  endfacet
  facet normal 0.368126 -0.929776 0
    outer loop
      vertex -0.927051 2.85317 3.5
      vertex -1.27734 2.71448 -3.5
      vertex -0.927051 2.85317 -3.5
    endloop
  endfacet
  facet normal 0.904828 -0.425778 0
    outer loop
      vertex -2.78933 1.10437 3.5
      vertex -2.62892 1.44526 -3.5
      vertex -2.62892 1.44526 3.5
    endloop
  endfacet
  facet normal 0.904828 -0.425778 0
    outer loop
      vertex -2.62892 1.44526 -3.5
      vertex -2.78933 1.10437 3.5
      vertex -2.78933 1.10437 -3.5
    endloop
  endfacet
  facet normal -0.98229 0.187369 0
    outer loop
      vertex 2.90575 -0.746069 -3.5
      vertex 2.97634 -0.375999 3.5
      vertex 2.97634 -0.375999 -3.5
    endloop
  endfacet
  facet normal -0.98229 0.187369 0
    outer loop
      vertex 2.97634 -0.375999 3.5
      vertex 2.90575 -0.746069 -3.5
      vertex 2.90575 -0.746069 3.5
    endloop
  endfacet
  facet normal -0.684541 -0.728974 0
    outer loop
      vertex 1.91227 2.31154 -3.5
      vertex 2.18691 2.05364 3.5
      vertex 1.91227 2.31154 3.5
    endloop
  endfacet
  facet normal -0.684541 -0.728974 -0
    outer loop
      vertex 2.18691 2.05364 3.5
      vertex 1.91227 2.31154 -3.5
      vertex 2.18691 2.05364 -3.5
    endloop
  endfacet
  facet normal -0.58778 -0.809021 0
    outer loop
      vertex 1.60748 2.53298 -3.5
      vertex 1.91227 2.31154 3.5
      vertex 1.60748 2.53298 3.5
    endloop
  endfacet
  facet normal -0.58778 -0.809021 -0
    outer loop
      vertex 1.91227 2.31154 3.5
      vertex 1.60748 2.53298 -3.5
      vertex 1.91227 2.31154 -3.5
    endloop
  endfacet
  facet normal 0.98229 -0.187369 0
    outer loop
      vertex -2.97634 0.375999 3.5
      vertex -2.90575 0.746069 -3.5
      vertex -2.90575 0.746069 3.5
    endloop
  endfacet
  facet normal 0.98229 -0.187369 0
    outer loop
      vertex -2.90575 0.746069 -3.5
      vertex -2.97634 0.375999 3.5
      vertex -2.97634 0.375999 -3.5
    endloop
  endfacet
  facet normal 0.770514 -0.637423 0
    outer loop
      vertex -2.42705 1.76336 3.5
      vertex -2.18691 2.05364 -3.5
      vertex -2.18691 2.05364 3.5
    endloop
  endfacet
  facet normal 0.770514 -0.637423 0
    outer loop
      vertex -2.18691 2.05364 -3.5
      vertex -2.42705 1.76336 3.5
      vertex -2.42705 1.76336 -3.5
    endloop
  endfacet
  facet normal 0.248684 -0.968585 0
    outer loop
      vertex -0.927051 2.85317 -3.5
      vertex -0.562143 2.94686 3.5
      vertex -0.927051 2.85317 3.5
    endloop
  endfacet
  facet normal 0.248684 -0.968585 0
    outer loop
      vertex -0.562143 2.94686 3.5
      vertex -0.927051 2.85317 -3.5
      vertex -0.562143 2.94686 -3.5
    endloop
  endfacet
  facet normal 0.684541 -0.728974 0
    outer loop
      vertex -2.18691 2.05364 -3.5
      vertex -1.91227 2.31154 3.5
      vertex -2.18691 2.05364 3.5
    endloop
  endfacet
  facet normal 0.684541 -0.728974 0
    outer loop
      vertex -1.91227 2.31154 3.5
      vertex -2.18691 2.05364 -3.5
      vertex -1.91227 2.31154 -3.5
    endloop
  endfacet
  facet normal -0.998026 -0.0628015 0
    outer loop
      vertex 3 0 -3.5
      vertex 2.97634 0.375999 3.5
      vertex 2.97634 0.375999 -3.5
    endloop
  endfacet
  facet normal -0.998026 -0.0628015 0
    outer loop
      vertex 2.97634 0.375999 3.5
      vertex 3 0 -3.5
      vertex 3 0 3.5
    endloop
  endfacet
  facet normal -0.770514 -0.637423 0
    outer loop
      vertex 2.42705 1.76336 -3.5
      vertex 2.18691 2.05364 3.5
      vertex 2.18691 2.05364 -3.5
    endloop
  endfacet
  facet normal -0.770514 -0.637423 0
    outer loop
      vertex 2.18691 2.05364 3.5
      vertex 2.42705 1.76336 -3.5
      vertex 2.42705 1.76336 3.5
    endloop
  endfacet
  facet normal 0 -1 0
    outer loop
      vertex -0.188371 2.99408 -3.5
      vertex 0.188371 2.99408 3.5
      vertex -0.188371 2.99408 3.5
    endloop
  endfacet
  facet normal 0 -1 -0
    outer loop
      vertex 0.188371 2.99408 3.5
      vertex -0.188371 2.99408 -3.5
      vertex 0.188371 2.99408 -3.5
    endloop
  endfacet
  facet normal -0.481762 -0.876302 0
    outer loop
      vertex 1.27734 2.71448 -3.5
      vertex 1.60748 2.53298 3.5
      vertex 1.27734 2.71448 3.5
    endloop
  endfacet
  facet normal -0.481762 -0.876302 -0
    outer loop
      vertex 1.60748 2.53298 3.5
      vertex 1.27734 2.71448 -3.5
      vertex 1.60748 2.53298 -3.5
    endloop
  endfacet
  facet normal 0.998026 -0.0628015 0
    outer loop
      vertex -3 0 3.5
      vertex -2.97634 0.375999 -3.5
      vertex -2.97634 0.375999 3.5
    endloop
  endfacet
  facet normal 0.998026 -0.0628015 0
    outer loop
      vertex -2.97634 0.375999 -3.5
      vertex -3 0 3.5
      vertex -3 0 -3.5
    endloop
  endfacet
  facet normal 0.844331 -0.535822 0
    outer loop
      vertex -2.62892 1.44526 3.5
      vertex -2.42705 1.76336 -3.5
      vertex -2.42705 1.76336 3.5
    endloop
  endfacet
  facet normal 0.844331 -0.535822 0
    outer loop
      vertex -2.42705 1.76336 -3.5
      vertex -2.62892 1.44526 3.5
      vertex -2.62892 1.44526 -3.5
    endloop
  endfacet
  facet normal 0.125337 -0.992114 0
    outer loop
      vertex -0.562143 2.94686 -3.5
      vertex -0.188371 2.99408 3.5
      vertex -0.562143 2.94686 3.5
    endloop
  endfacet
  facet normal 0.125337 -0.992114 0
    outer loop
      vertex -0.188371 2.99408 3.5
      vertex -0.562143 2.94686 -3.5
      vertex -0.188371 2.99408 -3.5
    endloop
  endfacet
  facet normal 0.58778 -0.809021 0
    outer loop
      vertex -1.91227 2.31154 -3.5
      vertex -1.60748 2.53298 3.5
      vertex -1.91227 2.31154 3.5
    endloop
  endfacet
  facet normal 0.58778 -0.809021 0
    outer loop
      vertex -1.60748 2.53298 3.5
      vertex -1.91227 2.31154 -3.5
      vertex -1.60748 2.53298 -3.5
    endloop
  endfacet
  facet normal 0.481762 -0.876302 0
    outer loop
      vertex -1.60748 2.53298 -3.5
      vertex -1.27734 2.71448 3.5
      vertex -1.60748 2.53298 3.5
    endloop
  endfacet
  facet normal 0.481762 -0.876302 0
    outer loop
      vertex -1.27734 2.71448 3.5
      vertex -1.60748 2.53298 -3.5
      vertex -1.27734 2.71448 -3.5
    endloop
  endfacet
  facet normal 0 1 -0
    outer loop
      vertex 0.188371 -2.99408 -3.5
      vertex -0.188371 -2.99408 3.5
      vertex 0.188371 -2.99408 3.5
    endloop
  endfacet
  facet normal 0 1 0
    outer loop
      vertex -0.188371 -2.99408 3.5
      vertex 0.188371 -2.99408 -3.5
      vertex -0.188371 -2.99408 -3.5
    endloop
  endfacet
  facet normal 0.844331 0.535822 0
    outer loop
      vertex -2.42705 -1.76336 3.5
      vertex -2.62892 -1.44526 -3.5
      vertex -2.62892 -1.44526 3.5
    endloop
  endfacet
  facet normal 0.844331 0.535822 0
    outer loop
      vertex -2.62892 -1.44526 -3.5
      vertex -2.42705 -1.76336 3.5
      vertex -2.42705 -1.76336 -3.5
    endloop
  endfacet
  facet normal -0.125337 0.992114 0
    outer loop
      vertex 0.562143 -2.94686 -3.5
      vertex 0.188371 -2.99408 3.5
      vertex 0.562143 -2.94686 3.5
    endloop
  endfacet
  facet normal -0.125337 0.992114 0
    outer loop
      vertex 0.188371 -2.99408 3.5
      vertex 0.562143 -2.94686 -3.5
      vertex 0.188371 -2.99408 -3.5
    endloop
  endfacet
  facet normal -0.904828 -0.425778 0
    outer loop
      vertex 2.78933 1.10437 -3.5
      vertex 2.62892 1.44526 3.5
      vertex 2.62892 1.44526 -3.5
    endloop
  endfacet
  facet normal -0.904828 -0.425778 0
    outer loop
      vertex 2.62892 1.44526 3.5
      vertex 2.78933 1.10437 -3.5
      vertex 2.78933 1.10437 3.5
    endloop
  endfacet
  facet normal -0.951056 -0.309019 0
    outer loop
      vertex 2.90575 0.746069 -3.5
      vertex 2.78933 1.10437 3.5
      vertex 2.78933 1.10437 -3.5
    endloop
  endfacet
  facet normal -0.951056 -0.309019 0
    outer loop
      vertex 2.78933 1.10437 3.5
      vertex 2.90575 0.746069 -3.5
      vertex 2.90575 0.746069 3.5
    endloop
  endfacet
  facet normal -0.98229 -0.187369 0
    outer loop
      vertex 2.97634 0.375999 -3.5
      vertex 2.90575 0.746069 3.5
      vertex 2.90575 0.746069 -3.5
    endloop
  endfacet
  facet normal -0.98229 -0.187369 0
    outer loop
      vertex 2.90575 0.746069 3.5
      vertex 2.97634 0.375999 -3.5
      vertex 2.97634 0.375999 3.5
    endloop
  endfacet
  facet normal -0.125337 -0.992114 0
    outer loop
      vertex 0.188371 2.99408 -3.5
      vertex 0.562143 2.94686 3.5
      vertex 0.188371 2.99408 3.5
    endloop
  endfacet
  facet normal -0.125337 -0.992114 -0
    outer loop
      vertex 0.562143 2.94686 3.5
      vertex 0.188371 2.99408 -3.5
      vertex 0.562143 2.94686 -3.5
    endloop
  endfacet
  facet normal -0.998026 0.0628015 0
    outer loop
      vertex 2.97634 -0.375999 -3.5
      vertex 3 0 3.5
      vertex 3 0 -3.5
    endloop
  endfacet
  facet normal -0.998026 0.0628015 0
    outer loop
      vertex 3 0 3.5
      vertex 2.97634 -0.375999 -3.5
      vertex 2.97634 -0.375999 3.5
    endloop
  endfacet
  facet normal -0.904828 0.425778 0
    outer loop
      vertex 2.62892 -1.44526 -3.5
      vertex 2.78933 -1.10437 3.5
      vertex 2.78933 -1.10437 -3.5
    endloop
  endfacet
  facet normal -0.904828 0.425778 0
    outer loop
      vertex 2.78933 -1.10437 3.5
      vertex 2.62892 -1.44526 -3.5
      vertex 2.62892 -1.44526 3.5
    endloop
  endfacet
  facet normal -0.951056 0.309019 0
    outer loop
      vertex 2.78933 -1.10437 -3.5
      vertex 2.90575 -0.746069 3.5
      vertex 2.90575 -0.746069 -3.5
    endloop
  endfacet
  facet normal -0.951056 0.309019 0
    outer loop
      vertex 2.90575 -0.746069 3.5
      vertex 2.78933 -1.10437 -3.5
      vertex 2.78933 -1.10437 3.5
    endloop
  endfacet
  facet normal -0.684541 0.728974 0
    outer loop
      vertex 2.18691 -2.05364 -3.5
      vertex 1.91227 -2.31154 3.5
      vertex 2.18691 -2.05364 3.5
    endloop
  endfacet
  facet normal -0.684541 0.728974 0
    outer loop
      vertex 1.91227 -2.31154 3.5
      vertex 2.18691 -2.05364 -3.5
      vertex 1.91227 -2.31154 -3.5
    endloop
  endfacet
  facet normal -0.770514 0.637423 0
    outer loop
      vertex 2.18691 -2.05364 -3.5
      vertex 2.42705 -1.76336 3.5
      vertex 2.42705 -1.76336 -3.5
    endloop
  endfacet
  facet normal -0.770514 0.637423 0
    outer loop
      vertex 2.42705 -1.76336 3.5
      vertex 2.18691 -2.05364 -3.5
      vertex 2.18691 -2.05364 3.5
    endloop
  endfacet
  facet normal 0.368126 0.929776 -0
    outer loop
      vertex -0.927051 -2.85317 -3.5
      vertex -1.27734 -2.71448 3.5
      vertex -0.927051 -2.85317 3.5
    endloop
  endfacet
  facet normal 0.368126 0.929776 0
    outer loop
      vertex -1.27734 -2.71448 3.5
      vertex -0.927051 -2.85317 -3.5
      vertex -1.27734 -2.71448 -3.5
    endloop
  endfacet
  facet normal 0.904828 0.425778 0
    outer loop
      vertex -2.62892 -1.44526 3.5
      vertex -2.78933 -1.10437 -3.5
      vertex -2.78933 -1.10437 3.5
    endloop
  endfacet
  facet normal 0.904828 0.425778 0
    outer loop
      vertex -2.78933 -1.10437 -3.5
      vertex -2.62892 -1.44526 3.5
      vertex -2.62892 -1.44526 -3.5
    endloop
  endfacet
  facet normal 0.684541 0.728974 -0
    outer loop
      vertex -1.91227 -2.31154 -3.5
      vertex -2.18691 -2.05364 3.5
      vertex -1.91227 -2.31154 3.5
    endloop
  endfacet
  facet normal 0.684541 0.728974 0
    outer loop
      vertex -2.18691 -2.05364 3.5
      vertex -1.91227 -2.31154 -3.5
      vertex -2.18691 -2.05364 -3.5
    endloop
  endfacet
  facet normal -0.368126 0.929776 0
    outer loop
      vertex 1.27734 -2.71448 -3.5
      vertex 0.927051 -2.85317 3.5
      vertex 1.27734 -2.71448 3.5
    endloop
  endfacet
  facet normal -0.368126 0.929776 0
    outer loop
      vertex 0.927051 -2.85317 3.5
      vertex 1.27734 -2.71448 -3.5
      vertex 0.927051 -2.85317 -3.5
    endloop
  endfacet
  facet normal -0.248684 0.968585 0
    outer loop
      vertex 0.927051 -2.85317 -3.5
      vertex 0.562143 -2.94686 3.5
      vertex 0.927051 -2.85317 3.5
    endloop
  endfacet
  facet normal -0.248684 0.968585 0
    outer loop
      vertex 0.562143 -2.94686 3.5
      vertex 0.927051 -2.85317 -3.5
      vertex 0.562143 -2.94686 -3.5
    endloop
  endfacet
  facet normal -0.58778 0.809021 0
    outer loop
      vertex 1.91227 -2.31154 -3.5
      vertex 1.60748 -2.53298 3.5
      vertex 1.91227 -2.31154 3.5
    endloop
  endfacet
  facet normal -0.58778 0.809021 0
    outer loop
      vertex 1.60748 -2.53298 3.5
      vertex 1.91227 -2.31154 -3.5
      vertex 1.60748 -2.53298 -3.5
    endloop
  endfacet
  facet normal -0.481762 0.876302 0
    outer loop
      vertex 1.60748 -2.53298 -3.5
      vertex 1.27734 -2.71448 3.5
      vertex 1.60748 -2.53298 3.5
    endloop
  endfacet
  facet normal -0.481762 0.876302 0
    outer loop
      vertex 1.27734 -2.71448 3.5
      vertex 1.60748 -2.53298 -3.5
      vertex 1.27734 -2.71448 -3.5
    endloop
  endfacet
  facet normal -0.844331 0.535822 0
    outer loop
      vertex 2.42705 -1.76336 -3.5
      vertex 2.62892 -1.44526 3.5
      vertex 2.62892 -1.44526 -3.5
    endloop
  endfacet
  facet normal -0.844331 0.535822 0
    outer loop
      vertex 2.62892 -1.44526 3.5
      vertex 2.42705 -1.76336 -3.5
      vertex 2.42705 -1.76336 3.5
    endloop
  endfacet
  facet normal 0.58778 0.809021 -0
    outer loop
      vertex -1.60748 -2.53298 -3.5
      vertex -1.91227 -2.31154 3.5
      vertex -1.60748 -2.53298 3.5
    endloop
  endfacet
  facet normal 0.58778 0.809021 0
    outer loop
      vertex -1.91227 -2.31154 3.5
      vertex -1.60748 -2.53298 -3.5
      vertex -1.91227 -2.31154 -3.5
    endloop
  endfacet
  facet normal 0.248684 0.968585 -0
    outer loop
      vertex -0.562143 -2.94686 -3.5
      vertex -0.927051 -2.85317 3.5
      vertex -0.562143 -2.94686 3.5
    endloop
  endfacet
  facet normal 0.248684 0.968585 0
    outer loop
      vertex -0.927051 -2.85317 3.5
      vertex -0.562143 -2.94686 -3.5
      vertex -0.927051 -2.85317 -3.5
    endloop
  endfacet
  facet normal 0.998026 0.0628015 0
    outer loop
      vertex -2.97634 -0.375999 3.5
      vertex -3 0 -3.5
      vertex -3 0 3.5
    endloop
  endfacet
  facet normal 0.998026 0.0628015 0
    outer loop
      vertex -3 0 -3.5
      vertex -2.97634 -0.375999 3.5
      vertex -2.97634 -0.375999 -3.5
    endloop
  endfacet
  facet normal 0.481762 0.876302 -0
    outer loop
      vertex -1.27734 -2.71448 -3.5
      vertex -1.60748 -2.53298 3.5
      vertex -1.27734 -2.71448 3.5
    endloop
  endfacet
  facet normal 0.481762 0.876302 0
    outer loop
      vertex -1.60748 -2.53298 3.5
      vertex -1.27734 -2.71448 -3.5
      vertex -1.60748 -2.53298 -3.5
    endloop
  endfacet
  facet normal 0.125337 0.992114 -0
    outer loop
      vertex -0.188371 -2.99408 -3.5
      vertex -0.562143 -2.94686 3.5
      vertex -0.188371 -2.99408 3.5
    endloop
  endfacet
  facet normal 0.125337 0.992114 0
    outer loop
      vertex -0.562143 -2.94686 3.5
      vertex -0.188371 -2.99408 -3.5
      vertex -0.562143 -2.94686 -3.5
    endloop
  endfacet
  facet normal 0.951056 0.309019 0
    outer loop
      vertex -2.78933 -1.10437 3.5
      vertex -2.90575 -0.746069 -3.5
      vertex -2.90575 -0.746069 3.5
    endloop
  endfacet
  facet normal 0.951056 0.309019 0
    outer loop
      vertex -2.90575 -0.746069 -3.5
      vertex -2.78933 -1.10437 3.5
      vertex -2.78933 -1.10437 -3.5
    endloop
  endfacet
  facet normal 0.98229 0.187369 0
    outer loop
      vertex -2.90575 -0.746069 3.5
      vertex -2.97634 -0.375999 -3.5
      vertex -2.97634 -0.375999 3.5
    endloop
  endfacet
  facet normal 0.98229 0.187369 0
    outer loop
      vertex -2.97634 -0.375999 -3.5
      vertex -2.90575 -0.746069 3.5
      vertex -2.90575 -0.746069 -3.5
    endloop
  endfacet
  facet normal 0.770514 0.637423 0
    outer loop
      vertex -2.18691 -2.05364 3.5
      vertex -2.42705 -1.76336 -3.5
      vertex -2.42705 -1.76336 3.5
    endloop
  endfacet
  facet normal 0.770514 0.637423 0
    outer loop
      vertex -2.42705 -1.76336 -3.5
      vertex -2.18691 -2.05364 3.5
      vertex -2.18691 -2.05364 -3.5
    endloop
  endfacet
endsolid OpenSCAD_Model
