solid OpenSCAD_Model
  facet normal 0.998028 0.0627749 0
    outer loop
      vertex 18 0 36
      vertex 17.8581 2.256 -36
      vertex 17.8581 2.256 36
    endloop
  endfacet
  facet normal 0.998028 0.0627749 0
    outer loop
      vertex 17.8581 2.256 -36
      vertex 18 0 36
      vertex 18 0 -36
    endloop
  endfacet
  facet normal -0.998028 0.0627749 0
    outer loop
      vertex -18 0 -36
      vertex -17.8581 2.256 36
      vertex -17.8581 2.256 -36
    endloop
  endfacet
  facet normal -0.998028 0.0627749 0
    outer loop
      vertex -17.8581 2.256 36
      vertex -18 0 -36
      vertex -18 0 36
    endloop
  endfacet
  facet normal 0 1 -0
    outer loop
      vertex 1.13023 17.9645 -36
      vertex -1.13023 17.9645 36
      vertex 1.13023 17.9645 36
    endloop
  endfacet
  facet normal 0 1 0
    outer loop
      vertex -1.13023 17.9645 36
      vertex 1.13023 17.9645 -36
      vertex -1.13023 17.9645 -36
    endloop
  endfacet
  facet normal 0 -1 0
    outer loop
      vertex -1.13023 -17.9645 -36
      vertex 1.13023 -17.9645 36
      vertex -1.13023 -17.9645 36
    endloop
  endfacet
  facet normal 0 -1 -0
    outer loop
      vertex 1.13023 -17.9645 36
      vertex -1.13023 -17.9645 -36
      vertex 1.13023 -17.9645 -36
    endloop
  endfacet
  facet normal 0.68455 0.728966 -0
    outer loop
      vertex 13.1214 12.3218 -36
      vertex 11.4736 13.8692 36
      vertex 13.1214 12.3218 36
    endloop
  endfacet
  facet normal 0.68455 0.728966 0
    outer loop
      vertex 11.4736 13.8692 36
      vertex 13.1214 12.3218 -36
      vertex 11.4736 13.8692 -36
    endloop
  endfacet
  facet normal -0.68455 0.728966 0
    outer loop
      vertex -11.4736 13.8692 -36
      vertex -13.1214 12.3218 36
      vertex -11.4736 13.8692 36
    endloop
  endfacet
  facet normal -0.68455 0.728966 0
    outer loop
      vertex -13.1214 12.3218 36
      vertex -11.4736 13.8692 -36
      vertex -13.1214 12.3218 -36
    endloop
  endfacet
  facet normal -0.368113 0.929781 0
    outer loop
      vertex -5.56231 17.119 -36
      vertex -7.66403 16.2869 36
      vertex -5.56231 17.119 36
    endloop
  endfacet
  facet normal -0.368113 0.929781 0
    outer loop
      vertex -7.66403 16.2869 36
      vertex -5.56231 17.119 -36
      vertex -7.66403 16.2869 -36
    endloop
  endfacet
  facet normal 0.90482 -0.425794 0
    outer loop
      vertex 15.7735 -8.67157 36
      vertex 16.736 -6.62624 -36
      vertex 16.736 -6.62624 36
    endloop
  endfacet
  facet normal 0.90482 -0.425794 0
    outer loop
      vertex 16.736 -6.62624 -36
      vertex 15.7735 -8.67157 36
      vertex 15.7735 -8.67157 -36
    endloop
  endfacet
  facet normal 0.90482 0.425794 0
    outer loop
      vertex 16.736 6.62624 36
      vertex 15.7735 8.67157 -36
      vertex 15.7735 8.67157 36
    endloop
  endfacet
  facet normal 0.90482 0.425794 0
    outer loop
      vertex 15.7735 8.67157 -36
      vertex 16.736 6.62624 36
      vertex 16.736 6.62624 -36
    endloop
  endfacet
  facet normal 0.982285 0.187395 0
    outer loop
      vertex 17.8581 2.256 36
      vertex 17.4345 4.47642 -36
      vertex 17.4345 4.47642 36
    endloop
  endfacet
  facet normal 0.982285 0.187395 0
    outer loop
      vertex 17.4345 4.47642 -36
      vertex 17.8581 2.256 36
      vertex 17.8581 2.256 -36
    endloop
  endfacet
  facet normal 0.844326 0.53583 0
    outer loop
      vertex 15.7735 8.67157 36
      vertex 14.5623 10.5801 -36
      vertex 14.5623 10.5801 36
    endloop
  endfacet
  facet normal 0.844326 0.53583 0
    outer loop
      vertex 14.5623 10.5801 -36
      vertex 15.7735 8.67157 36
      vertex 15.7735 8.67157 -36
    endloop
  endfacet
  facet normal 0.368113 0.929781 -0
    outer loop
      vertex 7.66403 16.2869 -36
      vertex 5.56231 17.119 36
      vertex 7.66403 16.2869 36
    endloop
  endfacet
  facet normal 0.368113 0.929781 0
    outer loop
      vertex 5.56231 17.119 36
      vertex 7.66403 16.2869 -36
      vertex 5.56231 17.119 -36
    endloop
  endfacet
  facet normal 0.248708 0.968578 -0
    outer loop
      vertex 5.56231 17.119 -36
      vertex 3.37286 17.6812 36
      vertex 5.56231 17.119 36
    endloop
  endfacet
  facet normal 0.248708 0.968578 0
    outer loop
      vertex 3.37286 17.6812 36
      vertex 5.56231 17.119 -36
      vertex 3.37286 17.6812 -36
    endloop
  endfacet
  facet normal 0.48176 0.876303 -0
    outer loop
      vertex 9.64488 15.1979 -36
      vertex 7.66403 16.2869 36
      vertex 9.64488 15.1979 36
    endloop
  endfacet
  facet normal 0.48176 0.876303 0
    outer loop
      vertex 7.66403 16.2869 36
      vertex 9.64488 15.1979 -36
      vertex 7.66403 16.2869 -36
    endloop
  endfacet
  facet normal -0.90482 0.425794 0
    outer loop
      vertex -16.736 6.62624 -36
      vertex -15.7735 8.67157 36
      vertex -15.7735 8.67157 -36
    endloop
  endfacet
  facet normal -0.90482 0.425794 0
    outer loop
      vertex -15.7735 8.67157 36
      vertex -16.736 6.62624 -36
      vertex -16.736 6.62624 36
    endloop
  endfacet
  facet normal -0.770504 0.637435 0
    outer loop
      vertex -14.5623 10.5801 -36
      vertex -13.1214 12.3218 36
      vertex -13.1214 12.3218 -36
    endloop
  endfacet
  facet normal -0.770504 0.637435 0
    outer loop
      vertex -13.1214 12.3218 36
      vertex -14.5623 10.5801 -36
      vertex -14.5623 10.5801 36
    endloop
  endfacet
  facet normal -0.951059 0.309009 0
    outer loop
      vertex -17.4345 4.47642 -36
      vertex -16.736 6.62624 36
      vertex -16.736 6.62624 -36
    endloop
  endfacet
  facet normal -0.951059 0.309009 0
    outer loop
      vertex -16.736 6.62624 36
      vertex -17.4345 4.47642 -36
      vertex -17.4345 4.47642 36
    endloop
  endfacet
  facet normal -0.48176 0.876303 0
    outer loop
      vertex -7.66403 16.2869 -36
      vertex -9.64488 15.1979 36
      vertex -7.66403 16.2869 36
    endloop
  endfacet
  facet normal -0.48176 0.876303 0
    outer loop
      vertex -9.64488 15.1979 36
      vertex -7.66403 16.2869 -36
      vertex -9.64488 15.1979 -36
    endloop
  endfacet
  facet normal -0.125329 0.992115 0
    outer loop
      vertex -1.13023 17.9645 -36
      vertex -3.37286 17.6812 36
      vertex -1.13023 17.9645 36
    endloop
  endfacet
  facet normal -0.125329 0.992115 0
    outer loop
      vertex -3.37286 17.6812 36
      vertex -1.13023 17.9645 -36
      vertex -3.37286 17.6812 -36
    endloop
  endfacet
  facet normal 0.125329 -0.992115 0
    outer loop
      vertex 1.13023 -17.9645 -36
      vertex 3.37286 -17.6812 36
      vertex 1.13023 -17.9645 36
    endloop
  endfacet
  facet normal 0.125329 -0.992115 0
    outer loop
      vertex 3.37286 -17.6812 36
      vertex 1.13023 -17.9645 -36
      vertex 3.37286 -17.6812 -36
    endloop
  endfacet
  facet normal 0.368113 -0.929781 0
    outer loop
      vertex 5.56231 -17.119 -36
      vertex 7.66403 -16.2869 36
      vertex 5.56231 -17.119 36
    endloop
  endfacet
  facet normal 0.368113 -0.929781 0
    outer loop
      vertex 7.66403 -16.2869 36
      vertex 5.56231 -17.119 -36
      vertex 7.66403 -16.2869 -36
    endloop
  endfacet
  facet normal 0.951059 0.309009 0
    outer loop
      vertex 17.4345 4.47642 36
      vertex 16.736 6.62624 -36
      vertex 16.736 6.62624 36
    endloop
  endfacet
  facet normal 0.951059 0.309009 0
    outer loop
      vertex 16.736 6.62624 -36
      vertex 17.4345 4.47642 36
      vertex 17.4345 4.47642 -36
    endloop
  endfacet
  facet normal 0.770504 0.637435 0
    outer loop
      vertex 14.5623 10.5801 36
      vertex 13.1214 12.3218 -36
      vertex 13.1214 12.3218 36
    endloop
  endfacet
  facet normal 0.770504 0.637435 0
    outer loop
      vertex 13.1214 12.3218 -36
      vertex 14.5623 10.5801 36
      vertex 14.5623 10.5801 -36
    endloop
  endfacet
  facet normal 0.125329 0.992115 -0
    outer loop
      vertex 3.37286 17.6812 -36
      vertex 1.13023 17.9645 36
      vertex 3.37286 17.6812 36
    endloop
  endfacet
  facet normal 0.125329 0.992115 0
    outer loop
      vertex 1.13023 17.9645 36
      vertex 3.37286 17.6812 -36
      vertex 1.13023 17.9645 -36
    endloop
  endfacet
  facet normal 0.587802 0.809005 -0
    outer loop
      vertex 11.4736 13.8692 -36
      vertex 9.64488 15.1979 36
      vertex 11.4736 13.8692 36
    endloop
  endfacet
  facet normal 0.587802 0.809005 0
    outer loop
      vertex 9.64488 15.1979 36
      vertex 11.4736 13.8692 -36
      vertex 9.64488 15.1979 -36
    endloop
  endfacet
  facet normal -0.844326 0.53583 0
    outer loop
      vertex -15.7735 8.67157 -36
      vertex -14.5623 10.5801 36
      vertex -14.5623 10.5801 -36
    endloop
  endfacet
  facet normal -0.844326 0.53583 0
    outer loop
      vertex -14.5623 10.5801 36
      vertex -15.7735 8.67157 -36
      vertex -15.7735 8.67157 36
    endloop
  endfacet
  facet normal -0.982285 0.187395 0
    outer loop
      vertex -17.8581 2.256 -36
      vertex -17.4345 4.47642 36
      vertex -17.4345 4.47642 -36
    endloop
  endfacet
  facet normal -0.982285 0.187395 0
    outer loop
      vertex -17.4345 4.47642 36
      vertex -17.8581 2.256 -36
      vertex -17.8581 2.256 36
    endloop
  endfacet
  facet normal 0 0 1
    outer loop
      vertex 3 0 36
      vertex 18 0 36
      vertex 17.8581 2.256 36
    endloop
  endfacet
  facet normal 0 0 1
    outer loop
      vertex 2.97634 0.375999 36
      vertex 17.8581 2.256 36
      vertex 17.4345 4.47642 36
    endloop
  endfacet
  facet normal 0 0 1
    outer loop
      vertex 18 0 36
      vertex 3 0 36
      vertex 17.8581 -2.256 36
    endloop
  endfacet
  facet normal 0 0 1
    outer loop
      vertex 2.90575 0.746069 36
      vertex 17.4345 4.47642 36
      vertex 16.736 6.62624 36
    endloop
  endfacet
  facet normal -0 0 1
    outer loop
      vertex 2.97634 -0.375999 36
      vertex 17.8581 -2.256 36
      vertex 3 0 36
    endloop
  endfacet
  facet normal 0 0 1
    outer loop
      vertex 2.78933 1.10437 36
      vertex 16.736 6.62624 36
      vertex 15.7735 8.67157 36
    endloop
  endfacet
  facet normal 0 0 1
    outer loop
      vertex 17.8581 -2.256 36
      vertex 2.97634 -0.375999 36
      vertex 17.4345 -4.47642 36
    endloop
  endfacet
  facet normal 0 0 1
    outer loop
      vertex 2.62892 1.44526 36
      vertex 15.7735 8.67157 36
      vertex 14.5623 10.5801 36
    endloop
  endfacet
  facet normal -0 0 1
    outer loop
      vertex 2.90575 -0.746069 36
      vertex 17.4345 -4.47642 36
      vertex 2.97634 -0.375999 36
    endloop
  endfacet
  facet normal 0 0 1
    outer loop
      vertex 2.42705 1.76336 36
      vertex 14.5623 10.5801 36
      vertex 13.1214 12.3218 36
    endloop
  endfacet
  facet normal 0 0 1
    outer loop
      vertex 17.4345 -4.47642 36
      vertex 2.90575 -0.746069 36
      vertex 16.736 -6.62624 36
    endloop
  endfacet
  facet normal 0 0 1
    outer loop
      vertex 2.18691 2.05364 36
      vertex 13.1214 12.3218 36
      vertex 11.4736 13.8692 36
    endloop
  endfacet
  facet normal -0 0 1
    outer loop
      vertex 2.78933 -1.10437 36
      vertex 16.736 -6.62624 36
      vertex 2.90575 -0.746069 36
    endloop
  endfacet
  facet normal 0 0 1
    outer loop
      vertex 1.91227 2.31154 36
      vertex 11.4736 13.8692 36
      vertex 9.64488 15.1979 36
    endloop
  endfacet
  facet normal 0 0 1
    outer loop
      vertex 16.736 -6.62624 36
      vertex 2.78933 -1.10437 36
      vertex 15.7735 -8.67157 36
    endloop
  endfacet
  facet normal 0 0 1
    outer loop
      vertex 1.60748 2.53298 36
      vertex 9.64488 15.1979 36
      vertex 7.66403 16.2869 36
    endloop
  endfacet
  facet normal -0 0 1
    outer loop
      vertex 2.62892 -1.44526 36
      vertex 15.7735 -8.67157 36
      vertex 2.78933 -1.10437 36
    endloop
  endfacet
  facet normal 0 0 1
    outer loop
      vertex 1.27734 2.71448 36
      vertex 7.66403 16.2869 36
      vertex 5.56231 17.119 36
    endloop
  endfacet
  facet normal 0 0 1
    outer loop
      vertex 15.7735 -8.67157 36
      vertex 2.62892 -1.44526 36
      vertex 14.5623 -10.5801 36
    endloop
  endfacet
  facet normal 0 0 1
    outer loop
      vertex 0.927051 2.85317 36
      vertex 5.56231 17.119 36
      vertex 3.37286 17.6812 36
    endloop
  endfacet
  facet normal -0 0 1
    outer loop
      vertex 2.42705 -1.76336 36
      vertex 14.5623 -10.5801 36
      vertex 2.62892 -1.44526 36
    endloop
  endfacet
  facet normal 0 0 1
    outer loop
      vertex 14.5623 -10.5801 36
      vertex 2.42705 -1.76336 36
      vertex 13.1214 -12.3218 36
    endloop
  endfacet
  facet normal 0 0 1
    outer loop
      vertex 17.8581 2.256 36
      vertex 2.97634 0.375999 36
      vertex 3 0 36
    endloop
  endfacet
  facet normal 0 0 1
    outer loop
      vertex 17.4345 4.47642 36
      vertex 2.90575 0.746069 36
      vertex 2.97634 0.375999 36
    endloop
  endfacet
  facet normal 0 0 1
    outer loop
      vertex 16.736 6.62624 36
      vertex 2.78933 1.10437 36
      vertex 2.90575 0.746069 36
    endloop
  endfacet
  facet normal 0 0 1
    outer loop
      vertex 15.7735 8.67157 36
      vertex 2.62892 1.44526 36
      vertex 2.78933 1.10437 36
    endloop
  endfacet
  facet normal 0 0 1
    outer loop
      vertex 14.5623 10.5801 36
      vertex 2.42705 1.76336 36
      vertex 2.62892 1.44526 36
    endloop
  endfacet
  facet normal 0 0 1
    outer loop
      vertex 13.1214 12.3218 36
      vertex 2.18691 2.05364 36
      vertex 2.42705 1.76336 36
    endloop
  endfacet
  facet normal 0 0 1
    outer loop
      vertex 11.4736 13.8692 36
      vertex 1.91227 2.31154 36
      vertex 2.18691 2.05364 36
    endloop
  endfacet
  facet normal 0 0 1
    outer loop
      vertex 9.64488 15.1979 36
      vertex 1.60748 2.53298 36
      vertex 1.91227 2.31154 36
    endloop
  endfacet
  facet normal 0 0 1
    outer loop
      vertex 7.66403 16.2869 36
      vertex 1.27734 2.71448 36
      vertex 1.60748 2.53298 36
    endloop
  endfacet
  facet normal 0 0 1
    outer loop
      vertex 0.562143 2.94686 36
      vertex 3.37286 17.6812 36
      vertex 1.13023 17.9645 36
    endloop
  endfacet
  facet normal 0 0 1
    outer loop
      vertex 5.56231 17.119 36
      vertex 0.927051 2.85317 36
      vertex 1.27734 2.71448 36
    endloop
  endfacet
  facet normal 0 0 1
    outer loop
      vertex 3.37286 17.6812 36
      vertex 0.562143 2.94686 36
      vertex 0.927051 2.85317 36
    endloop
  endfacet
  facet normal 0 0 1
    outer loop
      vertex 1.13023 17.9645 36
      vertex 0.188371 2.99408 36
      vertex 0.562143 2.94686 36
    endloop
  endfacet
  facet normal 0 0 1
    outer loop
      vertex 1.13023 17.9645 36
      vertex -0.188371 2.99408 36
      vertex 0.188371 2.99408 36
    endloop
  endfacet
  facet normal -0 0 1
    outer loop
      vertex -1.13023 17.9645 36
      vertex -0.188371 2.99408 36
      vertex 1.13023 17.9645 36
    endloop
  endfacet
  facet normal 0 0 1
    outer loop
      vertex -0.188371 2.99408 36
      vertex -1.13023 17.9645 36
      vertex -0.562143 2.94686 36
    endloop
  endfacet
  facet normal -0 0 1
    outer loop
      vertex -3.37286 17.6812 36
      vertex -0.562143 2.94686 36
      vertex -1.13023 17.9645 36
    endloop
  endfacet
  facet normal 0 0 1
    outer loop
      vertex -0.562143 2.94686 36
      vertex -3.37286 17.6812 36
      vertex -0.927051 2.85317 36
    endloop
  endfacet
  facet normal -0 0 1
    outer loop
      vertex -5.56231 17.119 36
      vertex -0.927051 2.85317 36
      vertex -3.37286 17.6812 36
    endloop
  endfacet
  facet normal 0 0 1
    outer loop
      vertex -0.927051 2.85317 36
      vertex -5.56231 17.119 36
      vertex -1.27734 2.71448 36
    endloop
  endfacet
  facet normal -0 0 1
    outer loop
      vertex -7.66403 16.2869 36
      vertex -1.27734 2.71448 36
      vertex -5.56231 17.119 36
    endloop
  endfacet
  facet normal 0 0 1
    outer loop
      vertex -1.27734 2.71448 36
      vertex -7.66403 16.2869 36
      vertex -1.60748 2.53298 36
    endloop
  endfacet
  facet normal -0 0 1
    outer loop
      vertex -9.64488 15.1979 36
      vertex -1.60748 2.53298 36
      vertex -7.66403 16.2869 36
    endloop
  endfacet
  facet normal 0 0 1
    outer loop
      vertex -1.60748 2.53298 36
      vertex -9.64488 15.1979 36
      vertex -1.91227 2.31154 36
    endloop
  endfacet
  facet normal -0 0 1
    outer loop
      vertex -11.4736 13.8692 36
      vertex -1.91227 2.31154 36
      vertex -9.64488 15.1979 36
    endloop
  endfacet
  facet normal 0 0 1
    outer loop
      vertex -1.91227 2.31154 36
      vertex -11.4736 13.8692 36
      vertex -2.18691 2.05364 36
    endloop
  endfacet
  facet normal 0 0 1
    outer loop
      vertex -2.18691 2.05364 36
      vertex -13.1214 12.3218 36
      vertex -2.42705 1.76336 36
    endloop
  endfacet
  facet normal -0 0 1
    outer loop
      vertex -13.1214 12.3218 36
      vertex -2.18691 2.05364 36
      vertex -11.4736 13.8692 36
    endloop
  endfacet
  facet normal -0 0 1
    outer loop
      vertex 2.18691 -2.05364 36
      vertex 13.1214 -12.3218 36
      vertex 2.42705 -1.76336 36
    endloop
  endfacet
  facet normal 0 0 1
    outer loop
      vertex 13.1214 -12.3218 36
      vertex 2.18691 -2.05364 36
      vertex 11.4736 -13.8692 36
    endloop
  endfacet
  facet normal -0 0 1
    outer loop
      vertex 1.91227 -2.31154 36
      vertex 11.4736 -13.8692 36
      vertex 2.18691 -2.05364 36
    endloop
  endfacet
  facet normal 0 0 1
    outer loop
      vertex 11.4736 -13.8692 36
      vertex 1.91227 -2.31154 36
      vertex 9.64488 -15.1979 36
    endloop
  endfacet
  facet normal -0 0 1
    outer loop
      vertex 1.60748 -2.53298 36
      vertex 9.64488 -15.1979 36
      vertex 1.91227 -2.31154 36
    endloop
  endfacet
  facet normal 0 0 1
    outer loop
      vertex 9.64488 -15.1979 36
      vertex 1.60748 -2.53298 36
      vertex 7.66403 -16.2869 36
    endloop
  endfacet
  facet normal -0 0 1
    outer loop
      vertex 1.27734 -2.71448 36
      vertex 7.66403 -16.2869 36
      vertex 1.60748 -2.53298 36
    endloop
  endfacet
  facet normal 0 0 1
    outer loop
      vertex 7.66403 -16.2869 36
      vertex 1.27734 -2.71448 36
      vertex 5.56231 -17.119 36
    endloop
  endfacet
  facet normal -0 0 1
    outer loop
      vertex 0.927051 -2.85317 36
      vertex 5.56231 -17.119 36
      vertex 1.27734 -2.71448 36
    endloop
  endfacet
  facet normal 0 0 1
    outer loop
      vertex 5.56231 -17.119 36
      vertex 0.927051 -2.85317 36
      vertex 3.37286 -17.6812 36
    endloop
  endfacet
  facet normal -0 0 1
    outer loop
      vertex 0.562143 -2.94686 36
      vertex 3.37286 -17.6812 36
      vertex 0.927051 -2.85317 36
    endloop
  endfacet
  facet normal 0 0 1
    outer loop
      vertex 3.37286 -17.6812 36
      vertex 0.562143 -2.94686 36
      vertex 1.13023 -17.9645 36
    endloop
  endfacet
  facet normal -0 0 1
    outer loop
      vertex 0.188371 -2.99408 36
      vertex 1.13023 -17.9645 36
      vertex 0.562143 -2.94686 36
    endloop
  endfacet
  facet normal -0 0 1
    outer loop
      vertex -0.188371 -2.99408 36
      vertex 1.13023 -17.9645 36
      vertex 0.188371 -2.99408 36
    endloop
  endfacet
  facet normal 0 0 1
    outer loop
      vertex -1.13023 -17.9645 36
      vertex -0.188371 -2.99408 36
      vertex -0.562143 -2.94686 36
    endloop
  endfacet
  facet normal 0 0 1
    outer loop
      vertex -3.37286 -17.6812 36
      vertex -0.562143 -2.94686 36
      vertex -0.927051 -2.85317 36
    endloop
  endfacet
  facet normal 0 0 1
    outer loop
      vertex -0.188371 -2.99408 36
      vertex -1.13023 -17.9645 36
      vertex 1.13023 -17.9645 36
    endloop
  endfacet
  facet normal 0 0 1
    outer loop
      vertex -5.56231 -17.119 36
      vertex -0.927051 -2.85317 36
      vertex -1.27734 -2.71448 36
    endloop
  endfacet
  facet normal 0 0 1
    outer loop
      vertex -7.66403 -16.2869 36
      vertex -1.27734 -2.71448 36
      vertex -1.60748 -2.53298 36
    endloop
  endfacet
  facet normal 0 0 1
    outer loop
      vertex -9.64488 -15.1979 36
      vertex -1.60748 -2.53298 36
      vertex -1.91227 -2.31154 36
    endloop
  endfacet
  facet normal 0 0 1
    outer loop
      vertex -11.4736 -13.8692 36
      vertex -1.91227 -2.31154 36
      vertex -2.18691 -2.05364 36
    endloop
  endfacet
  facet normal 0 0 1
    outer loop
      vertex -13.1214 -12.3218 36
      vertex -2.18691 -2.05364 36
      vertex -2.42705 -1.76336 36
    endloop
  endfacet
  facet normal 0 0 1
    outer loop
      vertex -14.5623 -10.5801 36
      vertex -2.42705 -1.76336 36
      vertex -2.62892 -1.44526 36
    endloop
  endfacet
  facet normal 0 0 1
    outer loop
      vertex -15.7735 -8.67157 36
      vertex -2.62892 -1.44526 36
      vertex -2.78933 -1.10437 36
    endloop
  endfacet
  facet normal 0 0 1
    outer loop
      vertex -16.736 -6.62624 36
      vertex -2.78933 -1.10437 36
      vertex -2.90575 -0.746069 36
    endloop
  endfacet
  facet normal 0 0 1
    outer loop
      vertex -17.4345 -4.47642 36
      vertex -2.90575 -0.746069 36
      vertex -2.97634 -0.375999 36
    endloop
  endfacet
  facet normal 0 0 1
    outer loop
      vertex -0.562143 -2.94686 36
      vertex -3.37286 -17.6812 36
      vertex -1.13023 -17.9645 36
    endloop
  endfacet
  facet normal 0 0 1
    outer loop
      vertex -17.8581 -2.256 36
      vertex -2.97634 -0.375999 36
      vertex -3 0 36
    endloop
  endfacet
  facet normal -0 0 1
    outer loop
      vertex -14.5623 10.5801 36
      vertex -2.42705 1.76336 36
      vertex -13.1214 12.3218 36
    endloop
  endfacet
  facet normal 0 0 1
    outer loop
      vertex -2.42705 1.76336 36
      vertex -14.5623 10.5801 36
      vertex -2.62892 1.44526 36
    endloop
  endfacet
  facet normal 0 0 1
    outer loop
      vertex -0.927051 -2.85317 36
      vertex -5.56231 -17.119 36
      vertex -3.37286 -17.6812 36
    endloop
  endfacet
  facet normal -0 0 1
    outer loop
      vertex -15.7735 8.67157 36
      vertex -2.62892 1.44526 36
      vertex -14.5623 10.5801 36
    endloop
  endfacet
  facet normal 0 0 1
    outer loop
      vertex -1.27734 -2.71448 36
      vertex -7.66403 -16.2869 36
      vertex -5.56231 -17.119 36
    endloop
  endfacet
  facet normal 0 0 1
    outer loop
      vertex -2.62892 1.44526 36
      vertex -15.7735 8.67157 36
      vertex -2.78933 1.10437 36
    endloop
  endfacet
  facet normal 0 0 1
    outer loop
      vertex -1.60748 -2.53298 36
      vertex -9.64488 -15.1979 36
      vertex -7.66403 -16.2869 36
    endloop
  endfacet
  facet normal -0 0 1
    outer loop
      vertex -16.736 6.62624 36
      vertex -2.78933 1.10437 36
      vertex -15.7735 8.67157 36
    endloop
  endfacet
  facet normal 0 0 1
    outer loop
      vertex -1.91227 -2.31154 36
      vertex -11.4736 -13.8692 36
      vertex -9.64488 -15.1979 36
    endloop
  endfacet
  facet normal 0 0 1
    outer loop
      vertex -2.78933 1.10437 36
      vertex -16.736 6.62624 36
      vertex -2.90575 0.746069 36
    endloop
  endfacet
  facet normal 0 0 1
    outer loop
      vertex -2.18691 -2.05364 36
      vertex -13.1214 -12.3218 36
      vertex -11.4736 -13.8692 36
    endloop
  endfacet
  facet normal -0 0 1
    outer loop
      vertex -17.4345 4.47642 36
      vertex -2.90575 0.746069 36
      vertex -16.736 6.62624 36
    endloop
  endfacet
  facet normal 0 0 1
    outer loop
      vertex -2.42705 -1.76336 36
      vertex -14.5623 -10.5801 36
      vertex -13.1214 -12.3218 36
    endloop
  endfacet
  facet normal 0 0 1
    outer loop
      vertex -2.90575 0.746069 36
      vertex -17.4345 4.47642 36
      vertex -2.97634 0.375999 36
    endloop
  endfacet
  facet normal 0 0 1
    outer loop
      vertex -2.62892 -1.44526 36
      vertex -15.7735 -8.67157 36
      vertex -14.5623 -10.5801 36
    endloop
  endfacet
  facet normal -0 0 1
    outer loop
      vertex -17.8581 2.256 36
      vertex -2.97634 0.375999 36
      vertex -17.4345 4.47642 36
    endloop
  endfacet
  facet normal 0 0 1
    outer loop
      vertex -2.78933 -1.10437 36
      vertex -16.736 -6.62624 36
      vertex -15.7735 -8.67157 36
    endloop
  endfacet
  facet normal 0 0 1
    outer loop
      vertex -2.97634 0.375999 36
      vertex -17.8581 2.256 36
      vertex -3 0 36
    endloop
  endfacet
  facet normal 0 0 1
    outer loop
      vertex -2.90575 -0.746069 36
      vertex -17.4345 -4.47642 36
      vertex -16.736 -6.62624 36
    endloop
  endfacet
  facet normal 0 0 1
    outer loop
      vertex -18 0 36
      vertex -3 0 36
      vertex -17.8581 2.256 36
    endloop
  endfacet
  facet normal 0 0 1
    outer loop
      vertex -2.97634 -0.375999 36
      vertex -17.8581 -2.256 36
      vertex -17.4345 -4.47642 36
    endloop
  endfacet
  facet normal 0 0 1
    outer loop
      vertex -3 0 36
      vertex -18 0 36
      vertex -17.8581 -2.256 36
    endloop
  endfacet
  facet normal -0.587802 0.809005 0
    outer loop
      vertex -9.64488 15.1979 -36
      vertex -11.4736 13.8692 36
      vertex -9.64488 15.1979 36
    endloop
  endfacet
  facet normal -0.587802 0.809005 0
    outer loop
      vertex -11.4736 13.8692 36
      vertex -9.64488 15.1979 -36
      vertex -11.4736 13.8692 -36
    endloop
  endfacet
  facet normal -0.248708 0.968578 0
    outer loop
      vertex -3.37286 17.6812 -36
      vertex -5.56231 17.119 36
      vertex -3.37286 17.6812 36
    endloop
  endfacet
  facet normal -0.248708 0.968578 0
    outer loop
      vertex -5.56231 17.119 36
      vertex -3.37286 17.6812 -36
      vertex -5.56231 17.119 -36
    endloop
  endfacet
  facet normal 0.998028 -0.0627749 0
    outer loop
      vertex 17.8581 -2.256 36
      vertex 18 0 -36
      vertex 18 0 36
    endloop
  endfacet
  facet normal 0.998028 -0.0627749 0
    outer loop
      vertex 18 0 -36
      vertex 17.8581 -2.256 36
      vertex 17.8581 -2.256 -36
    endloop
  endfacet
  facet normal 0.770504 -0.637435 0
    outer loop
      vertex 13.1214 -12.3218 36
      vertex 14.5623 -10.5801 -36
      vertex 14.5623 -10.5801 36
    endloop
  endfacet
  facet normal 0.770504 -0.637435 0
    outer loop
      vertex 14.5623 -10.5801 -36
      vertex 13.1214 -12.3218 36
      vertex 13.1214 -12.3218 -36
    endloop
  endfacet
  facet normal 0.951059 -0.309009 0
    outer loop
      vertex 16.736 -6.62624 36
      vertex 17.4345 -4.47642 -36
      vertex 17.4345 -4.47642 36
    endloop
  endfacet
  facet normal 0.951059 -0.309009 0
    outer loop
      vertex 17.4345 -4.47642 -36
      vertex 16.736 -6.62624 36
      vertex 16.736 -6.62624 -36
    endloop
  endfacet
  facet normal 0.982285 -0.187395 0
    outer loop
      vertex 17.4345 -4.47642 36
      vertex 17.8581 -2.256 -36
      vertex 17.8581 -2.256 36
    endloop
  endfacet
  facet normal 0.982285 -0.187395 0
    outer loop
      vertex 17.8581 -2.256 -36
      vertex 17.4345 -4.47642 36
      vertex 17.4345 -4.47642 -36
    endloop
  endfacet
  facet normal -0.68455 -0.728966 0
    outer loop
      vertex -13.1214 -12.3218 -36
      vertex -11.4736 -13.8692 36
      vertex -13.1214 -12.3218 36
    endloop
  endfacet
  facet normal -0.68455 -0.728966 -0
    outer loop
      vertex -11.4736 -13.8692 36
      vertex -13.1214 -12.3218 -36
      vertex -11.4736 -13.8692 -36
    endloop
  endfacet
  facet normal -0.90482 -0.425794 0
    outer loop
      vertex -15.7735 -8.67157 -36
      vertex -16.736 -6.62624 36
      vertex -16.736 -6.62624 -36
    endloop
  endfacet
  facet normal -0.90482 -0.425794 0
    outer loop
      vertex -16.736 -6.62624 36
      vertex -15.7735 -8.67157 -36
      vertex -15.7735 -8.67157 36
    endloop
  endfacet
  facet normal -0.770504 -0.637435 0
    outer loop
      vertex -13.1214 -12.3218 -36
      vertex -14.5623 -10.5801 36
      vertex -14.5623 -10.5801 -36
    endloop
  endfacet
  facet normal -0.770504 -0.637435 0
    outer loop
      vertex -14.5623 -10.5801 36
      vertex -13.1214 -12.3218 -36
      vertex -13.1214 -12.3218 36
    endloop
  endfacet
  facet normal 0 0 -1
    outer loop
      vertex 3 0 -36
      vertex 18 0 -36
      vertex 17.8581 -2.256 -36
    endloop
  endfacet
  facet normal 0 0 -1
    outer loop
      vertex 2.97634 -0.375999 -36
      vertex 17.8581 -2.256 -36
      vertex 17.4345 -4.47642 -36
    endloop
  endfacet
  facet normal 0 0 -1
    outer loop
      vertex 18 0 -36
      vertex 3 0 -36
      vertex 17.8581 2.256 -36
    endloop
  endfacet
  facet normal 0 0 -1
    outer loop
      vertex 2.90575 -0.746069 -36
      vertex 17.4345 -4.47642 -36
      vertex 16.736 -6.62624 -36
    endloop
  endfacet
  facet normal 0 0 -1
    outer loop
      vertex 2.97634 0.375999 -36
      vertex 17.8581 2.256 -36
      vertex 3 0 -36
    endloop
  endfacet
  facet normal 0 0 -1
    outer loop
      vertex 2.78933 -1.10437 -36
      vertex 16.736 -6.62624 -36
      vertex 15.7735 -8.67157 -36
    endloop
  endfacet
  facet normal -0 0 -1
    outer loop
      vertex 17.8581 2.256 -36
      vertex 2.97634 0.375999 -36
      vertex 17.4345 4.47642 -36
    endloop
  endfacet
  facet normal 0 0 -1
    outer loop
      vertex 2.62892 -1.44526 -36
      vertex 15.7735 -8.67157 -36
      vertex 14.5623 -10.5801 -36
    endloop
  endfacet
  facet normal 0 0 -1
    outer loop
      vertex 2.90575 0.746069 -36
      vertex 17.4345 4.47642 -36
      vertex 2.97634 0.375999 -36
    endloop
  endfacet
  facet normal 0 0 -1
    outer loop
      vertex 2.42705 -1.76336 -36
      vertex 14.5623 -10.5801 -36
      vertex 13.1214 -12.3218 -36
    endloop
  endfacet
  facet normal -0 0 -1
    outer loop
      vertex 17.4345 4.47642 -36
      vertex 2.90575 0.746069 -36
      vertex 16.736 6.62624 -36
    endloop
  endfacet
  facet normal 0 0 -1
    outer loop
      vertex 2.18691 -2.05364 -36
      vertex 13.1214 -12.3218 -36
      vertex 11.4736 -13.8692 -36
    endloop
  endfacet
  facet normal 0 0 -1
    outer loop
      vertex 2.78933 1.10437 -36
      vertex 16.736 6.62624 -36
      vertex 2.90575 0.746069 -36
    endloop
  endfacet
  facet normal 0 0 -1
    outer loop
      vertex 1.91227 -2.31154 -36
      vertex 11.4736 -13.8692 -36
      vertex 9.64488 -15.1979 -36
    endloop
  endfacet
  facet normal -0 0 -1
    outer loop
      vertex 16.736 6.62624 -36
      vertex 2.78933 1.10437 -36
      vertex 15.7735 8.67157 -36
    endloop
  endfacet
  facet normal 0 0 -1
    outer loop
      vertex 1.60748 -2.53298 -36
      vertex 9.64488 -15.1979 -36
      vertex 7.66403 -16.2869 -36
    endloop
  endfacet
  facet normal 0 0 -1
    outer loop
      vertex 2.62892 1.44526 -36
      vertex 15.7735 8.67157 -36
      vertex 2.78933 1.10437 -36
    endloop
  endfacet
  facet normal 0 0 -1
    outer loop
      vertex 1.27734 -2.71448 -36
      vertex 7.66403 -16.2869 -36
      vertex 5.56231 -17.119 -36
    endloop
  endfacet
  facet normal -0 0 -1
    outer loop
      vertex 15.7735 8.67157 -36
      vertex 2.62892 1.44526 -36
      vertex 14.5623 10.5801 -36
    endloop
  endfacet
  facet normal 0 0 -1
    outer loop
      vertex 0.927051 -2.85317 -36
      vertex 5.56231 -17.119 -36
      vertex 3.37286 -17.6812 -36
    endloop
  endfacet
  facet normal 0 0 -1
    outer loop
      vertex 2.42705 1.76336 -36
      vertex 14.5623 10.5801 -36
      vertex 2.62892 1.44526 -36
    endloop
  endfacet
  facet normal -0 0 -1
    outer loop
      vertex 14.5623 10.5801 -36
      vertex 2.42705 1.76336 -36
      vertex 13.1214 12.3218 -36
    endloop
  endfacet
  facet normal 0 0 -1
    outer loop
      vertex 17.8581 -2.256 -36
      vertex 2.97634 -0.375999 -36
      vertex 3 0 -36
    endloop
  endfacet
  facet normal 0 0 -1
    outer loop
      vertex 17.4345 -4.47642 -36
      vertex 2.90575 -0.746069 -36
      vertex 2.97634 -0.375999 -36
    endloop
  endfacet
  facet normal 0 0 -1
    outer loop
      vertex 16.736 -6.62624 -36
      vertex 2.78933 -1.10437 -36
      vertex 2.90575 -0.746069 -36
    endloop
  endfacet
  facet normal 0 0 -1
    outer loop
      vertex 15.7735 -8.67157 -36
      vertex 2.62892 -1.44526 -36
      vertex 2.78933 -1.10437 -36
    endloop
  endfacet
  facet normal 0 0 -1
    outer loop
      vertex 14.5623 -10.5801 -36
      vertex 2.42705 -1.76336 -36
      vertex 2.62892 -1.44526 -36
    endloop
  endfacet
  facet normal 0 0 -1
    outer loop
      vertex 13.1214 -12.3218 -36
      vertex 2.18691 -2.05364 -36
      vertex 2.42705 -1.76336 -36
    endloop
  endfacet
  facet normal 0 0 -1
    outer loop
      vertex 11.4736 -13.8692 -36
      vertex 1.91227 -2.31154 -36
      vertex 2.18691 -2.05364 -36
    endloop
  endfacet
  facet normal 0 0 -1
    outer loop
      vertex 9.64488 -15.1979 -36
      vertex 1.60748 -2.53298 -36
      vertex 1.91227 -2.31154 -36
    endloop
  endfacet
  facet normal 0 0 -1
    outer loop
      vertex 7.66403 -16.2869 -36
      vertex 1.27734 -2.71448 -36
      vertex 1.60748 -2.53298 -36
    endloop
  endfacet
  facet normal 0 0 -1
    outer loop
      vertex 0.562143 -2.94686 -36
      vertex 3.37286 -17.6812 -36
      vertex 1.13023 -17.9645 -36
    endloop
  endfacet
  facet normal 0 0 -1
    outer loop
      vertex 5.56231 -17.119 -36
      vertex 0.927051 -2.85317 -36
      vertex 1.27734 -2.71448 -36
    endloop
  endfacet
  facet normal 0 0 -1
    outer loop
      vertex 3.37286 -17.6812 -36
      vertex 0.562143 -2.94686 -36
      vertex 0.927051 -2.85317 -36
    endloop
  endfacet
  facet normal 0 0 -1
    outer loop
      vertex 1.13023 -17.9645 -36
      vertex 0.188371 -2.99408 -36
      vertex 0.562143 -2.94686 -36
    endloop
  endfacet
  facet normal 0 0 -1
    outer loop
      vertex 1.13023 -17.9645 -36
      vertex -0.188371 -2.99408 -36
      vertex 0.188371 -2.99408 -36
    endloop
  endfacet
  facet normal 0 0 -1
    outer loop
      vertex -1.13023 -17.9645 -36
      vertex -0.188371 -2.99408 -36
      vertex 1.13023 -17.9645 -36
    endloop
  endfacet
  facet normal -0 0 -1
    outer loop
      vertex -0.188371 -2.99408 -36
      vertex -1.13023 -17.9645 -36
      vertex -0.562143 -2.94686 -36
    endloop
  endfacet
  facet normal 0 0 -1
    outer loop
      vertex -3.37286 -17.6812 -36
      vertex -0.562143 -2.94686 -36
      vertex -1.13023 -17.9645 -36
    endloop
  endfacet
  facet normal -0 0 -1
    outer loop
      vertex -0.562143 -2.94686 -36
      vertex -3.37286 -17.6812 -36
      vertex -0.927051 -2.85317 -36
    endloop
  endfacet
  facet normal 0 0 -1
    outer loop
      vertex -5.56231 -17.119 -36
      vertex -0.927051 -2.85317 -36
      vertex -3.37286 -17.6812 -36
    endloop
  endfacet
  facet normal -0 0 -1
    outer loop
      vertex -0.927051 -2.85317 -36
      vertex -5.56231 -17.119 -36
      vertex -1.27734 -2.71448 -36
    endloop
  endfacet
  facet normal 0 0 -1
    outer loop
      vertex -7.66403 -16.2869 -36
      vertex -1.27734 -2.71448 -36
      vertex -5.56231 -17.119 -36
    endloop
  endfacet
  facet normal -0 0 -1
    outer loop
      vertex -1.27734 -2.71448 -36
      vertex -7.66403 -16.2869 -36
      vertex -1.60748 -2.53298 -36
    endloop
  endfacet
  facet normal 0 0 -1
    outer loop
      vertex -9.64488 -15.1979 -36
      vertex -1.60748 -2.53298 -36
      vertex -7.66403 -16.2869 -36
    endloop
  endfacet
  facet normal -0 0 -1
    outer loop
      vertex -1.60748 -2.53298 -36
      vertex -9.64488 -15.1979 -36
      vertex -1.91227 -2.31154 -36
    endloop
  endfacet
  facet normal 0 0 -1
    outer loop
      vertex -11.4736 -13.8692 -36
      vertex -1.91227 -2.31154 -36
      vertex -9.64488 -15.1979 -36
    endloop
  endfacet
  facet normal -0 0 -1
    outer loop
      vertex -1.91227 -2.31154 -36
      vertex -11.4736 -13.8692 -36
      vertex -2.18691 -2.05364 -36
    endloop
  endfacet
  facet normal -0 0 -1
    outer loop
      vertex -2.18691 -2.05364 -36
      vertex -13.1214 -12.3218 -36
      vertex -2.42705 -1.76336 -36
    endloop
  endfacet
  facet normal 0 0 -1
    outer loop
      vertex -13.1214 -12.3218 -36
      vertex -2.18691 -2.05364 -36
      vertex -11.4736 -13.8692 -36
    endloop
  endfacet
  facet normal 0 0 -1
    outer loop
      vertex 2.18691 2.05364 -36
      vertex 13.1214 12.3218 -36
      vertex 2.42705 1.76336 -36
    endloop
  endfacet
  facet normal -0 0 -1
    outer loop
      vertex 13.1214 12.3218 -36
      vertex 2.18691 2.05364 -36
      vertex 11.4736 13.8692 -36
    endloop
  endfacet
  facet normal 0 0 -1
    outer loop
      vertex 1.91227 2.31154 -36
      vertex 11.4736 13.8692 -36
      vertex 2.18691 2.05364 -36
    endloop
  endfacet
  facet normal -0 0 -1
    outer loop
      vertex 11.4736 13.8692 -36
      vertex 1.91227 2.31154 -36
      vertex 9.64488 15.1979 -36
    endloop
  endfacet
  facet normal 0 0 -1
    outer loop
      vertex 1.60748 2.53298 -36
      vertex 9.64488 15.1979 -36
      vertex 1.91227 2.31154 -36
    endloop
  endfacet
  facet normal -0 0 -1
    outer loop
      vertex 9.64488 15.1979 -36
      vertex 1.60748 2.53298 -36
      vertex 7.66403 16.2869 -36
    endloop
  endfacet
  facet normal 0 0 -1
    outer loop
      vertex 1.27734 2.71448 -36
      vertex 7.66403 16.2869 -36
      vertex 1.60748 2.53298 -36
    endloop
  endfacet
  facet normal -0 0 -1
    outer loop
      vertex 7.66403 16.2869 -36
      vertex 1.27734 2.71448 -36
      vertex 5.56231 17.119 -36
    endloop
  endfacet
  facet normal 0 0 -1
    outer loop
      vertex 0.927051 2.85317 -36
      vertex 5.56231 17.119 -36
      vertex 1.27734 2.71448 -36
    endloop
  endfacet
  facet normal -0 0 -1
    outer loop
      vertex 5.56231 17.119 -36
      vertex 0.927051 2.85317 -36
      vertex 3.37286 17.6812 -36
    endloop
  endfacet
  facet normal 0 0 -1
    outer loop
      vertex 0.562143 2.94686 -36
      vertex 3.37286 17.6812 -36
      vertex 0.927051 2.85317 -36
    endloop
  endfacet
  facet normal -0 0 -1
    outer loop
      vertex 3.37286 17.6812 -36
      vertex 0.562143 2.94686 -36
      vertex 1.13023 17.9645 -36
    endloop
  endfacet
  facet normal 0 0 -1
    outer loop
      vertex 0.188371 2.99408 -36
      vertex 1.13023 17.9645 -36
      vertex 0.562143 2.94686 -36
    endloop
  endfacet
  facet normal 0 0 -1
    outer loop
      vertex -0.188371 2.99408 -36
      vertex 1.13023 17.9645 -36
      vertex 0.188371 2.99408 -36
    endloop
  endfacet
  facet normal 0 0 -1
    outer loop
      vertex -1.13023 17.9645 -36
      vertex -0.188371 2.99408 -36
      vertex -0.562143 2.94686 -36
    endloop
  endfacet
  facet normal 0 0 -1
    outer loop
      vertex -3.37286 17.6812 -36
      vertex -0.562143 2.94686 -36
      vertex -0.927051 2.85317 -36
    endloop
  endfacet
  facet normal 0 0 -1
    outer loop
      vertex -0.188371 2.99408 -36
      vertex -1.13023 17.9645 -36
      vertex 1.13023 17.9645 -36
    endloop
  endfacet
  facet normal 0 0 -1
    outer loop
      vertex -5.56231 17.119 -36
      vertex -0.927051 2.85317 -36
      vertex -1.27734 2.71448 -36
    endloop
  endfacet
  facet normal 0 0 -1
    outer loop
      vertex -7.66403 16.2869 -36
      vertex -1.27734 2.71448 -36
      vertex -1.60748 2.53298 -36
    endloop
  endfacet
  facet normal 0 0 -1
    outer loop
      vertex -9.64488 15.1979 -36
      vertex -1.60748 2.53298 -36
      vertex -1.91227 2.31154 -36
    endloop
  endfacet
  facet normal 0 0 -1
    outer loop
      vertex -11.4736 13.8692 -36
      vertex -1.91227 2.31154 -36
      vertex -2.18691 2.05364 -36
    endloop
  endfacet
  facet normal 0 0 -1
    outer loop
      vertex -13.1214 12.3218 -36
      vertex -2.18691 2.05364 -36
      vertex -2.42705 1.76336 -36
    endloop
  endfacet
  facet normal 0 0 -1
    outer loop
      vertex -14.5623 10.5801 -36
      vertex -2.42705 1.76336 -36
      vertex -2.62892 1.44526 -36
    endloop
  endfacet
  facet normal 0 0 -1
    outer loop
      vertex -15.7735 8.67157 -36
      vertex -2.62892 1.44526 -36
      vertex -2.78933 1.10437 -36
    endloop
  endfacet
  facet normal 0 0 -1
    outer loop
      vertex -16.736 6.62624 -36
      vertex -2.78933 1.10437 -36
      vertex -2.90575 0.746069 -36
    endloop
  endfacet
  facet normal 0 0 -1
    outer loop
      vertex -17.4345 4.47642 -36
      vertex -2.90575 0.746069 -36
      vertex -2.97634 0.375999 -36
    endloop
  endfacet
  facet normal 0 0 -1
    outer loop
      vertex -0.562143 2.94686 -36
      vertex -3.37286 17.6812 -36
      vertex -1.13023 17.9645 -36
    endloop
  endfacet
  facet normal 0 0 -1
    outer loop
      vertex -17.8581 2.256 -36
      vertex -2.97634 0.375999 -36
      vertex -3 0 -36
    endloop
  endfacet
  facet normal 0 0 -1
    outer loop
      vertex -14.5623 -10.5801 -36
      vertex -2.42705 -1.76336 -36
      vertex -13.1214 -12.3218 -36
    endloop
  endfacet
  facet normal -0 0 -1
    outer loop
      vertex -2.42705 -1.76336 -36
      vertex -14.5623 -10.5801 -36
      vertex -2.62892 -1.44526 -36
    endloop
  endfacet
  facet normal 0 0 -1
    outer loop
      vertex -0.927051 2.85317 -36
      vertex -5.56231 17.119 -36
      vertex -3.37286 17.6812 -36
    endloop
  endfacet
  facet normal 0 0 -1
    outer loop
      vertex -15.7735 -8.67157 -36
      vertex -2.62892 -1.44526 -36
      vertex -14.5623 -10.5801 -36
    endloop
  endfacet
  facet normal 0 0 -1
    outer loop
      vertex -1.27734 2.71448 -36
      vertex -7.66403 16.2869 -36
      vertex -5.56231 17.119 -36
    endloop
  endfacet
  facet normal -0 0 -1
    outer loop
      vertex -2.62892 -1.44526 -36
      vertex -15.7735 -8.67157 -36
      vertex -2.78933 -1.10437 -36
    endloop
  endfacet
  facet normal 0 0 -1
    outer loop
      vertex -1.60748 2.53298 -36
      vertex -9.64488 15.1979 -36
      vertex -7.66403 16.2869 -36
    endloop
  endfacet
  facet normal 0 0 -1
    outer loop
      vertex -16.736 -6.62624 -36
      vertex -2.78933 -1.10437 -36
      vertex -15.7735 -8.67157 -36
    endloop
  endfacet
  facet normal 0 0 -1
    outer loop
      vertex -1.91227 2.31154 -36
      vertex -11.4736 13.8692 -36
      vertex -9.64488 15.1979 -36
    endloop
  endfacet
  facet normal -0 0 -1
    outer loop
      vertex -2.78933 -1.10437 -36
      vertex -16.736 -6.62624 -36
      vertex -2.90575 -0.746069 -36
    endloop
  endfacet
  facet normal 0 0 -1
    outer loop
      vertex -2.18691 2.05364 -36
      vertex -13.1214 12.3218 -36
      vertex -11.4736 13.8692 -36
    endloop
  endfacet
  facet normal 0 0 -1
    outer loop
      vertex -17.4345 -4.47642 -36
      vertex -2.90575 -0.746069 -36
      vertex -16.736 -6.62624 -36
    endloop
  endfacet
  facet normal 0 0 -1
    outer loop
      vertex -2.42705 1.76336 -36
      vertex -14.5623 10.5801 -36
      vertex -13.1214 12.3218 -36
    endloop
  endfacet
  facet normal -0 0 -1
    outer loop
      vertex -2.90575 -0.746069 -36
      vertex -17.4345 -4.47642 -36
      vertex -2.97634 -0.375999 -36
    endloop
  endfacet
  facet normal 0 0 -1
    outer loop
      vertex -2.62892 1.44526 -36
      vertex -15.7735 8.67157 -36
      vertex -14.5623 10.5801 -36
    endloop
  endfacet
  facet normal 0 0 -1
    outer loop
      vertex -17.8581 -2.256 -36
      vertex -2.97634 -0.375999 -36
      vertex -17.4345 -4.47642 -36
    endloop
  endfacet
  facet normal 0 0 -1
    outer loop
      vertex -2.78933 1.10437 -36
      vertex -16.736 6.62624 -36
      vertex -15.7735 8.67157 -36
    endloop
  endfacet
  facet normal -0 0 -1
    outer loop
      vertex -2.97634 -0.375999 -36
      vertex -17.8581 -2.256 -36
      vertex -3 0 -36
    endloop
  endfacet
  facet normal 0 0 -1
    outer loop
      vertex -2.90575 0.746069 -36
      vertex -17.4345 4.47642 -36
      vertex -16.736 6.62624 -36
    endloop
  endfacet
  facet normal 0 0 -1
    outer loop
      vertex -18 0 -36
      vertex -3 0 -36
      vertex -17.8581 -2.256 -36
    endloop
  endfacet
  facet normal 0 0 -1
    outer loop
      vertex -2.97634 0.375999 -36
      vertex -17.8581 2.256 -36
      vertex -17.4345 4.47642 -36
    endloop
  endfacet
  facet normal 0 0 -1
    outer loop
      vertex -3 0 -36
      vertex -18 0 -36
      vertex -17.8581 2.256 -36
    endloop
  endfacet
  facet normal 0.48176 -0.876303 0
    outer loop
      vertex 7.66403 -16.2869 -36
      vertex 9.64488 -15.1979 36
      vertex 7.66403 -16.2869 36
    endloop
  endfacet
  facet normal 0.48176 -0.876303 0
    outer loop
      vertex 9.64488 -15.1979 36
      vertex 7.66403 -16.2869 -36
      vertex 9.64488 -15.1979 -36
    endloop
  endfacet
  facet normal 0.844326 -0.53583 0
    outer loop
      vertex 14.5623 -10.5801 36
      vertex 15.7735 -8.67157 -36
      vertex 15.7735 -8.67157 36
    endloop
  endfacet
  facet normal 0.844326 -0.53583 0
    outer loop
      vertex 15.7735 -8.67157 -36
      vertex 14.5623 -10.5801 36
      vertex 14.5623 -10.5801 -36
    endloop
  endfacet
  facet normal -0.951059 -0.309009 0
    outer loop
      vertex -16.736 -6.62624 -36
      vertex -17.4345 -4.47642 36
      vertex -17.4345 -4.47642 -36
    endloop
  endfacet
  facet normal -0.951059 -0.309009 0
    outer loop
      vertex -17.4345 -4.47642 36
      vertex -16.736 -6.62624 -36
      vertex -16.736 -6.62624 36
    endloop
  endfacet
  facet normal 0.248708 -0.968578 0
    outer loop
      vertex 3.37286 -17.6812 -36
      vertex 5.56231 -17.119 36
      vertex 3.37286 -17.6812 36
    endloop
  endfacet
  facet normal 0.248708 -0.968578 0
    outer loop
      vertex 5.56231 -17.119 36
      vertex 3.37286 -17.6812 -36
      vertex 5.56231 -17.119 -36
    endloop
  endfacet
  facet normal -0.125329 -0.992115 0
    outer loop
      vertex -3.37286 -17.6812 -36
      vertex -1.13023 -17.9645 36
      vertex -3.37286 -17.6812 36
    endloop
  endfacet
  facet normal -0.125329 -0.992115 -0
    outer loop
      vertex -1.13023 -17.9645 36
      vertex -3.37286 -17.6812 -36
      vertex -1.13023 -17.9645 -36
    endloop
  endfacet
  facet normal -0.368113 -0.929781 0
    outer loop
      vertex -7.66403 -16.2869 -36
      vertex -5.56231 -17.119 36
      vertex -7.66403 -16.2869 36
    endloop
  endfacet
  facet normal -0.368113 -0.929781 -0
    outer loop
      vertex -5.56231 -17.119 36
      vertex -7.66403 -16.2869 -36
      vertex -5.56231 -17.119 -36
    endloop
  endfacet
  facet normal -0.248708 -0.968578 0
    outer loop
      vertex -5.56231 -17.119 -36
      vertex -3.37286 -17.6812 36
      vertex -5.56231 -17.119 36
    endloop
  endfacet
  facet normal -0.248708 -0.968578 -0
    outer loop
      vertex -3.37286 -17.6812 36
      vertex -5.56231 -17.119 -36
      vertex -3.37286 -17.6812 -36
    endloop
  endfacet
  facet normal -0.48176 -0.876303 0
    outer loop
      vertex -9.64488 -15.1979 -36
      vertex -7.66403 -16.2869 36
      vertex -9.64488 -15.1979 36
    endloop
  endfacet
  facet normal -0.48176 -0.876303 -0
    outer loop
      vertex -7.66403 -16.2869 36
      vertex -9.64488 -15.1979 -36
      vertex -7.66403 -16.2869 -36
    endloop
  endfacet
  facet normal -0.844326 -0.53583 0
    outer loop
      vertex -14.5623 -10.5801 -36
      vertex -15.7735 -8.67157 36
      vertex -15.7735 -8.67157 -36
    endloop
  endfacet
  facet normal -0.844326 -0.53583 0
    outer loop
      vertex -15.7735 -8.67157 36
      vertex -14.5623 -10.5801 -36
      vertex -14.5623 -10.5801 36
    endloop
  endfacet
  facet normal -0.982285 -0.187395 0
    outer loop
      vertex -17.4345 -4.47642 -36
      vertex -17.8581 -2.256 36
      vertex -17.8581 -2.256 -36
    endloop
  endfacet
  facet normal -0.982285 -0.187395 0
    outer loop
      vertex -17.8581 -2.256 36
      vertex -17.4345 -4.47642 -36
      vertex -17.4345 -4.47642 36
    endloop
  endfacet
  facet normal -0.998028 -0.0627749 0
    outer loop
      vertex -17.8581 -2.256 -36
      vertex -18 0 36
      vertex -18 0 -36
    endloop
  endfacet
  facet normal -0.998028 -0.0627749 0
    outer loop
      vertex -18 0 36
      vertex -17.8581 -2.256 -36
      vertex -17.8581 -2.256 36
    endloop
  endfacet
  facet normal 0.68455 -0.728966 0
    outer loop
      vertex 11.4736 -13.8692 -36
      vertex 13.1214 -12.3218 36
      vertex 11.4736 -13.8692 36
    endloop
  endfacet
  facet normal 0.68455 -0.728966 0
    outer loop
      vertex 13.1214 -12.3218 36
      vertex 11.4736 -13.8692 -36
      vertex 13.1214 -12.3218 -36
    endloop
  endfacet
  facet normal 0.587802 -0.809005 0
    outer loop
      vertex 9.64488 -15.1979 -36
      vertex 11.4736 -13.8692 36
      vertex 9.64488 -15.1979 36
    endloop
  endfacet
  facet normal 0.587802 -0.809005 0
    outer loop
      vertex 11.4736 -13.8692 36
      vertex 9.64488 -15.1979 -36
      vertex 11.4736 -13.8692 -36
    endloop
  endfacet
  facet normal -0.587802 -0.809005 0
    outer loop
      vertex -11.4736 -13.8692 -36
      vertex -9.64488 -15.1979 36
      vertex -11.4736 -13.8692 36
    endloop
  endfacet
  facet normal -0.587802 -0.809005 -0
    outer loop
      vertex -9.64488 -15.1979 36
      vertex -11.4736 -13.8692 -36
      vertex -9.64488 -15.1979 -36
    endloop
  endfacet
  facet normal -0.844331 -0.535822 0
    outer loop
      vertex 2.62892 1.44526 -36
      vertex 2.42705 1.76336 36
      vertex 2.42705 1.76336 -36
    endloop
  endfacet
  facet normal -0.844331 -0.535822 0
    outer loop
      vertex 2.42705 1.76336 36
      vertex 2.62892 1.44526 -36
      vertex 2.62892 1.44526 36
    endloop
  endfacet
  facet normal -0.248684 -0.968585 0
    outer loop
      vertex 0.562143 2.94686 -36
      vertex 0.927051 2.85317 36
      vertex 0.562143 2.94686 36
    endloop
  endfacet
  facet normal -0.248684 -0.968585 -0
    outer loop
      vertex 0.927051 2.85317 36
      vertex 0.562143 2.94686 -36
      vertex 0.927051 2.85317 -36
    endloop
  endfacet
  facet normal -0.368126 -0.929776 0
    outer loop
      vertex 0.927051 2.85317 -36
      vertex 1.27734 2.71448 36
      vertex 0.927051 2.85317 36
    endloop
  endfacet
  facet normal -0.368126 -0.929776 -0
    outer loop
      vertex 1.27734 2.71448 36
      vertex 0.927051 2.85317 -36
      vertex 1.27734 2.71448 -36
    endloop
  endfacet
  facet normal 0.368126 -0.929776 0
    outer loop
      vertex -1.27734 2.71448 -36
      vertex -0.927051 2.85317 36
      vertex -1.27734 2.71448 36
    endloop
  endfacet
  facet normal 0.368126 -0.929776 0
    outer loop
      vertex -0.927051 2.85317 36
      vertex -1.27734 2.71448 -36
      vertex -0.927051 2.85317 -36
    endloop
  endfacet
  facet normal 0.904828 -0.425778 0
    outer loop
      vertex -2.78933 1.10437 36
      vertex -2.62892 1.44526 -36
      vertex -2.62892 1.44526 36
    endloop
  endfacet
  facet normal 0.904828 -0.425778 0
    outer loop
      vertex -2.62892 1.44526 -36
      vertex -2.78933 1.10437 36
      vertex -2.78933 1.10437 -36
    endloop
  endfacet
  facet normal -0.98229 0.187369 0
    outer loop
      vertex 2.90575 -0.746069 -36
      vertex 2.97634 -0.375999 36
      vertex 2.97634 -0.375999 -36
    endloop
  endfacet
  facet normal -0.98229 0.187369 0
    outer loop
      vertex 2.97634 -0.375999 36
      vertex 2.90575 -0.746069 -36
      vertex 2.90575 -0.746069 36
    endloop
  endfacet
  facet normal -0.684541 -0.728974 0
    outer loop
      vertex 1.91227 2.31154 -36
      vertex 2.18691 2.05364 36
      vertex 1.91227 2.31154 36
    endloop
  endfacet
  facet normal -0.684541 -0.728974 -0
    outer loop
      vertex 2.18691 2.05364 36
      vertex 1.91227 2.31154 -36
      vertex 2.18691 2.05364 -36
    endloop
  endfacet
  facet normal -0.58778 -0.809021 0
    outer loop
      vertex 1.60748 2.53298 -36
      vertex 1.91227 2.31154 36
      vertex 1.60748 2.53298 36
    endloop
  endfacet
  facet normal -0.58778 -0.809021 -0
    outer loop
      vertex 1.91227 2.31154 36
      vertex 1.60748 2.53298 -36
      vertex 1.91227 2.31154 -36
    endloop
  endfacet
  facet normal 0.98229 -0.187369 0
    outer loop
      vertex -2.97634 0.375999 36
      vertex -2.90575 0.746069 -36
      vertex -2.90575 0.746069 36
    endloop
  endfacet
  facet normal 0.98229 -0.187369 0
    outer loop
      vertex -2.90575 0.746069 -36
      vertex -2.97634 0.375999 36
      vertex -2.97634 0.375999 -36
    endloop
  endfacet
  facet normal 0.770514 -0.637423 0
    outer loop
      vertex -2.42705 1.76336 36
      vertex -2.18691 2.05364 -36
      vertex -2.18691 2.05364 36
    endloop
  endfacet
  facet normal 0.770514 -0.637423 0
    outer loop
      vertex -2.18691 2.05364 -36
      vertex -2.42705 1.76336 36
      vertex -2.42705 1.76336 -36
    endloop
  endfacet
  facet normal 0.248684 -0.968585 0
    outer loop
      vertex -0.927051 2.85317 -36
      vertex -0.562143 2.94686 36
      vertex -0.927051 2.85317 36
    endloop
  endfacet
  facet normal 0.248684 -0.968585 0
    outer loop
      vertex -0.562143 2.94686 36
      vertex -0.927051 2.85317 -36
      vertex -0.562143 2.94686 -36
    endloop
  endfacet
  facet normal 0.684541 -0.728974 0
    outer loop
      vertex -2.18691 2.05364 -36
      vertex -1.91227 2.31154 36
      vertex -2.18691 2.05364 36
    endloop
  endfacet
  facet normal 0.684541 -0.728974 0
    outer loop
      vertex -1.91227 2.31154 36
      vertex -2.18691 2.05364 -36
      vertex -1.91227 2.31154 -36
    endloop
  endfacet
  facet normal -0.998026 -0.0628015 0
    outer loop
      vertex 3 0 -36
      vertex 2.97634 0.375999 36
      vertex 2.97634 0.375999 -36
    endloop
  endfacet
  facet normal -0.998026 -0.0628015 0
    outer loop
      vertex 2.97634 0.375999 36
      vertex 3 0 -36
      vertex 3 0 36
    endloop
  endfacet
  facet normal -0.770514 -0.637423 0
    outer loop
      vertex 2.42705 1.76336 -36
      vertex 2.18691 2.05364 36
      vertex 2.18691 2.05364 -36
    endloop
  endfacet
  facet normal -0.770514 -0.637423 0
    outer loop
      vertex 2.18691 2.05364 36
      vertex 2.42705 1.76336 -36
      vertex 2.42705 1.76336 36
    endloop
  endfacet
  facet normal 0 -1 0
    outer loop
      vertex -0.188371 2.99408 -36
      vertex 0.188371 2.99408 36
      vertex -0.188371 2.99408 36
    endloop
  endfacet
  facet normal 0 -1 -0
    outer loop
      vertex 0.188371 2.99408 36
      vertex -0.188371 2.99408 -36
      vertex 0.188371 2.99408 -36
    endloop
  endfacet
  facet normal -0.481762 -0.876302 0
    outer loop
      vertex 1.27734 2.71448 -36
      vertex 1.60748 2.53298 36
      vertex 1.27734 2.71448 36
    endloop
  endfacet
  facet normal -0.481762 -0.876302 -0
    outer loop
      vertex 1.60748 2.53298 36
      vertex 1.27734 2.71448 -36
      vertex 1.60748 2.53298 -36
    endloop
  endfacet
  facet normal 0.998026 -0.0628015 0
    outer loop
      vertex -3 0 36
      vertex -2.97634 0.375999 -36
      vertex -2.97634 0.375999 36
    endloop
  endfacet
  facet normal 0.998026 -0.0628015 0
    outer loop
      vertex -2.97634 0.375999 -36
      vertex -3 0 36
      vertex -3 0 -36
    endloop
  endfacet
  facet normal 0.951056 -0.309019 0
    outer loop
      vertex -2.90575 0.746069 36
      vertex -2.78933 1.10437 -36
      vertex -2.78933 1.10437 36
    endloop
  endfacet
  facet normal 0.951056 -0.309019 0
    outer loop
      vertex -2.78933 1.10437 -36
      vertex -2.90575 0.746069 36
      vertex -2.90575 0.746069 -36
    endloop
  endfacet
  facet normal 0.844331 -0.535822 0
    outer loop
      vertex -2.62892 1.44526 36
      vertex -2.42705 1.76336 -36
      vertex -2.42705 1.76336 36
    endloop
  endfacet
  facet normal 0.844331 -0.535822 0
    outer loop
      vertex -2.42705 1.76336 -36
      vertex -2.62892 1.44526 36
      vertex -2.62892 1.44526 -36
    endloop
  endfacet
  facet normal 0.125337 -0.992114 0
    outer loop
      vertex -0.562143 2.94686 -36
      vertex -0.188371 2.99408 36
      vertex -0.562143 2.94686 36
    endloop
  endfacet
  facet normal 0.125337 -0.992114 0
    outer loop
      vertex -0.188371 2.99408 36
      vertex -0.562143 2.94686 -36
      vertex -0.188371 2.99408 -36
    endloop
  endfacet
  facet normal 0.58778 -0.809021 0
    outer loop
      vertex -1.91227 2.31154 -36
      vertex -1.60748 2.53298 36
      vertex -1.91227 2.31154 36
    endloop
  endfacet
  facet normal 0.58778 -0.809021 0
    outer loop
      vertex -1.60748 2.53298 36
      vertex -1.91227 2.31154 -36
      vertex -1.60748 2.53298 -36
    endloop
  endfacet
  facet normal 0.481762 -0.876302 0
    outer loop
      vertex -1.60748 2.53298 -36
      vertex -1.27734 2.71448 36
      vertex -1.60748 2.53298 36
    endloop
  endfacet
  facet normal 0.481762 -0.876302 0
    outer loop
      vertex -1.27734 2.71448 36
      vertex -1.60748 2.53298 -36
      vertex -1.27734 2.71448 -36
    endloop
  endfacet
  facet normal 0 1 -0
    outer loop
      vertex 0.188371 -2.99408 -36
      vertex -0.188371 -2.99408 36
      vertex 0.188371 -2.99408 36
    endloop
  endfacet
  facet normal 0 1 0
    outer loop
      vertex -0.188371 -2.99408 36
      vertex 0.188371 -2.99408 -36
      vertex -0.188371 -2.99408 -36
    endloop
  endfacet
  facet normal 0.844331 0.535822 0
    outer loop
      vertex -2.42705 -1.76336 36
      vertex -2.62892 -1.44526 -36
      vertex -2.62892 -1.44526 36
    endloop
  endfacet
  facet normal 0.844331 0.535822 0
    outer loop
      vertex -2.62892 -1.44526 -36
      vertex -2.42705 -1.76336 36
      vertex -2.42705 -1.76336 -36
    endloop
  endfacet
  facet normal -0.125337 0.992114 0
    outer loop
      vertex 0.562143 -2.94686 -36
      vertex 0.188371 -2.99408 36
      vertex 0.562143 -2.94686 36
    endloop
  endfacet
  facet normal -0.125337 0.992114 0
    outer loop
      vertex 0.188371 -2.99408 36
      vertex 0.562143 -2.94686 -36
      vertex 0.188371 -2.99408 -36
    endloop
  endfacet
  facet normal -0.368126 0.929776 0
    outer loop
      vertex 1.27734 -2.71448 -36
      vertex 0.927051 -2.85317 36
      vertex 1.27734 -2.71448 36
    endloop
  endfacet
  facet normal -0.368126 0.929776 0
    outer loop
      vertex 0.927051 -2.85317 36
      vertex 1.27734 -2.71448 -36
      vertex 0.927051 -2.85317 -36
    endloop
  endfacet
  facet normal -0.904828 -0.425778 0
    outer loop
      vertex 2.78933 1.10437 -36
      vertex 2.62892 1.44526 36
      vertex 2.62892 1.44526 -36
    endloop
  endfacet
  facet normal -0.904828 -0.425778 0
    outer loop
      vertex 2.62892 1.44526 36
      vertex 2.78933 1.10437 -36
      vertex 2.78933 1.10437 36
    endloop
  endfacet
  facet normal -0.951056 -0.309019 0
    outer loop
      vertex 2.90575 0.746069 -36
      vertex 2.78933 1.10437 36
      vertex 2.78933 1.10437 -36
    endloop
  endfacet
  facet normal -0.951056 -0.309019 0
    outer loop
      vertex 2.78933 1.10437 36
      vertex 2.90575 0.746069 -36
      vertex 2.90575 0.746069 36
    endloop
  endfacet
  facet normal -0.98229 -0.187369 0
    outer loop
      vertex 2.97634 0.375999 -36
      vertex 2.90575 0.746069 36
      vertex 2.90575 0.746069 -36
    endloop
  endfacet
  facet normal -0.98229 -0.187369 0
    outer loop
      vertex 2.90575 0.746069 36
      vertex 2.97634 0.375999 -36
      vertex 2.97634 0.375999 36
    endloop
  endfacet
  facet normal -0.125337 -0.992114 0
    outer loop
      vertex 0.188371 2.99408 -36
      vertex 0.562143 2.94686 36
      vertex 0.188371 2.99408 36
    endloop
  endfacet
  facet normal -0.125337 -0.992114 -0
    outer loop
      vertex 0.562143 2.94686 36
      vertex 0.188371 2.99408 -36
      vertex 0.562143 2.94686 -36
    endloop
  endfacet
  facet normal -0.998026 0.0628015 0
    outer loop
      vertex 2.97634 -0.375999 -36
      vertex 3 0 36
      vertex 3 0 -36
    endloop
  endfacet
  facet normal -0.998026 0.0628015 0
    outer loop
      vertex 3 0 36
      vertex 2.97634 -0.375999 -36
      vertex 2.97634 -0.375999 36
    endloop
  endfacet
  facet normal -0.904828 0.425778 0
    outer loop
      vertex 2.62892 -1.44526 -36
      vertex 2.78933 -1.10437 36
      vertex 2.78933 -1.10437 -36
    endloop
  endfacet
  facet normal -0.904828 0.425778 0
    outer loop
      vertex 2.78933 -1.10437 36
      vertex 2.62892 -1.44526 -36
      vertex 2.62892 -1.44526 36
    endloop
  endfacet
  facet normal -0.951056 0.309019 0
    outer loop
      vertex 2.78933 -1.10437 -36
      vertex 2.90575 -0.746069 36
      vertex 2.90575 -0.746069 -36
    endloop
  endfacet
  facet normal -0.951056 0.309019 0
    outer loop
      vertex 2.90575 -0.746069 36
      vertex 2.78933 -1.10437 -36
      vertex 2.78933 -1.10437 36
    endloop
  endfacet
  facet normal -0.684541 0.728974 0
    outer loop
      vertex 2.18691 -2.05364 -36
      vertex 1.91227 -2.31154 36
      vertex 2.18691 -2.05364 36
    endloop
  endfacet
  facet normal -0.684541 0.728974 0
    outer loop
      vertex 1.91227 -2.31154 36
      vertex 2.18691 -2.05364 -36
      vertex 1.91227 -2.31154 -36
    endloop
  endfacet
  facet normal -0.770514 0.637423 0
    outer loop
      vertex 2.18691 -2.05364 -36
      vertex 2.42705 -1.76336 36
      vertex 2.42705 -1.76336 -36
    endloop
  endfacet
  facet normal -0.770514 0.637423 0
    outer loop
      vertex 2.42705 -1.76336 36
      vertex 2.18691 -2.05364 -36
      vertex 2.18691 -2.05364 36
    endloop
  endfacet
  facet normal -0.844331 0.535822 0
    outer loop
      vertex 2.42705 -1.76336 -36
      vertex 2.62892 -1.44526 36
      vertex 2.62892 -1.44526 -36
    endloop
  endfacet
  facet normal -0.844331 0.535822 0
    outer loop
      vertex 2.62892 -1.44526 36
      vertex 2.42705 -1.76336 -36
      vertex 2.42705 -1.76336 36
    endloop
  endfacet
  facet normal 0.368126 0.929776 -0
    outer loop
      vertex -0.927051 -2.85317 -36
      vertex -1.27734 -2.71448 36
      vertex -0.927051 -2.85317 36
    endloop
  endfacet
  facet normal 0.368126 0.929776 0
    outer loop
      vertex -1.27734 -2.71448 36
      vertex -0.927051 -2.85317 -36
      vertex -1.27734 -2.71448 -36
    endloop
  endfacet
  facet normal 0.998026 0.0628015 0
    outer loop
      vertex -2.97634 -0.375999 36
      vertex -3 0 -36
      vertex -3 0 36
    endloop
  endfacet
  facet normal 0.998026 0.0628015 0
    outer loop
      vertex -3 0 -36
      vertex -2.97634 -0.375999 36
      vertex -2.97634 -0.375999 -36
    endloop
  endfacet
  facet normal 0.904828 0.425778 0
    outer loop
      vertex -2.62892 -1.44526 36
      vertex -2.78933 -1.10437 -36
      vertex -2.78933 -1.10437 36
    endloop
  endfacet
  facet normal 0.904828 0.425778 0
    outer loop
      vertex -2.78933 -1.10437 -36
      vertex -2.62892 -1.44526 36
      vertex -2.62892 -1.44526 -36
    endloop
  endfacet
  facet normal 0.684541 0.728974 -0
    outer loop
      vertex -1.91227 -2.31154 -36
      vertex -2.18691 -2.05364 36
      vertex -1.91227 -2.31154 36
    endloop
  endfacet
  facet normal 0.684541 0.728974 0
    outer loop
      vertex -2.18691 -2.05364 36
      vertex -1.91227 -2.31154 -36
      vertex -2.18691 -2.05364 -36
    endloop
  endfacet
  facet normal -0.248684 0.968585 0
    outer loop
      vertex 0.927051 -2.85317 -36
      vertex 0.562143 -2.94686 36
      vertex 0.927051 -2.85317 36
    endloop
  endfacet
  facet normal -0.248684 0.968585 0
    outer loop
      vertex 0.562143 -2.94686 36
      vertex 0.927051 -2.85317 -36
      vertex 0.562143 -2.94686 -36
    endloop
  endfacet
  facet normal -0.58778 0.809021 0
    outer loop
      vertex 1.91227 -2.31154 -36
      vertex 1.60748 -2.53298 36
      vertex 1.91227 -2.31154 36
    endloop
  endfacet
  facet normal -0.58778 0.809021 0
    outer loop
      vertex 1.60748 -2.53298 36
      vertex 1.91227 -2.31154 -36
      vertex 1.60748 -2.53298 -36
    endloop
  endfacet
  facet normal -0.481762 0.876302 0
    outer loop
      vertex 1.60748 -2.53298 -36
      vertex 1.27734 -2.71448 36
      vertex 1.60748 -2.53298 36
    endloop
  endfacet
  facet normal -0.481762 0.876302 0
    outer loop
      vertex 1.27734 -2.71448 36
      vertex 1.60748 -2.53298 -36
      vertex 1.27734 -2.71448 -36
    endloop
  endfacet
  facet normal 0.58778 0.809021 -0
    outer loop
      vertex -1.60748 -2.53298 -36
      vertex -1.91227 -2.31154 36
      vertex -1.60748 -2.53298 36
    endloop
  endfacet
  facet normal 0.58778 0.809021 0
    outer loop
      vertex -1.91227 -2.31154 36
      vertex -1.60748 -2.53298 -36
      vertex -1.91227 -2.31154 -36
    endloop
  endfacet
  facet normal 0.248684 0.968585 -0
    outer loop
      vertex -0.562143 -2.94686 -36
      vertex -0.927051 -2.85317 36
      vertex -0.562143 -2.94686 36
    endloop
  endfacet
  facet normal 0.248684 0.968585 0
    outer loop
      vertex -0.927051 -2.85317 36
      vertex -0.562143 -2.94686 -36
      vertex -0.927051 -2.85317 -36
    endloop
  endfacet
  facet normal 0.481762 0.876302 -0
    outer loop
      vertex -1.27734 -2.71448 -36
      vertex -1.60748 -2.53298 36
      vertex -1.27734 -2.71448 36
    endloop
  endfacet
  facet normal 0.481762 0.876302 0
    outer loop
      vertex -1.60748 -2.53298 36
      vertex -1.27734 -2.71448 -36
      vertex -1.60748 -2.53298 -36
    endloop
  endfacet
  facet normal 0.125337 0.992114 -0
    outer loop
      vertex -0.188371 -2.99408 -36
      vertex -0.562143 -2.94686 36
      vertex -0.188371 -2.99408 36
    endloop
  endfacet
  facet normal 0.125337 0.992114 0
    outer loop
      vertex -0.562143 -2.94686 36
      vertex -0.188371 -2.99408 -36
      vertex -0.562143 -2.94686 -36
    endloop
  endfacet
  facet normal 0.951056 0.309019 0
    outer loop
      vertex -2.78933 -1.10437 36
      vertex -2.90575 -0.746069 -36
      vertex -2.90575 -0.746069 36
    endloop
  endfacet
  facet normal 0.951056 0.309019 0
    outer loop
      vertex -2.90575 -0.746069 -36
      vertex -2.78933 -1.10437 36
      vertex -2.78933 -1.10437 -36
    endloop
  endfacet
  facet normal 0.98229 0.187369 0
    outer loop
      vertex -2.90575 -0.746069 36
      vertex -2.97634 -0.375999 -36
      vertex -2.97634 -0.375999 36
    endloop
  endfacet
  facet normal 0.98229 0.187369 0
    outer loop
      vertex -2.97634 -0.375999 -36
      vertex -2.90575 -0.746069 36
      vertex -2.90575 -0.746069 -36
    endloop
  endfacet
  facet normal 0.770514 0.637423 0
    outer loop
      vertex -2.18691 -2.05364 36
      vertex -2.42705 -1.76336 -36
      vertex -2.42705 -1.76336 36
    endloop
  endfacet
  facet normal 0.770514 0.637423 0
    outer loop
      vertex -2.42705 -1.76336 -36
      vertex -2.18691 -2.05364 36
      vertex -2.18691 -2.05364 -36
    endloop
  endfacet
endsolid OpenSCAD_Model
