solid OpenSCAD_Model
  facet normal 0.998027 0.0627882 0
    outer loop
      vertex 6 0 25
      vertex 5.95269 0.751999 -25
      vertex 5.95269 0.751999 25
    endloop
  endfacet
  facet normal 0.998027 0.0627882 0
    outer loop
      vertex 5.95269 0.751999 -25
      vertex 6 0 25
      vertex 6 0 -25
    endloop
  endfacet
  facet normal -0.998027 0.0627882 0
    outer loop
      vertex -6 0 -25
      vertex -5.95269 0.751999 25
      vertex -5.95269 0.751999 -25
    endloop
  endfacet
  facet normal -0.998027 0.0627882 0
    outer loop
      vertex -5.95269 0.751999 25
      vertex -6 0 -25
      vertex -6 0 25
    endloop
  endfacet
  facet normal 0 1 -0
    outer loop
      vertex 0.376742 5.98816 -25
      vertex -0.376742 5.98816 25
      vertex 0.376742 5.98816 25
    endloop
  endfacet
  facet normal 0 1 0
    outer loop
      vertex -0.376742 5.98816 25
      vertex 0.376742 5.98816 -25
      vertex -0.376742 5.98816 -25
    endloop
  endfacet
  facet normal 0.684548 0.728968 -0
    outer loop
      vertex 4.37381 4.10728 -25
      vertex 3.82454 4.62308 25
      vertex 4.37381 4.10728 25
    endloop
  endfacet
  facet normal 0.684548 0.728968 0
    outer loop
      vertex 3.82454 4.62308 25
      vertex 4.37381 4.10728 -25
      vertex 3.82454 4.62308 -25
    endloop
  endfacet
  facet normal -0.684548 0.728968 0
    outer loop
      vertex -3.82454 4.62308 -25
      vertex -4.37381 4.10728 25
      vertex -3.82454 4.62308 25
    endloop
  endfacet
  facet normal -0.684548 0.728968 0
    outer loop
      vertex -4.37381 4.10728 25
      vertex -3.82454 4.62308 -25
      vertex -4.37381 4.10728 -25
    endloop
  endfacet
  facet normal -0.368125 0.929776 0
    outer loop
      vertex -1.8541 5.70634 -25
      vertex -2.55468 5.42896 25
      vertex -1.8541 5.70634 25
    endloop
  endfacet
  facet normal -0.368125 0.929776 0
    outer loop
      vertex -2.55468 5.42896 25
      vertex -1.8541 5.70634 -25
      vertex -2.55468 5.42896 -25
    endloop
  endfacet
  facet normal 0.904825 0.425783 0
    outer loop
      vertex 5.57866 2.20875 25
      vertex 5.25784 2.89052 -25
      vertex 5.25784 2.89052 25
    endloop
  endfacet
  facet normal 0.904825 0.425783 0
    outer loop
      vertex 5.25784 2.89052 -25
      vertex 5.57866 2.20875 25
      vertex 5.57866 2.20875 -25
    endloop
  endfacet
  facet normal 0.982287 0.187382 0
    outer loop
      vertex 5.95269 0.751999 25
      vertex 5.8115 1.49214 -25
      vertex 5.8115 1.49214 25
    endloop
  endfacet
  facet normal 0.982287 0.187382 0
    outer loop
      vertex 5.8115 1.49214 -25
      vertex 5.95269 0.751999 25
      vertex 5.95269 0.751999 -25
    endloop
  endfacet
  facet normal 0.368125 0.929776 -0
    outer loop
      vertex 2.55468 5.42896 -25
      vertex 1.8541 5.70634 25
      vertex 2.55468 5.42896 25
    endloop
  endfacet
  facet normal 0.368125 0.929776 0
    outer loop
      vertex 1.8541 5.70634 25
      vertex 2.55468 5.42896 -25
      vertex 1.8541 5.70634 -25
    endloop
  endfacet
  facet normal 0.248686 0.968584 -0
    outer loop
      vertex 1.8541 5.70634 -25
      vertex 1.12429 5.89372 25
      vertex 1.8541 5.70634 25
    endloop
  endfacet
  facet normal 0.248686 0.968584 0
    outer loop
      vertex 1.12429 5.89372 25
      vertex 1.8541 5.70634 -25
      vertex 1.12429 5.89372 -25
    endloop
  endfacet
  facet normal 0.587789 0.809014 -0
    outer loop
      vertex 3.82454 4.62308 -25
      vertex 3.21496 5.06597 25
      vertex 3.82454 4.62308 25
    endloop
  endfacet
  facet normal 0.587789 0.809014 0
    outer loop
      vertex 3.21496 5.06597 25
      vertex 3.82454 4.62308 -25
      vertex 3.21496 5.06597 -25
    endloop
  endfacet
  facet normal -0.904825 0.425783 0
    outer loop
      vertex -5.57866 2.20875 -25
      vertex -5.25784 2.89052 25
      vertex -5.25784 2.89052 -25
    endloop
  endfacet
  facet normal -0.904825 0.425783 0
    outer loop
      vertex -5.25784 2.89052 25
      vertex -5.57866 2.20875 -25
      vertex -5.57866 2.20875 25
    endloop
  endfacet
  facet normal -0.844327 0.535828 0
    outer loop
      vertex -5.25784 2.89052 -25
      vertex -4.8541 3.52671 25
      vertex -4.8541 3.52671 -25
    endloop
  endfacet
  facet normal -0.844327 0.535828 0
    outer loop
      vertex -4.8541 3.52671 25
      vertex -5.25784 2.89052 -25
      vertex -5.25784 2.89052 25
    endloop
  endfacet
  facet normal -0.951057 0.309016 0
    outer loop
      vertex -5.8115 1.49214 -25
      vertex -5.57866 2.20875 25
      vertex -5.57866 2.20875 -25
    endloop
  endfacet
  facet normal -0.951057 0.309016 0
    outer loop
      vertex -5.57866 2.20875 25
      vertex -5.8115 1.49214 -25
      vertex -5.8115 1.49214 25
    endloop
  endfacet
  facet normal -0.587789 0.809014 0
    outer loop
      vertex -3.21496 5.06597 -25
      vertex -3.82454 4.62308 25
      vertex -3.21496 5.06597 25
    endloop
  endfacet
  facet normal -0.587789 0.809014 0
    outer loop
      vertex -3.82454 4.62308 25
      vertex -3.21496 5.06597 -25
      vertex -3.82454 4.62308 -25
    endloop
  endfacet
  facet normal -0.125337 0.992114 0
    outer loop
      vertex -0.376742 5.98816 -25
      vertex -1.12429 5.89372 25
      vertex -0.376742 5.98816 25
    endloop
  endfacet
  facet normal -0.125337 0.992114 0
    outer loop
      vertex -1.12429 5.89372 25
      vertex -0.376742 5.98816 -25
      vertex -1.12429 5.89372 -25
    endloop
  endfacet
  facet normal 0.998027 -0.0627882 0
    outer loop
      vertex 5.95269 -0.751999 25
      vertex 6 0 -25
      vertex 6 0 25
    endloop
  endfacet
  facet normal 0.998027 -0.0627882 0
    outer loop
      vertex 6 0 -25
      vertex 5.95269 -0.751999 25
      vertex 5.95269 -0.751999 -25
    endloop
  endfacet
  facet normal -0.248686 -0.968584 0
    outer loop
      vertex -1.8541 -5.70634 -25
      vertex -1.12429 -5.89372 25
      vertex -1.8541 -5.70634 25
    endloop
  endfacet
  facet normal -0.248686 -0.968584 -0
    outer loop
      vertex -1.12429 -5.89372 25
      vertex -1.8541 -5.70634 -25
      vertex -1.12429 -5.89372 -25
    endloop
  endfacet
  facet normal 0.125337 -0.992114 0
    outer loop
      vertex 0.376742 -5.98816 -25
      vertex 1.12429 -5.89372 25
      vertex 0.376742 -5.98816 25
    endloop
  endfacet
  facet normal 0.125337 -0.992114 0
    outer loop
      vertex 1.12429 -5.89372 25
      vertex 0.376742 -5.98816 -25
      vertex 1.12429 -5.89372 -25
    endloop
  endfacet
  facet normal 0.951057 0.309016 0
    outer loop
      vertex 5.8115 1.49214 25
      vertex 5.57866 2.20875 -25
      vertex 5.57866 2.20875 25
    endloop
  endfacet
  facet normal 0.951057 0.309016 0
    outer loop
      vertex 5.57866 2.20875 -25
      vertex 5.8115 1.49214 25
      vertex 5.8115 1.49214 -25
    endloop
  endfacet
  facet normal 0.770513 0.637425 0
    outer loop
      vertex 4.8541 3.52671 25
      vertex 4.37381 4.10728 -25
      vertex 4.37381 4.10728 25
    endloop
  endfacet
  facet normal 0.770513 0.637425 0
    outer loop
      vertex 4.37381 4.10728 -25
      vertex 4.8541 3.52671 25
      vertex 4.8541 3.52671 -25
    endloop
  endfacet
  facet normal 0.844327 0.535828 0
    outer loop
      vertex 5.25784 2.89052 25
      vertex 4.8541 3.52671 -25
      vertex 4.8541 3.52671 25
    endloop
  endfacet
  facet normal 0.844327 0.535828 0
    outer loop
      vertex 4.8541 3.52671 -25
      vertex 5.25784 2.89052 25
      vertex 5.25784 2.89052 -25
    endloop
  endfacet
  facet normal 0.125337 0.992114 -0
    outer loop
      vertex 1.12429 5.89372 -25
      vertex 0.376742 5.98816 25
      vertex 1.12429 5.89372 25
    endloop
  endfacet
  facet normal 0.125337 0.992114 0
    outer loop
      vertex 0.376742 5.98816 25
      vertex 1.12429 5.89372 -25
      vertex 0.376742 5.98816 -25
    endloop
  endfacet
  facet normal 0.481752 0.876308 -0
    outer loop
      vertex 3.21496 5.06597 -25
      vertex 2.55468 5.42896 25
      vertex 3.21496 5.06597 25
    endloop
  endfacet
  facet normal 0.481752 0.876308 0
    outer loop
      vertex 2.55468 5.42896 25
      vertex 3.21496 5.06597 -25
      vertex 2.55468 5.42896 -25
    endloop
  endfacet
  facet normal 0.951057 -0.309016 0
    outer loop
      vertex 5.57866 -2.20875 25
      vertex 5.8115 -1.49214 -25
      vertex 5.8115 -1.49214 25
    endloop
  endfacet
  facet normal 0.951057 -0.309016 0
    outer loop
      vertex 5.8115 -1.49214 -25
      vertex 5.57866 -2.20875 25
      vertex 5.57866 -2.20875 -25
    endloop
  endfacet
  facet normal 0.982287 -0.187382 0
    outer loop
      vertex 5.8115 -1.49214 25
      vertex 5.95269 -0.751999 -25
      vertex 5.95269 -0.751999 25
    endloop
  endfacet
  facet normal 0.982287 -0.187382 0
    outer loop
      vertex 5.95269 -0.751999 -25
      vertex 5.8115 -1.49214 25
      vertex 5.8115 -1.49214 -25
    endloop
  endfacet
  facet normal -0.125337 -0.992114 0
    outer loop
      vertex -1.12429 -5.89372 -25
      vertex -0.376742 -5.98816 25
      vertex -1.12429 -5.89372 25
    endloop
  endfacet
  facet normal -0.125337 -0.992114 -0
    outer loop
      vertex -0.376742 -5.98816 25
      vertex -1.12429 -5.89372 -25
      vertex -0.376742 -5.98816 -25
    endloop
  endfacet
  facet normal -0.904825 -0.425783 0
    outer loop
      vertex -5.25784 -2.89052 -25
      vertex -5.57866 -2.20875 25
      vertex -5.57866 -2.20875 -25
    endloop
  endfacet
  facet normal -0.904825 -0.425783 0
    outer loop
      vertex -5.57866 -2.20875 25
      vertex -5.25784 -2.89052 -25
      vertex -5.25784 -2.89052 25
    endloop
  endfacet
  facet normal -0.951057 -0.309016 0
    outer loop
      vertex -5.57866 -2.20875 -25
      vertex -5.8115 -1.49214 25
      vertex -5.8115 -1.49214 -25
    endloop
  endfacet
  facet normal -0.951057 -0.309016 0
    outer loop
      vertex -5.8115 -1.49214 25
      vertex -5.57866 -2.20875 -25
      vertex -5.57866 -2.20875 25
    endloop
  endfacet
  facet normal 0.368125 -0.929776 0
    outer loop
      vertex 1.8541 -5.70634 -25
      vertex 2.55468 -5.42896 25
      vertex 1.8541 -5.70634 25
    endloop
  endfacet
  facet normal 0.368125 -0.929776 0
    outer loop
      vertex 2.55468 -5.42896 25
      vertex 1.8541 -5.70634 -25
      vertex 2.55468 -5.42896 -25
    endloop
  endfacet
  facet normal 0.248686 -0.968584 0
    outer loop
      vertex 1.12429 -5.89372 -25
      vertex 1.8541 -5.70634 25
      vertex 1.12429 -5.89372 25
    endloop
  endfacet
  facet normal 0.248686 -0.968584 0
    outer loop
      vertex 1.8541 -5.70634 25
      vertex 1.12429 -5.89372 -25
      vertex 1.8541 -5.70634 -25
    endloop
  endfacet
  facet normal -0.770513 0.637425 0
    outer loop
      vertex -4.8541 3.52671 -25
      vertex -4.37381 4.10728 25
      vertex -4.37381 4.10728 -25
    endloop
  endfacet
  facet normal -0.770513 0.637425 0
    outer loop
      vertex -4.37381 4.10728 25
      vertex -4.8541 3.52671 -25
      vertex -4.8541 3.52671 25
    endloop
  endfacet
  facet normal 0 0 1
    outer loop
      vertex 1 0 25
      vertex 6 0 25
      vertex 5.95269 0.751999 25
    endloop
  endfacet
  facet normal 0 0 1
    outer loop
      vertex 0.992114 0.125333 25
      vertex 5.95269 0.751999 25
      vertex 5.8115 1.49214 25
    endloop
  endfacet
  facet normal 0 0 1
    outer loop
      vertex 6 0 25
      vertex 1 0 25
      vertex 5.95269 -0.751999 25
    endloop
  endfacet
  facet normal 0 0 1
    outer loop
      vertex 0.968583 0.24869 25
      vertex 5.8115 1.49214 25
      vertex 5.57866 2.20875 25
    endloop
  endfacet
  facet normal -0 0 1
    outer loop
      vertex 0.992114 -0.125333 25
      vertex 5.95269 -0.751999 25
      vertex 1 0 25
    endloop
  endfacet
  facet normal 0 0 1
    outer loop
      vertex 0.929776 0.368124 25
      vertex 5.57866 2.20875 25
      vertex 5.25784 2.89052 25
    endloop
  endfacet
  facet normal 0 0 1
    outer loop
      vertex 5.95269 -0.751999 25
      vertex 0.992114 -0.125333 25
      vertex 5.8115 -1.49214 25
    endloop
  endfacet
  facet normal 0 0 1
    outer loop
      vertex 0.876307 0.481753 25
      vertex 5.25784 2.89052 25
      vertex 4.8541 3.52671 25
    endloop
  endfacet
  facet normal -0 0 1
    outer loop
      vertex 0.968583 -0.24869 25
      vertex 5.8115 -1.49214 25
      vertex 0.992114 -0.125333 25
    endloop
  endfacet
  facet normal 0 0 1
    outer loop
      vertex 0.809016 0.587785 25
      vertex 4.8541 3.52671 25
      vertex 4.37381 4.10728 25
    endloop
  endfacet
  facet normal 0 0 1
    outer loop
      vertex 5.8115 -1.49214 25
      vertex 0.968583 -0.24869 25
      vertex 5.57866 -2.20875 25
    endloop
  endfacet
  facet normal 0 0 1
    outer loop
      vertex 0.728969 0.684546 25
      vertex 4.37381 4.10728 25
      vertex 3.82454 4.62308 25
    endloop
  endfacet
  facet normal -0 0 1
    outer loop
      vertex 0.929776 -0.368124 25
      vertex 5.57866 -2.20875 25
      vertex 0.968583 -0.24869 25
    endloop
  endfacet
  facet normal 0 0 1
    outer loop
      vertex 0.637424 0.770513 25
      vertex 3.82454 4.62308 25
      vertex 3.21496 5.06597 25
    endloop
  endfacet
  facet normal 0 0 1
    outer loop
      vertex 5.57866 -2.20875 25
      vertex 0.929776 -0.368124 25
      vertex 5.25784 -2.89052 25
    endloop
  endfacet
  facet normal 0 0 1
    outer loop
      vertex 0.535827 0.844327 25
      vertex 3.21496 5.06597 25
      vertex 2.55468 5.42896 25
    endloop
  endfacet
  facet normal -0 0 1
    outer loop
      vertex 0.876307 -0.481753 25
      vertex 5.25784 -2.89052 25
      vertex 0.929776 -0.368124 25
    endloop
  endfacet
  facet normal 0 0 1
    outer loop
      vertex 0.425778 0.904826 25
      vertex 2.55468 5.42896 25
      vertex 1.8541 5.70634 25
    endloop
  endfacet
  facet normal 0 0 1
    outer loop
      vertex 5.25784 -2.89052 25
      vertex 0.876307 -0.481753 25
      vertex 4.8541 -3.52671 25
    endloop
  endfacet
  facet normal 0 0 1
    outer loop
      vertex 0.309016 0.951056 25
      vertex 1.8541 5.70634 25
      vertex 1.12429 5.89372 25
    endloop
  endfacet
  facet normal -0 0 1
    outer loop
      vertex 0.809016 -0.587785 25
      vertex 4.8541 -3.52671 25
      vertex 0.876307 -0.481753 25
    endloop
  endfacet
  facet normal 0 0 1
    outer loop
      vertex 4.8541 -3.52671 25
      vertex 0.809016 -0.587785 25
      vertex 4.37381 -4.10728 25
    endloop
  endfacet
  facet normal 0 0 1
    outer loop
      vertex 5.95269 0.751999 25
      vertex 0.992114 0.125333 25
      vertex 1 0 25
    endloop
  endfacet
  facet normal 0 0 1
    outer loop
      vertex 5.8115 1.49214 25
      vertex 0.968583 0.24869 25
      vertex 0.992114 0.125333 25
    endloop
  endfacet
  facet normal 0 0 1
    outer loop
      vertex 5.57866 2.20875 25
      vertex 0.929776 0.368124 25
      vertex 0.968583 0.24869 25
    endloop
  endfacet
  facet normal 0 0 1
    outer loop
      vertex 5.25784 2.89052 25
      vertex 0.876307 0.481753 25
      vertex 0.929776 0.368124 25
    endloop
  endfacet
  facet normal 0 0 1
    outer loop
      vertex 4.8541 3.52671 25
      vertex 0.809016 0.587785 25
      vertex 0.876307 0.481753 25
    endloop
  endfacet
  facet normal 0 0 1
    outer loop
      vertex 4.37381 4.10728 25
      vertex 0.728969 0.684546 25
      vertex 0.809016 0.587785 25
    endloop
  endfacet
  facet normal 0 0 1
    outer loop
      vertex 3.82454 4.62308 25
      vertex 0.637424 0.770513 25
      vertex 0.728969 0.684546 25
    endloop
  endfacet
  facet normal 0 0 1
    outer loop
      vertex 3.21496 5.06597 25
      vertex 0.535827 0.844327 25
      vertex 0.637424 0.770513 25
    endloop
  endfacet
  facet normal 0 0 1
    outer loop
      vertex 2.55468 5.42896 25
      vertex 0.425778 0.904826 25
      vertex 0.535827 0.844327 25
    endloop
  endfacet
  facet normal 0 0 1
    outer loop
      vertex 0.187381 0.982286 25
      vertex 1.12429 5.89372 25
      vertex 0.376742 5.98816 25
    endloop
  endfacet
  facet normal 0 0 1
    outer loop
      vertex 1.8541 5.70634 25
      vertex 0.309016 0.951056 25
      vertex 0.425778 0.904826 25
    endloop
  endfacet
  facet normal 0 0 1
    outer loop
      vertex 1.12429 5.89372 25
      vertex 0.187381 0.982286 25
      vertex 0.309016 0.951056 25
    endloop
  endfacet
  facet normal 0 0 1
    outer loop
      vertex 0.376742 5.98816 25
      vertex 0.0627899 0.998026 25
      vertex 0.187381 0.982286 25
    endloop
  endfacet
  facet normal 0 0 1
    outer loop
      vertex 0.376742 5.98816 25
      vertex -0.0627899 0.998026 25
      vertex 0.0627899 0.998026 25
    endloop
  endfacet
  facet normal -0 0 1
    outer loop
      vertex -0.376742 5.98816 25
      vertex -0.0627899 0.998026 25
      vertex 0.376742 5.98816 25
    endloop
  endfacet
  facet normal 0 0 1
    outer loop
      vertex -0.0627899 0.998026 25
      vertex -0.376742 5.98816 25
      vertex -0.187381 0.982286 25
    endloop
  endfacet
  facet normal -0 0 1
    outer loop
      vertex -1.12429 5.89372 25
      vertex -0.187381 0.982286 25
      vertex -0.376742 5.98816 25
    endloop
  endfacet
  facet normal 0 0 1
    outer loop
      vertex -0.187381 0.982286 25
      vertex -1.12429 5.89372 25
      vertex -0.309016 0.951056 25
    endloop
  endfacet
  facet normal -0 0 1
    outer loop
      vertex -1.8541 5.70634 25
      vertex -0.309016 0.951056 25
      vertex -1.12429 5.89372 25
    endloop
  endfacet
  facet normal 0 0 1
    outer loop
      vertex -0.309016 0.951056 25
      vertex -1.8541 5.70634 25
      vertex -0.425778 0.904826 25
    endloop
  endfacet
  facet normal -0 0 1
    outer loop
      vertex -2.55468 5.42896 25
      vertex -0.425778 0.904826 25
      vertex -1.8541 5.70634 25
    endloop
  endfacet
  facet normal 0 0 1
    outer loop
      vertex -0.425778 0.904826 25
      vertex -2.55468 5.42896 25
      vertex -0.535827 0.844327 25
    endloop
  endfacet
  facet normal -0 0 1
    outer loop
      vertex -3.21496 5.06597 25
      vertex -0.535827 0.844327 25
      vertex -2.55468 5.42896 25
    endloop
  endfacet
  facet normal 0 0 1
    outer loop
      vertex -0.535827 0.844327 25
      vertex -3.21496 5.06597 25
      vertex -0.637424 0.770513 25
    endloop
  endfacet
  facet normal -0 0 1
    outer loop
      vertex -3.82454 4.62308 25
      vertex -0.637424 0.770513 25
      vertex -3.21496 5.06597 25
    endloop
  endfacet
  facet normal 0 0 1
    outer loop
      vertex -0.637424 0.770513 25
      vertex -3.82454 4.62308 25
      vertex -0.728969 0.684546 25
    endloop
  endfacet
  facet normal 0 0 1
    outer loop
      vertex -0.728969 0.684546 25
      vertex -4.37381 4.10728 25
      vertex -0.809016 0.587785 25
    endloop
  endfacet
  facet normal -0 0 1
    outer loop
      vertex -4.37381 4.10728 25
      vertex -0.728969 0.684546 25
      vertex -3.82454 4.62308 25
    endloop
  endfacet
  facet normal -0 0 1
    outer loop
      vertex 0.728969 -0.684546 25
      vertex 4.37381 -4.10728 25
      vertex 0.809016 -0.587785 25
    endloop
  endfacet
  facet normal 0 0 1
    outer loop
      vertex 4.37381 -4.10728 25
      vertex 0.728969 -0.684546 25
      vertex 3.82454 -4.62308 25
    endloop
  endfacet
  facet normal -0 0 1
    outer loop
      vertex 0.637424 -0.770513 25
      vertex 3.82454 -4.62308 25
      vertex 0.728969 -0.684546 25
    endloop
  endfacet
  facet normal 0 0 1
    outer loop
      vertex 3.82454 -4.62308 25
      vertex 0.637424 -0.770513 25
      vertex 3.21496 -5.06597 25
    endloop
  endfacet
  facet normal -0 0 1
    outer loop
      vertex 0.535827 -0.844327 25
      vertex 3.21496 -5.06597 25
      vertex 0.637424 -0.770513 25
    endloop
  endfacet
  facet normal 0 0 1
    outer loop
      vertex 3.21496 -5.06597 25
      vertex 0.535827 -0.844327 25
      vertex 2.55468 -5.42896 25
    endloop
  endfacet
  facet normal -0 0 1
    outer loop
      vertex 0.425778 -0.904826 25
      vertex 2.55468 -5.42896 25
      vertex 0.535827 -0.844327 25
    endloop
  endfacet
  facet normal 0 0 1
    outer loop
      vertex 2.55468 -5.42896 25
      vertex 0.425778 -0.904826 25
      vertex 1.8541 -5.70634 25
    endloop
  endfacet
  facet normal -0 0 1
    outer loop
      vertex 0.309016 -0.951056 25
      vertex 1.8541 -5.70634 25
      vertex 0.425778 -0.904826 25
    endloop
  endfacet
  facet normal 0 0 1
    outer loop
      vertex 1.8541 -5.70634 25
      vertex 0.309016 -0.951056 25
      vertex 1.12429 -5.89372 25
    endloop
  endfacet
  facet normal -0 0 1
    outer loop
      vertex 0.187381 -0.982286 25
      vertex 1.12429 -5.89372 25
      vertex 0.309016 -0.951056 25
    endloop
  endfacet
  facet normal 0 0 1
    outer loop
      vertex 1.12429 -5.89372 25
      vertex 0.187381 -0.982286 25
      vertex 0.376742 -5.98816 25
    endloop
  endfacet
  facet normal -0 0 1
    outer loop
      vertex 0.0627899 -0.998026 25
      vertex 0.376742 -5.98816 25
      vertex 0.187381 -0.982286 25
    endloop
  endfacet
  facet normal -0 0 1
    outer loop
      vertex -0.0627899 -0.998026 25
      vertex 0.376742 -5.98816 25
      vertex 0.0627899 -0.998026 25
    endloop
  endfacet
  facet normal 0 0 1
    outer loop
      vertex -0.376742 -5.98816 25
      vertex -0.0627899 -0.998026 25
      vertex -0.187381 -0.982286 25
    endloop
  endfacet
  facet normal 0 0 1
    outer loop
      vertex -1.12429 -5.89372 25
      vertex -0.187381 -0.982286 25
      vertex -0.309016 -0.951056 25
    endloop
  endfacet
  facet normal 0 0 1
    outer loop
      vertex -0.0627899 -0.998026 25
      vertex -0.376742 -5.98816 25
      vertex 0.376742 -5.98816 25
    endloop
  endfacet
  facet normal 0 0 1
    outer loop
      vertex -1.8541 -5.70634 25
      vertex -0.309016 -0.951056 25
      vertex -0.425778 -0.904826 25
    endloop
  endfacet
  facet normal 0 0 1
    outer loop
      vertex -2.55468 -5.42896 25
      vertex -0.425778 -0.904826 25
      vertex -0.535827 -0.844327 25
    endloop
  endfacet
  facet normal 0 0 1
    outer loop
      vertex -3.21496 -5.06597 25
      vertex -0.535827 -0.844327 25
      vertex -0.637424 -0.770513 25
    endloop
  endfacet
  facet normal 0 0 1
    outer loop
      vertex -3.82454 -4.62308 25
      vertex -0.637424 -0.770513 25
      vertex -0.728969 -0.684546 25
    endloop
  endfacet
  facet normal 0 0 1
    outer loop
      vertex -4.37381 -4.10728 25
      vertex -0.728969 -0.684546 25
      vertex -0.809016 -0.587785 25
    endloop
  endfacet
  facet normal 0 0 1
    outer loop
      vertex -4.8541 -3.52671 25
      vertex -0.809016 -0.587785 25
      vertex -0.876307 -0.481753 25
    endloop
  endfacet
  facet normal 0 0 1
    outer loop
      vertex -5.25784 -2.89052 25
      vertex -0.876307 -0.481753 25
      vertex -0.929776 -0.368124 25
    endloop
  endfacet
  facet normal 0 0 1
    outer loop
      vertex -5.57866 -2.20875 25
      vertex -0.929776 -0.368124 25
      vertex -0.968583 -0.24869 25
    endloop
  endfacet
  facet normal 0 0 1
    outer loop
      vertex -5.8115 -1.49214 25
      vertex -0.968583 -0.24869 25
      vertex -0.992114 -0.125333 25
    endloop
  endfacet
  facet normal 0 0 1
    outer loop
      vertex -0.187381 -0.982286 25
      vertex -1.12429 -5.89372 25
      vertex -0.376742 -5.98816 25
    endloop
  endfacet
  facet normal 0 0 1
    outer loop
      vertex -5.95269 -0.751999 25
      vertex -0.992114 -0.125333 25
      vertex -1 0 25
    endloop
  endfacet
  facet normal -0 0 1
    outer loop
      vertex -4.8541 3.52671 25
      vertex -0.809016 0.587785 25
      vertex -4.37381 4.10728 25
    endloop
  endfacet
  facet normal 0 0 1
    outer loop
      vertex -0.809016 0.587785 25
      vertex -4.8541 3.52671 25
      vertex -0.876307 0.481753 25
    endloop
  endfacet
  facet normal 0 0 1
    outer loop
      vertex -0.309016 -0.951056 25
      vertex -1.8541 -5.70634 25
      vertex -1.12429 -5.89372 25
    endloop
  endfacet
  facet normal -0 0 1
    outer loop
      vertex -5.25784 2.89052 25
      vertex -0.876307 0.481753 25
      vertex -4.8541 3.52671 25
    endloop
  endfacet
  facet normal 0 0 1
    outer loop
      vertex -0.425778 -0.904826 25
      vertex -2.55468 -5.42896 25
      vertex -1.8541 -5.70634 25
    endloop
  endfacet
  facet normal 0 0 1
    outer loop
      vertex -0.876307 0.481753 25
      vertex -5.25784 2.89052 25
      vertex -0.929776 0.368124 25
    endloop
  endfacet
  facet normal 0 0 1
    outer loop
      vertex -0.535827 -0.844327 25
      vertex -3.21496 -5.06597 25
      vertex -2.55468 -5.42896 25
    endloop
  endfacet
  facet normal -0 0 1
    outer loop
      vertex -5.57866 2.20875 25
      vertex -0.929776 0.368124 25
      vertex -5.25784 2.89052 25
    endloop
  endfacet
  facet normal 0 0 1
    outer loop
      vertex -0.637424 -0.770513 25
      vertex -3.82454 -4.62308 25
      vertex -3.21496 -5.06597 25
    endloop
  endfacet
  facet normal 0 0 1
    outer loop
      vertex -0.929776 0.368124 25
      vertex -5.57866 2.20875 25
      vertex -0.968583 0.24869 25
    endloop
  endfacet
  facet normal 0 0 1
    outer loop
      vertex -0.728969 -0.684546 25
      vertex -4.37381 -4.10728 25
      vertex -3.82454 -4.62308 25
    endloop
  endfacet
  facet normal -0 0 1
    outer loop
      vertex -5.8115 1.49214 25
      vertex -0.968583 0.24869 25
      vertex -5.57866 2.20875 25
    endloop
  endfacet
  facet normal 0 0 1
    outer loop
      vertex -0.809016 -0.587785 25
      vertex -4.8541 -3.52671 25
      vertex -4.37381 -4.10728 25
    endloop
  endfacet
  facet normal 0 0 1
    outer loop
      vertex -0.968583 0.24869 25
      vertex -5.8115 1.49214 25
      vertex -0.992114 0.125333 25
    endloop
  endfacet
  facet normal 0 0 1
    outer loop
      vertex -0.876307 -0.481753 25
      vertex -5.25784 -2.89052 25
      vertex -4.8541 -3.52671 25
    endloop
  endfacet
  facet normal -0 0 1
    outer loop
      vertex -5.95269 0.751999 25
      vertex -0.992114 0.125333 25
      vertex -5.8115 1.49214 25
    endloop
  endfacet
  facet normal 0 0 1
    outer loop
      vertex -0.929776 -0.368124 25
      vertex -5.57866 -2.20875 25
      vertex -5.25784 -2.89052 25
    endloop
  endfacet
  facet normal 0 0 1
    outer loop
      vertex -0.992114 0.125333 25
      vertex -5.95269 0.751999 25
      vertex -1 0 25
    endloop
  endfacet
  facet normal 0 0 1
    outer loop
      vertex -0.968583 -0.24869 25
      vertex -5.8115 -1.49214 25
      vertex -5.57866 -2.20875 25
    endloop
  endfacet
  facet normal 0 0 1
    outer loop
      vertex -6 0 25
      vertex -1 0 25
      vertex -5.95269 0.751999 25
    endloop
  endfacet
  facet normal 0 0 1
    outer loop
      vertex -0.992114 -0.125333 25
      vertex -5.95269 -0.751999 25
      vertex -5.8115 -1.49214 25
    endloop
  endfacet
  facet normal 0 0 1
    outer loop
      vertex -1 0 25
      vertex -6 0 25
      vertex -5.95269 -0.751999 25
    endloop
  endfacet
  facet normal -0.982287 0.187382 0
    outer loop
      vertex -5.95269 0.751999 -25
      vertex -5.8115 1.49214 25
      vertex -5.8115 1.49214 -25
    endloop
  endfacet
  facet normal -0.982287 0.187382 0
    outer loop
      vertex -5.8115 1.49214 25
      vertex -5.95269 0.751999 -25
      vertex -5.95269 0.751999 25
    endloop
  endfacet
  facet normal -0.481752 0.876308 0
    outer loop
      vertex -2.55468 5.42896 -25
      vertex -3.21496 5.06597 25
      vertex -2.55468 5.42896 25
    endloop
  endfacet
  facet normal -0.481752 0.876308 0
    outer loop
      vertex -3.21496 5.06597 25
      vertex -2.55468 5.42896 -25
      vertex -3.21496 5.06597 -25
    endloop
  endfacet
  facet normal -0.248686 0.968584 0
    outer loop
      vertex -1.12429 5.89372 -25
      vertex -1.8541 5.70634 25
      vertex -1.12429 5.89372 25
    endloop
  endfacet
  facet normal -0.248686 0.968584 0
    outer loop
      vertex -1.8541 5.70634 25
      vertex -1.12429 5.89372 -25
      vertex -1.8541 5.70634 -25
    endloop
  endfacet
  facet normal 0.481752 -0.876308 0
    outer loop
      vertex 2.55468 -5.42896 -25
      vertex 3.21496 -5.06597 25
      vertex 2.55468 -5.42896 25
    endloop
  endfacet
  facet normal 0.481752 -0.876308 0
    outer loop
      vertex 3.21496 -5.06597 25
      vertex 2.55468 -5.42896 -25
      vertex 3.21496 -5.06597 -25
    endloop
  endfacet
  facet normal 0.684548 -0.728968 0
    outer loop
      vertex 3.82454 -4.62308 -25
      vertex 4.37381 -4.10728 25
      vertex 3.82454 -4.62308 25
    endloop
  endfacet
  facet normal 0.684548 -0.728968 0
    outer loop
      vertex 4.37381 -4.10728 25
      vertex 3.82454 -4.62308 -25
      vertex 4.37381 -4.10728 -25
    endloop
  endfacet
  facet normal 0.904825 -0.425783 0
    outer loop
      vertex 5.25784 -2.89052 25
      vertex 5.57866 -2.20875 -25
      vertex 5.57866 -2.20875 25
    endloop
  endfacet
  facet normal 0.904825 -0.425783 0
    outer loop
      vertex 5.57866 -2.20875 -25
      vertex 5.25784 -2.89052 25
      vertex 5.25784 -2.89052 -25
    endloop
  endfacet
  facet normal 0.770513 -0.637425 0
    outer loop
      vertex 4.37381 -4.10728 25
      vertex 4.8541 -3.52671 -25
      vertex 4.8541 -3.52671 25
    endloop
  endfacet
  facet normal 0.770513 -0.637425 0
    outer loop
      vertex 4.8541 -3.52671 -25
      vertex 4.37381 -4.10728 25
      vertex 4.37381 -4.10728 -25
    endloop
  endfacet
  facet normal -0.368125 -0.929776 0
    outer loop
      vertex -2.55468 -5.42896 -25
      vertex -1.8541 -5.70634 25
      vertex -2.55468 -5.42896 25
    endloop
  endfacet
  facet normal -0.368125 -0.929776 -0
    outer loop
      vertex -1.8541 -5.70634 25
      vertex -2.55468 -5.42896 -25
      vertex -1.8541 -5.70634 -25
    endloop
  endfacet
  facet normal -0.998027 -0.0627882 0
    outer loop
      vertex -5.95269 -0.751999 -25
      vertex -6 0 25
      vertex -6 0 -25
    endloop
  endfacet
  facet normal -0.998027 -0.0627882 0
    outer loop
      vertex -6 0 25
      vertex -5.95269 -0.751999 -25
      vertex -5.95269 -0.751999 25
    endloop
  endfacet
  facet normal 0.587789 -0.809014 0
    outer loop
      vertex 3.21496 -5.06597 -25
      vertex 3.82454 -4.62308 25
      vertex 3.21496 -5.06597 25
    endloop
  endfacet
  facet normal 0.587789 -0.809014 0
    outer loop
      vertex 3.82454 -4.62308 25
      vertex 3.21496 -5.06597 -25
      vertex 3.82454 -4.62308 -25
    endloop
  endfacet
  facet normal 0.844327 -0.535828 0
    outer loop
      vertex 4.8541 -3.52671 25
      vertex 5.25784 -2.89052 -25
      vertex 5.25784 -2.89052 25
    endloop
  endfacet
  facet normal 0.844327 -0.535828 0
    outer loop
      vertex 5.25784 -2.89052 -25
      vertex 4.8541 -3.52671 25
      vertex 4.8541 -3.52671 -25
    endloop
  endfacet
  facet normal 0 -1 0
    outer loop
      vertex -0.376742 -5.98816 -25
      vertex 0.376742 -5.98816 25
      vertex -0.376742 -5.98816 25
    endloop
  endfacet
  facet normal 0 -1 -0
    outer loop
      vertex 0.376742 -5.98816 25
      vertex -0.376742 -5.98816 -25
      vertex 0.376742 -5.98816 -25
    endloop
  endfacet
  facet normal -0.684548 -0.728968 0
    outer loop
      vertex -4.37381 -4.10728 -25
      vertex -3.82454 -4.62308 25
      vertex -4.37381 -4.10728 25
    endloop
  endfacet
  facet normal -0.684548 -0.728968 -0
    outer loop
      vertex -3.82454 -4.62308 25
      vertex -4.37381 -4.10728 -25
      vertex -3.82454 -4.62308 -25
    endloop
  endfacet
  facet normal -0.770513 -0.637425 0
    outer loop
      vertex -4.37381 -4.10728 -25
      vertex -4.8541 -3.52671 25
      vertex -4.8541 -3.52671 -25
    endloop
  endfacet
  facet normal -0.770513 -0.637425 0
    outer loop
      vertex -4.8541 -3.52671 25
      vertex -4.37381 -4.10728 -25
      vertex -4.37381 -4.10728 25
    endloop
  endfacet
  facet normal -0.844327 -0.535828 0
    outer loop
      vertex -4.8541 -3.52671 -25
      vertex -5.25784 -2.89052 25
      vertex -5.25784 -2.89052 -25
    endloop
  endfacet
  facet normal -0.844327 -0.535828 0
    outer loop
      vertex -5.25784 -2.89052 25
      vertex -4.8541 -3.52671 -25
      vertex -4.8541 -3.52671 25
    endloop
  endfacet
  facet normal 0 0 -1
    outer loop
      vertex 1 0 -25
      vertex 6 0 -25
      vertex 5.95269 -0.751999 -25
    endloop
  endfacet
  facet normal 0 0 -1
    outer loop
      vertex 0.992114 -0.125333 -25
      vertex 5.95269 -0.751999 -25
      vertex 5.8115 -1.49214 -25
    endloop
  endfacet
  facet normal 0 0 -1
    outer loop
      vertex 6 0 -25
      vertex 1 0 -25
      vertex 5.95269 0.751999 -25
    endloop
  endfacet
  facet normal 0 0 -1
    outer loop
      vertex 0.968583 -0.24869 -25
      vertex 5.8115 -1.49214 -25
      vertex 5.57866 -2.20875 -25
    endloop
  endfacet
  facet normal 0 0 -1
    outer loop
      vertex 0.992114 0.125333 -25
      vertex 5.95269 0.751999 -25
      vertex 1 0 -25
    endloop
  endfacet
  facet normal 0 0 -1
    outer loop
      vertex 0.929776 -0.368124 -25
      vertex 5.57866 -2.20875 -25
      vertex 5.25784 -2.89052 -25
    endloop
  endfacet
  facet normal -0 0 -1
    outer loop
      vertex 5.95269 0.751999 -25
      vertex 0.992114 0.125333 -25
      vertex 5.8115 1.49214 -25
    endloop
  endfacet
  facet normal 0 0 -1
    outer loop
      vertex 0.876307 -0.481753 -25
      vertex 5.25784 -2.89052 -25
      vertex 4.8541 -3.52671 -25
    endloop
  endfacet
  facet normal 0 0 -1
    outer loop
      vertex 0.968583 0.24869 -25
      vertex 5.8115 1.49214 -25
      vertex 0.992114 0.125333 -25
    endloop
  endfacet
  facet normal 0 0 -1
    outer loop
      vertex 0.809016 -0.587785 -25
      vertex 4.8541 -3.52671 -25
      vertex 4.37381 -4.10728 -25
    endloop
  endfacet
  facet normal -0 0 -1
    outer loop
      vertex 5.8115 1.49214 -25
      vertex 0.968583 0.24869 -25
      vertex 5.57866 2.20875 -25
    endloop
  endfacet
  facet normal 0 0 -1
    outer loop
      vertex 0.728969 -0.684546 -25
      vertex 4.37381 -4.10728 -25
      vertex 3.82454 -4.62308 -25
    endloop
  endfacet
  facet normal 0 0 -1
    outer loop
      vertex 0.929776 0.368124 -25
      vertex 5.57866 2.20875 -25
      vertex 0.968583 0.24869 -25
    endloop
  endfacet
  facet normal 0 0 -1
    outer loop
      vertex 0.637424 -0.770513 -25
      vertex 3.82454 -4.62308 -25
      vertex 3.21496 -5.06597 -25
    endloop
  endfacet
  facet normal -0 0 -1
    outer loop
      vertex 5.57866 2.20875 -25
      vertex 0.929776 0.368124 -25
      vertex 5.25784 2.89052 -25
    endloop
  endfacet
  facet normal 0 0 -1
    outer loop
      vertex 0.535827 -0.844327 -25
      vertex 3.21496 -5.06597 -25
      vertex 2.55468 -5.42896 -25
    endloop
  endfacet
  facet normal 0 0 -1
    outer loop
      vertex 0.876307 0.481753 -25
      vertex 5.25784 2.89052 -25
      vertex 0.929776 0.368124 -25
    endloop
  endfacet
  facet normal 0 0 -1
    outer loop
      vertex 0.425778 -0.904826 -25
      vertex 2.55468 -5.42896 -25
      vertex 1.8541 -5.70634 -25
    endloop
  endfacet
  facet normal -0 0 -1
    outer loop
      vertex 5.25784 2.89052 -25
      vertex 0.876307 0.481753 -25
      vertex 4.8541 3.52671 -25
    endloop
  endfacet
  facet normal 0 0 -1
    outer loop
      vertex 0.309016 -0.951056 -25
      vertex 1.8541 -5.70634 -25
      vertex 1.12429 -5.89372 -25
    endloop
  endfacet
  facet normal 0 0 -1
    outer loop
      vertex 0.809016 0.587785 -25
      vertex 4.8541 3.52671 -25
      vertex 0.876307 0.481753 -25
    endloop
  endfacet
  facet normal -0 0 -1
    outer loop
      vertex 4.8541 3.52671 -25
      vertex 0.809016 0.587785 -25
      vertex 4.37381 4.10728 -25
    endloop
  endfacet
  facet normal 0 0 -1
    outer loop
      vertex 5.95269 -0.751999 -25
      vertex 0.992114 -0.125333 -25
      vertex 1 0 -25
    endloop
  endfacet
  facet normal 0 0 -1
    outer loop
      vertex 5.8115 -1.49214 -25
      vertex 0.968583 -0.24869 -25
      vertex 0.992114 -0.125333 -25
    endloop
  endfacet
  facet normal 0 0 -1
    outer loop
      vertex 5.57866 -2.20875 -25
      vertex 0.929776 -0.368124 -25
      vertex 0.968583 -0.24869 -25
    endloop
  endfacet
  facet normal 0 0 -1
    outer loop
      vertex 5.25784 -2.89052 -25
      vertex 0.876307 -0.481753 -25
      vertex 0.929776 -0.368124 -25
    endloop
  endfacet
  facet normal 0 0 -1
    outer loop
      vertex 4.8541 -3.52671 -25
      vertex 0.809016 -0.587785 -25
      vertex 0.876307 -0.481753 -25
    endloop
  endfacet
  facet normal 0 0 -1
    outer loop
      vertex 4.37381 -4.10728 -25
      vertex 0.728969 -0.684546 -25
      vertex 0.809016 -0.587785 -25
    endloop
  endfacet
  facet normal 0 0 -1
    outer loop
      vertex 3.82454 -4.62308 -25
      vertex 0.637424 -0.770513 -25
      vertex 0.728969 -0.684546 -25
    endloop
  endfacet
  facet normal 0 0 -1
    outer loop
      vertex 3.21496 -5.06597 -25
      vertex 0.535827 -0.844327 -25
      vertex 0.637424 -0.770513 -25
    endloop
  endfacet
  facet normal 0 0 -1
    outer loop
      vertex 2.55468 -5.42896 -25
      vertex 0.425778 -0.904826 -25
      vertex 0.535827 -0.844327 -25
    endloop
  endfacet
  facet normal 0 0 -1
    outer loop
      vertex 0.187381 -0.982286 -25
      vertex 1.12429 -5.89372 -25
      vertex 0.376742 -5.98816 -25
    endloop
  endfacet
  facet normal 0 0 -1
    outer loop
      vertex 1.8541 -5.70634 -25
      vertex 0.309016 -0.951056 -25
      vertex 0.425778 -0.904826 -25
    endloop
  endfacet
  facet normal 0 0 -1
    outer loop
      vertex 1.12429 -5.89372 -25
      vertex 0.187381 -0.982286 -25
      vertex 0.309016 -0.951056 -25
    endloop
  endfacet
  facet normal 0 0 -1
    outer loop
      vertex 0.376742 -5.98816 -25
      vertex 0.0627899 -0.998026 -25
      vertex 0.187381 -0.982286 -25
    endloop
  endfacet
  facet normal 0 0 -1
    outer loop
      vertex 0.376742 -5.98816 -25
      vertex -0.0627899 -0.998026 -25
      vertex 0.0627899 -0.998026 -25
    endloop
  endfacet
  facet normal 0 0 -1
    outer loop
      vertex -0.376742 -5.98816 -25
      vertex -0.0627899 -0.998026 -25
      vertex 0.376742 -5.98816 -25
    endloop
  endfacet
  facet normal -0 0 -1
    outer loop
      vertex -0.0627899 -0.998026 -25
      vertex -0.376742 -5.98816 -25
      vertex -0.187381 -0.982286 -25
    endloop
  endfacet
  facet normal 0 0 -1
    outer loop
      vertex -1.12429 -5.89372 -25
      vertex -0.187381 -0.982286 -25
      vertex -0.376742 -5.98816 -25
    endloop
  endfacet
  facet normal -0 0 -1
    outer loop
      vertex -0.187381 -0.982286 -25
      vertex -1.12429 -5.89372 -25
      vertex -0.309016 -0.951056 -25
    endloop
  endfacet
  facet normal 0 0 -1
    outer loop
      vertex -1.8541 -5.70634 -25
      vertex -0.309016 -0.951056 -25
      vertex -1.12429 -5.89372 -25
    endloop
  endfacet
  facet normal -0 0 -1
    outer loop
      vertex -0.309016 -0.951056 -25
      vertex -1.8541 -5.70634 -25
      vertex -0.425778 -0.904826 -25
    endloop
  endfacet
  facet normal 0 0 -1
    outer loop
      vertex -2.55468 -5.42896 -25
      vertex -0.425778 -0.904826 -25
      vertex -1.8541 -5.70634 -25
    endloop
  endfacet
  facet normal -0 0 -1
    outer loop
      vertex -0.425778 -0.904826 -25
      vertex -2.55468 -5.42896 -25
      vertex -0.535827 -0.844327 -25
    endloop
  endfacet
  facet normal 0 0 -1
    outer loop
      vertex -3.21496 -5.06597 -25
      vertex -0.535827 -0.844327 -25
      vertex -2.55468 -5.42896 -25
    endloop
  endfacet
  facet normal -0 0 -1
    outer loop
      vertex -0.535827 -0.844327 -25
      vertex -3.21496 -5.06597 -25
      vertex -0.637424 -0.770513 -25
    endloop
  endfacet
  facet normal 0 0 -1
    outer loop
      vertex -3.82454 -4.62308 -25
      vertex -0.637424 -0.770513 -25
      vertex -3.21496 -5.06597 -25
    endloop
  endfacet
  facet normal -0 0 -1
    outer loop
      vertex -0.637424 -0.770513 -25
      vertex -3.82454 -4.62308 -25
      vertex -0.728969 -0.684546 -25
    endloop
  endfacet
  facet normal -0 0 -1
    outer loop
      vertex -0.728969 -0.684546 -25
      vertex -4.37381 -4.10728 -25
      vertex -0.809016 -0.587785 -25
    endloop
  endfacet
  facet normal 0 0 -1
    outer loop
      vertex -4.37381 -4.10728 -25
      vertex -0.728969 -0.684546 -25
      vertex -3.82454 -4.62308 -25
    endloop
  endfacet
  facet normal 0 0 -1
    outer loop
      vertex 0.728969 0.684546 -25
      vertex 4.37381 4.10728 -25
      vertex 0.809016 0.587785 -25
    endloop
  endfacet
  facet normal -0 0 -1
    outer loop
      vertex 4.37381 4.10728 -25
      vertex 0.728969 0.684546 -25
      vertex 3.82454 4.62308 -25
    endloop
  endfacet
  facet normal 0 0 -1
    outer loop
      vertex 0.637424 0.770513 -25
      vertex 3.82454 4.62308 -25
      vertex 0.728969 0.684546 -25
    endloop
  endfacet
  facet normal -0 0 -1
    outer loop
      vertex 3.82454 4.62308 -25
      vertex 0.637424 0.770513 -25
      vertex 3.21496 5.06597 -25
    endloop
  endfacet
  facet normal 0 0 -1
    outer loop
      vertex 0.535827 0.844327 -25
      vertex 3.21496 5.06597 -25
      vertex 0.637424 0.770513 -25
    endloop
  endfacet
  facet normal -0 0 -1
    outer loop
      vertex 3.21496 5.06597 -25
      vertex 0.535827 0.844327 -25
      vertex 2.55468 5.42896 -25
    endloop
  endfacet
  facet normal 0 0 -1
    outer loop
      vertex 0.425778 0.904826 -25
      vertex 2.55468 5.42896 -25
      vertex 0.535827 0.844327 -25
    endloop
  endfacet
  facet normal -0 0 -1
    outer loop
      vertex 2.55468 5.42896 -25
      vertex 0.425778 0.904826 -25
      vertex 1.8541 5.70634 -25
    endloop
  endfacet
  facet normal 0 0 -1
    outer loop
      vertex 0.309016 0.951056 -25
      vertex 1.8541 5.70634 -25
      vertex 0.425778 0.904826 -25
    endloop
  endfacet
  facet normal -0 0 -1
    outer loop
      vertex 1.8541 5.70634 -25
      vertex 0.309016 0.951056 -25
      vertex 1.12429 5.89372 -25
    endloop
  endfacet
  facet normal 0 0 -1
    outer loop
      vertex 0.187381 0.982286 -25
      vertex 1.12429 5.89372 -25
      vertex 0.309016 0.951056 -25
    endloop
  endfacet
  facet normal -0 0 -1
    outer loop
      vertex 1.12429 5.89372 -25
      vertex 0.187381 0.982286 -25
      vertex 0.376742 5.98816 -25
    endloop
  endfacet
  facet normal 0 0 -1
    outer loop
      vertex 0.0627899 0.998026 -25
      vertex 0.376742 5.98816 -25
      vertex 0.187381 0.982286 -25
    endloop
  endfacet
  facet normal 0 0 -1
    outer loop
      vertex -0.0627899 0.998026 -25
      vertex 0.376742 5.98816 -25
      vertex 0.0627899 0.998026 -25
    endloop
  endfacet
  facet normal 0 0 -1
    outer loop
      vertex -0.376742 5.98816 -25
      vertex -0.0627899 0.998026 -25
      vertex -0.187381 0.982286 -25
    endloop
  endfacet
  facet normal 0 0 -1
    outer loop
      vertex -1.12429 5.89372 -25
      vertex -0.187381 0.982286 -25
      vertex -0.309016 0.951056 -25
    endloop
  endfacet
  facet normal 0 0 -1
    outer loop
      vertex -0.0627899 0.998026 -25
      vertex -0.376742 5.98816 -25
      vertex 0.376742 5.98816 -25
    endloop
  endfacet
  facet normal 0 0 -1
    outer loop
      vertex -1.8541 5.70634 -25
      vertex -0.309016 0.951056 -25
      vertex -0.425778 0.904826 -25
    endloop
  endfacet
  facet normal 0 0 -1
    outer loop
      vertex -2.55468 5.42896 -25
      vertex -0.425778 0.904826 -25
      vertex -0.535827 0.844327 -25
    endloop
  endfacet
  facet normal 0 0 -1
    outer loop
      vertex -3.21496 5.06597 -25
      vertex -0.535827 0.844327 -25
      vertex -0.637424 0.770513 -25
    endloop
  endfacet
  facet normal 0 0 -1
    outer loop
      vertex -3.82454 4.62308 -25
      vertex -0.637424 0.770513 -25
      vertex -0.728969 0.684546 -25
    endloop
  endfacet
  facet normal 0 0 -1
    outer loop
      vertex -4.37381 4.10728 -25
      vertex -0.728969 0.684546 -25
      vertex -0.809016 0.587785 -25
    endloop
  endfacet
  facet normal 0 0 -1
    outer loop
      vertex -4.8541 3.52671 -25
      vertex -0.809016 0.587785 -25
      vertex -0.876307 0.481753 -25
    endloop
  endfacet
  facet normal 0 0 -1
    outer loop
      vertex -5.25784 2.89052 -25
      vertex -0.876307 0.481753 -25
      vertex -0.929776 0.368124 -25
    endloop
  endfacet
  facet normal 0 0 -1
    outer loop
      vertex -5.57866 2.20875 -25
      vertex -0.929776 0.368124 -25
      vertex -0.968583 0.24869 -25
    endloop
  endfacet
  facet normal 0 0 -1
    outer loop
      vertex -5.8115 1.49214 -25
      vertex -0.968583 0.24869 -25
      vertex -0.992114 0.125333 -25
    endloop
  endfacet
  facet normal 0 0 -1
    outer loop
      vertex -0.187381 0.982286 -25
      vertex -1.12429 5.89372 -25
      vertex -0.376742 5.98816 -25
    endloop
  endfacet
  facet normal 0 0 -1
    outer loop
      vertex -5.95269 0.751999 -25
      vertex -0.992114 0.125333 -25
      vertex -1 0 -25
    endloop
  endfacet
  facet normal 0 0 -1
    outer loop
      vertex -4.8541 -3.52671 -25
      vertex -0.809016 -0.587785 -25
      vertex -4.37381 -4.10728 -25
    endloop
  endfacet
  facet normal -0 0 -1
    outer loop
      vertex -0.809016 -0.587785 -25
      vertex -4.8541 -3.52671 -25
      vertex -0.876307 -0.481753 -25
    endloop
  endfacet
  facet normal 0 0 -1
    outer loop
      vertex -0.309016 0.951056 -25
      vertex -1.8541 5.70634 -25
      vertex -1.12429 5.89372 -25
    endloop
  endfacet
  facet normal 0 0 -1
    outer loop
      vertex -5.25784 -2.89052 -25
      vertex -0.876307 -0.481753 -25
      vertex -4.8541 -3.52671 -25
    endloop
  endfacet
  facet normal 0 0 -1
    outer loop
      vertex -0.425778 0.904826 -25
      vertex -2.55468 5.42896 -25
      vertex -1.8541 5.70634 -25
    endloop
  endfacet
  facet normal -0 0 -1
    outer loop
      vertex -0.876307 -0.481753 -25
      vertex -5.25784 -2.89052 -25
      vertex -0.929776 -0.368124 -25
    endloop
  endfacet
  facet normal 0 0 -1
    outer loop
      vertex -0.535827 0.844327 -25
      vertex -3.21496 5.06597 -25
      vertex -2.55468 5.42896 -25
    endloop
  endfacet
  facet normal 0 0 -1
    outer loop
      vertex -5.57866 -2.20875 -25
      vertex -0.929776 -0.368124 -25
      vertex -5.25784 -2.89052 -25
    endloop
  endfacet
  facet normal 0 0 -1
    outer loop
      vertex -0.637424 0.770513 -25
      vertex -3.82454 4.62308 -25
      vertex -3.21496 5.06597 -25
    endloop
  endfacet
  facet normal -0 0 -1
    outer loop
      vertex -0.929776 -0.368124 -25
      vertex -5.57866 -2.20875 -25
      vertex -0.968583 -0.24869 -25
    endloop
  endfacet
  facet normal 0 0 -1
    outer loop
      vertex -0.728969 0.684546 -25
      vertex -4.37381 4.10728 -25
      vertex -3.82454 4.62308 -25
    endloop
  endfacet
  facet normal 0 0 -1
    outer loop
      vertex -5.8115 -1.49214 -25
      vertex -0.968583 -0.24869 -25
      vertex -5.57866 -2.20875 -25
    endloop
  endfacet
  facet normal 0 0 -1
    outer loop
      vertex -0.809016 0.587785 -25
      vertex -4.8541 3.52671 -25
      vertex -4.37381 4.10728 -25
    endloop
  endfacet
  facet normal -0 0 -1
    outer loop
      vertex -0.968583 -0.24869 -25
      vertex -5.8115 -1.49214 -25
      vertex -0.992114 -0.125333 -25
    endloop
  endfacet
  facet normal 0 0 -1
    outer loop
      vertex -0.876307 0.481753 -25
      vertex -5.25784 2.89052 -25
      vertex -4.8541 3.52671 -25
    endloop
  endfacet
  facet normal 0 0 -1
    outer loop
      vertex -5.95269 -0.751999 -25
      vertex -0.992114 -0.125333 -25
      vertex -5.8115 -1.49214 -25
    endloop
  endfacet
  facet normal 0 0 -1
    outer loop
      vertex -0.929776 0.368124 -25
      vertex -5.57866 2.20875 -25
      vertex -5.25784 2.89052 -25
    endloop
  endfacet
  facet normal -0 0 -1
    outer loop
      vertex -0.992114 -0.125333 -25
      vertex -5.95269 -0.751999 -25
      vertex -1 0 -25
    endloop
  endfacet
  facet normal 0 0 -1
    outer loop
      vertex -0.968583 0.24869 -25
      vertex -5.8115 1.49214 -25
      vertex -5.57866 2.20875 -25
    endloop
  endfacet
  facet normal 0 0 -1
    outer loop
      vertex -6 0 -25
      vertex -1 0 -25
      vertex -5.95269 -0.751999 -25
    endloop
  endfacet
  facet normal 0 0 -1
    outer loop
      vertex -0.992114 0.125333 -25
      vertex -5.95269 0.751999 -25
      vertex -5.8115 1.49214 -25
    endloop
  endfacet
  facet normal 0 0 -1
    outer loop
      vertex -1 0 -25
      vertex -6 0 -25
      vertex -5.95269 0.751999 -25
    endloop
  endfacet
  facet normal -0.982287 -0.187382 0
    outer loop
      vertex -5.8115 -1.49214 -25
      vertex -5.95269 -0.751999 25
      vertex -5.95269 -0.751999 -25
    endloop
  endfacet
  facet normal -0.982287 -0.187382 0
    outer loop
      vertex -5.95269 -0.751999 25
      vertex -5.8115 -1.49214 -25
      vertex -5.8115 -1.49214 25
    endloop
  endfacet
  facet normal -0.481752 -0.876308 0
    outer loop
      vertex -3.21496 -5.06597 -25
      vertex -2.55468 -5.42896 25
      vertex -3.21496 -5.06597 25
    endloop
  endfacet
  facet normal -0.481752 -0.876308 -0
    outer loop
      vertex -2.55468 -5.42896 25
      vertex -3.21496 -5.06597 -25
      vertex -2.55468 -5.42896 -25
    endloop
  endfacet
  facet normal -0.587789 -0.809014 0
    outer loop
      vertex -3.82454 -4.62308 -25
      vertex -3.21496 -5.06597 25
      vertex -3.82454 -4.62308 25
    endloop
  endfacet
  facet normal -0.587789 -0.809014 -0
    outer loop
      vertex -3.21496 -5.06597 25
      vertex -3.82454 -4.62308 -25
      vertex -3.21496 -5.06597 -25
    endloop
  endfacet
  facet normal -0.998026 -0.0627962 0
    outer loop
      vertex 1 0 -25
      vertex 0.992114 0.125333 25
      vertex 0.992114 0.125333 -25
    endloop
  endfacet
  facet normal -0.998026 -0.0627962 0
    outer loop
      vertex 0.992114 0.125333 25
      vertex 1 0 -25
      vertex 1 0 25
    endloop
  endfacet
  facet normal 0.998026 -0.0627962 0
    outer loop
      vertex -1 0 25
      vertex -0.992114 0.125333 -25
      vertex -0.992114 0.125333 25
    endloop
  endfacet
  facet normal 0.998026 -0.0627962 0
    outer loop
      vertex -0.992114 0.125333 -25
      vertex -1 0 25
      vertex -1 0 -25
    endloop
  endfacet
  facet normal 0 -1 0
    outer loop
      vertex -0.0627899 0.998026 -25
      vertex 0.0627899 0.998026 25
      vertex -0.0627899 0.998026 25
    endloop
  endfacet
  facet normal 0 -1 -0
    outer loop
      vertex 0.0627899 0.998026 25
      vertex -0.0627899 0.998026 -25
      vertex 0.0627899 0.998026 -25
    endloop
  endfacet
  facet normal -0.684549 -0.728967 0
    outer loop
      vertex 0.637424 0.770513 -25
      vertex 0.728969 0.684546 25
      vertex 0.637424 0.770513 25
    endloop
  endfacet
  facet normal -0.684549 -0.728967 -0
    outer loop
      vertex 0.728969 0.684546 25
      vertex 0.637424 0.770513 -25
      vertex 0.728969 0.684546 -25
    endloop
  endfacet
  facet normal 0.684549 -0.728967 0
    outer loop
      vertex -0.728969 0.684546 -25
      vertex -0.637424 0.770513 25
      vertex -0.728969 0.684546 25
    endloop
  endfacet
  facet normal 0.684549 -0.728967 0
    outer loop
      vertex -0.637424 0.770513 25
      vertex -0.728969 0.684546 -25
      vertex -0.637424 0.770513 -25
    endloop
  endfacet
  facet normal 0.368129 -0.929775 0
    outer loop
      vertex -0.425778 0.904826 -25
      vertex -0.309016 0.951056 25
      vertex -0.425778 0.904826 25
    endloop
  endfacet
  facet normal 0.368129 -0.929775 0
    outer loop
      vertex -0.309016 0.951056 25
      vertex -0.425778 0.904826 -25
      vertex -0.309016 0.951056 -25
    endloop
  endfacet
  facet normal -0.770516 0.637421 0
    outer loop
      vertex 0.728969 -0.684546 -25
      vertex 0.809016 -0.587785 25
      vertex 0.809016 -0.587785 -25
    endloop
  endfacet
  facet normal -0.770516 0.637421 0
    outer loop
      vertex 0.809016 -0.587785 25
      vertex 0.728969 -0.684546 -25
      vertex 0.728969 -0.684546 25
    endloop
  endfacet
  facet normal -0.904829 -0.425774 0
    outer loop
      vertex 0.929776 0.368124 -25
      vertex 0.876307 0.481753 25
      vertex 0.876307 0.481753 -25
    endloop
  endfacet
  facet normal -0.904829 -0.425774 0
    outer loop
      vertex 0.876307 0.481753 25
      vertex 0.929776 0.368124 -25
      vertex 0.929776 0.368124 25
    endloop
  endfacet
  facet normal -0.982288 -0.187377 0
    outer loop
      vertex 0.992114 0.125333 -25
      vertex 0.968583 0.24869 25
      vertex 0.968583 0.24869 -25
    endloop
  endfacet
  facet normal -0.982288 -0.187377 0
    outer loop
      vertex 0.968583 0.24869 25
      vertex 0.992114 0.125333 -25
      vertex 0.992114 0.125333 25
    endloop
  endfacet
  facet normal -0.368129 -0.929775 0
    outer loop
      vertex 0.309016 0.951056 -25
      vertex 0.425778 0.904826 25
      vertex 0.309016 0.951056 25
    endloop
  endfacet
  facet normal -0.368129 -0.929775 -0
    outer loop
      vertex 0.425778 0.904826 25
      vertex 0.309016 0.951056 -25
      vertex 0.425778 0.904826 -25
    endloop
  endfacet
  facet normal -0.587782 -0.809019 0
    outer loop
      vertex 0.535827 0.844327 -25
      vertex 0.637424 0.770513 25
      vertex 0.535827 0.844327 25
    endloop
  endfacet
  facet normal -0.587782 -0.809019 -0
    outer loop
      vertex 0.637424 0.770513 25
      vertex 0.535827 0.844327 -25
      vertex 0.637424 0.770513 -25
    endloop
  endfacet
  facet normal 0.904829 -0.425774 0
    outer loop
      vertex -0.929776 0.368124 25
      vertex -0.876307 0.481753 -25
      vertex -0.876307 0.481753 25
    endloop
  endfacet
  facet normal 0.904829 -0.425774 0
    outer loop
      vertex -0.876307 0.481753 -25
      vertex -0.929776 0.368124 25
      vertex -0.929776 0.368124 -25
    endloop
  endfacet
  facet normal 0.844324 -0.535833 0
    outer loop
      vertex -0.876307 0.481753 25
      vertex -0.809016 0.587785 -25
      vertex -0.809016 0.587785 25
    endloop
  endfacet
  facet normal 0.844324 -0.535833 0
    outer loop
      vertex -0.809016 0.587785 -25
      vertex -0.876307 0.481753 25
      vertex -0.876307 0.481753 -25
    endloop
  endfacet
  facet normal 0.951055 -0.309021 0
    outer loop
      vertex -0.968583 0.24869 25
      vertex -0.929776 0.368124 -25
      vertex -0.929776 0.368124 25
    endloop
  endfacet
  facet normal 0.951055 -0.309021 0
    outer loop
      vertex -0.929776 0.368124 -25
      vertex -0.968583 0.24869 25
      vertex -0.968583 0.24869 -25
    endloop
  endfacet
  facet normal 0.481748 -0.87631 0
    outer loop
      vertex -0.535827 0.844327 -25
      vertex -0.425778 0.904826 25
      vertex -0.535827 0.844327 25
    endloop
  endfacet
  facet normal 0.481748 -0.87631 0
    outer loop
      vertex -0.425778 0.904826 25
      vertex -0.535827 0.844327 -25
      vertex -0.425778 0.904826 -25
    endloop
  endfacet
  facet normal 0.125337 -0.992114 0
    outer loop
      vertex -0.187381 0.982286 -25
      vertex -0.0627899 0.998026 25
      vertex -0.187381 0.982286 25
    endloop
  endfacet
  facet normal 0.125337 -0.992114 0
    outer loop
      vertex -0.0627899 0.998026 25
      vertex -0.187381 0.982286 -25
      vertex -0.0627899 0.998026 -25
    endloop
  endfacet
  facet normal -0.998026 0.0627962 0
    outer loop
      vertex 0.992114 -0.125333 -25
      vertex 1 0 25
      vertex 1 0 -25
    endloop
  endfacet
  facet normal -0.998026 0.0627962 0
    outer loop
      vertex 1 0 25
      vertex 0.992114 -0.125333 -25
      vertex 0.992114 -0.125333 25
    endloop
  endfacet
  facet normal 0.248686 0.968584 -0
    outer loop
      vertex -0.187381 -0.982286 -25
      vertex -0.309016 -0.951056 25
      vertex -0.187381 -0.982286 25
    endloop
  endfacet
  facet normal 0.248686 0.968584 0
    outer loop
      vertex -0.309016 -0.951056 25
      vertex -0.187381 -0.982286 -25
      vertex -0.309016 -0.951056 -25
    endloop
  endfacet
  facet normal -0.125337 0.992114 0
    outer loop
      vertex 0.187381 -0.982286 -25
      vertex 0.0627899 -0.998026 25
      vertex 0.187381 -0.982286 25
    endloop
  endfacet
  facet normal -0.125337 0.992114 0
    outer loop
      vertex 0.0627899 -0.998026 25
      vertex 0.187381 -0.982286 -25
      vertex 0.0627899 -0.998026 -25
    endloop
  endfacet
  facet normal -0.951055 -0.309021 0
    outer loop
      vertex 0.968583 0.24869 -25
      vertex 0.929776 0.368124 25
      vertex 0.929776 0.368124 -25
    endloop
  endfacet
  facet normal -0.951055 -0.309021 0
    outer loop
      vertex 0.929776 0.368124 25
      vertex 0.968583 0.24869 -25
      vertex 0.968583 0.24869 25
    endloop
  endfacet
  facet normal -0.770516 -0.637421 0
    outer loop
      vertex 0.809016 0.587785 -25
      vertex 0.728969 0.684546 25
      vertex 0.728969 0.684546 -25
    endloop
  endfacet
  facet normal -0.770516 -0.637421 0
    outer loop
      vertex 0.728969 0.684546 25
      vertex 0.809016 0.587785 -25
      vertex 0.809016 0.587785 25
    endloop
  endfacet
  facet normal -0.844324 -0.535833 0
    outer loop
      vertex 0.876307 0.481753 -25
      vertex 0.809016 0.587785 25
      vertex 0.809016 0.587785 -25
    endloop
  endfacet
  facet normal -0.844324 -0.535833 0
    outer loop
      vertex 0.809016 0.587785 25
      vertex 0.876307 0.481753 -25
      vertex 0.876307 0.481753 25
    endloop
  endfacet
  facet normal -0.248686 -0.968584 0
    outer loop
      vertex 0.187381 0.982286 -25
      vertex 0.309016 0.951056 25
      vertex 0.187381 0.982286 25
    endloop
  endfacet
  facet normal -0.248686 -0.968584 -0
    outer loop
      vertex 0.309016 0.951056 25
      vertex 0.187381 0.982286 -25
      vertex 0.309016 0.951056 -25
    endloop
  endfacet
  facet normal -0.125337 -0.992114 0
    outer loop
      vertex 0.0627899 0.998026 -25
      vertex 0.187381 0.982286 25
      vertex 0.0627899 0.998026 25
    endloop
  endfacet
  facet normal -0.125337 -0.992114 -0
    outer loop
      vertex 0.187381 0.982286 25
      vertex 0.0627899 0.998026 -25
      vertex 0.187381 0.982286 -25
    endloop
  endfacet
  facet normal -0.481748 -0.87631 0
    outer loop
      vertex 0.425778 0.904826 -25
      vertex 0.535827 0.844327 25
      vertex 0.425778 0.904826 25
    endloop
  endfacet
  facet normal -0.481748 -0.87631 -0
    outer loop
      vertex 0.535827 0.844327 25
      vertex 0.425778 0.904826 -25
      vertex 0.535827 0.844327 -25
    endloop
  endfacet
  facet normal 0.248686 -0.968584 0
    outer loop
      vertex -0.309016 0.951056 -25
      vertex -0.187381 0.982286 25
      vertex -0.309016 0.951056 25
    endloop
  endfacet
  facet normal 0.248686 -0.968584 0
    outer loop
      vertex -0.187381 0.982286 25
      vertex -0.309016 0.951056 -25
      vertex -0.187381 0.982286 -25
    endloop
  endfacet
  facet normal -0.481748 0.87631 0
    outer loop
      vertex 0.535827 -0.844327 -25
      vertex 0.425778 -0.904826 25
      vertex 0.535827 -0.844327 25
    endloop
  endfacet
  facet normal -0.481748 0.87631 0
    outer loop
      vertex 0.425778 -0.904826 25
      vertex 0.535827 -0.844327 -25
      vertex 0.425778 -0.904826 -25
    endloop
  endfacet
  facet normal -0.844324 0.535833 0
    outer loop
      vertex 0.809016 -0.587785 -25
      vertex 0.876307 -0.481753 25
      vertex 0.876307 -0.481753 -25
    endloop
  endfacet
  facet normal -0.844324 0.535833 0
    outer loop
      vertex 0.876307 -0.481753 25
      vertex 0.809016 -0.587785 -25
      vertex 0.809016 -0.587785 25
    endloop
  endfacet
  facet normal -0.951055 0.309021 0
    outer loop
      vertex 0.929776 -0.368124 -25
      vertex 0.968583 -0.24869 25
      vertex 0.968583 -0.24869 -25
    endloop
  endfacet
  facet normal -0.951055 0.309021 0
    outer loop
      vertex 0.968583 -0.24869 25
      vertex 0.929776 -0.368124 -25
      vertex 0.929776 -0.368124 25
    endloop
  endfacet
  facet normal -0.982288 0.187377 0
    outer loop
      vertex 0.968583 -0.24869 -25
      vertex 0.992114 -0.125333 25
      vertex 0.992114 -0.125333 -25
    endloop
  endfacet
  facet normal -0.982288 0.187377 0
    outer loop
      vertex 0.992114 -0.125333 25
      vertex 0.968583 -0.24869 -25
      vertex 0.968583 -0.24869 25
    endloop
  endfacet
  facet normal 0.904829 0.425774 0
    outer loop
      vertex -0.876307 -0.481753 25
      vertex -0.929776 -0.368124 -25
      vertex -0.929776 -0.368124 25
    endloop
  endfacet
  facet normal 0.904829 0.425774 0
    outer loop
      vertex -0.929776 -0.368124 -25
      vertex -0.876307 -0.481753 25
      vertex -0.876307 -0.481753 -25
    endloop
  endfacet
  facet normal 0.951055 0.309021 0
    outer loop
      vertex -0.929776 -0.368124 25
      vertex -0.968583 -0.24869 -25
      vertex -0.968583 -0.24869 25
    endloop
  endfacet
  facet normal 0.951055 0.309021 0
    outer loop
      vertex -0.968583 -0.24869 -25
      vertex -0.929776 -0.368124 25
      vertex -0.929776 -0.368124 -25
    endloop
  endfacet
  facet normal -0.368129 0.929775 0
    outer loop
      vertex 0.425778 -0.904826 -25
      vertex 0.309016 -0.951056 25
      vertex 0.425778 -0.904826 25
    endloop
  endfacet
  facet normal -0.368129 0.929775 0
    outer loop
      vertex 0.309016 -0.951056 25
      vertex 0.425778 -0.904826 -25
      vertex 0.309016 -0.951056 -25
    endloop
  endfacet
  facet normal -0.248686 0.968584 0
    outer loop
      vertex 0.309016 -0.951056 -25
      vertex 0.187381 -0.982286 25
      vertex 0.309016 -0.951056 25
    endloop
  endfacet
  facet normal -0.248686 0.968584 0
    outer loop
      vertex 0.187381 -0.982286 25
      vertex 0.309016 -0.951056 -25
      vertex 0.187381 -0.982286 -25
    endloop
  endfacet
  facet normal 0.770516 -0.637421 0
    outer loop
      vertex -0.809016 0.587785 25
      vertex -0.728969 0.684546 -25
      vertex -0.728969 0.684546 25
    endloop
  endfacet
  facet normal 0.770516 -0.637421 0
    outer loop
      vertex -0.728969 0.684546 -25
      vertex -0.809016 0.587785 25
      vertex -0.809016 0.587785 -25
    endloop
  endfacet
  facet normal 0.982288 -0.187377 0
    outer loop
      vertex -0.992114 0.125333 25
      vertex -0.968583 0.24869 -25
      vertex -0.968583 0.24869 25
    endloop
  endfacet
  facet normal 0.982288 -0.187377 0
    outer loop
      vertex -0.968583 0.24869 -25
      vertex -0.992114 0.125333 25
      vertex -0.992114 0.125333 -25
    endloop
  endfacet
  facet normal 0.587782 -0.809019 0
    outer loop
      vertex -0.637424 0.770513 -25
      vertex -0.535827 0.844327 25
      vertex -0.637424 0.770513 25
    endloop
  endfacet
  facet normal 0.587782 -0.809019 0
    outer loop
      vertex -0.535827 0.844327 25
      vertex -0.637424 0.770513 -25
      vertex -0.535827 0.844327 -25
    endloop
  endfacet
  facet normal -0.904829 0.425774 0
    outer loop
      vertex 0.876307 -0.481753 -25
      vertex 0.929776 -0.368124 25
      vertex 0.929776 -0.368124 -25
    endloop
  endfacet
  facet normal -0.904829 0.425774 0
    outer loop
      vertex 0.929776 -0.368124 25
      vertex 0.876307 -0.481753 -25
      vertex 0.876307 -0.481753 25
    endloop
  endfacet
  facet normal 0 1 -0
    outer loop
      vertex 0.0627899 -0.998026 -25
      vertex -0.0627899 -0.998026 25
      vertex 0.0627899 -0.998026 25
    endloop
  endfacet
  facet normal 0 1 0
    outer loop
      vertex -0.0627899 -0.998026 25
      vertex 0.0627899 -0.998026 -25
      vertex -0.0627899 -0.998026 -25
    endloop
  endfacet
  facet normal 0.368129 0.929775 -0
    outer loop
      vertex -0.309016 -0.951056 -25
      vertex -0.425778 -0.904826 25
      vertex -0.309016 -0.951056 25
    endloop
  endfacet
  facet normal 0.368129 0.929775 0
    outer loop
      vertex -0.425778 -0.904826 25
      vertex -0.309016 -0.951056 -25
      vertex -0.425778 -0.904826 -25
    endloop
  endfacet
  facet normal 0.998026 0.0627962 0
    outer loop
      vertex -0.992114 -0.125333 25
      vertex -1 0 -25
      vertex -1 0 25
    endloop
  endfacet
  facet normal 0.998026 0.0627962 0
    outer loop
      vertex -1 0 -25
      vertex -0.992114 -0.125333 25
      vertex -0.992114 -0.125333 -25
    endloop
  endfacet
  facet normal -0.587782 0.809019 0
    outer loop
      vertex 0.637424 -0.770513 -25
      vertex 0.535827 -0.844327 25
      vertex 0.637424 -0.770513 25
    endloop
  endfacet
  facet normal -0.587782 0.809019 0
    outer loop
      vertex 0.535827 -0.844327 25
      vertex 0.637424 -0.770513 -25
      vertex 0.535827 -0.844327 -25
    endloop
  endfacet
  facet normal -0.684549 0.728967 0
    outer loop
      vertex 0.728969 -0.684546 -25
      vertex 0.637424 -0.770513 25
      vertex 0.728969 -0.684546 25
    endloop
  endfacet
  facet normal -0.684549 0.728967 0
    outer loop
      vertex 0.637424 -0.770513 25
      vertex 0.728969 -0.684546 -25
      vertex 0.637424 -0.770513 -25
    endloop
  endfacet
  facet normal 0.125337 0.992114 -0
    outer loop
      vertex -0.0627899 -0.998026 -25
      vertex -0.187381 -0.982286 25
      vertex -0.0627899 -0.998026 25
    endloop
  endfacet
  facet normal 0.125337 0.992114 0
    outer loop
      vertex -0.187381 -0.982286 25
      vertex -0.0627899 -0.998026 -25
      vertex -0.187381 -0.982286 -25
    endloop
  endfacet
  facet normal 0.481748 0.87631 -0
    outer loop
      vertex -0.425778 -0.904826 -25
      vertex -0.535827 -0.844327 25
      vertex -0.425778 -0.904826 25
    endloop
  endfacet
  facet normal 0.481748 0.87631 0
    outer loop
      vertex -0.535827 -0.844327 25
      vertex -0.425778 -0.904826 -25
      vertex -0.535827 -0.844327 -25
    endloop
  endfacet
  facet normal 0.770516 0.637421 0
    outer loop
      vertex -0.728969 -0.684546 25
      vertex -0.809016 -0.587785 -25
      vertex -0.809016 -0.587785 25
    endloop
  endfacet
  facet normal 0.770516 0.637421 0
    outer loop
      vertex -0.809016 -0.587785 -25
      vertex -0.728969 -0.684546 25
      vertex -0.728969 -0.684546 -25
    endloop
  endfacet
  facet normal 0.844324 0.535833 0
    outer loop
      vertex -0.809016 -0.587785 25
      vertex -0.876307 -0.481753 -25
      vertex -0.876307 -0.481753 25
    endloop
  endfacet
  facet normal 0.844324 0.535833 0
    outer loop
      vertex -0.876307 -0.481753 -25
      vertex -0.809016 -0.587785 25
      vertex -0.809016 -0.587785 -25
    endloop
  endfacet
  facet normal 0.982288 0.187377 0
    outer loop
      vertex -0.968583 -0.24869 25
      vertex -0.992114 -0.125333 -25
      vertex -0.992114 -0.125333 25
    endloop
  endfacet
  facet normal 0.982288 0.187377 0
    outer loop
      vertex -0.992114 -0.125333 -25
      vertex -0.968583 -0.24869 25
      vertex -0.968583 -0.24869 -25
    endloop
  endfacet
  facet normal 0.684549 0.728967 -0
    outer loop
      vertex -0.637424 -0.770513 -25
      vertex -0.728969 -0.684546 25
      vertex -0.637424 -0.770513 25
    endloop
  endfacet
  facet normal 0.684549 0.728967 0
    outer loop
      vertex -0.728969 -0.684546 25
      vertex -0.637424 -0.770513 -25
      vertex -0.728969 -0.684546 -25
    endloop
  endfacet
  facet normal 0.587782 0.809019 -0
    outer loop
      vertex -0.535827 -0.844327 -25
      vertex -0.637424 -0.770513 25
      vertex -0.535827 -0.844327 25
    endloop
  endfacet
  facet normal 0.587782 0.809019 0
    outer loop
      vertex -0.637424 -0.770513 25
      vertex -0.535827 -0.844327 -25
      vertex -0.637424 -0.770513 -25
    endloop
  endfacet
endsolid OpenSCAD_Model
