solid OpenSCAD_Model
  facet normal 0.998026 0.0628015 0
    outer loop
      vertex 3 0 24
      vertex 2.97634 0.375999 -24
      vertex 2.97634 0.375999 24
    endloop
  endfacet
  facet normal 0.998026 0.0628015 0
    outer loop
      vertex 2.97634 0.375999 -24
      vertex 3 0 24
      vertex 3 0 -24
    endloop
  endfacet
  facet normal -0.998026 0.0628015 0
    outer loop
      vertex -3 0 -24
      vertex -2.97634 0.375999 24
      vertex -2.97634 0.375999 -24
    endloop
  endfacet
  facet normal -0.998026 0.0628015 0
    outer loop
      vertex -2.97634 0.375999 24
      vertex -3 0 -24
      vertex -3 0 24
    endloop
  endfacet
  facet normal 0 1 -0
    outer loop
      vertex 0.188371 2.99408 -24
      vertex -0.188371 2.99408 24
      vertex 0.188371 2.99408 24
    endloop
  endfacet
  facet normal 0 1 0
    outer loop
      vertex -0.188371 2.99408 24
      vertex 0.188371 2.99408 -24
      vertex -0.188371 2.99408 -24
    endloop
  endfacet
  facet normal 0 -1 0
    outer loop
      vertex -0.188371 -2.99408 -24
      vertex 0.188371 -2.99408 24
      vertex -0.188371 -2.99408 24
    endloop
  endfacet
  facet normal 0 -1 -0
    outer loop
      vertex 0.188371 -2.99408 24
      vertex -0.188371 -2.99408 -24
      vertex 0.188371 -2.99408 -24
    endloop
  endfacet
  facet normal 0.684541 0.728974 -0
    outer loop
      vertex 2.18691 2.05364 -24
      vertex 1.91227 2.31154 24
      vertex 2.18691 2.05364 24
    endloop
  endfacet
  facet normal 0.684541 0.728974 0
    outer loop
      vertex 1.91227 2.31154 24
      vertex 2.18691 2.05364 -24
      vertex 1.91227 2.31154 -24
    endloop
  endfacet
  facet normal -0.684541 0.728974 0
    outer loop
      vertex -1.91227 2.31154 -24
      vertex -2.18691 2.05364 24
      vertex -1.91227 2.31154 24
    endloop
  endfacet
  facet normal -0.684541 0.728974 0
    outer loop
      vertex -2.18691 2.05364 24
      vertex -1.91227 2.31154 -24
      vertex -2.18691 2.05364 -24
    endloop
  endfacet
  facet normal -0.368126 0.929776 0
    outer loop
      vertex -0.927051 2.85317 -24
      vertex -1.27734 2.71448 24
      vertex -0.927051 2.85317 24
    endloop
  endfacet
  facet normal -0.368126 0.929776 0
    outer loop
      vertex -1.27734 2.71448 24
      vertex -0.927051 2.85317 -24
      vertex -1.27734 2.71448 -24
    endloop
  endfacet
  facet normal 0.904828 0.425778 0
    outer loop
      vertex 2.78933 1.10437 24
      vertex 2.62892 1.44526 -24
      vertex 2.62892 1.44526 24
    endloop
  endfacet
  facet normal 0.904828 0.425778 0
    outer loop
      vertex 2.62892 1.44526 -24
      vertex 2.78933 1.10437 24
      vertex 2.78933 1.10437 -24
    endloop
  endfacet
  facet normal 0.98229 0.187369 0
    outer loop
      vertex 2.97634 0.375999 24
      vertex 2.90575 0.746069 -24
      vertex 2.90575 0.746069 24
    endloop
  endfacet
  facet normal 0.98229 0.187369 0
    outer loop
      vertex 2.90575 0.746069 -24
      vertex 2.97634 0.375999 24
      vertex 2.97634 0.375999 -24
    endloop
  endfacet
  facet normal 0.368126 0.929776 -0
    outer loop
      vertex 1.27734 2.71448 -24
      vertex 0.927051 2.85317 24
      vertex 1.27734 2.71448 24
    endloop
  endfacet
  facet normal 0.368126 0.929776 0
    outer loop
      vertex 0.927051 2.85317 24
      vertex 1.27734 2.71448 -24
      vertex 0.927051 2.85317 -24
    endloop
  endfacet
  facet normal 0.248684 0.968585 -0
    outer loop
      vertex 0.927051 2.85317 -24
      vertex 0.562143 2.94686 24
      vertex 0.927051 2.85317 24
    endloop
  endfacet
  facet normal 0.248684 0.968585 0
    outer loop
      vertex 0.562143 2.94686 24
      vertex 0.927051 2.85317 -24
      vertex 0.562143 2.94686 -24
    endloop
  endfacet
  facet normal 0.58778 0.809021 -0
    outer loop
      vertex 1.91227 2.31154 -24
      vertex 1.60748 2.53298 24
      vertex 1.91227 2.31154 24
    endloop
  endfacet
  facet normal 0.58778 0.809021 0
    outer loop
      vertex 1.60748 2.53298 24
      vertex 1.91227 2.31154 -24
      vertex 1.60748 2.53298 -24
    endloop
  endfacet
  facet normal -0.904828 0.425778 0
    outer loop
      vertex -2.78933 1.10437 -24
      vertex -2.62892 1.44526 24
      vertex -2.62892 1.44526 -24
    endloop
  endfacet
  facet normal -0.904828 0.425778 0
    outer loop
      vertex -2.62892 1.44526 24
      vertex -2.78933 1.10437 -24
      vertex -2.78933 1.10437 24
    endloop
  endfacet
  facet normal -0.844331 0.535822 0
    outer loop
      vertex -2.62892 1.44526 -24
      vertex -2.42705 1.76336 24
      vertex -2.42705 1.76336 -24
    endloop
  endfacet
  facet normal -0.844331 0.535822 0
    outer loop
      vertex -2.42705 1.76336 24
      vertex -2.62892 1.44526 -24
      vertex -2.62892 1.44526 24
    endloop
  endfacet
  facet normal -0.951056 0.309019 0
    outer loop
      vertex -2.90575 0.746069 -24
      vertex -2.78933 1.10437 24
      vertex -2.78933 1.10437 -24
    endloop
  endfacet
  facet normal -0.951056 0.309019 0
    outer loop
      vertex -2.78933 1.10437 24
      vertex -2.90575 0.746069 -24
      vertex -2.90575 0.746069 24
    endloop
  endfacet
  facet normal -0.58778 0.809021 0
    outer loop
      vertex -1.60748 2.53298 -24
      vertex -1.91227 2.31154 24
      vertex -1.60748 2.53298 24
    endloop
  endfacet
  facet normal -0.58778 0.809021 0
    outer loop
      vertex -1.91227 2.31154 24
      vertex -1.60748 2.53298 -24
      vertex -1.91227 2.31154 -24
    endloop
  endfacet
  facet normal -0.248684 0.968585 0
    outer loop
      vertex -0.562143 2.94686 -24
      vertex -0.927051 2.85317 24
      vertex -0.562143 2.94686 24
    endloop
  endfacet
  facet normal -0.248684 0.968585 0
    outer loop
      vertex -0.927051 2.85317 24
      vertex -0.562143 2.94686 -24
      vertex -0.927051 2.85317 -24
    endloop
  endfacet
  facet normal 0.951056 -0.309019 0
    outer loop
      vertex 2.78933 -1.10437 24
      vertex 2.90575 -0.746069 -24
      vertex 2.90575 -0.746069 24
    endloop
  endfacet
  facet normal 0.951056 -0.309019 0
    outer loop
      vertex 2.90575 -0.746069 -24
      vertex 2.78933 -1.10437 24
      vertex 2.78933 -1.10437 -24
    endloop
  endfacet
  facet normal 0.125337 -0.992114 0
    outer loop
      vertex 0.188371 -2.99408 -24
      vertex 0.562143 -2.94686 24
      vertex 0.188371 -2.99408 24
    endloop
  endfacet
  facet normal 0.125337 -0.992114 0
    outer loop
      vertex 0.562143 -2.94686 24
      vertex 0.188371 -2.99408 -24
      vertex 0.562143 -2.94686 -24
    endloop
  endfacet
  facet normal 0.951056 0.309019 0
    outer loop
      vertex 2.90575 0.746069 24
      vertex 2.78933 1.10437 -24
      vertex 2.78933 1.10437 24
    endloop
  endfacet
  facet normal 0.951056 0.309019 0
    outer loop
      vertex 2.78933 1.10437 -24
      vertex 2.90575 0.746069 24
      vertex 2.90575 0.746069 -24
    endloop
  endfacet
  facet normal 0.770514 0.637423 0
    outer loop
      vertex 2.42705 1.76336 24
      vertex 2.18691 2.05364 -24
      vertex 2.18691 2.05364 24
    endloop
  endfacet
  facet normal 0.770514 0.637423 0
    outer loop
      vertex 2.18691 2.05364 -24
      vertex 2.42705 1.76336 24
      vertex 2.42705 1.76336 -24
    endloop
  endfacet
  facet normal 0.844331 0.535822 0
    outer loop
      vertex 2.62892 1.44526 24
      vertex 2.42705 1.76336 -24
      vertex 2.42705 1.76336 24
    endloop
  endfacet
  facet normal 0.844331 0.535822 0
    outer loop
      vertex 2.42705 1.76336 -24
      vertex 2.62892 1.44526 24
      vertex 2.62892 1.44526 -24
    endloop
  endfacet
  facet normal 0.125337 0.992114 -0
    outer loop
      vertex 0.562143 2.94686 -24
      vertex 0.188371 2.99408 24
      vertex 0.562143 2.94686 24
    endloop
  endfacet
  facet normal 0.125337 0.992114 0
    outer loop
      vertex 0.188371 2.99408 24
      vertex 0.562143 2.94686 -24
      vertex 0.188371 2.99408 -24
    endloop
  endfacet
  facet normal -0.770514 0.637423 0
    outer loop
      vertex -2.42705 1.76336 -24
      vertex -2.18691 2.05364 24
      vertex -2.18691 2.05364 -24
    endloop
  endfacet
  facet normal -0.770514 0.637423 0
    outer loop
      vertex -2.18691 2.05364 24
      vertex -2.42705 1.76336 -24
      vertex -2.42705 1.76336 24
    endloop
  endfacet
  facet normal -0.98229 0.187369 0
    outer loop
      vertex -2.97634 0.375999 -24
      vertex -2.90575 0.746069 24
      vertex -2.90575 0.746069 -24
    endloop
  endfacet
  facet normal -0.98229 0.187369 0
    outer loop
      vertex -2.90575 0.746069 24
      vertex -2.97634 0.375999 -24
      vertex -2.97634 0.375999 24
    endloop
  endfacet
  facet normal 0 0 1
    outer loop
      vertex 2.25 0 24
      vertex 3 0 24
      vertex 2.97634 0.375999 24
    endloop
  endfacet
  facet normal 0 0 1
    outer loop
      vertex 2.23226 0.282 24
      vertex 2.97634 0.375999 24
      vertex 2.90575 0.746069 24
    endloop
  endfacet
  facet normal 0 0 1
    outer loop
      vertex 3 0 24
      vertex 2.25 0 24
      vertex 2.97634 -0.375999 24
    endloop
  endfacet
  facet normal 0 0 1
    outer loop
      vertex 2.17931 0.559552 24
      vertex 2.90575 0.746069 24
      vertex 2.78933 1.10437 24
    endloop
  endfacet
  facet normal -0 0 1
    outer loop
      vertex 2.23226 -0.282 24
      vertex 2.97634 -0.375999 24
      vertex 2.25 0 24
    endloop
  endfacet
  facet normal 0 0 1
    outer loop
      vertex 2.092 0.828279 24
      vertex 2.78933 1.10437 24
      vertex 2.62892 1.44526 24
    endloop
  endfacet
  facet normal 0 0 1
    outer loop
      vertex 2.97634 -0.375999 24
      vertex 2.23226 -0.282 24
      vertex 2.90575 -0.746069 24
    endloop
  endfacet
  facet normal 0 0 1
    outer loop
      vertex 1.97169 1.08395 24
      vertex 2.62892 1.44526 24
      vertex 2.42705 1.76336 24
    endloop
  endfacet
  facet normal -0 0 1
    outer loop
      vertex 2.17931 -0.559552 24
      vertex 2.90575 -0.746069 24
      vertex 2.23226 -0.282 24
    endloop
  endfacet
  facet normal 0 0 1
    outer loop
      vertex 2.90575 -0.746069 24
      vertex 2.17931 -0.559552 24
      vertex 2.78933 -1.10437 24
    endloop
  endfacet
  facet normal 0 0 1
    outer loop
      vertex 2.97634 0.375999 24
      vertex 2.23226 0.282 24
      vertex 2.25 0 24
    endloop
  endfacet
  facet normal 0 0 1
    outer loop
      vertex 1.82029 1.32252 24
      vertex 2.42705 1.76336 24
      vertex 2.18691 2.05364 24
    endloop
  endfacet
  facet normal 0 0 1
    outer loop
      vertex 2.90575 0.746069 24
      vertex 2.17931 0.559552 24
      vertex 2.23226 0.282 24
    endloop
  endfacet
  facet normal 0 0 1
    outer loop
      vertex 2.78933 1.10437 24
      vertex 2.092 0.828279 24
      vertex 2.17931 0.559552 24
    endloop
  endfacet
  facet normal 0 0 1
    outer loop
      vertex 2.62892 1.44526 24
      vertex 1.97169 1.08395 24
      vertex 2.092 0.828279 24
    endloop
  endfacet
  facet normal 0 0 1
    outer loop
      vertex 1.64018 1.54023 24
      vertex 2.18691 2.05364 24
      vertex 1.91227 2.31154 24
    endloop
  endfacet
  facet normal 0 0 1
    outer loop
      vertex 2.42705 1.76336 24
      vertex 1.82029 1.32252 24
      vertex 1.97169 1.08395 24
    endloop
  endfacet
  facet normal 0 0 1
    outer loop
      vertex 2.18691 2.05364 24
      vertex 1.64018 1.54023 24
      vertex 1.82029 1.32252 24
    endloop
  endfacet
  facet normal 0 0 1
    outer loop
      vertex 1.4342 1.73365 24
      vertex 1.91227 2.31154 24
      vertex 1.60748 2.53298 24
    endloop
  endfacet
  facet normal 0 0 1
    outer loop
      vertex 1.91227 2.31154 24
      vertex 1.4342 1.73365 24
      vertex 1.64018 1.54023 24
    endloop
  endfacet
  facet normal 0 0 1
    outer loop
      vertex 1.20561 1.89974 24
      vertex 1.60748 2.53298 24
      vertex 1.27734 2.71448 24
    endloop
  endfacet
  facet normal 0 0 1
    outer loop
      vertex 1.60748 2.53298 24
      vertex 1.20561 1.89974 24
      vertex 1.4342 1.73365 24
    endloop
  endfacet
  facet normal 0 0 1
    outer loop
      vertex 1.27734 2.71448 24
      vertex 0.958003 2.03586 24
      vertex 1.20561 1.89974 24
    endloop
  endfacet
  facet normal 0 0 1
    outer loop
      vertex 0.927051 2.85317 24
      vertex 0.958003 2.03586 24
      vertex 1.27734 2.71448 24
    endloop
  endfacet
  facet normal 0 0 1
    outer loop
      vertex 0.927051 2.85317 24
      vertex 0.695288 2.13988 24
      vertex 0.958003 2.03586 24
    endloop
  endfacet
  facet normal 0 0 1
    outer loop
      vertex 0.562143 2.94686 24
      vertex 0.695288 2.13988 24
      vertex 0.927051 2.85317 24
    endloop
  endfacet
  facet normal 0 0 1
    outer loop
      vertex 0.562143 2.94686 24
      vertex 0.421607 2.21015 24
      vertex 0.695288 2.13988 24
    endloop
  endfacet
  facet normal 0 0 1
    outer loop
      vertex 0.188371 2.99408 24
      vertex 0.421607 2.21015 24
      vertex 0.562143 2.94686 24
    endloop
  endfacet
  facet normal 0 0 1
    outer loop
      vertex 0.188371 2.99408 24
      vertex 0.141278 2.24556 24
      vertex 0.421607 2.21015 24
    endloop
  endfacet
  facet normal 0 0 1
    outer loop
      vertex 0.188371 2.99408 24
      vertex -0.141278 2.24556 24
      vertex 0.141278 2.24556 24
    endloop
  endfacet
  facet normal -0 0 1
    outer loop
      vertex -0.188371 2.99408 24
      vertex -0.141278 2.24556 24
      vertex 0.188371 2.99408 24
    endloop
  endfacet
  facet normal 0 0 1
    outer loop
      vertex -0.188371 2.99408 24
      vertex -0.421607 2.21015 24
      vertex -0.141278 2.24556 24
    endloop
  endfacet
  facet normal -0 0 1
    outer loop
      vertex -0.562143 2.94686 24
      vertex -0.421607 2.21015 24
      vertex -0.188371 2.99408 24
    endloop
  endfacet
  facet normal 0 0 1
    outer loop
      vertex -0.562143 2.94686 24
      vertex -0.695288 2.13988 24
      vertex -0.421607 2.21015 24
    endloop
  endfacet
  facet normal -0 0 1
    outer loop
      vertex -0.927051 2.85317 24
      vertex -0.695288 2.13988 24
      vertex -0.562143 2.94686 24
    endloop
  endfacet
  facet normal 0 0 1
    outer loop
      vertex -0.927051 2.85317 24
      vertex -0.958003 2.03586 24
      vertex -0.695288 2.13988 24
    endloop
  endfacet
  facet normal -0 0 1
    outer loop
      vertex -1.27734 2.71448 24
      vertex -0.958003 2.03586 24
      vertex -0.927051 2.85317 24
    endloop
  endfacet
  facet normal 0 0 1
    outer loop
      vertex -0.958003 2.03586 24
      vertex -1.27734 2.71448 24
      vertex -1.20561 1.89974 24
    endloop
  endfacet
  facet normal -0 0 1
    outer loop
      vertex -1.60748 2.53298 24
      vertex -1.20561 1.89974 24
      vertex -1.27734 2.71448 24
    endloop
  endfacet
  facet normal 0 0 1
    outer loop
      vertex -1.20561 1.89974 24
      vertex -1.60748 2.53298 24
      vertex -1.4342 1.73365 24
    endloop
  endfacet
  facet normal -0 0 1
    outer loop
      vertex -1.91227 2.31154 24
      vertex -1.4342 1.73365 24
      vertex -1.60748 2.53298 24
    endloop
  endfacet
  facet normal 0 0 1
    outer loop
      vertex -1.4342 1.73365 24
      vertex -1.91227 2.31154 24
      vertex -1.64018 1.54023 24
    endloop
  endfacet
  facet normal -0 0 1
    outer loop
      vertex -2.18691 2.05364 24
      vertex -1.64018 1.54023 24
      vertex -1.91227 2.31154 24
    endloop
  endfacet
  facet normal 0 0 1
    outer loop
      vertex -1.64018 1.54023 24
      vertex -2.18691 2.05364 24
      vertex -1.82029 1.32252 24
    endloop
  endfacet
  facet normal -0 0 1
    outer loop
      vertex -2.42705 1.76336 24
      vertex -1.82029 1.32252 24
      vertex -2.18691 2.05364 24
    endloop
  endfacet
  facet normal 0 0 1
    outer loop
      vertex -1.82029 1.32252 24
      vertex -2.42705 1.76336 24
      vertex -1.97169 1.08395 24
    endloop
  endfacet
  facet normal -0 0 1
    outer loop
      vertex -2.62892 1.44526 24
      vertex -1.97169 1.08395 24
      vertex -2.42705 1.76336 24
    endloop
  endfacet
  facet normal 0 0 1
    outer loop
      vertex -1.97169 1.08395 24
      vertex -2.62892 1.44526 24
      vertex -2.092 0.828279 24
    endloop
  endfacet
  facet normal -0 0 1
    outer loop
      vertex -2.78933 1.10437 24
      vertex -2.092 0.828279 24
      vertex -2.62892 1.44526 24
    endloop
  endfacet
  facet normal 0 0 1
    outer loop
      vertex -2.092 0.828279 24
      vertex -2.78933 1.10437 24
      vertex -2.17931 0.559552 24
    endloop
  endfacet
  facet normal -0 0 1
    outer loop
      vertex 2.092 -0.828279 24
      vertex 2.78933 -1.10437 24
      vertex 2.17931 -0.559552 24
    endloop
  endfacet
  facet normal 0 0 1
    outer loop
      vertex 2.78933 -1.10437 24
      vertex 2.092 -0.828279 24
      vertex 2.62892 -1.44526 24
    endloop
  endfacet
  facet normal -0 0 1
    outer loop
      vertex 1.97169 -1.08395 24
      vertex 2.62892 -1.44526 24
      vertex 2.092 -0.828279 24
    endloop
  endfacet
  facet normal 0 0 1
    outer loop
      vertex 2.62892 -1.44526 24
      vertex 1.97169 -1.08395 24
      vertex 2.42705 -1.76336 24
    endloop
  endfacet
  facet normal -0 0 1
    outer loop
      vertex 1.82029 -1.32252 24
      vertex 2.42705 -1.76336 24
      vertex 1.97169 -1.08395 24
    endloop
  endfacet
  facet normal 0 0 1
    outer loop
      vertex 2.42705 -1.76336 24
      vertex 1.82029 -1.32252 24
      vertex 2.18691 -2.05364 24
    endloop
  endfacet
  facet normal -0 0 1
    outer loop
      vertex 1.64018 -1.54023 24
      vertex 2.18691 -2.05364 24
      vertex 1.82029 -1.32252 24
    endloop
  endfacet
  facet normal 0 0 1
    outer loop
      vertex 2.18691 -2.05364 24
      vertex 1.64018 -1.54023 24
      vertex 1.91227 -2.31154 24
    endloop
  endfacet
  facet normal -0 0 1
    outer loop
      vertex 1.4342 -1.73365 24
      vertex 1.91227 -2.31154 24
      vertex 1.64018 -1.54023 24
    endloop
  endfacet
  facet normal 0 0 1
    outer loop
      vertex 1.91227 -2.31154 24
      vertex 1.4342 -1.73365 24
      vertex 1.60748 -2.53298 24
    endloop
  endfacet
  facet normal -0 0 1
    outer loop
      vertex 1.20561 -1.89974 24
      vertex 1.60748 -2.53298 24
      vertex 1.4342 -1.73365 24
    endloop
  endfacet
  facet normal 0 0 1
    outer loop
      vertex 1.60748 -2.53298 24
      vertex 1.20561 -1.89974 24
      vertex 1.27734 -2.71448 24
    endloop
  endfacet
  facet normal -0 0 1
    outer loop
      vertex 0.958003 -2.03586 24
      vertex 1.27734 -2.71448 24
      vertex 1.20561 -1.89974 24
    endloop
  endfacet
  facet normal 0 0 1
    outer loop
      vertex 0.958003 -2.03586 24
      vertex 0.927051 -2.85317 24
      vertex 1.27734 -2.71448 24
    endloop
  endfacet
  facet normal -0 0 1
    outer loop
      vertex 0.695288 -2.13988 24
      vertex 0.927051 -2.85317 24
      vertex 0.958003 -2.03586 24
    endloop
  endfacet
  facet normal 0 0 1
    outer loop
      vertex 0.695288 -2.13988 24
      vertex 0.562143 -2.94686 24
      vertex 0.927051 -2.85317 24
    endloop
  endfacet
  facet normal -0 0 1
    outer loop
      vertex 0.421607 -2.21015 24
      vertex 0.562143 -2.94686 24
      vertex 0.695288 -2.13988 24
    endloop
  endfacet
  facet normal 0 0 1
    outer loop
      vertex 0.421607 -2.21015 24
      vertex 0.188371 -2.99408 24
      vertex 0.562143 -2.94686 24
    endloop
  endfacet
  facet normal -0 0 1
    outer loop
      vertex 0.141278 -2.24556 24
      vertex 0.188371 -2.99408 24
      vertex 0.421607 -2.21015 24
    endloop
  endfacet
  facet normal -0 0 1
    outer loop
      vertex -0.141278 -2.24556 24
      vertex 0.188371 -2.99408 24
      vertex 0.141278 -2.24556 24
    endloop
  endfacet
  facet normal 0 0 1
    outer loop
      vertex -0.141278 -2.24556 24
      vertex -0.188371 -2.99408 24
      vertex 0.188371 -2.99408 24
    endloop
  endfacet
  facet normal 0 0 1
    outer loop
      vertex -0.421607 -2.21015 24
      vertex -0.188371 -2.99408 24
      vertex -0.141278 -2.24556 24
    endloop
  endfacet
  facet normal 0 0 1
    outer loop
      vertex -0.421607 -2.21015 24
      vertex -0.562143 -2.94686 24
      vertex -0.188371 -2.99408 24
    endloop
  endfacet
  facet normal 0 0 1
    outer loop
      vertex -0.695288 -2.13988 24
      vertex -0.562143 -2.94686 24
      vertex -0.421607 -2.21015 24
    endloop
  endfacet
  facet normal 0 0 1
    outer loop
      vertex -0.695288 -2.13988 24
      vertex -0.927051 -2.85317 24
      vertex -0.562143 -2.94686 24
    endloop
  endfacet
  facet normal 0 0 1
    outer loop
      vertex -0.958003 -2.03586 24
      vertex -0.927051 -2.85317 24
      vertex -0.695288 -2.13988 24
    endloop
  endfacet
  facet normal 0 0 1
    outer loop
      vertex -1.27734 -2.71448 24
      vertex -0.958003 -2.03586 24
      vertex -1.20561 -1.89974 24
    endloop
  endfacet
  facet normal 0 0 1
    outer loop
      vertex -0.958003 -2.03586 24
      vertex -1.27734 -2.71448 24
      vertex -0.927051 -2.85317 24
    endloop
  endfacet
  facet normal 0 0 1
    outer loop
      vertex -1.60748 -2.53298 24
      vertex -1.20561 -1.89974 24
      vertex -1.4342 -1.73365 24
    endloop
  endfacet
  facet normal 0 0 1
    outer loop
      vertex -1.20561 -1.89974 24
      vertex -1.60748 -2.53298 24
      vertex -1.27734 -2.71448 24
    endloop
  endfacet
  facet normal 0 0 1
    outer loop
      vertex -1.91227 -2.31154 24
      vertex -1.4342 -1.73365 24
      vertex -1.64018 -1.54023 24
    endloop
  endfacet
  facet normal 0 0 1
    outer loop
      vertex -2.18691 -2.05364 24
      vertex -1.64018 -1.54023 24
      vertex -1.82029 -1.32252 24
    endloop
  endfacet
  facet normal 0 0 1
    outer loop
      vertex -1.4342 -1.73365 24
      vertex -1.91227 -2.31154 24
      vertex -1.60748 -2.53298 24
    endloop
  endfacet
  facet normal 0 0 1
    outer loop
      vertex -2.42705 -1.76336 24
      vertex -1.82029 -1.32252 24
      vertex -1.97169 -1.08395 24
    endloop
  endfacet
  facet normal 0 0 1
    outer loop
      vertex -2.62892 -1.44526 24
      vertex -1.97169 -1.08395 24
      vertex -2.092 -0.828279 24
    endloop
  endfacet
  facet normal 0 0 1
    outer loop
      vertex -2.78933 -1.10437 24
      vertex -2.092 -0.828279 24
      vertex -2.17931 -0.559552 24
    endloop
  endfacet
  facet normal 0 0 1
    outer loop
      vertex -1.64018 -1.54023 24
      vertex -2.18691 -2.05364 24
      vertex -1.91227 -2.31154 24
    endloop
  endfacet
  facet normal 0 0 1
    outer loop
      vertex -2.90575 -0.746069 24
      vertex -2.17931 -0.559552 24
      vertex -2.23226 -0.282 24
    endloop
  endfacet
  facet normal 0 0 1
    outer loop
      vertex -2.97634 -0.375999 24
      vertex -2.23226 -0.282 24
      vertex -2.25 0 24
    endloop
  endfacet
  facet normal -0 0 1
    outer loop
      vertex -2.90575 0.746069 24
      vertex -2.17931 0.559552 24
      vertex -2.78933 1.10437 24
    endloop
  endfacet
  facet normal 0 0 1
    outer loop
      vertex -1.82029 -1.32252 24
      vertex -2.42705 -1.76336 24
      vertex -2.18691 -2.05364 24
    endloop
  endfacet
  facet normal 0 0 1
    outer loop
      vertex -2.17931 0.559552 24
      vertex -2.90575 0.746069 24
      vertex -2.23226 0.282 24
    endloop
  endfacet
  facet normal 0 0 1
    outer loop
      vertex -1.97169 -1.08395 24
      vertex -2.62892 -1.44526 24
      vertex -2.42705 -1.76336 24
    endloop
  endfacet
  facet normal -0 0 1
    outer loop
      vertex -2.97634 0.375999 24
      vertex -2.23226 0.282 24
      vertex -2.90575 0.746069 24
    endloop
  endfacet
  facet normal 0 0 1
    outer loop
      vertex -2.092 -0.828279 24
      vertex -2.78933 -1.10437 24
      vertex -2.62892 -1.44526 24
    endloop
  endfacet
  facet normal 0 0 1
    outer loop
      vertex -2.23226 0.282 24
      vertex -2.97634 0.375999 24
      vertex -2.25 0 24
    endloop
  endfacet
  facet normal 0 0 1
    outer loop
      vertex -2.17931 -0.559552 24
      vertex -2.90575 -0.746069 24
      vertex -2.78933 -1.10437 24
    endloop
  endfacet
  facet normal 0 0 1
    outer loop
      vertex -3 0 24
      vertex -2.25 0 24
      vertex -2.97634 0.375999 24
    endloop
  endfacet
  facet normal 0 0 1
    outer loop
      vertex -2.23226 -0.282 24
      vertex -2.97634 -0.375999 24
      vertex -2.90575 -0.746069 24
    endloop
  endfacet
  facet normal 0 0 1
    outer loop
      vertex -2.25 0 24
      vertex -3 0 24
      vertex -2.97634 -0.375999 24
    endloop
  endfacet
  facet normal -0.481762 0.876302 0
    outer loop
      vertex -1.27734 2.71448 -24
      vertex -1.60748 2.53298 24
      vertex -1.27734 2.71448 24
    endloop
  endfacet
  facet normal -0.481762 0.876302 0
    outer loop
      vertex -1.60748 2.53298 24
      vertex -1.27734 2.71448 -24
      vertex -1.60748 2.53298 -24
    endloop
  endfacet
  facet normal -0.125337 0.992114 0
    outer loop
      vertex -0.188371 2.99408 -24
      vertex -0.562143 2.94686 24
      vertex -0.188371 2.99408 24
    endloop
  endfacet
  facet normal -0.125337 0.992114 0
    outer loop
      vertex -0.562143 2.94686 24
      vertex -0.188371 2.99408 -24
      vertex -0.562143 2.94686 -24
    endloop
  endfacet
  facet normal 0.684541 -0.728974 0
    outer loop
      vertex 1.91227 -2.31154 -24
      vertex 2.18691 -2.05364 24
      vertex 1.91227 -2.31154 24
    endloop
  endfacet
  facet normal 0.684541 -0.728974 0
    outer loop
      vertex 2.18691 -2.05364 24
      vertex 1.91227 -2.31154 -24
      vertex 2.18691 -2.05364 -24
    endloop
  endfacet
  facet normal 0.98229 -0.187369 0
    outer loop
      vertex 2.90575 -0.746069 24
      vertex 2.97634 -0.375999 -24
      vertex 2.97634 -0.375999 24
    endloop
  endfacet
  facet normal 0.98229 -0.187369 0
    outer loop
      vertex 2.97634 -0.375999 -24
      vertex 2.90575 -0.746069 24
      vertex 2.90575 -0.746069 -24
    endloop
  endfacet
  facet normal -0.904828 -0.425778 0
    outer loop
      vertex -2.62892 -1.44526 -24
      vertex -2.78933 -1.10437 24
      vertex -2.78933 -1.10437 -24
    endloop
  endfacet
  facet normal -0.904828 -0.425778 0
    outer loop
      vertex -2.78933 -1.10437 24
      vertex -2.62892 -1.44526 -24
      vertex -2.62892 -1.44526 24
    endloop
  endfacet
  facet normal 0 0 -1
    outer loop
      vertex 2.25 0 -24
      vertex 3 0 -24
      vertex 2.97634 -0.375999 -24
    endloop
  endfacet
  facet normal 0 0 -1
    outer loop
      vertex 2.23226 -0.282 -24
      vertex 2.97634 -0.375999 -24
      vertex 2.90575 -0.746069 -24
    endloop
  endfacet
  facet normal 0 0 -1
    outer loop
      vertex 3 0 -24
      vertex 2.25 0 -24
      vertex 2.97634 0.375999 -24
    endloop
  endfacet
  facet normal 0 0 -1
    outer loop
      vertex 2.17931 -0.559552 -24
      vertex 2.90575 -0.746069 -24
      vertex 2.78933 -1.10437 -24
    endloop
  endfacet
  facet normal 0 0 -1
    outer loop
      vertex 2.23226 0.282 -24
      vertex 2.97634 0.375999 -24
      vertex 2.25 0 -24
    endloop
  endfacet
  facet normal 0 0 -1
    outer loop
      vertex 2.092 -0.828279 -24
      vertex 2.78933 -1.10437 -24
      vertex 2.62892 -1.44526 -24
    endloop
  endfacet
  facet normal -0 0 -1
    outer loop
      vertex 2.97634 0.375999 -24
      vertex 2.23226 0.282 -24
      vertex 2.90575 0.746069 -24
    endloop
  endfacet
  facet normal 0 0 -1
    outer loop
      vertex 1.97169 -1.08395 -24
      vertex 2.62892 -1.44526 -24
      vertex 2.42705 -1.76336 -24
    endloop
  endfacet
  facet normal 0 0 -1
    outer loop
      vertex 2.17931 0.559552 -24
      vertex 2.90575 0.746069 -24
      vertex 2.23226 0.282 -24
    endloop
  endfacet
  facet normal -0 0 -1
    outer loop
      vertex 2.90575 0.746069 -24
      vertex 2.17931 0.559552 -24
      vertex 2.78933 1.10437 -24
    endloop
  endfacet
  facet normal 0 0 -1
    outer loop
      vertex 2.97634 -0.375999 -24
      vertex 2.23226 -0.282 -24
      vertex 2.25 0 -24
    endloop
  endfacet
  facet normal 0 0 -1
    outer loop
      vertex 1.82029 -1.32252 -24
      vertex 2.42705 -1.76336 -24
      vertex 2.18691 -2.05364 -24
    endloop
  endfacet
  facet normal 0 0 -1
    outer loop
      vertex 2.90575 -0.746069 -24
      vertex 2.17931 -0.559552 -24
      vertex 2.23226 -0.282 -24
    endloop
  endfacet
  facet normal 0 0 -1
    outer loop
      vertex 2.78933 -1.10437 -24
      vertex 2.092 -0.828279 -24
      vertex 2.17931 -0.559552 -24
    endloop
  endfacet
  facet normal 0 0 -1
    outer loop
      vertex 2.62892 -1.44526 -24
      vertex 1.97169 -1.08395 -24
      vertex 2.092 -0.828279 -24
    endloop
  endfacet
  facet normal 0 0 -1
    outer loop
      vertex 1.64018 -1.54023 -24
      vertex 2.18691 -2.05364 -24
      vertex 1.91227 -2.31154 -24
    endloop
  endfacet
  facet normal 0 0 -1
    outer loop
      vertex 2.42705 -1.76336 -24
      vertex 1.82029 -1.32252 -24
      vertex 1.97169 -1.08395 -24
    endloop
  endfacet
  facet normal 0 0 -1
    outer loop
      vertex 2.18691 -2.05364 -24
      vertex 1.64018 -1.54023 -24
      vertex 1.82029 -1.32252 -24
    endloop
  endfacet
  facet normal 0 0 -1
    outer loop
      vertex 1.4342 -1.73365 -24
      vertex 1.91227 -2.31154 -24
      vertex 1.60748 -2.53298 -24
    endloop
  endfacet
  facet normal 0 0 -1
    outer loop
      vertex 1.91227 -2.31154 -24
      vertex 1.4342 -1.73365 -24
      vertex 1.64018 -1.54023 -24
    endloop
  endfacet
  facet normal 0 0 -1
    outer loop
      vertex 1.20561 -1.89974 -24
      vertex 1.60748 -2.53298 -24
      vertex 1.27734 -2.71448 -24
    endloop
  endfacet
  facet normal 0 0 -1
    outer loop
      vertex 1.60748 -2.53298 -24
      vertex 1.20561 -1.89974 -24
      vertex 1.4342 -1.73365 -24
    endloop
  endfacet
  facet normal 0 0 -1
    outer loop
      vertex 1.27734 -2.71448 -24
      vertex 0.958003 -2.03586 -24
      vertex 1.20561 -1.89974 -24
    endloop
  endfacet
  facet normal 0 0 -1
    outer loop
      vertex 0.927051 -2.85317 -24
      vertex 0.958003 -2.03586 -24
      vertex 1.27734 -2.71448 -24
    endloop
  endfacet
  facet normal 0 0 -1
    outer loop
      vertex 0.927051 -2.85317 -24
      vertex 0.695288 -2.13988 -24
      vertex 0.958003 -2.03586 -24
    endloop
  endfacet
  facet normal 0 0 -1
    outer loop
      vertex 0.562143 -2.94686 -24
      vertex 0.695288 -2.13988 -24
      vertex 0.927051 -2.85317 -24
    endloop
  endfacet
  facet normal 0 0 -1
    outer loop
      vertex 0.562143 -2.94686 -24
      vertex 0.421607 -2.21015 -24
      vertex 0.695288 -2.13988 -24
    endloop
  endfacet
  facet normal 0 0 -1
    outer loop
      vertex 0.188371 -2.99408 -24
      vertex 0.421607 -2.21015 -24
      vertex 0.562143 -2.94686 -24
    endloop
  endfacet
  facet normal 0 0 -1
    outer loop
      vertex 0.188371 -2.99408 -24
      vertex 0.141278 -2.24556 -24
      vertex 0.421607 -2.21015 -24
    endloop
  endfacet
  facet normal 0 0 -1
    outer loop
      vertex 0.188371 -2.99408 -24
      vertex -0.141278 -2.24556 -24
      vertex 0.141278 -2.24556 -24
    endloop
  endfacet
  facet normal 0 0 -1
    outer loop
      vertex -0.188371 -2.99408 -24
      vertex -0.141278 -2.24556 -24
      vertex 0.188371 -2.99408 -24
    endloop
  endfacet
  facet normal 0 0 -1
    outer loop
      vertex -0.188371 -2.99408 -24
      vertex -0.421607 -2.21015 -24
      vertex -0.141278 -2.24556 -24
    endloop
  endfacet
  facet normal 0 0 -1
    outer loop
      vertex -0.562143 -2.94686 -24
      vertex -0.421607 -2.21015 -24
      vertex -0.188371 -2.99408 -24
    endloop
  endfacet
  facet normal 0 0 -1
    outer loop
      vertex -0.562143 -2.94686 -24
      vertex -0.695288 -2.13988 -24
      vertex -0.421607 -2.21015 -24
    endloop
  endfacet
  facet normal 0 0 -1
    outer loop
      vertex -0.927051 -2.85317 -24
      vertex -0.695288 -2.13988 -24
      vertex -0.562143 -2.94686 -24
    endloop
  endfacet
  facet normal 0 0 -1
    outer loop
      vertex -0.927051 -2.85317 -24
      vertex -0.958003 -2.03586 -24
      vertex -0.695288 -2.13988 -24
    endloop
  endfacet
  facet normal 0 0 -1
    outer loop
      vertex -1.27734 -2.71448 -24
      vertex -0.958003 -2.03586 -24
      vertex -0.927051 -2.85317 -24
    endloop
  endfacet
  facet normal -0 0 -1
    outer loop
      vertex -0.958003 -2.03586 -24
      vertex -1.27734 -2.71448 -24
      vertex -1.20561 -1.89974 -24
    endloop
  endfacet
  facet normal 0 0 -1
    outer loop
      vertex -1.60748 -2.53298 -24
      vertex -1.20561 -1.89974 -24
      vertex -1.27734 -2.71448 -24
    endloop
  endfacet
  facet normal -0 0 -1
    outer loop
      vertex -1.20561 -1.89974 -24
      vertex -1.60748 -2.53298 -24
      vertex -1.4342 -1.73365 -24
    endloop
  endfacet
  facet normal 0 0 -1
    outer loop
      vertex -1.91227 -2.31154 -24
      vertex -1.4342 -1.73365 -24
      vertex -1.60748 -2.53298 -24
    endloop
  endfacet
  facet normal -0 0 -1
    outer loop
      vertex -1.4342 -1.73365 -24
      vertex -1.91227 -2.31154 -24
      vertex -1.64018 -1.54023 -24
    endloop
  endfacet
  facet normal 0 0 -1
    outer loop
      vertex -2.18691 -2.05364 -24
      vertex -1.64018 -1.54023 -24
      vertex -1.91227 -2.31154 -24
    endloop
  endfacet
  facet normal -0 0 -1
    outer loop
      vertex -1.64018 -1.54023 -24
      vertex -2.18691 -2.05364 -24
      vertex -1.82029 -1.32252 -24
    endloop
  endfacet
  facet normal 0 0 -1
    outer loop
      vertex -2.42705 -1.76336 -24
      vertex -1.82029 -1.32252 -24
      vertex -2.18691 -2.05364 -24
    endloop
  endfacet
  facet normal -0 0 -1
    outer loop
      vertex -1.82029 -1.32252 -24
      vertex -2.42705 -1.76336 -24
      vertex -1.97169 -1.08395 -24
    endloop
  endfacet
  facet normal 0 0 -1
    outer loop
      vertex -2.62892 -1.44526 -24
      vertex -1.97169 -1.08395 -24
      vertex -2.42705 -1.76336 -24
    endloop
  endfacet
  facet normal -0 0 -1
    outer loop
      vertex -1.97169 -1.08395 -24
      vertex -2.62892 -1.44526 -24
      vertex -2.092 -0.828279 -24
    endloop
  endfacet
  facet normal 0 0 -1
    outer loop
      vertex -2.78933 -1.10437 -24
      vertex -2.092 -0.828279 -24
      vertex -2.62892 -1.44526 -24
    endloop
  endfacet
  facet normal -0 0 -1
    outer loop
      vertex -2.092 -0.828279 -24
      vertex -2.78933 -1.10437 -24
      vertex -2.17931 -0.559552 -24
    endloop
  endfacet
  facet normal 0 0 -1
    outer loop
      vertex 2.092 0.828279 -24
      vertex 2.78933 1.10437 -24
      vertex 2.17931 0.559552 -24
    endloop
  endfacet
  facet normal -0 0 -1
    outer loop
      vertex 2.78933 1.10437 -24
      vertex 2.092 0.828279 -24
      vertex 2.62892 1.44526 -24
    endloop
  endfacet
  facet normal 0 0 -1
    outer loop
      vertex 1.97169 1.08395 -24
      vertex 2.62892 1.44526 -24
      vertex 2.092 0.828279 -24
    endloop
  endfacet
  facet normal -0 0 -1
    outer loop
      vertex 2.62892 1.44526 -24
      vertex 1.97169 1.08395 -24
      vertex 2.42705 1.76336 -24
    endloop
  endfacet
  facet normal 0 0 -1
    outer loop
      vertex 1.82029 1.32252 -24
      vertex 2.42705 1.76336 -24
      vertex 1.97169 1.08395 -24
    endloop
  endfacet
  facet normal -0 0 -1
    outer loop
      vertex 2.42705 1.76336 -24
      vertex 1.82029 1.32252 -24
      vertex 2.18691 2.05364 -24
    endloop
  endfacet
  facet normal 0 0 -1
    outer loop
      vertex 1.64018 1.54023 -24
      vertex 2.18691 2.05364 -24
      vertex 1.82029 1.32252 -24
    endloop
  endfacet
  facet normal -0 0 -1
    outer loop
      vertex 2.18691 2.05364 -24
      vertex 1.64018 1.54023 -24
      vertex 1.91227 2.31154 -24
    endloop
  endfacet
  facet normal 0 0 -1
    outer loop
      vertex 1.4342 1.73365 -24
      vertex 1.91227 2.31154 -24
      vertex 1.64018 1.54023 -24
    endloop
  endfacet
  facet normal -0 0 -1
    outer loop
      vertex 1.91227 2.31154 -24
      vertex 1.4342 1.73365 -24
      vertex 1.60748 2.53298 -24
    endloop
  endfacet
  facet normal 0 0 -1
    outer loop
      vertex 1.20561 1.89974 -24
      vertex 1.60748 2.53298 -24
      vertex 1.4342 1.73365 -24
    endloop
  endfacet
  facet normal -0 0 -1
    outer loop
      vertex 1.60748 2.53298 -24
      vertex 1.20561 1.89974 -24
      vertex 1.27734 2.71448 -24
    endloop
  endfacet
  facet normal 0 0 -1
    outer loop
      vertex 0.958003 2.03586 -24
      vertex 1.27734 2.71448 -24
      vertex 1.20561 1.89974 -24
    endloop
  endfacet
  facet normal 0 0 -1
    outer loop
      vertex 0.958003 2.03586 -24
      vertex 0.927051 2.85317 -24
      vertex 1.27734 2.71448 -24
    endloop
  endfacet
  facet normal 0 0 -1
    outer loop
      vertex 0.695288 2.13988 -24
      vertex 0.927051 2.85317 -24
      vertex 0.958003 2.03586 -24
    endloop
  endfacet
  facet normal 0 0 -1
    outer loop
      vertex 0.695288 2.13988 -24
      vertex 0.562143 2.94686 -24
      vertex 0.927051 2.85317 -24
    endloop
  endfacet
  facet normal 0 0 -1
    outer loop
      vertex 0.421607 2.21015 -24
      vertex 0.562143 2.94686 -24
      vertex 0.695288 2.13988 -24
    endloop
  endfacet
  facet normal 0 0 -1
    outer loop
      vertex 0.421607 2.21015 -24
      vertex 0.188371 2.99408 -24
      vertex 0.562143 2.94686 -24
    endloop
  endfacet
  facet normal 0 0 -1
    outer loop
      vertex 0.141278 2.24556 -24
      vertex 0.188371 2.99408 -24
      vertex 0.421607 2.21015 -24
    endloop
  endfacet
  facet normal 0 0 -1
    outer loop
      vertex -0.141278 2.24556 -24
      vertex 0.188371 2.99408 -24
      vertex 0.141278 2.24556 -24
    endloop
  endfacet
  facet normal 0 0 -1
    outer loop
      vertex -0.141278 2.24556 -24
      vertex -0.188371 2.99408 -24
      vertex 0.188371 2.99408 -24
    endloop
  endfacet
  facet normal 0 0 -1
    outer loop
      vertex -0.421607 2.21015 -24
      vertex -0.188371 2.99408 -24
      vertex -0.141278 2.24556 -24
    endloop
  endfacet
  facet normal 0 0 -1
    outer loop
      vertex -0.421607 2.21015 -24
      vertex -0.562143 2.94686 -24
      vertex -0.188371 2.99408 -24
    endloop
  endfacet
  facet normal 0 0 -1
    outer loop
      vertex -0.695288 2.13988 -24
      vertex -0.562143 2.94686 -24
      vertex -0.421607 2.21015 -24
    endloop
  endfacet
  facet normal 0 0 -1
    outer loop
      vertex -0.695288 2.13988 -24
      vertex -0.927051 2.85317 -24
      vertex -0.562143 2.94686 -24
    endloop
  endfacet
  facet normal 0 0 -1
    outer loop
      vertex -0.958003 2.03586 -24
      vertex -0.927051 2.85317 -24
      vertex -0.695288 2.13988 -24
    endloop
  endfacet
  facet normal 0 0 -1
    outer loop
      vertex -1.27734 2.71448 -24
      vertex -0.958003 2.03586 -24
      vertex -1.20561 1.89974 -24
    endloop
  endfacet
  facet normal 0 0 -1
    outer loop
      vertex -0.958003 2.03586 -24
      vertex -1.27734 2.71448 -24
      vertex -0.927051 2.85317 -24
    endloop
  endfacet
  facet normal 0 0 -1
    outer loop
      vertex -1.60748 2.53298 -24
      vertex -1.20561 1.89974 -24
      vertex -1.4342 1.73365 -24
    endloop
  endfacet
  facet normal 0 0 -1
    outer loop
      vertex -1.20561 1.89974 -24
      vertex -1.60748 2.53298 -24
      vertex -1.27734 2.71448 -24
    endloop
  endfacet
  facet normal 0 0 -1
    outer loop
      vertex -1.91227 2.31154 -24
      vertex -1.4342 1.73365 -24
      vertex -1.64018 1.54023 -24
    endloop
  endfacet
  facet normal 0 0 -1
    outer loop
      vertex -2.18691 2.05364 -24
      vertex -1.64018 1.54023 -24
      vertex -1.82029 1.32252 -24
    endloop
  endfacet
  facet normal 0 0 -1
    outer loop
      vertex -1.4342 1.73365 -24
      vertex -1.91227 2.31154 -24
      vertex -1.60748 2.53298 -24
    endloop
  endfacet
  facet normal 0 0 -1
    outer loop
      vertex -2.42705 1.76336 -24
      vertex -1.82029 1.32252 -24
      vertex -1.97169 1.08395 -24
    endloop
  endfacet
  facet normal 0 0 -1
    outer loop
      vertex -2.62892 1.44526 -24
      vertex -1.97169 1.08395 -24
      vertex -2.092 0.828279 -24
    endloop
  endfacet
  facet normal 0 0 -1
    outer loop
      vertex -2.78933 1.10437 -24
      vertex -2.092 0.828279 -24
      vertex -2.17931 0.559552 -24
    endloop
  endfacet
  facet normal 0 0 -1
    outer loop
      vertex -1.64018 1.54023 -24
      vertex -2.18691 2.05364 -24
      vertex -1.91227 2.31154 -24
    endloop
  endfacet
  facet normal 0 0 -1
    outer loop
      vertex -2.90575 0.746069 -24
      vertex -2.17931 0.559552 -24
      vertex -2.23226 0.282 -24
    endloop
  endfacet
  facet normal 0 0 -1
    outer loop
      vertex -2.97634 0.375999 -24
      vertex -2.23226 0.282 -24
      vertex -2.25 0 -24
    endloop
  endfacet
  facet normal 0 0 -1
    outer loop
      vertex -2.90575 -0.746069 -24
      vertex -2.17931 -0.559552 -24
      vertex -2.78933 -1.10437 -24
    endloop
  endfacet
  facet normal 0 0 -1
    outer loop
      vertex -1.82029 1.32252 -24
      vertex -2.42705 1.76336 -24
      vertex -2.18691 2.05364 -24
    endloop
  endfacet
  facet normal -0 0 -1
    outer loop
      vertex -2.17931 -0.559552 -24
      vertex -2.90575 -0.746069 -24
      vertex -2.23226 -0.282 -24
    endloop
  endfacet
  facet normal 0 0 -1
    outer loop
      vertex -1.97169 1.08395 -24
      vertex -2.62892 1.44526 -24
      vertex -2.42705 1.76336 -24
    endloop
  endfacet
  facet normal 0 0 -1
    outer loop
      vertex -2.97634 -0.375999 -24
      vertex -2.23226 -0.282 -24
      vertex -2.90575 -0.746069 -24
    endloop
  endfacet
  facet normal 0 0 -1
    outer loop
      vertex -2.092 0.828279 -24
      vertex -2.78933 1.10437 -24
      vertex -2.62892 1.44526 -24
    endloop
  endfacet
  facet normal -0 0 -1
    outer loop
      vertex -2.23226 -0.282 -24
      vertex -2.97634 -0.375999 -24
      vertex -2.25 0 -24
    endloop
  endfacet
  facet normal 0 0 -1
    outer loop
      vertex -2.17931 0.559552 -24
      vertex -2.90575 0.746069 -24
      vertex -2.78933 1.10437 -24
    endloop
  endfacet
  facet normal 0 0 -1
    outer loop
      vertex -3 0 -24
      vertex -2.25 0 -24
      vertex -2.97634 -0.375999 -24
    endloop
  endfacet
  facet normal 0 0 -1
    outer loop
      vertex -2.23226 0.282 -24
      vertex -2.97634 0.375999 -24
      vertex -2.90575 0.746069 -24
    endloop
  endfacet
  facet normal 0 0 -1
    outer loop
      vertex -2.25 0 -24
      vertex -3 0 -24
      vertex -2.97634 0.375999 -24
    endloop
  endfacet
  facet normal 0.368126 -0.929776 0
    outer loop
      vertex 0.927051 -2.85317 -24
      vertex 1.27734 -2.71448 24
      vertex 0.927051 -2.85317 24
    endloop
  endfacet
  facet normal 0.368126 -0.929776 0
    outer loop
      vertex 1.27734 -2.71448 24
      vertex 0.927051 -2.85317 -24
      vertex 1.27734 -2.71448 -24
    endloop
  endfacet
  facet normal 0.481762 0.876302 -0
    outer loop
      vertex 1.60748 2.53298 -24
      vertex 1.27734 2.71448 24
      vertex 1.60748 2.53298 24
    endloop
  endfacet
  facet normal 0.481762 0.876302 0
    outer loop
      vertex 1.27734 2.71448 24
      vertex 1.60748 2.53298 -24
      vertex 1.27734 2.71448 -24
    endloop
  endfacet
  facet normal 0.481762 -0.876302 0
    outer loop
      vertex 1.27734 -2.71448 -24
      vertex 1.60748 -2.53298 24
      vertex 1.27734 -2.71448 24
    endloop
  endfacet
  facet normal 0.481762 -0.876302 0
    outer loop
      vertex 1.60748 -2.53298 24
      vertex 1.27734 -2.71448 -24
      vertex 1.60748 -2.53298 -24
    endloop
  endfacet
  facet normal 0.904828 -0.425778 0
    outer loop
      vertex 2.62892 -1.44526 24
      vertex 2.78933 -1.10437 -24
      vertex 2.78933 -1.10437 24
    endloop
  endfacet
  facet normal 0.904828 -0.425778 0
    outer loop
      vertex 2.78933 -1.10437 -24
      vertex 2.62892 -1.44526 24
      vertex 2.62892 -1.44526 -24
    endloop
  endfacet
  facet normal 0.770514 -0.637423 0
    outer loop
      vertex 2.18691 -2.05364 24
      vertex 2.42705 -1.76336 -24
      vertex 2.42705 -1.76336 24
    endloop
  endfacet
  facet normal 0.770514 -0.637423 0
    outer loop
      vertex 2.42705 -1.76336 -24
      vertex 2.18691 -2.05364 24
      vertex 2.18691 -2.05364 -24
    endloop
  endfacet
  facet normal 0.998026 -0.0628015 0
    outer loop
      vertex 2.97634 -0.375999 24
      vertex 3 0 -24
      vertex 3 0 24
    endloop
  endfacet
  facet normal 0.998026 -0.0628015 0
    outer loop
      vertex 3 0 -24
      vertex 2.97634 -0.375999 24
      vertex 2.97634 -0.375999 -24
    endloop
  endfacet
  facet normal -0.368126 -0.929776 0
    outer loop
      vertex -1.27734 -2.71448 -24
      vertex -0.927051 -2.85317 24
      vertex -1.27734 -2.71448 24
    endloop
  endfacet
  facet normal -0.368126 -0.929776 -0
    outer loop
      vertex -0.927051 -2.85317 24
      vertex -1.27734 -2.71448 -24
      vertex -0.927051 -2.85317 -24
    endloop
  endfacet
  facet normal -0.248684 -0.968585 0
    outer loop
      vertex -0.927051 -2.85317 -24
      vertex -0.562143 -2.94686 24
      vertex -0.927051 -2.85317 24
    endloop
  endfacet
  facet normal -0.248684 -0.968585 -0
    outer loop
      vertex -0.562143 -2.94686 24
      vertex -0.927051 -2.85317 -24
      vertex -0.562143 -2.94686 -24
    endloop
  endfacet
  facet normal -0.684541 -0.728974 0
    outer loop
      vertex -2.18691 -2.05364 -24
      vertex -1.91227 -2.31154 24
      vertex -2.18691 -2.05364 24
    endloop
  endfacet
  facet normal -0.684541 -0.728974 -0
    outer loop
      vertex -1.91227 -2.31154 24
      vertex -2.18691 -2.05364 -24
      vertex -1.91227 -2.31154 -24
    endloop
  endfacet
  facet normal -0.951056 -0.309019 0
    outer loop
      vertex -2.78933 -1.10437 -24
      vertex -2.90575 -0.746069 24
      vertex -2.90575 -0.746069 -24
    endloop
  endfacet
  facet normal -0.951056 -0.309019 0
    outer loop
      vertex -2.90575 -0.746069 24
      vertex -2.78933 -1.10437 -24
      vertex -2.78933 -1.10437 24
    endloop
  endfacet
  facet normal 0.248684 -0.968585 0
    outer loop
      vertex 0.562143 -2.94686 -24
      vertex 0.927051 -2.85317 24
      vertex 0.562143 -2.94686 24
    endloop
  endfacet
  facet normal 0.248684 -0.968585 0
    outer loop
      vertex 0.927051 -2.85317 24
      vertex 0.562143 -2.94686 -24
      vertex 0.927051 -2.85317 -24
    endloop
  endfacet
  facet normal 0.58778 -0.809021 0
    outer loop
      vertex 1.60748 -2.53298 -24
      vertex 1.91227 -2.31154 24
      vertex 1.60748 -2.53298 24
    endloop
  endfacet
  facet normal 0.58778 -0.809021 0
    outer loop
      vertex 1.91227 -2.31154 24
      vertex 1.60748 -2.53298 -24
      vertex 1.91227 -2.31154 -24
    endloop
  endfacet
  facet normal 0.844331 -0.535822 0
    outer loop
      vertex 2.42705 -1.76336 24
      vertex 2.62892 -1.44526 -24
      vertex 2.62892 -1.44526 24
    endloop
  endfacet
  facet normal 0.844331 -0.535822 0
    outer loop
      vertex 2.62892 -1.44526 -24
      vertex 2.42705 -1.76336 24
      vertex 2.42705 -1.76336 -24
    endloop
  endfacet
  facet normal -0.125337 -0.992114 0
    outer loop
      vertex -0.562143 -2.94686 -24
      vertex -0.188371 -2.99408 24
      vertex -0.562143 -2.94686 24
    endloop
  endfacet
  facet normal -0.125337 -0.992114 -0
    outer loop
      vertex -0.188371 -2.99408 24
      vertex -0.562143 -2.94686 -24
      vertex -0.188371 -2.99408 -24
    endloop
  endfacet
  facet normal -0.58778 -0.809021 0
    outer loop
      vertex -1.91227 -2.31154 -24
      vertex -1.60748 -2.53298 24
      vertex -1.91227 -2.31154 24
    endloop
  endfacet
  facet normal -0.58778 -0.809021 -0
    outer loop
      vertex -1.60748 -2.53298 24
      vertex -1.91227 -2.31154 -24
      vertex -1.60748 -2.53298 -24
    endloop
  endfacet
  facet normal -0.844331 -0.535822 0
    outer loop
      vertex -2.42705 -1.76336 -24
      vertex -2.62892 -1.44526 24
      vertex -2.62892 -1.44526 -24
    endloop
  endfacet
  facet normal -0.844331 -0.535822 0
    outer loop
      vertex -2.62892 -1.44526 24
      vertex -2.42705 -1.76336 -24
      vertex -2.42705 -1.76336 24
    endloop
  endfacet
  facet normal -0.98229 -0.187369 0
    outer loop
      vertex -2.90575 -0.746069 -24
      vertex -2.97634 -0.375999 24
      vertex -2.97634 -0.375999 -24
    endloop
  endfacet
  facet normal -0.98229 -0.187369 0
    outer loop
      vertex -2.97634 -0.375999 24
      vertex -2.90575 -0.746069 -24
      vertex -2.90575 -0.746069 24
    endloop
  endfacet
  facet normal -0.998026 -0.0628015 0
    outer loop
      vertex -2.97634 -0.375999 -24
      vertex -3 0 24
      vertex -3 0 -24
    endloop
  endfacet
  facet normal -0.998026 -0.0628015 0
    outer loop
      vertex -3 0 24
      vertex -2.97634 -0.375999 -24
      vertex -2.97634 -0.375999 24
    endloop
  endfacet
  facet normal -0.481762 -0.876302 0
    outer loop
      vertex -1.60748 -2.53298 -24
      vertex -1.27734 -2.71448 24
      vertex -1.60748 -2.53298 24
    endloop
  endfacet
  facet normal -0.481762 -0.876302 -0
    outer loop
      vertex -1.27734 -2.71448 24
      vertex -1.60748 -2.53298 -24
      vertex -1.27734 -2.71448 -24
    endloop
  endfacet
  facet normal -0.770514 -0.637423 0
    outer loop
      vertex -2.18691 -2.05364 -24
      vertex -2.42705 -1.76336 24
      vertex -2.42705 -1.76336 -24
    endloop
  endfacet
  facet normal -0.770514 -0.637423 0
    outer loop
      vertex -2.42705 -1.76336 24
      vertex -2.18691 -2.05364 -24
      vertex -2.18691 -2.05364 24
    endloop
  endfacet
  facet normal -0.998027 -0.0627837 0
    outer loop
      vertex 2.25 0 -24
      vertex 2.23226 0.282 24
      vertex 2.23226 0.282 -24
    endloop
  endfacet
  facet normal -0.998027 -0.0627837 0
    outer loop
      vertex 2.23226 0.282 24
      vertex 2.25 0 -24
      vertex 2.25 0 24
    endloop
  endfacet
  facet normal 0.998027 -0.0627837 0
    outer loop
      vertex -2.25 0 24
      vertex -2.23226 0.282 -24
      vertex -2.23226 0.282 24
    endloop
  endfacet
  facet normal 0.998027 -0.0627837 0
    outer loop
      vertex -2.23226 0.282 -24
      vertex -2.25 0 24
      vertex -2.25 0 -24
    endloop
  endfacet
  facet normal 0 -1 0
    outer loop
      vertex -0.141278 2.24556 -24
      vertex 0.141278 2.24556 24
      vertex -0.141278 2.24556 24
    endloop
  endfacet
  facet normal 0 -1 -0
    outer loop
      vertex 0.141278 2.24556 24
      vertex -0.141278 2.24556 -24
      vertex 0.141278 2.24556 -24
    endloop
  endfacet
  facet normal -0.684532 -0.728983 0
    outer loop
      vertex 1.4342 1.73365 -24
      vertex 1.64018 1.54023 24
      vertex 1.4342 1.73365 24
    endloop
  endfacet
  facet normal -0.684532 -0.728983 -0
    outer loop
      vertex 1.64018 1.54023 24
      vertex 1.4342 1.73365 -24
      vertex 1.64018 1.54023 -24
    endloop
  endfacet
  facet normal 0.684532 -0.728983 0
    outer loop
      vertex -1.64018 1.54023 -24
      vertex -1.4342 1.73365 24
      vertex -1.64018 1.54023 24
    endloop
  endfacet
  facet normal 0.684532 -0.728983 0
    outer loop
      vertex -1.4342 1.73365 24
      vertex -1.64018 1.54023 -24
      vertex -1.4342 1.73365 -24
    endloop
  endfacet
  facet normal 0.368136 -0.929772 0
    outer loop
      vertex -0.958003 2.03586 -24
      vertex -0.695288 2.13988 24
      vertex -0.958003 2.03586 24
    endloop
  endfacet
  facet normal 0.368136 -0.929772 0
    outer loop
      vertex -0.695288 2.13988 24
      vertex -0.958003 2.03586 -24
      vertex -0.695288 2.13988 -24
    endloop
  endfacet
  facet normal -0.904827 -0.42578 0
    outer loop
      vertex 2.092 0.828279 -24
      vertex 1.97169 1.08395 24
      vertex 1.97169 1.08395 -24
    endloop
  endfacet
  facet normal -0.904827 -0.42578 0
    outer loop
      vertex 1.97169 1.08395 24
      vertex 2.092 0.828279 -24
      vertex 2.092 0.828279 24
    endloop
  endfacet
  facet normal -0.982285 -0.187395 0
    outer loop
      vertex 2.23226 0.282 -24
      vertex 2.17931 0.559552 24
      vertex 2.17931 0.559552 -24
    endloop
  endfacet
  facet normal -0.982285 -0.187395 0
    outer loop
      vertex 2.17931 0.559552 24
      vertex 2.23226 0.282 -24
      vertex 2.23226 0.282 24
    endloop
  endfacet
  facet normal -0.368136 -0.929772 0
    outer loop
      vertex 0.695288 2.13988 -24
      vertex 0.958003 2.03586 24
      vertex 0.695288 2.13988 24
    endloop
  endfacet
  facet normal -0.368136 -0.929772 -0
    outer loop
      vertex 0.958003 2.03586 24
      vertex 0.695288 2.13988 -24
      vertex 0.958003 2.03586 -24
    endloop
  endfacet
  facet normal -0.248692 -0.968583 0
    outer loop
      vertex 0.421607 2.21015 -24
      vertex 0.695288 2.13988 24
      vertex 0.421607 2.21015 24
    endloop
  endfacet
  facet normal -0.248692 -0.968583 -0
    outer loop
      vertex 0.695288 2.13988 24
      vertex 0.421607 2.21015 -24
      vertex 0.695288 2.13988 -24
    endloop
  endfacet
  facet normal -0.587808 -0.809001 0
    outer loop
      vertex 1.20561 1.89974 -24
      vertex 1.4342 1.73365 24
      vertex 1.20561 1.89974 24
    endloop
  endfacet
  facet normal -0.587808 -0.809001 -0
    outer loop
      vertex 1.4342 1.73365 24
      vertex 1.20561 1.89974 -24
      vertex 1.4342 1.73365 -24
    endloop
  endfacet
  facet normal 0.84433 -0.535824 0
    outer loop
      vertex -1.97169 1.08395 24
      vertex -1.82029 1.32252 -24
      vertex -1.82029 1.32252 24
    endloop
  endfacet
  facet normal 0.84433 -0.535824 0
    outer loop
      vertex -1.82029 1.32252 -24
      vertex -1.97169 1.08395 24
      vertex -1.97169 1.08395 -24
    endloop
  endfacet
  facet normal 0.770505 -0.637434 0
    outer loop
      vertex -1.82029 1.32252 24
      vertex -1.64018 1.54023 -24
      vertex -1.64018 1.54023 24
    endloop
  endfacet
  facet normal 0.770505 -0.637434 0
    outer loop
      vertex -1.64018 1.54023 -24
      vertex -1.82029 1.32252 24
      vertex -1.82029 1.32252 -24
    endloop
  endfacet
  facet normal 0.951061 -0.309002 0
    outer loop
      vertex -2.17931 0.559552 24
      vertex -2.092 0.828279 -24
      vertex -2.092 0.828279 24
    endloop
  endfacet
  facet normal 0.951061 -0.309002 0
    outer loop
      vertex -2.092 0.828279 -24
      vertex -2.17931 0.559552 24
      vertex -2.17931 0.559552 -24
    endloop
  endfacet
  facet normal 0.481745 -0.876311 0
    outer loop
      vertex -1.20561 1.89974 -24
      vertex -0.958003 2.03586 24
      vertex -1.20561 1.89974 24
    endloop
  endfacet
  facet normal 0.481745 -0.876311 0
    outer loop
      vertex -0.958003 2.03586 24
      vertex -1.20561 1.89974 -24
      vertex -0.958003 2.03586 -24
    endloop
  endfacet
  facet normal 0.12532 -0.992116 0
    outer loop
      vertex -0.421607 2.21015 -24
      vertex -0.141278 2.24556 24
      vertex -0.421607 2.21015 24
    endloop
  endfacet
  facet normal 0.12532 -0.992116 0
    outer loop
      vertex -0.141278 2.24556 24
      vertex -0.421607 2.21015 -24
      vertex -0.141278 2.24556 -24
    endloop
  endfacet
  facet normal -0.84433 0.535824 0
    outer loop
      vertex 1.82029 -1.32252 -24
      vertex 1.97169 -1.08395 24
      vertex 1.97169 -1.08395 -24
    endloop
  endfacet
  facet normal -0.84433 0.535824 0
    outer loop
      vertex 1.97169 -1.08395 24
      vertex 1.82029 -1.32252 -24
      vertex 1.82029 -1.32252 24
    endloop
  endfacet
  facet normal -0.998027 0.0627837 0
    outer loop
      vertex 2.23226 -0.282 -24
      vertex 2.25 0 24
      vertex 2.25 0 -24
    endloop
  endfacet
  facet normal -0.998027 0.0627837 0
    outer loop
      vertex 2.25 0 24
      vertex 2.23226 -0.282 -24
      vertex 2.23226 -0.282 24
    endloop
  endfacet
  facet normal -0.12532 0.992116 0
    outer loop
      vertex 0.421607 -2.21015 -24
      vertex 0.141278 -2.24556 24
      vertex 0.421607 -2.21015 24
    endloop
  endfacet
  facet normal -0.12532 0.992116 0
    outer loop
      vertex 0.141278 -2.24556 24
      vertex 0.421607 -2.21015 -24
      vertex 0.141278 -2.24556 -24
    endloop
  endfacet
  facet normal -0.951061 -0.309002 0
    outer loop
      vertex 2.17931 0.559552 -24
      vertex 2.092 0.828279 24
      vertex 2.092 0.828279 -24
    endloop
  endfacet
  facet normal -0.951061 -0.309002 0
    outer loop
      vertex 2.092 0.828279 24
      vertex 2.17931 0.559552 -24
      vertex 2.17931 0.559552 24
    endloop
  endfacet
  facet normal -0.770505 -0.637434 0
    outer loop
      vertex 1.82029 1.32252 -24
      vertex 1.64018 1.54023 24
      vertex 1.64018 1.54023 -24
    endloop
  endfacet
  facet normal -0.770505 -0.637434 0
    outer loop
      vertex 1.64018 1.54023 24
      vertex 1.82029 1.32252 -24
      vertex 1.82029 1.32252 24
    endloop
  endfacet
  facet normal -0.84433 -0.535824 0
    outer loop
      vertex 1.97169 1.08395 -24
      vertex 1.82029 1.32252 24
      vertex 1.82029 1.32252 -24
    endloop
  endfacet
  facet normal -0.84433 -0.535824 0
    outer loop
      vertex 1.82029 1.32252 24
      vertex 1.97169 1.08395 -24
      vertex 1.97169 1.08395 24
    endloop
  endfacet
  facet normal -0.12532 -0.992116 0
    outer loop
      vertex 0.141278 2.24556 -24
      vertex 0.421607 2.21015 24
      vertex 0.141278 2.24556 24
    endloop
  endfacet
  facet normal -0.12532 -0.992116 -0
    outer loop
      vertex 0.421607 2.21015 24
      vertex 0.141278 2.24556 -24
      vertex 0.421607 2.21015 -24
    endloop
  endfacet
  facet normal -0.481745 -0.876311 0
    outer loop
      vertex 0.958003 2.03586 -24
      vertex 1.20561 1.89974 24
      vertex 0.958003 2.03586 24
    endloop
  endfacet
  facet normal -0.481745 -0.876311 -0
    outer loop
      vertex 1.20561 1.89974 24
      vertex 0.958003 2.03586 -24
      vertex 1.20561 1.89974 -24
    endloop
  endfacet
  facet normal 0.904827 -0.42578 0
    outer loop
      vertex -2.092 0.828279 24
      vertex -1.97169 1.08395 -24
      vertex -1.97169 1.08395 24
    endloop
  endfacet
  facet normal 0.904827 -0.42578 0
    outer loop
      vertex -1.97169 1.08395 -24
      vertex -2.092 0.828279 24
      vertex -2.092 0.828279 -24
    endloop
  endfacet
  facet normal 0.982285 -0.187395 0
    outer loop
      vertex -2.23226 0.282 24
      vertex -2.17931 0.559552 -24
      vertex -2.17931 0.559552 24
    endloop
  endfacet
  facet normal 0.982285 -0.187395 0
    outer loop
      vertex -2.17931 0.559552 -24
      vertex -2.23226 0.282 24
      vertex -2.23226 0.282 -24
    endloop
  endfacet
  facet normal 0.587808 -0.809001 0
    outer loop
      vertex -1.4342 1.73365 -24
      vertex -1.20561 1.89974 24
      vertex -1.4342 1.73365 24
    endloop
  endfacet
  facet normal 0.587808 -0.809001 0
    outer loop
      vertex -1.20561 1.89974 24
      vertex -1.4342 1.73365 -24
      vertex -1.20561 1.89974 -24
    endloop
  endfacet
  facet normal 0.248692 -0.968583 0
    outer loop
      vertex -0.695288 2.13988 -24
      vertex -0.421607 2.21015 24
      vertex -0.695288 2.13988 24
    endloop
  endfacet
  facet normal 0.248692 -0.968583 0
    outer loop
      vertex -0.421607 2.21015 24
      vertex -0.695288 2.13988 -24
      vertex -0.421607 2.21015 -24
    endloop
  endfacet
  facet normal -0.982285 0.187395 0
    outer loop
      vertex 2.17931 -0.559552 -24
      vertex 2.23226 -0.282 24
      vertex 2.23226 -0.282 -24
    endloop
  endfacet
  facet normal -0.982285 0.187395 0
    outer loop
      vertex 2.23226 -0.282 24
      vertex 2.17931 -0.559552 -24
      vertex 2.17931 -0.559552 24
    endloop
  endfacet
  facet normal 0.481745 0.876311 -0
    outer loop
      vertex -0.958003 -2.03586 -24
      vertex -1.20561 -1.89974 24
      vertex -0.958003 -2.03586 24
    endloop
  endfacet
  facet normal 0.481745 0.876311 0
    outer loop
      vertex -1.20561 -1.89974 24
      vertex -0.958003 -2.03586 -24
      vertex -1.20561 -1.89974 -24
    endloop
  endfacet
  facet normal 0.951061 0.309002 0
    outer loop
      vertex -2.092 -0.828279 24
      vertex -2.17931 -0.559552 -24
      vertex -2.17931 -0.559552 24
    endloop
  endfacet
  facet normal 0.951061 0.309002 0
    outer loop
      vertex -2.17931 -0.559552 -24
      vertex -2.092 -0.828279 24
      vertex -2.092 -0.828279 -24
    endloop
  endfacet
  facet normal -0.368136 0.929772 0
    outer loop
      vertex 0.958003 -2.03586 -24
      vertex 0.695288 -2.13988 24
      vertex 0.958003 -2.03586 24
    endloop
  endfacet
  facet normal -0.368136 0.929772 0
    outer loop
      vertex 0.695288 -2.13988 24
      vertex 0.958003 -2.03586 -24
      vertex 0.695288 -2.13988 -24
    endloop
  endfacet
  facet normal -0.248692 0.968583 0
    outer loop
      vertex 0.695288 -2.13988 -24
      vertex 0.421607 -2.21015 24
      vertex 0.695288 -2.13988 24
    endloop
  endfacet
  facet normal -0.248692 0.968583 0
    outer loop
      vertex 0.421607 -2.21015 24
      vertex 0.695288 -2.13988 -24
      vertex 0.421607 -2.21015 -24
    endloop
  endfacet
  facet normal -0.951061 0.309002 0
    outer loop
      vertex 2.092 -0.828279 -24
      vertex 2.17931 -0.559552 24
      vertex 2.17931 -0.559552 -24
    endloop
  endfacet
  facet normal -0.951061 0.309002 0
    outer loop
      vertex 2.17931 -0.559552 24
      vertex 2.092 -0.828279 -24
      vertex 2.092 -0.828279 24
    endloop
  endfacet
  facet normal -0.904827 0.42578 0
    outer loop
      vertex 1.97169 -1.08395 -24
      vertex 2.092 -0.828279 24
      vertex 2.092 -0.828279 -24
    endloop
  endfacet
  facet normal -0.904827 0.42578 0
    outer loop
      vertex 2.092 -0.828279 24
      vertex 1.97169 -1.08395 -24
      vertex 1.97169 -1.08395 24
    endloop
  endfacet
  facet normal 0.12532 0.992116 -0
    outer loop
      vertex -0.141278 -2.24556 -24
      vertex -0.421607 -2.21015 24
      vertex -0.141278 -2.24556 24
    endloop
  endfacet
  facet normal 0.12532 0.992116 0
    outer loop
      vertex -0.421607 -2.21015 24
      vertex -0.141278 -2.24556 -24
      vertex -0.421607 -2.21015 -24
    endloop
  endfacet
  facet normal 0.587808 0.809001 -0
    outer loop
      vertex -1.20561 -1.89974 -24
      vertex -1.4342 -1.73365 24
      vertex -1.20561 -1.89974 24
    endloop
  endfacet
  facet normal 0.587808 0.809001 0
    outer loop
      vertex -1.4342 -1.73365 24
      vertex -1.20561 -1.89974 -24
      vertex -1.4342 -1.73365 -24
    endloop
  endfacet
  facet normal 0.770505 0.637434 0
    outer loop
      vertex -1.64018 -1.54023 24
      vertex -1.82029 -1.32252 -24
      vertex -1.82029 -1.32252 24
    endloop
  endfacet
  facet normal 0.770505 0.637434 0
    outer loop
      vertex -1.82029 -1.32252 -24
      vertex -1.64018 -1.54023 24
      vertex -1.64018 -1.54023 -24
    endloop
  endfacet
  facet normal 0.998027 0.0627837 0
    outer loop
      vertex -2.23226 -0.282 24
      vertex -2.25 0 -24
      vertex -2.25 0 24
    endloop
  endfacet
  facet normal 0.998027 0.0627837 0
    outer loop
      vertex -2.25 0 -24
      vertex -2.23226 -0.282 24
      vertex -2.23226 -0.282 -24
    endloop
  endfacet
  facet normal -0.770505 0.637434 0
    outer loop
      vertex 1.64018 -1.54023 -24
      vertex 1.82029 -1.32252 24
      vertex 1.82029 -1.32252 -24
    endloop
  endfacet
  facet normal -0.770505 0.637434 0
    outer loop
      vertex 1.82029 -1.32252 24
      vertex 1.64018 -1.54023 -24
      vertex 1.64018 -1.54023 24
    endloop
  endfacet
  facet normal -0.587808 0.809001 0
    outer loop
      vertex 1.4342 -1.73365 -24
      vertex 1.20561 -1.89974 24
      vertex 1.4342 -1.73365 24
    endloop
  endfacet
  facet normal -0.587808 0.809001 0
    outer loop
      vertex 1.20561 -1.89974 24
      vertex 1.4342 -1.73365 -24
      vertex 1.20561 -1.89974 -24
    endloop
  endfacet
  facet normal -0.481745 0.876311 0
    outer loop
      vertex 1.20561 -1.89974 -24
      vertex 0.958003 -2.03586 24
      vertex 1.20561 -1.89974 24
    endloop
  endfacet
  facet normal -0.481745 0.876311 0
    outer loop
      vertex 0.958003 -2.03586 24
      vertex 1.20561 -1.89974 -24
      vertex 0.958003 -2.03586 -24
    endloop
  endfacet
  facet normal 0 1 -0
    outer loop
      vertex 0.141278 -2.24556 -24
      vertex -0.141278 -2.24556 24
      vertex 0.141278 -2.24556 24
    endloop
  endfacet
  facet normal 0 1 0
    outer loop
      vertex -0.141278 -2.24556 24
      vertex 0.141278 -2.24556 -24
      vertex -0.141278 -2.24556 -24
    endloop
  endfacet
  facet normal 0.684532 0.728983 -0
    outer loop
      vertex -1.4342 -1.73365 -24
      vertex -1.64018 -1.54023 24
      vertex -1.4342 -1.73365 24
    endloop
  endfacet
  facet normal 0.684532 0.728983 0
    outer loop
      vertex -1.64018 -1.54023 24
      vertex -1.4342 -1.73365 -24
      vertex -1.64018 -1.54023 -24
    endloop
  endfacet
  facet normal 0.84433 0.535824 0
    outer loop
      vertex -1.82029 -1.32252 24
      vertex -1.97169 -1.08395 -24
      vertex -1.97169 -1.08395 24
    endloop
  endfacet
  facet normal 0.84433 0.535824 0
    outer loop
      vertex -1.97169 -1.08395 -24
      vertex -1.82029 -1.32252 24
      vertex -1.82029 -1.32252 -24
    endloop
  endfacet
  facet normal 0.904827 0.42578 0
    outer loop
      vertex -1.97169 -1.08395 24
      vertex -2.092 -0.828279 -24
      vertex -2.092 -0.828279 24
    endloop
  endfacet
  facet normal 0.904827 0.42578 0
    outer loop
      vertex -2.092 -0.828279 -24
      vertex -1.97169 -1.08395 24
      vertex -1.97169 -1.08395 -24
    endloop
  endfacet
  facet normal 0.982285 0.187395 0
    outer loop
      vertex -2.17931 -0.559552 24
      vertex -2.23226 -0.282 -24
      vertex -2.23226 -0.282 24
    endloop
  endfacet
  facet normal 0.982285 0.187395 0
    outer loop
      vertex -2.23226 -0.282 -24
      vertex -2.17931 -0.559552 24
      vertex -2.17931 -0.559552 -24
    endloop
  endfacet
  facet normal -0.684532 0.728983 0
    outer loop
      vertex 1.64018 -1.54023 -24
      vertex 1.4342 -1.73365 24
      vertex 1.64018 -1.54023 24
    endloop
  endfacet
  facet normal -0.684532 0.728983 0
    outer loop
      vertex 1.4342 -1.73365 24
      vertex 1.64018 -1.54023 -24
      vertex 1.4342 -1.73365 -24
    endloop
  endfacet
  facet normal 0.248692 0.968583 -0
    outer loop
      vertex -0.421607 -2.21015 -24
      vertex -0.695288 -2.13988 24
      vertex -0.421607 -2.21015 24
    endloop
  endfacet
  facet normal 0.248692 0.968583 0
    outer loop
      vertex -0.695288 -2.13988 24
      vertex -0.421607 -2.21015 -24
      vertex -0.695288 -2.13988 -24
    endloop
  endfacet
  facet normal 0.368136 0.929772 -0
    outer loop
      vertex -0.695288 -2.13988 -24
      vertex -0.958003 -2.03586 24
      vertex -0.695288 -2.13988 24
    endloop
  endfacet
  facet normal 0.368136 0.929772 0
    outer loop
      vertex -0.958003 -2.03586 24
      vertex -0.695288 -2.13988 -24
      vertex -0.958003 -2.03586 -24
    endloop
  endfacet
endsolid OpenSCAD_Model
