solid OpenSCAD_Model
  facet normal 0.998027 0.0627918 0
    outer loop
      vertex 5.5 0 3.5
      vertex 5.45663 0.689332 -3.5
      vertex 5.45663 0.689332 3.5
    endloop
  endfacet
  facet normal 0.998027 0.0627918 0
    outer loop
      vertex 5.45663 0.689332 -3.5
      vertex 5.5 0 3.5
      vertex 5.5 0 -3.5
    endloop
  endfacet
  facet normal -0.998027 0.0627918 0
    outer loop
      vertex -5.5 0 -3.5
      vertex -5.45663 0.689332 3.5
      vertex -5.45663 0.689332 -3.5
    endloop
  endfacet
  facet normal -0.998027 0.0627918 0
    outer loop
      vertex -5.45663 0.689332 3.5
      vertex -5.5 0 -3.5
      vertex -5.5 0 3.5
    endloop
  endfacet
  facet normal 0 1 -0
    outer loop
      vertex 0.345347 5.48915 -3.5
      vertex -0.345347 5.48915 3.5
      vertex 0.345347 5.48915 3.5
    endloop
  endfacet
  facet normal 0 1 0
    outer loop
      vertex -0.345347 5.48915 3.5
      vertex 0.345347 5.48915 -3.5
      vertex -0.345347 5.48915 -3.5
    endloop
  endfacet
  facet normal 0.684541 0.728974 -0
    outer loop
      vertex 4.00933 3.76501 -3.5
      vertex 3.50583 4.23782 3.5
      vertex 4.00933 3.76501 3.5
    endloop
  endfacet
  facet normal 0.684541 0.728974 0
    outer loop
      vertex 3.50583 4.23782 3.5
      vertex 4.00933 3.76501 -3.5
      vertex 3.50583 4.23782 -3.5
    endloop
  endfacet
  facet normal -0.684541 0.728974 0
    outer loop
      vertex -3.50583 4.23782 -3.5
      vertex -4.00933 3.76501 3.5
      vertex -3.50583 4.23782 3.5
    endloop
  endfacet
  facet normal -0.684541 0.728974 0
    outer loop
      vertex -4.00933 3.76501 3.5
      vertex -3.50583 4.23782 -3.5
      vertex -4.00933 3.76501 -3.5
    endloop
  endfacet
  facet normal -0.368118 0.929779 0
    outer loop
      vertex -1.69959 5.23081 -3.5
      vertex -2.34179 4.97655 3.5
      vertex -1.69959 5.23081 3.5
    endloop
  endfacet
  facet normal -0.368118 0.929779 0
    outer loop
      vertex -2.34179 4.97655 3.5
      vertex -1.69959 5.23081 -3.5
      vertex -2.34179 4.97655 -3.5
    endloop
  endfacet
  facet normal 0.904829 0.425775 0
    outer loop
      vertex 5.11377 2.02468 3.5
      vertex 4.81969 2.64964 -3.5
      vertex 4.81969 2.64964 3.5
    endloop
  endfacet
  facet normal 0.904829 0.425775 0
    outer loop
      vertex 4.81969 2.64964 -3.5
      vertex 5.11377 2.02468 3.5
      vertex 5.11377 2.02468 -3.5
    endloop
  endfacet
  facet normal 0.368118 0.929779 -0
    outer loop
      vertex 2.34179 4.97655 -3.5
      vertex 1.69959 5.23081 3.5
      vertex 2.34179 4.97655 3.5
    endloop
  endfacet
  facet normal 0.368118 0.929779 0
    outer loop
      vertex 1.69959 5.23081 3.5
      vertex 2.34179 4.97655 -3.5
      vertex 1.69959 5.23081 -3.5
    endloop
  endfacet
  facet normal 0.248693 0.968582 -0
    outer loop
      vertex 1.69959 5.23081 -3.5
      vertex 1.0306 5.40258 3.5
      vertex 1.69959 5.23081 3.5
    endloop
  endfacet
  facet normal 0.248693 0.968582 0
    outer loop
      vertex 1.0306 5.40258 3.5
      vertex 1.69959 5.23081 -3.5
      vertex 1.0306 5.40258 -3.5
    endloop
  endfacet
  facet normal 0.587788 0.809015 -0
    outer loop
      vertex 3.50583 4.23782 -3.5
      vertex 2.94705 4.6438 3.5
      vertex 3.50583 4.23782 3.5
    endloop
  endfacet
  facet normal 0.587788 0.809015 0
    outer loop
      vertex 2.94705 4.6438 3.5
      vertex 3.50583 4.23782 -3.5
      vertex 2.94705 4.6438 -3.5
    endloop
  endfacet
  facet normal -0.844326 0.53583 0
    outer loop
      vertex -4.81969 2.64964 -3.5
      vertex -4.44959 3.23282 3.5
      vertex -4.44959 3.23282 -3.5
    endloop
  endfacet
  facet normal -0.844326 0.53583 0
    outer loop
      vertex -4.44959 3.23282 3.5
      vertex -4.81969 2.64964 -3.5
      vertex -4.81969 2.64964 3.5
    endloop
  endfacet
  facet normal -0.770517 0.637419 0
    outer loop
      vertex -4.44959 3.23282 -3.5
      vertex -4.00933 3.76501 3.5
      vertex -4.00933 3.76501 -3.5
    endloop
  endfacet
  facet normal -0.770517 0.637419 0
    outer loop
      vertex -4.00933 3.76501 3.5
      vertex -4.44959 3.23282 -3.5
      vertex -4.44959 3.23282 3.5
    endloop
  endfacet
  facet normal -0.982288 0.187377 0
    outer loop
      vertex -5.45663 0.689332 -3.5
      vertex -5.32721 1.36779 3.5
      vertex -5.32721 1.36779 -3.5
    endloop
  endfacet
  facet normal -0.982288 0.187377 0
    outer loop
      vertex -5.32721 1.36779 3.5
      vertex -5.45663 0.689332 -3.5
      vertex -5.45663 0.689332 3.5
    endloop
  endfacet
  facet normal -0.587788 0.809015 0
    outer loop
      vertex -2.94705 4.6438 -3.5
      vertex -3.50583 4.23782 3.5
      vertex -2.94705 4.6438 3.5
    endloop
  endfacet
  facet normal -0.587788 0.809015 0
    outer loop
      vertex -3.50583 4.23782 3.5
      vertex -2.94705 4.6438 -3.5
      vertex -3.50583 4.23782 -3.5
    endloop
  endfacet
  facet normal -0.125337 0.992114 0
    outer loop
      vertex -0.345347 5.48915 -3.5
      vertex -1.0306 5.40258 3.5
      vertex -0.345347 5.48915 3.5
    endloop
  endfacet
  facet normal -0.125337 0.992114 0
    outer loop
      vertex -1.0306 5.40258 3.5
      vertex -0.345347 5.48915 -3.5
      vertex -1.0306 5.40258 -3.5
    endloop
  endfacet
  facet normal -0.248693 -0.968582 0
    outer loop
      vertex -1.69959 -5.23081 -3.5
      vertex -1.0306 -5.40258 3.5
      vertex -1.69959 -5.23081 3.5
    endloop
  endfacet
  facet normal -0.248693 -0.968582 -0
    outer loop
      vertex -1.0306 -5.40258 3.5
      vertex -1.69959 -5.23081 -3.5
      vertex -1.0306 -5.40258 -3.5
    endloop
  endfacet
  facet normal 0.125337 -0.992114 0
    outer loop
      vertex 0.345347 -5.48915 -3.5
      vertex 1.0306 -5.40258 3.5
      vertex 0.345347 -5.48915 3.5
    endloop
  endfacet
  facet normal 0.125337 -0.992114 0
    outer loop
      vertex 1.0306 -5.40258 3.5
      vertex 0.345347 -5.48915 -3.5
      vertex 1.0306 -5.40258 -3.5
    endloop
  endfacet
  facet normal 0.951055 0.309022 0
    outer loop
      vertex 5.32721 1.36779 3.5
      vertex 5.11377 2.02468 -3.5
      vertex 5.11377 2.02468 3.5
    endloop
  endfacet
  facet normal 0.951055 0.309022 0
    outer loop
      vertex 5.11377 2.02468 -3.5
      vertex 5.32721 1.36779 3.5
      vertex 5.32721 1.36779 -3.5
    endloop
  endfacet
  facet normal 0.982288 0.187377 0
    outer loop
      vertex 5.45663 0.689332 3.5
      vertex 5.32721 1.36779 -3.5
      vertex 5.32721 1.36779 3.5
    endloop
  endfacet
  facet normal 0.982288 0.187377 0
    outer loop
      vertex 5.32721 1.36779 -3.5
      vertex 5.45663 0.689332 3.5
      vertex 5.45663 0.689332 -3.5
    endloop
  endfacet
  facet normal 0.770517 0.637419 0
    outer loop
      vertex 4.44959 3.23282 3.5
      vertex 4.00933 3.76501 -3.5
      vertex 4.00933 3.76501 3.5
    endloop
  endfacet
  facet normal 0.770517 0.637419 0
    outer loop
      vertex 4.00933 3.76501 -3.5
      vertex 4.44959 3.23282 3.5
      vertex 4.44959 3.23282 -3.5
    endloop
  endfacet
  facet normal 0.844326 0.53583 0
    outer loop
      vertex 4.81969 2.64964 3.5
      vertex 4.44959 3.23282 -3.5
      vertex 4.44959 3.23282 3.5
    endloop
  endfacet
  facet normal 0.844326 0.53583 0
    outer loop
      vertex 4.44959 3.23282 -3.5
      vertex 4.81969 2.64964 3.5
      vertex 4.81969 2.64964 -3.5
    endloop
  endfacet
  facet normal 0.125337 0.992114 -0
    outer loop
      vertex 1.0306 5.40258 -3.5
      vertex 0.345347 5.48915 3.5
      vertex 1.0306 5.40258 3.5
    endloop
  endfacet
  facet normal 0.125337 0.992114 0
    outer loop
      vertex 0.345347 5.48915 3.5
      vertex 1.0306 5.40258 -3.5
      vertex 0.345347 5.48915 -3.5
    endloop
  endfacet
  facet normal 0.48176 0.876303 -0
    outer loop
      vertex 2.94705 4.6438 -3.5
      vertex 2.34179 4.97655 3.5
      vertex 2.94705 4.6438 3.5
    endloop
  endfacet
  facet normal 0.48176 0.876303 0
    outer loop
      vertex 2.34179 4.97655 3.5
      vertex 2.94705 4.6438 -3.5
      vertex 2.34179 4.97655 -3.5
    endloop
  endfacet
  facet normal -0.904829 0.425775 0
    outer loop
      vertex -5.11377 2.02468 -3.5
      vertex -4.81969 2.64964 3.5
      vertex -4.81969 2.64964 -3.5
    endloop
  endfacet
  facet normal -0.904829 0.425775 0
    outer loop
      vertex -4.81969 2.64964 3.5
      vertex -5.11377 2.02468 -3.5
      vertex -5.11377 2.02468 3.5
    endloop
  endfacet
  facet normal 0 0 1
    outer loop
      vertex 2.25 0 3.5
      vertex 5.5 0 3.5
      vertex 5.45663 0.689332 3.5
    endloop
  endfacet
  facet normal 0 0 1
    outer loop
      vertex 2.23226 0.282 3.5
      vertex 5.45663 0.689332 3.5
      vertex 5.32721 1.36779 3.5
    endloop
  endfacet
  facet normal 0 0 1
    outer loop
      vertex 5.5 0 3.5
      vertex 2.25 0 3.5
      vertex 5.45663 -0.689332 3.5
    endloop
  endfacet
  facet normal 0 0 1
    outer loop
      vertex 2.17931 0.559552 3.5
      vertex 5.32721 1.36779 3.5
      vertex 5.11377 2.02468 3.5
    endloop
  endfacet
  facet normal -0 0 1
    outer loop
      vertex 2.23226 -0.282 3.5
      vertex 5.45663 -0.689332 3.5
      vertex 2.25 0 3.5
    endloop
  endfacet
  facet normal 0 0 1
    outer loop
      vertex 2.092 0.828279 3.5
      vertex 5.11377 2.02468 3.5
      vertex 4.81969 2.64964 3.5
    endloop
  endfacet
  facet normal 0 0 1
    outer loop
      vertex 5.45663 -0.689332 3.5
      vertex 2.23226 -0.282 3.5
      vertex 5.32721 -1.36779 3.5
    endloop
  endfacet
  facet normal 0 0 1
    outer loop
      vertex 1.97169 1.08395 3.5
      vertex 4.81969 2.64964 3.5
      vertex 4.44959 3.23282 3.5
    endloop
  endfacet
  facet normal -0 0 1
    outer loop
      vertex 2.17931 -0.559552 3.5
      vertex 5.32721 -1.36779 3.5
      vertex 2.23226 -0.282 3.5
    endloop
  endfacet
  facet normal 0 0 1
    outer loop
      vertex 1.82029 1.32252 3.5
      vertex 4.44959 3.23282 3.5
      vertex 4.00933 3.76501 3.5
    endloop
  endfacet
  facet normal 0 0 1
    outer loop
      vertex 5.32721 -1.36779 3.5
      vertex 2.17931 -0.559552 3.5
      vertex 5.11377 -2.02468 3.5
    endloop
  endfacet
  facet normal 0 0 1
    outer loop
      vertex 1.64018 1.54023 3.5
      vertex 4.00933 3.76501 3.5
      vertex 3.50583 4.23782 3.5
    endloop
  endfacet
  facet normal -0 0 1
    outer loop
      vertex 2.092 -0.828279 3.5
      vertex 5.11377 -2.02468 3.5
      vertex 2.17931 -0.559552 3.5
    endloop
  endfacet
  facet normal 0 0 1
    outer loop
      vertex 1.4342 1.73365 3.5
      vertex 3.50583 4.23782 3.5
      vertex 2.94705 4.6438 3.5
    endloop
  endfacet
  facet normal 0 0 1
    outer loop
      vertex 5.11377 -2.02468 3.5
      vertex 2.092 -0.828279 3.5
      vertex 4.81969 -2.64964 3.5
    endloop
  endfacet
  facet normal 0 0 1
    outer loop
      vertex 1.20561 1.89974 3.5
      vertex 2.94705 4.6438 3.5
      vertex 2.34179 4.97655 3.5
    endloop
  endfacet
  facet normal -0 0 1
    outer loop
      vertex 1.97169 -1.08395 3.5
      vertex 4.81969 -2.64964 3.5
      vertex 2.092 -0.828279 3.5
    endloop
  endfacet
  facet normal 0 0 1
    outer loop
      vertex 4.81969 -2.64964 3.5
      vertex 1.97169 -1.08395 3.5
      vertex 4.44959 -3.23282 3.5
    endloop
  endfacet
  facet normal 0 0 1
    outer loop
      vertex 5.45663 0.689332 3.5
      vertex 2.23226 0.282 3.5
      vertex 2.25 0 3.5
    endloop
  endfacet
  facet normal 0 0 1
    outer loop
      vertex 5.32721 1.36779 3.5
      vertex 2.17931 0.559552 3.5
      vertex 2.23226 0.282 3.5
    endloop
  endfacet
  facet normal 0 0 1
    outer loop
      vertex 5.11377 2.02468 3.5
      vertex 2.092 0.828279 3.5
      vertex 2.17931 0.559552 3.5
    endloop
  endfacet
  facet normal 0 0 1
    outer loop
      vertex 4.81969 2.64964 3.5
      vertex 1.97169 1.08395 3.5
      vertex 2.092 0.828279 3.5
    endloop
  endfacet
  facet normal 0 0 1
    outer loop
      vertex 4.44959 3.23282 3.5
      vertex 1.82029 1.32252 3.5
      vertex 1.97169 1.08395 3.5
    endloop
  endfacet
  facet normal 0 0 1
    outer loop
      vertex 0.958003 2.03586 3.5
      vertex 2.34179 4.97655 3.5
      vertex 1.69959 5.23081 3.5
    endloop
  endfacet
  facet normal 0 0 1
    outer loop
      vertex 4.00933 3.76501 3.5
      vertex 1.64018 1.54023 3.5
      vertex 1.82029 1.32252 3.5
    endloop
  endfacet
  facet normal 0 0 1
    outer loop
      vertex 3.50583 4.23782 3.5
      vertex 1.4342 1.73365 3.5
      vertex 1.64018 1.54023 3.5
    endloop
  endfacet
  facet normal 0 0 1
    outer loop
      vertex 2.94705 4.6438 3.5
      vertex 1.20561 1.89974 3.5
      vertex 1.4342 1.73365 3.5
    endloop
  endfacet
  facet normal 0 0 1
    outer loop
      vertex 0.695288 2.13988 3.5
      vertex 1.69959 5.23081 3.5
      vertex 1.0306 5.40258 3.5
    endloop
  endfacet
  facet normal 0 0 1
    outer loop
      vertex 2.34179 4.97655 3.5
      vertex 0.958003 2.03586 3.5
      vertex 1.20561 1.89974 3.5
    endloop
  endfacet
  facet normal 0 0 1
    outer loop
      vertex 1.69959 5.23081 3.5
      vertex 0.695288 2.13988 3.5
      vertex 0.958003 2.03586 3.5
    endloop
  endfacet
  facet normal 0 0 1
    outer loop
      vertex 1.0306 5.40258 3.5
      vertex 0.421607 2.21015 3.5
      vertex 0.695288 2.13988 3.5
    endloop
  endfacet
  facet normal 0 0 1
    outer loop
      vertex 0.345347 5.48915 3.5
      vertex 0.421607 2.21015 3.5
      vertex 1.0306 5.40258 3.5
    endloop
  endfacet
  facet normal 0 0 1
    outer loop
      vertex 0.345347 5.48915 3.5
      vertex 0.141278 2.24556 3.5
      vertex 0.421607 2.21015 3.5
    endloop
  endfacet
  facet normal 0 0 1
    outer loop
      vertex 0.345347 5.48915 3.5
      vertex -0.141278 2.24556 3.5
      vertex 0.141278 2.24556 3.5
    endloop
  endfacet
  facet normal -0 0 1
    outer loop
      vertex -0.345347 5.48915 3.5
      vertex -0.141278 2.24556 3.5
      vertex 0.345347 5.48915 3.5
    endloop
  endfacet
  facet normal 0 0 1
    outer loop
      vertex -0.345347 5.48915 3.5
      vertex -0.421607 2.21015 3.5
      vertex -0.141278 2.24556 3.5
    endloop
  endfacet
  facet normal -0 0 1
    outer loop
      vertex -1.0306 5.40258 3.5
      vertex -0.421607 2.21015 3.5
      vertex -0.345347 5.48915 3.5
    endloop
  endfacet
  facet normal 0 0 1
    outer loop
      vertex -0.421607 2.21015 3.5
      vertex -1.0306 5.40258 3.5
      vertex -0.695288 2.13988 3.5
    endloop
  endfacet
  facet normal -0 0 1
    outer loop
      vertex -1.69959 5.23081 3.5
      vertex -0.695288 2.13988 3.5
      vertex -1.0306 5.40258 3.5
    endloop
  endfacet
  facet normal 0 0 1
    outer loop
      vertex -0.695288 2.13988 3.5
      vertex -1.69959 5.23081 3.5
      vertex -0.958003 2.03586 3.5
    endloop
  endfacet
  facet normal -0 0 1
    outer loop
      vertex -2.34179 4.97655 3.5
      vertex -0.958003 2.03586 3.5
      vertex -1.69959 5.23081 3.5
    endloop
  endfacet
  facet normal 0 0 1
    outer loop
      vertex -0.958003 2.03586 3.5
      vertex -2.34179 4.97655 3.5
      vertex -1.20561 1.89974 3.5
    endloop
  endfacet
  facet normal -0 0 1
    outer loop
      vertex -2.94705 4.6438 3.5
      vertex -1.20561 1.89974 3.5
      vertex -2.34179 4.97655 3.5
    endloop
  endfacet
  facet normal 0 0 1
    outer loop
      vertex -1.20561 1.89974 3.5
      vertex -2.94705 4.6438 3.5
      vertex -1.4342 1.73365 3.5
    endloop
  endfacet
  facet normal -0 0 1
    outer loop
      vertex -3.50583 4.23782 3.5
      vertex -1.4342 1.73365 3.5
      vertex -2.94705 4.6438 3.5
    endloop
  endfacet
  facet normal 0 0 1
    outer loop
      vertex -1.4342 1.73365 3.5
      vertex -3.50583 4.23782 3.5
      vertex -1.64018 1.54023 3.5
    endloop
  endfacet
  facet normal -0 0 1
    outer loop
      vertex -4.00933 3.76501 3.5
      vertex -1.64018 1.54023 3.5
      vertex -3.50583 4.23782 3.5
    endloop
  endfacet
  facet normal 0 0 1
    outer loop
      vertex -1.64018 1.54023 3.5
      vertex -4.00933 3.76501 3.5
      vertex -1.82029 1.32252 3.5
    endloop
  endfacet
  facet normal 0 0 1
    outer loop
      vertex -1.82029 1.32252 3.5
      vertex -4.44959 3.23282 3.5
      vertex -1.97169 1.08395 3.5
    endloop
  endfacet
  facet normal -0 0 1
    outer loop
      vertex -4.44959 3.23282 3.5
      vertex -1.82029 1.32252 3.5
      vertex -4.00933 3.76501 3.5
    endloop
  endfacet
  facet normal -0 0 1
    outer loop
      vertex 1.82029 -1.32252 3.5
      vertex 4.44959 -3.23282 3.5
      vertex 1.97169 -1.08395 3.5
    endloop
  endfacet
  facet normal 0 0 1
    outer loop
      vertex 4.44959 -3.23282 3.5
      vertex 1.82029 -1.32252 3.5
      vertex 4.00933 -3.76501 3.5
    endloop
  endfacet
  facet normal -0 0 1
    outer loop
      vertex 1.64018 -1.54023 3.5
      vertex 4.00933 -3.76501 3.5
      vertex 1.82029 -1.32252 3.5
    endloop
  endfacet
  facet normal 0 0 1
    outer loop
      vertex 4.00933 -3.76501 3.5
      vertex 1.64018 -1.54023 3.5
      vertex 3.50583 -4.23782 3.5
    endloop
  endfacet
  facet normal -0 0 1
    outer loop
      vertex 1.4342 -1.73365 3.5
      vertex 3.50583 -4.23782 3.5
      vertex 1.64018 -1.54023 3.5
    endloop
  endfacet
  facet normal 0 0 1
    outer loop
      vertex 3.50583 -4.23782 3.5
      vertex 1.4342 -1.73365 3.5
      vertex 2.94705 -4.6438 3.5
    endloop
  endfacet
  facet normal -0 0 1
    outer loop
      vertex 1.20561 -1.89974 3.5
      vertex 2.94705 -4.6438 3.5
      vertex 1.4342 -1.73365 3.5
    endloop
  endfacet
  facet normal 0 0 1
    outer loop
      vertex 2.94705 -4.6438 3.5
      vertex 1.20561 -1.89974 3.5
      vertex 2.34179 -4.97655 3.5
    endloop
  endfacet
  facet normal -0 0 1
    outer loop
      vertex 0.958003 -2.03586 3.5
      vertex 2.34179 -4.97655 3.5
      vertex 1.20561 -1.89974 3.5
    endloop
  endfacet
  facet normal 0 0 1
    outer loop
      vertex 2.34179 -4.97655 3.5
      vertex 0.958003 -2.03586 3.5
      vertex 1.69959 -5.23081 3.5
    endloop
  endfacet
  facet normal -0 0 1
    outer loop
      vertex 0.695288 -2.13988 3.5
      vertex 1.69959 -5.23081 3.5
      vertex 0.958003 -2.03586 3.5
    endloop
  endfacet
  facet normal 0 0 1
    outer loop
      vertex 1.69959 -5.23081 3.5
      vertex 0.695288 -2.13988 3.5
      vertex 1.0306 -5.40258 3.5
    endloop
  endfacet
  facet normal -0 0 1
    outer loop
      vertex 0.421607 -2.21015 3.5
      vertex 1.0306 -5.40258 3.5
      vertex 0.695288 -2.13988 3.5
    endloop
  endfacet
  facet normal 0 0 1
    outer loop
      vertex 0.421607 -2.21015 3.5
      vertex 0.345347 -5.48915 3.5
      vertex 1.0306 -5.40258 3.5
    endloop
  endfacet
  facet normal -0 0 1
    outer loop
      vertex 0.141278 -2.24556 3.5
      vertex 0.345347 -5.48915 3.5
      vertex 0.421607 -2.21015 3.5
    endloop
  endfacet
  facet normal -0 0 1
    outer loop
      vertex -0.141278 -2.24556 3.5
      vertex 0.345347 -5.48915 3.5
      vertex 0.141278 -2.24556 3.5
    endloop
  endfacet
  facet normal 0 0 1
    outer loop
      vertex -0.141278 -2.24556 3.5
      vertex -0.345347 -5.48915 3.5
      vertex 0.345347 -5.48915 3.5
    endloop
  endfacet
  facet normal 0 0 1
    outer loop
      vertex -0.421607 -2.21015 3.5
      vertex -0.345347 -5.48915 3.5
      vertex -0.141278 -2.24556 3.5
    endloop
  endfacet
  facet normal 0 0 1
    outer loop
      vertex -1.0306 -5.40258 3.5
      vertex -0.421607 -2.21015 3.5
      vertex -0.695288 -2.13988 3.5
    endloop
  endfacet
  facet normal 0 0 1
    outer loop
      vertex -1.69959 -5.23081 3.5
      vertex -0.695288 -2.13988 3.5
      vertex -0.958003 -2.03586 3.5
    endloop
  endfacet
  facet normal 0 0 1
    outer loop
      vertex -0.421607 -2.21015 3.5
      vertex -1.0306 -5.40258 3.5
      vertex -0.345347 -5.48915 3.5
    endloop
  endfacet
  facet normal 0 0 1
    outer loop
      vertex -2.34179 -4.97655 3.5
      vertex -0.958003 -2.03586 3.5
      vertex -1.20561 -1.89974 3.5
    endloop
  endfacet
  facet normal 0 0 1
    outer loop
      vertex -2.94705 -4.6438 3.5
      vertex -1.20561 -1.89974 3.5
      vertex -1.4342 -1.73365 3.5
    endloop
  endfacet
  facet normal 0 0 1
    outer loop
      vertex -3.50583 -4.23782 3.5
      vertex -1.4342 -1.73365 3.5
      vertex -1.64018 -1.54023 3.5
    endloop
  endfacet
  facet normal 0 0 1
    outer loop
      vertex -0.695288 -2.13988 3.5
      vertex -1.69959 -5.23081 3.5
      vertex -1.0306 -5.40258 3.5
    endloop
  endfacet
  facet normal 0 0 1
    outer loop
      vertex -4.00933 -3.76501 3.5
      vertex -1.64018 -1.54023 3.5
      vertex -1.82029 -1.32252 3.5
    endloop
  endfacet
  facet normal 0 0 1
    outer loop
      vertex -4.44959 -3.23282 3.5
      vertex -1.82029 -1.32252 3.5
      vertex -1.97169 -1.08395 3.5
    endloop
  endfacet
  facet normal 0 0 1
    outer loop
      vertex -4.81969 -2.64964 3.5
      vertex -1.97169 -1.08395 3.5
      vertex -2.092 -0.828279 3.5
    endloop
  endfacet
  facet normal 0 0 1
    outer loop
      vertex -5.11377 -2.02468 3.5
      vertex -2.092 -0.828279 3.5
      vertex -2.17931 -0.559552 3.5
    endloop
  endfacet
  facet normal 0 0 1
    outer loop
      vertex -5.32721 -1.36779 3.5
      vertex -2.17931 -0.559552 3.5
      vertex -2.23226 -0.282 3.5
    endloop
  endfacet
  facet normal 0 0 1
    outer loop
      vertex -0.958003 -2.03586 3.5
      vertex -2.34179 -4.97655 3.5
      vertex -1.69959 -5.23081 3.5
    endloop
  endfacet
  facet normal 0 0 1
    outer loop
      vertex -5.45663 -0.689332 3.5
      vertex -2.23226 -0.282 3.5
      vertex -2.25 0 3.5
    endloop
  endfacet
  facet normal -0 0 1
    outer loop
      vertex -4.81969 2.64964 3.5
      vertex -1.97169 1.08395 3.5
      vertex -4.44959 3.23282 3.5
    endloop
  endfacet
  facet normal 0 0 1
    outer loop
      vertex -1.97169 1.08395 3.5
      vertex -4.81969 2.64964 3.5
      vertex -2.092 0.828279 3.5
    endloop
  endfacet
  facet normal 0 0 1
    outer loop
      vertex -1.20561 -1.89974 3.5
      vertex -2.94705 -4.6438 3.5
      vertex -2.34179 -4.97655 3.5
    endloop
  endfacet
  facet normal -0 0 1
    outer loop
      vertex -5.11377 2.02468 3.5
      vertex -2.092 0.828279 3.5
      vertex -4.81969 2.64964 3.5
    endloop
  endfacet
  facet normal 0 0 1
    outer loop
      vertex -1.4342 -1.73365 3.5
      vertex -3.50583 -4.23782 3.5
      vertex -2.94705 -4.6438 3.5
    endloop
  endfacet
  facet normal 0 0 1
    outer loop
      vertex -2.092 0.828279 3.5
      vertex -5.11377 2.02468 3.5
      vertex -2.17931 0.559552 3.5
    endloop
  endfacet
  facet normal 0 0 1
    outer loop
      vertex -1.64018 -1.54023 3.5
      vertex -4.00933 -3.76501 3.5
      vertex -3.50583 -4.23782 3.5
    endloop
  endfacet
  facet normal -0 0 1
    outer loop
      vertex -5.32721 1.36779 3.5
      vertex -2.17931 0.559552 3.5
      vertex -5.11377 2.02468 3.5
    endloop
  endfacet
  facet normal 0 0 1
    outer loop
      vertex -1.82029 -1.32252 3.5
      vertex -4.44959 -3.23282 3.5
      vertex -4.00933 -3.76501 3.5
    endloop
  endfacet
  facet normal 0 0 1
    outer loop
      vertex -2.17931 0.559552 3.5
      vertex -5.32721 1.36779 3.5
      vertex -2.23226 0.282 3.5
    endloop
  endfacet
  facet normal 0 0 1
    outer loop
      vertex -1.97169 -1.08395 3.5
      vertex -4.81969 -2.64964 3.5
      vertex -4.44959 -3.23282 3.5
    endloop
  endfacet
  facet normal -0 0 1
    outer loop
      vertex -5.45663 0.689332 3.5
      vertex -2.23226 0.282 3.5
      vertex -5.32721 1.36779 3.5
    endloop
  endfacet
  facet normal 0 0 1
    outer loop
      vertex -2.092 -0.828279 3.5
      vertex -5.11377 -2.02468 3.5
      vertex -4.81969 -2.64964 3.5
    endloop
  endfacet
  facet normal 0 0 1
    outer loop
      vertex -2.23226 0.282 3.5
      vertex -5.45663 0.689332 3.5
      vertex -2.25 0 3.5
    endloop
  endfacet
  facet normal 0 0 1
    outer loop
      vertex -2.17931 -0.559552 3.5
      vertex -5.32721 -1.36779 3.5
      vertex -5.11377 -2.02468 3.5
    endloop
  endfacet
  facet normal 0 0 1
    outer loop
      vertex -5.5 0 3.5
      vertex -2.25 0 3.5
      vertex -5.45663 0.689332 3.5
    endloop
  endfacet
  facet normal 0 0 1
    outer loop
      vertex -2.23226 -0.282 3.5
      vertex -5.45663 -0.689332 3.5
      vertex -5.32721 -1.36779 3.5
    endloop
  endfacet
  facet normal 0 0 1
    outer loop
      vertex -2.25 0 3.5
      vertex -5.5 0 3.5
      vertex -5.45663 -0.689332 3.5
    endloop
  endfacet
  facet normal 0.998027 -0.0627918 0
    outer loop
      vertex 5.45663 -0.689332 3.5
      vertex 5.5 0 -3.5
      vertex 5.5 0 3.5
    endloop
  endfacet
  facet normal 0.998027 -0.0627918 0
    outer loop
      vertex 5.5 0 -3.5
      vertex 5.45663 -0.689332 3.5
      vertex 5.45663 -0.689332 -3.5
    endloop
  endfacet
  facet normal 0.770517 -0.637419 0
    outer loop
      vertex 4.00933 -3.76501 3.5
      vertex 4.44959 -3.23282 -3.5
      vertex 4.44959 -3.23282 3.5
    endloop
  endfacet
  facet normal 0.770517 -0.637419 0
    outer loop
      vertex 4.44959 -3.23282 -3.5
      vertex 4.00933 -3.76501 3.5
      vertex 4.00933 -3.76501 -3.5
    endloop
  endfacet
  facet normal -0.125337 -0.992114 0
    outer loop
      vertex -1.0306 -5.40258 -3.5
      vertex -0.345347 -5.48915 3.5
      vertex -1.0306 -5.40258 3.5
    endloop
  endfacet
  facet normal -0.125337 -0.992114 -0
    outer loop
      vertex -0.345347 -5.48915 3.5
      vertex -1.0306 -5.40258 -3.5
      vertex -0.345347 -5.48915 -3.5
    endloop
  endfacet
  facet normal -0.998027 -0.0627918 0
    outer loop
      vertex -5.45663 -0.689332 -3.5
      vertex -5.5 0 3.5
      vertex -5.5 0 -3.5
    endloop
  endfacet
  facet normal -0.998027 -0.0627918 0
    outer loop
      vertex -5.5 0 3.5
      vertex -5.45663 -0.689332 -3.5
      vertex -5.45663 -0.689332 3.5
    endloop
  endfacet
  facet normal -0.951055 -0.309022 0
    outer loop
      vertex -5.11377 -2.02468 -3.5
      vertex -5.32721 -1.36779 3.5
      vertex -5.32721 -1.36779 -3.5
    endloop
  endfacet
  facet normal -0.951055 -0.309022 0
    outer loop
      vertex -5.32721 -1.36779 3.5
      vertex -5.11377 -2.02468 -3.5
      vertex -5.11377 -2.02468 3.5
    endloop
  endfacet
  facet normal 0.368118 -0.929779 0
    outer loop
      vertex 1.69959 -5.23081 -3.5
      vertex 2.34179 -4.97655 3.5
      vertex 1.69959 -5.23081 3.5
    endloop
  endfacet
  facet normal 0.368118 -0.929779 0
    outer loop
      vertex 2.34179 -4.97655 3.5
      vertex 1.69959 -5.23081 -3.5
      vertex 2.34179 -4.97655 -3.5
    endloop
  endfacet
  facet normal 0.248693 -0.968582 0
    outer loop
      vertex 1.0306 -5.40258 -3.5
      vertex 1.69959 -5.23081 3.5
      vertex 1.0306 -5.40258 3.5
    endloop
  endfacet
  facet normal 0.248693 -0.968582 0
    outer loop
      vertex 1.69959 -5.23081 3.5
      vertex 1.0306 -5.40258 -3.5
      vertex 1.69959 -5.23081 -3.5
    endloop
  endfacet
  facet normal -0.951055 0.309022 0
    outer loop
      vertex -5.32721 1.36779 -3.5
      vertex -5.11377 2.02468 3.5
      vertex -5.11377 2.02468 -3.5
    endloop
  endfacet
  facet normal -0.951055 0.309022 0
    outer loop
      vertex -5.11377 2.02468 3.5
      vertex -5.32721 1.36779 -3.5
      vertex -5.32721 1.36779 3.5
    endloop
  endfacet
  facet normal -0.48176 0.876303 0
    outer loop
      vertex -2.34179 4.97655 -3.5
      vertex -2.94705 4.6438 3.5
      vertex -2.34179 4.97655 3.5
    endloop
  endfacet
  facet normal -0.48176 0.876303 0
    outer loop
      vertex -2.94705 4.6438 3.5
      vertex -2.34179 4.97655 -3.5
      vertex -2.94705 4.6438 -3.5
    endloop
  endfacet
  facet normal -0.248693 0.968582 0
    outer loop
      vertex -1.0306 5.40258 -3.5
      vertex -1.69959 5.23081 3.5
      vertex -1.0306 5.40258 3.5
    endloop
  endfacet
  facet normal -0.248693 0.968582 0
    outer loop
      vertex -1.69959 5.23081 3.5
      vertex -1.0306 5.40258 -3.5
      vertex -1.69959 5.23081 -3.5
    endloop
  endfacet
  facet normal 0.951055 -0.309022 0
    outer loop
      vertex 5.11377 -2.02468 3.5
      vertex 5.32721 -1.36779 -3.5
      vertex 5.32721 -1.36779 3.5
    endloop
  endfacet
  facet normal 0.951055 -0.309022 0
    outer loop
      vertex 5.32721 -1.36779 -3.5
      vertex 5.11377 -2.02468 3.5
      vertex 5.11377 -2.02468 -3.5
    endloop
  endfacet
  facet normal 0.982288 -0.187377 0
    outer loop
      vertex 5.32721 -1.36779 3.5
      vertex 5.45663 -0.689332 -3.5
      vertex 5.45663 -0.689332 3.5
    endloop
  endfacet
  facet normal 0.982288 -0.187377 0
    outer loop
      vertex 5.45663 -0.689332 -3.5
      vertex 5.32721 -1.36779 3.5
      vertex 5.32721 -1.36779 -3.5
    endloop
  endfacet
  facet normal 0.844326 -0.53583 0
    outer loop
      vertex 4.44959 -3.23282 3.5
      vertex 4.81969 -2.64964 -3.5
      vertex 4.81969 -2.64964 3.5
    endloop
  endfacet
  facet normal 0.844326 -0.53583 0
    outer loop
      vertex 4.81969 -2.64964 -3.5
      vertex 4.44959 -3.23282 3.5
      vertex 4.44959 -3.23282 -3.5
    endloop
  endfacet
  facet normal 0.48176 -0.876303 0
    outer loop
      vertex 2.34179 -4.97655 -3.5
      vertex 2.94705 -4.6438 3.5
      vertex 2.34179 -4.97655 3.5
    endloop
  endfacet
  facet normal 0.48176 -0.876303 0
    outer loop
      vertex 2.94705 -4.6438 3.5
      vertex 2.34179 -4.97655 -3.5
      vertex 2.94705 -4.6438 -3.5
    endloop
  endfacet
  facet normal 0.684541 -0.728974 0
    outer loop
      vertex 3.50583 -4.23782 -3.5
      vertex 4.00933 -3.76501 3.5
      vertex 3.50583 -4.23782 3.5
    endloop
  endfacet
  facet normal 0.684541 -0.728974 0
    outer loop
      vertex 4.00933 -3.76501 3.5
      vertex 3.50583 -4.23782 -3.5
      vertex 4.00933 -3.76501 -3.5
    endloop
  endfacet
  facet normal 0.904829 -0.425775 0
    outer loop
      vertex 4.81969 -2.64964 3.5
      vertex 5.11377 -2.02468 -3.5
      vertex 5.11377 -2.02468 3.5
    endloop
  endfacet
  facet normal 0.904829 -0.425775 0
    outer loop
      vertex 5.11377 -2.02468 -3.5
      vertex 4.81969 -2.64964 3.5
      vertex 4.81969 -2.64964 -3.5
    endloop
  endfacet
  facet normal -0.368118 -0.929779 0
    outer loop
      vertex -2.34179 -4.97655 -3.5
      vertex -1.69959 -5.23081 3.5
      vertex -2.34179 -4.97655 3.5
    endloop
  endfacet
  facet normal -0.368118 -0.929779 -0
    outer loop
      vertex -1.69959 -5.23081 3.5
      vertex -2.34179 -4.97655 -3.5
      vertex -1.69959 -5.23081 -3.5
    endloop
  endfacet
  facet normal -0.770517 -0.637419 0
    outer loop
      vertex -4.00933 -3.76501 -3.5
      vertex -4.44959 -3.23282 3.5
      vertex -4.44959 -3.23282 -3.5
    endloop
  endfacet
  facet normal -0.770517 -0.637419 0
    outer loop
      vertex -4.44959 -3.23282 3.5
      vertex -4.00933 -3.76501 -3.5
      vertex -4.00933 -3.76501 3.5
    endloop
  endfacet
  facet normal -0.982288 -0.187377 0
    outer loop
      vertex -5.32721 -1.36779 -3.5
      vertex -5.45663 -0.689332 3.5
      vertex -5.45663 -0.689332 -3.5
    endloop
  endfacet
  facet normal -0.982288 -0.187377 0
    outer loop
      vertex -5.45663 -0.689332 3.5
      vertex -5.32721 -1.36779 -3.5
      vertex -5.32721 -1.36779 3.5
    endloop
  endfacet
  facet normal 0 0 -1
    outer loop
      vertex 2.25 0 -3.5
      vertex 5.5 0 -3.5
      vertex 5.45663 -0.689332 -3.5
    endloop
  endfacet
  facet normal 0 0 -1
    outer loop
      vertex 2.23226 -0.282 -3.5
      vertex 5.45663 -0.689332 -3.5
      vertex 5.32721 -1.36779 -3.5
    endloop
  endfacet
  facet normal 0 0 -1
    outer loop
      vertex 5.5 0 -3.5
      vertex 2.25 0 -3.5
      vertex 5.45663 0.689332 -3.5
    endloop
  endfacet
  facet normal 0 0 -1
    outer loop
      vertex 2.17931 -0.559552 -3.5
      vertex 5.32721 -1.36779 -3.5
      vertex 5.11377 -2.02468 -3.5
    endloop
  endfacet
  facet normal 0 0 -1
    outer loop
      vertex 2.23226 0.282 -3.5
      vertex 5.45663 0.689332 -3.5
      vertex 2.25 0 -3.5
    endloop
  endfacet
  facet normal 0 0 -1
    outer loop
      vertex 2.092 -0.828279 -3.5
      vertex 5.11377 -2.02468 -3.5
      vertex 4.81969 -2.64964 -3.5
    endloop
  endfacet
  facet normal -0 0 -1
    outer loop
      vertex 5.45663 0.689332 -3.5
      vertex 2.23226 0.282 -3.5
      vertex 5.32721 1.36779 -3.5
    endloop
  endfacet
  facet normal 0 0 -1
    outer loop
      vertex 1.97169 -1.08395 -3.5
      vertex 4.81969 -2.64964 -3.5
      vertex 4.44959 -3.23282 -3.5
    endloop
  endfacet
  facet normal 0 0 -1
    outer loop
      vertex 2.17931 0.559552 -3.5
      vertex 5.32721 1.36779 -3.5
      vertex 2.23226 0.282 -3.5
    endloop
  endfacet
  facet normal 0 0 -1
    outer loop
      vertex 1.82029 -1.32252 -3.5
      vertex 4.44959 -3.23282 -3.5
      vertex 4.00933 -3.76501 -3.5
    endloop
  endfacet
  facet normal -0 0 -1
    outer loop
      vertex 5.32721 1.36779 -3.5
      vertex 2.17931 0.559552 -3.5
      vertex 5.11377 2.02468 -3.5
    endloop
  endfacet
  facet normal 0 0 -1
    outer loop
      vertex 1.64018 -1.54023 -3.5
      vertex 4.00933 -3.76501 -3.5
      vertex 3.50583 -4.23782 -3.5
    endloop
  endfacet
  facet normal 0 0 -1
    outer loop
      vertex 2.092 0.828279 -3.5
      vertex 5.11377 2.02468 -3.5
      vertex 2.17931 0.559552 -3.5
    endloop
  endfacet
  facet normal 0 0 -1
    outer loop
      vertex 1.4342 -1.73365 -3.5
      vertex 3.50583 -4.23782 -3.5
      vertex 2.94705 -4.6438 -3.5
    endloop
  endfacet
  facet normal -0 0 -1
    outer loop
      vertex 5.11377 2.02468 -3.5
      vertex 2.092 0.828279 -3.5
      vertex 4.81969 2.64964 -3.5
    endloop
  endfacet
  facet normal 0 0 -1
    outer loop
      vertex 1.20561 -1.89974 -3.5
      vertex 2.94705 -4.6438 -3.5
      vertex 2.34179 -4.97655 -3.5
    endloop
  endfacet
  facet normal 0 0 -1
    outer loop
      vertex 1.97169 1.08395 -3.5
      vertex 4.81969 2.64964 -3.5
      vertex 2.092 0.828279 -3.5
    endloop
  endfacet
  facet normal -0 0 -1
    outer loop
      vertex 4.81969 2.64964 -3.5
      vertex 1.97169 1.08395 -3.5
      vertex 4.44959 3.23282 -3.5
    endloop
  endfacet
  facet normal 0 0 -1
    outer loop
      vertex 5.45663 -0.689332 -3.5
      vertex 2.23226 -0.282 -3.5
      vertex 2.25 0 -3.5
    endloop
  endfacet
  facet normal 0 0 -1
    outer loop
      vertex 5.32721 -1.36779 -3.5
      vertex 2.17931 -0.559552 -3.5
      vertex 2.23226 -0.282 -3.5
    endloop
  endfacet
  facet normal 0 0 -1
    outer loop
      vertex 5.11377 -2.02468 -3.5
      vertex 2.092 -0.828279 -3.5
      vertex 2.17931 -0.559552 -3.5
    endloop
  endfacet
  facet normal 0 0 -1
    outer loop
      vertex 4.81969 -2.64964 -3.5
      vertex 1.97169 -1.08395 -3.5
      vertex 2.092 -0.828279 -3.5
    endloop
  endfacet
  facet normal 0 0 -1
    outer loop
      vertex 4.44959 -3.23282 -3.5
      vertex 1.82029 -1.32252 -3.5
      vertex 1.97169 -1.08395 -3.5
    endloop
  endfacet
  facet normal 0 0 -1
    outer loop
      vertex 0.958003 -2.03586 -3.5
      vertex 2.34179 -4.97655 -3.5
      vertex 1.69959 -5.23081 -3.5
    endloop
  endfacet
  facet normal 0 0 -1
    outer loop
      vertex 4.00933 -3.76501 -3.5
      vertex 1.64018 -1.54023 -3.5
      vertex 1.82029 -1.32252 -3.5
    endloop
  endfacet
  facet normal 0 0 -1
    outer loop
      vertex 3.50583 -4.23782 -3.5
      vertex 1.4342 -1.73365 -3.5
      vertex 1.64018 -1.54023 -3.5
    endloop
  endfacet
  facet normal 0 0 -1
    outer loop
      vertex 2.94705 -4.6438 -3.5
      vertex 1.20561 -1.89974 -3.5
      vertex 1.4342 -1.73365 -3.5
    endloop
  endfacet
  facet normal 0 0 -1
    outer loop
      vertex 0.695288 -2.13988 -3.5
      vertex 1.69959 -5.23081 -3.5
      vertex 1.0306 -5.40258 -3.5
    endloop
  endfacet
  facet normal 0 0 -1
    outer loop
      vertex 2.34179 -4.97655 -3.5
      vertex 0.958003 -2.03586 -3.5
      vertex 1.20561 -1.89974 -3.5
    endloop
  endfacet
  facet normal 0 0 -1
    outer loop
      vertex 1.69959 -5.23081 -3.5
      vertex 0.695288 -2.13988 -3.5
      vertex 0.958003 -2.03586 -3.5
    endloop
  endfacet
  facet normal 0 0 -1
    outer loop
      vertex 1.0306 -5.40258 -3.5
      vertex 0.421607 -2.21015 -3.5
      vertex 0.695288 -2.13988 -3.5
    endloop
  endfacet
  facet normal 0 0 -1
    outer loop
      vertex 0.345347 -5.48915 -3.5
      vertex 0.421607 -2.21015 -3.5
      vertex 1.0306 -5.40258 -3.5
    endloop
  endfacet
  facet normal 0 0 -1
    outer loop
      vertex 0.345347 -5.48915 -3.5
      vertex 0.141278 -2.24556 -3.5
      vertex 0.421607 -2.21015 -3.5
    endloop
  endfacet
  facet normal 0 0 -1
    outer loop
      vertex 0.345347 -5.48915 -3.5
      vertex -0.141278 -2.24556 -3.5
      vertex 0.141278 -2.24556 -3.5
    endloop
  endfacet
  facet normal 0 0 -1
    outer loop
      vertex -0.345347 -5.48915 -3.5
      vertex -0.141278 -2.24556 -3.5
      vertex 0.345347 -5.48915 -3.5
    endloop
  endfacet
  facet normal 0 0 -1
    outer loop
      vertex -0.345347 -5.48915 -3.5
      vertex -0.421607 -2.21015 -3.5
      vertex -0.141278 -2.24556 -3.5
    endloop
  endfacet
  facet normal 0 0 -1
    outer loop
      vertex -1.0306 -5.40258 -3.5
      vertex -0.421607 -2.21015 -3.5
      vertex -0.345347 -5.48915 -3.5
    endloop
  endfacet
  facet normal -0 0 -1
    outer loop
      vertex -0.421607 -2.21015 -3.5
      vertex -1.0306 -5.40258 -3.5
      vertex -0.695288 -2.13988 -3.5
    endloop
  endfacet
  facet normal 0 0 -1
    outer loop
      vertex -1.69959 -5.23081 -3.5
      vertex -0.695288 -2.13988 -3.5
      vertex -1.0306 -5.40258 -3.5
    endloop
  endfacet
  facet normal -0 0 -1
    outer loop
      vertex -0.695288 -2.13988 -3.5
      vertex -1.69959 -5.23081 -3.5
      vertex -0.958003 -2.03586 -3.5
    endloop
  endfacet
  facet normal 0 0 -1
    outer loop
      vertex -2.34179 -4.97655 -3.5
      vertex -0.958003 -2.03586 -3.5
      vertex -1.69959 -5.23081 -3.5
    endloop
  endfacet
  facet normal -0 0 -1
    outer loop
      vertex -0.958003 -2.03586 -3.5
      vertex -2.34179 -4.97655 -3.5
      vertex -1.20561 -1.89974 -3.5
    endloop
  endfacet
  facet normal 0 0 -1
    outer loop
      vertex -2.94705 -4.6438 -3.5
      vertex -1.20561 -1.89974 -3.5
      vertex -2.34179 -4.97655 -3.5
    endloop
  endfacet
  facet normal -0 0 -1
    outer loop
      vertex -1.20561 -1.89974 -3.5
      vertex -2.94705 -4.6438 -3.5
      vertex -1.4342 -1.73365 -3.5
    endloop
  endfacet
  facet normal 0 0 -1
    outer loop
      vertex -3.50583 -4.23782 -3.5
      vertex -1.4342 -1.73365 -3.5
      vertex -2.94705 -4.6438 -3.5
    endloop
  endfacet
  facet normal -0 0 -1
    outer loop
      vertex -1.4342 -1.73365 -3.5
      vertex -3.50583 -4.23782 -3.5
      vertex -1.64018 -1.54023 -3.5
    endloop
  endfacet
  facet normal 0 0 -1
    outer loop
      vertex -4.00933 -3.76501 -3.5
      vertex -1.64018 -1.54023 -3.5
      vertex -3.50583 -4.23782 -3.5
    endloop
  endfacet
  facet normal -0 0 -1
    outer loop
      vertex -1.64018 -1.54023 -3.5
      vertex -4.00933 -3.76501 -3.5
      vertex -1.82029 -1.32252 -3.5
    endloop
  endfacet
  facet normal -0 0 -1
    outer loop
      vertex -1.82029 -1.32252 -3.5
      vertex -4.44959 -3.23282 -3.5
      vertex -1.97169 -1.08395 -3.5
    endloop
  endfacet
  facet normal 0 0 -1
    outer loop
      vertex -4.44959 -3.23282 -3.5
      vertex -1.82029 -1.32252 -3.5
      vertex -4.00933 -3.76501 -3.5
    endloop
  endfacet
  facet normal 0 0 -1
    outer loop
      vertex 1.82029 1.32252 -3.5
      vertex 4.44959 3.23282 -3.5
      vertex 1.97169 1.08395 -3.5
    endloop
  endfacet
  facet normal -0 0 -1
    outer loop
      vertex 4.44959 3.23282 -3.5
      vertex 1.82029 1.32252 -3.5
      vertex 4.00933 3.76501 -3.5
    endloop
  endfacet
  facet normal 0 0 -1
    outer loop
      vertex 1.64018 1.54023 -3.5
      vertex 4.00933 3.76501 -3.5
      vertex 1.82029 1.32252 -3.5
    endloop
  endfacet
  facet normal -0 0 -1
    outer loop
      vertex 4.00933 3.76501 -3.5
      vertex 1.64018 1.54023 -3.5
      vertex 3.50583 4.23782 -3.5
    endloop
  endfacet
  facet normal 0 0 -1
    outer loop
      vertex 1.4342 1.73365 -3.5
      vertex 3.50583 4.23782 -3.5
      vertex 1.64018 1.54023 -3.5
    endloop
  endfacet
  facet normal -0 0 -1
    outer loop
      vertex 3.50583 4.23782 -3.5
      vertex 1.4342 1.73365 -3.5
      vertex 2.94705 4.6438 -3.5
    endloop
  endfacet
  facet normal 0 0 -1
    outer loop
      vertex 1.20561 1.89974 -3.5
      vertex 2.94705 4.6438 -3.5
      vertex 1.4342 1.73365 -3.5
    endloop
  endfacet
  facet normal -0 0 -1
    outer loop
      vertex 2.94705 4.6438 -3.5
      vertex 1.20561 1.89974 -3.5
      vertex 2.34179 4.97655 -3.5
    endloop
  endfacet
  facet normal 0 0 -1
    outer loop
      vertex 0.958003 2.03586 -3.5
      vertex 2.34179 4.97655 -3.5
      vertex 1.20561 1.89974 -3.5
    endloop
  endfacet
  facet normal -0 0 -1
    outer loop
      vertex 2.34179 4.97655 -3.5
      vertex 0.958003 2.03586 -3.5
      vertex 1.69959 5.23081 -3.5
    endloop
  endfacet
  facet normal 0 0 -1
    outer loop
      vertex 0.695288 2.13988 -3.5
      vertex 1.69959 5.23081 -3.5
      vertex 0.958003 2.03586 -3.5
    endloop
  endfacet
  facet normal -0 0 -1
    outer loop
      vertex 1.69959 5.23081 -3.5
      vertex 0.695288 2.13988 -3.5
      vertex 1.0306 5.40258 -3.5
    endloop
  endfacet
  facet normal 0 0 -1
    outer loop
      vertex 0.421607 2.21015 -3.5
      vertex 1.0306 5.40258 -3.5
      vertex 0.695288 2.13988 -3.5
    endloop
  endfacet
  facet normal 0 0 -1
    outer loop
      vertex 0.421607 2.21015 -3.5
      vertex 0.345347 5.48915 -3.5
      vertex 1.0306 5.40258 -3.5
    endloop
  endfacet
  facet normal 0 0 -1
    outer loop
      vertex 0.141278 2.24556 -3.5
      vertex 0.345347 5.48915 -3.5
      vertex 0.421607 2.21015 -3.5
    endloop
  endfacet
  facet normal 0 0 -1
    outer loop
      vertex -0.141278 2.24556 -3.5
      vertex 0.345347 5.48915 -3.5
      vertex 0.141278 2.24556 -3.5
    endloop
  endfacet
  facet normal 0 0 -1
    outer loop
      vertex -0.141278 2.24556 -3.5
      vertex -0.345347 5.48915 -3.5
      vertex 0.345347 5.48915 -3.5
    endloop
  endfacet
  facet normal 0 0 -1
    outer loop
      vertex -0.421607 2.21015 -3.5
      vertex -0.345347 5.48915 -3.5
      vertex -0.141278 2.24556 -3.5
    endloop
  endfacet
  facet normal 0 0 -1
    outer loop
      vertex -1.0306 5.40258 -3.5
      vertex -0.421607 2.21015 -3.5
      vertex -0.695288 2.13988 -3.5
    endloop
  endfacet
  facet normal 0 0 -1
    outer loop
      vertex -1.69959 5.23081 -3.5
      vertex -0.695288 2.13988 -3.5
      vertex -0.958003 2.03586 -3.5
    endloop
  endfacet
  facet normal 0 0 -1
    outer loop
      vertex -0.421607 2.21015 -3.5
      vertex -1.0306 5.40258 -3.5
      vertex -0.345347 5.48915 -3.5
    endloop
  endfacet
  facet normal 0 0 -1
    outer loop
      vertex -2.34179 4.97655 -3.5
      vertex -0.958003 2.03586 -3.5
      vertex -1.20561 1.89974 -3.5
    endloop
  endfacet
  facet normal 0 0 -1
    outer loop
      vertex -2.94705 4.6438 -3.5
      vertex -1.20561 1.89974 -3.5
      vertex -1.4342 1.73365 -3.5
    endloop
  endfacet
  facet normal 0 0 -1
    outer loop
      vertex -3.50583 4.23782 -3.5
      vertex -1.4342 1.73365 -3.5
      vertex -1.64018 1.54023 -3.5
    endloop
  endfacet
  facet normal 0 0 -1
    outer loop
      vertex -0.695288 2.13988 -3.5
      vertex -1.69959 5.23081 -3.5
      vertex -1.0306 5.40258 -3.5
    endloop
  endfacet
  facet normal 0 0 -1
    outer loop
      vertex -4.00933 3.76501 -3.5
      vertex -1.64018 1.54023 -3.5
      vertex -1.82029 1.32252 -3.5
    endloop
  endfacet
  facet normal 0 0 -1
    outer loop
      vertex -4.44959 3.23282 -3.5
      vertex -1.82029 1.32252 -3.5
      vertex -1.97169 1.08395 -3.5
    endloop
  endfacet
  facet normal 0 0 -1
    outer loop
      vertex -4.81969 2.64964 -3.5
      vertex -1.97169 1.08395 -3.5
      vertex -2.092 0.828279 -3.5
    endloop
  endfacet
  facet normal 0 0 -1
    outer loop
      vertex -5.11377 2.02468 -3.5
      vertex -2.092 0.828279 -3.5
      vertex -2.17931 0.559552 -3.5
    endloop
  endfacet
  facet normal 0 0 -1
    outer loop
      vertex -5.32721 1.36779 -3.5
      vertex -2.17931 0.559552 -3.5
      vertex -2.23226 0.282 -3.5
    endloop
  endfacet
  facet normal 0 0 -1
    outer loop
      vertex -0.958003 2.03586 -3.5
      vertex -2.34179 4.97655 -3.5
      vertex -1.69959 5.23081 -3.5
    endloop
  endfacet
  facet normal 0 0 -1
    outer loop
      vertex -5.45663 0.689332 -3.5
      vertex -2.23226 0.282 -3.5
      vertex -2.25 0 -3.5
    endloop
  endfacet
  facet normal 0 0 -1
    outer loop
      vertex -4.81969 -2.64964 -3.5
      vertex -1.97169 -1.08395 -3.5
      vertex -4.44959 -3.23282 -3.5
    endloop
  endfacet
  facet normal -0 0 -1
    outer loop
      vertex -1.97169 -1.08395 -3.5
      vertex -4.81969 -2.64964 -3.5
      vertex -2.092 -0.828279 -3.5
    endloop
  endfacet
  facet normal 0 0 -1
    outer loop
      vertex -1.20561 1.89974 -3.5
      vertex -2.94705 4.6438 -3.5
      vertex -2.34179 4.97655 -3.5
    endloop
  endfacet
  facet normal 0 0 -1
    outer loop
      vertex -5.11377 -2.02468 -3.5
      vertex -2.092 -0.828279 -3.5
      vertex -4.81969 -2.64964 -3.5
    endloop
  endfacet
  facet normal 0 0 -1
    outer loop
      vertex -1.4342 1.73365 -3.5
      vertex -3.50583 4.23782 -3.5
      vertex -2.94705 4.6438 -3.5
    endloop
  endfacet
  facet normal -0 0 -1
    outer loop
      vertex -2.092 -0.828279 -3.5
      vertex -5.11377 -2.02468 -3.5
      vertex -2.17931 -0.559552 -3.5
    endloop
  endfacet
  facet normal 0 0 -1
    outer loop
      vertex -1.64018 1.54023 -3.5
      vertex -4.00933 3.76501 -3.5
      vertex -3.50583 4.23782 -3.5
    endloop
  endfacet
  facet normal 0 0 -1
    outer loop
      vertex -5.32721 -1.36779 -3.5
      vertex -2.17931 -0.559552 -3.5
      vertex -5.11377 -2.02468 -3.5
    endloop
  endfacet
  facet normal 0 0 -1
    outer loop
      vertex -1.82029 1.32252 -3.5
      vertex -4.44959 3.23282 -3.5
      vertex -4.00933 3.76501 -3.5
    endloop
  endfacet
  facet normal -0 0 -1
    outer loop
      vertex -2.17931 -0.559552 -3.5
      vertex -5.32721 -1.36779 -3.5
      vertex -2.23226 -0.282 -3.5
    endloop
  endfacet
  facet normal 0 0 -1
    outer loop
      vertex -1.97169 1.08395 -3.5
      vertex -4.81969 2.64964 -3.5
      vertex -4.44959 3.23282 -3.5
    endloop
  endfacet
  facet normal 0 0 -1
    outer loop
      vertex -5.45663 -0.689332 -3.5
      vertex -2.23226 -0.282 -3.5
      vertex -5.32721 -1.36779 -3.5
    endloop
  endfacet
  facet normal 0 0 -1
    outer loop
      vertex -2.092 0.828279 -3.5
      vertex -5.11377 2.02468 -3.5
      vertex -4.81969 2.64964 -3.5
    endloop
  endfacet
  facet normal -0 0 -1
    outer loop
      vertex -2.23226 -0.282 -3.5
      vertex -5.45663 -0.689332 -3.5
      vertex -2.25 0 -3.5
    endloop
  endfacet
  facet normal 0 0 -1
    outer loop
      vertex -2.17931 0.559552 -3.5
      vertex -5.32721 1.36779 -3.5
      vertex -5.11377 2.02468 -3.5
    endloop
  endfacet
  facet normal 0 0 -1
    outer loop
      vertex -5.5 0 -3.5
      vertex -2.25 0 -3.5
      vertex -5.45663 -0.689332 -3.5
    endloop
  endfacet
  facet normal 0 0 -1
    outer loop
      vertex -2.23226 0.282 -3.5
      vertex -5.45663 0.689332 -3.5
      vertex -5.32721 1.36779 -3.5
    endloop
  endfacet
  facet normal 0 0 -1
    outer loop
      vertex -2.25 0 -3.5
      vertex -5.5 0 -3.5
      vertex -5.45663 0.689332 -3.5
    endloop
  endfacet
  facet normal 0.587788 -0.809015 0
    outer loop
      vertex 2.94705 -4.6438 -3.5
      vertex 3.50583 -4.23782 3.5
      vertex 2.94705 -4.6438 3.5
    endloop
  endfacet
  facet normal 0.587788 -0.809015 0
    outer loop
      vertex 3.50583 -4.23782 3.5
      vertex 2.94705 -4.6438 -3.5
      vertex 3.50583 -4.23782 -3.5
    endloop
  endfacet
  facet normal 0 -1 0
    outer loop
      vertex -0.345347 -5.48915 -3.5
      vertex 0.345347 -5.48915 3.5
      vertex -0.345347 -5.48915 3.5
    endloop
  endfacet
  facet normal 0 -1 -0
    outer loop
      vertex 0.345347 -5.48915 3.5
      vertex -0.345347 -5.48915 -3.5
      vertex 0.345347 -5.48915 -3.5
    endloop
  endfacet
  facet normal -0.587788 -0.809015 0
    outer loop
      vertex -3.50583 -4.23782 -3.5
      vertex -2.94705 -4.6438 3.5
      vertex -3.50583 -4.23782 3.5
    endloop
  endfacet
  facet normal -0.587788 -0.809015 -0
    outer loop
      vertex -2.94705 -4.6438 3.5
      vertex -3.50583 -4.23782 -3.5
      vertex -2.94705 -4.6438 -3.5
    endloop
  endfacet
  facet normal -0.684541 -0.728974 0
    outer loop
      vertex -4.00933 -3.76501 -3.5
      vertex -3.50583 -4.23782 3.5
      vertex -4.00933 -3.76501 3.5
    endloop
  endfacet
  facet normal -0.684541 -0.728974 -0
    outer loop
      vertex -3.50583 -4.23782 3.5
      vertex -4.00933 -3.76501 -3.5
      vertex -3.50583 -4.23782 -3.5
    endloop
  endfacet
  facet normal -0.904829 -0.425775 0
    outer loop
      vertex -4.81969 -2.64964 -3.5
      vertex -5.11377 -2.02468 3.5
      vertex -5.11377 -2.02468 -3.5
    endloop
  endfacet
  facet normal -0.904829 -0.425775 0
    outer loop
      vertex -5.11377 -2.02468 3.5
      vertex -4.81969 -2.64964 -3.5
      vertex -4.81969 -2.64964 3.5
    endloop
  endfacet
  facet normal -0.844326 -0.53583 0
    outer loop
      vertex -4.44959 -3.23282 -3.5
      vertex -4.81969 -2.64964 3.5
      vertex -4.81969 -2.64964 -3.5
    endloop
  endfacet
  facet normal -0.844326 -0.53583 0
    outer loop
      vertex -4.81969 -2.64964 3.5
      vertex -4.44959 -3.23282 -3.5
      vertex -4.44959 -3.23282 3.5
    endloop
  endfacet
  facet normal -0.48176 -0.876303 0
    outer loop
      vertex -2.94705 -4.6438 -3.5
      vertex -2.34179 -4.97655 3.5
      vertex -2.94705 -4.6438 3.5
    endloop
  endfacet
  facet normal -0.48176 -0.876303 -0
    outer loop
      vertex -2.34179 -4.97655 3.5
      vertex -2.94705 -4.6438 -3.5
      vertex -2.34179 -4.97655 -3.5
    endloop
  endfacet
  facet normal 0.951061 -0.309002 0
    outer loop
      vertex -2.17931 0.559552 3.5
      vertex -2.092 0.828279 -3.5
      vertex -2.092 0.828279 3.5
    endloop
  endfacet
  facet normal 0.951061 -0.309002 0
    outer loop
      vertex -2.092 0.828279 -3.5
      vertex -2.17931 0.559552 3.5
      vertex -2.17931 0.559552 -3.5
    endloop
  endfacet
  facet normal -0.84433 -0.535824 0
    outer loop
      vertex 1.97169 1.08395 -3.5
      vertex 1.82029 1.32252 3.5
      vertex 1.82029 1.32252 -3.5
    endloop
  endfacet
  facet normal -0.84433 -0.535824 0
    outer loop
      vertex 1.82029 1.32252 3.5
      vertex 1.97169 1.08395 -3.5
      vertex 1.97169 1.08395 3.5
    endloop
  endfacet
  facet normal -0.248692 -0.968583 0
    outer loop
      vertex 0.421607 2.21015 -3.5
      vertex 0.695288 2.13988 3.5
      vertex 0.421607 2.21015 3.5
    endloop
  endfacet
  facet normal -0.248692 -0.968583 -0
    outer loop
      vertex 0.695288 2.13988 3.5
      vertex 0.421607 2.21015 -3.5
      vertex 0.695288 2.13988 -3.5
    endloop
  endfacet
  facet normal -0.368136 -0.929772 0
    outer loop
      vertex 0.695288 2.13988 -3.5
      vertex 0.958003 2.03586 3.5
      vertex 0.695288 2.13988 3.5
    endloop
  endfacet
  facet normal -0.368136 -0.929772 -0
    outer loop
      vertex 0.958003 2.03586 3.5
      vertex 0.695288 2.13988 -3.5
      vertex 0.958003 2.03586 -3.5
    endloop
  endfacet
  facet normal 0.368136 -0.929772 0
    outer loop
      vertex -0.958003 2.03586 -3.5
      vertex -0.695288 2.13988 3.5
      vertex -0.958003 2.03586 3.5
    endloop
  endfacet
  facet normal 0.368136 -0.929772 0
    outer loop
      vertex -0.695288 2.13988 3.5
      vertex -0.958003 2.03586 -3.5
      vertex -0.695288 2.13988 -3.5
    endloop
  endfacet
  facet normal 0.904827 -0.42578 0
    outer loop
      vertex -2.092 0.828279 3.5
      vertex -1.97169 1.08395 -3.5
      vertex -1.97169 1.08395 3.5
    endloop
  endfacet
  facet normal 0.904827 -0.42578 0
    outer loop
      vertex -1.97169 1.08395 -3.5
      vertex -2.092 0.828279 3.5
      vertex -2.092 0.828279 -3.5
    endloop
  endfacet
  facet normal -0.982285 0.187395 0
    outer loop
      vertex 2.17931 -0.559552 -3.5
      vertex 2.23226 -0.282 3.5
      vertex 2.23226 -0.282 -3.5
    endloop
  endfacet
  facet normal -0.982285 0.187395 0
    outer loop
      vertex 2.23226 -0.282 3.5
      vertex 2.17931 -0.559552 -3.5
      vertex 2.17931 -0.559552 3.5
    endloop
  endfacet
  facet normal -0.684532 -0.728983 0
    outer loop
      vertex 1.4342 1.73365 -3.5
      vertex 1.64018 1.54023 3.5
      vertex 1.4342 1.73365 3.5
    endloop
  endfacet
  facet normal -0.684532 -0.728983 -0
    outer loop
      vertex 1.64018 1.54023 3.5
      vertex 1.4342 1.73365 -3.5
      vertex 1.64018 1.54023 -3.5
    endloop
  endfacet
  facet normal -0.587808 -0.809001 0
    outer loop
      vertex 1.20561 1.89974 -3.5
      vertex 1.4342 1.73365 3.5
      vertex 1.20561 1.89974 3.5
    endloop
  endfacet
  facet normal -0.587808 -0.809001 -0
    outer loop
      vertex 1.4342 1.73365 3.5
      vertex 1.20561 1.89974 -3.5
      vertex 1.4342 1.73365 -3.5
    endloop
  endfacet
  facet normal 0.982285 -0.187395 0
    outer loop
      vertex -2.23226 0.282 3.5
      vertex -2.17931 0.559552 -3.5
      vertex -2.17931 0.559552 3.5
    endloop
  endfacet
  facet normal 0.982285 -0.187395 0
    outer loop
      vertex -2.17931 0.559552 -3.5
      vertex -2.23226 0.282 3.5
      vertex -2.23226 0.282 -3.5
    endloop
  endfacet
  facet normal 0.770505 -0.637434 0
    outer loop
      vertex -1.82029 1.32252 3.5
      vertex -1.64018 1.54023 -3.5
      vertex -1.64018 1.54023 3.5
    endloop
  endfacet
  facet normal 0.770505 -0.637434 0
    outer loop
      vertex -1.64018 1.54023 -3.5
      vertex -1.82029 1.32252 3.5
      vertex -1.82029 1.32252 -3.5
    endloop
  endfacet
  facet normal 0.481745 -0.876311 0
    outer loop
      vertex -1.20561 1.89974 -3.5
      vertex -0.958003 2.03586 3.5
      vertex -1.20561 1.89974 3.5
    endloop
  endfacet
  facet normal 0.481745 -0.876311 0
    outer loop
      vertex -0.958003 2.03586 3.5
      vertex -1.20561 1.89974 -3.5
      vertex -0.958003 2.03586 -3.5
    endloop
  endfacet
  facet normal 0.12532 -0.992116 0
    outer loop
      vertex -0.421607 2.21015 -3.5
      vertex -0.141278 2.24556 3.5
      vertex -0.421607 2.21015 3.5
    endloop
  endfacet
  facet normal 0.12532 -0.992116 0
    outer loop
      vertex -0.141278 2.24556 3.5
      vertex -0.421607 2.21015 -3.5
      vertex -0.141278 2.24556 -3.5
    endloop
  endfacet
  facet normal -0.998027 -0.0627837 0
    outer loop
      vertex 2.25 0 -3.5
      vertex 2.23226 0.282 3.5
      vertex 2.23226 0.282 -3.5
    endloop
  endfacet
  facet normal -0.998027 -0.0627837 0
    outer loop
      vertex 2.23226 0.282 3.5
      vertex 2.25 0 -3.5
      vertex 2.25 0 3.5
    endloop
  endfacet
  facet normal -0.951061 0.309002 0
    outer loop
      vertex 2.092 -0.828279 -3.5
      vertex 2.17931 -0.559552 3.5
      vertex 2.17931 -0.559552 -3.5
    endloop
  endfacet
  facet normal -0.951061 0.309002 0
    outer loop
      vertex 2.17931 -0.559552 3.5
      vertex 2.092 -0.828279 -3.5
      vertex 2.092 -0.828279 3.5
    endloop
  endfacet
  facet normal 0.684532 0.728983 -0
    outer loop
      vertex -1.4342 -1.73365 -3.5
      vertex -1.64018 -1.54023 3.5
      vertex -1.4342 -1.73365 3.5
    endloop
  endfacet
  facet normal 0.684532 0.728983 0
    outer loop
      vertex -1.64018 -1.54023 3.5
      vertex -1.4342 -1.73365 -3.5
      vertex -1.64018 -1.54023 -3.5
    endloop
  endfacet
  facet normal 0.904827 0.42578 0
    outer loop
      vertex -1.97169 -1.08395 3.5
      vertex -2.092 -0.828279 -3.5
      vertex -2.092 -0.828279 3.5
    endloop
  endfacet
  facet normal 0.904827 0.42578 0
    outer loop
      vertex -2.092 -0.828279 -3.5
      vertex -1.97169 -1.08395 3.5
      vertex -1.97169 -1.08395 -3.5
    endloop
  endfacet
  facet normal -0.587808 0.809001 0
    outer loop
      vertex 1.4342 -1.73365 -3.5
      vertex 1.20561 -1.89974 3.5
      vertex 1.4342 -1.73365 3.5
    endloop
  endfacet
  facet normal -0.587808 0.809001 0
    outer loop
      vertex 1.20561 -1.89974 3.5
      vertex 1.4342 -1.73365 -3.5
      vertex 1.20561 -1.89974 -3.5
    endloop
  endfacet
  facet normal -0.770505 -0.637434 0
    outer loop
      vertex 1.82029 1.32252 -3.5
      vertex 1.64018 1.54023 3.5
      vertex 1.64018 1.54023 -3.5
    endloop
  endfacet
  facet normal -0.770505 -0.637434 0
    outer loop
      vertex 1.64018 1.54023 3.5
      vertex 1.82029 1.32252 -3.5
      vertex 1.82029 1.32252 3.5
    endloop
  endfacet
  facet normal 0 -1 0
    outer loop
      vertex -0.141278 2.24556 -3.5
      vertex 0.141278 2.24556 3.5
      vertex -0.141278 2.24556 3.5
    endloop
  endfacet
  facet normal 0 -1 -0
    outer loop
      vertex 0.141278 2.24556 3.5
      vertex -0.141278 2.24556 -3.5
      vertex 0.141278 2.24556 -3.5
    endloop
  endfacet
  facet normal -0.481745 -0.876311 0
    outer loop
      vertex 0.958003 2.03586 -3.5
      vertex 1.20561 1.89974 3.5
      vertex 0.958003 2.03586 3.5
    endloop
  endfacet
  facet normal -0.481745 -0.876311 -0
    outer loop
      vertex 1.20561 1.89974 3.5
      vertex 0.958003 2.03586 -3.5
      vertex 1.20561 1.89974 -3.5
    endloop
  endfacet
  facet normal 0.998027 -0.0627837 0
    outer loop
      vertex -2.25 0 3.5
      vertex -2.23226 0.282 -3.5
      vertex -2.23226 0.282 3.5
    endloop
  endfacet
  facet normal 0.998027 -0.0627837 0
    outer loop
      vertex -2.23226 0.282 -3.5
      vertex -2.25 0 3.5
      vertex -2.25 0 -3.5
    endloop
  endfacet
  facet normal 0.84433 -0.535824 0
    outer loop
      vertex -1.97169 1.08395 3.5
      vertex -1.82029 1.32252 -3.5
      vertex -1.82029 1.32252 3.5
    endloop
  endfacet
  facet normal 0.84433 -0.535824 0
    outer loop
      vertex -1.82029 1.32252 -3.5
      vertex -1.97169 1.08395 3.5
      vertex -1.97169 1.08395 -3.5
    endloop
  endfacet
  facet normal 0.248692 -0.968583 0
    outer loop
      vertex -0.695288 2.13988 -3.5
      vertex -0.421607 2.21015 3.5
      vertex -0.695288 2.13988 3.5
    endloop
  endfacet
  facet normal 0.248692 -0.968583 0
    outer loop
      vertex -0.421607 2.21015 3.5
      vertex -0.695288 2.13988 -3.5
      vertex -0.421607 2.21015 -3.5
    endloop
  endfacet
  facet normal 0.587808 -0.809001 0
    outer loop
      vertex -1.4342 1.73365 -3.5
      vertex -1.20561 1.89974 3.5
      vertex -1.4342 1.73365 3.5
    endloop
  endfacet
  facet normal 0.587808 -0.809001 0
    outer loop
      vertex -1.20561 1.89974 3.5
      vertex -1.4342 1.73365 -3.5
      vertex -1.20561 1.89974 -3.5
    endloop
  endfacet
  facet normal 0.684532 -0.728983 0
    outer loop
      vertex -1.64018 1.54023 -3.5
      vertex -1.4342 1.73365 3.5
      vertex -1.64018 1.54023 3.5
    endloop
  endfacet
  facet normal 0.684532 -0.728983 0
    outer loop
      vertex -1.4342 1.73365 3.5
      vertex -1.64018 1.54023 -3.5
      vertex -1.4342 1.73365 -3.5
    endloop
  endfacet
  facet normal -0.84433 0.535824 0
    outer loop
      vertex 1.82029 -1.32252 -3.5
      vertex 1.97169 -1.08395 3.5
      vertex 1.97169 -1.08395 -3.5
    endloop
  endfacet
  facet normal -0.84433 0.535824 0
    outer loop
      vertex 1.97169 -1.08395 3.5
      vertex 1.82029 -1.32252 -3.5
      vertex 1.82029 -1.32252 3.5
    endloop
  endfacet
  facet normal 0 1 -0
    outer loop
      vertex 0.141278 -2.24556 -3.5
      vertex -0.141278 -2.24556 3.5
      vertex 0.141278 -2.24556 3.5
    endloop
  endfacet
  facet normal 0 1 0
    outer loop
      vertex -0.141278 -2.24556 3.5
      vertex 0.141278 -2.24556 -3.5
      vertex -0.141278 -2.24556 -3.5
    endloop
  endfacet
  facet normal 0.951061 0.309002 0
    outer loop
      vertex -2.092 -0.828279 3.5
      vertex -2.17931 -0.559552 -3.5
      vertex -2.17931 -0.559552 3.5
    endloop
  endfacet
  facet normal 0.951061 0.309002 0
    outer loop
      vertex -2.17931 -0.559552 -3.5
      vertex -2.092 -0.828279 3.5
      vertex -2.092 -0.828279 -3.5
    endloop
  endfacet
  facet normal 0.770505 0.637434 0
    outer loop
      vertex -1.64018 -1.54023 3.5
      vertex -1.82029 -1.32252 -3.5
      vertex -1.82029 -1.32252 3.5
    endloop
  endfacet
  facet normal 0.770505 0.637434 0
    outer loop
      vertex -1.82029 -1.32252 -3.5
      vertex -1.64018 -1.54023 3.5
      vertex -1.64018 -1.54023 -3.5
    endloop
  endfacet
  facet normal -0.12532 0.992116 0
    outer loop
      vertex 0.421607 -2.21015 -3.5
      vertex 0.141278 -2.24556 3.5
      vertex 0.421607 -2.21015 3.5
    endloop
  endfacet
  facet normal -0.12532 0.992116 0
    outer loop
      vertex 0.141278 -2.24556 3.5
      vertex 0.421607 -2.21015 -3.5
      vertex 0.141278 -2.24556 -3.5
    endloop
  endfacet
  facet normal -0.904827 -0.42578 0
    outer loop
      vertex 2.092 0.828279 -3.5
      vertex 1.97169 1.08395 3.5
      vertex 1.97169 1.08395 -3.5
    endloop
  endfacet
  facet normal -0.904827 -0.42578 0
    outer loop
      vertex 1.97169 1.08395 3.5
      vertex 2.092 0.828279 -3.5
      vertex 2.092 0.828279 3.5
    endloop
  endfacet
  facet normal -0.951061 -0.309002 0
    outer loop
      vertex 2.17931 0.559552 -3.5
      vertex 2.092 0.828279 3.5
      vertex 2.092 0.828279 -3.5
    endloop
  endfacet
  facet normal -0.951061 -0.309002 0
    outer loop
      vertex 2.092 0.828279 3.5
      vertex 2.17931 0.559552 -3.5
      vertex 2.17931 0.559552 3.5
    endloop
  endfacet
  facet normal -0.982285 -0.187395 0
    outer loop
      vertex 2.23226 0.282 -3.5
      vertex 2.17931 0.559552 3.5
      vertex 2.17931 0.559552 -3.5
    endloop
  endfacet
  facet normal -0.982285 -0.187395 0
    outer loop
      vertex 2.17931 0.559552 3.5
      vertex 2.23226 0.282 -3.5
      vertex 2.23226 0.282 3.5
    endloop
  endfacet
  facet normal -0.12532 -0.992116 0
    outer loop
      vertex 0.141278 2.24556 -3.5
      vertex 0.421607 2.21015 3.5
      vertex 0.141278 2.24556 3.5
    endloop
  endfacet
  facet normal -0.12532 -0.992116 -0
    outer loop
      vertex 0.421607 2.21015 3.5
      vertex 0.141278 2.24556 -3.5
      vertex 0.421607 2.21015 -3.5
    endloop
  endfacet
  facet normal -0.998027 0.0627837 0
    outer loop
      vertex 2.23226 -0.282 -3.5
      vertex 2.25 0 3.5
      vertex 2.25 0 -3.5
    endloop
  endfacet
  facet normal -0.998027 0.0627837 0
    outer loop
      vertex 2.25 0 3.5
      vertex 2.23226 -0.282 -3.5
      vertex 2.23226 -0.282 3.5
    endloop
  endfacet
  facet normal -0.904827 0.42578 0
    outer loop
      vertex 1.97169 -1.08395 -3.5
      vertex 2.092 -0.828279 3.5
      vertex 2.092 -0.828279 -3.5
    endloop
  endfacet
  facet normal -0.904827 0.42578 0
    outer loop
      vertex 2.092 -0.828279 3.5
      vertex 1.97169 -1.08395 -3.5
      vertex 1.97169 -1.08395 3.5
    endloop
  endfacet
  facet normal 0.368136 0.929772 -0
    outer loop
      vertex -0.695288 -2.13988 -3.5
      vertex -0.958003 -2.03586 3.5
      vertex -0.695288 -2.13988 3.5
    endloop
  endfacet
  facet normal 0.368136 0.929772 0
    outer loop
      vertex -0.958003 -2.03586 3.5
      vertex -0.695288 -2.13988 -3.5
      vertex -0.958003 -2.03586 -3.5
    endloop
  endfacet
  facet normal -0.368136 0.929772 0
    outer loop
      vertex 0.958003 -2.03586 -3.5
      vertex 0.695288 -2.13988 3.5
      vertex 0.958003 -2.03586 3.5
    endloop
  endfacet
  facet normal -0.368136 0.929772 0
    outer loop
      vertex 0.695288 -2.13988 3.5
      vertex 0.958003 -2.03586 -3.5
      vertex 0.695288 -2.13988 -3.5
    endloop
  endfacet
  facet normal -0.248692 0.968583 0
    outer loop
      vertex 0.695288 -2.13988 -3.5
      vertex 0.421607 -2.21015 3.5
      vertex 0.695288 -2.13988 3.5
    endloop
  endfacet
  facet normal -0.248692 0.968583 0
    outer loop
      vertex 0.421607 -2.21015 3.5
      vertex 0.695288 -2.13988 -3.5
      vertex 0.421607 -2.21015 -3.5
    endloop
  endfacet
  facet normal -0.770505 0.637434 0
    outer loop
      vertex 1.64018 -1.54023 -3.5
      vertex 1.82029 -1.32252 3.5
      vertex 1.82029 -1.32252 -3.5
    endloop
  endfacet
  facet normal -0.770505 0.637434 0
    outer loop
      vertex 1.82029 -1.32252 3.5
      vertex 1.64018 -1.54023 -3.5
      vertex 1.64018 -1.54023 3.5
    endloop
  endfacet
  facet normal 0.481745 0.876311 -0
    outer loop
      vertex -0.958003 -2.03586 -3.5
      vertex -1.20561 -1.89974 3.5
      vertex -0.958003 -2.03586 3.5
    endloop
  endfacet
  facet normal 0.481745 0.876311 0
    outer loop
      vertex -1.20561 -1.89974 3.5
      vertex -0.958003 -2.03586 -3.5
      vertex -1.20561 -1.89974 -3.5
    endloop
  endfacet
  facet normal 0.982285 0.187395 0
    outer loop
      vertex -2.17931 -0.559552 3.5
      vertex -2.23226 -0.282 -3.5
      vertex -2.23226 -0.282 3.5
    endloop
  endfacet
  facet normal 0.982285 0.187395 0
    outer loop
      vertex -2.23226 -0.282 -3.5
      vertex -2.17931 -0.559552 3.5
      vertex -2.17931 -0.559552 -3.5
    endloop
  endfacet
  facet normal 0.998027 0.0627837 0
    outer loop
      vertex -2.23226 -0.282 3.5
      vertex -2.25 0 -3.5
      vertex -2.25 0 3.5
    endloop
  endfacet
  facet normal 0.998027 0.0627837 0
    outer loop
      vertex -2.25 0 -3.5
      vertex -2.23226 -0.282 3.5
      vertex -2.23226 -0.282 -3.5
    endloop
  endfacet
  facet normal 0.84433 0.535824 0
    outer loop
      vertex -1.82029 -1.32252 3.5
      vertex -1.97169 -1.08395 -3.5
      vertex -1.97169 -1.08395 3.5
    endloop
  endfacet
  facet normal 0.84433 0.535824 0
    outer loop
      vertex -1.97169 -1.08395 -3.5
      vertex -1.82029 -1.32252 3.5
      vertex -1.82029 -1.32252 -3.5
    endloop
  endfacet
  facet normal -0.481745 0.876311 0
    outer loop
      vertex 1.20561 -1.89974 -3.5
      vertex 0.958003 -2.03586 3.5
      vertex 1.20561 -1.89974 3.5
    endloop
  endfacet
  facet normal -0.481745 0.876311 0
    outer loop
      vertex 0.958003 -2.03586 3.5
      vertex 1.20561 -1.89974 -3.5
      vertex 0.958003 -2.03586 -3.5
    endloop
  endfacet
  facet normal -0.684532 0.728983 0
    outer loop
      vertex 1.64018 -1.54023 -3.5
      vertex 1.4342 -1.73365 3.5
      vertex 1.64018 -1.54023 3.5
    endloop
  endfacet
  facet normal -0.684532 0.728983 0
    outer loop
      vertex 1.4342 -1.73365 3.5
      vertex 1.64018 -1.54023 -3.5
      vertex 1.4342 -1.73365 -3.5
    endloop
  endfacet
  facet normal 0.587808 0.809001 -0
    outer loop
      vertex -1.20561 -1.89974 -3.5
      vertex -1.4342 -1.73365 3.5
      vertex -1.20561 -1.89974 3.5
    endloop
  endfacet
  facet normal 0.587808 0.809001 0
    outer loop
      vertex -1.4342 -1.73365 3.5
      vertex -1.20561 -1.89974 -3.5
      vertex -1.4342 -1.73365 -3.5
    endloop
  endfacet
  facet normal 0.248692 0.968583 -0
    outer loop
      vertex -0.421607 -2.21015 -3.5
      vertex -0.695288 -2.13988 3.5
      vertex -0.421607 -2.21015 3.5
    endloop
  endfacet
  facet normal 0.248692 0.968583 0
    outer loop
      vertex -0.695288 -2.13988 3.5
      vertex -0.421607 -2.21015 -3.5
      vertex -0.695288 -2.13988 -3.5
    endloop
  endfacet
  facet normal 0.12532 0.992116 -0
    outer loop
      vertex -0.141278 -2.24556 -3.5
      vertex -0.421607 -2.21015 3.5
      vertex -0.141278 -2.24556 3.5
    endloop
  endfacet
  facet normal 0.12532 0.992116 0
    outer loop
      vertex -0.421607 -2.21015 3.5
      vertex -0.141278 -2.24556 -3.5
      vertex -0.421607 -2.21015 -3.5
    endloop
  endfacet
endsolid OpenSCAD_Model
