solid OpenSCAD_Model
  facet normal 0.998026 0.0627973 0
    outer loop
      vertex 6.5 0 10.5
      vertex 6.44874 0.814666 -10.5
      vertex 6.44874 0.814666 10.5
    endloop
  endfacet
  facet normal 0.998026 0.0627973 0
    outer loop
      vertex 6.44874 0.814666 -10.5
      vertex 6.5 0 10.5
      vertex 6.5 0 -10.5
    endloop
  endfacet
  facet normal -0.998026 0.0627973 0
    outer loop
      vertex -6.5 0 -10.5
      vertex -6.44874 0.814666 10.5
      vertex -6.44874 0.814666 -10.5
    endloop
  endfacet
  facet normal -0.998026 0.0627973 0
    outer loop
      vertex -6.44874 0.814666 10.5
      vertex -6.5 0 -10.5
      vertex -6.5 0 10.5
    endloop
  endfacet
  facet normal 0 1 -0
    outer loop
      vertex 0.408138 6.48717 -10.5
      vertex -0.408138 6.48717 10.5
      vertex 0.408138 6.48717 10.5
    endloop
  endfacet
  facet normal 0 1 0
    outer loop
      vertex -0.408138 6.48717 10.5
      vertex 0.408138 6.48717 -10.5
      vertex -0.408138 6.48717 -10.5
    endloop
  endfacet
  facet normal 0 -1 0
    outer loop
      vertex -0.408138 -6.48717 -10.5
      vertex 0.408138 -6.48717 10.5
      vertex -0.408138 -6.48717 10.5
    endloop
  endfacet
  facet normal 0 -1 -0
    outer loop
      vertex 0.408138 -6.48717 10.5
      vertex -0.408138 -6.48717 -10.5
      vertex 0.408138 -6.48717 -10.5
    endloop
  endfacet
  facet normal 0.684547 0.728968 -0
    outer loop
      vertex 4.7383 4.44956 -10.5
      vertex 4.14326 5.00834 10.5
      vertex 4.7383 4.44956 10.5
    endloop
  endfacet
  facet normal 0.684547 0.728968 0
    outer loop
      vertex 4.14326 5.00834 10.5
      vertex 4.7383 4.44956 -10.5
      vertex 4.14326 5.00834 -10.5
    endloop
  endfacet
  facet normal -0.684547 0.728968 0
    outer loop
      vertex -4.14326 5.00834 -10.5
      vertex -4.7383 4.44956 10.5
      vertex -4.14326 5.00834 10.5
    endloop
  endfacet
  facet normal -0.684547 0.728968 0
    outer loop
      vertex -4.7383 4.44956 10.5
      vertex -4.14326 5.00834 -10.5
      vertex -4.7383 4.44956 -10.5
    endloop
  endfacet
  facet normal -0.368125 0.929776 0
    outer loop
      vertex -2.00861 6.18187 -10.5
      vertex -2.76756 5.88138 10.5
      vertex -2.00861 6.18187 10.5
    endloop
  endfacet
  facet normal -0.368125 0.929776 0
    outer loop
      vertex -2.76756 5.88138 10.5
      vertex -2.00861 6.18187 -10.5
      vertex -2.76756 5.88138 -10.5
    endloop
  endfacet
  facet normal 0.904824 -0.425785 0
    outer loop
      vertex 5.69599 -3.1314 10.5
      vertex 6.04355 -2.39281 -10.5
      vertex 6.04355 -2.39281 10.5
    endloop
  endfacet
  facet normal 0.904824 -0.425785 0
    outer loop
      vertex 6.04355 -2.39281 -10.5
      vertex 5.69599 -3.1314 10.5
      vertex 5.69599 -3.1314 -10.5
    endloop
  endfacet
  facet normal 0.904824 0.425785 0
    outer loop
      vertex 6.04355 2.39281 10.5
      vertex 5.69599 3.1314 -10.5
      vertex 5.69599 3.1314 10.5
    endloop
  endfacet
  facet normal 0.904824 0.425785 0
    outer loop
      vertex 5.69599 3.1314 -10.5
      vertex 6.04355 2.39281 10.5
      vertex 6.04355 2.39281 -10.5
    endloop
  endfacet
  facet normal 0.844328 0.535827 0
    outer loop
      vertex 5.69599 3.1314 10.5
      vertex 5.25861 3.8206 -10.5
      vertex 5.25861 3.8206 10.5
    endloop
  endfacet
  facet normal 0.844328 0.535827 0
    outer loop
      vertex 5.25861 3.8206 -10.5
      vertex 5.69599 3.1314 10.5
      vertex 5.69599 3.1314 -10.5
    endloop
  endfacet
  facet normal 0.368125 0.929776 -0
    outer loop
      vertex 2.76756 5.88138 -10.5
      vertex 2.00861 6.18187 10.5
      vertex 2.76756 5.88138 10.5
    endloop
  endfacet
  facet normal 0.368125 0.929776 0
    outer loop
      vertex 2.00861 6.18187 10.5
      vertex 2.76756 5.88138 -10.5
      vertex 2.00861 6.18187 -10.5
    endloop
  endfacet
  facet normal 0.248691 0.968583 -0
    outer loop
      vertex 2.00861 6.18187 -10.5
      vertex 1.21798 6.38487 10.5
      vertex 2.00861 6.18187 10.5
    endloop
  endfacet
  facet normal 0.248691 0.968583 0
    outer loop
      vertex 1.21798 6.38487 10.5
      vertex 2.00861 6.18187 -10.5
      vertex 1.21798 6.38487 -10.5
    endloop
  endfacet
  facet normal 0.481758 0.876304 -0
    outer loop
      vertex 3.48287 5.48813 -10.5
      vertex 2.76756 5.88138 10.5
      vertex 3.48287 5.48813 10.5
    endloop
  endfacet
  facet normal 0.481758 0.876304 0
    outer loop
      vertex 2.76756 5.88138 10.5
      vertex 3.48287 5.48813 -10.5
      vertex 2.76756 5.88138 -10.5
    endloop
  endfacet
  facet normal -0.904824 0.425785 0
    outer loop
      vertex -6.04355 2.39281 -10.5
      vertex -5.69599 3.1314 10.5
      vertex -5.69599 3.1314 -10.5
    endloop
  endfacet
  facet normal -0.904824 0.425785 0
    outer loop
      vertex -5.69599 3.1314 10.5
      vertex -6.04355 2.39281 -10.5
      vertex -6.04355 2.39281 10.5
    endloop
  endfacet
  facet normal -0.77052 0.637416 0
    outer loop
      vertex -5.25861 3.8206 -10.5
      vertex -4.7383 4.44956 10.5
      vertex -4.7383 4.44956 -10.5
    endloop
  endfacet
  facet normal -0.77052 0.637416 0
    outer loop
      vertex -4.7383 4.44956 10.5
      vertex -5.25861 3.8206 -10.5
      vertex -5.25861 3.8206 10.5
    endloop
  endfacet
  facet normal -0.951058 0.309012 0
    outer loop
      vertex -6.29579 1.61648 -10.5
      vertex -6.04355 2.39281 10.5
      vertex -6.04355 2.39281 -10.5
    endloop
  endfacet
  facet normal -0.951058 0.309012 0
    outer loop
      vertex -6.04355 2.39281 10.5
      vertex -6.29579 1.61648 -10.5
      vertex -6.29579 1.61648 10.5
    endloop
  endfacet
  facet normal -0.125325 0.992116 0
    outer loop
      vertex -0.408138 6.48717 -10.5
      vertex -1.21798 6.38487 10.5
      vertex -0.408138 6.48717 10.5
    endloop
  endfacet
  facet normal -0.125325 0.992116 0
    outer loop
      vertex -1.21798 6.38487 10.5
      vertex -0.408138 6.48717 -10.5
      vertex -1.21798 6.38487 -10.5
    endloop
  endfacet
  facet normal 0.125325 -0.992116 0
    outer loop
      vertex 0.408138 -6.48717 -10.5
      vertex 1.21798 -6.38487 10.5
      vertex 0.408138 -6.48717 10.5
    endloop
  endfacet
  facet normal 0.125325 -0.992116 0
    outer loop
      vertex 1.21798 -6.38487 10.5
      vertex 0.408138 -6.48717 -10.5
      vertex 1.21798 -6.38487 -10.5
    endloop
  endfacet
  facet normal 0.368125 -0.929776 0
    outer loop
      vertex 2.00861 -6.18187 -10.5
      vertex 2.76756 -5.88138 10.5
      vertex 2.00861 -6.18187 10.5
    endloop
  endfacet
  facet normal 0.368125 -0.929776 0
    outer loop
      vertex 2.76756 -5.88138 10.5
      vertex 2.00861 -6.18187 -10.5
      vertex 2.76756 -5.88138 -10.5
    endloop
  endfacet
  facet normal 0.951058 0.309012 0
    outer loop
      vertex 6.29579 1.61648 10.5
      vertex 6.04355 2.39281 -10.5
      vertex 6.04355 2.39281 10.5
    endloop
  endfacet
  facet normal 0.951058 0.309012 0
    outer loop
      vertex 6.04355 2.39281 -10.5
      vertex 6.29579 1.61648 10.5
      vertex 6.29579 1.61648 -10.5
    endloop
  endfacet
  facet normal 0.982288 0.187376 0
    outer loop
      vertex 6.44874 0.814666 10.5
      vertex 6.29579 1.61648 -10.5
      vertex 6.29579 1.61648 10.5
    endloop
  endfacet
  facet normal 0.982288 0.187376 0
    outer loop
      vertex 6.29579 1.61648 -10.5
      vertex 6.44874 0.814666 10.5
      vertex 6.44874 0.814666 -10.5
    endloop
  endfacet
  facet normal 0.77052 0.637416 0
    outer loop
      vertex 5.25861 3.8206 10.5
      vertex 4.7383 4.44956 -10.5
      vertex 4.7383 4.44956 10.5
    endloop
  endfacet
  facet normal 0.77052 0.637416 0
    outer loop
      vertex 4.7383 4.44956 -10.5
      vertex 5.25861 3.8206 10.5
      vertex 5.25861 3.8206 -10.5
    endloop
  endfacet
  facet normal 0.125325 0.992116 -0
    outer loop
      vertex 1.21798 6.38487 -10.5
      vertex 0.408138 6.48717 10.5
      vertex 1.21798 6.38487 10.5
    endloop
  endfacet
  facet normal 0.125325 0.992116 0
    outer loop
      vertex 0.408138 6.48717 10.5
      vertex 1.21798 6.38487 -10.5
      vertex 0.408138 6.48717 -10.5
    endloop
  endfacet
  facet normal 0.587776 0.809024 -0
    outer loop
      vertex 4.14326 5.00834 -10.5
      vertex 3.48287 5.48813 10.5
      vertex 4.14326 5.00834 10.5
    endloop
  endfacet
  facet normal 0.587776 0.809024 0
    outer loop
      vertex 3.48287 5.48813 10.5
      vertex 4.14326 5.00834 -10.5
      vertex 3.48287 5.48813 -10.5
    endloop
  endfacet
  facet normal -0.844328 0.535827 0
    outer loop
      vertex -5.69599 3.1314 -10.5
      vertex -5.25861 3.8206 10.5
      vertex -5.25861 3.8206 -10.5
    endloop
  endfacet
  facet normal -0.844328 0.535827 0
    outer loop
      vertex -5.25861 3.8206 10.5
      vertex -5.69599 3.1314 -10.5
      vertex -5.69599 3.1314 10.5
    endloop
  endfacet
  facet normal -0.982288 0.187376 0
    outer loop
      vertex -6.44874 0.814666 -10.5
      vertex -6.29579 1.61648 10.5
      vertex -6.29579 1.61648 -10.5
    endloop
  endfacet
  facet normal -0.982288 0.187376 0
    outer loop
      vertex -6.29579 1.61648 10.5
      vertex -6.44874 0.814666 -10.5
      vertex -6.44874 0.814666 10.5
    endloop
  endfacet
  facet normal 0 0 1
    outer loop
      vertex 5.25 0 10.5
      vertex 6.5 0 10.5
      vertex 6.44874 0.814666 10.5
    endloop
  endfacet
  facet normal 0 0 1
    outer loop
      vertex 5.2086 0.657999 10.5
      vertex 6.44874 0.814666 10.5
      vertex 6.29579 1.61648 10.5
    endloop
  endfacet
  facet normal 0 0 1
    outer loop
      vertex 6.5 0 10.5
      vertex 5.25 0 10.5
      vertex 6.44874 -0.814666 10.5
    endloop
  endfacet
  facet normal 0 0 1
    outer loop
      vertex 5.08506 1.30562 10.5
      vertex 6.29579 1.61648 10.5
      vertex 6.04355 2.39281 10.5
    endloop
  endfacet
  facet normal -0 0 1
    outer loop
      vertex 5.2086 -0.657999 10.5
      vertex 6.44874 -0.814666 10.5
      vertex 5.25 0 10.5
    endloop
  endfacet
  facet normal 0 0 1
    outer loop
      vertex 4.88133 1.93265 10.5
      vertex 6.04355 2.39281 10.5
      vertex 5.69599 3.1314 10.5
    endloop
  endfacet
  facet normal 0 0 1
    outer loop
      vertex 6.44874 -0.814666 10.5
      vertex 5.2086 -0.657999 10.5
      vertex 6.29579 -1.61648 10.5
    endloop
  endfacet
  facet normal 0 0 1
    outer loop
      vertex 4.60061 2.52921 10.5
      vertex 5.69599 3.1314 10.5
      vertex 5.25861 3.8206 10.5
    endloop
  endfacet
  facet normal -0 0 1
    outer loop
      vertex 5.08506 -1.30562 10.5
      vertex 6.29579 -1.61648 10.5
      vertex 5.2086 -0.657999 10.5
    endloop
  endfacet
  facet normal 0 0 1
    outer loop
      vertex 6.29579 -1.61648 10.5
      vertex 5.08506 -1.30562 10.5
      vertex 6.04355 -2.39281 10.5
    endloop
  endfacet
  facet normal 0 0 1
    outer loop
      vertex 6.44874 0.814666 10.5
      vertex 5.2086 0.657999 10.5
      vertex 5.25 0 10.5
    endloop
  endfacet
  facet normal 0 0 1
    outer loop
      vertex 6.29579 1.61648 10.5
      vertex 5.08506 1.30562 10.5
      vertex 5.2086 0.657999 10.5
    endloop
  endfacet
  facet normal 0 0 1
    outer loop
      vertex 6.04355 2.39281 10.5
      vertex 4.88133 1.93265 10.5
      vertex 5.08506 1.30562 10.5
    endloop
  endfacet
  facet normal 0 0 1
    outer loop
      vertex 4.24734 3.08587 10.5
      vertex 5.25861 3.8206 10.5
      vertex 4.7383 4.44956 10.5
    endloop
  endfacet
  facet normal 0 0 1
    outer loop
      vertex 5.69599 3.1314 10.5
      vertex 4.60061 2.52921 10.5
      vertex 4.88133 1.93265 10.5
    endloop
  endfacet
  facet normal 0 0 1
    outer loop
      vertex 5.25861 3.8206 10.5
      vertex 4.24734 3.08587 10.5
      vertex 4.60061 2.52921 10.5
    endloop
  endfacet
  facet normal 0 0 1
    outer loop
      vertex 3.82708 3.59387 10.5
      vertex 4.7383 4.44956 10.5
      vertex 4.14326 5.00834 10.5
    endloop
  endfacet
  facet normal 0 0 1
    outer loop
      vertex 4.7383 4.44956 10.5
      vertex 3.82708 3.59387 10.5
      vertex 4.24734 3.08587 10.5
    endloop
  endfacet
  facet normal 0 0 1
    outer loop
      vertex 3.34648 4.04519 10.5
      vertex 4.14326 5.00834 10.5
      vertex 3.48287 5.48813 10.5
    endloop
  endfacet
  facet normal 0 0 1
    outer loop
      vertex 4.14326 5.00834 10.5
      vertex 3.34648 4.04519 10.5
      vertex 3.82708 3.59387 10.5
    endloop
  endfacet
  facet normal 0 0 1
    outer loop
      vertex 3.48287 5.48813 10.5
      vertex 2.81309 4.43272 10.5
      vertex 3.34648 4.04519 10.5
    endloop
  endfacet
  facet normal 0 0 1
    outer loop
      vertex 2.76756 5.88138 10.5
      vertex 2.81309 4.43272 10.5
      vertex 3.48287 5.48813 10.5
    endloop
  endfacet
  facet normal 0 0 1
    outer loop
      vertex 2.76756 5.88138 10.5
      vertex 2.23534 4.75034 10.5
      vertex 2.81309 4.43272 10.5
    endloop
  endfacet
  facet normal 0 0 1
    outer loop
      vertex 2.00861 6.18187 10.5
      vertex 2.23534 4.75034 10.5
      vertex 2.76756 5.88138 10.5
    endloop
  endfacet
  facet normal 0 0 1
    outer loop
      vertex 2.00861 6.18187 10.5
      vertex 1.62234 4.99305 10.5
      vertex 2.23534 4.75034 10.5
    endloop
  endfacet
  facet normal 0 0 1
    outer loop
      vertex 1.21798 6.38487 10.5
      vertex 1.62234 4.99305 10.5
      vertex 2.00861 6.18187 10.5
    endloop
  endfacet
  facet normal 0 0 1
    outer loop
      vertex 1.21798 6.38487 10.5
      vertex 0.983751 5.15701 10.5
      vertex 1.62234 4.99305 10.5
    endloop
  endfacet
  facet normal 0 0 1
    outer loop
      vertex 0.408138 6.48717 10.5
      vertex 0.983751 5.15701 10.5
      vertex 1.21798 6.38487 10.5
    endloop
  endfacet
  facet normal 0 0 1
    outer loop
      vertex 0.408138 6.48717 10.5
      vertex 0.32965 5.23964 10.5
      vertex 0.983751 5.15701 10.5
    endloop
  endfacet
  facet normal 0 0 1
    outer loop
      vertex 0.408138 6.48717 10.5
      vertex -0.32965 5.23964 10.5
      vertex 0.32965 5.23964 10.5
    endloop
  endfacet
  facet normal -0 0 1
    outer loop
      vertex -0.408138 6.48717 10.5
      vertex -0.32965 5.23964 10.5
      vertex 0.408138 6.48717 10.5
    endloop
  endfacet
  facet normal 0 0 1
    outer loop
      vertex -0.408138 6.48717 10.5
      vertex -0.983751 5.15701 10.5
      vertex -0.32965 5.23964 10.5
    endloop
  endfacet
  facet normal -0 0 1
    outer loop
      vertex -1.21798 6.38487 10.5
      vertex -0.983751 5.15701 10.5
      vertex -0.408138 6.48717 10.5
    endloop
  endfacet
  facet normal 0 0 1
    outer loop
      vertex -1.21798 6.38487 10.5
      vertex -1.62234 4.99305 10.5
      vertex -0.983751 5.15701 10.5
    endloop
  endfacet
  facet normal -0 0 1
    outer loop
      vertex -2.00861 6.18187 10.5
      vertex -1.62234 4.99305 10.5
      vertex -1.21798 6.38487 10.5
    endloop
  endfacet
  facet normal 0 0 1
    outer loop
      vertex -2.00861 6.18187 10.5
      vertex -2.23534 4.75034 10.5
      vertex -1.62234 4.99305 10.5
    endloop
  endfacet
  facet normal -0 0 1
    outer loop
      vertex -2.76756 5.88138 10.5
      vertex -2.23534 4.75034 10.5
      vertex -2.00861 6.18187 10.5
    endloop
  endfacet
  facet normal 0 0 1
    outer loop
      vertex -2.76756 5.88138 10.5
      vertex -2.81309 4.43272 10.5
      vertex -2.23534 4.75034 10.5
    endloop
  endfacet
  facet normal -0 0 1
    outer loop
      vertex -3.48287 5.48813 10.5
      vertex -2.81309 4.43272 10.5
      vertex -2.76756 5.88138 10.5
    endloop
  endfacet
  facet normal 0 0 1
    outer loop
      vertex -2.81309 4.43272 10.5
      vertex -3.48287 5.48813 10.5
      vertex -3.34648 4.04519 10.5
    endloop
  endfacet
  facet normal -0 0 1
    outer loop
      vertex -4.14326 5.00834 10.5
      vertex -3.34648 4.04519 10.5
      vertex -3.48287 5.48813 10.5
    endloop
  endfacet
  facet normal 0 0 1
    outer loop
      vertex -3.34648 4.04519 10.5
      vertex -4.14326 5.00834 10.5
      vertex -3.82708 3.59387 10.5
    endloop
  endfacet
  facet normal -0 0 1
    outer loop
      vertex -4.7383 4.44956 10.5
      vertex -3.82708 3.59387 10.5
      vertex -4.14326 5.00834 10.5
    endloop
  endfacet
  facet normal 0 0 1
    outer loop
      vertex -3.82708 3.59387 10.5
      vertex -4.7383 4.44956 10.5
      vertex -4.24734 3.08587 10.5
    endloop
  endfacet
  facet normal -0 0 1
    outer loop
      vertex -5.25861 3.8206 10.5
      vertex -4.24734 3.08587 10.5
      vertex -4.7383 4.44956 10.5
    endloop
  endfacet
  facet normal 0 0 1
    outer loop
      vertex -4.24734 3.08587 10.5
      vertex -5.25861 3.8206 10.5
      vertex -4.60061 2.52921 10.5
    endloop
  endfacet
  facet normal -0 0 1
    outer loop
      vertex -5.69599 3.1314 10.5
      vertex -4.60061 2.52921 10.5
      vertex -5.25861 3.8206 10.5
    endloop
  endfacet
  facet normal 0 0 1
    outer loop
      vertex -4.60061 2.52921 10.5
      vertex -5.69599 3.1314 10.5
      vertex -4.88133 1.93265 10.5
    endloop
  endfacet
  facet normal 0 0 1
    outer loop
      vertex -4.88133 1.93265 10.5
      vertex -6.04355 2.39281 10.5
      vertex -5.08506 1.30562 10.5
    endloop
  endfacet
  facet normal -0 0 1
    outer loop
      vertex -6.04355 2.39281 10.5
      vertex -4.88133 1.93265 10.5
      vertex -5.69599 3.1314 10.5
    endloop
  endfacet
  facet normal -0 0 1
    outer loop
      vertex 4.88133 -1.93265 10.5
      vertex 6.04355 -2.39281 10.5
      vertex 5.08506 -1.30562 10.5
    endloop
  endfacet
  facet normal 0 0 1
    outer loop
      vertex 6.04355 -2.39281 10.5
      vertex 4.88133 -1.93265 10.5
      vertex 5.69599 -3.1314 10.5
    endloop
  endfacet
  facet normal -0 0 1
    outer loop
      vertex 4.60061 -2.52921 10.5
      vertex 5.69599 -3.1314 10.5
      vertex 4.88133 -1.93265 10.5
    endloop
  endfacet
  facet normal 0 0 1
    outer loop
      vertex 5.69599 -3.1314 10.5
      vertex 4.60061 -2.52921 10.5
      vertex 5.25861 -3.8206 10.5
    endloop
  endfacet
  facet normal -0 0 1
    outer loop
      vertex 4.24734 -3.08587 10.5
      vertex 5.25861 -3.8206 10.5
      vertex 4.60061 -2.52921 10.5
    endloop
  endfacet
  facet normal 0 0 1
    outer loop
      vertex 5.25861 -3.8206 10.5
      vertex 4.24734 -3.08587 10.5
      vertex 4.7383 -4.44956 10.5
    endloop
  endfacet
  facet normal -0 0 1
    outer loop
      vertex 3.82708 -3.59387 10.5
      vertex 4.7383 -4.44956 10.5
      vertex 4.24734 -3.08587 10.5
    endloop
  endfacet
  facet normal 0 0 1
    outer loop
      vertex 4.7383 -4.44956 10.5
      vertex 3.82708 -3.59387 10.5
      vertex 4.14326 -5.00834 10.5
    endloop
  endfacet
  facet normal -0 0 1
    outer loop
      vertex 3.34648 -4.04519 10.5
      vertex 4.14326 -5.00834 10.5
      vertex 3.82708 -3.59387 10.5
    endloop
  endfacet
  facet normal 0 0 1
    outer loop
      vertex 4.14326 -5.00834 10.5
      vertex 3.34648 -4.04519 10.5
      vertex 3.48287 -5.48813 10.5
    endloop
  endfacet
  facet normal -0 0 1
    outer loop
      vertex 2.81309 -4.43272 10.5
      vertex 3.48287 -5.48813 10.5
      vertex 3.34648 -4.04519 10.5
    endloop
  endfacet
  facet normal 0 0 1
    outer loop
      vertex 2.81309 -4.43272 10.5
      vertex 2.76756 -5.88138 10.5
      vertex 3.48287 -5.48813 10.5
    endloop
  endfacet
  facet normal -0 0 1
    outer loop
      vertex 2.23534 -4.75034 10.5
      vertex 2.76756 -5.88138 10.5
      vertex 2.81309 -4.43272 10.5
    endloop
  endfacet
  facet normal 0 0 1
    outer loop
      vertex 2.23534 -4.75034 10.5
      vertex 2.00861 -6.18187 10.5
      vertex 2.76756 -5.88138 10.5
    endloop
  endfacet
  facet normal -0 0 1
    outer loop
      vertex 1.62234 -4.99305 10.5
      vertex 2.00861 -6.18187 10.5
      vertex 2.23534 -4.75034 10.5
    endloop
  endfacet
  facet normal 0 0 1
    outer loop
      vertex 1.62234 -4.99305 10.5
      vertex 1.21798 -6.38487 10.5
      vertex 2.00861 -6.18187 10.5
    endloop
  endfacet
  facet normal -0 0 1
    outer loop
      vertex 0.983751 -5.15701 10.5
      vertex 1.21798 -6.38487 10.5
      vertex 1.62234 -4.99305 10.5
    endloop
  endfacet
  facet normal 0 0 1
    outer loop
      vertex 0.983751 -5.15701 10.5
      vertex 0.408138 -6.48717 10.5
      vertex 1.21798 -6.38487 10.5
    endloop
  endfacet
  facet normal -0 0 1
    outer loop
      vertex 0.32965 -5.23964 10.5
      vertex 0.408138 -6.48717 10.5
      vertex 0.983751 -5.15701 10.5
    endloop
  endfacet
  facet normal -0 0 1
    outer loop
      vertex -0.32965 -5.23964 10.5
      vertex 0.408138 -6.48717 10.5
      vertex 0.32965 -5.23964 10.5
    endloop
  endfacet
  facet normal 0 0 1
    outer loop
      vertex -0.32965 -5.23964 10.5
      vertex -0.408138 -6.48717 10.5
      vertex 0.408138 -6.48717 10.5
    endloop
  endfacet
  facet normal 0 0 1
    outer loop
      vertex -0.983751 -5.15701 10.5
      vertex -0.408138 -6.48717 10.5
      vertex -0.32965 -5.23964 10.5
    endloop
  endfacet
  facet normal 0 0 1
    outer loop
      vertex -0.983751 -5.15701 10.5
      vertex -1.21798 -6.38487 10.5
      vertex -0.408138 -6.48717 10.5
    endloop
  endfacet
  facet normal 0 0 1
    outer loop
      vertex -1.62234 -4.99305 10.5
      vertex -1.21798 -6.38487 10.5
      vertex -0.983751 -5.15701 10.5
    endloop
  endfacet
  facet normal 0 0 1
    outer loop
      vertex -1.62234 -4.99305 10.5
      vertex -2.00861 -6.18187 10.5
      vertex -1.21798 -6.38487 10.5
    endloop
  endfacet
  facet normal 0 0 1
    outer loop
      vertex -2.23534 -4.75034 10.5
      vertex -2.00861 -6.18187 10.5
      vertex -1.62234 -4.99305 10.5
    endloop
  endfacet
  facet normal 0 0 1
    outer loop
      vertex -2.23534 -4.75034 10.5
      vertex -2.76756 -5.88138 10.5
      vertex -2.00861 -6.18187 10.5
    endloop
  endfacet
  facet normal 0 0 1
    outer loop
      vertex -2.81309 -4.43272 10.5
      vertex -2.76756 -5.88138 10.5
      vertex -2.23534 -4.75034 10.5
    endloop
  endfacet
  facet normal 0 0 1
    outer loop
      vertex -3.48287 -5.48813 10.5
      vertex -2.81309 -4.43272 10.5
      vertex -3.34648 -4.04519 10.5
    endloop
  endfacet
  facet normal 0 0 1
    outer loop
      vertex -2.81309 -4.43272 10.5
      vertex -3.48287 -5.48813 10.5
      vertex -2.76756 -5.88138 10.5
    endloop
  endfacet
  facet normal 0 0 1
    outer loop
      vertex -4.14326 -5.00834 10.5
      vertex -3.34648 -4.04519 10.5
      vertex -3.82708 -3.59387 10.5
    endloop
  endfacet
  facet normal 0 0 1
    outer loop
      vertex -3.34648 -4.04519 10.5
      vertex -4.14326 -5.00834 10.5
      vertex -3.48287 -5.48813 10.5
    endloop
  endfacet
  facet normal 0 0 1
    outer loop
      vertex -4.7383 -4.44956 10.5
      vertex -3.82708 -3.59387 10.5
      vertex -4.24734 -3.08587 10.5
    endloop
  endfacet
  facet normal 0 0 1
    outer loop
      vertex -5.25861 -3.8206 10.5
      vertex -4.24734 -3.08587 10.5
      vertex -4.60061 -2.52921 10.5
    endloop
  endfacet
  facet normal 0 0 1
    outer loop
      vertex -3.82708 -3.59387 10.5
      vertex -4.7383 -4.44956 10.5
      vertex -4.14326 -5.00834 10.5
    endloop
  endfacet
  facet normal 0 0 1
    outer loop
      vertex -5.69599 -3.1314 10.5
      vertex -4.60061 -2.52921 10.5
      vertex -4.88133 -1.93265 10.5
    endloop
  endfacet
  facet normal 0 0 1
    outer loop
      vertex -6.04355 -2.39281 10.5
      vertex -4.88133 -1.93265 10.5
      vertex -5.08506 -1.30562 10.5
    endloop
  endfacet
  facet normal 0 0 1
    outer loop
      vertex -6.29579 -1.61648 10.5
      vertex -5.08506 -1.30562 10.5
      vertex -5.2086 -0.657999 10.5
    endloop
  endfacet
  facet normal 0 0 1
    outer loop
      vertex -4.24734 -3.08587 10.5
      vertex -5.25861 -3.8206 10.5
      vertex -4.7383 -4.44956 10.5
    endloop
  endfacet
  facet normal 0 0 1
    outer loop
      vertex -6.44874 -0.814666 10.5
      vertex -5.2086 -0.657999 10.5
      vertex -5.25 0 10.5
    endloop
  endfacet
  facet normal -0 0 1
    outer loop
      vertex -6.29579 1.61648 10.5
      vertex -5.08506 1.30562 10.5
      vertex -6.04355 2.39281 10.5
    endloop
  endfacet
  facet normal 0 0 1
    outer loop
      vertex -5.08506 1.30562 10.5
      vertex -6.29579 1.61648 10.5
      vertex -5.2086 0.657999 10.5
    endloop
  endfacet
  facet normal 0 0 1
    outer loop
      vertex -4.60061 -2.52921 10.5
      vertex -5.69599 -3.1314 10.5
      vertex -5.25861 -3.8206 10.5
    endloop
  endfacet
  facet normal -0 0 1
    outer loop
      vertex -6.44874 0.814666 10.5
      vertex -5.2086 0.657999 10.5
      vertex -6.29579 1.61648 10.5
    endloop
  endfacet
  facet normal 0 0 1
    outer loop
      vertex -4.88133 -1.93265 10.5
      vertex -6.04355 -2.39281 10.5
      vertex -5.69599 -3.1314 10.5
    endloop
  endfacet
  facet normal 0 0 1
    outer loop
      vertex -5.2086 0.657999 10.5
      vertex -6.44874 0.814666 10.5
      vertex -5.25 0 10.5
    endloop
  endfacet
  facet normal 0 0 1
    outer loop
      vertex -5.08506 -1.30562 10.5
      vertex -6.29579 -1.61648 10.5
      vertex -6.04355 -2.39281 10.5
    endloop
  endfacet
  facet normal 0 0 1
    outer loop
      vertex -6.5 0 10.5
      vertex -5.25 0 10.5
      vertex -6.44874 0.814666 10.5
    endloop
  endfacet
  facet normal 0 0 1
    outer loop
      vertex -5.2086 -0.657999 10.5
      vertex -6.44874 -0.814666 10.5
      vertex -6.29579 -1.61648 10.5
    endloop
  endfacet
  facet normal 0 0 1
    outer loop
      vertex -5.25 0 10.5
      vertex -6.5 0 10.5
      vertex -6.44874 -0.814666 10.5
    endloop
  endfacet
  facet normal -0.481758 0.876304 0
    outer loop
      vertex -2.76756 5.88138 -10.5
      vertex -3.48287 5.48813 10.5
      vertex -2.76756 5.88138 10.5
    endloop
  endfacet
  facet normal -0.481758 0.876304 0
    outer loop
      vertex -3.48287 5.48813 10.5
      vertex -2.76756 5.88138 -10.5
      vertex -3.48287 5.48813 -10.5
    endloop
  endfacet
  facet normal -0.587776 0.809024 0
    outer loop
      vertex -3.48287 5.48813 -10.5
      vertex -4.14326 5.00834 10.5
      vertex -3.48287 5.48813 10.5
    endloop
  endfacet
  facet normal -0.587776 0.809024 0
    outer loop
      vertex -4.14326 5.00834 10.5
      vertex -3.48287 5.48813 -10.5
      vertex -4.14326 5.00834 -10.5
    endloop
  endfacet
  facet normal -0.248691 0.968583 0
    outer loop
      vertex -1.21798 6.38487 -10.5
      vertex -2.00861 6.18187 10.5
      vertex -1.21798 6.38487 10.5
    endloop
  endfacet
  facet normal -0.248691 0.968583 0
    outer loop
      vertex -2.00861 6.18187 10.5
      vertex -1.21798 6.38487 -10.5
      vertex -2.00861 6.18187 -10.5
    endloop
  endfacet
  facet normal 0.998026 -0.0627973 0
    outer loop
      vertex 6.44874 -0.814666 10.5
      vertex 6.5 0 -10.5
      vertex 6.5 0 10.5
    endloop
  endfacet
  facet normal 0.998026 -0.0627973 0
    outer loop
      vertex 6.5 0 -10.5
      vertex 6.44874 -0.814666 10.5
      vertex 6.44874 -0.814666 -10.5
    endloop
  endfacet
  facet normal 0.481758 -0.876304 0
    outer loop
      vertex 2.76756 -5.88138 -10.5
      vertex 3.48287 -5.48813 10.5
      vertex 2.76756 -5.88138 10.5
    endloop
  endfacet
  facet normal 0.481758 -0.876304 0
    outer loop
      vertex 3.48287 -5.48813 10.5
      vertex 2.76756 -5.88138 -10.5
      vertex 3.48287 -5.48813 -10.5
    endloop
  endfacet
  facet normal 0.684547 -0.728968 0
    outer loop
      vertex 4.14326 -5.00834 -10.5
      vertex 4.7383 -4.44956 10.5
      vertex 4.14326 -5.00834 10.5
    endloop
  endfacet
  facet normal 0.684547 -0.728968 0
    outer loop
      vertex 4.7383 -4.44956 10.5
      vertex 4.14326 -5.00834 -10.5
      vertex 4.7383 -4.44956 -10.5
    endloop
  endfacet
  facet normal 0.844328 -0.535827 0
    outer loop
      vertex 5.25861 -3.8206 10.5
      vertex 5.69599 -3.1314 -10.5
      vertex 5.69599 -3.1314 10.5
    endloop
  endfacet
  facet normal 0.844328 -0.535827 0
    outer loop
      vertex 5.69599 -3.1314 -10.5
      vertex 5.25861 -3.8206 10.5
      vertex 5.25861 -3.8206 -10.5
    endloop
  endfacet
  facet normal -0.904824 -0.425785 0
    outer loop
      vertex -5.69599 -3.1314 -10.5
      vertex -6.04355 -2.39281 10.5
      vertex -6.04355 -2.39281 -10.5
    endloop
  endfacet
  facet normal -0.904824 -0.425785 0
    outer loop
      vertex -6.04355 -2.39281 10.5
      vertex -5.69599 -3.1314 -10.5
      vertex -5.69599 -3.1314 10.5
    endloop
  endfacet
  facet normal 0 0 -1
    outer loop
      vertex 5.25 0 -10.5
      vertex 6.5 0 -10.5
      vertex 6.44874 -0.814666 -10.5
    endloop
  endfacet
  facet normal 0 0 -1
    outer loop
      vertex 5.2086 -0.657999 -10.5
      vertex 6.44874 -0.814666 -10.5
      vertex 6.29579 -1.61648 -10.5
    endloop
  endfacet
  facet normal 0 0 -1
    outer loop
      vertex 6.5 0 -10.5
      vertex 5.25 0 -10.5
      vertex 6.44874 0.814666 -10.5
    endloop
  endfacet
  facet normal 0 0 -1
    outer loop
      vertex 5.08506 -1.30562 -10.5
      vertex 6.29579 -1.61648 -10.5
      vertex 6.04355 -2.39281 -10.5
    endloop
  endfacet
  facet normal 0 0 -1
    outer loop
      vertex 5.2086 0.657999 -10.5
      vertex 6.44874 0.814666 -10.5
      vertex 5.25 0 -10.5
    endloop
  endfacet
  facet normal 0 0 -1
    outer loop
      vertex 4.88133 -1.93265 -10.5
      vertex 6.04355 -2.39281 -10.5
      vertex 5.69599 -3.1314 -10.5
    endloop
  endfacet
  facet normal -0 0 -1
    outer loop
      vertex 6.44874 0.814666 -10.5
      vertex 5.2086 0.657999 -10.5
      vertex 6.29579 1.61648 -10.5
    endloop
  endfacet
  facet normal 0 0 -1
    outer loop
      vertex 4.60061 -2.52921 -10.5
      vertex 5.69599 -3.1314 -10.5
      vertex 5.25861 -3.8206 -10.5
    endloop
  endfacet
  facet normal 0 0 -1
    outer loop
      vertex 5.08506 1.30562 -10.5
      vertex 6.29579 1.61648 -10.5
      vertex 5.2086 0.657999 -10.5
    endloop
  endfacet
  facet normal -0 0 -1
    outer loop
      vertex 6.29579 1.61648 -10.5
      vertex 5.08506 1.30562 -10.5
      vertex 6.04355 2.39281 -10.5
    endloop
  endfacet
  facet normal 0 0 -1
    outer loop
      vertex 6.44874 -0.814666 -10.5
      vertex 5.2086 -0.657999 -10.5
      vertex 5.25 0 -10.5
    endloop
  endfacet
  facet normal 0 0 -1
    outer loop
      vertex 6.29579 -1.61648 -10.5
      vertex 5.08506 -1.30562 -10.5
      vertex 5.2086 -0.657999 -10.5
    endloop
  endfacet
  facet normal 0 0 -1
    outer loop
      vertex 6.04355 -2.39281 -10.5
      vertex 4.88133 -1.93265 -10.5
      vertex 5.08506 -1.30562 -10.5
    endloop
  endfacet
  facet normal 0 0 -1
    outer loop
      vertex 4.24734 -3.08587 -10.5
      vertex 5.25861 -3.8206 -10.5
      vertex 4.7383 -4.44956 -10.5
    endloop
  endfacet
  facet normal 0 0 -1
    outer loop
      vertex 5.69599 -3.1314 -10.5
      vertex 4.60061 -2.52921 -10.5
      vertex 4.88133 -1.93265 -10.5
    endloop
  endfacet
  facet normal 0 0 -1
    outer loop
      vertex 5.25861 -3.8206 -10.5
      vertex 4.24734 -3.08587 -10.5
      vertex 4.60061 -2.52921 -10.5
    endloop
  endfacet
  facet normal 0 0 -1
    outer loop
      vertex 3.82708 -3.59387 -10.5
      vertex 4.7383 -4.44956 -10.5
      vertex 4.14326 -5.00834 -10.5
    endloop
  endfacet
  facet normal 0 0 -1
    outer loop
      vertex 4.7383 -4.44956 -10.5
      vertex 3.82708 -3.59387 -10.5
      vertex 4.24734 -3.08587 -10.5
    endloop
  endfacet
  facet normal 0 0 -1
    outer loop
      vertex 3.34648 -4.04519 -10.5
      vertex 4.14326 -5.00834 -10.5
      vertex 3.48287 -5.48813 -10.5
    endloop
  endfacet
  facet normal 0 0 -1
    outer loop
      vertex 4.14326 -5.00834 -10.5
      vertex 3.34648 -4.04519 -10.5
      vertex 3.82708 -3.59387 -10.5
    endloop
  endfacet
  facet normal 0 0 -1
    outer loop
      vertex 3.48287 -5.48813 -10.5
      vertex 2.81309 -4.43272 -10.5
      vertex 3.34648 -4.04519 -10.5
    endloop
  endfacet
  facet normal 0 0 -1
    outer loop
      vertex 2.76756 -5.88138 -10.5
      vertex 2.81309 -4.43272 -10.5
      vertex 3.48287 -5.48813 -10.5
    endloop
  endfacet
  facet normal 0 0 -1
    outer loop
      vertex 2.76756 -5.88138 -10.5
      vertex 2.23534 -4.75034 -10.5
      vertex 2.81309 -4.43272 -10.5
    endloop
  endfacet
  facet normal 0 0 -1
    outer loop
      vertex 2.00861 -6.18187 -10.5
      vertex 2.23534 -4.75034 -10.5
      vertex 2.76756 -5.88138 -10.5
    endloop
  endfacet
  facet normal 0 0 -1
    outer loop
      vertex 2.00861 -6.18187 -10.5
      vertex 1.62234 -4.99305 -10.5
      vertex 2.23534 -4.75034 -10.5
    endloop
  endfacet
  facet normal 0 0 -1
    outer loop
      vertex 1.21798 -6.38487 -10.5
      vertex 1.62234 -4.99305 -10.5
      vertex 2.00861 -6.18187 -10.5
    endloop
  endfacet
  facet normal 0 0 -1
    outer loop
      vertex 1.21798 -6.38487 -10.5
      vertex 0.983751 -5.15701 -10.5
      vertex 1.62234 -4.99305 -10.5
    endloop
  endfacet
  facet normal 0 0 -1
    outer loop
      vertex 0.408138 -6.48717 -10.5
      vertex 0.983751 -5.15701 -10.5
      vertex 1.21798 -6.38487 -10.5
    endloop
  endfacet
  facet normal 0 0 -1
    outer loop
      vertex 0.408138 -6.48717 -10.5
      vertex 0.32965 -5.23964 -10.5
      vertex 0.983751 -5.15701 -10.5
    endloop
  endfacet
  facet normal 0 0 -1
    outer loop
      vertex 0.408138 -6.48717 -10.5
      vertex -0.32965 -5.23964 -10.5
      vertex 0.32965 -5.23964 -10.5
    endloop
  endfacet
  facet normal 0 0 -1
    outer loop
      vertex -0.408138 -6.48717 -10.5
      vertex -0.32965 -5.23964 -10.5
      vertex 0.408138 -6.48717 -10.5
    endloop
  endfacet
  facet normal 0 0 -1
    outer loop
      vertex -0.408138 -6.48717 -10.5
      vertex -0.983751 -5.15701 -10.5
      vertex -0.32965 -5.23964 -10.5
    endloop
  endfacet
  facet normal 0 0 -1
    outer loop
      vertex -1.21798 -6.38487 -10.5
      vertex -0.983751 -5.15701 -10.5
      vertex -0.408138 -6.48717 -10.5
    endloop
  endfacet
  facet normal 0 0 -1
    outer loop
      vertex -1.21798 -6.38487 -10.5
      vertex -1.62234 -4.99305 -10.5
      vertex -0.983751 -5.15701 -10.5
    endloop
  endfacet
  facet normal 0 0 -1
    outer loop
      vertex -2.00861 -6.18187 -10.5
      vertex -1.62234 -4.99305 -10.5
      vertex -1.21798 -6.38487 -10.5
    endloop
  endfacet
  facet normal 0 0 -1
    outer loop
      vertex -2.00861 -6.18187 -10.5
      vertex -2.23534 -4.75034 -10.5
      vertex -1.62234 -4.99305 -10.5
    endloop
  endfacet
  facet normal 0 0 -1
    outer loop
      vertex -2.76756 -5.88138 -10.5
      vertex -2.23534 -4.75034 -10.5
      vertex -2.00861 -6.18187 -10.5
    endloop
  endfacet
  facet normal 0 0 -1
    outer loop
      vertex -2.76756 -5.88138 -10.5
      vertex -2.81309 -4.43272 -10.5
      vertex -2.23534 -4.75034 -10.5
    endloop
  endfacet
  facet normal 0 0 -1
    outer loop
      vertex -3.48287 -5.48813 -10.5
      vertex -2.81309 -4.43272 -10.5
      vertex -2.76756 -5.88138 -10.5
    endloop
  endfacet
  facet normal -0 0 -1
    outer loop
      vertex -2.81309 -4.43272 -10.5
      vertex -3.48287 -5.48813 -10.5
      vertex -3.34648 -4.04519 -10.5
    endloop
  endfacet
  facet normal 0 0 -1
    outer loop
      vertex -4.14326 -5.00834 -10.5
      vertex -3.34648 -4.04519 -10.5
      vertex -3.48287 -5.48813 -10.5
    endloop
  endfacet
  facet normal -0 0 -1
    outer loop
      vertex -3.34648 -4.04519 -10.5
      vertex -4.14326 -5.00834 -10.5
      vertex -3.82708 -3.59387 -10.5
    endloop
  endfacet
  facet normal 0 0 -1
    outer loop
      vertex -4.7383 -4.44956 -10.5
      vertex -3.82708 -3.59387 -10.5
      vertex -4.14326 -5.00834 -10.5
    endloop
  endfacet
  facet normal -0 0 -1
    outer loop
      vertex -3.82708 -3.59387 -10.5
      vertex -4.7383 -4.44956 -10.5
      vertex -4.24734 -3.08587 -10.5
    endloop
  endfacet
  facet normal 0 0 -1
    outer loop
      vertex -5.25861 -3.8206 -10.5
      vertex -4.24734 -3.08587 -10.5
      vertex -4.7383 -4.44956 -10.5
    endloop
  endfacet
  facet normal -0 0 -1
    outer loop
      vertex -4.24734 -3.08587 -10.5
      vertex -5.25861 -3.8206 -10.5
      vertex -4.60061 -2.52921 -10.5
    endloop
  endfacet
  facet normal 0 0 -1
    outer loop
      vertex -5.69599 -3.1314 -10.5
      vertex -4.60061 -2.52921 -10.5
      vertex -5.25861 -3.8206 -10.5
    endloop
  endfacet
  facet normal -0 0 -1
    outer loop
      vertex -4.60061 -2.52921 -10.5
      vertex -5.69599 -3.1314 -10.5
      vertex -4.88133 -1.93265 -10.5
    endloop
  endfacet
  facet normal -0 0 -1
    outer loop
      vertex -4.88133 -1.93265 -10.5
      vertex -6.04355 -2.39281 -10.5
      vertex -5.08506 -1.30562 -10.5
    endloop
  endfacet
  facet normal 0 0 -1
    outer loop
      vertex -6.04355 -2.39281 -10.5
      vertex -4.88133 -1.93265 -10.5
      vertex -5.69599 -3.1314 -10.5
    endloop
  endfacet
  facet normal 0 0 -1
    outer loop
      vertex 4.88133 1.93265 -10.5
      vertex 6.04355 2.39281 -10.5
      vertex 5.08506 1.30562 -10.5
    endloop
  endfacet
  facet normal -0 0 -1
    outer loop
      vertex 6.04355 2.39281 -10.5
      vertex 4.88133 1.93265 -10.5
      vertex 5.69599 3.1314 -10.5
    endloop
  endfacet
  facet normal 0 0 -1
    outer loop
      vertex 4.60061 2.52921 -10.5
      vertex 5.69599 3.1314 -10.5
      vertex 4.88133 1.93265 -10.5
    endloop
  endfacet
  facet normal -0 0 -1
    outer loop
      vertex 5.69599 3.1314 -10.5
      vertex 4.60061 2.52921 -10.5
      vertex 5.25861 3.8206 -10.5
    endloop
  endfacet
  facet normal 0 0 -1
    outer loop
      vertex 4.24734 3.08587 -10.5
      vertex 5.25861 3.8206 -10.5
      vertex 4.60061 2.52921 -10.5
    endloop
  endfacet
  facet normal -0 0 -1
    outer loop
      vertex 5.25861 3.8206 -10.5
      vertex 4.24734 3.08587 -10.5
      vertex 4.7383 4.44956 -10.5
    endloop
  endfacet
  facet normal 0 0 -1
    outer loop
      vertex 3.82708 3.59387 -10.5
      vertex 4.7383 4.44956 -10.5
      vertex 4.24734 3.08587 -10.5
    endloop
  endfacet
  facet normal -0 0 -1
    outer loop
      vertex 4.7383 4.44956 -10.5
      vertex 3.82708 3.59387 -10.5
      vertex 4.14326 5.00834 -10.5
    endloop
  endfacet
  facet normal 0 0 -1
    outer loop
      vertex 3.34648 4.04519 -10.5
      vertex 4.14326 5.00834 -10.5
      vertex 3.82708 3.59387 -10.5
    endloop
  endfacet
  facet normal -0 0 -1
    outer loop
      vertex 4.14326 5.00834 -10.5
      vertex 3.34648 4.04519 -10.5
      vertex 3.48287 5.48813 -10.5
    endloop
  endfacet
  facet normal 0 0 -1
    outer loop
      vertex 2.81309 4.43272 -10.5
      vertex 3.48287 5.48813 -10.5
      vertex 3.34648 4.04519 -10.5
    endloop
  endfacet
  facet normal 0 0 -1
    outer loop
      vertex 2.81309 4.43272 -10.5
      vertex 2.76756 5.88138 -10.5
      vertex 3.48287 5.48813 -10.5
    endloop
  endfacet
  facet normal 0 0 -1
    outer loop
      vertex 2.23534 4.75034 -10.5
      vertex 2.76756 5.88138 -10.5
      vertex 2.81309 4.43272 -10.5
    endloop
  endfacet
  facet normal 0 0 -1
    outer loop
      vertex 2.23534 4.75034 -10.5
      vertex 2.00861 6.18187 -10.5
      vertex 2.76756 5.88138 -10.5
    endloop
  endfacet
  facet normal 0 0 -1
    outer loop
      vertex 1.62234 4.99305 -10.5
      vertex 2.00861 6.18187 -10.5
      vertex 2.23534 4.75034 -10.5
    endloop
  endfacet
  facet normal 0 0 -1
    outer loop
      vertex 1.62234 4.99305 -10.5
      vertex 1.21798 6.38487 -10.5
      vertex 2.00861 6.18187 -10.5
    endloop
  endfacet
  facet normal 0 0 -1
    outer loop
      vertex 0.983751 5.15701 -10.5
      vertex 1.21798 6.38487 -10.5
      vertex 1.62234 4.99305 -10.5
    endloop
  endfacet
  facet normal 0 0 -1
    outer loop
      vertex 0.983751 5.15701 -10.5
      vertex 0.408138 6.48717 -10.5
      vertex 1.21798 6.38487 -10.5
    endloop
  endfacet
  facet normal 0 0 -1
    outer loop
      vertex 0.32965 5.23964 -10.5
      vertex 0.408138 6.48717 -10.5
      vertex 0.983751 5.15701 -10.5
    endloop
  endfacet
  facet normal 0 0 -1
    outer loop
      vertex -0.32965 5.23964 -10.5
      vertex 0.408138 6.48717 -10.5
      vertex 0.32965 5.23964 -10.5
    endloop
  endfacet
  facet normal 0 0 -1
    outer loop
      vertex -0.32965 5.23964 -10.5
      vertex -0.408138 6.48717 -10.5
      vertex 0.408138 6.48717 -10.5
    endloop
  endfacet
  facet normal 0 0 -1
    outer loop
      vertex -0.983751 5.15701 -10.5
      vertex -0.408138 6.48717 -10.5
      vertex -0.32965 5.23964 -10.5
    endloop
  endfacet
  facet normal 0 0 -1
    outer loop
      vertex -0.983751 5.15701 -10.5
      vertex -1.21798 6.38487 -10.5
      vertex -0.408138 6.48717 -10.5
    endloop
  endfacet
  facet normal 0 0 -1
    outer loop
      vertex -1.62234 4.99305 -10.5
      vertex -1.21798 6.38487 -10.5
      vertex -0.983751 5.15701 -10.5
    endloop
  endfacet
  facet normal 0 0 -1
    outer loop
      vertex -1.62234 4.99305 -10.5
      vertex -2.00861 6.18187 -10.5
      vertex -1.21798 6.38487 -10.5
    endloop
  endfacet
  facet normal 0 0 -1
    outer loop
      vertex -2.23534 4.75034 -10.5
      vertex -2.00861 6.18187 -10.5
      vertex -1.62234 4.99305 -10.5
    endloop
  endfacet
  facet normal 0 0 -1
    outer loop
      vertex -2.23534 4.75034 -10.5
      vertex -2.76756 5.88138 -10.5
      vertex -2.00861 6.18187 -10.5
    endloop
  endfacet
  facet normal 0 0 -1
    outer loop
      vertex -2.81309 4.43272 -10.5
      vertex -2.76756 5.88138 -10.5
      vertex -2.23534 4.75034 -10.5
    endloop
  endfacet
  facet normal 0 0 -1
    outer loop
      vertex -3.48287 5.48813 -10.5
      vertex -2.81309 4.43272 -10.5
      vertex -3.34648 4.04519 -10.5
    endloop
  endfacet
  facet normal 0 0 -1
    outer loop
      vertex -2.81309 4.43272 -10.5
      vertex -3.48287 5.48813 -10.5
      vertex -2.76756 5.88138 -10.5
    endloop
  endfacet
  facet normal 0 0 -1
    outer loop
      vertex -4.14326 5.00834 -10.5
      vertex -3.34648 4.04519 -10.5
      vertex -3.82708 3.59387 -10.5
    endloop
  endfacet
  facet normal 0 0 -1
    outer loop
      vertex -3.34648 4.04519 -10.5
      vertex -4.14326 5.00834 -10.5
      vertex -3.48287 5.48813 -10.5
    endloop
  endfacet
  facet normal 0 0 -1
    outer loop
      vertex -4.7383 4.44956 -10.5
      vertex -3.82708 3.59387 -10.5
      vertex -4.24734 3.08587 -10.5
    endloop
  endfacet
  facet normal 0 0 -1
    outer loop
      vertex -5.25861 3.8206 -10.5
      vertex -4.24734 3.08587 -10.5
      vertex -4.60061 2.52921 -10.5
    endloop
  endfacet
  facet normal 0 0 -1
    outer loop
      vertex -3.82708 3.59387 -10.5
      vertex -4.7383 4.44956 -10.5
      vertex -4.14326 5.00834 -10.5
    endloop
  endfacet
  facet normal 0 0 -1
    outer loop
      vertex -5.69599 3.1314 -10.5
      vertex -4.60061 2.52921 -10.5
      vertex -4.88133 1.93265 -10.5
    endloop
  endfacet
  facet normal 0 0 -1
    outer loop
      vertex -6.04355 2.39281 -10.5
      vertex -4.88133 1.93265 -10.5
      vertex -5.08506 1.30562 -10.5
    endloop
  endfacet
  facet normal 0 0 -1
    outer loop
      vertex -6.29579 1.61648 -10.5
      vertex -5.08506 1.30562 -10.5
      vertex -5.2086 0.657999 -10.5
    endloop
  endfacet
  facet normal 0 0 -1
    outer loop
      vertex -4.24734 3.08587 -10.5
      vertex -5.25861 3.8206 -10.5
      vertex -4.7383 4.44956 -10.5
    endloop
  endfacet
  facet normal 0 0 -1
    outer loop
      vertex -6.44874 0.814666 -10.5
      vertex -5.2086 0.657999 -10.5
      vertex -5.25 0 -10.5
    endloop
  endfacet
  facet normal 0 0 -1
    outer loop
      vertex -6.29579 -1.61648 -10.5
      vertex -5.08506 -1.30562 -10.5
      vertex -6.04355 -2.39281 -10.5
    endloop
  endfacet
  facet normal -0 0 -1
    outer loop
      vertex -5.08506 -1.30562 -10.5
      vertex -6.29579 -1.61648 -10.5
      vertex -5.2086 -0.657999 -10.5
    endloop
  endfacet
  facet normal 0 0 -1
    outer loop
      vertex -4.60061 2.52921 -10.5
      vertex -5.69599 3.1314 -10.5
      vertex -5.25861 3.8206 -10.5
    endloop
  endfacet
  facet normal 0 0 -1
    outer loop
      vertex -6.44874 -0.814666 -10.5
      vertex -5.2086 -0.657999 -10.5
      vertex -6.29579 -1.61648 -10.5
    endloop
  endfacet
  facet normal 0 0 -1
    outer loop
      vertex -4.88133 1.93265 -10.5
      vertex -6.04355 2.39281 -10.5
      vertex -5.69599 3.1314 -10.5
    endloop
  endfacet
  facet normal -0 0 -1
    outer loop
      vertex -5.2086 -0.657999 -10.5
      vertex -6.44874 -0.814666 -10.5
      vertex -5.25 0 -10.5
    endloop
  endfacet
  facet normal 0 0 -1
    outer loop
      vertex -5.08506 1.30562 -10.5
      vertex -6.29579 1.61648 -10.5
      vertex -6.04355 2.39281 -10.5
    endloop
  endfacet
  facet normal 0 0 -1
    outer loop
      vertex -6.5 0 -10.5
      vertex -5.25 0 -10.5
      vertex -6.44874 -0.814666 -10.5
    endloop
  endfacet
  facet normal 0 0 -1
    outer loop
      vertex -5.2086 0.657999 -10.5
      vertex -6.44874 0.814666 -10.5
      vertex -6.29579 1.61648 -10.5
    endloop
  endfacet
  facet normal 0 0 -1
    outer loop
      vertex -5.25 0 -10.5
      vertex -6.5 0 -10.5
      vertex -6.44874 0.814666 -10.5
    endloop
  endfacet
  facet normal 0.951058 -0.309012 0
    outer loop
      vertex 6.04355 -2.39281 10.5
      vertex 6.29579 -1.61648 -10.5
      vertex 6.29579 -1.61648 10.5
    endloop
  endfacet
  facet normal 0.951058 -0.309012 0
    outer loop
      vertex 6.29579 -1.61648 -10.5
      vertex 6.04355 -2.39281 10.5
      vertex 6.04355 -2.39281 -10.5
    endloop
  endfacet
  facet normal 0.77052 -0.637416 0
    outer loop
      vertex 4.7383 -4.44956 10.5
      vertex 5.25861 -3.8206 -10.5
      vertex 5.25861 -3.8206 10.5
    endloop
  endfacet
  facet normal 0.77052 -0.637416 0
    outer loop
      vertex 5.25861 -3.8206 -10.5
      vertex 4.7383 -4.44956 10.5
      vertex 4.7383 -4.44956 -10.5
    endloop
  endfacet
  facet normal -0.951058 -0.309012 0
    outer loop
      vertex -6.04355 -2.39281 -10.5
      vertex -6.29579 -1.61648 10.5
      vertex -6.29579 -1.61648 -10.5
    endloop
  endfacet
  facet normal -0.951058 -0.309012 0
    outer loop
      vertex -6.29579 -1.61648 10.5
      vertex -6.04355 -2.39281 -10.5
      vertex -6.04355 -2.39281 10.5
    endloop
  endfacet
  facet normal 0.248691 -0.968583 0
    outer loop
      vertex 1.21798 -6.38487 -10.5
      vertex 2.00861 -6.18187 10.5
      vertex 1.21798 -6.38487 10.5
    endloop
  endfacet
  facet normal 0.248691 -0.968583 0
    outer loop
      vertex 2.00861 -6.18187 10.5
      vertex 1.21798 -6.38487 -10.5
      vertex 2.00861 -6.18187 -10.5
    endloop
  endfacet
  facet normal 0.982288 -0.187376 0
    outer loop
      vertex 6.29579 -1.61648 10.5
      vertex 6.44874 -0.814666 -10.5
      vertex 6.44874 -0.814666 10.5
    endloop
  endfacet
  facet normal 0.982288 -0.187376 0
    outer loop
      vertex 6.44874 -0.814666 -10.5
      vertex 6.29579 -1.61648 10.5
      vertex 6.29579 -1.61648 -10.5
    endloop
  endfacet
  facet normal 0.587776 -0.809024 0
    outer loop
      vertex 3.48287 -5.48813 -10.5
      vertex 4.14326 -5.00834 10.5
      vertex 3.48287 -5.48813 10.5
    endloop
  endfacet
  facet normal 0.587776 -0.809024 0
    outer loop
      vertex 4.14326 -5.00834 10.5
      vertex 3.48287 -5.48813 -10.5
      vertex 4.14326 -5.00834 -10.5
    endloop
  endfacet
  facet normal -0.368125 -0.929776 0
    outer loop
      vertex -2.76756 -5.88138 -10.5
      vertex -2.00861 -6.18187 10.5
      vertex -2.76756 -5.88138 10.5
    endloop
  endfacet
  facet normal -0.368125 -0.929776 -0
    outer loop
      vertex -2.00861 -6.18187 10.5
      vertex -2.76756 -5.88138 -10.5
      vertex -2.00861 -6.18187 -10.5
    endloop
  endfacet
  facet normal -0.248691 -0.968583 0
    outer loop
      vertex -2.00861 -6.18187 -10.5
      vertex -1.21798 -6.38487 10.5
      vertex -2.00861 -6.18187 10.5
    endloop
  endfacet
  facet normal -0.248691 -0.968583 -0
    outer loop
      vertex -1.21798 -6.38487 10.5
      vertex -2.00861 -6.18187 -10.5
      vertex -1.21798 -6.38487 -10.5
    endloop
  endfacet
  facet normal -0.77052 -0.637416 0
    outer loop
      vertex -4.7383 -4.44956 -10.5
      vertex -5.25861 -3.8206 10.5
      vertex -5.25861 -3.8206 -10.5
    endloop
  endfacet
  facet normal -0.77052 -0.637416 0
    outer loop
      vertex -5.25861 -3.8206 10.5
      vertex -4.7383 -4.44956 -10.5
      vertex -4.7383 -4.44956 10.5
    endloop
  endfacet
  facet normal -0.684547 -0.728968 0
    outer loop
      vertex -4.7383 -4.44956 -10.5
      vertex -4.14326 -5.00834 10.5
      vertex -4.7383 -4.44956 10.5
    endloop
  endfacet
  facet normal -0.684547 -0.728968 -0
    outer loop
      vertex -4.14326 -5.00834 10.5
      vertex -4.7383 -4.44956 -10.5
      vertex -4.14326 -5.00834 -10.5
    endloop
  endfacet
  facet normal -0.982288 -0.187376 0
    outer loop
      vertex -6.29579 -1.61648 -10.5
      vertex -6.44874 -0.814666 10.5
      vertex -6.44874 -0.814666 -10.5
    endloop
  endfacet
  facet normal -0.982288 -0.187376 0
    outer loop
      vertex -6.44874 -0.814666 10.5
      vertex -6.29579 -1.61648 -10.5
      vertex -6.29579 -1.61648 10.5
    endloop
  endfacet
  facet normal -0.998026 -0.0627973 0
    outer loop
      vertex -6.44874 -0.814666 -10.5
      vertex -6.5 0 10.5
      vertex -6.5 0 -10.5
    endloop
  endfacet
  facet normal -0.998026 -0.0627973 0
    outer loop
      vertex -6.5 0 10.5
      vertex -6.44874 -0.814666 -10.5
      vertex -6.44874 -0.814666 10.5
    endloop
  endfacet
  facet normal -0.125325 -0.992116 0
    outer loop
      vertex -1.21798 -6.38487 -10.5
      vertex -0.408138 -6.48717 10.5
      vertex -1.21798 -6.38487 10.5
    endloop
  endfacet
  facet normal -0.125325 -0.992116 -0
    outer loop
      vertex -0.408138 -6.48717 10.5
      vertex -1.21798 -6.38487 -10.5
      vertex -0.408138 -6.48717 -10.5
    endloop
  endfacet
  facet normal -0.844328 -0.535827 0
    outer loop
      vertex -5.25861 -3.8206 -10.5
      vertex -5.69599 -3.1314 10.5
      vertex -5.69599 -3.1314 -10.5
    endloop
  endfacet
  facet normal -0.844328 -0.535827 0
    outer loop
      vertex -5.69599 -3.1314 10.5
      vertex -5.25861 -3.8206 -10.5
      vertex -5.25861 -3.8206 10.5
    endloop
  endfacet
  facet normal -0.481758 -0.876304 0
    outer loop
      vertex -3.48287 -5.48813 -10.5
      vertex -2.76756 -5.88138 10.5
      vertex -3.48287 -5.48813 10.5
    endloop
  endfacet
  facet normal -0.481758 -0.876304 -0
    outer loop
      vertex -2.76756 -5.88138 10.5
      vertex -3.48287 -5.48813 -10.5
      vertex -2.76756 -5.88138 -10.5
    endloop
  endfacet
  facet normal -0.587776 -0.809024 0
    outer loop
      vertex -4.14326 -5.00834 -10.5
      vertex -3.48287 -5.48813 10.5
      vertex -4.14326 -5.00834 10.5
    endloop
  endfacet
  facet normal -0.587776 -0.809024 -0
    outer loop
      vertex -3.48287 -5.48813 10.5
      vertex -4.14326 -5.00834 -10.5
      vertex -3.48287 -5.48813 -10.5
    endloop
  endfacet
  facet normal -0.844326 -0.53583 0
    outer loop
      vertex 4.60061 2.52921 -10.5
      vertex 4.24734 3.08587 10.5
      vertex 4.24734 3.08587 -10.5
    endloop
  endfacet
  facet normal -0.844326 -0.53583 0
    outer loop
      vertex 4.24734 3.08587 10.5
      vertex 4.60061 2.52921 -10.5
      vertex 4.60061 2.52921 10.5
    endloop
  endfacet
  facet normal -0.368133 -0.929773 0
    outer loop
      vertex 1.62234 4.99305 -10.5
      vertex 2.23534 4.75034 10.5
      vertex 1.62234 4.99305 10.5
    endloop
  endfacet
  facet normal -0.368133 -0.929773 -0
    outer loop
      vertex 2.23534 4.75034 10.5
      vertex 1.62234 4.99305 -10.5
      vertex 2.23534 4.75034 -10.5
    endloop
  endfacet
  facet normal 0.368133 -0.929773 0
    outer loop
      vertex -2.23534 4.75034 -10.5
      vertex -1.62234 4.99305 10.5
      vertex -2.23534 4.75034 10.5
    endloop
  endfacet
  facet normal 0.368133 -0.929773 0
    outer loop
      vertex -1.62234 4.99305 10.5
      vertex -2.23534 4.75034 -10.5
      vertex -1.62234 4.99305 -10.5
    endloop
  endfacet
  facet normal 0.904827 -0.42578 0
    outer loop
      vertex -4.88133 1.93265 10.5
      vertex -4.60061 2.52921 -10.5
      vertex -4.60061 2.52921 10.5
    endloop
  endfacet
  facet normal 0.904827 -0.42578 0
    outer loop
      vertex -4.60061 2.52921 -10.5
      vertex -4.88133 1.93265 10.5
      vertex -4.88133 1.93265 -10.5
    endloop
  endfacet
  facet normal -0.982287 0.187381 0
    outer loop
      vertex 5.08506 -1.30562 -10.5
      vertex 5.2086 -0.657999 10.5
      vertex 5.2086 -0.657999 -10.5
    endloop
  endfacet
  facet normal -0.982287 0.187381 0
    outer loop
      vertex 5.2086 -0.657999 10.5
      vertex 5.08506 -1.30562 -10.5
      vertex 5.08506 -1.30562 10.5
    endloop
  endfacet
  facet normal -0.684552 -0.728964 0
    outer loop
      vertex 3.34648 4.04519 -10.5
      vertex 3.82708 3.59387 10.5
      vertex 3.34648 4.04519 10.5
    endloop
  endfacet
  facet normal -0.684552 -0.728964 -0
    outer loop
      vertex 3.82708 3.59387 10.5
      vertex 3.34648 4.04519 -10.5
      vertex 3.82708 3.59387 -10.5
    endloop
  endfacet
  facet normal 0 -1 0
    outer loop
      vertex -0.32965 5.23964 -10.5
      vertex 0.32965 5.23964 10.5
      vertex -0.32965 5.23964 10.5
    endloop
  endfacet
  facet normal 0 -1 -0
    outer loop
      vertex 0.32965 5.23964 10.5
      vertex -0.32965 5.23964 -10.5
      vertex 0.32965 5.23964 -10.5
    endloop
  endfacet
  facet normal -0.481753 -0.876307 0
    outer loop
      vertex 2.23534 4.75034 -10.5
      vertex 2.81309 4.43272 10.5
      vertex 2.23534 4.75034 10.5
    endloop
  endfacet
  facet normal -0.481753 -0.876307 -0
    outer loop
      vertex 2.81309 4.43272 10.5
      vertex 2.23534 4.75034 -10.5
      vertex 2.81309 4.43272 -10.5
    endloop
  endfacet
  facet normal 0.998027 -0.0627939 0
    outer loop
      vertex -5.25 0 10.5
      vertex -5.2086 0.657999 -10.5
      vertex -5.2086 0.657999 10.5
    endloop
  endfacet
  facet normal 0.998027 -0.0627939 0
    outer loop
      vertex -5.2086 0.657999 -10.5
      vertex -5.25 0 10.5
      vertex -5.25 0 -10.5
    endloop
  endfacet
  facet normal 0.770509 -0.637429 0
    outer loop
      vertex -4.24734 3.08587 10.5
      vertex -3.82708 3.59387 -10.5
      vertex -3.82708 3.59387 10.5
    endloop
  endfacet
  facet normal 0.770509 -0.637429 0
    outer loop
      vertex -3.82708 3.59387 -10.5
      vertex -4.24734 3.08587 10.5
      vertex -4.24734 3.08587 -10.5
    endloop
  endfacet
  facet normal 0.481753 -0.876307 0
    outer loop
      vertex -2.81309 4.43272 -10.5
      vertex -2.23534 4.75034 10.5
      vertex -2.81309 4.43272 10.5
    endloop
  endfacet
  facet normal 0.481753 -0.876307 0
    outer loop
      vertex -2.23534 4.75034 10.5
      vertex -2.81309 4.43272 -10.5
      vertex -2.23534 4.75034 -10.5
    endloop
  endfacet
  facet normal 0.248687 -0.968584 0
    outer loop
      vertex -1.62234 4.99305 -10.5
      vertex -0.983751 5.15701 10.5
      vertex -1.62234 4.99305 10.5
    endloop
  endfacet
  facet normal 0.248687 -0.968584 0
    outer loop
      vertex -0.983751 5.15701 10.5
      vertex -1.62234 4.99305 -10.5
      vertex -0.983751 5.15701 -10.5
    endloop
  endfacet
  facet normal -0.998027 -0.0627939 0
    outer loop
      vertex 5.25 0 -10.5
      vertex 5.2086 0.657999 10.5
      vertex 5.2086 0.657999 -10.5
    endloop
  endfacet
  facet normal -0.998027 -0.0627939 0
    outer loop
      vertex 5.2086 0.657999 10.5
      vertex 5.25 0 -10.5
      vertex 5.25 0 10.5
    endloop
  endfacet
  facet normal 0.684552 0.728964 -0
    outer loop
      vertex -3.34648 -4.04519 -10.5
      vertex -3.82708 -3.59387 10.5
      vertex -3.34648 -4.04519 10.5
    endloop
  endfacet
  facet normal 0.684552 0.728964 0
    outer loop
      vertex -3.82708 -3.59387 10.5
      vertex -3.34648 -4.04519 -10.5
      vertex -3.82708 -3.59387 -10.5
    endloop
  endfacet
  facet normal 0.904827 0.42578 0
    outer loop
      vertex -4.60061 -2.52921 10.5
      vertex -4.88133 -1.93265 -10.5
      vertex -4.88133 -1.93265 10.5
    endloop
  endfacet
  facet normal 0.904827 0.42578 0
    outer loop
      vertex -4.88133 -1.93265 -10.5
      vertex -4.60061 -2.52921 10.5
      vertex -4.60061 -2.52921 -10.5
    endloop
  endfacet
  facet normal -0.481753 0.876307 0
    outer loop
      vertex 2.81309 -4.43272 -10.5
      vertex 2.23534 -4.75034 10.5
      vertex 2.81309 -4.43272 10.5
    endloop
  endfacet
  facet normal -0.481753 0.876307 0
    outer loop
      vertex 2.23534 -4.75034 10.5
      vertex 2.81309 -4.43272 -10.5
      vertex 2.23534 -4.75034 -10.5
    endloop
  endfacet
  facet normal -0.770509 -0.637429 0
    outer loop
      vertex 4.24734 3.08587 -10.5
      vertex 3.82708 3.59387 10.5
      vertex 3.82708 3.59387 -10.5
    endloop
  endfacet
  facet normal -0.770509 -0.637429 0
    outer loop
      vertex 3.82708 3.59387 10.5
      vertex 4.24734 3.08587 -10.5
      vertex 4.24734 3.08587 10.5
    endloop
  endfacet
  facet normal -0.248687 -0.968584 0
    outer loop
      vertex 0.983751 5.15701 -10.5
      vertex 1.62234 4.99305 10.5
      vertex 0.983751 5.15701 10.5
    endloop
  endfacet
  facet normal -0.248687 -0.968584 -0
    outer loop
      vertex 1.62234 4.99305 10.5
      vertex 0.983751 5.15701 -10.5
      vertex 1.62234 4.99305 -10.5
    endloop
  endfacet
  facet normal -0.12533 -0.992115 0
    outer loop
      vertex 0.32965 5.23964 -10.5
      vertex 0.983751 5.15701 10.5
      vertex 0.32965 5.23964 10.5
    endloop
  endfacet
  facet normal -0.12533 -0.992115 -0
    outer loop
      vertex 0.983751 5.15701 10.5
      vertex 0.32965 5.23964 -10.5
      vertex 0.983751 5.15701 -10.5
    endloop
  endfacet
  facet normal -0.587785 -0.809017 0
    outer loop
      vertex 2.81309 4.43272 -10.5
      vertex 3.34648 4.04519 10.5
      vertex 2.81309 4.43272 10.5
    endloop
  endfacet
  facet normal -0.587785 -0.809017 -0
    outer loop
      vertex 3.34648 4.04519 10.5
      vertex 2.81309 4.43272 -10.5
      vertex 3.34648 4.04519 -10.5
    endloop
  endfacet
  facet normal 0.951058 -0.309011 0
    outer loop
      vertex -5.08506 1.30562 10.5
      vertex -4.88133 1.93265 -10.5
      vertex -4.88133 1.93265 10.5
    endloop
  endfacet
  facet normal 0.951058 -0.309011 0
    outer loop
      vertex -4.88133 1.93265 -10.5
      vertex -5.08506 1.30562 10.5
      vertex -5.08506 1.30562 -10.5
    endloop
  endfacet
  facet normal 0.982287 -0.187381 0
    outer loop
      vertex -5.2086 0.657999 10.5
      vertex -5.08506 1.30562 -10.5
      vertex -5.08506 1.30562 10.5
    endloop
  endfacet
  facet normal 0.982287 -0.187381 0
    outer loop
      vertex -5.08506 1.30562 -10.5
      vertex -5.2086 0.657999 10.5
      vertex -5.2086 0.657999 -10.5
    endloop
  endfacet
  facet normal 0.844326 -0.53583 0
    outer loop
      vertex -4.60061 2.52921 10.5
      vertex -4.24734 3.08587 -10.5
      vertex -4.24734 3.08587 10.5
    endloop
  endfacet
  facet normal 0.844326 -0.53583 0
    outer loop
      vertex -4.24734 3.08587 -10.5
      vertex -4.60061 2.52921 10.5
      vertex -4.60061 2.52921 -10.5
    endloop
  endfacet
  facet normal 0.12533 -0.992115 0
    outer loop
      vertex -0.983751 5.15701 -10.5
      vertex -0.32965 5.23964 10.5
      vertex -0.983751 5.15701 10.5
    endloop
  endfacet
  facet normal 0.12533 -0.992115 0
    outer loop
      vertex -0.32965 5.23964 10.5
      vertex -0.983751 5.15701 -10.5
      vertex -0.32965 5.23964 -10.5
    endloop
  endfacet
  facet normal 0.587785 -0.809017 0
    outer loop
      vertex -3.34648 4.04519 -10.5
      vertex -2.81309 4.43272 10.5
      vertex -3.34648 4.04519 10.5
    endloop
  endfacet
  facet normal 0.587785 -0.809017 0
    outer loop
      vertex -2.81309 4.43272 10.5
      vertex -3.34648 4.04519 -10.5
      vertex -2.81309 4.43272 -10.5
    endloop
  endfacet
  facet normal 0.684552 -0.728964 0
    outer loop
      vertex -3.82708 3.59387 -10.5
      vertex -3.34648 4.04519 10.5
      vertex -3.82708 3.59387 10.5
    endloop
  endfacet
  facet normal 0.684552 -0.728964 0
    outer loop
      vertex -3.34648 4.04519 10.5
      vertex -3.82708 3.59387 -10.5
      vertex -3.34648 4.04519 -10.5
    endloop
  endfacet
  facet normal -0.770509 0.637429 0
    outer loop
      vertex 3.82708 -3.59387 -10.5
      vertex 4.24734 -3.08587 10.5
      vertex 4.24734 -3.08587 -10.5
    endloop
  endfacet
  facet normal -0.770509 0.637429 0
    outer loop
      vertex 4.24734 -3.08587 10.5
      vertex 3.82708 -3.59387 -10.5
      vertex 3.82708 -3.59387 10.5
    endloop
  endfacet
  facet normal 0 1 -0
    outer loop
      vertex 0.32965 -5.23964 -10.5
      vertex -0.32965 -5.23964 10.5
      vertex 0.32965 -5.23964 10.5
    endloop
  endfacet
  facet normal 0 1 0
    outer loop
      vertex -0.32965 -5.23964 10.5
      vertex 0.32965 -5.23964 -10.5
      vertex -0.32965 -5.23964 -10.5
    endloop
  endfacet
  facet normal 0.844326 0.53583 0
    outer loop
      vertex -4.24734 -3.08587 10.5
      vertex -4.60061 -2.52921 -10.5
      vertex -4.60061 -2.52921 10.5
    endloop
  endfacet
  facet normal 0.844326 0.53583 0
    outer loop
      vertex -4.60061 -2.52921 -10.5
      vertex -4.24734 -3.08587 10.5
      vertex -4.24734 -3.08587 -10.5
    endloop
  endfacet
  facet normal -0.12533 0.992115 0
    outer loop
      vertex 0.983751 -5.15701 -10.5
      vertex 0.32965 -5.23964 10.5
      vertex 0.983751 -5.15701 10.5
    endloop
  endfacet
  facet normal -0.12533 0.992115 0
    outer loop
      vertex 0.32965 -5.23964 10.5
      vertex 0.983751 -5.15701 -10.5
      vertex 0.32965 -5.23964 -10.5
    endloop
  endfacet
  facet normal -0.904827 -0.42578 0
    outer loop
      vertex 4.88133 1.93265 -10.5
      vertex 4.60061 2.52921 10.5
      vertex 4.60061 2.52921 -10.5
    endloop
  endfacet
  facet normal -0.904827 -0.42578 0
    outer loop
      vertex 4.60061 2.52921 10.5
      vertex 4.88133 1.93265 -10.5
      vertex 4.88133 1.93265 10.5
    endloop
  endfacet
  facet normal -0.951058 -0.309011 0
    outer loop
      vertex 5.08506 1.30562 -10.5
      vertex 4.88133 1.93265 10.5
      vertex 4.88133 1.93265 -10.5
    endloop
  endfacet
  facet normal -0.951058 -0.309011 0
    outer loop
      vertex 4.88133 1.93265 10.5
      vertex 5.08506 1.30562 -10.5
      vertex 5.08506 1.30562 10.5
    endloop
  endfacet
  facet normal -0.982287 -0.187381 0
    outer loop
      vertex 5.2086 0.657999 -10.5
      vertex 5.08506 1.30562 10.5
      vertex 5.08506 1.30562 -10.5
    endloop
  endfacet
  facet normal -0.982287 -0.187381 0
    outer loop
      vertex 5.08506 1.30562 10.5
      vertex 5.2086 0.657999 -10.5
      vertex 5.2086 0.657999 10.5
    endloop
  endfacet
  facet normal -0.998027 0.0627939 0
    outer loop
      vertex 5.2086 -0.657999 -10.5
      vertex 5.25 0 10.5
      vertex 5.25 0 -10.5
    endloop
  endfacet
  facet normal -0.998027 0.0627939 0
    outer loop
      vertex 5.25 0 10.5
      vertex 5.2086 -0.657999 -10.5
      vertex 5.2086 -0.657999 10.5
    endloop
  endfacet
  facet normal -0.904827 0.42578 0
    outer loop
      vertex 4.60061 -2.52921 -10.5
      vertex 4.88133 -1.93265 10.5
      vertex 4.88133 -1.93265 -10.5
    endloop
  endfacet
  facet normal -0.904827 0.42578 0
    outer loop
      vertex 4.88133 -1.93265 10.5
      vertex 4.60061 -2.52921 -10.5
      vertex 4.60061 -2.52921 10.5
    endloop
  endfacet
  facet normal -0.951058 0.309011 0
    outer loop
      vertex 4.88133 -1.93265 -10.5
      vertex 5.08506 -1.30562 10.5
      vertex 5.08506 -1.30562 -10.5
    endloop
  endfacet
  facet normal -0.951058 0.309011 0
    outer loop
      vertex 5.08506 -1.30562 10.5
      vertex 4.88133 -1.93265 -10.5
      vertex 4.88133 -1.93265 10.5
    endloop
  endfacet
  facet normal 0.368133 0.929773 -0
    outer loop
      vertex -1.62234 -4.99305 -10.5
      vertex -2.23534 -4.75034 10.5
      vertex -1.62234 -4.99305 10.5
    endloop
  endfacet
  facet normal 0.368133 0.929773 0
    outer loop
      vertex -2.23534 -4.75034 10.5
      vertex -1.62234 -4.99305 -10.5
      vertex -2.23534 -4.75034 -10.5
    endloop
  endfacet
  facet normal 0.951058 0.309011 0
    outer loop
      vertex -4.88133 -1.93265 10.5
      vertex -5.08506 -1.30562 -10.5
      vertex -5.08506 -1.30562 10.5
    endloop
  endfacet
  facet normal 0.951058 0.309011 0
    outer loop
      vertex -5.08506 -1.30562 -10.5
      vertex -4.88133 -1.93265 10.5
      vertex -4.88133 -1.93265 -10.5
    endloop
  endfacet
  facet normal 0.982287 0.187381 0
    outer loop
      vertex -5.08506 -1.30562 10.5
      vertex -5.2086 -0.657999 -10.5
      vertex -5.2086 -0.657999 10.5
    endloop
  endfacet
  facet normal 0.982287 0.187381 0
    outer loop
      vertex -5.2086 -0.657999 -10.5
      vertex -5.08506 -1.30562 10.5
      vertex -5.08506 -1.30562 -10.5
    endloop
  endfacet
  facet normal 0.998027 0.0627939 0
    outer loop
      vertex -5.2086 -0.657999 10.5
      vertex -5.25 0 -10.5
      vertex -5.25 0 10.5
    endloop
  endfacet
  facet normal 0.998027 0.0627939 0
    outer loop
      vertex -5.25 0 -10.5
      vertex -5.2086 -0.657999 10.5
      vertex -5.2086 -0.657999 -10.5
    endloop
  endfacet
  facet normal 0.770509 0.637429 0
    outer loop
      vertex -3.82708 -3.59387 10.5
      vertex -4.24734 -3.08587 -10.5
      vertex -4.24734 -3.08587 10.5
    endloop
  endfacet
  facet normal 0.770509 0.637429 0
    outer loop
      vertex -4.24734 -3.08587 -10.5
      vertex -3.82708 -3.59387 10.5
      vertex -3.82708 -3.59387 -10.5
    endloop
  endfacet
  facet normal -0.368133 0.929773 0
    outer loop
      vertex 2.23534 -4.75034 -10.5
      vertex 1.62234 -4.99305 10.5
      vertex 2.23534 -4.75034 10.5
    endloop
  endfacet
  facet normal -0.368133 0.929773 0
    outer loop
      vertex 1.62234 -4.99305 10.5
      vertex 2.23534 -4.75034 -10.5
      vertex 1.62234 -4.99305 -10.5
    endloop
  endfacet
  facet normal -0.248687 0.968584 0
    outer loop
      vertex 1.62234 -4.99305 -10.5
      vertex 0.983751 -5.15701 10.5
      vertex 1.62234 -4.99305 10.5
    endloop
  endfacet
  facet normal -0.248687 0.968584 0
    outer loop
      vertex 0.983751 -5.15701 10.5
      vertex 1.62234 -4.99305 -10.5
      vertex 0.983751 -5.15701 -10.5
    endloop
  endfacet
  facet normal -0.587785 0.809017 0
    outer loop
      vertex 3.34648 -4.04519 -10.5
      vertex 2.81309 -4.43272 10.5
      vertex 3.34648 -4.04519 10.5
    endloop
  endfacet
  facet normal -0.587785 0.809017 0
    outer loop
      vertex 2.81309 -4.43272 10.5
      vertex 3.34648 -4.04519 -10.5
      vertex 2.81309 -4.43272 -10.5
    endloop
  endfacet
  facet normal -0.844326 0.53583 0
    outer loop
      vertex 4.24734 -3.08587 -10.5
      vertex 4.60061 -2.52921 10.5
      vertex 4.60061 -2.52921 -10.5
    endloop
  endfacet
  facet normal -0.844326 0.53583 0
    outer loop
      vertex 4.60061 -2.52921 10.5
      vertex 4.24734 -3.08587 -10.5
      vertex 4.24734 -3.08587 10.5
    endloop
  endfacet
  facet normal 0.481753 0.876307 -0
    outer loop
      vertex -2.23534 -4.75034 -10.5
      vertex -2.81309 -4.43272 10.5
      vertex -2.23534 -4.75034 10.5
    endloop
  endfacet
  facet normal 0.481753 0.876307 0
    outer loop
      vertex -2.81309 -4.43272 10.5
      vertex -2.23534 -4.75034 -10.5
      vertex -2.81309 -4.43272 -10.5
    endloop
  endfacet
  facet normal -0.684552 0.728964 0
    outer loop
      vertex 3.82708 -3.59387 -10.5
      vertex 3.34648 -4.04519 10.5
      vertex 3.82708 -3.59387 10.5
    endloop
  endfacet
  facet normal -0.684552 0.728964 0
    outer loop
      vertex 3.34648 -4.04519 10.5
      vertex 3.82708 -3.59387 -10.5
      vertex 3.34648 -4.04519 -10.5
    endloop
  endfacet
  facet normal 0.587785 0.809017 -0
    outer loop
      vertex -2.81309 -4.43272 -10.5
      vertex -3.34648 -4.04519 10.5
      vertex -2.81309 -4.43272 10.5
    endloop
  endfacet
  facet normal 0.587785 0.809017 0
    outer loop
      vertex -3.34648 -4.04519 10.5
      vertex -2.81309 -4.43272 -10.5
      vertex -3.34648 -4.04519 -10.5
    endloop
  endfacet
  facet normal 0.248687 0.968584 -0
    outer loop
      vertex -0.983751 -5.15701 -10.5
      vertex -1.62234 -4.99305 10.5
      vertex -0.983751 -5.15701 10.5
    endloop
  endfacet
  facet normal 0.248687 0.968584 0
    outer loop
      vertex -1.62234 -4.99305 10.5
      vertex -0.983751 -5.15701 -10.5
      vertex -1.62234 -4.99305 -10.5
    endloop
  endfacet
  facet normal 0.12533 0.992115 -0
    outer loop
      vertex -0.32965 -5.23964 -10.5
      vertex -0.983751 -5.15701 10.5
      vertex -0.32965 -5.23964 10.5
    endloop
  endfacet
  facet normal 0.12533 0.992115 0
    outer loop
      vertex -0.983751 -5.15701 10.5
      vertex -0.32965 -5.23964 -10.5
      vertex -0.983751 -5.15701 -10.5
    endloop
  endfacet
endsolid OpenSCAD_Model
