solid OpenSCAD_Model
  facet normal 0.998027 0.0627838 0
    outer loop
      vertex 4.5 0 50
      vertex 4.46452 0.563999 -50
      vertex 4.46452 0.563999 50
    endloop
  endfacet
  facet normal 0.998027 0.0627838 0
    outer loop
      vertex 4.46452 0.563999 -50
      vertex 4.5 0 50
      vertex 4.5 0 -50
    endloop
  endfacet
  facet normal -0.998027 0.0627838 0
    outer loop
      vertex -4.5 0 -50
      vertex -4.46452 0.563999 50
      vertex -4.46452 0.563999 -50
    endloop
  endfacet
  facet normal -0.998027 0.0627838 0
    outer loop
      vertex -4.46452 0.563999 50
      vertex -4.5 0 -50
      vertex -4.5 0 50
    endloop
  endfacet
  facet normal 0 1 -0
    outer loop
      vertex 0.282557 4.49112 -50
      vertex -0.282557 4.49112 50
      vertex 0.282557 4.49112 50
    endloop
  endfacet
  facet normal 0 1 0
    outer loop
      vertex -0.282557 4.49112 50
      vertex 0.282557 4.49112 -50
      vertex -0.282557 4.49112 -50
    endloop
  endfacet
  facet normal 0 -1 0
    outer loop
      vertex -0.282557 -4.49112 -50
      vertex 0.282557 -4.49112 50
      vertex -0.282557 -4.49112 50
    endloop
  endfacet
  facet normal 0 -1 -0
    outer loop
      vertex 0.282557 -4.49112 50
      vertex -0.282557 -4.49112 -50
      vertex 0.282557 -4.49112 -50
    endloop
  endfacet
  facet normal 0.68455 0.728966 -0
    outer loop
      vertex 3.28036 3.08046 -50
      vertex 2.86841 3.46731 50
      vertex 3.28036 3.08046 50
    endloop
  endfacet
  facet normal 0.68455 0.728966 0
    outer loop
      vertex 2.86841 3.46731 50
      vertex 3.28036 3.08046 -50
      vertex 2.86841 3.46731 -50
    endloop
  endfacet
  facet normal -0.68455 0.728966 0
    outer loop
      vertex -2.86841 3.46731 -50
      vertex -3.28036 3.08046 50
      vertex -2.86841 3.46731 50
    endloop
  endfacet
  facet normal -0.68455 0.728966 0
    outer loop
      vertex -3.28036 3.08046 50
      vertex -2.86841 3.46731 -50
      vertex -3.28036 3.08046 -50
    endloop
  endfacet
  facet normal -0.368121 0.929778 0
    outer loop
      vertex -1.39058 4.27975 -50
      vertex -1.91601 4.07172 50
      vertex -1.39058 4.27975 50
    endloop
  endfacet
  facet normal -0.368121 0.929778 0
    outer loop
      vertex -1.91601 4.07172 50
      vertex -1.39058 4.27975 -50
      vertex -1.91601 4.07172 -50
    endloop
  endfacet
  facet normal 0.951057 -0.309015 0
    outer loop
      vertex 4.18399 -1.65656 50
      vertex 4.35862 -1.1191 -50
      vertex 4.35862 -1.1191 50
    endloop
  endfacet
  facet normal 0.951057 -0.309015 0
    outer loop
      vertex 4.35862 -1.1191 -50
      vertex 4.18399 -1.65656 50
      vertex 4.18399 -1.65656 -50
    endloop
  endfacet
  facet normal 0.90483 0.425774 0
    outer loop
      vertex 4.18399 1.65656 50
      vertex 3.94338 2.16789 -50
      vertex 3.94338 2.16789 50
    endloop
  endfacet
  facet normal 0.90483 0.425774 0
    outer loop
      vertex 3.94338 2.16789 -50
      vertex 4.18399 1.65656 50
      vertex 4.18399 1.65656 -50
    endloop
  endfacet
  facet normal 0.982284 0.187396 0
    outer loop
      vertex 4.46452 0.563999 50
      vertex 4.35862 1.1191 -50
      vertex 4.35862 1.1191 50
    endloop
  endfacet
  facet normal 0.982284 0.187396 0
    outer loop
      vertex 4.35862 1.1191 -50
      vertex 4.46452 0.563999 50
      vertex 4.46452 0.563999 -50
    endloop
  endfacet
  facet normal 0.368121 0.929778 -0
    outer loop
      vertex 1.91601 4.07172 -50
      vertex 1.39058 4.27975 50
      vertex 1.91601 4.07172 50
    endloop
  endfacet
  facet normal 0.368121 0.929778 0
    outer loop
      vertex 1.39058 4.27975 50
      vertex 1.91601 4.07172 -50
      vertex 1.39058 4.27975 -50
    endloop
  endfacet
  facet normal 0.248691 0.968583 -0
    outer loop
      vertex 1.39058 4.27975 -50
      vertex 0.843215 4.42029 50
      vertex 1.39058 4.27975 50
    endloop
  endfacet
  facet normal 0.248691 0.968583 0
    outer loop
      vertex 0.843215 4.42029 50
      vertex 1.39058 4.27975 -50
      vertex 0.843215 4.42029 -50
    endloop
  endfacet
  facet normal 0.587776 0.809024 -0
    outer loop
      vertex 2.86841 3.46731 -50
      vertex 2.41122 3.79947 50
      vertex 2.86841 3.46731 50
    endloop
  endfacet
  facet normal 0.587776 0.809024 0
    outer loop
      vertex 2.41122 3.79947 50
      vertex 2.86841 3.46731 -50
      vertex 2.41122 3.79947 -50
    endloop
  endfacet
  facet normal -0.90483 0.425774 0
    outer loop
      vertex -4.18399 1.65656 -50
      vertex -3.94338 2.16789 50
      vertex -3.94338 2.16789 -50
    endloop
  endfacet
  facet normal -0.90483 0.425774 0
    outer loop
      vertex -3.94338 2.16789 50
      vertex -4.18399 1.65656 -50
      vertex -4.18399 1.65656 50
    endloop
  endfacet
  facet normal -0.951057 0.309015 0
    outer loop
      vertex -4.35862 1.1191 -50
      vertex -4.18399 1.65656 50
      vertex -4.18399 1.65656 -50
    endloop
  endfacet
  facet normal -0.951057 0.309015 0
    outer loop
      vertex -4.18399 1.65656 50
      vertex -4.35862 1.1191 -50
      vertex -4.35862 1.1191 50
    endloop
  endfacet
  facet normal -0.481762 0.876302 0
    outer loop
      vertex -1.91601 4.07172 -50
      vertex -2.41122 3.79947 50
      vertex -1.91601 4.07172 50
    endloop
  endfacet
  facet normal -0.481762 0.876302 0
    outer loop
      vertex -2.41122 3.79947 50
      vertex -1.91601 4.07172 -50
      vertex -2.41122 3.79947 -50
    endloop
  endfacet
  facet normal -0.248691 0.968583 0
    outer loop
      vertex -0.843215 4.42029 -50
      vertex -1.39058 4.27975 50
      vertex -0.843215 4.42029 50
    endloop
  endfacet
  facet normal -0.248691 0.968583 0
    outer loop
      vertex -1.39058 4.27975 50
      vertex -0.843215 4.42029 -50
      vertex -1.39058 4.27975 -50
    endloop
  endfacet
  facet normal 0.368121 -0.929778 0
    outer loop
      vertex 1.39058 -4.27975 -50
      vertex 1.91601 -4.07172 50
      vertex 1.39058 -4.27975 50
    endloop
  endfacet
  facet normal 0.368121 -0.929778 0
    outer loop
      vertex 1.91601 -4.07172 50
      vertex 1.39058 -4.27975 -50
      vertex 1.91601 -4.07172 -50
    endloop
  endfacet
  facet normal 0.951057 0.309015 0
    outer loop
      vertex 4.35862 1.1191 50
      vertex 4.18399 1.65656 -50
      vertex 4.18399 1.65656 50
    endloop
  endfacet
  facet normal 0.951057 0.309015 0
    outer loop
      vertex 4.18399 1.65656 -50
      vertex 4.35862 1.1191 50
      vertex 4.35862 1.1191 -50
    endloop
  endfacet
  facet normal 0.770512 0.637425 0
    outer loop
      vertex 3.64058 2.64503 50
      vertex 3.28036 3.08046 -50
      vertex 3.28036 3.08046 50
    endloop
  endfacet
  facet normal 0.770512 0.637425 0
    outer loop
      vertex 3.28036 3.08046 -50
      vertex 3.64058 2.64503 50
      vertex 3.64058 2.64503 -50
    endloop
  endfacet
  facet normal 0.84433 0.535824 0
    outer loop
      vertex 3.94338 2.16789 50
      vertex 3.64058 2.64503 -50
      vertex 3.64058 2.64503 50
    endloop
  endfacet
  facet normal 0.84433 0.535824 0
    outer loop
      vertex 3.64058 2.64503 -50
      vertex 3.94338 2.16789 50
      vertex 3.94338 2.16789 -50
    endloop
  endfacet
  facet normal 0.125337 0.992114 -0
    outer loop
      vertex 0.843215 4.42029 -50
      vertex 0.282557 4.49112 50
      vertex 0.843215 4.42029 50
    endloop
  endfacet
  facet normal 0.125337 0.992114 0
    outer loop
      vertex 0.282557 4.49112 50
      vertex 0.843215 4.42029 -50
      vertex 0.282557 4.49112 -50
    endloop
  endfacet
  facet normal 0.481762 0.876302 -0
    outer loop
      vertex 2.41122 3.79947 -50
      vertex 1.91601 4.07172 50
      vertex 2.41122 3.79947 50
    endloop
  endfacet
  facet normal 0.481762 0.876302 0
    outer loop
      vertex 1.91601 4.07172 50
      vertex 2.41122 3.79947 -50
      vertex 1.91601 4.07172 -50
    endloop
  endfacet
  facet normal -0.84433 0.535824 0
    outer loop
      vertex -3.94338 2.16789 -50
      vertex -3.64058 2.64503 50
      vertex -3.64058 2.64503 -50
    endloop
  endfacet
  facet normal -0.84433 0.535824 0
    outer loop
      vertex -3.64058 2.64503 50
      vertex -3.94338 2.16789 -50
      vertex -3.94338 2.16789 50
    endloop
  endfacet
  facet normal -0.770512 0.637425 0
    outer loop
      vertex -3.64058 2.64503 -50
      vertex -3.28036 3.08046 50
      vertex -3.28036 3.08046 -50
    endloop
  endfacet
  facet normal -0.770512 0.637425 0
    outer loop
      vertex -3.28036 3.08046 50
      vertex -3.64058 2.64503 -50
      vertex -3.64058 2.64503 50
    endloop
  endfacet
  facet normal -0.982284 0.187396 0
    outer loop
      vertex -4.46452 0.563999 -50
      vertex -4.35862 1.1191 50
      vertex -4.35862 1.1191 -50
    endloop
  endfacet
  facet normal -0.982284 0.187396 0
    outer loop
      vertex -4.35862 1.1191 50
      vertex -4.46452 0.563999 -50
      vertex -4.46452 0.563999 50
    endloop
  endfacet
  facet normal 0 0 1
    outer loop
      vertex 1 0 50
      vertex 4.5 0 50
      vertex 4.46452 0.563999 50
    endloop
  endfacet
  facet normal 0 0 1
    outer loop
      vertex 0.992114 0.125333 50
      vertex 4.46452 0.563999 50
      vertex 4.35862 1.1191 50
    endloop
  endfacet
  facet normal 0 0 1
    outer loop
      vertex 4.5 0 50
      vertex 1 0 50
      vertex 4.46452 -0.563999 50
    endloop
  endfacet
  facet normal 0 0 1
    outer loop
      vertex 0.968583 0.24869 50
      vertex 4.35862 1.1191 50
      vertex 4.18399 1.65656 50
    endloop
  endfacet
  facet normal -0 0 1
    outer loop
      vertex 0.992114 -0.125333 50
      vertex 4.46452 -0.563999 50
      vertex 1 0 50
    endloop
  endfacet
  facet normal 0 0 1
    outer loop
      vertex 0.929776 0.368124 50
      vertex 4.18399 1.65656 50
      vertex 3.94338 2.16789 50
    endloop
  endfacet
  facet normal 0 0 1
    outer loop
      vertex 4.46452 -0.563999 50
      vertex 0.992114 -0.125333 50
      vertex 4.35862 -1.1191 50
    endloop
  endfacet
  facet normal 0 0 1
    outer loop
      vertex 0.876307 0.481753 50
      vertex 3.94338 2.16789 50
      vertex 3.64058 2.64503 50
    endloop
  endfacet
  facet normal -0 0 1
    outer loop
      vertex 0.968583 -0.24869 50
      vertex 4.35862 -1.1191 50
      vertex 0.992114 -0.125333 50
    endloop
  endfacet
  facet normal 0 0 1
    outer loop
      vertex 0.809016 0.587785 50
      vertex 3.64058 2.64503 50
      vertex 3.28036 3.08046 50
    endloop
  endfacet
  facet normal 0 0 1
    outer loop
      vertex 4.35862 -1.1191 50
      vertex 0.968583 -0.24869 50
      vertex 4.18399 -1.65656 50
    endloop
  endfacet
  facet normal 0 0 1
    outer loop
      vertex 0.728969 0.684546 50
      vertex 3.28036 3.08046 50
      vertex 2.86841 3.46731 50
    endloop
  endfacet
  facet normal -0 0 1
    outer loop
      vertex 0.929776 -0.368124 50
      vertex 4.18399 -1.65656 50
      vertex 0.968583 -0.24869 50
    endloop
  endfacet
  facet normal 0 0 1
    outer loop
      vertex 0.637424 0.770513 50
      vertex 2.86841 3.46731 50
      vertex 2.41122 3.79947 50
    endloop
  endfacet
  facet normal 0 0 1
    outer loop
      vertex 4.18399 -1.65656 50
      vertex 0.929776 -0.368124 50
      vertex 3.94338 -2.16789 50
    endloop
  endfacet
  facet normal 0 0 1
    outer loop
      vertex 0.535827 0.844327 50
      vertex 2.41122 3.79947 50
      vertex 1.91601 4.07172 50
    endloop
  endfacet
  facet normal -0 0 1
    outer loop
      vertex 0.876307 -0.481753 50
      vertex 3.94338 -2.16789 50
      vertex 0.929776 -0.368124 50
    endloop
  endfacet
  facet normal 0 0 1
    outer loop
      vertex 0.425778 0.904826 50
      vertex 1.91601 4.07172 50
      vertex 1.39058 4.27975 50
    endloop
  endfacet
  facet normal 0 0 1
    outer loop
      vertex 3.94338 -2.16789 50
      vertex 0.876307 -0.481753 50
      vertex 3.64058 -2.64503 50
    endloop
  endfacet
  facet normal -0 0 1
    outer loop
      vertex 0.809016 -0.587785 50
      vertex 3.64058 -2.64503 50
      vertex 0.876307 -0.481753 50
    endloop
  endfacet
  facet normal 0 0 1
    outer loop
      vertex 4.46452 0.563999 50
      vertex 0.992114 0.125333 50
      vertex 1 0 50
    endloop
  endfacet
  facet normal 0 0 1
    outer loop
      vertex 4.35862 1.1191 50
      vertex 0.968583 0.24869 50
      vertex 0.992114 0.125333 50
    endloop
  endfacet
  facet normal 0 0 1
    outer loop
      vertex 4.18399 1.65656 50
      vertex 0.929776 0.368124 50
      vertex 0.968583 0.24869 50
    endloop
  endfacet
  facet normal 0 0 1
    outer loop
      vertex 3.94338 2.16789 50
      vertex 0.876307 0.481753 50
      vertex 0.929776 0.368124 50
    endloop
  endfacet
  facet normal 0 0 1
    outer loop
      vertex 0.309016 0.951056 50
      vertex 1.39058 4.27975 50
      vertex 0.843215 4.42029 50
    endloop
  endfacet
  facet normal 0 0 1
    outer loop
      vertex 3.64058 2.64503 50
      vertex 0.809016 0.587785 50
      vertex 0.876307 0.481753 50
    endloop
  endfacet
  facet normal 0 0 1
    outer loop
      vertex 3.28036 3.08046 50
      vertex 0.728969 0.684546 50
      vertex 0.809016 0.587785 50
    endloop
  endfacet
  facet normal 0 0 1
    outer loop
      vertex 2.86841 3.46731 50
      vertex 0.637424 0.770513 50
      vertex 0.728969 0.684546 50
    endloop
  endfacet
  facet normal 0 0 1
    outer loop
      vertex 2.41122 3.79947 50
      vertex 0.535827 0.844327 50
      vertex 0.637424 0.770513 50
    endloop
  endfacet
  facet normal 0 0 1
    outer loop
      vertex 1.91601 4.07172 50
      vertex 0.425778 0.904826 50
      vertex 0.535827 0.844327 50
    endloop
  endfacet
  facet normal 0 0 1
    outer loop
      vertex 1.39058 4.27975 50
      vertex 0.309016 0.951056 50
      vertex 0.425778 0.904826 50
    endloop
  endfacet
  facet normal 0 0 1
    outer loop
      vertex 0.187381 0.982286 50
      vertex 0.843215 4.42029 50
      vertex 0.282557 4.49112 50
    endloop
  endfacet
  facet normal 0 0 1
    outer loop
      vertex 0.843215 4.42029 50
      vertex 0.187381 0.982286 50
      vertex 0.309016 0.951056 50
    endloop
  endfacet
  facet normal 0 0 1
    outer loop
      vertex 0.282557 4.49112 50
      vertex 0.0627899 0.998026 50
      vertex 0.187381 0.982286 50
    endloop
  endfacet
  facet normal 0 0 1
    outer loop
      vertex 0.282557 4.49112 50
      vertex -0.0627899 0.998026 50
      vertex 0.0627899 0.998026 50
    endloop
  endfacet
  facet normal -0 0 1
    outer loop
      vertex -0.282557 4.49112 50
      vertex -0.0627899 0.998026 50
      vertex 0.282557 4.49112 50
    endloop
  endfacet
  facet normal 0 0 1
    outer loop
      vertex -0.0627899 0.998026 50
      vertex -0.282557 4.49112 50
      vertex -0.187381 0.982286 50
    endloop
  endfacet
  facet normal -0 0 1
    outer loop
      vertex -0.843215 4.42029 50
      vertex -0.187381 0.982286 50
      vertex -0.282557 4.49112 50
    endloop
  endfacet
  facet normal 0 0 1
    outer loop
      vertex -0.187381 0.982286 50
      vertex -0.843215 4.42029 50
      vertex -0.309016 0.951056 50
    endloop
  endfacet
  facet normal -0 0 1
    outer loop
      vertex -1.39058 4.27975 50
      vertex -0.309016 0.951056 50
      vertex -0.843215 4.42029 50
    endloop
  endfacet
  facet normal 0 0 1
    outer loop
      vertex -0.309016 0.951056 50
      vertex -1.39058 4.27975 50
      vertex -0.425778 0.904826 50
    endloop
  endfacet
  facet normal -0 0 1
    outer loop
      vertex -1.91601 4.07172 50
      vertex -0.425778 0.904826 50
      vertex -1.39058 4.27975 50
    endloop
  endfacet
  facet normal 0 0 1
    outer loop
      vertex -0.425778 0.904826 50
      vertex -1.91601 4.07172 50
      vertex -0.535827 0.844327 50
    endloop
  endfacet
  facet normal -0 0 1
    outer loop
      vertex -2.41122 3.79947 50
      vertex -0.535827 0.844327 50
      vertex -1.91601 4.07172 50
    endloop
  endfacet
  facet normal 0 0 1
    outer loop
      vertex -0.535827 0.844327 50
      vertex -2.41122 3.79947 50
      vertex -0.637424 0.770513 50
    endloop
  endfacet
  facet normal -0 0 1
    outer loop
      vertex -2.86841 3.46731 50
      vertex -0.637424 0.770513 50
      vertex -2.41122 3.79947 50
    endloop
  endfacet
  facet normal 0 0 1
    outer loop
      vertex -0.637424 0.770513 50
      vertex -2.86841 3.46731 50
      vertex -0.728969 0.684546 50
    endloop
  endfacet
  facet normal -0 0 1
    outer loop
      vertex -3.28036 3.08046 50
      vertex -0.728969 0.684546 50
      vertex -2.86841 3.46731 50
    endloop
  endfacet
  facet normal 0 0 1
    outer loop
      vertex -0.728969 0.684546 50
      vertex -3.28036 3.08046 50
      vertex -0.809016 0.587785 50
    endloop
  endfacet
  facet normal -0 0 1
    outer loop
      vertex -3.64058 2.64503 50
      vertex -0.809016 0.587785 50
      vertex -3.28036 3.08046 50
    endloop
  endfacet
  facet normal 0 0 1
    outer loop
      vertex 3.64058 -2.64503 50
      vertex 0.809016 -0.587785 50
      vertex 3.28036 -3.08046 50
    endloop
  endfacet
  facet normal -0 0 1
    outer loop
      vertex 0.728969 -0.684546 50
      vertex 3.28036 -3.08046 50
      vertex 0.809016 -0.587785 50
    endloop
  endfacet
  facet normal 0 0 1
    outer loop
      vertex 3.28036 -3.08046 50
      vertex 0.728969 -0.684546 50
      vertex 2.86841 -3.46731 50
    endloop
  endfacet
  facet normal -0 0 1
    outer loop
      vertex 0.637424 -0.770513 50
      vertex 2.86841 -3.46731 50
      vertex 0.728969 -0.684546 50
    endloop
  endfacet
  facet normal 0 0 1
    outer loop
      vertex 2.86841 -3.46731 50
      vertex 0.637424 -0.770513 50
      vertex 2.41122 -3.79947 50
    endloop
  endfacet
  facet normal -0 0 1
    outer loop
      vertex 0.535827 -0.844327 50
      vertex 2.41122 -3.79947 50
      vertex 0.637424 -0.770513 50
    endloop
  endfacet
  facet normal 0 0 1
    outer loop
      vertex 2.41122 -3.79947 50
      vertex 0.535827 -0.844327 50
      vertex 1.91601 -4.07172 50
    endloop
  endfacet
  facet normal -0 0 1
    outer loop
      vertex 0.425778 -0.904826 50
      vertex 1.91601 -4.07172 50
      vertex 0.535827 -0.844327 50
    endloop
  endfacet
  facet normal 0 0 1
    outer loop
      vertex 1.91601 -4.07172 50
      vertex 0.425778 -0.904826 50
      vertex 1.39058 -4.27975 50
    endloop
  endfacet
  facet normal -0 0 1
    outer loop
      vertex 0.309016 -0.951056 50
      vertex 1.39058 -4.27975 50
      vertex 0.425778 -0.904826 50
    endloop
  endfacet
  facet normal 0 0 1
    outer loop
      vertex 1.39058 -4.27975 50
      vertex 0.309016 -0.951056 50
      vertex 0.843215 -4.42029 50
    endloop
  endfacet
  facet normal -0 0 1
    outer loop
      vertex 0.187381 -0.982286 50
      vertex 0.843215 -4.42029 50
      vertex 0.309016 -0.951056 50
    endloop
  endfacet
  facet normal 0 0 1
    outer loop
      vertex 0.843215 -4.42029 50
      vertex 0.187381 -0.982286 50
      vertex 0.282557 -4.49112 50
    endloop
  endfacet
  facet normal -0 0 1
    outer loop
      vertex 0.0627899 -0.998026 50
      vertex 0.282557 -4.49112 50
      vertex 0.187381 -0.982286 50
    endloop
  endfacet
  facet normal -0 0 1
    outer loop
      vertex -0.0627899 -0.998026 50
      vertex 0.282557 -4.49112 50
      vertex 0.0627899 -0.998026 50
    endloop
  endfacet
  facet normal 0 0 1
    outer loop
      vertex -0.282557 -4.49112 50
      vertex -0.0627899 -0.998026 50
      vertex -0.187381 -0.982286 50
    endloop
  endfacet
  facet normal 0 0 1
    outer loop
      vertex -0.0627899 -0.998026 50
      vertex -0.282557 -4.49112 50
      vertex 0.282557 -4.49112 50
    endloop
  endfacet
  facet normal 0 0 1
    outer loop
      vertex -0.843215 -4.42029 50
      vertex -0.187381 -0.982286 50
      vertex -0.309016 -0.951056 50
    endloop
  endfacet
  facet normal 0 0 1
    outer loop
      vertex -1.39058 -4.27975 50
      vertex -0.309016 -0.951056 50
      vertex -0.425778 -0.904826 50
    endloop
  endfacet
  facet normal 0 0 1
    outer loop
      vertex -1.91601 -4.07172 50
      vertex -0.425778 -0.904826 50
      vertex -0.535827 -0.844327 50
    endloop
  endfacet
  facet normal 0 0 1
    outer loop
      vertex -2.41122 -3.79947 50
      vertex -0.535827 -0.844327 50
      vertex -0.637424 -0.770513 50
    endloop
  endfacet
  facet normal 0 0 1
    outer loop
      vertex -2.86841 -3.46731 50
      vertex -0.637424 -0.770513 50
      vertex -0.728969 -0.684546 50
    endloop
  endfacet
  facet normal 0 0 1
    outer loop
      vertex -3.28036 -3.08046 50
      vertex -0.728969 -0.684546 50
      vertex -0.809016 -0.587785 50
    endloop
  endfacet
  facet normal 0 0 1
    outer loop
      vertex -0.187381 -0.982286 50
      vertex -0.843215 -4.42029 50
      vertex -0.282557 -4.49112 50
    endloop
  endfacet
  facet normal 0 0 1
    outer loop
      vertex -3.64058 -2.64503 50
      vertex -0.809016 -0.587785 50
      vertex -0.876307 -0.481753 50
    endloop
  endfacet
  facet normal 0 0 1
    outer loop
      vertex -3.94338 -2.16789 50
      vertex -0.876307 -0.481753 50
      vertex -0.929776 -0.368124 50
    endloop
  endfacet
  facet normal 0 0 1
    outer loop
      vertex -4.18399 -1.65656 50
      vertex -0.929776 -0.368124 50
      vertex -0.968583 -0.24869 50
    endloop
  endfacet
  facet normal 0 0 1
    outer loop
      vertex -4.35862 -1.1191 50
      vertex -0.968583 -0.24869 50
      vertex -0.992114 -0.125333 50
    endloop
  endfacet
  facet normal 0 0 1
    outer loop
      vertex -4.46452 -0.563999 50
      vertex -0.992114 -0.125333 50
      vertex -1 0 50
    endloop
  endfacet
  facet normal 0 0 1
    outer loop
      vertex -0.809016 0.587785 50
      vertex -3.64058 2.64503 50
      vertex -0.876307 0.481753 50
    endloop
  endfacet
  facet normal 0 0 1
    outer loop
      vertex -0.309016 -0.951056 50
      vertex -1.39058 -4.27975 50
      vertex -0.843215 -4.42029 50
    endloop
  endfacet
  facet normal -0 0 1
    outer loop
      vertex -3.94338 2.16789 50
      vertex -0.876307 0.481753 50
      vertex -3.64058 2.64503 50
    endloop
  endfacet
  facet normal 0 0 1
    outer loop
      vertex -0.425778 -0.904826 50
      vertex -1.91601 -4.07172 50
      vertex -1.39058 -4.27975 50
    endloop
  endfacet
  facet normal 0 0 1
    outer loop
      vertex -0.876307 0.481753 50
      vertex -3.94338 2.16789 50
      vertex -0.929776 0.368124 50
    endloop
  endfacet
  facet normal 0 0 1
    outer loop
      vertex -0.535827 -0.844327 50
      vertex -2.41122 -3.79947 50
      vertex -1.91601 -4.07172 50
    endloop
  endfacet
  facet normal -0 0 1
    outer loop
      vertex -4.18399 1.65656 50
      vertex -0.929776 0.368124 50
      vertex -3.94338 2.16789 50
    endloop
  endfacet
  facet normal 0 0 1
    outer loop
      vertex -0.637424 -0.770513 50
      vertex -2.86841 -3.46731 50
      vertex -2.41122 -3.79947 50
    endloop
  endfacet
  facet normal 0 0 1
    outer loop
      vertex -0.929776 0.368124 50
      vertex -4.18399 1.65656 50
      vertex -0.968583 0.24869 50
    endloop
  endfacet
  facet normal 0 0 1
    outer loop
      vertex -0.728969 -0.684546 50
      vertex -3.28036 -3.08046 50
      vertex -2.86841 -3.46731 50
    endloop
  endfacet
  facet normal -0 0 1
    outer loop
      vertex -4.35862 1.1191 50
      vertex -0.968583 0.24869 50
      vertex -4.18399 1.65656 50
    endloop
  endfacet
  facet normal 0 0 1
    outer loop
      vertex -0.809016 -0.587785 50
      vertex -3.64058 -2.64503 50
      vertex -3.28036 -3.08046 50
    endloop
  endfacet
  facet normal 0 0 1
    outer loop
      vertex -0.968583 0.24869 50
      vertex -4.35862 1.1191 50
      vertex -0.992114 0.125333 50
    endloop
  endfacet
  facet normal 0 0 1
    outer loop
      vertex -0.876307 -0.481753 50
      vertex -3.94338 -2.16789 50
      vertex -3.64058 -2.64503 50
    endloop
  endfacet
  facet normal -0 0 1
    outer loop
      vertex -4.46452 0.563999 50
      vertex -0.992114 0.125333 50
      vertex -4.35862 1.1191 50
    endloop
  endfacet
  facet normal 0 0 1
    outer loop
      vertex -0.929776 -0.368124 50
      vertex -4.18399 -1.65656 50
      vertex -3.94338 -2.16789 50
    endloop
  endfacet
  facet normal 0 0 1
    outer loop
      vertex -0.992114 0.125333 50
      vertex -4.46452 0.563999 50
      vertex -1 0 50
    endloop
  endfacet
  facet normal 0 0 1
    outer loop
      vertex -0.968583 -0.24869 50
      vertex -4.35862 -1.1191 50
      vertex -4.18399 -1.65656 50
    endloop
  endfacet
  facet normal 0 0 1
    outer loop
      vertex -4.5 0 50
      vertex -1 0 50
      vertex -4.46452 0.563999 50
    endloop
  endfacet
  facet normal 0 0 1
    outer loop
      vertex -0.992114 -0.125333 50
      vertex -4.46452 -0.563999 50
      vertex -4.35862 -1.1191 50
    endloop
  endfacet
  facet normal 0 0 1
    outer loop
      vertex -1 0 50
      vertex -4.5 0 50
      vertex -4.46452 -0.563999 50
    endloop
  endfacet
  facet normal -0.587776 0.809024 0
    outer loop
      vertex -2.41122 3.79947 -50
      vertex -2.86841 3.46731 50
      vertex -2.41122 3.79947 50
    endloop
  endfacet
  facet normal -0.587776 0.809024 0
    outer loop
      vertex -2.86841 3.46731 50
      vertex -2.41122 3.79947 -50
      vertex -2.86841 3.46731 -50
    endloop
  endfacet
  facet normal -0.125337 0.992114 0
    outer loop
      vertex -0.282557 4.49112 -50
      vertex -0.843215 4.42029 50
      vertex -0.282557 4.49112 50
    endloop
  endfacet
  facet normal -0.125337 0.992114 0
    outer loop
      vertex -0.843215 4.42029 50
      vertex -0.282557 4.49112 -50
      vertex -0.843215 4.42029 -50
    endloop
  endfacet
  facet normal 0.998027 -0.0627838 0
    outer loop
      vertex 4.46452 -0.563999 50
      vertex 4.5 0 -50
      vertex 4.5 0 50
    endloop
  endfacet
  facet normal 0.998027 -0.0627838 0
    outer loop
      vertex 4.5 0 -50
      vertex 4.46452 -0.563999 50
      vertex 4.46452 -0.563999 -50
    endloop
  endfacet
  facet normal 0.84433 -0.535824 0
    outer loop
      vertex 3.64058 -2.64503 50
      vertex 3.94338 -2.16789 -50
      vertex 3.94338 -2.16789 50
    endloop
  endfacet
  facet normal 0.84433 -0.535824 0
    outer loop
      vertex 3.94338 -2.16789 -50
      vertex 3.64058 -2.64503 50
      vertex 3.64058 -2.64503 -50
    endloop
  endfacet
  facet normal 0.982284 -0.187396 0
    outer loop
      vertex 4.35862 -1.1191 50
      vertex 4.46452 -0.563999 -50
      vertex 4.46452 -0.563999 50
    endloop
  endfacet
  facet normal 0.982284 -0.187396 0
    outer loop
      vertex 4.46452 -0.563999 -50
      vertex 4.35862 -1.1191 50
      vertex 4.35862 -1.1191 -50
    endloop
  endfacet
  facet normal -0.68455 -0.728966 0
    outer loop
      vertex -3.28036 -3.08046 -50
      vertex -2.86841 -3.46731 50
      vertex -3.28036 -3.08046 50
    endloop
  endfacet
  facet normal -0.68455 -0.728966 -0
    outer loop
      vertex -2.86841 -3.46731 50
      vertex -3.28036 -3.08046 -50
      vertex -2.86841 -3.46731 -50
    endloop
  endfacet
  facet normal -0.90483 -0.425774 0
    outer loop
      vertex -3.94338 -2.16789 -50
      vertex -4.18399 -1.65656 50
      vertex -4.18399 -1.65656 -50
    endloop
  endfacet
  facet normal -0.90483 -0.425774 0
    outer loop
      vertex -4.18399 -1.65656 50
      vertex -3.94338 -2.16789 -50
      vertex -3.94338 -2.16789 50
    endloop
  endfacet
  facet normal -0.84433 -0.535824 0
    outer loop
      vertex -3.64058 -2.64503 -50
      vertex -3.94338 -2.16789 50
      vertex -3.94338 -2.16789 -50
    endloop
  endfacet
  facet normal -0.84433 -0.535824 0
    outer loop
      vertex -3.94338 -2.16789 50
      vertex -3.64058 -2.64503 -50
      vertex -3.64058 -2.64503 50
    endloop
  endfacet
  facet normal 0 0 -1
    outer loop
      vertex 1 0 -50
      vertex 4.5 0 -50
      vertex 4.46452 -0.563999 -50
    endloop
  endfacet
  facet normal 0 0 -1
    outer loop
      vertex 0.992114 -0.125333 -50
      vertex 4.46452 -0.563999 -50
      vertex 4.35862 -1.1191 -50
    endloop
  endfacet
  facet normal 0 0 -1
    outer loop
      vertex 4.5 0 -50
      vertex 1 0 -50
      vertex 4.46452 0.563999 -50
    endloop
  endfacet
  facet normal 0 0 -1
    outer loop
      vertex 0.968583 -0.24869 -50
      vertex 4.35862 -1.1191 -50
      vertex 4.18399 -1.65656 -50
    endloop
  endfacet
  facet normal 0 0 -1
    outer loop
      vertex 0.992114 0.125333 -50
      vertex 4.46452 0.563999 -50
      vertex 1 0 -50
    endloop
  endfacet
  facet normal 0 0 -1
    outer loop
      vertex 0.929776 -0.368124 -50
      vertex 4.18399 -1.65656 -50
      vertex 3.94338 -2.16789 -50
    endloop
  endfacet
  facet normal -0 0 -1
    outer loop
      vertex 4.46452 0.563999 -50
      vertex 0.992114 0.125333 -50
      vertex 4.35862 1.1191 -50
    endloop
  endfacet
  facet normal 0 0 -1
    outer loop
      vertex 0.876307 -0.481753 -50
      vertex 3.94338 -2.16789 -50
      vertex 3.64058 -2.64503 -50
    endloop
  endfacet
  facet normal 0 0 -1
    outer loop
      vertex 0.968583 0.24869 -50
      vertex 4.35862 1.1191 -50
      vertex 0.992114 0.125333 -50
    endloop
  endfacet
  facet normal 0 0 -1
    outer loop
      vertex 0.809016 -0.587785 -50
      vertex 3.64058 -2.64503 -50
      vertex 3.28036 -3.08046 -50
    endloop
  endfacet
  facet normal -0 0 -1
    outer loop
      vertex 4.35862 1.1191 -50
      vertex 0.968583 0.24869 -50
      vertex 4.18399 1.65656 -50
    endloop
  endfacet
  facet normal 0 0 -1
    outer loop
      vertex 0.728969 -0.684546 -50
      vertex 3.28036 -3.08046 -50
      vertex 2.86841 -3.46731 -50
    endloop
  endfacet
  facet normal 0 0 -1
    outer loop
      vertex 0.929776 0.368124 -50
      vertex 4.18399 1.65656 -50
      vertex 0.968583 0.24869 -50
    endloop
  endfacet
  facet normal 0 0 -1
    outer loop
      vertex 0.637424 -0.770513 -50
      vertex 2.86841 -3.46731 -50
      vertex 2.41122 -3.79947 -50
    endloop
  endfacet
  facet normal -0 0 -1
    outer loop
      vertex 4.18399 1.65656 -50
      vertex 0.929776 0.368124 -50
      vertex 3.94338 2.16789 -50
    endloop
  endfacet
  facet normal 0 0 -1
    outer loop
      vertex 0.535827 -0.844327 -50
      vertex 2.41122 -3.79947 -50
      vertex 1.91601 -4.07172 -50
    endloop
  endfacet
  facet normal 0 0 -1
    outer loop
      vertex 0.876307 0.481753 -50
      vertex 3.94338 2.16789 -50
      vertex 0.929776 0.368124 -50
    endloop
  endfacet
  facet normal 0 0 -1
    outer loop
      vertex 0.425778 -0.904826 -50
      vertex 1.91601 -4.07172 -50
      vertex 1.39058 -4.27975 -50
    endloop
  endfacet
  facet normal -0 0 -1
    outer loop
      vertex 3.94338 2.16789 -50
      vertex 0.876307 0.481753 -50
      vertex 3.64058 2.64503 -50
    endloop
  endfacet
  facet normal 0 0 -1
    outer loop
      vertex 0.809016 0.587785 -50
      vertex 3.64058 2.64503 -50
      vertex 0.876307 0.481753 -50
    endloop
  endfacet
  facet normal 0 0 -1
    outer loop
      vertex 4.46452 -0.563999 -50
      vertex 0.992114 -0.125333 -50
      vertex 1 0 -50
    endloop
  endfacet
  facet normal 0 0 -1
    outer loop
      vertex 4.35862 -1.1191 -50
      vertex 0.968583 -0.24869 -50
      vertex 0.992114 -0.125333 -50
    endloop
  endfacet
  facet normal 0 0 -1
    outer loop
      vertex 4.18399 -1.65656 -50
      vertex 0.929776 -0.368124 -50
      vertex 0.968583 -0.24869 -50
    endloop
  endfacet
  facet normal 0 0 -1
    outer loop
      vertex 3.94338 -2.16789 -50
      vertex 0.876307 -0.481753 -50
      vertex 0.929776 -0.368124 -50
    endloop
  endfacet
  facet normal 0 0 -1
    outer loop
      vertex 0.309016 -0.951056 -50
      vertex 1.39058 -4.27975 -50
      vertex 0.843215 -4.42029 -50
    endloop
  endfacet
  facet normal 0 0 -1
    outer loop
      vertex 3.64058 -2.64503 -50
      vertex 0.809016 -0.587785 -50
      vertex 0.876307 -0.481753 -50
    endloop
  endfacet
  facet normal 0 0 -1
    outer loop
      vertex 3.28036 -3.08046 -50
      vertex 0.728969 -0.684546 -50
      vertex 0.809016 -0.587785 -50
    endloop
  endfacet
  facet normal 0 0 -1
    outer loop
      vertex 2.86841 -3.46731 -50
      vertex 0.637424 -0.770513 -50
      vertex 0.728969 -0.684546 -50
    endloop
  endfacet
  facet normal 0 0 -1
    outer loop
      vertex 2.41122 -3.79947 -50
      vertex 0.535827 -0.844327 -50
      vertex 0.637424 -0.770513 -50
    endloop
  endfacet
  facet normal 0 0 -1
    outer loop
      vertex 1.91601 -4.07172 -50
      vertex 0.425778 -0.904826 -50
      vertex 0.535827 -0.844327 -50
    endloop
  endfacet
  facet normal 0 0 -1
    outer loop
      vertex 1.39058 -4.27975 -50
      vertex 0.309016 -0.951056 -50
      vertex 0.425778 -0.904826 -50
    endloop
  endfacet
  facet normal 0 0 -1
    outer loop
      vertex 0.187381 -0.982286 -50
      vertex 0.843215 -4.42029 -50
      vertex 0.282557 -4.49112 -50
    endloop
  endfacet
  facet normal 0 0 -1
    outer loop
      vertex 0.843215 -4.42029 -50
      vertex 0.187381 -0.982286 -50
      vertex 0.309016 -0.951056 -50
    endloop
  endfacet
  facet normal 0 0 -1
    outer loop
      vertex 0.282557 -4.49112 -50
      vertex 0.0627899 -0.998026 -50
      vertex 0.187381 -0.982286 -50
    endloop
  endfacet
  facet normal 0 0 -1
    outer loop
      vertex 0.282557 -4.49112 -50
      vertex -0.0627899 -0.998026 -50
      vertex 0.0627899 -0.998026 -50
    endloop
  endfacet
  facet normal 0 0 -1
    outer loop
      vertex -0.282557 -4.49112 -50
      vertex -0.0627899 -0.998026 -50
      vertex 0.282557 -4.49112 -50
    endloop
  endfacet
  facet normal -0 0 -1
    outer loop
      vertex -0.0627899 -0.998026 -50
      vertex -0.282557 -4.49112 -50
      vertex -0.187381 -0.982286 -50
    endloop
  endfacet
  facet normal 0 0 -1
    outer loop
      vertex -0.843215 -4.42029 -50
      vertex -0.187381 -0.982286 -50
      vertex -0.282557 -4.49112 -50
    endloop
  endfacet
  facet normal -0 0 -1
    outer loop
      vertex -0.187381 -0.982286 -50
      vertex -0.843215 -4.42029 -50
      vertex -0.309016 -0.951056 -50
    endloop
  endfacet
  facet normal 0 0 -1
    outer loop
      vertex -1.39058 -4.27975 -50
      vertex -0.309016 -0.951056 -50
      vertex -0.843215 -4.42029 -50
    endloop
  endfacet
  facet normal -0 0 -1
    outer loop
      vertex -0.309016 -0.951056 -50
      vertex -1.39058 -4.27975 -50
      vertex -0.425778 -0.904826 -50
    endloop
  endfacet
  facet normal 0 0 -1
    outer loop
      vertex -1.91601 -4.07172 -50
      vertex -0.425778 -0.904826 -50
      vertex -1.39058 -4.27975 -50
    endloop
  endfacet
  facet normal -0 0 -1
    outer loop
      vertex -0.425778 -0.904826 -50
      vertex -1.91601 -4.07172 -50
      vertex -0.535827 -0.844327 -50
    endloop
  endfacet
  facet normal 0 0 -1
    outer loop
      vertex -2.41122 -3.79947 -50
      vertex -0.535827 -0.844327 -50
      vertex -1.91601 -4.07172 -50
    endloop
  endfacet
  facet normal -0 0 -1
    outer loop
      vertex -0.535827 -0.844327 -50
      vertex -2.41122 -3.79947 -50
      vertex -0.637424 -0.770513 -50
    endloop
  endfacet
  facet normal 0 0 -1
    outer loop
      vertex -2.86841 -3.46731 -50
      vertex -0.637424 -0.770513 -50
      vertex -2.41122 -3.79947 -50
    endloop
  endfacet
  facet normal -0 0 -1
    outer loop
      vertex -0.637424 -0.770513 -50
      vertex -2.86841 -3.46731 -50
      vertex -0.728969 -0.684546 -50
    endloop
  endfacet
  facet normal 0 0 -1
    outer loop
      vertex -3.28036 -3.08046 -50
      vertex -0.728969 -0.684546 -50
      vertex -2.86841 -3.46731 -50
    endloop
  endfacet
  facet normal -0 0 -1
    outer loop
      vertex -0.728969 -0.684546 -50
      vertex -3.28036 -3.08046 -50
      vertex -0.809016 -0.587785 -50
    endloop
  endfacet
  facet normal 0 0 -1
    outer loop
      vertex -3.64058 -2.64503 -50
      vertex -0.809016 -0.587785 -50
      vertex -3.28036 -3.08046 -50
    endloop
  endfacet
  facet normal -0 0 -1
    outer loop
      vertex 3.64058 2.64503 -50
      vertex 0.809016 0.587785 -50
      vertex 3.28036 3.08046 -50
    endloop
  endfacet
  facet normal 0 0 -1
    outer loop
      vertex 0.728969 0.684546 -50
      vertex 3.28036 3.08046 -50
      vertex 0.809016 0.587785 -50
    endloop
  endfacet
  facet normal -0 0 -1
    outer loop
      vertex 3.28036 3.08046 -50
      vertex 0.728969 0.684546 -50
      vertex 2.86841 3.46731 -50
    endloop
  endfacet
  facet normal 0 0 -1
    outer loop
      vertex 0.637424 0.770513 -50
      vertex 2.86841 3.46731 -50
      vertex 0.728969 0.684546 -50
    endloop
  endfacet
  facet normal -0 0 -1
    outer loop
      vertex 2.86841 3.46731 -50
      vertex 0.637424 0.770513 -50
      vertex 2.41122 3.79947 -50
    endloop
  endfacet
  facet normal 0 0 -1
    outer loop
      vertex 0.535827 0.844327 -50
      vertex 2.41122 3.79947 -50
      vertex 0.637424 0.770513 -50
    endloop
  endfacet
  facet normal -0 0 -1
    outer loop
      vertex 2.41122 3.79947 -50
      vertex 0.535827 0.844327 -50
      vertex 1.91601 4.07172 -50
    endloop
  endfacet
  facet normal 0 0 -1
    outer loop
      vertex 0.425778 0.904826 -50
      vertex 1.91601 4.07172 -50
      vertex 0.535827 0.844327 -50
    endloop
  endfacet
  facet normal -0 0 -1
    outer loop
      vertex 1.91601 4.07172 -50
      vertex 0.425778 0.904826 -50
      vertex 1.39058 4.27975 -50
    endloop
  endfacet
  facet normal 0 0 -1
    outer loop
      vertex 0.309016 0.951056 -50
      vertex 1.39058 4.27975 -50
      vertex 0.425778 0.904826 -50
    endloop
  endfacet
  facet normal -0 0 -1
    outer loop
      vertex 1.39058 4.27975 -50
      vertex 0.309016 0.951056 -50
      vertex 0.843215 4.42029 -50
    endloop
  endfacet
  facet normal 0 0 -1
    outer loop
      vertex 0.187381 0.982286 -50
      vertex 0.843215 4.42029 -50
      vertex 0.309016 0.951056 -50
    endloop
  endfacet
  facet normal -0 0 -1
    outer loop
      vertex 0.843215 4.42029 -50
      vertex 0.187381 0.982286 -50
      vertex 0.282557 4.49112 -50
    endloop
  endfacet
  facet normal 0 0 -1
    outer loop
      vertex 0.0627899 0.998026 -50
      vertex 0.282557 4.49112 -50
      vertex 0.187381 0.982286 -50
    endloop
  endfacet
  facet normal 0 0 -1
    outer loop
      vertex -0.0627899 0.998026 -50
      vertex 0.282557 4.49112 -50
      vertex 0.0627899 0.998026 -50
    endloop
  endfacet
  facet normal 0 0 -1
    outer loop
      vertex -0.282557 4.49112 -50
      vertex -0.0627899 0.998026 -50
      vertex -0.187381 0.982286 -50
    endloop
  endfacet
  facet normal 0 0 -1
    outer loop
      vertex -0.0627899 0.998026 -50
      vertex -0.282557 4.49112 -50
      vertex 0.282557 4.49112 -50
    endloop
  endfacet
  facet normal 0 0 -1
    outer loop
      vertex -0.843215 4.42029 -50
      vertex -0.187381 0.982286 -50
      vertex -0.309016 0.951056 -50
    endloop
  endfacet
  facet normal 0 0 -1
    outer loop
      vertex -1.39058 4.27975 -50
      vertex -0.309016 0.951056 -50
      vertex -0.425778 0.904826 -50
    endloop
  endfacet
  facet normal 0 0 -1
    outer loop
      vertex -1.91601 4.07172 -50
      vertex -0.425778 0.904826 -50
      vertex -0.535827 0.844327 -50
    endloop
  endfacet
  facet normal 0 0 -1
    outer loop
      vertex -2.41122 3.79947 -50
      vertex -0.535827 0.844327 -50
      vertex -0.637424 0.770513 -50
    endloop
  endfacet
  facet normal 0 0 -1
    outer loop
      vertex -2.86841 3.46731 -50
      vertex -0.637424 0.770513 -50
      vertex -0.728969 0.684546 -50
    endloop
  endfacet
  facet normal 0 0 -1
    outer loop
      vertex -3.28036 3.08046 -50
      vertex -0.728969 0.684546 -50
      vertex -0.809016 0.587785 -50
    endloop
  endfacet
  facet normal 0 0 -1
    outer loop
      vertex -0.187381 0.982286 -50
      vertex -0.843215 4.42029 -50
      vertex -0.282557 4.49112 -50
    endloop
  endfacet
  facet normal 0 0 -1
    outer loop
      vertex -3.64058 2.64503 -50
      vertex -0.809016 0.587785 -50
      vertex -0.876307 0.481753 -50
    endloop
  endfacet
  facet normal 0 0 -1
    outer loop
      vertex -3.94338 2.16789 -50
      vertex -0.876307 0.481753 -50
      vertex -0.929776 0.368124 -50
    endloop
  endfacet
  facet normal 0 0 -1
    outer loop
      vertex -4.18399 1.65656 -50
      vertex -0.929776 0.368124 -50
      vertex -0.968583 0.24869 -50
    endloop
  endfacet
  facet normal 0 0 -1
    outer loop
      vertex -4.35862 1.1191 -50
      vertex -0.968583 0.24869 -50
      vertex -0.992114 0.125333 -50
    endloop
  endfacet
  facet normal 0 0 -1
    outer loop
      vertex -4.46452 0.563999 -50
      vertex -0.992114 0.125333 -50
      vertex -1 0 -50
    endloop
  endfacet
  facet normal -0 0 -1
    outer loop
      vertex -0.809016 -0.587785 -50
      vertex -3.64058 -2.64503 -50
      vertex -0.876307 -0.481753 -50
    endloop
  endfacet
  facet normal 0 0 -1
    outer loop
      vertex -0.309016 0.951056 -50
      vertex -1.39058 4.27975 -50
      vertex -0.843215 4.42029 -50
    endloop
  endfacet
  facet normal 0 0 -1
    outer loop
      vertex -3.94338 -2.16789 -50
      vertex -0.876307 -0.481753 -50
      vertex -3.64058 -2.64503 -50
    endloop
  endfacet
  facet normal 0 0 -1
    outer loop
      vertex -0.425778 0.904826 -50
      vertex -1.91601 4.07172 -50
      vertex -1.39058 4.27975 -50
    endloop
  endfacet
  facet normal -0 0 -1
    outer loop
      vertex -0.876307 -0.481753 -50
      vertex -3.94338 -2.16789 -50
      vertex -0.929776 -0.368124 -50
    endloop
  endfacet
  facet normal 0 0 -1
    outer loop
      vertex -0.535827 0.844327 -50
      vertex -2.41122 3.79947 -50
      vertex -1.91601 4.07172 -50
    endloop
  endfacet
  facet normal 0 0 -1
    outer loop
      vertex -4.18399 -1.65656 -50
      vertex -0.929776 -0.368124 -50
      vertex -3.94338 -2.16789 -50
    endloop
  endfacet
  facet normal 0 0 -1
    outer loop
      vertex -0.637424 0.770513 -50
      vertex -2.86841 3.46731 -50
      vertex -2.41122 3.79947 -50
    endloop
  endfacet
  facet normal -0 0 -1
    outer loop
      vertex -0.929776 -0.368124 -50
      vertex -4.18399 -1.65656 -50
      vertex -0.968583 -0.24869 -50
    endloop
  endfacet
  facet normal 0 0 -1
    outer loop
      vertex -0.728969 0.684546 -50
      vertex -3.28036 3.08046 -50
      vertex -2.86841 3.46731 -50
    endloop
  endfacet
  facet normal 0 0 -1
    outer loop
      vertex -4.35862 -1.1191 -50
      vertex -0.968583 -0.24869 -50
      vertex -4.18399 -1.65656 -50
    endloop
  endfacet
  facet normal 0 0 -1
    outer loop
      vertex -0.809016 0.587785 -50
      vertex -3.64058 2.64503 -50
      vertex -3.28036 3.08046 -50
    endloop
  endfacet
  facet normal -0 0 -1
    outer loop
      vertex -0.968583 -0.24869 -50
      vertex -4.35862 -1.1191 -50
      vertex -0.992114 -0.125333 -50
    endloop
  endfacet
  facet normal 0 0 -1
    outer loop
      vertex -0.876307 0.481753 -50
      vertex -3.94338 2.16789 -50
      vertex -3.64058 2.64503 -50
    endloop
  endfacet
  facet normal 0 0 -1
    outer loop
      vertex -4.46452 -0.563999 -50
      vertex -0.992114 -0.125333 -50
      vertex -4.35862 -1.1191 -50
    endloop
  endfacet
  facet normal 0 0 -1
    outer loop
      vertex -0.929776 0.368124 -50
      vertex -4.18399 1.65656 -50
      vertex -3.94338 2.16789 -50
    endloop
  endfacet
  facet normal -0 0 -1
    outer loop
      vertex -0.992114 -0.125333 -50
      vertex -4.46452 -0.563999 -50
      vertex -1 0 -50
    endloop
  endfacet
  facet normal 0 0 -1
    outer loop
      vertex -0.968583 0.24869 -50
      vertex -4.35862 1.1191 -50
      vertex -4.18399 1.65656 -50
    endloop
  endfacet
  facet normal 0 0 -1
    outer loop
      vertex -4.5 0 -50
      vertex -1 0 -50
      vertex -4.46452 -0.563999 -50
    endloop
  endfacet
  facet normal 0 0 -1
    outer loop
      vertex -0.992114 0.125333 -50
      vertex -4.46452 0.563999 -50
      vertex -4.35862 1.1191 -50
    endloop
  endfacet
  facet normal 0 0 -1
    outer loop
      vertex -1 0 -50
      vertex -4.5 0 -50
      vertex -4.46452 0.563999 -50
    endloop
  endfacet
  facet normal 0.125337 -0.992114 0
    outer loop
      vertex 0.282557 -4.49112 -50
      vertex 0.843215 -4.42029 50
      vertex 0.282557 -4.49112 50
    endloop
  endfacet
  facet normal 0.125337 -0.992114 0
    outer loop
      vertex 0.843215 -4.42029 50
      vertex 0.282557 -4.49112 -50
      vertex 0.843215 -4.42029 -50
    endloop
  endfacet
  facet normal 0.587776 -0.809024 0
    outer loop
      vertex 2.41122 -3.79947 -50
      vertex 2.86841 -3.46731 50
      vertex 2.41122 -3.79947 50
    endloop
  endfacet
  facet normal 0.587776 -0.809024 0
    outer loop
      vertex 2.86841 -3.46731 50
      vertex 2.41122 -3.79947 -50
      vertex 2.86841 -3.46731 -50
    endloop
  endfacet
  facet normal 0.90483 -0.425774 0
    outer loop
      vertex 3.94338 -2.16789 50
      vertex 4.18399 -1.65656 -50
      vertex 4.18399 -1.65656 50
    endloop
  endfacet
  facet normal 0.90483 -0.425774 0
    outer loop
      vertex 4.18399 -1.65656 -50
      vertex 3.94338 -2.16789 50
      vertex 3.94338 -2.16789 -50
    endloop
  endfacet
  facet normal -0.248691 -0.968583 0
    outer loop
      vertex -1.39058 -4.27975 -50
      vertex -0.843215 -4.42029 50
      vertex -1.39058 -4.27975 50
    endloop
  endfacet
  facet normal -0.248691 -0.968583 -0
    outer loop
      vertex -0.843215 -4.42029 50
      vertex -1.39058 -4.27975 -50
      vertex -0.843215 -4.42029 -50
    endloop
  endfacet
  facet normal -0.770512 -0.637425 0
    outer loop
      vertex -3.28036 -3.08046 -50
      vertex -3.64058 -2.64503 50
      vertex -3.64058 -2.64503 -50
    endloop
  endfacet
  facet normal -0.770512 -0.637425 0
    outer loop
      vertex -3.64058 -2.64503 50
      vertex -3.28036 -3.08046 -50
      vertex -3.28036 -3.08046 50
    endloop
  endfacet
  facet normal -0.951057 -0.309015 0
    outer loop
      vertex -4.18399 -1.65656 -50
      vertex -4.35862 -1.1191 50
      vertex -4.35862 -1.1191 -50
    endloop
  endfacet
  facet normal -0.951057 -0.309015 0
    outer loop
      vertex -4.35862 -1.1191 50
      vertex -4.18399 -1.65656 -50
      vertex -4.18399 -1.65656 50
    endloop
  endfacet
  facet normal 0.770512 -0.637425 0
    outer loop
      vertex 3.28036 -3.08046 50
      vertex 3.64058 -2.64503 -50
      vertex 3.64058 -2.64503 50
    endloop
  endfacet
  facet normal 0.770512 -0.637425 0
    outer loop
      vertex 3.64058 -2.64503 -50
      vertex 3.28036 -3.08046 50
      vertex 3.28036 -3.08046 -50
    endloop
  endfacet
  facet normal 0.481762 -0.876302 0
    outer loop
      vertex 1.91601 -4.07172 -50
      vertex 2.41122 -3.79947 50
      vertex 1.91601 -4.07172 50
    endloop
  endfacet
  facet normal 0.481762 -0.876302 0
    outer loop
      vertex 2.41122 -3.79947 50
      vertex 1.91601 -4.07172 -50
      vertex 2.41122 -3.79947 -50
    endloop
  endfacet
  facet normal -0.125337 -0.992114 0
    outer loop
      vertex -0.843215 -4.42029 -50
      vertex -0.282557 -4.49112 50
      vertex -0.843215 -4.42029 50
    endloop
  endfacet
  facet normal -0.125337 -0.992114 -0
    outer loop
      vertex -0.282557 -4.49112 50
      vertex -0.843215 -4.42029 -50
      vertex -0.282557 -4.49112 -50
    endloop
  endfacet
  facet normal -0.368121 -0.929778 0
    outer loop
      vertex -1.91601 -4.07172 -50
      vertex -1.39058 -4.27975 50
      vertex -1.91601 -4.07172 50
    endloop
  endfacet
  facet normal -0.368121 -0.929778 -0
    outer loop
      vertex -1.39058 -4.27975 50
      vertex -1.91601 -4.07172 -50
      vertex -1.39058 -4.27975 -50
    endloop
  endfacet
  facet normal -0.982284 -0.187396 0
    outer loop
      vertex -4.35862 -1.1191 -50
      vertex -4.46452 -0.563999 50
      vertex -4.46452 -0.563999 -50
    endloop
  endfacet
  facet normal -0.982284 -0.187396 0
    outer loop
      vertex -4.46452 -0.563999 50
      vertex -4.35862 -1.1191 -50
      vertex -4.35862 -1.1191 50
    endloop
  endfacet
  facet normal -0.998027 -0.0627838 0
    outer loop
      vertex -4.46452 -0.563999 -50
      vertex -4.5 0 50
      vertex -4.5 0 -50
    endloop
  endfacet
  facet normal -0.998027 -0.0627838 0
    outer loop
      vertex -4.5 0 50
      vertex -4.46452 -0.563999 -50
      vertex -4.46452 -0.563999 50
    endloop
  endfacet
  facet normal 0.68455 -0.728966 0
    outer loop
      vertex 2.86841 -3.46731 -50
      vertex 3.28036 -3.08046 50
      vertex 2.86841 -3.46731 50
    endloop
  endfacet
  facet normal 0.68455 -0.728966 0
    outer loop
      vertex 3.28036 -3.08046 50
      vertex 2.86841 -3.46731 -50
      vertex 3.28036 -3.08046 -50
    endloop
  endfacet
  facet normal 0.248691 -0.968583 0
    outer loop
      vertex 0.843215 -4.42029 -50
      vertex 1.39058 -4.27975 50
      vertex 0.843215 -4.42029 50
    endloop
  endfacet
  facet normal 0.248691 -0.968583 0
    outer loop
      vertex 1.39058 -4.27975 50
      vertex 0.843215 -4.42029 -50
      vertex 1.39058 -4.27975 -50
    endloop
  endfacet
  facet normal -0.481762 -0.876302 0
    outer loop
      vertex -2.41122 -3.79947 -50
      vertex -1.91601 -4.07172 50
      vertex -2.41122 -3.79947 50
    endloop
  endfacet
  facet normal -0.481762 -0.876302 -0
    outer loop
      vertex -1.91601 -4.07172 50
      vertex -2.41122 -3.79947 -50
      vertex -1.91601 -4.07172 -50
    endloop
  endfacet
  facet normal -0.587776 -0.809024 0
    outer loop
      vertex -2.86841 -3.46731 -50
      vertex -2.41122 -3.79947 50
      vertex -2.86841 -3.46731 50
    endloop
  endfacet
  facet normal -0.587776 -0.809024 -0
    outer loop
      vertex -2.41122 -3.79947 50
      vertex -2.86841 -3.46731 -50
      vertex -2.41122 -3.79947 -50
    endloop
  endfacet
  facet normal 0.951055 -0.309021 0
    outer loop
      vertex -0.968583 0.24869 50
      vertex -0.929776 0.368124 -50
      vertex -0.929776 0.368124 50
    endloop
  endfacet
  facet normal 0.951055 -0.309021 0
    outer loop
      vertex -0.929776 0.368124 -50
      vertex -0.968583 0.24869 50
      vertex -0.968583 0.24869 -50
    endloop
  endfacet
  facet normal -0.844324 -0.535833 0
    outer loop
      vertex 0.876307 0.481753 -50
      vertex 0.809016 0.587785 50
      vertex 0.809016 0.587785 -50
    endloop
  endfacet
  facet normal -0.844324 -0.535833 0
    outer loop
      vertex 0.809016 0.587785 50
      vertex 0.876307 0.481753 -50
      vertex 0.876307 0.481753 50
    endloop
  endfacet
  facet normal -0.368129 -0.929775 0
    outer loop
      vertex 0.309016 0.951056 -50
      vertex 0.425778 0.904826 50
      vertex 0.309016 0.951056 50
    endloop
  endfacet
  facet normal -0.368129 -0.929775 -0
    outer loop
      vertex 0.425778 0.904826 50
      vertex 0.309016 0.951056 -50
      vertex 0.425778 0.904826 -50
    endloop
  endfacet
  facet normal 0.368129 -0.929775 0
    outer loop
      vertex -0.425778 0.904826 -50
      vertex -0.309016 0.951056 50
      vertex -0.425778 0.904826 50
    endloop
  endfacet
  facet normal 0.368129 -0.929775 0
    outer loop
      vertex -0.309016 0.951056 50
      vertex -0.425778 0.904826 -50
      vertex -0.309016 0.951056 -50
    endloop
  endfacet
  facet normal 0.904829 -0.425774 0
    outer loop
      vertex -0.929776 0.368124 50
      vertex -0.876307 0.481753 -50
      vertex -0.876307 0.481753 50
    endloop
  endfacet
  facet normal 0.904829 -0.425774 0
    outer loop
      vertex -0.876307 0.481753 -50
      vertex -0.929776 0.368124 50
      vertex -0.929776 0.368124 -50
    endloop
  endfacet
  facet normal -0.982288 0.187377 0
    outer loop
      vertex 0.968583 -0.24869 -50
      vertex 0.992114 -0.125333 50
      vertex 0.992114 -0.125333 -50
    endloop
  endfacet
  facet normal -0.982288 0.187377 0
    outer loop
      vertex 0.992114 -0.125333 50
      vertex 0.968583 -0.24869 -50
      vertex 0.968583 -0.24869 50
    endloop
  endfacet
  facet normal -0.684549 -0.728967 0
    outer loop
      vertex 0.637424 0.770513 -50
      vertex 0.728969 0.684546 50
      vertex 0.637424 0.770513 50
    endloop
  endfacet
  facet normal -0.684549 -0.728967 -0
    outer loop
      vertex 0.728969 0.684546 50
      vertex 0.637424 0.770513 -50
      vertex 0.728969 0.684546 -50
    endloop
  endfacet
  facet normal 0 -1 0
    outer loop
      vertex -0.0627899 0.998026 -50
      vertex 0.0627899 0.998026 50
      vertex -0.0627899 0.998026 50
    endloop
  endfacet
  facet normal 0 -1 -0
    outer loop
      vertex 0.0627899 0.998026 50
      vertex -0.0627899 0.998026 -50
      vertex 0.0627899 0.998026 -50
    endloop
  endfacet
  facet normal -0.587782 -0.809019 0
    outer loop
      vertex 0.535827 0.844327 -50
      vertex 0.637424 0.770513 50
      vertex 0.535827 0.844327 50
    endloop
  endfacet
  facet normal -0.587782 -0.809019 -0
    outer loop
      vertex 0.637424 0.770513 50
      vertex 0.535827 0.844327 -50
      vertex 0.637424 0.770513 -50
    endloop
  endfacet
  facet normal 0.770516 -0.637421 0
    outer loop
      vertex -0.809016 0.587785 50
      vertex -0.728969 0.684546 -50
      vertex -0.728969 0.684546 50
    endloop
  endfacet
  facet normal 0.770516 -0.637421 0
    outer loop
      vertex -0.728969 0.684546 -50
      vertex -0.809016 0.587785 50
      vertex -0.809016 0.587785 -50
    endloop
  endfacet
  facet normal 0.481748 -0.87631 0
    outer loop
      vertex -0.535827 0.844327 -50
      vertex -0.425778 0.904826 50
      vertex -0.535827 0.844327 50
    endloop
  endfacet
  facet normal 0.481748 -0.87631 0
    outer loop
      vertex -0.425778 0.904826 50
      vertex -0.535827 0.844327 -50
      vertex -0.425778 0.904826 -50
    endloop
  endfacet
  facet normal 0.248686 -0.968584 0
    outer loop
      vertex -0.309016 0.951056 -50
      vertex -0.187381 0.982286 50
      vertex -0.309016 0.951056 50
    endloop
  endfacet
  facet normal 0.248686 -0.968584 0
    outer loop
      vertex -0.187381 0.982286 50
      vertex -0.309016 0.951056 -50
      vertex -0.187381 0.982286 -50
    endloop
  endfacet
  facet normal -0.998026 -0.0627962 0
    outer loop
      vertex 1 0 -50
      vertex 0.992114 0.125333 50
      vertex 0.992114 0.125333 -50
    endloop
  endfacet
  facet normal -0.998026 -0.0627962 0
    outer loop
      vertex 0.992114 0.125333 50
      vertex 1 0 -50
      vertex 1 0 50
    endloop
  endfacet
  facet normal 0.684549 0.728967 -0
    outer loop
      vertex -0.637424 -0.770513 -50
      vertex -0.728969 -0.684546 50
      vertex -0.637424 -0.770513 50
    endloop
  endfacet
  facet normal 0.684549 0.728967 0
    outer loop
      vertex -0.728969 -0.684546 50
      vertex -0.637424 -0.770513 -50
      vertex -0.728969 -0.684546 -50
    endloop
  endfacet
  facet normal 0.904829 0.425774 0
    outer loop
      vertex -0.876307 -0.481753 50
      vertex -0.929776 -0.368124 -50
      vertex -0.929776 -0.368124 50
    endloop
  endfacet
  facet normal 0.904829 0.425774 0
    outer loop
      vertex -0.929776 -0.368124 -50
      vertex -0.876307 -0.481753 50
      vertex -0.876307 -0.481753 -50
    endloop
  endfacet
  facet normal -0.481748 0.87631 0
    outer loop
      vertex 0.535827 -0.844327 -50
      vertex 0.425778 -0.904826 50
      vertex 0.535827 -0.844327 50
    endloop
  endfacet
  facet normal -0.481748 0.87631 0
    outer loop
      vertex 0.425778 -0.904826 50
      vertex 0.535827 -0.844327 -50
      vertex 0.425778 -0.904826 -50
    endloop
  endfacet
  facet normal -0.770516 -0.637421 0
    outer loop
      vertex 0.809016 0.587785 -50
      vertex 0.728969 0.684546 50
      vertex 0.728969 0.684546 -50
    endloop
  endfacet
  facet normal -0.770516 -0.637421 0
    outer loop
      vertex 0.728969 0.684546 50
      vertex 0.809016 0.587785 -50
      vertex 0.809016 0.587785 50
    endloop
  endfacet
  facet normal -0.248686 -0.968584 0
    outer loop
      vertex 0.187381 0.982286 -50
      vertex 0.309016 0.951056 50
      vertex 0.187381 0.982286 50
    endloop
  endfacet
  facet normal -0.248686 -0.968584 -0
    outer loop
      vertex 0.309016 0.951056 50
      vertex 0.187381 0.982286 -50
      vertex 0.309016 0.951056 -50
    endloop
  endfacet
  facet normal -0.125337 -0.992114 0
    outer loop
      vertex 0.0627899 0.998026 -50
      vertex 0.187381 0.982286 50
      vertex 0.0627899 0.998026 50
    endloop
  endfacet
  facet normal -0.125337 -0.992114 -0
    outer loop
      vertex 0.187381 0.982286 50
      vertex 0.0627899 0.998026 -50
      vertex 0.187381 0.982286 -50
    endloop
  endfacet
  facet normal -0.481748 -0.87631 0
    outer loop
      vertex 0.425778 0.904826 -50
      vertex 0.535827 0.844327 50
      vertex 0.425778 0.904826 50
    endloop
  endfacet
  facet normal -0.481748 -0.87631 -0
    outer loop
      vertex 0.535827 0.844327 50
      vertex 0.425778 0.904826 -50
      vertex 0.535827 0.844327 -50
    endloop
  endfacet
  facet normal 0.998026 -0.0627962 0
    outer loop
      vertex -1 0 50
      vertex -0.992114 0.125333 -50
      vertex -0.992114 0.125333 50
    endloop
  endfacet
  facet normal 0.998026 -0.0627962 0
    outer loop
      vertex -0.992114 0.125333 -50
      vertex -1 0 50
      vertex -1 0 -50
    endloop
  endfacet
  facet normal 0.844324 -0.535833 0
    outer loop
      vertex -0.876307 0.481753 50
      vertex -0.809016 0.587785 -50
      vertex -0.809016 0.587785 50
    endloop
  endfacet
  facet normal 0.844324 -0.535833 0
    outer loop
      vertex -0.809016 0.587785 -50
      vertex -0.876307 0.481753 50
      vertex -0.876307 0.481753 -50
    endloop
  endfacet
  facet normal 0.125337 -0.992114 0
    outer loop
      vertex -0.187381 0.982286 -50
      vertex -0.0627899 0.998026 50
      vertex -0.187381 0.982286 50
    endloop
  endfacet
  facet normal 0.125337 -0.992114 0
    outer loop
      vertex -0.0627899 0.998026 50
      vertex -0.187381 0.982286 -50
      vertex -0.0627899 0.998026 -50
    endloop
  endfacet
  facet normal 0.587782 -0.809019 0
    outer loop
      vertex -0.637424 0.770513 -50
      vertex -0.535827 0.844327 50
      vertex -0.637424 0.770513 50
    endloop
  endfacet
  facet normal 0.587782 -0.809019 0
    outer loop
      vertex -0.535827 0.844327 50
      vertex -0.637424 0.770513 -50
      vertex -0.535827 0.844327 -50
    endloop
  endfacet
  facet normal 0.684549 -0.728967 0
    outer loop
      vertex -0.728969 0.684546 -50
      vertex -0.637424 0.770513 50
      vertex -0.728969 0.684546 50
    endloop
  endfacet
  facet normal 0.684549 -0.728967 0
    outer loop
      vertex -0.637424 0.770513 50
      vertex -0.728969 0.684546 -50
      vertex -0.637424 0.770513 -50
    endloop
  endfacet
  facet normal -0.998026 0.0627962 0
    outer loop
      vertex 0.992114 -0.125333 -50
      vertex 1 0 50
      vertex 1 0 -50
    endloop
  endfacet
  facet normal -0.998026 0.0627962 0
    outer loop
      vertex 1 0 50
      vertex 0.992114 -0.125333 -50
      vertex 0.992114 -0.125333 50
    endloop
  endfacet
  facet normal -0.770516 0.637421 0
    outer loop
      vertex 0.728969 -0.684546 -50
      vertex 0.809016 -0.587785 50
      vertex 0.809016 -0.587785 -50
    endloop
  endfacet
  facet normal -0.770516 0.637421 0
    outer loop
      vertex 0.809016 -0.587785 50
      vertex 0.728969 -0.684546 -50
      vertex 0.728969 -0.684546 50
    endloop
  endfacet
  facet normal 0.844324 0.535833 0
    outer loop
      vertex -0.809016 -0.587785 50
      vertex -0.876307 -0.481753 -50
      vertex -0.876307 -0.481753 50
    endloop
  endfacet
  facet normal 0.844324 0.535833 0
    outer loop
      vertex -0.876307 -0.481753 -50
      vertex -0.809016 -0.587785 50
      vertex -0.809016 -0.587785 -50
    endloop
  endfacet
  facet normal -0.125337 0.992114 0
    outer loop
      vertex 0.187381 -0.982286 -50
      vertex 0.0627899 -0.998026 50
      vertex 0.187381 -0.982286 50
    endloop
  endfacet
  facet normal -0.125337 0.992114 0
    outer loop
      vertex 0.0627899 -0.998026 50
      vertex 0.187381 -0.982286 -50
      vertex 0.0627899 -0.998026 -50
    endloop
  endfacet
  facet normal -0.587782 0.809019 0
    outer loop
      vertex 0.637424 -0.770513 -50
      vertex 0.535827 -0.844327 50
      vertex 0.637424 -0.770513 50
    endloop
  endfacet
  facet normal -0.587782 0.809019 0
    outer loop
      vertex 0.535827 -0.844327 50
      vertex 0.637424 -0.770513 -50
      vertex 0.535827 -0.844327 -50
    endloop
  endfacet
  facet normal -0.904829 -0.425774 0
    outer loop
      vertex 0.929776 0.368124 -50
      vertex 0.876307 0.481753 50
      vertex 0.876307 0.481753 -50
    endloop
  endfacet
  facet normal -0.904829 -0.425774 0
    outer loop
      vertex 0.876307 0.481753 50
      vertex 0.929776 0.368124 -50
      vertex 0.929776 0.368124 50
    endloop
  endfacet
  facet normal -0.951055 -0.309021 0
    outer loop
      vertex 0.968583 0.24869 -50
      vertex 0.929776 0.368124 50
      vertex 0.929776 0.368124 -50
    endloop
  endfacet
  facet normal -0.951055 -0.309021 0
    outer loop
      vertex 0.929776 0.368124 50
      vertex 0.968583 0.24869 -50
      vertex 0.968583 0.24869 50
    endloop
  endfacet
  facet normal -0.982288 -0.187377 0
    outer loop
      vertex 0.992114 0.125333 -50
      vertex 0.968583 0.24869 50
      vertex 0.968583 0.24869 -50
    endloop
  endfacet
  facet normal -0.982288 -0.187377 0
    outer loop
      vertex 0.968583 0.24869 50
      vertex 0.992114 0.125333 -50
      vertex 0.992114 0.125333 50
    endloop
  endfacet
  facet normal 0.982288 -0.187377 0
    outer loop
      vertex -0.992114 0.125333 50
      vertex -0.968583 0.24869 -50
      vertex -0.968583 0.24869 50
    endloop
  endfacet
  facet normal 0.982288 -0.187377 0
    outer loop
      vertex -0.968583 0.24869 -50
      vertex -0.992114 0.125333 50
      vertex -0.992114 0.125333 -50
    endloop
  endfacet
  facet normal -0.904829 0.425774 0
    outer loop
      vertex 0.876307 -0.481753 -50
      vertex 0.929776 -0.368124 50
      vertex 0.929776 -0.368124 -50
    endloop
  endfacet
  facet normal -0.904829 0.425774 0
    outer loop
      vertex 0.929776 -0.368124 50
      vertex 0.876307 -0.481753 -50
      vertex 0.876307 -0.481753 50
    endloop
  endfacet
  facet normal -0.951055 0.309021 0
    outer loop
      vertex 0.929776 -0.368124 -50
      vertex 0.968583 -0.24869 50
      vertex 0.968583 -0.24869 -50
    endloop
  endfacet
  facet normal -0.951055 0.309021 0
    outer loop
      vertex 0.968583 -0.24869 50
      vertex 0.929776 -0.368124 -50
      vertex 0.929776 -0.368124 50
    endloop
  endfacet
  facet normal -0.844324 0.535833 0
    outer loop
      vertex 0.809016 -0.587785 -50
      vertex 0.876307 -0.481753 50
      vertex 0.876307 -0.481753 -50
    endloop
  endfacet
  facet normal -0.844324 0.535833 0
    outer loop
      vertex 0.876307 -0.481753 50
      vertex 0.809016 -0.587785 -50
      vertex 0.809016 -0.587785 50
    endloop
  endfacet
  facet normal 0.368129 0.929775 -0
    outer loop
      vertex -0.309016 -0.951056 -50
      vertex -0.425778 -0.904826 50
      vertex -0.309016 -0.951056 50
    endloop
  endfacet
  facet normal 0.368129 0.929775 0
    outer loop
      vertex -0.425778 -0.904826 50
      vertex -0.309016 -0.951056 -50
      vertex -0.425778 -0.904826 -50
    endloop
  endfacet
  facet normal 0 1 -0
    outer loop
      vertex 0.0627899 -0.998026 -50
      vertex -0.0627899 -0.998026 50
      vertex 0.0627899 -0.998026 50
    endloop
  endfacet
  facet normal 0 1 0
    outer loop
      vertex -0.0627899 -0.998026 50
      vertex 0.0627899 -0.998026 -50
      vertex -0.0627899 -0.998026 -50
    endloop
  endfacet
  facet normal 0.998026 0.0627962 0
    outer loop
      vertex -0.992114 -0.125333 50
      vertex -1 0 -50
      vertex -1 0 50
    endloop
  endfacet
  facet normal 0.998026 0.0627962 0
    outer loop
      vertex -1 0 -50
      vertex -0.992114 -0.125333 50
      vertex -0.992114 -0.125333 -50
    endloop
  endfacet
  facet normal 0.951055 0.309021 0
    outer loop
      vertex -0.929776 -0.368124 50
      vertex -0.968583 -0.24869 -50
      vertex -0.968583 -0.24869 50
    endloop
  endfacet
  facet normal 0.951055 0.309021 0
    outer loop
      vertex -0.968583 -0.24869 -50
      vertex -0.929776 -0.368124 50
      vertex -0.929776 -0.368124 -50
    endloop
  endfacet
  facet normal 0.770516 0.637421 0
    outer loop
      vertex -0.728969 -0.684546 50
      vertex -0.809016 -0.587785 -50
      vertex -0.809016 -0.587785 50
    endloop
  endfacet
  facet normal 0.770516 0.637421 0
    outer loop
      vertex -0.809016 -0.587785 -50
      vertex -0.728969 -0.684546 50
      vertex -0.728969 -0.684546 -50
    endloop
  endfacet
  facet normal -0.368129 0.929775 0
    outer loop
      vertex 0.425778 -0.904826 -50
      vertex 0.309016 -0.951056 50
      vertex 0.425778 -0.904826 50
    endloop
  endfacet
  facet normal -0.368129 0.929775 0
    outer loop
      vertex 0.309016 -0.951056 50
      vertex 0.425778 -0.904826 -50
      vertex 0.309016 -0.951056 -50
    endloop
  endfacet
  facet normal -0.248686 0.968584 0
    outer loop
      vertex 0.309016 -0.951056 -50
      vertex 0.187381 -0.982286 50
      vertex 0.309016 -0.951056 50
    endloop
  endfacet
  facet normal -0.248686 0.968584 0
    outer loop
      vertex 0.187381 -0.982286 50
      vertex 0.309016 -0.951056 -50
      vertex 0.187381 -0.982286 -50
    endloop
  endfacet
  facet normal 0.248686 0.968584 -0
    outer loop
      vertex -0.187381 -0.982286 -50
      vertex -0.309016 -0.951056 50
      vertex -0.187381 -0.982286 50
    endloop
  endfacet
  facet normal 0.248686 0.968584 0
    outer loop
      vertex -0.309016 -0.951056 50
      vertex -0.187381 -0.982286 -50
      vertex -0.309016 -0.951056 -50
    endloop
  endfacet
  facet normal 0.481748 0.87631 -0
    outer loop
      vertex -0.425778 -0.904826 -50
      vertex -0.535827 -0.844327 50
      vertex -0.425778 -0.904826 50
    endloop
  endfacet
  facet normal 0.481748 0.87631 0
    outer loop
      vertex -0.535827 -0.844327 50
      vertex -0.425778 -0.904826 -50
      vertex -0.535827 -0.844327 -50
    endloop
  endfacet
  facet normal 0.982288 0.187377 0
    outer loop
      vertex -0.968583 -0.24869 50
      vertex -0.992114 -0.125333 -50
      vertex -0.992114 -0.125333 50
    endloop
  endfacet
  facet normal 0.982288 0.187377 0
    outer loop
      vertex -0.992114 -0.125333 -50
      vertex -0.968583 -0.24869 50
      vertex -0.968583 -0.24869 -50
    endloop
  endfacet
  facet normal -0.684549 0.728967 0
    outer loop
      vertex 0.728969 -0.684546 -50
      vertex 0.637424 -0.770513 50
      vertex 0.728969 -0.684546 50
    endloop
  endfacet
  facet normal -0.684549 0.728967 0
    outer loop
      vertex 0.637424 -0.770513 50
      vertex 0.728969 -0.684546 -50
      vertex 0.637424 -0.770513 -50
    endloop
  endfacet
  facet normal 0.125337 0.992114 -0
    outer loop
      vertex -0.0627899 -0.998026 -50
      vertex -0.187381 -0.982286 50
      vertex -0.0627899 -0.998026 50
    endloop
  endfacet
  facet normal 0.125337 0.992114 0
    outer loop
      vertex -0.187381 -0.982286 50
      vertex -0.0627899 -0.998026 -50
      vertex -0.187381 -0.982286 -50
    endloop
  endfacet
  facet normal 0.587782 0.809019 -0
    outer loop
      vertex -0.535827 -0.844327 -50
      vertex -0.637424 -0.770513 50
      vertex -0.535827 -0.844327 50
    endloop
  endfacet
  facet normal 0.587782 0.809019 0
    outer loop
      vertex -0.637424 -0.770513 50
      vertex -0.535827 -0.844327 -50
      vertex -0.637424 -0.770513 -50
    endloop
  endfacet
endsolid OpenSCAD_Model
