solid OpenSCAD_Model
  facet normal 0.998027 0.0627908 0
    outer loop
      vertex 7.5 0 50
      vertex 7.44086 0.939999 -50
      vertex 7.44086 0.939999 50
    endloop
  endfacet
  facet normal 0.998027 0.0627908 0
    outer loop
      vertex 7.44086 0.939999 -50
      vertex 7.5 0 50
      vertex 7.5 0 -50
    endloop
  endfacet
  facet normal -0.998027 0.0627908 0
    outer loop
      vertex -7.5 0 -50
      vertex -7.44086 0.939999 50
      vertex -7.44086 0.939999 -50
    endloop
  endfacet
  facet normal -0.998027 0.0627908 0
    outer loop
      vertex -7.44086 0.939999 50
      vertex -7.5 0 -50
      vertex -7.5 0 50
    endloop
  endfacet
  facet normal 0 1 -0
    outer loop
      vertex 0.470928 7.4852 -50
      vertex -0.470928 7.4852 50
      vertex 0.470928 7.4852 50
    endloop
  endfacet
  facet normal 0 1 0
    outer loop
      vertex -0.470928 7.4852 50
      vertex 0.470928 7.4852 -50
      vertex -0.470928 7.4852 -50
    endloop
  endfacet
  facet normal 0 -1 0
    outer loop
      vertex -0.470928 -7.4852 -50
      vertex 0.470928 -7.4852 50
      vertex -0.470928 -7.4852 50
    endloop
  endfacet
  facet normal 0 -1 -0
    outer loop
      vertex 0.470928 -7.4852 50
      vertex -0.470928 -7.4852 -50
      vertex 0.470928 -7.4852 -50
    endloop
  endfacet
  facet normal 0.684552 0.728964 -0
    outer loop
      vertex 5.46726 5.1341 -50
      vertex 4.78068 5.77885 50
      vertex 5.46726 5.1341 50
    endloop
  endfacet
  facet normal 0.684552 0.728964 0
    outer loop
      vertex 4.78068 5.77885 50
      vertex 5.46726 5.1341 -50
      vertex 4.78068 5.77885 -50
    endloop
  endfacet
  facet normal -0.684552 0.728964 0
    outer loop
      vertex -4.78068 5.77885 -50
      vertex -5.46726 5.1341 50
      vertex -4.78068 5.77885 50
    endloop
  endfacet
  facet normal -0.684552 0.728964 0
    outer loop
      vertex -5.46726 5.1341 50
      vertex -4.78068 5.77885 -50
      vertex -5.46726 5.1341 -50
    endloop
  endfacet
  facet normal -0.368126 0.929776 0
    outer loop
      vertex -2.31763 7.13292 -50
      vertex -3.19334 6.7862 50
      vertex -2.31763 7.13292 50
    endloop
  endfacet
  facet normal -0.368126 0.929776 0
    outer loop
      vertex -3.19334 6.7862 50
      vertex -2.31763 7.13292 -50
      vertex -3.19334 6.7862 -50
    endloop
  endfacet
  facet normal 0.84433 -0.535823 0
    outer loop
      vertex 6.06763 -4.40839 50
      vertex 6.5723 -3.61315 -50
      vertex 6.5723 -3.61315 50
    endloop
  endfacet
  facet normal 0.84433 -0.535823 0
    outer loop
      vertex 6.5723 -3.61315 -50
      vertex 6.06763 -4.40839 50
      vertex 6.06763 -4.40839 -50
    endloop
  endfacet
  facet normal 0.904829 0.425776 0
    outer loop
      vertex 6.97332 2.76093 50
      vertex 6.5723 3.61315 -50
      vertex 6.5723 3.61315 50
    endloop
  endfacet
  facet normal 0.904829 0.425776 0
    outer loop
      vertex 6.5723 3.61315 -50
      vertex 6.97332 2.76093 50
      vertex 6.97332 2.76093 -50
    endloop
  endfacet
  facet normal 0.368126 0.929776 -0
    outer loop
      vertex 3.19334 6.7862 -50
      vertex 2.31763 7.13292 50
      vertex 3.19334 6.7862 50
    endloop
  endfacet
  facet normal 0.368126 0.929776 0
    outer loop
      vertex 2.31763 7.13292 50
      vertex 3.19334 6.7862 -50
      vertex 2.31763 7.13292 -50
    endloop
  endfacet
  facet normal 0.248689 0.968583 -0
    outer loop
      vertex 2.31763 7.13292 -50
      vertex 1.40536 7.36715 50
      vertex 2.31763 7.13292 50
    endloop
  endfacet
  facet normal 0.248689 0.968583 0
    outer loop
      vertex 1.40536 7.36715 50
      vertex 2.31763 7.13292 -50
      vertex 1.40536 7.36715 -50
    endloop
  endfacet
  facet normal 0.481749 0.876309 -0
    outer loop
      vertex 4.0187 6.33246 -50
      vertex 3.19334 6.7862 50
      vertex 4.0187 6.33246 50
    endloop
  endfacet
  facet normal 0.481749 0.876309 0
    outer loop
      vertex 3.19334 6.7862 50
      vertex 4.0187 6.33246 -50
      vertex 3.19334 6.7862 -50
    endloop
  endfacet
  facet normal -0.904829 0.425776 0
    outer loop
      vertex -6.97332 2.76093 -50
      vertex -6.5723 3.61315 50
      vertex -6.5723 3.61315 -50
    endloop
  endfacet
  facet normal -0.904829 0.425776 0
    outer loop
      vertex -6.5723 3.61315 50
      vertex -6.97332 2.76093 -50
      vertex -6.97332 2.76093 50
    endloop
  endfacet
  facet normal 0 0 1
    outer loop
      vertex 3 0 50
      vertex 7.5 0 50
      vertex 7.44086 0.939999 50
    endloop
  endfacet
  facet normal 0 0 1
    outer loop
      vertex 2.97634 0.375999 50
      vertex 7.44086 0.939999 50
      vertex 7.26437 1.86517 50
    endloop
  endfacet
  facet normal 0 0 1
    outer loop
      vertex 7.5 0 50
      vertex 3 0 50
      vertex 7.44086 -0.939999 50
    endloop
  endfacet
  facet normal 0 0 1
    outer loop
      vertex 2.90575 0.746069 50
      vertex 7.26437 1.86517 50
      vertex 6.97332 2.76093 50
    endloop
  endfacet
  facet normal -0 0 1
    outer loop
      vertex 2.97634 -0.375999 50
      vertex 7.44086 -0.939999 50
      vertex 3 0 50
    endloop
  endfacet
  facet normal 0 0 1
    outer loop
      vertex 2.78933 1.10437 50
      vertex 6.97332 2.76093 50
      vertex 6.5723 3.61315 50
    endloop
  endfacet
  facet normal 0 0 1
    outer loop
      vertex 7.44086 -0.939999 50
      vertex 2.97634 -0.375999 50
      vertex 7.26437 -1.86517 50
    endloop
  endfacet
  facet normal 0 0 1
    outer loop
      vertex 2.62892 1.44526 50
      vertex 6.5723 3.61315 50
      vertex 6.06763 4.40839 50
    endloop
  endfacet
  facet normal -0 0 1
    outer loop
      vertex 2.90575 -0.746069 50
      vertex 7.26437 -1.86517 50
      vertex 2.97634 -0.375999 50
    endloop
  endfacet
  facet normal 0 0 1
    outer loop
      vertex 2.42705 1.76336 50
      vertex 6.06763 4.40839 50
      vertex 5.46726 5.1341 50
    endloop
  endfacet
  facet normal 0 0 1
    outer loop
      vertex 7.26437 -1.86517 50
      vertex 2.90575 -0.746069 50
      vertex 6.97332 -2.76093 50
    endloop
  endfacet
  facet normal 0 0 1
    outer loop
      vertex 2.18691 2.05364 50
      vertex 5.46726 5.1341 50
      vertex 4.78068 5.77885 50
    endloop
  endfacet
  facet normal -0 0 1
    outer loop
      vertex 2.78933 -1.10437 50
      vertex 6.97332 -2.76093 50
      vertex 2.90575 -0.746069 50
    endloop
  endfacet
  facet normal 0 0 1
    outer loop
      vertex 1.91227 2.31154 50
      vertex 4.78068 5.77885 50
      vertex 4.0187 6.33246 50
    endloop
  endfacet
  facet normal 0 0 1
    outer loop
      vertex 6.97332 -2.76093 50
      vertex 2.78933 -1.10437 50
      vertex 6.5723 -3.61315 50
    endloop
  endfacet
  facet normal 0 0 1
    outer loop
      vertex 1.60748 2.53298 50
      vertex 4.0187 6.33246 50
      vertex 3.19334 6.7862 50
    endloop
  endfacet
  facet normal -0 0 1
    outer loop
      vertex 2.62892 -1.44526 50
      vertex 6.5723 -3.61315 50
      vertex 2.78933 -1.10437 50
    endloop
  endfacet
  facet normal 0 0 1
    outer loop
      vertex 6.5723 -3.61315 50
      vertex 2.62892 -1.44526 50
      vertex 6.06763 -4.40839 50
    endloop
  endfacet
  facet normal 0 0 1
    outer loop
      vertex 7.44086 0.939999 50
      vertex 2.97634 0.375999 50
      vertex 3 0 50
    endloop
  endfacet
  facet normal 0 0 1
    outer loop
      vertex 7.26437 1.86517 50
      vertex 2.90575 0.746069 50
      vertex 2.97634 0.375999 50
    endloop
  endfacet
  facet normal 0 0 1
    outer loop
      vertex 6.97332 2.76093 50
      vertex 2.78933 1.10437 50
      vertex 2.90575 0.746069 50
    endloop
  endfacet
  facet normal 0 0 1
    outer loop
      vertex 6.5723 3.61315 50
      vertex 2.62892 1.44526 50
      vertex 2.78933 1.10437 50
    endloop
  endfacet
  facet normal 0 0 1
    outer loop
      vertex 6.06763 4.40839 50
      vertex 2.42705 1.76336 50
      vertex 2.62892 1.44526 50
    endloop
  endfacet
  facet normal 0 0 1
    outer loop
      vertex 1.27734 2.71448 50
      vertex 3.19334 6.7862 50
      vertex 2.31763 7.13292 50
    endloop
  endfacet
  facet normal 0 0 1
    outer loop
      vertex 5.46726 5.1341 50
      vertex 2.18691 2.05364 50
      vertex 2.42705 1.76336 50
    endloop
  endfacet
  facet normal 0 0 1
    outer loop
      vertex 4.78068 5.77885 50
      vertex 1.91227 2.31154 50
      vertex 2.18691 2.05364 50
    endloop
  endfacet
  facet normal 0 0 1
    outer loop
      vertex 4.0187 6.33246 50
      vertex 1.60748 2.53298 50
      vertex 1.91227 2.31154 50
    endloop
  endfacet
  facet normal 0 0 1
    outer loop
      vertex 0.927051 2.85317 50
      vertex 2.31763 7.13292 50
      vertex 1.40536 7.36715 50
    endloop
  endfacet
  facet normal 0 0 1
    outer loop
      vertex 3.19334 6.7862 50
      vertex 1.27734 2.71448 50
      vertex 1.60748 2.53298 50
    endloop
  endfacet
  facet normal 0 0 1
    outer loop
      vertex 2.31763 7.13292 50
      vertex 0.927051 2.85317 50
      vertex 1.27734 2.71448 50
    endloop
  endfacet
  facet normal 0 0 1
    outer loop
      vertex 1.40536 7.36715 50
      vertex 0.562143 2.94686 50
      vertex 0.927051 2.85317 50
    endloop
  endfacet
  facet normal 0 0 1
    outer loop
      vertex 0.470928 7.4852 50
      vertex 0.562143 2.94686 50
      vertex 1.40536 7.36715 50
    endloop
  endfacet
  facet normal 0 0 1
    outer loop
      vertex 0.470928 7.4852 50
      vertex 0.188371 2.99408 50
      vertex 0.562143 2.94686 50
    endloop
  endfacet
  facet normal 0 0 1
    outer loop
      vertex 0.470928 7.4852 50
      vertex -0.188371 2.99408 50
      vertex 0.188371 2.99408 50
    endloop
  endfacet
  facet normal -0 0 1
    outer loop
      vertex -0.470928 7.4852 50
      vertex -0.188371 2.99408 50
      vertex 0.470928 7.4852 50
    endloop
  endfacet
  facet normal 0 0 1
    outer loop
      vertex -0.470928 7.4852 50
      vertex -0.562143 2.94686 50
      vertex -0.188371 2.99408 50
    endloop
  endfacet
  facet normal -0 0 1
    outer loop
      vertex -1.40536 7.36715 50
      vertex -0.562143 2.94686 50
      vertex -0.470928 7.4852 50
    endloop
  endfacet
  facet normal 0 0 1
    outer loop
      vertex -0.562143 2.94686 50
      vertex -1.40536 7.36715 50
      vertex -0.927051 2.85317 50
    endloop
  endfacet
  facet normal -0 0 1
    outer loop
      vertex -2.31763 7.13292 50
      vertex -0.927051 2.85317 50
      vertex -1.40536 7.36715 50
    endloop
  endfacet
  facet normal 0 0 1
    outer loop
      vertex -0.927051 2.85317 50
      vertex -2.31763 7.13292 50
      vertex -1.27734 2.71448 50
    endloop
  endfacet
  facet normal -0 0 1
    outer loop
      vertex -3.19334 6.7862 50
      vertex -1.27734 2.71448 50
      vertex -2.31763 7.13292 50
    endloop
  endfacet
  facet normal 0 0 1
    outer loop
      vertex -1.27734 2.71448 50
      vertex -3.19334 6.7862 50
      vertex -1.60748 2.53298 50
    endloop
  endfacet
  facet normal -0 0 1
    outer loop
      vertex -4.0187 6.33246 50
      vertex -1.60748 2.53298 50
      vertex -3.19334 6.7862 50
    endloop
  endfacet
  facet normal 0 0 1
    outer loop
      vertex -1.60748 2.53298 50
      vertex -4.0187 6.33246 50
      vertex -1.91227 2.31154 50
    endloop
  endfacet
  facet normal -0 0 1
    outer loop
      vertex -4.78068 5.77885 50
      vertex -1.91227 2.31154 50
      vertex -4.0187 6.33246 50
    endloop
  endfacet
  facet normal 0 0 1
    outer loop
      vertex -1.91227 2.31154 50
      vertex -4.78068 5.77885 50
      vertex -2.18691 2.05364 50
    endloop
  endfacet
  facet normal -0 0 1
    outer loop
      vertex -5.46726 5.1341 50
      vertex -2.18691 2.05364 50
      vertex -4.78068 5.77885 50
    endloop
  endfacet
  facet normal 0 0 1
    outer loop
      vertex -2.18691 2.05364 50
      vertex -5.46726 5.1341 50
      vertex -2.42705 1.76336 50
    endloop
  endfacet
  facet normal 0 0 1
    outer loop
      vertex -2.42705 1.76336 50
      vertex -6.06763 4.40839 50
      vertex -2.62892 1.44526 50
    endloop
  endfacet
  facet normal -0 0 1
    outer loop
      vertex -6.06763 4.40839 50
      vertex -2.42705 1.76336 50
      vertex -5.46726 5.1341 50
    endloop
  endfacet
  facet normal -0 0 1
    outer loop
      vertex 2.42705 -1.76336 50
      vertex 6.06763 -4.40839 50
      vertex 2.62892 -1.44526 50
    endloop
  endfacet
  facet normal 0 0 1
    outer loop
      vertex 6.06763 -4.40839 50
      vertex 2.42705 -1.76336 50
      vertex 5.46726 -5.1341 50
    endloop
  endfacet
  facet normal -0 0 1
    outer loop
      vertex 2.18691 -2.05364 50
      vertex 5.46726 -5.1341 50
      vertex 2.42705 -1.76336 50
    endloop
  endfacet
  facet normal 0 0 1
    outer loop
      vertex 5.46726 -5.1341 50
      vertex 2.18691 -2.05364 50
      vertex 4.78068 -5.77885 50
    endloop
  endfacet
  facet normal -0 0 1
    outer loop
      vertex 1.91227 -2.31154 50
      vertex 4.78068 -5.77885 50
      vertex 2.18691 -2.05364 50
    endloop
  endfacet
  facet normal 0 0 1
    outer loop
      vertex 4.78068 -5.77885 50
      vertex 1.91227 -2.31154 50
      vertex 4.0187 -6.33246 50
    endloop
  endfacet
  facet normal -0 0 1
    outer loop
      vertex 1.60748 -2.53298 50
      vertex 4.0187 -6.33246 50
      vertex 1.91227 -2.31154 50
    endloop
  endfacet
  facet normal 0 0 1
    outer loop
      vertex 4.0187 -6.33246 50
      vertex 1.60748 -2.53298 50
      vertex 3.19334 -6.7862 50
    endloop
  endfacet
  facet normal -0 0 1
    outer loop
      vertex 1.27734 -2.71448 50
      vertex 3.19334 -6.7862 50
      vertex 1.60748 -2.53298 50
    endloop
  endfacet
  facet normal 0 0 1
    outer loop
      vertex 3.19334 -6.7862 50
      vertex 1.27734 -2.71448 50
      vertex 2.31763 -7.13292 50
    endloop
  endfacet
  facet normal -0 0 1
    outer loop
      vertex 0.927051 -2.85317 50
      vertex 2.31763 -7.13292 50
      vertex 1.27734 -2.71448 50
    endloop
  endfacet
  facet normal 0 0 1
    outer loop
      vertex 2.31763 -7.13292 50
      vertex 0.927051 -2.85317 50
      vertex 1.40536 -7.36715 50
    endloop
  endfacet
  facet normal -0 0 1
    outer loop
      vertex 0.562143 -2.94686 50
      vertex 1.40536 -7.36715 50
      vertex 0.927051 -2.85317 50
    endloop
  endfacet
  facet normal 0 0 1
    outer loop
      vertex 0.562143 -2.94686 50
      vertex 0.470928 -7.4852 50
      vertex 1.40536 -7.36715 50
    endloop
  endfacet
  facet normal -0 0 1
    outer loop
      vertex 0.188371 -2.99408 50
      vertex 0.470928 -7.4852 50
      vertex 0.562143 -2.94686 50
    endloop
  endfacet
  facet normal -0 0 1
    outer loop
      vertex -0.188371 -2.99408 50
      vertex 0.470928 -7.4852 50
      vertex 0.188371 -2.99408 50
    endloop
  endfacet
  facet normal 0 0 1
    outer loop
      vertex -0.188371 -2.99408 50
      vertex -0.470928 -7.4852 50
      vertex 0.470928 -7.4852 50
    endloop
  endfacet
  facet normal 0 0 1
    outer loop
      vertex -0.562143 -2.94686 50
      vertex -0.470928 -7.4852 50
      vertex -0.188371 -2.99408 50
    endloop
  endfacet
  facet normal 0 0 1
    outer loop
      vertex -1.40536 -7.36715 50
      vertex -0.562143 -2.94686 50
      vertex -0.927051 -2.85317 50
    endloop
  endfacet
  facet normal 0 0 1
    outer loop
      vertex -2.31763 -7.13292 50
      vertex -0.927051 -2.85317 50
      vertex -1.27734 -2.71448 50
    endloop
  endfacet
  facet normal 0 0 1
    outer loop
      vertex -0.562143 -2.94686 50
      vertex -1.40536 -7.36715 50
      vertex -0.470928 -7.4852 50
    endloop
  endfacet
  facet normal 0 0 1
    outer loop
      vertex -3.19334 -6.7862 50
      vertex -1.27734 -2.71448 50
      vertex -1.60748 -2.53298 50
    endloop
  endfacet
  facet normal 0 0 1
    outer loop
      vertex -4.0187 -6.33246 50
      vertex -1.60748 -2.53298 50
      vertex -1.91227 -2.31154 50
    endloop
  endfacet
  facet normal 0 0 1
    outer loop
      vertex -4.78068 -5.77885 50
      vertex -1.91227 -2.31154 50
      vertex -2.18691 -2.05364 50
    endloop
  endfacet
  facet normal 0 0 1
    outer loop
      vertex -0.927051 -2.85317 50
      vertex -2.31763 -7.13292 50
      vertex -1.40536 -7.36715 50
    endloop
  endfacet
  facet normal 0 0 1
    outer loop
      vertex -5.46726 -5.1341 50
      vertex -2.18691 -2.05364 50
      vertex -2.42705 -1.76336 50
    endloop
  endfacet
  facet normal 0 0 1
    outer loop
      vertex -6.06763 -4.40839 50
      vertex -2.42705 -1.76336 50
      vertex -2.62892 -1.44526 50
    endloop
  endfacet
  facet normal 0 0 1
    outer loop
      vertex -6.5723 -3.61315 50
      vertex -2.62892 -1.44526 50
      vertex -2.78933 -1.10437 50
    endloop
  endfacet
  facet normal 0 0 1
    outer loop
      vertex -6.97332 -2.76093 50
      vertex -2.78933 -1.10437 50
      vertex -2.90575 -0.746069 50
    endloop
  endfacet
  facet normal 0 0 1
    outer loop
      vertex -7.26437 -1.86517 50
      vertex -2.90575 -0.746069 50
      vertex -2.97634 -0.375999 50
    endloop
  endfacet
  facet normal 0 0 1
    outer loop
      vertex -1.27734 -2.71448 50
      vertex -3.19334 -6.7862 50
      vertex -2.31763 -7.13292 50
    endloop
  endfacet
  facet normal 0 0 1
    outer loop
      vertex -7.44086 -0.939999 50
      vertex -2.97634 -0.375999 50
      vertex -3 0 50
    endloop
  endfacet
  facet normal -0 0 1
    outer loop
      vertex -6.5723 3.61315 50
      vertex -2.62892 1.44526 50
      vertex -6.06763 4.40839 50
    endloop
  endfacet
  facet normal 0 0 1
    outer loop
      vertex -2.62892 1.44526 50
      vertex -6.5723 3.61315 50
      vertex -2.78933 1.10437 50
    endloop
  endfacet
  facet normal 0 0 1
    outer loop
      vertex -1.60748 -2.53298 50
      vertex -4.0187 -6.33246 50
      vertex -3.19334 -6.7862 50
    endloop
  endfacet
  facet normal -0 0 1
    outer loop
      vertex -6.97332 2.76093 50
      vertex -2.78933 1.10437 50
      vertex -6.5723 3.61315 50
    endloop
  endfacet
  facet normal 0 0 1
    outer loop
      vertex -1.91227 -2.31154 50
      vertex -4.78068 -5.77885 50
      vertex -4.0187 -6.33246 50
    endloop
  endfacet
  facet normal 0 0 1
    outer loop
      vertex -2.78933 1.10437 50
      vertex -6.97332 2.76093 50
      vertex -2.90575 0.746069 50
    endloop
  endfacet
  facet normal 0 0 1
    outer loop
      vertex -2.18691 -2.05364 50
      vertex -5.46726 -5.1341 50
      vertex -4.78068 -5.77885 50
    endloop
  endfacet
  facet normal -0 0 1
    outer loop
      vertex -7.26437 1.86517 50
      vertex -2.90575 0.746069 50
      vertex -6.97332 2.76093 50
    endloop
  endfacet
  facet normal 0 0 1
    outer loop
      vertex -2.42705 -1.76336 50
      vertex -6.06763 -4.40839 50
      vertex -5.46726 -5.1341 50
    endloop
  endfacet
  facet normal 0 0 1
    outer loop
      vertex -2.90575 0.746069 50
      vertex -7.26437 1.86517 50
      vertex -2.97634 0.375999 50
    endloop
  endfacet
  facet normal 0 0 1
    outer loop
      vertex -2.62892 -1.44526 50
      vertex -6.5723 -3.61315 50
      vertex -6.06763 -4.40839 50
    endloop
  endfacet
  facet normal -0 0 1
    outer loop
      vertex -7.44086 0.939999 50
      vertex -2.97634 0.375999 50
      vertex -7.26437 1.86517 50
    endloop
  endfacet
  facet normal 0 0 1
    outer loop
      vertex -2.78933 -1.10437 50
      vertex -6.97332 -2.76093 50
      vertex -6.5723 -3.61315 50
    endloop
  endfacet
  facet normal 0 0 1
    outer loop
      vertex -2.97634 0.375999 50
      vertex -7.44086 0.939999 50
      vertex -3 0 50
    endloop
  endfacet
  facet normal 0 0 1
    outer loop
      vertex -2.90575 -0.746069 50
      vertex -7.26437 -1.86517 50
      vertex -6.97332 -2.76093 50
    endloop
  endfacet
  facet normal 0 0 1
    outer loop
      vertex -7.5 0 50
      vertex -3 0 50
      vertex -7.44086 0.939999 50
    endloop
  endfacet
  facet normal 0 0 1
    outer loop
      vertex -2.97634 -0.375999 50
      vertex -7.44086 -0.939999 50
      vertex -7.26437 -1.86517 50
    endloop
  endfacet
  facet normal 0 0 1
    outer loop
      vertex -3 0 50
      vertex -7.5 0 50
      vertex -7.44086 -0.939999 50
    endloop
  endfacet
  facet normal -0.125337 0.992114 0
    outer loop
      vertex -0.470928 7.4852 -50
      vertex -1.40536 7.36715 50
      vertex -0.470928 7.4852 50
    endloop
  endfacet
  facet normal -0.125337 0.992114 0
    outer loop
      vertex -1.40536 7.36715 50
      vertex -0.470928 7.4852 -50
      vertex -1.40536 7.36715 -50
    endloop
  endfacet
  facet normal 0.125337 -0.992114 0
    outer loop
      vertex 0.470928 -7.4852 -50
      vertex 1.40536 -7.36715 50
      vertex 0.470928 -7.4852 50
    endloop
  endfacet
  facet normal 0.125337 -0.992114 0
    outer loop
      vertex 1.40536 -7.36715 50
      vertex 0.470928 -7.4852 -50
      vertex 1.40536 -7.36715 -50
    endloop
  endfacet
  facet normal 0.368126 -0.929776 0
    outer loop
      vertex 2.31763 -7.13292 -50
      vertex 3.19334 -6.7862 50
      vertex 2.31763 -7.13292 50
    endloop
  endfacet
  facet normal 0.368126 -0.929776 0
    outer loop
      vertex 3.19334 -6.7862 50
      vertex 2.31763 -7.13292 -50
      vertex 3.19334 -6.7862 -50
    endloop
  endfacet
  facet normal 0.951057 0.309017 0
    outer loop
      vertex 7.26437 1.86517 50
      vertex 6.97332 2.76093 -50
      vertex 6.97332 2.76093 50
    endloop
  endfacet
  facet normal 0.951057 0.309017 0
    outer loop
      vertex 6.97332 2.76093 -50
      vertex 7.26437 1.86517 50
      vertex 7.26437 1.86517 -50
    endloop
  endfacet
  facet normal 0.982286 0.187386 0
    outer loop
      vertex 7.44086 0.939999 50
      vertex 7.26437 1.86517 -50
      vertex 7.26437 1.86517 50
    endloop
  endfacet
  facet normal 0.982286 0.187386 0
    outer loop
      vertex 7.26437 1.86517 -50
      vertex 7.44086 0.939999 50
      vertex 7.44086 0.939999 -50
    endloop
  endfacet
  facet normal 0.770508 0.637431 0
    outer loop
      vertex 6.06763 4.40839 50
      vertex 5.46726 5.1341 -50
      vertex 5.46726 5.1341 50
    endloop
  endfacet
  facet normal 0.770508 0.637431 0
    outer loop
      vertex 5.46726 5.1341 -50
      vertex 6.06763 4.40839 50
      vertex 6.06763 4.40839 -50
    endloop
  endfacet
  facet normal 0.84433 0.535823 0
    outer loop
      vertex 6.5723 3.61315 50
      vertex 6.06763 4.40839 -50
      vertex 6.06763 4.40839 50
    endloop
  endfacet
  facet normal 0.84433 0.535823 0
    outer loop
      vertex 6.06763 4.40839 -50
      vertex 6.5723 3.61315 50
      vertex 6.5723 3.61315 -50
    endloop
  endfacet
  facet normal 0.125337 0.992114 -0
    outer loop
      vertex 1.40536 7.36715 -50
      vertex 0.470928 7.4852 50
      vertex 1.40536 7.36715 50
    endloop
  endfacet
  facet normal 0.125337 0.992114 0
    outer loop
      vertex 0.470928 7.4852 50
      vertex 1.40536 7.36715 -50
      vertex 0.470928 7.4852 -50
    endloop
  endfacet
  facet normal 0.587785 0.809017 -0
    outer loop
      vertex 4.78068 5.77885 -50
      vertex 4.0187 6.33246 50
      vertex 4.78068 5.77885 50
    endloop
  endfacet
  facet normal 0.587785 0.809017 0
    outer loop
      vertex 4.0187 6.33246 50
      vertex 4.78068 5.77885 -50
      vertex 4.0187 6.33246 -50
    endloop
  endfacet
  facet normal -0.84433 0.535823 0
    outer loop
      vertex -6.5723 3.61315 -50
      vertex -6.06763 4.40839 50
      vertex -6.06763 4.40839 -50
    endloop
  endfacet
  facet normal -0.84433 0.535823 0
    outer loop
      vertex -6.06763 4.40839 50
      vertex -6.5723 3.61315 -50
      vertex -6.5723 3.61315 50
    endloop
  endfacet
  facet normal -0.770508 0.637431 0
    outer loop
      vertex -6.06763 4.40839 -50
      vertex -5.46726 5.1341 50
      vertex -5.46726 5.1341 -50
    endloop
  endfacet
  facet normal -0.770508 0.637431 0
    outer loop
      vertex -5.46726 5.1341 50
      vertex -6.06763 4.40839 -50
      vertex -6.06763 4.40839 50
    endloop
  endfacet
  facet normal -0.951057 0.309017 0
    outer loop
      vertex -7.26437 1.86517 -50
      vertex -6.97332 2.76093 50
      vertex -6.97332 2.76093 -50
    endloop
  endfacet
  facet normal -0.951057 0.309017 0
    outer loop
      vertex -6.97332 2.76093 50
      vertex -7.26437 1.86517 -50
      vertex -7.26437 1.86517 50
    endloop
  endfacet
  facet normal -0.982286 0.187386 0
    outer loop
      vertex -7.44086 0.939999 -50
      vertex -7.26437 1.86517 50
      vertex -7.26437 1.86517 -50
    endloop
  endfacet
  facet normal -0.982286 0.187386 0
    outer loop
      vertex -7.26437 1.86517 50
      vertex -7.44086 0.939999 -50
      vertex -7.44086 0.939999 50
    endloop
  endfacet
  facet normal -0.481749 0.876309 0
    outer loop
      vertex -3.19334 6.7862 -50
      vertex -4.0187 6.33246 50
      vertex -3.19334 6.7862 50
    endloop
  endfacet
  facet normal -0.481749 0.876309 0
    outer loop
      vertex -4.0187 6.33246 50
      vertex -3.19334 6.7862 -50
      vertex -4.0187 6.33246 -50
    endloop
  endfacet
  facet normal -0.587785 0.809017 0
    outer loop
      vertex -4.0187 6.33246 -50
      vertex -4.78068 5.77885 50
      vertex -4.0187 6.33246 50
    endloop
  endfacet
  facet normal -0.587785 0.809017 0
    outer loop
      vertex -4.78068 5.77885 50
      vertex -4.0187 6.33246 -50
      vertex -4.78068 5.77885 -50
    endloop
  endfacet
  facet normal -0.248689 0.968583 0
    outer loop
      vertex -1.40536 7.36715 -50
      vertex -2.31763 7.13292 50
      vertex -1.40536 7.36715 50
    endloop
  endfacet
  facet normal -0.248689 0.968583 0
    outer loop
      vertex -2.31763 7.13292 50
      vertex -1.40536 7.36715 -50
      vertex -2.31763 7.13292 -50
    endloop
  endfacet
  facet normal 0.998027 -0.0627908 0
    outer loop
      vertex 7.44086 -0.939999 50
      vertex 7.5 0 -50
      vertex 7.5 0 50
    endloop
  endfacet
  facet normal 0.998027 -0.0627908 0
    outer loop
      vertex 7.5 0 -50
      vertex 7.44086 -0.939999 50
      vertex 7.44086 -0.939999 -50
    endloop
  endfacet
  facet normal 0.481749 -0.876309 0
    outer loop
      vertex 3.19334 -6.7862 -50
      vertex 4.0187 -6.33246 50
      vertex 3.19334 -6.7862 50
    endloop
  endfacet
  facet normal 0.481749 -0.876309 0
    outer loop
      vertex 4.0187 -6.33246 50
      vertex 3.19334 -6.7862 -50
      vertex 4.0187 -6.33246 -50
    endloop
  endfacet
  facet normal 0.770508 -0.637431 0
    outer loop
      vertex 5.46726 -5.1341 50
      vertex 6.06763 -4.40839 -50
      vertex 6.06763 -4.40839 50
    endloop
  endfacet
  facet normal 0.770508 -0.637431 0
    outer loop
      vertex 6.06763 -4.40839 -50
      vertex 5.46726 -5.1341 50
      vertex 5.46726 -5.1341 -50
    endloop
  endfacet
  facet normal 0.982286 -0.187386 0
    outer loop
      vertex 7.26437 -1.86517 50
      vertex 7.44086 -0.939999 -50
      vertex 7.44086 -0.939999 50
    endloop
  endfacet
  facet normal 0.982286 -0.187386 0
    outer loop
      vertex 7.44086 -0.939999 -50
      vertex 7.26437 -1.86517 50
      vertex 7.26437 -1.86517 -50
    endloop
  endfacet
  facet normal -0.951057 -0.309017 0
    outer loop
      vertex -6.97332 -2.76093 -50
      vertex -7.26437 -1.86517 50
      vertex -7.26437 -1.86517 -50
    endloop
  endfacet
  facet normal -0.951057 -0.309017 0
    outer loop
      vertex -7.26437 -1.86517 50
      vertex -6.97332 -2.76093 -50
      vertex -6.97332 -2.76093 50
    endloop
  endfacet
  facet normal 0.684552 -0.728964 0
    outer loop
      vertex 4.78068 -5.77885 -50
      vertex 5.46726 -5.1341 50
      vertex 4.78068 -5.77885 50
    endloop
  endfacet
  facet normal 0.684552 -0.728964 0
    outer loop
      vertex 5.46726 -5.1341 50
      vertex 4.78068 -5.77885 -50
      vertex 5.46726 -5.1341 -50
    endloop
  endfacet
  facet normal 0.904829 -0.425776 0
    outer loop
      vertex 6.5723 -3.61315 50
      vertex 6.97332 -2.76093 -50
      vertex 6.97332 -2.76093 50
    endloop
  endfacet
  facet normal 0.904829 -0.425776 0
    outer loop
      vertex 6.97332 -2.76093 -50
      vertex 6.5723 -3.61315 50
      vertex 6.5723 -3.61315 -50
    endloop
  endfacet
  facet normal -0.684552 -0.728964 0
    outer loop
      vertex -5.46726 -5.1341 -50
      vertex -4.78068 -5.77885 50
      vertex -5.46726 -5.1341 50
    endloop
  endfacet
  facet normal -0.684552 -0.728964 -0
    outer loop
      vertex -4.78068 -5.77885 50
      vertex -5.46726 -5.1341 -50
      vertex -4.78068 -5.77885 -50
    endloop
  endfacet
  facet normal -0.84433 -0.535823 0
    outer loop
      vertex -6.06763 -4.40839 -50
      vertex -6.5723 -3.61315 50
      vertex -6.5723 -3.61315 -50
    endloop
  endfacet
  facet normal -0.84433 -0.535823 0
    outer loop
      vertex -6.5723 -3.61315 50
      vertex -6.06763 -4.40839 -50
      vertex -6.06763 -4.40839 50
    endloop
  endfacet
  facet normal 0 0 -1
    outer loop
      vertex 3 0 -50
      vertex 7.5 0 -50
      vertex 7.44086 -0.939999 -50
    endloop
  endfacet
  facet normal 0 0 -1
    outer loop
      vertex 2.97634 -0.375999 -50
      vertex 7.44086 -0.939999 -50
      vertex 7.26437 -1.86517 -50
    endloop
  endfacet
  facet normal 0 0 -1
    outer loop
      vertex 7.5 0 -50
      vertex 3 0 -50
      vertex 7.44086 0.939999 -50
    endloop
  endfacet
  facet normal 0 0 -1
    outer loop
      vertex 2.90575 -0.746069 -50
      vertex 7.26437 -1.86517 -50
      vertex 6.97332 -2.76093 -50
    endloop
  endfacet
  facet normal 0 0 -1
    outer loop
      vertex 2.97634 0.375999 -50
      vertex 7.44086 0.939999 -50
      vertex 3 0 -50
    endloop
  endfacet
  facet normal 0 0 -1
    outer loop
      vertex 2.78933 -1.10437 -50
      vertex 6.97332 -2.76093 -50
      vertex 6.5723 -3.61315 -50
    endloop
  endfacet
  facet normal -0 0 -1
    outer loop
      vertex 7.44086 0.939999 -50
      vertex 2.97634 0.375999 -50
      vertex 7.26437 1.86517 -50
    endloop
  endfacet
  facet normal 0 0 -1
    outer loop
      vertex 2.62892 -1.44526 -50
      vertex 6.5723 -3.61315 -50
      vertex 6.06763 -4.40839 -50
    endloop
  endfacet
  facet normal 0 0 -1
    outer loop
      vertex 2.90575 0.746069 -50
      vertex 7.26437 1.86517 -50
      vertex 2.97634 0.375999 -50
    endloop
  endfacet
  facet normal 0 0 -1
    outer loop
      vertex 2.42705 -1.76336 -50
      vertex 6.06763 -4.40839 -50
      vertex 5.46726 -5.1341 -50
    endloop
  endfacet
  facet normal -0 0 -1
    outer loop
      vertex 7.26437 1.86517 -50
      vertex 2.90575 0.746069 -50
      vertex 6.97332 2.76093 -50
    endloop
  endfacet
  facet normal 0 0 -1
    outer loop
      vertex 2.18691 -2.05364 -50
      vertex 5.46726 -5.1341 -50
      vertex 4.78068 -5.77885 -50
    endloop
  endfacet
  facet normal 0 0 -1
    outer loop
      vertex 2.78933 1.10437 -50
      vertex 6.97332 2.76093 -50
      vertex 2.90575 0.746069 -50
    endloop
  endfacet
  facet normal 0 0 -1
    outer loop
      vertex 1.91227 -2.31154 -50
      vertex 4.78068 -5.77885 -50
      vertex 4.0187 -6.33246 -50
    endloop
  endfacet
  facet normal -0 0 -1
    outer loop
      vertex 6.97332 2.76093 -50
      vertex 2.78933 1.10437 -50
      vertex 6.5723 3.61315 -50
    endloop
  endfacet
  facet normal 0 0 -1
    outer loop
      vertex 1.60748 -2.53298 -50
      vertex 4.0187 -6.33246 -50
      vertex 3.19334 -6.7862 -50
    endloop
  endfacet
  facet normal 0 0 -1
    outer loop
      vertex 2.62892 1.44526 -50
      vertex 6.5723 3.61315 -50
      vertex 2.78933 1.10437 -50
    endloop
  endfacet
  facet normal -0 0 -1
    outer loop
      vertex 6.5723 3.61315 -50
      vertex 2.62892 1.44526 -50
      vertex 6.06763 4.40839 -50
    endloop
  endfacet
  facet normal 0 0 -1
    outer loop
      vertex 7.44086 -0.939999 -50
      vertex 2.97634 -0.375999 -50
      vertex 3 0 -50
    endloop
  endfacet
  facet normal 0 0 -1
    outer loop
      vertex 7.26437 -1.86517 -50
      vertex 2.90575 -0.746069 -50
      vertex 2.97634 -0.375999 -50
    endloop
  endfacet
  facet normal 0 0 -1
    outer loop
      vertex 6.97332 -2.76093 -50
      vertex 2.78933 -1.10437 -50
      vertex 2.90575 -0.746069 -50
    endloop
  endfacet
  facet normal 0 0 -1
    outer loop
      vertex 6.5723 -3.61315 -50
      vertex 2.62892 -1.44526 -50
      vertex 2.78933 -1.10437 -50
    endloop
  endfacet
  facet normal 0 0 -1
    outer loop
      vertex 6.06763 -4.40839 -50
      vertex 2.42705 -1.76336 -50
      vertex 2.62892 -1.44526 -50
    endloop
  endfacet
  facet normal 0 0 -1
    outer loop
      vertex 1.27734 -2.71448 -50
      vertex 3.19334 -6.7862 -50
      vertex 2.31763 -7.13292 -50
    endloop
  endfacet
  facet normal 0 0 -1
    outer loop
      vertex 5.46726 -5.1341 -50
      vertex 2.18691 -2.05364 -50
      vertex 2.42705 -1.76336 -50
    endloop
  endfacet
  facet normal 0 0 -1
    outer loop
      vertex 4.78068 -5.77885 -50
      vertex 1.91227 -2.31154 -50
      vertex 2.18691 -2.05364 -50
    endloop
  endfacet
  facet normal 0 0 -1
    outer loop
      vertex 4.0187 -6.33246 -50
      vertex 1.60748 -2.53298 -50
      vertex 1.91227 -2.31154 -50
    endloop
  endfacet
  facet normal 0 0 -1
    outer loop
      vertex 0.927051 -2.85317 -50
      vertex 2.31763 -7.13292 -50
      vertex 1.40536 -7.36715 -50
    endloop
  endfacet
  facet normal 0 0 -1
    outer loop
      vertex 3.19334 -6.7862 -50
      vertex 1.27734 -2.71448 -50
      vertex 1.60748 -2.53298 -50
    endloop
  endfacet
  facet normal 0 0 -1
    outer loop
      vertex 2.31763 -7.13292 -50
      vertex 0.927051 -2.85317 -50
      vertex 1.27734 -2.71448 -50
    endloop
  endfacet
  facet normal 0 0 -1
    outer loop
      vertex 1.40536 -7.36715 -50
      vertex 0.562143 -2.94686 -50
      vertex 0.927051 -2.85317 -50
    endloop
  endfacet
  facet normal 0 0 -1
    outer loop
      vertex 0.470928 -7.4852 -50
      vertex 0.562143 -2.94686 -50
      vertex 1.40536 -7.36715 -50
    endloop
  endfacet
  facet normal 0 0 -1
    outer loop
      vertex 0.470928 -7.4852 -50
      vertex 0.188371 -2.99408 -50
      vertex 0.562143 -2.94686 -50
    endloop
  endfacet
  facet normal 0 0 -1
    outer loop
      vertex 0.470928 -7.4852 -50
      vertex -0.188371 -2.99408 -50
      vertex 0.188371 -2.99408 -50
    endloop
  endfacet
  facet normal 0 0 -1
    outer loop
      vertex -0.470928 -7.4852 -50
      vertex -0.188371 -2.99408 -50
      vertex 0.470928 -7.4852 -50
    endloop
  endfacet
  facet normal 0 0 -1
    outer loop
      vertex -0.470928 -7.4852 -50
      vertex -0.562143 -2.94686 -50
      vertex -0.188371 -2.99408 -50
    endloop
  endfacet
  facet normal 0 0 -1
    outer loop
      vertex -1.40536 -7.36715 -50
      vertex -0.562143 -2.94686 -50
      vertex -0.470928 -7.4852 -50
    endloop
  endfacet
  facet normal -0 0 -1
    outer loop
      vertex -0.562143 -2.94686 -50
      vertex -1.40536 -7.36715 -50
      vertex -0.927051 -2.85317 -50
    endloop
  endfacet
  facet normal 0 0 -1
    outer loop
      vertex -2.31763 -7.13292 -50
      vertex -0.927051 -2.85317 -50
      vertex -1.40536 -7.36715 -50
    endloop
  endfacet
  facet normal -0 0 -1
    outer loop
      vertex -0.927051 -2.85317 -50
      vertex -2.31763 -7.13292 -50
      vertex -1.27734 -2.71448 -50
    endloop
  endfacet
  facet normal 0 0 -1
    outer loop
      vertex -3.19334 -6.7862 -50
      vertex -1.27734 -2.71448 -50
      vertex -2.31763 -7.13292 -50
    endloop
  endfacet
  facet normal -0 0 -1
    outer loop
      vertex -1.27734 -2.71448 -50
      vertex -3.19334 -6.7862 -50
      vertex -1.60748 -2.53298 -50
    endloop
  endfacet
  facet normal 0 0 -1
    outer loop
      vertex -4.0187 -6.33246 -50
      vertex -1.60748 -2.53298 -50
      vertex -3.19334 -6.7862 -50
    endloop
  endfacet
  facet normal -0 0 -1
    outer loop
      vertex -1.60748 -2.53298 -50
      vertex -4.0187 -6.33246 -50
      vertex -1.91227 -2.31154 -50
    endloop
  endfacet
  facet normal 0 0 -1
    outer loop
      vertex -4.78068 -5.77885 -50
      vertex -1.91227 -2.31154 -50
      vertex -4.0187 -6.33246 -50
    endloop
  endfacet
  facet normal -0 0 -1
    outer loop
      vertex -1.91227 -2.31154 -50
      vertex -4.78068 -5.77885 -50
      vertex -2.18691 -2.05364 -50
    endloop
  endfacet
  facet normal 0 0 -1
    outer loop
      vertex -5.46726 -5.1341 -50
      vertex -2.18691 -2.05364 -50
      vertex -4.78068 -5.77885 -50
    endloop
  endfacet
  facet normal -0 0 -1
    outer loop
      vertex -2.18691 -2.05364 -50
      vertex -5.46726 -5.1341 -50
      vertex -2.42705 -1.76336 -50
    endloop
  endfacet
  facet normal -0 0 -1
    outer loop
      vertex -2.42705 -1.76336 -50
      vertex -6.06763 -4.40839 -50
      vertex -2.62892 -1.44526 -50
    endloop
  endfacet
  facet normal 0 0 -1
    outer loop
      vertex -6.06763 -4.40839 -50
      vertex -2.42705 -1.76336 -50
      vertex -5.46726 -5.1341 -50
    endloop
  endfacet
  facet normal 0 0 -1
    outer loop
      vertex 2.42705 1.76336 -50
      vertex 6.06763 4.40839 -50
      vertex 2.62892 1.44526 -50
    endloop
  endfacet
  facet normal -0 0 -1
    outer loop
      vertex 6.06763 4.40839 -50
      vertex 2.42705 1.76336 -50
      vertex 5.46726 5.1341 -50
    endloop
  endfacet
  facet normal 0 0 -1
    outer loop
      vertex 2.18691 2.05364 -50
      vertex 5.46726 5.1341 -50
      vertex 2.42705 1.76336 -50
    endloop
  endfacet
  facet normal -0 0 -1
    outer loop
      vertex 5.46726 5.1341 -50
      vertex 2.18691 2.05364 -50
      vertex 4.78068 5.77885 -50
    endloop
  endfacet
  facet normal 0 0 -1
    outer loop
      vertex 1.91227 2.31154 -50
      vertex 4.78068 5.77885 -50
      vertex 2.18691 2.05364 -50
    endloop
  endfacet
  facet normal -0 0 -1
    outer loop
      vertex 4.78068 5.77885 -50
      vertex 1.91227 2.31154 -50
      vertex 4.0187 6.33246 -50
    endloop
  endfacet
  facet normal 0 0 -1
    outer loop
      vertex 1.60748 2.53298 -50
      vertex 4.0187 6.33246 -50
      vertex 1.91227 2.31154 -50
    endloop
  endfacet
  facet normal -0 0 -1
    outer loop
      vertex 4.0187 6.33246 -50
      vertex 1.60748 2.53298 -50
      vertex 3.19334 6.7862 -50
    endloop
  endfacet
  facet normal 0 0 -1
    outer loop
      vertex 1.27734 2.71448 -50
      vertex 3.19334 6.7862 -50
      vertex 1.60748 2.53298 -50
    endloop
  endfacet
  facet normal -0 0 -1
    outer loop
      vertex 3.19334 6.7862 -50
      vertex 1.27734 2.71448 -50
      vertex 2.31763 7.13292 -50
    endloop
  endfacet
  facet normal 0 0 -1
    outer loop
      vertex 0.927051 2.85317 -50
      vertex 2.31763 7.13292 -50
      vertex 1.27734 2.71448 -50
    endloop
  endfacet
  facet normal -0 0 -1
    outer loop
      vertex 2.31763 7.13292 -50
      vertex 0.927051 2.85317 -50
      vertex 1.40536 7.36715 -50
    endloop
  endfacet
  facet normal 0 0 -1
    outer loop
      vertex 0.562143 2.94686 -50
      vertex 1.40536 7.36715 -50
      vertex 0.927051 2.85317 -50
    endloop
  endfacet
  facet normal 0 0 -1
    outer loop
      vertex 0.562143 2.94686 -50
      vertex 0.470928 7.4852 -50
      vertex 1.40536 7.36715 -50
    endloop
  endfacet
  facet normal 0 0 -1
    outer loop
      vertex 0.188371 2.99408 -50
      vertex 0.470928 7.4852 -50
      vertex 0.562143 2.94686 -50
    endloop
  endfacet
  facet normal 0 0 -1
    outer loop
      vertex -0.188371 2.99408 -50
      vertex 0.470928 7.4852 -50
      vertex 0.188371 2.99408 -50
    endloop
  endfacet
  facet normal 0 0 -1
    outer loop
      vertex -0.188371 2.99408 -50
      vertex -0.470928 7.4852 -50
      vertex 0.470928 7.4852 -50
    endloop
  endfacet
  facet normal 0 0 -1
    outer loop
      vertex -0.562143 2.94686 -50
      vertex -0.470928 7.4852 -50
      vertex -0.188371 2.99408 -50
    endloop
  endfacet
  facet normal 0 0 -1
    outer loop
      vertex -1.40536 7.36715 -50
      vertex -0.562143 2.94686 -50
      vertex -0.927051 2.85317 -50
    endloop
  endfacet
  facet normal 0 0 -1
    outer loop
      vertex -2.31763 7.13292 -50
      vertex -0.927051 2.85317 -50
      vertex -1.27734 2.71448 -50
    endloop
  endfacet
  facet normal 0 0 -1
    outer loop
      vertex -0.562143 2.94686 -50
      vertex -1.40536 7.36715 -50
      vertex -0.470928 7.4852 -50
    endloop
  endfacet
  facet normal 0 0 -1
    outer loop
      vertex -3.19334 6.7862 -50
      vertex -1.27734 2.71448 -50
      vertex -1.60748 2.53298 -50
    endloop
  endfacet
  facet normal 0 0 -1
    outer loop
      vertex -4.0187 6.33246 -50
      vertex -1.60748 2.53298 -50
      vertex -1.91227 2.31154 -50
    endloop
  endfacet
  facet normal 0 0 -1
    outer loop
      vertex -4.78068 5.77885 -50
      vertex -1.91227 2.31154 -50
      vertex -2.18691 2.05364 -50
    endloop
  endfacet
  facet normal 0 0 -1
    outer loop
      vertex -0.927051 2.85317 -50
      vertex -2.31763 7.13292 -50
      vertex -1.40536 7.36715 -50
    endloop
  endfacet
  facet normal 0 0 -1
    outer loop
      vertex -5.46726 5.1341 -50
      vertex -2.18691 2.05364 -50
      vertex -2.42705 1.76336 -50
    endloop
  endfacet
  facet normal 0 0 -1
    outer loop
      vertex -6.06763 4.40839 -50
      vertex -2.42705 1.76336 -50
      vertex -2.62892 1.44526 -50
    endloop
  endfacet
  facet normal 0 0 -1
    outer loop
      vertex -6.5723 3.61315 -50
      vertex -2.62892 1.44526 -50
      vertex -2.78933 1.10437 -50
    endloop
  endfacet
  facet normal 0 0 -1
    outer loop
      vertex -6.97332 2.76093 -50
      vertex -2.78933 1.10437 -50
      vertex -2.90575 0.746069 -50
    endloop
  endfacet
  facet normal 0 0 -1
    outer loop
      vertex -7.26437 1.86517 -50
      vertex -2.90575 0.746069 -50
      vertex -2.97634 0.375999 -50
    endloop
  endfacet
  facet normal 0 0 -1
    outer loop
      vertex -1.27734 2.71448 -50
      vertex -3.19334 6.7862 -50
      vertex -2.31763 7.13292 -50
    endloop
  endfacet
  facet normal 0 0 -1
    outer loop
      vertex -7.44086 0.939999 -50
      vertex -2.97634 0.375999 -50
      vertex -3 0 -50
    endloop
  endfacet
  facet normal 0 0 -1
    outer loop
      vertex -6.5723 -3.61315 -50
      vertex -2.62892 -1.44526 -50
      vertex -6.06763 -4.40839 -50
    endloop
  endfacet
  facet normal -0 0 -1
    outer loop
      vertex -2.62892 -1.44526 -50
      vertex -6.5723 -3.61315 -50
      vertex -2.78933 -1.10437 -50
    endloop
  endfacet
  facet normal 0 0 -1
    outer loop
      vertex -1.60748 2.53298 -50
      vertex -4.0187 6.33246 -50
      vertex -3.19334 6.7862 -50
    endloop
  endfacet
  facet normal 0 0 -1
    outer loop
      vertex -6.97332 -2.76093 -50
      vertex -2.78933 -1.10437 -50
      vertex -6.5723 -3.61315 -50
    endloop
  endfacet
  facet normal 0 0 -1
    outer loop
      vertex -1.91227 2.31154 -50
      vertex -4.78068 5.77885 -50
      vertex -4.0187 6.33246 -50
    endloop
  endfacet
  facet normal -0 0 -1
    outer loop
      vertex -2.78933 -1.10437 -50
      vertex -6.97332 -2.76093 -50
      vertex -2.90575 -0.746069 -50
    endloop
  endfacet
  facet normal 0 0 -1
    outer loop
      vertex -2.18691 2.05364 -50
      vertex -5.46726 5.1341 -50
      vertex -4.78068 5.77885 -50
    endloop
  endfacet
  facet normal 0 0 -1
    outer loop
      vertex -7.26437 -1.86517 -50
      vertex -2.90575 -0.746069 -50
      vertex -6.97332 -2.76093 -50
    endloop
  endfacet
  facet normal 0 0 -1
    outer loop
      vertex -2.42705 1.76336 -50
      vertex -6.06763 4.40839 -50
      vertex -5.46726 5.1341 -50
    endloop
  endfacet
  facet normal -0 0 -1
    outer loop
      vertex -2.90575 -0.746069 -50
      vertex -7.26437 -1.86517 -50
      vertex -2.97634 -0.375999 -50
    endloop
  endfacet
  facet normal 0 0 -1
    outer loop
      vertex -2.62892 1.44526 -50
      vertex -6.5723 3.61315 -50
      vertex -6.06763 4.40839 -50
    endloop
  endfacet
  facet normal 0 0 -1
    outer loop
      vertex -7.44086 -0.939999 -50
      vertex -2.97634 -0.375999 -50
      vertex -7.26437 -1.86517 -50
    endloop
  endfacet
  facet normal 0 0 -1
    outer loop
      vertex -2.78933 1.10437 -50
      vertex -6.97332 2.76093 -50
      vertex -6.5723 3.61315 -50
    endloop
  endfacet
  facet normal -0 0 -1
    outer loop
      vertex -2.97634 -0.375999 -50
      vertex -7.44086 -0.939999 -50
      vertex -3 0 -50
    endloop
  endfacet
  facet normal 0 0 -1
    outer loop
      vertex -2.90575 0.746069 -50
      vertex -7.26437 1.86517 -50
      vertex -6.97332 2.76093 -50
    endloop
  endfacet
  facet normal 0 0 -1
    outer loop
      vertex -7.5 0 -50
      vertex -3 0 -50
      vertex -7.44086 -0.939999 -50
    endloop
  endfacet
  facet normal 0 0 -1
    outer loop
      vertex -2.97634 0.375999 -50
      vertex -7.44086 0.939999 -50
      vertex -7.26437 1.86517 -50
    endloop
  endfacet
  facet normal 0 0 -1
    outer loop
      vertex -3 0 -50
      vertex -7.5 0 -50
      vertex -7.44086 0.939999 -50
    endloop
  endfacet
  facet normal 0.248689 -0.968583 0
    outer loop
      vertex 1.40536 -7.36715 -50
      vertex 2.31763 -7.13292 50
      vertex 1.40536 -7.36715 50
    endloop
  endfacet
  facet normal 0.248689 -0.968583 0
    outer loop
      vertex 2.31763 -7.13292 50
      vertex 1.40536 -7.36715 -50
      vertex 2.31763 -7.13292 -50
    endloop
  endfacet
  facet normal 0.587785 -0.809017 0
    outer loop
      vertex 4.0187 -6.33246 -50
      vertex 4.78068 -5.77885 50
      vertex 4.0187 -6.33246 50
    endloop
  endfacet
  facet normal 0.587785 -0.809017 0
    outer loop
      vertex 4.78068 -5.77885 50
      vertex 4.0187 -6.33246 -50
      vertex 4.78068 -5.77885 -50
    endloop
  endfacet
  facet normal 0.951057 -0.309017 0
    outer loop
      vertex 6.97332 -2.76093 50
      vertex 7.26437 -1.86517 -50
      vertex 7.26437 -1.86517 50
    endloop
  endfacet
  facet normal 0.951057 -0.309017 0
    outer loop
      vertex 7.26437 -1.86517 -50
      vertex 6.97332 -2.76093 50
      vertex 6.97332 -2.76093 -50
    endloop
  endfacet
  facet normal -0.125337 -0.992114 0
    outer loop
      vertex -1.40536 -7.36715 -50
      vertex -0.470928 -7.4852 50
      vertex -1.40536 -7.36715 50
    endloop
  endfacet
  facet normal -0.125337 -0.992114 -0
    outer loop
      vertex -0.470928 -7.4852 50
      vertex -1.40536 -7.36715 -50
      vertex -0.470928 -7.4852 -50
    endloop
  endfacet
  facet normal -0.368126 -0.929776 0
    outer loop
      vertex -3.19334 -6.7862 -50
      vertex -2.31763 -7.13292 50
      vertex -3.19334 -6.7862 50
    endloop
  endfacet
  facet normal -0.368126 -0.929776 -0
    outer loop
      vertex -2.31763 -7.13292 50
      vertex -3.19334 -6.7862 -50
      vertex -2.31763 -7.13292 -50
    endloop
  endfacet
  facet normal -0.248689 -0.968583 0
    outer loop
      vertex -2.31763 -7.13292 -50
      vertex -1.40536 -7.36715 50
      vertex -2.31763 -7.13292 50
    endloop
  endfacet
  facet normal -0.248689 -0.968583 -0
    outer loop
      vertex -1.40536 -7.36715 50
      vertex -2.31763 -7.13292 -50
      vertex -1.40536 -7.36715 -50
    endloop
  endfacet
  facet normal -0.770508 -0.637431 0
    outer loop
      vertex -5.46726 -5.1341 -50
      vertex -6.06763 -4.40839 50
      vertex -6.06763 -4.40839 -50
    endloop
  endfacet
  facet normal -0.770508 -0.637431 0
    outer loop
      vertex -6.06763 -4.40839 50
      vertex -5.46726 -5.1341 -50
      vertex -5.46726 -5.1341 50
    endloop
  endfacet
  facet normal -0.904829 -0.425776 0
    outer loop
      vertex -6.5723 -3.61315 -50
      vertex -6.97332 -2.76093 50
      vertex -6.97332 -2.76093 -50
    endloop
  endfacet
  facet normal -0.904829 -0.425776 0
    outer loop
      vertex -6.97332 -2.76093 50
      vertex -6.5723 -3.61315 -50
      vertex -6.5723 -3.61315 50
    endloop
  endfacet
  facet normal -0.982286 -0.187386 0
    outer loop
      vertex -7.26437 -1.86517 -50
      vertex -7.44086 -0.939999 50
      vertex -7.44086 -0.939999 -50
    endloop
  endfacet
  facet normal -0.982286 -0.187386 0
    outer loop
      vertex -7.44086 -0.939999 50
      vertex -7.26437 -1.86517 -50
      vertex -7.26437 -1.86517 50
    endloop
  endfacet
  facet normal -0.998027 -0.0627908 0
    outer loop
      vertex -7.44086 -0.939999 -50
      vertex -7.5 0 50
      vertex -7.5 0 -50
    endloop
  endfacet
  facet normal -0.998027 -0.0627908 0
    outer loop
      vertex -7.5 0 50
      vertex -7.44086 -0.939999 -50
      vertex -7.44086 -0.939999 50
    endloop
  endfacet
  facet normal -0.481749 -0.876309 0
    outer loop
      vertex -4.0187 -6.33246 -50
      vertex -3.19334 -6.7862 50
      vertex -4.0187 -6.33246 50
    endloop
  endfacet
  facet normal -0.481749 -0.876309 -0
    outer loop
      vertex -3.19334 -6.7862 50
      vertex -4.0187 -6.33246 -50
      vertex -3.19334 -6.7862 -50
    endloop
  endfacet
  facet normal -0.587785 -0.809017 0
    outer loop
      vertex -4.78068 -5.77885 -50
      vertex -4.0187 -6.33246 50
      vertex -4.78068 -5.77885 50
    endloop
  endfacet
  facet normal -0.587785 -0.809017 -0
    outer loop
      vertex -4.0187 -6.33246 50
      vertex -4.78068 -5.77885 -50
      vertex -4.0187 -6.33246 -50
    endloop
  endfacet
  facet normal 0.951056 -0.309019 0
    outer loop
      vertex -2.90575 0.746069 50
      vertex -2.78933 1.10437 -50
      vertex -2.78933 1.10437 50
    endloop
  endfacet
  facet normal 0.951056 -0.309019 0
    outer loop
      vertex -2.78933 1.10437 -50
      vertex -2.90575 0.746069 50
      vertex -2.90575 0.746069 -50
    endloop
  endfacet
  facet normal -0.844331 -0.535822 0
    outer loop
      vertex 2.62892 1.44526 -50
      vertex 2.42705 1.76336 50
      vertex 2.42705 1.76336 -50
    endloop
  endfacet
  facet normal -0.844331 -0.535822 0
    outer loop
      vertex 2.42705 1.76336 50
      vertex 2.62892 1.44526 -50
      vertex 2.62892 1.44526 50
    endloop
  endfacet
  facet normal -0.248684 -0.968585 0
    outer loop
      vertex 0.562143 2.94686 -50
      vertex 0.927051 2.85317 50
      vertex 0.562143 2.94686 50
    endloop
  endfacet
  facet normal -0.248684 -0.968585 -0
    outer loop
      vertex 0.927051 2.85317 50
      vertex 0.562143 2.94686 -50
      vertex 0.927051 2.85317 -50
    endloop
  endfacet
  facet normal -0.368126 -0.929776 0
    outer loop
      vertex 0.927051 2.85317 -50
      vertex 1.27734 2.71448 50
      vertex 0.927051 2.85317 50
    endloop
  endfacet
  facet normal -0.368126 -0.929776 -0
    outer loop
      vertex 1.27734 2.71448 50
      vertex 0.927051 2.85317 -50
      vertex 1.27734 2.71448 -50
    endloop
  endfacet
  facet normal 0.368126 -0.929776 0
    outer loop
      vertex -1.27734 2.71448 -50
      vertex -0.927051 2.85317 50
      vertex -1.27734 2.71448 50
    endloop
  endfacet
  facet normal 0.368126 -0.929776 0
    outer loop
      vertex -0.927051 2.85317 50
      vertex -1.27734 2.71448 -50
      vertex -0.927051 2.85317 -50
    endloop
  endfacet
  facet normal 0.904828 -0.425778 0
    outer loop
      vertex -2.78933 1.10437 50
      vertex -2.62892 1.44526 -50
      vertex -2.62892 1.44526 50
    endloop
  endfacet
  facet normal 0.904828 -0.425778 0
    outer loop
      vertex -2.62892 1.44526 -50
      vertex -2.78933 1.10437 50
      vertex -2.78933 1.10437 -50
    endloop
  endfacet
  facet normal -0.998026 0.0628015 0
    outer loop
      vertex 2.97634 -0.375999 -50
      vertex 3 0 50
      vertex 3 0 -50
    endloop
  endfacet
  facet normal -0.998026 0.0628015 0
    outer loop
      vertex 3 0 50
      vertex 2.97634 -0.375999 -50
      vertex 2.97634 -0.375999 50
    endloop
  endfacet
  facet normal -0.368126 0.929776 0
    outer loop
      vertex 1.27734 -2.71448 -50
      vertex 0.927051 -2.85317 50
      vertex 1.27734 -2.71448 50
    endloop
  endfacet
  facet normal -0.368126 0.929776 0
    outer loop
      vertex 0.927051 -2.85317 50
      vertex 1.27734 -2.71448 -50
      vertex 0.927051 -2.85317 -50
    endloop
  endfacet
  facet normal -0.684541 -0.728974 0
    outer loop
      vertex 1.91227 2.31154 -50
      vertex 2.18691 2.05364 50
      vertex 1.91227 2.31154 50
    endloop
  endfacet
  facet normal -0.684541 -0.728974 -0
    outer loop
      vertex 2.18691 2.05364 50
      vertex 1.91227 2.31154 -50
      vertex 2.18691 2.05364 -50
    endloop
  endfacet
  facet normal -0.58778 -0.809021 0
    outer loop
      vertex 1.60748 2.53298 -50
      vertex 1.91227 2.31154 50
      vertex 1.60748 2.53298 50
    endloop
  endfacet
  facet normal -0.58778 -0.809021 -0
    outer loop
      vertex 1.91227 2.31154 50
      vertex 1.60748 2.53298 -50
      vertex 1.91227 2.31154 -50
    endloop
  endfacet
  facet normal 0.770514 -0.637423 0
    outer loop
      vertex -2.42705 1.76336 50
      vertex -2.18691 2.05364 -50
      vertex -2.18691 2.05364 50
    endloop
  endfacet
  facet normal 0.770514 -0.637423 0
    outer loop
      vertex -2.18691 2.05364 -50
      vertex -2.42705 1.76336 50
      vertex -2.42705 1.76336 -50
    endloop
  endfacet
  facet normal 0.684541 -0.728974 0
    outer loop
      vertex -2.18691 2.05364 -50
      vertex -1.91227 2.31154 50
      vertex -2.18691 2.05364 50
    endloop
  endfacet
  facet normal 0.684541 -0.728974 0
    outer loop
      vertex -1.91227 2.31154 50
      vertex -2.18691 2.05364 -50
      vertex -1.91227 2.31154 -50
    endloop
  endfacet
  facet normal -0.998026 -0.0628015 0
    outer loop
      vertex 3 0 -50
      vertex 2.97634 0.375999 50
      vertex 2.97634 0.375999 -50
    endloop
  endfacet
  facet normal -0.998026 -0.0628015 0
    outer loop
      vertex 2.97634 0.375999 50
      vertex 3 0 -50
      vertex 3 0 50
    endloop
  endfacet
  facet normal -0.904828 0.425778 0
    outer loop
      vertex 2.62892 -1.44526 -50
      vertex 2.78933 -1.10437 50
      vertex 2.78933 -1.10437 -50
    endloop
  endfacet
  facet normal -0.904828 0.425778 0
    outer loop
      vertex 2.78933 -1.10437 50
      vertex 2.62892 -1.44526 -50
      vertex 2.62892 -1.44526 50
    endloop
  endfacet
  facet normal 0.248684 0.968585 -0
    outer loop
      vertex -0.562143 -2.94686 -50
      vertex -0.927051 -2.85317 50
      vertex -0.562143 -2.94686 50
    endloop
  endfacet
  facet normal 0.248684 0.968585 0
    outer loop
      vertex -0.927051 -2.85317 50
      vertex -0.562143 -2.94686 -50
      vertex -0.927051 -2.85317 -50
    endloop
  endfacet
  facet normal -0.248684 0.968585 0
    outer loop
      vertex 0.927051 -2.85317 -50
      vertex 0.562143 -2.94686 50
      vertex 0.927051 -2.85317 50
    endloop
  endfacet
  facet normal -0.248684 0.968585 0
    outer loop
      vertex 0.562143 -2.94686 50
      vertex 0.927051 -2.85317 -50
      vertex 0.562143 -2.94686 -50
    endloop
  endfacet
  facet normal -0.770514 -0.637423 0
    outer loop
      vertex 2.42705 1.76336 -50
      vertex 2.18691 2.05364 50
      vertex 2.18691 2.05364 -50
    endloop
  endfacet
  facet normal -0.770514 -0.637423 0
    outer loop
      vertex 2.18691 2.05364 50
      vertex 2.42705 1.76336 -50
      vertex 2.42705 1.76336 50
    endloop
  endfacet
  facet normal 0 -1 0
    outer loop
      vertex -0.188371 2.99408 -50
      vertex 0.188371 2.99408 50
      vertex -0.188371 2.99408 50
    endloop
  endfacet
  facet normal 0 -1 -0
    outer loop
      vertex 0.188371 2.99408 50
      vertex -0.188371 2.99408 -50
      vertex 0.188371 2.99408 -50
    endloop
  endfacet
  facet normal -0.481762 -0.876302 0
    outer loop
      vertex 1.27734 2.71448 -50
      vertex 1.60748 2.53298 50
      vertex 1.27734 2.71448 50
    endloop
  endfacet
  facet normal -0.481762 -0.876302 -0
    outer loop
      vertex 1.60748 2.53298 50
      vertex 1.27734 2.71448 -50
      vertex 1.60748 2.53298 -50
    endloop
  endfacet
  facet normal 0.998026 -0.0628015 0
    outer loop
      vertex -3 0 50
      vertex -2.97634 0.375999 -50
      vertex -2.97634 0.375999 50
    endloop
  endfacet
  facet normal 0.998026 -0.0628015 0
    outer loop
      vertex -2.97634 0.375999 -50
      vertex -3 0 50
      vertex -3 0 -50
    endloop
  endfacet
  facet normal 0.98229 -0.187369 0
    outer loop
      vertex -2.97634 0.375999 50
      vertex -2.90575 0.746069 -50
      vertex -2.90575 0.746069 50
    endloop
  endfacet
  facet normal 0.98229 -0.187369 0
    outer loop
      vertex -2.90575 0.746069 -50
      vertex -2.97634 0.375999 50
      vertex -2.97634 0.375999 -50
    endloop
  endfacet
  facet normal 0.844331 -0.535822 0
    outer loop
      vertex -2.62892 1.44526 50
      vertex -2.42705 1.76336 -50
      vertex -2.42705 1.76336 50
    endloop
  endfacet
  facet normal 0.844331 -0.535822 0
    outer loop
      vertex -2.42705 1.76336 -50
      vertex -2.62892 1.44526 50
      vertex -2.62892 1.44526 -50
    endloop
  endfacet
  facet normal 0.125337 -0.992114 0
    outer loop
      vertex -0.562143 2.94686 -50
      vertex -0.188371 2.99408 50
      vertex -0.562143 2.94686 50
    endloop
  endfacet
  facet normal 0.125337 -0.992114 0
    outer loop
      vertex -0.188371 2.99408 50
      vertex -0.562143 2.94686 -50
      vertex -0.188371 2.99408 -50
    endloop
  endfacet
  facet normal 0.248684 -0.968585 0
    outer loop
      vertex -0.927051 2.85317 -50
      vertex -0.562143 2.94686 50
      vertex -0.927051 2.85317 50
    endloop
  endfacet
  facet normal 0.248684 -0.968585 0
    outer loop
      vertex -0.562143 2.94686 50
      vertex -0.927051 2.85317 -50
      vertex -0.562143 2.94686 -50
    endloop
  endfacet
  facet normal 0.481762 -0.876302 0
    outer loop
      vertex -1.60748 2.53298 -50
      vertex -1.27734 2.71448 50
      vertex -1.60748 2.53298 50
    endloop
  endfacet
  facet normal 0.481762 -0.876302 0
    outer loop
      vertex -1.27734 2.71448 50
      vertex -1.60748 2.53298 -50
      vertex -1.27734 2.71448 -50
    endloop
  endfacet
  facet normal 0.58778 -0.809021 0
    outer loop
      vertex -1.91227 2.31154 -50
      vertex -1.60748 2.53298 50
      vertex -1.91227 2.31154 50
    endloop
  endfacet
  facet normal 0.58778 -0.809021 0
    outer loop
      vertex -1.60748 2.53298 50
      vertex -1.91227 2.31154 -50
      vertex -1.60748 2.53298 -50
    endloop
  endfacet
  facet normal -0.98229 0.187369 0
    outer loop
      vertex 2.90575 -0.746069 -50
      vertex 2.97634 -0.375999 50
      vertex 2.97634 -0.375999 -50
    endloop
  endfacet
  facet normal -0.98229 0.187369 0
    outer loop
      vertex 2.97634 -0.375999 50
      vertex 2.90575 -0.746069 -50
      vertex 2.90575 -0.746069 50
    endloop
  endfacet
  facet normal -0.125337 0.992114 0
    outer loop
      vertex 0.562143 -2.94686 -50
      vertex 0.188371 -2.99408 50
      vertex 0.562143 -2.94686 50
    endloop
  endfacet
  facet normal -0.125337 0.992114 0
    outer loop
      vertex 0.188371 -2.99408 50
      vertex 0.562143 -2.94686 -50
      vertex 0.188371 -2.99408 -50
    endloop
  endfacet
  facet normal -0.904828 -0.425778 0
    outer loop
      vertex 2.78933 1.10437 -50
      vertex 2.62892 1.44526 50
      vertex 2.62892 1.44526 -50
    endloop
  endfacet
  facet normal -0.904828 -0.425778 0
    outer loop
      vertex 2.62892 1.44526 50
      vertex 2.78933 1.10437 -50
      vertex 2.78933 1.10437 50
    endloop
  endfacet
  facet normal -0.951056 -0.309019 0
    outer loop
      vertex 2.90575 0.746069 -50
      vertex 2.78933 1.10437 50
      vertex 2.78933 1.10437 -50
    endloop
  endfacet
  facet normal -0.951056 -0.309019 0
    outer loop
      vertex 2.78933 1.10437 50
      vertex 2.90575 0.746069 -50
      vertex 2.90575 0.746069 50
    endloop
  endfacet
  facet normal -0.98229 -0.187369 0
    outer loop
      vertex 2.97634 0.375999 -50
      vertex 2.90575 0.746069 50
      vertex 2.90575 0.746069 -50
    endloop
  endfacet
  facet normal -0.98229 -0.187369 0
    outer loop
      vertex 2.90575 0.746069 50
      vertex 2.97634 0.375999 -50
      vertex 2.97634 0.375999 50
    endloop
  endfacet
  facet normal -0.125337 -0.992114 0
    outer loop
      vertex 0.188371 2.99408 -50
      vertex 0.562143 2.94686 50
      vertex 0.188371 2.99408 50
    endloop
  endfacet
  facet normal -0.125337 -0.992114 -0
    outer loop
      vertex 0.562143 2.94686 50
      vertex 0.188371 2.99408 -50
      vertex 0.562143 2.94686 -50
    endloop
  endfacet
  facet normal -0.481762 0.876302 0
    outer loop
      vertex 1.60748 -2.53298 -50
      vertex 1.27734 -2.71448 50
      vertex 1.60748 -2.53298 50
    endloop
  endfacet
  facet normal -0.481762 0.876302 0
    outer loop
      vertex 1.27734 -2.71448 50
      vertex 1.60748 -2.53298 -50
      vertex 1.27734 -2.71448 -50
    endloop
  endfacet
  facet normal -0.684541 0.728974 0
    outer loop
      vertex 2.18691 -2.05364 -50
      vertex 1.91227 -2.31154 50
      vertex 2.18691 -2.05364 50
    endloop
  endfacet
  facet normal -0.684541 0.728974 0
    outer loop
      vertex 1.91227 -2.31154 50
      vertex 2.18691 -2.05364 -50
      vertex 1.91227 -2.31154 -50
    endloop
  endfacet
  facet normal -0.770514 0.637423 0
    outer loop
      vertex 2.18691 -2.05364 -50
      vertex 2.42705 -1.76336 50
      vertex 2.42705 -1.76336 -50
    endloop
  endfacet
  facet normal -0.770514 0.637423 0
    outer loop
      vertex 2.42705 -1.76336 50
      vertex 2.18691 -2.05364 -50
      vertex 2.18691 -2.05364 50
    endloop
  endfacet
  facet normal 0.125337 0.992114 -0
    outer loop
      vertex -0.188371 -2.99408 -50
      vertex -0.562143 -2.94686 50
      vertex -0.188371 -2.99408 50
    endloop
  endfacet
  facet normal 0.125337 0.992114 0
    outer loop
      vertex -0.562143 -2.94686 50
      vertex -0.188371 -2.99408 -50
      vertex -0.562143 -2.94686 -50
    endloop
  endfacet
  facet normal 0.998026 0.0628015 0
    outer loop
      vertex -2.97634 -0.375999 50
      vertex -3 0 -50
      vertex -3 0 50
    endloop
  endfacet
  facet normal 0.998026 0.0628015 0
    outer loop
      vertex -3 0 -50
      vertex -2.97634 -0.375999 50
      vertex -2.97634 -0.375999 -50
    endloop
  endfacet
  facet normal 0.904828 0.425778 0
    outer loop
      vertex -2.62892 -1.44526 50
      vertex -2.78933 -1.10437 -50
      vertex -2.78933 -1.10437 50
    endloop
  endfacet
  facet normal 0.904828 0.425778 0
    outer loop
      vertex -2.78933 -1.10437 -50
      vertex -2.62892 -1.44526 50
      vertex -2.62892 -1.44526 -50
    endloop
  endfacet
  facet normal 0.951056 0.309019 0
    outer loop
      vertex -2.78933 -1.10437 50
      vertex -2.90575 -0.746069 -50
      vertex -2.90575 -0.746069 50
    endloop
  endfacet
  facet normal 0.951056 0.309019 0
    outer loop
      vertex -2.90575 -0.746069 -50
      vertex -2.78933 -1.10437 50
      vertex -2.78933 -1.10437 -50
    endloop
  endfacet
  facet normal 0.684541 0.728974 -0
    outer loop
      vertex -1.91227 -2.31154 -50
      vertex -2.18691 -2.05364 50
      vertex -1.91227 -2.31154 50
    endloop
  endfacet
  facet normal 0.684541 0.728974 0
    outer loop
      vertex -2.18691 -2.05364 50
      vertex -1.91227 -2.31154 -50
      vertex -2.18691 -2.05364 -50
    endloop
  endfacet
  facet normal -0.951056 0.309019 0
    outer loop
      vertex 2.78933 -1.10437 -50
      vertex 2.90575 -0.746069 50
      vertex 2.90575 -0.746069 -50
    endloop
  endfacet
  facet normal -0.951056 0.309019 0
    outer loop
      vertex 2.90575 -0.746069 50
      vertex 2.78933 -1.10437 -50
      vertex 2.78933 -1.10437 50
    endloop
  endfacet
  facet normal -0.58778 0.809021 0
    outer loop
      vertex 1.91227 -2.31154 -50
      vertex 1.60748 -2.53298 50
      vertex 1.91227 -2.31154 50
    endloop
  endfacet
  facet normal -0.58778 0.809021 0
    outer loop
      vertex 1.60748 -2.53298 50
      vertex 1.91227 -2.31154 -50
      vertex 1.60748 -2.53298 -50
    endloop
  endfacet
  facet normal -0.844331 0.535822 0
    outer loop
      vertex 2.42705 -1.76336 -50
      vertex 2.62892 -1.44526 50
      vertex 2.62892 -1.44526 -50
    endloop
  endfacet
  facet normal -0.844331 0.535822 0
    outer loop
      vertex 2.62892 -1.44526 50
      vertex 2.42705 -1.76336 -50
      vertex 2.42705 -1.76336 50
    endloop
  endfacet
  facet normal 0.58778 0.809021 -0
    outer loop
      vertex -1.60748 -2.53298 -50
      vertex -1.91227 -2.31154 50
      vertex -1.60748 -2.53298 50
    endloop
  endfacet
  facet normal 0.58778 0.809021 0
    outer loop
      vertex -1.91227 -2.31154 50
      vertex -1.60748 -2.53298 -50
      vertex -1.91227 -2.31154 -50
    endloop
  endfacet
  facet normal 0 1 -0
    outer loop
      vertex 0.188371 -2.99408 -50
      vertex -0.188371 -2.99408 50
      vertex 0.188371 -2.99408 50
    endloop
  endfacet
  facet normal 0 1 0
    outer loop
      vertex -0.188371 -2.99408 50
      vertex 0.188371 -2.99408 -50
      vertex -0.188371 -2.99408 -50
    endloop
  endfacet
  facet normal 0.98229 0.187369 0
    outer loop
      vertex -2.90575 -0.746069 50
      vertex -2.97634 -0.375999 -50
      vertex -2.97634 -0.375999 50
    endloop
  endfacet
  facet normal 0.98229 0.187369 0
    outer loop
      vertex -2.97634 -0.375999 -50
      vertex -2.90575 -0.746069 50
      vertex -2.90575 -0.746069 -50
    endloop
  endfacet
  facet normal 0.844331 0.535822 0
    outer loop
      vertex -2.42705 -1.76336 50
      vertex -2.62892 -1.44526 -50
      vertex -2.62892 -1.44526 50
    endloop
  endfacet
  facet normal 0.844331 0.535822 0
    outer loop
      vertex -2.62892 -1.44526 -50
      vertex -2.42705 -1.76336 50
      vertex -2.42705 -1.76336 -50
    endloop
  endfacet
  facet normal 0.481762 0.876302 -0
    outer loop
      vertex -1.27734 -2.71448 -50
      vertex -1.60748 -2.53298 50
      vertex -1.27734 -2.71448 50
    endloop
  endfacet
  facet normal 0.481762 0.876302 0
    outer loop
      vertex -1.60748 -2.53298 50
      vertex -1.27734 -2.71448 -50
      vertex -1.60748 -2.53298 -50
    endloop
  endfacet
  facet normal 0.368126 0.929776 -0
    outer loop
      vertex -0.927051 -2.85317 -50
      vertex -1.27734 -2.71448 50
      vertex -0.927051 -2.85317 50
    endloop
  endfacet
  facet normal 0.368126 0.929776 0
    outer loop
      vertex -1.27734 -2.71448 50
      vertex -0.927051 -2.85317 -50
      vertex -1.27734 -2.71448 -50
    endloop
  endfacet
  facet normal 0.770514 0.637423 0
    outer loop
      vertex -2.18691 -2.05364 50
      vertex -2.42705 -1.76336 -50
      vertex -2.42705 -1.76336 50
    endloop
  endfacet
  facet normal 0.770514 0.637423 0
    outer loop
      vertex -2.42705 -1.76336 -50
      vertex -2.18691 -2.05364 50
      vertex -2.18691 -2.05364 -50
    endloop
  endfacet
endsolid OpenSCAD_Model
