solid OpenSCAD_Model
  facet normal 0.998027 0.0627882 0
    outer loop
      vertex 6 0 35
      vertex 5.95269 0.751999 -35
      vertex 5.95269 0.751999 35
    endloop
  endfacet
  facet normal 0.998027 0.0627882 0
    outer loop
      vertex 5.95269 0.751999 -35
      vertex 6 0 35
      vertex 6 0 -35
    endloop
  endfacet
  facet normal -0.998027 0.0627882 0
    outer loop
      vertex -6 0 -35
      vertex -5.95269 0.751999 35
      vertex -5.95269 0.751999 -35
    endloop
  endfacet
  facet normal -0.998027 0.0627882 0
    outer loop
      vertex -5.95269 0.751999 35
      vertex -6 0 -35
      vertex -6 0 35
    endloop
  endfacet
  facet normal 0 1 -0
    outer loop
      vertex 0.376742 5.98816 -35
      vertex -0.376742 5.98816 35
      vertex 0.376742 5.98816 35
    endloop
  endfacet
  facet normal 0 1 0
    outer loop
      vertex -0.376742 5.98816 35
      vertex 0.376742 5.98816 -35
      vertex -0.376742 5.98816 -35
    endloop
  endfacet
  facet normal 0 -1 0
    outer loop
      vertex -0.376742 -5.98816 -35
      vertex 0.376742 -5.98816 35
      vertex -0.376742 -5.98816 35
    endloop
  endfacet
  facet normal 0 -1 -0
    outer loop
      vertex 0.376742 -5.98816 35
      vertex -0.376742 -5.98816 -35
      vertex 0.376742 -5.98816 -35
    endloop
  endfacet
  facet normal 0.684548 0.728968 -0
    outer loop
      vertex 4.37381 4.10728 -35
      vertex 3.82454 4.62308 35
      vertex 4.37381 4.10728 35
    endloop
  endfacet
  facet normal 0.684548 0.728968 0
    outer loop
      vertex 3.82454 4.62308 35
      vertex 4.37381 4.10728 -35
      vertex 3.82454 4.62308 -35
    endloop
  endfacet
  facet normal -0.684548 0.728968 0
    outer loop
      vertex -3.82454 4.62308 -35
      vertex -4.37381 4.10728 35
      vertex -3.82454 4.62308 35
    endloop
  endfacet
  facet normal -0.684548 0.728968 0
    outer loop
      vertex -4.37381 4.10728 35
      vertex -3.82454 4.62308 -35
      vertex -4.37381 4.10728 -35
    endloop
  endfacet
  facet normal -0.368125 0.929776 0
    outer loop
      vertex -1.8541 5.70634 -35
      vertex -2.55468 5.42896 35
      vertex -1.8541 5.70634 35
    endloop
  endfacet
  facet normal -0.368125 0.929776 0
    outer loop
      vertex -2.55468 5.42896 35
      vertex -1.8541 5.70634 -35
      vertex -2.55468 5.42896 -35
    endloop
  endfacet
  facet normal 0.904825 0.425783 0
    outer loop
      vertex 5.57866 2.20875 35
      vertex 5.25784 2.89052 -35
      vertex 5.25784 2.89052 35
    endloop
  endfacet
  facet normal 0.904825 0.425783 0
    outer loop
      vertex 5.25784 2.89052 -35
      vertex 5.57866 2.20875 35
      vertex 5.57866 2.20875 -35
    endloop
  endfacet
  facet normal 0.982287 0.187382 0
    outer loop
      vertex 5.95269 0.751999 35
      vertex 5.8115 1.49214 -35
      vertex 5.8115 1.49214 35
    endloop
  endfacet
  facet normal 0.982287 0.187382 0
    outer loop
      vertex 5.8115 1.49214 -35
      vertex 5.95269 0.751999 35
      vertex 5.95269 0.751999 -35
    endloop
  endfacet
  facet normal 0.368125 0.929776 -0
    outer loop
      vertex 2.55468 5.42896 -35
      vertex 1.8541 5.70634 35
      vertex 2.55468 5.42896 35
    endloop
  endfacet
  facet normal 0.368125 0.929776 0
    outer loop
      vertex 1.8541 5.70634 35
      vertex 2.55468 5.42896 -35
      vertex 1.8541 5.70634 -35
    endloop
  endfacet
  facet normal 0.248686 0.968584 -0
    outer loop
      vertex 1.8541 5.70634 -35
      vertex 1.12429 5.89372 35
      vertex 1.8541 5.70634 35
    endloop
  endfacet
  facet normal 0.248686 0.968584 0
    outer loop
      vertex 1.12429 5.89372 35
      vertex 1.8541 5.70634 -35
      vertex 1.12429 5.89372 -35
    endloop
  endfacet
  facet normal 0.481752 0.876308 -0
    outer loop
      vertex 3.21496 5.06597 -35
      vertex 2.55468 5.42896 35
      vertex 3.21496 5.06597 35
    endloop
  endfacet
  facet normal 0.481752 0.876308 0
    outer loop
      vertex 2.55468 5.42896 35
      vertex 3.21496 5.06597 -35
      vertex 2.55468 5.42896 -35
    endloop
  endfacet
  facet normal -0.904825 0.425783 0
    outer loop
      vertex -5.57866 2.20875 -35
      vertex -5.25784 2.89052 35
      vertex -5.25784 2.89052 -35
    endloop
  endfacet
  facet normal -0.904825 0.425783 0
    outer loop
      vertex -5.25784 2.89052 35
      vertex -5.57866 2.20875 -35
      vertex -5.57866 2.20875 35
    endloop
  endfacet
  facet normal -0.951057 0.309016 0
    outer loop
      vertex -5.8115 1.49214 -35
      vertex -5.57866 2.20875 35
      vertex -5.57866 2.20875 -35
    endloop
  endfacet
  facet normal -0.951057 0.309016 0
    outer loop
      vertex -5.57866 2.20875 35
      vertex -5.8115 1.49214 -35
      vertex -5.8115 1.49214 35
    endloop
  endfacet
  facet normal -0.125337 0.992114 0
    outer loop
      vertex -0.376742 5.98816 -35
      vertex -1.12429 5.89372 35
      vertex -0.376742 5.98816 35
    endloop
  endfacet
  facet normal -0.125337 0.992114 0
    outer loop
      vertex -1.12429 5.89372 35
      vertex -0.376742 5.98816 -35
      vertex -1.12429 5.89372 -35
    endloop
  endfacet
  facet normal 0.125337 -0.992114 0
    outer loop
      vertex 0.376742 -5.98816 -35
      vertex 1.12429 -5.89372 35
      vertex 0.376742 -5.98816 35
    endloop
  endfacet
  facet normal 0.125337 -0.992114 0
    outer loop
      vertex 1.12429 -5.89372 35
      vertex 0.376742 -5.98816 -35
      vertex 1.12429 -5.89372 -35
    endloop
  endfacet
  facet normal 0.368125 -0.929776 0
    outer loop
      vertex 1.8541 -5.70634 -35
      vertex 2.55468 -5.42896 35
      vertex 1.8541 -5.70634 35
    endloop
  endfacet
  facet normal 0.368125 -0.929776 0
    outer loop
      vertex 2.55468 -5.42896 35
      vertex 1.8541 -5.70634 -35
      vertex 2.55468 -5.42896 -35
    endloop
  endfacet
  facet normal 0.951057 0.309016 0
    outer loop
      vertex 5.8115 1.49214 35
      vertex 5.57866 2.20875 -35
      vertex 5.57866 2.20875 35
    endloop
  endfacet
  facet normal 0.951057 0.309016 0
    outer loop
      vertex 5.57866 2.20875 -35
      vertex 5.8115 1.49214 35
      vertex 5.8115 1.49214 -35
    endloop
  endfacet
  facet normal 0.770513 0.637425 0
    outer loop
      vertex 4.8541 3.52671 35
      vertex 4.37381 4.10728 -35
      vertex 4.37381 4.10728 35
    endloop
  endfacet
  facet normal 0.770513 0.637425 0
    outer loop
      vertex 4.37381 4.10728 -35
      vertex 4.8541 3.52671 35
      vertex 4.8541 3.52671 -35
    endloop
  endfacet
  facet normal 0.844327 0.535828 0
    outer loop
      vertex 5.25784 2.89052 35
      vertex 4.8541 3.52671 -35
      vertex 4.8541 3.52671 35
    endloop
  endfacet
  facet normal 0.844327 0.535828 0
    outer loop
      vertex 4.8541 3.52671 -35
      vertex 5.25784 2.89052 35
      vertex 5.25784 2.89052 -35
    endloop
  endfacet
  facet normal 0.125337 0.992114 -0
    outer loop
      vertex 1.12429 5.89372 -35
      vertex 0.376742 5.98816 35
      vertex 1.12429 5.89372 35
    endloop
  endfacet
  facet normal 0.125337 0.992114 0
    outer loop
      vertex 0.376742 5.98816 35
      vertex 1.12429 5.89372 -35
      vertex 0.376742 5.98816 -35
    endloop
  endfacet
  facet normal 0.587789 0.809014 -0
    outer loop
      vertex 3.82454 4.62308 -35
      vertex 3.21496 5.06597 35
      vertex 3.82454 4.62308 35
    endloop
  endfacet
  facet normal 0.587789 0.809014 0
    outer loop
      vertex 3.21496 5.06597 35
      vertex 3.82454 4.62308 -35
      vertex 3.21496 5.06597 -35
    endloop
  endfacet
  facet normal -0.844327 0.535828 0
    outer loop
      vertex -5.25784 2.89052 -35
      vertex -4.8541 3.52671 35
      vertex -4.8541 3.52671 -35
    endloop
  endfacet
  facet normal -0.844327 0.535828 0
    outer loop
      vertex -4.8541 3.52671 35
      vertex -5.25784 2.89052 -35
      vertex -5.25784 2.89052 35
    endloop
  endfacet
  facet normal -0.770513 0.637425 0
    outer loop
      vertex -4.8541 3.52671 -35
      vertex -4.37381 4.10728 35
      vertex -4.37381 4.10728 -35
    endloop
  endfacet
  facet normal -0.770513 0.637425 0
    outer loop
      vertex -4.37381 4.10728 35
      vertex -4.8541 3.52671 -35
      vertex -4.8541 3.52671 35
    endloop
  endfacet
  facet normal -0.982287 0.187382 0
    outer loop
      vertex -5.95269 0.751999 -35
      vertex -5.8115 1.49214 35
      vertex -5.8115 1.49214 -35
    endloop
  endfacet
  facet normal -0.982287 0.187382 0
    outer loop
      vertex -5.8115 1.49214 35
      vertex -5.95269 0.751999 -35
      vertex -5.95269 0.751999 35
    endloop
  endfacet
  facet normal 0 0 1
    outer loop
      vertex 4.5 0 35
      vertex 6 0 35
      vertex 5.95269 0.751999 35
    endloop
  endfacet
  facet normal 0 0 1
    outer loop
      vertex 4.46452 0.563999 35
      vertex 5.95269 0.751999 35
      vertex 5.8115 1.49214 35
    endloop
  endfacet
  facet normal 0 0 1
    outer loop
      vertex 6 0 35
      vertex 4.5 0 35
      vertex 5.95269 -0.751999 35
    endloop
  endfacet
  facet normal 0 0 1
    outer loop
      vertex 4.35862 1.1191 35
      vertex 5.8115 1.49214 35
      vertex 5.57866 2.20875 35
    endloop
  endfacet
  facet normal -0 0 1
    outer loop
      vertex 4.46452 -0.563999 35
      vertex 5.95269 -0.751999 35
      vertex 4.5 0 35
    endloop
  endfacet
  facet normal 0 0 1
    outer loop
      vertex 4.18399 1.65656 35
      vertex 5.57866 2.20875 35
      vertex 5.25784 2.89052 35
    endloop
  endfacet
  facet normal 0 0 1
    outer loop
      vertex 5.95269 -0.751999 35
      vertex 4.46452 -0.563999 35
      vertex 5.8115 -1.49214 35
    endloop
  endfacet
  facet normal 0 0 1
    outer loop
      vertex 3.94338 2.16789 35
      vertex 5.25784 2.89052 35
      vertex 4.8541 3.52671 35
    endloop
  endfacet
  facet normal -0 0 1
    outer loop
      vertex 4.35862 -1.1191 35
      vertex 5.8115 -1.49214 35
      vertex 4.46452 -0.563999 35
    endloop
  endfacet
  facet normal 0 0 1
    outer loop
      vertex 5.8115 -1.49214 35
      vertex 4.35862 -1.1191 35
      vertex 5.57866 -2.20875 35
    endloop
  endfacet
  facet normal 0 0 1
    outer loop
      vertex 5.95269 0.751999 35
      vertex 4.46452 0.563999 35
      vertex 4.5 0 35
    endloop
  endfacet
  facet normal 0 0 1
    outer loop
      vertex 3.64058 2.64503 35
      vertex 4.8541 3.52671 35
      vertex 4.37381 4.10728 35
    endloop
  endfacet
  facet normal 0 0 1
    outer loop
      vertex 5.8115 1.49214 35
      vertex 4.35862 1.1191 35
      vertex 4.46452 0.563999 35
    endloop
  endfacet
  facet normal 0 0 1
    outer loop
      vertex 5.57866 2.20875 35
      vertex 4.18399 1.65656 35
      vertex 4.35862 1.1191 35
    endloop
  endfacet
  facet normal 0 0 1
    outer loop
      vertex 5.25784 2.89052 35
      vertex 3.94338 2.16789 35
      vertex 4.18399 1.65656 35
    endloop
  endfacet
  facet normal 0 0 1
    outer loop
      vertex 3.28036 3.08046 35
      vertex 4.37381 4.10728 35
      vertex 3.82454 4.62308 35
    endloop
  endfacet
  facet normal 0 0 1
    outer loop
      vertex 4.8541 3.52671 35
      vertex 3.64058 2.64503 35
      vertex 3.94338 2.16789 35
    endloop
  endfacet
  facet normal 0 0 1
    outer loop
      vertex 4.37381 4.10728 35
      vertex 3.28036 3.08046 35
      vertex 3.64058 2.64503 35
    endloop
  endfacet
  facet normal 0 0 1
    outer loop
      vertex 2.86841 3.46731 35
      vertex 3.82454 4.62308 35
      vertex 3.21496 5.06597 35
    endloop
  endfacet
  facet normal 0 0 1
    outer loop
      vertex 3.82454 4.62308 35
      vertex 2.86841 3.46731 35
      vertex 3.28036 3.08046 35
    endloop
  endfacet
  facet normal 0 0 1
    outer loop
      vertex 2.41122 3.79947 35
      vertex 3.21496 5.06597 35
      vertex 2.55468 5.42896 35
    endloop
  endfacet
  facet normal 0 0 1
    outer loop
      vertex 3.21496 5.06597 35
      vertex 2.41122 3.79947 35
      vertex 2.86841 3.46731 35
    endloop
  endfacet
  facet normal 0 0 1
    outer loop
      vertex 2.55468 5.42896 35
      vertex 1.91601 4.07172 35
      vertex 2.41122 3.79947 35
    endloop
  endfacet
  facet normal 0 0 1
    outer loop
      vertex 1.8541 5.70634 35
      vertex 1.91601 4.07172 35
      vertex 2.55468 5.42896 35
    endloop
  endfacet
  facet normal 0 0 1
    outer loop
      vertex 1.8541 5.70634 35
      vertex 1.39058 4.27975 35
      vertex 1.91601 4.07172 35
    endloop
  endfacet
  facet normal 0 0 1
    outer loop
      vertex 1.12429 5.89372 35
      vertex 1.39058 4.27975 35
      vertex 1.8541 5.70634 35
    endloop
  endfacet
  facet normal 0 0 1
    outer loop
      vertex 1.12429 5.89372 35
      vertex 0.843215 4.42029 35
      vertex 1.39058 4.27975 35
    endloop
  endfacet
  facet normal 0 0 1
    outer loop
      vertex 0.376742 5.98816 35
      vertex 0.843215 4.42029 35
      vertex 1.12429 5.89372 35
    endloop
  endfacet
  facet normal 0 0 1
    outer loop
      vertex 0.376742 5.98816 35
      vertex 0.282557 4.49112 35
      vertex 0.843215 4.42029 35
    endloop
  endfacet
  facet normal 0 0 1
    outer loop
      vertex 0.376742 5.98816 35
      vertex -0.282557 4.49112 35
      vertex 0.282557 4.49112 35
    endloop
  endfacet
  facet normal -0 0 1
    outer loop
      vertex -0.376742 5.98816 35
      vertex -0.282557 4.49112 35
      vertex 0.376742 5.98816 35
    endloop
  endfacet
  facet normal 0 0 1
    outer loop
      vertex -0.376742 5.98816 35
      vertex -0.843215 4.42029 35
      vertex -0.282557 4.49112 35
    endloop
  endfacet
  facet normal -0 0 1
    outer loop
      vertex -1.12429 5.89372 35
      vertex -0.843215 4.42029 35
      vertex -0.376742 5.98816 35
    endloop
  endfacet
  facet normal 0 0 1
    outer loop
      vertex -1.12429 5.89372 35
      vertex -1.39058 4.27975 35
      vertex -0.843215 4.42029 35
    endloop
  endfacet
  facet normal -0 0 1
    outer loop
      vertex -1.8541 5.70634 35
      vertex -1.39058 4.27975 35
      vertex -1.12429 5.89372 35
    endloop
  endfacet
  facet normal 0 0 1
    outer loop
      vertex -1.8541 5.70634 35
      vertex -1.91601 4.07172 35
      vertex -1.39058 4.27975 35
    endloop
  endfacet
  facet normal -0 0 1
    outer loop
      vertex -2.55468 5.42896 35
      vertex -1.91601 4.07172 35
      vertex -1.8541 5.70634 35
    endloop
  endfacet
  facet normal 0 0 1
    outer loop
      vertex -1.91601 4.07172 35
      vertex -2.55468 5.42896 35
      vertex -2.41122 3.79947 35
    endloop
  endfacet
  facet normal -0 0 1
    outer loop
      vertex -3.21496 5.06597 35
      vertex -2.41122 3.79947 35
      vertex -2.55468 5.42896 35
    endloop
  endfacet
  facet normal 0 0 1
    outer loop
      vertex -2.41122 3.79947 35
      vertex -3.21496 5.06597 35
      vertex -2.86841 3.46731 35
    endloop
  endfacet
  facet normal -0 0 1
    outer loop
      vertex -3.82454 4.62308 35
      vertex -2.86841 3.46731 35
      vertex -3.21496 5.06597 35
    endloop
  endfacet
  facet normal 0 0 1
    outer loop
      vertex -2.86841 3.46731 35
      vertex -3.82454 4.62308 35
      vertex -3.28036 3.08046 35
    endloop
  endfacet
  facet normal -0 0 1
    outer loop
      vertex -4.37381 4.10728 35
      vertex -3.28036 3.08046 35
      vertex -3.82454 4.62308 35
    endloop
  endfacet
  facet normal 0 0 1
    outer loop
      vertex -3.28036 3.08046 35
      vertex -4.37381 4.10728 35
      vertex -3.64058 2.64503 35
    endloop
  endfacet
  facet normal -0 0 1
    outer loop
      vertex -4.8541 3.52671 35
      vertex -3.64058 2.64503 35
      vertex -4.37381 4.10728 35
    endloop
  endfacet
  facet normal 0 0 1
    outer loop
      vertex -3.64058 2.64503 35
      vertex -4.8541 3.52671 35
      vertex -3.94338 2.16789 35
    endloop
  endfacet
  facet normal -0 0 1
    outer loop
      vertex -5.25784 2.89052 35
      vertex -3.94338 2.16789 35
      vertex -4.8541 3.52671 35
    endloop
  endfacet
  facet normal 0 0 1
    outer loop
      vertex -3.94338 2.16789 35
      vertex -5.25784 2.89052 35
      vertex -4.18399 1.65656 35
    endloop
  endfacet
  facet normal -0 0 1
    outer loop
      vertex -5.57866 2.20875 35
      vertex -4.18399 1.65656 35
      vertex -5.25784 2.89052 35
    endloop
  endfacet
  facet normal 0 0 1
    outer loop
      vertex -4.18399 1.65656 35
      vertex -5.57866 2.20875 35
      vertex -4.35862 1.1191 35
    endloop
  endfacet
  facet normal -0 0 1
    outer loop
      vertex 4.18399 -1.65656 35
      vertex 5.57866 -2.20875 35
      vertex 4.35862 -1.1191 35
    endloop
  endfacet
  facet normal 0 0 1
    outer loop
      vertex 5.57866 -2.20875 35
      vertex 4.18399 -1.65656 35
      vertex 5.25784 -2.89052 35
    endloop
  endfacet
  facet normal -0 0 1
    outer loop
      vertex 3.94338 -2.16789 35
      vertex 5.25784 -2.89052 35
      vertex 4.18399 -1.65656 35
    endloop
  endfacet
  facet normal 0 0 1
    outer loop
      vertex 5.25784 -2.89052 35
      vertex 3.94338 -2.16789 35
      vertex 4.8541 -3.52671 35
    endloop
  endfacet
  facet normal -0 0 1
    outer loop
      vertex 3.64058 -2.64503 35
      vertex 4.8541 -3.52671 35
      vertex 3.94338 -2.16789 35
    endloop
  endfacet
  facet normal 0 0 1
    outer loop
      vertex 4.8541 -3.52671 35
      vertex 3.64058 -2.64503 35
      vertex 4.37381 -4.10728 35
    endloop
  endfacet
  facet normal -0 0 1
    outer loop
      vertex 3.28036 -3.08046 35
      vertex 4.37381 -4.10728 35
      vertex 3.64058 -2.64503 35
    endloop
  endfacet
  facet normal 0 0 1
    outer loop
      vertex 4.37381 -4.10728 35
      vertex 3.28036 -3.08046 35
      vertex 3.82454 -4.62308 35
    endloop
  endfacet
  facet normal -0 0 1
    outer loop
      vertex 2.86841 -3.46731 35
      vertex 3.82454 -4.62308 35
      vertex 3.28036 -3.08046 35
    endloop
  endfacet
  facet normal 0 0 1
    outer loop
      vertex 3.82454 -4.62308 35
      vertex 2.86841 -3.46731 35
      vertex 3.21496 -5.06597 35
    endloop
  endfacet
  facet normal -0 0 1
    outer loop
      vertex 2.41122 -3.79947 35
      vertex 3.21496 -5.06597 35
      vertex 2.86841 -3.46731 35
    endloop
  endfacet
  facet normal 0 0 1
    outer loop
      vertex 3.21496 -5.06597 35
      vertex 2.41122 -3.79947 35
      vertex 2.55468 -5.42896 35
    endloop
  endfacet
  facet normal -0 0 1
    outer loop
      vertex 1.91601 -4.07172 35
      vertex 2.55468 -5.42896 35
      vertex 2.41122 -3.79947 35
    endloop
  endfacet
  facet normal 0 0 1
    outer loop
      vertex 1.91601 -4.07172 35
      vertex 1.8541 -5.70634 35
      vertex 2.55468 -5.42896 35
    endloop
  endfacet
  facet normal -0 0 1
    outer loop
      vertex 1.39058 -4.27975 35
      vertex 1.8541 -5.70634 35
      vertex 1.91601 -4.07172 35
    endloop
  endfacet
  facet normal 0 0 1
    outer loop
      vertex 1.39058 -4.27975 35
      vertex 1.12429 -5.89372 35
      vertex 1.8541 -5.70634 35
    endloop
  endfacet
  facet normal -0 0 1
    outer loop
      vertex 0.843215 -4.42029 35
      vertex 1.12429 -5.89372 35
      vertex 1.39058 -4.27975 35
    endloop
  endfacet
  facet normal 0 0 1
    outer loop
      vertex 0.843215 -4.42029 35
      vertex 0.376742 -5.98816 35
      vertex 1.12429 -5.89372 35
    endloop
  endfacet
  facet normal -0 0 1
    outer loop
      vertex 0.282557 -4.49112 35
      vertex 0.376742 -5.98816 35
      vertex 0.843215 -4.42029 35
    endloop
  endfacet
  facet normal -0 0 1
    outer loop
      vertex -0.282557 -4.49112 35
      vertex 0.376742 -5.98816 35
      vertex 0.282557 -4.49112 35
    endloop
  endfacet
  facet normal 0 0 1
    outer loop
      vertex -0.282557 -4.49112 35
      vertex -0.376742 -5.98816 35
      vertex 0.376742 -5.98816 35
    endloop
  endfacet
  facet normal 0 0 1
    outer loop
      vertex -0.843215 -4.42029 35
      vertex -0.376742 -5.98816 35
      vertex -0.282557 -4.49112 35
    endloop
  endfacet
  facet normal 0 0 1
    outer loop
      vertex -0.843215 -4.42029 35
      vertex -1.12429 -5.89372 35
      vertex -0.376742 -5.98816 35
    endloop
  endfacet
  facet normal 0 0 1
    outer loop
      vertex -1.39058 -4.27975 35
      vertex -1.12429 -5.89372 35
      vertex -0.843215 -4.42029 35
    endloop
  endfacet
  facet normal 0 0 1
    outer loop
      vertex -1.39058 -4.27975 35
      vertex -1.8541 -5.70634 35
      vertex -1.12429 -5.89372 35
    endloop
  endfacet
  facet normal 0 0 1
    outer loop
      vertex -1.91601 -4.07172 35
      vertex -1.8541 -5.70634 35
      vertex -1.39058 -4.27975 35
    endloop
  endfacet
  facet normal 0 0 1
    outer loop
      vertex -2.55468 -5.42896 35
      vertex -1.91601 -4.07172 35
      vertex -2.41122 -3.79947 35
    endloop
  endfacet
  facet normal 0 0 1
    outer loop
      vertex -1.91601 -4.07172 35
      vertex -2.55468 -5.42896 35
      vertex -1.8541 -5.70634 35
    endloop
  endfacet
  facet normal 0 0 1
    outer loop
      vertex -3.21496 -5.06597 35
      vertex -2.41122 -3.79947 35
      vertex -2.86841 -3.46731 35
    endloop
  endfacet
  facet normal 0 0 1
    outer loop
      vertex -2.41122 -3.79947 35
      vertex -3.21496 -5.06597 35
      vertex -2.55468 -5.42896 35
    endloop
  endfacet
  facet normal 0 0 1
    outer loop
      vertex -3.82454 -4.62308 35
      vertex -2.86841 -3.46731 35
      vertex -3.28036 -3.08046 35
    endloop
  endfacet
  facet normal 0 0 1
    outer loop
      vertex -4.37381 -4.10728 35
      vertex -3.28036 -3.08046 35
      vertex -3.64058 -2.64503 35
    endloop
  endfacet
  facet normal 0 0 1
    outer loop
      vertex -2.86841 -3.46731 35
      vertex -3.82454 -4.62308 35
      vertex -3.21496 -5.06597 35
    endloop
  endfacet
  facet normal 0 0 1
    outer loop
      vertex -4.8541 -3.52671 35
      vertex -3.64058 -2.64503 35
      vertex -3.94338 -2.16789 35
    endloop
  endfacet
  facet normal 0 0 1
    outer loop
      vertex -5.25784 -2.89052 35
      vertex -3.94338 -2.16789 35
      vertex -4.18399 -1.65656 35
    endloop
  endfacet
  facet normal 0 0 1
    outer loop
      vertex -5.57866 -2.20875 35
      vertex -4.18399 -1.65656 35
      vertex -4.35862 -1.1191 35
    endloop
  endfacet
  facet normal 0 0 1
    outer loop
      vertex -3.28036 -3.08046 35
      vertex -4.37381 -4.10728 35
      vertex -3.82454 -4.62308 35
    endloop
  endfacet
  facet normal 0 0 1
    outer loop
      vertex -5.8115 -1.49214 35
      vertex -4.35862 -1.1191 35
      vertex -4.46452 -0.563999 35
    endloop
  endfacet
  facet normal 0 0 1
    outer loop
      vertex -5.95269 -0.751999 35
      vertex -4.46452 -0.563999 35
      vertex -4.5 0 35
    endloop
  endfacet
  facet normal -0 0 1
    outer loop
      vertex -5.8115 1.49214 35
      vertex -4.35862 1.1191 35
      vertex -5.57866 2.20875 35
    endloop
  endfacet
  facet normal 0 0 1
    outer loop
      vertex -3.64058 -2.64503 35
      vertex -4.8541 -3.52671 35
      vertex -4.37381 -4.10728 35
    endloop
  endfacet
  facet normal 0 0 1
    outer loop
      vertex -4.35862 1.1191 35
      vertex -5.8115 1.49214 35
      vertex -4.46452 0.563999 35
    endloop
  endfacet
  facet normal 0 0 1
    outer loop
      vertex -3.94338 -2.16789 35
      vertex -5.25784 -2.89052 35
      vertex -4.8541 -3.52671 35
    endloop
  endfacet
  facet normal -0 0 1
    outer loop
      vertex -5.95269 0.751999 35
      vertex -4.46452 0.563999 35
      vertex -5.8115 1.49214 35
    endloop
  endfacet
  facet normal 0 0 1
    outer loop
      vertex -4.18399 -1.65656 35
      vertex -5.57866 -2.20875 35
      vertex -5.25784 -2.89052 35
    endloop
  endfacet
  facet normal 0 0 1
    outer loop
      vertex -4.46452 0.563999 35
      vertex -5.95269 0.751999 35
      vertex -4.5 0 35
    endloop
  endfacet
  facet normal 0 0 1
    outer loop
      vertex -4.35862 -1.1191 35
      vertex -5.8115 -1.49214 35
      vertex -5.57866 -2.20875 35
    endloop
  endfacet
  facet normal 0 0 1
    outer loop
      vertex -6 0 35
      vertex -4.5 0 35
      vertex -5.95269 0.751999 35
    endloop
  endfacet
  facet normal 0 0 1
    outer loop
      vertex -4.46452 -0.563999 35
      vertex -5.95269 -0.751999 35
      vertex -5.8115 -1.49214 35
    endloop
  endfacet
  facet normal 0 0 1
    outer loop
      vertex -4.5 0 35
      vertex -6 0 35
      vertex -5.95269 -0.751999 35
    endloop
  endfacet
  facet normal -0.481752 0.876308 0
    outer loop
      vertex -2.55468 5.42896 -35
      vertex -3.21496 5.06597 35
      vertex -2.55468 5.42896 35
    endloop
  endfacet
  facet normal -0.481752 0.876308 0
    outer loop
      vertex -3.21496 5.06597 35
      vertex -2.55468 5.42896 -35
      vertex -3.21496 5.06597 -35
    endloop
  endfacet
  facet normal -0.587789 0.809014 0
    outer loop
      vertex -3.21496 5.06597 -35
      vertex -3.82454 4.62308 35
      vertex -3.21496 5.06597 35
    endloop
  endfacet
  facet normal -0.587789 0.809014 0
    outer loop
      vertex -3.82454 4.62308 35
      vertex -3.21496 5.06597 -35
      vertex -3.82454 4.62308 -35
    endloop
  endfacet
  facet normal -0.248686 0.968584 0
    outer loop
      vertex -1.12429 5.89372 -35
      vertex -1.8541 5.70634 35
      vertex -1.12429 5.89372 35
    endloop
  endfacet
  facet normal -0.248686 0.968584 0
    outer loop
      vertex -1.8541 5.70634 35
      vertex -1.12429 5.89372 -35
      vertex -1.8541 5.70634 -35
    endloop
  endfacet
  facet normal 0.998027 -0.0627882 0
    outer loop
      vertex 5.95269 -0.751999 35
      vertex 6 0 -35
      vertex 6 0 35
    endloop
  endfacet
  facet normal 0.998027 -0.0627882 0
    outer loop
      vertex 6 0 -35
      vertex 5.95269 -0.751999 35
      vertex 5.95269 -0.751999 -35
    endloop
  endfacet
  facet normal 0.481752 -0.876308 0
    outer loop
      vertex 2.55468 -5.42896 -35
      vertex 3.21496 -5.06597 35
      vertex 2.55468 -5.42896 35
    endloop
  endfacet
  facet normal 0.481752 -0.876308 0
    outer loop
      vertex 3.21496 -5.06597 35
      vertex 2.55468 -5.42896 -35
      vertex 3.21496 -5.06597 -35
    endloop
  endfacet
  facet normal 0.684548 -0.728968 0
    outer loop
      vertex 3.82454 -4.62308 -35
      vertex 4.37381 -4.10728 35
      vertex 3.82454 -4.62308 35
    endloop
  endfacet
  facet normal 0.684548 -0.728968 0
    outer loop
      vertex 4.37381 -4.10728 35
      vertex 3.82454 -4.62308 -35
      vertex 4.37381 -4.10728 -35
    endloop
  endfacet
  facet normal 0.982287 -0.187382 0
    outer loop
      vertex 5.8115 -1.49214 35
      vertex 5.95269 -0.751999 -35
      vertex 5.95269 -0.751999 35
    endloop
  endfacet
  facet normal 0.982287 -0.187382 0
    outer loop
      vertex 5.95269 -0.751999 -35
      vertex 5.8115 -1.49214 35
      vertex 5.8115 -1.49214 -35
    endloop
  endfacet
  facet normal -0.684548 -0.728968 0
    outer loop
      vertex -4.37381 -4.10728 -35
      vertex -3.82454 -4.62308 35
      vertex -4.37381 -4.10728 35
    endloop
  endfacet
  facet normal -0.684548 -0.728968 -0
    outer loop
      vertex -3.82454 -4.62308 35
      vertex -4.37381 -4.10728 -35
      vertex -3.82454 -4.62308 -35
    endloop
  endfacet
  facet normal -0.904825 -0.425783 0
    outer loop
      vertex -5.25784 -2.89052 -35
      vertex -5.57866 -2.20875 35
      vertex -5.57866 -2.20875 -35
    endloop
  endfacet
  facet normal -0.904825 -0.425783 0
    outer loop
      vertex -5.57866 -2.20875 35
      vertex -5.25784 -2.89052 -35
      vertex -5.25784 -2.89052 35
    endloop
  endfacet
  facet normal -0.844327 -0.535828 0
    outer loop
      vertex -4.8541 -3.52671 -35
      vertex -5.25784 -2.89052 35
      vertex -5.25784 -2.89052 -35
    endloop
  endfacet
  facet normal -0.844327 -0.535828 0
    outer loop
      vertex -5.25784 -2.89052 35
      vertex -4.8541 -3.52671 -35
      vertex -4.8541 -3.52671 35
    endloop
  endfacet
  facet normal 0 0 -1
    outer loop
      vertex 4.5 0 -35
      vertex 6 0 -35
      vertex 5.95269 -0.751999 -35
    endloop
  endfacet
  facet normal 0 0 -1
    outer loop
      vertex 4.46452 -0.563999 -35
      vertex 5.95269 -0.751999 -35
      vertex 5.8115 -1.49214 -35
    endloop
  endfacet
  facet normal 0 0 -1
    outer loop
      vertex 6 0 -35
      vertex 4.5 0 -35
      vertex 5.95269 0.751999 -35
    endloop
  endfacet
  facet normal 0 0 -1
    outer loop
      vertex 4.35862 -1.1191 -35
      vertex 5.8115 -1.49214 -35
      vertex 5.57866 -2.20875 -35
    endloop
  endfacet
  facet normal 0 0 -1
    outer loop
      vertex 4.46452 0.563999 -35
      vertex 5.95269 0.751999 -35
      vertex 4.5 0 -35
    endloop
  endfacet
  facet normal 0 0 -1
    outer loop
      vertex 4.18399 -1.65656 -35
      vertex 5.57866 -2.20875 -35
      vertex 5.25784 -2.89052 -35
    endloop
  endfacet
  facet normal -0 0 -1
    outer loop
      vertex 5.95269 0.751999 -35
      vertex 4.46452 0.563999 -35
      vertex 5.8115 1.49214 -35
    endloop
  endfacet
  facet normal 0 0 -1
    outer loop
      vertex 3.94338 -2.16789 -35
      vertex 5.25784 -2.89052 -35
      vertex 4.8541 -3.52671 -35
    endloop
  endfacet
  facet normal 0 0 -1
    outer loop
      vertex 4.35862 1.1191 -35
      vertex 5.8115 1.49214 -35
      vertex 4.46452 0.563999 -35
    endloop
  endfacet
  facet normal -0 0 -1
    outer loop
      vertex 5.8115 1.49214 -35
      vertex 4.35862 1.1191 -35
      vertex 5.57866 2.20875 -35
    endloop
  endfacet
  facet normal 0 0 -1
    outer loop
      vertex 5.95269 -0.751999 -35
      vertex 4.46452 -0.563999 -35
      vertex 4.5 0 -35
    endloop
  endfacet
  facet normal 0 0 -1
    outer loop
      vertex 3.64058 -2.64503 -35
      vertex 4.8541 -3.52671 -35
      vertex 4.37381 -4.10728 -35
    endloop
  endfacet
  facet normal 0 0 -1
    outer loop
      vertex 5.8115 -1.49214 -35
      vertex 4.35862 -1.1191 -35
      vertex 4.46452 -0.563999 -35
    endloop
  endfacet
  facet normal 0 0 -1
    outer loop
      vertex 5.57866 -2.20875 -35
      vertex 4.18399 -1.65656 -35
      vertex 4.35862 -1.1191 -35
    endloop
  endfacet
  facet normal 0 0 -1
    outer loop
      vertex 5.25784 -2.89052 -35
      vertex 3.94338 -2.16789 -35
      vertex 4.18399 -1.65656 -35
    endloop
  endfacet
  facet normal 0 0 -1
    outer loop
      vertex 3.28036 -3.08046 -35
      vertex 4.37381 -4.10728 -35
      vertex 3.82454 -4.62308 -35
    endloop
  endfacet
  facet normal 0 0 -1
    outer loop
      vertex 4.8541 -3.52671 -35
      vertex 3.64058 -2.64503 -35
      vertex 3.94338 -2.16789 -35
    endloop
  endfacet
  facet normal 0 0 -1
    outer loop
      vertex 4.37381 -4.10728 -35
      vertex 3.28036 -3.08046 -35
      vertex 3.64058 -2.64503 -35
    endloop
  endfacet
  facet normal 0 0 -1
    outer loop
      vertex 2.86841 -3.46731 -35
      vertex 3.82454 -4.62308 -35
      vertex 3.21496 -5.06597 -35
    endloop
  endfacet
  facet normal 0 0 -1
    outer loop
      vertex 3.82454 -4.62308 -35
      vertex 2.86841 -3.46731 -35
      vertex 3.28036 -3.08046 -35
    endloop
  endfacet
  facet normal 0 0 -1
    outer loop
      vertex 2.41122 -3.79947 -35
      vertex 3.21496 -5.06597 -35
      vertex 2.55468 -5.42896 -35
    endloop
  endfacet
  facet normal 0 0 -1
    outer loop
      vertex 3.21496 -5.06597 -35
      vertex 2.41122 -3.79947 -35
      vertex 2.86841 -3.46731 -35
    endloop
  endfacet
  facet normal 0 0 -1
    outer loop
      vertex 2.55468 -5.42896 -35
      vertex 1.91601 -4.07172 -35
      vertex 2.41122 -3.79947 -35
    endloop
  endfacet
  facet normal 0 0 -1
    outer loop
      vertex 1.8541 -5.70634 -35
      vertex 1.91601 -4.07172 -35
      vertex 2.55468 -5.42896 -35
    endloop
  endfacet
  facet normal 0 0 -1
    outer loop
      vertex 1.8541 -5.70634 -35
      vertex 1.39058 -4.27975 -35
      vertex 1.91601 -4.07172 -35
    endloop
  endfacet
  facet normal 0 0 -1
    outer loop
      vertex 1.12429 -5.89372 -35
      vertex 1.39058 -4.27975 -35
      vertex 1.8541 -5.70634 -35
    endloop
  endfacet
  facet normal 0 0 -1
    outer loop
      vertex 1.12429 -5.89372 -35
      vertex 0.843215 -4.42029 -35
      vertex 1.39058 -4.27975 -35
    endloop
  endfacet
  facet normal 0 0 -1
    outer loop
      vertex 0.376742 -5.98816 -35
      vertex 0.843215 -4.42029 -35
      vertex 1.12429 -5.89372 -35
    endloop
  endfacet
  facet normal 0 0 -1
    outer loop
      vertex 0.376742 -5.98816 -35
      vertex 0.282557 -4.49112 -35
      vertex 0.843215 -4.42029 -35
    endloop
  endfacet
  facet normal 0 0 -1
    outer loop
      vertex 0.376742 -5.98816 -35
      vertex -0.282557 -4.49112 -35
      vertex 0.282557 -4.49112 -35
    endloop
  endfacet
  facet normal 0 0 -1
    outer loop
      vertex -0.376742 -5.98816 -35
      vertex -0.282557 -4.49112 -35
      vertex 0.376742 -5.98816 -35
    endloop
  endfacet
  facet normal 0 0 -1
    outer loop
      vertex -0.376742 -5.98816 -35
      vertex -0.843215 -4.42029 -35
      vertex -0.282557 -4.49112 -35
    endloop
  endfacet
  facet normal 0 0 -1
    outer loop
      vertex -1.12429 -5.89372 -35
      vertex -0.843215 -4.42029 -35
      vertex -0.376742 -5.98816 -35
    endloop
  endfacet
  facet normal 0 0 -1
    outer loop
      vertex -1.12429 -5.89372 -35
      vertex -1.39058 -4.27975 -35
      vertex -0.843215 -4.42029 -35
    endloop
  endfacet
  facet normal 0 0 -1
    outer loop
      vertex -1.8541 -5.70634 -35
      vertex -1.39058 -4.27975 -35
      vertex -1.12429 -5.89372 -35
    endloop
  endfacet
  facet normal 0 0 -1
    outer loop
      vertex -1.8541 -5.70634 -35
      vertex -1.91601 -4.07172 -35
      vertex -1.39058 -4.27975 -35
    endloop
  endfacet
  facet normal 0 0 -1
    outer loop
      vertex -2.55468 -5.42896 -35
      vertex -1.91601 -4.07172 -35
      vertex -1.8541 -5.70634 -35
    endloop
  endfacet
  facet normal -0 0 -1
    outer loop
      vertex -1.91601 -4.07172 -35
      vertex -2.55468 -5.42896 -35
      vertex -2.41122 -3.79947 -35
    endloop
  endfacet
  facet normal 0 0 -1
    outer loop
      vertex -3.21496 -5.06597 -35
      vertex -2.41122 -3.79947 -35
      vertex -2.55468 -5.42896 -35
    endloop
  endfacet
  facet normal -0 0 -1
    outer loop
      vertex -2.41122 -3.79947 -35
      vertex -3.21496 -5.06597 -35
      vertex -2.86841 -3.46731 -35
    endloop
  endfacet
  facet normal 0 0 -1
    outer loop
      vertex -3.82454 -4.62308 -35
      vertex -2.86841 -3.46731 -35
      vertex -3.21496 -5.06597 -35
    endloop
  endfacet
  facet normal -0 0 -1
    outer loop
      vertex -2.86841 -3.46731 -35
      vertex -3.82454 -4.62308 -35
      vertex -3.28036 -3.08046 -35
    endloop
  endfacet
  facet normal 0 0 -1
    outer loop
      vertex -4.37381 -4.10728 -35
      vertex -3.28036 -3.08046 -35
      vertex -3.82454 -4.62308 -35
    endloop
  endfacet
  facet normal -0 0 -1
    outer loop
      vertex -3.28036 -3.08046 -35
      vertex -4.37381 -4.10728 -35
      vertex -3.64058 -2.64503 -35
    endloop
  endfacet
  facet normal 0 0 -1
    outer loop
      vertex -4.8541 -3.52671 -35
      vertex -3.64058 -2.64503 -35
      vertex -4.37381 -4.10728 -35
    endloop
  endfacet
  facet normal -0 0 -1
    outer loop
      vertex -3.64058 -2.64503 -35
      vertex -4.8541 -3.52671 -35
      vertex -3.94338 -2.16789 -35
    endloop
  endfacet
  facet normal 0 0 -1
    outer loop
      vertex -5.25784 -2.89052 -35
      vertex -3.94338 -2.16789 -35
      vertex -4.8541 -3.52671 -35
    endloop
  endfacet
  facet normal -0 0 -1
    outer loop
      vertex -3.94338 -2.16789 -35
      vertex -5.25784 -2.89052 -35
      vertex -4.18399 -1.65656 -35
    endloop
  endfacet
  facet normal 0 0 -1
    outer loop
      vertex -5.57866 -2.20875 -35
      vertex -4.18399 -1.65656 -35
      vertex -5.25784 -2.89052 -35
    endloop
  endfacet
  facet normal -0 0 -1
    outer loop
      vertex -4.18399 -1.65656 -35
      vertex -5.57866 -2.20875 -35
      vertex -4.35862 -1.1191 -35
    endloop
  endfacet
  facet normal 0 0 -1
    outer loop
      vertex 4.18399 1.65656 -35
      vertex 5.57866 2.20875 -35
      vertex 4.35862 1.1191 -35
    endloop
  endfacet
  facet normal -0 0 -1
    outer loop
      vertex 5.57866 2.20875 -35
      vertex 4.18399 1.65656 -35
      vertex 5.25784 2.89052 -35
    endloop
  endfacet
  facet normal 0 0 -1
    outer loop
      vertex 3.94338 2.16789 -35
      vertex 5.25784 2.89052 -35
      vertex 4.18399 1.65656 -35
    endloop
  endfacet
  facet normal -0 0 -1
    outer loop
      vertex 5.25784 2.89052 -35
      vertex 3.94338 2.16789 -35
      vertex 4.8541 3.52671 -35
    endloop
  endfacet
  facet normal 0 0 -1
    outer loop
      vertex 3.64058 2.64503 -35
      vertex 4.8541 3.52671 -35
      vertex 3.94338 2.16789 -35
    endloop
  endfacet
  facet normal -0 0 -1
    outer loop
      vertex 4.8541 3.52671 -35
      vertex 3.64058 2.64503 -35
      vertex 4.37381 4.10728 -35
    endloop
  endfacet
  facet normal 0 0 -1
    outer loop
      vertex 3.28036 3.08046 -35
      vertex 4.37381 4.10728 -35
      vertex 3.64058 2.64503 -35
    endloop
  endfacet
  facet normal -0 0 -1
    outer loop
      vertex 4.37381 4.10728 -35
      vertex 3.28036 3.08046 -35
      vertex 3.82454 4.62308 -35
    endloop
  endfacet
  facet normal 0 0 -1
    outer loop
      vertex 2.86841 3.46731 -35
      vertex 3.82454 4.62308 -35
      vertex 3.28036 3.08046 -35
    endloop
  endfacet
  facet normal -0 0 -1
    outer loop
      vertex 3.82454 4.62308 -35
      vertex 2.86841 3.46731 -35
      vertex 3.21496 5.06597 -35
    endloop
  endfacet
  facet normal 0 0 -1
    outer loop
      vertex 2.41122 3.79947 -35
      vertex 3.21496 5.06597 -35
      vertex 2.86841 3.46731 -35
    endloop
  endfacet
  facet normal -0 0 -1
    outer loop
      vertex 3.21496 5.06597 -35
      vertex 2.41122 3.79947 -35
      vertex 2.55468 5.42896 -35
    endloop
  endfacet
  facet normal 0 0 -1
    outer loop
      vertex 1.91601 4.07172 -35
      vertex 2.55468 5.42896 -35
      vertex 2.41122 3.79947 -35
    endloop
  endfacet
  facet normal 0 0 -1
    outer loop
      vertex 1.91601 4.07172 -35
      vertex 1.8541 5.70634 -35
      vertex 2.55468 5.42896 -35
    endloop
  endfacet
  facet normal 0 0 -1
    outer loop
      vertex 1.39058 4.27975 -35
      vertex 1.8541 5.70634 -35
      vertex 1.91601 4.07172 -35
    endloop
  endfacet
  facet normal 0 0 -1
    outer loop
      vertex 1.39058 4.27975 -35
      vertex 1.12429 5.89372 -35
      vertex 1.8541 5.70634 -35
    endloop
  endfacet
  facet normal 0 0 -1
    outer loop
      vertex 0.843215 4.42029 -35
      vertex 1.12429 5.89372 -35
      vertex 1.39058 4.27975 -35
    endloop
  endfacet
  facet normal 0 0 -1
    outer loop
      vertex 0.843215 4.42029 -35
      vertex 0.376742 5.98816 -35
      vertex 1.12429 5.89372 -35
    endloop
  endfacet
  facet normal 0 0 -1
    outer loop
      vertex 0.282557 4.49112 -35
      vertex 0.376742 5.98816 -35
      vertex 0.843215 4.42029 -35
    endloop
  endfacet
  facet normal 0 0 -1
    outer loop
      vertex -0.282557 4.49112 -35
      vertex 0.376742 5.98816 -35
      vertex 0.282557 4.49112 -35
    endloop
  endfacet
  facet normal 0 0 -1
    outer loop
      vertex -0.282557 4.49112 -35
      vertex -0.376742 5.98816 -35
      vertex 0.376742 5.98816 -35
    endloop
  endfacet
  facet normal 0 0 -1
    outer loop
      vertex -0.843215 4.42029 -35
      vertex -0.376742 5.98816 -35
      vertex -0.282557 4.49112 -35
    endloop
  endfacet
  facet normal 0 0 -1
    outer loop
      vertex -0.843215 4.42029 -35
      vertex -1.12429 5.89372 -35
      vertex -0.376742 5.98816 -35
    endloop
  endfacet
  facet normal 0 0 -1
    outer loop
      vertex -1.39058 4.27975 -35
      vertex -1.12429 5.89372 -35
      vertex -0.843215 4.42029 -35
    endloop
  endfacet
  facet normal 0 0 -1
    outer loop
      vertex -1.39058 4.27975 -35
      vertex -1.8541 5.70634 -35
      vertex -1.12429 5.89372 -35
    endloop
  endfacet
  facet normal 0 0 -1
    outer loop
      vertex -1.91601 4.07172 -35
      vertex -1.8541 5.70634 -35
      vertex -1.39058 4.27975 -35
    endloop
  endfacet
  facet normal 0 0 -1
    outer loop
      vertex -2.55468 5.42896 -35
      vertex -1.91601 4.07172 -35
      vertex -2.41122 3.79947 -35
    endloop
  endfacet
  facet normal 0 0 -1
    outer loop
      vertex -1.91601 4.07172 -35
      vertex -2.55468 5.42896 -35
      vertex -1.8541 5.70634 -35
    endloop
  endfacet
  facet normal 0 0 -1
    outer loop
      vertex -3.21496 5.06597 -35
      vertex -2.41122 3.79947 -35
      vertex -2.86841 3.46731 -35
    endloop
  endfacet
  facet normal 0 0 -1
    outer loop
      vertex -2.41122 3.79947 -35
      vertex -3.21496 5.06597 -35
      vertex -2.55468 5.42896 -35
    endloop
  endfacet
  facet normal 0 0 -1
    outer loop
      vertex -3.82454 4.62308 -35
      vertex -2.86841 3.46731 -35
      vertex -3.28036 3.08046 -35
    endloop
  endfacet
  facet normal 0 0 -1
    outer loop
      vertex -4.37381 4.10728 -35
      vertex -3.28036 3.08046 -35
      vertex -3.64058 2.64503 -35
    endloop
  endfacet
  facet normal 0 0 -1
    outer loop
      vertex -2.86841 3.46731 -35
      vertex -3.82454 4.62308 -35
      vertex -3.21496 5.06597 -35
    endloop
  endfacet
  facet normal 0 0 -1
    outer loop
      vertex -4.8541 3.52671 -35
      vertex -3.64058 2.64503 -35
      vertex -3.94338 2.16789 -35
    endloop
  endfacet
  facet normal 0 0 -1
    outer loop
      vertex -5.25784 2.89052 -35
      vertex -3.94338 2.16789 -35
      vertex -4.18399 1.65656 -35
    endloop
  endfacet
  facet normal 0 0 -1
    outer loop
      vertex -5.57866 2.20875 -35
      vertex -4.18399 1.65656 -35
      vertex -4.35862 1.1191 -35
    endloop
  endfacet
  facet normal 0 0 -1
    outer loop
      vertex -3.28036 3.08046 -35
      vertex -4.37381 4.10728 -35
      vertex -3.82454 4.62308 -35
    endloop
  endfacet
  facet normal 0 0 -1
    outer loop
      vertex -5.8115 1.49214 -35
      vertex -4.35862 1.1191 -35
      vertex -4.46452 0.563999 -35
    endloop
  endfacet
  facet normal 0 0 -1
    outer loop
      vertex -5.95269 0.751999 -35
      vertex -4.46452 0.563999 -35
      vertex -4.5 0 -35
    endloop
  endfacet
  facet normal 0 0 -1
    outer loop
      vertex -5.8115 -1.49214 -35
      vertex -4.35862 -1.1191 -35
      vertex -5.57866 -2.20875 -35
    endloop
  endfacet
  facet normal 0 0 -1
    outer loop
      vertex -3.64058 2.64503 -35
      vertex -4.8541 3.52671 -35
      vertex -4.37381 4.10728 -35
    endloop
  endfacet
  facet normal -0 0 -1
    outer loop
      vertex -4.35862 -1.1191 -35
      vertex -5.8115 -1.49214 -35
      vertex -4.46452 -0.563999 -35
    endloop
  endfacet
  facet normal 0 0 -1
    outer loop
      vertex -3.94338 2.16789 -35
      vertex -5.25784 2.89052 -35
      vertex -4.8541 3.52671 -35
    endloop
  endfacet
  facet normal 0 0 -1
    outer loop
      vertex -5.95269 -0.751999 -35
      vertex -4.46452 -0.563999 -35
      vertex -5.8115 -1.49214 -35
    endloop
  endfacet
  facet normal 0 0 -1
    outer loop
      vertex -4.18399 1.65656 -35
      vertex -5.57866 2.20875 -35
      vertex -5.25784 2.89052 -35
    endloop
  endfacet
  facet normal -0 0 -1
    outer loop
      vertex -4.46452 -0.563999 -35
      vertex -5.95269 -0.751999 -35
      vertex -4.5 0 -35
    endloop
  endfacet
  facet normal 0 0 -1
    outer loop
      vertex -4.35862 1.1191 -35
      vertex -5.8115 1.49214 -35
      vertex -5.57866 2.20875 -35
    endloop
  endfacet
  facet normal 0 0 -1
    outer loop
      vertex -6 0 -35
      vertex -4.5 0 -35
      vertex -5.95269 -0.751999 -35
    endloop
  endfacet
  facet normal 0 0 -1
    outer loop
      vertex -4.46452 0.563999 -35
      vertex -5.95269 0.751999 -35
      vertex -5.8115 1.49214 -35
    endloop
  endfacet
  facet normal 0 0 -1
    outer loop
      vertex -4.5 0 -35
      vertex -6 0 -35
      vertex -5.95269 0.751999 -35
    endloop
  endfacet
  facet normal 0.904825 -0.425783 0
    outer loop
      vertex 5.25784 -2.89052 35
      vertex 5.57866 -2.20875 -35
      vertex 5.57866 -2.20875 35
    endloop
  endfacet
  facet normal 0.904825 -0.425783 0
    outer loop
      vertex 5.57866 -2.20875 -35
      vertex 5.25784 -2.89052 35
      vertex 5.25784 -2.89052 -35
    endloop
  endfacet
  facet normal 0.770513 -0.637425 0
    outer loop
      vertex 4.37381 -4.10728 35
      vertex 4.8541 -3.52671 -35
      vertex 4.8541 -3.52671 35
    endloop
  endfacet
  facet normal 0.770513 -0.637425 0
    outer loop
      vertex 4.8541 -3.52671 -35
      vertex 4.37381 -4.10728 35
      vertex 4.37381 -4.10728 -35
    endloop
  endfacet
  facet normal -0.770513 -0.637425 0
    outer loop
      vertex -4.37381 -4.10728 -35
      vertex -4.8541 -3.52671 35
      vertex -4.8541 -3.52671 -35
    endloop
  endfacet
  facet normal -0.770513 -0.637425 0
    outer loop
      vertex -4.8541 -3.52671 35
      vertex -4.37381 -4.10728 -35
      vertex -4.37381 -4.10728 35
    endloop
  endfacet
  facet normal -0.951057 -0.309016 0
    outer loop
      vertex -5.57866 -2.20875 -35
      vertex -5.8115 -1.49214 35
      vertex -5.8115 -1.49214 -35
    endloop
  endfacet
  facet normal -0.951057 -0.309016 0
    outer loop
      vertex -5.8115 -1.49214 35
      vertex -5.57866 -2.20875 -35
      vertex -5.57866 -2.20875 35
    endloop
  endfacet
  facet normal 0.248686 -0.968584 0
    outer loop
      vertex 1.12429 -5.89372 -35
      vertex 1.8541 -5.70634 35
      vertex 1.12429 -5.89372 35
    endloop
  endfacet
  facet normal 0.248686 -0.968584 0
    outer loop
      vertex 1.8541 -5.70634 35
      vertex 1.12429 -5.89372 -35
      vertex 1.8541 -5.70634 -35
    endloop
  endfacet
  facet normal 0.587789 -0.809014 0
    outer loop
      vertex 3.21496 -5.06597 -35
      vertex 3.82454 -4.62308 35
      vertex 3.21496 -5.06597 35
    endloop
  endfacet
  facet normal 0.587789 -0.809014 0
    outer loop
      vertex 3.82454 -4.62308 35
      vertex 3.21496 -5.06597 -35
      vertex 3.82454 -4.62308 -35
    endloop
  endfacet
  facet normal 0.951057 -0.309016 0
    outer loop
      vertex 5.57866 -2.20875 35
      vertex 5.8115 -1.49214 -35
      vertex 5.8115 -1.49214 35
    endloop
  endfacet
  facet normal 0.951057 -0.309016 0
    outer loop
      vertex 5.8115 -1.49214 -35
      vertex 5.57866 -2.20875 35
      vertex 5.57866 -2.20875 -35
    endloop
  endfacet
  facet normal 0.844327 -0.535828 0
    outer loop
      vertex 4.8541 -3.52671 35
      vertex 5.25784 -2.89052 -35
      vertex 5.25784 -2.89052 35
    endloop
  endfacet
  facet normal 0.844327 -0.535828 0
    outer loop
      vertex 5.25784 -2.89052 -35
      vertex 4.8541 -3.52671 35
      vertex 4.8541 -3.52671 -35
    endloop
  endfacet
  facet normal -0.368125 -0.929776 0
    outer loop
      vertex -2.55468 -5.42896 -35
      vertex -1.8541 -5.70634 35
      vertex -2.55468 -5.42896 35
    endloop
  endfacet
  facet normal -0.368125 -0.929776 -0
    outer loop
      vertex -1.8541 -5.70634 35
      vertex -2.55468 -5.42896 -35
      vertex -1.8541 -5.70634 -35
    endloop
  endfacet
  facet normal -0.248686 -0.968584 0
    outer loop
      vertex -1.8541 -5.70634 -35
      vertex -1.12429 -5.89372 35
      vertex -1.8541 -5.70634 35
    endloop
  endfacet
  facet normal -0.248686 -0.968584 -0
    outer loop
      vertex -1.12429 -5.89372 35
      vertex -1.8541 -5.70634 -35
      vertex -1.12429 -5.89372 -35
    endloop
  endfacet
  facet normal -0.982287 -0.187382 0
    outer loop
      vertex -5.8115 -1.49214 -35
      vertex -5.95269 -0.751999 35
      vertex -5.95269 -0.751999 -35
    endloop
  endfacet
  facet normal -0.982287 -0.187382 0
    outer loop
      vertex -5.95269 -0.751999 35
      vertex -5.8115 -1.49214 -35
      vertex -5.8115 -1.49214 35
    endloop
  endfacet
  facet normal -0.998027 -0.0627882 0
    outer loop
      vertex -5.95269 -0.751999 -35
      vertex -6 0 35
      vertex -6 0 -35
    endloop
  endfacet
  facet normal -0.998027 -0.0627882 0
    outer loop
      vertex -6 0 35
      vertex -5.95269 -0.751999 -35
      vertex -5.95269 -0.751999 35
    endloop
  endfacet
  facet normal -0.125337 -0.992114 0
    outer loop
      vertex -1.12429 -5.89372 -35
      vertex -0.376742 -5.98816 35
      vertex -1.12429 -5.89372 35
    endloop
  endfacet
  facet normal -0.125337 -0.992114 -0
    outer loop
      vertex -0.376742 -5.98816 35
      vertex -1.12429 -5.89372 -35
      vertex -0.376742 -5.98816 -35
    endloop
  endfacet
  facet normal -0.481752 -0.876308 0
    outer loop
      vertex -3.21496 -5.06597 -35
      vertex -2.55468 -5.42896 35
      vertex -3.21496 -5.06597 35
    endloop
  endfacet
  facet normal -0.481752 -0.876308 -0
    outer loop
      vertex -2.55468 -5.42896 35
      vertex -3.21496 -5.06597 -35
      vertex -2.55468 -5.42896 -35
    endloop
  endfacet
  facet normal -0.587789 -0.809014 0
    outer loop
      vertex -3.82454 -4.62308 -35
      vertex -3.21496 -5.06597 35
      vertex -3.82454 -4.62308 35
    endloop
  endfacet
  facet normal -0.587789 -0.809014 -0
    outer loop
      vertex -3.21496 -5.06597 35
      vertex -3.82454 -4.62308 -35
      vertex -3.21496 -5.06597 -35
    endloop
  endfacet
  facet normal -0.998027 -0.0627838 0
    outer loop
      vertex 4.5 0 -35
      vertex 4.46452 0.563999 35
      vertex 4.46452 0.563999 -35
    endloop
  endfacet
  facet normal -0.998027 -0.0627838 0
    outer loop
      vertex 4.46452 0.563999 35
      vertex 4.5 0 -35
      vertex 4.5 0 35
    endloop
  endfacet
  facet normal 0.998027 -0.0627838 0
    outer loop
      vertex -4.5 0 35
      vertex -4.46452 0.563999 -35
      vertex -4.46452 0.563999 35
    endloop
  endfacet
  facet normal 0.998027 -0.0627838 0
    outer loop
      vertex -4.46452 0.563999 -35
      vertex -4.5 0 35
      vertex -4.5 0 -35
    endloop
  endfacet
  facet normal 0 -1 0
    outer loop
      vertex -0.282557 4.49112 -35
      vertex 0.282557 4.49112 35
      vertex -0.282557 4.49112 35
    endloop
  endfacet
  facet normal 0 -1 -0
    outer loop
      vertex 0.282557 4.49112 35
      vertex -0.282557 4.49112 -35
      vertex 0.282557 4.49112 -35
    endloop
  endfacet
  facet normal -0.68455 -0.728966 0
    outer loop
      vertex 2.86841 3.46731 -35
      vertex 3.28036 3.08046 35
      vertex 2.86841 3.46731 35
    endloop
  endfacet
  facet normal -0.68455 -0.728966 -0
    outer loop
      vertex 3.28036 3.08046 35
      vertex 2.86841 3.46731 -35
      vertex 3.28036 3.08046 -35
    endloop
  endfacet
  facet normal 0.68455 -0.728966 0
    outer loop
      vertex -3.28036 3.08046 -35
      vertex -2.86841 3.46731 35
      vertex -3.28036 3.08046 35
    endloop
  endfacet
  facet normal 0.68455 -0.728966 0
    outer loop
      vertex -2.86841 3.46731 35
      vertex -3.28036 3.08046 -35
      vertex -2.86841 3.46731 -35
    endloop
  endfacet
  facet normal 0.368121 -0.929778 0
    outer loop
      vertex -1.91601 4.07172 -35
      vertex -1.39058 4.27975 35
      vertex -1.91601 4.07172 35
    endloop
  endfacet
  facet normal 0.368121 -0.929778 0
    outer loop
      vertex -1.39058 4.27975 35
      vertex -1.91601 4.07172 -35
      vertex -1.39058 4.27975 -35
    endloop
  endfacet
  facet normal -0.90483 -0.425774 0
    outer loop
      vertex 4.18399 1.65656 -35
      vertex 3.94338 2.16789 35
      vertex 3.94338 2.16789 -35
    endloop
  endfacet
  facet normal -0.90483 -0.425774 0
    outer loop
      vertex 3.94338 2.16789 35
      vertex 4.18399 1.65656 -35
      vertex 4.18399 1.65656 35
    endloop
  endfacet
  facet normal -0.982284 -0.187396 0
    outer loop
      vertex 4.46452 0.563999 -35
      vertex 4.35862 1.1191 35
      vertex 4.35862 1.1191 -35
    endloop
  endfacet
  facet normal -0.982284 -0.187396 0
    outer loop
      vertex 4.35862 1.1191 35
      vertex 4.46452 0.563999 -35
      vertex 4.46452 0.563999 35
    endloop
  endfacet
  facet normal -0.368121 -0.929778 0
    outer loop
      vertex 1.39058 4.27975 -35
      vertex 1.91601 4.07172 35
      vertex 1.39058 4.27975 35
    endloop
  endfacet
  facet normal -0.368121 -0.929778 -0
    outer loop
      vertex 1.91601 4.07172 35
      vertex 1.39058 4.27975 -35
      vertex 1.91601 4.07172 -35
    endloop
  endfacet
  facet normal -0.248691 -0.968583 0
    outer loop
      vertex 0.843215 4.42029 -35
      vertex 1.39058 4.27975 35
      vertex 0.843215 4.42029 35
    endloop
  endfacet
  facet normal -0.248691 -0.968583 -0
    outer loop
      vertex 1.39058 4.27975 35
      vertex 0.843215 4.42029 -35
      vertex 1.39058 4.27975 -35
    endloop
  endfacet
  facet normal -0.587776 -0.809024 0
    outer loop
      vertex 2.41122 3.79947 -35
      vertex 2.86841 3.46731 35
      vertex 2.41122 3.79947 35
    endloop
  endfacet
  facet normal -0.587776 -0.809024 -0
    outer loop
      vertex 2.86841 3.46731 35
      vertex 2.41122 3.79947 -35
      vertex 2.86841 3.46731 -35
    endloop
  endfacet
  facet normal 0.90483 -0.425774 0
    outer loop
      vertex -4.18399 1.65656 35
      vertex -3.94338 2.16789 -35
      vertex -3.94338 2.16789 35
    endloop
  endfacet
  facet normal 0.90483 -0.425774 0
    outer loop
      vertex -3.94338 2.16789 -35
      vertex -4.18399 1.65656 35
      vertex -4.18399 1.65656 -35
    endloop
  endfacet
  facet normal 0.84433 -0.535824 0
    outer loop
      vertex -3.94338 2.16789 35
      vertex -3.64058 2.64503 -35
      vertex -3.64058 2.64503 35
    endloop
  endfacet
  facet normal 0.84433 -0.535824 0
    outer loop
      vertex -3.64058 2.64503 -35
      vertex -3.94338 2.16789 35
      vertex -3.94338 2.16789 -35
    endloop
  endfacet
  facet normal 0.951057 -0.309015 0
    outer loop
      vertex -4.35862 1.1191 35
      vertex -4.18399 1.65656 -35
      vertex -4.18399 1.65656 35
    endloop
  endfacet
  facet normal 0.951057 -0.309015 0
    outer loop
      vertex -4.18399 1.65656 -35
      vertex -4.35862 1.1191 35
      vertex -4.35862 1.1191 -35
    endloop
  endfacet
  facet normal 0.481762 -0.876302 0
    outer loop
      vertex -2.41122 3.79947 -35
      vertex -1.91601 4.07172 35
      vertex -2.41122 3.79947 35
    endloop
  endfacet
  facet normal 0.481762 -0.876302 0
    outer loop
      vertex -1.91601 4.07172 35
      vertex -2.41122 3.79947 -35
      vertex -1.91601 4.07172 -35
    endloop
  endfacet
  facet normal 0.125337 -0.992114 0
    outer loop
      vertex -0.843215 4.42029 -35
      vertex -0.282557 4.49112 35
      vertex -0.843215 4.42029 35
    endloop
  endfacet
  facet normal 0.125337 -0.992114 0
    outer loop
      vertex -0.282557 4.49112 35
      vertex -0.843215 4.42029 -35
      vertex -0.282557 4.49112 -35
    endloop
  endfacet
  facet normal -0.84433 0.535824 0
    outer loop
      vertex 3.64058 -2.64503 -35
      vertex 3.94338 -2.16789 35
      vertex 3.94338 -2.16789 -35
    endloop
  endfacet
  facet normal -0.84433 0.535824 0
    outer loop
      vertex 3.94338 -2.16789 35
      vertex 3.64058 -2.64503 -35
      vertex 3.64058 -2.64503 35
    endloop
  endfacet
  facet normal -0.998027 0.0627838 0
    outer loop
      vertex 4.46452 -0.563999 -35
      vertex 4.5 0 35
      vertex 4.5 0 -35
    endloop
  endfacet
  facet normal -0.998027 0.0627838 0
    outer loop
      vertex 4.5 0 35
      vertex 4.46452 -0.563999 -35
      vertex 4.46452 -0.563999 35
    endloop
  endfacet
  facet normal 0.125337 0.992114 -0
    outer loop
      vertex -0.282557 -4.49112 -35
      vertex -0.843215 -4.42029 35
      vertex -0.282557 -4.49112 35
    endloop
  endfacet
  facet normal 0.125337 0.992114 0
    outer loop
      vertex -0.843215 -4.42029 35
      vertex -0.282557 -4.49112 -35
      vertex -0.843215 -4.42029 -35
    endloop
  endfacet
  facet normal -0.951057 -0.309015 0
    outer loop
      vertex 4.35862 1.1191 -35
      vertex 4.18399 1.65656 35
      vertex 4.18399 1.65656 -35
    endloop
  endfacet
  facet normal -0.951057 -0.309015 0
    outer loop
      vertex 4.18399 1.65656 35
      vertex 4.35862 1.1191 -35
      vertex 4.35862 1.1191 35
    endloop
  endfacet
  facet normal -0.770512 -0.637425 0
    outer loop
      vertex 3.64058 2.64503 -35
      vertex 3.28036 3.08046 35
      vertex 3.28036 3.08046 -35
    endloop
  endfacet
  facet normal -0.770512 -0.637425 0
    outer loop
      vertex 3.28036 3.08046 35
      vertex 3.64058 2.64503 -35
      vertex 3.64058 2.64503 35
    endloop
  endfacet
  facet normal -0.84433 -0.535824 0
    outer loop
      vertex 3.94338 2.16789 -35
      vertex 3.64058 2.64503 35
      vertex 3.64058 2.64503 -35
    endloop
  endfacet
  facet normal -0.84433 -0.535824 0
    outer loop
      vertex 3.64058 2.64503 35
      vertex 3.94338 2.16789 -35
      vertex 3.94338 2.16789 35
    endloop
  endfacet
  facet normal -0.125337 -0.992114 0
    outer loop
      vertex 0.282557 4.49112 -35
      vertex 0.843215 4.42029 35
      vertex 0.282557 4.49112 35
    endloop
  endfacet
  facet normal -0.125337 -0.992114 -0
    outer loop
      vertex 0.843215 4.42029 35
      vertex 0.282557 4.49112 -35
      vertex 0.843215 4.42029 -35
    endloop
  endfacet
  facet normal 0.770512 -0.637425 0
    outer loop
      vertex -3.64058 2.64503 35
      vertex -3.28036 3.08046 -35
      vertex -3.28036 3.08046 35
    endloop
  endfacet
  facet normal 0.770512 -0.637425 0
    outer loop
      vertex -3.28036 3.08046 -35
      vertex -3.64058 2.64503 35
      vertex -3.64058 2.64503 -35
    endloop
  endfacet
  facet normal 0.982284 -0.187396 0
    outer loop
      vertex -4.46452 0.563999 35
      vertex -4.35862 1.1191 -35
      vertex -4.35862 1.1191 35
    endloop
  endfacet
  facet normal 0.982284 -0.187396 0
    outer loop
      vertex -4.35862 1.1191 -35
      vertex -4.46452 0.563999 35
      vertex -4.46452 0.563999 -35
    endloop
  endfacet
  facet normal 0.587776 -0.809024 0
    outer loop
      vertex -2.86841 3.46731 -35
      vertex -2.41122 3.79947 35
      vertex -2.86841 3.46731 35
    endloop
  endfacet
  facet normal 0.587776 -0.809024 0
    outer loop
      vertex -2.41122 3.79947 35
      vertex -2.86841 3.46731 -35
      vertex -2.41122 3.79947 -35
    endloop
  endfacet
  facet normal 0.248691 -0.968583 0
    outer loop
      vertex -1.39058 4.27975 -35
      vertex -0.843215 4.42029 35
      vertex -1.39058 4.27975 35
    endloop
  endfacet
  facet normal 0.248691 -0.968583 0
    outer loop
      vertex -0.843215 4.42029 35
      vertex -1.39058 4.27975 -35
      vertex -0.843215 4.42029 -35
    endloop
  endfacet
  facet normal -0.982284 0.187396 0
    outer loop
      vertex 4.35862 -1.1191 -35
      vertex 4.46452 -0.563999 35
      vertex 4.46452 -0.563999 -35
    endloop
  endfacet
  facet normal -0.982284 0.187396 0
    outer loop
      vertex 4.46452 -0.563999 35
      vertex 4.35862 -1.1191 -35
      vertex 4.35862 -1.1191 35
    endloop
  endfacet
  facet normal 0.84433 0.535824 0
    outer loop
      vertex -3.64058 -2.64503 35
      vertex -3.94338 -2.16789 -35
      vertex -3.94338 -2.16789 35
    endloop
  endfacet
  facet normal 0.84433 0.535824 0
    outer loop
      vertex -3.94338 -2.16789 -35
      vertex -3.64058 -2.64503 35
      vertex -3.64058 -2.64503 -35
    endloop
  endfacet
  facet normal 0.90483 0.425774 0
    outer loop
      vertex -3.94338 -2.16789 35
      vertex -4.18399 -1.65656 -35
      vertex -4.18399 -1.65656 35
    endloop
  endfacet
  facet normal 0.90483 0.425774 0
    outer loop
      vertex -4.18399 -1.65656 -35
      vertex -3.94338 -2.16789 35
      vertex -3.94338 -2.16789 -35
    endloop
  endfacet
  facet normal 0.951057 0.309015 0
    outer loop
      vertex -4.18399 -1.65656 35
      vertex -4.35862 -1.1191 -35
      vertex -4.35862 -1.1191 35
    endloop
  endfacet
  facet normal 0.951057 0.309015 0
    outer loop
      vertex -4.35862 -1.1191 -35
      vertex -4.18399 -1.65656 35
      vertex -4.18399 -1.65656 -35
    endloop
  endfacet
  facet normal -0.481762 0.876302 0
    outer loop
      vertex 2.41122 -3.79947 -35
      vertex 1.91601 -4.07172 35
      vertex 2.41122 -3.79947 35
    endloop
  endfacet
  facet normal -0.481762 0.876302 0
    outer loop
      vertex 1.91601 -4.07172 35
      vertex 2.41122 -3.79947 -35
      vertex 1.91601 -4.07172 -35
    endloop
  endfacet
  facet normal -0.481762 -0.876302 0
    outer loop
      vertex 1.91601 4.07172 -35
      vertex 2.41122 3.79947 35
      vertex 1.91601 4.07172 35
    endloop
  endfacet
  facet normal -0.481762 -0.876302 -0
    outer loop
      vertex 2.41122 3.79947 35
      vertex 1.91601 4.07172 -35
      vertex 2.41122 3.79947 -35
    endloop
  endfacet
  facet normal -0.951057 0.309015 0
    outer loop
      vertex 4.18399 -1.65656 -35
      vertex 4.35862 -1.1191 35
      vertex 4.35862 -1.1191 -35
    endloop
  endfacet
  facet normal -0.951057 0.309015 0
    outer loop
      vertex 4.35862 -1.1191 35
      vertex 4.18399 -1.65656 -35
      vertex 4.18399 -1.65656 35
    endloop
  endfacet
  facet normal -0.90483 0.425774 0
    outer loop
      vertex 3.94338 -2.16789 -35
      vertex 4.18399 -1.65656 35
      vertex 4.18399 -1.65656 -35
    endloop
  endfacet
  facet normal -0.90483 0.425774 0
    outer loop
      vertex 4.18399 -1.65656 35
      vertex 3.94338 -2.16789 -35
      vertex 3.94338 -2.16789 35
    endloop
  endfacet
  facet normal 0.368121 0.929778 -0
    outer loop
      vertex -1.39058 -4.27975 -35
      vertex -1.91601 -4.07172 35
      vertex -1.39058 -4.27975 35
    endloop
  endfacet
  facet normal 0.368121 0.929778 0
    outer loop
      vertex -1.91601 -4.07172 35
      vertex -1.39058 -4.27975 -35
      vertex -1.91601 -4.07172 -35
    endloop
  endfacet
  facet normal 0.998027 0.0627838 0
    outer loop
      vertex -4.46452 -0.563999 35
      vertex -4.5 0 -35
      vertex -4.5 0 35
    endloop
  endfacet
  facet normal 0.998027 0.0627838 0
    outer loop
      vertex -4.5 0 -35
      vertex -4.46452 -0.563999 35
      vertex -4.46452 -0.563999 -35
    endloop
  endfacet
  facet normal -0.125337 0.992114 0
    outer loop
      vertex 0.843215 -4.42029 -35
      vertex 0.282557 -4.49112 35
      vertex 0.843215 -4.42029 35
    endloop
  endfacet
  facet normal -0.125337 0.992114 0
    outer loop
      vertex 0.282557 -4.49112 35
      vertex 0.843215 -4.42029 -35
      vertex 0.282557 -4.49112 -35
    endloop
  endfacet
  facet normal -0.770512 0.637425 0
    outer loop
      vertex 3.28036 -3.08046 -35
      vertex 3.64058 -2.64503 35
      vertex 3.64058 -2.64503 -35
    endloop
  endfacet
  facet normal -0.770512 0.637425 0
    outer loop
      vertex 3.64058 -2.64503 35
      vertex 3.28036 -3.08046 -35
      vertex 3.28036 -3.08046 35
    endloop
  endfacet
  facet normal -0.587776 0.809024 0
    outer loop
      vertex 2.86841 -3.46731 -35
      vertex 2.41122 -3.79947 35
      vertex 2.86841 -3.46731 35
    endloop
  endfacet
  facet normal -0.587776 0.809024 0
    outer loop
      vertex 2.41122 -3.79947 35
      vertex 2.86841 -3.46731 -35
      vertex 2.41122 -3.79947 -35
    endloop
  endfacet
  facet normal -0.368121 0.929778 0
    outer loop
      vertex 1.91601 -4.07172 -35
      vertex 1.39058 -4.27975 35
      vertex 1.91601 -4.07172 35
    endloop
  endfacet
  facet normal -0.368121 0.929778 0
    outer loop
      vertex 1.39058 -4.27975 35
      vertex 1.91601 -4.07172 -35
      vertex 1.39058 -4.27975 -35
    endloop
  endfacet
  facet normal 0 1 -0
    outer loop
      vertex 0.282557 -4.49112 -35
      vertex -0.282557 -4.49112 35
      vertex 0.282557 -4.49112 35
    endloop
  endfacet
  facet normal 0 1 0
    outer loop
      vertex -0.282557 -4.49112 35
      vertex 0.282557 -4.49112 -35
      vertex -0.282557 -4.49112 -35
    endloop
  endfacet
  facet normal 0.248691 0.968583 -0
    outer loop
      vertex -0.843215 -4.42029 -35
      vertex -1.39058 -4.27975 35
      vertex -0.843215 -4.42029 35
    endloop
  endfacet
  facet normal 0.248691 0.968583 0
    outer loop
      vertex -1.39058 -4.27975 35
      vertex -0.843215 -4.42029 -35
      vertex -1.39058 -4.27975 -35
    endloop
  endfacet
  facet normal 0.481762 0.876302 -0
    outer loop
      vertex -1.91601 -4.07172 -35
      vertex -2.41122 -3.79947 35
      vertex -1.91601 -4.07172 35
    endloop
  endfacet
  facet normal 0.481762 0.876302 0
    outer loop
      vertex -2.41122 -3.79947 35
      vertex -1.91601 -4.07172 -35
      vertex -2.41122 -3.79947 -35
    endloop
  endfacet
  facet normal 0.770512 0.637425 0
    outer loop
      vertex -3.28036 -3.08046 35
      vertex -3.64058 -2.64503 -35
      vertex -3.64058 -2.64503 35
    endloop
  endfacet
  facet normal 0.770512 0.637425 0
    outer loop
      vertex -3.64058 -2.64503 -35
      vertex -3.28036 -3.08046 35
      vertex -3.28036 -3.08046 -35
    endloop
  endfacet
  facet normal 0.982284 0.187396 0
    outer loop
      vertex -4.35862 -1.1191 35
      vertex -4.46452 -0.563999 -35
      vertex -4.46452 -0.563999 35
    endloop
  endfacet
  facet normal 0.982284 0.187396 0
    outer loop
      vertex -4.46452 -0.563999 -35
      vertex -4.35862 -1.1191 35
      vertex -4.35862 -1.1191 -35
    endloop
  endfacet
  facet normal -0.68455 0.728966 0
    outer loop
      vertex 3.28036 -3.08046 -35
      vertex 2.86841 -3.46731 35
      vertex 3.28036 -3.08046 35
    endloop
  endfacet
  facet normal -0.68455 0.728966 0
    outer loop
      vertex 2.86841 -3.46731 35
      vertex 3.28036 -3.08046 -35
      vertex 2.86841 -3.46731 -35
    endloop
  endfacet
  facet normal -0.248691 0.968583 0
    outer loop
      vertex 1.39058 -4.27975 -35
      vertex 0.843215 -4.42029 35
      vertex 1.39058 -4.27975 35
    endloop
  endfacet
  facet normal -0.248691 0.968583 0
    outer loop
      vertex 0.843215 -4.42029 35
      vertex 1.39058 -4.27975 -35
      vertex 0.843215 -4.42029 -35
    endloop
  endfacet
  facet normal 0.68455 0.728966 -0
    outer loop
      vertex -2.86841 -3.46731 -35
      vertex -3.28036 -3.08046 35
      vertex -2.86841 -3.46731 35
    endloop
  endfacet
  facet normal 0.68455 0.728966 0
    outer loop
      vertex -3.28036 -3.08046 35
      vertex -2.86841 -3.46731 -35
      vertex -3.28036 -3.08046 -35
    endloop
  endfacet
  facet normal 0.587776 0.809024 -0
    outer loop
      vertex -2.41122 -3.79947 -35
      vertex -2.86841 -3.46731 35
      vertex -2.41122 -3.79947 35
    endloop
  endfacet
  facet normal 0.587776 0.809024 0
    outer loop
      vertex -2.86841 -3.46731 35
      vertex -2.41122 -3.79947 -35
      vertex -2.86841 -3.46731 -35
    endloop
  endfacet
endsolid OpenSCAD_Model
