solid OpenSCAD_Model
  facet normal 0.998027 0.0627802 0
    outer loop
      vertex 2.5 0 3
      vertex 2.48029 0.313333 -3
      vertex 2.48029 0.313333 3
    endloop
  endfacet
  facet normal 0.998027 0.0627802 0
    outer loop
      vertex 2.48029 0.313333 -3
      vertex 2.5 0 3
      vertex 2.5 0 -3
    endloop
  endfacet
  facet normal -0.998027 0.0627802 0
    outer loop
      vertex -2.5 0 -3
      vertex -2.48029 0.313333 3
      vertex -2.48029 0.313333 -3
    endloop
  endfacet
  facet normal -0.998027 0.0627802 0
    outer loop
      vertex -2.48029 0.313333 3
      vertex -2.5 0 -3
      vertex -2.5 0 3
    endloop
  endfacet
  facet normal 0 1 -0
    outer loop
      vertex 0.156976 2.49507 -3
      vertex -0.156976 2.49507 3
      vertex 0.156976 2.49507 3
    endloop
  endfacet
  facet normal 0 1 0
    outer loop
      vertex -0.156976 2.49507 3
      vertex 0.156976 2.49507 -3
      vertex -0.156976 2.49507 -3
    endloop
  endfacet
  facet normal 0 -1 0
    outer loop
      vertex -0.156976 -2.49507 -3
      vertex 0.156976 -2.49507 3
      vertex -0.156976 -2.49507 3
    endloop
  endfacet
  facet normal 0 -1 -0
    outer loop
      vertex 0.156976 -2.49507 3
      vertex -0.156976 -2.49507 -3
      vertex 0.156976 -2.49507 -3
    endloop
  endfacet
  facet normal 0.684541 0.728975 -0
    outer loop
      vertex 1.82242 1.71137 -3
      vertex 1.59356 1.92628 3
      vertex 1.82242 1.71137 3
    endloop
  endfacet
  facet normal 0.684541 0.728975 0
    outer loop
      vertex 1.59356 1.92628 3
      vertex 1.82242 1.71137 -3
      vertex 1.59356 1.92628 -3
    endloop
  endfacet
  facet normal -0.684541 0.728975 0
    outer loop
      vertex -1.59356 1.92628 -3
      vertex -1.82242 1.71137 3
      vertex -1.59356 1.92628 3
    endloop
  endfacet
  facet normal -0.684541 0.728975 0
    outer loop
      vertex -1.82242 1.71137 3
      vertex -1.59356 1.92628 -3
      vertex -1.82242 1.71137 -3
    endloop
  endfacet
  facet normal -0.368112 0.929781 0
    outer loop
      vertex -0.772542 2.37764 -3
      vertex -1.06445 2.26207 3
      vertex -0.772542 2.37764 3
    endloop
  endfacet
  facet normal -0.368112 0.929781 0
    outer loop
      vertex -1.06445 2.26207 3
      vertex -0.772542 2.37764 -3
      vertex -1.06445 2.26207 -3
    endloop
  endfacet
  facet normal 0.90483 0.425772 0
    outer loop
      vertex 2.32444 0.920311 3
      vertex 2.19077 1.20438 -3
      vertex 2.19077 1.20438 3
    endloop
  endfacet
  facet normal 0.90483 0.425772 0
    outer loop
      vertex 2.19077 1.20438 -3
      vertex 2.32444 0.920311 3
      vertex 2.32444 0.920311 -3
    endloop
  endfacet
  facet normal 0.368112 0.929781 -0
    outer loop
      vertex 1.06445 2.26207 -3
      vertex 0.772542 2.37764 3
      vertex 1.06445 2.26207 3
    endloop
  endfacet
  facet normal 0.368112 0.929781 0
    outer loop
      vertex 0.772542 2.37764 3
      vertex 1.06445 2.26207 -3
      vertex 0.772542 2.37764 -3
    endloop
  endfacet
  facet normal 0.248699 0.968581 -0
    outer loop
      vertex 0.772542 2.37764 -3
      vertex 0.468452 2.45572 3
      vertex 0.772542 2.37764 3
    endloop
  endfacet
  facet normal 0.248699 0.968581 0
    outer loop
      vertex 0.468452 2.45572 3
      vertex 0.772542 2.37764 -3
      vertex 0.468452 2.45572 -3
    endloop
  endfacet
  facet normal 0.481757 0.876305 -0
    outer loop
      vertex 1.33957 2.11082 -3
      vertex 1.06445 2.26207 3
      vertex 1.33957 2.11082 3
    endloop
  endfacet
  facet normal 0.481757 0.876305 0
    outer loop
      vertex 1.06445 2.26207 3
      vertex 1.33957 2.11082 -3
      vertex 1.06445 2.26207 -3
    endloop
  endfacet
  facet normal -0.90483 0.425772 0
    outer loop
      vertex -2.32444 0.920311 -3
      vertex -2.19077 1.20438 3
      vertex -2.19077 1.20438 -3
    endloop
  endfacet
  facet normal -0.90483 0.425772 0
    outer loop
      vertex -2.19077 1.20438 3
      vertex -2.32444 0.920311 -3
      vertex -2.32444 0.920311 3
    endloop
  endfacet
  facet normal 0 0 1
    outer loop
      vertex 1.35 0 3
      vertex 2.5 0 3
      vertex 2.48029 0.313333 3
    endloop
  endfacet
  facet normal 0 0 1
    outer loop
      vertex 1.33935 0.169199 3
      vertex 2.48029 0.313333 3
      vertex 2.42146 0.621724 3
    endloop
  endfacet
  facet normal 0 0 1
    outer loop
      vertex 2.5 0 3
      vertex 1.35 0 3
      vertex 2.48029 -0.313333 3
    endloop
  endfacet
  facet normal 0 0 1
    outer loop
      vertex 1.30759 0.335731 3
      vertex 2.42146 0.621724 3
      vertex 2.32444 0.920311 3
    endloop
  endfacet
  facet normal -0 0 1
    outer loop
      vertex 1.33935 -0.169199 3
      vertex 2.48029 -0.313333 3
      vertex 1.35 0 3
    endloop
  endfacet
  facet normal 0 0 1
    outer loop
      vertex 1.2552 0.496967 3
      vertex 2.32444 0.920311 3
      vertex 2.19077 1.20438 3
    endloop
  endfacet
  facet normal 0 0 1
    outer loop
      vertex 2.48029 -0.313333 3
      vertex 1.33935 -0.169199 3
      vertex 2.42146 -0.621724 3
    endloop
  endfacet
  facet normal 0 0 1
    outer loop
      vertex 1.18301 0.650367 3
      vertex 2.19077 1.20438 3
      vertex 2.02254 1.46946 3
    endloop
  endfacet
  facet normal -0 0 1
    outer loop
      vertex 1.30759 -0.335731 3
      vertex 2.42146 -0.621724 3
      vertex 1.33935 -0.169199 3
    endloop
  endfacet
  facet normal 0 0 1
    outer loop
      vertex 1.09217 0.793509 3
      vertex 2.02254 1.46946 3
      vertex 1.82242 1.71137 3
    endloop
  endfacet
  facet normal 0 0 1
    outer loop
      vertex 2.42146 -0.621724 3
      vertex 1.30759 -0.335731 3
      vertex 2.32444 -0.920311 3
    endloop
  endfacet
  facet normal 0 0 1
    outer loop
      vertex 0.984107 0.924138 3
      vertex 1.82242 1.71137 3
      vertex 1.59356 1.92628 3
    endloop
  endfacet
  facet normal -0 0 1
    outer loop
      vertex 1.2552 -0.496967 3
      vertex 2.32444 -0.920311 3
      vertex 1.30759 -0.335731 3
    endloop
  endfacet
  facet normal 0 0 1
    outer loop
      vertex 2.32444 -0.920311 3
      vertex 1.2552 -0.496967 3
      vertex 2.19077 -1.20438 3
    endloop
  endfacet
  facet normal 0 0 1
    outer loop
      vertex 0.860522 1.04019 3
      vertex 1.59356 1.92628 3
      vertex 1.33957 2.11082 3
    endloop
  endfacet
  facet normal 0 0 1
    outer loop
      vertex 2.48029 0.313333 3
      vertex 1.33935 0.169199 3
      vertex 1.35 0 3
    endloop
  endfacet
  facet normal 0 0 1
    outer loop
      vertex 2.42146 0.621724 3
      vertex 1.30759 0.335731 3
      vertex 1.33935 0.169199 3
    endloop
  endfacet
  facet normal 0 0 1
    outer loop
      vertex 2.32444 0.920311 3
      vertex 1.2552 0.496967 3
      vertex 1.30759 0.335731 3
    endloop
  endfacet
  facet normal 0 0 1
    outer loop
      vertex 2.19077 1.20438 3
      vertex 1.18301 0.650367 3
      vertex 1.2552 0.496967 3
    endloop
  endfacet
  facet normal 0 0 1
    outer loop
      vertex 2.02254 1.46946 3
      vertex 1.09217 0.793509 3
      vertex 1.18301 0.650367 3
    endloop
  endfacet
  facet normal 0 0 1
    outer loop
      vertex 0.723366 1.13984 3
      vertex 1.33957 2.11082 3
      vertex 1.06445 2.26207 3
    endloop
  endfacet
  facet normal 0 0 1
    outer loop
      vertex 1.82242 1.71137 3
      vertex 0.984107 0.924138 3
      vertex 1.09217 0.793509 3
    endloop
  endfacet
  facet normal 0 0 1
    outer loop
      vertex 1.59356 1.92628 3
      vertex 0.860522 1.04019 3
      vertex 0.984107 0.924138 3
    endloop
  endfacet
  facet normal 0 0 1
    outer loop
      vertex 0.574801 1.22152 3
      vertex 1.06445 2.26207 3
      vertex 0.772542 2.37764 3
    endloop
  endfacet
  facet normal 0 0 1
    outer loop
      vertex 1.33957 2.11082 3
      vertex 0.723366 1.13984 3
      vertex 0.860522 1.04019 3
    endloop
  endfacet
  facet normal 0 0 1
    outer loop
      vertex 1.06445 2.26207 3
      vertex 0.574801 1.22152 3
      vertex 0.723366 1.13984 3
    endloop
  endfacet
  facet normal 0 0 1
    outer loop
      vertex 0.417172 1.28393 3
      vertex 0.772542 2.37764 3
      vertex 0.468452 2.45572 3
    endloop
  endfacet
  facet normal 0 0 1
    outer loop
      vertex 0.772542 2.37764 3
      vertex 0.417172 1.28393 3
      vertex 0.574801 1.22152 3
    endloop
  endfacet
  facet normal 0 0 1
    outer loop
      vertex 0.468452 2.45572 3
      vertex 0.252964 1.32609 3
      vertex 0.417172 1.28393 3
    endloop
  endfacet
  facet normal 0 0 1
    outer loop
      vertex 0.156976 2.49507 3
      vertex 0.252964 1.32609 3
      vertex 0.468452 2.45572 3
    endloop
  endfacet
  facet normal 0 0 1
    outer loop
      vertex 0.156976 2.49507 3
      vertex 0.0847664 1.34734 3
      vertex 0.252964 1.32609 3
    endloop
  endfacet
  facet normal 0 0 1
    outer loop
      vertex 0.156976 2.49507 3
      vertex -0.0847664 1.34734 3
      vertex 0.0847664 1.34734 3
    endloop
  endfacet
  facet normal -0 0 1
    outer loop
      vertex -0.156976 2.49507 3
      vertex -0.0847664 1.34734 3
      vertex 0.156976 2.49507 3
    endloop
  endfacet
  facet normal 0 0 1
    outer loop
      vertex -0.156976 2.49507 3
      vertex -0.252964 1.32609 3
      vertex -0.0847664 1.34734 3
    endloop
  endfacet
  facet normal -0 0 1
    outer loop
      vertex -0.468452 2.45572 3
      vertex -0.252964 1.32609 3
      vertex -0.156976 2.49507 3
    endloop
  endfacet
  facet normal 0 0 1
    outer loop
      vertex -0.252964 1.32609 3
      vertex -0.468452 2.45572 3
      vertex -0.417172 1.28393 3
    endloop
  endfacet
  facet normal -0 0 1
    outer loop
      vertex -0.772542 2.37764 3
      vertex -0.417172 1.28393 3
      vertex -0.468452 2.45572 3
    endloop
  endfacet
  facet normal 0 0 1
    outer loop
      vertex -0.417172 1.28393 3
      vertex -0.772542 2.37764 3
      vertex -0.574801 1.22152 3
    endloop
  endfacet
  facet normal -0 0 1
    outer loop
      vertex -1.06445 2.26207 3
      vertex -0.574801 1.22152 3
      vertex -0.772542 2.37764 3
    endloop
  endfacet
  facet normal 0 0 1
    outer loop
      vertex -0.574801 1.22152 3
      vertex -1.06445 2.26207 3
      vertex -0.723366 1.13984 3
    endloop
  endfacet
  facet normal -0 0 1
    outer loop
      vertex -1.33957 2.11082 3
      vertex -0.723366 1.13984 3
      vertex -1.06445 2.26207 3
    endloop
  endfacet
  facet normal 0 0 1
    outer loop
      vertex -0.723366 1.13984 3
      vertex -1.33957 2.11082 3
      vertex -0.860522 1.04019 3
    endloop
  endfacet
  facet normal -0 0 1
    outer loop
      vertex -1.59356 1.92628 3
      vertex -0.860522 1.04019 3
      vertex -1.33957 2.11082 3
    endloop
  endfacet
  facet normal 0 0 1
    outer loop
      vertex -0.860522 1.04019 3
      vertex -1.59356 1.92628 3
      vertex -0.984107 0.924138 3
    endloop
  endfacet
  facet normal -0 0 1
    outer loop
      vertex -1.82242 1.71137 3
      vertex -0.984107 0.924138 3
      vertex -1.59356 1.92628 3
    endloop
  endfacet
  facet normal 0 0 1
    outer loop
      vertex -0.984107 0.924138 3
      vertex -1.82242 1.71137 3
      vertex -1.09217 0.793509 3
    endloop
  endfacet
  facet normal -0 0 1
    outer loop
      vertex -2.02254 1.46946 3
      vertex -1.09217 0.793509 3
      vertex -1.82242 1.71137 3
    endloop
  endfacet
  facet normal 0 0 1
    outer loop
      vertex -1.09217 0.793509 3
      vertex -2.02254 1.46946 3
      vertex -1.18301 0.650367 3
    endloop
  endfacet
  facet normal -0 0 1
    outer loop
      vertex -2.19077 1.20438 3
      vertex -1.18301 0.650367 3
      vertex -2.02254 1.46946 3
    endloop
  endfacet
  facet normal 0 0 1
    outer loop
      vertex -1.18301 0.650367 3
      vertex -2.19077 1.20438 3
      vertex -1.2552 0.496967 3
    endloop
  endfacet
  facet normal -0 0 1
    outer loop
      vertex 1.18301 -0.650367 3
      vertex 2.19077 -1.20438 3
      vertex 1.2552 -0.496967 3
    endloop
  endfacet
  facet normal 0 0 1
    outer loop
      vertex 2.19077 -1.20438 3
      vertex 1.18301 -0.650367 3
      vertex 2.02254 -1.46946 3
    endloop
  endfacet
  facet normal -0 0 1
    outer loop
      vertex 1.09217 -0.793509 3
      vertex 2.02254 -1.46946 3
      vertex 1.18301 -0.650367 3
    endloop
  endfacet
  facet normal 0 0 1
    outer loop
      vertex 2.02254 -1.46946 3
      vertex 1.09217 -0.793509 3
      vertex 1.82242 -1.71137 3
    endloop
  endfacet
  facet normal -0 0 1
    outer loop
      vertex 0.984107 -0.924138 3
      vertex 1.82242 -1.71137 3
      vertex 1.09217 -0.793509 3
    endloop
  endfacet
  facet normal 0 0 1
    outer loop
      vertex 1.82242 -1.71137 3
      vertex 0.984107 -0.924138 3
      vertex 1.59356 -1.92628 3
    endloop
  endfacet
  facet normal -0 0 1
    outer loop
      vertex 0.860522 -1.04019 3
      vertex 1.59356 -1.92628 3
      vertex 0.984107 -0.924138 3
    endloop
  endfacet
  facet normal 0 0 1
    outer loop
      vertex 1.59356 -1.92628 3
      vertex 0.860522 -1.04019 3
      vertex 1.33957 -2.11082 3
    endloop
  endfacet
  facet normal -0 0 1
    outer loop
      vertex 0.723366 -1.13984 3
      vertex 1.33957 -2.11082 3
      vertex 0.860522 -1.04019 3
    endloop
  endfacet
  facet normal 0 0 1
    outer loop
      vertex 1.33957 -2.11082 3
      vertex 0.723366 -1.13984 3
      vertex 1.06445 -2.26207 3
    endloop
  endfacet
  facet normal -0 0 1
    outer loop
      vertex 0.574801 -1.22152 3
      vertex 1.06445 -2.26207 3
      vertex 0.723366 -1.13984 3
    endloop
  endfacet
  facet normal 0 0 1
    outer loop
      vertex 1.06445 -2.26207 3
      vertex 0.574801 -1.22152 3
      vertex 0.772542 -2.37764 3
    endloop
  endfacet
  facet normal -0 0 1
    outer loop
      vertex 0.417172 -1.28393 3
      vertex 0.772542 -2.37764 3
      vertex 0.574801 -1.22152 3
    endloop
  endfacet
  facet normal 0 0 1
    outer loop
      vertex 0.772542 -2.37764 3
      vertex 0.417172 -1.28393 3
      vertex 0.468452 -2.45572 3
    endloop
  endfacet
  facet normal -0 0 1
    outer loop
      vertex 0.252964 -1.32609 3
      vertex 0.468452 -2.45572 3
      vertex 0.417172 -1.28393 3
    endloop
  endfacet
  facet normal 0 0 1
    outer loop
      vertex 0.252964 -1.32609 3
      vertex 0.156976 -2.49507 3
      vertex 0.468452 -2.45572 3
    endloop
  endfacet
  facet normal -0 0 1
    outer loop
      vertex 0.0847664 -1.34734 3
      vertex 0.156976 -2.49507 3
      vertex 0.252964 -1.32609 3
    endloop
  endfacet
  facet normal -0 0 1
    outer loop
      vertex -0.0847664 -1.34734 3
      vertex 0.156976 -2.49507 3
      vertex 0.0847664 -1.34734 3
    endloop
  endfacet
  facet normal 0 0 1
    outer loop
      vertex -0.0847664 -1.34734 3
      vertex -0.156976 -2.49507 3
      vertex 0.156976 -2.49507 3
    endloop
  endfacet
  facet normal 0 0 1
    outer loop
      vertex -0.252964 -1.32609 3
      vertex -0.156976 -2.49507 3
      vertex -0.0847664 -1.34734 3
    endloop
  endfacet
  facet normal 0 0 1
    outer loop
      vertex -0.468452 -2.45572 3
      vertex -0.252964 -1.32609 3
      vertex -0.417172 -1.28393 3
    endloop
  endfacet
  facet normal 0 0 1
    outer loop
      vertex -0.252964 -1.32609 3
      vertex -0.468452 -2.45572 3
      vertex -0.156976 -2.49507 3
    endloop
  endfacet
  facet normal 0 0 1
    outer loop
      vertex -0.772542 -2.37764 3
      vertex -0.417172 -1.28393 3
      vertex -0.574801 -1.22152 3
    endloop
  endfacet
  facet normal 0 0 1
    outer loop
      vertex -1.06445 -2.26207 3
      vertex -0.574801 -1.22152 3
      vertex -0.723366 -1.13984 3
    endloop
  endfacet
  facet normal 0 0 1
    outer loop
      vertex -0.417172 -1.28393 3
      vertex -0.772542 -2.37764 3
      vertex -0.468452 -2.45572 3
    endloop
  endfacet
  facet normal 0 0 1
    outer loop
      vertex -1.33957 -2.11082 3
      vertex -0.723366 -1.13984 3
      vertex -0.860522 -1.04019 3
    endloop
  endfacet
  facet normal 0 0 1
    outer loop
      vertex -1.59356 -1.92628 3
      vertex -0.860522 -1.04019 3
      vertex -0.984107 -0.924138 3
    endloop
  endfacet
  facet normal 0 0 1
    outer loop
      vertex -0.574801 -1.22152 3
      vertex -1.06445 -2.26207 3
      vertex -0.772542 -2.37764 3
    endloop
  endfacet
  facet normal 0 0 1
    outer loop
      vertex -1.82242 -1.71137 3
      vertex -0.984107 -0.924138 3
      vertex -1.09217 -0.793509 3
    endloop
  endfacet
  facet normal 0 0 1
    outer loop
      vertex -2.02254 -1.46946 3
      vertex -1.09217 -0.793509 3
      vertex -1.18301 -0.650367 3
    endloop
  endfacet
  facet normal 0 0 1
    outer loop
      vertex -2.19077 -1.20438 3
      vertex -1.18301 -0.650367 3
      vertex -1.2552 -0.496967 3
    endloop
  endfacet
  facet normal 0 0 1
    outer loop
      vertex -2.32444 -0.920311 3
      vertex -1.2552 -0.496967 3
      vertex -1.30759 -0.335731 3
    endloop
  endfacet
  facet normal 0 0 1
    outer loop
      vertex -2.42146 -0.621724 3
      vertex -1.30759 -0.335731 3
      vertex -1.33935 -0.169199 3
    endloop
  endfacet
  facet normal 0 0 1
    outer loop
      vertex -0.723366 -1.13984 3
      vertex -1.33957 -2.11082 3
      vertex -1.06445 -2.26207 3
    endloop
  endfacet
  facet normal 0 0 1
    outer loop
      vertex -2.48029 -0.313333 3
      vertex -1.33935 -0.169199 3
      vertex -1.35 0 3
    endloop
  endfacet
  facet normal -0 0 1
    outer loop
      vertex -2.32444 0.920311 3
      vertex -1.2552 0.496967 3
      vertex -2.19077 1.20438 3
    endloop
  endfacet
  facet normal 0 0 1
    outer loop
      vertex -0.860522 -1.04019 3
      vertex -1.59356 -1.92628 3
      vertex -1.33957 -2.11082 3
    endloop
  endfacet
  facet normal 0 0 1
    outer loop
      vertex -1.2552 0.496967 3
      vertex -2.32444 0.920311 3
      vertex -1.30759 0.335731 3
    endloop
  endfacet
  facet normal 0 0 1
    outer loop
      vertex -0.984107 -0.924138 3
      vertex -1.82242 -1.71137 3
      vertex -1.59356 -1.92628 3
    endloop
  endfacet
  facet normal -0 0 1
    outer loop
      vertex -2.42146 0.621724 3
      vertex -1.30759 0.335731 3
      vertex -2.32444 0.920311 3
    endloop
  endfacet
  facet normal 0 0 1
    outer loop
      vertex -1.09217 -0.793509 3
      vertex -2.02254 -1.46946 3
      vertex -1.82242 -1.71137 3
    endloop
  endfacet
  facet normal 0 0 1
    outer loop
      vertex -1.30759 0.335731 3
      vertex -2.42146 0.621724 3
      vertex -1.33935 0.169199 3
    endloop
  endfacet
  facet normal 0 0 1
    outer loop
      vertex -1.18301 -0.650367 3
      vertex -2.19077 -1.20438 3
      vertex -2.02254 -1.46946 3
    endloop
  endfacet
  facet normal -0 0 1
    outer loop
      vertex -2.48029 0.313333 3
      vertex -1.33935 0.169199 3
      vertex -2.42146 0.621724 3
    endloop
  endfacet
  facet normal 0 0 1
    outer loop
      vertex -1.2552 -0.496967 3
      vertex -2.32444 -0.920311 3
      vertex -2.19077 -1.20438 3
    endloop
  endfacet
  facet normal 0 0 1
    outer loop
      vertex -1.33935 0.169199 3
      vertex -2.48029 0.313333 3
      vertex -1.35 0 3
    endloop
  endfacet
  facet normal 0 0 1
    outer loop
      vertex -1.30759 -0.335731 3
      vertex -2.42146 -0.621724 3
      vertex -2.32444 -0.920311 3
    endloop
  endfacet
  facet normal 0 0 1
    outer loop
      vertex -2.5 0 3
      vertex -1.35 0 3
      vertex -2.48029 0.313333 3
    endloop
  endfacet
  facet normal 0 0 1
    outer loop
      vertex -1.33935 -0.169199 3
      vertex -2.48029 -0.313333 3
      vertex -2.42146 -0.621724 3
    endloop
  endfacet
  facet normal 0 0 1
    outer loop
      vertex -1.35 0 3
      vertex -2.5 0 3
      vertex -2.48029 -0.313333 3
    endloop
  endfacet
  facet normal -0.125338 0.992114 0
    outer loop
      vertex -0.156976 2.49507 -3
      vertex -0.468452 2.45572 3
      vertex -0.156976 2.49507 3
    endloop
  endfacet
  facet normal -0.125338 0.992114 0
    outer loop
      vertex -0.468452 2.45572 3
      vertex -0.156976 2.49507 -3
      vertex -0.468452 2.45572 -3
    endloop
  endfacet
  facet normal 0.982287 -0.187385 0
    outer loop
      vertex 2.42146 -0.621724 3
      vertex 2.48029 -0.313333 -3
      vertex 2.48029 -0.313333 3
    endloop
  endfacet
  facet normal 0.982287 -0.187385 0
    outer loop
      vertex 2.48029 -0.313333 -3
      vertex 2.42146 -0.621724 3
      vertex 2.42146 -0.621724 -3
    endloop
  endfacet
  facet normal 0 0 -1
    outer loop
      vertex 1.35 0 -3
      vertex 2.5 0 -3
      vertex 2.48029 -0.313333 -3
    endloop
  endfacet
  facet normal 0 0 -1
    outer loop
      vertex 1.33935 -0.169199 -3
      vertex 2.48029 -0.313333 -3
      vertex 2.42146 -0.621724 -3
    endloop
  endfacet
  facet normal 0 0 -1
    outer loop
      vertex 2.5 0 -3
      vertex 1.35 0 -3
      vertex 2.48029 0.313333 -3
    endloop
  endfacet
  facet normal 0 0 -1
    outer loop
      vertex 1.30759 -0.335731 -3
      vertex 2.42146 -0.621724 -3
      vertex 2.32444 -0.920311 -3
    endloop
  endfacet
  facet normal 0 0 -1
    outer loop
      vertex 1.33935 0.169199 -3
      vertex 2.48029 0.313333 -3
      vertex 1.35 0 -3
    endloop
  endfacet
  facet normal 0 0 -1
    outer loop
      vertex 1.2552 -0.496967 -3
      vertex 2.32444 -0.920311 -3
      vertex 2.19077 -1.20438 -3
    endloop
  endfacet
  facet normal -0 0 -1
    outer loop
      vertex 2.48029 0.313333 -3
      vertex 1.33935 0.169199 -3
      vertex 2.42146 0.621724 -3
    endloop
  endfacet
  facet normal 0 0 -1
    outer loop
      vertex 1.18301 -0.650367 -3
      vertex 2.19077 -1.20438 -3
      vertex 2.02254 -1.46946 -3
    endloop
  endfacet
  facet normal 0 0 -1
    outer loop
      vertex 1.30759 0.335731 -3
      vertex 2.42146 0.621724 -3
      vertex 1.33935 0.169199 -3
    endloop
  endfacet
  facet normal 0 0 -1
    outer loop
      vertex 1.09217 -0.793509 -3
      vertex 2.02254 -1.46946 -3
      vertex 1.82242 -1.71137 -3
    endloop
  endfacet
  facet normal -0 0 -1
    outer loop
      vertex 2.42146 0.621724 -3
      vertex 1.30759 0.335731 -3
      vertex 2.32444 0.920311 -3
    endloop
  endfacet
  facet normal 0 0 -1
    outer loop
      vertex 0.984107 -0.924138 -3
      vertex 1.82242 -1.71137 -3
      vertex 1.59356 -1.92628 -3
    endloop
  endfacet
  facet normal 0 0 -1
    outer loop
      vertex 1.2552 0.496967 -3
      vertex 2.32444 0.920311 -3
      vertex 1.30759 0.335731 -3
    endloop
  endfacet
  facet normal -0 0 -1
    outer loop
      vertex 2.32444 0.920311 -3
      vertex 1.2552 0.496967 -3
      vertex 2.19077 1.20438 -3
    endloop
  endfacet
  facet normal 0 0 -1
    outer loop
      vertex 0.860522 -1.04019 -3
      vertex 1.59356 -1.92628 -3
      vertex 1.33957 -2.11082 -3
    endloop
  endfacet
  facet normal 0 0 -1
    outer loop
      vertex 2.48029 -0.313333 -3
      vertex 1.33935 -0.169199 -3
      vertex 1.35 0 -3
    endloop
  endfacet
  facet normal 0 0 -1
    outer loop
      vertex 2.42146 -0.621724 -3
      vertex 1.30759 -0.335731 -3
      vertex 1.33935 -0.169199 -3
    endloop
  endfacet
  facet normal 0 0 -1
    outer loop
      vertex 2.32444 -0.920311 -3
      vertex 1.2552 -0.496967 -3
      vertex 1.30759 -0.335731 -3
    endloop
  endfacet
  facet normal 0 0 -1
    outer loop
      vertex 2.19077 -1.20438 -3
      vertex 1.18301 -0.650367 -3
      vertex 1.2552 -0.496967 -3
    endloop
  endfacet
  facet normal 0 0 -1
    outer loop
      vertex 2.02254 -1.46946 -3
      vertex 1.09217 -0.793509 -3
      vertex 1.18301 -0.650367 -3
    endloop
  endfacet
  facet normal 0 0 -1
    outer loop
      vertex 0.723366 -1.13984 -3
      vertex 1.33957 -2.11082 -3
      vertex 1.06445 -2.26207 -3
    endloop
  endfacet
  facet normal 0 0 -1
    outer loop
      vertex 1.82242 -1.71137 -3
      vertex 0.984107 -0.924138 -3
      vertex 1.09217 -0.793509 -3
    endloop
  endfacet
  facet normal 0 0 -1
    outer loop
      vertex 1.59356 -1.92628 -3
      vertex 0.860522 -1.04019 -3
      vertex 0.984107 -0.924138 -3
    endloop
  endfacet
  facet normal 0 0 -1
    outer loop
      vertex 0.574801 -1.22152 -3
      vertex 1.06445 -2.26207 -3
      vertex 0.772542 -2.37764 -3
    endloop
  endfacet
  facet normal 0 0 -1
    outer loop
      vertex 1.33957 -2.11082 -3
      vertex 0.723366 -1.13984 -3
      vertex 0.860522 -1.04019 -3
    endloop
  endfacet
  facet normal 0 0 -1
    outer loop
      vertex 1.06445 -2.26207 -3
      vertex 0.574801 -1.22152 -3
      vertex 0.723366 -1.13984 -3
    endloop
  endfacet
  facet normal 0 0 -1
    outer loop
      vertex 0.417172 -1.28393 -3
      vertex 0.772542 -2.37764 -3
      vertex 0.468452 -2.45572 -3
    endloop
  endfacet
  facet normal 0 0 -1
    outer loop
      vertex 0.772542 -2.37764 -3
      vertex 0.417172 -1.28393 -3
      vertex 0.574801 -1.22152 -3
    endloop
  endfacet
  facet normal 0 0 -1
    outer loop
      vertex 0.468452 -2.45572 -3
      vertex 0.252964 -1.32609 -3
      vertex 0.417172 -1.28393 -3
    endloop
  endfacet
  facet normal 0 0 -1
    outer loop
      vertex 0.156976 -2.49507 -3
      vertex 0.252964 -1.32609 -3
      vertex 0.468452 -2.45572 -3
    endloop
  endfacet
  facet normal 0 0 -1
    outer loop
      vertex 0.156976 -2.49507 -3
      vertex 0.0847664 -1.34734 -3
      vertex 0.252964 -1.32609 -3
    endloop
  endfacet
  facet normal 0 0 -1
    outer loop
      vertex 0.156976 -2.49507 -3
      vertex -0.0847664 -1.34734 -3
      vertex 0.0847664 -1.34734 -3
    endloop
  endfacet
  facet normal 0 0 -1
    outer loop
      vertex -0.156976 -2.49507 -3
      vertex -0.0847664 -1.34734 -3
      vertex 0.156976 -2.49507 -3
    endloop
  endfacet
  facet normal 0 0 -1
    outer loop
      vertex -0.156976 -2.49507 -3
      vertex -0.252964 -1.32609 -3
      vertex -0.0847664 -1.34734 -3
    endloop
  endfacet
  facet normal 0 0 -1
    outer loop
      vertex -0.468452 -2.45572 -3
      vertex -0.252964 -1.32609 -3
      vertex -0.156976 -2.49507 -3
    endloop
  endfacet
  facet normal -0 0 -1
    outer loop
      vertex -0.252964 -1.32609 -3
      vertex -0.468452 -2.45572 -3
      vertex -0.417172 -1.28393 -3
    endloop
  endfacet
  facet normal 0 0 -1
    outer loop
      vertex -0.772542 -2.37764 -3
      vertex -0.417172 -1.28393 -3
      vertex -0.468452 -2.45572 -3
    endloop
  endfacet
  facet normal -0 0 -1
    outer loop
      vertex -0.417172 -1.28393 -3
      vertex -0.772542 -2.37764 -3
      vertex -0.574801 -1.22152 -3
    endloop
  endfacet
  facet normal 0 0 -1
    outer loop
      vertex -1.06445 -2.26207 -3
      vertex -0.574801 -1.22152 -3
      vertex -0.772542 -2.37764 -3
    endloop
  endfacet
  facet normal -0 0 -1
    outer loop
      vertex -0.574801 -1.22152 -3
      vertex -1.06445 -2.26207 -3
      vertex -0.723366 -1.13984 -3
    endloop
  endfacet
  facet normal 0 0 -1
    outer loop
      vertex -1.33957 -2.11082 -3
      vertex -0.723366 -1.13984 -3
      vertex -1.06445 -2.26207 -3
    endloop
  endfacet
  facet normal -0 0 -1
    outer loop
      vertex -0.723366 -1.13984 -3
      vertex -1.33957 -2.11082 -3
      vertex -0.860522 -1.04019 -3
    endloop
  endfacet
  facet normal 0 0 -1
    outer loop
      vertex -1.59356 -1.92628 -3
      vertex -0.860522 -1.04019 -3
      vertex -1.33957 -2.11082 -3
    endloop
  endfacet
  facet normal -0 0 -1
    outer loop
      vertex -0.860522 -1.04019 -3
      vertex -1.59356 -1.92628 -3
      vertex -0.984107 -0.924138 -3
    endloop
  endfacet
  facet normal 0 0 -1
    outer loop
      vertex -1.82242 -1.71137 -3
      vertex -0.984107 -0.924138 -3
      vertex -1.59356 -1.92628 -3
    endloop
  endfacet
  facet normal -0 0 -1
    outer loop
      vertex -0.984107 -0.924138 -3
      vertex -1.82242 -1.71137 -3
      vertex -1.09217 -0.793509 -3
    endloop
  endfacet
  facet normal 0 0 -1
    outer loop
      vertex -2.02254 -1.46946 -3
      vertex -1.09217 -0.793509 -3
      vertex -1.82242 -1.71137 -3
    endloop
  endfacet
  facet normal -0 0 -1
    outer loop
      vertex -1.09217 -0.793509 -3
      vertex -2.02254 -1.46946 -3
      vertex -1.18301 -0.650367 -3
    endloop
  endfacet
  facet normal 0 0 -1
    outer loop
      vertex -2.19077 -1.20438 -3
      vertex -1.18301 -0.650367 -3
      vertex -2.02254 -1.46946 -3
    endloop
  endfacet
  facet normal -0 0 -1
    outer loop
      vertex -1.18301 -0.650367 -3
      vertex -2.19077 -1.20438 -3
      vertex -1.2552 -0.496967 -3
    endloop
  endfacet
  facet normal 0 0 -1
    outer loop
      vertex 1.18301 0.650367 -3
      vertex 2.19077 1.20438 -3
      vertex 1.2552 0.496967 -3
    endloop
  endfacet
  facet normal -0 0 -1
    outer loop
      vertex 2.19077 1.20438 -3
      vertex 1.18301 0.650367 -3
      vertex 2.02254 1.46946 -3
    endloop
  endfacet
  facet normal 0 0 -1
    outer loop
      vertex 1.09217 0.793509 -3
      vertex 2.02254 1.46946 -3
      vertex 1.18301 0.650367 -3
    endloop
  endfacet
  facet normal -0 0 -1
    outer loop
      vertex 2.02254 1.46946 -3
      vertex 1.09217 0.793509 -3
      vertex 1.82242 1.71137 -3
    endloop
  endfacet
  facet normal 0 0 -1
    outer loop
      vertex 0.984107 0.924138 -3
      vertex 1.82242 1.71137 -3
      vertex 1.09217 0.793509 -3
    endloop
  endfacet
  facet normal -0 0 -1
    outer loop
      vertex 1.82242 1.71137 -3
      vertex 0.984107 0.924138 -3
      vertex 1.59356 1.92628 -3
    endloop
  endfacet
  facet normal 0 0 -1
    outer loop
      vertex 0.860522 1.04019 -3
      vertex 1.59356 1.92628 -3
      vertex 0.984107 0.924138 -3
    endloop
  endfacet
  facet normal -0 0 -1
    outer loop
      vertex 1.59356 1.92628 -3
      vertex 0.860522 1.04019 -3
      vertex 1.33957 2.11082 -3
    endloop
  endfacet
  facet normal 0 0 -1
    outer loop
      vertex 0.723366 1.13984 -3
      vertex 1.33957 2.11082 -3
      vertex 0.860522 1.04019 -3
    endloop
  endfacet
  facet normal -0 0 -1
    outer loop
      vertex 1.33957 2.11082 -3
      vertex 0.723366 1.13984 -3
      vertex 1.06445 2.26207 -3
    endloop
  endfacet
  facet normal 0 0 -1
    outer loop
      vertex 0.574801 1.22152 -3
      vertex 1.06445 2.26207 -3
      vertex 0.723366 1.13984 -3
    endloop
  endfacet
  facet normal -0 0 -1
    outer loop
      vertex 1.06445 2.26207 -3
      vertex 0.574801 1.22152 -3
      vertex 0.772542 2.37764 -3
    endloop
  endfacet
  facet normal 0 0 -1
    outer loop
      vertex 0.417172 1.28393 -3
      vertex 0.772542 2.37764 -3
      vertex 0.574801 1.22152 -3
    endloop
  endfacet
  facet normal -0 0 -1
    outer loop
      vertex 0.772542 2.37764 -3
      vertex 0.417172 1.28393 -3
      vertex 0.468452 2.45572 -3
    endloop
  endfacet
  facet normal 0 0 -1
    outer loop
      vertex 0.252964 1.32609 -3
      vertex 0.468452 2.45572 -3
      vertex 0.417172 1.28393 -3
    endloop
  endfacet
  facet normal 0 0 -1
    outer loop
      vertex 0.252964 1.32609 -3
      vertex 0.156976 2.49507 -3
      vertex 0.468452 2.45572 -3
    endloop
  endfacet
  facet normal 0 0 -1
    outer loop
      vertex 0.0847664 1.34734 -3
      vertex 0.156976 2.49507 -3
      vertex 0.252964 1.32609 -3
    endloop
  endfacet
  facet normal 0 0 -1
    outer loop
      vertex -0.0847664 1.34734 -3
      vertex 0.156976 2.49507 -3
      vertex 0.0847664 1.34734 -3
    endloop
  endfacet
  facet normal 0 0 -1
    outer loop
      vertex -0.0847664 1.34734 -3
      vertex -0.156976 2.49507 -3
      vertex 0.156976 2.49507 -3
    endloop
  endfacet
  facet normal 0 0 -1
    outer loop
      vertex -0.252964 1.32609 -3
      vertex -0.156976 2.49507 -3
      vertex -0.0847664 1.34734 -3
    endloop
  endfacet
  facet normal 0 0 -1
    outer loop
      vertex -0.468452 2.45572 -3
      vertex -0.252964 1.32609 -3
      vertex -0.417172 1.28393 -3
    endloop
  endfacet
  facet normal 0 0 -1
    outer loop
      vertex -0.252964 1.32609 -3
      vertex -0.468452 2.45572 -3
      vertex -0.156976 2.49507 -3
    endloop
  endfacet
  facet normal 0 0 -1
    outer loop
      vertex -0.772542 2.37764 -3
      vertex -0.417172 1.28393 -3
      vertex -0.574801 1.22152 -3
    endloop
  endfacet
  facet normal 0 0 -1
    outer loop
      vertex -1.06445 2.26207 -3
      vertex -0.574801 1.22152 -3
      vertex -0.723366 1.13984 -3
    endloop
  endfacet
  facet normal 0 0 -1
    outer loop
      vertex -0.417172 1.28393 -3
      vertex -0.772542 2.37764 -3
      vertex -0.468452 2.45572 -3
    endloop
  endfacet
  facet normal 0 0 -1
    outer loop
      vertex -1.33957 2.11082 -3
      vertex -0.723366 1.13984 -3
      vertex -0.860522 1.04019 -3
    endloop
  endfacet
  facet normal 0 0 -1
    outer loop
      vertex -1.59356 1.92628 -3
      vertex -0.860522 1.04019 -3
      vertex -0.984107 0.924138 -3
    endloop
  endfacet
  facet normal 0 0 -1
    outer loop
      vertex -0.574801 1.22152 -3
      vertex -1.06445 2.26207 -3
      vertex -0.772542 2.37764 -3
    endloop
  endfacet
  facet normal 0 0 -1
    outer loop
      vertex -1.82242 1.71137 -3
      vertex -0.984107 0.924138 -3
      vertex -1.09217 0.793509 -3
    endloop
  endfacet
  facet normal 0 0 -1
    outer loop
      vertex -2.02254 1.46946 -3
      vertex -1.09217 0.793509 -3
      vertex -1.18301 0.650367 -3
    endloop
  endfacet
  facet normal 0 0 -1
    outer loop
      vertex -2.19077 1.20438 -3
      vertex -1.18301 0.650367 -3
      vertex -1.2552 0.496967 -3
    endloop
  endfacet
  facet normal 0 0 -1
    outer loop
      vertex -2.32444 0.920311 -3
      vertex -1.2552 0.496967 -3
      vertex -1.30759 0.335731 -3
    endloop
  endfacet
  facet normal 0 0 -1
    outer loop
      vertex -2.42146 0.621724 -3
      vertex -1.30759 0.335731 -3
      vertex -1.33935 0.169199 -3
    endloop
  endfacet
  facet normal 0 0 -1
    outer loop
      vertex -0.723366 1.13984 -3
      vertex -1.33957 2.11082 -3
      vertex -1.06445 2.26207 -3
    endloop
  endfacet
  facet normal 0 0 -1
    outer loop
      vertex -2.48029 0.313333 -3
      vertex -1.33935 0.169199 -3
      vertex -1.35 0 -3
    endloop
  endfacet
  facet normal 0 0 -1
    outer loop
      vertex -2.32444 -0.920311 -3
      vertex -1.2552 -0.496967 -3
      vertex -2.19077 -1.20438 -3
    endloop
  endfacet
  facet normal 0 0 -1
    outer loop
      vertex -0.860522 1.04019 -3
      vertex -1.59356 1.92628 -3
      vertex -1.33957 2.11082 -3
    endloop
  endfacet
  facet normal -0 0 -1
    outer loop
      vertex -1.2552 -0.496967 -3
      vertex -2.32444 -0.920311 -3
      vertex -1.30759 -0.335731 -3
    endloop
  endfacet
  facet normal 0 0 -1
    outer loop
      vertex -0.984107 0.924138 -3
      vertex -1.82242 1.71137 -3
      vertex -1.59356 1.92628 -3
    endloop
  endfacet
  facet normal 0 0 -1
    outer loop
      vertex -2.42146 -0.621724 -3
      vertex -1.30759 -0.335731 -3
      vertex -2.32444 -0.920311 -3
    endloop
  endfacet
  facet normal 0 0 -1
    outer loop
      vertex -1.09217 0.793509 -3
      vertex -2.02254 1.46946 -3
      vertex -1.82242 1.71137 -3
    endloop
  endfacet
  facet normal -0 0 -1
    outer loop
      vertex -1.30759 -0.335731 -3
      vertex -2.42146 -0.621724 -3
      vertex -1.33935 -0.169199 -3
    endloop
  endfacet
  facet normal 0 0 -1
    outer loop
      vertex -1.18301 0.650367 -3
      vertex -2.19077 1.20438 -3
      vertex -2.02254 1.46946 -3
    endloop
  endfacet
  facet normal 0 0 -1
    outer loop
      vertex -2.48029 -0.313333 -3
      vertex -1.33935 -0.169199 -3
      vertex -2.42146 -0.621724 -3
    endloop
  endfacet
  facet normal 0 0 -1
    outer loop
      vertex -1.2552 0.496967 -3
      vertex -2.32444 0.920311 -3
      vertex -2.19077 1.20438 -3
    endloop
  endfacet
  facet normal -0 0 -1
    outer loop
      vertex -1.33935 -0.169199 -3
      vertex -2.48029 -0.313333 -3
      vertex -1.35 0 -3
    endloop
  endfacet
  facet normal 0 0 -1
    outer loop
      vertex -1.30759 0.335731 -3
      vertex -2.42146 0.621724 -3
      vertex -2.32444 0.920311 -3
    endloop
  endfacet
  facet normal 0 0 -1
    outer loop
      vertex -2.5 0 -3
      vertex -1.35 0 -3
      vertex -2.48029 -0.313333 -3
    endloop
  endfacet
  facet normal 0 0 -1
    outer loop
      vertex -1.33935 0.169199 -3
      vertex -2.48029 0.313333 -3
      vertex -2.42146 0.621724 -3
    endloop
  endfacet
  facet normal 0 0 -1
    outer loop
      vertex -1.35 0 -3
      vertex -2.5 0 -3
      vertex -2.48029 0.313333 -3
    endloop
  endfacet
  facet normal 0.125338 -0.992114 0
    outer loop
      vertex 0.156976 -2.49507 -3
      vertex 0.468452 -2.45572 3
      vertex 0.156976 -2.49507 3
    endloop
  endfacet
  facet normal 0.125338 -0.992114 0
    outer loop
      vertex 0.468452 -2.45572 3
      vertex 0.156976 -2.49507 -3
      vertex 0.468452 -2.45572 -3
    endloop
  endfacet
  facet normal 0.951054 0.309026 0
    outer loop
      vertex 2.42146 0.621724 3
      vertex 2.32444 0.920311 -3
      vertex 2.32444 0.920311 3
    endloop
  endfacet
  facet normal 0.951054 0.309026 0
    outer loop
      vertex 2.32444 0.920311 -3
      vertex 2.42146 0.621724 3
      vertex 2.42146 0.621724 -3
    endloop
  endfacet
  facet normal 0.982287 0.187385 0
    outer loop
      vertex 2.48029 0.313333 3
      vertex 2.42146 0.621724 -3
      vertex 2.42146 0.621724 3
    endloop
  endfacet
  facet normal 0.982287 0.187385 0
    outer loop
      vertex 2.42146 0.621724 -3
      vertex 2.48029 0.313333 3
      vertex 2.48029 0.313333 -3
    endloop
  endfacet
  facet normal 0.770522 0.637414 0
    outer loop
      vertex 2.02254 1.46946 3
      vertex 1.82242 1.71137 -3
      vertex 1.82242 1.71137 3
    endloop
  endfacet
  facet normal 0.770522 0.637414 0
    outer loop
      vertex 1.82242 1.71137 -3
      vertex 2.02254 1.46946 3
      vertex 2.02254 1.46946 -3
    endloop
  endfacet
  facet normal 0.844321 0.535838 0
    outer loop
      vertex 2.19077 1.20438 3
      vertex 2.02254 1.46946 -3
      vertex 2.02254 1.46946 3
    endloop
  endfacet
  facet normal 0.844321 0.535838 0
    outer loop
      vertex 2.02254 1.46946 -3
      vertex 2.19077 1.20438 3
      vertex 2.19077 1.20438 -3
    endloop
  endfacet
  facet normal 0.125338 0.992114 -0
    outer loop
      vertex 0.468452 2.45572 -3
      vertex 0.156976 2.49507 3
      vertex 0.468452 2.45572 3
    endloop
  endfacet
  facet normal 0.125338 0.992114 0
    outer loop
      vertex 0.156976 2.49507 3
      vertex 0.468452 2.45572 -3
      vertex 0.156976 2.49507 -3
    endloop
  endfacet
  facet normal 0.587797 0.809009 -0
    outer loop
      vertex 1.59356 1.92628 -3
      vertex 1.33957 2.11082 3
      vertex 1.59356 1.92628 3
    endloop
  endfacet
  facet normal 0.587797 0.809009 0
    outer loop
      vertex 1.33957 2.11082 3
      vertex 1.59356 1.92628 -3
      vertex 1.33957 2.11082 -3
    endloop
  endfacet
  facet normal -0.844321 0.535838 0
    outer loop
      vertex -2.19077 1.20438 -3
      vertex -2.02254 1.46946 3
      vertex -2.02254 1.46946 -3
    endloop
  endfacet
  facet normal -0.844321 0.535838 0
    outer loop
      vertex -2.02254 1.46946 3
      vertex -2.19077 1.20438 -3
      vertex -2.19077 1.20438 3
    endloop
  endfacet
  facet normal -0.770522 0.637414 0
    outer loop
      vertex -2.02254 1.46946 -3
      vertex -1.82242 1.71137 3
      vertex -1.82242 1.71137 -3
    endloop
  endfacet
  facet normal -0.770522 0.637414 0
    outer loop
      vertex -1.82242 1.71137 3
      vertex -2.02254 1.46946 -3
      vertex -2.02254 1.46946 3
    endloop
  endfacet
  facet normal -0.951054 0.309026 0
    outer loop
      vertex -2.42146 0.621724 -3
      vertex -2.32444 0.920311 3
      vertex -2.32444 0.920311 -3
    endloop
  endfacet
  facet normal -0.951054 0.309026 0
    outer loop
      vertex -2.32444 0.920311 3
      vertex -2.42146 0.621724 -3
      vertex -2.42146 0.621724 3
    endloop
  endfacet
  facet normal -0.982287 0.187385 0
    outer loop
      vertex -2.48029 0.313333 -3
      vertex -2.42146 0.621724 3
      vertex -2.42146 0.621724 -3
    endloop
  endfacet
  facet normal -0.982287 0.187385 0
    outer loop
      vertex -2.42146 0.621724 3
      vertex -2.48029 0.313333 -3
      vertex -2.48029 0.313333 3
    endloop
  endfacet
  facet normal -0.481757 0.876305 0
    outer loop
      vertex -1.06445 2.26207 -3
      vertex -1.33957 2.11082 3
      vertex -1.06445 2.26207 3
    endloop
  endfacet
  facet normal -0.481757 0.876305 0
    outer loop
      vertex -1.33957 2.11082 3
      vertex -1.06445 2.26207 -3
      vertex -1.33957 2.11082 -3
    endloop
  endfacet
  facet normal -0.587797 0.809009 0
    outer loop
      vertex -1.33957 2.11082 -3
      vertex -1.59356 1.92628 3
      vertex -1.33957 2.11082 3
    endloop
  endfacet
  facet normal -0.587797 0.809009 0
    outer loop
      vertex -1.59356 1.92628 3
      vertex -1.33957 2.11082 -3
      vertex -1.59356 1.92628 -3
    endloop
  endfacet
  facet normal -0.248699 0.968581 0
    outer loop
      vertex -0.468452 2.45572 -3
      vertex -0.772542 2.37764 3
      vertex -0.468452 2.45572 3
    endloop
  endfacet
  facet normal -0.248699 0.968581 0
    outer loop
      vertex -0.772542 2.37764 3
      vertex -0.468452 2.45572 -3
      vertex -0.772542 2.37764 -3
    endloop
  endfacet
  facet normal 0.998027 -0.0627802 0
    outer loop
      vertex 2.48029 -0.313333 3
      vertex 2.5 0 -3
      vertex 2.5 0 3
    endloop
  endfacet
  facet normal 0.998027 -0.0627802 0
    outer loop
      vertex 2.5 0 -3
      vertex 2.48029 -0.313333 3
      vertex 2.48029 -0.313333 -3
    endloop
  endfacet
  facet normal 0.90483 -0.425772 0
    outer loop
      vertex 2.19077 -1.20438 3
      vertex 2.32444 -0.920311 -3
      vertex 2.32444 -0.920311 3
    endloop
  endfacet
  facet normal 0.90483 -0.425772 0
    outer loop
      vertex 2.32444 -0.920311 -3
      vertex 2.19077 -1.20438 3
      vertex 2.19077 -1.20438 -3
    endloop
  endfacet
  facet normal -0.684541 -0.728975 0
    outer loop
      vertex -1.82242 -1.71137 -3
      vertex -1.59356 -1.92628 3
      vertex -1.82242 -1.71137 3
    endloop
  endfacet
  facet normal -0.684541 -0.728975 -0
    outer loop
      vertex -1.59356 -1.92628 3
      vertex -1.82242 -1.71137 -3
      vertex -1.59356 -1.92628 -3
    endloop
  endfacet
  facet normal -0.90483 -0.425772 0
    outer loop
      vertex -2.19077 -1.20438 -3
      vertex -2.32444 -0.920311 3
      vertex -2.32444 -0.920311 -3
    endloop
  endfacet
  facet normal -0.90483 -0.425772 0
    outer loop
      vertex -2.32444 -0.920311 3
      vertex -2.19077 -1.20438 -3
      vertex -2.19077 -1.20438 3
    endloop
  endfacet
  facet normal -0.844321 -0.535838 0
    outer loop
      vertex -2.02254 -1.46946 -3
      vertex -2.19077 -1.20438 3
      vertex -2.19077 -1.20438 -3
    endloop
  endfacet
  facet normal -0.844321 -0.535838 0
    outer loop
      vertex -2.19077 -1.20438 3
      vertex -2.02254 -1.46946 -3
      vertex -2.02254 -1.46946 3
    endloop
  endfacet
  facet normal 0.481757 -0.876305 0
    outer loop
      vertex 1.06445 -2.26207 -3
      vertex 1.33957 -2.11082 3
      vertex 1.06445 -2.26207 3
    endloop
  endfacet
  facet normal 0.481757 -0.876305 0
    outer loop
      vertex 1.33957 -2.11082 3
      vertex 1.06445 -2.26207 -3
      vertex 1.33957 -2.11082 -3
    endloop
  endfacet
  facet normal 0.951054 -0.309026 0
    outer loop
      vertex 2.32444 -0.920311 3
      vertex 2.42146 -0.621724 -3
      vertex 2.42146 -0.621724 3
    endloop
  endfacet
  facet normal 0.951054 -0.309026 0
    outer loop
      vertex 2.42146 -0.621724 -3
      vertex 2.32444 -0.920311 3
      vertex 2.32444 -0.920311 -3
    endloop
  endfacet
  facet normal -0.770522 -0.637414 0
    outer loop
      vertex -1.82242 -1.71137 -3
      vertex -2.02254 -1.46946 3
      vertex -2.02254 -1.46946 -3
    endloop
  endfacet
  facet normal -0.770522 -0.637414 0
    outer loop
      vertex -2.02254 -1.46946 3
      vertex -1.82242 -1.71137 -3
      vertex -1.82242 -1.71137 3
    endloop
  endfacet
  facet normal -0.982287 -0.187385 0
    outer loop
      vertex -2.42146 -0.621724 -3
      vertex -2.48029 -0.313333 3
      vertex -2.48029 -0.313333 -3
    endloop
  endfacet
  facet normal -0.982287 -0.187385 0
    outer loop
      vertex -2.48029 -0.313333 3
      vertex -2.42146 -0.621724 -3
      vertex -2.42146 -0.621724 3
    endloop
  endfacet
  facet normal -0.998027 -0.0627802 0
    outer loop
      vertex -2.48029 -0.313333 -3
      vertex -2.5 0 3
      vertex -2.5 0 -3
    endloop
  endfacet
  facet normal -0.998027 -0.0627802 0
    outer loop
      vertex -2.5 0 3
      vertex -2.48029 -0.313333 -3
      vertex -2.48029 -0.313333 3
    endloop
  endfacet
  facet normal -0.951054 -0.309026 0
    outer loop
      vertex -2.32444 -0.920311 -3
      vertex -2.42146 -0.621724 3
      vertex -2.42146 -0.621724 -3
    endloop
  endfacet
  facet normal -0.951054 -0.309026 0
    outer loop
      vertex -2.42146 -0.621724 3
      vertex -2.32444 -0.920311 -3
      vertex -2.32444 -0.920311 3
    endloop
  endfacet
  facet normal 0.684541 -0.728975 0
    outer loop
      vertex 1.59356 -1.92628 -3
      vertex 1.82242 -1.71137 3
      vertex 1.59356 -1.92628 3
    endloop
  endfacet
  facet normal 0.684541 -0.728975 0
    outer loop
      vertex 1.82242 -1.71137 3
      vertex 1.59356 -1.92628 -3
      vertex 1.82242 -1.71137 -3
    endloop
  endfacet
  facet normal 0.368112 -0.929781 0
    outer loop
      vertex 0.772542 -2.37764 -3
      vertex 1.06445 -2.26207 3
      vertex 0.772542 -2.37764 3
    endloop
  endfacet
  facet normal 0.368112 -0.929781 0
    outer loop
      vertex 1.06445 -2.26207 3
      vertex 0.772542 -2.37764 -3
      vertex 1.06445 -2.26207 -3
    endloop
  endfacet
  facet normal 0.248699 -0.968581 0
    outer loop
      vertex 0.468452 -2.45572 -3
      vertex 0.772542 -2.37764 3
      vertex 0.468452 -2.45572 3
    endloop
  endfacet
  facet normal 0.248699 -0.968581 0
    outer loop
      vertex 0.772542 -2.37764 3
      vertex 0.468452 -2.45572 -3
      vertex 0.772542 -2.37764 -3
    endloop
  endfacet
  facet normal 0.844321 -0.535838 0
    outer loop
      vertex 2.02254 -1.46946 3
      vertex 2.19077 -1.20438 -3
      vertex 2.19077 -1.20438 3
    endloop
  endfacet
  facet normal 0.844321 -0.535838 0
    outer loop
      vertex 2.19077 -1.20438 -3
      vertex 2.02254 -1.46946 3
      vertex 2.02254 -1.46946 -3
    endloop
  endfacet
  facet normal 0.770522 -0.637414 0
    outer loop
      vertex 1.82242 -1.71137 3
      vertex 2.02254 -1.46946 -3
      vertex 2.02254 -1.46946 3
    endloop
  endfacet
  facet normal 0.770522 -0.637414 0
    outer loop
      vertex 2.02254 -1.46946 -3
      vertex 1.82242 -1.71137 3
      vertex 1.82242 -1.71137 -3
    endloop
  endfacet
  facet normal -0.125338 -0.992114 0
    outer loop
      vertex -0.468452 -2.45572 -3
      vertex -0.156976 -2.49507 3
      vertex -0.468452 -2.45572 3
    endloop
  endfacet
  facet normal -0.125338 -0.992114 -0
    outer loop
      vertex -0.156976 -2.49507 3
      vertex -0.468452 -2.45572 -3
      vertex -0.156976 -2.49507 -3
    endloop
  endfacet
  facet normal -0.248699 -0.968581 0
    outer loop
      vertex -0.772542 -2.37764 -3
      vertex -0.468452 -2.45572 3
      vertex -0.772542 -2.37764 3
    endloop
  endfacet
  facet normal -0.248699 -0.968581 -0
    outer loop
      vertex -0.468452 -2.45572 3
      vertex -0.772542 -2.37764 -3
      vertex -0.468452 -2.45572 -3
    endloop
  endfacet
  facet normal 0.587797 -0.809009 0
    outer loop
      vertex 1.33957 -2.11082 -3
      vertex 1.59356 -1.92628 3
      vertex 1.33957 -2.11082 3
    endloop
  endfacet
  facet normal 0.587797 -0.809009 0
    outer loop
      vertex 1.59356 -1.92628 3
      vertex 1.33957 -2.11082 -3
      vertex 1.59356 -1.92628 -3
    endloop
  endfacet
  facet normal -0.368112 -0.929781 0
    outer loop
      vertex -1.06445 -2.26207 -3
      vertex -0.772542 -2.37764 3
      vertex -1.06445 -2.26207 3
    endloop
  endfacet
  facet normal -0.368112 -0.929781 -0
    outer loop
      vertex -0.772542 -2.37764 3
      vertex -1.06445 -2.26207 -3
      vertex -0.772542 -2.37764 -3
    endloop
  endfacet
  facet normal -0.481757 -0.876305 0
    outer loop
      vertex -1.33957 -2.11082 -3
      vertex -1.06445 -2.26207 3
      vertex -1.33957 -2.11082 3
    endloop
  endfacet
  facet normal -0.481757 -0.876305 -0
    outer loop
      vertex -1.06445 -2.26207 3
      vertex -1.33957 -2.11082 -3
      vertex -1.06445 -2.26207 -3
    endloop
  endfacet
  facet normal -0.587797 -0.809009 0
    outer loop
      vertex -1.59356 -1.92628 -3
      vertex -1.33957 -2.11082 3
      vertex -1.59356 -1.92628 3
    endloop
  endfacet
  facet normal -0.587797 -0.809009 -0
    outer loop
      vertex -1.33957 -2.11082 3
      vertex -1.59356 -1.92628 -3
      vertex -1.33957 -2.11082 -3
    endloop
  endfacet
  facet normal -0.998025 -0.0628193 0
    outer loop
      vertex 1.35 0 -3
      vertex 1.33935 0.169199 3
      vertex 1.33935 0.169199 -3
    endloop
  endfacet
  facet normal -0.998025 -0.0628193 0
    outer loop
      vertex 1.33935 0.169199 3
      vertex 1.35 0 -3
      vertex 1.35 0 3
    endloop
  endfacet
  facet normal 0.998025 -0.0628193 0
    outer loop
      vertex -1.35 0 3
      vertex -1.33935 0.169199 -3
      vertex -1.33935 0.169199 3
    endloop
  endfacet
  facet normal 0.998025 -0.0628193 0
    outer loop
      vertex -1.33935 0.169199 -3
      vertex -1.35 0 3
      vertex -1.35 0 -3
    endloop
  endfacet
  facet normal 0 -1 0
    outer loop
      vertex -0.0847664 1.34734 -3
      vertex 0.0847664 1.34734 3
      vertex -0.0847664 1.34734 3
    endloop
  endfacet
  facet normal 0 -1 -0
    outer loop
      vertex 0.0847664 1.34734 3
      vertex -0.0847664 1.34734 -3
      vertex 0.0847664 1.34734 -3
    endloop
  endfacet
  facet normal 0 1 -0
    outer loop
      vertex 0.0847664 -1.34734 -3
      vertex -0.0847664 -1.34734 3
      vertex 0.0847664 -1.34734 3
    endloop
  endfacet
  facet normal 0 1 0
    outer loop
      vertex -0.0847664 -1.34734 3
      vertex 0.0847664 -1.34734 -3
      vertex -0.0847664 -1.34734 -3
    endloop
  endfacet
  facet normal -0.684541 -0.728975 0
    outer loop
      vertex 0.860522 1.04019 -3
      vertex 0.984107 0.924138 3
      vertex 0.860522 1.04019 3
    endloop
  endfacet
  facet normal -0.684541 -0.728975 -0
    outer loop
      vertex 0.984107 0.924138 3
      vertex 0.860522 1.04019 -3
      vertex 0.984107 0.924138 -3
    endloop
  endfacet
  facet normal 0.684541 -0.728975 0
    outer loop
      vertex -0.984107 0.924138 -3
      vertex -0.860522 1.04019 3
      vertex -0.984107 0.924138 3
    endloop
  endfacet
  facet normal 0.684541 -0.728975 0
    outer loop
      vertex -0.860522 1.04019 3
      vertex -0.984107 0.924138 -3
      vertex -0.860522 1.04019 -3
    endloop
  endfacet
  facet normal 0.368126 -0.929776 0
    outer loop
      vertex -0.574801 1.22152 -3
      vertex -0.417172 1.28393 3
      vertex -0.574801 1.22152 3
    endloop
  endfacet
  facet normal 0.368126 -0.929776 0
    outer loop
      vertex -0.417172 1.28393 3
      vertex -0.574801 1.22152 -3
      vertex -0.417172 1.28393 -3
    endloop
  endfacet
  facet normal -0.84433 0.535824 0
    outer loop
      vertex 1.09217 -0.793509 -3
      vertex 1.18301 -0.650367 3
      vertex 1.18301 -0.650367 -3
    endloop
  endfacet
  facet normal -0.84433 0.535824 0
    outer loop
      vertex 1.18301 -0.650367 3
      vertex 1.09217 -0.793509 -3
      vertex 1.09217 -0.793509 3
    endloop
  endfacet
  facet normal -0.904815 -0.425806 0
    outer loop
      vertex 1.2552 0.496967 -3
      vertex 1.18301 0.650367 3
      vertex 1.18301 0.650367 -3
    endloop
  endfacet
  facet normal -0.904815 -0.425806 0
    outer loop
      vertex 1.18301 0.650367 3
      vertex 1.2552 0.496967 -3
      vertex 1.2552 0.496967 3
    endloop
  endfacet
  facet normal -0.982296 -0.187338 0
    outer loop
      vertex 1.33935 0.169199 -3
      vertex 1.30759 0.335731 3
      vertex 1.30759 0.335731 -3
    endloop
  endfacet
  facet normal -0.982296 -0.187338 0
    outer loop
      vertex 1.30759 0.335731 3
      vertex 1.33935 0.169199 -3
      vertex 1.33935 0.169199 3
    endloop
  endfacet
  facet normal -0.84433 -0.535824 0
    outer loop
      vertex 1.18301 0.650367 -3
      vertex 1.09217 0.793509 3
      vertex 1.09217 0.793509 -3
    endloop
  endfacet
  facet normal -0.84433 -0.535824 0
    outer loop
      vertex 1.09217 0.793509 3
      vertex 1.18301 0.650367 -3
      vertex 1.18301 0.650367 3
    endloop
  endfacet
  facet normal -0.368126 -0.929776 0
    outer loop
      vertex 0.417172 1.28393 -3
      vertex 0.574801 1.22152 3
      vertex 0.417172 1.28393 3
    endloop
  endfacet
  facet normal -0.368126 -0.929776 -0
    outer loop
      vertex 0.574801 1.22152 3
      vertex 0.417172 1.28393 -3
      vertex 0.574801 1.22152 -3
    endloop
  endfacet
  facet normal -0.587787 -0.809016 0
    outer loop
      vertex 0.723366 1.13984 -3
      vertex 0.860522 1.04019 3
      vertex 0.723366 1.13984 3
    endloop
  endfacet
  facet normal -0.587787 -0.809016 -0
    outer loop
      vertex 0.860522 1.04019 3
      vertex 0.723366 1.13984 -3
      vertex 0.860522 1.04019 -3
    endloop
  endfacet
  facet normal 0.904815 -0.425806 0
    outer loop
      vertex -1.2552 0.496967 3
      vertex -1.18301 0.650367 -3
      vertex -1.18301 0.650367 3
    endloop
  endfacet
  facet normal 0.904815 -0.425806 0
    outer loop
      vertex -1.18301 0.650367 -3
      vertex -1.2552 0.496967 3
      vertex -1.2552 0.496967 -3
    endloop
  endfacet
  facet normal 0.248682 -0.968585 0
    outer loop
      vertex -0.417172 1.28393 -3
      vertex -0.252964 1.32609 3
      vertex -0.417172 1.28393 3
    endloop
  endfacet
  facet normal 0.248682 -0.968585 0
    outer loop
      vertex -0.252964 1.32609 3
      vertex -0.417172 1.28393 -3
      vertex -0.252964 1.32609 -3
    endloop
  endfacet
  facet normal -0.982296 0.187338 0
    outer loop
      vertex 1.30759 -0.335731 -3
      vertex 1.33935 -0.169199 3
      vertex 1.33935 -0.169199 -3
    endloop
  endfacet
  facet normal -0.982296 0.187338 0
    outer loop
      vertex 1.33935 -0.169199 3
      vertex 1.30759 -0.335731 -3
      vertex 1.30759 -0.335731 3
    endloop
  endfacet
  facet normal -0.368126 0.929776 0
    outer loop
      vertex 0.574801 -1.22152 -3
      vertex 0.417172 -1.28393 3
      vertex 0.574801 -1.22152 3
    endloop
  endfacet
  facet normal -0.368126 0.929776 0
    outer loop
      vertex 0.417172 -1.28393 3
      vertex 0.574801 -1.22152 -3
      vertex 0.417172 -1.28393 -3
    endloop
  endfacet
  facet normal -0.951054 -0.309024 0
    outer loop
      vertex 1.30759 0.335731 -3
      vertex 1.2552 0.496967 3
      vertex 1.2552 0.496967 -3
    endloop
  endfacet
  facet normal -0.951054 -0.309024 0
    outer loop
      vertex 1.2552 0.496967 3
      vertex 1.30759 0.335731 -3
      vertex 1.30759 0.335731 3
    endloop
  endfacet
  facet normal -0.770521 -0.637415 0
    outer loop
      vertex 1.09217 0.793509 -3
      vertex 0.984107 0.924138 3
      vertex 0.984107 0.924138 -3
    endloop
  endfacet
  facet normal -0.770521 -0.637415 0
    outer loop
      vertex 0.984107 0.924138 3
      vertex 1.09217 0.793509 -3
      vertex 1.09217 0.793509 3
    endloop
  endfacet
  facet normal -0.248682 -0.968585 0
    outer loop
      vertex 0.252964 1.32609 -3
      vertex 0.417172 1.28393 3
      vertex 0.252964 1.32609 3
    endloop
  endfacet
  facet normal -0.248682 -0.968585 -0
    outer loop
      vertex 0.417172 1.28393 3
      vertex 0.252964 1.32609 -3
      vertex 0.417172 1.28393 -3
    endloop
  endfacet
  facet normal -0.125343 -0.992113 0
    outer loop
      vertex 0.0847664 1.34734 -3
      vertex 0.252964 1.32609 3
      vertex 0.0847664 1.34734 3
    endloop
  endfacet
  facet normal -0.125343 -0.992113 -0
    outer loop
      vertex 0.252964 1.32609 3
      vertex 0.0847664 1.34734 -3
      vertex 0.252964 1.32609 -3
    endloop
  endfacet
  facet normal -0.481779 -0.876292 0
    outer loop
      vertex 0.574801 1.22152 -3
      vertex 0.723366 1.13984 3
      vertex 0.574801 1.22152 3
    endloop
  endfacet
  facet normal -0.481779 -0.876292 -0
    outer loop
      vertex 0.723366 1.13984 3
      vertex 0.574801 1.22152 -3
      vertex 0.723366 1.13984 -3
    endloop
  endfacet
  facet normal 0.84433 -0.535824 0
    outer loop
      vertex -1.18301 0.650367 3
      vertex -1.09217 0.793509 -3
      vertex -1.09217 0.793509 3
    endloop
  endfacet
  facet normal 0.84433 -0.535824 0
    outer loop
      vertex -1.09217 0.793509 -3
      vertex -1.18301 0.650367 3
      vertex -1.18301 0.650367 -3
    endloop
  endfacet
  facet normal 0.770521 -0.637415 0
    outer loop
      vertex -1.09217 0.793509 3
      vertex -0.984107 0.924138 -3
      vertex -0.984107 0.924138 3
    endloop
  endfacet
  facet normal 0.770521 -0.637415 0
    outer loop
      vertex -0.984107 0.924138 -3
      vertex -1.09217 0.793509 3
      vertex -1.09217 0.793509 -3
    endloop
  endfacet
  facet normal 0.951054 -0.309024 0
    outer loop
      vertex -1.30759 0.335731 3
      vertex -1.2552 0.496967 -3
      vertex -1.2552 0.496967 3
    endloop
  endfacet
  facet normal 0.951054 -0.309024 0
    outer loop
      vertex -1.2552 0.496967 -3
      vertex -1.30759 0.335731 3
      vertex -1.30759 0.335731 -3
    endloop
  endfacet
  facet normal 0.982296 -0.187338 0
    outer loop
      vertex -1.33935 0.169199 3
      vertex -1.30759 0.335731 -3
      vertex -1.30759 0.335731 3
    endloop
  endfacet
  facet normal 0.982296 -0.187338 0
    outer loop
      vertex -1.30759 0.335731 -3
      vertex -1.33935 0.169199 3
      vertex -1.33935 0.169199 -3
    endloop
  endfacet
  facet normal 0.481779 -0.876292 0
    outer loop
      vertex -0.723366 1.13984 -3
      vertex -0.574801 1.22152 3
      vertex -0.723366 1.13984 3
    endloop
  endfacet
  facet normal 0.481779 -0.876292 0
    outer loop
      vertex -0.574801 1.22152 3
      vertex -0.723366 1.13984 -3
      vertex -0.574801 1.22152 -3
    endloop
  endfacet
  facet normal 0.587787 -0.809016 0
    outer loop
      vertex -0.860522 1.04019 -3
      vertex -0.723366 1.13984 3
      vertex -0.860522 1.04019 3
    endloop
  endfacet
  facet normal 0.587787 -0.809016 0
    outer loop
      vertex -0.723366 1.13984 3
      vertex -0.860522 1.04019 -3
      vertex -0.723366 1.13984 -3
    endloop
  endfacet
  facet normal 0.125343 -0.992113 0
    outer loop
      vertex -0.252964 1.32609 -3
      vertex -0.0847664 1.34734 3
      vertex -0.252964 1.32609 3
    endloop
  endfacet
  facet normal 0.125343 -0.992113 0
    outer loop
      vertex -0.0847664 1.34734 3
      vertex -0.252964 1.32609 -3
      vertex -0.0847664 1.34734 -3
    endloop
  endfacet
  facet normal -0.998025 0.0628193 0
    outer loop
      vertex 1.33935 -0.169199 -3
      vertex 1.35 0 3
      vertex 1.35 0 -3
    endloop
  endfacet
  facet normal -0.998025 0.0628193 0
    outer loop
      vertex 1.35 0 3
      vertex 1.33935 -0.169199 -3
      vertex 1.33935 -0.169199 3
    endloop
  endfacet
  facet normal -0.770521 0.637415 0
    outer loop
      vertex 0.984107 -0.924138 -3
      vertex 1.09217 -0.793509 3
      vertex 1.09217 -0.793509 -3
    endloop
  endfacet
  facet normal -0.770521 0.637415 0
    outer loop
      vertex 1.09217 -0.793509 3
      vertex 0.984107 -0.924138 -3
      vertex 0.984107 -0.924138 3
    endloop
  endfacet
  facet normal 0.951054 0.309024 0
    outer loop
      vertex -1.2552 -0.496967 3
      vertex -1.30759 -0.335731 -3
      vertex -1.30759 -0.335731 3
    endloop
  endfacet
  facet normal 0.951054 0.309024 0
    outer loop
      vertex -1.30759 -0.335731 -3
      vertex -1.2552 -0.496967 3
      vertex -1.2552 -0.496967 -3
    endloop
  endfacet
  facet normal -0.587787 0.809016 0
    outer loop
      vertex 0.860522 -1.04019 -3
      vertex 0.723366 -1.13984 3
      vertex 0.860522 -1.04019 3
    endloop
  endfacet
  facet normal -0.587787 0.809016 0
    outer loop
      vertex 0.723366 -1.13984 3
      vertex 0.860522 -1.04019 -3
      vertex 0.723366 -1.13984 -3
    endloop
  endfacet
  facet normal -0.684541 0.728975 0
    outer loop
      vertex 0.984107 -0.924138 -3
      vertex 0.860522 -1.04019 3
      vertex 0.984107 -0.924138 3
    endloop
  endfacet
  facet normal -0.684541 0.728975 0
    outer loop
      vertex 0.860522 -1.04019 3
      vertex 0.984107 -0.924138 -3
      vertex 0.860522 -1.04019 -3
    endloop
  endfacet
  facet normal -0.904815 0.425806 0
    outer loop
      vertex 1.18301 -0.650367 -3
      vertex 1.2552 -0.496967 3
      vertex 1.2552 -0.496967 -3
    endloop
  endfacet
  facet normal -0.904815 0.425806 0
    outer loop
      vertex 1.2552 -0.496967 3
      vertex 1.18301 -0.650367 -3
      vertex 1.18301 -0.650367 3
    endloop
  endfacet
  facet normal 0.84433 0.535824 0
    outer loop
      vertex -1.09217 -0.793509 3
      vertex -1.18301 -0.650367 -3
      vertex -1.18301 -0.650367 3
    endloop
  endfacet
  facet normal 0.84433 0.535824 0
    outer loop
      vertex -1.18301 -0.650367 -3
      vertex -1.09217 -0.793509 3
      vertex -1.09217 -0.793509 -3
    endloop
  endfacet
  facet normal -0.481779 0.876292 0
    outer loop
      vertex 0.723366 -1.13984 -3
      vertex 0.574801 -1.22152 3
      vertex 0.723366 -1.13984 3
    endloop
  endfacet
  facet normal -0.481779 0.876292 0
    outer loop
      vertex 0.574801 -1.22152 3
      vertex 0.723366 -1.13984 -3
      vertex 0.574801 -1.22152 -3
    endloop
  endfacet
  facet normal -0.951054 0.309024 0
    outer loop
      vertex 1.2552 -0.496967 -3
      vertex 1.30759 -0.335731 3
      vertex 1.30759 -0.335731 -3
    endloop
  endfacet
  facet normal -0.951054 0.309024 0
    outer loop
      vertex 1.30759 -0.335731 3
      vertex 1.2552 -0.496967 -3
      vertex 1.2552 -0.496967 3
    endloop
  endfacet
  facet normal 0.368126 0.929776 -0
    outer loop
      vertex -0.417172 -1.28393 -3
      vertex -0.574801 -1.22152 3
      vertex -0.417172 -1.28393 3
    endloop
  endfacet
  facet normal 0.368126 0.929776 0
    outer loop
      vertex -0.574801 -1.22152 3
      vertex -0.417172 -1.28393 -3
      vertex -0.574801 -1.22152 -3
    endloop
  endfacet
  facet normal 0.587787 0.809016 -0
    outer loop
      vertex -0.723366 -1.13984 -3
      vertex -0.860522 -1.04019 3
      vertex -0.723366 -1.13984 3
    endloop
  endfacet
  facet normal 0.587787 0.809016 0
    outer loop
      vertex -0.860522 -1.04019 3
      vertex -0.723366 -1.13984 -3
      vertex -0.860522 -1.04019 -3
    endloop
  endfacet
  facet normal 0.248682 0.968585 -0
    outer loop
      vertex -0.252964 -1.32609 -3
      vertex -0.417172 -1.28393 3
      vertex -0.252964 -1.32609 3
    endloop
  endfacet
  facet normal 0.248682 0.968585 0
    outer loop
      vertex -0.417172 -1.28393 3
      vertex -0.252964 -1.32609 -3
      vertex -0.417172 -1.28393 -3
    endloop
  endfacet
  facet normal 0.684541 0.728975 -0
    outer loop
      vertex -0.860522 -1.04019 -3
      vertex -0.984107 -0.924138 3
      vertex -0.860522 -1.04019 3
    endloop
  endfacet
  facet normal 0.684541 0.728975 0
    outer loop
      vertex -0.984107 -0.924138 3
      vertex -0.860522 -1.04019 -3
      vertex -0.984107 -0.924138 -3
    endloop
  endfacet
  facet normal 0.770521 0.637415 0
    outer loop
      vertex -0.984107 -0.924138 3
      vertex -1.09217 -0.793509 -3
      vertex -1.09217 -0.793509 3
    endloop
  endfacet
  facet normal 0.770521 0.637415 0
    outer loop
      vertex -1.09217 -0.793509 -3
      vertex -0.984107 -0.924138 3
      vertex -0.984107 -0.924138 -3
    endloop
  endfacet
  facet normal 0.904815 0.425806 0
    outer loop
      vertex -1.18301 -0.650367 3
      vertex -1.2552 -0.496967 -3
      vertex -1.2552 -0.496967 3
    endloop
  endfacet
  facet normal 0.904815 0.425806 0
    outer loop
      vertex -1.2552 -0.496967 -3
      vertex -1.18301 -0.650367 3
      vertex -1.18301 -0.650367 -3
    endloop
  endfacet
  facet normal 0.982296 0.187338 0
    outer loop
      vertex -1.30759 -0.335731 3
      vertex -1.33935 -0.169199 -3
      vertex -1.33935 -0.169199 3
    endloop
  endfacet
  facet normal 0.982296 0.187338 0
    outer loop
      vertex -1.33935 -0.169199 -3
      vertex -1.30759 -0.335731 3
      vertex -1.30759 -0.335731 -3
    endloop
  endfacet
  facet normal 0.998025 0.0628193 0
    outer loop
      vertex -1.33935 -0.169199 3
      vertex -1.35 0 -3
      vertex -1.35 0 3
    endloop
  endfacet
  facet normal 0.998025 0.0628193 0
    outer loop
      vertex -1.35 0 -3
      vertex -1.33935 -0.169199 3
      vertex -1.33935 -0.169199 -3
    endloop
  endfacet
  facet normal -0.248682 0.968585 0
    outer loop
      vertex 0.417172 -1.28393 -3
      vertex 0.252964 -1.32609 3
      vertex 0.417172 -1.28393 3
    endloop
  endfacet
  facet normal -0.248682 0.968585 0
    outer loop
      vertex 0.252964 -1.32609 3
      vertex 0.417172 -1.28393 -3
      vertex 0.252964 -1.32609 -3
    endloop
  endfacet
  facet normal -0.125343 0.992113 0
    outer loop
      vertex 0.252964 -1.32609 -3
      vertex 0.0847664 -1.34734 3
      vertex 0.252964 -1.32609 3
    endloop
  endfacet
  facet normal -0.125343 0.992113 0
    outer loop
      vertex 0.0847664 -1.34734 3
      vertex 0.252964 -1.32609 -3
      vertex 0.0847664 -1.34734 -3
    endloop
  endfacet
  facet normal 0.481779 0.876292 -0
    outer loop
      vertex -0.574801 -1.22152 -3
      vertex -0.723366 -1.13984 3
      vertex -0.574801 -1.22152 3
    endloop
  endfacet
  facet normal 0.481779 0.876292 0
    outer loop
      vertex -0.723366 -1.13984 3
      vertex -0.574801 -1.22152 -3
      vertex -0.723366 -1.13984 -3
    endloop
  endfacet
  facet normal 0.125343 0.992113 -0
    outer loop
      vertex -0.0847664 -1.34734 -3
      vertex -0.252964 -1.32609 3
      vertex -0.0847664 -1.34734 3
    endloop
  endfacet
  facet normal 0.125343 0.992113 0
    outer loop
      vertex -0.252964 -1.32609 3
      vertex -0.0847664 -1.34734 -3
      vertex -0.252964 -1.32609 -3
    endloop
  endfacet
endsolid OpenSCAD_Model
