solid OpenSCAD_Model
  facet normal 0.998026 0.0627973 0
    outer loop
      vertex 6.5 0 5
      vertex 6.44874 0.814666 -5
      vertex 6.44874 0.814666 5
    endloop
  endfacet
  facet normal 0.998026 0.0627973 0
    outer loop
      vertex 6.44874 0.814666 -5
      vertex 6.5 0 5
      vertex 6.5 0 -5
    endloop
  endfacet
  facet normal -0.998026 0.0627973 0
    outer loop
      vertex -6.5 0 -5
      vertex -6.44874 0.814666 5
      vertex -6.44874 0.814666 -5
    endloop
  endfacet
  facet normal -0.998026 0.0627973 0
    outer loop
      vertex -6.44874 0.814666 5
      vertex -6.5 0 -5
      vertex -6.5 0 5
    endloop
  endfacet
  facet normal 0 1 -0
    outer loop
      vertex 0.408138 6.48717 -5
      vertex -0.408138 6.48717 5
      vertex 0.408138 6.48717 5
    endloop
  endfacet
  facet normal 0 1 0
    outer loop
      vertex -0.408138 6.48717 5
      vertex 0.408138 6.48717 -5
      vertex -0.408138 6.48717 -5
    endloop
  endfacet
  facet normal 0 -1 0
    outer loop
      vertex -0.408138 -6.48717 -5
      vertex 0.408138 -6.48717 5
      vertex -0.408138 -6.48717 5
    endloop
  endfacet
  facet normal 0 -1 -0
    outer loop
      vertex 0.408138 -6.48717 5
      vertex -0.408138 -6.48717 -5
      vertex 0.408138 -6.48717 -5
    endloop
  endfacet
  facet normal 0.684547 0.728968 -0
    outer loop
      vertex 4.7383 4.44956 -5
      vertex 4.14326 5.00834 5
      vertex 4.7383 4.44956 5
    endloop
  endfacet
  facet normal 0.684547 0.728968 0
    outer loop
      vertex 4.14326 5.00834 5
      vertex 4.7383 4.44956 -5
      vertex 4.14326 5.00834 -5
    endloop
  endfacet
  facet normal -0.684547 0.728968 0
    outer loop
      vertex -4.14326 5.00834 -5
      vertex -4.7383 4.44956 5
      vertex -4.14326 5.00834 5
    endloop
  endfacet
  facet normal -0.684547 0.728968 0
    outer loop
      vertex -4.7383 4.44956 5
      vertex -4.14326 5.00834 -5
      vertex -4.7383 4.44956 -5
    endloop
  endfacet
  facet normal -0.368125 0.929776 0
    outer loop
      vertex -2.00861 6.18187 -5
      vertex -2.76756 5.88138 5
      vertex -2.00861 6.18187 5
    endloop
  endfacet
  facet normal -0.368125 0.929776 0
    outer loop
      vertex -2.76756 5.88138 5
      vertex -2.00861 6.18187 -5
      vertex -2.76756 5.88138 -5
    endloop
  endfacet
  facet normal 0.904824 -0.425785 0
    outer loop
      vertex 5.69599 -3.1314 5
      vertex 6.04355 -2.39281 -5
      vertex 6.04355 -2.39281 5
    endloop
  endfacet
  facet normal 0.904824 -0.425785 0
    outer loop
      vertex 6.04355 -2.39281 -5
      vertex 5.69599 -3.1314 5
      vertex 5.69599 -3.1314 -5
    endloop
  endfacet
  facet normal 0.904824 0.425785 0
    outer loop
      vertex 6.04355 2.39281 5
      vertex 5.69599 3.1314 -5
      vertex 5.69599 3.1314 5
    endloop
  endfacet
  facet normal 0.904824 0.425785 0
    outer loop
      vertex 5.69599 3.1314 -5
      vertex 6.04355 2.39281 5
      vertex 6.04355 2.39281 -5
    endloop
  endfacet
  facet normal 0.844328 0.535827 0
    outer loop
      vertex 5.69599 3.1314 5
      vertex 5.25861 3.8206 -5
      vertex 5.25861 3.8206 5
    endloop
  endfacet
  facet normal 0.844328 0.535827 0
    outer loop
      vertex 5.25861 3.8206 -5
      vertex 5.69599 3.1314 5
      vertex 5.69599 3.1314 -5
    endloop
  endfacet
  facet normal 0.368125 0.929776 -0
    outer loop
      vertex 2.76756 5.88138 -5
      vertex 2.00861 6.18187 5
      vertex 2.76756 5.88138 5
    endloop
  endfacet
  facet normal 0.368125 0.929776 0
    outer loop
      vertex 2.00861 6.18187 5
      vertex 2.76756 5.88138 -5
      vertex 2.00861 6.18187 -5
    endloop
  endfacet
  facet normal 0.248691 0.968583 -0
    outer loop
      vertex 2.00861 6.18187 -5
      vertex 1.21798 6.38487 5
      vertex 2.00861 6.18187 5
    endloop
  endfacet
  facet normal 0.248691 0.968583 0
    outer loop
      vertex 1.21798 6.38487 5
      vertex 2.00861 6.18187 -5
      vertex 1.21798 6.38487 -5
    endloop
  endfacet
  facet normal 0.481758 0.876304 -0
    outer loop
      vertex 3.48287 5.48813 -5
      vertex 2.76756 5.88138 5
      vertex 3.48287 5.48813 5
    endloop
  endfacet
  facet normal 0.481758 0.876304 0
    outer loop
      vertex 2.76756 5.88138 5
      vertex 3.48287 5.48813 -5
      vertex 2.76756 5.88138 -5
    endloop
  endfacet
  facet normal -0.904824 0.425785 0
    outer loop
      vertex -6.04355 2.39281 -5
      vertex -5.69599 3.1314 5
      vertex -5.69599 3.1314 -5
    endloop
  endfacet
  facet normal -0.904824 0.425785 0
    outer loop
      vertex -5.69599 3.1314 5
      vertex -6.04355 2.39281 -5
      vertex -6.04355 2.39281 5
    endloop
  endfacet
  facet normal -0.77052 0.637416 0
    outer loop
      vertex -5.25861 3.8206 -5
      vertex -4.7383 4.44956 5
      vertex -4.7383 4.44956 -5
    endloop
  endfacet
  facet normal -0.77052 0.637416 0
    outer loop
      vertex -4.7383 4.44956 5
      vertex -5.25861 3.8206 -5
      vertex -5.25861 3.8206 5
    endloop
  endfacet
  facet normal -0.951058 0.309012 0
    outer loop
      vertex -6.29579 1.61648 -5
      vertex -6.04355 2.39281 5
      vertex -6.04355 2.39281 -5
    endloop
  endfacet
  facet normal -0.951058 0.309012 0
    outer loop
      vertex -6.04355 2.39281 5
      vertex -6.29579 1.61648 -5
      vertex -6.29579 1.61648 5
    endloop
  endfacet
  facet normal -0.125325 0.992116 0
    outer loop
      vertex -0.408138 6.48717 -5
      vertex -1.21798 6.38487 5
      vertex -0.408138 6.48717 5
    endloop
  endfacet
  facet normal -0.125325 0.992116 0
    outer loop
      vertex -1.21798 6.38487 5
      vertex -0.408138 6.48717 -5
      vertex -1.21798 6.38487 -5
    endloop
  endfacet
  facet normal 0.125325 -0.992116 0
    outer loop
      vertex 0.408138 -6.48717 -5
      vertex 1.21798 -6.38487 5
      vertex 0.408138 -6.48717 5
    endloop
  endfacet
  facet normal 0.125325 -0.992116 0
    outer loop
      vertex 1.21798 -6.38487 5
      vertex 0.408138 -6.48717 -5
      vertex 1.21798 -6.38487 -5
    endloop
  endfacet
  facet normal 0.368125 -0.929776 0
    outer loop
      vertex 2.00861 -6.18187 -5
      vertex 2.76756 -5.88138 5
      vertex 2.00861 -6.18187 5
    endloop
  endfacet
  facet normal 0.368125 -0.929776 0
    outer loop
      vertex 2.76756 -5.88138 5
      vertex 2.00861 -6.18187 -5
      vertex 2.76756 -5.88138 -5
    endloop
  endfacet
  facet normal 0.951058 0.309012 0
    outer loop
      vertex 6.29579 1.61648 5
      vertex 6.04355 2.39281 -5
      vertex 6.04355 2.39281 5
    endloop
  endfacet
  facet normal 0.951058 0.309012 0
    outer loop
      vertex 6.04355 2.39281 -5
      vertex 6.29579 1.61648 5
      vertex 6.29579 1.61648 -5
    endloop
  endfacet
  facet normal 0.982288 0.187376 0
    outer loop
      vertex 6.44874 0.814666 5
      vertex 6.29579 1.61648 -5
      vertex 6.29579 1.61648 5
    endloop
  endfacet
  facet normal 0.982288 0.187376 0
    outer loop
      vertex 6.29579 1.61648 -5
      vertex 6.44874 0.814666 5
      vertex 6.44874 0.814666 -5
    endloop
  endfacet
  facet normal 0.77052 0.637416 0
    outer loop
      vertex 5.25861 3.8206 5
      vertex 4.7383 4.44956 -5
      vertex 4.7383 4.44956 5
    endloop
  endfacet
  facet normal 0.77052 0.637416 0
    outer loop
      vertex 4.7383 4.44956 -5
      vertex 5.25861 3.8206 5
      vertex 5.25861 3.8206 -5
    endloop
  endfacet
  facet normal 0.125325 0.992116 -0
    outer loop
      vertex 1.21798 6.38487 -5
      vertex 0.408138 6.48717 5
      vertex 1.21798 6.38487 5
    endloop
  endfacet
  facet normal 0.125325 0.992116 0
    outer loop
      vertex 0.408138 6.48717 5
      vertex 1.21798 6.38487 -5
      vertex 0.408138 6.48717 -5
    endloop
  endfacet
  facet normal 0.587776 0.809024 -0
    outer loop
      vertex 4.14326 5.00834 -5
      vertex 3.48287 5.48813 5
      vertex 4.14326 5.00834 5
    endloop
  endfacet
  facet normal 0.587776 0.809024 0
    outer loop
      vertex 3.48287 5.48813 5
      vertex 4.14326 5.00834 -5
      vertex 3.48287 5.48813 -5
    endloop
  endfacet
  facet normal -0.844328 0.535827 0
    outer loop
      vertex -5.69599 3.1314 -5
      vertex -5.25861 3.8206 5
      vertex -5.25861 3.8206 -5
    endloop
  endfacet
  facet normal -0.844328 0.535827 0
    outer loop
      vertex -5.25861 3.8206 5
      vertex -5.69599 3.1314 -5
      vertex -5.69599 3.1314 5
    endloop
  endfacet
  facet normal -0.982288 0.187376 0
    outer loop
      vertex -6.44874 0.814666 -5
      vertex -6.29579 1.61648 5
      vertex -6.29579 1.61648 -5
    endloop
  endfacet
  facet normal -0.982288 0.187376 0
    outer loop
      vertex -6.29579 1.61648 5
      vertex -6.44874 0.814666 -5
      vertex -6.44874 0.814666 5
    endloop
  endfacet
  facet normal 0 0 1
    outer loop
      vertex 4.25 0 5
      vertex 6.5 0 5
      vertex 6.44874 0.814666 5
    endloop
  endfacet
  facet normal 0 0 1
    outer loop
      vertex 4.21649 0.532666 5
      vertex 6.44874 0.814666 5
      vertex 6.29579 1.61648 5
    endloop
  endfacet
  facet normal 0 0 1
    outer loop
      vertex 6.5 0 5
      vertex 4.25 0 5
      vertex 6.44874 -0.814666 5
    endloop
  endfacet
  facet normal 0 0 1
    outer loop
      vertex 4.11648 1.05693 5
      vertex 6.29579 1.61648 5
      vertex 6.04355 2.39281 5
    endloop
  endfacet
  facet normal -0 0 1
    outer loop
      vertex 4.21649 -0.532666 5
      vertex 6.44874 -0.814666 5
      vertex 4.25 0 5
    endloop
  endfacet
  facet normal 0 0 1
    outer loop
      vertex 3.95155 1.56453 5
      vertex 6.04355 2.39281 5
      vertex 5.69599 3.1314 5
    endloop
  endfacet
  facet normal 0 0 1
    outer loop
      vertex 6.44874 -0.814666 5
      vertex 4.21649 -0.532666 5
      vertex 6.29579 -1.61648 5
    endloop
  endfacet
  facet normal 0 0 1
    outer loop
      vertex 3.7243 2.04745 5
      vertex 5.69599 3.1314 5
      vertex 5.25861 3.8206 5
    endloop
  endfacet
  facet normal -0 0 1
    outer loop
      vertex 4.11648 -1.05693 5
      vertex 6.29579 -1.61648 5
      vertex 4.21649 -0.532666 5
    endloop
  endfacet
  facet normal 0 0 1
    outer loop
      vertex 3.43832 2.49809 5
      vertex 5.25861 3.8206 5
      vertex 4.7383 4.44956 5
    endloop
  endfacet
  facet normal 0 0 1
    outer loop
      vertex 6.29579 -1.61648 5
      vertex 4.11648 -1.05693 5
      vertex 6.04355 -2.39281 5
    endloop
  endfacet
  facet normal -0 0 1
    outer loop
      vertex 3.95155 -1.56453 5
      vertex 6.04355 -2.39281 5
      vertex 4.11648 -1.05693 5
    endloop
  endfacet
  facet normal 0 0 1
    outer loop
      vertex 6.44874 0.814666 5
      vertex 4.21649 0.532666 5
      vertex 4.25 0 5
    endloop
  endfacet
  facet normal 0 0 1
    outer loop
      vertex 3.09812 2.90932 5
      vertex 4.7383 4.44956 5
      vertex 4.14326 5.00834 5
    endloop
  endfacet
  facet normal 0 0 1
    outer loop
      vertex 6.29579 1.61648 5
      vertex 4.11648 1.05693 5
      vertex 4.21649 0.532666 5
    endloop
  endfacet
  facet normal 0 0 1
    outer loop
      vertex 6.04355 2.39281 5
      vertex 3.95155 1.56453 5
      vertex 4.11648 1.05693 5
    endloop
  endfacet
  facet normal 0 0 1
    outer loop
      vertex 5.69599 3.1314 5
      vertex 3.7243 2.04745 5
      vertex 3.95155 1.56453 5
    endloop
  endfacet
  facet normal 0 0 1
    outer loop
      vertex 2.70905 3.27468 5
      vertex 4.14326 5.00834 5
      vertex 3.48287 5.48813 5
    endloop
  endfacet
  facet normal 0 0 1
    outer loop
      vertex 5.25861 3.8206 5
      vertex 3.43832 2.49809 5
      vertex 3.7243 2.04745 5
    endloop
  endfacet
  facet normal 0 0 1
    outer loop
      vertex 4.7383 4.44956 5
      vertex 3.09812 2.90932 5
      vertex 3.43832 2.49809 5
    endloop
  endfacet
  facet normal 0 0 1
    outer loop
      vertex 2.27726 3.58839 5
      vertex 3.48287 5.48813 5
      vertex 2.76756 5.88138 5
    endloop
  endfacet
  facet normal 0 0 1
    outer loop
      vertex 4.14326 5.00834 5
      vertex 2.70905 3.27468 5
      vertex 3.09812 2.90932 5
    endloop
  endfacet
  facet normal 0 0 1
    outer loop
      vertex 3.48287 5.48813 5
      vertex 2.27726 3.58839 5
      vertex 2.70905 3.27468 5
    endloop
  endfacet
  facet normal 0 0 1
    outer loop
      vertex 1.80956 3.84551 5
      vertex 2.76756 5.88138 5
      vertex 2.00861 6.18187 5
    endloop
  endfacet
  facet normal 0 0 1
    outer loop
      vertex 2.76756 5.88138 5
      vertex 1.80956 3.84551 5
      vertex 2.27726 3.58839 5
    endloop
  endfacet
  facet normal 0 0 1
    outer loop
      vertex 2.00861 6.18187 5
      vertex 1.31332 4.04199 5
      vertex 1.80956 3.84551 5
    endloop
  endfacet
  facet normal 0 0 1
    outer loop
      vertex 1.21798 6.38487 5
      vertex 1.31332 4.04199 5
      vertex 2.00861 6.18187 5
    endloop
  endfacet
  facet normal 0 0 1
    outer loop
      vertex 1.21798 6.38487 5
      vertex 0.796371 4.17472 5
      vertex 1.31332 4.04199 5
    endloop
  endfacet
  facet normal 0 0 1
    outer loop
      vertex 0.408138 6.48717 5
      vertex 0.796371 4.17472 5
      vertex 1.21798 6.38487 5
    endloop
  endfacet
  facet normal 0 0 1
    outer loop
      vertex 0.408138 6.48717 5
      vertex 0.266859 4.24161 5
      vertex 0.796371 4.17472 5
    endloop
  endfacet
  facet normal 0 0 1
    outer loop
      vertex 0.408138 6.48717 5
      vertex -0.266859 4.24161 5
      vertex 0.266859 4.24161 5
    endloop
  endfacet
  facet normal -0 0 1
    outer loop
      vertex -0.408138 6.48717 5
      vertex -0.266859 4.24161 5
      vertex 0.408138 6.48717 5
    endloop
  endfacet
  facet normal 0 0 1
    outer loop
      vertex -0.408138 6.48717 5
      vertex -0.796371 4.17472 5
      vertex -0.266859 4.24161 5
    endloop
  endfacet
  facet normal -0 0 1
    outer loop
      vertex -1.21798 6.38487 5
      vertex -0.796371 4.17472 5
      vertex -0.408138 6.48717 5
    endloop
  endfacet
  facet normal 0 0 1
    outer loop
      vertex -1.21798 6.38487 5
      vertex -1.31332 4.04199 5
      vertex -0.796371 4.17472 5
    endloop
  endfacet
  facet normal -0 0 1
    outer loop
      vertex -2.00861 6.18187 5
      vertex -1.31332 4.04199 5
      vertex -1.21798 6.38487 5
    endloop
  endfacet
  facet normal 0 0 1
    outer loop
      vertex -1.31332 4.04199 5
      vertex -2.00861 6.18187 5
      vertex -1.80956 3.84551 5
    endloop
  endfacet
  facet normal -0 0 1
    outer loop
      vertex -2.76756 5.88138 5
      vertex -1.80956 3.84551 5
      vertex -2.00861 6.18187 5
    endloop
  endfacet
  facet normal 0 0 1
    outer loop
      vertex -1.80956 3.84551 5
      vertex -2.76756 5.88138 5
      vertex -2.27726 3.58839 5
    endloop
  endfacet
  facet normal -0 0 1
    outer loop
      vertex -3.48287 5.48813 5
      vertex -2.27726 3.58839 5
      vertex -2.76756 5.88138 5
    endloop
  endfacet
  facet normal 0 0 1
    outer loop
      vertex -2.27726 3.58839 5
      vertex -3.48287 5.48813 5
      vertex -2.70905 3.27468 5
    endloop
  endfacet
  facet normal -0 0 1
    outer loop
      vertex -4.14326 5.00834 5
      vertex -2.70905 3.27468 5
      vertex -3.48287 5.48813 5
    endloop
  endfacet
  facet normal 0 0 1
    outer loop
      vertex -2.70905 3.27468 5
      vertex -4.14326 5.00834 5
      vertex -3.09812 2.90932 5
    endloop
  endfacet
  facet normal -0 0 1
    outer loop
      vertex -4.7383 4.44956 5
      vertex -3.09812 2.90932 5
      vertex -4.14326 5.00834 5
    endloop
  endfacet
  facet normal 0 0 1
    outer loop
      vertex -3.09812 2.90932 5
      vertex -4.7383 4.44956 5
      vertex -3.43832 2.49809 5
    endloop
  endfacet
  facet normal -0 0 1
    outer loop
      vertex -5.25861 3.8206 5
      vertex -3.43832 2.49809 5
      vertex -4.7383 4.44956 5
    endloop
  endfacet
  facet normal 0 0 1
    outer loop
      vertex -3.43832 2.49809 5
      vertex -5.25861 3.8206 5
      vertex -3.7243 2.04745 5
    endloop
  endfacet
  facet normal -0 0 1
    outer loop
      vertex -5.69599 3.1314 5
      vertex -3.7243 2.04745 5
      vertex -5.25861 3.8206 5
    endloop
  endfacet
  facet normal 0 0 1
    outer loop
      vertex -3.7243 2.04745 5
      vertex -5.69599 3.1314 5
      vertex -3.95155 1.56453 5
    endloop
  endfacet
  facet normal -0 0 1
    outer loop
      vertex -6.04355 2.39281 5
      vertex -3.95155 1.56453 5
      vertex -5.69599 3.1314 5
    endloop
  endfacet
  facet normal 0 0 1
    outer loop
      vertex 6.04355 -2.39281 5
      vertex 3.95155 -1.56453 5
      vertex 5.69599 -3.1314 5
    endloop
  endfacet
  facet normal -0 0 1
    outer loop
      vertex 3.7243 -2.04745 5
      vertex 5.69599 -3.1314 5
      vertex 3.95155 -1.56453 5
    endloop
  endfacet
  facet normal 0 0 1
    outer loop
      vertex 5.69599 -3.1314 5
      vertex 3.7243 -2.04745 5
      vertex 5.25861 -3.8206 5
    endloop
  endfacet
  facet normal -0 0 1
    outer loop
      vertex 3.43832 -2.49809 5
      vertex 5.25861 -3.8206 5
      vertex 3.7243 -2.04745 5
    endloop
  endfacet
  facet normal 0 0 1
    outer loop
      vertex 5.25861 -3.8206 5
      vertex 3.43832 -2.49809 5
      vertex 4.7383 -4.44956 5
    endloop
  endfacet
  facet normal -0 0 1
    outer loop
      vertex 3.09812 -2.90932 5
      vertex 4.7383 -4.44956 5
      vertex 3.43832 -2.49809 5
    endloop
  endfacet
  facet normal 0 0 1
    outer loop
      vertex 4.7383 -4.44956 5
      vertex 3.09812 -2.90932 5
      vertex 4.14326 -5.00834 5
    endloop
  endfacet
  facet normal -0 0 1
    outer loop
      vertex 2.70905 -3.27468 5
      vertex 4.14326 -5.00834 5
      vertex 3.09812 -2.90932 5
    endloop
  endfacet
  facet normal 0 0 1
    outer loop
      vertex 4.14326 -5.00834 5
      vertex 2.70905 -3.27468 5
      vertex 3.48287 -5.48813 5
    endloop
  endfacet
  facet normal -0 0 1
    outer loop
      vertex 2.27726 -3.58839 5
      vertex 3.48287 -5.48813 5
      vertex 2.70905 -3.27468 5
    endloop
  endfacet
  facet normal 0 0 1
    outer loop
      vertex 3.48287 -5.48813 5
      vertex 2.27726 -3.58839 5
      vertex 2.76756 -5.88138 5
    endloop
  endfacet
  facet normal -0 0 1
    outer loop
      vertex 1.80956 -3.84551 5
      vertex 2.76756 -5.88138 5
      vertex 2.27726 -3.58839 5
    endloop
  endfacet
  facet normal 0 0 1
    outer loop
      vertex 2.76756 -5.88138 5
      vertex 1.80956 -3.84551 5
      vertex 2.00861 -6.18187 5
    endloop
  endfacet
  facet normal -0 0 1
    outer loop
      vertex 1.31332 -4.04199 5
      vertex 2.00861 -6.18187 5
      vertex 1.80956 -3.84551 5
    endloop
  endfacet
  facet normal 0 0 1
    outer loop
      vertex 1.31332 -4.04199 5
      vertex 1.21798 -6.38487 5
      vertex 2.00861 -6.18187 5
    endloop
  endfacet
  facet normal -0 0 1
    outer loop
      vertex 0.796371 -4.17472 5
      vertex 1.21798 -6.38487 5
      vertex 1.31332 -4.04199 5
    endloop
  endfacet
  facet normal 0 0 1
    outer loop
      vertex 0.796371 -4.17472 5
      vertex 0.408138 -6.48717 5
      vertex 1.21798 -6.38487 5
    endloop
  endfacet
  facet normal -0 0 1
    outer loop
      vertex 0.266859 -4.24161 5
      vertex 0.408138 -6.48717 5
      vertex 0.796371 -4.17472 5
    endloop
  endfacet
  facet normal -0 0 1
    outer loop
      vertex -0.266859 -4.24161 5
      vertex 0.408138 -6.48717 5
      vertex 0.266859 -4.24161 5
    endloop
  endfacet
  facet normal 0 0 1
    outer loop
      vertex -0.266859 -4.24161 5
      vertex -0.408138 -6.48717 5
      vertex 0.408138 -6.48717 5
    endloop
  endfacet
  facet normal 0 0 1
    outer loop
      vertex -0.796371 -4.17472 5
      vertex -0.408138 -6.48717 5
      vertex -0.266859 -4.24161 5
    endloop
  endfacet
  facet normal 0 0 1
    outer loop
      vertex -0.796371 -4.17472 5
      vertex -1.21798 -6.38487 5
      vertex -0.408138 -6.48717 5
    endloop
  endfacet
  facet normal 0 0 1
    outer loop
      vertex -1.31332 -4.04199 5
      vertex -1.21798 -6.38487 5
      vertex -0.796371 -4.17472 5
    endloop
  endfacet
  facet normal 0 0 1
    outer loop
      vertex -2.00861 -6.18187 5
      vertex -1.31332 -4.04199 5
      vertex -1.80956 -3.84551 5
    endloop
  endfacet
  facet normal 0 0 1
    outer loop
      vertex -1.31332 -4.04199 5
      vertex -2.00861 -6.18187 5
      vertex -1.21798 -6.38487 5
    endloop
  endfacet
  facet normal 0 0 1
    outer loop
      vertex -2.76756 -5.88138 5
      vertex -1.80956 -3.84551 5
      vertex -2.27726 -3.58839 5
    endloop
  endfacet
  facet normal 0 0 1
    outer loop
      vertex -3.48287 -5.48813 5
      vertex -2.27726 -3.58839 5
      vertex -2.70905 -3.27468 5
    endloop
  endfacet
  facet normal 0 0 1
    outer loop
      vertex -1.80956 -3.84551 5
      vertex -2.76756 -5.88138 5
      vertex -2.00861 -6.18187 5
    endloop
  endfacet
  facet normal 0 0 1
    outer loop
      vertex -4.14326 -5.00834 5
      vertex -2.70905 -3.27468 5
      vertex -3.09812 -2.90932 5
    endloop
  endfacet
  facet normal 0 0 1
    outer loop
      vertex -4.7383 -4.44956 5
      vertex -3.09812 -2.90932 5
      vertex -3.43832 -2.49809 5
    endloop
  endfacet
  facet normal 0 0 1
    outer loop
      vertex -2.27726 -3.58839 5
      vertex -3.48287 -5.48813 5
      vertex -2.76756 -5.88138 5
    endloop
  endfacet
  facet normal 0 0 1
    outer loop
      vertex -5.25861 -3.8206 5
      vertex -3.43832 -2.49809 5
      vertex -3.7243 -2.04745 5
    endloop
  endfacet
  facet normal 0 0 1
    outer loop
      vertex -5.69599 -3.1314 5
      vertex -3.7243 -2.04745 5
      vertex -3.95155 -1.56453 5
    endloop
  endfacet
  facet normal 0 0 1
    outer loop
      vertex -6.04355 -2.39281 5
      vertex -3.95155 -1.56453 5
      vertex -4.11648 -1.05693 5
    endloop
  endfacet
  facet normal 0 0 1
    outer loop
      vertex -2.70905 -3.27468 5
      vertex -4.14326 -5.00834 5
      vertex -3.48287 -5.48813 5
    endloop
  endfacet
  facet normal 0 0 1
    outer loop
      vertex -6.29579 -1.61648 5
      vertex -4.11648 -1.05693 5
      vertex -4.21649 -0.532666 5
    endloop
  endfacet
  facet normal 0 0 1
    outer loop
      vertex -6.44874 -0.814666 5
      vertex -4.21649 -0.532666 5
      vertex -4.25 0 5
    endloop
  endfacet
  facet normal 0 0 1
    outer loop
      vertex -3.95155 1.56453 5
      vertex -6.04355 2.39281 5
      vertex -4.11648 1.05693 5
    endloop
  endfacet
  facet normal 0 0 1
    outer loop
      vertex -3.09812 -2.90932 5
      vertex -4.7383 -4.44956 5
      vertex -4.14326 -5.00834 5
    endloop
  endfacet
  facet normal -0 0 1
    outer loop
      vertex -6.29579 1.61648 5
      vertex -4.11648 1.05693 5
      vertex -6.04355 2.39281 5
    endloop
  endfacet
  facet normal 0 0 1
    outer loop
      vertex -3.43832 -2.49809 5
      vertex -5.25861 -3.8206 5
      vertex -4.7383 -4.44956 5
    endloop
  endfacet
  facet normal 0 0 1
    outer loop
      vertex -4.11648 1.05693 5
      vertex -6.29579 1.61648 5
      vertex -4.21649 0.532666 5
    endloop
  endfacet
  facet normal 0 0 1
    outer loop
      vertex -3.7243 -2.04745 5
      vertex -5.69599 -3.1314 5
      vertex -5.25861 -3.8206 5
    endloop
  endfacet
  facet normal -0 0 1
    outer loop
      vertex -6.44874 0.814666 5
      vertex -4.21649 0.532666 5
      vertex -6.29579 1.61648 5
    endloop
  endfacet
  facet normal 0 0 1
    outer loop
      vertex -3.95155 -1.56453 5
      vertex -6.04355 -2.39281 5
      vertex -5.69599 -3.1314 5
    endloop
  endfacet
  facet normal 0 0 1
    outer loop
      vertex -4.21649 0.532666 5
      vertex -6.44874 0.814666 5
      vertex -4.25 0 5
    endloop
  endfacet
  facet normal 0 0 1
    outer loop
      vertex -4.11648 -1.05693 5
      vertex -6.29579 -1.61648 5
      vertex -6.04355 -2.39281 5
    endloop
  endfacet
  facet normal 0 0 1
    outer loop
      vertex -6.5 0 5
      vertex -4.25 0 5
      vertex -6.44874 0.814666 5
    endloop
  endfacet
  facet normal 0 0 1
    outer loop
      vertex -4.21649 -0.532666 5
      vertex -6.44874 -0.814666 5
      vertex -6.29579 -1.61648 5
    endloop
  endfacet
  facet normal 0 0 1
    outer loop
      vertex -4.25 0 5
      vertex -6.5 0 5
      vertex -6.44874 -0.814666 5
    endloop
  endfacet
  facet normal -0.481758 0.876304 0
    outer loop
      vertex -2.76756 5.88138 -5
      vertex -3.48287 5.48813 5
      vertex -2.76756 5.88138 5
    endloop
  endfacet
  facet normal -0.481758 0.876304 0
    outer loop
      vertex -3.48287 5.48813 5
      vertex -2.76756 5.88138 -5
      vertex -3.48287 5.48813 -5
    endloop
  endfacet
  facet normal -0.587776 0.809024 0
    outer loop
      vertex -3.48287 5.48813 -5
      vertex -4.14326 5.00834 5
      vertex -3.48287 5.48813 5
    endloop
  endfacet
  facet normal -0.587776 0.809024 0
    outer loop
      vertex -4.14326 5.00834 5
      vertex -3.48287 5.48813 -5
      vertex -4.14326 5.00834 -5
    endloop
  endfacet
  facet normal -0.248691 0.968583 0
    outer loop
      vertex -1.21798 6.38487 -5
      vertex -2.00861 6.18187 5
      vertex -1.21798 6.38487 5
    endloop
  endfacet
  facet normal -0.248691 0.968583 0
    outer loop
      vertex -2.00861 6.18187 5
      vertex -1.21798 6.38487 -5
      vertex -2.00861 6.18187 -5
    endloop
  endfacet
  facet normal 0.998026 -0.0627973 0
    outer loop
      vertex 6.44874 -0.814666 5
      vertex 6.5 0 -5
      vertex 6.5 0 5
    endloop
  endfacet
  facet normal 0.998026 -0.0627973 0
    outer loop
      vertex 6.5 0 -5
      vertex 6.44874 -0.814666 5
      vertex 6.44874 -0.814666 -5
    endloop
  endfacet
  facet normal 0.481758 -0.876304 0
    outer loop
      vertex 2.76756 -5.88138 -5
      vertex 3.48287 -5.48813 5
      vertex 2.76756 -5.88138 5
    endloop
  endfacet
  facet normal 0.481758 -0.876304 0
    outer loop
      vertex 3.48287 -5.48813 5
      vertex 2.76756 -5.88138 -5
      vertex 3.48287 -5.48813 -5
    endloop
  endfacet
  facet normal 0.684547 -0.728968 0
    outer loop
      vertex 4.14326 -5.00834 -5
      vertex 4.7383 -4.44956 5
      vertex 4.14326 -5.00834 5
    endloop
  endfacet
  facet normal 0.684547 -0.728968 0
    outer loop
      vertex 4.7383 -4.44956 5
      vertex 4.14326 -5.00834 -5
      vertex 4.7383 -4.44956 -5
    endloop
  endfacet
  facet normal 0.844328 -0.535827 0
    outer loop
      vertex 5.25861 -3.8206 5
      vertex 5.69599 -3.1314 -5
      vertex 5.69599 -3.1314 5
    endloop
  endfacet
  facet normal 0.844328 -0.535827 0
    outer loop
      vertex 5.69599 -3.1314 -5
      vertex 5.25861 -3.8206 5
      vertex 5.25861 -3.8206 -5
    endloop
  endfacet
  facet normal -0.904824 -0.425785 0
    outer loop
      vertex -5.69599 -3.1314 -5
      vertex -6.04355 -2.39281 5
      vertex -6.04355 -2.39281 -5
    endloop
  endfacet
  facet normal -0.904824 -0.425785 0
    outer loop
      vertex -6.04355 -2.39281 5
      vertex -5.69599 -3.1314 -5
      vertex -5.69599 -3.1314 5
    endloop
  endfacet
  facet normal 0 0 -1
    outer loop
      vertex 4.25 0 -5
      vertex 6.5 0 -5
      vertex 6.44874 -0.814666 -5
    endloop
  endfacet
  facet normal 0 0 -1
    outer loop
      vertex 4.21649 -0.532666 -5
      vertex 6.44874 -0.814666 -5
      vertex 6.29579 -1.61648 -5
    endloop
  endfacet
  facet normal 0 0 -1
    outer loop
      vertex 6.5 0 -5
      vertex 4.25 0 -5
      vertex 6.44874 0.814666 -5
    endloop
  endfacet
  facet normal 0 0 -1
    outer loop
      vertex 4.11648 -1.05693 -5
      vertex 6.29579 -1.61648 -5
      vertex 6.04355 -2.39281 -5
    endloop
  endfacet
  facet normal 0 0 -1
    outer loop
      vertex 4.21649 0.532666 -5
      vertex 6.44874 0.814666 -5
      vertex 4.25 0 -5
    endloop
  endfacet
  facet normal 0 0 -1
    outer loop
      vertex 3.95155 -1.56453 -5
      vertex 6.04355 -2.39281 -5
      vertex 5.69599 -3.1314 -5
    endloop
  endfacet
  facet normal -0 0 -1
    outer loop
      vertex 6.44874 0.814666 -5
      vertex 4.21649 0.532666 -5
      vertex 6.29579 1.61648 -5
    endloop
  endfacet
  facet normal 0 0 -1
    outer loop
      vertex 3.7243 -2.04745 -5
      vertex 5.69599 -3.1314 -5
      vertex 5.25861 -3.8206 -5
    endloop
  endfacet
  facet normal 0 0 -1
    outer loop
      vertex 4.11648 1.05693 -5
      vertex 6.29579 1.61648 -5
      vertex 4.21649 0.532666 -5
    endloop
  endfacet
  facet normal 0 0 -1
    outer loop
      vertex 3.43832 -2.49809 -5
      vertex 5.25861 -3.8206 -5
      vertex 4.7383 -4.44956 -5
    endloop
  endfacet
  facet normal -0 0 -1
    outer loop
      vertex 6.29579 1.61648 -5
      vertex 4.11648 1.05693 -5
      vertex 6.04355 2.39281 -5
    endloop
  endfacet
  facet normal 0 0 -1
    outer loop
      vertex 3.95155 1.56453 -5
      vertex 6.04355 2.39281 -5
      vertex 4.11648 1.05693 -5
    endloop
  endfacet
  facet normal 0 0 -1
    outer loop
      vertex 6.44874 -0.814666 -5
      vertex 4.21649 -0.532666 -5
      vertex 4.25 0 -5
    endloop
  endfacet
  facet normal 0 0 -1
    outer loop
      vertex 3.09812 -2.90932 -5
      vertex 4.7383 -4.44956 -5
      vertex 4.14326 -5.00834 -5
    endloop
  endfacet
  facet normal 0 0 -1
    outer loop
      vertex 6.29579 -1.61648 -5
      vertex 4.11648 -1.05693 -5
      vertex 4.21649 -0.532666 -5
    endloop
  endfacet
  facet normal 0 0 -1
    outer loop
      vertex 6.04355 -2.39281 -5
      vertex 3.95155 -1.56453 -5
      vertex 4.11648 -1.05693 -5
    endloop
  endfacet
  facet normal 0 0 -1
    outer loop
      vertex 5.69599 -3.1314 -5
      vertex 3.7243 -2.04745 -5
      vertex 3.95155 -1.56453 -5
    endloop
  endfacet
  facet normal 0 0 -1
    outer loop
      vertex 2.70905 -3.27468 -5
      vertex 4.14326 -5.00834 -5
      vertex 3.48287 -5.48813 -5
    endloop
  endfacet
  facet normal 0 0 -1
    outer loop
      vertex 5.25861 -3.8206 -5
      vertex 3.43832 -2.49809 -5
      vertex 3.7243 -2.04745 -5
    endloop
  endfacet
  facet normal 0 0 -1
    outer loop
      vertex 4.7383 -4.44956 -5
      vertex 3.09812 -2.90932 -5
      vertex 3.43832 -2.49809 -5
    endloop
  endfacet
  facet normal 0 0 -1
    outer loop
      vertex 2.27726 -3.58839 -5
      vertex 3.48287 -5.48813 -5
      vertex 2.76756 -5.88138 -5
    endloop
  endfacet
  facet normal 0 0 -1
    outer loop
      vertex 4.14326 -5.00834 -5
      vertex 2.70905 -3.27468 -5
      vertex 3.09812 -2.90932 -5
    endloop
  endfacet
  facet normal 0 0 -1
    outer loop
      vertex 3.48287 -5.48813 -5
      vertex 2.27726 -3.58839 -5
      vertex 2.70905 -3.27468 -5
    endloop
  endfacet
  facet normal 0 0 -1
    outer loop
      vertex 1.80956 -3.84551 -5
      vertex 2.76756 -5.88138 -5
      vertex 2.00861 -6.18187 -5
    endloop
  endfacet
  facet normal 0 0 -1
    outer loop
      vertex 2.76756 -5.88138 -5
      vertex 1.80956 -3.84551 -5
      vertex 2.27726 -3.58839 -5
    endloop
  endfacet
  facet normal 0 0 -1
    outer loop
      vertex 2.00861 -6.18187 -5
      vertex 1.31332 -4.04199 -5
      vertex 1.80956 -3.84551 -5
    endloop
  endfacet
  facet normal 0 0 -1
    outer loop
      vertex 1.21798 -6.38487 -5
      vertex 1.31332 -4.04199 -5
      vertex 2.00861 -6.18187 -5
    endloop
  endfacet
  facet normal 0 0 -1
    outer loop
      vertex 1.21798 -6.38487 -5
      vertex 0.796371 -4.17472 -5
      vertex 1.31332 -4.04199 -5
    endloop
  endfacet
  facet normal 0 0 -1
    outer loop
      vertex 0.408138 -6.48717 -5
      vertex 0.796371 -4.17472 -5
      vertex 1.21798 -6.38487 -5
    endloop
  endfacet
  facet normal 0 0 -1
    outer loop
      vertex 0.408138 -6.48717 -5
      vertex 0.266859 -4.24161 -5
      vertex 0.796371 -4.17472 -5
    endloop
  endfacet
  facet normal 0 0 -1
    outer loop
      vertex 0.408138 -6.48717 -5
      vertex -0.266859 -4.24161 -5
      vertex 0.266859 -4.24161 -5
    endloop
  endfacet
  facet normal 0 0 -1
    outer loop
      vertex -0.408138 -6.48717 -5
      vertex -0.266859 -4.24161 -5
      vertex 0.408138 -6.48717 -5
    endloop
  endfacet
  facet normal 0 0 -1
    outer loop
      vertex -0.408138 -6.48717 -5
      vertex -0.796371 -4.17472 -5
      vertex -0.266859 -4.24161 -5
    endloop
  endfacet
  facet normal 0 0 -1
    outer loop
      vertex -1.21798 -6.38487 -5
      vertex -0.796371 -4.17472 -5
      vertex -0.408138 -6.48717 -5
    endloop
  endfacet
  facet normal 0 0 -1
    outer loop
      vertex -1.21798 -6.38487 -5
      vertex -1.31332 -4.04199 -5
      vertex -0.796371 -4.17472 -5
    endloop
  endfacet
  facet normal 0 0 -1
    outer loop
      vertex -2.00861 -6.18187 -5
      vertex -1.31332 -4.04199 -5
      vertex -1.21798 -6.38487 -5
    endloop
  endfacet
  facet normal -0 0 -1
    outer loop
      vertex -1.31332 -4.04199 -5
      vertex -2.00861 -6.18187 -5
      vertex -1.80956 -3.84551 -5
    endloop
  endfacet
  facet normal 0 0 -1
    outer loop
      vertex -2.76756 -5.88138 -5
      vertex -1.80956 -3.84551 -5
      vertex -2.00861 -6.18187 -5
    endloop
  endfacet
  facet normal -0 0 -1
    outer loop
      vertex -1.80956 -3.84551 -5
      vertex -2.76756 -5.88138 -5
      vertex -2.27726 -3.58839 -5
    endloop
  endfacet
  facet normal 0 0 -1
    outer loop
      vertex -3.48287 -5.48813 -5
      vertex -2.27726 -3.58839 -5
      vertex -2.76756 -5.88138 -5
    endloop
  endfacet
  facet normal -0 0 -1
    outer loop
      vertex -2.27726 -3.58839 -5
      vertex -3.48287 -5.48813 -5
      vertex -2.70905 -3.27468 -5
    endloop
  endfacet
  facet normal 0 0 -1
    outer loop
      vertex -4.14326 -5.00834 -5
      vertex -2.70905 -3.27468 -5
      vertex -3.48287 -5.48813 -5
    endloop
  endfacet
  facet normal -0 0 -1
    outer loop
      vertex -2.70905 -3.27468 -5
      vertex -4.14326 -5.00834 -5
      vertex -3.09812 -2.90932 -5
    endloop
  endfacet
  facet normal 0 0 -1
    outer loop
      vertex -4.7383 -4.44956 -5
      vertex -3.09812 -2.90932 -5
      vertex -4.14326 -5.00834 -5
    endloop
  endfacet
  facet normal -0 0 -1
    outer loop
      vertex -3.09812 -2.90932 -5
      vertex -4.7383 -4.44956 -5
      vertex -3.43832 -2.49809 -5
    endloop
  endfacet
  facet normal 0 0 -1
    outer loop
      vertex -5.25861 -3.8206 -5
      vertex -3.43832 -2.49809 -5
      vertex -4.7383 -4.44956 -5
    endloop
  endfacet
  facet normal -0 0 -1
    outer loop
      vertex -3.43832 -2.49809 -5
      vertex -5.25861 -3.8206 -5
      vertex -3.7243 -2.04745 -5
    endloop
  endfacet
  facet normal 0 0 -1
    outer loop
      vertex -5.69599 -3.1314 -5
      vertex -3.7243 -2.04745 -5
      vertex -5.25861 -3.8206 -5
    endloop
  endfacet
  facet normal -0 0 -1
    outer loop
      vertex -3.7243 -2.04745 -5
      vertex -5.69599 -3.1314 -5
      vertex -3.95155 -1.56453 -5
    endloop
  endfacet
  facet normal 0 0 -1
    outer loop
      vertex -6.04355 -2.39281 -5
      vertex -3.95155 -1.56453 -5
      vertex -5.69599 -3.1314 -5
    endloop
  endfacet
  facet normal -0 0 -1
    outer loop
      vertex 6.04355 2.39281 -5
      vertex 3.95155 1.56453 -5
      vertex 5.69599 3.1314 -5
    endloop
  endfacet
  facet normal 0 0 -1
    outer loop
      vertex 3.7243 2.04745 -5
      vertex 5.69599 3.1314 -5
      vertex 3.95155 1.56453 -5
    endloop
  endfacet
  facet normal -0 0 -1
    outer loop
      vertex 5.69599 3.1314 -5
      vertex 3.7243 2.04745 -5
      vertex 5.25861 3.8206 -5
    endloop
  endfacet
  facet normal 0 0 -1
    outer loop
      vertex 3.43832 2.49809 -5
      vertex 5.25861 3.8206 -5
      vertex 3.7243 2.04745 -5
    endloop
  endfacet
  facet normal -0 0 -1
    outer loop
      vertex 5.25861 3.8206 -5
      vertex 3.43832 2.49809 -5
      vertex 4.7383 4.44956 -5
    endloop
  endfacet
  facet normal 0 0 -1
    outer loop
      vertex 3.09812 2.90932 -5
      vertex 4.7383 4.44956 -5
      vertex 3.43832 2.49809 -5
    endloop
  endfacet
  facet normal -0 0 -1
    outer loop
      vertex 4.7383 4.44956 -5
      vertex 3.09812 2.90932 -5
      vertex 4.14326 5.00834 -5
    endloop
  endfacet
  facet normal 0 0 -1
    outer loop
      vertex 2.70905 3.27468 -5
      vertex 4.14326 5.00834 -5
      vertex 3.09812 2.90932 -5
    endloop
  endfacet
  facet normal -0 0 -1
    outer loop
      vertex 4.14326 5.00834 -5
      vertex 2.70905 3.27468 -5
      vertex 3.48287 5.48813 -5
    endloop
  endfacet
  facet normal 0 0 -1
    outer loop
      vertex 2.27726 3.58839 -5
      vertex 3.48287 5.48813 -5
      vertex 2.70905 3.27468 -5
    endloop
  endfacet
  facet normal -0 0 -1
    outer loop
      vertex 3.48287 5.48813 -5
      vertex 2.27726 3.58839 -5
      vertex 2.76756 5.88138 -5
    endloop
  endfacet
  facet normal 0 0 -1
    outer loop
      vertex 1.80956 3.84551 -5
      vertex 2.76756 5.88138 -5
      vertex 2.27726 3.58839 -5
    endloop
  endfacet
  facet normal -0 0 -1
    outer loop
      vertex 2.76756 5.88138 -5
      vertex 1.80956 3.84551 -5
      vertex 2.00861 6.18187 -5
    endloop
  endfacet
  facet normal 0 0 -1
    outer loop
      vertex 1.31332 4.04199 -5
      vertex 2.00861 6.18187 -5
      vertex 1.80956 3.84551 -5
    endloop
  endfacet
  facet normal 0 0 -1
    outer loop
      vertex 1.31332 4.04199 -5
      vertex 1.21798 6.38487 -5
      vertex 2.00861 6.18187 -5
    endloop
  endfacet
  facet normal 0 0 -1
    outer loop
      vertex 0.796371 4.17472 -5
      vertex 1.21798 6.38487 -5
      vertex 1.31332 4.04199 -5
    endloop
  endfacet
  facet normal 0 0 -1
    outer loop
      vertex 0.796371 4.17472 -5
      vertex 0.408138 6.48717 -5
      vertex 1.21798 6.38487 -5
    endloop
  endfacet
  facet normal 0 0 -1
    outer loop
      vertex 0.266859 4.24161 -5
      vertex 0.408138 6.48717 -5
      vertex 0.796371 4.17472 -5
    endloop
  endfacet
  facet normal 0 0 -1
    outer loop
      vertex -0.266859 4.24161 -5
      vertex 0.408138 6.48717 -5
      vertex 0.266859 4.24161 -5
    endloop
  endfacet
  facet normal 0 0 -1
    outer loop
      vertex -0.266859 4.24161 -5
      vertex -0.408138 6.48717 -5
      vertex 0.408138 6.48717 -5
    endloop
  endfacet
  facet normal 0 0 -1
    outer loop
      vertex -0.796371 4.17472 -5
      vertex -0.408138 6.48717 -5
      vertex -0.266859 4.24161 -5
    endloop
  endfacet
  facet normal 0 0 -1
    outer loop
      vertex -0.796371 4.17472 -5
      vertex -1.21798 6.38487 -5
      vertex -0.408138 6.48717 -5
    endloop
  endfacet
  facet normal 0 0 -1
    outer loop
      vertex -1.31332 4.04199 -5
      vertex -1.21798 6.38487 -5
      vertex -0.796371 4.17472 -5
    endloop
  endfacet
  facet normal 0 0 -1
    outer loop
      vertex -2.00861 6.18187 -5
      vertex -1.31332 4.04199 -5
      vertex -1.80956 3.84551 -5
    endloop
  endfacet
  facet normal 0 0 -1
    outer loop
      vertex -1.31332 4.04199 -5
      vertex -2.00861 6.18187 -5
      vertex -1.21798 6.38487 -5
    endloop
  endfacet
  facet normal 0 0 -1
    outer loop
      vertex -2.76756 5.88138 -5
      vertex -1.80956 3.84551 -5
      vertex -2.27726 3.58839 -5
    endloop
  endfacet
  facet normal 0 0 -1
    outer loop
      vertex -3.48287 5.48813 -5
      vertex -2.27726 3.58839 -5
      vertex -2.70905 3.27468 -5
    endloop
  endfacet
  facet normal 0 0 -1
    outer loop
      vertex -1.80956 3.84551 -5
      vertex -2.76756 5.88138 -5
      vertex -2.00861 6.18187 -5
    endloop
  endfacet
  facet normal 0 0 -1
    outer loop
      vertex -4.14326 5.00834 -5
      vertex -2.70905 3.27468 -5
      vertex -3.09812 2.90932 -5
    endloop
  endfacet
  facet normal 0 0 -1
    outer loop
      vertex -4.7383 4.44956 -5
      vertex -3.09812 2.90932 -5
      vertex -3.43832 2.49809 -5
    endloop
  endfacet
  facet normal 0 0 -1
    outer loop
      vertex -2.27726 3.58839 -5
      vertex -3.48287 5.48813 -5
      vertex -2.76756 5.88138 -5
    endloop
  endfacet
  facet normal 0 0 -1
    outer loop
      vertex -5.25861 3.8206 -5
      vertex -3.43832 2.49809 -5
      vertex -3.7243 2.04745 -5
    endloop
  endfacet
  facet normal 0 0 -1
    outer loop
      vertex -5.69599 3.1314 -5
      vertex -3.7243 2.04745 -5
      vertex -3.95155 1.56453 -5
    endloop
  endfacet
  facet normal 0 0 -1
    outer loop
      vertex -6.04355 2.39281 -5
      vertex -3.95155 1.56453 -5
      vertex -4.11648 1.05693 -5
    endloop
  endfacet
  facet normal 0 0 -1
    outer loop
      vertex -2.70905 3.27468 -5
      vertex -4.14326 5.00834 -5
      vertex -3.48287 5.48813 -5
    endloop
  endfacet
  facet normal 0 0 -1
    outer loop
      vertex -6.29579 1.61648 -5
      vertex -4.11648 1.05693 -5
      vertex -4.21649 0.532666 -5
    endloop
  endfacet
  facet normal 0 0 -1
    outer loop
      vertex -6.44874 0.814666 -5
      vertex -4.21649 0.532666 -5
      vertex -4.25 0 -5
    endloop
  endfacet
  facet normal -0 0 -1
    outer loop
      vertex -3.95155 -1.56453 -5
      vertex -6.04355 -2.39281 -5
      vertex -4.11648 -1.05693 -5
    endloop
  endfacet
  facet normal 0 0 -1
    outer loop
      vertex -3.09812 2.90932 -5
      vertex -4.7383 4.44956 -5
      vertex -4.14326 5.00834 -5
    endloop
  endfacet
  facet normal 0 0 -1
    outer loop
      vertex -6.29579 -1.61648 -5
      vertex -4.11648 -1.05693 -5
      vertex -6.04355 -2.39281 -5
    endloop
  endfacet
  facet normal 0 0 -1
    outer loop
      vertex -3.43832 2.49809 -5
      vertex -5.25861 3.8206 -5
      vertex -4.7383 4.44956 -5
    endloop
  endfacet
  facet normal -0 0 -1
    outer loop
      vertex -4.11648 -1.05693 -5
      vertex -6.29579 -1.61648 -5
      vertex -4.21649 -0.532666 -5
    endloop
  endfacet
  facet normal 0 0 -1
    outer loop
      vertex -3.7243 2.04745 -5
      vertex -5.69599 3.1314 -5
      vertex -5.25861 3.8206 -5
    endloop
  endfacet
  facet normal 0 0 -1
    outer loop
      vertex -6.44874 -0.814666 -5
      vertex -4.21649 -0.532666 -5
      vertex -6.29579 -1.61648 -5
    endloop
  endfacet
  facet normal 0 0 -1
    outer loop
      vertex -3.95155 1.56453 -5
      vertex -6.04355 2.39281 -5
      vertex -5.69599 3.1314 -5
    endloop
  endfacet
  facet normal -0 0 -1
    outer loop
      vertex -4.21649 -0.532666 -5
      vertex -6.44874 -0.814666 -5
      vertex -4.25 0 -5
    endloop
  endfacet
  facet normal 0 0 -1
    outer loop
      vertex -4.11648 1.05693 -5
      vertex -6.29579 1.61648 -5
      vertex -6.04355 2.39281 -5
    endloop
  endfacet
  facet normal 0 0 -1
    outer loop
      vertex -6.5 0 -5
      vertex -4.25 0 -5
      vertex -6.44874 -0.814666 -5
    endloop
  endfacet
  facet normal 0 0 -1
    outer loop
      vertex -4.21649 0.532666 -5
      vertex -6.44874 0.814666 -5
      vertex -6.29579 1.61648 -5
    endloop
  endfacet
  facet normal 0 0 -1
    outer loop
      vertex -4.25 0 -5
      vertex -6.5 0 -5
      vertex -6.44874 0.814666 -5
    endloop
  endfacet
  facet normal 0.951058 -0.309012 0
    outer loop
      vertex 6.04355 -2.39281 5
      vertex 6.29579 -1.61648 -5
      vertex 6.29579 -1.61648 5
    endloop
  endfacet
  facet normal 0.951058 -0.309012 0
    outer loop
      vertex 6.29579 -1.61648 -5
      vertex 6.04355 -2.39281 5
      vertex 6.04355 -2.39281 -5
    endloop
  endfacet
  facet normal 0.77052 -0.637416 0
    outer loop
      vertex 4.7383 -4.44956 5
      vertex 5.25861 -3.8206 -5
      vertex 5.25861 -3.8206 5
    endloop
  endfacet
  facet normal 0.77052 -0.637416 0
    outer loop
      vertex 5.25861 -3.8206 -5
      vertex 4.7383 -4.44956 5
      vertex 4.7383 -4.44956 -5
    endloop
  endfacet
  facet normal -0.951058 -0.309012 0
    outer loop
      vertex -6.04355 -2.39281 -5
      vertex -6.29579 -1.61648 5
      vertex -6.29579 -1.61648 -5
    endloop
  endfacet
  facet normal -0.951058 -0.309012 0
    outer loop
      vertex -6.29579 -1.61648 5
      vertex -6.04355 -2.39281 -5
      vertex -6.04355 -2.39281 5
    endloop
  endfacet
  facet normal 0.248691 -0.968583 0
    outer loop
      vertex 1.21798 -6.38487 -5
      vertex 2.00861 -6.18187 5
      vertex 1.21798 -6.38487 5
    endloop
  endfacet
  facet normal 0.248691 -0.968583 0
    outer loop
      vertex 2.00861 -6.18187 5
      vertex 1.21798 -6.38487 -5
      vertex 2.00861 -6.18187 -5
    endloop
  endfacet
  facet normal 0.982288 -0.187376 0
    outer loop
      vertex 6.29579 -1.61648 5
      vertex 6.44874 -0.814666 -5
      vertex 6.44874 -0.814666 5
    endloop
  endfacet
  facet normal 0.982288 -0.187376 0
    outer loop
      vertex 6.44874 -0.814666 -5
      vertex 6.29579 -1.61648 5
      vertex 6.29579 -1.61648 -5
    endloop
  endfacet
  facet normal 0.587776 -0.809024 0
    outer loop
      vertex 3.48287 -5.48813 -5
      vertex 4.14326 -5.00834 5
      vertex 3.48287 -5.48813 5
    endloop
  endfacet
  facet normal 0.587776 -0.809024 0
    outer loop
      vertex 4.14326 -5.00834 5
      vertex 3.48287 -5.48813 -5
      vertex 4.14326 -5.00834 -5
    endloop
  endfacet
  facet normal -0.125325 -0.992116 0
    outer loop
      vertex -1.21798 -6.38487 -5
      vertex -0.408138 -6.48717 5
      vertex -1.21798 -6.38487 5
    endloop
  endfacet
  facet normal -0.125325 -0.992116 -0
    outer loop
      vertex -0.408138 -6.48717 5
      vertex -1.21798 -6.38487 -5
      vertex -0.408138 -6.48717 -5
    endloop
  endfacet
  facet normal -0.368125 -0.929776 0
    outer loop
      vertex -2.76756 -5.88138 -5
      vertex -2.00861 -6.18187 5
      vertex -2.76756 -5.88138 5
    endloop
  endfacet
  facet normal -0.368125 -0.929776 -0
    outer loop
      vertex -2.00861 -6.18187 5
      vertex -2.76756 -5.88138 -5
      vertex -2.00861 -6.18187 -5
    endloop
  endfacet
  facet normal -0.248691 -0.968583 0
    outer loop
      vertex -2.00861 -6.18187 -5
      vertex -1.21798 -6.38487 5
      vertex -2.00861 -6.18187 5
    endloop
  endfacet
  facet normal -0.248691 -0.968583 -0
    outer loop
      vertex -1.21798 -6.38487 5
      vertex -2.00861 -6.18187 -5
      vertex -1.21798 -6.38487 -5
    endloop
  endfacet
  facet normal -0.77052 -0.637416 0
    outer loop
      vertex -4.7383 -4.44956 -5
      vertex -5.25861 -3.8206 5
      vertex -5.25861 -3.8206 -5
    endloop
  endfacet
  facet normal -0.77052 -0.637416 0
    outer loop
      vertex -5.25861 -3.8206 5
      vertex -4.7383 -4.44956 -5
      vertex -4.7383 -4.44956 5
    endloop
  endfacet
  facet normal -0.684547 -0.728968 0
    outer loop
      vertex -4.7383 -4.44956 -5
      vertex -4.14326 -5.00834 5
      vertex -4.7383 -4.44956 5
    endloop
  endfacet
  facet normal -0.684547 -0.728968 -0
    outer loop
      vertex -4.14326 -5.00834 5
      vertex -4.7383 -4.44956 -5
      vertex -4.14326 -5.00834 -5
    endloop
  endfacet
  facet normal -0.982288 -0.187376 0
    outer loop
      vertex -6.29579 -1.61648 -5
      vertex -6.44874 -0.814666 5
      vertex -6.44874 -0.814666 -5
    endloop
  endfacet
  facet normal -0.982288 -0.187376 0
    outer loop
      vertex -6.44874 -0.814666 5
      vertex -6.29579 -1.61648 -5
      vertex -6.29579 -1.61648 5
    endloop
  endfacet
  facet normal -0.998026 -0.0627973 0
    outer loop
      vertex -6.44874 -0.814666 -5
      vertex -6.5 0 5
      vertex -6.5 0 -5
    endloop
  endfacet
  facet normal -0.998026 -0.0627973 0
    outer loop
      vertex -6.5 0 5
      vertex -6.44874 -0.814666 -5
      vertex -6.44874 -0.814666 5
    endloop
  endfacet
  facet normal -0.844328 -0.535827 0
    outer loop
      vertex -5.25861 -3.8206 -5
      vertex -5.69599 -3.1314 5
      vertex -5.69599 -3.1314 -5
    endloop
  endfacet
  facet normal -0.844328 -0.535827 0
    outer loop
      vertex -5.69599 -3.1314 5
      vertex -5.25861 -3.8206 -5
      vertex -5.25861 -3.8206 5
    endloop
  endfacet
  facet normal -0.481758 -0.876304 0
    outer loop
      vertex -3.48287 -5.48813 -5
      vertex -2.76756 -5.88138 5
      vertex -3.48287 -5.48813 5
    endloop
  endfacet
  facet normal -0.481758 -0.876304 -0
    outer loop
      vertex -2.76756 -5.88138 5
      vertex -3.48287 -5.48813 -5
      vertex -2.76756 -5.88138 -5
    endloop
  endfacet
  facet normal -0.587776 -0.809024 0
    outer loop
      vertex -4.14326 -5.00834 -5
      vertex -3.48287 -5.48813 5
      vertex -4.14326 -5.00834 5
    endloop
  endfacet
  facet normal -0.587776 -0.809024 -0
    outer loop
      vertex -3.48287 -5.48813 5
      vertex -4.14326 -5.00834 -5
      vertex -3.48287 -5.48813 -5
    endloop
  endfacet
  facet normal 0.951056 -0.309018 0
    outer loop
      vertex -4.11648 1.05693 5
      vertex -3.95155 1.56453 -5
      vertex -3.95155 1.56453 5
    endloop
  endfacet
  facet normal 0.951056 -0.309018 0
    outer loop
      vertex -3.95155 1.56453 -5
      vertex -4.11648 1.05693 5
      vertex -4.11648 1.05693 -5
    endloop
  endfacet
  facet normal -0.844332 -0.53582 0
    outer loop
      vertex 3.7243 2.04745 -5
      vertex 3.43832 2.49809 5
      vertex 3.43832 2.49809 -5
    endloop
  endfacet
  facet normal -0.844332 -0.53582 0
    outer loop
      vertex 3.43832 2.49809 5
      vertex 3.7243 2.04745 -5
      vertex 3.7243 2.04745 5
    endloop
  endfacet
  facet normal -0.368132 -0.929773 0
    outer loop
      vertex 1.31332 4.04199 -5
      vertex 1.80956 3.84551 5
      vertex 1.31332 4.04199 5
    endloop
  endfacet
  facet normal -0.368132 -0.929773 -0
    outer loop
      vertex 1.80956 3.84551 5
      vertex 1.31332 4.04199 -5
      vertex 1.80956 3.84551 -5
    endloop
  endfacet
  facet normal 0.368132 -0.929773 0
    outer loop
      vertex -1.80956 3.84551 -5
      vertex -1.31332 4.04199 5
      vertex -1.80956 3.84551 5
    endloop
  endfacet
  facet normal 0.368132 -0.929773 0
    outer loop
      vertex -1.31332 4.04199 5
      vertex -1.80956 3.84551 -5
      vertex -1.31332 4.04199 -5
    endloop
  endfacet
  facet normal 0.904823 -0.425787 0
    outer loop
      vertex -3.95155 1.56453 5
      vertex -3.7243 2.04745 -5
      vertex -3.7243 2.04745 5
    endloop
  endfacet
  facet normal 0.904823 -0.425787 0
    outer loop
      vertex -3.7243 2.04745 -5
      vertex -3.95155 1.56453 5
      vertex -3.95155 1.56453 -5
    endloop
  endfacet
  facet normal -0.982287 0.187384 0
    outer loop
      vertex 4.11648 -1.05693 -5
      vertex 4.21649 -0.532666 5
      vertex 4.21649 -0.532666 -5
    endloop
  endfacet
  facet normal -0.982287 0.187384 0
    outer loop
      vertex 4.21649 -0.532666 5
      vertex 4.11648 -1.05693 -5
      vertex 4.11648 -1.05693 5
    endloop
  endfacet
  facet normal -0.125328 -0.992115 0
    outer loop
      vertex 0.266859 4.24161 -5
      vertex 0.796371 4.17472 5
      vertex 0.266859 4.24161 5
    endloop
  endfacet
  facet normal -0.125328 -0.992115 -0
    outer loop
      vertex 0.796371 4.17472 5
      vertex 0.266859 4.24161 -5
      vertex 0.796371 4.17472 -5
    endloop
  endfacet
  facet normal -0.587781 -0.80902 0
    outer loop
      vertex 2.27726 3.58839 -5
      vertex 2.70905 3.27468 5
      vertex 2.27726 3.58839 5
    endloop
  endfacet
  facet normal -0.587781 -0.80902 -0
    outer loop
      vertex 2.70905 3.27468 5
      vertex 2.27726 3.58839 -5
      vertex 2.70905 3.27468 -5
    endloop
  endfacet
  facet normal 0.982287 -0.187384 0
    outer loop
      vertex -4.21649 0.532666 5
      vertex -4.11648 1.05693 -5
      vertex -4.11648 1.05693 5
    endloop
  endfacet
  facet normal 0.982287 -0.187384 0
    outer loop
      vertex -4.11648 1.05693 -5
      vertex -4.21649 0.532666 5
      vertex -4.21649 0.532666 -5
    endloop
  endfacet
  facet normal 0.770512 -0.637425 0
    outer loop
      vertex -3.43832 2.49809 5
      vertex -3.09812 2.90932 -5
      vertex -3.09812 2.90932 5
    endloop
  endfacet
  facet normal 0.770512 -0.637425 0
    outer loop
      vertex -3.09812 2.90932 -5
      vertex -3.43832 2.49809 5
      vertex -3.43832 2.49809 -5
    endloop
  endfacet
  facet normal 0.481753 -0.876307 0
    outer loop
      vertex -2.27726 3.58839 -5
      vertex -1.80956 3.84551 5
      vertex -2.27726 3.58839 5
    endloop
  endfacet
  facet normal 0.481753 -0.876307 0
    outer loop
      vertex -1.80956 3.84551 5
      vertex -2.27726 3.58839 -5
      vertex -1.80956 3.84551 -5
    endloop
  endfacet
  facet normal 0.125328 -0.992115 0
    outer loop
      vertex -0.796371 4.17472 -5
      vertex -0.266859 4.24161 5
      vertex -0.796371 4.17472 5
    endloop
  endfacet
  facet normal 0.125328 -0.992115 0
    outer loop
      vertex -0.266859 4.24161 5
      vertex -0.796371 4.17472 -5
      vertex -0.266859 4.24161 -5
    endloop
  endfacet
  facet normal -0.998027 -0.0627858 0
    outer loop
      vertex 4.25 0 -5
      vertex 4.21649 0.532666 5
      vertex 4.21649 0.532666 -5
    endloop
  endfacet
  facet normal -0.998027 -0.0627858 0
    outer loop
      vertex 4.21649 0.532666 5
      vertex 4.25 0 -5
      vertex 4.25 0 5
    endloop
  endfacet
  facet normal -0.951056 0.309018 0
    outer loop
      vertex 3.95155 -1.56453 -5
      vertex 4.11648 -1.05693 5
      vertex 4.11648 -1.05693 -5
    endloop
  endfacet
  facet normal -0.951056 0.309018 0
    outer loop
      vertex 4.11648 -1.05693 5
      vertex 3.95155 -1.56453 -5
      vertex 3.95155 -1.56453 5
    endloop
  endfacet
  facet normal -0.587781 0.80902 0
    outer loop
      vertex 2.70905 -3.27468 -5
      vertex 2.27726 -3.58839 5
      vertex 2.70905 -3.27468 5
    endloop
  endfacet
  facet normal -0.587781 0.80902 0
    outer loop
      vertex 2.27726 -3.58839 5
      vertex 2.70905 -3.27468 -5
      vertex 2.27726 -3.58839 -5
    endloop
  endfacet
  facet normal -0.684546 -0.72897 0
    outer loop
      vertex 2.70905 3.27468 -5
      vertex 3.09812 2.90932 5
      vertex 2.70905 3.27468 5
    endloop
  endfacet
  facet normal -0.684546 -0.72897 -0
    outer loop
      vertex 3.09812 2.90932 5
      vertex 2.70905 3.27468 -5
      vertex 3.09812 2.90932 -5
    endloop
  endfacet
  facet normal -0.770512 -0.637425 0
    outer loop
      vertex 3.43832 2.49809 -5
      vertex 3.09812 2.90932 5
      vertex 3.09812 2.90932 -5
    endloop
  endfacet
  facet normal -0.770512 -0.637425 0
    outer loop
      vertex 3.09812 2.90932 5
      vertex 3.43832 2.49809 -5
      vertex 3.43832 2.49809 5
    endloop
  endfacet
  facet normal 0 -1 0
    outer loop
      vertex -0.266859 4.24161 -5
      vertex 0.266859 4.24161 5
      vertex -0.266859 4.24161 5
    endloop
  endfacet
  facet normal 0 -1 -0
    outer loop
      vertex 0.266859 4.24161 5
      vertex -0.266859 4.24161 -5
      vertex 0.266859 4.24161 -5
    endloop
  endfacet
  facet normal -0.24869 -0.968583 0
    outer loop
      vertex 0.796371 4.17472 -5
      vertex 1.31332 4.04199 5
      vertex 0.796371 4.17472 5
    endloop
  endfacet
  facet normal -0.24869 -0.968583 -0
    outer loop
      vertex 1.31332 4.04199 5
      vertex 0.796371 4.17472 -5
      vertex 1.31332 4.04199 -5
    endloop
  endfacet
  facet normal -0.481753 -0.876307 0
    outer loop
      vertex 1.80956 3.84551 -5
      vertex 2.27726 3.58839 5
      vertex 1.80956 3.84551 5
    endloop
  endfacet
  facet normal -0.481753 -0.876307 -0
    outer loop
      vertex 2.27726 3.58839 5
      vertex 1.80956 3.84551 -5
      vertex 2.27726 3.58839 -5
    endloop
  endfacet
  facet normal 0.998027 -0.0627858 0
    outer loop
      vertex -4.25 0 5
      vertex -4.21649 0.532666 -5
      vertex -4.21649 0.532666 5
    endloop
  endfacet
  facet normal 0.998027 -0.0627858 0
    outer loop
      vertex -4.21649 0.532666 -5
      vertex -4.25 0 5
      vertex -4.25 0 -5
    endloop
  endfacet
  facet normal 0.844332 -0.53582 0
    outer loop
      vertex -3.7243 2.04745 5
      vertex -3.43832 2.49809 -5
      vertex -3.43832 2.49809 5
    endloop
  endfacet
  facet normal 0.844332 -0.53582 0
    outer loop
      vertex -3.43832 2.49809 -5
      vertex -3.7243 2.04745 5
      vertex -3.7243 2.04745 -5
    endloop
  endfacet
  facet normal 0.24869 -0.968583 0
    outer loop
      vertex -1.31332 4.04199 -5
      vertex -0.796371 4.17472 5
      vertex -1.31332 4.04199 5
    endloop
  endfacet
  facet normal 0.24869 -0.968583 0
    outer loop
      vertex -0.796371 4.17472 5
      vertex -1.31332 4.04199 -5
      vertex -0.796371 4.17472 -5
    endloop
  endfacet
  facet normal 0.587781 -0.80902 0
    outer loop
      vertex -2.70905 3.27468 -5
      vertex -2.27726 3.58839 5
      vertex -2.70905 3.27468 5
    endloop
  endfacet
  facet normal 0.587781 -0.80902 0
    outer loop
      vertex -2.27726 3.58839 5
      vertex -2.70905 3.27468 -5
      vertex -2.27726 3.58839 -5
    endloop
  endfacet
  facet normal 0.684546 -0.72897 0
    outer loop
      vertex -3.09812 2.90932 -5
      vertex -2.70905 3.27468 5
      vertex -3.09812 2.90932 5
    endloop
  endfacet
  facet normal 0.684546 -0.72897 0
    outer loop
      vertex -2.70905 3.27468 5
      vertex -3.09812 2.90932 -5
      vertex -2.70905 3.27468 -5
    endloop
  endfacet
  facet normal -0.998027 0.0627858 0
    outer loop
      vertex 4.21649 -0.532666 -5
      vertex 4.25 0 5
      vertex 4.25 0 -5
    endloop
  endfacet
  facet normal -0.998027 0.0627858 0
    outer loop
      vertex 4.25 0 5
      vertex 4.21649 -0.532666 -5
      vertex 4.21649 -0.532666 5
    endloop
  endfacet
  facet normal -0.844332 0.53582 0
    outer loop
      vertex 3.43832 -2.49809 -5
      vertex 3.7243 -2.04745 5
      vertex 3.7243 -2.04745 -5
    endloop
  endfacet
  facet normal -0.844332 0.53582 0
    outer loop
      vertex 3.7243 -2.04745 5
      vertex 3.43832 -2.49809 -5
      vertex 3.43832 -2.49809 5
    endloop
  endfacet
  facet normal -0.125328 0.992115 0
    outer loop
      vertex 0.796371 -4.17472 -5
      vertex 0.266859 -4.24161 5
      vertex 0.796371 -4.17472 5
    endloop
  endfacet
  facet normal -0.125328 0.992115 0
    outer loop
      vertex 0.266859 -4.24161 5
      vertex 0.796371 -4.17472 -5
      vertex 0.266859 -4.24161 -5
    endloop
  endfacet
  facet normal -0.684546 0.72897 0
    outer loop
      vertex 3.09812 -2.90932 -5
      vertex 2.70905 -3.27468 5
      vertex 3.09812 -2.90932 5
    endloop
  endfacet
  facet normal -0.684546 0.72897 0
    outer loop
      vertex 2.70905 -3.27468 5
      vertex 3.09812 -2.90932 -5
      vertex 2.70905 -3.27468 -5
    endloop
  endfacet
  facet normal -0.904823 -0.425787 0
    outer loop
      vertex 3.95155 1.56453 -5
      vertex 3.7243 2.04745 5
      vertex 3.7243 2.04745 -5
    endloop
  endfacet
  facet normal -0.904823 -0.425787 0
    outer loop
      vertex 3.7243 2.04745 5
      vertex 3.95155 1.56453 -5
      vertex 3.95155 1.56453 5
    endloop
  endfacet
  facet normal -0.951056 -0.309018 0
    outer loop
      vertex 4.11648 1.05693 -5
      vertex 3.95155 1.56453 5
      vertex 3.95155 1.56453 -5
    endloop
  endfacet
  facet normal -0.951056 -0.309018 0
    outer loop
      vertex 3.95155 1.56453 5
      vertex 4.11648 1.05693 -5
      vertex 4.11648 1.05693 5
    endloop
  endfacet
  facet normal -0.982287 -0.187384 0
    outer loop
      vertex 4.21649 0.532666 -5
      vertex 4.11648 1.05693 5
      vertex 4.11648 1.05693 -5
    endloop
  endfacet
  facet normal -0.982287 -0.187384 0
    outer loop
      vertex 4.11648 1.05693 5
      vertex 4.21649 0.532666 -5
      vertex 4.21649 0.532666 5
    endloop
  endfacet
  facet normal -0.904823 0.425787 0
    outer loop
      vertex 3.7243 -2.04745 -5
      vertex 3.95155 -1.56453 5
      vertex 3.95155 -1.56453 -5
    endloop
  endfacet
  facet normal -0.904823 0.425787 0
    outer loop
      vertex 3.95155 -1.56453 5
      vertex 3.7243 -2.04745 -5
      vertex 3.7243 -2.04745 5
    endloop
  endfacet
  facet normal 0.24869 0.968583 -0
    outer loop
      vertex -0.796371 -4.17472 -5
      vertex -1.31332 -4.04199 5
      vertex -0.796371 -4.17472 5
    endloop
  endfacet
  facet normal 0.24869 0.968583 0
    outer loop
      vertex -1.31332 -4.04199 5
      vertex -0.796371 -4.17472 -5
      vertex -1.31332 -4.04199 -5
    endloop
  endfacet
  facet normal 0.125328 0.992115 -0
    outer loop
      vertex -0.266859 -4.24161 -5
      vertex -0.796371 -4.17472 5
      vertex -0.266859 -4.24161 5
    endloop
  endfacet
  facet normal 0.125328 0.992115 0
    outer loop
      vertex -0.796371 -4.17472 5
      vertex -0.266859 -4.24161 -5
      vertex -0.796371 -4.17472 -5
    endloop
  endfacet
  facet normal 0.998027 0.0627858 0
    outer loop
      vertex -4.21649 -0.532666 5
      vertex -4.25 0 -5
      vertex -4.25 0 5
    endloop
  endfacet
  facet normal 0.998027 0.0627858 0
    outer loop
      vertex -4.25 0 -5
      vertex -4.21649 -0.532666 5
      vertex -4.21649 -0.532666 -5
    endloop
  endfacet
  facet normal 0.982287 0.187384 0
    outer loop
      vertex -4.11648 -1.05693 5
      vertex -4.21649 -0.532666 -5
      vertex -4.21649 -0.532666 5
    endloop
  endfacet
  facet normal 0.982287 0.187384 0
    outer loop
      vertex -4.21649 -0.532666 -5
      vertex -4.11648 -1.05693 5
      vertex -4.11648 -1.05693 -5
    endloop
  endfacet
  facet normal 0.844332 0.53582 0
    outer loop
      vertex -3.43832 -2.49809 5
      vertex -3.7243 -2.04745 -5
      vertex -3.7243 -2.04745 5
    endloop
  endfacet
  facet normal 0.844332 0.53582 0
    outer loop
      vertex -3.7243 -2.04745 -5
      vertex -3.43832 -2.49809 5
      vertex -3.43832 -2.49809 -5
    endloop
  endfacet
  facet normal 0.904823 0.425787 0
    outer loop
      vertex -3.7243 -2.04745 5
      vertex -3.95155 -1.56453 -5
      vertex -3.95155 -1.56453 5
    endloop
  endfacet
  facet normal 0.904823 0.425787 0
    outer loop
      vertex -3.95155 -1.56453 -5
      vertex -3.7243 -2.04745 5
      vertex -3.7243 -2.04745 -5
    endloop
  endfacet
  facet normal -0.24869 0.968583 0
    outer loop
      vertex 1.31332 -4.04199 -5
      vertex 0.796371 -4.17472 5
      vertex 1.31332 -4.04199 5
    endloop
  endfacet
  facet normal -0.24869 0.968583 0
    outer loop
      vertex 0.796371 -4.17472 5
      vertex 1.31332 -4.04199 -5
      vertex 0.796371 -4.17472 -5
    endloop
  endfacet
  facet normal -0.481753 0.876307 0
    outer loop
      vertex 2.27726 -3.58839 -5
      vertex 1.80956 -3.84551 5
      vertex 2.27726 -3.58839 5
    endloop
  endfacet
  facet normal -0.481753 0.876307 0
    outer loop
      vertex 1.80956 -3.84551 5
      vertex 2.27726 -3.58839 -5
      vertex 1.80956 -3.84551 -5
    endloop
  endfacet
  facet normal -0.770512 0.637425 0
    outer loop
      vertex 3.09812 -2.90932 -5
      vertex 3.43832 -2.49809 5
      vertex 3.43832 -2.49809 -5
    endloop
  endfacet
  facet normal -0.770512 0.637425 0
    outer loop
      vertex 3.43832 -2.49809 5
      vertex 3.09812 -2.90932 -5
      vertex 3.09812 -2.90932 5
    endloop
  endfacet
  facet normal 0.587781 0.80902 -0
    outer loop
      vertex -2.27726 -3.58839 -5
      vertex -2.70905 -3.27468 5
      vertex -2.27726 -3.58839 5
    endloop
  endfacet
  facet normal 0.587781 0.80902 0
    outer loop
      vertex -2.70905 -3.27468 5
      vertex -2.27726 -3.58839 -5
      vertex -2.70905 -3.27468 -5
    endloop
  endfacet
  facet normal 0.368132 0.929773 -0
    outer loop
      vertex -1.31332 -4.04199 -5
      vertex -1.80956 -3.84551 5
      vertex -1.31332 -4.04199 5
    endloop
  endfacet
  facet normal 0.368132 0.929773 0
    outer loop
      vertex -1.80956 -3.84551 5
      vertex -1.31332 -4.04199 -5
      vertex -1.80956 -3.84551 -5
    endloop
  endfacet
  facet normal 0 1 -0
    outer loop
      vertex 0.266859 -4.24161 -5
      vertex -0.266859 -4.24161 5
      vertex 0.266859 -4.24161 5
    endloop
  endfacet
  facet normal 0 1 0
    outer loop
      vertex -0.266859 -4.24161 5
      vertex 0.266859 -4.24161 -5
      vertex -0.266859 -4.24161 -5
    endloop
  endfacet
  facet normal 0.770512 0.637425 0
    outer loop
      vertex -3.09812 -2.90932 5
      vertex -3.43832 -2.49809 -5
      vertex -3.43832 -2.49809 5
    endloop
  endfacet
  facet normal 0.770512 0.637425 0
    outer loop
      vertex -3.43832 -2.49809 -5
      vertex -3.09812 -2.90932 5
      vertex -3.09812 -2.90932 -5
    endloop
  endfacet
  facet normal 0.684546 0.72897 -0
    outer loop
      vertex -2.70905 -3.27468 -5
      vertex -3.09812 -2.90932 5
      vertex -2.70905 -3.27468 5
    endloop
  endfacet
  facet normal 0.684546 0.72897 0
    outer loop
      vertex -3.09812 -2.90932 5
      vertex -2.70905 -3.27468 -5
      vertex -3.09812 -2.90932 -5
    endloop
  endfacet
  facet normal 0.481753 0.876307 -0
    outer loop
      vertex -1.80956 -3.84551 -5
      vertex -2.27726 -3.58839 5
      vertex -1.80956 -3.84551 5
    endloop
  endfacet
  facet normal 0.481753 0.876307 0
    outer loop
      vertex -2.27726 -3.58839 5
      vertex -1.80956 -3.84551 -5
      vertex -2.27726 -3.58839 -5
    endloop
  endfacet
  facet normal 0.951056 0.309018 0
    outer loop
      vertex -3.95155 -1.56453 5
      vertex -4.11648 -1.05693 -5
      vertex -4.11648 -1.05693 5
    endloop
  endfacet
  facet normal 0.951056 0.309018 0
    outer loop
      vertex -4.11648 -1.05693 -5
      vertex -3.95155 -1.56453 5
      vertex -3.95155 -1.56453 -5
    endloop
  endfacet
  facet normal -0.368132 0.929773 0
    outer loop
      vertex 1.80956 -3.84551 -5
      vertex 1.31332 -4.04199 5
      vertex 1.80956 -3.84551 5
    endloop
  endfacet
  facet normal -0.368132 0.929773 0
    outer loop
      vertex 1.31332 -4.04199 5
      vertex 1.80956 -3.84551 -5
      vertex 1.31332 -4.04199 -5
    endloop
  endfacet
endsolid OpenSCAD_Model
