solid OpenSCAD_Model
  facet normal 0.998026 0.0627975 0
    outer loop
      vertex 3.25 0 40.5
      vertex 3.22437 0.407332 -40.5
      vertex 3.22437 0.407332 40.5
    endloop
  endfacet
  facet normal 0.998026 0.0627975 0
    outer loop
      vertex 3.22437 0.407332 -40.5
      vertex 3.25 0 40.5
      vertex 3.25 0 -40.5
    endloop
  endfacet
  facet normal -0.998026 0.0627975 0
    outer loop
      vertex -3.25 0 -40.5
      vertex -3.22437 0.407332 40.5
      vertex -3.22437 0.407332 -40.5
    endloop
  endfacet
  facet normal -0.998026 0.0627975 0
    outer loop
      vertex -3.22437 0.407332 40.5
      vertex -3.25 0 -40.5
      vertex -3.25 0 40.5
    endloop
  endfacet
  facet normal 0 1 -0
    outer loop
      vertex 0.204069 3.24359 -40.5
      vertex -0.204069 3.24359 40.5
      vertex 0.204069 3.24359 40.5
    endloop
  endfacet
  facet normal 0 1 0
    outer loop
      vertex -0.204069 3.24359 40.5
      vertex 0.204069 3.24359 -40.5
      vertex -0.204069 3.24359 -40.5
    endloop
  endfacet
  facet normal 0 -1 0
    outer loop
      vertex -0.204069 -3.24359 -40.5
      vertex 0.204069 -3.24359 40.5
      vertex -0.204069 -3.24359 40.5
    endloop
  endfacet
  facet normal 0 -1 -0
    outer loop
      vertex 0.204069 -3.24359 40.5
      vertex -0.204069 -3.24359 -40.5
      vertex 0.204069 -3.24359 -40.5
    endloop
  endfacet
  facet normal 0.770526 -0.637409 0
    outer loop
      vertex 2.36915 -2.22478 40.5
      vertex 2.6293 -1.9103 -40.5
      vertex 2.6293 -1.9103 40.5
    endloop
  endfacet
  facet normal 0.770526 -0.637409 0
    outer loop
      vertex 2.6293 -1.9103 -40.5
      vertex 2.36915 -2.22478 40.5
      vertex 2.36915 -2.22478 -40.5
    endloop
  endfacet
  facet normal 0.684547 0.728968 -0
    outer loop
      vertex 2.36915 2.22478 -40.5
      vertex 2.07163 2.50417 40.5
      vertex 2.36915 2.22478 40.5
    endloop
  endfacet
  facet normal 0.684547 0.728968 0
    outer loop
      vertex 2.07163 2.50417 40.5
      vertex 2.36915 2.22478 -40.5
      vertex 2.07163 2.50417 -40.5
    endloop
  endfacet
  facet normal -0.684547 0.728968 0
    outer loop
      vertex -2.07163 2.50417 -40.5
      vertex -2.36915 2.22478 40.5
      vertex -2.07163 2.50417 40.5
    endloop
  endfacet
  facet normal -0.684547 0.728968 0
    outer loop
      vertex -2.36915 2.22478 40.5
      vertex -2.07163 2.50417 -40.5
      vertex -2.36915 2.22478 -40.5
    endloop
  endfacet
  facet normal -0.36811 0.929782 0
    outer loop
      vertex -1.0043 3.09093 -40.5
      vertex -1.38378 2.94069 40.5
      vertex -1.0043 3.09093 40.5
    endloop
  endfacet
  facet normal -0.36811 0.929782 0
    outer loop
      vertex -1.38378 2.94069 40.5
      vertex -1.0043 3.09093 -40.5
      vertex -1.38378 2.94069 -40.5
    endloop
  endfacet
  facet normal 0.904836 0.42576 0
    outer loop
      vertex 3.02177 1.1964 40.5
      vertex 2.848 1.5657 -40.5
      vertex 2.848 1.5657 40.5
    endloop
  endfacet
  facet normal 0.904836 0.42576 0
    outer loop
      vertex 2.848 1.5657 -40.5
      vertex 3.02177 1.1964 40.5
      vertex 3.02177 1.1964 -40.5
    endloop
  endfacet
  facet normal 0.844317 0.535845 0
    outer loop
      vertex 2.848 1.5657 40.5
      vertex 2.6293 1.9103 -40.5
      vertex 2.6293 1.9103 40.5
    endloop
  endfacet
  facet normal 0.844317 0.535845 0
    outer loop
      vertex 2.6293 1.9103 -40.5
      vertex 2.848 1.5657 40.5
      vertex 2.848 1.5657 -40.5
    endloop
  endfacet
  facet normal 0.36811 0.929782 -0
    outer loop
      vertex 1.38378 2.94069 -40.5
      vertex 1.0043 3.09093 40.5
      vertex 1.38378 2.94069 40.5
    endloop
  endfacet
  facet normal 0.36811 0.929782 0
    outer loop
      vertex 1.0043 3.09093 40.5
      vertex 1.38378 2.94069 -40.5
      vertex 1.0043 3.09093 -40.5
    endloop
  endfacet
  facet normal 0.248693 0.968582 -0
    outer loop
      vertex 1.0043 3.09093 -40.5
      vertex 0.608989 3.19243 40.5
      vertex 1.0043 3.09093 40.5
    endloop
  endfacet
  facet normal 0.248693 0.968582 0
    outer loop
      vertex 0.608989 3.19243 40.5
      vertex 1.0043 3.09093 -40.5
      vertex 0.608989 3.19243 -40.5
    endloop
  endfacet
  facet normal 0.58779 0.809014 -0
    outer loop
      vertex 2.07163 2.50417 -40.5
      vertex 1.74144 2.74407 40.5
      vertex 2.07163 2.50417 40.5
    endloop
  endfacet
  facet normal 0.58779 0.809014 0
    outer loop
      vertex 1.74144 2.74407 40.5
      vertex 2.07163 2.50417 -40.5
      vertex 1.74144 2.74407 -40.5
    endloop
  endfacet
  facet normal -0.904836 0.42576 0
    outer loop
      vertex -3.02177 1.1964 -40.5
      vertex -2.848 1.5657 40.5
      vertex -2.848 1.5657 -40.5
    endloop
  endfacet
  facet normal -0.904836 0.42576 0
    outer loop
      vertex -2.848 1.5657 40.5
      vertex -3.02177 1.1964 -40.5
      vertex -3.02177 1.1964 40.5
    endloop
  endfacet
  facet normal -0.770526 0.637409 0
    outer loop
      vertex -2.6293 1.9103 -40.5
      vertex -2.36915 2.22478 40.5
      vertex -2.36915 2.22478 -40.5
    endloop
  endfacet
  facet normal -0.770526 0.637409 0
    outer loop
      vertex -2.36915 2.22478 40.5
      vertex -2.6293 1.9103 -40.5
      vertex -2.6293 1.9103 40.5
    endloop
  endfacet
  facet normal -0.951057 0.309017 0
    outer loop
      vertex -3.14789 0.808242 -40.5
      vertex -3.02177 1.1964 40.5
      vertex -3.02177 1.1964 -40.5
    endloop
  endfacet
  facet normal -0.951057 0.309017 0
    outer loop
      vertex -3.02177 1.1964 40.5
      vertex -3.14789 0.808242 -40.5
      vertex -3.14789 0.808242 40.5
    endloop
  endfacet
  facet normal -0.481744 0.876312 0
    outer loop
      vertex -1.38378 2.94069 -40.5
      vertex -1.74144 2.74407 40.5
      vertex -1.38378 2.94069 40.5
    endloop
  endfacet
  facet normal -0.481744 0.876312 0
    outer loop
      vertex -1.74144 2.74407 40.5
      vertex -1.38378 2.94069 -40.5
      vertex -1.74144 2.74407 -40.5
    endloop
  endfacet
  facet normal -0.125349 0.992113 0
    outer loop
      vertex -0.204069 3.24359 -40.5
      vertex -0.608989 3.19243 40.5
      vertex -0.204069 3.24359 40.5
    endloop
  endfacet
  facet normal -0.125349 0.992113 0
    outer loop
      vertex -0.608989 3.19243 40.5
      vertex -0.204069 3.24359 -40.5
      vertex -0.608989 3.19243 -40.5
    endloop
  endfacet
  facet normal 0.125349 -0.992113 0
    outer loop
      vertex 0.204069 -3.24359 -40.5
      vertex 0.608989 -3.19243 40.5
      vertex 0.204069 -3.24359 40.5
    endloop
  endfacet
  facet normal 0.125349 -0.992113 0
    outer loop
      vertex 0.608989 -3.19243 40.5
      vertex 0.204069 -3.24359 -40.5
      vertex 0.608989 -3.19243 -40.5
    endloop
  endfacet
  facet normal 0.481744 -0.876312 0
    outer loop
      vertex 1.38378 -2.94069 -40.5
      vertex 1.74144 -2.74407 40.5
      vertex 1.38378 -2.94069 40.5
    endloop
  endfacet
  facet normal 0.481744 -0.876312 0
    outer loop
      vertex 1.74144 -2.74407 40.5
      vertex 1.38378 -2.94069 -40.5
      vertex 1.74144 -2.74407 -40.5
    endloop
  endfacet
  facet normal 0.951057 0.309017 0
    outer loop
      vertex 3.14789 0.808242 40.5
      vertex 3.02177 1.1964 -40.5
      vertex 3.02177 1.1964 40.5
    endloop
  endfacet
  facet normal 0.951057 0.309017 0
    outer loop
      vertex 3.02177 1.1964 -40.5
      vertex 3.14789 0.808242 40.5
      vertex 3.14789 0.808242 -40.5
    endloop
  endfacet
  facet normal 0.982286 0.187387 0
    outer loop
      vertex 3.22437 0.407332 40.5
      vertex 3.14789 0.808242 -40.5
      vertex 3.14789 0.808242 40.5
    endloop
  endfacet
  facet normal 0.982286 0.187387 0
    outer loop
      vertex 3.14789 0.808242 -40.5
      vertex 3.22437 0.407332 40.5
      vertex 3.22437 0.407332 -40.5
    endloop
  endfacet
  facet normal 0.770526 0.637409 0
    outer loop
      vertex 2.6293 1.9103 40.5
      vertex 2.36915 2.22478 -40.5
      vertex 2.36915 2.22478 40.5
    endloop
  endfacet
  facet normal 0.770526 0.637409 0
    outer loop
      vertex 2.36915 2.22478 -40.5
      vertex 2.6293 1.9103 40.5
      vertex 2.6293 1.9103 -40.5
    endloop
  endfacet
  facet normal 0.125349 0.992113 -0
    outer loop
      vertex 0.608989 3.19243 -40.5
      vertex 0.204069 3.24359 40.5
      vertex 0.608989 3.19243 40.5
    endloop
  endfacet
  facet normal 0.125349 0.992113 0
    outer loop
      vertex 0.204069 3.24359 40.5
      vertex 0.608989 3.19243 -40.5
      vertex 0.204069 3.24359 -40.5
    endloop
  endfacet
  facet normal 0.481744 0.876312 -0
    outer loop
      vertex 1.74144 2.74407 -40.5
      vertex 1.38378 2.94069 40.5
      vertex 1.74144 2.74407 40.5
    endloop
  endfacet
  facet normal 0.481744 0.876312 0
    outer loop
      vertex 1.38378 2.94069 40.5
      vertex 1.74144 2.74407 -40.5
      vertex 1.38378 2.94069 -40.5
    endloop
  endfacet
  facet normal -0.844317 0.535845 0
    outer loop
      vertex -2.848 1.5657 -40.5
      vertex -2.6293 1.9103 40.5
      vertex -2.6293 1.9103 -40.5
    endloop
  endfacet
  facet normal -0.844317 0.535845 0
    outer loop
      vertex -2.6293 1.9103 40.5
      vertex -2.848 1.5657 -40.5
      vertex -2.848 1.5657 40.5
    endloop
  endfacet
  facet normal -0.982286 0.187387 0
    outer loop
      vertex -3.22437 0.407332 -40.5
      vertex -3.14789 0.808242 40.5
      vertex -3.14789 0.808242 -40.5
    endloop
  endfacet
  facet normal -0.982286 0.187387 0
    outer loop
      vertex -3.14789 0.808242 40.5
      vertex -3.22437 0.407332 -40.5
      vertex -3.22437 0.407332 40.5
    endloop
  endfacet
  facet normal 0 0 1
    outer loop
      vertex 1.55 0 40.5
      vertex 3.25 0 40.5
      vertex 3.22437 0.407332 40.5
    endloop
  endfacet
  facet normal 0 0 1
    outer loop
      vertex 1.53778 0.194266 40.5
      vertex 3.22437 0.407332 40.5
      vertex 3.14789 0.808242 40.5
    endloop
  endfacet
  facet normal 0 0 1
    outer loop
      vertex 3.25 0 40.5
      vertex 1.55 0 40.5
      vertex 3.22437 -0.407332 40.5
    endloop
  endfacet
  facet normal 0 0 1
    outer loop
      vertex 1.5013 0.385468 40.5
      vertex 3.14789 0.808242 40.5
      vertex 3.02177 1.1964 40.5
    endloop
  endfacet
  facet normal -0 0 1
    outer loop
      vertex 1.53778 -0.194266 40.5
      vertex 3.22437 -0.407332 40.5
      vertex 1.55 0 40.5
    endloop
  endfacet
  facet normal 0 0 1
    outer loop
      vertex 1.44115 0.570593 40.5
      vertex 3.02177 1.1964 40.5
      vertex 2.848 1.5657 40.5
    endloop
  endfacet
  facet normal 0 0 1
    outer loop
      vertex 3.22437 -0.407332 40.5
      vertex 1.53778 -0.194266 40.5
      vertex 3.14789 -0.808242 40.5
    endloop
  endfacet
  facet normal 0 0 1
    outer loop
      vertex 1.35827 0.746717 40.5
      vertex 2.848 1.5657 40.5
      vertex 2.6293 1.9103 40.5
    endloop
  endfacet
  facet normal -0 0 1
    outer loop
      vertex 1.5013 -0.385468 40.5
      vertex 3.14789 -0.808242 40.5
      vertex 1.53778 -0.194266 40.5
    endloop
  endfacet
  facet normal 0 0 1
    outer loop
      vertex 1.25398 0.911067 40.5
      vertex 2.6293 1.9103 40.5
      vertex 2.36915 2.22478 40.5
    endloop
  endfacet
  facet normal 0 0 1
    outer loop
      vertex 3.14789 -0.808242 40.5
      vertex 1.5013 -0.385468 40.5
      vertex 3.02177 -1.1964 40.5
    endloop
  endfacet
  facet normal 0 0 1
    outer loop
      vertex 1.1299 1.06105 40.5
      vertex 2.36915 2.22478 40.5
      vertex 2.07163 2.50417 40.5
    endloop
  endfacet
  facet normal -0 0 1
    outer loop
      vertex 1.44115 -0.570593 40.5
      vertex 3.02177 -1.1964 40.5
      vertex 1.5013 -0.385468 40.5
    endloop
  endfacet
  facet normal 0 0 1
    outer loop
      vertex 0.988007 1.19429 40.5
      vertex 2.07163 2.50417 40.5
      vertex 1.74144 2.74407 40.5
    endloop
  endfacet
  facet normal 0 0 1
    outer loop
      vertex 3.02177 -1.1964 40.5
      vertex 1.44115 -0.570593 40.5
      vertex 2.848 -1.5657 40.5
    endloop
  endfacet
  facet normal -0 0 1
    outer loop
      vertex 1.35827 -0.746717 40.5
      vertex 2.848 -1.5657 40.5
      vertex 1.44115 -0.570593 40.5
    endloop
  endfacet
  facet normal 0 0 1
    outer loop
      vertex 3.22437 0.407332 40.5
      vertex 1.53778 0.194266 40.5
      vertex 1.55 0 40.5
    endloop
  endfacet
  facet normal 0 0 1
    outer loop
      vertex 3.14789 0.808242 40.5
      vertex 1.5013 0.385468 40.5
      vertex 1.53778 0.194266 40.5
    endloop
  endfacet
  facet normal 0 0 1
    outer loop
      vertex 3.02177 1.1964 40.5
      vertex 1.44115 0.570593 40.5
      vertex 1.5013 0.385468 40.5
    endloop
  endfacet
  facet normal 0 0 1
    outer loop
      vertex 0.830531 1.30871 40.5
      vertex 1.74144 2.74407 40.5
      vertex 1.38378 2.94069 40.5
    endloop
  endfacet
  facet normal 0 0 1
    outer loop
      vertex 2.848 1.5657 40.5
      vertex 1.35827 0.746717 40.5
      vertex 1.44115 0.570593 40.5
    endloop
  endfacet
  facet normal 0 0 1
    outer loop
      vertex 2.6293 1.9103 40.5
      vertex 1.25398 0.911067 40.5
      vertex 1.35827 0.746717 40.5
    endloop
  endfacet
  facet normal 0 0 1
    outer loop
      vertex 2.36915 2.22478 40.5
      vertex 1.1299 1.06105 40.5
      vertex 1.25398 0.911067 40.5
    endloop
  endfacet
  facet normal 0 0 1
    outer loop
      vertex 0.659958 1.40248 40.5
      vertex 1.38378 2.94069 40.5
      vertex 1.0043 3.09093 40.5
    endloop
  endfacet
  facet normal 0 0 1
    outer loop
      vertex 2.07163 2.50417 40.5
      vertex 0.988007 1.19429 40.5
      vertex 1.1299 1.06105 40.5
    endloop
  endfacet
  facet normal 0 0 1
    outer loop
      vertex 1.74144 2.74407 40.5
      vertex 0.830531 1.30871 40.5
      vertex 0.988007 1.19429 40.5
    endloop
  endfacet
  facet normal 0 0 1
    outer loop
      vertex 1.38378 2.94069 40.5
      vertex 0.659958 1.40248 40.5
      vertex 0.830531 1.30871 40.5
    endloop
  endfacet
  facet normal 0 0 1
    outer loop
      vertex 0.478976 1.47414 40.5
      vertex 1.0043 3.09093 40.5
      vertex 0.608989 3.19243 40.5
    endloop
  endfacet
  facet normal 0 0 1
    outer loop
      vertex 1.0043 3.09093 40.5
      vertex 0.478976 1.47414 40.5
      vertex 0.659958 1.40248 40.5
    endloop
  endfacet
  facet normal 0 0 1
    outer loop
      vertex 0.608989 3.19243 40.5
      vertex 0.290441 1.52254 40.5
      vertex 0.478976 1.47414 40.5
    endloop
  endfacet
  facet normal 0 0 1
    outer loop
      vertex 0.204069 3.24359 40.5
      vertex 0.290441 1.52254 40.5
      vertex 0.608989 3.19243 40.5
    endloop
  endfacet
  facet normal 0 0 1
    outer loop
      vertex 0.204069 3.24359 40.5
      vertex 0.0973244 1.54694 40.5
      vertex 0.290441 1.52254 40.5
    endloop
  endfacet
  facet normal 0 0 1
    outer loop
      vertex 0.204069 3.24359 40.5
      vertex -0.0973244 1.54694 40.5
      vertex 0.0973244 1.54694 40.5
    endloop
  endfacet
  facet normal -0 0 1
    outer loop
      vertex -0.204069 3.24359 40.5
      vertex -0.0973244 1.54694 40.5
      vertex 0.204069 3.24359 40.5
    endloop
  endfacet
  facet normal 0 0 1
    outer loop
      vertex -0.204069 3.24359 40.5
      vertex -0.290441 1.52254 40.5
      vertex -0.0973244 1.54694 40.5
    endloop
  endfacet
  facet normal -0 0 1
    outer loop
      vertex -0.608989 3.19243 40.5
      vertex -0.290441 1.52254 40.5
      vertex -0.204069 3.24359 40.5
    endloop
  endfacet
  facet normal 0 0 1
    outer loop
      vertex -0.290441 1.52254 40.5
      vertex -0.608989 3.19243 40.5
      vertex -0.478976 1.47414 40.5
    endloop
  endfacet
  facet normal -0 0 1
    outer loop
      vertex -1.0043 3.09093 40.5
      vertex -0.478976 1.47414 40.5
      vertex -0.608989 3.19243 40.5
    endloop
  endfacet
  facet normal 0 0 1
    outer loop
      vertex -0.478976 1.47414 40.5
      vertex -1.0043 3.09093 40.5
      vertex -0.659958 1.40248 40.5
    endloop
  endfacet
  facet normal -0 0 1
    outer loop
      vertex -1.38378 2.94069 40.5
      vertex -0.659958 1.40248 40.5
      vertex -1.0043 3.09093 40.5
    endloop
  endfacet
  facet normal 0 0 1
    outer loop
      vertex -0.659958 1.40248 40.5
      vertex -1.38378 2.94069 40.5
      vertex -0.830531 1.30871 40.5
    endloop
  endfacet
  facet normal -0 0 1
    outer loop
      vertex -1.74144 2.74407 40.5
      vertex -0.830531 1.30871 40.5
      vertex -1.38378 2.94069 40.5
    endloop
  endfacet
  facet normal 0 0 1
    outer loop
      vertex -0.830531 1.30871 40.5
      vertex -1.74144 2.74407 40.5
      vertex -0.988007 1.19429 40.5
    endloop
  endfacet
  facet normal -0 0 1
    outer loop
      vertex -2.07163 2.50417 40.5
      vertex -0.988007 1.19429 40.5
      vertex -1.74144 2.74407 40.5
    endloop
  endfacet
  facet normal 0 0 1
    outer loop
      vertex -0.988007 1.19429 40.5
      vertex -2.07163 2.50417 40.5
      vertex -1.1299 1.06105 40.5
    endloop
  endfacet
  facet normal -0 0 1
    outer loop
      vertex -2.36915 2.22478 40.5
      vertex -1.1299 1.06105 40.5
      vertex -2.07163 2.50417 40.5
    endloop
  endfacet
  facet normal 0 0 1
    outer loop
      vertex -1.1299 1.06105 40.5
      vertex -2.36915 2.22478 40.5
      vertex -1.25398 0.911067 40.5
    endloop
  endfacet
  facet normal -0 0 1
    outer loop
      vertex -2.6293 1.9103 40.5
      vertex -1.25398 0.911067 40.5
      vertex -2.36915 2.22478 40.5
    endloop
  endfacet
  facet normal 0 0 1
    outer loop
      vertex -1.25398 0.911067 40.5
      vertex -2.6293 1.9103 40.5
      vertex -1.35827 0.746717 40.5
    endloop
  endfacet
  facet normal -0 0 1
    outer loop
      vertex -2.848 1.5657 40.5
      vertex -1.35827 0.746717 40.5
      vertex -2.6293 1.9103 40.5
    endloop
  endfacet
  facet normal 0 0 1
    outer loop
      vertex 2.848 -1.5657 40.5
      vertex 1.35827 -0.746717 40.5
      vertex 2.6293 -1.9103 40.5
    endloop
  endfacet
  facet normal -0 0 1
    outer loop
      vertex 1.25398 -0.911067 40.5
      vertex 2.6293 -1.9103 40.5
      vertex 1.35827 -0.746717 40.5
    endloop
  endfacet
  facet normal 0 0 1
    outer loop
      vertex 2.6293 -1.9103 40.5
      vertex 1.25398 -0.911067 40.5
      vertex 2.36915 -2.22478 40.5
    endloop
  endfacet
  facet normal -0 0 1
    outer loop
      vertex 1.1299 -1.06105 40.5
      vertex 2.36915 -2.22478 40.5
      vertex 1.25398 -0.911067 40.5
    endloop
  endfacet
  facet normal 0 0 1
    outer loop
      vertex 2.36915 -2.22478 40.5
      vertex 1.1299 -1.06105 40.5
      vertex 2.07163 -2.50417 40.5
    endloop
  endfacet
  facet normal -0 0 1
    outer loop
      vertex 0.988007 -1.19429 40.5
      vertex 2.07163 -2.50417 40.5
      vertex 1.1299 -1.06105 40.5
    endloop
  endfacet
  facet normal 0 0 1
    outer loop
      vertex 2.07163 -2.50417 40.5
      vertex 0.988007 -1.19429 40.5
      vertex 1.74144 -2.74407 40.5
    endloop
  endfacet
  facet normal -0 0 1
    outer loop
      vertex 0.830531 -1.30871 40.5
      vertex 1.74144 -2.74407 40.5
      vertex 0.988007 -1.19429 40.5
    endloop
  endfacet
  facet normal 0 0 1
    outer loop
      vertex 1.74144 -2.74407 40.5
      vertex 0.830531 -1.30871 40.5
      vertex 1.38378 -2.94069 40.5
    endloop
  endfacet
  facet normal -0 0 1
    outer loop
      vertex 0.659958 -1.40248 40.5
      vertex 1.38378 -2.94069 40.5
      vertex 0.830531 -1.30871 40.5
    endloop
  endfacet
  facet normal 0 0 1
    outer loop
      vertex 1.38378 -2.94069 40.5
      vertex 0.659958 -1.40248 40.5
      vertex 1.0043 -3.09093 40.5
    endloop
  endfacet
  facet normal -0 0 1
    outer loop
      vertex 0.478976 -1.47414 40.5
      vertex 1.0043 -3.09093 40.5
      vertex 0.659958 -1.40248 40.5
    endloop
  endfacet
  facet normal 0 0 1
    outer loop
      vertex 1.0043 -3.09093 40.5
      vertex 0.478976 -1.47414 40.5
      vertex 0.608989 -3.19243 40.5
    endloop
  endfacet
  facet normal -0 0 1
    outer loop
      vertex 0.290441 -1.52254 40.5
      vertex 0.608989 -3.19243 40.5
      vertex 0.478976 -1.47414 40.5
    endloop
  endfacet
  facet normal 0 0 1
    outer loop
      vertex 0.290441 -1.52254 40.5
      vertex 0.204069 -3.24359 40.5
      vertex 0.608989 -3.19243 40.5
    endloop
  endfacet
  facet normal -0 0 1
    outer loop
      vertex 0.0973244 -1.54694 40.5
      vertex 0.204069 -3.24359 40.5
      vertex 0.290441 -1.52254 40.5
    endloop
  endfacet
  facet normal -0 0 1
    outer loop
      vertex -0.0973244 -1.54694 40.5
      vertex 0.204069 -3.24359 40.5
      vertex 0.0973244 -1.54694 40.5
    endloop
  endfacet
  facet normal 0 0 1
    outer loop
      vertex -0.0973244 -1.54694 40.5
      vertex -0.204069 -3.24359 40.5
      vertex 0.204069 -3.24359 40.5
    endloop
  endfacet
  facet normal 0 0 1
    outer loop
      vertex -0.290441 -1.52254 40.5
      vertex -0.204069 -3.24359 40.5
      vertex -0.0973244 -1.54694 40.5
    endloop
  endfacet
  facet normal 0 0 1
    outer loop
      vertex -0.608989 -3.19243 40.5
      vertex -0.290441 -1.52254 40.5
      vertex -0.478976 -1.47414 40.5
    endloop
  endfacet
  facet normal 0 0 1
    outer loop
      vertex -0.290441 -1.52254 40.5
      vertex -0.608989 -3.19243 40.5
      vertex -0.204069 -3.24359 40.5
    endloop
  endfacet
  facet normal 0 0 1
    outer loop
      vertex -1.0043 -3.09093 40.5
      vertex -0.478976 -1.47414 40.5
      vertex -0.659958 -1.40248 40.5
    endloop
  endfacet
  facet normal 0 0 1
    outer loop
      vertex -1.38378 -2.94069 40.5
      vertex -0.659958 -1.40248 40.5
      vertex -0.830531 -1.30871 40.5
    endloop
  endfacet
  facet normal 0 0 1
    outer loop
      vertex -1.74144 -2.74407 40.5
      vertex -0.830531 -1.30871 40.5
      vertex -0.988007 -1.19429 40.5
    endloop
  endfacet
  facet normal 0 0 1
    outer loop
      vertex -0.478976 -1.47414 40.5
      vertex -1.0043 -3.09093 40.5
      vertex -0.608989 -3.19243 40.5
    endloop
  endfacet
  facet normal 0 0 1
    outer loop
      vertex -2.07163 -2.50417 40.5
      vertex -0.988007 -1.19429 40.5
      vertex -1.1299 -1.06105 40.5
    endloop
  endfacet
  facet normal 0 0 1
    outer loop
      vertex -2.36915 -2.22478 40.5
      vertex -1.1299 -1.06105 40.5
      vertex -1.25398 -0.911067 40.5
    endloop
  endfacet
  facet normal 0 0 1
    outer loop
      vertex -2.6293 -1.9103 40.5
      vertex -1.25398 -0.911067 40.5
      vertex -1.35827 -0.746717 40.5
    endloop
  endfacet
  facet normal 0 0 1
    outer loop
      vertex -0.659958 -1.40248 40.5
      vertex -1.38378 -2.94069 40.5
      vertex -1.0043 -3.09093 40.5
    endloop
  endfacet
  facet normal 0 0 1
    outer loop
      vertex -2.848 -1.5657 40.5
      vertex -1.35827 -0.746717 40.5
      vertex -1.44115 -0.570593 40.5
    endloop
  endfacet
  facet normal 0 0 1
    outer loop
      vertex -3.02177 -1.1964 40.5
      vertex -1.44115 -0.570593 40.5
      vertex -1.5013 -0.385468 40.5
    endloop
  endfacet
  facet normal 0 0 1
    outer loop
      vertex -3.14789 -0.808242 40.5
      vertex -1.5013 -0.385468 40.5
      vertex -1.53778 -0.194266 40.5
    endloop
  endfacet
  facet normal 0 0 1
    outer loop
      vertex -3.22437 -0.407332 40.5
      vertex -1.53778 -0.194266 40.5
      vertex -1.55 0 40.5
    endloop
  endfacet
  facet normal 0 0 1
    outer loop
      vertex -1.35827 0.746717 40.5
      vertex -2.848 1.5657 40.5
      vertex -1.44115 0.570593 40.5
    endloop
  endfacet
  facet normal 0 0 1
    outer loop
      vertex -0.830531 -1.30871 40.5
      vertex -1.74144 -2.74407 40.5
      vertex -1.38378 -2.94069 40.5
    endloop
  endfacet
  facet normal -0 0 1
    outer loop
      vertex -3.02177 1.1964 40.5
      vertex -1.44115 0.570593 40.5
      vertex -2.848 1.5657 40.5
    endloop
  endfacet
  facet normal 0 0 1
    outer loop
      vertex -0.988007 -1.19429 40.5
      vertex -2.07163 -2.50417 40.5
      vertex -1.74144 -2.74407 40.5
    endloop
  endfacet
  facet normal 0 0 1
    outer loop
      vertex -1.44115 0.570593 40.5
      vertex -3.02177 1.1964 40.5
      vertex -1.5013 0.385468 40.5
    endloop
  endfacet
  facet normal 0 0 1
    outer loop
      vertex -1.1299 -1.06105 40.5
      vertex -2.36915 -2.22478 40.5
      vertex -2.07163 -2.50417 40.5
    endloop
  endfacet
  facet normal -0 0 1
    outer loop
      vertex -3.14789 0.808242 40.5
      vertex -1.5013 0.385468 40.5
      vertex -3.02177 1.1964 40.5
    endloop
  endfacet
  facet normal 0 0 1
    outer loop
      vertex -1.25398 -0.911067 40.5
      vertex -2.6293 -1.9103 40.5
      vertex -2.36915 -2.22478 40.5
    endloop
  endfacet
  facet normal 0 0 1
    outer loop
      vertex -1.5013 0.385468 40.5
      vertex -3.14789 0.808242 40.5
      vertex -1.53778 0.194266 40.5
    endloop
  endfacet
  facet normal 0 0 1
    outer loop
      vertex -1.35827 -0.746717 40.5
      vertex -2.848 -1.5657 40.5
      vertex -2.6293 -1.9103 40.5
    endloop
  endfacet
  facet normal -0 0 1
    outer loop
      vertex -3.22437 0.407332 40.5
      vertex -1.53778 0.194266 40.5
      vertex -3.14789 0.808242 40.5
    endloop
  endfacet
  facet normal 0 0 1
    outer loop
      vertex -1.44115 -0.570593 40.5
      vertex -3.02177 -1.1964 40.5
      vertex -2.848 -1.5657 40.5
    endloop
  endfacet
  facet normal 0 0 1
    outer loop
      vertex -1.53778 0.194266 40.5
      vertex -3.22437 0.407332 40.5
      vertex -1.55 0 40.5
    endloop
  endfacet
  facet normal 0 0 1
    outer loop
      vertex -1.5013 -0.385468 40.5
      vertex -3.14789 -0.808242 40.5
      vertex -3.02177 -1.1964 40.5
    endloop
  endfacet
  facet normal 0 0 1
    outer loop
      vertex -3.25 0 40.5
      vertex -1.55 0 40.5
      vertex -3.22437 0.407332 40.5
    endloop
  endfacet
  facet normal 0 0 1
    outer loop
      vertex -1.53778 -0.194266 40.5
      vertex -3.22437 -0.407332 40.5
      vertex -3.14789 -0.808242 40.5
    endloop
  endfacet
  facet normal 0 0 1
    outer loop
      vertex -1.55 0 40.5
      vertex -3.25 0 40.5
      vertex -3.22437 -0.407332 40.5
    endloop
  endfacet
  facet normal -0.58779 0.809014 0
    outer loop
      vertex -1.74144 2.74407 -40.5
      vertex -2.07163 2.50417 40.5
      vertex -1.74144 2.74407 40.5
    endloop
  endfacet
  facet normal -0.58779 0.809014 0
    outer loop
      vertex -2.07163 2.50417 40.5
      vertex -1.74144 2.74407 -40.5
      vertex -2.07163 2.50417 -40.5
    endloop
  endfacet
  facet normal -0.248693 0.968582 0
    outer loop
      vertex -0.608989 3.19243 -40.5
      vertex -1.0043 3.09093 40.5
      vertex -0.608989 3.19243 40.5
    endloop
  endfacet
  facet normal -0.248693 0.968582 0
    outer loop
      vertex -1.0043 3.09093 40.5
      vertex -0.608989 3.19243 -40.5
      vertex -1.0043 3.09093 -40.5
    endloop
  endfacet
  facet normal 0.998026 -0.0627975 0
    outer loop
      vertex 3.22437 -0.407332 40.5
      vertex 3.25 0 -40.5
      vertex 3.25 0 40.5
    endloop
  endfacet
  facet normal 0.998026 -0.0627975 0
    outer loop
      vertex 3.25 0 -40.5
      vertex 3.22437 -0.407332 40.5
      vertex 3.22437 -0.407332 -40.5
    endloop
  endfacet
  facet normal 0.951057 -0.309017 0
    outer loop
      vertex 3.02177 -1.1964 40.5
      vertex 3.14789 -0.808242 -40.5
      vertex 3.14789 -0.808242 40.5
    endloop
  endfacet
  facet normal 0.951057 -0.309017 0
    outer loop
      vertex 3.14789 -0.808242 -40.5
      vertex 3.02177 -1.1964 40.5
      vertex 3.02177 -1.1964 -40.5
    endloop
  endfacet
  facet normal 0.982286 -0.187387 0
    outer loop
      vertex 3.14789 -0.808242 40.5
      vertex 3.22437 -0.407332 -40.5
      vertex 3.22437 -0.407332 40.5
    endloop
  endfacet
  facet normal 0.982286 -0.187387 0
    outer loop
      vertex 3.22437 -0.407332 -40.5
      vertex 3.14789 -0.808242 40.5
      vertex 3.14789 -0.808242 -40.5
    endloop
  endfacet
  facet normal -0.904836 -0.42576 0
    outer loop
      vertex -2.848 -1.5657 -40.5
      vertex -3.02177 -1.1964 40.5
      vertex -3.02177 -1.1964 -40.5
    endloop
  endfacet
  facet normal -0.904836 -0.42576 0
    outer loop
      vertex -3.02177 -1.1964 40.5
      vertex -2.848 -1.5657 -40.5
      vertex -2.848 -1.5657 40.5
    endloop
  endfacet
  facet normal 0 0 -1
    outer loop
      vertex 1.55 0 -40.5
      vertex 3.25 0 -40.5
      vertex 3.22437 -0.407332 -40.5
    endloop
  endfacet
  facet normal 0 0 -1
    outer loop
      vertex 1.53778 -0.194266 -40.5
      vertex 3.22437 -0.407332 -40.5
      vertex 3.14789 -0.808242 -40.5
    endloop
  endfacet
  facet normal 0 0 -1
    outer loop
      vertex 3.25 0 -40.5
      vertex 1.55 0 -40.5
      vertex 3.22437 0.407332 -40.5
    endloop
  endfacet
  facet normal 0 0 -1
    outer loop
      vertex 1.5013 -0.385468 -40.5
      vertex 3.14789 -0.808242 -40.5
      vertex 3.02177 -1.1964 -40.5
    endloop
  endfacet
  facet normal 0 0 -1
    outer loop
      vertex 1.53778 0.194266 -40.5
      vertex 3.22437 0.407332 -40.5
      vertex 1.55 0 -40.5
    endloop
  endfacet
  facet normal 0 0 -1
    outer loop
      vertex 1.44115 -0.570593 -40.5
      vertex 3.02177 -1.1964 -40.5
      vertex 2.848 -1.5657 -40.5
    endloop
  endfacet
  facet normal -0 0 -1
    outer loop
      vertex 3.22437 0.407332 -40.5
      vertex 1.53778 0.194266 -40.5
      vertex 3.14789 0.808242 -40.5
    endloop
  endfacet
  facet normal 0 0 -1
    outer loop
      vertex 1.35827 -0.746717 -40.5
      vertex 2.848 -1.5657 -40.5
      vertex 2.6293 -1.9103 -40.5
    endloop
  endfacet
  facet normal 0 0 -1
    outer loop
      vertex 1.5013 0.385468 -40.5
      vertex 3.14789 0.808242 -40.5
      vertex 1.53778 0.194266 -40.5
    endloop
  endfacet
  facet normal 0 0 -1
    outer loop
      vertex 1.25398 -0.911067 -40.5
      vertex 2.6293 -1.9103 -40.5
      vertex 2.36915 -2.22478 -40.5
    endloop
  endfacet
  facet normal -0 0 -1
    outer loop
      vertex 3.14789 0.808242 -40.5
      vertex 1.5013 0.385468 -40.5
      vertex 3.02177 1.1964 -40.5
    endloop
  endfacet
  facet normal 0 0 -1
    outer loop
      vertex 1.1299 -1.06105 -40.5
      vertex 2.36915 -2.22478 -40.5
      vertex 2.07163 -2.50417 -40.5
    endloop
  endfacet
  facet normal 0 0 -1
    outer loop
      vertex 1.44115 0.570593 -40.5
      vertex 3.02177 1.1964 -40.5
      vertex 1.5013 0.385468 -40.5
    endloop
  endfacet
  facet normal 0 0 -1
    outer loop
      vertex 0.988007 -1.19429 -40.5
      vertex 2.07163 -2.50417 -40.5
      vertex 1.74144 -2.74407 -40.5
    endloop
  endfacet
  facet normal -0 0 -1
    outer loop
      vertex 3.02177 1.1964 -40.5
      vertex 1.44115 0.570593 -40.5
      vertex 2.848 1.5657 -40.5
    endloop
  endfacet
  facet normal 0 0 -1
    outer loop
      vertex 1.35827 0.746717 -40.5
      vertex 2.848 1.5657 -40.5
      vertex 1.44115 0.570593 -40.5
    endloop
  endfacet
  facet normal 0 0 -1
    outer loop
      vertex 3.22437 -0.407332 -40.5
      vertex 1.53778 -0.194266 -40.5
      vertex 1.55 0 -40.5
    endloop
  endfacet
  facet normal 0 0 -1
    outer loop
      vertex 3.14789 -0.808242 -40.5
      vertex 1.5013 -0.385468 -40.5
      vertex 1.53778 -0.194266 -40.5
    endloop
  endfacet
  facet normal 0 0 -1
    outer loop
      vertex 3.02177 -1.1964 -40.5
      vertex 1.44115 -0.570593 -40.5
      vertex 1.5013 -0.385468 -40.5
    endloop
  endfacet
  facet normal 0 0 -1
    outer loop
      vertex 0.830531 -1.30871 -40.5
      vertex 1.74144 -2.74407 -40.5
      vertex 1.38378 -2.94069 -40.5
    endloop
  endfacet
  facet normal 0 0 -1
    outer loop
      vertex 2.848 -1.5657 -40.5
      vertex 1.35827 -0.746717 -40.5
      vertex 1.44115 -0.570593 -40.5
    endloop
  endfacet
  facet normal 0 0 -1
    outer loop
      vertex 2.6293 -1.9103 -40.5
      vertex 1.25398 -0.911067 -40.5
      vertex 1.35827 -0.746717 -40.5
    endloop
  endfacet
  facet normal 0 0 -1
    outer loop
      vertex 2.36915 -2.22478 -40.5
      vertex 1.1299 -1.06105 -40.5
      vertex 1.25398 -0.911067 -40.5
    endloop
  endfacet
  facet normal 0 0 -1
    outer loop
      vertex 0.659958 -1.40248 -40.5
      vertex 1.38378 -2.94069 -40.5
      vertex 1.0043 -3.09093 -40.5
    endloop
  endfacet
  facet normal 0 0 -1
    outer loop
      vertex 2.07163 -2.50417 -40.5
      vertex 0.988007 -1.19429 -40.5
      vertex 1.1299 -1.06105 -40.5
    endloop
  endfacet
  facet normal 0 0 -1
    outer loop
      vertex 1.74144 -2.74407 -40.5
      vertex 0.830531 -1.30871 -40.5
      vertex 0.988007 -1.19429 -40.5
    endloop
  endfacet
  facet normal 0 0 -1
    outer loop
      vertex 1.38378 -2.94069 -40.5
      vertex 0.659958 -1.40248 -40.5
      vertex 0.830531 -1.30871 -40.5
    endloop
  endfacet
  facet normal 0 0 -1
    outer loop
      vertex 0.478976 -1.47414 -40.5
      vertex 1.0043 -3.09093 -40.5
      vertex 0.608989 -3.19243 -40.5
    endloop
  endfacet
  facet normal 0 0 -1
    outer loop
      vertex 1.0043 -3.09093 -40.5
      vertex 0.478976 -1.47414 -40.5
      vertex 0.659958 -1.40248 -40.5
    endloop
  endfacet
  facet normal 0 0 -1
    outer loop
      vertex 0.608989 -3.19243 -40.5
      vertex 0.290441 -1.52254 -40.5
      vertex 0.478976 -1.47414 -40.5
    endloop
  endfacet
  facet normal 0 0 -1
    outer loop
      vertex 0.204069 -3.24359 -40.5
      vertex 0.290441 -1.52254 -40.5
      vertex 0.608989 -3.19243 -40.5
    endloop
  endfacet
  facet normal 0 0 -1
    outer loop
      vertex 0.204069 -3.24359 -40.5
      vertex 0.0973244 -1.54694 -40.5
      vertex 0.290441 -1.52254 -40.5
    endloop
  endfacet
  facet normal 0 0 -1
    outer loop
      vertex 0.204069 -3.24359 -40.5
      vertex -0.0973244 -1.54694 -40.5
      vertex 0.0973244 -1.54694 -40.5
    endloop
  endfacet
  facet normal 0 0 -1
    outer loop
      vertex -0.204069 -3.24359 -40.5
      vertex -0.0973244 -1.54694 -40.5
      vertex 0.204069 -3.24359 -40.5
    endloop
  endfacet
  facet normal 0 0 -1
    outer loop
      vertex -0.204069 -3.24359 -40.5
      vertex -0.290441 -1.52254 -40.5
      vertex -0.0973244 -1.54694 -40.5
    endloop
  endfacet
  facet normal 0 0 -1
    outer loop
      vertex -0.608989 -3.19243 -40.5
      vertex -0.290441 -1.52254 -40.5
      vertex -0.204069 -3.24359 -40.5
    endloop
  endfacet
  facet normal -0 0 -1
    outer loop
      vertex -0.290441 -1.52254 -40.5
      vertex -0.608989 -3.19243 -40.5
      vertex -0.478976 -1.47414 -40.5
    endloop
  endfacet
  facet normal 0 0 -1
    outer loop
      vertex -1.0043 -3.09093 -40.5
      vertex -0.478976 -1.47414 -40.5
      vertex -0.608989 -3.19243 -40.5
    endloop
  endfacet
  facet normal -0 0 -1
    outer loop
      vertex -0.478976 -1.47414 -40.5
      vertex -1.0043 -3.09093 -40.5
      vertex -0.659958 -1.40248 -40.5
    endloop
  endfacet
  facet normal 0 0 -1
    outer loop
      vertex -1.38378 -2.94069 -40.5
      vertex -0.659958 -1.40248 -40.5
      vertex -1.0043 -3.09093 -40.5
    endloop
  endfacet
  facet normal -0 0 -1
    outer loop
      vertex -0.659958 -1.40248 -40.5
      vertex -1.38378 -2.94069 -40.5
      vertex -0.830531 -1.30871 -40.5
    endloop
  endfacet
  facet normal 0 0 -1
    outer loop
      vertex -1.74144 -2.74407 -40.5
      vertex -0.830531 -1.30871 -40.5
      vertex -1.38378 -2.94069 -40.5
    endloop
  endfacet
  facet normal -0 0 -1
    outer loop
      vertex -0.830531 -1.30871 -40.5
      vertex -1.74144 -2.74407 -40.5
      vertex -0.988007 -1.19429 -40.5
    endloop
  endfacet
  facet normal 0 0 -1
    outer loop
      vertex -2.07163 -2.50417 -40.5
      vertex -0.988007 -1.19429 -40.5
      vertex -1.74144 -2.74407 -40.5
    endloop
  endfacet
  facet normal -0 0 -1
    outer loop
      vertex -0.988007 -1.19429 -40.5
      vertex -2.07163 -2.50417 -40.5
      vertex -1.1299 -1.06105 -40.5
    endloop
  endfacet
  facet normal 0 0 -1
    outer loop
      vertex -2.36915 -2.22478 -40.5
      vertex -1.1299 -1.06105 -40.5
      vertex -2.07163 -2.50417 -40.5
    endloop
  endfacet
  facet normal -0 0 -1
    outer loop
      vertex -1.1299 -1.06105 -40.5
      vertex -2.36915 -2.22478 -40.5
      vertex -1.25398 -0.911067 -40.5
    endloop
  endfacet
  facet normal 0 0 -1
    outer loop
      vertex -2.6293 -1.9103 -40.5
      vertex -1.25398 -0.911067 -40.5
      vertex -2.36915 -2.22478 -40.5
    endloop
  endfacet
  facet normal -0 0 -1
    outer loop
      vertex -1.25398 -0.911067 -40.5
      vertex -2.6293 -1.9103 -40.5
      vertex -1.35827 -0.746717 -40.5
    endloop
  endfacet
  facet normal 0 0 -1
    outer loop
      vertex -2.848 -1.5657 -40.5
      vertex -1.35827 -0.746717 -40.5
      vertex -2.6293 -1.9103 -40.5
    endloop
  endfacet
  facet normal -0 0 -1
    outer loop
      vertex 2.848 1.5657 -40.5
      vertex 1.35827 0.746717 -40.5
      vertex 2.6293 1.9103 -40.5
    endloop
  endfacet
  facet normal 0 0 -1
    outer loop
      vertex 1.25398 0.911067 -40.5
      vertex 2.6293 1.9103 -40.5
      vertex 1.35827 0.746717 -40.5
    endloop
  endfacet
  facet normal -0 0 -1
    outer loop
      vertex 2.6293 1.9103 -40.5
      vertex 1.25398 0.911067 -40.5
      vertex 2.36915 2.22478 -40.5
    endloop
  endfacet
  facet normal 0 0 -1
    outer loop
      vertex 1.1299 1.06105 -40.5
      vertex 2.36915 2.22478 -40.5
      vertex 1.25398 0.911067 -40.5
    endloop
  endfacet
  facet normal -0 0 -1
    outer loop
      vertex 2.36915 2.22478 -40.5
      vertex 1.1299 1.06105 -40.5
      vertex 2.07163 2.50417 -40.5
    endloop
  endfacet
  facet normal 0 0 -1
    outer loop
      vertex 0.988007 1.19429 -40.5
      vertex 2.07163 2.50417 -40.5
      vertex 1.1299 1.06105 -40.5
    endloop
  endfacet
  facet normal -0 0 -1
    outer loop
      vertex 2.07163 2.50417 -40.5
      vertex 0.988007 1.19429 -40.5
      vertex 1.74144 2.74407 -40.5
    endloop
  endfacet
  facet normal 0 0 -1
    outer loop
      vertex 0.830531 1.30871 -40.5
      vertex 1.74144 2.74407 -40.5
      vertex 0.988007 1.19429 -40.5
    endloop
  endfacet
  facet normal -0 0 -1
    outer loop
      vertex 1.74144 2.74407 -40.5
      vertex 0.830531 1.30871 -40.5
      vertex 1.38378 2.94069 -40.5
    endloop
  endfacet
  facet normal 0 0 -1
    outer loop
      vertex 0.659958 1.40248 -40.5
      vertex 1.38378 2.94069 -40.5
      vertex 0.830531 1.30871 -40.5
    endloop
  endfacet
  facet normal -0 0 -1
    outer loop
      vertex 1.38378 2.94069 -40.5
      vertex 0.659958 1.40248 -40.5
      vertex 1.0043 3.09093 -40.5
    endloop
  endfacet
  facet normal 0 0 -1
    outer loop
      vertex 0.478976 1.47414 -40.5
      vertex 1.0043 3.09093 -40.5
      vertex 0.659958 1.40248 -40.5
    endloop
  endfacet
  facet normal -0 0 -1
    outer loop
      vertex 1.0043 3.09093 -40.5
      vertex 0.478976 1.47414 -40.5
      vertex 0.608989 3.19243 -40.5
    endloop
  endfacet
  facet normal 0 0 -1
    outer loop
      vertex 0.290441 1.52254 -40.5
      vertex 0.608989 3.19243 -40.5
      vertex 0.478976 1.47414 -40.5
    endloop
  endfacet
  facet normal 0 0 -1
    outer loop
      vertex 0.290441 1.52254 -40.5
      vertex 0.204069 3.24359 -40.5
      vertex 0.608989 3.19243 -40.5
    endloop
  endfacet
  facet normal 0 0 -1
    outer loop
      vertex 0.0973244 1.54694 -40.5
      vertex 0.204069 3.24359 -40.5
      vertex 0.290441 1.52254 -40.5
    endloop
  endfacet
  facet normal 0 0 -1
    outer loop
      vertex -0.0973244 1.54694 -40.5
      vertex 0.204069 3.24359 -40.5
      vertex 0.0973244 1.54694 -40.5
    endloop
  endfacet
  facet normal 0 0 -1
    outer loop
      vertex -0.0973244 1.54694 -40.5
      vertex -0.204069 3.24359 -40.5
      vertex 0.204069 3.24359 -40.5
    endloop
  endfacet
  facet normal 0 0 -1
    outer loop
      vertex -0.290441 1.52254 -40.5
      vertex -0.204069 3.24359 -40.5
      vertex -0.0973244 1.54694 -40.5
    endloop
  endfacet
  facet normal 0 0 -1
    outer loop
      vertex -0.608989 3.19243 -40.5
      vertex -0.290441 1.52254 -40.5
      vertex -0.478976 1.47414 -40.5
    endloop
  endfacet
  facet normal 0 0 -1
    outer loop
      vertex -0.290441 1.52254 -40.5
      vertex -0.608989 3.19243 -40.5
      vertex -0.204069 3.24359 -40.5
    endloop
  endfacet
  facet normal 0 0 -1
    outer loop
      vertex -1.0043 3.09093 -40.5
      vertex -0.478976 1.47414 -40.5
      vertex -0.659958 1.40248 -40.5
    endloop
  endfacet
  facet normal 0 0 -1
    outer loop
      vertex -1.38378 2.94069 -40.5
      vertex -0.659958 1.40248 -40.5
      vertex -0.830531 1.30871 -40.5
    endloop
  endfacet
  facet normal 0 0 -1
    outer loop
      vertex -1.74144 2.74407 -40.5
      vertex -0.830531 1.30871 -40.5
      vertex -0.988007 1.19429 -40.5
    endloop
  endfacet
  facet normal 0 0 -1
    outer loop
      vertex -0.478976 1.47414 -40.5
      vertex -1.0043 3.09093 -40.5
      vertex -0.608989 3.19243 -40.5
    endloop
  endfacet
  facet normal 0 0 -1
    outer loop
      vertex -2.07163 2.50417 -40.5
      vertex -0.988007 1.19429 -40.5
      vertex -1.1299 1.06105 -40.5
    endloop
  endfacet
  facet normal 0 0 -1
    outer loop
      vertex -2.36915 2.22478 -40.5
      vertex -1.1299 1.06105 -40.5
      vertex -1.25398 0.911067 -40.5
    endloop
  endfacet
  facet normal 0 0 -1
    outer loop
      vertex -2.6293 1.9103 -40.5
      vertex -1.25398 0.911067 -40.5
      vertex -1.35827 0.746717 -40.5
    endloop
  endfacet
  facet normal 0 0 -1
    outer loop
      vertex -0.659958 1.40248 -40.5
      vertex -1.38378 2.94069 -40.5
      vertex -1.0043 3.09093 -40.5
    endloop
  endfacet
  facet normal 0 0 -1
    outer loop
      vertex -2.848 1.5657 -40.5
      vertex -1.35827 0.746717 -40.5
      vertex -1.44115 0.570593 -40.5
    endloop
  endfacet
  facet normal 0 0 -1
    outer loop
      vertex -3.02177 1.1964 -40.5
      vertex -1.44115 0.570593 -40.5
      vertex -1.5013 0.385468 -40.5
    endloop
  endfacet
  facet normal 0 0 -1
    outer loop
      vertex -3.14789 0.808242 -40.5
      vertex -1.5013 0.385468 -40.5
      vertex -1.53778 0.194266 -40.5
    endloop
  endfacet
  facet normal 0 0 -1
    outer loop
      vertex -3.22437 0.407332 -40.5
      vertex -1.53778 0.194266 -40.5
      vertex -1.55 0 -40.5
    endloop
  endfacet
  facet normal -0 0 -1
    outer loop
      vertex -1.35827 -0.746717 -40.5
      vertex -2.848 -1.5657 -40.5
      vertex -1.44115 -0.570593 -40.5
    endloop
  endfacet
  facet normal 0 0 -1
    outer loop
      vertex -0.830531 1.30871 -40.5
      vertex -1.74144 2.74407 -40.5
      vertex -1.38378 2.94069 -40.5
    endloop
  endfacet
  facet normal 0 0 -1
    outer loop
      vertex -3.02177 -1.1964 -40.5
      vertex -1.44115 -0.570593 -40.5
      vertex -2.848 -1.5657 -40.5
    endloop
  endfacet
  facet normal 0 0 -1
    outer loop
      vertex -0.988007 1.19429 -40.5
      vertex -2.07163 2.50417 -40.5
      vertex -1.74144 2.74407 -40.5
    endloop
  endfacet
  facet normal -0 0 -1
    outer loop
      vertex -1.44115 -0.570593 -40.5
      vertex -3.02177 -1.1964 -40.5
      vertex -1.5013 -0.385468 -40.5
    endloop
  endfacet
  facet normal 0 0 -1
    outer loop
      vertex -1.1299 1.06105 -40.5
      vertex -2.36915 2.22478 -40.5
      vertex -2.07163 2.50417 -40.5
    endloop
  endfacet
  facet normal 0 0 -1
    outer loop
      vertex -3.14789 -0.808242 -40.5
      vertex -1.5013 -0.385468 -40.5
      vertex -3.02177 -1.1964 -40.5
    endloop
  endfacet
  facet normal 0 0 -1
    outer loop
      vertex -1.25398 0.911067 -40.5
      vertex -2.6293 1.9103 -40.5
      vertex -2.36915 2.22478 -40.5
    endloop
  endfacet
  facet normal -0 0 -1
    outer loop
      vertex -1.5013 -0.385468 -40.5
      vertex -3.14789 -0.808242 -40.5
      vertex -1.53778 -0.194266 -40.5
    endloop
  endfacet
  facet normal 0 0 -1
    outer loop
      vertex -1.35827 0.746717 -40.5
      vertex -2.848 1.5657 -40.5
      vertex -2.6293 1.9103 -40.5
    endloop
  endfacet
  facet normal 0 0 -1
    outer loop
      vertex -3.22437 -0.407332 -40.5
      vertex -1.53778 -0.194266 -40.5
      vertex -3.14789 -0.808242 -40.5
    endloop
  endfacet
  facet normal 0 0 -1
    outer loop
      vertex -1.44115 0.570593 -40.5
      vertex -3.02177 1.1964 -40.5
      vertex -2.848 1.5657 -40.5
    endloop
  endfacet
  facet normal -0 0 -1
    outer loop
      vertex -1.53778 -0.194266 -40.5
      vertex -3.22437 -0.407332 -40.5
      vertex -1.55 0 -40.5
    endloop
  endfacet
  facet normal 0 0 -1
    outer loop
      vertex -1.5013 0.385468 -40.5
      vertex -3.14789 0.808242 -40.5
      vertex -3.02177 1.1964 -40.5
    endloop
  endfacet
  facet normal 0 0 -1
    outer loop
      vertex -3.25 0 -40.5
      vertex -1.55 0 -40.5
      vertex -3.22437 -0.407332 -40.5
    endloop
  endfacet
  facet normal 0 0 -1
    outer loop
      vertex -1.53778 0.194266 -40.5
      vertex -3.22437 0.407332 -40.5
      vertex -3.14789 0.808242 -40.5
    endloop
  endfacet
  facet normal 0 0 -1
    outer loop
      vertex -1.55 0 -40.5
      vertex -3.25 0 -40.5
      vertex -3.22437 0.407332 -40.5
    endloop
  endfacet
  facet normal 0.58779 -0.809014 0
    outer loop
      vertex 1.74144 -2.74407 -40.5
      vertex 2.07163 -2.50417 40.5
      vertex 1.74144 -2.74407 40.5
    endloop
  endfacet
  facet normal 0.58779 -0.809014 0
    outer loop
      vertex 2.07163 -2.50417 40.5
      vertex 1.74144 -2.74407 -40.5
      vertex 2.07163 -2.50417 -40.5
    endloop
  endfacet
  facet normal -0.951057 -0.309017 0
    outer loop
      vertex -3.02177 -1.1964 -40.5
      vertex -3.14789 -0.808242 40.5
      vertex -3.14789 -0.808242 -40.5
    endloop
  endfacet
  facet normal -0.951057 -0.309017 0
    outer loop
      vertex -3.14789 -0.808242 40.5
      vertex -3.02177 -1.1964 -40.5
      vertex -3.02177 -1.1964 40.5
    endloop
  endfacet
  facet normal 0.684547 -0.728968 0
    outer loop
      vertex 2.07163 -2.50417 -40.5
      vertex 2.36915 -2.22478 40.5
      vertex 2.07163 -2.50417 40.5
    endloop
  endfacet
  facet normal 0.684547 -0.728968 0
    outer loop
      vertex 2.36915 -2.22478 40.5
      vertex 2.07163 -2.50417 -40.5
      vertex 2.36915 -2.22478 -40.5
    endloop
  endfacet
  facet normal 0.248693 -0.968582 0
    outer loop
      vertex 0.608989 -3.19243 -40.5
      vertex 1.0043 -3.09093 40.5
      vertex 0.608989 -3.19243 40.5
    endloop
  endfacet
  facet normal 0.248693 -0.968582 0
    outer loop
      vertex 1.0043 -3.09093 40.5
      vertex 0.608989 -3.19243 -40.5
      vertex 1.0043 -3.09093 -40.5
    endloop
  endfacet
  facet normal 0.904836 -0.42576 0
    outer loop
      vertex 2.848 -1.5657 40.5
      vertex 3.02177 -1.1964 -40.5
      vertex 3.02177 -1.1964 40.5
    endloop
  endfacet
  facet normal 0.904836 -0.42576 0
    outer loop
      vertex 3.02177 -1.1964 -40.5
      vertex 2.848 -1.5657 40.5
      vertex 2.848 -1.5657 -40.5
    endloop
  endfacet
  facet normal 0.844317 -0.535845 0
    outer loop
      vertex 2.6293 -1.9103 40.5
      vertex 2.848 -1.5657 -40.5
      vertex 2.848 -1.5657 40.5
    endloop
  endfacet
  facet normal 0.844317 -0.535845 0
    outer loop
      vertex 2.848 -1.5657 -40.5
      vertex 2.6293 -1.9103 40.5
      vertex 2.6293 -1.9103 -40.5
    endloop
  endfacet
  facet normal -0.125349 -0.992113 0
    outer loop
      vertex -0.608989 -3.19243 -40.5
      vertex -0.204069 -3.24359 40.5
      vertex -0.608989 -3.19243 40.5
    endloop
  endfacet
  facet normal -0.125349 -0.992113 -0
    outer loop
      vertex -0.204069 -3.24359 40.5
      vertex -0.608989 -3.19243 -40.5
      vertex -0.204069 -3.24359 -40.5
    endloop
  endfacet
  facet normal -0.248693 -0.968582 0
    outer loop
      vertex -1.0043 -3.09093 -40.5
      vertex -0.608989 -3.19243 40.5
      vertex -1.0043 -3.09093 40.5
    endloop
  endfacet
  facet normal -0.248693 -0.968582 -0
    outer loop
      vertex -0.608989 -3.19243 40.5
      vertex -1.0043 -3.09093 -40.5
      vertex -0.608989 -3.19243 -40.5
    endloop
  endfacet
  facet normal -0.770526 -0.637409 0
    outer loop
      vertex -2.36915 -2.22478 -40.5
      vertex -2.6293 -1.9103 40.5
      vertex -2.6293 -1.9103 -40.5
    endloop
  endfacet
  facet normal -0.770526 -0.637409 0
    outer loop
      vertex -2.6293 -1.9103 40.5
      vertex -2.36915 -2.22478 -40.5
      vertex -2.36915 -2.22478 40.5
    endloop
  endfacet
  facet normal -0.684547 -0.728968 0
    outer loop
      vertex -2.36915 -2.22478 -40.5
      vertex -2.07163 -2.50417 40.5
      vertex -2.36915 -2.22478 40.5
    endloop
  endfacet
  facet normal -0.684547 -0.728968 -0
    outer loop
      vertex -2.07163 -2.50417 40.5
      vertex -2.36915 -2.22478 -40.5
      vertex -2.07163 -2.50417 -40.5
    endloop
  endfacet
  facet normal -0.982286 -0.187387 0
    outer loop
      vertex -3.14789 -0.808242 -40.5
      vertex -3.22437 -0.407332 40.5
      vertex -3.22437 -0.407332 -40.5
    endloop
  endfacet
  facet normal -0.982286 -0.187387 0
    outer loop
      vertex -3.22437 -0.407332 40.5
      vertex -3.14789 -0.808242 -40.5
      vertex -3.14789 -0.808242 40.5
    endloop
  endfacet
  facet normal -0.998026 -0.0627975 0
    outer loop
      vertex -3.22437 -0.407332 -40.5
      vertex -3.25 0 40.5
      vertex -3.25 0 -40.5
    endloop
  endfacet
  facet normal -0.998026 -0.0627975 0
    outer loop
      vertex -3.25 0 40.5
      vertex -3.22437 -0.407332 -40.5
      vertex -3.22437 -0.407332 40.5
    endloop
  endfacet
  facet normal -0.58779 -0.809014 0
    outer loop
      vertex -2.07163 -2.50417 -40.5
      vertex -1.74144 -2.74407 40.5
      vertex -2.07163 -2.50417 40.5
    endloop
  endfacet
  facet normal -0.58779 -0.809014 -0
    outer loop
      vertex -1.74144 -2.74407 40.5
      vertex -2.07163 -2.50417 -40.5
      vertex -1.74144 -2.74407 -40.5
    endloop
  endfacet
  facet normal -0.844317 -0.535845 0
    outer loop
      vertex -2.6293 -1.9103 -40.5
      vertex -2.848 -1.5657 40.5
      vertex -2.848 -1.5657 -40.5
    endloop
  endfacet
  facet normal -0.844317 -0.535845 0
    outer loop
      vertex -2.848 -1.5657 40.5
      vertex -2.6293 -1.9103 -40.5
      vertex -2.6293 -1.9103 40.5
    endloop
  endfacet
  facet normal 0.36811 -0.929782 0
    outer loop
      vertex 1.0043 -3.09093 -40.5
      vertex 1.38378 -2.94069 40.5
      vertex 1.0043 -3.09093 40.5
    endloop
  endfacet
  facet normal 0.36811 -0.929782 0
    outer loop
      vertex 1.38378 -2.94069 40.5
      vertex 1.0043 -3.09093 -40.5
      vertex 1.38378 -2.94069 -40.5
    endloop
  endfacet
  facet normal -0.36811 -0.929782 0
    outer loop
      vertex -1.38378 -2.94069 -40.5
      vertex -1.0043 -3.09093 40.5
      vertex -1.38378 -2.94069 40.5
    endloop
  endfacet
  facet normal -0.36811 -0.929782 -0
    outer loop
      vertex -1.0043 -3.09093 40.5
      vertex -1.38378 -2.94069 -40.5
      vertex -1.0043 -3.09093 -40.5
    endloop
  endfacet
  facet normal -0.481744 -0.876312 0
    outer loop
      vertex -1.74144 -2.74407 -40.5
      vertex -1.38378 -2.94069 40.5
      vertex -1.74144 -2.74407 40.5
    endloop
  endfacet
  facet normal -0.481744 -0.876312 -0
    outer loop
      vertex -1.38378 -2.94069 40.5
      vertex -1.74144 -2.74407 -40.5
      vertex -1.38378 -2.94069 -40.5
    endloop
  endfacet
  facet normal -0.998027 -0.0627794 0
    outer loop
      vertex 1.55 0 -40.5
      vertex 1.53778 0.194266 40.5
      vertex 1.53778 0.194266 -40.5
    endloop
  endfacet
  facet normal -0.998027 -0.0627794 0
    outer loop
      vertex 1.53778 0.194266 40.5
      vertex 1.55 0 -40.5
      vertex 1.55 0 40.5
    endloop
  endfacet
  facet normal 0.998027 -0.0627794 0
    outer loop
      vertex -1.55 0 40.5
      vertex -1.53778 0.194266 -40.5
      vertex -1.53778 0.194266 40.5
    endloop
  endfacet
  facet normal 0.998027 -0.0627794 0
    outer loop
      vertex -1.53778 0.194266 -40.5
      vertex -1.55 0 40.5
      vertex -1.55 0 -40.5
    endloop
  endfacet
  facet normal 0 -1 0
    outer loop
      vertex -0.0973244 1.54694 -40.5
      vertex 0.0973244 1.54694 40.5
      vertex -0.0973244 1.54694 40.5
    endloop
  endfacet
  facet normal 0 -1 -0
    outer loop
      vertex 0.0973244 1.54694 40.5
      vertex -0.0973244 1.54694 -40.5
      vertex 0.0973244 1.54694 -40.5
    endloop
  endfacet
  facet normal 0 1 -0
    outer loop
      vertex 0.0973244 -1.54694 -40.5
      vertex -0.0973244 -1.54694 40.5
      vertex 0.0973244 -1.54694 40.5
    endloop
  endfacet
  facet normal 0 1 0
    outer loop
      vertex -0.0973244 -1.54694 40.5
      vertex 0.0973244 -1.54694 -40.5
      vertex -0.0973244 -1.54694 -40.5
    endloop
  endfacet
  facet normal -0.68453 -0.728985 0
    outer loop
      vertex 0.988007 1.19429 -40.5
      vertex 1.1299 1.06105 40.5
      vertex 0.988007 1.19429 40.5
    endloop
  endfacet
  facet normal -0.68453 -0.728985 -0
    outer loop
      vertex 1.1299 1.06105 40.5
      vertex 0.988007 1.19429 -40.5
      vertex 1.1299 1.06105 -40.5
    endloop
  endfacet
  facet normal 0.68453 -0.728985 0
    outer loop
      vertex -1.1299 1.06105 -40.5
      vertex -0.988007 1.19429 40.5
      vertex -1.1299 1.06105 40.5
    endloop
  endfacet
  facet normal 0.68453 -0.728985 0
    outer loop
      vertex -0.988007 1.19429 40.5
      vertex -1.1299 1.06105 -40.5
      vertex -0.988007 1.19429 -40.5
    endloop
  endfacet
  facet normal 0.368143 -0.929769 0
    outer loop
      vertex -0.659958 1.40248 -40.5
      vertex -0.478976 1.47414 40.5
      vertex -0.659958 1.40248 40.5
    endloop
  endfacet
  facet normal 0.368143 -0.929769 0
    outer loop
      vertex -0.478976 1.47414 40.5
      vertex -0.659958 1.40248 -40.5
      vertex -0.478976 1.47414 -40.5
    endloop
  endfacet
  facet normal -0.904822 -0.425789 0
    outer loop
      vertex 1.44115 0.570593 -40.5
      vertex 1.35827 0.746717 40.5
      vertex 1.35827 0.746717 -40.5
    endloop
  endfacet
  facet normal -0.904822 -0.425789 0
    outer loop
      vertex 1.35827 0.746717 40.5
      vertex 1.44115 0.570593 -40.5
      vertex 1.44115 0.570593 40.5
    endloop
  endfacet
  facet normal -0.84435 -0.535791 0
    outer loop
      vertex 1.35827 0.746717 -40.5
      vertex 1.25398 0.911067 40.5
      vertex 1.25398 0.911067 -40.5
    endloop
  endfacet
  facet normal -0.84435 -0.535791 0
    outer loop
      vertex 1.25398 0.911067 40.5
      vertex 1.35827 0.746717 -40.5
      vertex 1.35827 0.746717 40.5
    endloop
  endfacet
  facet normal -0.368143 -0.929769 0
    outer loop
      vertex 0.478976 1.47414 -40.5
      vertex 0.659958 1.40248 40.5
      vertex 0.478976 1.47414 40.5
    endloop
  endfacet
  facet normal -0.368143 -0.929769 -0
    outer loop
      vertex 0.659958 1.40248 40.5
      vertex 0.478976 1.47414 -40.5
      vertex 0.659958 1.40248 -40.5
    endloop
  endfacet
  facet normal -0.248653 -0.968593 0
    outer loop
      vertex 0.290441 1.52254 -40.5
      vertex 0.478976 1.47414 40.5
      vertex 0.290441 1.52254 40.5
    endloop
  endfacet
  facet normal -0.248653 -0.968593 -0
    outer loop
      vertex 0.478976 1.47414 40.5
      vertex 0.290441 1.52254 -40.5
      vertex 0.478976 1.47414 -40.5
    endloop
  endfacet
  facet normal -0.587809 -0.809 0
    outer loop
      vertex 0.830531 1.30871 -40.5
      vertex 0.988007 1.19429 40.5
      vertex 0.830531 1.30871 40.5
    endloop
  endfacet
  facet normal -0.587809 -0.809 -0
    outer loop
      vertex 0.988007 1.19429 40.5
      vertex 0.830531 1.30871 -40.5
      vertex 0.988007 1.19429 -40.5
    endloop
  endfacet
  facet normal 0.84435 -0.535791 0
    outer loop
      vertex -1.35827 0.746717 40.5
      vertex -1.25398 0.911067 -40.5
      vertex -1.25398 0.911067 40.5
    endloop
  endfacet
  facet normal 0.84435 -0.535791 0
    outer loop
      vertex -1.25398 0.911067 -40.5
      vertex -1.35827 0.746717 40.5
      vertex -1.35827 0.746717 -40.5
    endloop
  endfacet
  facet normal 0.770505 -0.637434 0
    outer loop
      vertex -1.25398 0.911067 40.5
      vertex -1.1299 1.06105 -40.5
      vertex -1.1299 1.06105 40.5
    endloop
  endfacet
  facet normal 0.770505 -0.637434 0
    outer loop
      vertex -1.1299 1.06105 -40.5
      vertex -1.25398 0.911067 40.5
      vertex -1.25398 0.911067 -40.5
    endloop
  endfacet
  facet normal 0.951058 -0.309013 0
    outer loop
      vertex -1.5013 0.385468 40.5
      vertex -1.44115 0.570593 -40.5
      vertex -1.44115 0.570593 40.5
    endloop
  endfacet
  facet normal 0.951058 -0.309013 0
    outer loop
      vertex -1.44115 0.570593 -40.5
      vertex -1.5013 0.385468 40.5
      vertex -1.5013 0.385468 -40.5
    endloop
  endfacet
  facet normal 0.481741 -0.876314 0
    outer loop
      vertex -0.830531 1.30871 -40.5
      vertex -0.659958 1.40248 40.5
      vertex -0.830531 1.30871 40.5
    endloop
  endfacet
  facet normal 0.481741 -0.876314 0
    outer loop
      vertex -0.659958 1.40248 40.5
      vertex -0.830531 1.30871 -40.5
      vertex -0.659958 1.40248 -40.5
    endloop
  endfacet
  facet normal 0.248653 -0.968593 0
    outer loop
      vertex -0.478976 1.47414 -40.5
      vertex -0.290441 1.52254 40.5
      vertex -0.478976 1.47414 40.5
    endloop
  endfacet
  facet normal 0.248653 -0.968593 0
    outer loop
      vertex -0.290441 1.52254 40.5
      vertex -0.478976 1.47414 -40.5
      vertex -0.290441 1.52254 -40.5
    endloop
  endfacet
  facet normal -0.368143 0.929769 0
    outer loop
      vertex 0.659958 -1.40248 -40.5
      vertex 0.478976 -1.47414 40.5
      vertex 0.659958 -1.40248 40.5
    endloop
  endfacet
  facet normal -0.368143 0.929769 0
    outer loop
      vertex 0.478976 -1.47414 40.5
      vertex 0.659958 -1.40248 -40.5
      vertex 0.478976 -1.47414 -40.5
    endloop
  endfacet
  facet normal -0.951058 -0.309013 0
    outer loop
      vertex 1.5013 0.385468 -40.5
      vertex 1.44115 0.570593 40.5
      vertex 1.44115 0.570593 -40.5
    endloop
  endfacet
  facet normal -0.951058 -0.309013 0
    outer loop
      vertex 1.44115 0.570593 40.5
      vertex 1.5013 0.385468 -40.5
      vertex 1.5013 0.385468 40.5
    endloop
  endfacet
  facet normal -0.982281 -0.187412 0
    outer loop
      vertex 1.53778 0.194266 -40.5
      vertex 1.5013 0.385468 40.5
      vertex 1.5013 0.385468 -40.5
    endloop
  endfacet
  facet normal -0.982281 -0.187412 0
    outer loop
      vertex 1.5013 0.385468 40.5
      vertex 1.53778 0.194266 -40.5
      vertex 1.53778 0.194266 40.5
    endloop
  endfacet
  facet normal -0.770505 -0.637434 0
    outer loop
      vertex 1.25398 0.911067 -40.5
      vertex 1.1299 1.06105 40.5
      vertex 1.1299 1.06105 -40.5
    endloop
  endfacet
  facet normal -0.770505 -0.637434 0
    outer loop
      vertex 1.1299 1.06105 40.5
      vertex 1.25398 0.911067 -40.5
      vertex 1.25398 0.911067 40.5
    endloop
  endfacet
  facet normal -0.125352 -0.992112 0
    outer loop
      vertex 0.0973244 1.54694 -40.5
      vertex 0.290441 1.52254 40.5
      vertex 0.0973244 1.54694 40.5
    endloop
  endfacet
  facet normal -0.125352 -0.992112 -0
    outer loop
      vertex 0.290441 1.52254 40.5
      vertex 0.0973244 1.54694 -40.5
      vertex 0.290441 1.52254 -40.5
    endloop
  endfacet
  facet normal -0.481741 -0.876314 0
    outer loop
      vertex 0.659958 1.40248 -40.5
      vertex 0.830531 1.30871 40.5
      vertex 0.659958 1.40248 40.5
    endloop
  endfacet
  facet normal -0.481741 -0.876314 -0
    outer loop
      vertex 0.830531 1.30871 40.5
      vertex 0.659958 1.40248 -40.5
      vertex 0.830531 1.30871 -40.5
    endloop
  endfacet
  facet normal 0.904822 -0.425789 0
    outer loop
      vertex -1.44115 0.570593 40.5
      vertex -1.35827 0.746717 -40.5
      vertex -1.35827 0.746717 40.5
    endloop
  endfacet
  facet normal 0.904822 -0.425789 0
    outer loop
      vertex -1.35827 0.746717 -40.5
      vertex -1.44115 0.570593 40.5
      vertex -1.44115 0.570593 -40.5
    endloop
  endfacet
  facet normal 0.982281 -0.187412 0
    outer loop
      vertex -1.53778 0.194266 40.5
      vertex -1.5013 0.385468 -40.5
      vertex -1.5013 0.385468 40.5
    endloop
  endfacet
  facet normal 0.982281 -0.187412 0
    outer loop
      vertex -1.5013 0.385468 -40.5
      vertex -1.53778 0.194266 40.5
      vertex -1.53778 0.194266 -40.5
    endloop
  endfacet
  facet normal 0.587809 -0.809 0
    outer loop
      vertex -0.988007 1.19429 -40.5
      vertex -0.830531 1.30871 40.5
      vertex -0.988007 1.19429 40.5
    endloop
  endfacet
  facet normal 0.587809 -0.809 0
    outer loop
      vertex -0.830531 1.30871 40.5
      vertex -0.988007 1.19429 -40.5
      vertex -0.830531 1.30871 -40.5
    endloop
  endfacet
  facet normal 0.125352 -0.992112 0
    outer loop
      vertex -0.290441 1.52254 -40.5
      vertex -0.0973244 1.54694 40.5
      vertex -0.290441 1.52254 40.5
    endloop
  endfacet
  facet normal 0.125352 -0.992112 0
    outer loop
      vertex -0.0973244 1.54694 40.5
      vertex -0.290441 1.52254 -40.5
      vertex -0.0973244 1.54694 -40.5
    endloop
  endfacet
  facet normal -0.951058 0.309013 0
    outer loop
      vertex 1.44115 -0.570593 -40.5
      vertex 1.5013 -0.385468 40.5
      vertex 1.5013 -0.385468 -40.5
    endloop
  endfacet
  facet normal -0.951058 0.309013 0
    outer loop
      vertex 1.5013 -0.385468 40.5
      vertex 1.44115 -0.570593 -40.5
      vertex 1.44115 -0.570593 40.5
    endloop
  endfacet
  facet normal -0.982281 0.187412 0
    outer loop
      vertex 1.5013 -0.385468 -40.5
      vertex 1.53778 -0.194266 40.5
      vertex 1.53778 -0.194266 -40.5
    endloop
  endfacet
  facet normal -0.982281 0.187412 0
    outer loop
      vertex 1.53778 -0.194266 40.5
      vertex 1.5013 -0.385468 -40.5
      vertex 1.5013 -0.385468 40.5
    endloop
  endfacet
  facet normal 0.68453 0.728985 -0
    outer loop
      vertex -0.988007 -1.19429 -40.5
      vertex -1.1299 -1.06105 40.5
      vertex -0.988007 -1.19429 40.5
    endloop
  endfacet
  facet normal 0.68453 0.728985 0
    outer loop
      vertex -1.1299 -1.06105 40.5
      vertex -0.988007 -1.19429 -40.5
      vertex -1.1299 -1.06105 -40.5
    endloop
  endfacet
  facet normal -0.68453 0.728985 0
    outer loop
      vertex 1.1299 -1.06105 -40.5
      vertex 0.988007 -1.19429 40.5
      vertex 1.1299 -1.06105 40.5
    endloop
  endfacet
  facet normal -0.68453 0.728985 0
    outer loop
      vertex 0.988007 -1.19429 40.5
      vertex 1.1299 -1.06105 -40.5
      vertex 0.988007 -1.19429 -40.5
    endloop
  endfacet
  facet normal -0.481741 0.876314 0
    outer loop
      vertex 0.830531 -1.30871 -40.5
      vertex 0.659958 -1.40248 40.5
      vertex 0.830531 -1.30871 40.5
    endloop
  endfacet
  facet normal -0.481741 0.876314 0
    outer loop
      vertex 0.659958 -1.40248 40.5
      vertex 0.830531 -1.30871 -40.5
      vertex 0.659958 -1.40248 -40.5
    endloop
  endfacet
  facet normal -0.84435 0.535791 0
    outer loop
      vertex 1.25398 -0.911067 -40.5
      vertex 1.35827 -0.746717 40.5
      vertex 1.35827 -0.746717 -40.5
    endloop
  endfacet
  facet normal -0.84435 0.535791 0
    outer loop
      vertex 1.35827 -0.746717 40.5
      vertex 1.25398 -0.911067 -40.5
      vertex 1.25398 -0.911067 40.5
    endloop
  endfacet
  facet normal -0.998027 0.0627794 0
    outer loop
      vertex 1.53778 -0.194266 -40.5
      vertex 1.55 0 40.5
      vertex 1.55 0 -40.5
    endloop
  endfacet
  facet normal -0.998027 0.0627794 0
    outer loop
      vertex 1.55 0 40.5
      vertex 1.53778 -0.194266 -40.5
      vertex 1.53778 -0.194266 40.5
    endloop
  endfacet
  facet normal 0.248653 0.968593 -0
    outer loop
      vertex -0.290441 -1.52254 -40.5
      vertex -0.478976 -1.47414 40.5
      vertex -0.290441 -1.52254 40.5
    endloop
  endfacet
  facet normal 0.248653 0.968593 0
    outer loop
      vertex -0.478976 -1.47414 40.5
      vertex -0.290441 -1.52254 -40.5
      vertex -0.478976 -1.47414 -40.5
    endloop
  endfacet
  facet normal 0.770505 0.637434 0
    outer loop
      vertex -1.1299 -1.06105 40.5
      vertex -1.25398 -0.911067 -40.5
      vertex -1.25398 -0.911067 40.5
    endloop
  endfacet
  facet normal 0.770505 0.637434 0
    outer loop
      vertex -1.25398 -0.911067 -40.5
      vertex -1.1299 -1.06105 40.5
      vertex -1.1299 -1.06105 -40.5
    endloop
  endfacet
  facet normal 0.904822 0.425789 0
    outer loop
      vertex -1.35827 -0.746717 40.5
      vertex -1.44115 -0.570593 -40.5
      vertex -1.44115 -0.570593 40.5
    endloop
  endfacet
  facet normal 0.904822 0.425789 0
    outer loop
      vertex -1.44115 -0.570593 -40.5
      vertex -1.35827 -0.746717 40.5
      vertex -1.35827 -0.746717 -40.5
    endloop
  endfacet
  facet normal 0.951058 0.309013 0
    outer loop
      vertex -1.44115 -0.570593 40.5
      vertex -1.5013 -0.385468 -40.5
      vertex -1.5013 -0.385468 40.5
    endloop
  endfacet
  facet normal 0.951058 0.309013 0
    outer loop
      vertex -1.5013 -0.385468 -40.5
      vertex -1.44115 -0.570593 40.5
      vertex -1.44115 -0.570593 -40.5
    endloop
  endfacet
  facet normal 0.998027 0.0627794 0
    outer loop
      vertex -1.53778 -0.194266 40.5
      vertex -1.55 0 -40.5
      vertex -1.55 0 40.5
    endloop
  endfacet
  facet normal 0.998027 0.0627794 0
    outer loop
      vertex -1.55 0 -40.5
      vertex -1.53778 -0.194266 40.5
      vertex -1.53778 -0.194266 -40.5
    endloop
  endfacet
  facet normal -0.770505 0.637434 0
    outer loop
      vertex 1.1299 -1.06105 -40.5
      vertex 1.25398 -0.911067 40.5
      vertex 1.25398 -0.911067 -40.5
    endloop
  endfacet
  facet normal -0.770505 0.637434 0
    outer loop
      vertex 1.25398 -0.911067 40.5
      vertex 1.1299 -1.06105 -40.5
      vertex 1.1299 -1.06105 40.5
    endloop
  endfacet
  facet normal -0.587809 0.809 0
    outer loop
      vertex 0.988007 -1.19429 -40.5
      vertex 0.830531 -1.30871 40.5
      vertex 0.988007 -1.19429 40.5
    endloop
  endfacet
  facet normal -0.587809 0.809 0
    outer loop
      vertex 0.830531 -1.30871 40.5
      vertex 0.988007 -1.19429 -40.5
      vertex 0.830531 -1.30871 -40.5
    endloop
  endfacet
  facet normal -0.904822 0.425789 0
    outer loop
      vertex 1.35827 -0.746717 -40.5
      vertex 1.44115 -0.570593 40.5
      vertex 1.44115 -0.570593 -40.5
    endloop
  endfacet
  facet normal -0.904822 0.425789 0
    outer loop
      vertex 1.44115 -0.570593 40.5
      vertex 1.35827 -0.746717 -40.5
      vertex 1.35827 -0.746717 40.5
    endloop
  endfacet
  facet normal 0.125352 0.992112 -0
    outer loop
      vertex -0.0973244 -1.54694 -40.5
      vertex -0.290441 -1.52254 40.5
      vertex -0.0973244 -1.54694 40.5
    endloop
  endfacet
  facet normal 0.125352 0.992112 0
    outer loop
      vertex -0.290441 -1.52254 40.5
      vertex -0.0973244 -1.54694 -40.5
      vertex -0.290441 -1.52254 -40.5
    endloop
  endfacet
  facet normal 0.84435 0.535791 0
    outer loop
      vertex -1.25398 -0.911067 40.5
      vertex -1.35827 -0.746717 -40.5
      vertex -1.35827 -0.746717 40.5
    endloop
  endfacet
  facet normal 0.84435 0.535791 0
    outer loop
      vertex -1.35827 -0.746717 -40.5
      vertex -1.25398 -0.911067 40.5
      vertex -1.25398 -0.911067 -40.5
    endloop
  endfacet
  facet normal 0.982281 0.187412 0
    outer loop
      vertex -1.5013 -0.385468 40.5
      vertex -1.53778 -0.194266 -40.5
      vertex -1.53778 -0.194266 40.5
    endloop
  endfacet
  facet normal 0.982281 0.187412 0
    outer loop
      vertex -1.53778 -0.194266 -40.5
      vertex -1.5013 -0.385468 40.5
      vertex -1.5013 -0.385468 -40.5
    endloop
  endfacet
  facet normal -0.248653 0.968593 0
    outer loop
      vertex 0.478976 -1.47414 -40.5
      vertex 0.290441 -1.52254 40.5
      vertex 0.478976 -1.47414 40.5
    endloop
  endfacet
  facet normal -0.248653 0.968593 0
    outer loop
      vertex 0.290441 -1.52254 40.5
      vertex 0.478976 -1.47414 -40.5
      vertex 0.290441 -1.52254 -40.5
    endloop
  endfacet
  facet normal -0.125352 0.992112 0
    outer loop
      vertex 0.290441 -1.52254 -40.5
      vertex 0.0973244 -1.54694 40.5
      vertex 0.290441 -1.52254 40.5
    endloop
  endfacet
  facet normal -0.125352 0.992112 0
    outer loop
      vertex 0.0973244 -1.54694 40.5
      vertex 0.290441 -1.52254 -40.5
      vertex 0.0973244 -1.54694 -40.5
    endloop
  endfacet
  facet normal 0.481741 0.876314 -0
    outer loop
      vertex -0.659958 -1.40248 -40.5
      vertex -0.830531 -1.30871 40.5
      vertex -0.659958 -1.40248 40.5
    endloop
  endfacet
  facet normal 0.481741 0.876314 0
    outer loop
      vertex -0.830531 -1.30871 40.5
      vertex -0.659958 -1.40248 -40.5
      vertex -0.830531 -1.30871 -40.5
    endloop
  endfacet
  facet normal 0.587809 0.809 -0
    outer loop
      vertex -0.830531 -1.30871 -40.5
      vertex -0.988007 -1.19429 40.5
      vertex -0.830531 -1.30871 40.5
    endloop
  endfacet
  facet normal 0.587809 0.809 0
    outer loop
      vertex -0.988007 -1.19429 40.5
      vertex -0.830531 -1.30871 -40.5
      vertex -0.988007 -1.19429 -40.5
    endloop
  endfacet
  facet normal 0.368143 0.929769 -0
    outer loop
      vertex -0.478976 -1.47414 -40.5
      vertex -0.659958 -1.40248 40.5
      vertex -0.478976 -1.47414 40.5
    endloop
  endfacet
  facet normal 0.368143 0.929769 0
    outer loop
      vertex -0.659958 -1.40248 40.5
      vertex -0.478976 -1.47414 -40.5
      vertex -0.659958 -1.40248 -40.5
    endloop
  endfacet
endsolid OpenSCAD_Model
