solid OpenSCAD_Model
  facet normal 0.998028 0.0627749 0
    outer loop
      vertex 12 0 48
      vertex 11.9054 1.504 -48
      vertex 11.9054 1.504 48
    endloop
  endfacet
  facet normal 0.998028 0.0627749 0
    outer loop
      vertex 11.9054 1.504 -48
      vertex 12 0 48
      vertex 12 0 -48
    endloop
  endfacet
  facet normal -0.998028 0.0627749 0
    outer loop
      vertex -12 0 -48
      vertex -11.9054 1.504 48
      vertex -11.9054 1.504 -48
    endloop
  endfacet
  facet normal -0.998028 0.0627749 0
    outer loop
      vertex -11.9054 1.504 48
      vertex -12 0 -48
      vertex -12 0 48
    endloop
  endfacet
  facet normal 0 1 -0
    outer loop
      vertex 0.753486 11.9763 -48
      vertex -0.753486 11.9763 48
      vertex 0.753486 11.9763 48
    endloop
  endfacet
  facet normal 0 1 0
    outer loop
      vertex -0.753486 11.9763 48
      vertex 0.753486 11.9763 -48
      vertex -0.753486 11.9763 -48
    endloop
  endfacet
  facet normal 0 -1 0
    outer loop
      vertex -0.753486 -11.9763 -48
      vertex 0.753486 -11.9763 48
      vertex -0.753486 -11.9763 48
    endloop
  endfacet
  facet normal 0 -1 -0
    outer loop
      vertex 0.753486 -11.9763 48
      vertex -0.753486 -11.9763 -48
      vertex 0.753486 -11.9763 -48
    endloop
  endfacet
  facet normal 0.684551 0.728965 -0
    outer loop
      vertex 8.74762 8.21456 -48
      vertex 7.64909 9.24616 48
      vertex 8.74762 8.21456 48
    endloop
  endfacet
  facet normal 0.684551 0.728965 0
    outer loop
      vertex 7.64909 9.24616 48
      vertex 8.74762 8.21456 -48
      vertex 7.64909 9.24616 -48
    endloop
  endfacet
  facet normal -0.684551 0.728965 0
    outer loop
      vertex -7.64909 9.24616 -48
      vertex -8.74762 8.21456 48
      vertex -7.64909 9.24616 48
    endloop
  endfacet
  facet normal -0.684551 0.728965 0
    outer loop
      vertex -8.74762 8.21456 48
      vertex -7.64909 9.24616 -48
      vertex -8.74762 8.21456 -48
    endloop
  endfacet
  facet normal -0.368151 0.929766 0
    outer loop
      vertex -3.7082 11.4127 -48
      vertex -5.10935 10.8579 48
      vertex -3.7082 11.4127 48
    endloop
  endfacet
  facet normal -0.368151 0.929766 0
    outer loop
      vertex -5.10935 10.8579 48
      vertex -3.7082 11.4127 -48
      vertex -5.10935 10.8579 -48
    endloop
  endfacet
  facet normal 0.844321 -0.535838 0
    outer loop
      vertex 9.7082 -7.05342 48
      vertex 10.5157 -5.78104 -48
      vertex 10.5157 -5.78104 48
    endloop
  endfacet
  facet normal 0.844321 -0.535838 0
    outer loop
      vertex 10.5157 -5.78104 -48
      vertex 9.7082 -7.05342 48
      vertex 9.7082 -7.05342 -48
    endloop
  endfacet
  facet normal 0.904837 0.425759 0
    outer loop
      vertex 11.1573 4.41749 48
      vertex 10.5157 5.78104 -48
      vertex 10.5157 5.78104 48
    endloop
  endfacet
  facet normal 0.904837 0.425759 0
    outer loop
      vertex 10.5157 5.78104 -48
      vertex 11.1573 4.41749 48
      vertex 11.1573 4.41749 -48
    endloop
  endfacet
  facet normal 0.982285 0.187395 0
    outer loop
      vertex 11.9054 1.504 48
      vertex 11.623 2.98428 -48
      vertex 11.623 2.98428 48
    endloop
  endfacet
  facet normal 0.982285 0.187395 0
    outer loop
      vertex 11.623 2.98428 -48
      vertex 11.9054 1.504 48
      vertex 11.9054 1.504 -48
    endloop
  endfacet
  facet normal 0.844321 0.535838 0
    outer loop
      vertex 10.5157 5.78104 48
      vertex 9.7082 7.05342 -48
      vertex 9.7082 7.05342 48
    endloop
  endfacet
  facet normal 0.844321 0.535838 0
    outer loop
      vertex 9.7082 7.05342 -48
      vertex 10.5157 5.78104 48
      vertex 10.5157 5.78104 -48
    endloop
  endfacet
  facet normal 0.368151 0.929766 -0
    outer loop
      vertex 5.10935 10.8579 -48
      vertex 3.7082 11.4127 48
      vertex 5.10935 10.8579 48
    endloop
  endfacet
  facet normal 0.368151 0.929766 0
    outer loop
      vertex 3.7082 11.4127 48
      vertex 5.10935 10.8579 -48
      vertex 3.7082 11.4127 -48
    endloop
  endfacet
  facet normal 0.248648 0.968594 -0
    outer loop
      vertex 3.7082 11.4127 -48
      vertex 2.24858 11.7874 48
      vertex 3.7082 11.4127 48
    endloop
  endfacet
  facet normal 0.248648 0.968594 0
    outer loop
      vertex 2.24858 11.7874 48
      vertex 3.7082 11.4127 -48
      vertex 2.24858 11.7874 -48
    endloop
  endfacet
  facet normal 0.481759 0.876304 -0
    outer loop
      vertex 6.42992 10.1319 -48
      vertex 5.10935 10.8579 48
      vertex 6.42992 10.1319 48
    endloop
  endfacet
  facet normal 0.481759 0.876304 0
    outer loop
      vertex 5.10935 10.8579 48
      vertex 6.42992 10.1319 -48
      vertex 5.10935 10.8579 -48
    endloop
  endfacet
  facet normal -0.904837 0.425759 0
    outer loop
      vertex -11.1573 4.41749 -48
      vertex -10.5157 5.78104 48
      vertex -10.5157 5.78104 -48
    endloop
  endfacet
  facet normal -0.904837 0.425759 0
    outer loop
      vertex -10.5157 5.78104 48
      vertex -11.1573 4.41749 -48
      vertex -11.1573 4.41749 48
    endloop
  endfacet
  facet normal -0.770513 0.637425 0
    outer loop
      vertex -9.7082 7.05342 -48
      vertex -8.74762 8.21456 48
      vertex -8.74762 8.21456 -48
    endloop
  endfacet
  facet normal -0.770513 0.637425 0
    outer loop
      vertex -8.74762 8.21456 48
      vertex -9.7082 7.05342 -48
      vertex -9.7082 7.05342 48
    endloop
  endfacet
  facet normal -0.951052 0.30903 0
    outer loop
      vertex -11.623 2.98428 -48
      vertex -11.1573 4.41749 48
      vertex -11.1573 4.41749 -48
    endloop
  endfacet
  facet normal -0.951052 0.30903 0
    outer loop
      vertex -11.1573 4.41749 48
      vertex -11.623 2.98428 -48
      vertex -11.623 2.98428 48
    endloop
  endfacet
  facet normal -0.12535 0.992113 0
    outer loop
      vertex -0.753486 11.9763 -48
      vertex -2.24858 11.7874 48
      vertex -0.753486 11.9763 48
    endloop
  endfacet
  facet normal -0.12535 0.992113 0
    outer loop
      vertex -2.24858 11.7874 48
      vertex -0.753486 11.9763 -48
      vertex -2.24858 11.7874 -48
    endloop
  endfacet
  facet normal 0.12535 -0.992113 0
    outer loop
      vertex 0.753486 -11.9763 -48
      vertex 2.24858 -11.7874 48
      vertex 0.753486 -11.9763 48
    endloop
  endfacet
  facet normal 0.12535 -0.992113 0
    outer loop
      vertex 2.24858 -11.7874 48
      vertex 0.753486 -11.9763 -48
      vertex 2.24858 -11.7874 -48
    endloop
  endfacet
  facet normal 0.951052 0.30903 0
    outer loop
      vertex 11.623 2.98428 48
      vertex 11.1573 4.41749 -48
      vertex 11.1573 4.41749 48
    endloop
  endfacet
  facet normal 0.951052 0.30903 0
    outer loop
      vertex 11.1573 4.41749 -48
      vertex 11.623 2.98428 48
      vertex 11.623 2.98428 -48
    endloop
  endfacet
  facet normal 0.770513 0.637425 0
    outer loop
      vertex 9.7082 7.05342 48
      vertex 8.74762 8.21456 -48
      vertex 8.74762 8.21456 48
    endloop
  endfacet
  facet normal 0.770513 0.637425 0
    outer loop
      vertex 8.74762 8.21456 -48
      vertex 9.7082 7.05342 48
      vertex 9.7082 7.05342 -48
    endloop
  endfacet
  facet normal 0.12535 0.992113 -0
    outer loop
      vertex 2.24858 11.7874 -48
      vertex 0.753486 11.9763 48
      vertex 2.24858 11.7874 48
    endloop
  endfacet
  facet normal 0.12535 0.992113 0
    outer loop
      vertex 0.753486 11.9763 48
      vertex 2.24858 11.7874 -48
      vertex 0.753486 11.9763 -48
    endloop
  endfacet
  facet normal 0.587768 0.809029 -0
    outer loop
      vertex 7.64909 9.24616 -48
      vertex 6.42992 10.1319 48
      vertex 7.64909 9.24616 48
    endloop
  endfacet
  facet normal 0.587768 0.809029 0
    outer loop
      vertex 6.42992 10.1319 48
      vertex 7.64909 9.24616 -48
      vertex 6.42992 10.1319 -48
    endloop
  endfacet
  facet normal -0.844321 0.535838 0
    outer loop
      vertex -10.5157 5.78104 -48
      vertex -9.7082 7.05342 48
      vertex -9.7082 7.05342 -48
    endloop
  endfacet
  facet normal -0.844321 0.535838 0
    outer loop
      vertex -9.7082 7.05342 48
      vertex -10.5157 5.78104 -48
      vertex -10.5157 5.78104 48
    endloop
  endfacet
  facet normal -0.982285 0.187395 0
    outer loop
      vertex -11.9054 1.504 -48
      vertex -11.623 2.98428 48
      vertex -11.623 2.98428 -48
    endloop
  endfacet
  facet normal -0.982285 0.187395 0
    outer loop
      vertex -11.623 2.98428 48
      vertex -11.9054 1.504 -48
      vertex -11.9054 1.504 48
    endloop
  endfacet
  facet normal 0 0 1
    outer loop
      vertex 2.25 0 48
      vertex 12 0 48
      vertex 11.9054 1.504 48
    endloop
  endfacet
  facet normal 0 0 1
    outer loop
      vertex 2.23226 0.282 48
      vertex 11.9054 1.504 48
      vertex 11.623 2.98428 48
    endloop
  endfacet
  facet normal 0 0 1
    outer loop
      vertex 12 0 48
      vertex 2.25 0 48
      vertex 11.9054 -1.504 48
    endloop
  endfacet
  facet normal 0 0 1
    outer loop
      vertex 2.17931 0.559552 48
      vertex 11.623 2.98428 48
      vertex 11.1573 4.41749 48
    endloop
  endfacet
  facet normal -0 0 1
    outer loop
      vertex 2.23226 -0.282 48
      vertex 11.9054 -1.504 48
      vertex 2.25 0 48
    endloop
  endfacet
  facet normal 0 0 1
    outer loop
      vertex 2.092 0.828279 48
      vertex 11.1573 4.41749 48
      vertex 10.5157 5.78104 48
    endloop
  endfacet
  facet normal 0 0 1
    outer loop
      vertex 11.9054 -1.504 48
      vertex 2.23226 -0.282 48
      vertex 11.623 -2.98428 48
    endloop
  endfacet
  facet normal 0 0 1
    outer loop
      vertex 1.97169 1.08395 48
      vertex 10.5157 5.78104 48
      vertex 9.7082 7.05342 48
    endloop
  endfacet
  facet normal -0 0 1
    outer loop
      vertex 2.17931 -0.559552 48
      vertex 11.623 -2.98428 48
      vertex 2.23226 -0.282 48
    endloop
  endfacet
  facet normal 0 0 1
    outer loop
      vertex 1.82029 1.32252 48
      vertex 9.7082 7.05342 48
      vertex 8.74762 8.21456 48
    endloop
  endfacet
  facet normal 0 0 1
    outer loop
      vertex 11.623 -2.98428 48
      vertex 2.17931 -0.559552 48
      vertex 11.1573 -4.41749 48
    endloop
  endfacet
  facet normal 0 0 1
    outer loop
      vertex 1.64018 1.54023 48
      vertex 8.74762 8.21456 48
      vertex 7.64909 9.24616 48
    endloop
  endfacet
  facet normal -0 0 1
    outer loop
      vertex 2.092 -0.828279 48
      vertex 11.1573 -4.41749 48
      vertex 2.17931 -0.559552 48
    endloop
  endfacet
  facet normal 0 0 1
    outer loop
      vertex 1.4342 1.73365 48
      vertex 7.64909 9.24616 48
      vertex 6.42992 10.1319 48
    endloop
  endfacet
  facet normal 0 0 1
    outer loop
      vertex 11.1573 -4.41749 48
      vertex 2.092 -0.828279 48
      vertex 10.5157 -5.78104 48
    endloop
  endfacet
  facet normal 0 0 1
    outer loop
      vertex 1.20561 1.89974 48
      vertex 6.42992 10.1319 48
      vertex 5.10935 10.8579 48
    endloop
  endfacet
  facet normal -0 0 1
    outer loop
      vertex 1.97169 -1.08395 48
      vertex 10.5157 -5.78104 48
      vertex 2.092 -0.828279 48
    endloop
  endfacet
  facet normal 0 0 1
    outer loop
      vertex 0.958003 2.03586 48
      vertex 5.10935 10.8579 48
      vertex 3.7082 11.4127 48
    endloop
  endfacet
  facet normal 0 0 1
    outer loop
      vertex 10.5157 -5.78104 48
      vertex 1.97169 -1.08395 48
      vertex 9.7082 -7.05342 48
    endloop
  endfacet
  facet normal -0 0 1
    outer loop
      vertex 1.82029 -1.32252 48
      vertex 9.7082 -7.05342 48
      vertex 1.97169 -1.08395 48
    endloop
  endfacet
  facet normal 0 0 1
    outer loop
      vertex 0.695288 2.13988 48
      vertex 3.7082 11.4127 48
      vertex 2.24858 11.7874 48
    endloop
  endfacet
  facet normal 0 0 1
    outer loop
      vertex 11.9054 1.504 48
      vertex 2.23226 0.282 48
      vertex 2.25 0 48
    endloop
  endfacet
  facet normal 0 0 1
    outer loop
      vertex 11.623 2.98428 48
      vertex 2.17931 0.559552 48
      vertex 2.23226 0.282 48
    endloop
  endfacet
  facet normal 0 0 1
    outer loop
      vertex 11.1573 4.41749 48
      vertex 2.092 0.828279 48
      vertex 2.17931 0.559552 48
    endloop
  endfacet
  facet normal 0 0 1
    outer loop
      vertex 10.5157 5.78104 48
      vertex 1.97169 1.08395 48
      vertex 2.092 0.828279 48
    endloop
  endfacet
  facet normal 0 0 1
    outer loop
      vertex 9.7082 7.05342 48
      vertex 1.82029 1.32252 48
      vertex 1.97169 1.08395 48
    endloop
  endfacet
  facet normal 0 0 1
    outer loop
      vertex 8.74762 8.21456 48
      vertex 1.64018 1.54023 48
      vertex 1.82029 1.32252 48
    endloop
  endfacet
  facet normal 0 0 1
    outer loop
      vertex 7.64909 9.24616 48
      vertex 1.4342 1.73365 48
      vertex 1.64018 1.54023 48
    endloop
  endfacet
  facet normal 0 0 1
    outer loop
      vertex 6.42992 10.1319 48
      vertex 1.20561 1.89974 48
      vertex 1.4342 1.73365 48
    endloop
  endfacet
  facet normal 0 0 1
    outer loop
      vertex 5.10935 10.8579 48
      vertex 0.958003 2.03586 48
      vertex 1.20561 1.89974 48
    endloop
  endfacet
  facet normal 0 0 1
    outer loop
      vertex 0.421607 2.21015 48
      vertex 2.24858 11.7874 48
      vertex 0.753486 11.9763 48
    endloop
  endfacet
  facet normal 0 0 1
    outer loop
      vertex 3.7082 11.4127 48
      vertex 0.695288 2.13988 48
      vertex 0.958003 2.03586 48
    endloop
  endfacet
  facet normal 0 0 1
    outer loop
      vertex 2.24858 11.7874 48
      vertex 0.421607 2.21015 48
      vertex 0.695288 2.13988 48
    endloop
  endfacet
  facet normal 0 0 1
    outer loop
      vertex 0.753486 11.9763 48
      vertex 0.141278 2.24556 48
      vertex 0.421607 2.21015 48
    endloop
  endfacet
  facet normal 0 0 1
    outer loop
      vertex 0.753486 11.9763 48
      vertex -0.141278 2.24556 48
      vertex 0.141278 2.24556 48
    endloop
  endfacet
  facet normal -0 0 1
    outer loop
      vertex -0.753486 11.9763 48
      vertex -0.141278 2.24556 48
      vertex 0.753486 11.9763 48
    endloop
  endfacet
  facet normal 0 0 1
    outer loop
      vertex -0.141278 2.24556 48
      vertex -0.753486 11.9763 48
      vertex -0.421607 2.21015 48
    endloop
  endfacet
  facet normal -0 0 1
    outer loop
      vertex -2.24858 11.7874 48
      vertex -0.421607 2.21015 48
      vertex -0.753486 11.9763 48
    endloop
  endfacet
  facet normal 0 0 1
    outer loop
      vertex -0.421607 2.21015 48
      vertex -2.24858 11.7874 48
      vertex -0.695288 2.13988 48
    endloop
  endfacet
  facet normal -0 0 1
    outer loop
      vertex -3.7082 11.4127 48
      vertex -0.695288 2.13988 48
      vertex -2.24858 11.7874 48
    endloop
  endfacet
  facet normal 0 0 1
    outer loop
      vertex -0.695288 2.13988 48
      vertex -3.7082 11.4127 48
      vertex -0.958003 2.03586 48
    endloop
  endfacet
  facet normal -0 0 1
    outer loop
      vertex -5.10935 10.8579 48
      vertex -0.958003 2.03586 48
      vertex -3.7082 11.4127 48
    endloop
  endfacet
  facet normal 0 0 1
    outer loop
      vertex -0.958003 2.03586 48
      vertex -5.10935 10.8579 48
      vertex -1.20561 1.89974 48
    endloop
  endfacet
  facet normal -0 0 1
    outer loop
      vertex -6.42992 10.1319 48
      vertex -1.20561 1.89974 48
      vertex -5.10935 10.8579 48
    endloop
  endfacet
  facet normal 0 0 1
    outer loop
      vertex -1.20561 1.89974 48
      vertex -6.42992 10.1319 48
      vertex -1.4342 1.73365 48
    endloop
  endfacet
  facet normal -0 0 1
    outer loop
      vertex -7.64909 9.24616 48
      vertex -1.4342 1.73365 48
      vertex -6.42992 10.1319 48
    endloop
  endfacet
  facet normal 0 0 1
    outer loop
      vertex -1.4342 1.73365 48
      vertex -7.64909 9.24616 48
      vertex -1.64018 1.54023 48
    endloop
  endfacet
  facet normal -0 0 1
    outer loop
      vertex -8.74762 8.21456 48
      vertex -1.64018 1.54023 48
      vertex -7.64909 9.24616 48
    endloop
  endfacet
  facet normal 0 0 1
    outer loop
      vertex -1.64018 1.54023 48
      vertex -8.74762 8.21456 48
      vertex -1.82029 1.32252 48
    endloop
  endfacet
  facet normal -0 0 1
    outer loop
      vertex -9.7082 7.05342 48
      vertex -1.82029 1.32252 48
      vertex -8.74762 8.21456 48
    endloop
  endfacet
  facet normal 0 0 1
    outer loop
      vertex 9.7082 -7.05342 48
      vertex 1.82029 -1.32252 48
      vertex 8.74762 -8.21456 48
    endloop
  endfacet
  facet normal -0 0 1
    outer loop
      vertex 1.64018 -1.54023 48
      vertex 8.74762 -8.21456 48
      vertex 1.82029 -1.32252 48
    endloop
  endfacet
  facet normal 0 0 1
    outer loop
      vertex 8.74762 -8.21456 48
      vertex 1.64018 -1.54023 48
      vertex 7.64909 -9.24616 48
    endloop
  endfacet
  facet normal -0 0 1
    outer loop
      vertex 1.4342 -1.73365 48
      vertex 7.64909 -9.24616 48
      vertex 1.64018 -1.54023 48
    endloop
  endfacet
  facet normal 0 0 1
    outer loop
      vertex 7.64909 -9.24616 48
      vertex 1.4342 -1.73365 48
      vertex 6.42992 -10.1319 48
    endloop
  endfacet
  facet normal -0 0 1
    outer loop
      vertex 1.20561 -1.89974 48
      vertex 6.42992 -10.1319 48
      vertex 1.4342 -1.73365 48
    endloop
  endfacet
  facet normal 0 0 1
    outer loop
      vertex 6.42992 -10.1319 48
      vertex 1.20561 -1.89974 48
      vertex 5.10935 -10.8579 48
    endloop
  endfacet
  facet normal -0 0 1
    outer loop
      vertex 0.958003 -2.03586 48
      vertex 5.10935 -10.8579 48
      vertex 1.20561 -1.89974 48
    endloop
  endfacet
  facet normal 0 0 1
    outer loop
      vertex 5.10935 -10.8579 48
      vertex 0.958003 -2.03586 48
      vertex 3.7082 -11.4127 48
    endloop
  endfacet
  facet normal -0 0 1
    outer loop
      vertex 0.695288 -2.13988 48
      vertex 3.7082 -11.4127 48
      vertex 0.958003 -2.03586 48
    endloop
  endfacet
  facet normal 0 0 1
    outer loop
      vertex 3.7082 -11.4127 48
      vertex 0.695288 -2.13988 48
      vertex 2.24858 -11.7874 48
    endloop
  endfacet
  facet normal -0 0 1
    outer loop
      vertex 0.421607 -2.21015 48
      vertex 2.24858 -11.7874 48
      vertex 0.695288 -2.13988 48
    endloop
  endfacet
  facet normal 0 0 1
    outer loop
      vertex 2.24858 -11.7874 48
      vertex 0.421607 -2.21015 48
      vertex 0.753486 -11.9763 48
    endloop
  endfacet
  facet normal -0 0 1
    outer loop
      vertex 0.141278 -2.24556 48
      vertex 0.753486 -11.9763 48
      vertex 0.421607 -2.21015 48
    endloop
  endfacet
  facet normal -0 0 1
    outer loop
      vertex -0.141278 -2.24556 48
      vertex 0.753486 -11.9763 48
      vertex 0.141278 -2.24556 48
    endloop
  endfacet
  facet normal 0 0 1
    outer loop
      vertex -0.753486 -11.9763 48
      vertex -0.141278 -2.24556 48
      vertex -0.421607 -2.21015 48
    endloop
  endfacet
  facet normal 0 0 1
    outer loop
      vertex -2.24858 -11.7874 48
      vertex -0.421607 -2.21015 48
      vertex -0.695288 -2.13988 48
    endloop
  endfacet
  facet normal 0 0 1
    outer loop
      vertex -0.141278 -2.24556 48
      vertex -0.753486 -11.9763 48
      vertex 0.753486 -11.9763 48
    endloop
  endfacet
  facet normal 0 0 1
    outer loop
      vertex -3.7082 -11.4127 48
      vertex -0.695288 -2.13988 48
      vertex -0.958003 -2.03586 48
    endloop
  endfacet
  facet normal 0 0 1
    outer loop
      vertex -5.10935 -10.8579 48
      vertex -0.958003 -2.03586 48
      vertex -1.20561 -1.89974 48
    endloop
  endfacet
  facet normal 0 0 1
    outer loop
      vertex -6.42992 -10.1319 48
      vertex -1.20561 -1.89974 48
      vertex -1.4342 -1.73365 48
    endloop
  endfacet
  facet normal 0 0 1
    outer loop
      vertex -7.64909 -9.24616 48
      vertex -1.4342 -1.73365 48
      vertex -1.64018 -1.54023 48
    endloop
  endfacet
  facet normal 0 0 1
    outer loop
      vertex -8.74762 -8.21456 48
      vertex -1.64018 -1.54023 48
      vertex -1.82029 -1.32252 48
    endloop
  endfacet
  facet normal 0 0 1
    outer loop
      vertex -9.7082 -7.05342 48
      vertex -1.82029 -1.32252 48
      vertex -1.97169 -1.08395 48
    endloop
  endfacet
  facet normal 0 0 1
    outer loop
      vertex -10.5157 -5.78104 48
      vertex -1.97169 -1.08395 48
      vertex -2.092 -0.828279 48
    endloop
  endfacet
  facet normal 0 0 1
    outer loop
      vertex -11.1573 -4.41749 48
      vertex -2.092 -0.828279 48
      vertex -2.17931 -0.559552 48
    endloop
  endfacet
  facet normal 0 0 1
    outer loop
      vertex -11.623 -2.98428 48
      vertex -2.17931 -0.559552 48
      vertex -2.23226 -0.282 48
    endloop
  endfacet
  facet normal 0 0 1
    outer loop
      vertex -0.421607 -2.21015 48
      vertex -2.24858 -11.7874 48
      vertex -0.753486 -11.9763 48
    endloop
  endfacet
  facet normal 0 0 1
    outer loop
      vertex -11.9054 -1.504 48
      vertex -2.23226 -0.282 48
      vertex -2.25 0 48
    endloop
  endfacet
  facet normal 0 0 1
    outer loop
      vertex -1.82029 1.32252 48
      vertex -9.7082 7.05342 48
      vertex -1.97169 1.08395 48
    endloop
  endfacet
  facet normal 0 0 1
    outer loop
      vertex -0.695288 -2.13988 48
      vertex -3.7082 -11.4127 48
      vertex -2.24858 -11.7874 48
    endloop
  endfacet
  facet normal -0 0 1
    outer loop
      vertex -10.5157 5.78104 48
      vertex -1.97169 1.08395 48
      vertex -9.7082 7.05342 48
    endloop
  endfacet
  facet normal 0 0 1
    outer loop
      vertex -0.958003 -2.03586 48
      vertex -5.10935 -10.8579 48
      vertex -3.7082 -11.4127 48
    endloop
  endfacet
  facet normal 0 0 1
    outer loop
      vertex -1.97169 1.08395 48
      vertex -10.5157 5.78104 48
      vertex -2.092 0.828279 48
    endloop
  endfacet
  facet normal 0 0 1
    outer loop
      vertex -1.20561 -1.89974 48
      vertex -6.42992 -10.1319 48
      vertex -5.10935 -10.8579 48
    endloop
  endfacet
  facet normal -0 0 1
    outer loop
      vertex -11.1573 4.41749 48
      vertex -2.092 0.828279 48
      vertex -10.5157 5.78104 48
    endloop
  endfacet
  facet normal 0 0 1
    outer loop
      vertex -1.4342 -1.73365 48
      vertex -7.64909 -9.24616 48
      vertex -6.42992 -10.1319 48
    endloop
  endfacet
  facet normal 0 0 1
    outer loop
      vertex -2.092 0.828279 48
      vertex -11.1573 4.41749 48
      vertex -2.17931 0.559552 48
    endloop
  endfacet
  facet normal 0 0 1
    outer loop
      vertex -1.64018 -1.54023 48
      vertex -8.74762 -8.21456 48
      vertex -7.64909 -9.24616 48
    endloop
  endfacet
  facet normal -0 0 1
    outer loop
      vertex -11.623 2.98428 48
      vertex -2.17931 0.559552 48
      vertex -11.1573 4.41749 48
    endloop
  endfacet
  facet normal 0 0 1
    outer loop
      vertex -1.82029 -1.32252 48
      vertex -9.7082 -7.05342 48
      vertex -8.74762 -8.21456 48
    endloop
  endfacet
  facet normal 0 0 1
    outer loop
      vertex -2.17931 0.559552 48
      vertex -11.623 2.98428 48
      vertex -2.23226 0.282 48
    endloop
  endfacet
  facet normal 0 0 1
    outer loop
      vertex -1.97169 -1.08395 48
      vertex -10.5157 -5.78104 48
      vertex -9.7082 -7.05342 48
    endloop
  endfacet
  facet normal -0 0 1
    outer loop
      vertex -11.9054 1.504 48
      vertex -2.23226 0.282 48
      vertex -11.623 2.98428 48
    endloop
  endfacet
  facet normal 0 0 1
    outer loop
      vertex -2.092 -0.828279 48
      vertex -11.1573 -4.41749 48
      vertex -10.5157 -5.78104 48
    endloop
  endfacet
  facet normal 0 0 1
    outer loop
      vertex -2.23226 0.282 48
      vertex -11.9054 1.504 48
      vertex -2.25 0 48
    endloop
  endfacet
  facet normal 0 0 1
    outer loop
      vertex -2.17931 -0.559552 48
      vertex -11.623 -2.98428 48
      vertex -11.1573 -4.41749 48
    endloop
  endfacet
  facet normal 0 0 1
    outer loop
      vertex -12 0 48
      vertex -2.25 0 48
      vertex -11.9054 1.504 48
    endloop
  endfacet
  facet normal 0 0 1
    outer loop
      vertex -2.23226 -0.282 48
      vertex -11.9054 -1.504 48
      vertex -11.623 -2.98428 48
    endloop
  endfacet
  facet normal 0 0 1
    outer loop
      vertex -2.25 0 48
      vertex -12 0 48
      vertex -11.9054 -1.504 48
    endloop
  endfacet
  facet normal -0.481759 0.876304 0
    outer loop
      vertex -5.10935 10.8579 -48
      vertex -6.42992 10.1319 48
      vertex -5.10935 10.8579 48
    endloop
  endfacet
  facet normal -0.481759 0.876304 0
    outer loop
      vertex -6.42992 10.1319 48
      vertex -5.10935 10.8579 -48
      vertex -6.42992 10.1319 -48
    endloop
  endfacet
  facet normal -0.587768 0.809029 0
    outer loop
      vertex -6.42992 10.1319 -48
      vertex -7.64909 9.24616 48
      vertex -6.42992 10.1319 48
    endloop
  endfacet
  facet normal -0.587768 0.809029 0
    outer loop
      vertex -7.64909 9.24616 48
      vertex -6.42992 10.1319 -48
      vertex -7.64909 9.24616 -48
    endloop
  endfacet
  facet normal -0.248648 0.968594 0
    outer loop
      vertex -2.24858 11.7874 -48
      vertex -3.7082 11.4127 48
      vertex -2.24858 11.7874 48
    endloop
  endfacet
  facet normal -0.248648 0.968594 0
    outer loop
      vertex -3.7082 11.4127 48
      vertex -2.24858 11.7874 -48
      vertex -3.7082 11.4127 -48
    endloop
  endfacet
  facet normal 0.998028 -0.0627749 0
    outer loop
      vertex 11.9054 -1.504 48
      vertex 12 0 -48
      vertex 12 0 48
    endloop
  endfacet
  facet normal 0.998028 -0.0627749 0
    outer loop
      vertex 12 0 -48
      vertex 11.9054 -1.504 48
      vertex 11.9054 -1.504 -48
    endloop
  endfacet
  facet normal 0.770513 -0.637425 0
    outer loop
      vertex 8.74762 -8.21456 48
      vertex 9.7082 -7.05342 -48
      vertex 9.7082 -7.05342 48
    endloop
  endfacet
  facet normal 0.770513 -0.637425 0
    outer loop
      vertex 9.7082 -7.05342 -48
      vertex 8.74762 -8.21456 48
      vertex 8.74762 -8.21456 -48
    endloop
  endfacet
  facet normal 0.951052 -0.30903 0
    outer loop
      vertex 11.1573 -4.41749 48
      vertex 11.623 -2.98428 -48
      vertex 11.623 -2.98428 48
    endloop
  endfacet
  facet normal 0.951052 -0.30903 0
    outer loop
      vertex 11.623 -2.98428 -48
      vertex 11.1573 -4.41749 48
      vertex 11.1573 -4.41749 -48
    endloop
  endfacet
  facet normal 0.982285 -0.187395 0
    outer loop
      vertex 11.623 -2.98428 48
      vertex 11.9054 -1.504 -48
      vertex 11.9054 -1.504 48
    endloop
  endfacet
  facet normal 0.982285 -0.187395 0
    outer loop
      vertex 11.9054 -1.504 -48
      vertex 11.623 -2.98428 48
      vertex 11.623 -2.98428 -48
    endloop
  endfacet
  facet normal -0.684551 -0.728965 0
    outer loop
      vertex -8.74762 -8.21456 -48
      vertex -7.64909 -9.24616 48
      vertex -8.74762 -8.21456 48
    endloop
  endfacet
  facet normal -0.684551 -0.728965 -0
    outer loop
      vertex -7.64909 -9.24616 48
      vertex -8.74762 -8.21456 -48
      vertex -7.64909 -9.24616 -48
    endloop
  endfacet
  facet normal -0.904837 -0.425759 0
    outer loop
      vertex -10.5157 -5.78104 -48
      vertex -11.1573 -4.41749 48
      vertex -11.1573 -4.41749 -48
    endloop
  endfacet
  facet normal -0.904837 -0.425759 0
    outer loop
      vertex -11.1573 -4.41749 48
      vertex -10.5157 -5.78104 -48
      vertex -10.5157 -5.78104 48
    endloop
  endfacet
  facet normal -0.770513 -0.637425 0
    outer loop
      vertex -8.74762 -8.21456 -48
      vertex -9.7082 -7.05342 48
      vertex -9.7082 -7.05342 -48
    endloop
  endfacet
  facet normal -0.770513 -0.637425 0
    outer loop
      vertex -9.7082 -7.05342 48
      vertex -8.74762 -8.21456 -48
      vertex -8.74762 -8.21456 48
    endloop
  endfacet
  facet normal 0 0 -1
    outer loop
      vertex 2.25 0 -48
      vertex 12 0 -48
      vertex 11.9054 -1.504 -48
    endloop
  endfacet
  facet normal 0 0 -1
    outer loop
      vertex 2.23226 -0.282 -48
      vertex 11.9054 -1.504 -48
      vertex 11.623 -2.98428 -48
    endloop
  endfacet
  facet normal 0 0 -1
    outer loop
      vertex 12 0 -48
      vertex 2.25 0 -48
      vertex 11.9054 1.504 -48
    endloop
  endfacet
  facet normal 0 0 -1
    outer loop
      vertex 2.17931 -0.559552 -48
      vertex 11.623 -2.98428 -48
      vertex 11.1573 -4.41749 -48
    endloop
  endfacet
  facet normal 0 0 -1
    outer loop
      vertex 2.23226 0.282 -48
      vertex 11.9054 1.504 -48
      vertex 2.25 0 -48
    endloop
  endfacet
  facet normal 0 0 -1
    outer loop
      vertex 2.092 -0.828279 -48
      vertex 11.1573 -4.41749 -48
      vertex 10.5157 -5.78104 -48
    endloop
  endfacet
  facet normal -0 0 -1
    outer loop
      vertex 11.9054 1.504 -48
      vertex 2.23226 0.282 -48
      vertex 11.623 2.98428 -48
    endloop
  endfacet
  facet normal 0 0 -1
    outer loop
      vertex 1.97169 -1.08395 -48
      vertex 10.5157 -5.78104 -48
      vertex 9.7082 -7.05342 -48
    endloop
  endfacet
  facet normal 0 0 -1
    outer loop
      vertex 2.17931 0.559552 -48
      vertex 11.623 2.98428 -48
      vertex 2.23226 0.282 -48
    endloop
  endfacet
  facet normal 0 0 -1
    outer loop
      vertex 1.82029 -1.32252 -48
      vertex 9.7082 -7.05342 -48
      vertex 8.74762 -8.21456 -48
    endloop
  endfacet
  facet normal -0 0 -1
    outer loop
      vertex 11.623 2.98428 -48
      vertex 2.17931 0.559552 -48
      vertex 11.1573 4.41749 -48
    endloop
  endfacet
  facet normal 0 0 -1
    outer loop
      vertex 1.64018 -1.54023 -48
      vertex 8.74762 -8.21456 -48
      vertex 7.64909 -9.24616 -48
    endloop
  endfacet
  facet normal 0 0 -1
    outer loop
      vertex 2.092 0.828279 -48
      vertex 11.1573 4.41749 -48
      vertex 2.17931 0.559552 -48
    endloop
  endfacet
  facet normal 0 0 -1
    outer loop
      vertex 1.4342 -1.73365 -48
      vertex 7.64909 -9.24616 -48
      vertex 6.42992 -10.1319 -48
    endloop
  endfacet
  facet normal -0 0 -1
    outer loop
      vertex 11.1573 4.41749 -48
      vertex 2.092 0.828279 -48
      vertex 10.5157 5.78104 -48
    endloop
  endfacet
  facet normal 0 0 -1
    outer loop
      vertex 1.20561 -1.89974 -48
      vertex 6.42992 -10.1319 -48
      vertex 5.10935 -10.8579 -48
    endloop
  endfacet
  facet normal 0 0 -1
    outer loop
      vertex 1.97169 1.08395 -48
      vertex 10.5157 5.78104 -48
      vertex 2.092 0.828279 -48
    endloop
  endfacet
  facet normal 0 0 -1
    outer loop
      vertex 0.958003 -2.03586 -48
      vertex 5.10935 -10.8579 -48
      vertex 3.7082 -11.4127 -48
    endloop
  endfacet
  facet normal -0 0 -1
    outer loop
      vertex 10.5157 5.78104 -48
      vertex 1.97169 1.08395 -48
      vertex 9.7082 7.05342 -48
    endloop
  endfacet
  facet normal 0 0 -1
    outer loop
      vertex 1.82029 1.32252 -48
      vertex 9.7082 7.05342 -48
      vertex 1.97169 1.08395 -48
    endloop
  endfacet
  facet normal 0 0 -1
    outer loop
      vertex 0.695288 -2.13988 -48
      vertex 3.7082 -11.4127 -48
      vertex 2.24858 -11.7874 -48
    endloop
  endfacet
  facet normal 0 0 -1
    outer loop
      vertex 11.9054 -1.504 -48
      vertex 2.23226 -0.282 -48
      vertex 2.25 0 -48
    endloop
  endfacet
  facet normal 0 0 -1
    outer loop
      vertex 11.623 -2.98428 -48
      vertex 2.17931 -0.559552 -48
      vertex 2.23226 -0.282 -48
    endloop
  endfacet
  facet normal 0 0 -1
    outer loop
      vertex 11.1573 -4.41749 -48
      vertex 2.092 -0.828279 -48
      vertex 2.17931 -0.559552 -48
    endloop
  endfacet
  facet normal 0 0 -1
    outer loop
      vertex 10.5157 -5.78104 -48
      vertex 1.97169 -1.08395 -48
      vertex 2.092 -0.828279 -48
    endloop
  endfacet
  facet normal 0 0 -1
    outer loop
      vertex 9.7082 -7.05342 -48
      vertex 1.82029 -1.32252 -48
      vertex 1.97169 -1.08395 -48
    endloop
  endfacet
  facet normal 0 0 -1
    outer loop
      vertex 8.74762 -8.21456 -48
      vertex 1.64018 -1.54023 -48
      vertex 1.82029 -1.32252 -48
    endloop
  endfacet
  facet normal 0 0 -1
    outer loop
      vertex 7.64909 -9.24616 -48
      vertex 1.4342 -1.73365 -48
      vertex 1.64018 -1.54023 -48
    endloop
  endfacet
  facet normal 0 0 -1
    outer loop
      vertex 6.42992 -10.1319 -48
      vertex 1.20561 -1.89974 -48
      vertex 1.4342 -1.73365 -48
    endloop
  endfacet
  facet normal 0 0 -1
    outer loop
      vertex 5.10935 -10.8579 -48
      vertex 0.958003 -2.03586 -48
      vertex 1.20561 -1.89974 -48
    endloop
  endfacet
  facet normal 0 0 -1
    outer loop
      vertex 0.421607 -2.21015 -48
      vertex 2.24858 -11.7874 -48
      vertex 0.753486 -11.9763 -48
    endloop
  endfacet
  facet normal 0 0 -1
    outer loop
      vertex 3.7082 -11.4127 -48
      vertex 0.695288 -2.13988 -48
      vertex 0.958003 -2.03586 -48
    endloop
  endfacet
  facet normal 0 0 -1
    outer loop
      vertex 2.24858 -11.7874 -48
      vertex 0.421607 -2.21015 -48
      vertex 0.695288 -2.13988 -48
    endloop
  endfacet
  facet normal 0 0 -1
    outer loop
      vertex 0.753486 -11.9763 -48
      vertex 0.141278 -2.24556 -48
      vertex 0.421607 -2.21015 -48
    endloop
  endfacet
  facet normal 0 0 -1
    outer loop
      vertex 0.753486 -11.9763 -48
      vertex -0.141278 -2.24556 -48
      vertex 0.141278 -2.24556 -48
    endloop
  endfacet
  facet normal 0 0 -1
    outer loop
      vertex -0.753486 -11.9763 -48
      vertex -0.141278 -2.24556 -48
      vertex 0.753486 -11.9763 -48
    endloop
  endfacet
  facet normal -0 0 -1
    outer loop
      vertex -0.141278 -2.24556 -48
      vertex -0.753486 -11.9763 -48
      vertex -0.421607 -2.21015 -48
    endloop
  endfacet
  facet normal 0 0 -1
    outer loop
      vertex -2.24858 -11.7874 -48
      vertex -0.421607 -2.21015 -48
      vertex -0.753486 -11.9763 -48
    endloop
  endfacet
  facet normal -0 0 -1
    outer loop
      vertex -0.421607 -2.21015 -48
      vertex -2.24858 -11.7874 -48
      vertex -0.695288 -2.13988 -48
    endloop
  endfacet
  facet normal 0 0 -1
    outer loop
      vertex -3.7082 -11.4127 -48
      vertex -0.695288 -2.13988 -48
      vertex -2.24858 -11.7874 -48
    endloop
  endfacet
  facet normal -0 0 -1
    outer loop
      vertex -0.695288 -2.13988 -48
      vertex -3.7082 -11.4127 -48
      vertex -0.958003 -2.03586 -48
    endloop
  endfacet
  facet normal 0 0 -1
    outer loop
      vertex -5.10935 -10.8579 -48
      vertex -0.958003 -2.03586 -48
      vertex -3.7082 -11.4127 -48
    endloop
  endfacet
  facet normal -0 0 -1
    outer loop
      vertex -0.958003 -2.03586 -48
      vertex -5.10935 -10.8579 -48
      vertex -1.20561 -1.89974 -48
    endloop
  endfacet
  facet normal 0 0 -1
    outer loop
      vertex -6.42992 -10.1319 -48
      vertex -1.20561 -1.89974 -48
      vertex -5.10935 -10.8579 -48
    endloop
  endfacet
  facet normal -0 0 -1
    outer loop
      vertex -1.20561 -1.89974 -48
      vertex -6.42992 -10.1319 -48
      vertex -1.4342 -1.73365 -48
    endloop
  endfacet
  facet normal 0 0 -1
    outer loop
      vertex -7.64909 -9.24616 -48
      vertex -1.4342 -1.73365 -48
      vertex -6.42992 -10.1319 -48
    endloop
  endfacet
  facet normal -0 0 -1
    outer loop
      vertex -1.4342 -1.73365 -48
      vertex -7.64909 -9.24616 -48
      vertex -1.64018 -1.54023 -48
    endloop
  endfacet
  facet normal 0 0 -1
    outer loop
      vertex -8.74762 -8.21456 -48
      vertex -1.64018 -1.54023 -48
      vertex -7.64909 -9.24616 -48
    endloop
  endfacet
  facet normal -0 0 -1
    outer loop
      vertex -1.64018 -1.54023 -48
      vertex -8.74762 -8.21456 -48
      vertex -1.82029 -1.32252 -48
    endloop
  endfacet
  facet normal 0 0 -1
    outer loop
      vertex -9.7082 -7.05342 -48
      vertex -1.82029 -1.32252 -48
      vertex -8.74762 -8.21456 -48
    endloop
  endfacet
  facet normal -0 0 -1
    outer loop
      vertex 9.7082 7.05342 -48
      vertex 1.82029 1.32252 -48
      vertex 8.74762 8.21456 -48
    endloop
  endfacet
  facet normal 0 0 -1
    outer loop
      vertex 1.64018 1.54023 -48
      vertex 8.74762 8.21456 -48
      vertex 1.82029 1.32252 -48
    endloop
  endfacet
  facet normal -0 0 -1
    outer loop
      vertex 8.74762 8.21456 -48
      vertex 1.64018 1.54023 -48
      vertex 7.64909 9.24616 -48
    endloop
  endfacet
  facet normal 0 0 -1
    outer loop
      vertex 1.4342 1.73365 -48
      vertex 7.64909 9.24616 -48
      vertex 1.64018 1.54023 -48
    endloop
  endfacet
  facet normal -0 0 -1
    outer loop
      vertex 7.64909 9.24616 -48
      vertex 1.4342 1.73365 -48
      vertex 6.42992 10.1319 -48
    endloop
  endfacet
  facet normal 0 0 -1
    outer loop
      vertex 1.20561 1.89974 -48
      vertex 6.42992 10.1319 -48
      vertex 1.4342 1.73365 -48
    endloop
  endfacet
  facet normal -0 0 -1
    outer loop
      vertex 6.42992 10.1319 -48
      vertex 1.20561 1.89974 -48
      vertex 5.10935 10.8579 -48
    endloop
  endfacet
  facet normal 0 0 -1
    outer loop
      vertex 0.958003 2.03586 -48
      vertex 5.10935 10.8579 -48
      vertex 1.20561 1.89974 -48
    endloop
  endfacet
  facet normal -0 0 -1
    outer loop
      vertex 5.10935 10.8579 -48
      vertex 0.958003 2.03586 -48
      vertex 3.7082 11.4127 -48
    endloop
  endfacet
  facet normal 0 0 -1
    outer loop
      vertex 0.695288 2.13988 -48
      vertex 3.7082 11.4127 -48
      vertex 0.958003 2.03586 -48
    endloop
  endfacet
  facet normal -0 0 -1
    outer loop
      vertex 3.7082 11.4127 -48
      vertex 0.695288 2.13988 -48
      vertex 2.24858 11.7874 -48
    endloop
  endfacet
  facet normal 0 0 -1
    outer loop
      vertex 0.421607 2.21015 -48
      vertex 2.24858 11.7874 -48
      vertex 0.695288 2.13988 -48
    endloop
  endfacet
  facet normal -0 0 -1
    outer loop
      vertex 2.24858 11.7874 -48
      vertex 0.421607 2.21015 -48
      vertex 0.753486 11.9763 -48
    endloop
  endfacet
  facet normal 0 0 -1
    outer loop
      vertex 0.141278 2.24556 -48
      vertex 0.753486 11.9763 -48
      vertex 0.421607 2.21015 -48
    endloop
  endfacet
  facet normal 0 0 -1
    outer loop
      vertex -0.141278 2.24556 -48
      vertex 0.753486 11.9763 -48
      vertex 0.141278 2.24556 -48
    endloop
  endfacet
  facet normal 0 0 -1
    outer loop
      vertex -0.753486 11.9763 -48
      vertex -0.141278 2.24556 -48
      vertex -0.421607 2.21015 -48
    endloop
  endfacet
  facet normal 0 0 -1
    outer loop
      vertex -2.24858 11.7874 -48
      vertex -0.421607 2.21015 -48
      vertex -0.695288 2.13988 -48
    endloop
  endfacet
  facet normal 0 0 -1
    outer loop
      vertex -0.141278 2.24556 -48
      vertex -0.753486 11.9763 -48
      vertex 0.753486 11.9763 -48
    endloop
  endfacet
  facet normal 0 0 -1
    outer loop
      vertex -3.7082 11.4127 -48
      vertex -0.695288 2.13988 -48
      vertex -0.958003 2.03586 -48
    endloop
  endfacet
  facet normal 0 0 -1
    outer loop
      vertex -5.10935 10.8579 -48
      vertex -0.958003 2.03586 -48
      vertex -1.20561 1.89974 -48
    endloop
  endfacet
  facet normal 0 0 -1
    outer loop
      vertex -6.42992 10.1319 -48
      vertex -1.20561 1.89974 -48
      vertex -1.4342 1.73365 -48
    endloop
  endfacet
  facet normal 0 0 -1
    outer loop
      vertex -7.64909 9.24616 -48
      vertex -1.4342 1.73365 -48
      vertex -1.64018 1.54023 -48
    endloop
  endfacet
  facet normal 0 0 -1
    outer loop
      vertex -8.74762 8.21456 -48
      vertex -1.64018 1.54023 -48
      vertex -1.82029 1.32252 -48
    endloop
  endfacet
  facet normal 0 0 -1
    outer loop
      vertex -9.7082 7.05342 -48
      vertex -1.82029 1.32252 -48
      vertex -1.97169 1.08395 -48
    endloop
  endfacet
  facet normal 0 0 -1
    outer loop
      vertex -10.5157 5.78104 -48
      vertex -1.97169 1.08395 -48
      vertex -2.092 0.828279 -48
    endloop
  endfacet
  facet normal 0 0 -1
    outer loop
      vertex -11.1573 4.41749 -48
      vertex -2.092 0.828279 -48
      vertex -2.17931 0.559552 -48
    endloop
  endfacet
  facet normal 0 0 -1
    outer loop
      vertex -11.623 2.98428 -48
      vertex -2.17931 0.559552 -48
      vertex -2.23226 0.282 -48
    endloop
  endfacet
  facet normal 0 0 -1
    outer loop
      vertex -0.421607 2.21015 -48
      vertex -2.24858 11.7874 -48
      vertex -0.753486 11.9763 -48
    endloop
  endfacet
  facet normal 0 0 -1
    outer loop
      vertex -11.9054 1.504 -48
      vertex -2.23226 0.282 -48
      vertex -2.25 0 -48
    endloop
  endfacet
  facet normal -0 0 -1
    outer loop
      vertex -1.82029 -1.32252 -48
      vertex -9.7082 -7.05342 -48
      vertex -1.97169 -1.08395 -48
    endloop
  endfacet
  facet normal 0 0 -1
    outer loop
      vertex -0.695288 2.13988 -48
      vertex -3.7082 11.4127 -48
      vertex -2.24858 11.7874 -48
    endloop
  endfacet
  facet normal 0 0 -1
    outer loop
      vertex -10.5157 -5.78104 -48
      vertex -1.97169 -1.08395 -48
      vertex -9.7082 -7.05342 -48
    endloop
  endfacet
  facet normal 0 0 -1
    outer loop
      vertex -0.958003 2.03586 -48
      vertex -5.10935 10.8579 -48
      vertex -3.7082 11.4127 -48
    endloop
  endfacet
  facet normal -0 0 -1
    outer loop
      vertex -1.97169 -1.08395 -48
      vertex -10.5157 -5.78104 -48
      vertex -2.092 -0.828279 -48
    endloop
  endfacet
  facet normal 0 0 -1
    outer loop
      vertex -1.20561 1.89974 -48
      vertex -6.42992 10.1319 -48
      vertex -5.10935 10.8579 -48
    endloop
  endfacet
  facet normal 0 0 -1
    outer loop
      vertex -11.1573 -4.41749 -48
      vertex -2.092 -0.828279 -48
      vertex -10.5157 -5.78104 -48
    endloop
  endfacet
  facet normal 0 0 -1
    outer loop
      vertex -1.4342 1.73365 -48
      vertex -7.64909 9.24616 -48
      vertex -6.42992 10.1319 -48
    endloop
  endfacet
  facet normal -0 0 -1
    outer loop
      vertex -2.092 -0.828279 -48
      vertex -11.1573 -4.41749 -48
      vertex -2.17931 -0.559552 -48
    endloop
  endfacet
  facet normal 0 0 -1
    outer loop
      vertex -1.64018 1.54023 -48
      vertex -8.74762 8.21456 -48
      vertex -7.64909 9.24616 -48
    endloop
  endfacet
  facet normal 0 0 -1
    outer loop
      vertex -11.623 -2.98428 -48
      vertex -2.17931 -0.559552 -48
      vertex -11.1573 -4.41749 -48
    endloop
  endfacet
  facet normal 0 0 -1
    outer loop
      vertex -1.82029 1.32252 -48
      vertex -9.7082 7.05342 -48
      vertex -8.74762 8.21456 -48
    endloop
  endfacet
  facet normal -0 0 -1
    outer loop
      vertex -2.17931 -0.559552 -48
      vertex -11.623 -2.98428 -48
      vertex -2.23226 -0.282 -48
    endloop
  endfacet
  facet normal 0 0 -1
    outer loop
      vertex -1.97169 1.08395 -48
      vertex -10.5157 5.78104 -48
      vertex -9.7082 7.05342 -48
    endloop
  endfacet
  facet normal 0 0 -1
    outer loop
      vertex -11.9054 -1.504 -48
      vertex -2.23226 -0.282 -48
      vertex -11.623 -2.98428 -48
    endloop
  endfacet
  facet normal 0 0 -1
    outer loop
      vertex -2.092 0.828279 -48
      vertex -11.1573 4.41749 -48
      vertex -10.5157 5.78104 -48
    endloop
  endfacet
  facet normal -0 0 -1
    outer loop
      vertex -2.23226 -0.282 -48
      vertex -11.9054 -1.504 -48
      vertex -2.25 0 -48
    endloop
  endfacet
  facet normal 0 0 -1
    outer loop
      vertex -2.17931 0.559552 -48
      vertex -11.623 2.98428 -48
      vertex -11.1573 4.41749 -48
    endloop
  endfacet
  facet normal 0 0 -1
    outer loop
      vertex -12 0 -48
      vertex -2.25 0 -48
      vertex -11.9054 -1.504 -48
    endloop
  endfacet
  facet normal 0 0 -1
    outer loop
      vertex -2.23226 0.282 -48
      vertex -11.9054 1.504 -48
      vertex -11.623 2.98428 -48
    endloop
  endfacet
  facet normal 0 0 -1
    outer loop
      vertex -2.25 0 -48
      vertex -12 0 -48
      vertex -11.9054 1.504 -48
    endloop
  endfacet
  facet normal 0.481759 -0.876304 0
    outer loop
      vertex 5.10935 -10.8579 -48
      vertex 6.42992 -10.1319 48
      vertex 5.10935 -10.8579 48
    endloop
  endfacet
  facet normal 0.481759 -0.876304 0
    outer loop
      vertex 6.42992 -10.1319 48
      vertex 5.10935 -10.8579 -48
      vertex 6.42992 -10.1319 -48
    endloop
  endfacet
  facet normal 0.684551 -0.728965 0
    outer loop
      vertex 7.64909 -9.24616 -48
      vertex 8.74762 -8.21456 48
      vertex 7.64909 -9.24616 48
    endloop
  endfacet
  facet normal 0.684551 -0.728965 0
    outer loop
      vertex 8.74762 -8.21456 48
      vertex 7.64909 -9.24616 -48
      vertex 8.74762 -8.21456 -48
    endloop
  endfacet
  facet normal 0.904837 -0.425759 0
    outer loop
      vertex 10.5157 -5.78104 48
      vertex 11.1573 -4.41749 -48
      vertex 11.1573 -4.41749 48
    endloop
  endfacet
  facet normal 0.904837 -0.425759 0
    outer loop
      vertex 11.1573 -4.41749 -48
      vertex 10.5157 -5.78104 48
      vertex 10.5157 -5.78104 -48
    endloop
  endfacet
  facet normal -0.951052 -0.30903 0
    outer loop
      vertex -11.1573 -4.41749 -48
      vertex -11.623 -2.98428 48
      vertex -11.623 -2.98428 -48
    endloop
  endfacet
  facet normal -0.951052 -0.30903 0
    outer loop
      vertex -11.623 -2.98428 48
      vertex -11.1573 -4.41749 -48
      vertex -11.1573 -4.41749 48
    endloop
  endfacet
  facet normal 0.368151 -0.929766 0
    outer loop
      vertex 3.7082 -11.4127 -48
      vertex 5.10935 -10.8579 48
      vertex 3.7082 -11.4127 48
    endloop
  endfacet
  facet normal 0.368151 -0.929766 0
    outer loop
      vertex 5.10935 -10.8579 48
      vertex 3.7082 -11.4127 -48
      vertex 5.10935 -10.8579 -48
    endloop
  endfacet
  facet normal 0.248648 -0.968594 0
    outer loop
      vertex 2.24858 -11.7874 -48
      vertex 3.7082 -11.4127 48
      vertex 2.24858 -11.7874 48
    endloop
  endfacet
  facet normal 0.248648 -0.968594 0
    outer loop
      vertex 3.7082 -11.4127 48
      vertex 2.24858 -11.7874 -48
      vertex 3.7082 -11.4127 -48
    endloop
  endfacet
  facet normal -0.12535 -0.992113 0
    outer loop
      vertex -2.24858 -11.7874 -48
      vertex -0.753486 -11.9763 48
      vertex -2.24858 -11.7874 48
    endloop
  endfacet
  facet normal -0.12535 -0.992113 -0
    outer loop
      vertex -0.753486 -11.9763 48
      vertex -2.24858 -11.7874 -48
      vertex -0.753486 -11.9763 -48
    endloop
  endfacet
  facet normal -0.587768 -0.809029 0
    outer loop
      vertex -7.64909 -9.24616 -48
      vertex -6.42992 -10.1319 48
      vertex -7.64909 -9.24616 48
    endloop
  endfacet
  facet normal -0.587768 -0.809029 -0
    outer loop
      vertex -6.42992 -10.1319 48
      vertex -7.64909 -9.24616 -48
      vertex -6.42992 -10.1319 -48
    endloop
  endfacet
  facet normal -0.844321 -0.535838 0
    outer loop
      vertex -9.7082 -7.05342 -48
      vertex -10.5157 -5.78104 48
      vertex -10.5157 -5.78104 -48
    endloop
  endfacet
  facet normal -0.844321 -0.535838 0
    outer loop
      vertex -10.5157 -5.78104 48
      vertex -9.7082 -7.05342 -48
      vertex -9.7082 -7.05342 48
    endloop
  endfacet
  facet normal -0.982285 -0.187395 0
    outer loop
      vertex -11.623 -2.98428 -48
      vertex -11.9054 -1.504 48
      vertex -11.9054 -1.504 -48
    endloop
  endfacet
  facet normal -0.982285 -0.187395 0
    outer loop
      vertex -11.9054 -1.504 48
      vertex -11.623 -2.98428 -48
      vertex -11.623 -2.98428 48
    endloop
  endfacet
  facet normal -0.998028 -0.0627749 0
    outer loop
      vertex -11.9054 -1.504 -48
      vertex -12 0 48
      vertex -12 0 -48
    endloop
  endfacet
  facet normal -0.998028 -0.0627749 0
    outer loop
      vertex -12 0 48
      vertex -11.9054 -1.504 -48
      vertex -11.9054 -1.504 48
    endloop
  endfacet
  facet normal 0.587768 -0.809029 0
    outer loop
      vertex 6.42992 -10.1319 -48
      vertex 7.64909 -9.24616 48
      vertex 6.42992 -10.1319 48
    endloop
  endfacet
  facet normal 0.587768 -0.809029 0
    outer loop
      vertex 7.64909 -9.24616 48
      vertex 6.42992 -10.1319 -48
      vertex 7.64909 -9.24616 -48
    endloop
  endfacet
  facet normal -0.248648 -0.968594 0
    outer loop
      vertex -3.7082 -11.4127 -48
      vertex -2.24858 -11.7874 48
      vertex -3.7082 -11.4127 48
    endloop
  endfacet
  facet normal -0.248648 -0.968594 -0
    outer loop
      vertex -2.24858 -11.7874 48
      vertex -3.7082 -11.4127 -48
      vertex -2.24858 -11.7874 -48
    endloop
  endfacet
  facet normal -0.368151 -0.929766 0
    outer loop
      vertex -5.10935 -10.8579 -48
      vertex -3.7082 -11.4127 48
      vertex -5.10935 -10.8579 48
    endloop
  endfacet
  facet normal -0.368151 -0.929766 -0
    outer loop
      vertex -3.7082 -11.4127 48
      vertex -5.10935 -10.8579 -48
      vertex -3.7082 -11.4127 -48
    endloop
  endfacet
  facet normal -0.481759 -0.876304 0
    outer loop
      vertex -6.42992 -10.1319 -48
      vertex -5.10935 -10.8579 48
      vertex -6.42992 -10.1319 48
    endloop
  endfacet
  facet normal -0.481759 -0.876304 -0
    outer loop
      vertex -5.10935 -10.8579 48
      vertex -6.42992 -10.1319 -48
      vertex -5.10935 -10.8579 -48
    endloop
  endfacet
  facet normal 0.951061 -0.309002 0
    outer loop
      vertex -2.17931 0.559552 48
      vertex -2.092 0.828279 -48
      vertex -2.092 0.828279 48
    endloop
  endfacet
  facet normal 0.951061 -0.309002 0
    outer loop
      vertex -2.092 0.828279 -48
      vertex -2.17931 0.559552 48
      vertex -2.17931 0.559552 -48
    endloop
  endfacet
  facet normal -0.84433 -0.535824 0
    outer loop
      vertex 1.97169 1.08395 -48
      vertex 1.82029 1.32252 48
      vertex 1.82029 1.32252 -48
    endloop
  endfacet
  facet normal -0.84433 -0.535824 0
    outer loop
      vertex 1.82029 1.32252 48
      vertex 1.97169 1.08395 -48
      vertex 1.97169 1.08395 48
    endloop
  endfacet
  facet normal -0.248692 -0.968583 0
    outer loop
      vertex 0.421607 2.21015 -48
      vertex 0.695288 2.13988 48
      vertex 0.421607 2.21015 48
    endloop
  endfacet
  facet normal -0.248692 -0.968583 -0
    outer loop
      vertex 0.695288 2.13988 48
      vertex 0.421607 2.21015 -48
      vertex 0.695288 2.13988 -48
    endloop
  endfacet
  facet normal -0.368136 -0.929772 0
    outer loop
      vertex 0.695288 2.13988 -48
      vertex 0.958003 2.03586 48
      vertex 0.695288 2.13988 48
    endloop
  endfacet
  facet normal -0.368136 -0.929772 -0
    outer loop
      vertex 0.958003 2.03586 48
      vertex 0.695288 2.13988 -48
      vertex 0.958003 2.03586 -48
    endloop
  endfacet
  facet normal 0.368136 -0.929772 0
    outer loop
      vertex -0.958003 2.03586 -48
      vertex -0.695288 2.13988 48
      vertex -0.958003 2.03586 48
    endloop
  endfacet
  facet normal 0.368136 -0.929772 0
    outer loop
      vertex -0.695288 2.13988 48
      vertex -0.958003 2.03586 -48
      vertex -0.695288 2.13988 -48
    endloop
  endfacet
  facet normal 0.904827 -0.42578 0
    outer loop
      vertex -2.092 0.828279 48
      vertex -1.97169 1.08395 -48
      vertex -1.97169 1.08395 48
    endloop
  endfacet
  facet normal 0.904827 -0.42578 0
    outer loop
      vertex -1.97169 1.08395 -48
      vertex -2.092 0.828279 48
      vertex -2.092 0.828279 -48
    endloop
  endfacet
  facet normal -0.998027 0.0627837 0
    outer loop
      vertex 2.23226 -0.282 -48
      vertex 2.25 0 48
      vertex 2.25 0 -48
    endloop
  endfacet
  facet normal -0.998027 0.0627837 0
    outer loop
      vertex 2.25 0 48
      vertex 2.23226 -0.282 -48
      vertex 2.23226 -0.282 48
    endloop
  endfacet
  facet normal -0.684532 -0.728983 0
    outer loop
      vertex 1.4342 1.73365 -48
      vertex 1.64018 1.54023 48
      vertex 1.4342 1.73365 48
    endloop
  endfacet
  facet normal -0.684532 -0.728983 -0
    outer loop
      vertex 1.64018 1.54023 48
      vertex 1.4342 1.73365 -48
      vertex 1.64018 1.54023 -48
    endloop
  endfacet
  facet normal -0.587808 -0.809001 0
    outer loop
      vertex 1.20561 1.89974 -48
      vertex 1.4342 1.73365 48
      vertex 1.20561 1.89974 48
    endloop
  endfacet
  facet normal -0.587808 -0.809001 -0
    outer loop
      vertex 1.4342 1.73365 48
      vertex 1.20561 1.89974 -48
      vertex 1.4342 1.73365 -48
    endloop
  endfacet
  facet normal 0.770505 -0.637434 0
    outer loop
      vertex -1.82029 1.32252 48
      vertex -1.64018 1.54023 -48
      vertex -1.64018 1.54023 48
    endloop
  endfacet
  facet normal 0.770505 -0.637434 0
    outer loop
      vertex -1.64018 1.54023 -48
      vertex -1.82029 1.32252 48
      vertex -1.82029 1.32252 -48
    endloop
  endfacet
  facet normal 0.481745 -0.876311 0
    outer loop
      vertex -1.20561 1.89974 -48
      vertex -0.958003 2.03586 48
      vertex -1.20561 1.89974 48
    endloop
  endfacet
  facet normal 0.481745 -0.876311 0
    outer loop
      vertex -0.958003 2.03586 48
      vertex -1.20561 1.89974 -48
      vertex -0.958003 2.03586 -48
    endloop
  endfacet
  facet normal 0.12532 -0.992116 0
    outer loop
      vertex -0.421607 2.21015 -48
      vertex -0.141278 2.24556 48
      vertex -0.421607 2.21015 48
    endloop
  endfacet
  facet normal 0.12532 -0.992116 0
    outer loop
      vertex -0.141278 2.24556 48
      vertex -0.421607 2.21015 -48
      vertex -0.141278 2.24556 -48
    endloop
  endfacet
  facet normal 0.587808 -0.809001 0
    outer loop
      vertex -1.4342 1.73365 -48
      vertex -1.20561 1.89974 48
      vertex -1.4342 1.73365 48
    endloop
  endfacet
  facet normal 0.587808 -0.809001 0
    outer loop
      vertex -1.20561 1.89974 48
      vertex -1.4342 1.73365 -48
      vertex -1.20561 1.89974 -48
    endloop
  endfacet
  facet normal -0.998027 -0.0627837 0
    outer loop
      vertex 2.25 0 -48
      vertex 2.23226 0.282 48
      vertex 2.23226 0.282 -48
    endloop
  endfacet
  facet normal -0.998027 -0.0627837 0
    outer loop
      vertex 2.23226 0.282 48
      vertex 2.25 0 -48
      vertex 2.25 0 48
    endloop
  endfacet
  facet normal -0.684532 0.728983 0
    outer loop
      vertex 1.64018 -1.54023 -48
      vertex 1.4342 -1.73365 48
      vertex 1.64018 -1.54023 48
    endloop
  endfacet
  facet normal -0.684532 0.728983 0
    outer loop
      vertex 1.4342 -1.73365 48
      vertex 1.64018 -1.54023 -48
      vertex 1.4342 -1.73365 -48
    endloop
  endfacet
  facet normal -0.84433 0.535824 0
    outer loop
      vertex 1.82029 -1.32252 -48
      vertex 1.97169 -1.08395 48
      vertex 1.97169 -1.08395 -48
    endloop
  endfacet
  facet normal -0.84433 0.535824 0
    outer loop
      vertex 1.97169 -1.08395 48
      vertex 1.82029 -1.32252 -48
      vertex 1.82029 -1.32252 48
    endloop
  endfacet
  facet normal 0.12532 0.992116 -0
    outer loop
      vertex -0.141278 -2.24556 -48
      vertex -0.421607 -2.21015 48
      vertex -0.141278 -2.24556 48
    endloop
  endfacet
  facet normal 0.12532 0.992116 0
    outer loop
      vertex -0.421607 -2.21015 48
      vertex -0.141278 -2.24556 -48
      vertex -0.421607 -2.21015 -48
    endloop
  endfacet
  facet normal -0.248692 0.968583 0
    outer loop
      vertex 0.695288 -2.13988 -48
      vertex 0.421607 -2.21015 48
      vertex 0.695288 -2.13988 48
    endloop
  endfacet
  facet normal -0.248692 0.968583 0
    outer loop
      vertex 0.421607 -2.21015 48
      vertex 0.695288 -2.13988 -48
      vertex 0.421607 -2.21015 -48
    endloop
  endfacet
  facet normal -0.770505 -0.637434 0
    outer loop
      vertex 1.82029 1.32252 -48
      vertex 1.64018 1.54023 48
      vertex 1.64018 1.54023 -48
    endloop
  endfacet
  facet normal -0.770505 -0.637434 0
    outer loop
      vertex 1.64018 1.54023 48
      vertex 1.82029 1.32252 -48
      vertex 1.82029 1.32252 48
    endloop
  endfacet
  facet normal 0 -1 0
    outer loop
      vertex -0.141278 2.24556 -48
      vertex 0.141278 2.24556 48
      vertex -0.141278 2.24556 48
    endloop
  endfacet
  facet normal 0 -1 -0
    outer loop
      vertex 0.141278 2.24556 48
      vertex -0.141278 2.24556 -48
      vertex 0.141278 2.24556 -48
    endloop
  endfacet
  facet normal -0.481745 -0.876311 0
    outer loop
      vertex 0.958003 2.03586 -48
      vertex 1.20561 1.89974 48
      vertex 0.958003 2.03586 48
    endloop
  endfacet
  facet normal -0.481745 -0.876311 -0
    outer loop
      vertex 1.20561 1.89974 48
      vertex 0.958003 2.03586 -48
      vertex 1.20561 1.89974 -48
    endloop
  endfacet
  facet normal 0.998027 -0.0627837 0
    outer loop
      vertex -2.25 0 48
      vertex -2.23226 0.282 -48
      vertex -2.23226 0.282 48
    endloop
  endfacet
  facet normal 0.998027 -0.0627837 0
    outer loop
      vertex -2.23226 0.282 -48
      vertex -2.25 0 48
      vertex -2.25 0 -48
    endloop
  endfacet
  facet normal 0.982285 -0.187395 0
    outer loop
      vertex -2.23226 0.282 48
      vertex -2.17931 0.559552 -48
      vertex -2.17931 0.559552 48
    endloop
  endfacet
  facet normal 0.982285 -0.187395 0
    outer loop
      vertex -2.17931 0.559552 -48
      vertex -2.23226 0.282 48
      vertex -2.23226 0.282 -48
    endloop
  endfacet
  facet normal 0.84433 -0.535824 0
    outer loop
      vertex -1.97169 1.08395 48
      vertex -1.82029 1.32252 -48
      vertex -1.82029 1.32252 48
    endloop
  endfacet
  facet normal 0.84433 -0.535824 0
    outer loop
      vertex -1.82029 1.32252 -48
      vertex -1.97169 1.08395 48
      vertex -1.97169 1.08395 -48
    endloop
  endfacet
  facet normal 0.248692 -0.968583 0
    outer loop
      vertex -0.695288 2.13988 -48
      vertex -0.421607 2.21015 48
      vertex -0.695288 2.13988 48
    endloop
  endfacet
  facet normal 0.248692 -0.968583 0
    outer loop
      vertex -0.421607 2.21015 48
      vertex -0.695288 2.13988 -48
      vertex -0.421607 2.21015 -48
    endloop
  endfacet
  facet normal 0.684532 -0.728983 0
    outer loop
      vertex -1.64018 1.54023 -48
      vertex -1.4342 1.73365 48
      vertex -1.64018 1.54023 48
    endloop
  endfacet
  facet normal 0.684532 -0.728983 0
    outer loop
      vertex -1.4342 1.73365 48
      vertex -1.64018 1.54023 -48
      vertex -1.4342 1.73365 -48
    endloop
  endfacet
  facet normal -0.982285 0.187395 0
    outer loop
      vertex 2.17931 -0.559552 -48
      vertex 2.23226 -0.282 48
      vertex 2.23226 -0.282 -48
    endloop
  endfacet
  facet normal -0.982285 0.187395 0
    outer loop
      vertex 2.23226 -0.282 48
      vertex 2.17931 -0.559552 -48
      vertex 2.17931 -0.559552 48
    endloop
  endfacet
  facet normal -0.12532 0.992116 0
    outer loop
      vertex 0.421607 -2.21015 -48
      vertex 0.141278 -2.24556 48
      vertex 0.421607 -2.21015 48
    endloop
  endfacet
  facet normal -0.12532 0.992116 0
    outer loop
      vertex 0.141278 -2.24556 48
      vertex 0.421607 -2.21015 -48
      vertex 0.141278 -2.24556 -48
    endloop
  endfacet
  facet normal -0.904827 -0.42578 0
    outer loop
      vertex 2.092 0.828279 -48
      vertex 1.97169 1.08395 48
      vertex 1.97169 1.08395 -48
    endloop
  endfacet
  facet normal -0.904827 -0.42578 0
    outer loop
      vertex 1.97169 1.08395 48
      vertex 2.092 0.828279 -48
      vertex 2.092 0.828279 48
    endloop
  endfacet
  facet normal -0.951061 -0.309002 0
    outer loop
      vertex 2.17931 0.559552 -48
      vertex 2.092 0.828279 48
      vertex 2.092 0.828279 -48
    endloop
  endfacet
  facet normal -0.951061 -0.309002 0
    outer loop
      vertex 2.092 0.828279 48
      vertex 2.17931 0.559552 -48
      vertex 2.17931 0.559552 48
    endloop
  endfacet
  facet normal -0.982285 -0.187395 0
    outer loop
      vertex 2.23226 0.282 -48
      vertex 2.17931 0.559552 48
      vertex 2.17931 0.559552 -48
    endloop
  endfacet
  facet normal -0.982285 -0.187395 0
    outer loop
      vertex 2.17931 0.559552 48
      vertex 2.23226 0.282 -48
      vertex 2.23226 0.282 48
    endloop
  endfacet
  facet normal -0.12532 -0.992116 0
    outer loop
      vertex 0.141278 2.24556 -48
      vertex 0.421607 2.21015 48
      vertex 0.141278 2.24556 48
    endloop
  endfacet
  facet normal -0.12532 -0.992116 -0
    outer loop
      vertex 0.421607 2.21015 48
      vertex 0.141278 2.24556 -48
      vertex 0.421607 2.21015 -48
    endloop
  endfacet
  facet normal -0.951061 0.309002 0
    outer loop
      vertex 2.092 -0.828279 -48
      vertex 2.17931 -0.559552 48
      vertex 2.17931 -0.559552 -48
    endloop
  endfacet
  facet normal -0.951061 0.309002 0
    outer loop
      vertex 2.17931 -0.559552 48
      vertex 2.092 -0.828279 -48
      vertex 2.092 -0.828279 48
    endloop
  endfacet
  facet normal -0.904827 0.42578 0
    outer loop
      vertex 1.97169 -1.08395 -48
      vertex 2.092 -0.828279 48
      vertex 2.092 -0.828279 -48
    endloop
  endfacet
  facet normal -0.904827 0.42578 0
    outer loop
      vertex 2.092 -0.828279 48
      vertex 1.97169 -1.08395 -48
      vertex 1.97169 -1.08395 48
    endloop
  endfacet
  facet normal 0.481745 0.876311 -0
    outer loop
      vertex -0.958003 -2.03586 -48
      vertex -1.20561 -1.89974 48
      vertex -0.958003 -2.03586 48
    endloop
  endfacet
  facet normal 0.481745 0.876311 0
    outer loop
      vertex -1.20561 -1.89974 48
      vertex -0.958003 -2.03586 -48
      vertex -1.20561 -1.89974 -48
    endloop
  endfacet
  facet normal 0.998027 0.0627837 0
    outer loop
      vertex -2.23226 -0.282 48
      vertex -2.25 0 -48
      vertex -2.25 0 48
    endloop
  endfacet
  facet normal 0.998027 0.0627837 0
    outer loop
      vertex -2.25 0 -48
      vertex -2.23226 -0.282 48
      vertex -2.23226 -0.282 -48
    endloop
  endfacet
  facet normal 0.951061 0.309002 0
    outer loop
      vertex -2.092 -0.828279 48
      vertex -2.17931 -0.559552 -48
      vertex -2.17931 -0.559552 48
    endloop
  endfacet
  facet normal 0.951061 0.309002 0
    outer loop
      vertex -2.17931 -0.559552 -48
      vertex -2.092 -0.828279 48
      vertex -2.092 -0.828279 -48
    endloop
  endfacet
  facet normal 0.770505 0.637434 0
    outer loop
      vertex -1.64018 -1.54023 48
      vertex -1.82029 -1.32252 -48
      vertex -1.82029 -1.32252 48
    endloop
  endfacet
  facet normal 0.770505 0.637434 0
    outer loop
      vertex -1.82029 -1.32252 -48
      vertex -1.64018 -1.54023 48
      vertex -1.64018 -1.54023 -48
    endloop
  endfacet
  facet normal -0.368136 0.929772 0
    outer loop
      vertex 0.958003 -2.03586 -48
      vertex 0.695288 -2.13988 48
      vertex 0.958003 -2.03586 48
    endloop
  endfacet
  facet normal -0.368136 0.929772 0
    outer loop
      vertex 0.695288 -2.13988 48
      vertex 0.958003 -2.03586 -48
      vertex 0.695288 -2.13988 -48
    endloop
  endfacet
  facet normal -0.770505 0.637434 0
    outer loop
      vertex 1.64018 -1.54023 -48
      vertex 1.82029 -1.32252 48
      vertex 1.82029 -1.32252 -48
    endloop
  endfacet
  facet normal -0.770505 0.637434 0
    outer loop
      vertex 1.82029 -1.32252 48
      vertex 1.64018 -1.54023 -48
      vertex 1.64018 -1.54023 48
    endloop
  endfacet
  facet normal -0.587808 0.809001 0
    outer loop
      vertex 1.4342 -1.73365 -48
      vertex 1.20561 -1.89974 48
      vertex 1.4342 -1.73365 48
    endloop
  endfacet
  facet normal -0.587808 0.809001 0
    outer loop
      vertex 1.20561 -1.89974 48
      vertex 1.4342 -1.73365 -48
      vertex 1.20561 -1.89974 -48
    endloop
  endfacet
  facet normal 0.684532 0.728983 -0
    outer loop
      vertex -1.4342 -1.73365 -48
      vertex -1.64018 -1.54023 48
      vertex -1.4342 -1.73365 48
    endloop
  endfacet
  facet normal 0.684532 0.728983 0
    outer loop
      vertex -1.64018 -1.54023 48
      vertex -1.4342 -1.73365 -48
      vertex -1.64018 -1.54023 -48
    endloop
  endfacet
  facet normal 0 1 -0
    outer loop
      vertex 0.141278 -2.24556 -48
      vertex -0.141278 -2.24556 48
      vertex 0.141278 -2.24556 48
    endloop
  endfacet
  facet normal 0 1 0
    outer loop
      vertex -0.141278 -2.24556 48
      vertex 0.141278 -2.24556 -48
      vertex -0.141278 -2.24556 -48
    endloop
  endfacet
  facet normal 0.368136 0.929772 -0
    outer loop
      vertex -0.695288 -2.13988 -48
      vertex -0.958003 -2.03586 48
      vertex -0.695288 -2.13988 48
    endloop
  endfacet
  facet normal 0.368136 0.929772 0
    outer loop
      vertex -0.958003 -2.03586 48
      vertex -0.695288 -2.13988 -48
      vertex -0.958003 -2.03586 -48
    endloop
  endfacet
  facet normal 0.587808 0.809001 -0
    outer loop
      vertex -1.20561 -1.89974 -48
      vertex -1.4342 -1.73365 48
      vertex -1.20561 -1.89974 48
    endloop
  endfacet
  facet normal 0.587808 0.809001 0
    outer loop
      vertex -1.4342 -1.73365 48
      vertex -1.20561 -1.89974 -48
      vertex -1.4342 -1.73365 -48
    endloop
  endfacet
  facet normal 0.982285 0.187395 0
    outer loop
      vertex -2.17931 -0.559552 48
      vertex -2.23226 -0.282 -48
      vertex -2.23226 -0.282 48
    endloop
  endfacet
  facet normal 0.982285 0.187395 0
    outer loop
      vertex -2.23226 -0.282 -48
      vertex -2.17931 -0.559552 48
      vertex -2.17931 -0.559552 -48
    endloop
  endfacet
  facet normal 0.84433 0.535824 0
    outer loop
      vertex -1.82029 -1.32252 48
      vertex -1.97169 -1.08395 -48
      vertex -1.97169 -1.08395 48
    endloop
  endfacet
  facet normal 0.84433 0.535824 0
    outer loop
      vertex -1.97169 -1.08395 -48
      vertex -1.82029 -1.32252 48
      vertex -1.82029 -1.32252 -48
    endloop
  endfacet
  facet normal 0.904827 0.42578 0
    outer loop
      vertex -1.97169 -1.08395 48
      vertex -2.092 -0.828279 -48
      vertex -2.092 -0.828279 48
    endloop
  endfacet
  facet normal 0.904827 0.42578 0
    outer loop
      vertex -2.092 -0.828279 -48
      vertex -1.97169 -1.08395 48
      vertex -1.97169 -1.08395 -48
    endloop
  endfacet
  facet normal -0.481745 0.876311 0
    outer loop
      vertex 1.20561 -1.89974 -48
      vertex 0.958003 -2.03586 48
      vertex 1.20561 -1.89974 48
    endloop
  endfacet
  facet normal -0.481745 0.876311 0
    outer loop
      vertex 0.958003 -2.03586 48
      vertex 1.20561 -1.89974 -48
      vertex 0.958003 -2.03586 -48
    endloop
  endfacet
  facet normal 0.248692 0.968583 -0
    outer loop
      vertex -0.421607 -2.21015 -48
      vertex -0.695288 -2.13988 48
      vertex -0.421607 -2.21015 48
    endloop
  endfacet
  facet normal 0.248692 0.968583 0
    outer loop
      vertex -0.695288 -2.13988 48
      vertex -0.421607 -2.21015 -48
      vertex -0.695288 -2.13988 -48
    endloop
  endfacet
endsolid OpenSCAD_Model
