solid OpenSCAD_Model
  facet normal 0.998026 0.0628015 0
    outer loop
      vertex 3 0 17.5
      vertex 2.97634 0.375999 -17.5
      vertex 2.97634 0.375999 17.5
    endloop
  endfacet
  facet normal 0.998026 0.0628015 0
    outer loop
      vertex 2.97634 0.375999 -17.5
      vertex 3 0 17.5
      vertex 3 0 -17.5
    endloop
  endfacet
  facet normal -0.998026 0.0628015 0
    outer loop
      vertex -3 0 -17.5
      vertex -2.97634 0.375999 17.5
      vertex -2.97634 0.375999 -17.5
    endloop
  endfacet
  facet normal -0.998026 0.0628015 0
    outer loop
      vertex -2.97634 0.375999 17.5
      vertex -3 0 -17.5
      vertex -3 0 17.5
    endloop
  endfacet
  facet normal 0 1 -0
    outer loop
      vertex 0.188371 2.99408 -17.5
      vertex -0.188371 2.99408 17.5
      vertex 0.188371 2.99408 17.5
    endloop
  endfacet
  facet normal 0 1 0
    outer loop
      vertex -0.188371 2.99408 17.5
      vertex 0.188371 2.99408 -17.5
      vertex -0.188371 2.99408 -17.5
    endloop
  endfacet
  facet normal 0 -1 0
    outer loop
      vertex -0.188371 -2.99408 -17.5
      vertex 0.188371 -2.99408 17.5
      vertex -0.188371 -2.99408 17.5
    endloop
  endfacet
  facet normal 0 -1 -0
    outer loop
      vertex 0.188371 -2.99408 17.5
      vertex -0.188371 -2.99408 -17.5
      vertex 0.188371 -2.99408 -17.5
    endloop
  endfacet
  facet normal 0.684541 0.728974 -0
    outer loop
      vertex 2.18691 2.05364 -17.5
      vertex 1.91227 2.31154 17.5
      vertex 2.18691 2.05364 17.5
    endloop
  endfacet
  facet normal 0.684541 0.728974 0
    outer loop
      vertex 1.91227 2.31154 17.5
      vertex 2.18691 2.05364 -17.5
      vertex 1.91227 2.31154 -17.5
    endloop
  endfacet
  facet normal -0.684541 0.728974 0
    outer loop
      vertex -1.91227 2.31154 -17.5
      vertex -2.18691 2.05364 17.5
      vertex -1.91227 2.31154 17.5
    endloop
  endfacet
  facet normal -0.684541 0.728974 0
    outer loop
      vertex -2.18691 2.05364 17.5
      vertex -1.91227 2.31154 -17.5
      vertex -2.18691 2.05364 -17.5
    endloop
  endfacet
  facet normal -0.368126 0.929776 0
    outer loop
      vertex -0.927051 2.85317 -17.5
      vertex -1.27734 2.71448 17.5
      vertex -0.927051 2.85317 17.5
    endloop
  endfacet
  facet normal -0.368126 0.929776 0
    outer loop
      vertex -1.27734 2.71448 17.5
      vertex -0.927051 2.85317 -17.5
      vertex -1.27734 2.71448 -17.5
    endloop
  endfacet
  facet normal 0.904828 0.425778 0
    outer loop
      vertex 2.78933 1.10437 17.5
      vertex 2.62892 1.44526 -17.5
      vertex 2.62892 1.44526 17.5
    endloop
  endfacet
  facet normal 0.904828 0.425778 0
    outer loop
      vertex 2.62892 1.44526 -17.5
      vertex 2.78933 1.10437 17.5
      vertex 2.78933 1.10437 -17.5
    endloop
  endfacet
  facet normal 0.98229 0.187369 0
    outer loop
      vertex 2.97634 0.375999 17.5
      vertex 2.90575 0.746069 -17.5
      vertex 2.90575 0.746069 17.5
    endloop
  endfacet
  facet normal 0.98229 0.187369 0
    outer loop
      vertex 2.90575 0.746069 -17.5
      vertex 2.97634 0.375999 17.5
      vertex 2.97634 0.375999 -17.5
    endloop
  endfacet
  facet normal 0.368126 0.929776 -0
    outer loop
      vertex 1.27734 2.71448 -17.5
      vertex 0.927051 2.85317 17.5
      vertex 1.27734 2.71448 17.5
    endloop
  endfacet
  facet normal 0.368126 0.929776 0
    outer loop
      vertex 0.927051 2.85317 17.5
      vertex 1.27734 2.71448 -17.5
      vertex 0.927051 2.85317 -17.5
    endloop
  endfacet
  facet normal 0.248684 0.968585 -0
    outer loop
      vertex 0.927051 2.85317 -17.5
      vertex 0.562143 2.94686 17.5
      vertex 0.927051 2.85317 17.5
    endloop
  endfacet
  facet normal 0.248684 0.968585 0
    outer loop
      vertex 0.562143 2.94686 17.5
      vertex 0.927051 2.85317 -17.5
      vertex 0.562143 2.94686 -17.5
    endloop
  endfacet
  facet normal 0.58778 0.809021 -0
    outer loop
      vertex 1.91227 2.31154 -17.5
      vertex 1.60748 2.53298 17.5
      vertex 1.91227 2.31154 17.5
    endloop
  endfacet
  facet normal 0.58778 0.809021 0
    outer loop
      vertex 1.60748 2.53298 17.5
      vertex 1.91227 2.31154 -17.5
      vertex 1.60748 2.53298 -17.5
    endloop
  endfacet
  facet normal -0.904828 0.425778 0
    outer loop
      vertex -2.78933 1.10437 -17.5
      vertex -2.62892 1.44526 17.5
      vertex -2.62892 1.44526 -17.5
    endloop
  endfacet
  facet normal -0.904828 0.425778 0
    outer loop
      vertex -2.62892 1.44526 17.5
      vertex -2.78933 1.10437 -17.5
      vertex -2.78933 1.10437 17.5
    endloop
  endfacet
  facet normal -0.951056 0.309019 0
    outer loop
      vertex -2.90575 0.746069 -17.5
      vertex -2.78933 1.10437 17.5
      vertex -2.78933 1.10437 -17.5
    endloop
  endfacet
  facet normal -0.951056 0.309019 0
    outer loop
      vertex -2.78933 1.10437 17.5
      vertex -2.90575 0.746069 -17.5
      vertex -2.90575 0.746069 17.5
    endloop
  endfacet
  facet normal -0.248684 0.968585 0
    outer loop
      vertex -0.562143 2.94686 -17.5
      vertex -0.927051 2.85317 17.5
      vertex -0.562143 2.94686 17.5
    endloop
  endfacet
  facet normal -0.248684 0.968585 0
    outer loop
      vertex -0.927051 2.85317 17.5
      vertex -0.562143 2.94686 -17.5
      vertex -0.927051 2.85317 -17.5
    endloop
  endfacet
  facet normal 0.125337 -0.992114 0
    outer loop
      vertex 0.188371 -2.99408 -17.5
      vertex 0.562143 -2.94686 17.5
      vertex 0.188371 -2.99408 17.5
    endloop
  endfacet
  facet normal 0.125337 -0.992114 0
    outer loop
      vertex 0.562143 -2.94686 17.5
      vertex 0.188371 -2.99408 -17.5
      vertex 0.562143 -2.94686 -17.5
    endloop
  endfacet
  facet normal 0.368126 -0.929776 0
    outer loop
      vertex 0.927051 -2.85317 -17.5
      vertex 1.27734 -2.71448 17.5
      vertex 0.927051 -2.85317 17.5
    endloop
  endfacet
  facet normal 0.368126 -0.929776 0
    outer loop
      vertex 1.27734 -2.71448 17.5
      vertex 0.927051 -2.85317 -17.5
      vertex 1.27734 -2.71448 -17.5
    endloop
  endfacet
  facet normal 0.951056 0.309019 0
    outer loop
      vertex 2.90575 0.746069 17.5
      vertex 2.78933 1.10437 -17.5
      vertex 2.78933 1.10437 17.5
    endloop
  endfacet
  facet normal 0.951056 0.309019 0
    outer loop
      vertex 2.78933 1.10437 -17.5
      vertex 2.90575 0.746069 17.5
      vertex 2.90575 0.746069 -17.5
    endloop
  endfacet
  facet normal 0.770514 0.637423 0
    outer loop
      vertex 2.42705 1.76336 17.5
      vertex 2.18691 2.05364 -17.5
      vertex 2.18691 2.05364 17.5
    endloop
  endfacet
  facet normal 0.770514 0.637423 0
    outer loop
      vertex 2.18691 2.05364 -17.5
      vertex 2.42705 1.76336 17.5
      vertex 2.42705 1.76336 -17.5
    endloop
  endfacet
  facet normal 0.844331 0.535822 0
    outer loop
      vertex 2.62892 1.44526 17.5
      vertex 2.42705 1.76336 -17.5
      vertex 2.42705 1.76336 17.5
    endloop
  endfacet
  facet normal 0.844331 0.535822 0
    outer loop
      vertex 2.42705 1.76336 -17.5
      vertex 2.62892 1.44526 17.5
      vertex 2.62892 1.44526 -17.5
    endloop
  endfacet
  facet normal 0.125337 0.992114 -0
    outer loop
      vertex 0.562143 2.94686 -17.5
      vertex 0.188371 2.99408 17.5
      vertex 0.562143 2.94686 17.5
    endloop
  endfacet
  facet normal 0.125337 0.992114 0
    outer loop
      vertex 0.188371 2.99408 17.5
      vertex 0.562143 2.94686 -17.5
      vertex 0.188371 2.99408 -17.5
    endloop
  endfacet
  facet normal 0.481762 0.876302 -0
    outer loop
      vertex 1.60748 2.53298 -17.5
      vertex 1.27734 2.71448 17.5
      vertex 1.60748 2.53298 17.5
    endloop
  endfacet
  facet normal 0.481762 0.876302 0
    outer loop
      vertex 1.27734 2.71448 17.5
      vertex 1.60748 2.53298 -17.5
      vertex 1.27734 2.71448 -17.5
    endloop
  endfacet
  facet normal -0.844331 0.535822 0
    outer loop
      vertex -2.62892 1.44526 -17.5
      vertex -2.42705 1.76336 17.5
      vertex -2.42705 1.76336 -17.5
    endloop
  endfacet
  facet normal -0.844331 0.535822 0
    outer loop
      vertex -2.42705 1.76336 17.5
      vertex -2.62892 1.44526 -17.5
      vertex -2.62892 1.44526 17.5
    endloop
  endfacet
  facet normal -0.770514 0.637423 0
    outer loop
      vertex -2.42705 1.76336 -17.5
      vertex -2.18691 2.05364 17.5
      vertex -2.18691 2.05364 -17.5
    endloop
  endfacet
  facet normal -0.770514 0.637423 0
    outer loop
      vertex -2.18691 2.05364 17.5
      vertex -2.42705 1.76336 -17.5
      vertex -2.42705 1.76336 17.5
    endloop
  endfacet
  facet normal -0.98229 0.187369 0
    outer loop
      vertex -2.97634 0.375999 -17.5
      vertex -2.90575 0.746069 17.5
      vertex -2.90575 0.746069 -17.5
    endloop
  endfacet
  facet normal -0.98229 0.187369 0
    outer loop
      vertex -2.90575 0.746069 17.5
      vertex -2.97634 0.375999 -17.5
      vertex -2.97634 0.375999 17.5
    endloop
  endfacet
  facet normal 0 0 1
    outer loop
      vertex 2.75 0 17.5
      vertex 3 0 17.5
      vertex 2.97634 0.375999 17.5
    endloop
  endfacet
  facet normal 0 0 1
    outer loop
      vertex 2.72832 0.344666 17.5
      vertex 2.97634 0.375999 17.5
      vertex 2.90575 0.746069 17.5
    endloop
  endfacet
  facet normal 0 0 1
    outer loop
      vertex 3 0 17.5
      vertex 2.75 0 17.5
      vertex 2.97634 -0.375999 17.5
    endloop
  endfacet
  facet normal 0 0 1
    outer loop
      vertex 2.6636 0.683897 17.5
      vertex 2.90575 0.746069 17.5
      vertex 2.78933 1.10437 17.5
    endloop
  endfacet
  facet normal -0 0 1
    outer loop
      vertex 2.72832 -0.344666 17.5
      vertex 2.97634 -0.375999 17.5
      vertex 2.75 0 17.5
    endloop
  endfacet
  facet normal 0 0 1
    outer loop
      vertex 2.97634 -0.375999 17.5
      vertex 2.72832 -0.344666 17.5
      vertex 2.90575 -0.746069 17.5
    endloop
  endfacet
  facet normal 0 0 1
    outer loop
      vertex 2.97634 0.375999 17.5
      vertex 2.72832 0.344666 17.5
      vertex 2.75 0 17.5
    endloop
  endfacet
  facet normal 0 0 1
    outer loop
      vertex 2.90575 0.746069 17.5
      vertex 2.6636 0.683897 17.5
      vertex 2.72832 0.344666 17.5
    endloop
  endfacet
  facet normal 0 0 1
    outer loop
      vertex 2.55688 1.01234 17.5
      vertex 2.78933 1.10437 17.5
      vertex 2.62892 1.44526 17.5
    endloop
  endfacet
  facet normal 0 0 1
    outer loop
      vertex 2.78933 1.10437 17.5
      vertex 2.55688 1.01234 17.5
      vertex 2.6636 0.683897 17.5
    endloop
  endfacet
  facet normal 0 0 1
    outer loop
      vertex 2.40984 1.32482 17.5
      vertex 2.62892 1.44526 17.5
      vertex 2.42705 1.76336 17.5
    endloop
  endfacet
  facet normal 0 0 1
    outer loop
      vertex 2.62892 1.44526 17.5
      vertex 2.40984 1.32482 17.5
      vertex 2.55688 1.01234 17.5
    endloop
  endfacet
  facet normal 0 0 1
    outer loop
      vertex 2.42705 1.76336 17.5
      vertex 2.2248 1.61641 17.5
      vertex 2.40984 1.32482 17.5
    endloop
  endfacet
  facet normal 0 0 1
    outer loop
      vertex 2.18691 2.05364 17.5
      vertex 2.2248 1.61641 17.5
      vertex 2.42705 1.76336 17.5
    endloop
  endfacet
  facet normal 0 0 1
    outer loop
      vertex 2.18691 2.05364 17.5
      vertex 2.00466 1.8825 17.5
      vertex 2.2248 1.61641 17.5
    endloop
  endfacet
  facet normal 0 0 1
    outer loop
      vertex 1.91227 2.31154 17.5
      vertex 2.00466 1.8825 17.5
      vertex 2.18691 2.05364 17.5
    endloop
  endfacet
  facet normal 0 0 1
    outer loop
      vertex 1.91227 2.31154 17.5
      vertex 1.75292 2.11891 17.5
      vertex 2.00466 1.8825 17.5
    endloop
  endfacet
  facet normal 0 0 1
    outer loop
      vertex 1.60748 2.53298 17.5
      vertex 1.75292 2.11891 17.5
      vertex 1.91227 2.31154 17.5
    endloop
  endfacet
  facet normal 0 0 1
    outer loop
      vertex 1.60748 2.53298 17.5
      vertex 1.47352 2.3219 17.5
      vertex 1.75292 2.11891 17.5
    endloop
  endfacet
  facet normal 0 0 1
    outer loop
      vertex 1.27734 2.71448 17.5
      vertex 1.47352 2.3219 17.5
      vertex 1.60748 2.53298 17.5
    endloop
  endfacet
  facet normal 0 0 1
    outer loop
      vertex 1.27734 2.71448 17.5
      vertex 1.17089 2.48827 17.5
      vertex 1.47352 2.3219 17.5
    endloop
  endfacet
  facet normal 0 0 1
    outer loop
      vertex 0.927051 2.85317 17.5
      vertex 1.17089 2.48827 17.5
      vertex 1.27734 2.71448 17.5
    endloop
  endfacet
  facet normal 0 0 1
    outer loop
      vertex 0.927051 2.85317 17.5
      vertex 0.849796 2.61541 17.5
      vertex 1.17089 2.48827 17.5
    endloop
  endfacet
  facet normal 0 0 1
    outer loop
      vertex 0.562143 2.94686 17.5
      vertex 0.849796 2.61541 17.5
      vertex 0.927051 2.85317 17.5
    endloop
  endfacet
  facet normal 0 0 1
    outer loop
      vertex 0.562143 2.94686 17.5
      vertex 0.515298 2.70129 17.5
      vertex 0.849796 2.61541 17.5
    endloop
  endfacet
  facet normal 0 0 1
    outer loop
      vertex 0.188371 2.99408 17.5
      vertex 0.515298 2.70129 17.5
      vertex 0.562143 2.94686 17.5
    endloop
  endfacet
  facet normal 0 0 1
    outer loop
      vertex 0.188371 2.99408 17.5
      vertex 0.172673 2.74457 17.5
      vertex 0.515298 2.70129 17.5
    endloop
  endfacet
  facet normal 0 0 1
    outer loop
      vertex 0.188371 2.99408 17.5
      vertex -0.172673 2.74457 17.5
      vertex 0.172673 2.74457 17.5
    endloop
  endfacet
  facet normal -0 0 1
    outer loop
      vertex -0.188371 2.99408 17.5
      vertex -0.172673 2.74457 17.5
      vertex 0.188371 2.99408 17.5
    endloop
  endfacet
  facet normal 0 0 1
    outer loop
      vertex -0.188371 2.99408 17.5
      vertex -0.515298 2.70129 17.5
      vertex -0.172673 2.74457 17.5
    endloop
  endfacet
  facet normal -0 0 1
    outer loop
      vertex -0.562143 2.94686 17.5
      vertex -0.515298 2.70129 17.5
      vertex -0.188371 2.99408 17.5
    endloop
  endfacet
  facet normal 0 0 1
    outer loop
      vertex -0.562143 2.94686 17.5
      vertex -0.849796 2.61541 17.5
      vertex -0.515298 2.70129 17.5
    endloop
  endfacet
  facet normal -0 0 1
    outer loop
      vertex -0.927051 2.85317 17.5
      vertex -0.849796 2.61541 17.5
      vertex -0.562143 2.94686 17.5
    endloop
  endfacet
  facet normal 0 0 1
    outer loop
      vertex -0.927051 2.85317 17.5
      vertex -1.17089 2.48827 17.5
      vertex -0.849796 2.61541 17.5
    endloop
  endfacet
  facet normal -0 0 1
    outer loop
      vertex -1.27734 2.71448 17.5
      vertex -1.17089 2.48827 17.5
      vertex -0.927051 2.85317 17.5
    endloop
  endfacet
  facet normal 0 0 1
    outer loop
      vertex -1.27734 2.71448 17.5
      vertex -1.47352 2.3219 17.5
      vertex -1.17089 2.48827 17.5
    endloop
  endfacet
  facet normal -0 0 1
    outer loop
      vertex -1.60748 2.53298 17.5
      vertex -1.47352 2.3219 17.5
      vertex -1.27734 2.71448 17.5
    endloop
  endfacet
  facet normal 0 0 1
    outer loop
      vertex -1.60748 2.53298 17.5
      vertex -1.75292 2.11891 17.5
      vertex -1.47352 2.3219 17.5
    endloop
  endfacet
  facet normal -0 0 1
    outer loop
      vertex -1.91227 2.31154 17.5
      vertex -1.75292 2.11891 17.5
      vertex -1.60748 2.53298 17.5
    endloop
  endfacet
  facet normal 0 0 1
    outer loop
      vertex -1.91227 2.31154 17.5
      vertex -2.00466 1.8825 17.5
      vertex -1.75292 2.11891 17.5
    endloop
  endfacet
  facet normal -0 0 1
    outer loop
      vertex -2.18691 2.05364 17.5
      vertex -2.00466 1.8825 17.5
      vertex -1.91227 2.31154 17.5
    endloop
  endfacet
  facet normal 0 0 1
    outer loop
      vertex -2.18691 2.05364 17.5
      vertex -2.2248 1.61641 17.5
      vertex -2.00466 1.8825 17.5
    endloop
  endfacet
  facet normal -0 0 1
    outer loop
      vertex -2.42705 1.76336 17.5
      vertex -2.2248 1.61641 17.5
      vertex -2.18691 2.05364 17.5
    endloop
  endfacet
  facet normal 0 0 1
    outer loop
      vertex -2.2248 1.61641 17.5
      vertex -2.42705 1.76336 17.5
      vertex -2.40984 1.32482 17.5
    endloop
  endfacet
  facet normal -0 0 1
    outer loop
      vertex -2.62892 1.44526 17.5
      vertex -2.40984 1.32482 17.5
      vertex -2.42705 1.76336 17.5
    endloop
  endfacet
  facet normal 0 0 1
    outer loop
      vertex -2.40984 1.32482 17.5
      vertex -2.62892 1.44526 17.5
      vertex -2.55688 1.01234 17.5
    endloop
  endfacet
  facet normal -0 0 1
    outer loop
      vertex -2.78933 1.10437 17.5
      vertex -2.55688 1.01234 17.5
      vertex -2.62892 1.44526 17.5
    endloop
  endfacet
  facet normal 0 0 1
    outer loop
      vertex -2.55688 1.01234 17.5
      vertex -2.78933 1.10437 17.5
      vertex -2.6636 0.683897 17.5
    endloop
  endfacet
  facet normal 0 0 1
    outer loop
      vertex -2.6636 0.683897 17.5
      vertex -2.90575 0.746069 17.5
      vertex -2.72832 0.344666 17.5
    endloop
  endfacet
  facet normal -0 0 1
    outer loop
      vertex -2.90575 0.746069 17.5
      vertex -2.6636 0.683897 17.5
      vertex -2.78933 1.10437 17.5
    endloop
  endfacet
  facet normal -0 0 1
    outer loop
      vertex 2.6636 -0.683897 17.5
      vertex 2.90575 -0.746069 17.5
      vertex 2.72832 -0.344666 17.5
    endloop
  endfacet
  facet normal 0 0 1
    outer loop
      vertex 2.90575 -0.746069 17.5
      vertex 2.6636 -0.683897 17.5
      vertex 2.78933 -1.10437 17.5
    endloop
  endfacet
  facet normal -0 0 1
    outer loop
      vertex 2.55688 -1.01234 17.5
      vertex 2.78933 -1.10437 17.5
      vertex 2.6636 -0.683897 17.5
    endloop
  endfacet
  facet normal 0 0 1
    outer loop
      vertex 2.78933 -1.10437 17.5
      vertex 2.55688 -1.01234 17.5
      vertex 2.62892 -1.44526 17.5
    endloop
  endfacet
  facet normal -0 0 1
    outer loop
      vertex 2.40984 -1.32482 17.5
      vertex 2.62892 -1.44526 17.5
      vertex 2.55688 -1.01234 17.5
    endloop
  endfacet
  facet normal 0 0 1
    outer loop
      vertex 2.62892 -1.44526 17.5
      vertex 2.40984 -1.32482 17.5
      vertex 2.42705 -1.76336 17.5
    endloop
  endfacet
  facet normal -0 0 1
    outer loop
      vertex 2.2248 -1.61641 17.5
      vertex 2.42705 -1.76336 17.5
      vertex 2.40984 -1.32482 17.5
    endloop
  endfacet
  facet normal 0 0 1
    outer loop
      vertex 2.2248 -1.61641 17.5
      vertex 2.18691 -2.05364 17.5
      vertex 2.42705 -1.76336 17.5
    endloop
  endfacet
  facet normal -0 0 1
    outer loop
      vertex 2.00466 -1.8825 17.5
      vertex 2.18691 -2.05364 17.5
      vertex 2.2248 -1.61641 17.5
    endloop
  endfacet
  facet normal 0 0 1
    outer loop
      vertex 2.00466 -1.8825 17.5
      vertex 1.91227 -2.31154 17.5
      vertex 2.18691 -2.05364 17.5
    endloop
  endfacet
  facet normal -0 0 1
    outer loop
      vertex 1.75292 -2.11891 17.5
      vertex 1.91227 -2.31154 17.5
      vertex 2.00466 -1.8825 17.5
    endloop
  endfacet
  facet normal 0 0 1
    outer loop
      vertex 1.75292 -2.11891 17.5
      vertex 1.60748 -2.53298 17.5
      vertex 1.91227 -2.31154 17.5
    endloop
  endfacet
  facet normal -0 0 1
    outer loop
      vertex 1.47352 -2.3219 17.5
      vertex 1.60748 -2.53298 17.5
      vertex 1.75292 -2.11891 17.5
    endloop
  endfacet
  facet normal 0 0 1
    outer loop
      vertex 1.47352 -2.3219 17.5
      vertex 1.27734 -2.71448 17.5
      vertex 1.60748 -2.53298 17.5
    endloop
  endfacet
  facet normal -0 0 1
    outer loop
      vertex 1.17089 -2.48827 17.5
      vertex 1.27734 -2.71448 17.5
      vertex 1.47352 -2.3219 17.5
    endloop
  endfacet
  facet normal 0 0 1
    outer loop
      vertex 1.17089 -2.48827 17.5
      vertex 0.927051 -2.85317 17.5
      vertex 1.27734 -2.71448 17.5
    endloop
  endfacet
  facet normal -0 0 1
    outer loop
      vertex 0.849796 -2.61541 17.5
      vertex 0.927051 -2.85317 17.5
      vertex 1.17089 -2.48827 17.5
    endloop
  endfacet
  facet normal 0 0 1
    outer loop
      vertex 0.849796 -2.61541 17.5
      vertex 0.562143 -2.94686 17.5
      vertex 0.927051 -2.85317 17.5
    endloop
  endfacet
  facet normal -0 0 1
    outer loop
      vertex 0.515298 -2.70129 17.5
      vertex 0.562143 -2.94686 17.5
      vertex 0.849796 -2.61541 17.5
    endloop
  endfacet
  facet normal 0 0 1
    outer loop
      vertex 0.515298 -2.70129 17.5
      vertex 0.188371 -2.99408 17.5
      vertex 0.562143 -2.94686 17.5
    endloop
  endfacet
  facet normal -0 0 1
    outer loop
      vertex 0.172673 -2.74457 17.5
      vertex 0.188371 -2.99408 17.5
      vertex 0.515298 -2.70129 17.5
    endloop
  endfacet
  facet normal -0 0 1
    outer loop
      vertex -0.172673 -2.74457 17.5
      vertex 0.188371 -2.99408 17.5
      vertex 0.172673 -2.74457 17.5
    endloop
  endfacet
  facet normal 0 0 1
    outer loop
      vertex -0.172673 -2.74457 17.5
      vertex -0.188371 -2.99408 17.5
      vertex 0.188371 -2.99408 17.5
    endloop
  endfacet
  facet normal 0 0 1
    outer loop
      vertex -0.515298 -2.70129 17.5
      vertex -0.188371 -2.99408 17.5
      vertex -0.172673 -2.74457 17.5
    endloop
  endfacet
  facet normal 0 0 1
    outer loop
      vertex -0.515298 -2.70129 17.5
      vertex -0.562143 -2.94686 17.5
      vertex -0.188371 -2.99408 17.5
    endloop
  endfacet
  facet normal 0 0 1
    outer loop
      vertex -0.849796 -2.61541 17.5
      vertex -0.562143 -2.94686 17.5
      vertex -0.515298 -2.70129 17.5
    endloop
  endfacet
  facet normal 0 0 1
    outer loop
      vertex -0.849796 -2.61541 17.5
      vertex -0.927051 -2.85317 17.5
      vertex -0.562143 -2.94686 17.5
    endloop
  endfacet
  facet normal 0 0 1
    outer loop
      vertex -1.17089 -2.48827 17.5
      vertex -0.927051 -2.85317 17.5
      vertex -0.849796 -2.61541 17.5
    endloop
  endfacet
  facet normal 0 0 1
    outer loop
      vertex -1.17089 -2.48827 17.5
      vertex -1.27734 -2.71448 17.5
      vertex -0.927051 -2.85317 17.5
    endloop
  endfacet
  facet normal 0 0 1
    outer loop
      vertex -1.47352 -2.3219 17.5
      vertex -1.27734 -2.71448 17.5
      vertex -1.17089 -2.48827 17.5
    endloop
  endfacet
  facet normal 0 0 1
    outer loop
      vertex -1.47352 -2.3219 17.5
      vertex -1.60748 -2.53298 17.5
      vertex -1.27734 -2.71448 17.5
    endloop
  endfacet
  facet normal 0 0 1
    outer loop
      vertex -1.75292 -2.11891 17.5
      vertex -1.60748 -2.53298 17.5
      vertex -1.47352 -2.3219 17.5
    endloop
  endfacet
  facet normal 0 0 1
    outer loop
      vertex -1.75292 -2.11891 17.5
      vertex -1.91227 -2.31154 17.5
      vertex -1.60748 -2.53298 17.5
    endloop
  endfacet
  facet normal 0 0 1
    outer loop
      vertex -2.00466 -1.8825 17.5
      vertex -1.91227 -2.31154 17.5
      vertex -1.75292 -2.11891 17.5
    endloop
  endfacet
  facet normal 0 0 1
    outer loop
      vertex -2.00466 -1.8825 17.5
      vertex -2.18691 -2.05364 17.5
      vertex -1.91227 -2.31154 17.5
    endloop
  endfacet
  facet normal 0 0 1
    outer loop
      vertex -2.2248 -1.61641 17.5
      vertex -2.18691 -2.05364 17.5
      vertex -2.00466 -1.8825 17.5
    endloop
  endfacet
  facet normal 0 0 1
    outer loop
      vertex -2.42705 -1.76336 17.5
      vertex -2.2248 -1.61641 17.5
      vertex -2.40984 -1.32482 17.5
    endloop
  endfacet
  facet normal 0 0 1
    outer loop
      vertex -2.2248 -1.61641 17.5
      vertex -2.42705 -1.76336 17.5
      vertex -2.18691 -2.05364 17.5
    endloop
  endfacet
  facet normal 0 0 1
    outer loop
      vertex -2.62892 -1.44526 17.5
      vertex -2.40984 -1.32482 17.5
      vertex -2.55688 -1.01234 17.5
    endloop
  endfacet
  facet normal 0 0 1
    outer loop
      vertex -2.40984 -1.32482 17.5
      vertex -2.62892 -1.44526 17.5
      vertex -2.42705 -1.76336 17.5
    endloop
  endfacet
  facet normal 0 0 1
    outer loop
      vertex -2.78933 -1.10437 17.5
      vertex -2.55688 -1.01234 17.5
      vertex -2.6636 -0.683897 17.5
    endloop
  endfacet
  facet normal 0 0 1
    outer loop
      vertex -2.90575 -0.746069 17.5
      vertex -2.6636 -0.683897 17.5
      vertex -2.72832 -0.344666 17.5
    endloop
  endfacet
  facet normal 0 0 1
    outer loop
      vertex -2.55688 -1.01234 17.5
      vertex -2.78933 -1.10437 17.5
      vertex -2.62892 -1.44526 17.5
    endloop
  endfacet
  facet normal 0 0 1
    outer loop
      vertex -2.97634 -0.375999 17.5
      vertex -2.72832 -0.344666 17.5
      vertex -2.75 0 17.5
    endloop
  endfacet
  facet normal -0 0 1
    outer loop
      vertex -2.97634 0.375999 17.5
      vertex -2.72832 0.344666 17.5
      vertex -2.90575 0.746069 17.5
    endloop
  endfacet
  facet normal 0 0 1
    outer loop
      vertex -2.72832 0.344666 17.5
      vertex -2.97634 0.375999 17.5
      vertex -2.75 0 17.5
    endloop
  endfacet
  facet normal 0 0 1
    outer loop
      vertex -2.6636 -0.683897 17.5
      vertex -2.90575 -0.746069 17.5
      vertex -2.78933 -1.10437 17.5
    endloop
  endfacet
  facet normal 0 0 1
    outer loop
      vertex -3 0 17.5
      vertex -2.75 0 17.5
      vertex -2.97634 0.375999 17.5
    endloop
  endfacet
  facet normal 0 0 1
    outer loop
      vertex -2.72832 -0.344666 17.5
      vertex -2.97634 -0.375999 17.5
      vertex -2.90575 -0.746069 17.5
    endloop
  endfacet
  facet normal 0 0 1
    outer loop
      vertex -2.75 0 17.5
      vertex -3 0 17.5
      vertex -2.97634 -0.375999 17.5
    endloop
  endfacet
  facet normal -0.481762 0.876302 0
    outer loop
      vertex -1.27734 2.71448 -17.5
      vertex -1.60748 2.53298 17.5
      vertex -1.27734 2.71448 17.5
    endloop
  endfacet
  facet normal -0.481762 0.876302 0
    outer loop
      vertex -1.60748 2.53298 17.5
      vertex -1.27734 2.71448 -17.5
      vertex -1.60748 2.53298 -17.5
    endloop
  endfacet
  facet normal -0.58778 0.809021 0
    outer loop
      vertex -1.60748 2.53298 -17.5
      vertex -1.91227 2.31154 17.5
      vertex -1.60748 2.53298 17.5
    endloop
  endfacet
  facet normal -0.58778 0.809021 0
    outer loop
      vertex -1.91227 2.31154 17.5
      vertex -1.60748 2.53298 -17.5
      vertex -1.91227 2.31154 -17.5
    endloop
  endfacet
  facet normal -0.125337 0.992114 0
    outer loop
      vertex -0.188371 2.99408 -17.5
      vertex -0.562143 2.94686 17.5
      vertex -0.188371 2.99408 17.5
    endloop
  endfacet
  facet normal -0.125337 0.992114 0
    outer loop
      vertex -0.562143 2.94686 17.5
      vertex -0.188371 2.99408 -17.5
      vertex -0.562143 2.94686 -17.5
    endloop
  endfacet
  facet normal 0.998026 -0.0628015 0
    outer loop
      vertex 2.97634 -0.375999 17.5
      vertex 3 0 -17.5
      vertex 3 0 17.5
    endloop
  endfacet
  facet normal 0.998026 -0.0628015 0
    outer loop
      vertex 3 0 -17.5
      vertex 2.97634 -0.375999 17.5
      vertex 2.97634 -0.375999 -17.5
    endloop
  endfacet
  facet normal 0.481762 -0.876302 0
    outer loop
      vertex 1.27734 -2.71448 -17.5
      vertex 1.60748 -2.53298 17.5
      vertex 1.27734 -2.71448 17.5
    endloop
  endfacet
  facet normal 0.481762 -0.876302 0
    outer loop
      vertex 1.60748 -2.53298 17.5
      vertex 1.27734 -2.71448 -17.5
      vertex 1.60748 -2.53298 -17.5
    endloop
  endfacet
  facet normal 0.684541 -0.728974 0
    outer loop
      vertex 1.91227 -2.31154 -17.5
      vertex 2.18691 -2.05364 17.5
      vertex 1.91227 -2.31154 17.5
    endloop
  endfacet
  facet normal 0.684541 -0.728974 0
    outer loop
      vertex 2.18691 -2.05364 17.5
      vertex 1.91227 -2.31154 -17.5
      vertex 2.18691 -2.05364 -17.5
    endloop
  endfacet
  facet normal 0.98229 -0.187369 0
    outer loop
      vertex 2.90575 -0.746069 17.5
      vertex 2.97634 -0.375999 -17.5
      vertex 2.97634 -0.375999 17.5
    endloop
  endfacet
  facet normal 0.98229 -0.187369 0
    outer loop
      vertex 2.97634 -0.375999 -17.5
      vertex 2.90575 -0.746069 17.5
      vertex 2.90575 -0.746069 -17.5
    endloop
  endfacet
  facet normal 0 0 -1
    outer loop
      vertex 2.75 0 -17.5
      vertex 3 0 -17.5
      vertex 2.97634 -0.375999 -17.5
    endloop
  endfacet
  facet normal 0 0 -1
    outer loop
      vertex 2.72832 -0.344666 -17.5
      vertex 2.97634 -0.375999 -17.5
      vertex 2.90575 -0.746069 -17.5
    endloop
  endfacet
  facet normal 0 0 -1
    outer loop
      vertex 3 0 -17.5
      vertex 2.75 0 -17.5
      vertex 2.97634 0.375999 -17.5
    endloop
  endfacet
  facet normal 0 0 -1
    outer loop
      vertex 2.6636 -0.683897 -17.5
      vertex 2.90575 -0.746069 -17.5
      vertex 2.78933 -1.10437 -17.5
    endloop
  endfacet
  facet normal 0 0 -1
    outer loop
      vertex 2.72832 0.344666 -17.5
      vertex 2.97634 0.375999 -17.5
      vertex 2.75 0 -17.5
    endloop
  endfacet
  facet normal -0 0 -1
    outer loop
      vertex 2.97634 0.375999 -17.5
      vertex 2.72832 0.344666 -17.5
      vertex 2.90575 0.746069 -17.5
    endloop
  endfacet
  facet normal 0 0 -1
    outer loop
      vertex 2.97634 -0.375999 -17.5
      vertex 2.72832 -0.344666 -17.5
      vertex 2.75 0 -17.5
    endloop
  endfacet
  facet normal 0 0 -1
    outer loop
      vertex 2.90575 -0.746069 -17.5
      vertex 2.6636 -0.683897 -17.5
      vertex 2.72832 -0.344666 -17.5
    endloop
  endfacet
  facet normal 0 0 -1
    outer loop
      vertex 2.55688 -1.01234 -17.5
      vertex 2.78933 -1.10437 -17.5
      vertex 2.62892 -1.44526 -17.5
    endloop
  endfacet
  facet normal 0 0 -1
    outer loop
      vertex 2.78933 -1.10437 -17.5
      vertex 2.55688 -1.01234 -17.5
      vertex 2.6636 -0.683897 -17.5
    endloop
  endfacet
  facet normal 0 0 -1
    outer loop
      vertex 2.40984 -1.32482 -17.5
      vertex 2.62892 -1.44526 -17.5
      vertex 2.42705 -1.76336 -17.5
    endloop
  endfacet
  facet normal 0 0 -1
    outer loop
      vertex 2.62892 -1.44526 -17.5
      vertex 2.40984 -1.32482 -17.5
      vertex 2.55688 -1.01234 -17.5
    endloop
  endfacet
  facet normal 0 0 -1
    outer loop
      vertex 2.42705 -1.76336 -17.5
      vertex 2.2248 -1.61641 -17.5
      vertex 2.40984 -1.32482 -17.5
    endloop
  endfacet
  facet normal 0 0 -1
    outer loop
      vertex 2.18691 -2.05364 -17.5
      vertex 2.2248 -1.61641 -17.5
      vertex 2.42705 -1.76336 -17.5
    endloop
  endfacet
  facet normal 0 0 -1
    outer loop
      vertex 2.18691 -2.05364 -17.5
      vertex 2.00466 -1.8825 -17.5
      vertex 2.2248 -1.61641 -17.5
    endloop
  endfacet
  facet normal 0 0 -1
    outer loop
      vertex 1.91227 -2.31154 -17.5
      vertex 2.00466 -1.8825 -17.5
      vertex 2.18691 -2.05364 -17.5
    endloop
  endfacet
  facet normal 0 0 -1
    outer loop
      vertex 1.91227 -2.31154 -17.5
      vertex 1.75292 -2.11891 -17.5
      vertex 2.00466 -1.8825 -17.5
    endloop
  endfacet
  facet normal 0 0 -1
    outer loop
      vertex 1.60748 -2.53298 -17.5
      vertex 1.75292 -2.11891 -17.5
      vertex 1.91227 -2.31154 -17.5
    endloop
  endfacet
  facet normal 0 0 -1
    outer loop
      vertex 1.60748 -2.53298 -17.5
      vertex 1.47352 -2.3219 -17.5
      vertex 1.75292 -2.11891 -17.5
    endloop
  endfacet
  facet normal 0 0 -1
    outer loop
      vertex 1.27734 -2.71448 -17.5
      vertex 1.47352 -2.3219 -17.5
      vertex 1.60748 -2.53298 -17.5
    endloop
  endfacet
  facet normal 0 0 -1
    outer loop
      vertex 1.27734 -2.71448 -17.5
      vertex 1.17089 -2.48827 -17.5
      vertex 1.47352 -2.3219 -17.5
    endloop
  endfacet
  facet normal 0 0 -1
    outer loop
      vertex 0.927051 -2.85317 -17.5
      vertex 1.17089 -2.48827 -17.5
      vertex 1.27734 -2.71448 -17.5
    endloop
  endfacet
  facet normal 0 0 -1
    outer loop
      vertex 0.927051 -2.85317 -17.5
      vertex 0.849796 -2.61541 -17.5
      vertex 1.17089 -2.48827 -17.5
    endloop
  endfacet
  facet normal 0 0 -1
    outer loop
      vertex 0.562143 -2.94686 -17.5
      vertex 0.849796 -2.61541 -17.5
      vertex 0.927051 -2.85317 -17.5
    endloop
  endfacet
  facet normal 0 0 -1
    outer loop
      vertex 0.562143 -2.94686 -17.5
      vertex 0.515298 -2.70129 -17.5
      vertex 0.849796 -2.61541 -17.5
    endloop
  endfacet
  facet normal 0 0 -1
    outer loop
      vertex 0.188371 -2.99408 -17.5
      vertex 0.515298 -2.70129 -17.5
      vertex 0.562143 -2.94686 -17.5
    endloop
  endfacet
  facet normal 0 0 -1
    outer loop
      vertex 0.188371 -2.99408 -17.5
      vertex 0.172673 -2.74457 -17.5
      vertex 0.515298 -2.70129 -17.5
    endloop
  endfacet
  facet normal 0 0 -1
    outer loop
      vertex 0.188371 -2.99408 -17.5
      vertex -0.172673 -2.74457 -17.5
      vertex 0.172673 -2.74457 -17.5
    endloop
  endfacet
  facet normal 0 0 -1
    outer loop
      vertex -0.188371 -2.99408 -17.5
      vertex -0.172673 -2.74457 -17.5
      vertex 0.188371 -2.99408 -17.5
    endloop
  endfacet
  facet normal 0 0 -1
    outer loop
      vertex -0.188371 -2.99408 -17.5
      vertex -0.515298 -2.70129 -17.5
      vertex -0.172673 -2.74457 -17.5
    endloop
  endfacet
  facet normal 0 0 -1
    outer loop
      vertex -0.562143 -2.94686 -17.5
      vertex -0.515298 -2.70129 -17.5
      vertex -0.188371 -2.99408 -17.5
    endloop
  endfacet
  facet normal 0 0 -1
    outer loop
      vertex -0.562143 -2.94686 -17.5
      vertex -0.849796 -2.61541 -17.5
      vertex -0.515298 -2.70129 -17.5
    endloop
  endfacet
  facet normal 0 0 -1
    outer loop
      vertex -0.927051 -2.85317 -17.5
      vertex -0.849796 -2.61541 -17.5
      vertex -0.562143 -2.94686 -17.5
    endloop
  endfacet
  facet normal 0 0 -1
    outer loop
      vertex -0.927051 -2.85317 -17.5
      vertex -1.17089 -2.48827 -17.5
      vertex -0.849796 -2.61541 -17.5
    endloop
  endfacet
  facet normal 0 0 -1
    outer loop
      vertex -1.27734 -2.71448 -17.5
      vertex -1.17089 -2.48827 -17.5
      vertex -0.927051 -2.85317 -17.5
    endloop
  endfacet
  facet normal 0 0 -1
    outer loop
      vertex -1.27734 -2.71448 -17.5
      vertex -1.47352 -2.3219 -17.5
      vertex -1.17089 -2.48827 -17.5
    endloop
  endfacet
  facet normal 0 0 -1
    outer loop
      vertex -1.60748 -2.53298 -17.5
      vertex -1.47352 -2.3219 -17.5
      vertex -1.27734 -2.71448 -17.5
    endloop
  endfacet
  facet normal 0 0 -1
    outer loop
      vertex -1.60748 -2.53298 -17.5
      vertex -1.75292 -2.11891 -17.5
      vertex -1.47352 -2.3219 -17.5
    endloop
  endfacet
  facet normal 0 0 -1
    outer loop
      vertex -1.91227 -2.31154 -17.5
      vertex -1.75292 -2.11891 -17.5
      vertex -1.60748 -2.53298 -17.5
    endloop
  endfacet
  facet normal 0 0 -1
    outer loop
      vertex -1.91227 -2.31154 -17.5
      vertex -2.00466 -1.8825 -17.5
      vertex -1.75292 -2.11891 -17.5
    endloop
  endfacet
  facet normal 0 0 -1
    outer loop
      vertex -2.18691 -2.05364 -17.5
      vertex -2.00466 -1.8825 -17.5
      vertex -1.91227 -2.31154 -17.5
    endloop
  endfacet
  facet normal 0 0 -1
    outer loop
      vertex -2.18691 -2.05364 -17.5
      vertex -2.2248 -1.61641 -17.5
      vertex -2.00466 -1.8825 -17.5
    endloop
  endfacet
  facet normal 0 0 -1
    outer loop
      vertex -2.42705 -1.76336 -17.5
      vertex -2.2248 -1.61641 -17.5
      vertex -2.18691 -2.05364 -17.5
    endloop
  endfacet
  facet normal -0 0 -1
    outer loop
      vertex -2.2248 -1.61641 -17.5
      vertex -2.42705 -1.76336 -17.5
      vertex -2.40984 -1.32482 -17.5
    endloop
  endfacet
  facet normal 0 0 -1
    outer loop
      vertex -2.62892 -1.44526 -17.5
      vertex -2.40984 -1.32482 -17.5
      vertex -2.42705 -1.76336 -17.5
    endloop
  endfacet
  facet normal -0 0 -1
    outer loop
      vertex -2.40984 -1.32482 -17.5
      vertex -2.62892 -1.44526 -17.5
      vertex -2.55688 -1.01234 -17.5
    endloop
  endfacet
  facet normal 0 0 -1
    outer loop
      vertex -2.78933 -1.10437 -17.5
      vertex -2.55688 -1.01234 -17.5
      vertex -2.62892 -1.44526 -17.5
    endloop
  endfacet
  facet normal -0 0 -1
    outer loop
      vertex -2.55688 -1.01234 -17.5
      vertex -2.78933 -1.10437 -17.5
      vertex -2.6636 -0.683897 -17.5
    endloop
  endfacet
  facet normal -0 0 -1
    outer loop
      vertex -2.6636 -0.683897 -17.5
      vertex -2.90575 -0.746069 -17.5
      vertex -2.72832 -0.344666 -17.5
    endloop
  endfacet
  facet normal 0 0 -1
    outer loop
      vertex -2.90575 -0.746069 -17.5
      vertex -2.6636 -0.683897 -17.5
      vertex -2.78933 -1.10437 -17.5
    endloop
  endfacet
  facet normal 0 0 -1
    outer loop
      vertex 2.6636 0.683897 -17.5
      vertex 2.90575 0.746069 -17.5
      vertex 2.72832 0.344666 -17.5
    endloop
  endfacet
  facet normal -0 0 -1
    outer loop
      vertex 2.90575 0.746069 -17.5
      vertex 2.6636 0.683897 -17.5
      vertex 2.78933 1.10437 -17.5
    endloop
  endfacet
  facet normal 0 0 -1
    outer loop
      vertex 2.55688 1.01234 -17.5
      vertex 2.78933 1.10437 -17.5
      vertex 2.6636 0.683897 -17.5
    endloop
  endfacet
  facet normal -0 0 -1
    outer loop
      vertex 2.78933 1.10437 -17.5
      vertex 2.55688 1.01234 -17.5
      vertex 2.62892 1.44526 -17.5
    endloop
  endfacet
  facet normal 0 0 -1
    outer loop
      vertex 2.40984 1.32482 -17.5
      vertex 2.62892 1.44526 -17.5
      vertex 2.55688 1.01234 -17.5
    endloop
  endfacet
  facet normal -0 0 -1
    outer loop
      vertex 2.62892 1.44526 -17.5
      vertex 2.40984 1.32482 -17.5
      vertex 2.42705 1.76336 -17.5
    endloop
  endfacet
  facet normal 0 0 -1
    outer loop
      vertex 2.2248 1.61641 -17.5
      vertex 2.42705 1.76336 -17.5
      vertex 2.40984 1.32482 -17.5
    endloop
  endfacet
  facet normal 0 0 -1
    outer loop
      vertex 2.2248 1.61641 -17.5
      vertex 2.18691 2.05364 -17.5
      vertex 2.42705 1.76336 -17.5
    endloop
  endfacet
  facet normal 0 0 -1
    outer loop
      vertex 2.00466 1.8825 -17.5
      vertex 2.18691 2.05364 -17.5
      vertex 2.2248 1.61641 -17.5
    endloop
  endfacet
  facet normal 0 0 -1
    outer loop
      vertex 2.00466 1.8825 -17.5
      vertex 1.91227 2.31154 -17.5
      vertex 2.18691 2.05364 -17.5
    endloop
  endfacet
  facet normal 0 0 -1
    outer loop
      vertex 1.75292 2.11891 -17.5
      vertex 1.91227 2.31154 -17.5
      vertex 2.00466 1.8825 -17.5
    endloop
  endfacet
  facet normal 0 0 -1
    outer loop
      vertex 1.75292 2.11891 -17.5
      vertex 1.60748 2.53298 -17.5
      vertex 1.91227 2.31154 -17.5
    endloop
  endfacet
  facet normal 0 0 -1
    outer loop
      vertex 1.47352 2.3219 -17.5
      vertex 1.60748 2.53298 -17.5
      vertex 1.75292 2.11891 -17.5
    endloop
  endfacet
  facet normal 0 0 -1
    outer loop
      vertex 1.47352 2.3219 -17.5
      vertex 1.27734 2.71448 -17.5
      vertex 1.60748 2.53298 -17.5
    endloop
  endfacet
  facet normal 0 0 -1
    outer loop
      vertex 1.17089 2.48827 -17.5
      vertex 1.27734 2.71448 -17.5
      vertex 1.47352 2.3219 -17.5
    endloop
  endfacet
  facet normal 0 0 -1
    outer loop
      vertex 1.17089 2.48827 -17.5
      vertex 0.927051 2.85317 -17.5
      vertex 1.27734 2.71448 -17.5
    endloop
  endfacet
  facet normal 0 0 -1
    outer loop
      vertex 0.849796 2.61541 -17.5
      vertex 0.927051 2.85317 -17.5
      vertex 1.17089 2.48827 -17.5
    endloop
  endfacet
  facet normal 0 0 -1
    outer loop
      vertex 0.849796 2.61541 -17.5
      vertex 0.562143 2.94686 -17.5
      vertex 0.927051 2.85317 -17.5
    endloop
  endfacet
  facet normal 0 0 -1
    outer loop
      vertex 0.515298 2.70129 -17.5
      vertex 0.562143 2.94686 -17.5
      vertex 0.849796 2.61541 -17.5
    endloop
  endfacet
  facet normal 0 0 -1
    outer loop
      vertex 0.515298 2.70129 -17.5
      vertex 0.188371 2.99408 -17.5
      vertex 0.562143 2.94686 -17.5
    endloop
  endfacet
  facet normal 0 0 -1
    outer loop
      vertex 0.172673 2.74457 -17.5
      vertex 0.188371 2.99408 -17.5
      vertex 0.515298 2.70129 -17.5
    endloop
  endfacet
  facet normal 0 0 -1
    outer loop
      vertex -0.172673 2.74457 -17.5
      vertex 0.188371 2.99408 -17.5
      vertex 0.172673 2.74457 -17.5
    endloop
  endfacet
  facet normal 0 0 -1
    outer loop
      vertex -0.172673 2.74457 -17.5
      vertex -0.188371 2.99408 -17.5
      vertex 0.188371 2.99408 -17.5
    endloop
  endfacet
  facet normal 0 0 -1
    outer loop
      vertex -0.515298 2.70129 -17.5
      vertex -0.188371 2.99408 -17.5
      vertex -0.172673 2.74457 -17.5
    endloop
  endfacet
  facet normal 0 0 -1
    outer loop
      vertex -0.515298 2.70129 -17.5
      vertex -0.562143 2.94686 -17.5
      vertex -0.188371 2.99408 -17.5
    endloop
  endfacet
  facet normal 0 0 -1
    outer loop
      vertex -0.849796 2.61541 -17.5
      vertex -0.562143 2.94686 -17.5
      vertex -0.515298 2.70129 -17.5
    endloop
  endfacet
  facet normal 0 0 -1
    outer loop
      vertex -0.849796 2.61541 -17.5
      vertex -0.927051 2.85317 -17.5
      vertex -0.562143 2.94686 -17.5
    endloop
  endfacet
  facet normal 0 0 -1
    outer loop
      vertex -1.17089 2.48827 -17.5
      vertex -0.927051 2.85317 -17.5
      vertex -0.849796 2.61541 -17.5
    endloop
  endfacet
  facet normal 0 0 -1
    outer loop
      vertex -1.17089 2.48827 -17.5
      vertex -1.27734 2.71448 -17.5
      vertex -0.927051 2.85317 -17.5
    endloop
  endfacet
  facet normal 0 0 -1
    outer loop
      vertex -1.47352 2.3219 -17.5
      vertex -1.27734 2.71448 -17.5
      vertex -1.17089 2.48827 -17.5
    endloop
  endfacet
  facet normal 0 0 -1
    outer loop
      vertex -1.47352 2.3219 -17.5
      vertex -1.60748 2.53298 -17.5
      vertex -1.27734 2.71448 -17.5
    endloop
  endfacet
  facet normal 0 0 -1
    outer loop
      vertex -1.75292 2.11891 -17.5
      vertex -1.60748 2.53298 -17.5
      vertex -1.47352 2.3219 -17.5
    endloop
  endfacet
  facet normal 0 0 -1
    outer loop
      vertex -1.75292 2.11891 -17.5
      vertex -1.91227 2.31154 -17.5
      vertex -1.60748 2.53298 -17.5
    endloop
  endfacet
  facet normal 0 0 -1
    outer loop
      vertex -2.00466 1.8825 -17.5
      vertex -1.91227 2.31154 -17.5
      vertex -1.75292 2.11891 -17.5
    endloop
  endfacet
  facet normal 0 0 -1
    outer loop
      vertex -2.00466 1.8825 -17.5
      vertex -2.18691 2.05364 -17.5
      vertex -1.91227 2.31154 -17.5
    endloop
  endfacet
  facet normal 0 0 -1
    outer loop
      vertex -2.2248 1.61641 -17.5
      vertex -2.18691 2.05364 -17.5
      vertex -2.00466 1.8825 -17.5
    endloop
  endfacet
  facet normal 0 0 -1
    outer loop
      vertex -2.42705 1.76336 -17.5
      vertex -2.2248 1.61641 -17.5
      vertex -2.40984 1.32482 -17.5
    endloop
  endfacet
  facet normal 0 0 -1
    outer loop
      vertex -2.2248 1.61641 -17.5
      vertex -2.42705 1.76336 -17.5
      vertex -2.18691 2.05364 -17.5
    endloop
  endfacet
  facet normal 0 0 -1
    outer loop
      vertex -2.62892 1.44526 -17.5
      vertex -2.40984 1.32482 -17.5
      vertex -2.55688 1.01234 -17.5
    endloop
  endfacet
  facet normal 0 0 -1
    outer loop
      vertex -2.40984 1.32482 -17.5
      vertex -2.62892 1.44526 -17.5
      vertex -2.42705 1.76336 -17.5
    endloop
  endfacet
  facet normal 0 0 -1
    outer loop
      vertex -2.78933 1.10437 -17.5
      vertex -2.55688 1.01234 -17.5
      vertex -2.6636 0.683897 -17.5
    endloop
  endfacet
  facet normal 0 0 -1
    outer loop
      vertex -2.90575 0.746069 -17.5
      vertex -2.6636 0.683897 -17.5
      vertex -2.72832 0.344666 -17.5
    endloop
  endfacet
  facet normal 0 0 -1
    outer loop
      vertex -2.55688 1.01234 -17.5
      vertex -2.78933 1.10437 -17.5
      vertex -2.62892 1.44526 -17.5
    endloop
  endfacet
  facet normal 0 0 -1
    outer loop
      vertex -2.97634 0.375999 -17.5
      vertex -2.72832 0.344666 -17.5
      vertex -2.75 0 -17.5
    endloop
  endfacet
  facet normal 0 0 -1
    outer loop
      vertex -2.97634 -0.375999 -17.5
      vertex -2.72832 -0.344666 -17.5
      vertex -2.90575 -0.746069 -17.5
    endloop
  endfacet
  facet normal -0 0 -1
    outer loop
      vertex -2.72832 -0.344666 -17.5
      vertex -2.97634 -0.375999 -17.5
      vertex -2.75 0 -17.5
    endloop
  endfacet
  facet normal 0 0 -1
    outer loop
      vertex -2.6636 0.683897 -17.5
      vertex -2.90575 0.746069 -17.5
      vertex -2.78933 1.10437 -17.5
    endloop
  endfacet
  facet normal 0 0 -1
    outer loop
      vertex -3 0 -17.5
      vertex -2.75 0 -17.5
      vertex -2.97634 -0.375999 -17.5
    endloop
  endfacet
  facet normal 0 0 -1
    outer loop
      vertex -2.72832 0.344666 -17.5
      vertex -2.97634 0.375999 -17.5
      vertex -2.90575 0.746069 -17.5
    endloop
  endfacet
  facet normal 0 0 -1
    outer loop
      vertex -2.75 0 -17.5
      vertex -3 0 -17.5
      vertex -2.97634 0.375999 -17.5
    endloop
  endfacet
  facet normal 0.904828 -0.425778 0
    outer loop
      vertex 2.62892 -1.44526 17.5
      vertex 2.78933 -1.10437 -17.5
      vertex 2.78933 -1.10437 17.5
    endloop
  endfacet
  facet normal 0.904828 -0.425778 0
    outer loop
      vertex 2.78933 -1.10437 -17.5
      vertex 2.62892 -1.44526 17.5
      vertex 2.62892 -1.44526 -17.5
    endloop
  endfacet
  facet normal 0.770514 -0.637423 0
    outer loop
      vertex 2.18691 -2.05364 17.5
      vertex 2.42705 -1.76336 -17.5
      vertex 2.42705 -1.76336 17.5
    endloop
  endfacet
  facet normal 0.770514 -0.637423 0
    outer loop
      vertex 2.42705 -1.76336 -17.5
      vertex 2.18691 -2.05364 17.5
      vertex 2.18691 -2.05364 -17.5
    endloop
  endfacet
  facet normal -0.248684 -0.968585 0
    outer loop
      vertex -0.927051 -2.85317 -17.5
      vertex -0.562143 -2.94686 17.5
      vertex -0.927051 -2.85317 17.5
    endloop
  endfacet
  facet normal -0.248684 -0.968585 -0
    outer loop
      vertex -0.562143 -2.94686 17.5
      vertex -0.927051 -2.85317 -17.5
      vertex -0.562143 -2.94686 -17.5
    endloop
  endfacet
  facet normal -0.684541 -0.728974 0
    outer loop
      vertex -2.18691 -2.05364 -17.5
      vertex -1.91227 -2.31154 17.5
      vertex -2.18691 -2.05364 17.5
    endloop
  endfacet
  facet normal -0.684541 -0.728974 -0
    outer loop
      vertex -1.91227 -2.31154 17.5
      vertex -2.18691 -2.05364 -17.5
      vertex -1.91227 -2.31154 -17.5
    endloop
  endfacet
  facet normal -0.844331 -0.535822 0
    outer loop
      vertex -2.42705 -1.76336 -17.5
      vertex -2.62892 -1.44526 17.5
      vertex -2.62892 -1.44526 -17.5
    endloop
  endfacet
  facet normal -0.844331 -0.535822 0
    outer loop
      vertex -2.62892 -1.44526 17.5
      vertex -2.42705 -1.76336 -17.5
      vertex -2.42705 -1.76336 17.5
    endloop
  endfacet
  facet normal -0.951056 -0.309019 0
    outer loop
      vertex -2.78933 -1.10437 -17.5
      vertex -2.90575 -0.746069 17.5
      vertex -2.90575 -0.746069 -17.5
    endloop
  endfacet
  facet normal -0.951056 -0.309019 0
    outer loop
      vertex -2.90575 -0.746069 17.5
      vertex -2.78933 -1.10437 -17.5
      vertex -2.78933 -1.10437 17.5
    endloop
  endfacet
  facet normal 0.248684 -0.968585 0
    outer loop
      vertex 0.562143 -2.94686 -17.5
      vertex 0.927051 -2.85317 17.5
      vertex 0.562143 -2.94686 17.5
    endloop
  endfacet
  facet normal 0.248684 -0.968585 0
    outer loop
      vertex 0.927051 -2.85317 17.5
      vertex 0.562143 -2.94686 -17.5
      vertex 0.927051 -2.85317 -17.5
    endloop
  endfacet
  facet normal 0.58778 -0.809021 0
    outer loop
      vertex 1.60748 -2.53298 -17.5
      vertex 1.91227 -2.31154 17.5
      vertex 1.60748 -2.53298 17.5
    endloop
  endfacet
  facet normal 0.58778 -0.809021 0
    outer loop
      vertex 1.91227 -2.31154 17.5
      vertex 1.60748 -2.53298 -17.5
      vertex 1.91227 -2.31154 -17.5
    endloop
  endfacet
  facet normal 0.951056 -0.309019 0
    outer loop
      vertex 2.78933 -1.10437 17.5
      vertex 2.90575 -0.746069 -17.5
      vertex 2.90575 -0.746069 17.5
    endloop
  endfacet
  facet normal 0.951056 -0.309019 0
    outer loop
      vertex 2.90575 -0.746069 -17.5
      vertex 2.78933 -1.10437 17.5
      vertex 2.78933 -1.10437 -17.5
    endloop
  endfacet
  facet normal 0.844331 -0.535822 0
    outer loop
      vertex 2.42705 -1.76336 17.5
      vertex 2.62892 -1.44526 -17.5
      vertex 2.62892 -1.44526 17.5
    endloop
  endfacet
  facet normal 0.844331 -0.535822 0
    outer loop
      vertex 2.62892 -1.44526 -17.5
      vertex 2.42705 -1.76336 17.5
      vertex 2.42705 -1.76336 -17.5
    endloop
  endfacet
  facet normal -0.125337 -0.992114 0
    outer loop
      vertex -0.562143 -2.94686 -17.5
      vertex -0.188371 -2.99408 17.5
      vertex -0.562143 -2.94686 17.5
    endloop
  endfacet
  facet normal -0.125337 -0.992114 -0
    outer loop
      vertex -0.188371 -2.99408 17.5
      vertex -0.562143 -2.94686 -17.5
      vertex -0.188371 -2.99408 -17.5
    endloop
  endfacet
  facet normal -0.368126 -0.929776 0
    outer loop
      vertex -1.27734 -2.71448 -17.5
      vertex -0.927051 -2.85317 17.5
      vertex -1.27734 -2.71448 17.5
    endloop
  endfacet
  facet normal -0.368126 -0.929776 -0
    outer loop
      vertex -0.927051 -2.85317 17.5
      vertex -1.27734 -2.71448 -17.5
      vertex -0.927051 -2.85317 -17.5
    endloop
  endfacet
  facet normal -0.58778 -0.809021 0
    outer loop
      vertex -1.91227 -2.31154 -17.5
      vertex -1.60748 -2.53298 17.5
      vertex -1.91227 -2.31154 17.5
    endloop
  endfacet
  facet normal -0.58778 -0.809021 -0
    outer loop
      vertex -1.60748 -2.53298 17.5
      vertex -1.91227 -2.31154 -17.5
      vertex -1.60748 -2.53298 -17.5
    endloop
  endfacet
  facet normal -0.770514 -0.637423 0
    outer loop
      vertex -2.18691 -2.05364 -17.5
      vertex -2.42705 -1.76336 17.5
      vertex -2.42705 -1.76336 -17.5
    endloop
  endfacet
  facet normal -0.770514 -0.637423 0
    outer loop
      vertex -2.42705 -1.76336 17.5
      vertex -2.18691 -2.05364 -17.5
      vertex -2.18691 -2.05364 17.5
    endloop
  endfacet
  facet normal -0.904828 -0.425778 0
    outer loop
      vertex -2.62892 -1.44526 -17.5
      vertex -2.78933 -1.10437 17.5
      vertex -2.78933 -1.10437 -17.5
    endloop
  endfacet
  facet normal -0.904828 -0.425778 0
    outer loop
      vertex -2.78933 -1.10437 17.5
      vertex -2.62892 -1.44526 -17.5
      vertex -2.62892 -1.44526 17.5
    endloop
  endfacet
  facet normal -0.98229 -0.187369 0
    outer loop
      vertex -2.90575 -0.746069 -17.5
      vertex -2.97634 -0.375999 17.5
      vertex -2.97634 -0.375999 -17.5
    endloop
  endfacet
  facet normal -0.98229 -0.187369 0
    outer loop
      vertex -2.97634 -0.375999 17.5
      vertex -2.90575 -0.746069 -17.5
      vertex -2.90575 -0.746069 17.5
    endloop
  endfacet
  facet normal -0.998026 -0.0628015 0
    outer loop
      vertex -2.97634 -0.375999 -17.5
      vertex -3 0 17.5
      vertex -3 0 -17.5
    endloop
  endfacet
  facet normal -0.998026 -0.0628015 0
    outer loop
      vertex -3 0 17.5
      vertex -2.97634 -0.375999 -17.5
      vertex -2.97634 -0.375999 17.5
    endloop
  endfacet
  facet normal -0.481762 -0.876302 0
    outer loop
      vertex -1.60748 -2.53298 -17.5
      vertex -1.27734 -2.71448 17.5
      vertex -1.60748 -2.53298 17.5
    endloop
  endfacet
  facet normal -0.481762 -0.876302 -0
    outer loop
      vertex -1.27734 -2.71448 17.5
      vertex -1.60748 -2.53298 -17.5
      vertex -1.27734 -2.71448 -17.5
    endloop
  endfacet
  facet normal -0.998028 -0.0627774 0
    outer loop
      vertex 2.75 0 -17.5
      vertex 2.72832 0.344666 17.5
      vertex 2.72832 0.344666 -17.5
    endloop
  endfacet
  facet normal -0.998028 -0.0627774 0
    outer loop
      vertex 2.72832 0.344666 17.5
      vertex 2.75 0 -17.5
      vertex 2.75 0 17.5
    endloop
  endfacet
  facet normal 0.998028 -0.0627774 0
    outer loop
      vertex -2.75 0 17.5
      vertex -2.72832 0.344666 -17.5
      vertex -2.72832 0.344666 17.5
    endloop
  endfacet
  facet normal 0.998028 -0.0627774 0
    outer loop
      vertex -2.72832 0.344666 -17.5
      vertex -2.75 0 17.5
      vertex -2.75 0 -17.5
    endloop
  endfacet
  facet normal 0 -1 0
    outer loop
      vertex -0.172673 2.74457 -17.5
      vertex 0.172673 2.74457 17.5
      vertex -0.172673 2.74457 17.5
    endloop
  endfacet
  facet normal 0 -1 -0
    outer loop
      vertex 0.172673 2.74457 17.5
      vertex -0.172673 2.74457 -17.5
      vertex 0.172673 2.74457 -17.5
    endloop
  endfacet
  facet normal 0 1 -0
    outer loop
      vertex 0.172673 -2.74457 -17.5
      vertex -0.172673 -2.74457 17.5
      vertex 0.172673 -2.74457 17.5
    endloop
  endfacet
  facet normal 0 1 0
    outer loop
      vertex -0.172673 -2.74457 17.5
      vertex 0.172673 -2.74457 -17.5
      vertex -0.172673 -2.74457 -17.5
    endloop
  endfacet
  facet normal -0.684563 0.728954 0
    outer loop
      vertex 2.00466 -1.8825 -17.5
      vertex 1.75292 -2.11891 17.5
      vertex 2.00466 -1.8825 17.5
    endloop
  endfacet
  facet normal -0.684563 0.728954 0
    outer loop
      vertex 1.75292 -2.11891 17.5
      vertex 2.00466 -1.8825 -17.5
      vertex 1.75292 -2.11891 -17.5
    endloop
  endfacet
  facet normal -0.684563 -0.728954 0
    outer loop
      vertex 1.75292 2.11891 -17.5
      vertex 2.00466 1.8825 17.5
      vertex 1.75292 2.11891 17.5
    endloop
  endfacet
  facet normal -0.684563 -0.728954 -0
    outer loop
      vertex 2.00466 1.8825 17.5
      vertex 1.75292 2.11891 -17.5
      vertex 2.00466 1.8825 -17.5
    endloop
  endfacet
  facet normal 0.684563 -0.728954 0
    outer loop
      vertex -2.00466 1.8825 -17.5
      vertex -1.75292 2.11891 17.5
      vertex -2.00466 1.8825 17.5
    endloop
  endfacet
  facet normal 0.684563 -0.728954 0
    outer loop
      vertex -1.75292 2.11891 17.5
      vertex -2.00466 1.8825 -17.5
      vertex -1.75292 2.11891 -17.5
    endloop
  endfacet
  facet normal 0.368149 -0.929767 0
    outer loop
      vertex -1.17089 2.48827 -17.5
      vertex -0.849796 2.61541 17.5
      vertex -1.17089 2.48827 17.5
    endloop
  endfacet
  facet normal 0.368149 -0.929767 0
    outer loop
      vertex -0.849796 2.61541 17.5
      vertex -1.17089 2.48827 -17.5
      vertex -0.849796 2.61541 -17.5
    endloop
  endfacet
  facet normal -0.904829 -0.425775 0
    outer loop
      vertex 2.55688 1.01234 -17.5
      vertex 2.40984 1.32482 17.5
      vertex 2.40984 1.32482 -17.5
    endloop
  endfacet
  facet normal -0.904829 -0.425775 0
    outer loop
      vertex 2.40984 1.32482 17.5
      vertex 2.55688 1.01234 -17.5
      vertex 2.55688 1.01234 17.5
    endloop
  endfacet
  facet normal -0.368149 -0.929767 0
    outer loop
      vertex 0.849796 2.61541 -17.5
      vertex 1.17089 2.48827 17.5
      vertex 0.849796 2.61541 17.5
    endloop
  endfacet
  facet normal -0.368149 -0.929767 -0
    outer loop
      vertex 1.17089 2.48827 17.5
      vertex 0.849796 2.61541 -17.5
      vertex 1.17089 2.48827 -17.5
    endloop
  endfacet
  facet normal -0.587774 -0.809025 0
    outer loop
      vertex 1.47352 2.3219 -17.5
      vertex 1.75292 2.11891 17.5
      vertex 1.47352 2.3219 17.5
    endloop
  endfacet
  facet normal -0.587774 -0.809025 -0
    outer loop
      vertex 1.75292 2.11891 17.5
      vertex 1.47352 2.3219 -17.5
      vertex 1.75292 2.11891 -17.5
    endloop
  endfacet
  facet normal 0.844339 -0.535809 0
    outer loop
      vertex -2.40984 1.32482 17.5
      vertex -2.2248 1.61641 -17.5
      vertex -2.2248 1.61641 17.5
    endloop
  endfacet
  facet normal 0.844339 -0.535809 0
    outer loop
      vertex -2.2248 1.61641 -17.5
      vertex -2.40984 1.32482 17.5
      vertex -2.40984 1.32482 -17.5
    endloop
  endfacet
  facet normal 0.770497 -0.637443 0
    outer loop
      vertex -2.2248 1.61641 17.5
      vertex -2.00466 1.8825 -17.5
      vertex -2.00466 1.8825 17.5
    endloop
  endfacet
  facet normal 0.770497 -0.637443 0
    outer loop
      vertex -2.00466 1.8825 -17.5
      vertex -2.2248 1.61641 17.5
      vertex -2.2248 1.61641 -17.5
    endloop
  endfacet
  facet normal 0.481749 -0.876309 0
    outer loop
      vertex -1.47352 2.3219 -17.5
      vertex -1.17089 2.48827 17.5
      vertex -1.47352 2.3219 17.5
    endloop
  endfacet
  facet normal 0.481749 -0.876309 0
    outer loop
      vertex -1.17089 2.48827 17.5
      vertex -1.47352 2.3219 -17.5
      vertex -1.17089 2.48827 -17.5
    endloop
  endfacet
  facet normal 0.248678 -0.968586 0
    outer loop
      vertex -0.849796 2.61541 -17.5
      vertex -0.515298 2.70129 17.5
      vertex -0.849796 2.61541 17.5
    endloop
  endfacet
  facet normal 0.248678 -0.968586 0
    outer loop
      vertex -0.515298 2.70129 17.5
      vertex -0.849796 2.61541 -17.5
      vertex -0.515298 2.70129 -17.5
    endloop
  endfacet
  facet normal -0.125323 0.992116 0
    outer loop
      vertex 0.515298 -2.70129 -17.5
      vertex 0.172673 -2.74457 17.5
      vertex 0.515298 -2.70129 17.5
    endloop
  endfacet
  facet normal -0.125323 0.992116 0
    outer loop
      vertex 0.172673 -2.74457 17.5
      vertex 0.515298 -2.70129 -17.5
      vertex 0.172673 -2.74457 -17.5
    endloop
  endfacet
  facet normal -0.951054 -0.309023 0
    outer loop
      vertex 2.6636 0.683897 -17.5
      vertex 2.55688 1.01234 17.5
      vertex 2.55688 1.01234 -17.5
    endloop
  endfacet
  facet normal -0.951054 -0.309023 0
    outer loop
      vertex 2.55688 1.01234 17.5
      vertex 2.6636 0.683897 -17.5
      vertex 2.6636 0.683897 17.5
    endloop
  endfacet
  facet normal -0.982283 -0.187404 0
    outer loop
      vertex 2.72832 0.344666 -17.5
      vertex 2.6636 0.683897 17.5
      vertex 2.6636 0.683897 -17.5
    endloop
  endfacet
  facet normal -0.982283 -0.187404 0
    outer loop
      vertex 2.6636 0.683897 17.5
      vertex 2.72832 0.344666 -17.5
      vertex 2.72832 0.344666 17.5
    endloop
  endfacet
  facet normal -0.770497 -0.637443 0
    outer loop
      vertex 2.2248 1.61641 -17.5
      vertex 2.00466 1.8825 17.5
      vertex 2.00466 1.8825 -17.5
    endloop
  endfacet
  facet normal -0.770497 -0.637443 0
    outer loop
      vertex 2.00466 1.8825 17.5
      vertex 2.2248 1.61641 -17.5
      vertex 2.2248 1.61641 17.5
    endloop
  endfacet
  facet normal -0.844339 -0.535809 0
    outer loop
      vertex 2.40984 1.32482 -17.5
      vertex 2.2248 1.61641 17.5
      vertex 2.2248 1.61641 -17.5
    endloop
  endfacet
  facet normal -0.844339 -0.535809 0
    outer loop
      vertex 2.2248 1.61641 17.5
      vertex 2.40984 1.32482 -17.5
      vertex 2.40984 1.32482 17.5
    endloop
  endfacet
  facet normal -0.248678 -0.968586 0
    outer loop
      vertex 0.515298 2.70129 -17.5
      vertex 0.849796 2.61541 17.5
      vertex 0.515298 2.70129 17.5
    endloop
  endfacet
  facet normal -0.248678 -0.968586 -0
    outer loop
      vertex 0.849796 2.61541 17.5
      vertex 0.515298 2.70129 -17.5
      vertex 0.849796 2.61541 -17.5
    endloop
  endfacet
  facet normal -0.125323 -0.992116 0
    outer loop
      vertex 0.172673 2.74457 -17.5
      vertex 0.515298 2.70129 17.5
      vertex 0.172673 2.74457 17.5
    endloop
  endfacet
  facet normal -0.125323 -0.992116 -0
    outer loop
      vertex 0.515298 2.70129 17.5
      vertex 0.172673 2.74457 -17.5
      vertex 0.515298 2.70129 -17.5
    endloop
  endfacet
  facet normal -0.481749 -0.876309 0
    outer loop
      vertex 1.17089 2.48827 -17.5
      vertex 1.47352 2.3219 17.5
      vertex 1.17089 2.48827 17.5
    endloop
  endfacet
  facet normal -0.481749 -0.876309 -0
    outer loop
      vertex 1.47352 2.3219 17.5
      vertex 1.17089 2.48827 -17.5
      vertex 1.47352 2.3219 -17.5
    endloop
  endfacet
  facet normal 0.904829 -0.425775 0
    outer loop
      vertex -2.55688 1.01234 17.5
      vertex -2.40984 1.32482 -17.5
      vertex -2.40984 1.32482 17.5
    endloop
  endfacet
  facet normal 0.904829 -0.425775 0
    outer loop
      vertex -2.40984 1.32482 -17.5
      vertex -2.55688 1.01234 17.5
      vertex -2.55688 1.01234 -17.5
    endloop
  endfacet
  facet normal 0.951054 -0.309023 0
    outer loop
      vertex -2.6636 0.683897 17.5
      vertex -2.55688 1.01234 -17.5
      vertex -2.55688 1.01234 17.5
    endloop
  endfacet
  facet normal 0.951054 -0.309023 0
    outer loop
      vertex -2.55688 1.01234 -17.5
      vertex -2.6636 0.683897 17.5
      vertex -2.6636 0.683897 -17.5
    endloop
  endfacet
  facet normal 0.982283 -0.187404 0
    outer loop
      vertex -2.72832 0.344666 17.5
      vertex -2.6636 0.683897 -17.5
      vertex -2.6636 0.683897 17.5
    endloop
  endfacet
  facet normal 0.982283 -0.187404 0
    outer loop
      vertex -2.6636 0.683897 -17.5
      vertex -2.72832 0.344666 17.5
      vertex -2.72832 0.344666 -17.5
    endloop
  endfacet
  facet normal 0.587774 -0.809025 0
    outer loop
      vertex -1.75292 2.11891 -17.5
      vertex -1.47352 2.3219 17.5
      vertex -1.75292 2.11891 17.5
    endloop
  endfacet
  facet normal 0.587774 -0.809025 0
    outer loop
      vertex -1.47352 2.3219 17.5
      vertex -1.75292 2.11891 -17.5
      vertex -1.47352 2.3219 -17.5
    endloop
  endfacet
  facet normal 0.125323 -0.992116 0
    outer loop
      vertex -0.515298 2.70129 -17.5
      vertex -0.172673 2.74457 17.5
      vertex -0.515298 2.70129 17.5
    endloop
  endfacet
  facet normal 0.125323 -0.992116 0
    outer loop
      vertex -0.172673 2.74457 17.5
      vertex -0.515298 2.70129 -17.5
      vertex -0.172673 2.74457 -17.5
    endloop
  endfacet
  facet normal -0.998028 0.0627774 0
    outer loop
      vertex 2.72832 -0.344666 -17.5
      vertex 2.75 0 17.5
      vertex 2.75 0 -17.5
    endloop
  endfacet
  facet normal -0.998028 0.0627774 0
    outer loop
      vertex 2.75 0 17.5
      vertex 2.72832 -0.344666 -17.5
      vertex 2.72832 -0.344666 17.5
    endloop
  endfacet
  facet normal -0.770497 0.637443 0
    outer loop
      vertex 2.00466 -1.8825 -17.5
      vertex 2.2248 -1.61641 17.5
      vertex 2.2248 -1.61641 -17.5
    endloop
  endfacet
  facet normal -0.770497 0.637443 0
    outer loop
      vertex 2.2248 -1.61641 17.5
      vertex 2.00466 -1.8825 -17.5
      vertex 2.00466 -1.8825 17.5
    endloop
  endfacet
  facet normal 0.684563 0.728954 -0
    outer loop
      vertex -1.75292 -2.11891 -17.5
      vertex -2.00466 -1.8825 17.5
      vertex -1.75292 -2.11891 17.5
    endloop
  endfacet
  facet normal 0.684563 0.728954 0
    outer loop
      vertex -2.00466 -1.8825 17.5
      vertex -1.75292 -2.11891 -17.5
      vertex -2.00466 -1.8825 -17.5
    endloop
  endfacet
  facet normal 0.998028 0.0627774 0
    outer loop
      vertex -2.72832 -0.344666 17.5
      vertex -2.75 0 -17.5
      vertex -2.75 0 17.5
    endloop
  endfacet
  facet normal 0.998028 0.0627774 0
    outer loop
      vertex -2.75 0 -17.5
      vertex -2.72832 -0.344666 17.5
      vertex -2.72832 -0.344666 -17.5
    endloop
  endfacet
  facet normal -0.481749 0.876309 0
    outer loop
      vertex 1.47352 -2.3219 -17.5
      vertex 1.17089 -2.48827 17.5
      vertex 1.47352 -2.3219 17.5
    endloop
  endfacet
  facet normal -0.481749 0.876309 0
    outer loop
      vertex 1.17089 -2.48827 17.5
      vertex 1.47352 -2.3219 -17.5
      vertex 1.17089 -2.48827 -17.5
    endloop
  endfacet
  facet normal -0.368149 0.929767 0
    outer loop
      vertex 1.17089 -2.48827 -17.5
      vertex 0.849796 -2.61541 17.5
      vertex 1.17089 -2.48827 17.5
    endloop
  endfacet
  facet normal -0.368149 0.929767 0
    outer loop
      vertex 0.849796 -2.61541 17.5
      vertex 1.17089 -2.48827 -17.5
      vertex 0.849796 -2.61541 -17.5
    endloop
  endfacet
  facet normal -0.951054 0.309023 0
    outer loop
      vertex 2.55688 -1.01234 -17.5
      vertex 2.6636 -0.683897 17.5
      vertex 2.6636 -0.683897 -17.5
    endloop
  endfacet
  facet normal -0.951054 0.309023 0
    outer loop
      vertex 2.6636 -0.683897 17.5
      vertex 2.55688 -1.01234 -17.5
      vertex 2.55688 -1.01234 17.5
    endloop
  endfacet
  facet normal -0.904829 0.425775 0
    outer loop
      vertex 2.40984 -1.32482 -17.5
      vertex 2.55688 -1.01234 17.5
      vertex 2.55688 -1.01234 -17.5
    endloop
  endfacet
  facet normal -0.904829 0.425775 0
    outer loop
      vertex 2.55688 -1.01234 17.5
      vertex 2.40984 -1.32482 -17.5
      vertex 2.40984 -1.32482 17.5
    endloop
  endfacet
  facet normal -0.844339 0.535809 0
    outer loop
      vertex 2.2248 -1.61641 -17.5
      vertex 2.40984 -1.32482 17.5
      vertex 2.40984 -1.32482 -17.5
    endloop
  endfacet
  facet normal -0.844339 0.535809 0
    outer loop
      vertex 2.40984 -1.32482 17.5
      vertex 2.2248 -1.61641 -17.5
      vertex 2.2248 -1.61641 17.5
    endloop
  endfacet
  facet normal 0.770497 0.637443 0
    outer loop
      vertex -2.00466 -1.8825 17.5
      vertex -2.2248 -1.61641 -17.5
      vertex -2.2248 -1.61641 17.5
    endloop
  endfacet
  facet normal 0.770497 0.637443 0
    outer loop
      vertex -2.2248 -1.61641 -17.5
      vertex -2.00466 -1.8825 17.5
      vertex -2.00466 -1.8825 -17.5
    endloop
  endfacet
  facet normal 0.904829 0.425775 0
    outer loop
      vertex -2.40984 -1.32482 17.5
      vertex -2.55688 -1.01234 -17.5
      vertex -2.55688 -1.01234 17.5
    endloop
  endfacet
  facet normal 0.904829 0.425775 0
    outer loop
      vertex -2.55688 -1.01234 -17.5
      vertex -2.40984 -1.32482 17.5
      vertex -2.40984 -1.32482 -17.5
    endloop
  endfacet
  facet normal 0.982283 0.187404 0
    outer loop
      vertex -2.6636 -0.683897 17.5
      vertex -2.72832 -0.344666 -17.5
      vertex -2.72832 -0.344666 17.5
    endloop
  endfacet
  facet normal 0.982283 0.187404 0
    outer loop
      vertex -2.72832 -0.344666 -17.5
      vertex -2.6636 -0.683897 17.5
      vertex -2.6636 -0.683897 -17.5
    endloop
  endfacet
  facet normal 0.951054 0.309023 0
    outer loop
      vertex -2.55688 -1.01234 17.5
      vertex -2.6636 -0.683897 -17.5
      vertex -2.6636 -0.683897 17.5
    endloop
  endfacet
  facet normal 0.951054 0.309023 0
    outer loop
      vertex -2.6636 -0.683897 -17.5
      vertex -2.55688 -1.01234 17.5
      vertex -2.55688 -1.01234 -17.5
    endloop
  endfacet
  facet normal -0.587774 0.809025 0
    outer loop
      vertex 1.75292 -2.11891 -17.5
      vertex 1.47352 -2.3219 17.5
      vertex 1.75292 -2.11891 17.5
    endloop
  endfacet
  facet normal -0.587774 0.809025 0
    outer loop
      vertex 1.47352 -2.3219 17.5
      vertex 1.75292 -2.11891 -17.5
      vertex 1.47352 -2.3219 -17.5
    endloop
  endfacet
  facet normal -0.248678 0.968586 0
    outer loop
      vertex 0.849796 -2.61541 -17.5
      vertex 0.515298 -2.70129 17.5
      vertex 0.849796 -2.61541 17.5
    endloop
  endfacet
  facet normal -0.248678 0.968586 0
    outer loop
      vertex 0.515298 -2.70129 17.5
      vertex 0.849796 -2.61541 -17.5
      vertex 0.515298 -2.70129 -17.5
    endloop
  endfacet
  facet normal -0.982283 0.187404 0
    outer loop
      vertex 2.6636 -0.683897 -17.5
      vertex 2.72832 -0.344666 17.5
      vertex 2.72832 -0.344666 -17.5
    endloop
  endfacet
  facet normal -0.982283 0.187404 0
    outer loop
      vertex 2.72832 -0.344666 17.5
      vertex 2.6636 -0.683897 -17.5
      vertex 2.6636 -0.683897 17.5
    endloop
  endfacet
  facet normal 0.248678 0.968586 -0
    outer loop
      vertex -0.515298 -2.70129 -17.5
      vertex -0.849796 -2.61541 17.5
      vertex -0.515298 -2.70129 17.5
    endloop
  endfacet
  facet normal 0.248678 0.968586 0
    outer loop
      vertex -0.849796 -2.61541 17.5
      vertex -0.515298 -2.70129 -17.5
      vertex -0.849796 -2.61541 -17.5
    endloop
  endfacet
  facet normal 0.844339 0.535809 0
    outer loop
      vertex -2.2248 -1.61641 17.5
      vertex -2.40984 -1.32482 -17.5
      vertex -2.40984 -1.32482 17.5
    endloop
  endfacet
  facet normal 0.844339 0.535809 0
    outer loop
      vertex -2.40984 -1.32482 -17.5
      vertex -2.2248 -1.61641 17.5
      vertex -2.2248 -1.61641 -17.5
    endloop
  endfacet
  facet normal 0.481749 0.876309 -0
    outer loop
      vertex -1.17089 -2.48827 -17.5
      vertex -1.47352 -2.3219 17.5
      vertex -1.17089 -2.48827 17.5
    endloop
  endfacet
  facet normal 0.481749 0.876309 0
    outer loop
      vertex -1.47352 -2.3219 17.5
      vertex -1.17089 -2.48827 -17.5
      vertex -1.47352 -2.3219 -17.5
    endloop
  endfacet
  facet normal 0.587774 0.809025 -0
    outer loop
      vertex -1.47352 -2.3219 -17.5
      vertex -1.75292 -2.11891 17.5
      vertex -1.47352 -2.3219 17.5
    endloop
  endfacet
  facet normal 0.587774 0.809025 0
    outer loop
      vertex -1.75292 -2.11891 17.5
      vertex -1.47352 -2.3219 -17.5
      vertex -1.75292 -2.11891 -17.5
    endloop
  endfacet
  facet normal 0.125323 0.992116 -0
    outer loop
      vertex -0.172673 -2.74457 -17.5
      vertex -0.515298 -2.70129 17.5
      vertex -0.172673 -2.74457 17.5
    endloop
  endfacet
  facet normal 0.125323 0.992116 0
    outer loop
      vertex -0.515298 -2.70129 17.5
      vertex -0.172673 -2.74457 -17.5
      vertex -0.515298 -2.70129 -17.5
    endloop
  endfacet
  facet normal 0.368149 0.929767 -0
    outer loop
      vertex -0.849796 -2.61541 -17.5
      vertex -1.17089 -2.48827 17.5
      vertex -0.849796 -2.61541 17.5
    endloop
  endfacet
  facet normal 0.368149 0.929767 0
    outer loop
      vertex -1.17089 -2.48827 17.5
      vertex -0.849796 -2.61541 -17.5
      vertex -1.17089 -2.48827 -17.5
    endloop
  endfacet
endsolid OpenSCAD_Model
