solid OpenSCAD_Model
  facet normal 0.998027 0.0627838 0
    outer loop
      vertex 4.5 0 1
      vertex 4.46452 0.563999 -1
      vertex 4.46452 0.563999 1
    endloop
  endfacet
  facet normal 0.998027 0.0627838 0
    outer loop
      vertex 4.46452 0.563999 -1
      vertex 4.5 0 1
      vertex 4.5 0 -1
    endloop
  endfacet
  facet normal -0.998027 0.0627838 0
    outer loop
      vertex -4.5 0 -1
      vertex -4.46452 0.563999 1
      vertex -4.46452 0.563999 -1
    endloop
  endfacet
  facet normal -0.998027 0.0627838 0
    outer loop
      vertex -4.46452 0.563999 1
      vertex -4.5 0 -1
      vertex -4.5 0 1
    endloop
  endfacet
  facet normal 0 1 -0
    outer loop
      vertex 0.282557 4.49112 -1
      vertex -0.282557 4.49112 1
      vertex 0.282557 4.49112 1
    endloop
  endfacet
  facet normal 0 1 0
    outer loop
      vertex -0.282557 4.49112 1
      vertex 0.282557 4.49112 -1
      vertex -0.282557 4.49112 -1
    endloop
  endfacet
  facet normal 0 -1 0
    outer loop
      vertex -0.282557 -4.49112 -1
      vertex 0.282557 -4.49112 1
      vertex -0.282557 -4.49112 1
    endloop
  endfacet
  facet normal 0 -1 -0
    outer loop
      vertex 0.282557 -4.49112 1
      vertex -0.282557 -4.49112 -1
      vertex 0.282557 -4.49112 -1
    endloop
  endfacet
  facet normal 0.68455 0.728966 -0
    outer loop
      vertex 3.28036 3.08046 -1
      vertex 2.86841 3.46731 1
      vertex 3.28036 3.08046 1
    endloop
  endfacet
  facet normal 0.68455 0.728966 0
    outer loop
      vertex 2.86841 3.46731 1
      vertex 3.28036 3.08046 -1
      vertex 2.86841 3.46731 -1
    endloop
  endfacet
  facet normal -0.68455 0.728966 0
    outer loop
      vertex -2.86841 3.46731 -1
      vertex -3.28036 3.08046 1
      vertex -2.86841 3.46731 1
    endloop
  endfacet
  facet normal -0.68455 0.728966 0
    outer loop
      vertex -3.28036 3.08046 1
      vertex -2.86841 3.46731 -1
      vertex -3.28036 3.08046 -1
    endloop
  endfacet
  facet normal -0.368121 0.929778 0
    outer loop
      vertex -1.39058 4.27975 -1
      vertex -1.91601 4.07172 1
      vertex -1.39058 4.27975 1
    endloop
  endfacet
  facet normal -0.368121 0.929778 0
    outer loop
      vertex -1.91601 4.07172 1
      vertex -1.39058 4.27975 -1
      vertex -1.91601 4.07172 -1
    endloop
  endfacet
  facet normal 0.951057 -0.309015 0
    outer loop
      vertex 4.18399 -1.65656 1
      vertex 4.35862 -1.1191 -1
      vertex 4.35862 -1.1191 1
    endloop
  endfacet
  facet normal 0.951057 -0.309015 0
    outer loop
      vertex 4.35862 -1.1191 -1
      vertex 4.18399 -1.65656 1
      vertex 4.18399 -1.65656 -1
    endloop
  endfacet
  facet normal 0.90483 0.425774 0
    outer loop
      vertex 4.18399 1.65656 1
      vertex 3.94338 2.16789 -1
      vertex 3.94338 2.16789 1
    endloop
  endfacet
  facet normal 0.90483 0.425774 0
    outer loop
      vertex 3.94338 2.16789 -1
      vertex 4.18399 1.65656 1
      vertex 4.18399 1.65656 -1
    endloop
  endfacet
  facet normal 0.982284 0.187396 0
    outer loop
      vertex 4.46452 0.563999 1
      vertex 4.35862 1.1191 -1
      vertex 4.35862 1.1191 1
    endloop
  endfacet
  facet normal 0.982284 0.187396 0
    outer loop
      vertex 4.35862 1.1191 -1
      vertex 4.46452 0.563999 1
      vertex 4.46452 0.563999 -1
    endloop
  endfacet
  facet normal 0.368121 0.929778 -0
    outer loop
      vertex 1.91601 4.07172 -1
      vertex 1.39058 4.27975 1
      vertex 1.91601 4.07172 1
    endloop
  endfacet
  facet normal 0.368121 0.929778 0
    outer loop
      vertex 1.39058 4.27975 1
      vertex 1.91601 4.07172 -1
      vertex 1.39058 4.27975 -1
    endloop
  endfacet
  facet normal 0.248691 0.968583 -0
    outer loop
      vertex 1.39058 4.27975 -1
      vertex 0.843215 4.42029 1
      vertex 1.39058 4.27975 1
    endloop
  endfacet
  facet normal 0.248691 0.968583 0
    outer loop
      vertex 0.843215 4.42029 1
      vertex 1.39058 4.27975 -1
      vertex 0.843215 4.42029 -1
    endloop
  endfacet
  facet normal 0.587776 0.809024 -0
    outer loop
      vertex 2.86841 3.46731 -1
      vertex 2.41122 3.79947 1
      vertex 2.86841 3.46731 1
    endloop
  endfacet
  facet normal 0.587776 0.809024 0
    outer loop
      vertex 2.41122 3.79947 1
      vertex 2.86841 3.46731 -1
      vertex 2.41122 3.79947 -1
    endloop
  endfacet
  facet normal -0.90483 0.425774 0
    outer loop
      vertex -4.18399 1.65656 -1
      vertex -3.94338 2.16789 1
      vertex -3.94338 2.16789 -1
    endloop
  endfacet
  facet normal -0.90483 0.425774 0
    outer loop
      vertex -3.94338 2.16789 1
      vertex -4.18399 1.65656 -1
      vertex -4.18399 1.65656 1
    endloop
  endfacet
  facet normal -0.951057 0.309015 0
    outer loop
      vertex -4.35862 1.1191 -1
      vertex -4.18399 1.65656 1
      vertex -4.18399 1.65656 -1
    endloop
  endfacet
  facet normal -0.951057 0.309015 0
    outer loop
      vertex -4.18399 1.65656 1
      vertex -4.35862 1.1191 -1
      vertex -4.35862 1.1191 1
    endloop
  endfacet
  facet normal -0.481762 0.876302 0
    outer loop
      vertex -1.91601 4.07172 -1
      vertex -2.41122 3.79947 1
      vertex -1.91601 4.07172 1
    endloop
  endfacet
  facet normal -0.481762 0.876302 0
    outer loop
      vertex -2.41122 3.79947 1
      vertex -1.91601 4.07172 -1
      vertex -2.41122 3.79947 -1
    endloop
  endfacet
  facet normal -0.248691 0.968583 0
    outer loop
      vertex -0.843215 4.42029 -1
      vertex -1.39058 4.27975 1
      vertex -0.843215 4.42029 1
    endloop
  endfacet
  facet normal -0.248691 0.968583 0
    outer loop
      vertex -1.39058 4.27975 1
      vertex -0.843215 4.42029 -1
      vertex -1.39058 4.27975 -1
    endloop
  endfacet
  facet normal 0.368121 -0.929778 0
    outer loop
      vertex 1.39058 -4.27975 -1
      vertex 1.91601 -4.07172 1
      vertex 1.39058 -4.27975 1
    endloop
  endfacet
  facet normal 0.368121 -0.929778 0
    outer loop
      vertex 1.91601 -4.07172 1
      vertex 1.39058 -4.27975 -1
      vertex 1.91601 -4.07172 -1
    endloop
  endfacet
  facet normal 0.951057 0.309015 0
    outer loop
      vertex 4.35862 1.1191 1
      vertex 4.18399 1.65656 -1
      vertex 4.18399 1.65656 1
    endloop
  endfacet
  facet normal 0.951057 0.309015 0
    outer loop
      vertex 4.18399 1.65656 -1
      vertex 4.35862 1.1191 1
      vertex 4.35862 1.1191 -1
    endloop
  endfacet
  facet normal 0.770512 0.637425 0
    outer loop
      vertex 3.64058 2.64503 1
      vertex 3.28036 3.08046 -1
      vertex 3.28036 3.08046 1
    endloop
  endfacet
  facet normal 0.770512 0.637425 0
    outer loop
      vertex 3.28036 3.08046 -1
      vertex 3.64058 2.64503 1
      vertex 3.64058 2.64503 -1
    endloop
  endfacet
  facet normal 0.84433 0.535824 0
    outer loop
      vertex 3.94338 2.16789 1
      vertex 3.64058 2.64503 -1
      vertex 3.64058 2.64503 1
    endloop
  endfacet
  facet normal 0.84433 0.535824 0
    outer loop
      vertex 3.64058 2.64503 -1
      vertex 3.94338 2.16789 1
      vertex 3.94338 2.16789 -1
    endloop
  endfacet
  facet normal 0.125337 0.992114 -0
    outer loop
      vertex 0.843215 4.42029 -1
      vertex 0.282557 4.49112 1
      vertex 0.843215 4.42029 1
    endloop
  endfacet
  facet normal 0.125337 0.992114 0
    outer loop
      vertex 0.282557 4.49112 1
      vertex 0.843215 4.42029 -1
      vertex 0.282557 4.49112 -1
    endloop
  endfacet
  facet normal 0.481762 0.876302 -0
    outer loop
      vertex 2.41122 3.79947 -1
      vertex 1.91601 4.07172 1
      vertex 2.41122 3.79947 1
    endloop
  endfacet
  facet normal 0.481762 0.876302 0
    outer loop
      vertex 1.91601 4.07172 1
      vertex 2.41122 3.79947 -1
      vertex 1.91601 4.07172 -1
    endloop
  endfacet
  facet normal -0.84433 0.535824 0
    outer loop
      vertex -3.94338 2.16789 -1
      vertex -3.64058 2.64503 1
      vertex -3.64058 2.64503 -1
    endloop
  endfacet
  facet normal -0.84433 0.535824 0
    outer loop
      vertex -3.64058 2.64503 1
      vertex -3.94338 2.16789 -1
      vertex -3.94338 2.16789 1
    endloop
  endfacet
  facet normal -0.770512 0.637425 0
    outer loop
      vertex -3.64058 2.64503 -1
      vertex -3.28036 3.08046 1
      vertex -3.28036 3.08046 -1
    endloop
  endfacet
  facet normal -0.770512 0.637425 0
    outer loop
      vertex -3.28036 3.08046 1
      vertex -3.64058 2.64503 -1
      vertex -3.64058 2.64503 1
    endloop
  endfacet
  facet normal -0.982284 0.187396 0
    outer loop
      vertex -4.46452 0.563999 -1
      vertex -4.35862 1.1191 1
      vertex -4.35862 1.1191 -1
    endloop
  endfacet
  facet normal -0.982284 0.187396 0
    outer loop
      vertex -4.35862 1.1191 1
      vertex -4.46452 0.563999 -1
      vertex -4.46452 0.563999 1
    endloop
  endfacet
  facet normal 0 0 1
    outer loop
      vertex 1.8 0 1
      vertex 4.5 0 1
      vertex 4.46452 0.563999 1
    endloop
  endfacet
  facet normal 0 0 1
    outer loop
      vertex 1.78581 0.225599 1
      vertex 4.46452 0.563999 1
      vertex 4.35862 1.1191 1
    endloop
  endfacet
  facet normal 0 0 1
    outer loop
      vertex 4.5 0 1
      vertex 1.8 0 1
      vertex 4.46452 -0.563999 1
    endloop
  endfacet
  facet normal 0 0 1
    outer loop
      vertex 1.74345 0.447641 1
      vertex 4.35862 1.1191 1
      vertex 4.18399 1.65656 1
    endloop
  endfacet
  facet normal -0 0 1
    outer loop
      vertex 1.78581 -0.225599 1
      vertex 4.46452 -0.563999 1
      vertex 1.8 0 1
    endloop
  endfacet
  facet normal 0 0 1
    outer loop
      vertex 1.6736 0.662623 1
      vertex 4.18399 1.65656 1
      vertex 3.94338 2.16789 1
    endloop
  endfacet
  facet normal 0 0 1
    outer loop
      vertex 4.46452 -0.563999 1
      vertex 1.78581 -0.225599 1
      vertex 4.35862 -1.1191 1
    endloop
  endfacet
  facet normal 0 0 1
    outer loop
      vertex 1.57735 0.867156 1
      vertex 3.94338 2.16789 1
      vertex 3.64058 2.64503 1
    endloop
  endfacet
  facet normal -0 0 1
    outer loop
      vertex 1.74345 -0.447641 1
      vertex 4.35862 -1.1191 1
      vertex 1.78581 -0.225599 1
    endloop
  endfacet
  facet normal 0 0 1
    outer loop
      vertex 1.45623 1.05801 1
      vertex 3.64058 2.64503 1
      vertex 3.28036 3.08046 1
    endloop
  endfacet
  facet normal 0 0 1
    outer loop
      vertex 4.35862 -1.1191 1
      vertex 1.74345 -0.447641 1
      vertex 4.18399 -1.65656 1
    endloop
  endfacet
  facet normal 0 0 1
    outer loop
      vertex 1.31214 1.23218 1
      vertex 3.28036 3.08046 1
      vertex 2.86841 3.46731 1
    endloop
  endfacet
  facet normal -0 0 1
    outer loop
      vertex 1.6736 -0.662623 1
      vertex 4.18399 -1.65656 1
      vertex 1.74345 -0.447641 1
    endloop
  endfacet
  facet normal 0 0 1
    outer loop
      vertex 1.14736 1.38692 1
      vertex 2.86841 3.46731 1
      vertex 2.41122 3.79947 1
    endloop
  endfacet
  facet normal 0 0 1
    outer loop
      vertex 4.18399 -1.65656 1
      vertex 1.6736 -0.662623 1
      vertex 3.94338 -2.16789 1
    endloop
  endfacet
  facet normal 0 0 1
    outer loop
      vertex 0.964488 1.51979 1
      vertex 2.41122 3.79947 1
      vertex 1.91601 4.07172 1
    endloop
  endfacet
  facet normal -0 0 1
    outer loop
      vertex 1.57735 -0.867156 1
      vertex 3.94338 -2.16789 1
      vertex 1.6736 -0.662623 1
    endloop
  endfacet
  facet normal 0 0 1
    outer loop
      vertex 3.94338 -2.16789 1
      vertex 1.57735 -0.867156 1
      vertex 3.64058 -2.64503 1
    endloop
  endfacet
  facet normal 0 0 1
    outer loop
      vertex 4.46452 0.563999 1
      vertex 1.78581 0.225599 1
      vertex 1.8 0 1
    endloop
  endfacet
  facet normal 0 0 1
    outer loop
      vertex 4.35862 1.1191 1
      vertex 1.74345 0.447641 1
      vertex 1.78581 0.225599 1
    endloop
  endfacet
  facet normal 0 0 1
    outer loop
      vertex 4.18399 1.65656 1
      vertex 1.6736 0.662623 1
      vertex 1.74345 0.447641 1
    endloop
  endfacet
  facet normal 0 0 1
    outer loop
      vertex 3.94338 2.16789 1
      vertex 1.57735 0.867156 1
      vertex 1.6736 0.662623 1
    endloop
  endfacet
  facet normal 0 0 1
    outer loop
      vertex 3.64058 2.64503 1
      vertex 1.45623 1.05801 1
      vertex 1.57735 0.867156 1
    endloop
  endfacet
  facet normal 0 0 1
    outer loop
      vertex 0.766402 1.62869 1
      vertex 1.91601 4.07172 1
      vertex 1.39058 4.27975 1
    endloop
  endfacet
  facet normal 0 0 1
    outer loop
      vertex 3.28036 3.08046 1
      vertex 1.31214 1.23218 1
      vertex 1.45623 1.05801 1
    endloop
  endfacet
  facet normal 0 0 1
    outer loop
      vertex 2.86841 3.46731 1
      vertex 1.14736 1.38692 1
      vertex 1.31214 1.23218 1
    endloop
  endfacet
  facet normal 0 0 1
    outer loop
      vertex 2.41122 3.79947 1
      vertex 0.964488 1.51979 1
      vertex 1.14736 1.38692 1
    endloop
  endfacet
  facet normal 0 0 1
    outer loop
      vertex 0.556231 1.7119 1
      vertex 1.39058 4.27975 1
      vertex 0.843215 4.42029 1
    endloop
  endfacet
  facet normal 0 0 1
    outer loop
      vertex 1.91601 4.07172 1
      vertex 0.766402 1.62869 1
      vertex 0.964488 1.51979 1
    endloop
  endfacet
  facet normal 0 0 1
    outer loop
      vertex 1.39058 4.27975 1
      vertex 0.556231 1.7119 1
      vertex 0.766402 1.62869 1
    endloop
  endfacet
  facet normal 0 0 1
    outer loop
      vertex 0.843215 4.42029 1
      vertex 0.337286 1.76812 1
      vertex 0.556231 1.7119 1
    endloop
  endfacet
  facet normal 0 0 1
    outer loop
      vertex 0.282557 4.49112 1
      vertex 0.337286 1.76812 1
      vertex 0.843215 4.42029 1
    endloop
  endfacet
  facet normal 0 0 1
    outer loop
      vertex 0.282557 4.49112 1
      vertex 0.113023 1.79645 1
      vertex 0.337286 1.76812 1
    endloop
  endfacet
  facet normal 0 0 1
    outer loop
      vertex 0.282557 4.49112 1
      vertex -0.113023 1.79645 1
      vertex 0.113023 1.79645 1
    endloop
  endfacet
  facet normal -0 0 1
    outer loop
      vertex -0.282557 4.49112 1
      vertex -0.113023 1.79645 1
      vertex 0.282557 4.49112 1
    endloop
  endfacet
  facet normal 0 0 1
    outer loop
      vertex -0.282557 4.49112 1
      vertex -0.337286 1.76812 1
      vertex -0.113023 1.79645 1
    endloop
  endfacet
  facet normal -0 0 1
    outer loop
      vertex -0.843215 4.42029 1
      vertex -0.337286 1.76812 1
      vertex -0.282557 4.49112 1
    endloop
  endfacet
  facet normal 0 0 1
    outer loop
      vertex -0.337286 1.76812 1
      vertex -0.843215 4.42029 1
      vertex -0.556231 1.7119 1
    endloop
  endfacet
  facet normal -0 0 1
    outer loop
      vertex -1.39058 4.27975 1
      vertex -0.556231 1.7119 1
      vertex -0.843215 4.42029 1
    endloop
  endfacet
  facet normal 0 0 1
    outer loop
      vertex -0.556231 1.7119 1
      vertex -1.39058 4.27975 1
      vertex -0.766402 1.62869 1
    endloop
  endfacet
  facet normal -0 0 1
    outer loop
      vertex -1.91601 4.07172 1
      vertex -0.766402 1.62869 1
      vertex -1.39058 4.27975 1
    endloop
  endfacet
  facet normal 0 0 1
    outer loop
      vertex -0.766402 1.62869 1
      vertex -1.91601 4.07172 1
      vertex -0.964488 1.51979 1
    endloop
  endfacet
  facet normal -0 0 1
    outer loop
      vertex -2.41122 3.79947 1
      vertex -0.964488 1.51979 1
      vertex -1.91601 4.07172 1
    endloop
  endfacet
  facet normal 0 0 1
    outer loop
      vertex -0.964488 1.51979 1
      vertex -2.41122 3.79947 1
      vertex -1.14736 1.38692 1
    endloop
  endfacet
  facet normal -0 0 1
    outer loop
      vertex -2.86841 3.46731 1
      vertex -1.14736 1.38692 1
      vertex -2.41122 3.79947 1
    endloop
  endfacet
  facet normal 0 0 1
    outer loop
      vertex -1.14736 1.38692 1
      vertex -2.86841 3.46731 1
      vertex -1.31214 1.23218 1
    endloop
  endfacet
  facet normal -0 0 1
    outer loop
      vertex -3.28036 3.08046 1
      vertex -1.31214 1.23218 1
      vertex -2.86841 3.46731 1
    endloop
  endfacet
  facet normal 0 0 1
    outer loop
      vertex -1.31214 1.23218 1
      vertex -3.28036 3.08046 1
      vertex -1.45623 1.05801 1
    endloop
  endfacet
  facet normal 0 0 1
    outer loop
      vertex -1.45623 1.05801 1
      vertex -3.64058 2.64503 1
      vertex -1.57735 0.867156 1
    endloop
  endfacet
  facet normal -0 0 1
    outer loop
      vertex -3.64058 2.64503 1
      vertex -1.45623 1.05801 1
      vertex -3.28036 3.08046 1
    endloop
  endfacet
  facet normal -0 0 1
    outer loop
      vertex 1.45623 -1.05801 1
      vertex 3.64058 -2.64503 1
      vertex 1.57735 -0.867156 1
    endloop
  endfacet
  facet normal 0 0 1
    outer loop
      vertex 3.64058 -2.64503 1
      vertex 1.45623 -1.05801 1
      vertex 3.28036 -3.08046 1
    endloop
  endfacet
  facet normal -0 0 1
    outer loop
      vertex 1.31214 -1.23218 1
      vertex 3.28036 -3.08046 1
      vertex 1.45623 -1.05801 1
    endloop
  endfacet
  facet normal 0 0 1
    outer loop
      vertex 3.28036 -3.08046 1
      vertex 1.31214 -1.23218 1
      vertex 2.86841 -3.46731 1
    endloop
  endfacet
  facet normal -0 0 1
    outer loop
      vertex 1.14736 -1.38692 1
      vertex 2.86841 -3.46731 1
      vertex 1.31214 -1.23218 1
    endloop
  endfacet
  facet normal 0 0 1
    outer loop
      vertex 2.86841 -3.46731 1
      vertex 1.14736 -1.38692 1
      vertex 2.41122 -3.79947 1
    endloop
  endfacet
  facet normal -0 0 1
    outer loop
      vertex 0.964488 -1.51979 1
      vertex 2.41122 -3.79947 1
      vertex 1.14736 -1.38692 1
    endloop
  endfacet
  facet normal 0 0 1
    outer loop
      vertex 2.41122 -3.79947 1
      vertex 0.964488 -1.51979 1
      vertex 1.91601 -4.07172 1
    endloop
  endfacet
  facet normal -0 0 1
    outer loop
      vertex 0.766402 -1.62869 1
      vertex 1.91601 -4.07172 1
      vertex 0.964488 -1.51979 1
    endloop
  endfacet
  facet normal 0 0 1
    outer loop
      vertex 1.91601 -4.07172 1
      vertex 0.766402 -1.62869 1
      vertex 1.39058 -4.27975 1
    endloop
  endfacet
  facet normal -0 0 1
    outer loop
      vertex 0.556231 -1.7119 1
      vertex 1.39058 -4.27975 1
      vertex 0.766402 -1.62869 1
    endloop
  endfacet
  facet normal 0 0 1
    outer loop
      vertex 1.39058 -4.27975 1
      vertex 0.556231 -1.7119 1
      vertex 0.843215 -4.42029 1
    endloop
  endfacet
  facet normal -0 0 1
    outer loop
      vertex 0.337286 -1.76812 1
      vertex 0.843215 -4.42029 1
      vertex 0.556231 -1.7119 1
    endloop
  endfacet
  facet normal 0 0 1
    outer loop
      vertex 0.337286 -1.76812 1
      vertex 0.282557 -4.49112 1
      vertex 0.843215 -4.42029 1
    endloop
  endfacet
  facet normal -0 0 1
    outer loop
      vertex 0.113023 -1.79645 1
      vertex 0.282557 -4.49112 1
      vertex 0.337286 -1.76812 1
    endloop
  endfacet
  facet normal -0 0 1
    outer loop
      vertex -0.113023 -1.79645 1
      vertex 0.282557 -4.49112 1
      vertex 0.113023 -1.79645 1
    endloop
  endfacet
  facet normal 0 0 1
    outer loop
      vertex -0.113023 -1.79645 1
      vertex -0.282557 -4.49112 1
      vertex 0.282557 -4.49112 1
    endloop
  endfacet
  facet normal 0 0 1
    outer loop
      vertex -0.337286 -1.76812 1
      vertex -0.282557 -4.49112 1
      vertex -0.113023 -1.79645 1
    endloop
  endfacet
  facet normal 0 0 1
    outer loop
      vertex -0.843215 -4.42029 1
      vertex -0.337286 -1.76812 1
      vertex -0.556231 -1.7119 1
    endloop
  endfacet
  facet normal 0 0 1
    outer loop
      vertex -1.39058 -4.27975 1
      vertex -0.556231 -1.7119 1
      vertex -0.766402 -1.62869 1
    endloop
  endfacet
  facet normal 0 0 1
    outer loop
      vertex -0.337286 -1.76812 1
      vertex -0.843215 -4.42029 1
      vertex -0.282557 -4.49112 1
    endloop
  endfacet
  facet normal 0 0 1
    outer loop
      vertex -1.91601 -4.07172 1
      vertex -0.766402 -1.62869 1
      vertex -0.964488 -1.51979 1
    endloop
  endfacet
  facet normal 0 0 1
    outer loop
      vertex -2.41122 -3.79947 1
      vertex -0.964488 -1.51979 1
      vertex -1.14736 -1.38692 1
    endloop
  endfacet
  facet normal 0 0 1
    outer loop
      vertex -2.86841 -3.46731 1
      vertex -1.14736 -1.38692 1
      vertex -1.31214 -1.23218 1
    endloop
  endfacet
  facet normal 0 0 1
    outer loop
      vertex -0.556231 -1.7119 1
      vertex -1.39058 -4.27975 1
      vertex -0.843215 -4.42029 1
    endloop
  endfacet
  facet normal 0 0 1
    outer loop
      vertex -3.28036 -3.08046 1
      vertex -1.31214 -1.23218 1
      vertex -1.45623 -1.05801 1
    endloop
  endfacet
  facet normal 0 0 1
    outer loop
      vertex -3.64058 -2.64503 1
      vertex -1.45623 -1.05801 1
      vertex -1.57735 -0.867156 1
    endloop
  endfacet
  facet normal 0 0 1
    outer loop
      vertex -3.94338 -2.16789 1
      vertex -1.57735 -0.867156 1
      vertex -1.6736 -0.662623 1
    endloop
  endfacet
  facet normal 0 0 1
    outer loop
      vertex -4.18399 -1.65656 1
      vertex -1.6736 -0.662623 1
      vertex -1.74345 -0.447641 1
    endloop
  endfacet
  facet normal 0 0 1
    outer loop
      vertex -4.35862 -1.1191 1
      vertex -1.74345 -0.447641 1
      vertex -1.78581 -0.225599 1
    endloop
  endfacet
  facet normal 0 0 1
    outer loop
      vertex -0.766402 -1.62869 1
      vertex -1.91601 -4.07172 1
      vertex -1.39058 -4.27975 1
    endloop
  endfacet
  facet normal 0 0 1
    outer loop
      vertex -4.46452 -0.563999 1
      vertex -1.78581 -0.225599 1
      vertex -1.8 0 1
    endloop
  endfacet
  facet normal -0 0 1
    outer loop
      vertex -3.94338 2.16789 1
      vertex -1.57735 0.867156 1
      vertex -3.64058 2.64503 1
    endloop
  endfacet
  facet normal 0 0 1
    outer loop
      vertex -1.57735 0.867156 1
      vertex -3.94338 2.16789 1
      vertex -1.6736 0.662623 1
    endloop
  endfacet
  facet normal 0 0 1
    outer loop
      vertex -0.964488 -1.51979 1
      vertex -2.41122 -3.79947 1
      vertex -1.91601 -4.07172 1
    endloop
  endfacet
  facet normal -0 0 1
    outer loop
      vertex -4.18399 1.65656 1
      vertex -1.6736 0.662623 1
      vertex -3.94338 2.16789 1
    endloop
  endfacet
  facet normal 0 0 1
    outer loop
      vertex -1.14736 -1.38692 1
      vertex -2.86841 -3.46731 1
      vertex -2.41122 -3.79947 1
    endloop
  endfacet
  facet normal 0 0 1
    outer loop
      vertex -1.6736 0.662623 1
      vertex -4.18399 1.65656 1
      vertex -1.74345 0.447641 1
    endloop
  endfacet
  facet normal 0 0 1
    outer loop
      vertex -1.31214 -1.23218 1
      vertex -3.28036 -3.08046 1
      vertex -2.86841 -3.46731 1
    endloop
  endfacet
  facet normal -0 0 1
    outer loop
      vertex -4.35862 1.1191 1
      vertex -1.74345 0.447641 1
      vertex -4.18399 1.65656 1
    endloop
  endfacet
  facet normal 0 0 1
    outer loop
      vertex -1.45623 -1.05801 1
      vertex -3.64058 -2.64503 1
      vertex -3.28036 -3.08046 1
    endloop
  endfacet
  facet normal 0 0 1
    outer loop
      vertex -1.74345 0.447641 1
      vertex -4.35862 1.1191 1
      vertex -1.78581 0.225599 1
    endloop
  endfacet
  facet normal 0 0 1
    outer loop
      vertex -1.57735 -0.867156 1
      vertex -3.94338 -2.16789 1
      vertex -3.64058 -2.64503 1
    endloop
  endfacet
  facet normal -0 0 1
    outer loop
      vertex -4.46452 0.563999 1
      vertex -1.78581 0.225599 1
      vertex -4.35862 1.1191 1
    endloop
  endfacet
  facet normal 0 0 1
    outer loop
      vertex -1.6736 -0.662623 1
      vertex -4.18399 -1.65656 1
      vertex -3.94338 -2.16789 1
    endloop
  endfacet
  facet normal 0 0 1
    outer loop
      vertex -1.78581 0.225599 1
      vertex -4.46452 0.563999 1
      vertex -1.8 0 1
    endloop
  endfacet
  facet normal 0 0 1
    outer loop
      vertex -1.74345 -0.447641 1
      vertex -4.35862 -1.1191 1
      vertex -4.18399 -1.65656 1
    endloop
  endfacet
  facet normal 0 0 1
    outer loop
      vertex -4.5 0 1
      vertex -1.8 0 1
      vertex -4.46452 0.563999 1
    endloop
  endfacet
  facet normal 0 0 1
    outer loop
      vertex -1.78581 -0.225599 1
      vertex -4.46452 -0.563999 1
      vertex -4.35862 -1.1191 1
    endloop
  endfacet
  facet normal 0 0 1
    outer loop
      vertex -1.8 0 1
      vertex -4.5 0 1
      vertex -4.46452 -0.563999 1
    endloop
  endfacet
  facet normal -0.587776 0.809024 0
    outer loop
      vertex -2.41122 3.79947 -1
      vertex -2.86841 3.46731 1
      vertex -2.41122 3.79947 1
    endloop
  endfacet
  facet normal -0.587776 0.809024 0
    outer loop
      vertex -2.86841 3.46731 1
      vertex -2.41122 3.79947 -1
      vertex -2.86841 3.46731 -1
    endloop
  endfacet
  facet normal -0.125337 0.992114 0
    outer loop
      vertex -0.282557 4.49112 -1
      vertex -0.843215 4.42029 1
      vertex -0.282557 4.49112 1
    endloop
  endfacet
  facet normal -0.125337 0.992114 0
    outer loop
      vertex -0.843215 4.42029 1
      vertex -0.282557 4.49112 -1
      vertex -0.843215 4.42029 -1
    endloop
  endfacet
  facet normal 0.998027 -0.0627838 0
    outer loop
      vertex 4.46452 -0.563999 1
      vertex 4.5 0 -1
      vertex 4.5 0 1
    endloop
  endfacet
  facet normal 0.998027 -0.0627838 0
    outer loop
      vertex 4.5 0 -1
      vertex 4.46452 -0.563999 1
      vertex 4.46452 -0.563999 -1
    endloop
  endfacet
  facet normal 0.84433 -0.535824 0
    outer loop
      vertex 3.64058 -2.64503 1
      vertex 3.94338 -2.16789 -1
      vertex 3.94338 -2.16789 1
    endloop
  endfacet
  facet normal 0.84433 -0.535824 0
    outer loop
      vertex 3.94338 -2.16789 -1
      vertex 3.64058 -2.64503 1
      vertex 3.64058 -2.64503 -1
    endloop
  endfacet
  facet normal 0.982284 -0.187396 0
    outer loop
      vertex 4.35862 -1.1191 1
      vertex 4.46452 -0.563999 -1
      vertex 4.46452 -0.563999 1
    endloop
  endfacet
  facet normal 0.982284 -0.187396 0
    outer loop
      vertex 4.46452 -0.563999 -1
      vertex 4.35862 -1.1191 1
      vertex 4.35862 -1.1191 -1
    endloop
  endfacet
  facet normal -0.68455 -0.728966 0
    outer loop
      vertex -3.28036 -3.08046 -1
      vertex -2.86841 -3.46731 1
      vertex -3.28036 -3.08046 1
    endloop
  endfacet
  facet normal -0.68455 -0.728966 -0
    outer loop
      vertex -2.86841 -3.46731 1
      vertex -3.28036 -3.08046 -1
      vertex -2.86841 -3.46731 -1
    endloop
  endfacet
  facet normal -0.90483 -0.425774 0
    outer loop
      vertex -3.94338 -2.16789 -1
      vertex -4.18399 -1.65656 1
      vertex -4.18399 -1.65656 -1
    endloop
  endfacet
  facet normal -0.90483 -0.425774 0
    outer loop
      vertex -4.18399 -1.65656 1
      vertex -3.94338 -2.16789 -1
      vertex -3.94338 -2.16789 1
    endloop
  endfacet
  facet normal -0.84433 -0.535824 0
    outer loop
      vertex -3.64058 -2.64503 -1
      vertex -3.94338 -2.16789 1
      vertex -3.94338 -2.16789 -1
    endloop
  endfacet
  facet normal -0.84433 -0.535824 0
    outer loop
      vertex -3.94338 -2.16789 1
      vertex -3.64058 -2.64503 -1
      vertex -3.64058 -2.64503 1
    endloop
  endfacet
  facet normal 0 0 -1
    outer loop
      vertex 1.8 0 -1
      vertex 4.5 0 -1
      vertex 4.46452 -0.563999 -1
    endloop
  endfacet
  facet normal 0 0 -1
    outer loop
      vertex 1.78581 -0.225599 -1
      vertex 4.46452 -0.563999 -1
      vertex 4.35862 -1.1191 -1
    endloop
  endfacet
  facet normal 0 0 -1
    outer loop
      vertex 4.5 0 -1
      vertex 1.8 0 -1
      vertex 4.46452 0.563999 -1
    endloop
  endfacet
  facet normal 0 0 -1
    outer loop
      vertex 1.74345 -0.447641 -1
      vertex 4.35862 -1.1191 -1
      vertex 4.18399 -1.65656 -1
    endloop
  endfacet
  facet normal 0 0 -1
    outer loop
      vertex 1.78581 0.225599 -1
      vertex 4.46452 0.563999 -1
      vertex 1.8 0 -1
    endloop
  endfacet
  facet normal 0 0 -1
    outer loop
      vertex 1.6736 -0.662623 -1
      vertex 4.18399 -1.65656 -1
      vertex 3.94338 -2.16789 -1
    endloop
  endfacet
  facet normal -0 0 -1
    outer loop
      vertex 4.46452 0.563999 -1
      vertex 1.78581 0.225599 -1
      vertex 4.35862 1.1191 -1
    endloop
  endfacet
  facet normal 0 0 -1
    outer loop
      vertex 1.57735 -0.867156 -1
      vertex 3.94338 -2.16789 -1
      vertex 3.64058 -2.64503 -1
    endloop
  endfacet
  facet normal 0 0 -1
    outer loop
      vertex 1.74345 0.447641 -1
      vertex 4.35862 1.1191 -1
      vertex 1.78581 0.225599 -1
    endloop
  endfacet
  facet normal 0 0 -1
    outer loop
      vertex 1.45623 -1.05801 -1
      vertex 3.64058 -2.64503 -1
      vertex 3.28036 -3.08046 -1
    endloop
  endfacet
  facet normal -0 0 -1
    outer loop
      vertex 4.35862 1.1191 -1
      vertex 1.74345 0.447641 -1
      vertex 4.18399 1.65656 -1
    endloop
  endfacet
  facet normal 0 0 -1
    outer loop
      vertex 1.31214 -1.23218 -1
      vertex 3.28036 -3.08046 -1
      vertex 2.86841 -3.46731 -1
    endloop
  endfacet
  facet normal 0 0 -1
    outer loop
      vertex 1.6736 0.662623 -1
      vertex 4.18399 1.65656 -1
      vertex 1.74345 0.447641 -1
    endloop
  endfacet
  facet normal 0 0 -1
    outer loop
      vertex 1.14736 -1.38692 -1
      vertex 2.86841 -3.46731 -1
      vertex 2.41122 -3.79947 -1
    endloop
  endfacet
  facet normal -0 0 -1
    outer loop
      vertex 4.18399 1.65656 -1
      vertex 1.6736 0.662623 -1
      vertex 3.94338 2.16789 -1
    endloop
  endfacet
  facet normal 0 0 -1
    outer loop
      vertex 0.964488 -1.51979 -1
      vertex 2.41122 -3.79947 -1
      vertex 1.91601 -4.07172 -1
    endloop
  endfacet
  facet normal 0 0 -1
    outer loop
      vertex 1.57735 0.867156 -1
      vertex 3.94338 2.16789 -1
      vertex 1.6736 0.662623 -1
    endloop
  endfacet
  facet normal -0 0 -1
    outer loop
      vertex 3.94338 2.16789 -1
      vertex 1.57735 0.867156 -1
      vertex 3.64058 2.64503 -1
    endloop
  endfacet
  facet normal 0 0 -1
    outer loop
      vertex 4.46452 -0.563999 -1
      vertex 1.78581 -0.225599 -1
      vertex 1.8 0 -1
    endloop
  endfacet
  facet normal 0 0 -1
    outer loop
      vertex 4.35862 -1.1191 -1
      vertex 1.74345 -0.447641 -1
      vertex 1.78581 -0.225599 -1
    endloop
  endfacet
  facet normal 0 0 -1
    outer loop
      vertex 4.18399 -1.65656 -1
      vertex 1.6736 -0.662623 -1
      vertex 1.74345 -0.447641 -1
    endloop
  endfacet
  facet normal 0 0 -1
    outer loop
      vertex 3.94338 -2.16789 -1
      vertex 1.57735 -0.867156 -1
      vertex 1.6736 -0.662623 -1
    endloop
  endfacet
  facet normal 0 0 -1
    outer loop
      vertex 3.64058 -2.64503 -1
      vertex 1.45623 -1.05801 -1
      vertex 1.57735 -0.867156 -1
    endloop
  endfacet
  facet normal 0 0 -1
    outer loop
      vertex 0.766402 -1.62869 -1
      vertex 1.91601 -4.07172 -1
      vertex 1.39058 -4.27975 -1
    endloop
  endfacet
  facet normal 0 0 -1
    outer loop
      vertex 3.28036 -3.08046 -1
      vertex 1.31214 -1.23218 -1
      vertex 1.45623 -1.05801 -1
    endloop
  endfacet
  facet normal 0 0 -1
    outer loop
      vertex 2.86841 -3.46731 -1
      vertex 1.14736 -1.38692 -1
      vertex 1.31214 -1.23218 -1
    endloop
  endfacet
  facet normal 0 0 -1
    outer loop
      vertex 2.41122 -3.79947 -1
      vertex 0.964488 -1.51979 -1
      vertex 1.14736 -1.38692 -1
    endloop
  endfacet
  facet normal 0 0 -1
    outer loop
      vertex 0.556231 -1.7119 -1
      vertex 1.39058 -4.27975 -1
      vertex 0.843215 -4.42029 -1
    endloop
  endfacet
  facet normal 0 0 -1
    outer loop
      vertex 1.91601 -4.07172 -1
      vertex 0.766402 -1.62869 -1
      vertex 0.964488 -1.51979 -1
    endloop
  endfacet
  facet normal 0 0 -1
    outer loop
      vertex 1.39058 -4.27975 -1
      vertex 0.556231 -1.7119 -1
      vertex 0.766402 -1.62869 -1
    endloop
  endfacet
  facet normal 0 0 -1
    outer loop
      vertex 0.843215 -4.42029 -1
      vertex 0.337286 -1.76812 -1
      vertex 0.556231 -1.7119 -1
    endloop
  endfacet
  facet normal 0 0 -1
    outer loop
      vertex 0.282557 -4.49112 -1
      vertex 0.337286 -1.76812 -1
      vertex 0.843215 -4.42029 -1
    endloop
  endfacet
  facet normal 0 0 -1
    outer loop
      vertex 0.282557 -4.49112 -1
      vertex 0.113023 -1.79645 -1
      vertex 0.337286 -1.76812 -1
    endloop
  endfacet
  facet normal 0 0 -1
    outer loop
      vertex 0.282557 -4.49112 -1
      vertex -0.113023 -1.79645 -1
      vertex 0.113023 -1.79645 -1
    endloop
  endfacet
  facet normal 0 0 -1
    outer loop
      vertex -0.282557 -4.49112 -1
      vertex -0.113023 -1.79645 -1
      vertex 0.282557 -4.49112 -1
    endloop
  endfacet
  facet normal 0 0 -1
    outer loop
      vertex -0.282557 -4.49112 -1
      vertex -0.337286 -1.76812 -1
      vertex -0.113023 -1.79645 -1
    endloop
  endfacet
  facet normal 0 0 -1
    outer loop
      vertex -0.843215 -4.42029 -1
      vertex -0.337286 -1.76812 -1
      vertex -0.282557 -4.49112 -1
    endloop
  endfacet
  facet normal -0 0 -1
    outer loop
      vertex -0.337286 -1.76812 -1
      vertex -0.843215 -4.42029 -1
      vertex -0.556231 -1.7119 -1
    endloop
  endfacet
  facet normal 0 0 -1
    outer loop
      vertex -1.39058 -4.27975 -1
      vertex -0.556231 -1.7119 -1
      vertex -0.843215 -4.42029 -1
    endloop
  endfacet
  facet normal -0 0 -1
    outer loop
      vertex -0.556231 -1.7119 -1
      vertex -1.39058 -4.27975 -1
      vertex -0.766402 -1.62869 -1
    endloop
  endfacet
  facet normal 0 0 -1
    outer loop
      vertex -1.91601 -4.07172 -1
      vertex -0.766402 -1.62869 -1
      vertex -1.39058 -4.27975 -1
    endloop
  endfacet
  facet normal -0 0 -1
    outer loop
      vertex -0.766402 -1.62869 -1
      vertex -1.91601 -4.07172 -1
      vertex -0.964488 -1.51979 -1
    endloop
  endfacet
  facet normal 0 0 -1
    outer loop
      vertex -2.41122 -3.79947 -1
      vertex -0.964488 -1.51979 -1
      vertex -1.91601 -4.07172 -1
    endloop
  endfacet
  facet normal -0 0 -1
    outer loop
      vertex -0.964488 -1.51979 -1
      vertex -2.41122 -3.79947 -1
      vertex -1.14736 -1.38692 -1
    endloop
  endfacet
  facet normal 0 0 -1
    outer loop
      vertex -2.86841 -3.46731 -1
      vertex -1.14736 -1.38692 -1
      vertex -2.41122 -3.79947 -1
    endloop
  endfacet
  facet normal -0 0 -1
    outer loop
      vertex -1.14736 -1.38692 -1
      vertex -2.86841 -3.46731 -1
      vertex -1.31214 -1.23218 -1
    endloop
  endfacet
  facet normal 0 0 -1
    outer loop
      vertex -3.28036 -3.08046 -1
      vertex -1.31214 -1.23218 -1
      vertex -2.86841 -3.46731 -1
    endloop
  endfacet
  facet normal -0 0 -1
    outer loop
      vertex -1.31214 -1.23218 -1
      vertex -3.28036 -3.08046 -1
      vertex -1.45623 -1.05801 -1
    endloop
  endfacet
  facet normal -0 0 -1
    outer loop
      vertex -1.45623 -1.05801 -1
      vertex -3.64058 -2.64503 -1
      vertex -1.57735 -0.867156 -1
    endloop
  endfacet
  facet normal 0 0 -1
    outer loop
      vertex -3.64058 -2.64503 -1
      vertex -1.45623 -1.05801 -1
      vertex -3.28036 -3.08046 -1
    endloop
  endfacet
  facet normal 0 0 -1
    outer loop
      vertex 1.45623 1.05801 -1
      vertex 3.64058 2.64503 -1
      vertex 1.57735 0.867156 -1
    endloop
  endfacet
  facet normal -0 0 -1
    outer loop
      vertex 3.64058 2.64503 -1
      vertex 1.45623 1.05801 -1
      vertex 3.28036 3.08046 -1
    endloop
  endfacet
  facet normal 0 0 -1
    outer loop
      vertex 1.31214 1.23218 -1
      vertex 3.28036 3.08046 -1
      vertex 1.45623 1.05801 -1
    endloop
  endfacet
  facet normal -0 0 -1
    outer loop
      vertex 3.28036 3.08046 -1
      vertex 1.31214 1.23218 -1
      vertex 2.86841 3.46731 -1
    endloop
  endfacet
  facet normal 0 0 -1
    outer loop
      vertex 1.14736 1.38692 -1
      vertex 2.86841 3.46731 -1
      vertex 1.31214 1.23218 -1
    endloop
  endfacet
  facet normal -0 0 -1
    outer loop
      vertex 2.86841 3.46731 -1
      vertex 1.14736 1.38692 -1
      vertex 2.41122 3.79947 -1
    endloop
  endfacet
  facet normal 0 0 -1
    outer loop
      vertex 0.964488 1.51979 -1
      vertex 2.41122 3.79947 -1
      vertex 1.14736 1.38692 -1
    endloop
  endfacet
  facet normal -0 0 -1
    outer loop
      vertex 2.41122 3.79947 -1
      vertex 0.964488 1.51979 -1
      vertex 1.91601 4.07172 -1
    endloop
  endfacet
  facet normal 0 0 -1
    outer loop
      vertex 0.766402 1.62869 -1
      vertex 1.91601 4.07172 -1
      vertex 0.964488 1.51979 -1
    endloop
  endfacet
  facet normal -0 0 -1
    outer loop
      vertex 1.91601 4.07172 -1
      vertex 0.766402 1.62869 -1
      vertex 1.39058 4.27975 -1
    endloop
  endfacet
  facet normal 0 0 -1
    outer loop
      vertex 0.556231 1.7119 -1
      vertex 1.39058 4.27975 -1
      vertex 0.766402 1.62869 -1
    endloop
  endfacet
  facet normal -0 0 -1
    outer loop
      vertex 1.39058 4.27975 -1
      vertex 0.556231 1.7119 -1
      vertex 0.843215 4.42029 -1
    endloop
  endfacet
  facet normal 0 0 -1
    outer loop
      vertex 0.337286 1.76812 -1
      vertex 0.843215 4.42029 -1
      vertex 0.556231 1.7119 -1
    endloop
  endfacet
  facet normal 0 0 -1
    outer loop
      vertex 0.337286 1.76812 -1
      vertex 0.282557 4.49112 -1
      vertex 0.843215 4.42029 -1
    endloop
  endfacet
  facet normal 0 0 -1
    outer loop
      vertex 0.113023 1.79645 -1
      vertex 0.282557 4.49112 -1
      vertex 0.337286 1.76812 -1
    endloop
  endfacet
  facet normal 0 0 -1
    outer loop
      vertex -0.113023 1.79645 -1
      vertex 0.282557 4.49112 -1
      vertex 0.113023 1.79645 -1
    endloop
  endfacet
  facet normal 0 0 -1
    outer loop
      vertex -0.113023 1.79645 -1
      vertex -0.282557 4.49112 -1
      vertex 0.282557 4.49112 -1
    endloop
  endfacet
  facet normal 0 0 -1
    outer loop
      vertex -0.337286 1.76812 -1
      vertex -0.282557 4.49112 -1
      vertex -0.113023 1.79645 -1
    endloop
  endfacet
  facet normal 0 0 -1
    outer loop
      vertex -0.843215 4.42029 -1
      vertex -0.337286 1.76812 -1
      vertex -0.556231 1.7119 -1
    endloop
  endfacet
  facet normal 0 0 -1
    outer loop
      vertex -1.39058 4.27975 -1
      vertex -0.556231 1.7119 -1
      vertex -0.766402 1.62869 -1
    endloop
  endfacet
  facet normal 0 0 -1
    outer loop
      vertex -0.337286 1.76812 -1
      vertex -0.843215 4.42029 -1
      vertex -0.282557 4.49112 -1
    endloop
  endfacet
  facet normal 0 0 -1
    outer loop
      vertex -1.91601 4.07172 -1
      vertex -0.766402 1.62869 -1
      vertex -0.964488 1.51979 -1
    endloop
  endfacet
  facet normal 0 0 -1
    outer loop
      vertex -2.41122 3.79947 -1
      vertex -0.964488 1.51979 -1
      vertex -1.14736 1.38692 -1
    endloop
  endfacet
  facet normal 0 0 -1
    outer loop
      vertex -2.86841 3.46731 -1
      vertex -1.14736 1.38692 -1
      vertex -1.31214 1.23218 -1
    endloop
  endfacet
  facet normal 0 0 -1
    outer loop
      vertex -0.556231 1.7119 -1
      vertex -1.39058 4.27975 -1
      vertex -0.843215 4.42029 -1
    endloop
  endfacet
  facet normal 0 0 -1
    outer loop
      vertex -3.28036 3.08046 -1
      vertex -1.31214 1.23218 -1
      vertex -1.45623 1.05801 -1
    endloop
  endfacet
  facet normal 0 0 -1
    outer loop
      vertex -3.64058 2.64503 -1
      vertex -1.45623 1.05801 -1
      vertex -1.57735 0.867156 -1
    endloop
  endfacet
  facet normal 0 0 -1
    outer loop
      vertex -3.94338 2.16789 -1
      vertex -1.57735 0.867156 -1
      vertex -1.6736 0.662623 -1
    endloop
  endfacet
  facet normal 0 0 -1
    outer loop
      vertex -4.18399 1.65656 -1
      vertex -1.6736 0.662623 -1
      vertex -1.74345 0.447641 -1
    endloop
  endfacet
  facet normal 0 0 -1
    outer loop
      vertex -4.35862 1.1191 -1
      vertex -1.74345 0.447641 -1
      vertex -1.78581 0.225599 -1
    endloop
  endfacet
  facet normal 0 0 -1
    outer loop
      vertex -0.766402 1.62869 -1
      vertex -1.91601 4.07172 -1
      vertex -1.39058 4.27975 -1
    endloop
  endfacet
  facet normal 0 0 -1
    outer loop
      vertex -4.46452 0.563999 -1
      vertex -1.78581 0.225599 -1
      vertex -1.8 0 -1
    endloop
  endfacet
  facet normal 0 0 -1
    outer loop
      vertex -3.94338 -2.16789 -1
      vertex -1.57735 -0.867156 -1
      vertex -3.64058 -2.64503 -1
    endloop
  endfacet
  facet normal -0 0 -1
    outer loop
      vertex -1.57735 -0.867156 -1
      vertex -3.94338 -2.16789 -1
      vertex -1.6736 -0.662623 -1
    endloop
  endfacet
  facet normal 0 0 -1
    outer loop
      vertex -0.964488 1.51979 -1
      vertex -2.41122 3.79947 -1
      vertex -1.91601 4.07172 -1
    endloop
  endfacet
  facet normal 0 0 -1
    outer loop
      vertex -4.18399 -1.65656 -1
      vertex -1.6736 -0.662623 -1
      vertex -3.94338 -2.16789 -1
    endloop
  endfacet
  facet normal 0 0 -1
    outer loop
      vertex -1.14736 1.38692 -1
      vertex -2.86841 3.46731 -1
      vertex -2.41122 3.79947 -1
    endloop
  endfacet
  facet normal -0 0 -1
    outer loop
      vertex -1.6736 -0.662623 -1
      vertex -4.18399 -1.65656 -1
      vertex -1.74345 -0.447641 -1
    endloop
  endfacet
  facet normal 0 0 -1
    outer loop
      vertex -1.31214 1.23218 -1
      vertex -3.28036 3.08046 -1
      vertex -2.86841 3.46731 -1
    endloop
  endfacet
  facet normal 0 0 -1
    outer loop
      vertex -4.35862 -1.1191 -1
      vertex -1.74345 -0.447641 -1
      vertex -4.18399 -1.65656 -1
    endloop
  endfacet
  facet normal 0 0 -1
    outer loop
      vertex -1.45623 1.05801 -1
      vertex -3.64058 2.64503 -1
      vertex -3.28036 3.08046 -1
    endloop
  endfacet
  facet normal -0 0 -1
    outer loop
      vertex -1.74345 -0.447641 -1
      vertex -4.35862 -1.1191 -1
      vertex -1.78581 -0.225599 -1
    endloop
  endfacet
  facet normal 0 0 -1
    outer loop
      vertex -1.57735 0.867156 -1
      vertex -3.94338 2.16789 -1
      vertex -3.64058 2.64503 -1
    endloop
  endfacet
  facet normal 0 0 -1
    outer loop
      vertex -4.46452 -0.563999 -1
      vertex -1.78581 -0.225599 -1
      vertex -4.35862 -1.1191 -1
    endloop
  endfacet
  facet normal 0 0 -1
    outer loop
      vertex -1.6736 0.662623 -1
      vertex -4.18399 1.65656 -1
      vertex -3.94338 2.16789 -1
    endloop
  endfacet
  facet normal -0 0 -1
    outer loop
      vertex -1.78581 -0.225599 -1
      vertex -4.46452 -0.563999 -1
      vertex -1.8 0 -1
    endloop
  endfacet
  facet normal 0 0 -1
    outer loop
      vertex -1.74345 0.447641 -1
      vertex -4.35862 1.1191 -1
      vertex -4.18399 1.65656 -1
    endloop
  endfacet
  facet normal 0 0 -1
    outer loop
      vertex -4.5 0 -1
      vertex -1.8 0 -1
      vertex -4.46452 -0.563999 -1
    endloop
  endfacet
  facet normal 0 0 -1
    outer loop
      vertex -1.78581 0.225599 -1
      vertex -4.46452 0.563999 -1
      vertex -4.35862 1.1191 -1
    endloop
  endfacet
  facet normal 0 0 -1
    outer loop
      vertex -1.8 0 -1
      vertex -4.5 0 -1
      vertex -4.46452 0.563999 -1
    endloop
  endfacet
  facet normal 0.125337 -0.992114 0
    outer loop
      vertex 0.282557 -4.49112 -1
      vertex 0.843215 -4.42029 1
      vertex 0.282557 -4.49112 1
    endloop
  endfacet
  facet normal 0.125337 -0.992114 0
    outer loop
      vertex 0.843215 -4.42029 1
      vertex 0.282557 -4.49112 -1
      vertex 0.843215 -4.42029 -1
    endloop
  endfacet
  facet normal 0.587776 -0.809024 0
    outer loop
      vertex 2.41122 -3.79947 -1
      vertex 2.86841 -3.46731 1
      vertex 2.41122 -3.79947 1
    endloop
  endfacet
  facet normal 0.587776 -0.809024 0
    outer loop
      vertex 2.86841 -3.46731 1
      vertex 2.41122 -3.79947 -1
      vertex 2.86841 -3.46731 -1
    endloop
  endfacet
  facet normal 0.90483 -0.425774 0
    outer loop
      vertex 3.94338 -2.16789 1
      vertex 4.18399 -1.65656 -1
      vertex 4.18399 -1.65656 1
    endloop
  endfacet
  facet normal 0.90483 -0.425774 0
    outer loop
      vertex 4.18399 -1.65656 -1
      vertex 3.94338 -2.16789 1
      vertex 3.94338 -2.16789 -1
    endloop
  endfacet
  facet normal -0.248691 -0.968583 0
    outer loop
      vertex -1.39058 -4.27975 -1
      vertex -0.843215 -4.42029 1
      vertex -1.39058 -4.27975 1
    endloop
  endfacet
  facet normal -0.248691 -0.968583 -0
    outer loop
      vertex -0.843215 -4.42029 1
      vertex -1.39058 -4.27975 -1
      vertex -0.843215 -4.42029 -1
    endloop
  endfacet
  facet normal -0.770512 -0.637425 0
    outer loop
      vertex -3.28036 -3.08046 -1
      vertex -3.64058 -2.64503 1
      vertex -3.64058 -2.64503 -1
    endloop
  endfacet
  facet normal -0.770512 -0.637425 0
    outer loop
      vertex -3.64058 -2.64503 1
      vertex -3.28036 -3.08046 -1
      vertex -3.28036 -3.08046 1
    endloop
  endfacet
  facet normal -0.951057 -0.309015 0
    outer loop
      vertex -4.18399 -1.65656 -1
      vertex -4.35862 -1.1191 1
      vertex -4.35862 -1.1191 -1
    endloop
  endfacet
  facet normal -0.951057 -0.309015 0
    outer loop
      vertex -4.35862 -1.1191 1
      vertex -4.18399 -1.65656 -1
      vertex -4.18399 -1.65656 1
    endloop
  endfacet
  facet normal 0.770512 -0.637425 0
    outer loop
      vertex 3.28036 -3.08046 1
      vertex 3.64058 -2.64503 -1
      vertex 3.64058 -2.64503 1
    endloop
  endfacet
  facet normal 0.770512 -0.637425 0
    outer loop
      vertex 3.64058 -2.64503 -1
      vertex 3.28036 -3.08046 1
      vertex 3.28036 -3.08046 -1
    endloop
  endfacet
  facet normal 0.481762 -0.876302 0
    outer loop
      vertex 1.91601 -4.07172 -1
      vertex 2.41122 -3.79947 1
      vertex 1.91601 -4.07172 1
    endloop
  endfacet
  facet normal 0.481762 -0.876302 0
    outer loop
      vertex 2.41122 -3.79947 1
      vertex 1.91601 -4.07172 -1
      vertex 2.41122 -3.79947 -1
    endloop
  endfacet
  facet normal -0.125337 -0.992114 0
    outer loop
      vertex -0.843215 -4.42029 -1
      vertex -0.282557 -4.49112 1
      vertex -0.843215 -4.42029 1
    endloop
  endfacet
  facet normal -0.125337 -0.992114 -0
    outer loop
      vertex -0.282557 -4.49112 1
      vertex -0.843215 -4.42029 -1
      vertex -0.282557 -4.49112 -1
    endloop
  endfacet
  facet normal -0.368121 -0.929778 0
    outer loop
      vertex -1.91601 -4.07172 -1
      vertex -1.39058 -4.27975 1
      vertex -1.91601 -4.07172 1
    endloop
  endfacet
  facet normal -0.368121 -0.929778 -0
    outer loop
      vertex -1.39058 -4.27975 1
      vertex -1.91601 -4.07172 -1
      vertex -1.39058 -4.27975 -1
    endloop
  endfacet
  facet normal -0.982284 -0.187396 0
    outer loop
      vertex -4.35862 -1.1191 -1
      vertex -4.46452 -0.563999 1
      vertex -4.46452 -0.563999 -1
    endloop
  endfacet
  facet normal -0.982284 -0.187396 0
    outer loop
      vertex -4.46452 -0.563999 1
      vertex -4.35862 -1.1191 -1
      vertex -4.35862 -1.1191 1
    endloop
  endfacet
  facet normal -0.998027 -0.0627838 0
    outer loop
      vertex -4.46452 -0.563999 -1
      vertex -4.5 0 1
      vertex -4.5 0 -1
    endloop
  endfacet
  facet normal -0.998027 -0.0627838 0
    outer loop
      vertex -4.5 0 1
      vertex -4.46452 -0.563999 -1
      vertex -4.46452 -0.563999 1
    endloop
  endfacet
  facet normal 0.68455 -0.728966 0
    outer loop
      vertex 2.86841 -3.46731 -1
      vertex 3.28036 -3.08046 1
      vertex 2.86841 -3.46731 1
    endloop
  endfacet
  facet normal 0.68455 -0.728966 0
    outer loop
      vertex 3.28036 -3.08046 1
      vertex 2.86841 -3.46731 -1
      vertex 3.28036 -3.08046 -1
    endloop
  endfacet
  facet normal 0.248691 -0.968583 0
    outer loop
      vertex 0.843215 -4.42029 -1
      vertex 1.39058 -4.27975 1
      vertex 0.843215 -4.42029 1
    endloop
  endfacet
  facet normal 0.248691 -0.968583 0
    outer loop
      vertex 1.39058 -4.27975 1
      vertex 0.843215 -4.42029 -1
      vertex 1.39058 -4.27975 -1
    endloop
  endfacet
  facet normal -0.481762 -0.876302 0
    outer loop
      vertex -2.41122 -3.79947 -1
      vertex -1.91601 -4.07172 1
      vertex -2.41122 -3.79947 1
    endloop
  endfacet
  facet normal -0.481762 -0.876302 -0
    outer loop
      vertex -1.91601 -4.07172 1
      vertex -2.41122 -3.79947 -1
      vertex -1.91601 -4.07172 -1
    endloop
  endfacet
  facet normal -0.587776 -0.809024 0
    outer loop
      vertex -2.86841 -3.46731 -1
      vertex -2.41122 -3.79947 1
      vertex -2.86841 -3.46731 1
    endloop
  endfacet
  facet normal -0.587776 -0.809024 -0
    outer loop
      vertex -2.41122 -3.79947 1
      vertex -2.86841 -3.46731 -1
      vertex -2.41122 -3.79947 -1
    endloop
  endfacet
  facet normal 0.951059 -0.309009 0
    outer loop
      vertex -1.74345 0.447641 1
      vertex -1.6736 0.662623 -1
      vertex -1.6736 0.662623 1
    endloop
  endfacet
  facet normal 0.951059 -0.309009 0
    outer loop
      vertex -1.6736 0.662623 -1
      vertex -1.74345 0.447641 1
      vertex -1.74345 0.447641 -1
    endloop
  endfacet
  facet normal -0.844327 -0.535828 0
    outer loop
      vertex 1.57735 0.867156 -1
      vertex 1.45623 1.05801 1
      vertex 1.45623 1.05801 -1
    endloop
  endfacet
  facet normal -0.844327 -0.535828 0
    outer loop
      vertex 1.45623 1.05801 1
      vertex 1.57735 0.867156 -1
      vertex 1.57735 0.867156 1
    endloop
  endfacet
  facet normal -0.248708 -0.968578 0
    outer loop
      vertex 0.337286 1.76812 -1
      vertex 0.556231 1.7119 1
      vertex 0.337286 1.76812 1
    endloop
  endfacet
  facet normal -0.248708 -0.968578 -0
    outer loop
      vertex 0.556231 1.7119 1
      vertex 0.337286 1.76812 -1
      vertex 0.556231 1.7119 -1
    endloop
  endfacet
  facet normal -0.368115 -0.92978 0
    outer loop
      vertex 0.556231 1.7119 -1
      vertex 0.766402 1.62869 1
      vertex 0.556231 1.7119 1
    endloop
  endfacet
  facet normal -0.368115 -0.92978 -0
    outer loop
      vertex 0.766402 1.62869 1
      vertex 0.556231 1.7119 -1
      vertex 0.766402 1.62869 -1
    endloop
  endfacet
  facet normal 0.368115 -0.92978 0
    outer loop
      vertex -0.766402 1.62869 -1
      vertex -0.556231 1.7119 1
      vertex -0.766402 1.62869 1
    endloop
  endfacet
  facet normal 0.368115 -0.92978 0
    outer loop
      vertex -0.556231 1.7119 1
      vertex -0.766402 1.62869 -1
      vertex -0.556231 1.7119 -1
    endloop
  endfacet
  facet normal 0.90482 -0.425794 0
    outer loop
      vertex -1.6736 0.662623 1
      vertex -1.57735 0.867156 -1
      vertex -1.57735 0.867156 1
    endloop
  endfacet
  facet normal 0.90482 -0.425794 0
    outer loop
      vertex -1.57735 0.867156 -1
      vertex -1.6736 0.662623 1
      vertex -1.6736 0.662623 -1
    endloop
  endfacet
  facet normal -0.998028 0.0627752 0
    outer loop
      vertex 1.78581 -0.225599 -1
      vertex 1.8 0 1
      vertex 1.8 0 -1
    endloop
  endfacet
  facet normal -0.998028 0.0627752 0
    outer loop
      vertex 1.8 0 1
      vertex 1.78581 -0.225599 -1
      vertex 1.78581 -0.225599 1
    endloop
  endfacet
  facet normal -0.368115 0.92978 0
    outer loop
      vertex 0.766402 -1.62869 -1
      vertex 0.556231 -1.7119 1
      vertex 0.766402 -1.62869 1
    endloop
  endfacet
  facet normal -0.368115 0.92978 0
    outer loop
      vertex 0.556231 -1.7119 1
      vertex 0.766402 -1.62869 -1
      vertex 0.556231 -1.7119 -1
    endloop
  endfacet
  facet normal -0.68455 -0.728966 0
    outer loop
      vertex 1.14736 1.38692 -1
      vertex 1.31214 1.23218 1
      vertex 1.14736 1.38692 1
    endloop
  endfacet
  facet normal -0.68455 -0.728966 -0
    outer loop
      vertex 1.31214 1.23218 1
      vertex 1.14736 1.38692 -1
      vertex 1.31214 1.23218 -1
    endloop
  endfacet
  facet normal -0.125329 -0.992115 0
    outer loop
      vertex 0.113023 1.79645 -1
      vertex 0.337286 1.76812 1
      vertex 0.113023 1.79645 1
    endloop
  endfacet
  facet normal -0.125329 -0.992115 -0
    outer loop
      vertex 0.337286 1.76812 1
      vertex 0.113023 1.79645 -1
      vertex 0.337286 1.76812 -1
    endloop
  endfacet
  facet normal -0.587802 -0.809005 0
    outer loop
      vertex 0.964488 1.51979 -1
      vertex 1.14736 1.38692 1
      vertex 0.964488 1.51979 1
    endloop
  endfacet
  facet normal -0.587802 -0.809005 -0
    outer loop
      vertex 1.14736 1.38692 1
      vertex 0.964488 1.51979 -1
      vertex 1.14736 1.38692 -1
    endloop
  endfacet
  facet normal 0.770504 -0.637435 0
    outer loop
      vertex -1.45623 1.05801 1
      vertex -1.31214 1.23218 -1
      vertex -1.31214 1.23218 1
    endloop
  endfacet
  facet normal 0.770504 -0.637435 0
    outer loop
      vertex -1.31214 1.23218 -1
      vertex -1.45623 1.05801 1
      vertex -1.45623 1.05801 -1
    endloop
  endfacet
  facet normal 0.68455 -0.728966 0
    outer loop
      vertex -1.31214 1.23218 -1
      vertex -1.14736 1.38692 1
      vertex -1.31214 1.23218 1
    endloop
  endfacet
  facet normal 0.68455 -0.728966 0
    outer loop
      vertex -1.14736 1.38692 1
      vertex -1.31214 1.23218 -1
      vertex -1.14736 1.38692 -1
    endloop
  endfacet
  facet normal -0.998028 -0.0627752 0
    outer loop
      vertex 1.8 0 -1
      vertex 1.78581 0.225599 1
      vertex 1.78581 0.225599 -1
    endloop
  endfacet
  facet normal -0.998028 -0.0627752 0
    outer loop
      vertex 1.78581 0.225599 1
      vertex 1.8 0 -1
      vertex 1.8 0 1
    endloop
  endfacet
  facet normal -0.90482 0.425794 0
    outer loop
      vertex 1.57735 -0.867156 -1
      vertex 1.6736 -0.662623 1
      vertex 1.6736 -0.662623 -1
    endloop
  endfacet
  facet normal -0.90482 0.425794 0
    outer loop
      vertex 1.6736 -0.662623 1
      vertex 1.57735 -0.867156 -1
      vertex 1.57735 -0.867156 1
    endloop
  endfacet
  facet normal 0.248708 0.968578 -0
    outer loop
      vertex -0.337286 -1.76812 -1
      vertex -0.556231 -1.7119 1
      vertex -0.337286 -1.76812 1
    endloop
  endfacet
  facet normal 0.248708 0.968578 0
    outer loop
      vertex -0.556231 -1.7119 1
      vertex -0.337286 -1.76812 -1
      vertex -0.556231 -1.7119 -1
    endloop
  endfacet
  facet normal -0.248708 0.968578 0
    outer loop
      vertex 0.556231 -1.7119 -1
      vertex 0.337286 -1.76812 1
      vertex 0.556231 -1.7119 1
    endloop
  endfacet
  facet normal -0.248708 0.968578 0
    outer loop
      vertex 0.337286 -1.76812 1
      vertex 0.556231 -1.7119 -1
      vertex 0.337286 -1.76812 -1
    endloop
  endfacet
  facet normal -0.770504 -0.637435 0
    outer loop
      vertex 1.45623 1.05801 -1
      vertex 1.31214 1.23218 1
      vertex 1.31214 1.23218 -1
    endloop
  endfacet
  facet normal -0.770504 -0.637435 0
    outer loop
      vertex 1.31214 1.23218 1
      vertex 1.45623 1.05801 -1
      vertex 1.45623 1.05801 1
    endloop
  endfacet
  facet normal 0 -1 0
    outer loop
      vertex -0.113023 1.79645 -1
      vertex 0.113023 1.79645 1
      vertex -0.113023 1.79645 1
    endloop
  endfacet
  facet normal 0 -1 -0
    outer loop
      vertex 0.113023 1.79645 1
      vertex -0.113023 1.79645 -1
      vertex 0.113023 1.79645 -1
    endloop
  endfacet
  facet normal -0.481758 -0.876304 0
    outer loop
      vertex 0.766402 1.62869 -1
      vertex 0.964488 1.51979 1
      vertex 0.766402 1.62869 1
    endloop
  endfacet
  facet normal -0.481758 -0.876304 -0
    outer loop
      vertex 0.964488 1.51979 1
      vertex 0.766402 1.62869 -1
      vertex 0.964488 1.51979 -1
    endloop
  endfacet
  facet normal 0.998028 -0.0627752 0
    outer loop
      vertex -1.8 0 1
      vertex -1.78581 0.225599 -1
      vertex -1.78581 0.225599 1
    endloop
  endfacet
  facet normal 0.998028 -0.0627752 0
    outer loop
      vertex -1.78581 0.225599 -1
      vertex -1.8 0 1
      vertex -1.8 0 -1
    endloop
  endfacet
  facet normal 0.982285 -0.187395 0
    outer loop
      vertex -1.78581 0.225599 1
      vertex -1.74345 0.447641 -1
      vertex -1.74345 0.447641 1
    endloop
  endfacet
  facet normal 0.982285 -0.187395 0
    outer loop
      vertex -1.74345 0.447641 -1
      vertex -1.78581 0.225599 1
      vertex -1.78581 0.225599 -1
    endloop
  endfacet
  facet normal 0.844327 -0.535828 0
    outer loop
      vertex -1.57735 0.867156 1
      vertex -1.45623 1.05801 -1
      vertex -1.45623 1.05801 1
    endloop
  endfacet
  facet normal 0.844327 -0.535828 0
    outer loop
      vertex -1.45623 1.05801 -1
      vertex -1.57735 0.867156 1
      vertex -1.57735 0.867156 -1
    endloop
  endfacet
  facet normal 0.125329 -0.992115 0
    outer loop
      vertex -0.337286 1.76812 -1
      vertex -0.113023 1.79645 1
      vertex -0.337286 1.76812 1
    endloop
  endfacet
  facet normal 0.125329 -0.992115 0
    outer loop
      vertex -0.113023 1.79645 1
      vertex -0.337286 1.76812 -1
      vertex -0.113023 1.79645 -1
    endloop
  endfacet
  facet normal 0.248708 -0.968578 0
    outer loop
      vertex -0.556231 1.7119 -1
      vertex -0.337286 1.76812 1
      vertex -0.556231 1.7119 1
    endloop
  endfacet
  facet normal 0.248708 -0.968578 0
    outer loop
      vertex -0.337286 1.76812 1
      vertex -0.556231 1.7119 -1
      vertex -0.337286 1.76812 -1
    endloop
  endfacet
  facet normal 0.481758 -0.876304 0
    outer loop
      vertex -0.964488 1.51979 -1
      vertex -0.766402 1.62869 1
      vertex -0.964488 1.51979 1
    endloop
  endfacet
  facet normal 0.481758 -0.876304 0
    outer loop
      vertex -0.766402 1.62869 1
      vertex -0.964488 1.51979 -1
      vertex -0.766402 1.62869 -1
    endloop
  endfacet
  facet normal 0.587802 -0.809005 0
    outer loop
      vertex -1.14736 1.38692 -1
      vertex -0.964488 1.51979 1
      vertex -1.14736 1.38692 1
    endloop
  endfacet
  facet normal 0.587802 -0.809005 0
    outer loop
      vertex -0.964488 1.51979 1
      vertex -1.14736 1.38692 -1
      vertex -0.964488 1.51979 -1
    endloop
  endfacet
  facet normal -0.982285 0.187395 0
    outer loop
      vertex 1.74345 -0.447641 -1
      vertex 1.78581 -0.225599 1
      vertex 1.78581 -0.225599 -1
    endloop
  endfacet
  facet normal -0.982285 0.187395 0
    outer loop
      vertex 1.78581 -0.225599 1
      vertex 1.74345 -0.447641 -1
      vertex 1.74345 -0.447641 1
    endloop
  endfacet
  facet normal -0.125329 0.992115 0
    outer loop
      vertex 0.337286 -1.76812 -1
      vertex 0.113023 -1.79645 1
      vertex 0.337286 -1.76812 1
    endloop
  endfacet
  facet normal -0.125329 0.992115 0
    outer loop
      vertex 0.113023 -1.79645 1
      vertex 0.337286 -1.76812 -1
      vertex 0.113023 -1.79645 -1
    endloop
  endfacet
  facet normal -0.90482 -0.425794 0
    outer loop
      vertex 1.6736 0.662623 -1
      vertex 1.57735 0.867156 1
      vertex 1.57735 0.867156 -1
    endloop
  endfacet
  facet normal -0.90482 -0.425794 0
    outer loop
      vertex 1.57735 0.867156 1
      vertex 1.6736 0.662623 -1
      vertex 1.6736 0.662623 1
    endloop
  endfacet
  facet normal -0.951059 -0.309009 0
    outer loop
      vertex 1.74345 0.447641 -1
      vertex 1.6736 0.662623 1
      vertex 1.6736 0.662623 -1
    endloop
  endfacet
  facet normal -0.951059 -0.309009 0
    outer loop
      vertex 1.6736 0.662623 1
      vertex 1.74345 0.447641 -1
      vertex 1.74345 0.447641 1
    endloop
  endfacet
  facet normal -0.982285 -0.187395 0
    outer loop
      vertex 1.78581 0.225599 -1
      vertex 1.74345 0.447641 1
      vertex 1.74345 0.447641 -1
    endloop
  endfacet
  facet normal -0.982285 -0.187395 0
    outer loop
      vertex 1.74345 0.447641 1
      vertex 1.78581 0.225599 -1
      vertex 1.78581 0.225599 1
    endloop
  endfacet
  facet normal -0.481758 0.876304 0
    outer loop
      vertex 0.964488 -1.51979 -1
      vertex 0.766402 -1.62869 1
      vertex 0.964488 -1.51979 1
    endloop
  endfacet
  facet normal -0.481758 0.876304 0
    outer loop
      vertex 0.766402 -1.62869 1
      vertex 0.964488 -1.51979 -1
      vertex 0.766402 -1.62869 -1
    endloop
  endfacet
  facet normal -0.68455 0.728966 0
    outer loop
      vertex 1.31214 -1.23218 -1
      vertex 1.14736 -1.38692 1
      vertex 1.31214 -1.23218 1
    endloop
  endfacet
  facet normal -0.68455 0.728966 0
    outer loop
      vertex 1.14736 -1.38692 1
      vertex 1.31214 -1.23218 -1
      vertex 1.14736 -1.38692 -1
    endloop
  endfacet
  facet normal -0.770504 0.637435 0
    outer loop
      vertex 1.31214 -1.23218 -1
      vertex 1.45623 -1.05801 1
      vertex 1.45623 -1.05801 -1
    endloop
  endfacet
  facet normal -0.770504 0.637435 0
    outer loop
      vertex 1.45623 -1.05801 1
      vertex 1.31214 -1.23218 -1
      vertex 1.31214 -1.23218 1
    endloop
  endfacet
  facet normal 0.125329 0.992115 -0
    outer loop
      vertex -0.113023 -1.79645 -1
      vertex -0.337286 -1.76812 1
      vertex -0.113023 -1.79645 1
    endloop
  endfacet
  facet normal 0.125329 0.992115 0
    outer loop
      vertex -0.337286 -1.76812 1
      vertex -0.113023 -1.79645 -1
      vertex -0.337286 -1.76812 -1
    endloop
  endfacet
  facet normal 0.998028 0.0627752 0
    outer loop
      vertex -1.78581 -0.225599 1
      vertex -1.8 0 -1
      vertex -1.8 0 1
    endloop
  endfacet
  facet normal 0.998028 0.0627752 0
    outer loop
      vertex -1.8 0 -1
      vertex -1.78581 -0.225599 1
      vertex -1.78581 -0.225599 -1
    endloop
  endfacet
  facet normal 0.951059 0.309009 0
    outer loop
      vertex -1.6736 -0.662623 1
      vertex -1.74345 -0.447641 -1
      vertex -1.74345 -0.447641 1
    endloop
  endfacet
  facet normal 0.951059 0.309009 0
    outer loop
      vertex -1.74345 -0.447641 -1
      vertex -1.6736 -0.662623 1
      vertex -1.6736 -0.662623 -1
    endloop
  endfacet
  facet normal 0.770504 0.637435 0
    outer loop
      vertex -1.31214 -1.23218 1
      vertex -1.45623 -1.05801 -1
      vertex -1.45623 -1.05801 1
    endloop
  endfacet
  facet normal 0.770504 0.637435 0
    outer loop
      vertex -1.45623 -1.05801 -1
      vertex -1.31214 -1.23218 1
      vertex -1.31214 -1.23218 -1
    endloop
  endfacet
  facet normal -0.951059 0.309009 0
    outer loop
      vertex 1.6736 -0.662623 -1
      vertex 1.74345 -0.447641 1
      vertex 1.74345 -0.447641 -1
    endloop
  endfacet
  facet normal -0.951059 0.309009 0
    outer loop
      vertex 1.74345 -0.447641 1
      vertex 1.6736 -0.662623 -1
      vertex 1.6736 -0.662623 1
    endloop
  endfacet
  facet normal -0.587802 0.809005 0
    outer loop
      vertex 1.14736 -1.38692 -1
      vertex 0.964488 -1.51979 1
      vertex 1.14736 -1.38692 1
    endloop
  endfacet
  facet normal -0.587802 0.809005 0
    outer loop
      vertex 0.964488 -1.51979 1
      vertex 1.14736 -1.38692 -1
      vertex 0.964488 -1.51979 -1
    endloop
  endfacet
  facet normal -0.844327 0.535828 0
    outer loop
      vertex 1.45623 -1.05801 -1
      vertex 1.57735 -0.867156 1
      vertex 1.57735 -0.867156 -1
    endloop
  endfacet
  facet normal -0.844327 0.535828 0
    outer loop
      vertex 1.57735 -0.867156 1
      vertex 1.45623 -1.05801 -1
      vertex 1.45623 -1.05801 1
    endloop
  endfacet
  facet normal 0.587802 0.809005 -0
    outer loop
      vertex -0.964488 -1.51979 -1
      vertex -1.14736 -1.38692 1
      vertex -0.964488 -1.51979 1
    endloop
  endfacet
  facet normal 0.587802 0.809005 0
    outer loop
      vertex -1.14736 -1.38692 1
      vertex -0.964488 -1.51979 -1
      vertex -1.14736 -1.38692 -1
    endloop
  endfacet
  facet normal 0 1 -0
    outer loop
      vertex 0.113023 -1.79645 -1
      vertex -0.113023 -1.79645 1
      vertex 0.113023 -1.79645 1
    endloop
  endfacet
  facet normal 0 1 0
    outer loop
      vertex -0.113023 -1.79645 1
      vertex 0.113023 -1.79645 -1
      vertex -0.113023 -1.79645 -1
    endloop
  endfacet
  facet normal 0.982285 0.187395 0
    outer loop
      vertex -1.74345 -0.447641 1
      vertex -1.78581 -0.225599 -1
      vertex -1.78581 -0.225599 1
    endloop
  endfacet
  facet normal 0.982285 0.187395 0
    outer loop
      vertex -1.78581 -0.225599 -1
      vertex -1.74345 -0.447641 1
      vertex -1.74345 -0.447641 -1
    endloop
  endfacet
  facet normal 0.68455 0.728966 -0
    outer loop
      vertex -1.14736 -1.38692 -1
      vertex -1.31214 -1.23218 1
      vertex -1.14736 -1.38692 1
    endloop
  endfacet
  facet normal 0.68455 0.728966 0
    outer loop
      vertex -1.31214 -1.23218 1
      vertex -1.14736 -1.38692 -1
      vertex -1.31214 -1.23218 -1
    endloop
  endfacet
  facet normal 0.481758 0.876304 -0
    outer loop
      vertex -0.766402 -1.62869 -1
      vertex -0.964488 -1.51979 1
      vertex -0.766402 -1.62869 1
    endloop
  endfacet
  facet normal 0.481758 0.876304 0
    outer loop
      vertex -0.964488 -1.51979 1
      vertex -0.766402 -1.62869 -1
      vertex -0.964488 -1.51979 -1
    endloop
  endfacet
  facet normal 0.368115 0.92978 -0
    outer loop
      vertex -0.556231 -1.7119 -1
      vertex -0.766402 -1.62869 1
      vertex -0.556231 -1.7119 1
    endloop
  endfacet
  facet normal 0.368115 0.92978 0
    outer loop
      vertex -0.766402 -1.62869 1
      vertex -0.556231 -1.7119 -1
      vertex -0.766402 -1.62869 -1
    endloop
  endfacet
  facet normal 0.844327 0.535828 0
    outer loop
      vertex -1.45623 -1.05801 1
      vertex -1.57735 -0.867156 -1
      vertex -1.57735 -0.867156 1
    endloop
  endfacet
  facet normal 0.844327 0.535828 0
    outer loop
      vertex -1.57735 -0.867156 -1
      vertex -1.45623 -1.05801 1
      vertex -1.45623 -1.05801 -1
    endloop
  endfacet
  facet normal 0.90482 0.425794 0
    outer loop
      vertex -1.57735 -0.867156 1
      vertex -1.6736 -0.662623 -1
      vertex -1.6736 -0.662623 1
    endloop
  endfacet
  facet normal 0.90482 0.425794 0
    outer loop
      vertex -1.6736 -0.662623 -1
      vertex -1.57735 -0.867156 1
      vertex -1.57735 -0.867156 -1
    endloop
  endfacet
endsolid OpenSCAD_Model
