solid OpenSCAD_Model
  facet normal 0.904829 0.425775 0
    outer loop
      vertex 5.11377 2.02468 42
      vertex 4.81969 2.64964 -42
      vertex 4.81969 2.64964 42
    endloop
  endfacet
  facet normal 0.904829 0.425775 0
    outer loop
      vertex 4.81969 2.64964 -42
      vertex 5.11377 2.02468 42
      vertex 5.11377 2.02468 -42
    endloop
  endfacet
  facet normal 0.844326 0.53583 0
    outer loop
      vertex 4.81969 2.64964 42
      vertex 4.44959 3.23282 -42
      vertex 4.44959 3.23282 42
    endloop
  endfacet
  facet normal 0.844326 0.53583 0
    outer loop
      vertex 4.44959 3.23282 -42
      vertex 4.81969 2.64964 42
      vertex 4.81969 2.64964 -42
    endloop
  endfacet
  facet normal 0.368118 0.929779 -0
    outer loop
      vertex 2.34179 4.97655 -42
      vertex 1.69959 5.23081 42
      vertex 2.34179 4.97655 42
    endloop
  endfacet
  facet normal 0.368118 0.929779 0
    outer loop
      vertex 1.69959 5.23081 42
      vertex 2.34179 4.97655 -42
      vertex 1.69959 5.23081 -42
    endloop
  endfacet
  facet normal -0.368118 0.929779 0
    outer loop
      vertex -1.69959 5.23081 -42
      vertex -2.34179 4.97655 42
      vertex -1.69959 5.23081 42
    endloop
  endfacet
  facet normal -0.368118 0.929779 0
    outer loop
      vertex -2.34179 4.97655 42
      vertex -1.69959 5.23081 -42
      vertex -2.34179 4.97655 -42
    endloop
  endfacet
  facet normal -0.904829 0.425775 0
    outer loop
      vertex -5.11377 2.02468 -42
      vertex -4.81969 2.64964 42
      vertex -4.81969 2.64964 -42
    endloop
  endfacet
  facet normal -0.904829 0.425775 0
    outer loop
      vertex -4.81969 2.64964 42
      vertex -5.11377 2.02468 -42
      vertex -5.11377 2.02468 42
    endloop
  endfacet
  facet normal 0.998027 -0.0627918 0
    outer loop
      vertex 5.45663 -0.689332 42
      vertex 5.5 0 -42
      vertex 5.5 0 42
    endloop
  endfacet
  facet normal 0.998027 -0.0627918 0
    outer loop
      vertex 5.5 0 -42
      vertex 5.45663 -0.689332 42
      vertex 5.45663 -0.689332 -42
    endloop
  endfacet
  facet normal 0.684541 0.728974 -0
    outer loop
      vertex 4.00933 3.76501 -42
      vertex 3.50583 4.23782 42
      vertex 4.00933 3.76501 42
    endloop
  endfacet
  facet normal 0.684541 0.728974 0
    outer loop
      vertex 3.50583 4.23782 42
      vertex 4.00933 3.76501 -42
      vertex 3.50583 4.23782 -42
    endloop
  endfacet
  facet normal 0.125337 0.992114 -0
    outer loop
      vertex 1.0306 5.40258 -42
      vertex 0.345347 5.48915 42
      vertex 1.0306 5.40258 42
    endloop
  endfacet
  facet normal 0.125337 0.992114 0
    outer loop
      vertex 0.345347 5.48915 42
      vertex 1.0306 5.40258 -42
      vertex 0.345347 5.48915 -42
    endloop
  endfacet
  facet normal 0.48176 0.876303 -0
    outer loop
      vertex 2.94705 4.6438 -42
      vertex 2.34179 4.97655 42
      vertex 2.94705 4.6438 42
    endloop
  endfacet
  facet normal 0.48176 0.876303 0
    outer loop
      vertex 2.34179 4.97655 42
      vertex 2.94705 4.6438 -42
      vertex 2.34179 4.97655 -42
    endloop
  endfacet
  facet normal -0.998027 0.0627918 0
    outer loop
      vertex -5.5 0 -42
      vertex -5.45663 0.689332 42
      vertex -5.45663 0.689332 -42
    endloop
  endfacet
  facet normal -0.998027 0.0627918 0
    outer loop
      vertex -5.45663 0.689332 42
      vertex -5.5 0 -42
      vertex -5.5 0 42
    endloop
  endfacet
  facet normal -0.770517 0.637419 0
    outer loop
      vertex -4.44959 3.23282 -42
      vertex -4.00933 3.76501 42
      vertex -4.00933 3.76501 -42
    endloop
  endfacet
  facet normal -0.770517 0.637419 0
    outer loop
      vertex -4.00933 3.76501 42
      vertex -4.44959 3.23282 -42
      vertex -4.44959 3.23282 42
    endloop
  endfacet
  facet normal -0.125337 0.992114 0
    outer loop
      vertex -0.345347 5.48915 -42
      vertex -1.0306 5.40258 42
      vertex -0.345347 5.48915 42
    endloop
  endfacet
  facet normal -0.125337 0.992114 0
    outer loop
      vertex -1.0306 5.40258 42
      vertex -0.345347 5.48915 -42
      vertex -1.0306 5.40258 -42
    endloop
  endfacet
  facet normal -0.684541 0.728974 0
    outer loop
      vertex -3.50583 4.23782 -42
      vertex -4.00933 3.76501 42
      vertex -3.50583 4.23782 42
    endloop
  endfacet
  facet normal -0.684541 0.728974 0
    outer loop
      vertex -4.00933 3.76501 42
      vertex -3.50583 4.23782 -42
      vertex -4.00933 3.76501 -42
    endloop
  endfacet
  facet normal 0.48176 -0.876303 0
    outer loop
      vertex 2.34179 -4.97655 -42
      vertex 2.94705 -4.6438 42
      vertex 2.34179 -4.97655 42
    endloop
  endfacet
  facet normal 0.48176 -0.876303 0
    outer loop
      vertex 2.94705 -4.6438 42
      vertex 2.34179 -4.97655 -42
      vertex 2.94705 -4.6438 -42
    endloop
  endfacet
  facet normal 0.904829 -0.425775 0
    outer loop
      vertex 4.81969 -2.64964 42
      vertex 5.11377 -2.02468 -42
      vertex 5.11377 -2.02468 42
    endloop
  endfacet
  facet normal 0.904829 -0.425775 0
    outer loop
      vertex 5.11377 -2.02468 -42
      vertex 4.81969 -2.64964 42
      vertex 4.81969 -2.64964 -42
    endloop
  endfacet
  facet normal 0.982288 0.187377 0
    outer loop
      vertex 5.45663 0.689332 42
      vertex 5.32721 1.36779 -42
      vertex 5.32721 1.36779 42
    endloop
  endfacet
  facet normal 0.982288 0.187377 0
    outer loop
      vertex 5.32721 1.36779 -42
      vertex 5.45663 0.689332 42
      vertex 5.45663 0.689332 -42
    endloop
  endfacet
  facet normal 0.951055 0.309022 0
    outer loop
      vertex 5.32721 1.36779 42
      vertex 5.11377 2.02468 -42
      vertex 5.11377 2.02468 42
    endloop
  endfacet
  facet normal 0.951055 0.309022 0
    outer loop
      vertex 5.11377 2.02468 -42
      vertex 5.32721 1.36779 42
      vertex 5.32721 1.36779 -42
    endloop
  endfacet
  facet normal 0.770517 0.637419 0
    outer loop
      vertex 4.44959 3.23282 42
      vertex 4.00933 3.76501 -42
      vertex 4.00933 3.76501 42
    endloop
  endfacet
  facet normal 0.770517 0.637419 0
    outer loop
      vertex 4.00933 3.76501 -42
      vertex 4.44959 3.23282 42
      vertex 4.44959 3.23282 -42
    endloop
  endfacet
  facet normal 0 1 -0
    outer loop
      vertex 0.345347 5.48915 -42
      vertex -0.345347 5.48915 42
      vertex 0.345347 5.48915 42
    endloop
  endfacet
  facet normal 0 1 0
    outer loop
      vertex -0.345347 5.48915 42
      vertex 0.345347 5.48915 -42
      vertex -0.345347 5.48915 -42
    endloop
  endfacet
  facet normal 0.248693 0.968582 -0
    outer loop
      vertex 1.69959 5.23081 -42
      vertex 1.0306 5.40258 42
      vertex 1.69959 5.23081 42
    endloop
  endfacet
  facet normal 0.248693 0.968582 0
    outer loop
      vertex 1.0306 5.40258 42
      vertex 1.69959 5.23081 -42
      vertex 1.0306 5.40258 -42
    endloop
  endfacet
  facet normal 0.587788 0.809015 -0
    outer loop
      vertex 3.50583 4.23782 -42
      vertex 2.94705 4.6438 42
      vertex 3.50583 4.23782 42
    endloop
  endfacet
  facet normal 0.587788 0.809015 0
    outer loop
      vertex 2.94705 4.6438 42
      vertex 3.50583 4.23782 -42
      vertex 2.94705 4.6438 -42
    endloop
  endfacet
  facet normal 0 0 1
    outer loop
      vertex 5.25 0 42
      vertex 5.5 0 42
      vertex 5.45663 0.689332 42
    endloop
  endfacet
  facet normal 0 0 1
    outer loop
      vertex 5.2086 0.657999 42
      vertex 5.45663 0.689332 42
      vertex 5.32721 1.36779 42
    endloop
  endfacet
  facet normal 0 0 1
    outer loop
      vertex 5.5 0 42
      vertex 5.25 0 42
      vertex 5.45663 -0.689332 42
    endloop
  endfacet
  facet normal -0 0 1
    outer loop
      vertex 5.2086 -0.657999 42
      vertex 5.45663 -0.689332 42
      vertex 5.25 0 42
    endloop
  endfacet
  facet normal 0 0 1
    outer loop
      vertex 5.45663 0.689332 42
      vertex 5.2086 0.657999 42
      vertex 5.25 0 42
    endloop
  endfacet
  facet normal 0 0 1
    outer loop
      vertex 5.08506 1.30562 42
      vertex 5.32721 1.36779 42
      vertex 5.11377 2.02468 42
    endloop
  endfacet
  facet normal 0 0 1
    outer loop
      vertex 5.32721 1.36779 42
      vertex 5.08506 1.30562 42
      vertex 5.2086 0.657999 42
    endloop
  endfacet
  facet normal 0 0 1
    outer loop
      vertex 5.11377 2.02468 42
      vertex 4.88133 1.93265 42
      vertex 5.08506 1.30562 42
    endloop
  endfacet
  facet normal 0 0 1
    outer loop
      vertex 4.81969 2.64964 42
      vertex 4.88133 1.93265 42
      vertex 5.11377 2.02468 42
    endloop
  endfacet
  facet normal 0 0 1
    outer loop
      vertex 4.81969 2.64964 42
      vertex 4.60061 2.52921 42
      vertex 4.88133 1.93265 42
    endloop
  endfacet
  facet normal 0 0 1
    outer loop
      vertex 4.44959 3.23282 42
      vertex 4.60061 2.52921 42
      vertex 4.81969 2.64964 42
    endloop
  endfacet
  facet normal 0 0 1
    outer loop
      vertex 4.44959 3.23282 42
      vertex 4.24734 3.08587 42
      vertex 4.60061 2.52921 42
    endloop
  endfacet
  facet normal 0 0 1
    outer loop
      vertex 4.00933 3.76501 42
      vertex 4.24734 3.08587 42
      vertex 4.44959 3.23282 42
    endloop
  endfacet
  facet normal 0 0 1
    outer loop
      vertex 4.00933 3.76501 42
      vertex 3.82708 3.59387 42
      vertex 4.24734 3.08587 42
    endloop
  endfacet
  facet normal 0 0 1
    outer loop
      vertex 3.50583 4.23782 42
      vertex 3.82708 3.59387 42
      vertex 4.00933 3.76501 42
    endloop
  endfacet
  facet normal 0 0 1
    outer loop
      vertex 3.50583 4.23782 42
      vertex 3.34648 4.04519 42
      vertex 3.82708 3.59387 42
    endloop
  endfacet
  facet normal 0 0 1
    outer loop
      vertex 2.94705 4.6438 42
      vertex 3.34648 4.04519 42
      vertex 3.50583 4.23782 42
    endloop
  endfacet
  facet normal 0 0 1
    outer loop
      vertex 2.94705 4.6438 42
      vertex 2.81309 4.43272 42
      vertex 3.34648 4.04519 42
    endloop
  endfacet
  facet normal 0 0 1
    outer loop
      vertex 2.34179 4.97655 42
      vertex 2.81309 4.43272 42
      vertex 2.94705 4.6438 42
    endloop
  endfacet
  facet normal 0 0 1
    outer loop
      vertex 2.34179 4.97655 42
      vertex 2.23534 4.75034 42
      vertex 2.81309 4.43272 42
    endloop
  endfacet
  facet normal 0 0 1
    outer loop
      vertex 1.69959 5.23081 42
      vertex 2.23534 4.75034 42
      vertex 2.34179 4.97655 42
    endloop
  endfacet
  facet normal 0 0 1
    outer loop
      vertex 1.69959 5.23081 42
      vertex 1.62234 4.99305 42
      vertex 2.23534 4.75034 42
    endloop
  endfacet
  facet normal 0 0 1
    outer loop
      vertex 1.0306 5.40258 42
      vertex 1.62234 4.99305 42
      vertex 1.69959 5.23081 42
    endloop
  endfacet
  facet normal 0 0 1
    outer loop
      vertex 1.0306 5.40258 42
      vertex 0.983751 5.15701 42
      vertex 1.62234 4.99305 42
    endloop
  endfacet
  facet normal 0 0 1
    outer loop
      vertex 0.345347 5.48915 42
      vertex 0.983751 5.15701 42
      vertex 1.0306 5.40258 42
    endloop
  endfacet
  facet normal 0 0 1
    outer loop
      vertex 0.345347 5.48915 42
      vertex 0.32965 5.23964 42
      vertex 0.983751 5.15701 42
    endloop
  endfacet
  facet normal 0 0 1
    outer loop
      vertex 0.345347 5.48915 42
      vertex -0.32965 5.23964 42
      vertex 0.32965 5.23964 42
    endloop
  endfacet
  facet normal -0 0 1
    outer loop
      vertex -0.345347 5.48915 42
      vertex -0.32965 5.23964 42
      vertex 0.345347 5.48915 42
    endloop
  endfacet
  facet normal 0 0 1
    outer loop
      vertex -0.345347 5.48915 42
      vertex -0.983751 5.15701 42
      vertex -0.32965 5.23964 42
    endloop
  endfacet
  facet normal -0 0 1
    outer loop
      vertex -1.0306 5.40258 42
      vertex -0.983751 5.15701 42
      vertex -0.345347 5.48915 42
    endloop
  endfacet
  facet normal 0 0 1
    outer loop
      vertex -1.0306 5.40258 42
      vertex -1.62234 4.99305 42
      vertex -0.983751 5.15701 42
    endloop
  endfacet
  facet normal -0 0 1
    outer loop
      vertex -1.69959 5.23081 42
      vertex -1.62234 4.99305 42
      vertex -1.0306 5.40258 42
    endloop
  endfacet
  facet normal 0 0 1
    outer loop
      vertex -1.69959 5.23081 42
      vertex -2.23534 4.75034 42
      vertex -1.62234 4.99305 42
    endloop
  endfacet
  facet normal -0 0 1
    outer loop
      vertex -2.34179 4.97655 42
      vertex -2.23534 4.75034 42
      vertex -1.69959 5.23081 42
    endloop
  endfacet
  facet normal 0 0 1
    outer loop
      vertex -2.34179 4.97655 42
      vertex -2.81309 4.43272 42
      vertex -2.23534 4.75034 42
    endloop
  endfacet
  facet normal -0 0 1
    outer loop
      vertex -2.94705 4.6438 42
      vertex -2.81309 4.43272 42
      vertex -2.34179 4.97655 42
    endloop
  endfacet
  facet normal 0 0 1
    outer loop
      vertex -2.94705 4.6438 42
      vertex -3.34648 4.04519 42
      vertex -2.81309 4.43272 42
    endloop
  endfacet
  facet normal -0 0 1
    outer loop
      vertex -3.50583 4.23782 42
      vertex -3.34648 4.04519 42
      vertex -2.94705 4.6438 42
    endloop
  endfacet
  facet normal 0 0 1
    outer loop
      vertex -3.50583 4.23782 42
      vertex -3.82708 3.59387 42
      vertex -3.34648 4.04519 42
    endloop
  endfacet
  facet normal -0 0 1
    outer loop
      vertex -4.00933 3.76501 42
      vertex -3.82708 3.59387 42
      vertex -3.50583 4.23782 42
    endloop
  endfacet
  facet normal 0 0 1
    outer loop
      vertex -4.00933 3.76501 42
      vertex -4.24734 3.08587 42
      vertex -3.82708 3.59387 42
    endloop
  endfacet
  facet normal -0 0 1
    outer loop
      vertex -4.44959 3.23282 42
      vertex -4.24734 3.08587 42
      vertex -4.00933 3.76501 42
    endloop
  endfacet
  facet normal 0 0 1
    outer loop
      vertex -4.44959 3.23282 42
      vertex -4.60061 2.52921 42
      vertex -4.24734 3.08587 42
    endloop
  endfacet
  facet normal -0 0 1
    outer loop
      vertex -4.81969 2.64964 42
      vertex -4.60061 2.52921 42
      vertex -4.44959 3.23282 42
    endloop
  endfacet
  facet normal 0 0 1
    outer loop
      vertex -4.81969 2.64964 42
      vertex -4.88133 1.93265 42
      vertex -4.60061 2.52921 42
    endloop
  endfacet
  facet normal -0 0 1
    outer loop
      vertex -5.11377 2.02468 42
      vertex -4.88133 1.93265 42
      vertex -4.81969 2.64964 42
    endloop
  endfacet
  facet normal 0 0 1
    outer loop
      vertex -4.88133 1.93265 42
      vertex -5.11377 2.02468 42
      vertex -5.08506 1.30562 42
    endloop
  endfacet
  facet normal -0 0 1
    outer loop
      vertex -5.32721 1.36779 42
      vertex -5.08506 1.30562 42
      vertex -5.11377 2.02468 42
    endloop
  endfacet
  facet normal -0 0 1
    outer loop
      vertex -5.45663 0.689332 42
      vertex -5.2086 0.657999 42
      vertex -5.32721 1.36779 42
    endloop
  endfacet
  facet normal 0 0 1
    outer loop
      vertex -5.08506 1.30562 42
      vertex -5.32721 1.36779 42
      vertex -5.2086 0.657999 42
    endloop
  endfacet
  facet normal 0 0 1
    outer loop
      vertex 5.45663 -0.689332 42
      vertex 5.2086 -0.657999 42
      vertex 5.32721 -1.36779 42
    endloop
  endfacet
  facet normal -0 0 1
    outer loop
      vertex 5.08506 -1.30562 42
      vertex 5.32721 -1.36779 42
      vertex 5.2086 -0.657999 42
    endloop
  endfacet
  facet normal 0 0 1
    outer loop
      vertex 5.32721 -1.36779 42
      vertex 5.08506 -1.30562 42
      vertex 5.11377 -2.02468 42
    endloop
  endfacet
  facet normal -0 0 1
    outer loop
      vertex 4.88133 -1.93265 42
      vertex 5.11377 -2.02468 42
      vertex 5.08506 -1.30562 42
    endloop
  endfacet
  facet normal 0 0 1
    outer loop
      vertex 4.88133 -1.93265 42
      vertex 4.81969 -2.64964 42
      vertex 5.11377 -2.02468 42
    endloop
  endfacet
  facet normal -0 0 1
    outer loop
      vertex 4.60061 -2.52921 42
      vertex 4.81969 -2.64964 42
      vertex 4.88133 -1.93265 42
    endloop
  endfacet
  facet normal 0 0 1
    outer loop
      vertex 4.60061 -2.52921 42
      vertex 4.44959 -3.23282 42
      vertex 4.81969 -2.64964 42
    endloop
  endfacet
  facet normal -0 0 1
    outer loop
      vertex 4.24734 -3.08587 42
      vertex 4.44959 -3.23282 42
      vertex 4.60061 -2.52921 42
    endloop
  endfacet
  facet normal 0 0 1
    outer loop
      vertex 4.24734 -3.08587 42
      vertex 4.00933 -3.76501 42
      vertex 4.44959 -3.23282 42
    endloop
  endfacet
  facet normal -0 0 1
    outer loop
      vertex 3.82708 -3.59387 42
      vertex 4.00933 -3.76501 42
      vertex 4.24734 -3.08587 42
    endloop
  endfacet
  facet normal 0 0 1
    outer loop
      vertex 3.82708 -3.59387 42
      vertex 3.50583 -4.23782 42
      vertex 4.00933 -3.76501 42
    endloop
  endfacet
  facet normal -0 0 1
    outer loop
      vertex 3.34648 -4.04519 42
      vertex 3.50583 -4.23782 42
      vertex 3.82708 -3.59387 42
    endloop
  endfacet
  facet normal 0 0 1
    outer loop
      vertex 3.34648 -4.04519 42
      vertex 2.94705 -4.6438 42
      vertex 3.50583 -4.23782 42
    endloop
  endfacet
  facet normal -0 0 1
    outer loop
      vertex 2.81309 -4.43272 42
      vertex 2.94705 -4.6438 42
      vertex 3.34648 -4.04519 42
    endloop
  endfacet
  facet normal 0 0 1
    outer loop
      vertex 2.81309 -4.43272 42
      vertex 2.34179 -4.97655 42
      vertex 2.94705 -4.6438 42
    endloop
  endfacet
  facet normal -0 0 1
    outer loop
      vertex 2.23534 -4.75034 42
      vertex 2.34179 -4.97655 42
      vertex 2.81309 -4.43272 42
    endloop
  endfacet
  facet normal 0 0 1
    outer loop
      vertex 2.23534 -4.75034 42
      vertex 1.69959 -5.23081 42
      vertex 2.34179 -4.97655 42
    endloop
  endfacet
  facet normal -0 0 1
    outer loop
      vertex 1.62234 -4.99305 42
      vertex 1.69959 -5.23081 42
      vertex 2.23534 -4.75034 42
    endloop
  endfacet
  facet normal 0 0 1
    outer loop
      vertex 1.62234 -4.99305 42
      vertex 1.0306 -5.40258 42
      vertex 1.69959 -5.23081 42
    endloop
  endfacet
  facet normal -0 0 1
    outer loop
      vertex 0.983751 -5.15701 42
      vertex 1.0306 -5.40258 42
      vertex 1.62234 -4.99305 42
    endloop
  endfacet
  facet normal 0 0 1
    outer loop
      vertex 0.983751 -5.15701 42
      vertex 0.345347 -5.48915 42
      vertex 1.0306 -5.40258 42
    endloop
  endfacet
  facet normal -0 0 1
    outer loop
      vertex 0.32965 -5.23964 42
      vertex 0.345347 -5.48915 42
      vertex 0.983751 -5.15701 42
    endloop
  endfacet
  facet normal -0 0 1
    outer loop
      vertex -0.32965 -5.23964 42
      vertex 0.345347 -5.48915 42
      vertex 0.32965 -5.23964 42
    endloop
  endfacet
  facet normal 0 0 1
    outer loop
      vertex -0.32965 -5.23964 42
      vertex -0.345347 -5.48915 42
      vertex 0.345347 -5.48915 42
    endloop
  endfacet
  facet normal 0 0 1
    outer loop
      vertex -0.983751 -5.15701 42
      vertex -0.345347 -5.48915 42
      vertex -0.32965 -5.23964 42
    endloop
  endfacet
  facet normal 0 0 1
    outer loop
      vertex -0.983751 -5.15701 42
      vertex -1.0306 -5.40258 42
      vertex -0.345347 -5.48915 42
    endloop
  endfacet
  facet normal 0 0 1
    outer loop
      vertex -1.62234 -4.99305 42
      vertex -1.0306 -5.40258 42
      vertex -0.983751 -5.15701 42
    endloop
  endfacet
  facet normal 0 0 1
    outer loop
      vertex -1.62234 -4.99305 42
      vertex -1.69959 -5.23081 42
      vertex -1.0306 -5.40258 42
    endloop
  endfacet
  facet normal 0 0 1
    outer loop
      vertex -2.23534 -4.75034 42
      vertex -1.69959 -5.23081 42
      vertex -1.62234 -4.99305 42
    endloop
  endfacet
  facet normal 0 0 1
    outer loop
      vertex -2.23534 -4.75034 42
      vertex -2.34179 -4.97655 42
      vertex -1.69959 -5.23081 42
    endloop
  endfacet
  facet normal 0 0 1
    outer loop
      vertex -2.81309 -4.43272 42
      vertex -2.34179 -4.97655 42
      vertex -2.23534 -4.75034 42
    endloop
  endfacet
  facet normal 0 0 1
    outer loop
      vertex -2.81309 -4.43272 42
      vertex -2.94705 -4.6438 42
      vertex -2.34179 -4.97655 42
    endloop
  endfacet
  facet normal 0 0 1
    outer loop
      vertex -3.34648 -4.04519 42
      vertex -2.94705 -4.6438 42
      vertex -2.81309 -4.43272 42
    endloop
  endfacet
  facet normal 0 0 1
    outer loop
      vertex -3.34648 -4.04519 42
      vertex -3.50583 -4.23782 42
      vertex -2.94705 -4.6438 42
    endloop
  endfacet
  facet normal 0 0 1
    outer loop
      vertex -3.82708 -3.59387 42
      vertex -3.50583 -4.23782 42
      vertex -3.34648 -4.04519 42
    endloop
  endfacet
  facet normal 0 0 1
    outer loop
      vertex -3.82708 -3.59387 42
      vertex -4.00933 -3.76501 42
      vertex -3.50583 -4.23782 42
    endloop
  endfacet
  facet normal 0 0 1
    outer loop
      vertex -4.24734 -3.08587 42
      vertex -4.00933 -3.76501 42
      vertex -3.82708 -3.59387 42
    endloop
  endfacet
  facet normal 0 0 1
    outer loop
      vertex -4.24734 -3.08587 42
      vertex -4.44959 -3.23282 42
      vertex -4.00933 -3.76501 42
    endloop
  endfacet
  facet normal 0 0 1
    outer loop
      vertex -4.60061 -2.52921 42
      vertex -4.44959 -3.23282 42
      vertex -4.24734 -3.08587 42
    endloop
  endfacet
  facet normal 0 0 1
    outer loop
      vertex -4.60061 -2.52921 42
      vertex -4.81969 -2.64964 42
      vertex -4.44959 -3.23282 42
    endloop
  endfacet
  facet normal 0 0 1
    outer loop
      vertex -4.88133 -1.93265 42
      vertex -4.81969 -2.64964 42
      vertex -4.60061 -2.52921 42
    endloop
  endfacet
  facet normal 0 0 1
    outer loop
      vertex -5.11377 -2.02468 42
      vertex -4.88133 -1.93265 42
      vertex -5.08506 -1.30562 42
    endloop
  endfacet
  facet normal 0 0 1
    outer loop
      vertex -4.88133 -1.93265 42
      vertex -5.11377 -2.02468 42
      vertex -4.81969 -2.64964 42
    endloop
  endfacet
  facet normal 0 0 1
    outer loop
      vertex -5.32721 -1.36779 42
      vertex -5.08506 -1.30562 42
      vertex -5.2086 -0.657999 42
    endloop
  endfacet
  facet normal 0 0 1
    outer loop
      vertex -5.08506 -1.30562 42
      vertex -5.32721 -1.36779 42
      vertex -5.11377 -2.02468 42
    endloop
  endfacet
  facet normal 0 0 1
    outer loop
      vertex -5.45663 -0.689332 42
      vertex -5.2086 -0.657999 42
      vertex -5.25 0 42
    endloop
  endfacet
  facet normal 0 0 1
    outer loop
      vertex -5.2086 0.657999 42
      vertex -5.45663 0.689332 42
      vertex -5.25 0 42
    endloop
  endfacet
  facet normal 0 0 1
    outer loop
      vertex -5.5 0 42
      vertex -5.25 0 42
      vertex -5.45663 0.689332 42
    endloop
  endfacet
  facet normal 0 0 1
    outer loop
      vertex -5.2086 -0.657999 42
      vertex -5.45663 -0.689332 42
      vertex -5.32721 -1.36779 42
    endloop
  endfacet
  facet normal 0 0 1
    outer loop
      vertex -5.25 0 42
      vertex -5.5 0 42
      vertex -5.45663 -0.689332 42
    endloop
  endfacet
  facet normal -0.951055 0.309022 0
    outer loop
      vertex -5.32721 1.36779 -42
      vertex -5.11377 2.02468 42
      vertex -5.11377 2.02468 -42
    endloop
  endfacet
  facet normal -0.951055 0.309022 0
    outer loop
      vertex -5.11377 2.02468 42
      vertex -5.32721 1.36779 -42
      vertex -5.32721 1.36779 42
    endloop
  endfacet
  facet normal -0.982288 0.187377 0
    outer loop
      vertex -5.45663 0.689332 -42
      vertex -5.32721 1.36779 42
      vertex -5.32721 1.36779 -42
    endloop
  endfacet
  facet normal -0.982288 0.187377 0
    outer loop
      vertex -5.32721 1.36779 42
      vertex -5.45663 0.689332 -42
      vertex -5.45663 0.689332 42
    endloop
  endfacet
  facet normal -0.844326 0.53583 0
    outer loop
      vertex -4.81969 2.64964 -42
      vertex -4.44959 3.23282 42
      vertex -4.44959 3.23282 -42
    endloop
  endfacet
  facet normal -0.844326 0.53583 0
    outer loop
      vertex -4.44959 3.23282 42
      vertex -4.81969 2.64964 -42
      vertex -4.81969 2.64964 42
    endloop
  endfacet
  facet normal -0.248693 0.968582 0
    outer loop
      vertex -1.0306 5.40258 -42
      vertex -1.69959 5.23081 42
      vertex -1.0306 5.40258 42
    endloop
  endfacet
  facet normal -0.248693 0.968582 0
    outer loop
      vertex -1.69959 5.23081 42
      vertex -1.0306 5.40258 -42
      vertex -1.69959 5.23081 -42
    endloop
  endfacet
  facet normal -0.587788 0.809015 0
    outer loop
      vertex -2.94705 4.6438 -42
      vertex -3.50583 4.23782 42
      vertex -2.94705 4.6438 42
    endloop
  endfacet
  facet normal -0.587788 0.809015 0
    outer loop
      vertex -3.50583 4.23782 42
      vertex -2.94705 4.6438 -42
      vertex -3.50583 4.23782 -42
    endloop
  endfacet
  facet normal -0.48176 0.876303 0
    outer loop
      vertex -2.34179 4.97655 -42
      vertex -2.94705 4.6438 42
      vertex -2.34179 4.97655 42
    endloop
  endfacet
  facet normal -0.48176 0.876303 0
    outer loop
      vertex -2.94705 4.6438 42
      vertex -2.34179 4.97655 -42
      vertex -2.94705 4.6438 -42
    endloop
  endfacet
  facet normal 0.998027 0.0627918 0
    outer loop
      vertex 5.5 0 42
      vertex 5.45663 0.689332 -42
      vertex 5.45663 0.689332 42
    endloop
  endfacet
  facet normal 0.998027 0.0627918 0
    outer loop
      vertex 5.45663 0.689332 -42
      vertex 5.5 0 42
      vertex 5.5 0 -42
    endloop
  endfacet
  facet normal 0.951055 -0.309022 0
    outer loop
      vertex 5.11377 -2.02468 42
      vertex 5.32721 -1.36779 -42
      vertex 5.32721 -1.36779 42
    endloop
  endfacet
  facet normal 0.951055 -0.309022 0
    outer loop
      vertex 5.32721 -1.36779 -42
      vertex 5.11377 -2.02468 42
      vertex 5.11377 -2.02468 -42
    endloop
  endfacet
  facet normal 0 -1 0
    outer loop
      vertex -0.345347 -5.48915 -42
      vertex 0.345347 -5.48915 42
      vertex -0.345347 -5.48915 42
    endloop
  endfacet
  facet normal 0 -1 -0
    outer loop
      vertex 0.345347 -5.48915 42
      vertex -0.345347 -5.48915 -42
      vertex 0.345347 -5.48915 -42
    endloop
  endfacet
  facet normal -0.998027 -0.0627918 0
    outer loop
      vertex -5.45663 -0.689332 -42
      vertex -5.5 0 42
      vertex -5.5 0 -42
    endloop
  endfacet
  facet normal -0.998027 -0.0627918 0
    outer loop
      vertex -5.5 0 42
      vertex -5.45663 -0.689332 -42
      vertex -5.45663 -0.689332 42
    endloop
  endfacet
  facet normal 0 0 -1
    outer loop
      vertex 5.25 0 -42
      vertex 5.5 0 -42
      vertex 5.45663 -0.689332 -42
    endloop
  endfacet
  facet normal 0 0 -1
    outer loop
      vertex 5.2086 -0.657999 -42
      vertex 5.45663 -0.689332 -42
      vertex 5.32721 -1.36779 -42
    endloop
  endfacet
  facet normal 0 0 -1
    outer loop
      vertex 5.5 0 -42
      vertex 5.25 0 -42
      vertex 5.45663 0.689332 -42
    endloop
  endfacet
  facet normal 0 0 -1
    outer loop
      vertex 5.2086 0.657999 -42
      vertex 5.45663 0.689332 -42
      vertex 5.25 0 -42
    endloop
  endfacet
  facet normal 0 0 -1
    outer loop
      vertex 5.45663 -0.689332 -42
      vertex 5.2086 -0.657999 -42
      vertex 5.25 0 -42
    endloop
  endfacet
  facet normal 0 0 -1
    outer loop
      vertex 5.08506 -1.30562 -42
      vertex 5.32721 -1.36779 -42
      vertex 5.11377 -2.02468 -42
    endloop
  endfacet
  facet normal 0 0 -1
    outer loop
      vertex 5.32721 -1.36779 -42
      vertex 5.08506 -1.30562 -42
      vertex 5.2086 -0.657999 -42
    endloop
  endfacet
  facet normal 0 0 -1
    outer loop
      vertex 5.11377 -2.02468 -42
      vertex 4.88133 -1.93265 -42
      vertex 5.08506 -1.30562 -42
    endloop
  endfacet
  facet normal 0 0 -1
    outer loop
      vertex 4.81969 -2.64964 -42
      vertex 4.88133 -1.93265 -42
      vertex 5.11377 -2.02468 -42
    endloop
  endfacet
  facet normal 0 0 -1
    outer loop
      vertex 4.81969 -2.64964 -42
      vertex 4.60061 -2.52921 -42
      vertex 4.88133 -1.93265 -42
    endloop
  endfacet
  facet normal 0 0 -1
    outer loop
      vertex 4.44959 -3.23282 -42
      vertex 4.60061 -2.52921 -42
      vertex 4.81969 -2.64964 -42
    endloop
  endfacet
  facet normal 0 0 -1
    outer loop
      vertex 4.44959 -3.23282 -42
      vertex 4.24734 -3.08587 -42
      vertex 4.60061 -2.52921 -42
    endloop
  endfacet
  facet normal 0 0 -1
    outer loop
      vertex 4.00933 -3.76501 -42
      vertex 4.24734 -3.08587 -42
      vertex 4.44959 -3.23282 -42
    endloop
  endfacet
  facet normal 0 0 -1
    outer loop
      vertex 4.00933 -3.76501 -42
      vertex 3.82708 -3.59387 -42
      vertex 4.24734 -3.08587 -42
    endloop
  endfacet
  facet normal 0 0 -1
    outer loop
      vertex 3.50583 -4.23782 -42
      vertex 3.82708 -3.59387 -42
      vertex 4.00933 -3.76501 -42
    endloop
  endfacet
  facet normal 0 0 -1
    outer loop
      vertex 3.50583 -4.23782 -42
      vertex 3.34648 -4.04519 -42
      vertex 3.82708 -3.59387 -42
    endloop
  endfacet
  facet normal 0 0 -1
    outer loop
      vertex 2.94705 -4.6438 -42
      vertex 3.34648 -4.04519 -42
      vertex 3.50583 -4.23782 -42
    endloop
  endfacet
  facet normal 0 0 -1
    outer loop
      vertex 2.94705 -4.6438 -42
      vertex 2.81309 -4.43272 -42
      vertex 3.34648 -4.04519 -42
    endloop
  endfacet
  facet normal 0 0 -1
    outer loop
      vertex 2.34179 -4.97655 -42
      vertex 2.81309 -4.43272 -42
      vertex 2.94705 -4.6438 -42
    endloop
  endfacet
  facet normal 0 0 -1
    outer loop
      vertex 2.34179 -4.97655 -42
      vertex 2.23534 -4.75034 -42
      vertex 2.81309 -4.43272 -42
    endloop
  endfacet
  facet normal 0 0 -1
    outer loop
      vertex 1.69959 -5.23081 -42
      vertex 2.23534 -4.75034 -42
      vertex 2.34179 -4.97655 -42
    endloop
  endfacet
  facet normal 0 0 -1
    outer loop
      vertex 1.69959 -5.23081 -42
      vertex 1.62234 -4.99305 -42
      vertex 2.23534 -4.75034 -42
    endloop
  endfacet
  facet normal 0 0 -1
    outer loop
      vertex 1.0306 -5.40258 -42
      vertex 1.62234 -4.99305 -42
      vertex 1.69959 -5.23081 -42
    endloop
  endfacet
  facet normal 0 0 -1
    outer loop
      vertex 1.0306 -5.40258 -42
      vertex 0.983751 -5.15701 -42
      vertex 1.62234 -4.99305 -42
    endloop
  endfacet
  facet normal 0 0 -1
    outer loop
      vertex 0.345347 -5.48915 -42
      vertex 0.983751 -5.15701 -42
      vertex 1.0306 -5.40258 -42
    endloop
  endfacet
  facet normal 0 0 -1
    outer loop
      vertex 0.345347 -5.48915 -42
      vertex 0.32965 -5.23964 -42
      vertex 0.983751 -5.15701 -42
    endloop
  endfacet
  facet normal 0 0 -1
    outer loop
      vertex 0.345347 -5.48915 -42
      vertex -0.32965 -5.23964 -42
      vertex 0.32965 -5.23964 -42
    endloop
  endfacet
  facet normal 0 0 -1
    outer loop
      vertex -0.345347 -5.48915 -42
      vertex -0.32965 -5.23964 -42
      vertex 0.345347 -5.48915 -42
    endloop
  endfacet
  facet normal 0 0 -1
    outer loop
      vertex -0.345347 -5.48915 -42
      vertex -0.983751 -5.15701 -42
      vertex -0.32965 -5.23964 -42
    endloop
  endfacet
  facet normal 0 0 -1
    outer loop
      vertex -1.0306 -5.40258 -42
      vertex -0.983751 -5.15701 -42
      vertex -0.345347 -5.48915 -42
    endloop
  endfacet
  facet normal 0 0 -1
    outer loop
      vertex -1.0306 -5.40258 -42
      vertex -1.62234 -4.99305 -42
      vertex -0.983751 -5.15701 -42
    endloop
  endfacet
  facet normal 0 0 -1
    outer loop
      vertex -1.69959 -5.23081 -42
      vertex -1.62234 -4.99305 -42
      vertex -1.0306 -5.40258 -42
    endloop
  endfacet
  facet normal 0 0 -1
    outer loop
      vertex -1.69959 -5.23081 -42
      vertex -2.23534 -4.75034 -42
      vertex -1.62234 -4.99305 -42
    endloop
  endfacet
  facet normal 0 0 -1
    outer loop
      vertex -2.34179 -4.97655 -42
      vertex -2.23534 -4.75034 -42
      vertex -1.69959 -5.23081 -42
    endloop
  endfacet
  facet normal 0 0 -1
    outer loop
      vertex -2.34179 -4.97655 -42
      vertex -2.81309 -4.43272 -42
      vertex -2.23534 -4.75034 -42
    endloop
  endfacet
  facet normal 0 0 -1
    outer loop
      vertex -2.94705 -4.6438 -42
      vertex -2.81309 -4.43272 -42
      vertex -2.34179 -4.97655 -42
    endloop
  endfacet
  facet normal 0 0 -1
    outer loop
      vertex -2.94705 -4.6438 -42
      vertex -3.34648 -4.04519 -42
      vertex -2.81309 -4.43272 -42
    endloop
  endfacet
  facet normal 0 0 -1
    outer loop
      vertex -3.50583 -4.23782 -42
      vertex -3.34648 -4.04519 -42
      vertex -2.94705 -4.6438 -42
    endloop
  endfacet
  facet normal 0 0 -1
    outer loop
      vertex -3.50583 -4.23782 -42
      vertex -3.82708 -3.59387 -42
      vertex -3.34648 -4.04519 -42
    endloop
  endfacet
  facet normal 0 0 -1
    outer loop
      vertex -4.00933 -3.76501 -42
      vertex -3.82708 -3.59387 -42
      vertex -3.50583 -4.23782 -42
    endloop
  endfacet
  facet normal 0 0 -1
    outer loop
      vertex -4.00933 -3.76501 -42
      vertex -4.24734 -3.08587 -42
      vertex -3.82708 -3.59387 -42
    endloop
  endfacet
  facet normal 0 0 -1
    outer loop
      vertex -4.44959 -3.23282 -42
      vertex -4.24734 -3.08587 -42
      vertex -4.00933 -3.76501 -42
    endloop
  endfacet
  facet normal 0 0 -1
    outer loop
      vertex -4.44959 -3.23282 -42
      vertex -4.60061 -2.52921 -42
      vertex -4.24734 -3.08587 -42
    endloop
  endfacet
  facet normal 0 0 -1
    outer loop
      vertex -4.81969 -2.64964 -42
      vertex -4.60061 -2.52921 -42
      vertex -4.44959 -3.23282 -42
    endloop
  endfacet
  facet normal 0 0 -1
    outer loop
      vertex -4.81969 -2.64964 -42
      vertex -4.88133 -1.93265 -42
      vertex -4.60061 -2.52921 -42
    endloop
  endfacet
  facet normal 0 0 -1
    outer loop
      vertex -5.11377 -2.02468 -42
      vertex -4.88133 -1.93265 -42
      vertex -4.81969 -2.64964 -42
    endloop
  endfacet
  facet normal -0 0 -1
    outer loop
      vertex -4.88133 -1.93265 -42
      vertex -5.11377 -2.02468 -42
      vertex -5.08506 -1.30562 -42
    endloop
  endfacet
  facet normal 0 0 -1
    outer loop
      vertex -5.32721 -1.36779 -42
      vertex -5.08506 -1.30562 -42
      vertex -5.11377 -2.02468 -42
    endloop
  endfacet
  facet normal 0 0 -1
    outer loop
      vertex -5.45663 -0.689332 -42
      vertex -5.2086 -0.657999 -42
      vertex -5.32721 -1.36779 -42
    endloop
  endfacet
  facet normal -0 0 -1
    outer loop
      vertex -5.08506 -1.30562 -42
      vertex -5.32721 -1.36779 -42
      vertex -5.2086 -0.657999 -42
    endloop
  endfacet
  facet normal -0 0 -1
    outer loop
      vertex 5.45663 0.689332 -42
      vertex 5.2086 0.657999 -42
      vertex 5.32721 1.36779 -42
    endloop
  endfacet
  facet normal 0 0 -1
    outer loop
      vertex 5.08506 1.30562 -42
      vertex 5.32721 1.36779 -42
      vertex 5.2086 0.657999 -42
    endloop
  endfacet
  facet normal -0 0 -1
    outer loop
      vertex 5.32721 1.36779 -42
      vertex 5.08506 1.30562 -42
      vertex 5.11377 2.02468 -42
    endloop
  endfacet
  facet normal 0 0 -1
    outer loop
      vertex 4.88133 1.93265 -42
      vertex 5.11377 2.02468 -42
      vertex 5.08506 1.30562 -42
    endloop
  endfacet
  facet normal 0 0 -1
    outer loop
      vertex 4.88133 1.93265 -42
      vertex 4.81969 2.64964 -42
      vertex 5.11377 2.02468 -42
    endloop
  endfacet
  facet normal 0 0 -1
    outer loop
      vertex 4.60061 2.52921 -42
      vertex 4.81969 2.64964 -42
      vertex 4.88133 1.93265 -42
    endloop
  endfacet
  facet normal 0 0 -1
    outer loop
      vertex 4.60061 2.52921 -42
      vertex 4.44959 3.23282 -42
      vertex 4.81969 2.64964 -42
    endloop
  endfacet
  facet normal 0 0 -1
    outer loop
      vertex 4.24734 3.08587 -42
      vertex 4.44959 3.23282 -42
      vertex 4.60061 2.52921 -42
    endloop
  endfacet
  facet normal 0 0 -1
    outer loop
      vertex 4.24734 3.08587 -42
      vertex 4.00933 3.76501 -42
      vertex 4.44959 3.23282 -42
    endloop
  endfacet
  facet normal 0 0 -1
    outer loop
      vertex 3.82708 3.59387 -42
      vertex 4.00933 3.76501 -42
      vertex 4.24734 3.08587 -42
    endloop
  endfacet
  facet normal 0 0 -1
    outer loop
      vertex 3.82708 3.59387 -42
      vertex 3.50583 4.23782 -42
      vertex 4.00933 3.76501 -42
    endloop
  endfacet
  facet normal 0 0 -1
    outer loop
      vertex 3.34648 4.04519 -42
      vertex 3.50583 4.23782 -42
      vertex 3.82708 3.59387 -42
    endloop
  endfacet
  facet normal 0 0 -1
    outer loop
      vertex 3.34648 4.04519 -42
      vertex 2.94705 4.6438 -42
      vertex 3.50583 4.23782 -42
    endloop
  endfacet
  facet normal 0 0 -1
    outer loop
      vertex 2.81309 4.43272 -42
      vertex 2.94705 4.6438 -42
      vertex 3.34648 4.04519 -42
    endloop
  endfacet
  facet normal 0 0 -1
    outer loop
      vertex 2.81309 4.43272 -42
      vertex 2.34179 4.97655 -42
      vertex 2.94705 4.6438 -42
    endloop
  endfacet
  facet normal 0 0 -1
    outer loop
      vertex 2.23534 4.75034 -42
      vertex 2.34179 4.97655 -42
      vertex 2.81309 4.43272 -42
    endloop
  endfacet
  facet normal 0 0 -1
    outer loop
      vertex 2.23534 4.75034 -42
      vertex 1.69959 5.23081 -42
      vertex 2.34179 4.97655 -42
    endloop
  endfacet
  facet normal 0 0 -1
    outer loop
      vertex 1.62234 4.99305 -42
      vertex 1.69959 5.23081 -42
      vertex 2.23534 4.75034 -42
    endloop
  endfacet
  facet normal 0 0 -1
    outer loop
      vertex 1.62234 4.99305 -42
      vertex 1.0306 5.40258 -42
      vertex 1.69959 5.23081 -42
    endloop
  endfacet
  facet normal 0 0 -1
    outer loop
      vertex 0.983751 5.15701 -42
      vertex 1.0306 5.40258 -42
      vertex 1.62234 4.99305 -42
    endloop
  endfacet
  facet normal 0 0 -1
    outer loop
      vertex 0.983751 5.15701 -42
      vertex 0.345347 5.48915 -42
      vertex 1.0306 5.40258 -42
    endloop
  endfacet
  facet normal 0 0 -1
    outer loop
      vertex 0.32965 5.23964 -42
      vertex 0.345347 5.48915 -42
      vertex 0.983751 5.15701 -42
    endloop
  endfacet
  facet normal 0 0 -1
    outer loop
      vertex -0.32965 5.23964 -42
      vertex 0.345347 5.48915 -42
      vertex 0.32965 5.23964 -42
    endloop
  endfacet
  facet normal 0 0 -1
    outer loop
      vertex -0.32965 5.23964 -42
      vertex -0.345347 5.48915 -42
      vertex 0.345347 5.48915 -42
    endloop
  endfacet
  facet normal 0 0 -1
    outer loop
      vertex -0.983751 5.15701 -42
      vertex -0.345347 5.48915 -42
      vertex -0.32965 5.23964 -42
    endloop
  endfacet
  facet normal 0 0 -1
    outer loop
      vertex -0.983751 5.15701 -42
      vertex -1.0306 5.40258 -42
      vertex -0.345347 5.48915 -42
    endloop
  endfacet
  facet normal 0 0 -1
    outer loop
      vertex -1.62234 4.99305 -42
      vertex -1.0306 5.40258 -42
      vertex -0.983751 5.15701 -42
    endloop
  endfacet
  facet normal 0 0 -1
    outer loop
      vertex -1.62234 4.99305 -42
      vertex -1.69959 5.23081 -42
      vertex -1.0306 5.40258 -42
    endloop
  endfacet
  facet normal 0 0 -1
    outer loop
      vertex -2.23534 4.75034 -42
      vertex -1.69959 5.23081 -42
      vertex -1.62234 4.99305 -42
    endloop
  endfacet
  facet normal 0 0 -1
    outer loop
      vertex -2.23534 4.75034 -42
      vertex -2.34179 4.97655 -42
      vertex -1.69959 5.23081 -42
    endloop
  endfacet
  facet normal 0 0 -1
    outer loop
      vertex -2.81309 4.43272 -42
      vertex -2.34179 4.97655 -42
      vertex -2.23534 4.75034 -42
    endloop
  endfacet
  facet normal 0 0 -1
    outer loop
      vertex -2.81309 4.43272 -42
      vertex -2.94705 4.6438 -42
      vertex -2.34179 4.97655 -42
    endloop
  endfacet
  facet normal 0 0 -1
    outer loop
      vertex -3.34648 4.04519 -42
      vertex -2.94705 4.6438 -42
      vertex -2.81309 4.43272 -42
    endloop
  endfacet
  facet normal 0 0 -1
    outer loop
      vertex -3.34648 4.04519 -42
      vertex -3.50583 4.23782 -42
      vertex -2.94705 4.6438 -42
    endloop
  endfacet
  facet normal 0 0 -1
    outer loop
      vertex -3.82708 3.59387 -42
      vertex -3.50583 4.23782 -42
      vertex -3.34648 4.04519 -42
    endloop
  endfacet
  facet normal 0 0 -1
    outer loop
      vertex -3.82708 3.59387 -42
      vertex -4.00933 3.76501 -42
      vertex -3.50583 4.23782 -42
    endloop
  endfacet
  facet normal 0 0 -1
    outer loop
      vertex -4.24734 3.08587 -42
      vertex -4.00933 3.76501 -42
      vertex -3.82708 3.59387 -42
    endloop
  endfacet
  facet normal 0 0 -1
    outer loop
      vertex -4.24734 3.08587 -42
      vertex -4.44959 3.23282 -42
      vertex -4.00933 3.76501 -42
    endloop
  endfacet
  facet normal 0 0 -1
    outer loop
      vertex -4.60061 2.52921 -42
      vertex -4.44959 3.23282 -42
      vertex -4.24734 3.08587 -42
    endloop
  endfacet
  facet normal 0 0 -1
    outer loop
      vertex -4.60061 2.52921 -42
      vertex -4.81969 2.64964 -42
      vertex -4.44959 3.23282 -42
    endloop
  endfacet
  facet normal 0 0 -1
    outer loop
      vertex -4.88133 1.93265 -42
      vertex -4.81969 2.64964 -42
      vertex -4.60061 2.52921 -42
    endloop
  endfacet
  facet normal 0 0 -1
    outer loop
      vertex -5.11377 2.02468 -42
      vertex -4.88133 1.93265 -42
      vertex -5.08506 1.30562 -42
    endloop
  endfacet
  facet normal 0 0 -1
    outer loop
      vertex -4.88133 1.93265 -42
      vertex -5.11377 2.02468 -42
      vertex -4.81969 2.64964 -42
    endloop
  endfacet
  facet normal 0 0 -1
    outer loop
      vertex -5.32721 1.36779 -42
      vertex -5.08506 1.30562 -42
      vertex -5.2086 0.657999 -42
    endloop
  endfacet
  facet normal 0 0 -1
    outer loop
      vertex -5.08506 1.30562 -42
      vertex -5.32721 1.36779 -42
      vertex -5.11377 2.02468 -42
    endloop
  endfacet
  facet normal 0 0 -1
    outer loop
      vertex -5.45663 0.689332 -42
      vertex -5.2086 0.657999 -42
      vertex -5.25 0 -42
    endloop
  endfacet
  facet normal -0 0 -1
    outer loop
      vertex -5.2086 -0.657999 -42
      vertex -5.45663 -0.689332 -42
      vertex -5.25 0 -42
    endloop
  endfacet
  facet normal 0 0 -1
    outer loop
      vertex -5.5 0 -42
      vertex -5.25 0 -42
      vertex -5.45663 -0.689332 -42
    endloop
  endfacet
  facet normal 0 0 -1
    outer loop
      vertex -5.2086 0.657999 -42
      vertex -5.45663 0.689332 -42
      vertex -5.32721 1.36779 -42
    endloop
  endfacet
  facet normal 0 0 -1
    outer loop
      vertex -5.25 0 -42
      vertex -5.5 0 -42
      vertex -5.45663 0.689332 -42
    endloop
  endfacet
  facet normal -0.904829 -0.425775 0
    outer loop
      vertex -4.81969 -2.64964 -42
      vertex -5.11377 -2.02468 42
      vertex -5.11377 -2.02468 -42
    endloop
  endfacet
  facet normal -0.904829 -0.425775 0
    outer loop
      vertex -5.11377 -2.02468 42
      vertex -4.81969 -2.64964 -42
      vertex -4.81969 -2.64964 42
    endloop
  endfacet
  facet normal 0.125337 -0.992114 0
    outer loop
      vertex 0.345347 -5.48915 -42
      vertex 1.0306 -5.40258 42
      vertex 0.345347 -5.48915 42
    endloop
  endfacet
  facet normal 0.125337 -0.992114 0
    outer loop
      vertex 1.0306 -5.40258 42
      vertex 0.345347 -5.48915 -42
      vertex 1.0306 -5.40258 -42
    endloop
  endfacet
  facet normal 0.368118 -0.929779 0
    outer loop
      vertex 1.69959 -5.23081 -42
      vertex 2.34179 -4.97655 42
      vertex 1.69959 -5.23081 42
    endloop
  endfacet
  facet normal 0.368118 -0.929779 0
    outer loop
      vertex 2.34179 -4.97655 42
      vertex 1.69959 -5.23081 -42
      vertex 2.34179 -4.97655 -42
    endloop
  endfacet
  facet normal 0.982288 -0.187377 0
    outer loop
      vertex 5.32721 -1.36779 42
      vertex 5.45663 -0.689332 -42
      vertex 5.45663 -0.689332 42
    endloop
  endfacet
  facet normal 0.982288 -0.187377 0
    outer loop
      vertex 5.45663 -0.689332 -42
      vertex 5.32721 -1.36779 42
      vertex 5.32721 -1.36779 -42
    endloop
  endfacet
  facet normal 0.684541 -0.728974 0
    outer loop
      vertex 3.50583 -4.23782 -42
      vertex 4.00933 -3.76501 42
      vertex 3.50583 -4.23782 42
    endloop
  endfacet
  facet normal 0.684541 -0.728974 0
    outer loop
      vertex 4.00933 -3.76501 42
      vertex 3.50583 -4.23782 -42
      vertex 4.00933 -3.76501 -42
    endloop
  endfacet
  facet normal 0.770517 -0.637419 0
    outer loop
      vertex 4.00933 -3.76501 42
      vertex 4.44959 -3.23282 -42
      vertex 4.44959 -3.23282 42
    endloop
  endfacet
  facet normal 0.770517 -0.637419 0
    outer loop
      vertex 4.44959 -3.23282 -42
      vertex 4.00933 -3.76501 42
      vertex 4.00933 -3.76501 -42
    endloop
  endfacet
  facet normal 0.844326 -0.53583 0
    outer loop
      vertex 4.44959 -3.23282 42
      vertex 4.81969 -2.64964 -42
      vertex 4.81969 -2.64964 42
    endloop
  endfacet
  facet normal 0.844326 -0.53583 0
    outer loop
      vertex 4.81969 -2.64964 -42
      vertex 4.44959 -3.23282 42
      vertex 4.44959 -3.23282 -42
    endloop
  endfacet
  facet normal -0.248693 -0.968582 0
    outer loop
      vertex -1.69959 -5.23081 -42
      vertex -1.0306 -5.40258 42
      vertex -1.69959 -5.23081 42
    endloop
  endfacet
  facet normal -0.248693 -0.968582 -0
    outer loop
      vertex -1.0306 -5.40258 42
      vertex -1.69959 -5.23081 -42
      vertex -1.0306 -5.40258 -42
    endloop
  endfacet
  facet normal -0.951055 -0.309022 0
    outer loop
      vertex -5.11377 -2.02468 -42
      vertex -5.32721 -1.36779 42
      vertex -5.32721 -1.36779 -42
    endloop
  endfacet
  facet normal -0.951055 -0.309022 0
    outer loop
      vertex -5.32721 -1.36779 42
      vertex -5.11377 -2.02468 -42
      vertex -5.11377 -2.02468 42
    endloop
  endfacet
  facet normal -0.982288 -0.187377 0
    outer loop
      vertex -5.32721 -1.36779 -42
      vertex -5.45663 -0.689332 42
      vertex -5.45663 -0.689332 -42
    endloop
  endfacet
  facet normal -0.982288 -0.187377 0
    outer loop
      vertex -5.45663 -0.689332 42
      vertex -5.32721 -1.36779 -42
      vertex -5.32721 -1.36779 42
    endloop
  endfacet
  facet normal 0.248693 -0.968582 0
    outer loop
      vertex 1.0306 -5.40258 -42
      vertex 1.69959 -5.23081 42
      vertex 1.0306 -5.40258 42
    endloop
  endfacet
  facet normal 0.248693 -0.968582 0
    outer loop
      vertex 1.69959 -5.23081 42
      vertex 1.0306 -5.40258 -42
      vertex 1.69959 -5.23081 -42
    endloop
  endfacet
  facet normal 0.587788 -0.809015 0
    outer loop
      vertex 2.94705 -4.6438 -42
      vertex 3.50583 -4.23782 42
      vertex 2.94705 -4.6438 42
    endloop
  endfacet
  facet normal 0.587788 -0.809015 0
    outer loop
      vertex 3.50583 -4.23782 42
      vertex 2.94705 -4.6438 -42
      vertex 3.50583 -4.23782 -42
    endloop
  endfacet
  facet normal -0.368118 -0.929779 0
    outer loop
      vertex -2.34179 -4.97655 -42
      vertex -1.69959 -5.23081 42
      vertex -2.34179 -4.97655 42
    endloop
  endfacet
  facet normal -0.368118 -0.929779 -0
    outer loop
      vertex -1.69959 -5.23081 42
      vertex -2.34179 -4.97655 -42
      vertex -1.69959 -5.23081 -42
    endloop
  endfacet
  facet normal -0.125337 -0.992114 0
    outer loop
      vertex -1.0306 -5.40258 -42
      vertex -0.345347 -5.48915 42
      vertex -1.0306 -5.40258 42
    endloop
  endfacet
  facet normal -0.125337 -0.992114 -0
    outer loop
      vertex -0.345347 -5.48915 42
      vertex -1.0306 -5.40258 -42
      vertex -0.345347 -5.48915 -42
    endloop
  endfacet
  facet normal -0.770517 -0.637419 0
    outer loop
      vertex -4.00933 -3.76501 -42
      vertex -4.44959 -3.23282 42
      vertex -4.44959 -3.23282 -42
    endloop
  endfacet
  facet normal -0.770517 -0.637419 0
    outer loop
      vertex -4.44959 -3.23282 42
      vertex -4.00933 -3.76501 -42
      vertex -4.00933 -3.76501 42
    endloop
  endfacet
  facet normal -0.684541 -0.728974 0
    outer loop
      vertex -4.00933 -3.76501 -42
      vertex -3.50583 -4.23782 42
      vertex -4.00933 -3.76501 42
    endloop
  endfacet
  facet normal -0.684541 -0.728974 -0
    outer loop
      vertex -3.50583 -4.23782 42
      vertex -4.00933 -3.76501 -42
      vertex -3.50583 -4.23782 -42
    endloop
  endfacet
  facet normal -0.844326 -0.53583 0
    outer loop
      vertex -4.44959 -3.23282 -42
      vertex -4.81969 -2.64964 42
      vertex -4.81969 -2.64964 -42
    endloop
  endfacet
  facet normal -0.844326 -0.53583 0
    outer loop
      vertex -4.81969 -2.64964 42
      vertex -4.44959 -3.23282 -42
      vertex -4.44959 -3.23282 42
    endloop
  endfacet
  facet normal -0.48176 -0.876303 0
    outer loop
      vertex -2.94705 -4.6438 -42
      vertex -2.34179 -4.97655 42
      vertex -2.94705 -4.6438 42
    endloop
  endfacet
  facet normal -0.48176 -0.876303 -0
    outer loop
      vertex -2.34179 -4.97655 42
      vertex -2.94705 -4.6438 -42
      vertex -2.34179 -4.97655 -42
    endloop
  endfacet
  facet normal -0.587788 -0.809015 0
    outer loop
      vertex -3.50583 -4.23782 -42
      vertex -2.94705 -4.6438 42
      vertex -3.50583 -4.23782 42
    endloop
  endfacet
  facet normal -0.587788 -0.809015 -0
    outer loop
      vertex -2.94705 -4.6438 42
      vertex -3.50583 -4.23782 -42
      vertex -2.94705 -4.6438 -42
    endloop
  endfacet
  facet normal -0.998027 -0.0627939 0
    outer loop
      vertex 5.25 0 -42
      vertex 5.2086 0.657999 42
      vertex 5.2086 0.657999 -42
    endloop
  endfacet
  facet normal -0.998027 -0.0627939 0
    outer loop
      vertex 5.2086 0.657999 42
      vertex 5.25 0 -42
      vertex 5.25 0 42
    endloop
  endfacet
  facet normal 0.998027 -0.0627939 0
    outer loop
      vertex -5.25 0 42
      vertex -5.2086 0.657999 -42
      vertex -5.2086 0.657999 42
    endloop
  endfacet
  facet normal 0.998027 -0.0627939 0
    outer loop
      vertex -5.2086 0.657999 -42
      vertex -5.25 0 42
      vertex -5.25 0 -42
    endloop
  endfacet
  facet normal 0 -1 0
    outer loop
      vertex -0.32965 5.23964 -42
      vertex 0.32965 5.23964 42
      vertex -0.32965 5.23964 42
    endloop
  endfacet
  facet normal 0 -1 -0
    outer loop
      vertex 0.32965 5.23964 42
      vertex -0.32965 5.23964 -42
      vertex 0.32965 5.23964 -42
    endloop
  endfacet
  facet normal -0.684552 -0.728964 0
    outer loop
      vertex 3.34648 4.04519 -42
      vertex 3.82708 3.59387 42
      vertex 3.34648 4.04519 42
    endloop
  endfacet
  facet normal -0.684552 -0.728964 -0
    outer loop
      vertex 3.82708 3.59387 42
      vertex 3.34648 4.04519 -42
      vertex 3.82708 3.59387 -42
    endloop
  endfacet
  facet normal 0.684552 -0.728964 0
    outer loop
      vertex -3.82708 3.59387 -42
      vertex -3.34648 4.04519 42
      vertex -3.82708 3.59387 42
    endloop
  endfacet
  facet normal 0.684552 -0.728964 0
    outer loop
      vertex -3.34648 4.04519 42
      vertex -3.82708 3.59387 -42
      vertex -3.34648 4.04519 -42
    endloop
  endfacet
  facet normal 0.368133 -0.929773 0
    outer loop
      vertex -2.23534 4.75034 -42
      vertex -1.62234 4.99305 42
      vertex -2.23534 4.75034 42
    endloop
  endfacet
  facet normal 0.368133 -0.929773 0
    outer loop
      vertex -1.62234 4.99305 42
      vertex -2.23534 4.75034 -42
      vertex -1.62234 4.99305 -42
    endloop
  endfacet
  facet normal -0.770509 0.637429 0
    outer loop
      vertex 3.82708 -3.59387 -42
      vertex 4.24734 -3.08587 42
      vertex 4.24734 -3.08587 -42
    endloop
  endfacet
  facet normal -0.770509 0.637429 0
    outer loop
      vertex 4.24734 -3.08587 42
      vertex 3.82708 -3.59387 -42
      vertex 3.82708 -3.59387 42
    endloop
  endfacet
  facet normal -0.904827 -0.42578 0
    outer loop
      vertex 4.88133 1.93265 -42
      vertex 4.60061 2.52921 42
      vertex 4.60061 2.52921 -42
    endloop
  endfacet
  facet normal -0.904827 -0.42578 0
    outer loop
      vertex 4.60061 2.52921 42
      vertex 4.88133 1.93265 -42
      vertex 4.88133 1.93265 42
    endloop
  endfacet
  facet normal -0.982287 -0.187381 0
    outer loop
      vertex 5.2086 0.657999 -42
      vertex 5.08506 1.30562 42
      vertex 5.08506 1.30562 -42
    endloop
  endfacet
  facet normal -0.982287 -0.187381 0
    outer loop
      vertex 5.08506 1.30562 42
      vertex 5.2086 0.657999 -42
      vertex 5.2086 0.657999 42
    endloop
  endfacet
  facet normal -0.368133 -0.929773 0
    outer loop
      vertex 1.62234 4.99305 -42
      vertex 2.23534 4.75034 42
      vertex 1.62234 4.99305 42
    endloop
  endfacet
  facet normal -0.368133 -0.929773 -0
    outer loop
      vertex 2.23534 4.75034 42
      vertex 1.62234 4.99305 -42
      vertex 2.23534 4.75034 -42
    endloop
  endfacet
  facet normal -0.587785 -0.809017 0
    outer loop
      vertex 2.81309 4.43272 -42
      vertex 3.34648 4.04519 42
      vertex 2.81309 4.43272 42
    endloop
  endfacet
  facet normal -0.587785 -0.809017 -0
    outer loop
      vertex 3.34648 4.04519 42
      vertex 2.81309 4.43272 -42
      vertex 3.34648 4.04519 -42
    endloop
  endfacet
  facet normal 0.904827 -0.42578 0
    outer loop
      vertex -4.88133 1.93265 42
      vertex -4.60061 2.52921 -42
      vertex -4.60061 2.52921 42
    endloop
  endfacet
  facet normal 0.904827 -0.42578 0
    outer loop
      vertex -4.60061 2.52921 -42
      vertex -4.88133 1.93265 42
      vertex -4.88133 1.93265 -42
    endloop
  endfacet
  facet normal 0.844326 -0.53583 0
    outer loop
      vertex -4.60061 2.52921 42
      vertex -4.24734 3.08587 -42
      vertex -4.24734 3.08587 42
    endloop
  endfacet
  facet normal 0.844326 -0.53583 0
    outer loop
      vertex -4.24734 3.08587 -42
      vertex -4.60061 2.52921 42
      vertex -4.60061 2.52921 -42
    endloop
  endfacet
  facet normal 0.982287 -0.187381 0
    outer loop
      vertex -5.2086 0.657999 42
      vertex -5.08506 1.30562 -42
      vertex -5.08506 1.30562 42
    endloop
  endfacet
  facet normal 0.982287 -0.187381 0
    outer loop
      vertex -5.08506 1.30562 -42
      vertex -5.2086 0.657999 42
      vertex -5.2086 0.657999 -42
    endloop
  endfacet
  facet normal 0.481753 -0.876307 0
    outer loop
      vertex -2.81309 4.43272 -42
      vertex -2.23534 4.75034 42
      vertex -2.81309 4.43272 42
    endloop
  endfacet
  facet normal 0.481753 -0.876307 0
    outer loop
      vertex -2.23534 4.75034 42
      vertex -2.81309 4.43272 -42
      vertex -2.23534 4.75034 -42
    endloop
  endfacet
  facet normal 0.12533 -0.992115 0
    outer loop
      vertex -0.983751 5.15701 -42
      vertex -0.32965 5.23964 42
      vertex -0.983751 5.15701 42
    endloop
  endfacet
  facet normal 0.12533 -0.992115 0
    outer loop
      vertex -0.32965 5.23964 42
      vertex -0.983751 5.15701 -42
      vertex -0.32965 5.23964 -42
    endloop
  endfacet
  facet normal -0.998027 0.0627939 0
    outer loop
      vertex 5.2086 -0.657999 -42
      vertex 5.25 0 42
      vertex 5.25 0 -42
    endloop
  endfacet
  facet normal -0.998027 0.0627939 0
    outer loop
      vertex 5.25 0 42
      vertex 5.2086 -0.657999 -42
      vertex 5.2086 -0.657999 42
    endloop
  endfacet
  facet normal -0.12533 0.992115 0
    outer loop
      vertex 0.983751 -5.15701 -42
      vertex 0.32965 -5.23964 42
      vertex 0.983751 -5.15701 42
    endloop
  endfacet
  facet normal -0.12533 0.992115 0
    outer loop
      vertex 0.32965 -5.23964 42
      vertex 0.983751 -5.15701 -42
      vertex 0.32965 -5.23964 -42
    endloop
  endfacet
  facet normal -0.951058 -0.309011 0
    outer loop
      vertex 5.08506 1.30562 -42
      vertex 4.88133 1.93265 42
      vertex 4.88133 1.93265 -42
    endloop
  endfacet
  facet normal -0.951058 -0.309011 0
    outer loop
      vertex 4.88133 1.93265 42
      vertex 5.08506 1.30562 -42
      vertex 5.08506 1.30562 42
    endloop
  endfacet
  facet normal -0.770509 -0.637429 0
    outer loop
      vertex 4.24734 3.08587 -42
      vertex 3.82708 3.59387 42
      vertex 3.82708 3.59387 -42
    endloop
  endfacet
  facet normal -0.770509 -0.637429 0
    outer loop
      vertex 3.82708 3.59387 42
      vertex 4.24734 3.08587 -42
      vertex 4.24734 3.08587 42
    endloop
  endfacet
  facet normal -0.844326 -0.53583 0
    outer loop
      vertex 4.60061 2.52921 -42
      vertex 4.24734 3.08587 42
      vertex 4.24734 3.08587 -42
    endloop
  endfacet
  facet normal -0.844326 -0.53583 0
    outer loop
      vertex 4.24734 3.08587 42
      vertex 4.60061 2.52921 -42
      vertex 4.60061 2.52921 42
    endloop
  endfacet
  facet normal -0.248687 -0.968584 0
    outer loop
      vertex 0.983751 5.15701 -42
      vertex 1.62234 4.99305 42
      vertex 0.983751 5.15701 42
    endloop
  endfacet
  facet normal -0.248687 -0.968584 -0
    outer loop
      vertex 1.62234 4.99305 42
      vertex 0.983751 5.15701 -42
      vertex 1.62234 4.99305 -42
    endloop
  endfacet
  facet normal -0.12533 -0.992115 0
    outer loop
      vertex 0.32965 5.23964 -42
      vertex 0.983751 5.15701 42
      vertex 0.32965 5.23964 42
    endloop
  endfacet
  facet normal -0.12533 -0.992115 -0
    outer loop
      vertex 0.983751 5.15701 42
      vertex 0.32965 5.23964 -42
      vertex 0.983751 5.15701 -42
    endloop
  endfacet
  facet normal -0.481753 -0.876307 0
    outer loop
      vertex 2.23534 4.75034 -42
      vertex 2.81309 4.43272 42
      vertex 2.23534 4.75034 42
    endloop
  endfacet
  facet normal -0.481753 -0.876307 -0
    outer loop
      vertex 2.81309 4.43272 42
      vertex 2.23534 4.75034 -42
      vertex 2.81309 4.43272 -42
    endloop
  endfacet
  facet normal 0.951058 -0.309011 0
    outer loop
      vertex -5.08506 1.30562 42
      vertex -4.88133 1.93265 -42
      vertex -4.88133 1.93265 42
    endloop
  endfacet
  facet normal 0.951058 -0.309011 0
    outer loop
      vertex -4.88133 1.93265 -42
      vertex -5.08506 1.30562 42
      vertex -5.08506 1.30562 -42
    endloop
  endfacet
  facet normal 0.587785 -0.809017 0
    outer loop
      vertex -3.34648 4.04519 -42
      vertex -2.81309 4.43272 42
      vertex -3.34648 4.04519 42
    endloop
  endfacet
  facet normal 0.587785 -0.809017 0
    outer loop
      vertex -2.81309 4.43272 42
      vertex -3.34648 4.04519 -42
      vertex -2.81309 4.43272 -42
    endloop
  endfacet
  facet normal 0.248687 -0.968584 0
    outer loop
      vertex -1.62234 4.99305 -42
      vertex -0.983751 5.15701 42
      vertex -1.62234 4.99305 42
    endloop
  endfacet
  facet normal 0.248687 -0.968584 0
    outer loop
      vertex -0.983751 5.15701 42
      vertex -1.62234 4.99305 -42
      vertex -0.983751 5.15701 -42
    endloop
  endfacet
  facet normal -0.481753 0.876307 0
    outer loop
      vertex 2.81309 -4.43272 -42
      vertex 2.23534 -4.75034 42
      vertex 2.81309 -4.43272 42
    endloop
  endfacet
  facet normal -0.481753 0.876307 0
    outer loop
      vertex 2.23534 -4.75034 42
      vertex 2.81309 -4.43272 -42
      vertex 2.23534 -4.75034 -42
    endloop
  endfacet
  facet normal -0.844326 0.53583 0
    outer loop
      vertex 4.24734 -3.08587 -42
      vertex 4.60061 -2.52921 42
      vertex 4.60061 -2.52921 -42
    endloop
  endfacet
  facet normal -0.844326 0.53583 0
    outer loop
      vertex 4.60061 -2.52921 42
      vertex 4.24734 -3.08587 -42
      vertex 4.24734 -3.08587 42
    endloop
  endfacet
  facet normal -0.951058 0.309011 0
    outer loop
      vertex 4.88133 -1.93265 -42
      vertex 5.08506 -1.30562 42
      vertex 5.08506 -1.30562 -42
    endloop
  endfacet
  facet normal -0.951058 0.309011 0
    outer loop
      vertex 5.08506 -1.30562 42
      vertex 4.88133 -1.93265 -42
      vertex 4.88133 -1.93265 42
    endloop
  endfacet
  facet normal -0.982287 0.187381 0
    outer loop
      vertex 5.08506 -1.30562 -42
      vertex 5.2086 -0.657999 42
      vertex 5.2086 -0.657999 -42
    endloop
  endfacet
  facet normal -0.982287 0.187381 0
    outer loop
      vertex 5.2086 -0.657999 42
      vertex 5.08506 -1.30562 -42
      vertex 5.08506 -1.30562 42
    endloop
  endfacet
  facet normal 0.481753 0.876307 -0
    outer loop
      vertex -2.23534 -4.75034 -42
      vertex -2.81309 -4.43272 42
      vertex -2.23534 -4.75034 42
    endloop
  endfacet
  facet normal 0.481753 0.876307 0
    outer loop
      vertex -2.81309 -4.43272 42
      vertex -2.23534 -4.75034 -42
      vertex -2.81309 -4.43272 -42
    endloop
  endfacet
  facet normal 0.904827 0.42578 0
    outer loop
      vertex -4.60061 -2.52921 42
      vertex -4.88133 -1.93265 -42
      vertex -4.88133 -1.93265 42
    endloop
  endfacet
  facet normal 0.904827 0.42578 0
    outer loop
      vertex -4.88133 -1.93265 -42
      vertex -4.60061 -2.52921 42
      vertex -4.60061 -2.52921 -42
    endloop
  endfacet
  facet normal 0.998027 0.0627939 0
    outer loop
      vertex -5.2086 -0.657999 42
      vertex -5.25 0 -42
      vertex -5.25 0 42
    endloop
  endfacet
  facet normal 0.998027 0.0627939 0
    outer loop
      vertex -5.25 0 -42
      vertex -5.2086 -0.657999 42
      vertex -5.2086 -0.657999 -42
    endloop
  endfacet
  facet normal 0.951058 0.309011 0
    outer loop
      vertex -4.88133 -1.93265 42
      vertex -5.08506 -1.30562 -42
      vertex -5.08506 -1.30562 42
    endloop
  endfacet
  facet normal 0.951058 0.309011 0
    outer loop
      vertex -5.08506 -1.30562 -42
      vertex -4.88133 -1.93265 42
      vertex -4.88133 -1.93265 -42
    endloop
  endfacet
  facet normal -0.368133 0.929773 0
    outer loop
      vertex 2.23534 -4.75034 -42
      vertex 1.62234 -4.99305 42
      vertex 2.23534 -4.75034 42
    endloop
  endfacet
  facet normal -0.368133 0.929773 0
    outer loop
      vertex 1.62234 -4.99305 42
      vertex 2.23534 -4.75034 -42
      vertex 1.62234 -4.99305 -42
    endloop
  endfacet
  facet normal -0.248687 0.968584 0
    outer loop
      vertex 1.62234 -4.99305 -42
      vertex 0.983751 -5.15701 42
      vertex 1.62234 -4.99305 42
    endloop
  endfacet
  facet normal -0.248687 0.968584 0
    outer loop
      vertex 0.983751 -5.15701 42
      vertex 1.62234 -4.99305 -42
      vertex 0.983751 -5.15701 -42
    endloop
  endfacet
  facet normal 0.770509 -0.637429 0
    outer loop
      vertex -4.24734 3.08587 42
      vertex -3.82708 3.59387 -42
      vertex -3.82708 3.59387 42
    endloop
  endfacet
  facet normal 0.770509 -0.637429 0
    outer loop
      vertex -3.82708 3.59387 -42
      vertex -4.24734 3.08587 42
      vertex -4.24734 3.08587 -42
    endloop
  endfacet
  facet normal -0.904827 0.42578 0
    outer loop
      vertex 4.60061 -2.52921 -42
      vertex 4.88133 -1.93265 42
      vertex 4.88133 -1.93265 -42
    endloop
  endfacet
  facet normal -0.904827 0.42578 0
    outer loop
      vertex 4.88133 -1.93265 42
      vertex 4.60061 -2.52921 -42
      vertex 4.60061 -2.52921 42
    endloop
  endfacet
  facet normal 0.12533 0.992115 -0
    outer loop
      vertex -0.32965 -5.23964 -42
      vertex -0.983751 -5.15701 42
      vertex -0.32965 -5.23964 42
    endloop
  endfacet
  facet normal 0.12533 0.992115 0
    outer loop
      vertex -0.983751 -5.15701 42
      vertex -0.32965 -5.23964 -42
      vertex -0.983751 -5.15701 -42
    endloop
  endfacet
  facet normal 0.982287 0.187381 0
    outer loop
      vertex -5.08506 -1.30562 42
      vertex -5.2086 -0.657999 -42
      vertex -5.2086 -0.657999 42
    endloop
  endfacet
  facet normal 0.982287 0.187381 0
    outer loop
      vertex -5.2086 -0.657999 -42
      vertex -5.08506 -1.30562 42
      vertex -5.08506 -1.30562 -42
    endloop
  endfacet
  facet normal -0.587785 0.809017 0
    outer loop
      vertex 3.34648 -4.04519 -42
      vertex 2.81309 -4.43272 42
      vertex 3.34648 -4.04519 42
    endloop
  endfacet
  facet normal -0.587785 0.809017 0
    outer loop
      vertex 2.81309 -4.43272 42
      vertex 3.34648 -4.04519 -42
      vertex 2.81309 -4.43272 -42
    endloop
  endfacet
  facet normal 0 1 -0
    outer loop
      vertex 0.32965 -5.23964 -42
      vertex -0.32965 -5.23964 42
      vertex 0.32965 -5.23964 42
    endloop
  endfacet
  facet normal 0 1 0
    outer loop
      vertex -0.32965 -5.23964 42
      vertex 0.32965 -5.23964 -42
      vertex -0.32965 -5.23964 -42
    endloop
  endfacet
  facet normal 0.684552 0.728964 -0
    outer loop
      vertex -3.34648 -4.04519 -42
      vertex -3.82708 -3.59387 42
      vertex -3.34648 -4.04519 42
    endloop
  endfacet
  facet normal 0.684552 0.728964 0
    outer loop
      vertex -3.82708 -3.59387 42
      vertex -3.34648 -4.04519 -42
      vertex -3.82708 -3.59387 -42
    endloop
  endfacet
  facet normal 0.770509 0.637429 0
    outer loop
      vertex -3.82708 -3.59387 42
      vertex -4.24734 -3.08587 -42
      vertex -4.24734 -3.08587 42
    endloop
  endfacet
  facet normal 0.770509 0.637429 0
    outer loop
      vertex -4.24734 -3.08587 -42
      vertex -3.82708 -3.59387 42
      vertex -3.82708 -3.59387 -42
    endloop
  endfacet
  facet normal 0.844326 0.53583 0
    outer loop
      vertex -4.24734 -3.08587 42
      vertex -4.60061 -2.52921 -42
      vertex -4.60061 -2.52921 42
    endloop
  endfacet
  facet normal 0.844326 0.53583 0
    outer loop
      vertex -4.60061 -2.52921 -42
      vertex -4.24734 -3.08587 42
      vertex -4.24734 -3.08587 -42
    endloop
  endfacet
  facet normal -0.684552 0.728964 0
    outer loop
      vertex 3.82708 -3.59387 -42
      vertex 3.34648 -4.04519 42
      vertex 3.82708 -3.59387 42
    endloop
  endfacet
  facet normal -0.684552 0.728964 0
    outer loop
      vertex 3.34648 -4.04519 42
      vertex 3.82708 -3.59387 -42
      vertex 3.34648 -4.04519 -42
    endloop
  endfacet
  facet normal 0.248687 0.968584 -0
    outer loop
      vertex -0.983751 -5.15701 -42
      vertex -1.62234 -4.99305 42
      vertex -0.983751 -5.15701 42
    endloop
  endfacet
  facet normal 0.248687 0.968584 0
    outer loop
      vertex -1.62234 -4.99305 42
      vertex -0.983751 -5.15701 -42
      vertex -1.62234 -4.99305 -42
    endloop
  endfacet
  facet normal 0.368133 0.929773 -0
    outer loop
      vertex -1.62234 -4.99305 -42
      vertex -2.23534 -4.75034 42
      vertex -1.62234 -4.99305 42
    endloop
  endfacet
  facet normal 0.368133 0.929773 0
    outer loop
      vertex -2.23534 -4.75034 42
      vertex -1.62234 -4.99305 -42
      vertex -2.23534 -4.75034 -42
    endloop
  endfacet
  facet normal 0.587785 0.809017 -0
    outer loop
      vertex -2.81309 -4.43272 -42
      vertex -3.34648 -4.04519 42
      vertex -2.81309 -4.43272 42
    endloop
  endfacet
  facet normal 0.587785 0.809017 0
    outer loop
      vertex -3.34648 -4.04519 42
      vertex -2.81309 -4.43272 -42
      vertex -3.34648 -4.04519 -42
    endloop
  endfacet
endsolid OpenSCAD_Model
