solid OpenSCAD_Model
  facet normal 0.998027 0.0627883 0
    outer loop
      vertex 4 0 18
      vertex 3.96846 0.501332 -18
      vertex 3.96846 0.501332 18
    endloop
  endfacet
  facet normal 0.998027 0.0627883 0
    outer loop
      vertex 3.96846 0.501332 -18
      vertex 4 0 18
      vertex 4 0 -18
    endloop
  endfacet
  facet normal -0.998027 0.0627883 0
    outer loop
      vertex -4 0 -18
      vertex -3.96846 0.501332 18
      vertex -3.96846 0.501332 -18
    endloop
  endfacet
  facet normal -0.998027 0.0627883 0
    outer loop
      vertex -3.96846 0.501332 18
      vertex -4 0 -18
      vertex -4 0 18
    endloop
  endfacet
  facet normal 0 1 -0
    outer loop
      vertex 0.251162 3.99211 -18
      vertex -0.251162 3.99211 18
      vertex 0.251162 3.99211 18
    endloop
  endfacet
  facet normal 0 1 0
    outer loop
      vertex -0.251162 3.99211 18
      vertex 0.251162 3.99211 -18
      vertex -0.251162 3.99211 -18
    endloop
  endfacet
  facet normal 0 -1 0
    outer loop
      vertex -0.251162 -3.99211 -18
      vertex 0.251162 -3.99211 18
      vertex -0.251162 -3.99211 18
    endloop
  endfacet
  facet normal 0 -1 -0
    outer loop
      vertex 0.251162 -3.99211 18
      vertex -0.251162 -3.99211 -18
      vertex 0.251162 -3.99211 -18
    endloop
  endfacet
  facet normal 0.684551 0.728965 -0
    outer loop
      vertex 2.91587 2.73819 -18
      vertex 2.5497 3.08205 18
      vertex 2.91587 2.73819 18
    endloop
  endfacet
  facet normal 0.684551 0.728965 0
    outer loop
      vertex 2.5497 3.08205 18
      vertex 2.91587 2.73819 -18
      vertex 2.5497 3.08205 -18
    endloop
  endfacet
  facet normal -0.684551 0.728965 0
    outer loop
      vertex -2.5497 3.08205 -18
      vertex -2.91587 2.73819 18
      vertex -2.5497 3.08205 18
    endloop
  endfacet
  facet normal -0.684551 0.728965 0
    outer loop
      vertex -2.91587 2.73819 18
      vertex -2.5497 3.08205 -18
      vertex -2.91587 2.73819 -18
    endloop
  endfacet
  facet normal -0.368128 0.929775 0
    outer loop
      vertex -1.23607 3.80423 -18
      vertex -1.70312 3.61931 18
      vertex -1.23607 3.80423 18
    endloop
  endfacet
  facet normal -0.368128 0.929775 0
    outer loop
      vertex -1.70312 3.61931 18
      vertex -1.23607 3.80423 -18
      vertex -1.70312 3.61931 -18
    endloop
  endfacet
  facet normal 0.904824 -0.425786 0
    outer loop
      vertex 3.50523 -1.92701 18
      vertex 3.71911 -1.4725 -18
      vertex 3.71911 -1.4725 18
    endloop
  endfacet
  facet normal 0.904824 -0.425786 0
    outer loop
      vertex 3.71911 -1.4725 -18
      vertex 3.50523 -1.92701 18
      vertex 3.50523 -1.92701 -18
    endloop
  endfacet
  facet normal 0.904824 0.425786 0
    outer loop
      vertex 3.71911 1.4725 18
      vertex 3.50523 1.92701 -18
      vertex 3.50523 1.92701 18
    endloop
  endfacet
  facet normal 0.904824 0.425786 0
    outer loop
      vertex 3.50523 1.92701 -18
      vertex 3.71911 1.4725 18
      vertex 3.71911 1.4725 -18
    endloop
  endfacet
  facet normal 0.844329 0.535825 0
    outer loop
      vertex 3.50523 1.92701 18
      vertex 3.23607 2.35114 -18
      vertex 3.23607 2.35114 18
    endloop
  endfacet
  facet normal 0.844329 0.535825 0
    outer loop
      vertex 3.23607 2.35114 -18
      vertex 3.50523 1.92701 18
      vertex 3.50523 1.92701 -18
    endloop
  endfacet
  facet normal 0.368128 0.929775 -0
    outer loop
      vertex 1.70312 3.61931 -18
      vertex 1.23607 3.80423 18
      vertex 1.70312 3.61931 18
    endloop
  endfacet
  facet normal 0.368128 0.929775 0
    outer loop
      vertex 1.23607 3.80423 18
      vertex 1.70312 3.61931 -18
      vertex 1.23607 3.80423 -18
    endloop
  endfacet
  facet normal 0.248683 0.968585 -0
    outer loop
      vertex 1.23607 3.80423 -18
      vertex 0.749525 3.92915 18
      vertex 1.23607 3.80423 18
    endloop
  endfacet
  facet normal 0.248683 0.968585 0
    outer loop
      vertex 0.749525 3.92915 18
      vertex 1.23607 3.80423 -18
      vertex 0.749525 3.92915 -18
    endloop
  endfacet
  facet normal 0.587786 0.809017 -0
    outer loop
      vertex 2.5497 3.08205 -18
      vertex 2.14331 3.37731 18
      vertex 2.5497 3.08205 18
    endloop
  endfacet
  facet normal 0.587786 0.809017 0
    outer loop
      vertex 2.14331 3.37731 18
      vertex 2.5497 3.08205 -18
      vertex 2.14331 3.37731 -18
    endloop
  endfacet
  facet normal -0.904824 0.425786 0
    outer loop
      vertex -3.71911 1.4725 -18
      vertex -3.50523 1.92701 18
      vertex -3.50523 1.92701 -18
    endloop
  endfacet
  facet normal -0.904824 0.425786 0
    outer loop
      vertex -3.50523 1.92701 18
      vertex -3.71911 1.4725 -18
      vertex -3.71911 1.4725 18
    endloop
  endfacet
  facet normal -0.770509 0.637429 0
    outer loop
      vertex -3.23607 2.35114 -18
      vertex -2.91587 2.73819 18
      vertex -2.91587 2.73819 -18
    endloop
  endfacet
  facet normal -0.770509 0.637429 0
    outer loop
      vertex -2.91587 2.73819 18
      vertex -3.23607 2.35114 -18
      vertex -3.23607 2.35114 18
    endloop
  endfacet
  facet normal -0.951061 0.309004 0
    outer loop
      vertex -3.87433 0.994759 -18
      vertex -3.71911 1.4725 18
      vertex -3.71911 1.4725 -18
    endloop
  endfacet
  facet normal -0.951061 0.309004 0
    outer loop
      vertex -3.71911 1.4725 18
      vertex -3.87433 0.994759 -18
      vertex -3.87433 0.994759 18
    endloop
  endfacet
  facet normal -0.481759 0.876304 0
    outer loop
      vertex -1.70312 3.61931 -18
      vertex -2.14331 3.37731 18
      vertex -1.70312 3.61931 18
    endloop
  endfacet
  facet normal -0.481759 0.876304 0
    outer loop
      vertex -2.14331 3.37731 18
      vertex -1.70312 3.61931 -18
      vertex -2.14331 3.37731 -18
    endloop
  endfacet
  facet normal -0.248683 0.968585 0
    outer loop
      vertex -0.749525 3.92915 -18
      vertex -1.23607 3.80423 18
      vertex -0.749525 3.92915 18
    endloop
  endfacet
  facet normal -0.248683 0.968585 0
    outer loop
      vertex -1.23607 3.80423 18
      vertex -0.749525 3.92915 -18
      vertex -1.23607 3.80423 -18
    endloop
  endfacet
  facet normal 0.125337 -0.992114 0
    outer loop
      vertex 0.251162 -3.99211 -18
      vertex 0.749525 -3.92915 18
      vertex 0.251162 -3.99211 18
    endloop
  endfacet
  facet normal 0.125337 -0.992114 0
    outer loop
      vertex 0.749525 -3.92915 18
      vertex 0.251162 -3.99211 -18
      vertex 0.749525 -3.92915 -18
    endloop
  endfacet
  facet normal 0.368128 -0.929775 0
    outer loop
      vertex 1.23607 -3.80423 -18
      vertex 1.70312 -3.61931 18
      vertex 1.23607 -3.80423 18
    endloop
  endfacet
  facet normal 0.368128 -0.929775 0
    outer loop
      vertex 1.70312 -3.61931 18
      vertex 1.23607 -3.80423 -18
      vertex 1.70312 -3.61931 -18
    endloop
  endfacet
  facet normal 0.951061 0.309004 0
    outer loop
      vertex 3.87433 0.994759 18
      vertex 3.71911 1.4725 -18
      vertex 3.71911 1.4725 18
    endloop
  endfacet
  facet normal 0.951061 0.309004 0
    outer loop
      vertex 3.71911 1.4725 -18
      vertex 3.87433 0.994759 18
      vertex 3.87433 0.994759 -18
    endloop
  endfacet
  facet normal 0.982286 0.187389 0
    outer loop
      vertex 3.96846 0.501332 18
      vertex 3.87433 0.994759 -18
      vertex 3.87433 0.994759 18
    endloop
  endfacet
  facet normal 0.982286 0.187389 0
    outer loop
      vertex 3.87433 0.994759 -18
      vertex 3.96846 0.501332 18
      vertex 3.96846 0.501332 -18
    endloop
  endfacet
  facet normal 0.770509 0.637429 0
    outer loop
      vertex 3.23607 2.35114 18
      vertex 2.91587 2.73819 -18
      vertex 2.91587 2.73819 18
    endloop
  endfacet
  facet normal 0.770509 0.637429 0
    outer loop
      vertex 2.91587 2.73819 -18
      vertex 3.23607 2.35114 18
      vertex 3.23607 2.35114 -18
    endloop
  endfacet
  facet normal 0.125337 0.992114 -0
    outer loop
      vertex 0.749525 3.92915 -18
      vertex 0.251162 3.99211 18
      vertex 0.749525 3.92915 18
    endloop
  endfacet
  facet normal 0.125337 0.992114 0
    outer loop
      vertex 0.251162 3.99211 18
      vertex 0.749525 3.92915 -18
      vertex 0.251162 3.99211 -18
    endloop
  endfacet
  facet normal 0.481759 0.876304 -0
    outer loop
      vertex 2.14331 3.37731 -18
      vertex 1.70312 3.61931 18
      vertex 2.14331 3.37731 18
    endloop
  endfacet
  facet normal 0.481759 0.876304 0
    outer loop
      vertex 1.70312 3.61931 18
      vertex 2.14331 3.37731 -18
      vertex 1.70312 3.61931 -18
    endloop
  endfacet
  facet normal -0.844329 0.535825 0
    outer loop
      vertex -3.50523 1.92701 -18
      vertex -3.23607 2.35114 18
      vertex -3.23607 2.35114 -18
    endloop
  endfacet
  facet normal -0.844329 0.535825 0
    outer loop
      vertex -3.23607 2.35114 18
      vertex -3.50523 1.92701 -18
      vertex -3.50523 1.92701 18
    endloop
  endfacet
  facet normal -0.982286 0.187389 0
    outer loop
      vertex -3.96846 0.501332 -18
      vertex -3.87433 0.994759 18
      vertex -3.87433 0.994759 -18
    endloop
  endfacet
  facet normal -0.982286 0.187389 0
    outer loop
      vertex -3.87433 0.994759 18
      vertex -3.96846 0.501332 -18
      vertex -3.96846 0.501332 18
    endloop
  endfacet
  facet normal 0 0 1
    outer loop
      vertex 1.5 0 18
      vertex 4 0 18
      vertex 3.96846 0.501332 18
    endloop
  endfacet
  facet normal 0 0 1
    outer loop
      vertex 1.48817 0.188 18
      vertex 3.96846 0.501332 18
      vertex 3.87433 0.994759 18
    endloop
  endfacet
  facet normal 0 0 1
    outer loop
      vertex 4 0 18
      vertex 1.5 0 18
      vertex 3.96846 -0.501332 18
    endloop
  endfacet
  facet normal 0 0 1
    outer loop
      vertex 1.45287 0.373034 18
      vertex 3.87433 0.994759 18
      vertex 3.71911 1.4725 18
    endloop
  endfacet
  facet normal -0 0 1
    outer loop
      vertex 1.48817 -0.188 18
      vertex 3.96846 -0.501332 18
      vertex 1.5 0 18
    endloop
  endfacet
  facet normal 0 0 1
    outer loop
      vertex 1.39466 0.552186 18
      vertex 3.71911 1.4725 18
      vertex 3.50523 1.92701 18
    endloop
  endfacet
  facet normal 0 0 1
    outer loop
      vertex 3.96846 -0.501332 18
      vertex 1.48817 -0.188 18
      vertex 3.87433 -0.994759 18
    endloop
  endfacet
  facet normal 0 0 1
    outer loop
      vertex 1.31446 0.722631 18
      vertex 3.50523 1.92701 18
      vertex 3.23607 2.35114 18
    endloop
  endfacet
  facet normal -0 0 1
    outer loop
      vertex 1.45287 -0.373034 18
      vertex 3.87433 -0.994759 18
      vertex 1.48817 -0.188 18
    endloop
  endfacet
  facet normal 0 0 1
    outer loop
      vertex 1.21352 0.881678 18
      vertex 3.23607 2.35114 18
      vertex 2.91587 2.73819 18
    endloop
  endfacet
  facet normal 0 0 1
    outer loop
      vertex 3.87433 -0.994759 18
      vertex 1.45287 -0.373034 18
      vertex 3.71911 -1.4725 18
    endloop
  endfacet
  facet normal 0 0 1
    outer loop
      vertex 1.09345 1.02682 18
      vertex 2.91587 2.73819 18
      vertex 2.5497 3.08205 18
    endloop
  endfacet
  facet normal -0 0 1
    outer loop
      vertex 1.39466 -0.552186 18
      vertex 3.71911 -1.4725 18
      vertex 1.45287 -0.373034 18
    endloop
  endfacet
  facet normal 0 0 1
    outer loop
      vertex 0.956136 1.15577 18
      vertex 2.5497 3.08205 18
      vertex 2.14331 3.37731 18
    endloop
  endfacet
  facet normal 0 0 1
    outer loop
      vertex 3.71911 -1.4725 18
      vertex 1.39466 -0.552186 18
      vertex 3.50523 -1.92701 18
    endloop
  endfacet
  facet normal 0 0 1
    outer loop
      vertex 0.80374 1.26649 18
      vertex 2.14331 3.37731 18
      vertex 1.70312 3.61931 18
    endloop
  endfacet
  facet normal -0 0 1
    outer loop
      vertex 1.31446 -0.722631 18
      vertex 3.50523 -1.92701 18
      vertex 1.39466 -0.552186 18
    endloop
  endfacet
  facet normal 0 0 1
    outer loop
      vertex 3.50523 -1.92701 18
      vertex 1.31446 -0.722631 18
      vertex 3.23607 -2.35114 18
    endloop
  endfacet
  facet normal 0 0 1
    outer loop
      vertex 3.96846 0.501332 18
      vertex 1.48817 0.188 18
      vertex 1.5 0 18
    endloop
  endfacet
  facet normal 0 0 1
    outer loop
      vertex 3.87433 0.994759 18
      vertex 1.45287 0.373034 18
      vertex 1.48817 0.188 18
    endloop
  endfacet
  facet normal 0 0 1
    outer loop
      vertex 3.71911 1.4725 18
      vertex 1.39466 0.552186 18
      vertex 1.45287 0.373034 18
    endloop
  endfacet
  facet normal 0 0 1
    outer loop
      vertex 3.50523 1.92701 18
      vertex 1.31446 0.722631 18
      vertex 1.39466 0.552186 18
    endloop
  endfacet
  facet normal 0 0 1
    outer loop
      vertex 0.638668 1.35724 18
      vertex 1.70312 3.61931 18
      vertex 1.23607 3.80423 18
    endloop
  endfacet
  facet normal 0 0 1
    outer loop
      vertex 3.23607 2.35114 18
      vertex 1.21352 0.881678 18
      vertex 1.31446 0.722631 18
    endloop
  endfacet
  facet normal 0 0 1
    outer loop
      vertex 2.91587 2.73819 18
      vertex 1.09345 1.02682 18
      vertex 1.21352 0.881678 18
    endloop
  endfacet
  facet normal 0 0 1
    outer loop
      vertex 2.5497 3.08205 18
      vertex 0.956136 1.15577 18
      vertex 1.09345 1.02682 18
    endloop
  endfacet
  facet normal 0 0 1
    outer loop
      vertex 2.14331 3.37731 18
      vertex 0.80374 1.26649 18
      vertex 0.956136 1.15577 18
    endloop
  endfacet
  facet normal 0 0 1
    outer loop
      vertex 0.463525 1.42658 18
      vertex 1.23607 3.80423 18
      vertex 0.749525 3.92915 18
    endloop
  endfacet
  facet normal 0 0 1
    outer loop
      vertex 1.70312 3.61931 18
      vertex 0.638668 1.35724 18
      vertex 0.80374 1.26649 18
    endloop
  endfacet
  facet normal 0 0 1
    outer loop
      vertex 1.23607 3.80423 18
      vertex 0.463525 1.42658 18
      vertex 0.638668 1.35724 18
    endloop
  endfacet
  facet normal 0 0 1
    outer loop
      vertex 0.749525 3.92915 18
      vertex 0.281072 1.47343 18
      vertex 0.463525 1.42658 18
    endloop
  endfacet
  facet normal 0 0 1
    outer loop
      vertex 0.251162 3.99211 18
      vertex 0.281072 1.47343 18
      vertex 0.749525 3.92915 18
    endloop
  endfacet
  facet normal 0 0 1
    outer loop
      vertex 0.251162 3.99211 18
      vertex 0.0941849 1.49704 18
      vertex 0.281072 1.47343 18
    endloop
  endfacet
  facet normal 0 0 1
    outer loop
      vertex 0.251162 3.99211 18
      vertex -0.0941849 1.49704 18
      vertex 0.0941849 1.49704 18
    endloop
  endfacet
  facet normal -0 0 1
    outer loop
      vertex -0.251162 3.99211 18
      vertex -0.0941849 1.49704 18
      vertex 0.251162 3.99211 18
    endloop
  endfacet
  facet normal 0 0 1
    outer loop
      vertex -0.251162 3.99211 18
      vertex -0.281072 1.47343 18
      vertex -0.0941849 1.49704 18
    endloop
  endfacet
  facet normal -0 0 1
    outer loop
      vertex -0.749525 3.92915 18
      vertex -0.281072 1.47343 18
      vertex -0.251162 3.99211 18
    endloop
  endfacet
  facet normal 0 0 1
    outer loop
      vertex -0.281072 1.47343 18
      vertex -0.749525 3.92915 18
      vertex -0.463525 1.42658 18
    endloop
  endfacet
  facet normal -0 0 1
    outer loop
      vertex -1.23607 3.80423 18
      vertex -0.463525 1.42658 18
      vertex -0.749525 3.92915 18
    endloop
  endfacet
  facet normal 0 0 1
    outer loop
      vertex -0.463525 1.42658 18
      vertex -1.23607 3.80423 18
      vertex -0.638668 1.35724 18
    endloop
  endfacet
  facet normal -0 0 1
    outer loop
      vertex -1.70312 3.61931 18
      vertex -0.638668 1.35724 18
      vertex -1.23607 3.80423 18
    endloop
  endfacet
  facet normal 0 0 1
    outer loop
      vertex -0.638668 1.35724 18
      vertex -1.70312 3.61931 18
      vertex -0.80374 1.26649 18
    endloop
  endfacet
  facet normal -0 0 1
    outer loop
      vertex -2.14331 3.37731 18
      vertex -0.80374 1.26649 18
      vertex -1.70312 3.61931 18
    endloop
  endfacet
  facet normal 0 0 1
    outer loop
      vertex -0.80374 1.26649 18
      vertex -2.14331 3.37731 18
      vertex -0.956136 1.15577 18
    endloop
  endfacet
  facet normal -0 0 1
    outer loop
      vertex -2.5497 3.08205 18
      vertex -0.956136 1.15577 18
      vertex -2.14331 3.37731 18
    endloop
  endfacet
  facet normal 0 0 1
    outer loop
      vertex -0.956136 1.15577 18
      vertex -2.5497 3.08205 18
      vertex -1.09345 1.02682 18
    endloop
  endfacet
  facet normal -0 0 1
    outer loop
      vertex -2.91587 2.73819 18
      vertex -1.09345 1.02682 18
      vertex -2.5497 3.08205 18
    endloop
  endfacet
  facet normal 0 0 1
    outer loop
      vertex -1.09345 1.02682 18
      vertex -2.91587 2.73819 18
      vertex -1.21352 0.881678 18
    endloop
  endfacet
  facet normal 0 0 1
    outer loop
      vertex -1.21352 0.881678 18
      vertex -3.23607 2.35114 18
      vertex -1.31446 0.722631 18
    endloop
  endfacet
  facet normal -0 0 1
    outer loop
      vertex -3.23607 2.35114 18
      vertex -1.21352 0.881678 18
      vertex -2.91587 2.73819 18
    endloop
  endfacet
  facet normal -0 0 1
    outer loop
      vertex 1.21352 -0.881678 18
      vertex 3.23607 -2.35114 18
      vertex 1.31446 -0.722631 18
    endloop
  endfacet
  facet normal 0 0 1
    outer loop
      vertex 3.23607 -2.35114 18
      vertex 1.21352 -0.881678 18
      vertex 2.91587 -2.73819 18
    endloop
  endfacet
  facet normal -0 0 1
    outer loop
      vertex 1.09345 -1.02682 18
      vertex 2.91587 -2.73819 18
      vertex 1.21352 -0.881678 18
    endloop
  endfacet
  facet normal 0 0 1
    outer loop
      vertex 2.91587 -2.73819 18
      vertex 1.09345 -1.02682 18
      vertex 2.5497 -3.08205 18
    endloop
  endfacet
  facet normal -0 0 1
    outer loop
      vertex 0.956136 -1.15577 18
      vertex 2.5497 -3.08205 18
      vertex 1.09345 -1.02682 18
    endloop
  endfacet
  facet normal 0 0 1
    outer loop
      vertex 2.5497 -3.08205 18
      vertex 0.956136 -1.15577 18
      vertex 2.14331 -3.37731 18
    endloop
  endfacet
  facet normal -0 0 1
    outer loop
      vertex 0.80374 -1.26649 18
      vertex 2.14331 -3.37731 18
      vertex 0.956136 -1.15577 18
    endloop
  endfacet
  facet normal 0 0 1
    outer loop
      vertex 2.14331 -3.37731 18
      vertex 0.80374 -1.26649 18
      vertex 1.70312 -3.61931 18
    endloop
  endfacet
  facet normal -0 0 1
    outer loop
      vertex 0.638668 -1.35724 18
      vertex 1.70312 -3.61931 18
      vertex 0.80374 -1.26649 18
    endloop
  endfacet
  facet normal 0 0 1
    outer loop
      vertex 1.70312 -3.61931 18
      vertex 0.638668 -1.35724 18
      vertex 1.23607 -3.80423 18
    endloop
  endfacet
  facet normal -0 0 1
    outer loop
      vertex 0.463525 -1.42658 18
      vertex 1.23607 -3.80423 18
      vertex 0.638668 -1.35724 18
    endloop
  endfacet
  facet normal 0 0 1
    outer loop
      vertex 1.23607 -3.80423 18
      vertex 0.463525 -1.42658 18
      vertex 0.749525 -3.92915 18
    endloop
  endfacet
  facet normal -0 0 1
    outer loop
      vertex 0.281072 -1.47343 18
      vertex 0.749525 -3.92915 18
      vertex 0.463525 -1.42658 18
    endloop
  endfacet
  facet normal 0 0 1
    outer loop
      vertex 0.281072 -1.47343 18
      vertex 0.251162 -3.99211 18
      vertex 0.749525 -3.92915 18
    endloop
  endfacet
  facet normal -0 0 1
    outer loop
      vertex 0.0941849 -1.49704 18
      vertex 0.251162 -3.99211 18
      vertex 0.281072 -1.47343 18
    endloop
  endfacet
  facet normal -0 0 1
    outer loop
      vertex -0.0941849 -1.49704 18
      vertex 0.251162 -3.99211 18
      vertex 0.0941849 -1.49704 18
    endloop
  endfacet
  facet normal 0 0 1
    outer loop
      vertex -0.0941849 -1.49704 18
      vertex -0.251162 -3.99211 18
      vertex 0.251162 -3.99211 18
    endloop
  endfacet
  facet normal 0 0 1
    outer loop
      vertex -0.281072 -1.47343 18
      vertex -0.251162 -3.99211 18
      vertex -0.0941849 -1.49704 18
    endloop
  endfacet
  facet normal 0 0 1
    outer loop
      vertex -0.749525 -3.92915 18
      vertex -0.281072 -1.47343 18
      vertex -0.463525 -1.42658 18
    endloop
  endfacet
  facet normal 0 0 1
    outer loop
      vertex -1.23607 -3.80423 18
      vertex -0.463525 -1.42658 18
      vertex -0.638668 -1.35724 18
    endloop
  endfacet
  facet normal 0 0 1
    outer loop
      vertex -0.281072 -1.47343 18
      vertex -0.749525 -3.92915 18
      vertex -0.251162 -3.99211 18
    endloop
  endfacet
  facet normal 0 0 1
    outer loop
      vertex -1.70312 -3.61931 18
      vertex -0.638668 -1.35724 18
      vertex -0.80374 -1.26649 18
    endloop
  endfacet
  facet normal 0 0 1
    outer loop
      vertex -2.14331 -3.37731 18
      vertex -0.80374 -1.26649 18
      vertex -0.956136 -1.15577 18
    endloop
  endfacet
  facet normal 0 0 1
    outer loop
      vertex -2.5497 -3.08205 18
      vertex -0.956136 -1.15577 18
      vertex -1.09345 -1.02682 18
    endloop
  endfacet
  facet normal 0 0 1
    outer loop
      vertex -2.91587 -2.73819 18
      vertex -1.09345 -1.02682 18
      vertex -1.21352 -0.881678 18
    endloop
  endfacet
  facet normal 0 0 1
    outer loop
      vertex -0.463525 -1.42658 18
      vertex -1.23607 -3.80423 18
      vertex -0.749525 -3.92915 18
    endloop
  endfacet
  facet normal 0 0 1
    outer loop
      vertex -3.23607 -2.35114 18
      vertex -1.21352 -0.881678 18
      vertex -1.31446 -0.722631 18
    endloop
  endfacet
  facet normal 0 0 1
    outer loop
      vertex -3.50523 -1.92701 18
      vertex -1.31446 -0.722631 18
      vertex -1.39466 -0.552186 18
    endloop
  endfacet
  facet normal 0 0 1
    outer loop
      vertex -3.71911 -1.4725 18
      vertex -1.39466 -0.552186 18
      vertex -1.45287 -0.373034 18
    endloop
  endfacet
  facet normal 0 0 1
    outer loop
      vertex -3.87433 -0.994759 18
      vertex -1.45287 -0.373034 18
      vertex -1.48817 -0.188 18
    endloop
  endfacet
  facet normal 0 0 1
    outer loop
      vertex -0.638668 -1.35724 18
      vertex -1.70312 -3.61931 18
      vertex -1.23607 -3.80423 18
    endloop
  endfacet
  facet normal 0 0 1
    outer loop
      vertex -3.96846 -0.501332 18
      vertex -1.48817 -0.188 18
      vertex -1.5 0 18
    endloop
  endfacet
  facet normal -0 0 1
    outer loop
      vertex -3.50523 1.92701 18
      vertex -1.31446 0.722631 18
      vertex -3.23607 2.35114 18
    endloop
  endfacet
  facet normal 0 0 1
    outer loop
      vertex -1.31446 0.722631 18
      vertex -3.50523 1.92701 18
      vertex -1.39466 0.552186 18
    endloop
  endfacet
  facet normal 0 0 1
    outer loop
      vertex -0.80374 -1.26649 18
      vertex -2.14331 -3.37731 18
      vertex -1.70312 -3.61931 18
    endloop
  endfacet
  facet normal -0 0 1
    outer loop
      vertex -3.71911 1.4725 18
      vertex -1.39466 0.552186 18
      vertex -3.50523 1.92701 18
    endloop
  endfacet
  facet normal 0 0 1
    outer loop
      vertex -0.956136 -1.15577 18
      vertex -2.5497 -3.08205 18
      vertex -2.14331 -3.37731 18
    endloop
  endfacet
  facet normal 0 0 1
    outer loop
      vertex -1.39466 0.552186 18
      vertex -3.71911 1.4725 18
      vertex -1.45287 0.373034 18
    endloop
  endfacet
  facet normal 0 0 1
    outer loop
      vertex -1.09345 -1.02682 18
      vertex -2.91587 -2.73819 18
      vertex -2.5497 -3.08205 18
    endloop
  endfacet
  facet normal -0 0 1
    outer loop
      vertex -3.87433 0.994759 18
      vertex -1.45287 0.373034 18
      vertex -3.71911 1.4725 18
    endloop
  endfacet
  facet normal 0 0 1
    outer loop
      vertex -1.21352 -0.881678 18
      vertex -3.23607 -2.35114 18
      vertex -2.91587 -2.73819 18
    endloop
  endfacet
  facet normal 0 0 1
    outer loop
      vertex -1.45287 0.373034 18
      vertex -3.87433 0.994759 18
      vertex -1.48817 0.188 18
    endloop
  endfacet
  facet normal 0 0 1
    outer loop
      vertex -1.31446 -0.722631 18
      vertex -3.50523 -1.92701 18
      vertex -3.23607 -2.35114 18
    endloop
  endfacet
  facet normal -0 0 1
    outer loop
      vertex -3.96846 0.501332 18
      vertex -1.48817 0.188 18
      vertex -3.87433 0.994759 18
    endloop
  endfacet
  facet normal 0 0 1
    outer loop
      vertex -1.39466 -0.552186 18
      vertex -3.71911 -1.4725 18
      vertex -3.50523 -1.92701 18
    endloop
  endfacet
  facet normal 0 0 1
    outer loop
      vertex -1.48817 0.188 18
      vertex -3.96846 0.501332 18
      vertex -1.5 0 18
    endloop
  endfacet
  facet normal 0 0 1
    outer loop
      vertex -1.45287 -0.373034 18
      vertex -3.87433 -0.994759 18
      vertex -3.71911 -1.4725 18
    endloop
  endfacet
  facet normal 0 0 1
    outer loop
      vertex -4 0 18
      vertex -1.5 0 18
      vertex -3.96846 0.501332 18
    endloop
  endfacet
  facet normal 0 0 1
    outer loop
      vertex -1.48817 -0.188 18
      vertex -3.96846 -0.501332 18
      vertex -3.87433 -0.994759 18
    endloop
  endfacet
  facet normal 0 0 1
    outer loop
      vertex -1.5 0 18
      vertex -4 0 18
      vertex -3.96846 -0.501332 18
    endloop
  endfacet
  facet normal -0.587786 0.809017 0
    outer loop
      vertex -2.14331 3.37731 -18
      vertex -2.5497 3.08205 18
      vertex -2.14331 3.37731 18
    endloop
  endfacet
  facet normal -0.587786 0.809017 0
    outer loop
      vertex -2.5497 3.08205 18
      vertex -2.14331 3.37731 -18
      vertex -2.5497 3.08205 -18
    endloop
  endfacet
  facet normal -0.125337 0.992114 0
    outer loop
      vertex -0.251162 3.99211 -18
      vertex -0.749525 3.92915 18
      vertex -0.251162 3.99211 18
    endloop
  endfacet
  facet normal -0.125337 0.992114 0
    outer loop
      vertex -0.749525 3.92915 18
      vertex -0.251162 3.99211 -18
      vertex -0.749525 3.92915 -18
    endloop
  endfacet
  facet normal 0.998027 -0.0627883 0
    outer loop
      vertex 3.96846 -0.501332 18
      vertex 4 0 -18
      vertex 4 0 18
    endloop
  endfacet
  facet normal 0.998027 -0.0627883 0
    outer loop
      vertex 4 0 -18
      vertex 3.96846 -0.501332 18
      vertex 3.96846 -0.501332 -18
    endloop
  endfacet
  facet normal 0.481759 -0.876304 0
    outer loop
      vertex 1.70312 -3.61931 -18
      vertex 2.14331 -3.37731 18
      vertex 1.70312 -3.61931 18
    endloop
  endfacet
  facet normal 0.481759 -0.876304 0
    outer loop
      vertex 2.14331 -3.37731 18
      vertex 1.70312 -3.61931 -18
      vertex 2.14331 -3.37731 -18
    endloop
  endfacet
  facet normal 0.770509 -0.637429 0
    outer loop
      vertex 2.91587 -2.73819 18
      vertex 3.23607 -2.35114 -18
      vertex 3.23607 -2.35114 18
    endloop
  endfacet
  facet normal 0.770509 -0.637429 0
    outer loop
      vertex 3.23607 -2.35114 -18
      vertex 2.91587 -2.73819 18
      vertex 2.91587 -2.73819 -18
    endloop
  endfacet
  facet normal 0.951061 -0.309004 0
    outer loop
      vertex 3.71911 -1.4725 18
      vertex 3.87433 -0.994759 -18
      vertex 3.87433 -0.994759 18
    endloop
  endfacet
  facet normal 0.951061 -0.309004 0
    outer loop
      vertex 3.87433 -0.994759 -18
      vertex 3.71911 -1.4725 18
      vertex 3.71911 -1.4725 -18
    endloop
  endfacet
  facet normal 0.982286 -0.187389 0
    outer loop
      vertex 3.87433 -0.994759 18
      vertex 3.96846 -0.501332 -18
      vertex 3.96846 -0.501332 18
    endloop
  endfacet
  facet normal 0.982286 -0.187389 0
    outer loop
      vertex 3.96846 -0.501332 -18
      vertex 3.87433 -0.994759 18
      vertex 3.87433 -0.994759 -18
    endloop
  endfacet
  facet normal -0.684551 -0.728965 0
    outer loop
      vertex -2.91587 -2.73819 -18
      vertex -2.5497 -3.08205 18
      vertex -2.91587 -2.73819 18
    endloop
  endfacet
  facet normal -0.684551 -0.728965 -0
    outer loop
      vertex -2.5497 -3.08205 18
      vertex -2.91587 -2.73819 -18
      vertex -2.5497 -3.08205 -18
    endloop
  endfacet
  facet normal -0.904824 -0.425786 0
    outer loop
      vertex -3.50523 -1.92701 -18
      vertex -3.71911 -1.4725 18
      vertex -3.71911 -1.4725 -18
    endloop
  endfacet
  facet normal -0.904824 -0.425786 0
    outer loop
      vertex -3.71911 -1.4725 18
      vertex -3.50523 -1.92701 -18
      vertex -3.50523 -1.92701 18
    endloop
  endfacet
  facet normal -0.770509 -0.637429 0
    outer loop
      vertex -2.91587 -2.73819 -18
      vertex -3.23607 -2.35114 18
      vertex -3.23607 -2.35114 -18
    endloop
  endfacet
  facet normal -0.770509 -0.637429 0
    outer loop
      vertex -3.23607 -2.35114 18
      vertex -2.91587 -2.73819 -18
      vertex -2.91587 -2.73819 18
    endloop
  endfacet
  facet normal 0 0 -1
    outer loop
      vertex 1.5 0 -18
      vertex 4 0 -18
      vertex 3.96846 -0.501332 -18
    endloop
  endfacet
  facet normal 0 0 -1
    outer loop
      vertex 1.48817 -0.188 -18
      vertex 3.96846 -0.501332 -18
      vertex 3.87433 -0.994759 -18
    endloop
  endfacet
  facet normal 0 0 -1
    outer loop
      vertex 4 0 -18
      vertex 1.5 0 -18
      vertex 3.96846 0.501332 -18
    endloop
  endfacet
  facet normal 0 0 -1
    outer loop
      vertex 1.45287 -0.373034 -18
      vertex 3.87433 -0.994759 -18
      vertex 3.71911 -1.4725 -18
    endloop
  endfacet
  facet normal 0 0 -1
    outer loop
      vertex 1.48817 0.188 -18
      vertex 3.96846 0.501332 -18
      vertex 1.5 0 -18
    endloop
  endfacet
  facet normal 0 0 -1
    outer loop
      vertex 1.39466 -0.552186 -18
      vertex 3.71911 -1.4725 -18
      vertex 3.50523 -1.92701 -18
    endloop
  endfacet
  facet normal -0 0 -1
    outer loop
      vertex 3.96846 0.501332 -18
      vertex 1.48817 0.188 -18
      vertex 3.87433 0.994759 -18
    endloop
  endfacet
  facet normal 0 0 -1
    outer loop
      vertex 1.31446 -0.722631 -18
      vertex 3.50523 -1.92701 -18
      vertex 3.23607 -2.35114 -18
    endloop
  endfacet
  facet normal 0 0 -1
    outer loop
      vertex 1.45287 0.373034 -18
      vertex 3.87433 0.994759 -18
      vertex 1.48817 0.188 -18
    endloop
  endfacet
  facet normal 0 0 -1
    outer loop
      vertex 1.21352 -0.881678 -18
      vertex 3.23607 -2.35114 -18
      vertex 2.91587 -2.73819 -18
    endloop
  endfacet
  facet normal -0 0 -1
    outer loop
      vertex 3.87433 0.994759 -18
      vertex 1.45287 0.373034 -18
      vertex 3.71911 1.4725 -18
    endloop
  endfacet
  facet normal 0 0 -1
    outer loop
      vertex 1.09345 -1.02682 -18
      vertex 2.91587 -2.73819 -18
      vertex 2.5497 -3.08205 -18
    endloop
  endfacet
  facet normal 0 0 -1
    outer loop
      vertex 1.39466 0.552186 -18
      vertex 3.71911 1.4725 -18
      vertex 1.45287 0.373034 -18
    endloop
  endfacet
  facet normal 0 0 -1
    outer loop
      vertex 0.956136 -1.15577 -18
      vertex 2.5497 -3.08205 -18
      vertex 2.14331 -3.37731 -18
    endloop
  endfacet
  facet normal -0 0 -1
    outer loop
      vertex 3.71911 1.4725 -18
      vertex 1.39466 0.552186 -18
      vertex 3.50523 1.92701 -18
    endloop
  endfacet
  facet normal 0 0 -1
    outer loop
      vertex 0.80374 -1.26649 -18
      vertex 2.14331 -3.37731 -18
      vertex 1.70312 -3.61931 -18
    endloop
  endfacet
  facet normal 0 0 -1
    outer loop
      vertex 1.31446 0.722631 -18
      vertex 3.50523 1.92701 -18
      vertex 1.39466 0.552186 -18
    endloop
  endfacet
  facet normal -0 0 -1
    outer loop
      vertex 3.50523 1.92701 -18
      vertex 1.31446 0.722631 -18
      vertex 3.23607 2.35114 -18
    endloop
  endfacet
  facet normal 0 0 -1
    outer loop
      vertex 3.96846 -0.501332 -18
      vertex 1.48817 -0.188 -18
      vertex 1.5 0 -18
    endloop
  endfacet
  facet normal 0 0 -1
    outer loop
      vertex 3.87433 -0.994759 -18
      vertex 1.45287 -0.373034 -18
      vertex 1.48817 -0.188 -18
    endloop
  endfacet
  facet normal 0 0 -1
    outer loop
      vertex 3.71911 -1.4725 -18
      vertex 1.39466 -0.552186 -18
      vertex 1.45287 -0.373034 -18
    endloop
  endfacet
  facet normal 0 0 -1
    outer loop
      vertex 3.50523 -1.92701 -18
      vertex 1.31446 -0.722631 -18
      vertex 1.39466 -0.552186 -18
    endloop
  endfacet
  facet normal 0 0 -1
    outer loop
      vertex 0.638668 -1.35724 -18
      vertex 1.70312 -3.61931 -18
      vertex 1.23607 -3.80423 -18
    endloop
  endfacet
  facet normal 0 0 -1
    outer loop
      vertex 3.23607 -2.35114 -18
      vertex 1.21352 -0.881678 -18
      vertex 1.31446 -0.722631 -18
    endloop
  endfacet
  facet normal 0 0 -1
    outer loop
      vertex 2.91587 -2.73819 -18
      vertex 1.09345 -1.02682 -18
      vertex 1.21352 -0.881678 -18
    endloop
  endfacet
  facet normal 0 0 -1
    outer loop
      vertex 2.5497 -3.08205 -18
      vertex 0.956136 -1.15577 -18
      vertex 1.09345 -1.02682 -18
    endloop
  endfacet
  facet normal 0 0 -1
    outer loop
      vertex 2.14331 -3.37731 -18
      vertex 0.80374 -1.26649 -18
      vertex 0.956136 -1.15577 -18
    endloop
  endfacet
  facet normal 0 0 -1
    outer loop
      vertex 0.463525 -1.42658 -18
      vertex 1.23607 -3.80423 -18
      vertex 0.749525 -3.92915 -18
    endloop
  endfacet
  facet normal 0 0 -1
    outer loop
      vertex 1.70312 -3.61931 -18
      vertex 0.638668 -1.35724 -18
      vertex 0.80374 -1.26649 -18
    endloop
  endfacet
  facet normal 0 0 -1
    outer loop
      vertex 1.23607 -3.80423 -18
      vertex 0.463525 -1.42658 -18
      vertex 0.638668 -1.35724 -18
    endloop
  endfacet
  facet normal 0 0 -1
    outer loop
      vertex 0.749525 -3.92915 -18
      vertex 0.281072 -1.47343 -18
      vertex 0.463525 -1.42658 -18
    endloop
  endfacet
  facet normal 0 0 -1
    outer loop
      vertex 0.251162 -3.99211 -18
      vertex 0.281072 -1.47343 -18
      vertex 0.749525 -3.92915 -18
    endloop
  endfacet
  facet normal 0 0 -1
    outer loop
      vertex 0.251162 -3.99211 -18
      vertex 0.0941849 -1.49704 -18
      vertex 0.281072 -1.47343 -18
    endloop
  endfacet
  facet normal 0 0 -1
    outer loop
      vertex 0.251162 -3.99211 -18
      vertex -0.0941849 -1.49704 -18
      vertex 0.0941849 -1.49704 -18
    endloop
  endfacet
  facet normal 0 0 -1
    outer loop
      vertex -0.251162 -3.99211 -18
      vertex -0.0941849 -1.49704 -18
      vertex 0.251162 -3.99211 -18
    endloop
  endfacet
  facet normal 0 0 -1
    outer loop
      vertex -0.251162 -3.99211 -18
      vertex -0.281072 -1.47343 -18
      vertex -0.0941849 -1.49704 -18
    endloop
  endfacet
  facet normal 0 0 -1
    outer loop
      vertex -0.749525 -3.92915 -18
      vertex -0.281072 -1.47343 -18
      vertex -0.251162 -3.99211 -18
    endloop
  endfacet
  facet normal -0 0 -1
    outer loop
      vertex -0.281072 -1.47343 -18
      vertex -0.749525 -3.92915 -18
      vertex -0.463525 -1.42658 -18
    endloop
  endfacet
  facet normal 0 0 -1
    outer loop
      vertex -1.23607 -3.80423 -18
      vertex -0.463525 -1.42658 -18
      vertex -0.749525 -3.92915 -18
    endloop
  endfacet
  facet normal -0 0 -1
    outer loop
      vertex -0.463525 -1.42658 -18
      vertex -1.23607 -3.80423 -18
      vertex -0.638668 -1.35724 -18
    endloop
  endfacet
  facet normal 0 0 -1
    outer loop
      vertex -1.70312 -3.61931 -18
      vertex -0.638668 -1.35724 -18
      vertex -1.23607 -3.80423 -18
    endloop
  endfacet
  facet normal -0 0 -1
    outer loop
      vertex -0.638668 -1.35724 -18
      vertex -1.70312 -3.61931 -18
      vertex -0.80374 -1.26649 -18
    endloop
  endfacet
  facet normal 0 0 -1
    outer loop
      vertex -2.14331 -3.37731 -18
      vertex -0.80374 -1.26649 -18
      vertex -1.70312 -3.61931 -18
    endloop
  endfacet
  facet normal -0 0 -1
    outer loop
      vertex -0.80374 -1.26649 -18
      vertex -2.14331 -3.37731 -18
      vertex -0.956136 -1.15577 -18
    endloop
  endfacet
  facet normal 0 0 -1
    outer loop
      vertex -2.5497 -3.08205 -18
      vertex -0.956136 -1.15577 -18
      vertex -2.14331 -3.37731 -18
    endloop
  endfacet
  facet normal -0 0 -1
    outer loop
      vertex -0.956136 -1.15577 -18
      vertex -2.5497 -3.08205 -18
      vertex -1.09345 -1.02682 -18
    endloop
  endfacet
  facet normal 0 0 -1
    outer loop
      vertex -2.91587 -2.73819 -18
      vertex -1.09345 -1.02682 -18
      vertex -2.5497 -3.08205 -18
    endloop
  endfacet
  facet normal -0 0 -1
    outer loop
      vertex -1.09345 -1.02682 -18
      vertex -2.91587 -2.73819 -18
      vertex -1.21352 -0.881678 -18
    endloop
  endfacet
  facet normal -0 0 -1
    outer loop
      vertex -1.21352 -0.881678 -18
      vertex -3.23607 -2.35114 -18
      vertex -1.31446 -0.722631 -18
    endloop
  endfacet
  facet normal 0 0 -1
    outer loop
      vertex -3.23607 -2.35114 -18
      vertex -1.21352 -0.881678 -18
      vertex -2.91587 -2.73819 -18
    endloop
  endfacet
  facet normal 0 0 -1
    outer loop
      vertex 1.21352 0.881678 -18
      vertex 3.23607 2.35114 -18
      vertex 1.31446 0.722631 -18
    endloop
  endfacet
  facet normal -0 0 -1
    outer loop
      vertex 3.23607 2.35114 -18
      vertex 1.21352 0.881678 -18
      vertex 2.91587 2.73819 -18
    endloop
  endfacet
  facet normal 0 0 -1
    outer loop
      vertex 1.09345 1.02682 -18
      vertex 2.91587 2.73819 -18
      vertex 1.21352 0.881678 -18
    endloop
  endfacet
  facet normal -0 0 -1
    outer loop
      vertex 2.91587 2.73819 -18
      vertex 1.09345 1.02682 -18
      vertex 2.5497 3.08205 -18
    endloop
  endfacet
  facet normal 0 0 -1
    outer loop
      vertex 0.956136 1.15577 -18
      vertex 2.5497 3.08205 -18
      vertex 1.09345 1.02682 -18
    endloop
  endfacet
  facet normal -0 0 -1
    outer loop
      vertex 2.5497 3.08205 -18
      vertex 0.956136 1.15577 -18
      vertex 2.14331 3.37731 -18
    endloop
  endfacet
  facet normal 0 0 -1
    outer loop
      vertex 0.80374 1.26649 -18
      vertex 2.14331 3.37731 -18
      vertex 0.956136 1.15577 -18
    endloop
  endfacet
  facet normal -0 0 -1
    outer loop
      vertex 2.14331 3.37731 -18
      vertex 0.80374 1.26649 -18
      vertex 1.70312 3.61931 -18
    endloop
  endfacet
  facet normal 0 0 -1
    outer loop
      vertex 0.638668 1.35724 -18
      vertex 1.70312 3.61931 -18
      vertex 0.80374 1.26649 -18
    endloop
  endfacet
  facet normal -0 0 -1
    outer loop
      vertex 1.70312 3.61931 -18
      vertex 0.638668 1.35724 -18
      vertex 1.23607 3.80423 -18
    endloop
  endfacet
  facet normal 0 0 -1
    outer loop
      vertex 0.463525 1.42658 -18
      vertex 1.23607 3.80423 -18
      vertex 0.638668 1.35724 -18
    endloop
  endfacet
  facet normal -0 0 -1
    outer loop
      vertex 1.23607 3.80423 -18
      vertex 0.463525 1.42658 -18
      vertex 0.749525 3.92915 -18
    endloop
  endfacet
  facet normal 0 0 -1
    outer loop
      vertex 0.281072 1.47343 -18
      vertex 0.749525 3.92915 -18
      vertex 0.463525 1.42658 -18
    endloop
  endfacet
  facet normal 0 0 -1
    outer loop
      vertex 0.281072 1.47343 -18
      vertex 0.251162 3.99211 -18
      vertex 0.749525 3.92915 -18
    endloop
  endfacet
  facet normal 0 0 -1
    outer loop
      vertex 0.0941849 1.49704 -18
      vertex 0.251162 3.99211 -18
      vertex 0.281072 1.47343 -18
    endloop
  endfacet
  facet normal 0 0 -1
    outer loop
      vertex -0.0941849 1.49704 -18
      vertex 0.251162 3.99211 -18
      vertex 0.0941849 1.49704 -18
    endloop
  endfacet
  facet normal 0 0 -1
    outer loop
      vertex -0.0941849 1.49704 -18
      vertex -0.251162 3.99211 -18
      vertex 0.251162 3.99211 -18
    endloop
  endfacet
  facet normal 0 0 -1
    outer loop
      vertex -0.281072 1.47343 -18
      vertex -0.251162 3.99211 -18
      vertex -0.0941849 1.49704 -18
    endloop
  endfacet
  facet normal 0 0 -1
    outer loop
      vertex -0.749525 3.92915 -18
      vertex -0.281072 1.47343 -18
      vertex -0.463525 1.42658 -18
    endloop
  endfacet
  facet normal 0 0 -1
    outer loop
      vertex -1.23607 3.80423 -18
      vertex -0.463525 1.42658 -18
      vertex -0.638668 1.35724 -18
    endloop
  endfacet
  facet normal 0 0 -1
    outer loop
      vertex -0.281072 1.47343 -18
      vertex -0.749525 3.92915 -18
      vertex -0.251162 3.99211 -18
    endloop
  endfacet
  facet normal 0 0 -1
    outer loop
      vertex -1.70312 3.61931 -18
      vertex -0.638668 1.35724 -18
      vertex -0.80374 1.26649 -18
    endloop
  endfacet
  facet normal 0 0 -1
    outer loop
      vertex -2.14331 3.37731 -18
      vertex -0.80374 1.26649 -18
      vertex -0.956136 1.15577 -18
    endloop
  endfacet
  facet normal 0 0 -1
    outer loop
      vertex -2.5497 3.08205 -18
      vertex -0.956136 1.15577 -18
      vertex -1.09345 1.02682 -18
    endloop
  endfacet
  facet normal 0 0 -1
    outer loop
      vertex -2.91587 2.73819 -18
      vertex -1.09345 1.02682 -18
      vertex -1.21352 0.881678 -18
    endloop
  endfacet
  facet normal 0 0 -1
    outer loop
      vertex -0.463525 1.42658 -18
      vertex -1.23607 3.80423 -18
      vertex -0.749525 3.92915 -18
    endloop
  endfacet
  facet normal 0 0 -1
    outer loop
      vertex -3.23607 2.35114 -18
      vertex -1.21352 0.881678 -18
      vertex -1.31446 0.722631 -18
    endloop
  endfacet
  facet normal 0 0 -1
    outer loop
      vertex -3.50523 1.92701 -18
      vertex -1.31446 0.722631 -18
      vertex -1.39466 0.552186 -18
    endloop
  endfacet
  facet normal 0 0 -1
    outer loop
      vertex -3.71911 1.4725 -18
      vertex -1.39466 0.552186 -18
      vertex -1.45287 0.373034 -18
    endloop
  endfacet
  facet normal 0 0 -1
    outer loop
      vertex -3.87433 0.994759 -18
      vertex -1.45287 0.373034 -18
      vertex -1.48817 0.188 -18
    endloop
  endfacet
  facet normal 0 0 -1
    outer loop
      vertex -0.638668 1.35724 -18
      vertex -1.70312 3.61931 -18
      vertex -1.23607 3.80423 -18
    endloop
  endfacet
  facet normal 0 0 -1
    outer loop
      vertex -3.96846 0.501332 -18
      vertex -1.48817 0.188 -18
      vertex -1.5 0 -18
    endloop
  endfacet
  facet normal 0 0 -1
    outer loop
      vertex -3.50523 -1.92701 -18
      vertex -1.31446 -0.722631 -18
      vertex -3.23607 -2.35114 -18
    endloop
  endfacet
  facet normal -0 0 -1
    outer loop
      vertex -1.31446 -0.722631 -18
      vertex -3.50523 -1.92701 -18
      vertex -1.39466 -0.552186 -18
    endloop
  endfacet
  facet normal 0 0 -1
    outer loop
      vertex -0.80374 1.26649 -18
      vertex -2.14331 3.37731 -18
      vertex -1.70312 3.61931 -18
    endloop
  endfacet
  facet normal 0 0 -1
    outer loop
      vertex -3.71911 -1.4725 -18
      vertex -1.39466 -0.552186 -18
      vertex -3.50523 -1.92701 -18
    endloop
  endfacet
  facet normal 0 0 -1
    outer loop
      vertex -0.956136 1.15577 -18
      vertex -2.5497 3.08205 -18
      vertex -2.14331 3.37731 -18
    endloop
  endfacet
  facet normal -0 0 -1
    outer loop
      vertex -1.39466 -0.552186 -18
      vertex -3.71911 -1.4725 -18
      vertex -1.45287 -0.373034 -18
    endloop
  endfacet
  facet normal 0 0 -1
    outer loop
      vertex -1.09345 1.02682 -18
      vertex -2.91587 2.73819 -18
      vertex -2.5497 3.08205 -18
    endloop
  endfacet
  facet normal 0 0 -1
    outer loop
      vertex -3.87433 -0.994759 -18
      vertex -1.45287 -0.373034 -18
      vertex -3.71911 -1.4725 -18
    endloop
  endfacet
  facet normal 0 0 -1
    outer loop
      vertex -1.21352 0.881678 -18
      vertex -3.23607 2.35114 -18
      vertex -2.91587 2.73819 -18
    endloop
  endfacet
  facet normal -0 0 -1
    outer loop
      vertex -1.45287 -0.373034 -18
      vertex -3.87433 -0.994759 -18
      vertex -1.48817 -0.188 -18
    endloop
  endfacet
  facet normal 0 0 -1
    outer loop
      vertex -1.31446 0.722631 -18
      vertex -3.50523 1.92701 -18
      vertex -3.23607 2.35114 -18
    endloop
  endfacet
  facet normal 0 0 -1
    outer loop
      vertex -3.96846 -0.501332 -18
      vertex -1.48817 -0.188 -18
      vertex -3.87433 -0.994759 -18
    endloop
  endfacet
  facet normal 0 0 -1
    outer loop
      vertex -1.39466 0.552186 -18
      vertex -3.71911 1.4725 -18
      vertex -3.50523 1.92701 -18
    endloop
  endfacet
  facet normal -0 0 -1
    outer loop
      vertex -1.48817 -0.188 -18
      vertex -3.96846 -0.501332 -18
      vertex -1.5 0 -18
    endloop
  endfacet
  facet normal 0 0 -1
    outer loop
      vertex -1.45287 0.373034 -18
      vertex -3.87433 0.994759 -18
      vertex -3.71911 1.4725 -18
    endloop
  endfacet
  facet normal 0 0 -1
    outer loop
      vertex -4 0 -18
      vertex -1.5 0 -18
      vertex -3.96846 -0.501332 -18
    endloop
  endfacet
  facet normal 0 0 -1
    outer loop
      vertex -1.48817 0.188 -18
      vertex -3.96846 0.501332 -18
      vertex -3.87433 0.994759 -18
    endloop
  endfacet
  facet normal 0 0 -1
    outer loop
      vertex -1.5 0 -18
      vertex -4 0 -18
      vertex -3.96846 0.501332 -18
    endloop
  endfacet
  facet normal 0.844329 -0.535825 0
    outer loop
      vertex 3.23607 -2.35114 18
      vertex 3.50523 -1.92701 -18
      vertex 3.50523 -1.92701 18
    endloop
  endfacet
  facet normal 0.844329 -0.535825 0
    outer loop
      vertex 3.50523 -1.92701 -18
      vertex 3.23607 -2.35114 18
      vertex 3.23607 -2.35114 -18
    endloop
  endfacet
  facet normal -0.951061 -0.309004 0
    outer loop
      vertex -3.71911 -1.4725 -18
      vertex -3.87433 -0.994759 18
      vertex -3.87433 -0.994759 -18
    endloop
  endfacet
  facet normal -0.951061 -0.309004 0
    outer loop
      vertex -3.87433 -0.994759 18
      vertex -3.71911 -1.4725 -18
      vertex -3.71911 -1.4725 18
    endloop
  endfacet
  facet normal 0.248683 -0.968585 0
    outer loop
      vertex 0.749525 -3.92915 -18
      vertex 1.23607 -3.80423 18
      vertex 0.749525 -3.92915 18
    endloop
  endfacet
  facet normal 0.248683 -0.968585 0
    outer loop
      vertex 1.23607 -3.80423 18
      vertex 0.749525 -3.92915 -18
      vertex 1.23607 -3.80423 -18
    endloop
  endfacet
  facet normal 0.684551 -0.728965 0
    outer loop
      vertex 2.5497 -3.08205 -18
      vertex 2.91587 -2.73819 18
      vertex 2.5497 -3.08205 18
    endloop
  endfacet
  facet normal 0.684551 -0.728965 0
    outer loop
      vertex 2.91587 -2.73819 18
      vertex 2.5497 -3.08205 -18
      vertex 2.91587 -2.73819 -18
    endloop
  endfacet
  facet normal 0.587786 -0.809017 0
    outer loop
      vertex 2.14331 -3.37731 -18
      vertex 2.5497 -3.08205 18
      vertex 2.14331 -3.37731 18
    endloop
  endfacet
  facet normal 0.587786 -0.809017 0
    outer loop
      vertex 2.5497 -3.08205 18
      vertex 2.14331 -3.37731 -18
      vertex 2.5497 -3.08205 -18
    endloop
  endfacet
  facet normal -0.125337 -0.992114 0
    outer loop
      vertex -0.749525 -3.92915 -18
      vertex -0.251162 -3.99211 18
      vertex -0.749525 -3.92915 18
    endloop
  endfacet
  facet normal -0.125337 -0.992114 -0
    outer loop
      vertex -0.251162 -3.99211 18
      vertex -0.749525 -3.92915 -18
      vertex -0.251162 -3.99211 -18
    endloop
  endfacet
  facet normal -0.248683 -0.968585 0
    outer loop
      vertex -1.23607 -3.80423 -18
      vertex -0.749525 -3.92915 18
      vertex -1.23607 -3.80423 18
    endloop
  endfacet
  facet normal -0.248683 -0.968585 -0
    outer loop
      vertex -0.749525 -3.92915 18
      vertex -1.23607 -3.80423 -18
      vertex -0.749525 -3.92915 -18
    endloop
  endfacet
  facet normal -0.844329 -0.535825 0
    outer loop
      vertex -3.23607 -2.35114 -18
      vertex -3.50523 -1.92701 18
      vertex -3.50523 -1.92701 -18
    endloop
  endfacet
  facet normal -0.844329 -0.535825 0
    outer loop
      vertex -3.50523 -1.92701 18
      vertex -3.23607 -2.35114 -18
      vertex -3.23607 -2.35114 18
    endloop
  endfacet
  facet normal -0.982286 -0.187389 0
    outer loop
      vertex -3.87433 -0.994759 -18
      vertex -3.96846 -0.501332 18
      vertex -3.96846 -0.501332 -18
    endloop
  endfacet
  facet normal -0.982286 -0.187389 0
    outer loop
      vertex -3.96846 -0.501332 18
      vertex -3.87433 -0.994759 -18
      vertex -3.87433 -0.994759 18
    endloop
  endfacet
  facet normal -0.998027 -0.0627883 0
    outer loop
      vertex -3.96846 -0.501332 -18
      vertex -4 0 18
      vertex -4 0 -18
    endloop
  endfacet
  facet normal -0.998027 -0.0627883 0
    outer loop
      vertex -4 0 18
      vertex -3.96846 -0.501332 -18
      vertex -3.96846 -0.501332 18
    endloop
  endfacet
  facet normal -0.481759 -0.876304 0
    outer loop
      vertex -2.14331 -3.37731 -18
      vertex -1.70312 -3.61931 18
      vertex -2.14331 -3.37731 18
    endloop
  endfacet
  facet normal -0.481759 -0.876304 -0
    outer loop
      vertex -1.70312 -3.61931 18
      vertex -2.14331 -3.37731 -18
      vertex -1.70312 -3.61931 -18
    endloop
  endfacet
  facet normal -0.368128 -0.929775 0
    outer loop
      vertex -1.70312 -3.61931 -18
      vertex -1.23607 -3.80423 18
      vertex -1.70312 -3.61931 18
    endloop
  endfacet
  facet normal -0.368128 -0.929775 -0
    outer loop
      vertex -1.23607 -3.80423 18
      vertex -1.70312 -3.61931 -18
      vertex -1.23607 -3.80423 -18
    endloop
  endfacet
  facet normal -0.587786 -0.809017 0
    outer loop
      vertex -2.5497 -3.08205 -18
      vertex -2.14331 -3.37731 18
      vertex -2.5497 -3.08205 18
    endloop
  endfacet
  facet normal -0.587786 -0.809017 -0
    outer loop
      vertex -2.14331 -3.37731 18
      vertex -2.5497 -3.08205 -18
      vertex -2.14331 -3.37731 -18
    endloop
  endfacet
  facet normal 0.951057 -0.309017 0
    outer loop
      vertex -1.45287 0.373034 18
      vertex -1.39466 0.552186 -18
      vertex -1.39466 0.552186 18
    endloop
  endfacet
  facet normal 0.951057 -0.309017 0
    outer loop
      vertex -1.39466 0.552186 -18
      vertex -1.45287 0.373034 18
      vertex -1.45287 0.373034 -18
    endloop
  endfacet
  facet normal -0.844314 -0.535848 0
    outer loop
      vertex 1.31446 0.722631 -18
      vertex 1.21352 0.881678 18
      vertex 1.21352 0.881678 -18
    endloop
  endfacet
  facet normal -0.844314 -0.535848 0
    outer loop
      vertex 1.21352 0.881678 18
      vertex 1.31446 0.722631 -18
      vertex 1.31446 0.722631 18
    endloop
  endfacet
  facet normal -0.368106 -0.929784 0
    outer loop
      vertex 0.463525 1.42658 -18
      vertex 0.638668 1.35724 18
      vertex 0.463525 1.42658 18
    endloop
  endfacet
  facet normal -0.368106 -0.929784 -0
    outer loop
      vertex 0.638668 1.35724 18
      vertex 0.463525 1.42658 -18
      vertex 0.638668 1.35724 -18
    endloop
  endfacet
  facet normal 0.368106 -0.929784 0
    outer loop
      vertex -0.638668 1.35724 -18
      vertex -0.463525 1.42658 18
      vertex -0.638668 1.35724 18
    endloop
  endfacet
  facet normal 0.368106 -0.929784 0
    outer loop
      vertex -0.463525 1.42658 18
      vertex -0.638668 1.35724 -18
      vertex -0.463525 1.42658 -18
    endloop
  endfacet
  facet normal 0.904838 -0.425756 0
    outer loop
      vertex -1.39466 0.552186 18
      vertex -1.31446 0.722631 -18
      vertex -1.31446 0.722631 18
    endloop
  endfacet
  facet normal 0.904838 -0.425756 0
    outer loop
      vertex -1.31446 0.722631 -18
      vertex -1.39466 0.552186 18
      vertex -1.39466 0.552186 -18
    endloop
  endfacet
  facet normal -0.982284 0.187396 0
    outer loop
      vertex 1.45287 -0.373034 -18
      vertex 1.48817 -0.188 18
      vertex 1.48817 -0.188 -18
    endloop
  endfacet
  facet normal -0.982284 0.187396 0
    outer loop
      vertex 1.48817 -0.188 18
      vertex 1.45287 -0.373034 -18
      vertex 1.45287 -0.373034 18
    endloop
  endfacet
  facet normal -0.684557 -0.728959 0
    outer loop
      vertex 0.956136 1.15577 -18
      vertex 1.09345 1.02682 18
      vertex 0.956136 1.15577 18
    endloop
  endfacet
  facet normal -0.684557 -0.728959 -0
    outer loop
      vertex 1.09345 1.02682 18
      vertex 0.956136 1.15577 -18
      vertex 1.09345 1.02682 -18
    endloop
  endfacet
  facet normal -0.125337 -0.992114 0
    outer loop
      vertex 0.0941849 1.49704 -18
      vertex 0.281072 1.47343 18
      vertex 0.0941849 1.49704 18
    endloop
  endfacet
  facet normal -0.125337 -0.992114 -0
    outer loop
      vertex 0.281072 1.47343 18
      vertex 0.0941849 1.49704 -18
      vertex 0.281072 1.47343 -18
    endloop
  endfacet
  facet normal -0.481757 -0.876305 0
    outer loop
      vertex 0.638668 1.35724 -18
      vertex 0.80374 1.26649 18
      vertex 0.638668 1.35724 18
    endloop
  endfacet
  facet normal -0.481757 -0.876305 -0
    outer loop
      vertex 0.80374 1.26649 18
      vertex 0.638668 1.35724 -18
      vertex 0.80374 1.26649 -18
    endloop
  endfacet
  facet normal 0.982284 -0.187396 0
    outer loop
      vertex -1.48817 0.188 18
      vertex -1.45287 0.373034 -18
      vertex -1.45287 0.373034 18
    endloop
  endfacet
  facet normal 0.982284 -0.187396 0
    outer loop
      vertex -1.45287 0.373034 -18
      vertex -1.48817 0.188 18
      vertex -1.48817 0.188 -18
    endloop
  endfacet
  facet normal 0.770518 -0.637418 0
    outer loop
      vertex -1.21352 0.881678 18
      vertex -1.09345 1.02682 -18
      vertex -1.09345 1.02682 18
    endloop
  endfacet
  facet normal 0.770518 -0.637418 0
    outer loop
      vertex -1.09345 1.02682 -18
      vertex -1.21352 0.881678 18
      vertex -1.21352 0.881678 -18
    endloop
  endfacet
  facet normal 0.125337 -0.992114 0
    outer loop
      vertex -0.281072 1.47343 -18
      vertex -0.0941849 1.49704 18
      vertex -0.281072 1.47343 18
    endloop
  endfacet
  facet normal 0.125337 -0.992114 0
    outer loop
      vertex -0.0941849 1.49704 18
      vertex -0.281072 1.47343 -18
      vertex -0.0941849 1.49704 -18
    endloop
  endfacet
  facet normal 0.684557 -0.728959 0
    outer loop
      vertex -1.09345 1.02682 -18
      vertex -0.956136 1.15577 18
      vertex -1.09345 1.02682 18
    endloop
  endfacet
  facet normal 0.684557 -0.728959 0
    outer loop
      vertex -0.956136 1.15577 18
      vertex -1.09345 1.02682 -18
      vertex -0.956136 1.15577 -18
    endloop
  endfacet
  facet normal -0.998026 -0.0628013 0
    outer loop
      vertex 1.5 0 -18
      vertex 1.48817 0.188 18
      vertex 1.48817 0.188 -18
    endloop
  endfacet
  facet normal -0.998026 -0.0628013 0
    outer loop
      vertex 1.48817 0.188 18
      vertex 1.5 0 -18
      vertex 1.5 0 18
    endloop
  endfacet
  facet normal -0.770518 -0.637418 0
    outer loop
      vertex 1.21352 0.881678 -18
      vertex 1.09345 1.02682 18
      vertex 1.09345 1.02682 -18
    endloop
  endfacet
  facet normal -0.770518 -0.637418 0
    outer loop
      vertex 1.09345 1.02682 18
      vertex 1.21352 0.881678 -18
      vertex 1.21352 0.881678 18
    endloop
  endfacet
  facet normal 0 -1 0
    outer loop
      vertex -0.0941849 1.49704 -18
      vertex 0.0941849 1.49704 18
      vertex -0.0941849 1.49704 18
    endloop
  endfacet
  facet normal 0 -1 -0
    outer loop
      vertex 0.0941849 1.49704 18
      vertex -0.0941849 1.49704 -18
      vertex 0.0941849 1.49704 -18
    endloop
  endfacet
  facet normal -0.24871 -0.968578 0
    outer loop
      vertex 0.281072 1.47343 -18
      vertex 0.463525 1.42658 18
      vertex 0.281072 1.47343 18
    endloop
  endfacet
  facet normal -0.24871 -0.968578 -0
    outer loop
      vertex 0.463525 1.42658 18
      vertex 0.281072 1.47343 -18
      vertex 0.463525 1.42658 -18
    endloop
  endfacet
  facet normal -0.587778 -0.809022 0
    outer loop
      vertex 0.80374 1.26649 -18
      vertex 0.956136 1.15577 18
      vertex 0.80374 1.26649 18
    endloop
  endfacet
  facet normal -0.587778 -0.809022 -0
    outer loop
      vertex 0.956136 1.15577 18
      vertex 0.80374 1.26649 -18
      vertex 0.956136 1.15577 -18
    endloop
  endfacet
  facet normal 0.998026 -0.0628013 0
    outer loop
      vertex -1.5 0 18
      vertex -1.48817 0.188 -18
      vertex -1.48817 0.188 18
    endloop
  endfacet
  facet normal 0.998026 -0.0628013 0
    outer loop
      vertex -1.48817 0.188 -18
      vertex -1.5 0 18
      vertex -1.5 0 -18
    endloop
  endfacet
  facet normal 0.844314 -0.535848 0
    outer loop
      vertex -1.31446 0.722631 18
      vertex -1.21352 0.881678 -18
      vertex -1.21352 0.881678 18
    endloop
  endfacet
  facet normal 0.844314 -0.535848 0
    outer loop
      vertex -1.21352 0.881678 -18
      vertex -1.31446 0.722631 18
      vertex -1.31446 0.722631 -18
    endloop
  endfacet
  facet normal 0.24871 -0.968578 0
    outer loop
      vertex -0.463525 1.42658 -18
      vertex -0.281072 1.47343 18
      vertex -0.463525 1.42658 18
    endloop
  endfacet
  facet normal 0.24871 -0.968578 0
    outer loop
      vertex -0.281072 1.47343 18
      vertex -0.463525 1.42658 -18
      vertex -0.281072 1.47343 -18
    endloop
  endfacet
  facet normal 0.587778 -0.809022 0
    outer loop
      vertex -0.956136 1.15577 -18
      vertex -0.80374 1.26649 18
      vertex -0.956136 1.15577 18
    endloop
  endfacet
  facet normal 0.587778 -0.809022 0
    outer loop
      vertex -0.80374 1.26649 18
      vertex -0.956136 1.15577 -18
      vertex -0.80374 1.26649 -18
    endloop
  endfacet
  facet normal 0.481757 -0.876305 0
    outer loop
      vertex -0.80374 1.26649 -18
      vertex -0.638668 1.35724 18
      vertex -0.80374 1.26649 18
    endloop
  endfacet
  facet normal 0.481757 -0.876305 0
    outer loop
      vertex -0.638668 1.35724 18
      vertex -0.80374 1.26649 -18
      vertex -0.638668 1.35724 -18
    endloop
  endfacet
  facet normal -0.998026 0.0628013 0
    outer loop
      vertex 1.48817 -0.188 -18
      vertex 1.5 0 18
      vertex 1.5 0 -18
    endloop
  endfacet
  facet normal -0.998026 0.0628013 0
    outer loop
      vertex 1.5 0 18
      vertex 1.48817 -0.188 -18
      vertex 1.48817 -0.188 18
    endloop
  endfacet
  facet normal 0.844314 0.535848 0
    outer loop
      vertex -1.21352 -0.881678 18
      vertex -1.31446 -0.722631 -18
      vertex -1.31446 -0.722631 18
    endloop
  endfacet
  facet normal 0.844314 0.535848 0
    outer loop
      vertex -1.31446 -0.722631 -18
      vertex -1.21352 -0.881678 18
      vertex -1.21352 -0.881678 -18
    endloop
  endfacet
  facet normal -0.125337 0.992114 0
    outer loop
      vertex 0.281072 -1.47343 -18
      vertex 0.0941849 -1.49704 18
      vertex 0.281072 -1.47343 18
    endloop
  endfacet
  facet normal -0.125337 0.992114 0
    outer loop
      vertex 0.0941849 -1.49704 18
      vertex 0.281072 -1.47343 -18
      vertex 0.0941849 -1.49704 -18
    endloop
  endfacet
  facet normal -0.904838 -0.425756 0
    outer loop
      vertex 1.39466 0.552186 -18
      vertex 1.31446 0.722631 18
      vertex 1.31446 0.722631 -18
    endloop
  endfacet
  facet normal -0.904838 -0.425756 0
    outer loop
      vertex 1.31446 0.722631 18
      vertex 1.39466 0.552186 -18
      vertex 1.39466 0.552186 18
    endloop
  endfacet
  facet normal -0.951057 -0.309017 0
    outer loop
      vertex 1.45287 0.373034 -18
      vertex 1.39466 0.552186 18
      vertex 1.39466 0.552186 -18
    endloop
  endfacet
  facet normal -0.951057 -0.309017 0
    outer loop
      vertex 1.39466 0.552186 18
      vertex 1.45287 0.373034 -18
      vertex 1.45287 0.373034 18
    endloop
  endfacet
  facet normal -0.982284 -0.187396 0
    outer loop
      vertex 1.48817 0.188 -18
      vertex 1.45287 0.373034 18
      vertex 1.45287 0.373034 -18
    endloop
  endfacet
  facet normal -0.982284 -0.187396 0
    outer loop
      vertex 1.45287 0.373034 18
      vertex 1.48817 0.188 -18
      vertex 1.48817 0.188 18
    endloop
  endfacet
  facet normal -0.904838 0.425756 0
    outer loop
      vertex 1.31446 -0.722631 -18
      vertex 1.39466 -0.552186 18
      vertex 1.39466 -0.552186 -18
    endloop
  endfacet
  facet normal -0.904838 0.425756 0
    outer loop
      vertex 1.39466 -0.552186 18
      vertex 1.31446 -0.722631 -18
      vertex 1.31446 -0.722631 18
    endloop
  endfacet
  facet normal -0.951057 0.309017 0
    outer loop
      vertex 1.39466 -0.552186 -18
      vertex 1.45287 -0.373034 18
      vertex 1.45287 -0.373034 -18
    endloop
  endfacet
  facet normal -0.951057 0.309017 0
    outer loop
      vertex 1.45287 -0.373034 18
      vertex 1.39466 -0.552186 -18
      vertex 1.39466 -0.552186 18
    endloop
  endfacet
  facet normal -0.684557 0.728959 0
    outer loop
      vertex 1.09345 -1.02682 -18
      vertex 0.956136 -1.15577 18
      vertex 1.09345 -1.02682 18
    endloop
  endfacet
  facet normal -0.684557 0.728959 0
    outer loop
      vertex 0.956136 -1.15577 18
      vertex 1.09345 -1.02682 -18
      vertex 0.956136 -1.15577 -18
    endloop
  endfacet
  facet normal -0.770518 0.637418 0
    outer loop
      vertex 1.09345 -1.02682 -18
      vertex 1.21352 -0.881678 18
      vertex 1.21352 -0.881678 -18
    endloop
  endfacet
  facet normal -0.770518 0.637418 0
    outer loop
      vertex 1.21352 -0.881678 18
      vertex 1.09345 -1.02682 -18
      vertex 1.09345 -1.02682 18
    endloop
  endfacet
  facet normal 0.998026 0.0628013 0
    outer loop
      vertex -1.48817 -0.188 18
      vertex -1.5 0 -18
      vertex -1.5 0 18
    endloop
  endfacet
  facet normal 0.998026 0.0628013 0
    outer loop
      vertex -1.5 0 -18
      vertex -1.48817 -0.188 18
      vertex -1.48817 -0.188 -18
    endloop
  endfacet
  facet normal 0.982284 0.187396 0
    outer loop
      vertex -1.45287 -0.373034 18
      vertex -1.48817 -0.188 -18
      vertex -1.48817 -0.188 18
    endloop
  endfacet
  facet normal 0.982284 0.187396 0
    outer loop
      vertex -1.48817 -0.188 -18
      vertex -1.45287 -0.373034 18
      vertex -1.45287 -0.373034 -18
    endloop
  endfacet
  facet normal 0.904838 0.425756 0
    outer loop
      vertex -1.31446 -0.722631 18
      vertex -1.39466 -0.552186 -18
      vertex -1.39466 -0.552186 18
    endloop
  endfacet
  facet normal 0.904838 0.425756 0
    outer loop
      vertex -1.39466 -0.552186 -18
      vertex -1.31446 -0.722631 18
      vertex -1.31446 -0.722631 -18
    endloop
  endfacet
  facet normal 0.684557 0.728959 -0
    outer loop
      vertex -0.956136 -1.15577 -18
      vertex -1.09345 -1.02682 18
      vertex -0.956136 -1.15577 18
    endloop
  endfacet
  facet normal 0.684557 0.728959 0
    outer loop
      vertex -1.09345 -1.02682 18
      vertex -0.956136 -1.15577 -18
      vertex -1.09345 -1.02682 -18
    endloop
  endfacet
  facet normal -0.368106 0.929784 0
    outer loop
      vertex 0.638668 -1.35724 -18
      vertex 0.463525 -1.42658 18
      vertex 0.638668 -1.35724 18
    endloop
  endfacet
  facet normal -0.368106 0.929784 0
    outer loop
      vertex 0.463525 -1.42658 18
      vertex 0.638668 -1.35724 -18
      vertex 0.463525 -1.42658 -18
    endloop
  endfacet
  facet normal -0.24871 0.968578 0
    outer loop
      vertex 0.463525 -1.42658 -18
      vertex 0.281072 -1.47343 18
      vertex 0.463525 -1.42658 18
    endloop
  endfacet
  facet normal -0.24871 0.968578 0
    outer loop
      vertex 0.281072 -1.47343 18
      vertex 0.463525 -1.42658 -18
      vertex 0.281072 -1.47343 -18
    endloop
  endfacet
  facet normal -0.587778 0.809022 0
    outer loop
      vertex 0.956136 -1.15577 -18
      vertex 0.80374 -1.26649 18
      vertex 0.956136 -1.15577 18
    endloop
  endfacet
  facet normal -0.587778 0.809022 0
    outer loop
      vertex 0.80374 -1.26649 18
      vertex 0.956136 -1.15577 -18
      vertex 0.80374 -1.26649 -18
    endloop
  endfacet
  facet normal -0.481757 0.876305 0
    outer loop
      vertex 0.80374 -1.26649 -18
      vertex 0.638668 -1.35724 18
      vertex 0.80374 -1.26649 18
    endloop
  endfacet
  facet normal -0.481757 0.876305 0
    outer loop
      vertex 0.638668 -1.35724 18
      vertex 0.80374 -1.26649 -18
      vertex 0.638668 -1.35724 -18
    endloop
  endfacet
  facet normal -0.844314 0.535848 0
    outer loop
      vertex 1.21352 -0.881678 -18
      vertex 1.31446 -0.722631 18
      vertex 1.31446 -0.722631 -18
    endloop
  endfacet
  facet normal -0.844314 0.535848 0
    outer loop
      vertex 1.31446 -0.722631 18
      vertex 1.21352 -0.881678 -18
      vertex 1.21352 -0.881678 18
    endloop
  endfacet
  facet normal 0.368106 0.929784 -0
    outer loop
      vertex -0.463525 -1.42658 -18
      vertex -0.638668 -1.35724 18
      vertex -0.463525 -1.42658 18
    endloop
  endfacet
  facet normal 0.368106 0.929784 0
    outer loop
      vertex -0.638668 -1.35724 18
      vertex -0.463525 -1.42658 -18
      vertex -0.638668 -1.35724 -18
    endloop
  endfacet
  facet normal 0 1 -0
    outer loop
      vertex 0.0941849 -1.49704 -18
      vertex -0.0941849 -1.49704 18
      vertex 0.0941849 -1.49704 18
    endloop
  endfacet
  facet normal 0 1 0
    outer loop
      vertex -0.0941849 -1.49704 18
      vertex 0.0941849 -1.49704 -18
      vertex -0.0941849 -1.49704 -18
    endloop
  endfacet
  facet normal 0.125337 0.992114 -0
    outer loop
      vertex -0.0941849 -1.49704 -18
      vertex -0.281072 -1.47343 18
      vertex -0.0941849 -1.49704 18
    endloop
  endfacet
  facet normal 0.125337 0.992114 0
    outer loop
      vertex -0.281072 -1.47343 18
      vertex -0.0941849 -1.49704 -18
      vertex -0.281072 -1.47343 -18
    endloop
  endfacet
  facet normal 0.587778 0.809022 -0
    outer loop
      vertex -0.80374 -1.26649 -18
      vertex -0.956136 -1.15577 18
      vertex -0.80374 -1.26649 18
    endloop
  endfacet
  facet normal 0.587778 0.809022 0
    outer loop
      vertex -0.956136 -1.15577 18
      vertex -0.80374 -1.26649 -18
      vertex -0.956136 -1.15577 -18
    endloop
  endfacet
  facet normal 0.481757 0.876305 -0
    outer loop
      vertex -0.638668 -1.35724 -18
      vertex -0.80374 -1.26649 18
      vertex -0.638668 -1.35724 18
    endloop
  endfacet
  facet normal 0.481757 0.876305 0
    outer loop
      vertex -0.80374 -1.26649 18
      vertex -0.638668 -1.35724 -18
      vertex -0.80374 -1.26649 -18
    endloop
  endfacet
  facet normal 0.24871 0.968578 -0
    outer loop
      vertex -0.281072 -1.47343 -18
      vertex -0.463525 -1.42658 18
      vertex -0.281072 -1.47343 18
    endloop
  endfacet
  facet normal 0.24871 0.968578 0
    outer loop
      vertex -0.463525 -1.42658 18
      vertex -0.281072 -1.47343 -18
      vertex -0.463525 -1.42658 -18
    endloop
  endfacet
  facet normal 0.951057 0.309017 0
    outer loop
      vertex -1.39466 -0.552186 18
      vertex -1.45287 -0.373034 -18
      vertex -1.45287 -0.373034 18
    endloop
  endfacet
  facet normal 0.951057 0.309017 0
    outer loop
      vertex -1.45287 -0.373034 -18
      vertex -1.39466 -0.552186 18
      vertex -1.39466 -0.552186 -18
    endloop
  endfacet
  facet normal 0.770518 0.637418 0
    outer loop
      vertex -1.09345 -1.02682 18
      vertex -1.21352 -0.881678 -18
      vertex -1.21352 -0.881678 18
    endloop
  endfacet
  facet normal 0.770518 0.637418 0
    outer loop
      vertex -1.21352 -0.881678 -18
      vertex -1.09345 -1.02682 18
      vertex -1.09345 -1.02682 -18
    endloop
  endfacet
endsolid OpenSCAD_Model
