solid OpenSCAD_Model
  facet normal 0.998027 0.0627938 0
    outer loop
      vertex 21 0 20
      vertex 20.8344 2.632 -20
      vertex 20.8344 2.632 20
    endloop
  endfacet
  facet normal 0.998027 0.0627938 0
    outer loop
      vertex 20.8344 2.632 -20
      vertex 21 0 20
      vertex 21 0 -20
    endloop
  endfacet
  facet normal -0.998027 0.0627938 0
    outer loop
      vertex -21 0 -20
      vertex -20.8344 2.632 20
      vertex -20.8344 2.632 -20
    endloop
  endfacet
  facet normal -0.998027 0.0627938 0
    outer loop
      vertex -20.8344 2.632 20
      vertex -21 0 -20
      vertex -21 0 20
    endloop
  endfacet
  facet normal 0 1 -0
    outer loop
      vertex 1.3186 20.9586 -20
      vertex -1.3186 20.9586 20
      vertex 1.3186 20.9586 20
    endloop
  endfacet
  facet normal 0 1 0
    outer loop
      vertex -1.3186 20.9586 20
      vertex 1.3186 20.9586 -20
      vertex -1.3186 20.9586 -20
    endloop
  endfacet
  facet normal 0 -1 0
    outer loop
      vertex -1.3186 -20.9586 -20
      vertex 1.3186 -20.9586 20
      vertex -1.3186 -20.9586 20
    endloop
  endfacet
  facet normal 0 -1 -0
    outer loop
      vertex 1.3186 -20.9586 20
      vertex -1.3186 -20.9586 -20
      vertex 1.3186 -20.9586 -20
    endloop
  endfacet
  facet normal 0.684556 0.72896 -0
    outer loop
      vertex 15.3083 14.3755 -20
      vertex 13.3859 16.1808 20
      vertex 15.3083 14.3755 20
    endloop
  endfacet
  facet normal 0.684556 0.72896 0
    outer loop
      vertex 13.3859 16.1808 20
      vertex 15.3083 14.3755 -20
      vertex 13.3859 16.1808 -20
    endloop
  endfacet
  facet normal -0.684556 0.72896 0
    outer loop
      vertex -13.3859 16.1808 -20
      vertex -15.3083 14.3755 20
      vertex -13.3859 16.1808 20
    endloop
  endfacet
  facet normal -0.684556 0.72896 0
    outer loop
      vertex -15.3083 14.3755 20
      vertex -13.3859 16.1808 -20
      vertex -15.3083 14.3755 -20
    endloop
  endfacet
  facet normal -0.368119 0.929778 0
    outer loop
      vertex -6.48936 19.9722 -20
      vertex -8.94136 19.0014 20
      vertex -6.48936 19.9722 20
    endloop
  endfacet
  facet normal -0.368119 0.929778 0
    outer loop
      vertex -8.94136 19.0014 20
      vertex -6.48936 19.9722 -20
      vertex -8.94136 19.0014 -20
    endloop
  endfacet
  facet normal 0.904821 0.425793 0
    outer loop
      vertex 19.5253 7.73061 20
      vertex 18.4024 10.1168 -20
      vertex 18.4024 10.1168 20
    endloop
  endfacet
  facet normal 0.904821 0.425793 0
    outer loop
      vertex 18.4024 10.1168 -20
      vertex 19.5253 7.73061 20
      vertex 19.5253 7.73061 -20
    endloop
  endfacet
  facet normal 0.982285 0.187395 0
    outer loop
      vertex 20.8344 2.632 20
      vertex 20.3402 5.22249 -20
      vertex 20.3402 5.22249 20
    endloop
  endfacet
  facet normal 0.982285 0.187395 0
    outer loop
      vertex 20.3402 5.22249 -20
      vertex 20.8344 2.632 20
      vertex 20.8344 2.632 -20
    endloop
  endfacet
  facet normal 0.368119 0.929778 -0
    outer loop
      vertex 8.94136 19.0014 -20
      vertex 6.48936 19.9722 20
      vertex 8.94136 19.0014 20
    endloop
  endfacet
  facet normal 0.368119 0.929778 0
    outer loop
      vertex 6.48936 19.9722 20
      vertex 8.94136 19.0014 -20
      vertex 6.48936 19.9722 -20
    endloop
  endfacet
  facet normal 0.481752 0.876307 -0
    outer loop
      vertex 11.2524 17.7309 -20
      vertex 8.94136 19.0014 20
      vertex 11.2524 17.7309 20
    endloop
  endfacet
  facet normal 0.481752 0.876307 0
    outer loop
      vertex 8.94136 19.0014 20
      vertex 11.2524 17.7309 -20
      vertex 8.94136 19.0014 -20
    endloop
  endfacet
  facet normal -0.904821 0.425793 0
    outer loop
      vertex -19.5253 7.73061 -20
      vertex -18.4024 10.1168 20
      vertex -18.4024 10.1168 -20
    endloop
  endfacet
  facet normal -0.904821 0.425793 0
    outer loop
      vertex -18.4024 10.1168 20
      vertex -19.5253 7.73061 -20
      vertex -19.5253 7.73061 20
    endloop
  endfacet
  facet normal -0.951061 0.309004 0
    outer loop
      vertex -20.3402 5.22249 -20
      vertex -19.5253 7.73061 20
      vertex -19.5253 7.73061 -20
    endloop
  endfacet
  facet normal -0.951061 0.309004 0
    outer loop
      vertex -19.5253 7.73061 20
      vertex -20.3402 5.22249 -20
      vertex -20.3402 5.22249 20
    endloop
  endfacet
  facet normal -0.12536 0.992111 0
    outer loop
      vertex -1.3186 20.9586 -20
      vertex -3.93501 20.628 20
      vertex -1.3186 20.9586 20
    endloop
  endfacet
  facet normal -0.12536 0.992111 0
    outer loop
      vertex -3.93501 20.628 20
      vertex -1.3186 20.9586 -20
      vertex -3.93501 20.628 -20
    endloop
  endfacet
  facet normal 0.368119 -0.929778 0
    outer loop
      vertex 6.48936 -19.9722 -20
      vertex 8.94136 -19.0014 20
      vertex 6.48936 -19.9722 20
    endloop
  endfacet
  facet normal 0.368119 -0.929778 0
    outer loop
      vertex 8.94136 -19.0014 20
      vertex 6.48936 -19.9722 -20
      vertex 8.94136 -19.0014 -20
    endloop
  endfacet
  facet normal 0.951061 0.309004 0
    outer loop
      vertex 20.3402 5.22249 20
      vertex 19.5253 7.73061 -20
      vertex 19.5253 7.73061 20
    endloop
  endfacet
  facet normal 0.951061 0.309004 0
    outer loop
      vertex 19.5253 7.73061 -20
      vertex 20.3402 5.22249 20
      vertex 20.3402 5.22249 -20
    endloop
  endfacet
  facet normal 0.770498 0.637443 0
    outer loop
      vertex 16.9894 12.3435 20
      vertex 15.3083 14.3755 -20
      vertex 15.3083 14.3755 20
    endloop
  endfacet
  facet normal 0.770498 0.637443 0
    outer loop
      vertex 15.3083 14.3755 -20
      vertex 16.9894 12.3435 20
      vertex 16.9894 12.3435 -20
    endloop
  endfacet
  facet normal 0.844346 0.535798 0
    outer loop
      vertex 18.4024 10.1168 20
      vertex 16.9894 12.3435 -20
      vertex 16.9894 12.3435 20
    endloop
  endfacet
  facet normal 0.844346 0.535798 0
    outer loop
      vertex 16.9894 12.3435 -20
      vertex 18.4024 10.1168 20
      vertex 18.4024 10.1168 -20
    endloop
  endfacet
  facet normal 0.248674 0.968587 -0
    outer loop
      vertex 6.48936 19.9722 -20
      vertex 3.93501 20.628 20
      vertex 6.48936 19.9722 20
    endloop
  endfacet
  facet normal 0.248674 0.968587 0
    outer loop
      vertex 3.93501 20.628 20
      vertex 6.48936 19.9722 -20
      vertex 3.93501 20.628 -20
    endloop
  endfacet
  facet normal 0.12536 0.992111 -0
    outer loop
      vertex 3.93501 20.628 -20
      vertex 1.3186 20.9586 20
      vertex 3.93501 20.628 20
    endloop
  endfacet
  facet normal 0.12536 0.992111 0
    outer loop
      vertex 1.3186 20.9586 20
      vertex 3.93501 20.628 -20
      vertex 1.3186 20.9586 -20
    endloop
  endfacet
  facet normal 0.587791 0.809013 -0
    outer loop
      vertex 13.3859 16.1808 -20
      vertex 11.2524 17.7309 20
      vertex 13.3859 16.1808 20
    endloop
  endfacet
  facet normal 0.587791 0.809013 0
    outer loop
      vertex 11.2524 17.7309 20
      vertex 13.3859 16.1808 -20
      vertex 11.2524 17.7309 -20
    endloop
  endfacet
  facet normal -0.844346 0.535798 0
    outer loop
      vertex -18.4024 10.1168 -20
      vertex -16.9894 12.3435 20
      vertex -16.9894 12.3435 -20
    endloop
  endfacet
  facet normal -0.844346 0.535798 0
    outer loop
      vertex -16.9894 12.3435 20
      vertex -18.4024 10.1168 -20
      vertex -18.4024 10.1168 20
    endloop
  endfacet
  facet normal -0.770498 0.637443 0
    outer loop
      vertex -16.9894 12.3435 -20
      vertex -15.3083 14.3755 20
      vertex -15.3083 14.3755 -20
    endloop
  endfacet
  facet normal -0.770498 0.637443 0
    outer loop
      vertex -15.3083 14.3755 20
      vertex -16.9894 12.3435 -20
      vertex -16.9894 12.3435 20
    endloop
  endfacet
  facet normal -0.982285 0.187395 0
    outer loop
      vertex -20.8344 2.632 -20
      vertex -20.3402 5.22249 20
      vertex -20.3402 5.22249 -20
    endloop
  endfacet
  facet normal -0.982285 0.187395 0
    outer loop
      vertex -20.3402 5.22249 20
      vertex -20.8344 2.632 -20
      vertex -20.8344 2.632 20
    endloop
  endfacet
  facet normal 0 0 1
    outer loop
      vertex 1.35 0 20
      vertex 21 0 20
      vertex 20.8344 2.632 20
    endloop
  endfacet
  facet normal 0 0 1
    outer loop
      vertex 1.33935 0.169199 20
      vertex 20.8344 2.632 20
      vertex 20.3402 5.22249 20
    endloop
  endfacet
  facet normal 0 0 1
    outer loop
      vertex 21 0 20
      vertex 1.35 0 20
      vertex 20.8344 -2.632 20
    endloop
  endfacet
  facet normal 0 0 1
    outer loop
      vertex 1.30759 0.335731 20
      vertex 20.3402 5.22249 20
      vertex 19.5253 7.73061 20
    endloop
  endfacet
  facet normal -0 0 1
    outer loop
      vertex 1.33935 -0.169199 20
      vertex 20.8344 -2.632 20
      vertex 1.35 0 20
    endloop
  endfacet
  facet normal 0 0 1
    outer loop
      vertex 1.2552 0.496967 20
      vertex 19.5253 7.73061 20
      vertex 18.4024 10.1168 20
    endloop
  endfacet
  facet normal 0 0 1
    outer loop
      vertex 20.8344 -2.632 20
      vertex 1.33935 -0.169199 20
      vertex 20.3402 -5.22249 20
    endloop
  endfacet
  facet normal 0 0 1
    outer loop
      vertex 1.18301 0.650367 20
      vertex 18.4024 10.1168 20
      vertex 16.9894 12.3435 20
    endloop
  endfacet
  facet normal -0 0 1
    outer loop
      vertex 1.30759 -0.335731 20
      vertex 20.3402 -5.22249 20
      vertex 1.33935 -0.169199 20
    endloop
  endfacet
  facet normal 0 0 1
    outer loop
      vertex 1.09217 0.793509 20
      vertex 16.9894 12.3435 20
      vertex 15.3083 14.3755 20
    endloop
  endfacet
  facet normal 0 0 1
    outer loop
      vertex 20.3402 -5.22249 20
      vertex 1.30759 -0.335731 20
      vertex 19.5253 -7.73061 20
    endloop
  endfacet
  facet normal 0 0 1
    outer loop
      vertex 0.984107 0.924138 20
      vertex 15.3083 14.3755 20
      vertex 13.3859 16.1808 20
    endloop
  endfacet
  facet normal -0 0 1
    outer loop
      vertex 1.2552 -0.496967 20
      vertex 19.5253 -7.73061 20
      vertex 1.30759 -0.335731 20
    endloop
  endfacet
  facet normal 0 0 1
    outer loop
      vertex 0.860522 1.04019 20
      vertex 13.3859 16.1808 20
      vertex 11.2524 17.7309 20
    endloop
  endfacet
  facet normal 0 0 1
    outer loop
      vertex 19.5253 -7.73061 20
      vertex 1.2552 -0.496967 20
      vertex 18.4024 -10.1168 20
    endloop
  endfacet
  facet normal 0 0 1
    outer loop
      vertex 0.723366 1.13984 20
      vertex 11.2524 17.7309 20
      vertex 8.94136 19.0014 20
    endloop
  endfacet
  facet normal -0 0 1
    outer loop
      vertex 1.18301 -0.650367 20
      vertex 18.4024 -10.1168 20
      vertex 1.2552 -0.496967 20
    endloop
  endfacet
  facet normal 0 0 1
    outer loop
      vertex 0.574801 1.22152 20
      vertex 8.94136 19.0014 20
      vertex 6.48936 19.9722 20
    endloop
  endfacet
  facet normal 0 0 1
    outer loop
      vertex 18.4024 -10.1168 20
      vertex 1.18301 -0.650367 20
      vertex 16.9894 -12.3435 20
    endloop
  endfacet
  facet normal 0 0 1
    outer loop
      vertex 0.417172 1.28393 20
      vertex 6.48936 19.9722 20
      vertex 3.93501 20.628 20
    endloop
  endfacet
  facet normal -0 0 1
    outer loop
      vertex 1.09217 -0.793509 20
      vertex 16.9894 -12.3435 20
      vertex 1.18301 -0.650367 20
    endloop
  endfacet
  facet normal 0 0 1
    outer loop
      vertex 16.9894 -12.3435 20
      vertex 1.09217 -0.793509 20
      vertex 15.3083 -14.3755 20
    endloop
  endfacet
  facet normal 0 0 1
    outer loop
      vertex 20.8344 2.632 20
      vertex 1.33935 0.169199 20
      vertex 1.35 0 20
    endloop
  endfacet
  facet normal 0 0 1
    outer loop
      vertex 0.252964 1.32609 20
      vertex 3.93501 20.628 20
      vertex 1.3186 20.9586 20
    endloop
  endfacet
  facet normal 0 0 1
    outer loop
      vertex 20.3402 5.22249 20
      vertex 1.30759 0.335731 20
      vertex 1.33935 0.169199 20
    endloop
  endfacet
  facet normal 0 0 1
    outer loop
      vertex 19.5253 7.73061 20
      vertex 1.2552 0.496967 20
      vertex 1.30759 0.335731 20
    endloop
  endfacet
  facet normal 0 0 1
    outer loop
      vertex 18.4024 10.1168 20
      vertex 1.18301 0.650367 20
      vertex 1.2552 0.496967 20
    endloop
  endfacet
  facet normal 0 0 1
    outer loop
      vertex 16.9894 12.3435 20
      vertex 1.09217 0.793509 20
      vertex 1.18301 0.650367 20
    endloop
  endfacet
  facet normal 0 0 1
    outer loop
      vertex 15.3083 14.3755 20
      vertex 0.984107 0.924138 20
      vertex 1.09217 0.793509 20
    endloop
  endfacet
  facet normal 0 0 1
    outer loop
      vertex 13.3859 16.1808 20
      vertex 0.860522 1.04019 20
      vertex 0.984107 0.924138 20
    endloop
  endfacet
  facet normal 0 0 1
    outer loop
      vertex 11.2524 17.7309 20
      vertex 0.723366 1.13984 20
      vertex 0.860522 1.04019 20
    endloop
  endfacet
  facet normal 0 0 1
    outer loop
      vertex 8.94136 19.0014 20
      vertex 0.574801 1.22152 20
      vertex 0.723366 1.13984 20
    endloop
  endfacet
  facet normal 0 0 1
    outer loop
      vertex 6.48936 19.9722 20
      vertex 0.417172 1.28393 20
      vertex 0.574801 1.22152 20
    endloop
  endfacet
  facet normal 0 0 1
    outer loop
      vertex 3.93501 20.628 20
      vertex 0.252964 1.32609 20
      vertex 0.417172 1.28393 20
    endloop
  endfacet
  facet normal 0 0 1
    outer loop
      vertex 1.3186 20.9586 20
      vertex 0.0847664 1.34734 20
      vertex 0.252964 1.32609 20
    endloop
  endfacet
  facet normal 0 0 1
    outer loop
      vertex 1.3186 20.9586 20
      vertex -0.0847664 1.34734 20
      vertex 0.0847664 1.34734 20
    endloop
  endfacet
  facet normal -0 0 1
    outer loop
      vertex -1.3186 20.9586 20
      vertex -0.0847664 1.34734 20
      vertex 1.3186 20.9586 20
    endloop
  endfacet
  facet normal 0 0 1
    outer loop
      vertex -0.0847664 1.34734 20
      vertex -1.3186 20.9586 20
      vertex -0.252964 1.32609 20
    endloop
  endfacet
  facet normal -0 0 1
    outer loop
      vertex -3.93501 20.628 20
      vertex -0.252964 1.32609 20
      vertex -1.3186 20.9586 20
    endloop
  endfacet
  facet normal 0 0 1
    outer loop
      vertex -0.252964 1.32609 20
      vertex -3.93501 20.628 20
      vertex -0.417172 1.28393 20
    endloop
  endfacet
  facet normal -0 0 1
    outer loop
      vertex -6.48936 19.9722 20
      vertex -0.417172 1.28393 20
      vertex -3.93501 20.628 20
    endloop
  endfacet
  facet normal 0 0 1
    outer loop
      vertex -0.417172 1.28393 20
      vertex -6.48936 19.9722 20
      vertex -0.574801 1.22152 20
    endloop
  endfacet
  facet normal -0 0 1
    outer loop
      vertex -8.94136 19.0014 20
      vertex -0.574801 1.22152 20
      vertex -6.48936 19.9722 20
    endloop
  endfacet
  facet normal 0 0 1
    outer loop
      vertex -0.574801 1.22152 20
      vertex -8.94136 19.0014 20
      vertex -0.723366 1.13984 20
    endloop
  endfacet
  facet normal -0 0 1
    outer loop
      vertex -11.2524 17.7309 20
      vertex -0.723366 1.13984 20
      vertex -8.94136 19.0014 20
    endloop
  endfacet
  facet normal 0 0 1
    outer loop
      vertex -0.723366 1.13984 20
      vertex -11.2524 17.7309 20
      vertex -0.860522 1.04019 20
    endloop
  endfacet
  facet normal -0 0 1
    outer loop
      vertex -13.3859 16.1808 20
      vertex -0.860522 1.04019 20
      vertex -11.2524 17.7309 20
    endloop
  endfacet
  facet normal 0 0 1
    outer loop
      vertex -0.860522 1.04019 20
      vertex -13.3859 16.1808 20
      vertex -0.984107 0.924138 20
    endloop
  endfacet
  facet normal -0 0 1
    outer loop
      vertex -15.3083 14.3755 20
      vertex -0.984107 0.924138 20
      vertex -13.3859 16.1808 20
    endloop
  endfacet
  facet normal 0 0 1
    outer loop
      vertex -0.984107 0.924138 20
      vertex -15.3083 14.3755 20
      vertex -1.09217 0.793509 20
    endloop
  endfacet
  facet normal -0 0 1
    outer loop
      vertex 0.984107 -0.924138 20
      vertex 15.3083 -14.3755 20
      vertex 1.09217 -0.793509 20
    endloop
  endfacet
  facet normal 0 0 1
    outer loop
      vertex 15.3083 -14.3755 20
      vertex 0.984107 -0.924138 20
      vertex 13.3859 -16.1808 20
    endloop
  endfacet
  facet normal -0 0 1
    outer loop
      vertex 0.860522 -1.04019 20
      vertex 13.3859 -16.1808 20
      vertex 0.984107 -0.924138 20
    endloop
  endfacet
  facet normal 0 0 1
    outer loop
      vertex 13.3859 -16.1808 20
      vertex 0.860522 -1.04019 20
      vertex 11.2524 -17.7309 20
    endloop
  endfacet
  facet normal -0 0 1
    outer loop
      vertex 0.723366 -1.13984 20
      vertex 11.2524 -17.7309 20
      vertex 0.860522 -1.04019 20
    endloop
  endfacet
  facet normal 0 0 1
    outer loop
      vertex 11.2524 -17.7309 20
      vertex 0.723366 -1.13984 20
      vertex 8.94136 -19.0014 20
    endloop
  endfacet
  facet normal -0 0 1
    outer loop
      vertex 0.574801 -1.22152 20
      vertex 8.94136 -19.0014 20
      vertex 0.723366 -1.13984 20
    endloop
  endfacet
  facet normal 0 0 1
    outer loop
      vertex 8.94136 -19.0014 20
      vertex 0.574801 -1.22152 20
      vertex 6.48936 -19.9722 20
    endloop
  endfacet
  facet normal -0 0 1
    outer loop
      vertex 0.417172 -1.28393 20
      vertex 6.48936 -19.9722 20
      vertex 0.574801 -1.22152 20
    endloop
  endfacet
  facet normal 0 0 1
    outer loop
      vertex 6.48936 -19.9722 20
      vertex 0.417172 -1.28393 20
      vertex 3.93501 -20.628 20
    endloop
  endfacet
  facet normal -0 0 1
    outer loop
      vertex 0.252964 -1.32609 20
      vertex 3.93501 -20.628 20
      vertex 0.417172 -1.28393 20
    endloop
  endfacet
  facet normal 0 0 1
    outer loop
      vertex 3.93501 -20.628 20
      vertex 0.252964 -1.32609 20
      vertex 1.3186 -20.9586 20
    endloop
  endfacet
  facet normal -0 0 1
    outer loop
      vertex 0.0847664 -1.34734 20
      vertex 1.3186 -20.9586 20
      vertex 0.252964 -1.32609 20
    endloop
  endfacet
  facet normal -0 0 1
    outer loop
      vertex -0.0847664 -1.34734 20
      vertex 1.3186 -20.9586 20
      vertex 0.0847664 -1.34734 20
    endloop
  endfacet
  facet normal 0 0 1
    outer loop
      vertex -1.3186 -20.9586 20
      vertex -0.0847664 -1.34734 20
      vertex -0.252964 -1.32609 20
    endloop
  endfacet
  facet normal 0 0 1
    outer loop
      vertex -3.93501 -20.628 20
      vertex -0.252964 -1.32609 20
      vertex -0.417172 -1.28393 20
    endloop
  endfacet
  facet normal 0 0 1
    outer loop
      vertex -6.48936 -19.9722 20
      vertex -0.417172 -1.28393 20
      vertex -0.574801 -1.22152 20
    endloop
  endfacet
  facet normal 0 0 1
    outer loop
      vertex -8.94136 -19.0014 20
      vertex -0.574801 -1.22152 20
      vertex -0.723366 -1.13984 20
    endloop
  endfacet
  facet normal 0 0 1
    outer loop
      vertex -11.2524 -17.7309 20
      vertex -0.723366 -1.13984 20
      vertex -0.860522 -1.04019 20
    endloop
  endfacet
  facet normal 0 0 1
    outer loop
      vertex -13.3859 -16.1808 20
      vertex -0.860522 -1.04019 20
      vertex -0.984107 -0.924138 20
    endloop
  endfacet
  facet normal 0 0 1
    outer loop
      vertex -15.3083 -14.3755 20
      vertex -0.984107 -0.924138 20
      vertex -1.09217 -0.793509 20
    endloop
  endfacet
  facet normal 0 0 1
    outer loop
      vertex -16.9894 -12.3435 20
      vertex -1.09217 -0.793509 20
      vertex -1.18301 -0.650367 20
    endloop
  endfacet
  facet normal 0 0 1
    outer loop
      vertex -18.4024 -10.1168 20
      vertex -1.18301 -0.650367 20
      vertex -1.2552 -0.496967 20
    endloop
  endfacet
  facet normal 0 0 1
    outer loop
      vertex -19.5253 -7.73061 20
      vertex -1.2552 -0.496967 20
      vertex -1.30759 -0.335731 20
    endloop
  endfacet
  facet normal 0 0 1
    outer loop
      vertex -0.0847664 -1.34734 20
      vertex -1.3186 -20.9586 20
      vertex 1.3186 -20.9586 20
    endloop
  endfacet
  facet normal 0 0 1
    outer loop
      vertex -20.3402 -5.22249 20
      vertex -1.30759 -0.335731 20
      vertex -1.33935 -0.169199 20
    endloop
  endfacet
  facet normal 0 0 1
    outer loop
      vertex -20.8344 -2.632 20
      vertex -1.33935 -0.169199 20
      vertex -1.35 0 20
    endloop
  endfacet
  facet normal -0 0 1
    outer loop
      vertex -16.9894 12.3435 20
      vertex -1.09217 0.793509 20
      vertex -15.3083 14.3755 20
    endloop
  endfacet
  facet normal 0 0 1
    outer loop
      vertex -0.252964 -1.32609 20
      vertex -3.93501 -20.628 20
      vertex -1.3186 -20.9586 20
    endloop
  endfacet
  facet normal 0 0 1
    outer loop
      vertex -1.09217 0.793509 20
      vertex -16.9894 12.3435 20
      vertex -1.18301 0.650367 20
    endloop
  endfacet
  facet normal 0 0 1
    outer loop
      vertex -0.417172 -1.28393 20
      vertex -6.48936 -19.9722 20
      vertex -3.93501 -20.628 20
    endloop
  endfacet
  facet normal -0 0 1
    outer loop
      vertex -18.4024 10.1168 20
      vertex -1.18301 0.650367 20
      vertex -16.9894 12.3435 20
    endloop
  endfacet
  facet normal 0 0 1
    outer loop
      vertex -0.574801 -1.22152 20
      vertex -8.94136 -19.0014 20
      vertex -6.48936 -19.9722 20
    endloop
  endfacet
  facet normal 0 0 1
    outer loop
      vertex -1.18301 0.650367 20
      vertex -18.4024 10.1168 20
      vertex -1.2552 0.496967 20
    endloop
  endfacet
  facet normal 0 0 1
    outer loop
      vertex -0.723366 -1.13984 20
      vertex -11.2524 -17.7309 20
      vertex -8.94136 -19.0014 20
    endloop
  endfacet
  facet normal -0 0 1
    outer loop
      vertex -19.5253 7.73061 20
      vertex -1.2552 0.496967 20
      vertex -18.4024 10.1168 20
    endloop
  endfacet
  facet normal 0 0 1
    outer loop
      vertex -0.860522 -1.04019 20
      vertex -13.3859 -16.1808 20
      vertex -11.2524 -17.7309 20
    endloop
  endfacet
  facet normal 0 0 1
    outer loop
      vertex -1.2552 0.496967 20
      vertex -19.5253 7.73061 20
      vertex -1.30759 0.335731 20
    endloop
  endfacet
  facet normal 0 0 1
    outer loop
      vertex -0.984107 -0.924138 20
      vertex -15.3083 -14.3755 20
      vertex -13.3859 -16.1808 20
    endloop
  endfacet
  facet normal -0 0 1
    outer loop
      vertex -20.3402 5.22249 20
      vertex -1.30759 0.335731 20
      vertex -19.5253 7.73061 20
    endloop
  endfacet
  facet normal 0 0 1
    outer loop
      vertex -1.09217 -0.793509 20
      vertex -16.9894 -12.3435 20
      vertex -15.3083 -14.3755 20
    endloop
  endfacet
  facet normal 0 0 1
    outer loop
      vertex -1.30759 0.335731 20
      vertex -20.3402 5.22249 20
      vertex -1.33935 0.169199 20
    endloop
  endfacet
  facet normal 0 0 1
    outer loop
      vertex -1.18301 -0.650367 20
      vertex -18.4024 -10.1168 20
      vertex -16.9894 -12.3435 20
    endloop
  endfacet
  facet normal -0 0 1
    outer loop
      vertex -20.8344 2.632 20
      vertex -1.33935 0.169199 20
      vertex -20.3402 5.22249 20
    endloop
  endfacet
  facet normal 0 0 1
    outer loop
      vertex -1.2552 -0.496967 20
      vertex -19.5253 -7.73061 20
      vertex -18.4024 -10.1168 20
    endloop
  endfacet
  facet normal 0 0 1
    outer loop
      vertex -1.33935 0.169199 20
      vertex -20.8344 2.632 20
      vertex -1.35 0 20
    endloop
  endfacet
  facet normal 0 0 1
    outer loop
      vertex -1.30759 -0.335731 20
      vertex -20.3402 -5.22249 20
      vertex -19.5253 -7.73061 20
    endloop
  endfacet
  facet normal 0 0 1
    outer loop
      vertex -21 0 20
      vertex -1.35 0 20
      vertex -20.8344 2.632 20
    endloop
  endfacet
  facet normal 0 0 1
    outer loop
      vertex -1.33935 -0.169199 20
      vertex -20.8344 -2.632 20
      vertex -20.3402 -5.22249 20
    endloop
  endfacet
  facet normal 0 0 1
    outer loop
      vertex -1.35 0 20
      vertex -21 0 20
      vertex -20.8344 -2.632 20
    endloop
  endfacet
  facet normal -0.481752 0.876307 0
    outer loop
      vertex -8.94136 19.0014 -20
      vertex -11.2524 17.7309 20
      vertex -8.94136 19.0014 20
    endloop
  endfacet
  facet normal -0.481752 0.876307 0
    outer loop
      vertex -11.2524 17.7309 20
      vertex -8.94136 19.0014 -20
      vertex -11.2524 17.7309 -20
    endloop
  endfacet
  facet normal -0.587791 0.809013 0
    outer loop
      vertex -11.2524 17.7309 -20
      vertex -13.3859 16.1808 20
      vertex -11.2524 17.7309 20
    endloop
  endfacet
  facet normal -0.587791 0.809013 0
    outer loop
      vertex -13.3859 16.1808 20
      vertex -11.2524 17.7309 -20
      vertex -13.3859 16.1808 -20
    endloop
  endfacet
  facet normal -0.248674 0.968587 0
    outer loop
      vertex -3.93501 20.628 -20
      vertex -6.48936 19.9722 20
      vertex -3.93501 20.628 20
    endloop
  endfacet
  facet normal -0.248674 0.968587 0
    outer loop
      vertex -6.48936 19.9722 20
      vertex -3.93501 20.628 -20
      vertex -6.48936 19.9722 -20
    endloop
  endfacet
  facet normal 0.998027 -0.0627938 0
    outer loop
      vertex 20.8344 -2.632 20
      vertex 21 0 -20
      vertex 21 0 20
    endloop
  endfacet
  facet normal 0.998027 -0.0627938 0
    outer loop
      vertex 21 0 -20
      vertex 20.8344 -2.632 20
      vertex 20.8344 -2.632 -20
    endloop
  endfacet
  facet normal 0.481752 -0.876307 0
    outer loop
      vertex 8.94136 -19.0014 -20
      vertex 11.2524 -17.7309 20
      vertex 8.94136 -19.0014 20
    endloop
  endfacet
  facet normal 0.481752 -0.876307 0
    outer loop
      vertex 11.2524 -17.7309 20
      vertex 8.94136 -19.0014 -20
      vertex 11.2524 -17.7309 -20
    endloop
  endfacet
  facet normal 0.684556 -0.72896 0
    outer loop
      vertex 13.3859 -16.1808 -20
      vertex 15.3083 -14.3755 20
      vertex 13.3859 -16.1808 20
    endloop
  endfacet
  facet normal 0.684556 -0.72896 0
    outer loop
      vertex 15.3083 -14.3755 20
      vertex 13.3859 -16.1808 -20
      vertex 15.3083 -14.3755 -20
    endloop
  endfacet
  facet normal 0.982285 -0.187395 0
    outer loop
      vertex 20.3402 -5.22249 20
      vertex 20.8344 -2.632 -20
      vertex 20.8344 -2.632 20
    endloop
  endfacet
  facet normal 0.982285 -0.187395 0
    outer loop
      vertex 20.8344 -2.632 -20
      vertex 20.3402 -5.22249 20
      vertex 20.3402 -5.22249 -20
    endloop
  endfacet
  facet normal 0 0 -1
    outer loop
      vertex 1.35 0 -20
      vertex 21 0 -20
      vertex 20.8344 -2.632 -20
    endloop
  endfacet
  facet normal 0 0 -1
    outer loop
      vertex 1.33935 -0.169199 -20
      vertex 20.8344 -2.632 -20
      vertex 20.3402 -5.22249 -20
    endloop
  endfacet
  facet normal 0 0 -1
    outer loop
      vertex 21 0 -20
      vertex 1.35 0 -20
      vertex 20.8344 2.632 -20
    endloop
  endfacet
  facet normal 0 0 -1
    outer loop
      vertex 1.30759 -0.335731 -20
      vertex 20.3402 -5.22249 -20
      vertex 19.5253 -7.73061 -20
    endloop
  endfacet
  facet normal 0 0 -1
    outer loop
      vertex 1.33935 0.169199 -20
      vertex 20.8344 2.632 -20
      vertex 1.35 0 -20
    endloop
  endfacet
  facet normal 0 0 -1
    outer loop
      vertex 1.2552 -0.496967 -20
      vertex 19.5253 -7.73061 -20
      vertex 18.4024 -10.1168 -20
    endloop
  endfacet
  facet normal -0 0 -1
    outer loop
      vertex 20.8344 2.632 -20
      vertex 1.33935 0.169199 -20
      vertex 20.3402 5.22249 -20
    endloop
  endfacet
  facet normal 0 0 -1
    outer loop
      vertex 1.18301 -0.650367 -20
      vertex 18.4024 -10.1168 -20
      vertex 16.9894 -12.3435 -20
    endloop
  endfacet
  facet normal 0 0 -1
    outer loop
      vertex 1.30759 0.335731 -20
      vertex 20.3402 5.22249 -20
      vertex 1.33935 0.169199 -20
    endloop
  endfacet
  facet normal 0 0 -1
    outer loop
      vertex 1.09217 -0.793509 -20
      vertex 16.9894 -12.3435 -20
      vertex 15.3083 -14.3755 -20
    endloop
  endfacet
  facet normal -0 0 -1
    outer loop
      vertex 20.3402 5.22249 -20
      vertex 1.30759 0.335731 -20
      vertex 19.5253 7.73061 -20
    endloop
  endfacet
  facet normal 0 0 -1
    outer loop
      vertex 0.984107 -0.924138 -20
      vertex 15.3083 -14.3755 -20
      vertex 13.3859 -16.1808 -20
    endloop
  endfacet
  facet normal 0 0 -1
    outer loop
      vertex 1.2552 0.496967 -20
      vertex 19.5253 7.73061 -20
      vertex 1.30759 0.335731 -20
    endloop
  endfacet
  facet normal 0 0 -1
    outer loop
      vertex 0.860522 -1.04019 -20
      vertex 13.3859 -16.1808 -20
      vertex 11.2524 -17.7309 -20
    endloop
  endfacet
  facet normal -0 0 -1
    outer loop
      vertex 19.5253 7.73061 -20
      vertex 1.2552 0.496967 -20
      vertex 18.4024 10.1168 -20
    endloop
  endfacet
  facet normal 0 0 -1
    outer loop
      vertex 0.723366 -1.13984 -20
      vertex 11.2524 -17.7309 -20
      vertex 8.94136 -19.0014 -20
    endloop
  endfacet
  facet normal 0 0 -1
    outer loop
      vertex 1.18301 0.650367 -20
      vertex 18.4024 10.1168 -20
      vertex 1.2552 0.496967 -20
    endloop
  endfacet
  facet normal 0 0 -1
    outer loop
      vertex 0.574801 -1.22152 -20
      vertex 8.94136 -19.0014 -20
      vertex 6.48936 -19.9722 -20
    endloop
  endfacet
  facet normal -0 0 -1
    outer loop
      vertex 18.4024 10.1168 -20
      vertex 1.18301 0.650367 -20
      vertex 16.9894 12.3435 -20
    endloop
  endfacet
  facet normal 0 0 -1
    outer loop
      vertex 0.417172 -1.28393 -20
      vertex 6.48936 -19.9722 -20
      vertex 3.93501 -20.628 -20
    endloop
  endfacet
  facet normal 0 0 -1
    outer loop
      vertex 1.09217 0.793509 -20
      vertex 16.9894 12.3435 -20
      vertex 1.18301 0.650367 -20
    endloop
  endfacet
  facet normal -0 0 -1
    outer loop
      vertex 16.9894 12.3435 -20
      vertex 1.09217 0.793509 -20
      vertex 15.3083 14.3755 -20
    endloop
  endfacet
  facet normal 0 0 -1
    outer loop
      vertex 20.8344 -2.632 -20
      vertex 1.33935 -0.169199 -20
      vertex 1.35 0 -20
    endloop
  endfacet
  facet normal 0 0 -1
    outer loop
      vertex 0.252964 -1.32609 -20
      vertex 3.93501 -20.628 -20
      vertex 1.3186 -20.9586 -20
    endloop
  endfacet
  facet normal 0 0 -1
    outer loop
      vertex 20.3402 -5.22249 -20
      vertex 1.30759 -0.335731 -20
      vertex 1.33935 -0.169199 -20
    endloop
  endfacet
  facet normal 0 0 -1
    outer loop
      vertex 19.5253 -7.73061 -20
      vertex 1.2552 -0.496967 -20
      vertex 1.30759 -0.335731 -20
    endloop
  endfacet
  facet normal 0 0 -1
    outer loop
      vertex 18.4024 -10.1168 -20
      vertex 1.18301 -0.650367 -20
      vertex 1.2552 -0.496967 -20
    endloop
  endfacet
  facet normal 0 0 -1
    outer loop
      vertex 16.9894 -12.3435 -20
      vertex 1.09217 -0.793509 -20
      vertex 1.18301 -0.650367 -20
    endloop
  endfacet
  facet normal 0 0 -1
    outer loop
      vertex 15.3083 -14.3755 -20
      vertex 0.984107 -0.924138 -20
      vertex 1.09217 -0.793509 -20
    endloop
  endfacet
  facet normal 0 0 -1
    outer loop
      vertex 13.3859 -16.1808 -20
      vertex 0.860522 -1.04019 -20
      vertex 0.984107 -0.924138 -20
    endloop
  endfacet
  facet normal 0 0 -1
    outer loop
      vertex 11.2524 -17.7309 -20
      vertex 0.723366 -1.13984 -20
      vertex 0.860522 -1.04019 -20
    endloop
  endfacet
  facet normal 0 0 -1
    outer loop
      vertex 8.94136 -19.0014 -20
      vertex 0.574801 -1.22152 -20
      vertex 0.723366 -1.13984 -20
    endloop
  endfacet
  facet normal 0 0 -1
    outer loop
      vertex 6.48936 -19.9722 -20
      vertex 0.417172 -1.28393 -20
      vertex 0.574801 -1.22152 -20
    endloop
  endfacet
  facet normal 0 0 -1
    outer loop
      vertex 3.93501 -20.628 -20
      vertex 0.252964 -1.32609 -20
      vertex 0.417172 -1.28393 -20
    endloop
  endfacet
  facet normal 0 0 -1
    outer loop
      vertex 1.3186 -20.9586 -20
      vertex 0.0847664 -1.34734 -20
      vertex 0.252964 -1.32609 -20
    endloop
  endfacet
  facet normal 0 0 -1
    outer loop
      vertex 1.3186 -20.9586 -20
      vertex -0.0847664 -1.34734 -20
      vertex 0.0847664 -1.34734 -20
    endloop
  endfacet
  facet normal 0 0 -1
    outer loop
      vertex -1.3186 -20.9586 -20
      vertex -0.0847664 -1.34734 -20
      vertex 1.3186 -20.9586 -20
    endloop
  endfacet
  facet normal -0 0 -1
    outer loop
      vertex -0.0847664 -1.34734 -20
      vertex -1.3186 -20.9586 -20
      vertex -0.252964 -1.32609 -20
    endloop
  endfacet
  facet normal 0 0 -1
    outer loop
      vertex -3.93501 -20.628 -20
      vertex -0.252964 -1.32609 -20
      vertex -1.3186 -20.9586 -20
    endloop
  endfacet
  facet normal -0 0 -1
    outer loop
      vertex -0.252964 -1.32609 -20
      vertex -3.93501 -20.628 -20
      vertex -0.417172 -1.28393 -20
    endloop
  endfacet
  facet normal 0 0 -1
    outer loop
      vertex -6.48936 -19.9722 -20
      vertex -0.417172 -1.28393 -20
      vertex -3.93501 -20.628 -20
    endloop
  endfacet
  facet normal -0 0 -1
    outer loop
      vertex -0.417172 -1.28393 -20
      vertex -6.48936 -19.9722 -20
      vertex -0.574801 -1.22152 -20
    endloop
  endfacet
  facet normal 0 0 -1
    outer loop
      vertex -8.94136 -19.0014 -20
      vertex -0.574801 -1.22152 -20
      vertex -6.48936 -19.9722 -20
    endloop
  endfacet
  facet normal -0 0 -1
    outer loop
      vertex -0.574801 -1.22152 -20
      vertex -8.94136 -19.0014 -20
      vertex -0.723366 -1.13984 -20
    endloop
  endfacet
  facet normal 0 0 -1
    outer loop
      vertex -11.2524 -17.7309 -20
      vertex -0.723366 -1.13984 -20
      vertex -8.94136 -19.0014 -20
    endloop
  endfacet
  facet normal -0 0 -1
    outer loop
      vertex -0.723366 -1.13984 -20
      vertex -11.2524 -17.7309 -20
      vertex -0.860522 -1.04019 -20
    endloop
  endfacet
  facet normal 0 0 -1
    outer loop
      vertex -13.3859 -16.1808 -20
      vertex -0.860522 -1.04019 -20
      vertex -11.2524 -17.7309 -20
    endloop
  endfacet
  facet normal -0 0 -1
    outer loop
      vertex -0.860522 -1.04019 -20
      vertex -13.3859 -16.1808 -20
      vertex -0.984107 -0.924138 -20
    endloop
  endfacet
  facet normal 0 0 -1
    outer loop
      vertex -15.3083 -14.3755 -20
      vertex -0.984107 -0.924138 -20
      vertex -13.3859 -16.1808 -20
    endloop
  endfacet
  facet normal -0 0 -1
    outer loop
      vertex -0.984107 -0.924138 -20
      vertex -15.3083 -14.3755 -20
      vertex -1.09217 -0.793509 -20
    endloop
  endfacet
  facet normal 0 0 -1
    outer loop
      vertex 0.984107 0.924138 -20
      vertex 15.3083 14.3755 -20
      vertex 1.09217 0.793509 -20
    endloop
  endfacet
  facet normal -0 0 -1
    outer loop
      vertex 15.3083 14.3755 -20
      vertex 0.984107 0.924138 -20
      vertex 13.3859 16.1808 -20
    endloop
  endfacet
  facet normal 0 0 -1
    outer loop
      vertex 0.860522 1.04019 -20
      vertex 13.3859 16.1808 -20
      vertex 0.984107 0.924138 -20
    endloop
  endfacet
  facet normal -0 0 -1
    outer loop
      vertex 13.3859 16.1808 -20
      vertex 0.860522 1.04019 -20
      vertex 11.2524 17.7309 -20
    endloop
  endfacet
  facet normal 0 0 -1
    outer loop
      vertex 0.723366 1.13984 -20
      vertex 11.2524 17.7309 -20
      vertex 0.860522 1.04019 -20
    endloop
  endfacet
  facet normal -0 0 -1
    outer loop
      vertex 11.2524 17.7309 -20
      vertex 0.723366 1.13984 -20
      vertex 8.94136 19.0014 -20
    endloop
  endfacet
  facet normal 0 0 -1
    outer loop
      vertex 0.574801 1.22152 -20
      vertex 8.94136 19.0014 -20
      vertex 0.723366 1.13984 -20
    endloop
  endfacet
  facet normal -0 0 -1
    outer loop
      vertex 8.94136 19.0014 -20
      vertex 0.574801 1.22152 -20
      vertex 6.48936 19.9722 -20
    endloop
  endfacet
  facet normal 0 0 -1
    outer loop
      vertex 0.417172 1.28393 -20
      vertex 6.48936 19.9722 -20
      vertex 0.574801 1.22152 -20
    endloop
  endfacet
  facet normal -0 0 -1
    outer loop
      vertex 6.48936 19.9722 -20
      vertex 0.417172 1.28393 -20
      vertex 3.93501 20.628 -20
    endloop
  endfacet
  facet normal 0 0 -1
    outer loop
      vertex 0.252964 1.32609 -20
      vertex 3.93501 20.628 -20
      vertex 0.417172 1.28393 -20
    endloop
  endfacet
  facet normal -0 0 -1
    outer loop
      vertex 3.93501 20.628 -20
      vertex 0.252964 1.32609 -20
      vertex 1.3186 20.9586 -20
    endloop
  endfacet
  facet normal 0 0 -1
    outer loop
      vertex 0.0847664 1.34734 -20
      vertex 1.3186 20.9586 -20
      vertex 0.252964 1.32609 -20
    endloop
  endfacet
  facet normal 0 0 -1
    outer loop
      vertex -0.0847664 1.34734 -20
      vertex 1.3186 20.9586 -20
      vertex 0.0847664 1.34734 -20
    endloop
  endfacet
  facet normal 0 0 -1
    outer loop
      vertex -1.3186 20.9586 -20
      vertex -0.0847664 1.34734 -20
      vertex -0.252964 1.32609 -20
    endloop
  endfacet
  facet normal 0 0 -1
    outer loop
      vertex -3.93501 20.628 -20
      vertex -0.252964 1.32609 -20
      vertex -0.417172 1.28393 -20
    endloop
  endfacet
  facet normal 0 0 -1
    outer loop
      vertex -6.48936 19.9722 -20
      vertex -0.417172 1.28393 -20
      vertex -0.574801 1.22152 -20
    endloop
  endfacet
  facet normal 0 0 -1
    outer loop
      vertex -8.94136 19.0014 -20
      vertex -0.574801 1.22152 -20
      vertex -0.723366 1.13984 -20
    endloop
  endfacet
  facet normal 0 0 -1
    outer loop
      vertex -11.2524 17.7309 -20
      vertex -0.723366 1.13984 -20
      vertex -0.860522 1.04019 -20
    endloop
  endfacet
  facet normal 0 0 -1
    outer loop
      vertex -13.3859 16.1808 -20
      vertex -0.860522 1.04019 -20
      vertex -0.984107 0.924138 -20
    endloop
  endfacet
  facet normal 0 0 -1
    outer loop
      vertex -15.3083 14.3755 -20
      vertex -0.984107 0.924138 -20
      vertex -1.09217 0.793509 -20
    endloop
  endfacet
  facet normal 0 0 -1
    outer loop
      vertex -16.9894 12.3435 -20
      vertex -1.09217 0.793509 -20
      vertex -1.18301 0.650367 -20
    endloop
  endfacet
  facet normal 0 0 -1
    outer loop
      vertex -18.4024 10.1168 -20
      vertex -1.18301 0.650367 -20
      vertex -1.2552 0.496967 -20
    endloop
  endfacet
  facet normal 0 0 -1
    outer loop
      vertex -19.5253 7.73061 -20
      vertex -1.2552 0.496967 -20
      vertex -1.30759 0.335731 -20
    endloop
  endfacet
  facet normal 0 0 -1
    outer loop
      vertex -0.0847664 1.34734 -20
      vertex -1.3186 20.9586 -20
      vertex 1.3186 20.9586 -20
    endloop
  endfacet
  facet normal 0 0 -1
    outer loop
      vertex -20.3402 5.22249 -20
      vertex -1.30759 0.335731 -20
      vertex -1.33935 0.169199 -20
    endloop
  endfacet
  facet normal 0 0 -1
    outer loop
      vertex -20.8344 2.632 -20
      vertex -1.33935 0.169199 -20
      vertex -1.35 0 -20
    endloop
  endfacet
  facet normal 0 0 -1
    outer loop
      vertex -16.9894 -12.3435 -20
      vertex -1.09217 -0.793509 -20
      vertex -15.3083 -14.3755 -20
    endloop
  endfacet
  facet normal 0 0 -1
    outer loop
      vertex -0.252964 1.32609 -20
      vertex -3.93501 20.628 -20
      vertex -1.3186 20.9586 -20
    endloop
  endfacet
  facet normal -0 0 -1
    outer loop
      vertex -1.09217 -0.793509 -20
      vertex -16.9894 -12.3435 -20
      vertex -1.18301 -0.650367 -20
    endloop
  endfacet
  facet normal 0 0 -1
    outer loop
      vertex -0.417172 1.28393 -20
      vertex -6.48936 19.9722 -20
      vertex -3.93501 20.628 -20
    endloop
  endfacet
  facet normal 0 0 -1
    outer loop
      vertex -18.4024 -10.1168 -20
      vertex -1.18301 -0.650367 -20
      vertex -16.9894 -12.3435 -20
    endloop
  endfacet
  facet normal 0 0 -1
    outer loop
      vertex -0.574801 1.22152 -20
      vertex -8.94136 19.0014 -20
      vertex -6.48936 19.9722 -20
    endloop
  endfacet
  facet normal -0 0 -1
    outer loop
      vertex -1.18301 -0.650367 -20
      vertex -18.4024 -10.1168 -20
      vertex -1.2552 -0.496967 -20
    endloop
  endfacet
  facet normal 0 0 -1
    outer loop
      vertex -0.723366 1.13984 -20
      vertex -11.2524 17.7309 -20
      vertex -8.94136 19.0014 -20
    endloop
  endfacet
  facet normal 0 0 -1
    outer loop
      vertex -19.5253 -7.73061 -20
      vertex -1.2552 -0.496967 -20
      vertex -18.4024 -10.1168 -20
    endloop
  endfacet
  facet normal 0 0 -1
    outer loop
      vertex -0.860522 1.04019 -20
      vertex -13.3859 16.1808 -20
      vertex -11.2524 17.7309 -20
    endloop
  endfacet
  facet normal -0 0 -1
    outer loop
      vertex -1.2552 -0.496967 -20
      vertex -19.5253 -7.73061 -20
      vertex -1.30759 -0.335731 -20
    endloop
  endfacet
  facet normal 0 0 -1
    outer loop
      vertex -0.984107 0.924138 -20
      vertex -15.3083 14.3755 -20
      vertex -13.3859 16.1808 -20
    endloop
  endfacet
  facet normal 0 0 -1
    outer loop
      vertex -20.3402 -5.22249 -20
      vertex -1.30759 -0.335731 -20
      vertex -19.5253 -7.73061 -20
    endloop
  endfacet
  facet normal 0 0 -1
    outer loop
      vertex -1.09217 0.793509 -20
      vertex -16.9894 12.3435 -20
      vertex -15.3083 14.3755 -20
    endloop
  endfacet
  facet normal -0 0 -1
    outer loop
      vertex -1.30759 -0.335731 -20
      vertex -20.3402 -5.22249 -20
      vertex -1.33935 -0.169199 -20
    endloop
  endfacet
  facet normal 0 0 -1
    outer loop
      vertex -1.18301 0.650367 -20
      vertex -18.4024 10.1168 -20
      vertex -16.9894 12.3435 -20
    endloop
  endfacet
  facet normal 0 0 -1
    outer loop
      vertex -20.8344 -2.632 -20
      vertex -1.33935 -0.169199 -20
      vertex -20.3402 -5.22249 -20
    endloop
  endfacet
  facet normal 0 0 -1
    outer loop
      vertex -1.2552 0.496967 -20
      vertex -19.5253 7.73061 -20
      vertex -18.4024 10.1168 -20
    endloop
  endfacet
  facet normal -0 0 -1
    outer loop
      vertex -1.33935 -0.169199 -20
      vertex -20.8344 -2.632 -20
      vertex -1.35 0 -20
    endloop
  endfacet
  facet normal 0 0 -1
    outer loop
      vertex -1.30759 0.335731 -20
      vertex -20.3402 5.22249 -20
      vertex -19.5253 7.73061 -20
    endloop
  endfacet
  facet normal 0 0 -1
    outer loop
      vertex -21 0 -20
      vertex -1.35 0 -20
      vertex -20.8344 -2.632 -20
    endloop
  endfacet
  facet normal 0 0 -1
    outer loop
      vertex -1.33935 0.169199 -20
      vertex -20.8344 2.632 -20
      vertex -20.3402 5.22249 -20
    endloop
  endfacet
  facet normal 0 0 -1
    outer loop
      vertex -1.35 0 -20
      vertex -21 0 -20
      vertex -20.8344 2.632 -20
    endloop
  endfacet
  facet normal 0.904821 -0.425793 0
    outer loop
      vertex 18.4024 -10.1168 20
      vertex 19.5253 -7.73061 -20
      vertex 19.5253 -7.73061 20
    endloop
  endfacet
  facet normal 0.904821 -0.425793 0
    outer loop
      vertex 19.5253 -7.73061 -20
      vertex 18.4024 -10.1168 20
      vertex 18.4024 -10.1168 -20
    endloop
  endfacet
  facet normal 0.770498 -0.637443 0
    outer loop
      vertex 15.3083 -14.3755 20
      vertex 16.9894 -12.3435 -20
      vertex 16.9894 -12.3435 20
    endloop
  endfacet
  facet normal 0.770498 -0.637443 0
    outer loop
      vertex 16.9894 -12.3435 -20
      vertex 15.3083 -14.3755 20
      vertex 15.3083 -14.3755 -20
    endloop
  endfacet
  facet normal -0.248674 -0.968587 0
    outer loop
      vertex -6.48936 -19.9722 -20
      vertex -3.93501 -20.628 20
      vertex -6.48936 -19.9722 20
    endloop
  endfacet
  facet normal -0.248674 -0.968587 -0
    outer loop
      vertex -3.93501 -20.628 20
      vertex -6.48936 -19.9722 -20
      vertex -3.93501 -20.628 -20
    endloop
  endfacet
  facet normal -0.684556 -0.72896 0
    outer loop
      vertex -15.3083 -14.3755 -20
      vertex -13.3859 -16.1808 20
      vertex -15.3083 -14.3755 20
    endloop
  endfacet
  facet normal -0.684556 -0.72896 -0
    outer loop
      vertex -13.3859 -16.1808 20
      vertex -15.3083 -14.3755 -20
      vertex -13.3859 -16.1808 -20
    endloop
  endfacet
  facet normal -0.844346 -0.535798 0
    outer loop
      vertex -16.9894 -12.3435 -20
      vertex -18.4024 -10.1168 20
      vertex -18.4024 -10.1168 -20
    endloop
  endfacet
  facet normal -0.844346 -0.535798 0
    outer loop
      vertex -18.4024 -10.1168 20
      vertex -16.9894 -12.3435 -20
      vertex -16.9894 -12.3435 20
    endloop
  endfacet
  facet normal -0.951061 -0.309004 0
    outer loop
      vertex -19.5253 -7.73061 -20
      vertex -20.3402 -5.22249 20
      vertex -20.3402 -5.22249 -20
    endloop
  endfacet
  facet normal -0.951061 -0.309004 0
    outer loop
      vertex -20.3402 -5.22249 20
      vertex -19.5253 -7.73061 -20
      vertex -19.5253 -7.73061 20
    endloop
  endfacet
  facet normal 0.248674 -0.968587 0
    outer loop
      vertex 3.93501 -20.628 -20
      vertex 6.48936 -19.9722 20
      vertex 3.93501 -20.628 20
    endloop
  endfacet
  facet normal 0.248674 -0.968587 0
    outer loop
      vertex 6.48936 -19.9722 20
      vertex 3.93501 -20.628 -20
      vertex 6.48936 -19.9722 -20
    endloop
  endfacet
  facet normal 0.12536 -0.992111 0
    outer loop
      vertex 1.3186 -20.9586 -20
      vertex 3.93501 -20.628 20
      vertex 1.3186 -20.9586 20
    endloop
  endfacet
  facet normal 0.12536 -0.992111 0
    outer loop
      vertex 3.93501 -20.628 20
      vertex 1.3186 -20.9586 -20
      vertex 3.93501 -20.628 -20
    endloop
  endfacet
  facet normal 0.587791 -0.809013 0
    outer loop
      vertex 11.2524 -17.7309 -20
      vertex 13.3859 -16.1808 20
      vertex 11.2524 -17.7309 20
    endloop
  endfacet
  facet normal 0.587791 -0.809013 0
    outer loop
      vertex 13.3859 -16.1808 20
      vertex 11.2524 -17.7309 -20
      vertex 13.3859 -16.1808 -20
    endloop
  endfacet
  facet normal 0.951061 -0.309004 0
    outer loop
      vertex 19.5253 -7.73061 20
      vertex 20.3402 -5.22249 -20
      vertex 20.3402 -5.22249 20
    endloop
  endfacet
  facet normal 0.951061 -0.309004 0
    outer loop
      vertex 20.3402 -5.22249 -20
      vertex 19.5253 -7.73061 20
      vertex 19.5253 -7.73061 -20
    endloop
  endfacet
  facet normal 0.844346 -0.535798 0
    outer loop
      vertex 16.9894 -12.3435 20
      vertex 18.4024 -10.1168 -20
      vertex 18.4024 -10.1168 20
    endloop
  endfacet
  facet normal 0.844346 -0.535798 0
    outer loop
      vertex 18.4024 -10.1168 -20
      vertex 16.9894 -12.3435 20
      vertex 16.9894 -12.3435 -20
    endloop
  endfacet
  facet normal -0.12536 -0.992111 0
    outer loop
      vertex -3.93501 -20.628 -20
      vertex -1.3186 -20.9586 20
      vertex -3.93501 -20.628 20
    endloop
  endfacet
  facet normal -0.12536 -0.992111 -0
    outer loop
      vertex -1.3186 -20.9586 20
      vertex -3.93501 -20.628 -20
      vertex -1.3186 -20.9586 -20
    endloop
  endfacet
  facet normal -0.368119 -0.929778 0
    outer loop
      vertex -8.94136 -19.0014 -20
      vertex -6.48936 -19.9722 20
      vertex -8.94136 -19.0014 20
    endloop
  endfacet
  facet normal -0.368119 -0.929778 -0
    outer loop
      vertex -6.48936 -19.9722 20
      vertex -8.94136 -19.0014 -20
      vertex -6.48936 -19.9722 -20
    endloop
  endfacet
  facet normal -0.770498 -0.637443 0
    outer loop
      vertex -15.3083 -14.3755 -20
      vertex -16.9894 -12.3435 20
      vertex -16.9894 -12.3435 -20
    endloop
  endfacet
  facet normal -0.770498 -0.637443 0
    outer loop
      vertex -16.9894 -12.3435 20
      vertex -15.3083 -14.3755 -20
      vertex -15.3083 -14.3755 20
    endloop
  endfacet
  facet normal -0.904821 -0.425793 0
    outer loop
      vertex -18.4024 -10.1168 -20
      vertex -19.5253 -7.73061 20
      vertex -19.5253 -7.73061 -20
    endloop
  endfacet
  facet normal -0.904821 -0.425793 0
    outer loop
      vertex -19.5253 -7.73061 20
      vertex -18.4024 -10.1168 -20
      vertex -18.4024 -10.1168 20
    endloop
  endfacet
  facet normal -0.982285 -0.187395 0
    outer loop
      vertex -20.3402 -5.22249 -20
      vertex -20.8344 -2.632 20
      vertex -20.8344 -2.632 -20
    endloop
  endfacet
  facet normal -0.982285 -0.187395 0
    outer loop
      vertex -20.8344 -2.632 20
      vertex -20.3402 -5.22249 -20
      vertex -20.3402 -5.22249 20
    endloop
  endfacet
  facet normal -0.998027 -0.0627938 0
    outer loop
      vertex -20.8344 -2.632 -20
      vertex -21 0 20
      vertex -21 0 -20
    endloop
  endfacet
  facet normal -0.998027 -0.0627938 0
    outer loop
      vertex -21 0 20
      vertex -20.8344 -2.632 -20
      vertex -20.8344 -2.632 20
    endloop
  endfacet
  facet normal -0.481752 -0.876307 0
    outer loop
      vertex -11.2524 -17.7309 -20
      vertex -8.94136 -19.0014 20
      vertex -11.2524 -17.7309 20
    endloop
  endfacet
  facet normal -0.481752 -0.876307 -0
    outer loop
      vertex -8.94136 -19.0014 20
      vertex -11.2524 -17.7309 -20
      vertex -8.94136 -19.0014 -20
    endloop
  endfacet
  facet normal -0.587791 -0.809013 0
    outer loop
      vertex -13.3859 -16.1808 -20
      vertex -11.2524 -17.7309 20
      vertex -13.3859 -16.1808 20
    endloop
  endfacet
  facet normal -0.587791 -0.809013 -0
    outer loop
      vertex -11.2524 -17.7309 20
      vertex -13.3859 -16.1808 -20
      vertex -11.2524 -17.7309 -20
    endloop
  endfacet
  facet normal -0.998025 -0.0628193 0
    outer loop
      vertex 1.35 0 -20
      vertex 1.33935 0.169199 20
      vertex 1.33935 0.169199 -20
    endloop
  endfacet
  facet normal -0.998025 -0.0628193 0
    outer loop
      vertex 1.33935 0.169199 20
      vertex 1.35 0 -20
      vertex 1.35 0 20
    endloop
  endfacet
  facet normal 0.998025 -0.0628193 0
    outer loop
      vertex -1.35 0 20
      vertex -1.33935 0.169199 -20
      vertex -1.33935 0.169199 20
    endloop
  endfacet
  facet normal 0.998025 -0.0628193 0
    outer loop
      vertex -1.33935 0.169199 -20
      vertex -1.35 0 20
      vertex -1.35 0 -20
    endloop
  endfacet
  facet normal 0 -1 0
    outer loop
      vertex -0.0847664 1.34734 -20
      vertex 0.0847664 1.34734 20
      vertex -0.0847664 1.34734 20
    endloop
  endfacet
  facet normal 0 -1 -0
    outer loop
      vertex 0.0847664 1.34734 20
      vertex -0.0847664 1.34734 -20
      vertex 0.0847664 1.34734 -20
    endloop
  endfacet
  facet normal 0 1 -0
    outer loop
      vertex 0.0847664 -1.34734 -20
      vertex -0.0847664 -1.34734 20
      vertex 0.0847664 -1.34734 20
    endloop
  endfacet
  facet normal 0 1 0
    outer loop
      vertex -0.0847664 -1.34734 20
      vertex 0.0847664 -1.34734 -20
      vertex -0.0847664 -1.34734 -20
    endloop
  endfacet
  facet normal -0.684541 -0.728975 0
    outer loop
      vertex 0.860522 1.04019 -20
      vertex 0.984107 0.924138 20
      vertex 0.860522 1.04019 20
    endloop
  endfacet
  facet normal -0.684541 -0.728975 -0
    outer loop
      vertex 0.984107 0.924138 20
      vertex 0.860522 1.04019 -20
      vertex 0.984107 0.924138 -20
    endloop
  endfacet
  facet normal 0.684541 -0.728975 0
    outer loop
      vertex -0.984107 0.924138 -20
      vertex -0.860522 1.04019 20
      vertex -0.984107 0.924138 20
    endloop
  endfacet
  facet normal 0.684541 -0.728975 0
    outer loop
      vertex -0.860522 1.04019 20
      vertex -0.984107 0.924138 -20
      vertex -0.860522 1.04019 -20
    endloop
  endfacet
  facet normal 0.368126 -0.929776 0
    outer loop
      vertex -0.574801 1.22152 -20
      vertex -0.417172 1.28393 20
      vertex -0.574801 1.22152 20
    endloop
  endfacet
  facet normal 0.368126 -0.929776 0
    outer loop
      vertex -0.417172 1.28393 20
      vertex -0.574801 1.22152 -20
      vertex -0.417172 1.28393 -20
    endloop
  endfacet
  facet normal -0.84433 0.535824 0
    outer loop
      vertex 1.09217 -0.793509 -20
      vertex 1.18301 -0.650367 20
      vertex 1.18301 -0.650367 -20
    endloop
  endfacet
  facet normal -0.84433 0.535824 0
    outer loop
      vertex 1.18301 -0.650367 20
      vertex 1.09217 -0.793509 -20
      vertex 1.09217 -0.793509 20
    endloop
  endfacet
  facet normal -0.904815 -0.425806 0
    outer loop
      vertex 1.2552 0.496967 -20
      vertex 1.18301 0.650367 20
      vertex 1.18301 0.650367 -20
    endloop
  endfacet
  facet normal -0.904815 -0.425806 0
    outer loop
      vertex 1.18301 0.650367 20
      vertex 1.2552 0.496967 -20
      vertex 1.2552 0.496967 20
    endloop
  endfacet
  facet normal -0.982296 -0.187338 0
    outer loop
      vertex 1.33935 0.169199 -20
      vertex 1.30759 0.335731 20
      vertex 1.30759 0.335731 -20
    endloop
  endfacet
  facet normal -0.982296 -0.187338 0
    outer loop
      vertex 1.30759 0.335731 20
      vertex 1.33935 0.169199 -20
      vertex 1.33935 0.169199 20
    endloop
  endfacet
  facet normal -0.84433 -0.535824 0
    outer loop
      vertex 1.18301 0.650367 -20
      vertex 1.09217 0.793509 20
      vertex 1.09217 0.793509 -20
    endloop
  endfacet
  facet normal -0.84433 -0.535824 0
    outer loop
      vertex 1.09217 0.793509 20
      vertex 1.18301 0.650367 -20
      vertex 1.18301 0.650367 20
    endloop
  endfacet
  facet normal -0.368126 -0.929776 0
    outer loop
      vertex 0.417172 1.28393 -20
      vertex 0.574801 1.22152 20
      vertex 0.417172 1.28393 20
    endloop
  endfacet
  facet normal -0.368126 -0.929776 -0
    outer loop
      vertex 0.574801 1.22152 20
      vertex 0.417172 1.28393 -20
      vertex 0.574801 1.22152 -20
    endloop
  endfacet
  facet normal -0.587787 -0.809016 0
    outer loop
      vertex 0.723366 1.13984 -20
      vertex 0.860522 1.04019 20
      vertex 0.723366 1.13984 20
    endloop
  endfacet
  facet normal -0.587787 -0.809016 -0
    outer loop
      vertex 0.860522 1.04019 20
      vertex 0.723366 1.13984 -20
      vertex 0.860522 1.04019 -20
    endloop
  endfacet
  facet normal 0.904815 -0.425806 0
    outer loop
      vertex -1.2552 0.496967 20
      vertex -1.18301 0.650367 -20
      vertex -1.18301 0.650367 20
    endloop
  endfacet
  facet normal 0.904815 -0.425806 0
    outer loop
      vertex -1.18301 0.650367 -20
      vertex -1.2552 0.496967 20
      vertex -1.2552 0.496967 -20
    endloop
  endfacet
  facet normal 0.248682 -0.968585 0
    outer loop
      vertex -0.417172 1.28393 -20
      vertex -0.252964 1.32609 20
      vertex -0.417172 1.28393 20
    endloop
  endfacet
  facet normal 0.248682 -0.968585 0
    outer loop
      vertex -0.252964 1.32609 20
      vertex -0.417172 1.28393 -20
      vertex -0.252964 1.32609 -20
    endloop
  endfacet
  facet normal -0.982296 0.187338 0
    outer loop
      vertex 1.30759 -0.335731 -20
      vertex 1.33935 -0.169199 20
      vertex 1.33935 -0.169199 -20
    endloop
  endfacet
  facet normal -0.982296 0.187338 0
    outer loop
      vertex 1.33935 -0.169199 20
      vertex 1.30759 -0.335731 -20
      vertex 1.30759 -0.335731 20
    endloop
  endfacet
  facet normal -0.368126 0.929776 0
    outer loop
      vertex 0.574801 -1.22152 -20
      vertex 0.417172 -1.28393 20
      vertex 0.574801 -1.22152 20
    endloop
  endfacet
  facet normal -0.368126 0.929776 0
    outer loop
      vertex 0.417172 -1.28393 20
      vertex 0.574801 -1.22152 -20
      vertex 0.417172 -1.28393 -20
    endloop
  endfacet
  facet normal -0.481779 0.876292 0
    outer loop
      vertex 0.723366 -1.13984 -20
      vertex 0.574801 -1.22152 20
      vertex 0.723366 -1.13984 20
    endloop
  endfacet
  facet normal -0.481779 0.876292 0
    outer loop
      vertex 0.574801 -1.22152 20
      vertex 0.723366 -1.13984 -20
      vertex 0.574801 -1.22152 -20
    endloop
  endfacet
  facet normal -0.951054 -0.309024 0
    outer loop
      vertex 1.30759 0.335731 -20
      vertex 1.2552 0.496967 20
      vertex 1.2552 0.496967 -20
    endloop
  endfacet
  facet normal -0.951054 -0.309024 0
    outer loop
      vertex 1.2552 0.496967 20
      vertex 1.30759 0.335731 -20
      vertex 1.30759 0.335731 20
    endloop
  endfacet
  facet normal -0.770521 -0.637415 0
    outer loop
      vertex 1.09217 0.793509 -20
      vertex 0.984107 0.924138 20
      vertex 0.984107 0.924138 -20
    endloop
  endfacet
  facet normal -0.770521 -0.637415 0
    outer loop
      vertex 0.984107 0.924138 20
      vertex 1.09217 0.793509 -20
      vertex 1.09217 0.793509 20
    endloop
  endfacet
  facet normal -0.248682 -0.968585 0
    outer loop
      vertex 0.252964 1.32609 -20
      vertex 0.417172 1.28393 20
      vertex 0.252964 1.32609 20
    endloop
  endfacet
  facet normal -0.248682 -0.968585 -0
    outer loop
      vertex 0.417172 1.28393 20
      vertex 0.252964 1.32609 -20
      vertex 0.417172 1.28393 -20
    endloop
  endfacet
  facet normal -0.125343 -0.992113 0
    outer loop
      vertex 0.0847664 1.34734 -20
      vertex 0.252964 1.32609 20
      vertex 0.0847664 1.34734 20
    endloop
  endfacet
  facet normal -0.125343 -0.992113 -0
    outer loop
      vertex 0.252964 1.32609 20
      vertex 0.0847664 1.34734 -20
      vertex 0.252964 1.32609 -20
    endloop
  endfacet
  facet normal -0.481779 -0.876292 0
    outer loop
      vertex 0.574801 1.22152 -20
      vertex 0.723366 1.13984 20
      vertex 0.574801 1.22152 20
    endloop
  endfacet
  facet normal -0.481779 -0.876292 -0
    outer loop
      vertex 0.723366 1.13984 20
      vertex 0.574801 1.22152 -20
      vertex 0.723366 1.13984 -20
    endloop
  endfacet
  facet normal 0.84433 -0.535824 0
    outer loop
      vertex -1.18301 0.650367 20
      vertex -1.09217 0.793509 -20
      vertex -1.09217 0.793509 20
    endloop
  endfacet
  facet normal 0.84433 -0.535824 0
    outer loop
      vertex -1.09217 0.793509 -20
      vertex -1.18301 0.650367 20
      vertex -1.18301 0.650367 -20
    endloop
  endfacet
  facet normal 0.770521 -0.637415 0
    outer loop
      vertex -1.09217 0.793509 20
      vertex -0.984107 0.924138 -20
      vertex -0.984107 0.924138 20
    endloop
  endfacet
  facet normal 0.770521 -0.637415 0
    outer loop
      vertex -0.984107 0.924138 -20
      vertex -1.09217 0.793509 20
      vertex -1.09217 0.793509 -20
    endloop
  endfacet
  facet normal 0.951054 -0.309024 0
    outer loop
      vertex -1.30759 0.335731 20
      vertex -1.2552 0.496967 -20
      vertex -1.2552 0.496967 20
    endloop
  endfacet
  facet normal 0.951054 -0.309024 0
    outer loop
      vertex -1.2552 0.496967 -20
      vertex -1.30759 0.335731 20
      vertex -1.30759 0.335731 -20
    endloop
  endfacet
  facet normal 0.982296 -0.187338 0
    outer loop
      vertex -1.33935 0.169199 20
      vertex -1.30759 0.335731 -20
      vertex -1.30759 0.335731 20
    endloop
  endfacet
  facet normal 0.982296 -0.187338 0
    outer loop
      vertex -1.30759 0.335731 -20
      vertex -1.33935 0.169199 20
      vertex -1.33935 0.169199 -20
    endloop
  endfacet
  facet normal 0.481779 -0.876292 0
    outer loop
      vertex -0.723366 1.13984 -20
      vertex -0.574801 1.22152 20
      vertex -0.723366 1.13984 20
    endloop
  endfacet
  facet normal 0.481779 -0.876292 0
    outer loop
      vertex -0.574801 1.22152 20
      vertex -0.723366 1.13984 -20
      vertex -0.574801 1.22152 -20
    endloop
  endfacet
  facet normal 0.587787 -0.809016 0
    outer loop
      vertex -0.860522 1.04019 -20
      vertex -0.723366 1.13984 20
      vertex -0.860522 1.04019 20
    endloop
  endfacet
  facet normal 0.587787 -0.809016 0
    outer loop
      vertex -0.723366 1.13984 20
      vertex -0.860522 1.04019 -20
      vertex -0.723366 1.13984 -20
    endloop
  endfacet
  facet normal 0.125343 -0.992113 0
    outer loop
      vertex -0.252964 1.32609 -20
      vertex -0.0847664 1.34734 20
      vertex -0.252964 1.32609 20
    endloop
  endfacet
  facet normal 0.125343 -0.992113 0
    outer loop
      vertex -0.0847664 1.34734 20
      vertex -0.252964 1.32609 -20
      vertex -0.0847664 1.34734 -20
    endloop
  endfacet
  facet normal -0.998025 0.0628193 0
    outer loop
      vertex 1.33935 -0.169199 -20
      vertex 1.35 0 20
      vertex 1.35 0 -20
    endloop
  endfacet
  facet normal -0.998025 0.0628193 0
    outer loop
      vertex 1.35 0 20
      vertex 1.33935 -0.169199 -20
      vertex 1.33935 -0.169199 20
    endloop
  endfacet
  facet normal -0.770521 0.637415 0
    outer loop
      vertex 0.984107 -0.924138 -20
      vertex 1.09217 -0.793509 20
      vertex 1.09217 -0.793509 -20
    endloop
  endfacet
  facet normal -0.770521 0.637415 0
    outer loop
      vertex 1.09217 -0.793509 20
      vertex 0.984107 -0.924138 -20
      vertex 0.984107 -0.924138 20
    endloop
  endfacet
  facet normal 0.998025 0.0628193 0
    outer loop
      vertex -1.33935 -0.169199 20
      vertex -1.35 0 -20
      vertex -1.35 0 20
    endloop
  endfacet
  facet normal 0.998025 0.0628193 0
    outer loop
      vertex -1.35 0 -20
      vertex -1.33935 -0.169199 20
      vertex -1.33935 -0.169199 -20
    endloop
  endfacet
  facet normal -0.587787 0.809016 0
    outer loop
      vertex 0.860522 -1.04019 -20
      vertex 0.723366 -1.13984 20
      vertex 0.860522 -1.04019 20
    endloop
  endfacet
  facet normal -0.587787 0.809016 0
    outer loop
      vertex 0.723366 -1.13984 20
      vertex 0.860522 -1.04019 -20
      vertex 0.723366 -1.13984 -20
    endloop
  endfacet
  facet normal -0.684541 0.728975 0
    outer loop
      vertex 0.984107 -0.924138 -20
      vertex 0.860522 -1.04019 20
      vertex 0.984107 -0.924138 20
    endloop
  endfacet
  facet normal -0.684541 0.728975 0
    outer loop
      vertex 0.860522 -1.04019 20
      vertex 0.984107 -0.924138 -20
      vertex 0.860522 -1.04019 -20
    endloop
  endfacet
  facet normal -0.904815 0.425806 0
    outer loop
      vertex 1.18301 -0.650367 -20
      vertex 1.2552 -0.496967 20
      vertex 1.2552 -0.496967 -20
    endloop
  endfacet
  facet normal -0.904815 0.425806 0
    outer loop
      vertex 1.2552 -0.496967 20
      vertex 1.18301 -0.650367 -20
      vertex 1.18301 -0.650367 20
    endloop
  endfacet
  facet normal 0.84433 0.535824 0
    outer loop
      vertex -1.09217 -0.793509 20
      vertex -1.18301 -0.650367 -20
      vertex -1.18301 -0.650367 20
    endloop
  endfacet
  facet normal 0.84433 0.535824 0
    outer loop
      vertex -1.18301 -0.650367 -20
      vertex -1.09217 -0.793509 20
      vertex -1.09217 -0.793509 -20
    endloop
  endfacet
  facet normal -0.125343 0.992113 0
    outer loop
      vertex 0.252964 -1.32609 -20
      vertex 0.0847664 -1.34734 20
      vertex 0.252964 -1.32609 20
    endloop
  endfacet
  facet normal -0.125343 0.992113 0
    outer loop
      vertex 0.0847664 -1.34734 20
      vertex 0.252964 -1.32609 -20
      vertex 0.0847664 -1.34734 -20
    endloop
  endfacet
  facet normal -0.951054 0.309024 0
    outer loop
      vertex 1.2552 -0.496967 -20
      vertex 1.30759 -0.335731 20
      vertex 1.30759 -0.335731 -20
    endloop
  endfacet
  facet normal -0.951054 0.309024 0
    outer loop
      vertex 1.30759 -0.335731 20
      vertex 1.2552 -0.496967 -20
      vertex 1.2552 -0.496967 20
    endloop
  endfacet
  facet normal 0.125343 0.992113 -0
    outer loop
      vertex -0.0847664 -1.34734 -20
      vertex -0.252964 -1.32609 20
      vertex -0.0847664 -1.34734 20
    endloop
  endfacet
  facet normal 0.125343 0.992113 0
    outer loop
      vertex -0.252964 -1.32609 20
      vertex -0.0847664 -1.34734 -20
      vertex -0.252964 -1.32609 -20
    endloop
  endfacet
  facet normal 0.368126 0.929776 -0
    outer loop
      vertex -0.417172 -1.28393 -20
      vertex -0.574801 -1.22152 20
      vertex -0.417172 -1.28393 20
    endloop
  endfacet
  facet normal 0.368126 0.929776 0
    outer loop
      vertex -0.574801 -1.22152 20
      vertex -0.417172 -1.28393 -20
      vertex -0.574801 -1.22152 -20
    endloop
  endfacet
  facet normal 0.587787 0.809016 -0
    outer loop
      vertex -0.723366 -1.13984 -20
      vertex -0.860522 -1.04019 20
      vertex -0.723366 -1.13984 20
    endloop
  endfacet
  facet normal 0.587787 0.809016 0
    outer loop
      vertex -0.860522 -1.04019 20
      vertex -0.723366 -1.13984 -20
      vertex -0.860522 -1.04019 -20
    endloop
  endfacet
  facet normal 0.248682 0.968585 -0
    outer loop
      vertex -0.252964 -1.32609 -20
      vertex -0.417172 -1.28393 20
      vertex -0.252964 -1.32609 20
    endloop
  endfacet
  facet normal 0.248682 0.968585 0
    outer loop
      vertex -0.417172 -1.28393 20
      vertex -0.252964 -1.32609 -20
      vertex -0.417172 -1.28393 -20
    endloop
  endfacet
  facet normal 0.684541 0.728975 -0
    outer loop
      vertex -0.860522 -1.04019 -20
      vertex -0.984107 -0.924138 20
      vertex -0.860522 -1.04019 20
    endloop
  endfacet
  facet normal 0.684541 0.728975 0
    outer loop
      vertex -0.984107 -0.924138 20
      vertex -0.860522 -1.04019 -20
      vertex -0.984107 -0.924138 -20
    endloop
  endfacet
  facet normal 0.770521 0.637415 0
    outer loop
      vertex -0.984107 -0.924138 20
      vertex -1.09217 -0.793509 -20
      vertex -1.09217 -0.793509 20
    endloop
  endfacet
  facet normal 0.770521 0.637415 0
    outer loop
      vertex -1.09217 -0.793509 -20
      vertex -0.984107 -0.924138 20
      vertex -0.984107 -0.924138 -20
    endloop
  endfacet
  facet normal 0.904815 0.425806 0
    outer loop
      vertex -1.18301 -0.650367 20
      vertex -1.2552 -0.496967 -20
      vertex -1.2552 -0.496967 20
    endloop
  endfacet
  facet normal 0.904815 0.425806 0
    outer loop
      vertex -1.2552 -0.496967 -20
      vertex -1.18301 -0.650367 20
      vertex -1.18301 -0.650367 -20
    endloop
  endfacet
  facet normal 0.951054 0.309024 0
    outer loop
      vertex -1.2552 -0.496967 20
      vertex -1.30759 -0.335731 -20
      vertex -1.30759 -0.335731 20
    endloop
  endfacet
  facet normal 0.951054 0.309024 0
    outer loop
      vertex -1.30759 -0.335731 -20
      vertex -1.2552 -0.496967 20
      vertex -1.2552 -0.496967 -20
    endloop
  endfacet
  facet normal 0.982296 0.187338 0
    outer loop
      vertex -1.30759 -0.335731 20
      vertex -1.33935 -0.169199 -20
      vertex -1.33935 -0.169199 20
    endloop
  endfacet
  facet normal 0.982296 0.187338 0
    outer loop
      vertex -1.33935 -0.169199 -20
      vertex -1.30759 -0.335731 20
      vertex -1.30759 -0.335731 -20
    endloop
  endfacet
  facet normal -0.248682 0.968585 0
    outer loop
      vertex 0.417172 -1.28393 -20
      vertex 0.252964 -1.32609 20
      vertex 0.417172 -1.28393 20
    endloop
  endfacet
  facet normal -0.248682 0.968585 0
    outer loop
      vertex 0.252964 -1.32609 20
      vertex 0.417172 -1.28393 -20
      vertex 0.252964 -1.32609 -20
    endloop
  endfacet
  facet normal 0.481779 0.876292 -0
    outer loop
      vertex -0.574801 -1.22152 -20
      vertex -0.723366 -1.13984 20
      vertex -0.574801 -1.22152 20
    endloop
  endfacet
  facet normal 0.481779 0.876292 0
    outer loop
      vertex -0.723366 -1.13984 20
      vertex -0.574801 -1.22152 -20
      vertex -0.723366 -1.13984 -20
    endloop
  endfacet
endsolid OpenSCAD_Model
