solid OpenSCAD_Model
  facet normal 0.998027 0.0627887 0
    outer loop
      vertex 4.35 0 4
      vertex 4.3157 0.545199 -4
      vertex 4.3157 0.545199 4
    endloop
  endfacet
  facet normal 0.998027 0.0627887 0
    outer loop
      vertex 4.3157 0.545199 -4
      vertex 4.35 0 4
      vertex 4.35 0 -4
    endloop
  endfacet
  facet normal 0 1 -0
    outer loop
      vertex 0.273138 4.34142 -4
      vertex -0.273138 4.34142 4
      vertex 0.273138 4.34142 4
    endloop
  endfacet
  facet normal 0 1 0
    outer loop
      vertex -0.273138 4.34142 4
      vertex 0.273138 4.34142 -4
      vertex -0.273138 4.34142 -4
    endloop
  endfacet
  facet normal 0 0 1
    outer loop
      vertex 4.3157 0.545199 4
      vertex 4.3157 -0.545199 4
      vertex 4.35 0 4
    endloop
  endfacet
  facet normal 0 0 1
    outer loop
      vertex 4.21334 1.0818 4
      vertex 4.3157 -0.545199 4
      vertex 4.3157 0.545199 4
    endloop
  endfacet
  facet normal 0 0 1
    outer loop
      vertex 4.21334 1.0818 4
      vertex 4.21334 -1.0818 4
      vertex 4.3157 -0.545199 4
    endloop
  endfacet
  facet normal 0 0 1
    outer loop
      vertex 4.04453 1.60134 4
      vertex 4.21334 -1.0818 4
      vertex 4.21334 1.0818 4
    endloop
  endfacet
  facet normal 0 0 1
    outer loop
      vertex 4.04453 1.60134 4
      vertex 4.04453 -1.60134 4
      vertex 4.21334 -1.0818 4
    endloop
  endfacet
  facet normal 0 0 1
    outer loop
      vertex 3.81193 2.09563 4
      vertex 4.04453 -1.60134 4
      vertex 4.04453 1.60134 4
    endloop
  endfacet
  facet normal 0 0 1
    outer loop
      vertex 3.81193 2.09563 4
      vertex 3.81193 -2.09563 4
      vertex 4.04453 -1.60134 4
    endloop
  endfacet
  facet normal 0 0 1
    outer loop
      vertex 3.51922 2.55687 4
      vertex 3.81193 -2.09563 4
      vertex 3.81193 2.09563 4
    endloop
  endfacet
  facet normal 0 0 1
    outer loop
      vertex 3.51922 2.55687 4
      vertex 3.51922 -2.55687 4
      vertex 3.81193 -2.09563 4
    endloop
  endfacet
  facet normal 0 0 1
    outer loop
      vertex 3.17101 2.97778 4
      vertex 3.51922 -2.55687 4
      vertex 3.51922 2.55687 4
    endloop
  endfacet
  facet normal 0 0 1
    outer loop
      vertex 3.17101 2.97778 4
      vertex 3.17101 -2.97778 4
      vertex 3.51922 -2.55687 4
    endloop
  endfacet
  facet normal 0 0 1
    outer loop
      vertex 2.77279 3.35173 4
      vertex 3.17101 -2.97778 4
      vertex 3.17101 2.97778 4
    endloop
  endfacet
  facet normal 0 0 1
    outer loop
      vertex 2.77279 3.35173 4
      vertex 2.77279 -3.35173 4
      vertex 3.17101 -2.97778 4
    endloop
  endfacet
  facet normal 0 0 1
    outer loop
      vertex 2.33085 3.67283 4
      vertex 2.77279 -3.35173 4
      vertex 2.77279 3.35173 4
    endloop
  endfacet
  facet normal 0 0 1
    outer loop
      vertex 2.33085 3.67283 4
      vertex 2.33085 -3.67283 4
      vertex 2.77279 -3.35173 4
    endloop
  endfacet
  facet normal 0 0 1
    outer loop
      vertex 1.85214 3.936 4
      vertex 2.33085 -3.67283 4
      vertex 2.33085 3.67283 4
    endloop
  endfacet
  facet normal 0 0 1
    outer loop
      vertex 1.85214 3.936 4
      vertex 1.85214 -3.936 4
      vertex 2.33085 -3.67283 4
    endloop
  endfacet
  facet normal 0 0 1
    outer loop
      vertex 1.34422 4.1371 4
      vertex 1.85214 -3.936 4
      vertex 1.85214 3.936 4
    endloop
  endfacet
  facet normal 0 0 1
    outer loop
      vertex 1.34422 4.1371 4
      vertex 1.34422 -4.1371 4
      vertex 1.85214 -3.936 4
    endloop
  endfacet
  facet normal 0 0 1
    outer loop
      vertex 0.815108 4.27295 4
      vertex 1.34422 -4.1371 4
      vertex 1.34422 4.1371 4
    endloop
  endfacet
  facet normal 0 0 1
    outer loop
      vertex 0.815108 4.27295 4
      vertex 0.815108 -4.27295 4
      vertex 1.34422 -4.1371 4
    endloop
  endfacet
  facet normal 0 0 1
    outer loop
      vertex 0.273138 4.34142 4
      vertex 0.815108 -4.27295 4
      vertex 0.815108 4.27295 4
    endloop
  endfacet
  facet normal 0 0 1
    outer loop
      vertex 0.273138 4.34142 4
      vertex 0.273138 -4.34142 4
      vertex 0.815108 -4.27295 4
    endloop
  endfacet
  facet normal -0 0 1
    outer loop
      vertex -0.273138 4.34142 4
      vertex 0.273138 -4.34142 4
      vertex 0.273138 4.34142 4
    endloop
  endfacet
  facet normal 0 0 1
    outer loop
      vertex -0.273138 4.34142 4
      vertex -0.273138 -4.34142 4
      vertex 0.273138 -4.34142 4
    endloop
  endfacet
  facet normal -0 0 1
    outer loop
      vertex -0.815108 4.27295 4
      vertex -0.273138 -4.34142 4
      vertex -0.273138 4.34142 4
    endloop
  endfacet
  facet normal 0 0 1
    outer loop
      vertex -0.815108 4.27295 4
      vertex -0.815108 -4.27295 4
      vertex -0.273138 -4.34142 4
    endloop
  endfacet
  facet normal -0 0 1
    outer loop
      vertex -1.34422 4.1371 4
      vertex -0.815108 -4.27295 4
      vertex -0.815108 4.27295 4
    endloop
  endfacet
  facet normal 0 0 1
    outer loop
      vertex -1.34422 4.1371 4
      vertex -1.34422 -4.1371 4
      vertex -0.815108 -4.27295 4
    endloop
  endfacet
  facet normal -0 0 1
    outer loop
      vertex -1.85214 3.936 4
      vertex -1.34422 -4.1371 4
      vertex -1.34422 4.1371 4
    endloop
  endfacet
  facet normal 0 0 1
    outer loop
      vertex -1.85214 3.936 4
      vertex -1.85214 -3.936 4
      vertex -1.34422 -4.1371 4
    endloop
  endfacet
  facet normal -0 0 1
    outer loop
      vertex -2.33085 3.67283 4
      vertex -1.85214 -3.936 4
      vertex -1.85214 3.936 4
    endloop
  endfacet
  facet normal 0 0 1
    outer loop
      vertex -2.33085 3.67283 4
      vertex -2.33085 -3.67283 4
      vertex -1.85214 -3.936 4
    endloop
  endfacet
  facet normal -0 0 1
    outer loop
      vertex -2.77279 3.35173 4
      vertex -2.33085 -3.67283 4
      vertex -2.33085 3.67283 4
    endloop
  endfacet
  facet normal 0 0 1
    outer loop
      vertex -2.77279 3.35173 4
      vertex -2.77279 -3.35173 4
      vertex -2.33085 -3.67283 4
    endloop
  endfacet
  facet normal -0 0 1
    outer loop
      vertex -3.17101 2.97778 4
      vertex -2.77279 -3.35173 4
      vertex -2.77279 3.35173 4
    endloop
  endfacet
  facet normal 0 0 1
    outer loop
      vertex -3.17101 2.97778 4
      vertex -3.17101 -2.97778 4
      vertex -2.77279 -3.35173 4
    endloop
  endfacet
  facet normal -0 0 1
    outer loop
      vertex -3.51922 2.55687 4
      vertex -3.17101 -2.97778 4
      vertex -3.17101 2.97778 4
    endloop
  endfacet
  facet normal 0 0 1
    outer loop
      vertex -3.51922 2.55687 4
      vertex -3.51922 -2.55687 4
      vertex -3.17101 -2.97778 4
    endloop
  endfacet
  facet normal -0 0 1
    outer loop
      vertex -3.81193 2.09563 4
      vertex -3.51922 -2.55687 4
      vertex -3.51922 2.55687 4
    endloop
  endfacet
  facet normal 0 0 1
    outer loop
      vertex -3.81193 2.09563 4
      vertex -3.81193 -2.09563 4
      vertex -3.51922 -2.55687 4
    endloop
  endfacet
  facet normal -0 0 1
    outer loop
      vertex -4.04453 1.60134 4
      vertex -3.81193 -2.09563 4
      vertex -3.81193 2.09563 4
    endloop
  endfacet
  facet normal 0 0 1
    outer loop
      vertex -4.04453 1.60134 4
      vertex -4.04453 -1.60134 4
      vertex -3.81193 -2.09563 4
    endloop
  endfacet
  facet normal -0 0 1
    outer loop
      vertex -4.21334 1.0818 4
      vertex -4.04453 -1.60134 4
      vertex -4.04453 1.60134 4
    endloop
  endfacet
  facet normal 0 0 1
    outer loop
      vertex -4.21334 1.0818 4
      vertex -4.21334 -1.0818 4
      vertex -4.04453 -1.60134 4
    endloop
  endfacet
  facet normal -0 0 1
    outer loop
      vertex -4.3157 0.545199 4
      vertex -4.21334 -1.0818 4
      vertex -4.21334 1.0818 4
    endloop
  endfacet
  facet normal 0 0 1
    outer loop
      vertex -4.3157 0.545199 4
      vertex -4.3157 -0.545199 4
      vertex -4.21334 -1.0818 4
    endloop
  endfacet
  facet normal 0 -0 1
    outer loop
      vertex -4.3157 -0.545199 4
      vertex -4.3157 0.545199 4
      vertex -4.35 0 4
    endloop
  endfacet
  facet normal 0.684544 0.728972 -0
    outer loop
      vertex 3.17101 2.97778 -4
      vertex 2.77279 3.35173 4
      vertex 3.17101 2.97778 4
    endloop
  endfacet
  facet normal 0.684544 0.728972 0
    outer loop
      vertex 2.77279 3.35173 4
      vertex 3.17101 2.97778 -4
      vertex 2.77279 3.35173 -4
    endloop
  endfacet
  facet normal 0 0 -1
    outer loop
      vertex 4.3157 -0.545199 -4
      vertex 4.3157 0.545199 -4
      vertex 4.35 0 -4
    endloop
  endfacet
  facet normal 0 0 -1
    outer loop
      vertex 4.21334 -1.0818 -4
      vertex 4.3157 0.545199 -4
      vertex 4.3157 -0.545199 -4
    endloop
  endfacet
  facet normal 0 0 -1
    outer loop
      vertex 4.21334 -1.0818 -4
      vertex 4.21334 1.0818 -4
      vertex 4.3157 0.545199 -4
    endloop
  endfacet
  facet normal 0 0 -1
    outer loop
      vertex 4.04453 -1.60134 -4
      vertex 4.21334 1.0818 -4
      vertex 4.21334 -1.0818 -4
    endloop
  endfacet
  facet normal 0 0 -1
    outer loop
      vertex 4.04453 -1.60134 -4
      vertex 4.04453 1.60134 -4
      vertex 4.21334 1.0818 -4
    endloop
  endfacet
  facet normal 0 0 -1
    outer loop
      vertex 3.81193 -2.09563 -4
      vertex 4.04453 1.60134 -4
      vertex 4.04453 -1.60134 -4
    endloop
  endfacet
  facet normal 0 0 -1
    outer loop
      vertex 3.81193 -2.09563 -4
      vertex 3.81193 2.09563 -4
      vertex 4.04453 1.60134 -4
    endloop
  endfacet
  facet normal 0 0 -1
    outer loop
      vertex 3.51922 -2.55687 -4
      vertex 3.81193 2.09563 -4
      vertex 3.81193 -2.09563 -4
    endloop
  endfacet
  facet normal 0 0 -1
    outer loop
      vertex 3.51922 -2.55687 -4
      vertex 3.51922 2.55687 -4
      vertex 3.81193 2.09563 -4
    endloop
  endfacet
  facet normal 0 0 -1
    outer loop
      vertex 3.17101 -2.97778 -4
      vertex 3.51922 2.55687 -4
      vertex 3.51922 -2.55687 -4
    endloop
  endfacet
  facet normal 0 0 -1
    outer loop
      vertex 3.17101 -2.97778 -4
      vertex 3.17101 2.97778 -4
      vertex 3.51922 2.55687 -4
    endloop
  endfacet
  facet normal 0 0 -1
    outer loop
      vertex 2.77279 -3.35173 -4
      vertex 3.17101 2.97778 -4
      vertex 3.17101 -2.97778 -4
    endloop
  endfacet
  facet normal 0 0 -1
    outer loop
      vertex 2.77279 -3.35173 -4
      vertex 2.77279 3.35173 -4
      vertex 3.17101 2.97778 -4
    endloop
  endfacet
  facet normal 0 0 -1
    outer loop
      vertex 2.33085 -3.67283 -4
      vertex 2.77279 3.35173 -4
      vertex 2.77279 -3.35173 -4
    endloop
  endfacet
  facet normal 0 0 -1
    outer loop
      vertex 2.33085 -3.67283 -4
      vertex 2.33085 3.67283 -4
      vertex 2.77279 3.35173 -4
    endloop
  endfacet
  facet normal 0 0 -1
    outer loop
      vertex 1.85214 -3.936 -4
      vertex 2.33085 3.67283 -4
      vertex 2.33085 -3.67283 -4
    endloop
  endfacet
  facet normal 0 0 -1
    outer loop
      vertex 1.85214 -3.936 -4
      vertex 1.85214 3.936 -4
      vertex 2.33085 3.67283 -4
    endloop
  endfacet
  facet normal 0 0 -1
    outer loop
      vertex 1.34422 -4.1371 -4
      vertex 1.85214 3.936 -4
      vertex 1.85214 -3.936 -4
    endloop
  endfacet
  facet normal 0 0 -1
    outer loop
      vertex 1.34422 -4.1371 -4
      vertex 1.34422 4.1371 -4
      vertex 1.85214 3.936 -4
    endloop
  endfacet
  facet normal 0 0 -1
    outer loop
      vertex 0.815108 -4.27295 -4
      vertex 1.34422 4.1371 -4
      vertex 1.34422 -4.1371 -4
    endloop
  endfacet
  facet normal 0 0 -1
    outer loop
      vertex 0.815108 -4.27295 -4
      vertex 0.815108 4.27295 -4
      vertex 1.34422 4.1371 -4
    endloop
  endfacet
  facet normal 0 0 -1
    outer loop
      vertex 0.273138 -4.34142 -4
      vertex 0.815108 4.27295 -4
      vertex 0.815108 -4.27295 -4
    endloop
  endfacet
  facet normal 0 0 -1
    outer loop
      vertex 0.273138 -4.34142 -4
      vertex 0.273138 4.34142 -4
      vertex 0.815108 4.27295 -4
    endloop
  endfacet
  facet normal 0 0 -1
    outer loop
      vertex -0.273138 -4.34142 -4
      vertex 0.273138 4.34142 -4
      vertex 0.273138 -4.34142 -4
    endloop
  endfacet
  facet normal 0 0 -1
    outer loop
      vertex -0.273138 -4.34142 -4
      vertex -0.273138 4.34142 -4
      vertex 0.273138 4.34142 -4
    endloop
  endfacet
  facet normal 0 0 -1
    outer loop
      vertex -0.815108 -4.27295 -4
      vertex -0.273138 4.34142 -4
      vertex -0.273138 -4.34142 -4
    endloop
  endfacet
  facet normal 0 0 -1
    outer loop
      vertex -0.815108 -4.27295 -4
      vertex -0.815108 4.27295 -4
      vertex -0.273138 4.34142 -4
    endloop
  endfacet
  facet normal 0 0 -1
    outer loop
      vertex -1.34422 -4.1371 -4
      vertex -0.815108 4.27295 -4
      vertex -0.815108 -4.27295 -4
    endloop
  endfacet
  facet normal 0 0 -1
    outer loop
      vertex -1.34422 -4.1371 -4
      vertex -1.34422 4.1371 -4
      vertex -0.815108 4.27295 -4
    endloop
  endfacet
  facet normal 0 0 -1
    outer loop
      vertex -1.85214 -3.936 -4
      vertex -1.34422 4.1371 -4
      vertex -1.34422 -4.1371 -4
    endloop
  endfacet
  facet normal 0 0 -1
    outer loop
      vertex -1.85214 -3.936 -4
      vertex -1.85214 3.936 -4
      vertex -1.34422 4.1371 -4
    endloop
  endfacet
  facet normal 0 0 -1
    outer loop
      vertex -2.33085 -3.67283 -4
      vertex -1.85214 3.936 -4
      vertex -1.85214 -3.936 -4
    endloop
  endfacet
  facet normal 0 0 -1
    outer loop
      vertex -2.33085 -3.67283 -4
      vertex -2.33085 3.67283 -4
      vertex -1.85214 3.936 -4
    endloop
  endfacet
  facet normal 0 0 -1
    outer loop
      vertex -2.77279 -3.35173 -4
      vertex -2.33085 3.67283 -4
      vertex -2.33085 -3.67283 -4
    endloop
  endfacet
  facet normal 0 0 -1
    outer loop
      vertex -2.77279 -3.35173 -4
      vertex -2.77279 3.35173 -4
      vertex -2.33085 3.67283 -4
    endloop
  endfacet
  facet normal 0 0 -1
    outer loop
      vertex -3.17101 -2.97778 -4
      vertex -2.77279 3.35173 -4
      vertex -2.77279 -3.35173 -4
    endloop
  endfacet
  facet normal 0 0 -1
    outer loop
      vertex -3.17101 -2.97778 -4
      vertex -3.17101 2.97778 -4
      vertex -2.77279 3.35173 -4
    endloop
  endfacet
  facet normal 0 0 -1
    outer loop
      vertex -3.51922 -2.55687 -4
      vertex -3.17101 2.97778 -4
      vertex -3.17101 -2.97778 -4
    endloop
  endfacet
  facet normal 0 0 -1
    outer loop
      vertex -3.51922 -2.55687 -4
      vertex -3.51922 2.55687 -4
      vertex -3.17101 2.97778 -4
    endloop
  endfacet
  facet normal 0 0 -1
    outer loop
      vertex -3.81193 -2.09563 -4
      vertex -3.51922 2.55687 -4
      vertex -3.51922 -2.55687 -4
    endloop
  endfacet
  facet normal 0 0 -1
    outer loop
      vertex -3.81193 -2.09563 -4
      vertex -3.81193 2.09563 -4
      vertex -3.51922 2.55687 -4
    endloop
  endfacet
  facet normal 0 0 -1
    outer loop
      vertex -4.04453 -1.60134 -4
      vertex -3.81193 2.09563 -4
      vertex -3.81193 -2.09563 -4
    endloop
  endfacet
  facet normal 0 0 -1
    outer loop
      vertex -4.04453 -1.60134 -4
      vertex -4.04453 1.60134 -4
      vertex -3.81193 2.09563 -4
    endloop
  endfacet
  facet normal 0 0 -1
    outer loop
      vertex -4.21334 -1.0818 -4
      vertex -4.04453 1.60134 -4
      vertex -4.04453 -1.60134 -4
    endloop
  endfacet
  facet normal 0 0 -1
    outer loop
      vertex -4.21334 -1.0818 -4
      vertex -4.21334 1.0818 -4
      vertex -4.04453 1.60134 -4
    endloop
  endfacet
  facet normal 0 0 -1
    outer loop
      vertex -4.3157 -0.545199 -4
      vertex -4.21334 1.0818 -4
      vertex -4.21334 -1.0818 -4
    endloop
  endfacet
  facet normal 0 0 -1
    outer loop
      vertex -4.3157 -0.545199 -4
      vertex -4.3157 0.545199 -4
      vertex -4.21334 1.0818 -4
    endloop
  endfacet
  facet normal 0 -0 -1
    outer loop
      vertex -4.3157 0.545199 -4
      vertex -4.3157 -0.545199 -4
      vertex -4.35 0 -4
    endloop
  endfacet
  facet normal -0.684544 0.728972 0
    outer loop
      vertex -2.77279 3.35173 -4
      vertex -3.17101 2.97778 4
      vertex -2.77279 3.35173 4
    endloop
  endfacet
  facet normal -0.684544 0.728972 0
    outer loop
      vertex -3.17101 2.97778 4
      vertex -2.77279 3.35173 -4
      vertex -3.17101 2.97778 -4
    endloop
  endfacet
  facet normal -0.368125 0.929776 0
    outer loop
      vertex -1.34422 4.1371 -4
      vertex -1.85214 3.936 4
      vertex -1.34422 4.1371 4
    endloop
  endfacet
  facet normal -0.368125 0.929776 0
    outer loop
      vertex -1.85214 3.936 4
      vertex -1.34422 4.1371 -4
      vertex -1.85214 3.936 -4
    endloop
  endfacet
  facet normal 0.844329 0.535824 0
    outer loop
      vertex 3.81193 2.09563 4
      vertex 3.51922 2.55687 -4
      vertex 3.51922 2.55687 4
    endloop
  endfacet
  facet normal 0.844329 0.535824 0
    outer loop
      vertex 3.51922 2.55687 -4
      vertex 3.81193 2.09563 4
      vertex 3.81193 2.09563 -4
    endloop
  endfacet
  facet normal 0.248685 0.968584 -0
    outer loop
      vertex 1.34422 4.1371 -4
      vertex 0.815108 4.27295 4
      vertex 1.34422 4.1371 4
    endloop
  endfacet
  facet normal 0.248685 0.968584 0
    outer loop
      vertex 0.815108 4.27295 4
      vertex 1.34422 4.1371 -4
      vertex 0.815108 4.27295 -4
    endloop
  endfacet
  facet normal 0.481749 0.876309 -0
    outer loop
      vertex 2.33085 3.67283 -4
      vertex 1.85214 3.936 4
      vertex 2.33085 3.67283 4
    endloop
  endfacet
  facet normal 0.481749 0.876309 0
    outer loop
      vertex 1.85214 3.936 4
      vertex 2.33085 3.67283 -4
      vertex 1.85214 3.936 -4
    endloop
  endfacet
  facet normal -0.904824 0.425786 0
    outer loop
      vertex -4.04453 1.60134 -4
      vertex -3.81193 2.09563 4
      vertex -3.81193 2.09563 -4
    endloop
  endfacet
  facet normal -0.904824 0.425786 0
    outer loop
      vertex -3.81193 2.09563 4
      vertex -4.04453 1.60134 -4
      vertex -4.04453 1.60134 4
    endloop
  endfacet
  facet normal -0.770511 0.637427 0
    outer loop
      vertex -3.51922 2.55687 -4
      vertex -3.17101 2.97778 4
      vertex -3.17101 2.97778 -4
    endloop
  endfacet
  facet normal -0.770511 0.637427 0
    outer loop
      vertex -3.17101 2.97778 4
      vertex -3.51922 2.55687 -4
      vertex -3.51922 2.55687 4
    endloop
  endfacet
  facet normal -0.125339 0.992114 0
    outer loop
      vertex -0.273138 4.34142 -4
      vertex -0.815108 4.27295 4
      vertex -0.273138 4.34142 4
    endloop
  endfacet
  facet normal -0.125339 0.992114 0
    outer loop
      vertex -0.815108 4.27295 4
      vertex -0.273138 4.34142 -4
      vertex -0.815108 4.27295 -4
    endloop
  endfacet
  facet normal 0.904824 -0.425786 0
    outer loop
      vertex 3.81193 -2.09563 4
      vertex 4.04453 -1.60134 -4
      vertex 4.04453 -1.60134 4
    endloop
  endfacet
  facet normal 0.904824 -0.425786 0
    outer loop
      vertex 4.04453 -1.60134 -4
      vertex 3.81193 -2.09563 4
      vertex 3.81193 -2.09563 -4
    endloop
  endfacet
  facet normal 0.951056 -0.309019 0
    outer loop
      vertex 4.04453 -1.60134 4
      vertex 4.21334 -1.0818 -4
      vertex 4.21334 -1.0818 4
    endloop
  endfacet
  facet normal 0.951056 -0.309019 0
    outer loop
      vertex 4.21334 -1.0818 -4
      vertex 4.04453 -1.60134 4
      vertex 4.04453 -1.60134 -4
    endloop
  endfacet
  facet normal 0.982288 0.187378 0
    outer loop
      vertex 4.3157 0.545199 4
      vertex 4.21334 1.0818 -4
      vertex 4.21334 1.0818 4
    endloop
  endfacet
  facet normal 0.982288 0.187378 0
    outer loop
      vertex 4.21334 1.0818 -4
      vertex 4.3157 0.545199 4
      vertex 4.3157 0.545199 -4
    endloop
  endfacet
  facet normal 0.904824 0.425786 0
    outer loop
      vertex 4.04453 1.60134 4
      vertex 3.81193 2.09563 -4
      vertex 3.81193 2.09563 4
    endloop
  endfacet
  facet normal 0.904824 0.425786 0
    outer loop
      vertex 3.81193 2.09563 -4
      vertex 4.04453 1.60134 4
      vertex 4.04453 1.60134 -4
    endloop
  endfacet
  facet normal 0.368125 0.929776 -0
    outer loop
      vertex 1.85214 3.936 -4
      vertex 1.34422 4.1371 4
      vertex 1.85214 3.936 4
    endloop
  endfacet
  facet normal 0.368125 0.929776 0
    outer loop
      vertex 1.34422 4.1371 4
      vertex 1.85214 3.936 -4
      vertex 1.34422 4.1371 -4
    endloop
  endfacet
  facet normal 0.587799 0.809007 -0
    outer loop
      vertex 2.77279 3.35173 -4
      vertex 2.33085 3.67283 4
      vertex 2.77279 3.35173 4
    endloop
  endfacet
  facet normal 0.587799 0.809007 0
    outer loop
      vertex 2.33085 3.67283 4
      vertex 2.77279 3.35173 -4
      vertex 2.33085 3.67283 -4
    endloop
  endfacet
  facet normal -0.951056 0.309019 0
    outer loop
      vertex -4.21334 1.0818 -4
      vertex -4.04453 1.60134 4
      vertex -4.04453 1.60134 -4
    endloop
  endfacet
  facet normal -0.951056 0.309019 0
    outer loop
      vertex -4.04453 1.60134 4
      vertex -4.21334 1.0818 -4
      vertex -4.21334 1.0818 4
    endloop
  endfacet
  facet normal -0.998027 0.0627887 0
    outer loop
      vertex -4.35 0 -4
      vertex -4.3157 0.545199 4
      vertex -4.3157 0.545199 -4
    endloop
  endfacet
  facet normal -0.998027 0.0627887 0
    outer loop
      vertex -4.3157 0.545199 4
      vertex -4.35 0 -4
      vertex -4.35 0 4
    endloop
  endfacet
  facet normal -0.481749 0.876309 0
    outer loop
      vertex -1.85214 3.936 -4
      vertex -2.33085 3.67283 4
      vertex -1.85214 3.936 4
    endloop
  endfacet
  facet normal -0.481749 0.876309 0
    outer loop
      vertex -2.33085 3.67283 4
      vertex -1.85214 3.936 -4
      vertex -2.33085 3.67283 -4
    endloop
  endfacet
  facet normal 0.998027 -0.0627887 0
    outer loop
      vertex 4.3157 -0.545199 4
      vertex 4.35 0 -4
      vertex 4.35 0 4
    endloop
  endfacet
  facet normal 0.998027 -0.0627887 0
    outer loop
      vertex 4.35 0 -4
      vertex 4.3157 -0.545199 4
      vertex 4.3157 -0.545199 -4
    endloop
  endfacet
  facet normal 0.982288 -0.187378 0
    outer loop
      vertex 4.21334 -1.0818 4
      vertex 4.3157 -0.545199 -4
      vertex 4.3157 -0.545199 4
    endloop
  endfacet
  facet normal 0.982288 -0.187378 0
    outer loop
      vertex 4.3157 -0.545199 -4
      vertex 4.21334 -1.0818 4
      vertex 4.21334 -1.0818 -4
    endloop
  endfacet
  facet normal -0.684544 -0.728972 0
    outer loop
      vertex -3.17101 -2.97778 -4
      vertex -2.77279 -3.35173 4
      vertex -3.17101 -2.97778 4
    endloop
  endfacet
  facet normal -0.684544 -0.728972 -0
    outer loop
      vertex -2.77279 -3.35173 4
      vertex -3.17101 -2.97778 -4
      vertex -2.77279 -3.35173 -4
    endloop
  endfacet
  facet normal -0.998027 -0.0627887 0
    outer loop
      vertex -4.3157 -0.545199 -4
      vertex -4.35 0 4
      vertex -4.35 0 -4
    endloop
  endfacet
  facet normal -0.998027 -0.0627887 0
    outer loop
      vertex -4.35 0 4
      vertex -4.3157 -0.545199 -4
      vertex -4.3157 -0.545199 4
    endloop
  endfacet
  facet normal 0 -1 0
    outer loop
      vertex -0.273138 -4.34142 -4
      vertex 0.273138 -4.34142 4
      vertex -0.273138 -4.34142 4
    endloop
  endfacet
  facet normal 0 -1 -0
    outer loop
      vertex 0.273138 -4.34142 4
      vertex -0.273138 -4.34142 -4
      vertex 0.273138 -4.34142 -4
    endloop
  endfacet
  facet normal 0.951056 0.309019 0
    outer loop
      vertex 4.21334 1.0818 4
      vertex 4.04453 1.60134 -4
      vertex 4.04453 1.60134 4
    endloop
  endfacet
  facet normal 0.951056 0.309019 0
    outer loop
      vertex 4.04453 1.60134 -4
      vertex 4.21334 1.0818 4
      vertex 4.21334 1.0818 -4
    endloop
  endfacet
  facet normal 0.770511 0.637427 0
    outer loop
      vertex 3.51922 2.55687 4
      vertex 3.17101 2.97778 -4
      vertex 3.17101 2.97778 4
    endloop
  endfacet
  facet normal 0.770511 0.637427 0
    outer loop
      vertex 3.17101 2.97778 -4
      vertex 3.51922 2.55687 4
      vertex 3.51922 2.55687 -4
    endloop
  endfacet
  facet normal 0.125339 0.992114 -0
    outer loop
      vertex 0.815108 4.27295 -4
      vertex 0.273138 4.34142 4
      vertex 0.815108 4.27295 4
    endloop
  endfacet
  facet normal 0.125339 0.992114 0
    outer loop
      vertex 0.273138 4.34142 4
      vertex 0.815108 4.27295 -4
      vertex 0.273138 4.34142 -4
    endloop
  endfacet
  facet normal -0.844329 0.535824 0
    outer loop
      vertex -3.81193 2.09563 -4
      vertex -3.51922 2.55687 4
      vertex -3.51922 2.55687 -4
    endloop
  endfacet
  facet normal -0.844329 0.535824 0
    outer loop
      vertex -3.51922 2.55687 4
      vertex -3.81193 2.09563 -4
      vertex -3.81193 2.09563 4
    endloop
  endfacet
  facet normal -0.982288 0.187378 0
    outer loop
      vertex -4.3157 0.545199 -4
      vertex -4.21334 1.0818 4
      vertex -4.21334 1.0818 -4
    endloop
  endfacet
  facet normal -0.982288 0.187378 0
    outer loop
      vertex -4.21334 1.0818 4
      vertex -4.3157 0.545199 -4
      vertex -4.3157 0.545199 4
    endloop
  endfacet
  facet normal -0.587799 0.809007 0
    outer loop
      vertex -2.33085 3.67283 -4
      vertex -2.77279 3.35173 4
      vertex -2.33085 3.67283 4
    endloop
  endfacet
  facet normal -0.587799 0.809007 0
    outer loop
      vertex -2.77279 3.35173 4
      vertex -2.33085 3.67283 -4
      vertex -2.77279 3.35173 -4
    endloop
  endfacet
  facet normal -0.248685 0.968584 0
    outer loop
      vertex -0.815108 4.27295 -4
      vertex -1.34422 4.1371 4
      vertex -0.815108 4.27295 4
    endloop
  endfacet
  facet normal -0.248685 0.968584 0
    outer loop
      vertex -1.34422 4.1371 4
      vertex -0.815108 4.27295 -4
      vertex -1.34422 4.1371 -4
    endloop
  endfacet
  facet normal 0.770511 -0.637427 0
    outer loop
      vertex 3.17101 -2.97778 4
      vertex 3.51922 -2.55687 -4
      vertex 3.51922 -2.55687 4
    endloop
  endfacet
  facet normal 0.770511 -0.637427 0
    outer loop
      vertex 3.51922 -2.55687 -4
      vertex 3.17101 -2.97778 4
      vertex 3.17101 -2.97778 -4
    endloop
  endfacet
  facet normal 0.481749 -0.876309 0
    outer loop
      vertex 1.85214 -3.936 -4
      vertex 2.33085 -3.67283 4
      vertex 1.85214 -3.936 4
    endloop
  endfacet
  facet normal 0.481749 -0.876309 0
    outer loop
      vertex 2.33085 -3.67283 4
      vertex 1.85214 -3.936 -4
      vertex 2.33085 -3.67283 -4
    endloop
  endfacet
  facet normal 0.684544 -0.728972 0
    outer loop
      vertex 2.77279 -3.35173 -4
      vertex 3.17101 -2.97778 4
      vertex 2.77279 -3.35173 4
    endloop
  endfacet
  facet normal 0.684544 -0.728972 0
    outer loop
      vertex 3.17101 -2.97778 4
      vertex 2.77279 -3.35173 -4
      vertex 3.17101 -2.97778 -4
    endloop
  endfacet
  facet normal -0.368125 -0.929776 0
    outer loop
      vertex -1.85214 -3.936 -4
      vertex -1.34422 -4.1371 4
      vertex -1.85214 -3.936 4
    endloop
  endfacet
  facet normal -0.368125 -0.929776 -0
    outer loop
      vertex -1.34422 -4.1371 4
      vertex -1.85214 -3.936 -4
      vertex -1.34422 -4.1371 -4
    endloop
  endfacet
  facet normal -0.770511 -0.637427 0
    outer loop
      vertex -3.17101 -2.97778 -4
      vertex -3.51922 -2.55687 4
      vertex -3.51922 -2.55687 -4
    endloop
  endfacet
  facet normal -0.770511 -0.637427 0
    outer loop
      vertex -3.51922 -2.55687 4
      vertex -3.17101 -2.97778 -4
      vertex -3.17101 -2.97778 4
    endloop
  endfacet
  facet normal 0.368125 -0.929776 0
    outer loop
      vertex 1.34422 -4.1371 -4
      vertex 1.85214 -3.936 4
      vertex 1.34422 -4.1371 4
    endloop
  endfacet
  facet normal 0.368125 -0.929776 0
    outer loop
      vertex 1.85214 -3.936 4
      vertex 1.34422 -4.1371 -4
      vertex 1.85214 -3.936 -4
    endloop
  endfacet
  facet normal 0.248685 -0.968584 0
    outer loop
      vertex 0.815108 -4.27295 -4
      vertex 1.34422 -4.1371 4
      vertex 0.815108 -4.27295 4
    endloop
  endfacet
  facet normal 0.248685 -0.968584 0
    outer loop
      vertex 1.34422 -4.1371 4
      vertex 0.815108 -4.27295 -4
      vertex 1.34422 -4.1371 -4
    endloop
  endfacet
  facet normal 0.125339 -0.992114 0
    outer loop
      vertex 0.273138 -4.34142 -4
      vertex 0.815108 -4.27295 4
      vertex 0.273138 -4.34142 4
    endloop
  endfacet
  facet normal 0.125339 -0.992114 0
    outer loop
      vertex 0.815108 -4.27295 4
      vertex 0.273138 -4.34142 -4
      vertex 0.815108 -4.27295 -4
    endloop
  endfacet
  facet normal 0.844329 -0.535824 0
    outer loop
      vertex 3.51922 -2.55687 4
      vertex 3.81193 -2.09563 -4
      vertex 3.81193 -2.09563 4
    endloop
  endfacet
  facet normal 0.844329 -0.535824 0
    outer loop
      vertex 3.81193 -2.09563 -4
      vertex 3.51922 -2.55687 4
      vertex 3.51922 -2.55687 -4
    endloop
  endfacet
  facet normal -0.125339 -0.992114 0
    outer loop
      vertex -0.815108 -4.27295 -4
      vertex -0.273138 -4.34142 4
      vertex -0.815108 -4.27295 4
    endloop
  endfacet
  facet normal -0.125339 -0.992114 -0
    outer loop
      vertex -0.273138 -4.34142 4
      vertex -0.815108 -4.27295 -4
      vertex -0.273138 -4.34142 -4
    endloop
  endfacet
  facet normal -0.481749 -0.876309 0
    outer loop
      vertex -2.33085 -3.67283 -4
      vertex -1.85214 -3.936 4
      vertex -2.33085 -3.67283 4
    endloop
  endfacet
  facet normal -0.481749 -0.876309 -0
    outer loop
      vertex -1.85214 -3.936 4
      vertex -2.33085 -3.67283 -4
      vertex -1.85214 -3.936 -4
    endloop
  endfacet
  facet normal -0.904824 -0.425786 0
    outer loop
      vertex -3.81193 -2.09563 -4
      vertex -4.04453 -1.60134 4
      vertex -4.04453 -1.60134 -4
    endloop
  endfacet
  facet normal -0.904824 -0.425786 0
    outer loop
      vertex -4.04453 -1.60134 4
      vertex -3.81193 -2.09563 -4
      vertex -3.81193 -2.09563 4
    endloop
  endfacet
  facet normal -0.951056 -0.309019 0
    outer loop
      vertex -4.04453 -1.60134 -4
      vertex -4.21334 -1.0818 4
      vertex -4.21334 -1.0818 -4
    endloop
  endfacet
  facet normal -0.951056 -0.309019 0
    outer loop
      vertex -4.21334 -1.0818 4
      vertex -4.04453 -1.60134 -4
      vertex -4.04453 -1.60134 4
    endloop
  endfacet
  facet normal -0.982288 -0.187378 0
    outer loop
      vertex -4.21334 -1.0818 -4
      vertex -4.3157 -0.545199 4
      vertex -4.3157 -0.545199 -4
    endloop
  endfacet
  facet normal -0.982288 -0.187378 0
    outer loop
      vertex -4.3157 -0.545199 4
      vertex -4.21334 -1.0818 -4
      vertex -4.21334 -1.0818 4
    endloop
  endfacet
  facet normal 0.587799 -0.809007 0
    outer loop
      vertex 2.33085 -3.67283 -4
      vertex 2.77279 -3.35173 4
      vertex 2.33085 -3.67283 4
    endloop
  endfacet
  facet normal 0.587799 -0.809007 0
    outer loop
      vertex 2.77279 -3.35173 4
      vertex 2.33085 -3.67283 -4
      vertex 2.77279 -3.35173 -4
    endloop
  endfacet
  facet normal -0.587799 -0.809007 0
    outer loop
      vertex -2.77279 -3.35173 -4
      vertex -2.33085 -3.67283 4
      vertex -2.77279 -3.35173 4
    endloop
  endfacet
  facet normal -0.587799 -0.809007 -0
    outer loop
      vertex -2.33085 -3.67283 4
      vertex -2.77279 -3.35173 -4
      vertex -2.33085 -3.67283 -4
    endloop
  endfacet
  facet normal -0.248685 -0.968584 0
    outer loop
      vertex -1.34422 -4.1371 -4
      vertex -0.815108 -4.27295 4
      vertex -1.34422 -4.1371 4
    endloop
  endfacet
  facet normal -0.248685 -0.968584 -0
    outer loop
      vertex -0.815108 -4.27295 4
      vertex -1.34422 -4.1371 -4
      vertex -0.815108 -4.27295 -4
    endloop
  endfacet
  facet normal -0.844329 -0.535824 0
    outer loop
      vertex -3.51922 -2.55687 -4
      vertex -3.81193 -2.09563 4
      vertex -3.81193 -2.09563 -4
    endloop
  endfacet
  facet normal -0.844329 -0.535824 0
    outer loop
      vertex -3.81193 -2.09563 4
      vertex -3.51922 -2.55687 -4
      vertex -3.51922 -2.55687 4
    endloop
  endfacet
endsolid OpenSCAD_Model
