solid OpenSCAD_Model
  facet normal 0.998027 0.0627879 0
    outer loop
      vertex 8 0 37.5
      vertex 7.93692 1.00267 -37.5
      vertex 7.93692 1.00267 37.5
    endloop
  endfacet
  facet normal 0.998027 0.0627879 0
    outer loop
      vertex 7.93692 1.00267 -37.5
      vertex 8 0 37.5
      vertex 8 0 -37.5
    endloop
  endfacet
  facet normal -0.998027 0.0627879 0
    outer loop
      vertex -8 0 -37.5
      vertex -7.93692 1.00267 37.5
      vertex -7.93692 1.00267 -37.5
    endloop
  endfacet
  facet normal -0.998027 0.0627879 0
    outer loop
      vertex -7.93692 1.00267 37.5
      vertex -8 0 -37.5
      vertex -8 0 37.5
    endloop
  endfacet
  facet normal 0 1 -0
    outer loop
      vertex 0.502324 7.98421 -37.5
      vertex -0.502324 7.98421 37.5
      vertex 0.502324 7.98421 37.5
    endloop
  endfacet
  facet normal 0 1 0
    outer loop
      vertex -0.502324 7.98421 37.5
      vertex 0.502324 7.98421 -37.5
      vertex -0.502324 7.98421 -37.5
    endloop
  endfacet
  facet normal 0 -1 0
    outer loop
      vertex -0.502324 -7.98421 -37.5
      vertex 0.502324 -7.98421 37.5
      vertex -0.502324 -7.98421 37.5
    endloop
  endfacet
  facet normal 0 -1 -0
    outer loop
      vertex 0.502324 -7.98421 37.5
      vertex -0.502324 -7.98421 -37.5
      vertex 0.502324 -7.98421 -37.5
    endloop
  endfacet
  facet normal 0.684546 0.72897 -0
    outer loop
      vertex 5.83175 5.47638 -37.5
      vertex 5.09939 6.16411 37.5
      vertex 5.83175 5.47638 37.5
    endloop
  endfacet
  facet normal 0.684546 0.72897 0
    outer loop
      vertex 5.09939 6.16411 37.5
      vertex 5.83175 5.47638 -37.5
      vertex 5.09939 6.16411 -37.5
    endloop
  endfacet
  facet normal -0.684546 0.72897 0
    outer loop
      vertex -5.09939 6.16411 -37.5
      vertex -5.83175 5.47638 37.5
      vertex -5.09939 6.16411 37.5
    endloop
  endfacet
  facet normal -0.684546 0.72897 0
    outer loop
      vertex -5.83175 5.47638 37.5
      vertex -5.09939 6.16411 -37.5
      vertex -5.83175 5.47638 -37.5
    endloop
  endfacet
  facet normal -0.368122 0.929777 0
    outer loop
      vertex -2.47214 7.60845 -37.5
      vertex -3.40623 7.23862 37.5
      vertex -2.47214 7.60845 37.5
    endloop
  endfacet
  facet normal -0.368122 0.929777 0
    outer loop
      vertex -3.40623 7.23862 37.5
      vertex -2.47214 7.60845 -37.5
      vertex -3.40623 7.23862 -37.5
    endloop
  endfacet
  facet normal 0.904826 -0.425782 0
    outer loop
      vertex 7.01045 -3.85403 37.5
      vertex 7.43821 -2.945 -37.5
      vertex 7.43821 -2.945 37.5
    endloop
  endfacet
  facet normal 0.904826 -0.425782 0
    outer loop
      vertex 7.43821 -2.945 -37.5
      vertex 7.01045 -3.85403 37.5
      vertex 7.01045 -3.85403 -37.5
    endloop
  endfacet
  facet normal 0.904826 0.425782 0
    outer loop
      vertex 7.43821 2.945 37.5
      vertex 7.01045 3.85403 -37.5
      vertex 7.01045 3.85403 37.5
    endloop
  endfacet
  facet normal 0.904826 0.425782 0
    outer loop
      vertex 7.01045 3.85403 -37.5
      vertex 7.43821 2.945 37.5
      vertex 7.43821 2.945 -37.5
    endloop
  endfacet
  facet normal 0.368122 0.929777 -0
    outer loop
      vertex 3.40623 7.23862 -37.5
      vertex 2.47214 7.60845 37.5
      vertex 3.40623 7.23862 37.5
    endloop
  endfacet
  facet normal 0.368122 0.929777 0
    outer loop
      vertex 2.47214 7.60845 37.5
      vertex 3.40623 7.23862 -37.5
      vertex 2.47214 7.60845 -37.5
    endloop
  endfacet
  facet normal 0.248693 0.968582 -0
    outer loop
      vertex 2.47214 7.60845 -37.5
      vertex 1.49905 7.8583 37.5
      vertex 2.47214 7.60845 37.5
    endloop
  endfacet
  facet normal 0.248693 0.968582 0
    outer loop
      vertex 1.49905 7.8583 37.5
      vertex 2.47214 7.60845 -37.5
      vertex 1.49905 7.8583 -37.5
    endloop
  endfacet
  facet normal 0.481759 0.876304 -0
    outer loop
      vertex 4.28661 6.75462 -37.5
      vertex 3.40623 7.23862 37.5
      vertex 4.28661 6.75462 37.5
    endloop
  endfacet
  facet normal 0.481759 0.876304 0
    outer loop
      vertex 3.40623 7.23862 37.5
      vertex 4.28661 6.75462 -37.5
      vertex 3.40623 7.23862 -37.5
    endloop
  endfacet
  facet normal -0.904826 0.425782 0
    outer loop
      vertex -7.43821 2.945 -37.5
      vertex -7.01045 3.85403 37.5
      vertex -7.01045 3.85403 -37.5
    endloop
  endfacet
  facet normal -0.904826 0.425782 0
    outer loop
      vertex -7.01045 3.85403 37.5
      vertex -7.43821 2.945 -37.5
      vertex -7.43821 2.945 37.5
    endloop
  endfacet
  facet normal -0.770514 0.637423 0
    outer loop
      vertex -6.47214 4.70228 -37.5
      vertex -5.83175 5.47638 37.5
      vertex -5.83175 5.47638 -37.5
    endloop
  endfacet
  facet normal -0.770514 0.637423 0
    outer loop
      vertex -5.83175 5.47638 37.5
      vertex -6.47214 4.70228 -37.5
      vertex -6.47214 4.70228 37.5
    endloop
  endfacet
  facet normal 0 0 1
    outer loop
      vertex 5.25 0 37.5
      vertex 8 0 37.5
      vertex 7.93692 1.00267 37.5
    endloop
  endfacet
  facet normal 0 0 1
    outer loop
      vertex 5.2086 0.657999 37.5
      vertex 7.93692 1.00267 37.5
      vertex 7.74866 1.98952 37.5
    endloop
  endfacet
  facet normal 0 0 1
    outer loop
      vertex 8 0 37.5
      vertex 5.25 0 37.5
      vertex 7.93692 -1.00267 37.5
    endloop
  endfacet
  facet normal 0 0 1
    outer loop
      vertex 5.08506 1.30562 37.5
      vertex 7.74866 1.98952 37.5
      vertex 7.43821 2.945 37.5
    endloop
  endfacet
  facet normal -0 0 1
    outer loop
      vertex 5.2086 -0.657999 37.5
      vertex 7.93692 -1.00267 37.5
      vertex 5.25 0 37.5
    endloop
  endfacet
  facet normal 0 0 1
    outer loop
      vertex 4.88133 1.93265 37.5
      vertex 7.43821 2.945 37.5
      vertex 7.01045 3.85403 37.5
    endloop
  endfacet
  facet normal 0 0 1
    outer loop
      vertex 7.93692 -1.00267 37.5
      vertex 5.2086 -0.657999 37.5
      vertex 7.74866 -1.98952 37.5
    endloop
  endfacet
  facet normal 0 0 1
    outer loop
      vertex 4.60061 2.52921 37.5
      vertex 7.01045 3.85403 37.5
      vertex 6.47214 4.70228 37.5
    endloop
  endfacet
  facet normal -0 0 1
    outer loop
      vertex 5.08506 -1.30562 37.5
      vertex 7.74866 -1.98952 37.5
      vertex 5.2086 -0.657999 37.5
    endloop
  endfacet
  facet normal 0 0 1
    outer loop
      vertex 4.24734 3.08587 37.5
      vertex 6.47214 4.70228 37.5
      vertex 5.83175 5.47638 37.5
    endloop
  endfacet
  facet normal 0 0 1
    outer loop
      vertex 7.74866 -1.98952 37.5
      vertex 5.08506 -1.30562 37.5
      vertex 7.43821 -2.945 37.5
    endloop
  endfacet
  facet normal -0 0 1
    outer loop
      vertex 4.88133 -1.93265 37.5
      vertex 7.43821 -2.945 37.5
      vertex 5.08506 -1.30562 37.5
    endloop
  endfacet
  facet normal 0 0 1
    outer loop
      vertex 7.93692 1.00267 37.5
      vertex 5.2086 0.657999 37.5
      vertex 5.25 0 37.5
    endloop
  endfacet
  facet normal 0 0 1
    outer loop
      vertex 3.82708 3.59387 37.5
      vertex 5.83175 5.47638 37.5
      vertex 5.09939 6.16411 37.5
    endloop
  endfacet
  facet normal 0 0 1
    outer loop
      vertex 7.74866 1.98952 37.5
      vertex 5.08506 1.30562 37.5
      vertex 5.2086 0.657999 37.5
    endloop
  endfacet
  facet normal 0 0 1
    outer loop
      vertex 7.43821 2.945 37.5
      vertex 4.88133 1.93265 37.5
      vertex 5.08506 1.30562 37.5
    endloop
  endfacet
  facet normal 0 0 1
    outer loop
      vertex 7.01045 3.85403 37.5
      vertex 4.60061 2.52921 37.5
      vertex 4.88133 1.93265 37.5
    endloop
  endfacet
  facet normal 0 0 1
    outer loop
      vertex 3.34648 4.04519 37.5
      vertex 5.09939 6.16411 37.5
      vertex 4.28661 6.75462 37.5
    endloop
  endfacet
  facet normal 0 0 1
    outer loop
      vertex 6.47214 4.70228 37.5
      vertex 4.24734 3.08587 37.5
      vertex 4.60061 2.52921 37.5
    endloop
  endfacet
  facet normal 0 0 1
    outer loop
      vertex 5.83175 5.47638 37.5
      vertex 3.82708 3.59387 37.5
      vertex 4.24734 3.08587 37.5
    endloop
  endfacet
  facet normal 0 0 1
    outer loop
      vertex 2.81309 4.43272 37.5
      vertex 4.28661 6.75462 37.5
      vertex 3.40623 7.23862 37.5
    endloop
  endfacet
  facet normal 0 0 1
    outer loop
      vertex 5.09939 6.16411 37.5
      vertex 3.34648 4.04519 37.5
      vertex 3.82708 3.59387 37.5
    endloop
  endfacet
  facet normal 0 0 1
    outer loop
      vertex 4.28661 6.75462 37.5
      vertex 2.81309 4.43272 37.5
      vertex 3.34648 4.04519 37.5
    endloop
  endfacet
  facet normal 0 0 1
    outer loop
      vertex 2.23534 4.75034 37.5
      vertex 3.40623 7.23862 37.5
      vertex 2.47214 7.60845 37.5
    endloop
  endfacet
  facet normal 0 0 1
    outer loop
      vertex 3.40623 7.23862 37.5
      vertex 2.23534 4.75034 37.5
      vertex 2.81309 4.43272 37.5
    endloop
  endfacet
  facet normal 0 0 1
    outer loop
      vertex 2.47214 7.60845 37.5
      vertex 1.62234 4.99305 37.5
      vertex 2.23534 4.75034 37.5
    endloop
  endfacet
  facet normal 0 0 1
    outer loop
      vertex 1.49905 7.8583 37.5
      vertex 1.62234 4.99305 37.5
      vertex 2.47214 7.60845 37.5
    endloop
  endfacet
  facet normal 0 0 1
    outer loop
      vertex 1.49905 7.8583 37.5
      vertex 0.983751 5.15701 37.5
      vertex 1.62234 4.99305 37.5
    endloop
  endfacet
  facet normal 0 0 1
    outer loop
      vertex 0.502324 7.98421 37.5
      vertex 0.983751 5.15701 37.5
      vertex 1.49905 7.8583 37.5
    endloop
  endfacet
  facet normal 0 0 1
    outer loop
      vertex 0.502324 7.98421 37.5
      vertex 0.32965 5.23964 37.5
      vertex 0.983751 5.15701 37.5
    endloop
  endfacet
  facet normal 0 0 1
    outer loop
      vertex 0.502324 7.98421 37.5
      vertex -0.32965 5.23964 37.5
      vertex 0.32965 5.23964 37.5
    endloop
  endfacet
  facet normal -0 0 1
    outer loop
      vertex -0.502324 7.98421 37.5
      vertex -0.32965 5.23964 37.5
      vertex 0.502324 7.98421 37.5
    endloop
  endfacet
  facet normal 0 0 1
    outer loop
      vertex -0.502324 7.98421 37.5
      vertex -0.983751 5.15701 37.5
      vertex -0.32965 5.23964 37.5
    endloop
  endfacet
  facet normal -0 0 1
    outer loop
      vertex -1.49905 7.8583 37.5
      vertex -0.983751 5.15701 37.5
      vertex -0.502324 7.98421 37.5
    endloop
  endfacet
  facet normal 0 0 1
    outer loop
      vertex -1.49905 7.8583 37.5
      vertex -1.62234 4.99305 37.5
      vertex -0.983751 5.15701 37.5
    endloop
  endfacet
  facet normal -0 0 1
    outer loop
      vertex -2.47214 7.60845 37.5
      vertex -1.62234 4.99305 37.5
      vertex -1.49905 7.8583 37.5
    endloop
  endfacet
  facet normal 0 0 1
    outer loop
      vertex -1.62234 4.99305 37.5
      vertex -2.47214 7.60845 37.5
      vertex -2.23534 4.75034 37.5
    endloop
  endfacet
  facet normal -0 0 1
    outer loop
      vertex -3.40623 7.23862 37.5
      vertex -2.23534 4.75034 37.5
      vertex -2.47214 7.60845 37.5
    endloop
  endfacet
  facet normal 0 0 1
    outer loop
      vertex -2.23534 4.75034 37.5
      vertex -3.40623 7.23862 37.5
      vertex -2.81309 4.43272 37.5
    endloop
  endfacet
  facet normal -0 0 1
    outer loop
      vertex -4.28661 6.75462 37.5
      vertex -2.81309 4.43272 37.5
      vertex -3.40623 7.23862 37.5
    endloop
  endfacet
  facet normal 0 0 1
    outer loop
      vertex -2.81309 4.43272 37.5
      vertex -4.28661 6.75462 37.5
      vertex -3.34648 4.04519 37.5
    endloop
  endfacet
  facet normal -0 0 1
    outer loop
      vertex -5.09939 6.16411 37.5
      vertex -3.34648 4.04519 37.5
      vertex -4.28661 6.75462 37.5
    endloop
  endfacet
  facet normal 0 0 1
    outer loop
      vertex -3.34648 4.04519 37.5
      vertex -5.09939 6.16411 37.5
      vertex -3.82708 3.59387 37.5
    endloop
  endfacet
  facet normal -0 0 1
    outer loop
      vertex -5.83175 5.47638 37.5
      vertex -3.82708 3.59387 37.5
      vertex -5.09939 6.16411 37.5
    endloop
  endfacet
  facet normal 0 0 1
    outer loop
      vertex -3.82708 3.59387 37.5
      vertex -5.83175 5.47638 37.5
      vertex -4.24734 3.08587 37.5
    endloop
  endfacet
  facet normal -0 0 1
    outer loop
      vertex -6.47214 4.70228 37.5
      vertex -4.24734 3.08587 37.5
      vertex -5.83175 5.47638 37.5
    endloop
  endfacet
  facet normal 0 0 1
    outer loop
      vertex -4.24734 3.08587 37.5
      vertex -6.47214 4.70228 37.5
      vertex -4.60061 2.52921 37.5
    endloop
  endfacet
  facet normal -0 0 1
    outer loop
      vertex -7.01045 3.85403 37.5
      vertex -4.60061 2.52921 37.5
      vertex -6.47214 4.70228 37.5
    endloop
  endfacet
  facet normal 0 0 1
    outer loop
      vertex -4.60061 2.52921 37.5
      vertex -7.01045 3.85403 37.5
      vertex -4.88133 1.93265 37.5
    endloop
  endfacet
  facet normal -0 0 1
    outer loop
      vertex -7.43821 2.945 37.5
      vertex -4.88133 1.93265 37.5
      vertex -7.01045 3.85403 37.5
    endloop
  endfacet
  facet normal 0 0 1
    outer loop
      vertex 7.43821 -2.945 37.5
      vertex 4.88133 -1.93265 37.5
      vertex 7.01045 -3.85403 37.5
    endloop
  endfacet
  facet normal -0 0 1
    outer loop
      vertex 4.60061 -2.52921 37.5
      vertex 7.01045 -3.85403 37.5
      vertex 4.88133 -1.93265 37.5
    endloop
  endfacet
  facet normal 0 0 1
    outer loop
      vertex 7.01045 -3.85403 37.5
      vertex 4.60061 -2.52921 37.5
      vertex 6.47214 -4.70228 37.5
    endloop
  endfacet
  facet normal -0 0 1
    outer loop
      vertex 4.24734 -3.08587 37.5
      vertex 6.47214 -4.70228 37.5
      vertex 4.60061 -2.52921 37.5
    endloop
  endfacet
  facet normal 0 0 1
    outer loop
      vertex 6.47214 -4.70228 37.5
      vertex 4.24734 -3.08587 37.5
      vertex 5.83175 -5.47638 37.5
    endloop
  endfacet
  facet normal -0 0 1
    outer loop
      vertex 3.82708 -3.59387 37.5
      vertex 5.83175 -5.47638 37.5
      vertex 4.24734 -3.08587 37.5
    endloop
  endfacet
  facet normal 0 0 1
    outer loop
      vertex 5.83175 -5.47638 37.5
      vertex 3.82708 -3.59387 37.5
      vertex 5.09939 -6.16411 37.5
    endloop
  endfacet
  facet normal -0 0 1
    outer loop
      vertex 3.34648 -4.04519 37.5
      vertex 5.09939 -6.16411 37.5
      vertex 3.82708 -3.59387 37.5
    endloop
  endfacet
  facet normal 0 0 1
    outer loop
      vertex 5.09939 -6.16411 37.5
      vertex 3.34648 -4.04519 37.5
      vertex 4.28661 -6.75462 37.5
    endloop
  endfacet
  facet normal -0 0 1
    outer loop
      vertex 2.81309 -4.43272 37.5
      vertex 4.28661 -6.75462 37.5
      vertex 3.34648 -4.04519 37.5
    endloop
  endfacet
  facet normal 0 0 1
    outer loop
      vertex 4.28661 -6.75462 37.5
      vertex 2.81309 -4.43272 37.5
      vertex 3.40623 -7.23862 37.5
    endloop
  endfacet
  facet normal -0 0 1
    outer loop
      vertex 2.23534 -4.75034 37.5
      vertex 3.40623 -7.23862 37.5
      vertex 2.81309 -4.43272 37.5
    endloop
  endfacet
  facet normal 0 0 1
    outer loop
      vertex 3.40623 -7.23862 37.5
      vertex 2.23534 -4.75034 37.5
      vertex 2.47214 -7.60845 37.5
    endloop
  endfacet
  facet normal -0 0 1
    outer loop
      vertex 1.62234 -4.99305 37.5
      vertex 2.47214 -7.60845 37.5
      vertex 2.23534 -4.75034 37.5
    endloop
  endfacet
  facet normal 0 0 1
    outer loop
      vertex 1.62234 -4.99305 37.5
      vertex 1.49905 -7.8583 37.5
      vertex 2.47214 -7.60845 37.5
    endloop
  endfacet
  facet normal -0 0 1
    outer loop
      vertex 0.983751 -5.15701 37.5
      vertex 1.49905 -7.8583 37.5
      vertex 1.62234 -4.99305 37.5
    endloop
  endfacet
  facet normal 0 0 1
    outer loop
      vertex 0.983751 -5.15701 37.5
      vertex 0.502324 -7.98421 37.5
      vertex 1.49905 -7.8583 37.5
    endloop
  endfacet
  facet normal -0 0 1
    outer loop
      vertex 0.32965 -5.23964 37.5
      vertex 0.502324 -7.98421 37.5
      vertex 0.983751 -5.15701 37.5
    endloop
  endfacet
  facet normal -0 0 1
    outer loop
      vertex -0.32965 -5.23964 37.5
      vertex 0.502324 -7.98421 37.5
      vertex 0.32965 -5.23964 37.5
    endloop
  endfacet
  facet normal 0 0 1
    outer loop
      vertex -0.32965 -5.23964 37.5
      vertex -0.502324 -7.98421 37.5
      vertex 0.502324 -7.98421 37.5
    endloop
  endfacet
  facet normal 0 0 1
    outer loop
      vertex -0.983751 -5.15701 37.5
      vertex -0.502324 -7.98421 37.5
      vertex -0.32965 -5.23964 37.5
    endloop
  endfacet
  facet normal 0 0 1
    outer loop
      vertex -0.983751 -5.15701 37.5
      vertex -1.49905 -7.8583 37.5
      vertex -0.502324 -7.98421 37.5
    endloop
  endfacet
  facet normal 0 0 1
    outer loop
      vertex -1.62234 -4.99305 37.5
      vertex -1.49905 -7.8583 37.5
      vertex -0.983751 -5.15701 37.5
    endloop
  endfacet
  facet normal 0 0 1
    outer loop
      vertex -2.47214 -7.60845 37.5
      vertex -1.62234 -4.99305 37.5
      vertex -2.23534 -4.75034 37.5
    endloop
  endfacet
  facet normal 0 0 1
    outer loop
      vertex -1.62234 -4.99305 37.5
      vertex -2.47214 -7.60845 37.5
      vertex -1.49905 -7.8583 37.5
    endloop
  endfacet
  facet normal 0 0 1
    outer loop
      vertex -3.40623 -7.23862 37.5
      vertex -2.23534 -4.75034 37.5
      vertex -2.81309 -4.43272 37.5
    endloop
  endfacet
  facet normal 0 0 1
    outer loop
      vertex -4.28661 -6.75462 37.5
      vertex -2.81309 -4.43272 37.5
      vertex -3.34648 -4.04519 37.5
    endloop
  endfacet
  facet normal 0 0 1
    outer loop
      vertex -2.23534 -4.75034 37.5
      vertex -3.40623 -7.23862 37.5
      vertex -2.47214 -7.60845 37.5
    endloop
  endfacet
  facet normal 0 0 1
    outer loop
      vertex -5.09939 -6.16411 37.5
      vertex -3.34648 -4.04519 37.5
      vertex -3.82708 -3.59387 37.5
    endloop
  endfacet
  facet normal 0 0 1
    outer loop
      vertex -5.83175 -5.47638 37.5
      vertex -3.82708 -3.59387 37.5
      vertex -4.24734 -3.08587 37.5
    endloop
  endfacet
  facet normal 0 0 1
    outer loop
      vertex -2.81309 -4.43272 37.5
      vertex -4.28661 -6.75462 37.5
      vertex -3.40623 -7.23862 37.5
    endloop
  endfacet
  facet normal 0 0 1
    outer loop
      vertex -6.47214 -4.70228 37.5
      vertex -4.24734 -3.08587 37.5
      vertex -4.60061 -2.52921 37.5
    endloop
  endfacet
  facet normal 0 0 1
    outer loop
      vertex -7.01045 -3.85403 37.5
      vertex -4.60061 -2.52921 37.5
      vertex -4.88133 -1.93265 37.5
    endloop
  endfacet
  facet normal 0 0 1
    outer loop
      vertex -7.43821 -2.945 37.5
      vertex -4.88133 -1.93265 37.5
      vertex -5.08506 -1.30562 37.5
    endloop
  endfacet
  facet normal 0 0 1
    outer loop
      vertex -3.34648 -4.04519 37.5
      vertex -5.09939 -6.16411 37.5
      vertex -4.28661 -6.75462 37.5
    endloop
  endfacet
  facet normal 0 0 1
    outer loop
      vertex -7.74866 -1.98952 37.5
      vertex -5.08506 -1.30562 37.5
      vertex -5.2086 -0.657999 37.5
    endloop
  endfacet
  facet normal 0 0 1
    outer loop
      vertex -7.93692 -1.00267 37.5
      vertex -5.2086 -0.657999 37.5
      vertex -5.25 0 37.5
    endloop
  endfacet
  facet normal 0 0 1
    outer loop
      vertex -4.88133 1.93265 37.5
      vertex -7.43821 2.945 37.5
      vertex -5.08506 1.30562 37.5
    endloop
  endfacet
  facet normal 0 0 1
    outer loop
      vertex -3.82708 -3.59387 37.5
      vertex -5.83175 -5.47638 37.5
      vertex -5.09939 -6.16411 37.5
    endloop
  endfacet
  facet normal -0 0 1
    outer loop
      vertex -7.74866 1.98952 37.5
      vertex -5.08506 1.30562 37.5
      vertex -7.43821 2.945 37.5
    endloop
  endfacet
  facet normal 0 0 1
    outer loop
      vertex -4.24734 -3.08587 37.5
      vertex -6.47214 -4.70228 37.5
      vertex -5.83175 -5.47638 37.5
    endloop
  endfacet
  facet normal 0 0 1
    outer loop
      vertex -5.08506 1.30562 37.5
      vertex -7.74866 1.98952 37.5
      vertex -5.2086 0.657999 37.5
    endloop
  endfacet
  facet normal 0 0 1
    outer loop
      vertex -4.60061 -2.52921 37.5
      vertex -7.01045 -3.85403 37.5
      vertex -6.47214 -4.70228 37.5
    endloop
  endfacet
  facet normal -0 0 1
    outer loop
      vertex -7.93692 1.00267 37.5
      vertex -5.2086 0.657999 37.5
      vertex -7.74866 1.98952 37.5
    endloop
  endfacet
  facet normal 0 0 1
    outer loop
      vertex -4.88133 -1.93265 37.5
      vertex -7.43821 -2.945 37.5
      vertex -7.01045 -3.85403 37.5
    endloop
  endfacet
  facet normal 0 0 1
    outer loop
      vertex -5.2086 0.657999 37.5
      vertex -7.93692 1.00267 37.5
      vertex -5.25 0 37.5
    endloop
  endfacet
  facet normal 0 0 1
    outer loop
      vertex -5.08506 -1.30562 37.5
      vertex -7.74866 -1.98952 37.5
      vertex -7.43821 -2.945 37.5
    endloop
  endfacet
  facet normal 0 0 1
    outer loop
      vertex -8 0 37.5
      vertex -5.25 0 37.5
      vertex -7.93692 1.00267 37.5
    endloop
  endfacet
  facet normal 0 0 1
    outer loop
      vertex -5.2086 -0.657999 37.5
      vertex -7.93692 -1.00267 37.5
      vertex -7.74866 -1.98952 37.5
    endloop
  endfacet
  facet normal 0 0 1
    outer loop
      vertex -5.25 0 37.5
      vertex -8 0 37.5
      vertex -7.93692 -1.00267 37.5
    endloop
  endfacet
  facet normal -0.248693 0.968582 0
    outer loop
      vertex -1.49905 7.8583 -37.5
      vertex -2.47214 7.60845 37.5
      vertex -1.49905 7.8583 37.5
    endloop
  endfacet
  facet normal -0.248693 0.968582 0
    outer loop
      vertex -2.47214 7.60845 37.5
      vertex -1.49905 7.8583 -37.5
      vertex -2.47214 7.60845 -37.5
    endloop
  endfacet
  facet normal 0 0 -1
    outer loop
      vertex 5.25 0 -37.5
      vertex 8 0 -37.5
      vertex 7.93692 -1.00267 -37.5
    endloop
  endfacet
  facet normal 0 0 -1
    outer loop
      vertex 5.2086 -0.657999 -37.5
      vertex 7.93692 -1.00267 -37.5
      vertex 7.74866 -1.98952 -37.5
    endloop
  endfacet
  facet normal 0 0 -1
    outer loop
      vertex 8 0 -37.5
      vertex 5.25 0 -37.5
      vertex 7.93692 1.00267 -37.5
    endloop
  endfacet
  facet normal 0 0 -1
    outer loop
      vertex 5.08506 -1.30562 -37.5
      vertex 7.74866 -1.98952 -37.5
      vertex 7.43821 -2.945 -37.5
    endloop
  endfacet
  facet normal 0 0 -1
    outer loop
      vertex 5.2086 0.657999 -37.5
      vertex 7.93692 1.00267 -37.5
      vertex 5.25 0 -37.5
    endloop
  endfacet
  facet normal 0 0 -1
    outer loop
      vertex 4.88133 -1.93265 -37.5
      vertex 7.43821 -2.945 -37.5
      vertex 7.01045 -3.85403 -37.5
    endloop
  endfacet
  facet normal -0 0 -1
    outer loop
      vertex 7.93692 1.00267 -37.5
      vertex 5.2086 0.657999 -37.5
      vertex 7.74866 1.98952 -37.5
    endloop
  endfacet
  facet normal 0 0 -1
    outer loop
      vertex 4.60061 -2.52921 -37.5
      vertex 7.01045 -3.85403 -37.5
      vertex 6.47214 -4.70228 -37.5
    endloop
  endfacet
  facet normal 0 0 -1
    outer loop
      vertex 5.08506 1.30562 -37.5
      vertex 7.74866 1.98952 -37.5
      vertex 5.2086 0.657999 -37.5
    endloop
  endfacet
  facet normal 0 0 -1
    outer loop
      vertex 4.24734 -3.08587 -37.5
      vertex 6.47214 -4.70228 -37.5
      vertex 5.83175 -5.47638 -37.5
    endloop
  endfacet
  facet normal -0 0 -1
    outer loop
      vertex 7.74866 1.98952 -37.5
      vertex 5.08506 1.30562 -37.5
      vertex 7.43821 2.945 -37.5
    endloop
  endfacet
  facet normal 0 0 -1
    outer loop
      vertex 4.88133 1.93265 -37.5
      vertex 7.43821 2.945 -37.5
      vertex 5.08506 1.30562 -37.5
    endloop
  endfacet
  facet normal 0 0 -1
    outer loop
      vertex 7.93692 -1.00267 -37.5
      vertex 5.2086 -0.657999 -37.5
      vertex 5.25 0 -37.5
    endloop
  endfacet
  facet normal 0 0 -1
    outer loop
      vertex 3.82708 -3.59387 -37.5
      vertex 5.83175 -5.47638 -37.5
      vertex 5.09939 -6.16411 -37.5
    endloop
  endfacet
  facet normal 0 0 -1
    outer loop
      vertex 7.74866 -1.98952 -37.5
      vertex 5.08506 -1.30562 -37.5
      vertex 5.2086 -0.657999 -37.5
    endloop
  endfacet
  facet normal 0 0 -1
    outer loop
      vertex 7.43821 -2.945 -37.5
      vertex 4.88133 -1.93265 -37.5
      vertex 5.08506 -1.30562 -37.5
    endloop
  endfacet
  facet normal 0 0 -1
    outer loop
      vertex 7.01045 -3.85403 -37.5
      vertex 4.60061 -2.52921 -37.5
      vertex 4.88133 -1.93265 -37.5
    endloop
  endfacet
  facet normal 0 0 -1
    outer loop
      vertex 3.34648 -4.04519 -37.5
      vertex 5.09939 -6.16411 -37.5
      vertex 4.28661 -6.75462 -37.5
    endloop
  endfacet
  facet normal 0 0 -1
    outer loop
      vertex 6.47214 -4.70228 -37.5
      vertex 4.24734 -3.08587 -37.5
      vertex 4.60061 -2.52921 -37.5
    endloop
  endfacet
  facet normal 0 0 -1
    outer loop
      vertex 5.83175 -5.47638 -37.5
      vertex 3.82708 -3.59387 -37.5
      vertex 4.24734 -3.08587 -37.5
    endloop
  endfacet
  facet normal 0 0 -1
    outer loop
      vertex 2.81309 -4.43272 -37.5
      vertex 4.28661 -6.75462 -37.5
      vertex 3.40623 -7.23862 -37.5
    endloop
  endfacet
  facet normal 0 0 -1
    outer loop
      vertex 5.09939 -6.16411 -37.5
      vertex 3.34648 -4.04519 -37.5
      vertex 3.82708 -3.59387 -37.5
    endloop
  endfacet
  facet normal 0 0 -1
    outer loop
      vertex 4.28661 -6.75462 -37.5
      vertex 2.81309 -4.43272 -37.5
      vertex 3.34648 -4.04519 -37.5
    endloop
  endfacet
  facet normal 0 0 -1
    outer loop
      vertex 2.23534 -4.75034 -37.5
      vertex 3.40623 -7.23862 -37.5
      vertex 2.47214 -7.60845 -37.5
    endloop
  endfacet
  facet normal 0 0 -1
    outer loop
      vertex 3.40623 -7.23862 -37.5
      vertex 2.23534 -4.75034 -37.5
      vertex 2.81309 -4.43272 -37.5
    endloop
  endfacet
  facet normal 0 0 -1
    outer loop
      vertex 2.47214 -7.60845 -37.5
      vertex 1.62234 -4.99305 -37.5
      vertex 2.23534 -4.75034 -37.5
    endloop
  endfacet
  facet normal 0 0 -1
    outer loop
      vertex 1.49905 -7.8583 -37.5
      vertex 1.62234 -4.99305 -37.5
      vertex 2.47214 -7.60845 -37.5
    endloop
  endfacet
  facet normal 0 0 -1
    outer loop
      vertex 1.49905 -7.8583 -37.5
      vertex 0.983751 -5.15701 -37.5
      vertex 1.62234 -4.99305 -37.5
    endloop
  endfacet
  facet normal 0 0 -1
    outer loop
      vertex 0.502324 -7.98421 -37.5
      vertex 0.983751 -5.15701 -37.5
      vertex 1.49905 -7.8583 -37.5
    endloop
  endfacet
  facet normal 0 0 -1
    outer loop
      vertex 0.502324 -7.98421 -37.5
      vertex 0.32965 -5.23964 -37.5
      vertex 0.983751 -5.15701 -37.5
    endloop
  endfacet
  facet normal 0 0 -1
    outer loop
      vertex 0.502324 -7.98421 -37.5
      vertex -0.32965 -5.23964 -37.5
      vertex 0.32965 -5.23964 -37.5
    endloop
  endfacet
  facet normal 0 0 -1
    outer loop
      vertex -0.502324 -7.98421 -37.5
      vertex -0.32965 -5.23964 -37.5
      vertex 0.502324 -7.98421 -37.5
    endloop
  endfacet
  facet normal 0 0 -1
    outer loop
      vertex -0.502324 -7.98421 -37.5
      vertex -0.983751 -5.15701 -37.5
      vertex -0.32965 -5.23964 -37.5
    endloop
  endfacet
  facet normal 0 0 -1
    outer loop
      vertex -1.49905 -7.8583 -37.5
      vertex -0.983751 -5.15701 -37.5
      vertex -0.502324 -7.98421 -37.5
    endloop
  endfacet
  facet normal 0 0 -1
    outer loop
      vertex -1.49905 -7.8583 -37.5
      vertex -1.62234 -4.99305 -37.5
      vertex -0.983751 -5.15701 -37.5
    endloop
  endfacet
  facet normal 0 0 -1
    outer loop
      vertex -2.47214 -7.60845 -37.5
      vertex -1.62234 -4.99305 -37.5
      vertex -1.49905 -7.8583 -37.5
    endloop
  endfacet
  facet normal -0 0 -1
    outer loop
      vertex -1.62234 -4.99305 -37.5
      vertex -2.47214 -7.60845 -37.5
      vertex -2.23534 -4.75034 -37.5
    endloop
  endfacet
  facet normal 0 0 -1
    outer loop
      vertex -3.40623 -7.23862 -37.5
      vertex -2.23534 -4.75034 -37.5
      vertex -2.47214 -7.60845 -37.5
    endloop
  endfacet
  facet normal -0 0 -1
    outer loop
      vertex -2.23534 -4.75034 -37.5
      vertex -3.40623 -7.23862 -37.5
      vertex -2.81309 -4.43272 -37.5
    endloop
  endfacet
  facet normal 0 0 -1
    outer loop
      vertex -4.28661 -6.75462 -37.5
      vertex -2.81309 -4.43272 -37.5
      vertex -3.40623 -7.23862 -37.5
    endloop
  endfacet
  facet normal -0 0 -1
    outer loop
      vertex -2.81309 -4.43272 -37.5
      vertex -4.28661 -6.75462 -37.5
      vertex -3.34648 -4.04519 -37.5
    endloop
  endfacet
  facet normal 0 0 -1
    outer loop
      vertex -5.09939 -6.16411 -37.5
      vertex -3.34648 -4.04519 -37.5
      vertex -4.28661 -6.75462 -37.5
    endloop
  endfacet
  facet normal -0 0 -1
    outer loop
      vertex -3.34648 -4.04519 -37.5
      vertex -5.09939 -6.16411 -37.5
      vertex -3.82708 -3.59387 -37.5
    endloop
  endfacet
  facet normal 0 0 -1
    outer loop
      vertex -5.83175 -5.47638 -37.5
      vertex -3.82708 -3.59387 -37.5
      vertex -5.09939 -6.16411 -37.5
    endloop
  endfacet
  facet normal -0 0 -1
    outer loop
      vertex -3.82708 -3.59387 -37.5
      vertex -5.83175 -5.47638 -37.5
      vertex -4.24734 -3.08587 -37.5
    endloop
  endfacet
  facet normal 0 0 -1
    outer loop
      vertex -6.47214 -4.70228 -37.5
      vertex -4.24734 -3.08587 -37.5
      vertex -5.83175 -5.47638 -37.5
    endloop
  endfacet
  facet normal -0 0 -1
    outer loop
      vertex -4.24734 -3.08587 -37.5
      vertex -6.47214 -4.70228 -37.5
      vertex -4.60061 -2.52921 -37.5
    endloop
  endfacet
  facet normal 0 0 -1
    outer loop
      vertex -7.01045 -3.85403 -37.5
      vertex -4.60061 -2.52921 -37.5
      vertex -6.47214 -4.70228 -37.5
    endloop
  endfacet
  facet normal -0 0 -1
    outer loop
      vertex -4.60061 -2.52921 -37.5
      vertex -7.01045 -3.85403 -37.5
      vertex -4.88133 -1.93265 -37.5
    endloop
  endfacet
  facet normal 0 0 -1
    outer loop
      vertex -7.43821 -2.945 -37.5
      vertex -4.88133 -1.93265 -37.5
      vertex -7.01045 -3.85403 -37.5
    endloop
  endfacet
  facet normal -0 0 -1
    outer loop
      vertex 7.43821 2.945 -37.5
      vertex 4.88133 1.93265 -37.5
      vertex 7.01045 3.85403 -37.5
    endloop
  endfacet
  facet normal 0 0 -1
    outer loop
      vertex 4.60061 2.52921 -37.5
      vertex 7.01045 3.85403 -37.5
      vertex 4.88133 1.93265 -37.5
    endloop
  endfacet
  facet normal -0 0 -1
    outer loop
      vertex 7.01045 3.85403 -37.5
      vertex 4.60061 2.52921 -37.5
      vertex 6.47214 4.70228 -37.5
    endloop
  endfacet
  facet normal 0 0 -1
    outer loop
      vertex 4.24734 3.08587 -37.5
      vertex 6.47214 4.70228 -37.5
      vertex 4.60061 2.52921 -37.5
    endloop
  endfacet
  facet normal -0 0 -1
    outer loop
      vertex 6.47214 4.70228 -37.5
      vertex 4.24734 3.08587 -37.5
      vertex 5.83175 5.47638 -37.5
    endloop
  endfacet
  facet normal 0 0 -1
    outer loop
      vertex 3.82708 3.59387 -37.5
      vertex 5.83175 5.47638 -37.5
      vertex 4.24734 3.08587 -37.5
    endloop
  endfacet
  facet normal -0 0 -1
    outer loop
      vertex 5.83175 5.47638 -37.5
      vertex 3.82708 3.59387 -37.5
      vertex 5.09939 6.16411 -37.5
    endloop
  endfacet
  facet normal 0 0 -1
    outer loop
      vertex 3.34648 4.04519 -37.5
      vertex 5.09939 6.16411 -37.5
      vertex 3.82708 3.59387 -37.5
    endloop
  endfacet
  facet normal -0 0 -1
    outer loop
      vertex 5.09939 6.16411 -37.5
      vertex 3.34648 4.04519 -37.5
      vertex 4.28661 6.75462 -37.5
    endloop
  endfacet
  facet normal 0 0 -1
    outer loop
      vertex 2.81309 4.43272 -37.5
      vertex 4.28661 6.75462 -37.5
      vertex 3.34648 4.04519 -37.5
    endloop
  endfacet
  facet normal -0 0 -1
    outer loop
      vertex 4.28661 6.75462 -37.5
      vertex 2.81309 4.43272 -37.5
      vertex 3.40623 7.23862 -37.5
    endloop
  endfacet
  facet normal 0 0 -1
    outer loop
      vertex 2.23534 4.75034 -37.5
      vertex 3.40623 7.23862 -37.5
      vertex 2.81309 4.43272 -37.5
    endloop
  endfacet
  facet normal -0 0 -1
    outer loop
      vertex 3.40623 7.23862 -37.5
      vertex 2.23534 4.75034 -37.5
      vertex 2.47214 7.60845 -37.5
    endloop
  endfacet
  facet normal 0 0 -1
    outer loop
      vertex 1.62234 4.99305 -37.5
      vertex 2.47214 7.60845 -37.5
      vertex 2.23534 4.75034 -37.5
    endloop
  endfacet
  facet normal 0 0 -1
    outer loop
      vertex 1.62234 4.99305 -37.5
      vertex 1.49905 7.8583 -37.5
      vertex 2.47214 7.60845 -37.5
    endloop
  endfacet
  facet normal 0 0 -1
    outer loop
      vertex 0.983751 5.15701 -37.5
      vertex 1.49905 7.8583 -37.5
      vertex 1.62234 4.99305 -37.5
    endloop
  endfacet
  facet normal 0 0 -1
    outer loop
      vertex 0.983751 5.15701 -37.5
      vertex 0.502324 7.98421 -37.5
      vertex 1.49905 7.8583 -37.5
    endloop
  endfacet
  facet normal 0 0 -1
    outer loop
      vertex 0.32965 5.23964 -37.5
      vertex 0.502324 7.98421 -37.5
      vertex 0.983751 5.15701 -37.5
    endloop
  endfacet
  facet normal 0 0 -1
    outer loop
      vertex -0.32965 5.23964 -37.5
      vertex 0.502324 7.98421 -37.5
      vertex 0.32965 5.23964 -37.5
    endloop
  endfacet
  facet normal 0 0 -1
    outer loop
      vertex -0.32965 5.23964 -37.5
      vertex -0.502324 7.98421 -37.5
      vertex 0.502324 7.98421 -37.5
    endloop
  endfacet
  facet normal 0 0 -1
    outer loop
      vertex -0.983751 5.15701 -37.5
      vertex -0.502324 7.98421 -37.5
      vertex -0.32965 5.23964 -37.5
    endloop
  endfacet
  facet normal 0 0 -1
    outer loop
      vertex -0.983751 5.15701 -37.5
      vertex -1.49905 7.8583 -37.5
      vertex -0.502324 7.98421 -37.5
    endloop
  endfacet
  facet normal 0 0 -1
    outer loop
      vertex -1.62234 4.99305 -37.5
      vertex -1.49905 7.8583 -37.5
      vertex -0.983751 5.15701 -37.5
    endloop
  endfacet
  facet normal 0 0 -1
    outer loop
      vertex -2.47214 7.60845 -37.5
      vertex -1.62234 4.99305 -37.5
      vertex -2.23534 4.75034 -37.5
    endloop
  endfacet
  facet normal 0 0 -1
    outer loop
      vertex -1.62234 4.99305 -37.5
      vertex -2.47214 7.60845 -37.5
      vertex -1.49905 7.8583 -37.5
    endloop
  endfacet
  facet normal 0 0 -1
    outer loop
      vertex -3.40623 7.23862 -37.5
      vertex -2.23534 4.75034 -37.5
      vertex -2.81309 4.43272 -37.5
    endloop
  endfacet
  facet normal 0 0 -1
    outer loop
      vertex -4.28661 6.75462 -37.5
      vertex -2.81309 4.43272 -37.5
      vertex -3.34648 4.04519 -37.5
    endloop
  endfacet
  facet normal 0 0 -1
    outer loop
      vertex -2.23534 4.75034 -37.5
      vertex -3.40623 7.23862 -37.5
      vertex -2.47214 7.60845 -37.5
    endloop
  endfacet
  facet normal 0 0 -1
    outer loop
      vertex -5.09939 6.16411 -37.5
      vertex -3.34648 4.04519 -37.5
      vertex -3.82708 3.59387 -37.5
    endloop
  endfacet
  facet normal 0 0 -1
    outer loop
      vertex -5.83175 5.47638 -37.5
      vertex -3.82708 3.59387 -37.5
      vertex -4.24734 3.08587 -37.5
    endloop
  endfacet
  facet normal 0 0 -1
    outer loop
      vertex -2.81309 4.43272 -37.5
      vertex -4.28661 6.75462 -37.5
      vertex -3.40623 7.23862 -37.5
    endloop
  endfacet
  facet normal 0 0 -1
    outer loop
      vertex -6.47214 4.70228 -37.5
      vertex -4.24734 3.08587 -37.5
      vertex -4.60061 2.52921 -37.5
    endloop
  endfacet
  facet normal 0 0 -1
    outer loop
      vertex -7.01045 3.85403 -37.5
      vertex -4.60061 2.52921 -37.5
      vertex -4.88133 1.93265 -37.5
    endloop
  endfacet
  facet normal 0 0 -1
    outer loop
      vertex -7.43821 2.945 -37.5
      vertex -4.88133 1.93265 -37.5
      vertex -5.08506 1.30562 -37.5
    endloop
  endfacet
  facet normal 0 0 -1
    outer loop
      vertex -3.34648 4.04519 -37.5
      vertex -5.09939 6.16411 -37.5
      vertex -4.28661 6.75462 -37.5
    endloop
  endfacet
  facet normal 0 0 -1
    outer loop
      vertex -7.74866 1.98952 -37.5
      vertex -5.08506 1.30562 -37.5
      vertex -5.2086 0.657999 -37.5
    endloop
  endfacet
  facet normal 0 0 -1
    outer loop
      vertex -7.93692 1.00267 -37.5
      vertex -5.2086 0.657999 -37.5
      vertex -5.25 0 -37.5
    endloop
  endfacet
  facet normal -0 0 -1
    outer loop
      vertex -4.88133 -1.93265 -37.5
      vertex -7.43821 -2.945 -37.5
      vertex -5.08506 -1.30562 -37.5
    endloop
  endfacet
  facet normal 0 0 -1
    outer loop
      vertex -3.82708 3.59387 -37.5
      vertex -5.83175 5.47638 -37.5
      vertex -5.09939 6.16411 -37.5
    endloop
  endfacet
  facet normal 0 0 -1
    outer loop
      vertex -7.74866 -1.98952 -37.5
      vertex -5.08506 -1.30562 -37.5
      vertex -7.43821 -2.945 -37.5
    endloop
  endfacet
  facet normal 0 0 -1
    outer loop
      vertex -4.24734 3.08587 -37.5
      vertex -6.47214 4.70228 -37.5
      vertex -5.83175 5.47638 -37.5
    endloop
  endfacet
  facet normal -0 0 -1
    outer loop
      vertex -5.08506 -1.30562 -37.5
      vertex -7.74866 -1.98952 -37.5
      vertex -5.2086 -0.657999 -37.5
    endloop
  endfacet
  facet normal 0 0 -1
    outer loop
      vertex -4.60061 2.52921 -37.5
      vertex -7.01045 3.85403 -37.5
      vertex -6.47214 4.70228 -37.5
    endloop
  endfacet
  facet normal 0 0 -1
    outer loop
      vertex -7.93692 -1.00267 -37.5
      vertex -5.2086 -0.657999 -37.5
      vertex -7.74866 -1.98952 -37.5
    endloop
  endfacet
  facet normal 0 0 -1
    outer loop
      vertex -4.88133 1.93265 -37.5
      vertex -7.43821 2.945 -37.5
      vertex -7.01045 3.85403 -37.5
    endloop
  endfacet
  facet normal -0 0 -1
    outer loop
      vertex -5.2086 -0.657999 -37.5
      vertex -7.93692 -1.00267 -37.5
      vertex -5.25 0 -37.5
    endloop
  endfacet
  facet normal 0 0 -1
    outer loop
      vertex -5.08506 1.30562 -37.5
      vertex -7.74866 1.98952 -37.5
      vertex -7.43821 2.945 -37.5
    endloop
  endfacet
  facet normal 0 0 -1
    outer loop
      vertex -8 0 -37.5
      vertex -5.25 0 -37.5
      vertex -7.93692 -1.00267 -37.5
    endloop
  endfacet
  facet normal 0 0 -1
    outer loop
      vertex -5.2086 0.657999 -37.5
      vertex -7.93692 1.00267 -37.5
      vertex -7.74866 1.98952 -37.5
    endloop
  endfacet
  facet normal 0 0 -1
    outer loop
      vertex -5.25 0 -37.5
      vertex -8 0 -37.5
      vertex -7.93692 1.00267 -37.5
    endloop
  endfacet
  facet normal 0.125328 -0.992115 0
    outer loop
      vertex 0.502324 -7.98421 -37.5
      vertex 1.49905 -7.8583 37.5
      vertex 0.502324 -7.98421 37.5
    endloop
  endfacet
  facet normal 0.125328 -0.992115 0
    outer loop
      vertex 1.49905 -7.8583 37.5
      vertex 0.502324 -7.98421 -37.5
      vertex 1.49905 -7.8583 -37.5
    endloop
  endfacet
  facet normal 0.951058 0.309013 0
    outer loop
      vertex 7.74866 1.98952 37.5
      vertex 7.43821 2.945 -37.5
      vertex 7.43821 2.945 37.5
    endloop
  endfacet
  facet normal 0.951058 0.309013 0
    outer loop
      vertex 7.43821 2.945 -37.5
      vertex 7.74866 1.98952 37.5
      vertex 7.74866 1.98952 -37.5
    endloop
  endfacet
  facet normal 0.982286 0.187389 0
    outer loop
      vertex 7.93692 1.00267 37.5
      vertex 7.74866 1.98952 -37.5
      vertex 7.74866 1.98952 37.5
    endloop
  endfacet
  facet normal 0.982286 0.187389 0
    outer loop
      vertex 7.74866 1.98952 -37.5
      vertex 7.93692 1.00267 37.5
      vertex 7.93692 1.00267 -37.5
    endloop
  endfacet
  facet normal 0.770514 0.637423 0
    outer loop
      vertex 6.47214 4.70228 37.5
      vertex 5.83175 5.47638 -37.5
      vertex 5.83175 5.47638 37.5
    endloop
  endfacet
  facet normal 0.770514 0.637423 0
    outer loop
      vertex 5.83175 5.47638 -37.5
      vertex 6.47214 4.70228 37.5
      vertex 6.47214 4.70228 -37.5
    endloop
  endfacet
  facet normal 0.844331 0.535823 0
    outer loop
      vertex 7.01045 3.85403 37.5
      vertex 6.47214 4.70228 -37.5
      vertex 6.47214 4.70228 37.5
    endloop
  endfacet
  facet normal 0.844331 0.535823 0
    outer loop
      vertex 6.47214 4.70228 -37.5
      vertex 7.01045 3.85403 37.5
      vertex 7.01045 3.85403 -37.5
    endloop
  endfacet
  facet normal 0.125328 0.992115 -0
    outer loop
      vertex 1.49905 7.8583 -37.5
      vertex 0.502324 7.98421 37.5
      vertex 1.49905 7.8583 37.5
    endloop
  endfacet
  facet normal 0.125328 0.992115 0
    outer loop
      vertex 0.502324 7.98421 37.5
      vertex 1.49905 7.8583 -37.5
      vertex 0.502324 7.98421 -37.5
    endloop
  endfacet
  facet normal 0.587779 0.809021 -0
    outer loop
      vertex 5.09939 6.16411 -37.5
      vertex 4.28661 6.75462 37.5
      vertex 5.09939 6.16411 37.5
    endloop
  endfacet
  facet normal 0.587779 0.809021 0
    outer loop
      vertex 4.28661 6.75462 37.5
      vertex 5.09939 6.16411 -37.5
      vertex 4.28661 6.75462 -37.5
    endloop
  endfacet
  facet normal -0.844331 0.535823 0
    outer loop
      vertex -7.01045 3.85403 -37.5
      vertex -6.47214 4.70228 37.5
      vertex -6.47214 4.70228 -37.5
    endloop
  endfacet
  facet normal -0.844331 0.535823 0
    outer loop
      vertex -6.47214 4.70228 37.5
      vertex -7.01045 3.85403 -37.5
      vertex -7.01045 3.85403 37.5
    endloop
  endfacet
  facet normal -0.951058 0.309013 0
    outer loop
      vertex -7.74866 1.98952 -37.5
      vertex -7.43821 2.945 37.5
      vertex -7.43821 2.945 -37.5
    endloop
  endfacet
  facet normal -0.951058 0.309013 0
    outer loop
      vertex -7.43821 2.945 37.5
      vertex -7.74866 1.98952 -37.5
      vertex -7.74866 1.98952 37.5
    endloop
  endfacet
  facet normal -0.982286 0.187389 0
    outer loop
      vertex -7.93692 1.00267 -37.5
      vertex -7.74866 1.98952 37.5
      vertex -7.74866 1.98952 -37.5
    endloop
  endfacet
  facet normal -0.982286 0.187389 0
    outer loop
      vertex -7.74866 1.98952 37.5
      vertex -7.93692 1.00267 -37.5
      vertex -7.93692 1.00267 37.5
    endloop
  endfacet
  facet normal -0.481759 0.876304 0
    outer loop
      vertex -3.40623 7.23862 -37.5
      vertex -4.28661 6.75462 37.5
      vertex -3.40623 7.23862 37.5
    endloop
  endfacet
  facet normal -0.481759 0.876304 0
    outer loop
      vertex -4.28661 6.75462 37.5
      vertex -3.40623 7.23862 -37.5
      vertex -4.28661 6.75462 -37.5
    endloop
  endfacet
  facet normal -0.587779 0.809021 0
    outer loop
      vertex -4.28661 6.75462 -37.5
      vertex -5.09939 6.16411 37.5
      vertex -4.28661 6.75462 37.5
    endloop
  endfacet
  facet normal -0.587779 0.809021 0
    outer loop
      vertex -5.09939 6.16411 37.5
      vertex -4.28661 6.75462 -37.5
      vertex -5.09939 6.16411 -37.5
    endloop
  endfacet
  facet normal -0.125328 0.992115 0
    outer loop
      vertex -0.502324 7.98421 -37.5
      vertex -1.49905 7.8583 37.5
      vertex -0.502324 7.98421 37.5
    endloop
  endfacet
  facet normal -0.125328 0.992115 0
    outer loop
      vertex -1.49905 7.8583 37.5
      vertex -0.502324 7.98421 -37.5
      vertex -1.49905 7.8583 -37.5
    endloop
  endfacet
  facet normal 0.998027 -0.0627879 0
    outer loop
      vertex 7.93692 -1.00267 37.5
      vertex 8 0 -37.5
      vertex 8 0 37.5
    endloop
  endfacet
  facet normal 0.998027 -0.0627879 0
    outer loop
      vertex 8 0 -37.5
      vertex 7.93692 -1.00267 37.5
      vertex 7.93692 -1.00267 -37.5
    endloop
  endfacet
  facet normal 0.770514 -0.637423 0
    outer loop
      vertex 5.83175 -5.47638 37.5
      vertex 6.47214 -4.70228 -37.5
      vertex 6.47214 -4.70228 37.5
    endloop
  endfacet
  facet normal 0.770514 -0.637423 0
    outer loop
      vertex 6.47214 -4.70228 -37.5
      vertex 5.83175 -5.47638 37.5
      vertex 5.83175 -5.47638 -37.5
    endloop
  endfacet
  facet normal -0.684546 -0.72897 0
    outer loop
      vertex -5.83175 -5.47638 -37.5
      vertex -5.09939 -6.16411 37.5
      vertex -5.83175 -5.47638 37.5
    endloop
  endfacet
  facet normal -0.684546 -0.72897 -0
    outer loop
      vertex -5.09939 -6.16411 37.5
      vertex -5.83175 -5.47638 -37.5
      vertex -5.09939 -6.16411 -37.5
    endloop
  endfacet
  facet normal -0.904826 -0.425782 0
    outer loop
      vertex -7.01045 -3.85403 -37.5
      vertex -7.43821 -2.945 37.5
      vertex -7.43821 -2.945 -37.5
    endloop
  endfacet
  facet normal -0.904826 -0.425782 0
    outer loop
      vertex -7.43821 -2.945 37.5
      vertex -7.01045 -3.85403 -37.5
      vertex -7.01045 -3.85403 37.5
    endloop
  endfacet
  facet normal -0.770514 -0.637423 0
    outer loop
      vertex -5.83175 -5.47638 -37.5
      vertex -6.47214 -4.70228 37.5
      vertex -6.47214 -4.70228 -37.5
    endloop
  endfacet
  facet normal -0.770514 -0.637423 0
    outer loop
      vertex -6.47214 -4.70228 37.5
      vertex -5.83175 -5.47638 -37.5
      vertex -5.83175 -5.47638 37.5
    endloop
  endfacet
  facet normal 0.481759 -0.876304 0
    outer loop
      vertex 3.40623 -7.23862 -37.5
      vertex 4.28661 -6.75462 37.5
      vertex 3.40623 -7.23862 37.5
    endloop
  endfacet
  facet normal 0.481759 -0.876304 0
    outer loop
      vertex 4.28661 -6.75462 37.5
      vertex 3.40623 -7.23862 -37.5
      vertex 4.28661 -6.75462 -37.5
    endloop
  endfacet
  facet normal 0.951058 -0.309013 0
    outer loop
      vertex 7.43821 -2.945 37.5
      vertex 7.74866 -1.98952 -37.5
      vertex 7.74866 -1.98952 37.5
    endloop
  endfacet
  facet normal 0.951058 -0.309013 0
    outer loop
      vertex 7.74866 -1.98952 -37.5
      vertex 7.43821 -2.945 37.5
      vertex 7.43821 -2.945 -37.5
    endloop
  endfacet
  facet normal 0.844331 -0.535823 0
    outer loop
      vertex 6.47214 -4.70228 37.5
      vertex 7.01045 -3.85403 -37.5
      vertex 7.01045 -3.85403 37.5
    endloop
  endfacet
  facet normal 0.844331 -0.535823 0
    outer loop
      vertex 7.01045 -3.85403 -37.5
      vertex 6.47214 -4.70228 37.5
      vertex 6.47214 -4.70228 -37.5
    endloop
  endfacet
  facet normal -0.248693 -0.968582 0
    outer loop
      vertex -2.47214 -7.60845 -37.5
      vertex -1.49905 -7.8583 37.5
      vertex -2.47214 -7.60845 37.5
    endloop
  endfacet
  facet normal -0.248693 -0.968582 -0
    outer loop
      vertex -1.49905 -7.8583 37.5
      vertex -2.47214 -7.60845 -37.5
      vertex -1.49905 -7.8583 -37.5
    endloop
  endfacet
  facet normal -0.982286 -0.187389 0
    outer loop
      vertex -7.74866 -1.98952 -37.5
      vertex -7.93692 -1.00267 37.5
      vertex -7.93692 -1.00267 -37.5
    endloop
  endfacet
  facet normal -0.982286 -0.187389 0
    outer loop
      vertex -7.93692 -1.00267 37.5
      vertex -7.74866 -1.98952 -37.5
      vertex -7.74866 -1.98952 37.5
    endloop
  endfacet
  facet normal -0.998027 -0.0627879 0
    outer loop
      vertex -7.93692 -1.00267 -37.5
      vertex -8 0 37.5
      vertex -8 0 -37.5
    endloop
  endfacet
  facet normal -0.998027 -0.0627879 0
    outer loop
      vertex -8 0 37.5
      vertex -7.93692 -1.00267 -37.5
      vertex -7.93692 -1.00267 37.5
    endloop
  endfacet
  facet normal -0.951058 -0.309013 0
    outer loop
      vertex -7.43821 -2.945 -37.5
      vertex -7.74866 -1.98952 37.5
      vertex -7.74866 -1.98952 -37.5
    endloop
  endfacet
  facet normal -0.951058 -0.309013 0
    outer loop
      vertex -7.74866 -1.98952 37.5
      vertex -7.43821 -2.945 -37.5
      vertex -7.43821 -2.945 37.5
    endloop
  endfacet
  facet normal 0.684546 -0.72897 0
    outer loop
      vertex 5.09939 -6.16411 -37.5
      vertex 5.83175 -5.47638 37.5
      vertex 5.09939 -6.16411 37.5
    endloop
  endfacet
  facet normal 0.684546 -0.72897 0
    outer loop
      vertex 5.83175 -5.47638 37.5
      vertex 5.09939 -6.16411 -37.5
      vertex 5.83175 -5.47638 -37.5
    endloop
  endfacet
  facet normal 0.368122 -0.929777 0
    outer loop
      vertex 2.47214 -7.60845 -37.5
      vertex 3.40623 -7.23862 37.5
      vertex 2.47214 -7.60845 37.5
    endloop
  endfacet
  facet normal 0.368122 -0.929777 0
    outer loop
      vertex 3.40623 -7.23862 37.5
      vertex 2.47214 -7.60845 -37.5
      vertex 3.40623 -7.23862 -37.5
    endloop
  endfacet
  facet normal 0.248693 -0.968582 0
    outer loop
      vertex 1.49905 -7.8583 -37.5
      vertex 2.47214 -7.60845 37.5
      vertex 1.49905 -7.8583 37.5
    endloop
  endfacet
  facet normal 0.248693 -0.968582 0
    outer loop
      vertex 2.47214 -7.60845 37.5
      vertex 1.49905 -7.8583 -37.5
      vertex 2.47214 -7.60845 -37.5
    endloop
  endfacet
  facet normal 0.982286 -0.187389 0
    outer loop
      vertex 7.74866 -1.98952 37.5
      vertex 7.93692 -1.00267 -37.5
      vertex 7.93692 -1.00267 37.5
    endloop
  endfacet
  facet normal 0.982286 -0.187389 0
    outer loop
      vertex 7.93692 -1.00267 -37.5
      vertex 7.74866 -1.98952 37.5
      vertex 7.74866 -1.98952 -37.5
    endloop
  endfacet
  facet normal -0.125328 -0.992115 0
    outer loop
      vertex -1.49905 -7.8583 -37.5
      vertex -0.502324 -7.98421 37.5
      vertex -1.49905 -7.8583 37.5
    endloop
  endfacet
  facet normal -0.125328 -0.992115 -0
    outer loop
      vertex -0.502324 -7.98421 37.5
      vertex -1.49905 -7.8583 -37.5
      vertex -0.502324 -7.98421 -37.5
    endloop
  endfacet
  facet normal -0.368122 -0.929777 0
    outer loop
      vertex -3.40623 -7.23862 -37.5
      vertex -2.47214 -7.60845 37.5
      vertex -3.40623 -7.23862 37.5
    endloop
  endfacet
  facet normal -0.368122 -0.929777 -0
    outer loop
      vertex -2.47214 -7.60845 37.5
      vertex -3.40623 -7.23862 -37.5
      vertex -2.47214 -7.60845 -37.5
    endloop
  endfacet
  facet normal -0.844331 -0.535823 0
    outer loop
      vertex -6.47214 -4.70228 -37.5
      vertex -7.01045 -3.85403 37.5
      vertex -7.01045 -3.85403 -37.5
    endloop
  endfacet
  facet normal -0.844331 -0.535823 0
    outer loop
      vertex -7.01045 -3.85403 37.5
      vertex -6.47214 -4.70228 -37.5
      vertex -6.47214 -4.70228 37.5
    endloop
  endfacet
  facet normal 0.587779 -0.809021 0
    outer loop
      vertex 4.28661 -6.75462 -37.5
      vertex 5.09939 -6.16411 37.5
      vertex 4.28661 -6.75462 37.5
    endloop
  endfacet
  facet normal 0.587779 -0.809021 0
    outer loop
      vertex 5.09939 -6.16411 37.5
      vertex 4.28661 -6.75462 -37.5
      vertex 5.09939 -6.16411 -37.5
    endloop
  endfacet
  facet normal -0.481759 -0.876304 0
    outer loop
      vertex -4.28661 -6.75462 -37.5
      vertex -3.40623 -7.23862 37.5
      vertex -4.28661 -6.75462 37.5
    endloop
  endfacet
  facet normal -0.481759 -0.876304 -0
    outer loop
      vertex -3.40623 -7.23862 37.5
      vertex -4.28661 -6.75462 -37.5
      vertex -3.40623 -7.23862 -37.5
    endloop
  endfacet
  facet normal -0.587779 -0.809021 0
    outer loop
      vertex -5.09939 -6.16411 -37.5
      vertex -4.28661 -6.75462 37.5
      vertex -5.09939 -6.16411 37.5
    endloop
  endfacet
  facet normal -0.587779 -0.809021 -0
    outer loop
      vertex -4.28661 -6.75462 37.5
      vertex -5.09939 -6.16411 -37.5
      vertex -4.28661 -6.75462 -37.5
    endloop
  endfacet
  facet normal -0.998027 -0.0627939 0
    outer loop
      vertex 5.25 0 -37.5
      vertex 5.2086 0.657999 37.5
      vertex 5.2086 0.657999 -37.5
    endloop
  endfacet
  facet normal -0.998027 -0.0627939 0
    outer loop
      vertex 5.2086 0.657999 37.5
      vertex 5.25 0 -37.5
      vertex 5.25 0 37.5
    endloop
  endfacet
  facet normal 0.998027 -0.0627939 0
    outer loop
      vertex -5.25 0 37.5
      vertex -5.2086 0.657999 -37.5
      vertex -5.2086 0.657999 37.5
    endloop
  endfacet
  facet normal 0.998027 -0.0627939 0
    outer loop
      vertex -5.2086 0.657999 -37.5
      vertex -5.25 0 37.5
      vertex -5.25 0 -37.5
    endloop
  endfacet
  facet normal 0 -1 0
    outer loop
      vertex -0.32965 5.23964 -37.5
      vertex 0.32965 5.23964 37.5
      vertex -0.32965 5.23964 37.5
    endloop
  endfacet
  facet normal 0 -1 -0
    outer loop
      vertex 0.32965 5.23964 37.5
      vertex -0.32965 5.23964 -37.5
      vertex 0.32965 5.23964 -37.5
    endloop
  endfacet
  facet normal 0 1 -0
    outer loop
      vertex 0.32965 -5.23964 -37.5
      vertex -0.32965 -5.23964 37.5
      vertex 0.32965 -5.23964 37.5
    endloop
  endfacet
  facet normal 0 1 0
    outer loop
      vertex -0.32965 -5.23964 37.5
      vertex 0.32965 -5.23964 -37.5
      vertex -0.32965 -5.23964 -37.5
    endloop
  endfacet
  facet normal -0.684552 0.728964 0
    outer loop
      vertex 3.82708 -3.59387 -37.5
      vertex 3.34648 -4.04519 37.5
      vertex 3.82708 -3.59387 37.5
    endloop
  endfacet
  facet normal -0.684552 0.728964 0
    outer loop
      vertex 3.34648 -4.04519 37.5
      vertex 3.82708 -3.59387 -37.5
      vertex 3.34648 -4.04519 -37.5
    endloop
  endfacet
  facet normal -0.684552 -0.728964 0
    outer loop
      vertex 3.34648 4.04519 -37.5
      vertex 3.82708 3.59387 37.5
      vertex 3.34648 4.04519 37.5
    endloop
  endfacet
  facet normal -0.684552 -0.728964 -0
    outer loop
      vertex 3.82708 3.59387 37.5
      vertex 3.34648 4.04519 -37.5
      vertex 3.82708 3.59387 -37.5
    endloop
  endfacet
  facet normal 0.684552 -0.728964 0
    outer loop
      vertex -3.82708 3.59387 -37.5
      vertex -3.34648 4.04519 37.5
      vertex -3.82708 3.59387 37.5
    endloop
  endfacet
  facet normal 0.684552 -0.728964 0
    outer loop
      vertex -3.34648 4.04519 37.5
      vertex -3.82708 3.59387 -37.5
      vertex -3.34648 4.04519 -37.5
    endloop
  endfacet
  facet normal 0.368133 -0.929773 0
    outer loop
      vertex -2.23534 4.75034 -37.5
      vertex -1.62234 4.99305 37.5
      vertex -2.23534 4.75034 37.5
    endloop
  endfacet
  facet normal 0.368133 -0.929773 0
    outer loop
      vertex -1.62234 4.99305 37.5
      vertex -2.23534 4.75034 -37.5
      vertex -1.62234 4.99305 -37.5
    endloop
  endfacet
  facet normal -0.904827 -0.42578 0
    outer loop
      vertex 4.88133 1.93265 -37.5
      vertex 4.60061 2.52921 37.5
      vertex 4.60061 2.52921 -37.5
    endloop
  endfacet
  facet normal -0.904827 -0.42578 0
    outer loop
      vertex 4.60061 2.52921 37.5
      vertex 4.88133 1.93265 -37.5
      vertex 4.88133 1.93265 37.5
    endloop
  endfacet
  facet normal -0.982287 -0.187381 0
    outer loop
      vertex 5.2086 0.657999 -37.5
      vertex 5.08506 1.30562 37.5
      vertex 5.08506 1.30562 -37.5
    endloop
  endfacet
  facet normal -0.982287 -0.187381 0
    outer loop
      vertex 5.08506 1.30562 37.5
      vertex 5.2086 0.657999 -37.5
      vertex 5.2086 0.657999 37.5
    endloop
  endfacet
  facet normal -0.368133 -0.929773 0
    outer loop
      vertex 1.62234 4.99305 -37.5
      vertex 2.23534 4.75034 37.5
      vertex 1.62234 4.99305 37.5
    endloop
  endfacet
  facet normal -0.368133 -0.929773 -0
    outer loop
      vertex 2.23534 4.75034 37.5
      vertex 1.62234 4.99305 -37.5
      vertex 2.23534 4.75034 -37.5
    endloop
  endfacet
  facet normal -0.481753 -0.876307 0
    outer loop
      vertex 2.23534 4.75034 -37.5
      vertex 2.81309 4.43272 37.5
      vertex 2.23534 4.75034 37.5
    endloop
  endfacet
  facet normal -0.481753 -0.876307 -0
    outer loop
      vertex 2.81309 4.43272 37.5
      vertex 2.23534 4.75034 -37.5
      vertex 2.81309 4.43272 -37.5
    endloop
  endfacet
  facet normal 0.904827 -0.42578 0
    outer loop
      vertex -4.88133 1.93265 37.5
      vertex -4.60061 2.52921 -37.5
      vertex -4.60061 2.52921 37.5
    endloop
  endfacet
  facet normal 0.904827 -0.42578 0
    outer loop
      vertex -4.60061 2.52921 -37.5
      vertex -4.88133 1.93265 37.5
      vertex -4.88133 1.93265 -37.5
    endloop
  endfacet
  facet normal 0.481753 -0.876307 0
    outer loop
      vertex -2.81309 4.43272 -37.5
      vertex -2.23534 4.75034 37.5
      vertex -2.81309 4.43272 37.5
    endloop
  endfacet
  facet normal 0.481753 -0.876307 0
    outer loop
      vertex -2.23534 4.75034 37.5
      vertex -2.81309 4.43272 -37.5
      vertex -2.23534 4.75034 -37.5
    endloop
  endfacet
  facet normal 0.248687 -0.968584 0
    outer loop
      vertex -1.62234 4.99305 -37.5
      vertex -0.983751 5.15701 37.5
      vertex -1.62234 4.99305 37.5
    endloop
  endfacet
  facet normal 0.248687 -0.968584 0
    outer loop
      vertex -0.983751 5.15701 37.5
      vertex -1.62234 4.99305 -37.5
      vertex -0.983751 5.15701 -37.5
    endloop
  endfacet
  facet normal -0.12533 0.992115 0
    outer loop
      vertex 0.983751 -5.15701 -37.5
      vertex 0.32965 -5.23964 37.5
      vertex 0.983751 -5.15701 37.5
    endloop
  endfacet
  facet normal -0.12533 0.992115 0
    outer loop
      vertex 0.32965 -5.23964 37.5
      vertex 0.983751 -5.15701 -37.5
      vertex 0.32965 -5.23964 -37.5
    endloop
  endfacet
  facet normal -0.368133 0.929773 0
    outer loop
      vertex 2.23534 -4.75034 -37.5
      vertex 1.62234 -4.99305 37.5
      vertex 2.23534 -4.75034 37.5
    endloop
  endfacet
  facet normal -0.368133 0.929773 0
    outer loop
      vertex 1.62234 -4.99305 37.5
      vertex 2.23534 -4.75034 -37.5
      vertex 1.62234 -4.99305 -37.5
    endloop
  endfacet
  facet normal -0.951058 -0.309011 0
    outer loop
      vertex 5.08506 1.30562 -37.5
      vertex 4.88133 1.93265 37.5
      vertex 4.88133 1.93265 -37.5
    endloop
  endfacet
  facet normal -0.951058 -0.309011 0
    outer loop
      vertex 4.88133 1.93265 37.5
      vertex 5.08506 1.30562 -37.5
      vertex 5.08506 1.30562 37.5
    endloop
  endfacet
  facet normal -0.770509 -0.637429 0
    outer loop
      vertex 4.24734 3.08587 -37.5
      vertex 3.82708 3.59387 37.5
      vertex 3.82708 3.59387 -37.5
    endloop
  endfacet
  facet normal -0.770509 -0.637429 0
    outer loop
      vertex 3.82708 3.59387 37.5
      vertex 4.24734 3.08587 -37.5
      vertex 4.24734 3.08587 37.5
    endloop
  endfacet
  facet normal -0.844326 -0.53583 0
    outer loop
      vertex 4.60061 2.52921 -37.5
      vertex 4.24734 3.08587 37.5
      vertex 4.24734 3.08587 -37.5
    endloop
  endfacet
  facet normal -0.844326 -0.53583 0
    outer loop
      vertex 4.24734 3.08587 37.5
      vertex 4.60061 2.52921 -37.5
      vertex 4.60061 2.52921 37.5
    endloop
  endfacet
  facet normal -0.248687 -0.968584 0
    outer loop
      vertex 0.983751 5.15701 -37.5
      vertex 1.62234 4.99305 37.5
      vertex 0.983751 5.15701 37.5
    endloop
  endfacet
  facet normal -0.248687 -0.968584 -0
    outer loop
      vertex 1.62234 4.99305 37.5
      vertex 0.983751 5.15701 -37.5
      vertex 1.62234 4.99305 -37.5
    endloop
  endfacet
  facet normal -0.12533 -0.992115 0
    outer loop
      vertex 0.32965 5.23964 -37.5
      vertex 0.983751 5.15701 37.5
      vertex 0.32965 5.23964 37.5
    endloop
  endfacet
  facet normal -0.12533 -0.992115 -0
    outer loop
      vertex 0.983751 5.15701 37.5
      vertex 0.32965 5.23964 -37.5
      vertex 0.983751 5.15701 -37.5
    endloop
  endfacet
  facet normal -0.587785 -0.809017 0
    outer loop
      vertex 2.81309 4.43272 -37.5
      vertex 3.34648 4.04519 37.5
      vertex 2.81309 4.43272 37.5
    endloop
  endfacet
  facet normal -0.587785 -0.809017 -0
    outer loop
      vertex 3.34648 4.04519 37.5
      vertex 2.81309 4.43272 -37.5
      vertex 3.34648 4.04519 -37.5
    endloop
  endfacet
  facet normal 0.844326 -0.53583 0
    outer loop
      vertex -4.60061 2.52921 37.5
      vertex -4.24734 3.08587 -37.5
      vertex -4.24734 3.08587 37.5
    endloop
  endfacet
  facet normal 0.844326 -0.53583 0
    outer loop
      vertex -4.24734 3.08587 -37.5
      vertex -4.60061 2.52921 37.5
      vertex -4.60061 2.52921 -37.5
    endloop
  endfacet
  facet normal 0.770509 -0.637429 0
    outer loop
      vertex -4.24734 3.08587 37.5
      vertex -3.82708 3.59387 -37.5
      vertex -3.82708 3.59387 37.5
    endloop
  endfacet
  facet normal 0.770509 -0.637429 0
    outer loop
      vertex -3.82708 3.59387 -37.5
      vertex -4.24734 3.08587 37.5
      vertex -4.24734 3.08587 -37.5
    endloop
  endfacet
  facet normal 0.951058 -0.309011 0
    outer loop
      vertex -5.08506 1.30562 37.5
      vertex -4.88133 1.93265 -37.5
      vertex -4.88133 1.93265 37.5
    endloop
  endfacet
  facet normal 0.951058 -0.309011 0
    outer loop
      vertex -4.88133 1.93265 -37.5
      vertex -5.08506 1.30562 37.5
      vertex -5.08506 1.30562 -37.5
    endloop
  endfacet
  facet normal 0.982287 -0.187381 0
    outer loop
      vertex -5.2086 0.657999 37.5
      vertex -5.08506 1.30562 -37.5
      vertex -5.08506 1.30562 37.5
    endloop
  endfacet
  facet normal 0.982287 -0.187381 0
    outer loop
      vertex -5.08506 1.30562 -37.5
      vertex -5.2086 0.657999 37.5
      vertex -5.2086 0.657999 -37.5
    endloop
  endfacet
  facet normal 0.587785 -0.809017 0
    outer loop
      vertex -3.34648 4.04519 -37.5
      vertex -2.81309 4.43272 37.5
      vertex -3.34648 4.04519 37.5
    endloop
  endfacet
  facet normal 0.587785 -0.809017 0
    outer loop
      vertex -2.81309 4.43272 37.5
      vertex -3.34648 4.04519 -37.5
      vertex -2.81309 4.43272 -37.5
    endloop
  endfacet
  facet normal 0.12533 -0.992115 0
    outer loop
      vertex -0.983751 5.15701 -37.5
      vertex -0.32965 5.23964 37.5
      vertex -0.983751 5.15701 37.5
    endloop
  endfacet
  facet normal 0.12533 -0.992115 0
    outer loop
      vertex -0.32965 5.23964 37.5
      vertex -0.983751 5.15701 -37.5
      vertex -0.32965 5.23964 -37.5
    endloop
  endfacet
  facet normal -0.982287 0.187381 0
    outer loop
      vertex 5.08506 -1.30562 -37.5
      vertex 5.2086 -0.657999 37.5
      vertex 5.2086 -0.657999 -37.5
    endloop
  endfacet
  facet normal -0.982287 0.187381 0
    outer loop
      vertex 5.2086 -0.657999 37.5
      vertex 5.08506 -1.30562 -37.5
      vertex 5.08506 -1.30562 37.5
    endloop
  endfacet
  facet normal 0.684552 0.728964 -0
    outer loop
      vertex -3.34648 -4.04519 -37.5
      vertex -3.82708 -3.59387 37.5
      vertex -3.34648 -4.04519 37.5
    endloop
  endfacet
  facet normal 0.684552 0.728964 0
    outer loop
      vertex -3.82708 -3.59387 37.5
      vertex -3.34648 -4.04519 -37.5
      vertex -3.82708 -3.59387 -37.5
    endloop
  endfacet
  facet normal 0.904827 0.42578 0
    outer loop
      vertex -4.60061 -2.52921 37.5
      vertex -4.88133 -1.93265 -37.5
      vertex -4.88133 -1.93265 37.5
    endloop
  endfacet
  facet normal 0.904827 0.42578 0
    outer loop
      vertex -4.88133 -1.93265 -37.5
      vertex -4.60061 -2.52921 37.5
      vertex -4.60061 -2.52921 -37.5
    endloop
  endfacet
  facet normal 0.844326 0.53583 0
    outer loop
      vertex -4.24734 -3.08587 37.5
      vertex -4.60061 -2.52921 -37.5
      vertex -4.60061 -2.52921 37.5
    endloop
  endfacet
  facet normal 0.844326 0.53583 0
    outer loop
      vertex -4.60061 -2.52921 -37.5
      vertex -4.24734 -3.08587 37.5
      vertex -4.24734 -3.08587 -37.5
    endloop
  endfacet
  facet normal -0.481753 0.876307 0
    outer loop
      vertex 2.81309 -4.43272 -37.5
      vertex 2.23534 -4.75034 37.5
      vertex 2.81309 -4.43272 37.5
    endloop
  endfacet
  facet normal -0.481753 0.876307 0
    outer loop
      vertex 2.23534 -4.75034 37.5
      vertex 2.81309 -4.43272 -37.5
      vertex 2.23534 -4.75034 -37.5
    endloop
  endfacet
  facet normal -0.904827 0.42578 0
    outer loop
      vertex 4.60061 -2.52921 -37.5
      vertex 4.88133 -1.93265 37.5
      vertex 4.88133 -1.93265 -37.5
    endloop
  endfacet
  facet normal -0.904827 0.42578 0
    outer loop
      vertex 4.88133 -1.93265 37.5
      vertex 4.60061 -2.52921 -37.5
      vertex 4.60061 -2.52921 37.5
    endloop
  endfacet
  facet normal -0.998027 0.0627939 0
    outer loop
      vertex 5.2086 -0.657999 -37.5
      vertex 5.25 0 37.5
      vertex 5.25 0 -37.5
    endloop
  endfacet
  facet normal -0.998027 0.0627939 0
    outer loop
      vertex 5.25 0 37.5
      vertex 5.2086 -0.657999 -37.5
      vertex 5.2086 -0.657999 37.5
    endloop
  endfacet
  facet normal 0.368133 0.929773 -0
    outer loop
      vertex -1.62234 -4.99305 -37.5
      vertex -2.23534 -4.75034 37.5
      vertex -1.62234 -4.99305 37.5
    endloop
  endfacet
  facet normal 0.368133 0.929773 0
    outer loop
      vertex -2.23534 -4.75034 37.5
      vertex -1.62234 -4.99305 -37.5
      vertex -2.23534 -4.75034 -37.5
    endloop
  endfacet
  facet normal 0.770509 0.637429 0
    outer loop
      vertex -3.82708 -3.59387 37.5
      vertex -4.24734 -3.08587 -37.5
      vertex -4.24734 -3.08587 37.5
    endloop
  endfacet
  facet normal 0.770509 0.637429 0
    outer loop
      vertex -4.24734 -3.08587 -37.5
      vertex -3.82708 -3.59387 37.5
      vertex -3.82708 -3.59387 -37.5
    endloop
  endfacet
  facet normal 0.982287 0.187381 0
    outer loop
      vertex -5.08506 -1.30562 37.5
      vertex -5.2086 -0.657999 -37.5
      vertex -5.2086 -0.657999 37.5
    endloop
  endfacet
  facet normal 0.982287 0.187381 0
    outer loop
      vertex -5.2086 -0.657999 -37.5
      vertex -5.08506 -1.30562 37.5
      vertex -5.08506 -1.30562 -37.5
    endloop
  endfacet
  facet normal 0.998027 0.0627939 0
    outer loop
      vertex -5.2086 -0.657999 37.5
      vertex -5.25 0 -37.5
      vertex -5.25 0 37.5
    endloop
  endfacet
  facet normal 0.998027 0.0627939 0
    outer loop
      vertex -5.25 0 -37.5
      vertex -5.2086 -0.657999 37.5
      vertex -5.2086 -0.657999 -37.5
    endloop
  endfacet
  facet normal 0.951058 0.309011 0
    outer loop
      vertex -4.88133 -1.93265 37.5
      vertex -5.08506 -1.30562 -37.5
      vertex -5.08506 -1.30562 37.5
    endloop
  endfacet
  facet normal 0.951058 0.309011 0
    outer loop
      vertex -5.08506 -1.30562 -37.5
      vertex -4.88133 -1.93265 37.5
      vertex -4.88133 -1.93265 -37.5
    endloop
  endfacet
  facet normal -0.587785 0.809017 0
    outer loop
      vertex 3.34648 -4.04519 -37.5
      vertex 2.81309 -4.43272 37.5
      vertex 3.34648 -4.04519 37.5
    endloop
  endfacet
  facet normal -0.587785 0.809017 0
    outer loop
      vertex 2.81309 -4.43272 37.5
      vertex 3.34648 -4.04519 -37.5
      vertex 2.81309 -4.43272 -37.5
    endloop
  endfacet
  facet normal -0.248687 0.968584 0
    outer loop
      vertex 1.62234 -4.99305 -37.5
      vertex 0.983751 -5.15701 37.5
      vertex 1.62234 -4.99305 37.5
    endloop
  endfacet
  facet normal -0.248687 0.968584 0
    outer loop
      vertex 0.983751 -5.15701 37.5
      vertex 1.62234 -4.99305 -37.5
      vertex 0.983751 -5.15701 -37.5
    endloop
  endfacet
  facet normal -0.844326 0.53583 0
    outer loop
      vertex 4.24734 -3.08587 -37.5
      vertex 4.60061 -2.52921 37.5
      vertex 4.60061 -2.52921 -37.5
    endloop
  endfacet
  facet normal -0.844326 0.53583 0
    outer loop
      vertex 4.60061 -2.52921 37.5
      vertex 4.24734 -3.08587 -37.5
      vertex 4.24734 -3.08587 37.5
    endloop
  endfacet
  facet normal -0.770509 0.637429 0
    outer loop
      vertex 3.82708 -3.59387 -37.5
      vertex 4.24734 -3.08587 37.5
      vertex 4.24734 -3.08587 -37.5
    endloop
  endfacet
  facet normal -0.770509 0.637429 0
    outer loop
      vertex 4.24734 -3.08587 37.5
      vertex 3.82708 -3.59387 -37.5
      vertex 3.82708 -3.59387 37.5
    endloop
  endfacet
  facet normal -0.951058 0.309011 0
    outer loop
      vertex 4.88133 -1.93265 -37.5
      vertex 5.08506 -1.30562 37.5
      vertex 5.08506 -1.30562 -37.5
    endloop
  endfacet
  facet normal -0.951058 0.309011 0
    outer loop
      vertex 5.08506 -1.30562 37.5
      vertex 4.88133 -1.93265 -37.5
      vertex 4.88133 -1.93265 37.5
    endloop
  endfacet
  facet normal 0.12533 0.992115 -0
    outer loop
      vertex -0.32965 -5.23964 -37.5
      vertex -0.983751 -5.15701 37.5
      vertex -0.32965 -5.23964 37.5
    endloop
  endfacet
  facet normal 0.12533 0.992115 0
    outer loop
      vertex -0.983751 -5.15701 37.5
      vertex -0.32965 -5.23964 -37.5
      vertex -0.983751 -5.15701 -37.5
    endloop
  endfacet
  facet normal 0.481753 0.876307 -0
    outer loop
      vertex -2.23534 -4.75034 -37.5
      vertex -2.81309 -4.43272 37.5
      vertex -2.23534 -4.75034 37.5
    endloop
  endfacet
  facet normal 0.481753 0.876307 0
    outer loop
      vertex -2.81309 -4.43272 37.5
      vertex -2.23534 -4.75034 -37.5
      vertex -2.81309 -4.43272 -37.5
    endloop
  endfacet
  facet normal 0.587785 0.809017 -0
    outer loop
      vertex -2.81309 -4.43272 -37.5
      vertex -3.34648 -4.04519 37.5
      vertex -2.81309 -4.43272 37.5
    endloop
  endfacet
  facet normal 0.587785 0.809017 0
    outer loop
      vertex -3.34648 -4.04519 37.5
      vertex -2.81309 -4.43272 -37.5
      vertex -3.34648 -4.04519 -37.5
    endloop
  endfacet
  facet normal 0.248687 0.968584 -0
    outer loop
      vertex -0.983751 -5.15701 -37.5
      vertex -1.62234 -4.99305 37.5
      vertex -0.983751 -5.15701 37.5
    endloop
  endfacet
  facet normal 0.248687 0.968584 0
    outer loop
      vertex -1.62234 -4.99305 37.5
      vertex -0.983751 -5.15701 -37.5
      vertex -1.62234 -4.99305 -37.5
    endloop
  endfacet
endsolid OpenSCAD_Model
