solid OpenSCAD_Model
  facet normal 0.998027 0.0627938 0
    outer loop
      vertex 21 0 4
      vertex 20.8344 2.632 -4
      vertex 20.8344 2.632 4
    endloop
  endfacet
  facet normal 0.998027 0.0627938 0
    outer loop
      vertex 20.8344 2.632 -4
      vertex 21 0 4
      vertex 21 0 -4
    endloop
  endfacet
  facet normal -0.998027 0.0627938 0
    outer loop
      vertex -21 0 -4
      vertex -20.8344 2.632 4
      vertex -20.8344 2.632 -4
    endloop
  endfacet
  facet normal -0.998027 0.0627938 0
    outer loop
      vertex -20.8344 2.632 4
      vertex -21 0 -4
      vertex -21 0 4
    endloop
  endfacet
  facet normal 0 1 -0
    outer loop
      vertex 1.3186 20.9586 -4
      vertex -1.3186 20.9586 4
      vertex 1.3186 20.9586 4
    endloop
  endfacet
  facet normal 0 1 0
    outer loop
      vertex -1.3186 20.9586 4
      vertex 1.3186 20.9586 -4
      vertex -1.3186 20.9586 -4
    endloop
  endfacet
  facet normal 0.684556 0.72896 -0
    outer loop
      vertex 15.3083 14.3755 -4
      vertex 13.3859 16.1808 4
      vertex 15.3083 14.3755 4
    endloop
  endfacet
  facet normal 0.684556 0.72896 0
    outer loop
      vertex 13.3859 16.1808 4
      vertex 15.3083 14.3755 -4
      vertex 13.3859 16.1808 -4
    endloop
  endfacet
  facet normal -0.684556 0.72896 0
    outer loop
      vertex -13.3859 16.1808 -4
      vertex -15.3083 14.3755 4
      vertex -13.3859 16.1808 4
    endloop
  endfacet
  facet normal -0.684556 0.72896 0
    outer loop
      vertex -15.3083 14.3755 4
      vertex -13.3859 16.1808 -4
      vertex -15.3083 14.3755 -4
    endloop
  endfacet
  facet normal -0.368119 0.929778 0
    outer loop
      vertex -6.48936 19.9722 -4
      vertex -8.94136 19.0014 4
      vertex -6.48936 19.9722 4
    endloop
  endfacet
  facet normal -0.368119 0.929778 0
    outer loop
      vertex -8.94136 19.0014 4
      vertex -6.48936 19.9722 -4
      vertex -8.94136 19.0014 -4
    endloop
  endfacet
  facet normal 0.904821 0.425793 0
    outer loop
      vertex 19.5253 7.73061 4
      vertex 18.4024 10.1168 -4
      vertex 18.4024 10.1168 4
    endloop
  endfacet
  facet normal 0.904821 0.425793 0
    outer loop
      vertex 18.4024 10.1168 -4
      vertex 19.5253 7.73061 4
      vertex 19.5253 7.73061 -4
    endloop
  endfacet
  facet normal 0.982285 0.187395 0
    outer loop
      vertex 20.8344 2.632 4
      vertex 20.3402 5.22249 -4
      vertex 20.3402 5.22249 4
    endloop
  endfacet
  facet normal 0.982285 0.187395 0
    outer loop
      vertex 20.3402 5.22249 -4
      vertex 20.8344 2.632 4
      vertex 20.8344 2.632 -4
    endloop
  endfacet
  facet normal 0.368119 0.929778 -0
    outer loop
      vertex 8.94136 19.0014 -4
      vertex 6.48936 19.9722 4
      vertex 8.94136 19.0014 4
    endloop
  endfacet
  facet normal 0.368119 0.929778 0
    outer loop
      vertex 6.48936 19.9722 4
      vertex 8.94136 19.0014 -4
      vertex 6.48936 19.9722 -4
    endloop
  endfacet
  facet normal 0.587791 0.809013 -0
    outer loop
      vertex 13.3859 16.1808 -4
      vertex 11.2524 17.7309 4
      vertex 13.3859 16.1808 4
    endloop
  endfacet
  facet normal 0.587791 0.809013 0
    outer loop
      vertex 11.2524 17.7309 4
      vertex 13.3859 16.1808 -4
      vertex 11.2524 17.7309 -4
    endloop
  endfacet
  facet normal -0.904821 0.425793 0
    outer loop
      vertex -19.5253 7.73061 -4
      vertex -18.4024 10.1168 4
      vertex -18.4024 10.1168 -4
    endloop
  endfacet
  facet normal -0.904821 0.425793 0
    outer loop
      vertex -18.4024 10.1168 4
      vertex -19.5253 7.73061 -4
      vertex -19.5253 7.73061 4
    endloop
  endfacet
  facet normal -0.844346 0.535798 0
    outer loop
      vertex -18.4024 10.1168 -4
      vertex -16.9894 12.3435 4
      vertex -16.9894 12.3435 -4
    endloop
  endfacet
  facet normal -0.844346 0.535798 0
    outer loop
      vertex -16.9894 12.3435 4
      vertex -18.4024 10.1168 -4
      vertex -18.4024 10.1168 4
    endloop
  endfacet
  facet normal -0.951061 0.309004 0
    outer loop
      vertex -20.3402 5.22249 -4
      vertex -19.5253 7.73061 4
      vertex -19.5253 7.73061 -4
    endloop
  endfacet
  facet normal -0.951061 0.309004 0
    outer loop
      vertex -19.5253 7.73061 4
      vertex -20.3402 5.22249 -4
      vertex -20.3402 5.22249 4
    endloop
  endfacet
  facet normal -0.587791 0.809013 0
    outer loop
      vertex -11.2524 17.7309 -4
      vertex -13.3859 16.1808 4
      vertex -11.2524 17.7309 4
    endloop
  endfacet
  facet normal -0.587791 0.809013 0
    outer loop
      vertex -13.3859 16.1808 4
      vertex -11.2524 17.7309 -4
      vertex -13.3859 16.1808 -4
    endloop
  endfacet
  facet normal -0.12536 0.992111 0
    outer loop
      vertex -1.3186 20.9586 -4
      vertex -3.93501 20.628 4
      vertex -1.3186 20.9586 4
    endloop
  endfacet
  facet normal -0.12536 0.992111 0
    outer loop
      vertex -3.93501 20.628 4
      vertex -1.3186 20.9586 -4
      vertex -3.93501 20.628 -4
    endloop
  endfacet
  facet normal 0.998027 -0.0627938 0
    outer loop
      vertex 20.8344 -2.632 4
      vertex 21 0 -4
      vertex 21 0 4
    endloop
  endfacet
  facet normal 0.998027 -0.0627938 0
    outer loop
      vertex 21 0 -4
      vertex 20.8344 -2.632 4
      vertex 20.8344 -2.632 -4
    endloop
  endfacet
  facet normal -0.904821 -0.425793 0
    outer loop
      vertex -18.4024 -10.1168 -4
      vertex -19.5253 -7.73061 4
      vertex -19.5253 -7.73061 -4
    endloop
  endfacet
  facet normal -0.904821 -0.425793 0
    outer loop
      vertex -19.5253 -7.73061 4
      vertex -18.4024 -10.1168 -4
      vertex -18.4024 -10.1168 4
    endloop
  endfacet
  facet normal 0.12536 -0.992111 0
    outer loop
      vertex 1.3186 -20.9586 -4
      vertex 3.93501 -20.628 4
      vertex 1.3186 -20.9586 4
    endloop
  endfacet
  facet normal 0.12536 -0.992111 0
    outer loop
      vertex 3.93501 -20.628 4
      vertex 1.3186 -20.9586 -4
      vertex 3.93501 -20.628 -4
    endloop
  endfacet
  facet normal 0.951061 0.309004 0
    outer loop
      vertex 20.3402 5.22249 4
      vertex 19.5253 7.73061 -4
      vertex 19.5253 7.73061 4
    endloop
  endfacet
  facet normal 0.951061 0.309004 0
    outer loop
      vertex 19.5253 7.73061 -4
      vertex 20.3402 5.22249 4
      vertex 20.3402 5.22249 -4
    endloop
  endfacet
  facet normal 0.770498 0.637443 0
    outer loop
      vertex 16.9894 12.3435 4
      vertex 15.3083 14.3755 -4
      vertex 15.3083 14.3755 4
    endloop
  endfacet
  facet normal 0.770498 0.637443 0
    outer loop
      vertex 15.3083 14.3755 -4
      vertex 16.9894 12.3435 4
      vertex 16.9894 12.3435 -4
    endloop
  endfacet
  facet normal 0.844346 0.535798 0
    outer loop
      vertex 18.4024 10.1168 4
      vertex 16.9894 12.3435 -4
      vertex 16.9894 12.3435 4
    endloop
  endfacet
  facet normal 0.844346 0.535798 0
    outer loop
      vertex 16.9894 12.3435 -4
      vertex 18.4024 10.1168 4
      vertex 18.4024 10.1168 -4
    endloop
  endfacet
  facet normal 0.248674 0.968587 -0
    outer loop
      vertex 6.48936 19.9722 -4
      vertex 3.93501 20.628 4
      vertex 6.48936 19.9722 4
    endloop
  endfacet
  facet normal 0.248674 0.968587 0
    outer loop
      vertex 3.93501 20.628 4
      vertex 6.48936 19.9722 -4
      vertex 3.93501 20.628 -4
    endloop
  endfacet
  facet normal 0.12536 0.992111 -0
    outer loop
      vertex 3.93501 20.628 -4
      vertex 1.3186 20.9586 4
      vertex 3.93501 20.628 4
    endloop
  endfacet
  facet normal 0.12536 0.992111 0
    outer loop
      vertex 1.3186 20.9586 4
      vertex 3.93501 20.628 -4
      vertex 1.3186 20.9586 -4
    endloop
  endfacet
  facet normal 0.481752 0.876307 -0
    outer loop
      vertex 11.2524 17.7309 -4
      vertex 8.94136 19.0014 4
      vertex 11.2524 17.7309 4
    endloop
  endfacet
  facet normal 0.481752 0.876307 0
    outer loop
      vertex 8.94136 19.0014 4
      vertex 11.2524 17.7309 -4
      vertex 8.94136 19.0014 -4
    endloop
  endfacet
  facet normal 0.951061 -0.309004 0
    outer loop
      vertex 19.5253 -7.73061 4
      vertex 20.3402 -5.22249 -4
      vertex 20.3402 -5.22249 4
    endloop
  endfacet
  facet normal 0.951061 -0.309004 0
    outer loop
      vertex 20.3402 -5.22249 -4
      vertex 19.5253 -7.73061 4
      vertex 19.5253 -7.73061 -4
    endloop
  endfacet
  facet normal 0.982285 -0.187395 0
    outer loop
      vertex 20.3402 -5.22249 4
      vertex 20.8344 -2.632 -4
      vertex 20.8344 -2.632 4
    endloop
  endfacet
  facet normal 0.982285 -0.187395 0
    outer loop
      vertex 20.8344 -2.632 -4
      vertex 20.3402 -5.22249 4
      vertex 20.3402 -5.22249 -4
    endloop
  endfacet
  facet normal -0.951061 -0.309004 0
    outer loop
      vertex -19.5253 -7.73061 -4
      vertex -20.3402 -5.22249 4
      vertex -20.3402 -5.22249 -4
    endloop
  endfacet
  facet normal -0.951061 -0.309004 0
    outer loop
      vertex -20.3402 -5.22249 4
      vertex -19.5253 -7.73061 -4
      vertex -19.5253 -7.73061 4
    endloop
  endfacet
  facet normal 0.368119 -0.929778 0
    outer loop
      vertex 6.48936 -19.9722 -4
      vertex 8.94136 -19.0014 4
      vertex 6.48936 -19.9722 4
    endloop
  endfacet
  facet normal 0.368119 -0.929778 0
    outer loop
      vertex 8.94136 -19.0014 4
      vertex 6.48936 -19.9722 -4
      vertex 8.94136 -19.0014 -4
    endloop
  endfacet
  facet normal 0.248674 -0.968587 0
    outer loop
      vertex 3.93501 -20.628 -4
      vertex 6.48936 -19.9722 4
      vertex 3.93501 -20.628 4
    endloop
  endfacet
  facet normal 0.248674 -0.968587 0
    outer loop
      vertex 6.48936 -19.9722 4
      vertex 3.93501 -20.628 -4
      vertex 6.48936 -19.9722 -4
    endloop
  endfacet
  facet normal -0.770498 0.637443 0
    outer loop
      vertex -16.9894 12.3435 -4
      vertex -15.3083 14.3755 4
      vertex -15.3083 14.3755 -4
    endloop
  endfacet
  facet normal -0.770498 0.637443 0
    outer loop
      vertex -15.3083 14.3755 4
      vertex -16.9894 12.3435 -4
      vertex -16.9894 12.3435 4
    endloop
  endfacet
  facet normal 0 0 1
    outer loop
      vertex 1 0 4
      vertex 21 0 4
      vertex 20.8344 2.632 4
    endloop
  endfacet
  facet normal 0 0 1
    outer loop
      vertex 0.992114 0.125333 4
      vertex 20.8344 2.632 4
      vertex 20.3402 5.22249 4
    endloop
  endfacet
  facet normal 0 0 1
    outer loop
      vertex 21 0 4
      vertex 1 0 4
      vertex 20.8344 -2.632 4
    endloop
  endfacet
  facet normal 0 0 1
    outer loop
      vertex 0.968583 0.24869 4
      vertex 20.3402 5.22249 4
      vertex 19.5253 7.73061 4
    endloop
  endfacet
  facet normal -0 0 1
    outer loop
      vertex 0.992114 -0.125333 4
      vertex 20.8344 -2.632 4
      vertex 1 0 4
    endloop
  endfacet
  facet normal 0 0 1
    outer loop
      vertex 0.929776 0.368124 4
      vertex 19.5253 7.73061 4
      vertex 18.4024 10.1168 4
    endloop
  endfacet
  facet normal 0 0 1
    outer loop
      vertex 20.8344 -2.632 4
      vertex 0.992114 -0.125333 4
      vertex 20.3402 -5.22249 4
    endloop
  endfacet
  facet normal 0 0 1
    outer loop
      vertex 0.876307 0.481753 4
      vertex 18.4024 10.1168 4
      vertex 16.9894 12.3435 4
    endloop
  endfacet
  facet normal -0 0 1
    outer loop
      vertex 0.968583 -0.24869 4
      vertex 20.3402 -5.22249 4
      vertex 0.992114 -0.125333 4
    endloop
  endfacet
  facet normal 0 0 1
    outer loop
      vertex 0.809016 0.587785 4
      vertex 16.9894 12.3435 4
      vertex 15.3083 14.3755 4
    endloop
  endfacet
  facet normal 0 0 1
    outer loop
      vertex 20.3402 -5.22249 4
      vertex 0.968583 -0.24869 4
      vertex 19.5253 -7.73061 4
    endloop
  endfacet
  facet normal 0 0 1
    outer loop
      vertex 0.728969 0.684546 4
      vertex 15.3083 14.3755 4
      vertex 13.3859 16.1808 4
    endloop
  endfacet
  facet normal -0 0 1
    outer loop
      vertex 0.929776 -0.368124 4
      vertex 19.5253 -7.73061 4
      vertex 0.968583 -0.24869 4
    endloop
  endfacet
  facet normal 0 0 1
    outer loop
      vertex 0.637424 0.770513 4
      vertex 13.3859 16.1808 4
      vertex 11.2524 17.7309 4
    endloop
  endfacet
  facet normal 0 0 1
    outer loop
      vertex 19.5253 -7.73061 4
      vertex 0.929776 -0.368124 4
      vertex 18.4024 -10.1168 4
    endloop
  endfacet
  facet normal 0 0 1
    outer loop
      vertex 0.535827 0.844327 4
      vertex 11.2524 17.7309 4
      vertex 8.94136 19.0014 4
    endloop
  endfacet
  facet normal -0 0 1
    outer loop
      vertex 0.876307 -0.481753 4
      vertex 18.4024 -10.1168 4
      vertex 0.929776 -0.368124 4
    endloop
  endfacet
  facet normal 0 0 1
    outer loop
      vertex 0.425778 0.904826 4
      vertex 8.94136 19.0014 4
      vertex 6.48936 19.9722 4
    endloop
  endfacet
  facet normal 0 0 1
    outer loop
      vertex 18.4024 -10.1168 4
      vertex 0.876307 -0.481753 4
      vertex 16.9894 -12.3435 4
    endloop
  endfacet
  facet normal 0 0 1
    outer loop
      vertex 0.309016 0.951056 4
      vertex 6.48936 19.9722 4
      vertex 3.93501 20.628 4
    endloop
  endfacet
  facet normal -0 0 1
    outer loop
      vertex 0.809016 -0.587785 4
      vertex 16.9894 -12.3435 4
      vertex 0.876307 -0.481753 4
    endloop
  endfacet
  facet normal 0 0 1
    outer loop
      vertex 0.187381 0.982286 4
      vertex 3.93501 20.628 4
      vertex 1.3186 20.9586 4
    endloop
  endfacet
  facet normal 0 0 1
    outer loop
      vertex 16.9894 -12.3435 4
      vertex 0.809016 -0.587785 4
      vertex 15.3083 -14.3755 4
    endloop
  endfacet
  facet normal -0 0 1
    outer loop
      vertex 0.728969 -0.684546 4
      vertex 15.3083 -14.3755 4
      vertex 0.809016 -0.587785 4
    endloop
  endfacet
  facet normal 0 0 1
    outer loop
      vertex 20.8344 2.632 4
      vertex 0.992114 0.125333 4
      vertex 1 0 4
    endloop
  endfacet
  facet normal 0 0 1
    outer loop
      vertex 20.3402 5.22249 4
      vertex 0.968583 0.24869 4
      vertex 0.992114 0.125333 4
    endloop
  endfacet
  facet normal 0 0 1
    outer loop
      vertex 19.5253 7.73061 4
      vertex 0.929776 0.368124 4
      vertex 0.968583 0.24869 4
    endloop
  endfacet
  facet normal 0 0 1
    outer loop
      vertex 18.4024 10.1168 4
      vertex 0.876307 0.481753 4
      vertex 0.929776 0.368124 4
    endloop
  endfacet
  facet normal 0 0 1
    outer loop
      vertex 16.9894 12.3435 4
      vertex 0.809016 0.587785 4
      vertex 0.876307 0.481753 4
    endloop
  endfacet
  facet normal 0 0 1
    outer loop
      vertex 15.3083 14.3755 4
      vertex 0.728969 0.684546 4
      vertex 0.809016 0.587785 4
    endloop
  endfacet
  facet normal 0 0 1
    outer loop
      vertex 13.3859 16.1808 4
      vertex 0.637424 0.770513 4
      vertex 0.728969 0.684546 4
    endloop
  endfacet
  facet normal 0 0 1
    outer loop
      vertex 11.2524 17.7309 4
      vertex 0.535827 0.844327 4
      vertex 0.637424 0.770513 4
    endloop
  endfacet
  facet normal 0 0 1
    outer loop
      vertex 8.94136 19.0014 4
      vertex 0.425778 0.904826 4
      vertex 0.535827 0.844327 4
    endloop
  endfacet
  facet normal 0 0 1
    outer loop
      vertex 6.48936 19.9722 4
      vertex 0.309016 0.951056 4
      vertex 0.425778 0.904826 4
    endloop
  endfacet
  facet normal 0 0 1
    outer loop
      vertex 3.93501 20.628 4
      vertex 0.187381 0.982286 4
      vertex 0.309016 0.951056 4
    endloop
  endfacet
  facet normal 0 0 1
    outer loop
      vertex 1.3186 20.9586 4
      vertex 0.0627899 0.998026 4
      vertex 0.187381 0.982286 4
    endloop
  endfacet
  facet normal 0 0 1
    outer loop
      vertex 1.3186 20.9586 4
      vertex -0.0627899 0.998026 4
      vertex 0.0627899 0.998026 4
    endloop
  endfacet
  facet normal -0 0 1
    outer loop
      vertex -1.3186 20.9586 4
      vertex -0.0627899 0.998026 4
      vertex 1.3186 20.9586 4
    endloop
  endfacet
  facet normal 0 0 1
    outer loop
      vertex -0.0627899 0.998026 4
      vertex -1.3186 20.9586 4
      vertex -0.187381 0.982286 4
    endloop
  endfacet
  facet normal -0 0 1
    outer loop
      vertex -3.93501 20.628 4
      vertex -0.187381 0.982286 4
      vertex -1.3186 20.9586 4
    endloop
  endfacet
  facet normal 0 0 1
    outer loop
      vertex -0.187381 0.982286 4
      vertex -3.93501 20.628 4
      vertex -0.309016 0.951056 4
    endloop
  endfacet
  facet normal -0 0 1
    outer loop
      vertex -6.48936 19.9722 4
      vertex -0.309016 0.951056 4
      vertex -3.93501 20.628 4
    endloop
  endfacet
  facet normal 0 0 1
    outer loop
      vertex -0.309016 0.951056 4
      vertex -6.48936 19.9722 4
      vertex -0.425778 0.904826 4
    endloop
  endfacet
  facet normal -0 0 1
    outer loop
      vertex -8.94136 19.0014 4
      vertex -0.425778 0.904826 4
      vertex -6.48936 19.9722 4
    endloop
  endfacet
  facet normal 0 0 1
    outer loop
      vertex -0.425778 0.904826 4
      vertex -8.94136 19.0014 4
      vertex -0.535827 0.844327 4
    endloop
  endfacet
  facet normal -0 0 1
    outer loop
      vertex -11.2524 17.7309 4
      vertex -0.535827 0.844327 4
      vertex -8.94136 19.0014 4
    endloop
  endfacet
  facet normal 0 0 1
    outer loop
      vertex -0.535827 0.844327 4
      vertex -11.2524 17.7309 4
      vertex -0.637424 0.770513 4
    endloop
  endfacet
  facet normal -0 0 1
    outer loop
      vertex -13.3859 16.1808 4
      vertex -0.637424 0.770513 4
      vertex -11.2524 17.7309 4
    endloop
  endfacet
  facet normal -0 0 1
    outer loop
      vertex -15.3083 14.3755 4
      vertex -0.728969 0.684546 4
      vertex -13.3859 16.1808 4
    endloop
  endfacet
  facet normal 0 0 1
    outer loop
      vertex -0.637424 0.770513 4
      vertex -13.3859 16.1808 4
      vertex -0.728969 0.684546 4
    endloop
  endfacet
  facet normal 0 0 1
    outer loop
      vertex 15.3083 -14.3755 4
      vertex 0.728969 -0.684546 4
      vertex 13.3859 -16.1808 4
    endloop
  endfacet
  facet normal -0 0 1
    outer loop
      vertex 0.637424 -0.770513 4
      vertex 13.3859 -16.1808 4
      vertex 0.728969 -0.684546 4
    endloop
  endfacet
  facet normal 0 0 1
    outer loop
      vertex 13.3859 -16.1808 4
      vertex 0.637424 -0.770513 4
      vertex 11.2524 -17.7309 4
    endloop
  endfacet
  facet normal -0 0 1
    outer loop
      vertex 0.535827 -0.844327 4
      vertex 11.2524 -17.7309 4
      vertex 0.637424 -0.770513 4
    endloop
  endfacet
  facet normal 0 0 1
    outer loop
      vertex 11.2524 -17.7309 4
      vertex 0.535827 -0.844327 4
      vertex 8.94136 -19.0014 4
    endloop
  endfacet
  facet normal -0 0 1
    outer loop
      vertex 0.425778 -0.904826 4
      vertex 8.94136 -19.0014 4
      vertex 0.535827 -0.844327 4
    endloop
  endfacet
  facet normal 0 0 1
    outer loop
      vertex 8.94136 -19.0014 4
      vertex 0.425778 -0.904826 4
      vertex 6.48936 -19.9722 4
    endloop
  endfacet
  facet normal -0 0 1
    outer loop
      vertex 0.309016 -0.951056 4
      vertex 6.48936 -19.9722 4
      vertex 0.425778 -0.904826 4
    endloop
  endfacet
  facet normal 0 0 1
    outer loop
      vertex 6.48936 -19.9722 4
      vertex 0.309016 -0.951056 4
      vertex 3.93501 -20.628 4
    endloop
  endfacet
  facet normal -0 0 1
    outer loop
      vertex 0.187381 -0.982286 4
      vertex 3.93501 -20.628 4
      vertex 0.309016 -0.951056 4
    endloop
  endfacet
  facet normal 0 0 1
    outer loop
      vertex 3.93501 -20.628 4
      vertex 0.187381 -0.982286 4
      vertex 1.3186 -20.9586 4
    endloop
  endfacet
  facet normal -0 0 1
    outer loop
      vertex 0.0627899 -0.998026 4
      vertex 1.3186 -20.9586 4
      vertex 0.187381 -0.982286 4
    endloop
  endfacet
  facet normal -0 0 1
    outer loop
      vertex -0.0627899 -0.998026 4
      vertex 1.3186 -20.9586 4
      vertex 0.0627899 -0.998026 4
    endloop
  endfacet
  facet normal 0 0 1
    outer loop
      vertex -1.3186 -20.9586 4
      vertex -0.0627899 -0.998026 4
      vertex -0.187381 -0.982286 4
    endloop
  endfacet
  facet normal 0 0 1
    outer loop
      vertex -3.93501 -20.628 4
      vertex -0.187381 -0.982286 4
      vertex -0.309016 -0.951056 4
    endloop
  endfacet
  facet normal 0 0 1
    outer loop
      vertex -6.48936 -19.9722 4
      vertex -0.309016 -0.951056 4
      vertex -0.425778 -0.904826 4
    endloop
  endfacet
  facet normal 0 0 1
    outer loop
      vertex -8.94136 -19.0014 4
      vertex -0.425778 -0.904826 4
      vertex -0.535827 -0.844327 4
    endloop
  endfacet
  facet normal 0 0 1
    outer loop
      vertex -11.2524 -17.7309 4
      vertex -0.535827 -0.844327 4
      vertex -0.637424 -0.770513 4
    endloop
  endfacet
  facet normal 0 0 1
    outer loop
      vertex -13.3859 -16.1808 4
      vertex -0.637424 -0.770513 4
      vertex -0.728969 -0.684546 4
    endloop
  endfacet
  facet normal 0 0 1
    outer loop
      vertex -15.3083 -14.3755 4
      vertex -0.728969 -0.684546 4
      vertex -0.809016 -0.587785 4
    endloop
  endfacet
  facet normal 0 0 1
    outer loop
      vertex -16.9894 -12.3435 4
      vertex -0.809016 -0.587785 4
      vertex -0.876307 -0.481753 4
    endloop
  endfacet
  facet normal 0 0 1
    outer loop
      vertex -18.4024 -10.1168 4
      vertex -0.876307 -0.481753 4
      vertex -0.929776 -0.368124 4
    endloop
  endfacet
  facet normal 0 0 1
    outer loop
      vertex -19.5253 -7.73061 4
      vertex -0.929776 -0.368124 4
      vertex -0.968583 -0.24869 4
    endloop
  endfacet
  facet normal 0 0 1
    outer loop
      vertex -20.3402 -5.22249 4
      vertex -0.968583 -0.24869 4
      vertex -0.992114 -0.125333 4
    endloop
  endfacet
  facet normal 0 0 1
    outer loop
      vertex -0.0627899 -0.998026 4
      vertex -1.3186 -20.9586 4
      vertex 1.3186 -20.9586 4
    endloop
  endfacet
  facet normal 0 0 1
    outer loop
      vertex -20.8344 -2.632 4
      vertex -0.992114 -0.125333 4
      vertex -1 0 4
    endloop
  endfacet
  facet normal 0 0 1
    outer loop
      vertex -0.728969 0.684546 4
      vertex -15.3083 14.3755 4
      vertex -0.809016 0.587785 4
    endloop
  endfacet
  facet normal -0 0 1
    outer loop
      vertex -16.9894 12.3435 4
      vertex -0.809016 0.587785 4
      vertex -15.3083 14.3755 4
    endloop
  endfacet
  facet normal 0 0 1
    outer loop
      vertex -0.187381 -0.982286 4
      vertex -3.93501 -20.628 4
      vertex -1.3186 -20.9586 4
    endloop
  endfacet
  facet normal 0 0 1
    outer loop
      vertex -0.809016 0.587785 4
      vertex -16.9894 12.3435 4
      vertex -0.876307 0.481753 4
    endloop
  endfacet
  facet normal 0 0 1
    outer loop
      vertex -0.309016 -0.951056 4
      vertex -6.48936 -19.9722 4
      vertex -3.93501 -20.628 4
    endloop
  endfacet
  facet normal -0 0 1
    outer loop
      vertex -18.4024 10.1168 4
      vertex -0.876307 0.481753 4
      vertex -16.9894 12.3435 4
    endloop
  endfacet
  facet normal 0 0 1
    outer loop
      vertex -0.425778 -0.904826 4
      vertex -8.94136 -19.0014 4
      vertex -6.48936 -19.9722 4
    endloop
  endfacet
  facet normal 0 0 1
    outer loop
      vertex -0.876307 0.481753 4
      vertex -18.4024 10.1168 4
      vertex -0.929776 0.368124 4
    endloop
  endfacet
  facet normal 0 0 1
    outer loop
      vertex -0.535827 -0.844327 4
      vertex -11.2524 -17.7309 4
      vertex -8.94136 -19.0014 4
    endloop
  endfacet
  facet normal -0 0 1
    outer loop
      vertex -19.5253 7.73061 4
      vertex -0.929776 0.368124 4
      vertex -18.4024 10.1168 4
    endloop
  endfacet
  facet normal 0 0 1
    outer loop
      vertex -0.637424 -0.770513 4
      vertex -13.3859 -16.1808 4
      vertex -11.2524 -17.7309 4
    endloop
  endfacet
  facet normal 0 0 1
    outer loop
      vertex -0.929776 0.368124 4
      vertex -19.5253 7.73061 4
      vertex -0.968583 0.24869 4
    endloop
  endfacet
  facet normal 0 0 1
    outer loop
      vertex -0.728969 -0.684546 4
      vertex -15.3083 -14.3755 4
      vertex -13.3859 -16.1808 4
    endloop
  endfacet
  facet normal -0 0 1
    outer loop
      vertex -20.3402 5.22249 4
      vertex -0.968583 0.24869 4
      vertex -19.5253 7.73061 4
    endloop
  endfacet
  facet normal 0 0 1
    outer loop
      vertex -0.809016 -0.587785 4
      vertex -16.9894 -12.3435 4
      vertex -15.3083 -14.3755 4
    endloop
  endfacet
  facet normal 0 0 1
    outer loop
      vertex -0.968583 0.24869 4
      vertex -20.3402 5.22249 4
      vertex -0.992114 0.125333 4
    endloop
  endfacet
  facet normal 0 0 1
    outer loop
      vertex -0.876307 -0.481753 4
      vertex -18.4024 -10.1168 4
      vertex -16.9894 -12.3435 4
    endloop
  endfacet
  facet normal -0 0 1
    outer loop
      vertex -20.8344 2.632 4
      vertex -0.992114 0.125333 4
      vertex -20.3402 5.22249 4
    endloop
  endfacet
  facet normal 0 0 1
    outer loop
      vertex -0.929776 -0.368124 4
      vertex -19.5253 -7.73061 4
      vertex -18.4024 -10.1168 4
    endloop
  endfacet
  facet normal 0 0 1
    outer loop
      vertex -0.992114 0.125333 4
      vertex -20.8344 2.632 4
      vertex -1 0 4
    endloop
  endfacet
  facet normal 0 0 1
    outer loop
      vertex -0.968583 -0.24869 4
      vertex -20.3402 -5.22249 4
      vertex -19.5253 -7.73061 4
    endloop
  endfacet
  facet normal 0 0 1
    outer loop
      vertex -21 0 4
      vertex -1 0 4
      vertex -20.8344 2.632 4
    endloop
  endfacet
  facet normal 0 0 1
    outer loop
      vertex -0.992114 -0.125333 4
      vertex -20.8344 -2.632 4
      vertex -20.3402 -5.22249 4
    endloop
  endfacet
  facet normal 0 0 1
    outer loop
      vertex -1 0 4
      vertex -21 0 4
      vertex -20.8344 -2.632 4
    endloop
  endfacet
  facet normal -0.982285 0.187395 0
    outer loop
      vertex -20.8344 2.632 -4
      vertex -20.3402 5.22249 4
      vertex -20.3402 5.22249 -4
    endloop
  endfacet
  facet normal -0.982285 0.187395 0
    outer loop
      vertex -20.3402 5.22249 4
      vertex -20.8344 2.632 -4
      vertex -20.8344 2.632 4
    endloop
  endfacet
  facet normal -0.481752 0.876307 0
    outer loop
      vertex -8.94136 19.0014 -4
      vertex -11.2524 17.7309 4
      vertex -8.94136 19.0014 4
    endloop
  endfacet
  facet normal -0.481752 0.876307 0
    outer loop
      vertex -11.2524 17.7309 4
      vertex -8.94136 19.0014 -4
      vertex -11.2524 17.7309 -4
    endloop
  endfacet
  facet normal -0.248674 0.968587 0
    outer loop
      vertex -3.93501 20.628 -4
      vertex -6.48936 19.9722 4
      vertex -3.93501 20.628 4
    endloop
  endfacet
  facet normal -0.248674 0.968587 0
    outer loop
      vertex -6.48936 19.9722 4
      vertex -3.93501 20.628 -4
      vertex -6.48936 19.9722 -4
    endloop
  endfacet
  facet normal 0.481752 -0.876307 0
    outer loop
      vertex 8.94136 -19.0014 -4
      vertex 11.2524 -17.7309 4
      vertex 8.94136 -19.0014 4
    endloop
  endfacet
  facet normal 0.481752 -0.876307 0
    outer loop
      vertex 11.2524 -17.7309 4
      vertex 8.94136 -19.0014 -4
      vertex 11.2524 -17.7309 -4
    endloop
  endfacet
  facet normal 0.684556 -0.72896 0
    outer loop
      vertex 13.3859 -16.1808 -4
      vertex 15.3083 -14.3755 4
      vertex 13.3859 -16.1808 4
    endloop
  endfacet
  facet normal 0.684556 -0.72896 0
    outer loop
      vertex 15.3083 -14.3755 4
      vertex 13.3859 -16.1808 -4
      vertex 15.3083 -14.3755 -4
    endloop
  endfacet
  facet normal 0.904821 -0.425793 0
    outer loop
      vertex 18.4024 -10.1168 4
      vertex 19.5253 -7.73061 -4
      vertex 19.5253 -7.73061 4
    endloop
  endfacet
  facet normal 0.904821 -0.425793 0
    outer loop
      vertex 19.5253 -7.73061 -4
      vertex 18.4024 -10.1168 4
      vertex 18.4024 -10.1168 -4
    endloop
  endfacet
  facet normal 0.770498 -0.637443 0
    outer loop
      vertex 15.3083 -14.3755 4
      vertex 16.9894 -12.3435 -4
      vertex 16.9894 -12.3435 4
    endloop
  endfacet
  facet normal 0.770498 -0.637443 0
    outer loop
      vertex 16.9894 -12.3435 -4
      vertex 15.3083 -14.3755 4
      vertex 15.3083 -14.3755 -4
    endloop
  endfacet
  facet normal 0 -1 0
    outer loop
      vertex -1.3186 -20.9586 -4
      vertex 1.3186 -20.9586 4
      vertex -1.3186 -20.9586 4
    endloop
  endfacet
  facet normal 0 -1 -0
    outer loop
      vertex 1.3186 -20.9586 4
      vertex -1.3186 -20.9586 -4
      vertex 1.3186 -20.9586 -4
    endloop
  endfacet
  facet normal -0.368119 -0.929778 0
    outer loop
      vertex -8.94136 -19.0014 -4
      vertex -6.48936 -19.9722 4
      vertex -8.94136 -19.0014 4
    endloop
  endfacet
  facet normal -0.368119 -0.929778 -0
    outer loop
      vertex -6.48936 -19.9722 4
      vertex -8.94136 -19.0014 -4
      vertex -6.48936 -19.9722 -4
    endloop
  endfacet
  facet normal -0.684556 -0.72896 0
    outer loop
      vertex -15.3083 -14.3755 -4
      vertex -13.3859 -16.1808 4
      vertex -15.3083 -14.3755 4
    endloop
  endfacet
  facet normal -0.684556 -0.72896 -0
    outer loop
      vertex -13.3859 -16.1808 4
      vertex -15.3083 -14.3755 -4
      vertex -13.3859 -16.1808 -4
    endloop
  endfacet
  facet normal -0.998027 -0.0627938 0
    outer loop
      vertex -20.8344 -2.632 -4
      vertex -21 0 4
      vertex -21 0 -4
    endloop
  endfacet
  facet normal -0.998027 -0.0627938 0
    outer loop
      vertex -21 0 4
      vertex -20.8344 -2.632 -4
      vertex -20.8344 -2.632 4
    endloop
  endfacet
  facet normal -0.982285 -0.187395 0
    outer loop
      vertex -20.3402 -5.22249 -4
      vertex -20.8344 -2.632 4
      vertex -20.8344 -2.632 -4
    endloop
  endfacet
  facet normal -0.982285 -0.187395 0
    outer loop
      vertex -20.8344 -2.632 4
      vertex -20.3402 -5.22249 -4
      vertex -20.3402 -5.22249 4
    endloop
  endfacet
  facet normal 0.587791 -0.809013 0
    outer loop
      vertex 11.2524 -17.7309 -4
      vertex 13.3859 -16.1808 4
      vertex 11.2524 -17.7309 4
    endloop
  endfacet
  facet normal 0.587791 -0.809013 0
    outer loop
      vertex 13.3859 -16.1808 4
      vertex 11.2524 -17.7309 -4
      vertex 13.3859 -16.1808 -4
    endloop
  endfacet
  facet normal 0.844346 -0.535798 0
    outer loop
      vertex 16.9894 -12.3435 4
      vertex 18.4024 -10.1168 -4
      vertex 18.4024 -10.1168 4
    endloop
  endfacet
  facet normal 0.844346 -0.535798 0
    outer loop
      vertex 18.4024 -10.1168 -4
      vertex 16.9894 -12.3435 4
      vertex 16.9894 -12.3435 -4
    endloop
  endfacet
  facet normal -0.12536 -0.992111 0
    outer loop
      vertex -3.93501 -20.628 -4
      vertex -1.3186 -20.9586 4
      vertex -3.93501 -20.628 4
    endloop
  endfacet
  facet normal -0.12536 -0.992111 -0
    outer loop
      vertex -1.3186 -20.9586 4
      vertex -3.93501 -20.628 -4
      vertex -1.3186 -20.9586 -4
    endloop
  endfacet
  facet normal -0.587791 -0.809013 0
    outer loop
      vertex -13.3859 -16.1808 -4
      vertex -11.2524 -17.7309 4
      vertex -13.3859 -16.1808 4
    endloop
  endfacet
  facet normal -0.587791 -0.809013 -0
    outer loop
      vertex -11.2524 -17.7309 4
      vertex -13.3859 -16.1808 -4
      vertex -11.2524 -17.7309 -4
    endloop
  endfacet
  facet normal -0.844346 -0.535798 0
    outer loop
      vertex -16.9894 -12.3435 -4
      vertex -18.4024 -10.1168 4
      vertex -18.4024 -10.1168 -4
    endloop
  endfacet
  facet normal -0.844346 -0.535798 0
    outer loop
      vertex -18.4024 -10.1168 4
      vertex -16.9894 -12.3435 -4
      vertex -16.9894 -12.3435 4
    endloop
  endfacet
  facet normal 0 0 -1
    outer loop
      vertex 1 0 -4
      vertex 21 0 -4
      vertex 20.8344 -2.632 -4
    endloop
  endfacet
  facet normal 0 0 -1
    outer loop
      vertex 0.992114 -0.125333 -4
      vertex 20.8344 -2.632 -4
      vertex 20.3402 -5.22249 -4
    endloop
  endfacet
  facet normal 0 0 -1
    outer loop
      vertex 21 0 -4
      vertex 1 0 -4
      vertex 20.8344 2.632 -4
    endloop
  endfacet
  facet normal 0 0 -1
    outer loop
      vertex 0.968583 -0.24869 -4
      vertex 20.3402 -5.22249 -4
      vertex 19.5253 -7.73061 -4
    endloop
  endfacet
  facet normal 0 0 -1
    outer loop
      vertex 0.992114 0.125333 -4
      vertex 20.8344 2.632 -4
      vertex 1 0 -4
    endloop
  endfacet
  facet normal 0 0 -1
    outer loop
      vertex 0.929776 -0.368124 -4
      vertex 19.5253 -7.73061 -4
      vertex 18.4024 -10.1168 -4
    endloop
  endfacet
  facet normal -0 0 -1
    outer loop
      vertex 20.8344 2.632 -4
      vertex 0.992114 0.125333 -4
      vertex 20.3402 5.22249 -4
    endloop
  endfacet
  facet normal 0 0 -1
    outer loop
      vertex 0.876307 -0.481753 -4
      vertex 18.4024 -10.1168 -4
      vertex 16.9894 -12.3435 -4
    endloop
  endfacet
  facet normal 0 0 -1
    outer loop
      vertex 0.968583 0.24869 -4
      vertex 20.3402 5.22249 -4
      vertex 0.992114 0.125333 -4
    endloop
  endfacet
  facet normal 0 0 -1
    outer loop
      vertex 0.809016 -0.587785 -4
      vertex 16.9894 -12.3435 -4
      vertex 15.3083 -14.3755 -4
    endloop
  endfacet
  facet normal -0 0 -1
    outer loop
      vertex 20.3402 5.22249 -4
      vertex 0.968583 0.24869 -4
      vertex 19.5253 7.73061 -4
    endloop
  endfacet
  facet normal 0 0 -1
    outer loop
      vertex 0.728969 -0.684546 -4
      vertex 15.3083 -14.3755 -4
      vertex 13.3859 -16.1808 -4
    endloop
  endfacet
  facet normal 0 0 -1
    outer loop
      vertex 0.929776 0.368124 -4
      vertex 19.5253 7.73061 -4
      vertex 0.968583 0.24869 -4
    endloop
  endfacet
  facet normal 0 0 -1
    outer loop
      vertex 0.637424 -0.770513 -4
      vertex 13.3859 -16.1808 -4
      vertex 11.2524 -17.7309 -4
    endloop
  endfacet
  facet normal -0 0 -1
    outer loop
      vertex 19.5253 7.73061 -4
      vertex 0.929776 0.368124 -4
      vertex 18.4024 10.1168 -4
    endloop
  endfacet
  facet normal 0 0 -1
    outer loop
      vertex 0.535827 -0.844327 -4
      vertex 11.2524 -17.7309 -4
      vertex 8.94136 -19.0014 -4
    endloop
  endfacet
  facet normal 0 0 -1
    outer loop
      vertex 0.876307 0.481753 -4
      vertex 18.4024 10.1168 -4
      vertex 0.929776 0.368124 -4
    endloop
  endfacet
  facet normal 0 0 -1
    outer loop
      vertex 0.425778 -0.904826 -4
      vertex 8.94136 -19.0014 -4
      vertex 6.48936 -19.9722 -4
    endloop
  endfacet
  facet normal -0 0 -1
    outer loop
      vertex 18.4024 10.1168 -4
      vertex 0.876307 0.481753 -4
      vertex 16.9894 12.3435 -4
    endloop
  endfacet
  facet normal 0 0 -1
    outer loop
      vertex 0.309016 -0.951056 -4
      vertex 6.48936 -19.9722 -4
      vertex 3.93501 -20.628 -4
    endloop
  endfacet
  facet normal 0 0 -1
    outer loop
      vertex 0.809016 0.587785 -4
      vertex 16.9894 12.3435 -4
      vertex 0.876307 0.481753 -4
    endloop
  endfacet
  facet normal 0 0 -1
    outer loop
      vertex 0.187381 -0.982286 -4
      vertex 3.93501 -20.628 -4
      vertex 1.3186 -20.9586 -4
    endloop
  endfacet
  facet normal -0 0 -1
    outer loop
      vertex 16.9894 12.3435 -4
      vertex 0.809016 0.587785 -4
      vertex 15.3083 14.3755 -4
    endloop
  endfacet
  facet normal 0 0 -1
    outer loop
      vertex 0.728969 0.684546 -4
      vertex 15.3083 14.3755 -4
      vertex 0.809016 0.587785 -4
    endloop
  endfacet
  facet normal 0 0 -1
    outer loop
      vertex 20.8344 -2.632 -4
      vertex 0.992114 -0.125333 -4
      vertex 1 0 -4
    endloop
  endfacet
  facet normal 0 0 -1
    outer loop
      vertex 20.3402 -5.22249 -4
      vertex 0.968583 -0.24869 -4
      vertex 0.992114 -0.125333 -4
    endloop
  endfacet
  facet normal 0 0 -1
    outer loop
      vertex 19.5253 -7.73061 -4
      vertex 0.929776 -0.368124 -4
      vertex 0.968583 -0.24869 -4
    endloop
  endfacet
  facet normal 0 0 -1
    outer loop
      vertex 18.4024 -10.1168 -4
      vertex 0.876307 -0.481753 -4
      vertex 0.929776 -0.368124 -4
    endloop
  endfacet
  facet normal 0 0 -1
    outer loop
      vertex 16.9894 -12.3435 -4
      vertex 0.809016 -0.587785 -4
      vertex 0.876307 -0.481753 -4
    endloop
  endfacet
  facet normal 0 0 -1
    outer loop
      vertex 15.3083 -14.3755 -4
      vertex 0.728969 -0.684546 -4
      vertex 0.809016 -0.587785 -4
    endloop
  endfacet
  facet normal 0 0 -1
    outer loop
      vertex 13.3859 -16.1808 -4
      vertex 0.637424 -0.770513 -4
      vertex 0.728969 -0.684546 -4
    endloop
  endfacet
  facet normal 0 0 -1
    outer loop
      vertex 11.2524 -17.7309 -4
      vertex 0.535827 -0.844327 -4
      vertex 0.637424 -0.770513 -4
    endloop
  endfacet
  facet normal 0 0 -1
    outer loop
      vertex 8.94136 -19.0014 -4
      vertex 0.425778 -0.904826 -4
      vertex 0.535827 -0.844327 -4
    endloop
  endfacet
  facet normal 0 0 -1
    outer loop
      vertex 6.48936 -19.9722 -4
      vertex 0.309016 -0.951056 -4
      vertex 0.425778 -0.904826 -4
    endloop
  endfacet
  facet normal 0 0 -1
    outer loop
      vertex 3.93501 -20.628 -4
      vertex 0.187381 -0.982286 -4
      vertex 0.309016 -0.951056 -4
    endloop
  endfacet
  facet normal 0 0 -1
    outer loop
      vertex 1.3186 -20.9586 -4
      vertex 0.0627899 -0.998026 -4
      vertex 0.187381 -0.982286 -4
    endloop
  endfacet
  facet normal 0 0 -1
    outer loop
      vertex 1.3186 -20.9586 -4
      vertex -0.0627899 -0.998026 -4
      vertex 0.0627899 -0.998026 -4
    endloop
  endfacet
  facet normal 0 0 -1
    outer loop
      vertex -1.3186 -20.9586 -4
      vertex -0.0627899 -0.998026 -4
      vertex 1.3186 -20.9586 -4
    endloop
  endfacet
  facet normal -0 0 -1
    outer loop
      vertex -0.0627899 -0.998026 -4
      vertex -1.3186 -20.9586 -4
      vertex -0.187381 -0.982286 -4
    endloop
  endfacet
  facet normal 0 0 -1
    outer loop
      vertex -3.93501 -20.628 -4
      vertex -0.187381 -0.982286 -4
      vertex -1.3186 -20.9586 -4
    endloop
  endfacet
  facet normal -0 0 -1
    outer loop
      vertex -0.187381 -0.982286 -4
      vertex -3.93501 -20.628 -4
      vertex -0.309016 -0.951056 -4
    endloop
  endfacet
  facet normal 0 0 -1
    outer loop
      vertex -6.48936 -19.9722 -4
      vertex -0.309016 -0.951056 -4
      vertex -3.93501 -20.628 -4
    endloop
  endfacet
  facet normal -0 0 -1
    outer loop
      vertex -0.309016 -0.951056 -4
      vertex -6.48936 -19.9722 -4
      vertex -0.425778 -0.904826 -4
    endloop
  endfacet
  facet normal 0 0 -1
    outer loop
      vertex -8.94136 -19.0014 -4
      vertex -0.425778 -0.904826 -4
      vertex -6.48936 -19.9722 -4
    endloop
  endfacet
  facet normal -0 0 -1
    outer loop
      vertex -0.425778 -0.904826 -4
      vertex -8.94136 -19.0014 -4
      vertex -0.535827 -0.844327 -4
    endloop
  endfacet
  facet normal 0 0 -1
    outer loop
      vertex -11.2524 -17.7309 -4
      vertex -0.535827 -0.844327 -4
      vertex -8.94136 -19.0014 -4
    endloop
  endfacet
  facet normal -0 0 -1
    outer loop
      vertex -0.535827 -0.844327 -4
      vertex -11.2524 -17.7309 -4
      vertex -0.637424 -0.770513 -4
    endloop
  endfacet
  facet normal 0 0 -1
    outer loop
      vertex -13.3859 -16.1808 -4
      vertex -0.637424 -0.770513 -4
      vertex -11.2524 -17.7309 -4
    endloop
  endfacet
  facet normal 0 0 -1
    outer loop
      vertex -15.3083 -14.3755 -4
      vertex -0.728969 -0.684546 -4
      vertex -13.3859 -16.1808 -4
    endloop
  endfacet
  facet normal -0 0 -1
    outer loop
      vertex -0.637424 -0.770513 -4
      vertex -13.3859 -16.1808 -4
      vertex -0.728969 -0.684546 -4
    endloop
  endfacet
  facet normal -0 0 -1
    outer loop
      vertex 15.3083 14.3755 -4
      vertex 0.728969 0.684546 -4
      vertex 13.3859 16.1808 -4
    endloop
  endfacet
  facet normal 0 0 -1
    outer loop
      vertex 0.637424 0.770513 -4
      vertex 13.3859 16.1808 -4
      vertex 0.728969 0.684546 -4
    endloop
  endfacet
  facet normal -0 0 -1
    outer loop
      vertex 13.3859 16.1808 -4
      vertex 0.637424 0.770513 -4
      vertex 11.2524 17.7309 -4
    endloop
  endfacet
  facet normal 0 0 -1
    outer loop
      vertex 0.535827 0.844327 -4
      vertex 11.2524 17.7309 -4
      vertex 0.637424 0.770513 -4
    endloop
  endfacet
  facet normal -0 0 -1
    outer loop
      vertex 11.2524 17.7309 -4
      vertex 0.535827 0.844327 -4
      vertex 8.94136 19.0014 -4
    endloop
  endfacet
  facet normal 0 0 -1
    outer loop
      vertex 0.425778 0.904826 -4
      vertex 8.94136 19.0014 -4
      vertex 0.535827 0.844327 -4
    endloop
  endfacet
  facet normal -0 0 -1
    outer loop
      vertex 8.94136 19.0014 -4
      vertex 0.425778 0.904826 -4
      vertex 6.48936 19.9722 -4
    endloop
  endfacet
  facet normal 0 0 -1
    outer loop
      vertex 0.309016 0.951056 -4
      vertex 6.48936 19.9722 -4
      vertex 0.425778 0.904826 -4
    endloop
  endfacet
  facet normal -0 0 -1
    outer loop
      vertex 6.48936 19.9722 -4
      vertex 0.309016 0.951056 -4
      vertex 3.93501 20.628 -4
    endloop
  endfacet
  facet normal 0 0 -1
    outer loop
      vertex 0.187381 0.982286 -4
      vertex 3.93501 20.628 -4
      vertex 0.309016 0.951056 -4
    endloop
  endfacet
  facet normal -0 0 -1
    outer loop
      vertex 3.93501 20.628 -4
      vertex 0.187381 0.982286 -4
      vertex 1.3186 20.9586 -4
    endloop
  endfacet
  facet normal 0 0 -1
    outer loop
      vertex 0.0627899 0.998026 -4
      vertex 1.3186 20.9586 -4
      vertex 0.187381 0.982286 -4
    endloop
  endfacet
  facet normal 0 0 -1
    outer loop
      vertex -0.0627899 0.998026 -4
      vertex 1.3186 20.9586 -4
      vertex 0.0627899 0.998026 -4
    endloop
  endfacet
  facet normal 0 0 -1
    outer loop
      vertex -1.3186 20.9586 -4
      vertex -0.0627899 0.998026 -4
      vertex -0.187381 0.982286 -4
    endloop
  endfacet
  facet normal 0 0 -1
    outer loop
      vertex -3.93501 20.628 -4
      vertex -0.187381 0.982286 -4
      vertex -0.309016 0.951056 -4
    endloop
  endfacet
  facet normal 0 0 -1
    outer loop
      vertex -6.48936 19.9722 -4
      vertex -0.309016 0.951056 -4
      vertex -0.425778 0.904826 -4
    endloop
  endfacet
  facet normal 0 0 -1
    outer loop
      vertex -8.94136 19.0014 -4
      vertex -0.425778 0.904826 -4
      vertex -0.535827 0.844327 -4
    endloop
  endfacet
  facet normal 0 0 -1
    outer loop
      vertex -11.2524 17.7309 -4
      vertex -0.535827 0.844327 -4
      vertex -0.637424 0.770513 -4
    endloop
  endfacet
  facet normal 0 0 -1
    outer loop
      vertex -13.3859 16.1808 -4
      vertex -0.637424 0.770513 -4
      vertex -0.728969 0.684546 -4
    endloop
  endfacet
  facet normal 0 0 -1
    outer loop
      vertex -15.3083 14.3755 -4
      vertex -0.728969 0.684546 -4
      vertex -0.809016 0.587785 -4
    endloop
  endfacet
  facet normal 0 0 -1
    outer loop
      vertex -16.9894 12.3435 -4
      vertex -0.809016 0.587785 -4
      vertex -0.876307 0.481753 -4
    endloop
  endfacet
  facet normal 0 0 -1
    outer loop
      vertex -18.4024 10.1168 -4
      vertex -0.876307 0.481753 -4
      vertex -0.929776 0.368124 -4
    endloop
  endfacet
  facet normal 0 0 -1
    outer loop
      vertex -19.5253 7.73061 -4
      vertex -0.929776 0.368124 -4
      vertex -0.968583 0.24869 -4
    endloop
  endfacet
  facet normal 0 0 -1
    outer loop
      vertex -20.3402 5.22249 -4
      vertex -0.968583 0.24869 -4
      vertex -0.992114 0.125333 -4
    endloop
  endfacet
  facet normal 0 0 -1
    outer loop
      vertex -0.0627899 0.998026 -4
      vertex -1.3186 20.9586 -4
      vertex 1.3186 20.9586 -4
    endloop
  endfacet
  facet normal 0 0 -1
    outer loop
      vertex -20.8344 2.632 -4
      vertex -0.992114 0.125333 -4
      vertex -1 0 -4
    endloop
  endfacet
  facet normal -0 0 -1
    outer loop
      vertex -0.728969 -0.684546 -4
      vertex -15.3083 -14.3755 -4
      vertex -0.809016 -0.587785 -4
    endloop
  endfacet
  facet normal 0 0 -1
    outer loop
      vertex -16.9894 -12.3435 -4
      vertex -0.809016 -0.587785 -4
      vertex -15.3083 -14.3755 -4
    endloop
  endfacet
  facet normal 0 0 -1
    outer loop
      vertex -0.187381 0.982286 -4
      vertex -3.93501 20.628 -4
      vertex -1.3186 20.9586 -4
    endloop
  endfacet
  facet normal -0 0 -1
    outer loop
      vertex -0.809016 -0.587785 -4
      vertex -16.9894 -12.3435 -4
      vertex -0.876307 -0.481753 -4
    endloop
  endfacet
  facet normal 0 0 -1
    outer loop
      vertex -0.309016 0.951056 -4
      vertex -6.48936 19.9722 -4
      vertex -3.93501 20.628 -4
    endloop
  endfacet
  facet normal 0 0 -1
    outer loop
      vertex -18.4024 -10.1168 -4
      vertex -0.876307 -0.481753 -4
      vertex -16.9894 -12.3435 -4
    endloop
  endfacet
  facet normal 0 0 -1
    outer loop
      vertex -0.425778 0.904826 -4
      vertex -8.94136 19.0014 -4
      vertex -6.48936 19.9722 -4
    endloop
  endfacet
  facet normal -0 0 -1
    outer loop
      vertex -0.876307 -0.481753 -4
      vertex -18.4024 -10.1168 -4
      vertex -0.929776 -0.368124 -4
    endloop
  endfacet
  facet normal 0 0 -1
    outer loop
      vertex -0.535827 0.844327 -4
      vertex -11.2524 17.7309 -4
      vertex -8.94136 19.0014 -4
    endloop
  endfacet
  facet normal 0 0 -1
    outer loop
      vertex -19.5253 -7.73061 -4
      vertex -0.929776 -0.368124 -4
      vertex -18.4024 -10.1168 -4
    endloop
  endfacet
  facet normal 0 0 -1
    outer loop
      vertex -0.637424 0.770513 -4
      vertex -13.3859 16.1808 -4
      vertex -11.2524 17.7309 -4
    endloop
  endfacet
  facet normal -0 0 -1
    outer loop
      vertex -0.929776 -0.368124 -4
      vertex -19.5253 -7.73061 -4
      vertex -0.968583 -0.24869 -4
    endloop
  endfacet
  facet normal 0 0 -1
    outer loop
      vertex -0.728969 0.684546 -4
      vertex -15.3083 14.3755 -4
      vertex -13.3859 16.1808 -4
    endloop
  endfacet
  facet normal 0 0 -1
    outer loop
      vertex -20.3402 -5.22249 -4
      vertex -0.968583 -0.24869 -4
      vertex -19.5253 -7.73061 -4
    endloop
  endfacet
  facet normal 0 0 -1
    outer loop
      vertex -0.809016 0.587785 -4
      vertex -16.9894 12.3435 -4
      vertex -15.3083 14.3755 -4
    endloop
  endfacet
  facet normal -0 0 -1
    outer loop
      vertex -0.968583 -0.24869 -4
      vertex -20.3402 -5.22249 -4
      vertex -0.992114 -0.125333 -4
    endloop
  endfacet
  facet normal 0 0 -1
    outer loop
      vertex -0.876307 0.481753 -4
      vertex -18.4024 10.1168 -4
      vertex -16.9894 12.3435 -4
    endloop
  endfacet
  facet normal 0 0 -1
    outer loop
      vertex -20.8344 -2.632 -4
      vertex -0.992114 -0.125333 -4
      vertex -20.3402 -5.22249 -4
    endloop
  endfacet
  facet normal 0 0 -1
    outer loop
      vertex -0.929776 0.368124 -4
      vertex -19.5253 7.73061 -4
      vertex -18.4024 10.1168 -4
    endloop
  endfacet
  facet normal -0 0 -1
    outer loop
      vertex -0.992114 -0.125333 -4
      vertex -20.8344 -2.632 -4
      vertex -1 0 -4
    endloop
  endfacet
  facet normal 0 0 -1
    outer loop
      vertex -0.968583 0.24869 -4
      vertex -20.3402 5.22249 -4
      vertex -19.5253 7.73061 -4
    endloop
  endfacet
  facet normal 0 0 -1
    outer loop
      vertex -21 0 -4
      vertex -1 0 -4
      vertex -20.8344 -2.632 -4
    endloop
  endfacet
  facet normal 0 0 -1
    outer loop
      vertex -0.992114 0.125333 -4
      vertex -20.8344 2.632 -4
      vertex -20.3402 5.22249 -4
    endloop
  endfacet
  facet normal 0 0 -1
    outer loop
      vertex -1 0 -4
      vertex -21 0 -4
      vertex -20.8344 2.632 -4
    endloop
  endfacet
  facet normal -0.248674 -0.968587 0
    outer loop
      vertex -6.48936 -19.9722 -4
      vertex -3.93501 -20.628 4
      vertex -6.48936 -19.9722 4
    endloop
  endfacet
  facet normal -0.248674 -0.968587 -0
    outer loop
      vertex -3.93501 -20.628 4
      vertex -6.48936 -19.9722 -4
      vertex -3.93501 -20.628 -4
    endloop
  endfacet
  facet normal -0.770498 -0.637443 0
    outer loop
      vertex -15.3083 -14.3755 -4
      vertex -16.9894 -12.3435 4
      vertex -16.9894 -12.3435 -4
    endloop
  endfacet
  facet normal -0.770498 -0.637443 0
    outer loop
      vertex -16.9894 -12.3435 4
      vertex -15.3083 -14.3755 -4
      vertex -15.3083 -14.3755 4
    endloop
  endfacet
  facet normal -0.481752 -0.876307 0
    outer loop
      vertex -11.2524 -17.7309 -4
      vertex -8.94136 -19.0014 4
      vertex -11.2524 -17.7309 4
    endloop
  endfacet
  facet normal -0.481752 -0.876307 -0
    outer loop
      vertex -8.94136 -19.0014 4
      vertex -11.2524 -17.7309 -4
      vertex -8.94136 -19.0014 -4
    endloop
  endfacet
  facet normal 0.951055 -0.309021 0
    outer loop
      vertex -0.968583 0.24869 4
      vertex -0.929776 0.368124 -4
      vertex -0.929776 0.368124 4
    endloop
  endfacet
  facet normal 0.951055 -0.309021 0
    outer loop
      vertex -0.929776 0.368124 -4
      vertex -0.968583 0.24869 4
      vertex -0.968583 0.24869 -4
    endloop
  endfacet
  facet normal -0.844324 -0.535833 0
    outer loop
      vertex 0.876307 0.481753 -4
      vertex 0.809016 0.587785 4
      vertex 0.809016 0.587785 -4
    endloop
  endfacet
  facet normal -0.844324 -0.535833 0
    outer loop
      vertex 0.809016 0.587785 4
      vertex 0.876307 0.481753 -4
      vertex 0.876307 0.481753 4
    endloop
  endfacet
  facet normal -0.368129 -0.929775 0
    outer loop
      vertex 0.309016 0.951056 -4
      vertex 0.425778 0.904826 4
      vertex 0.309016 0.951056 4
    endloop
  endfacet
  facet normal -0.368129 -0.929775 -0
    outer loop
      vertex 0.425778 0.904826 4
      vertex 0.309016 0.951056 -4
      vertex 0.425778 0.904826 -4
    endloop
  endfacet
  facet normal 0.368129 -0.929775 0
    outer loop
      vertex -0.425778 0.904826 -4
      vertex -0.309016 0.951056 4
      vertex -0.425778 0.904826 4
    endloop
  endfacet
  facet normal 0.368129 -0.929775 0
    outer loop
      vertex -0.309016 0.951056 4
      vertex -0.425778 0.904826 -4
      vertex -0.309016 0.951056 -4
    endloop
  endfacet
  facet normal 0.904829 -0.425774 0
    outer loop
      vertex -0.929776 0.368124 4
      vertex -0.876307 0.481753 -4
      vertex -0.876307 0.481753 4
    endloop
  endfacet
  facet normal 0.904829 -0.425774 0
    outer loop
      vertex -0.876307 0.481753 -4
      vertex -0.929776 0.368124 4
      vertex -0.929776 0.368124 -4
    endloop
  endfacet
  facet normal -0.982288 0.187377 0
    outer loop
      vertex 0.968583 -0.24869 -4
      vertex 0.992114 -0.125333 4
      vertex 0.992114 -0.125333 -4
    endloop
  endfacet
  facet normal -0.982288 0.187377 0
    outer loop
      vertex 0.992114 -0.125333 4
      vertex 0.968583 -0.24869 -4
      vertex 0.968583 -0.24869 4
    endloop
  endfacet
  facet normal -0.982288 -0.187377 0
    outer loop
      vertex 0.992114 0.125333 -4
      vertex 0.968583 0.24869 4
      vertex 0.968583 0.24869 -4
    endloop
  endfacet
  facet normal -0.982288 -0.187377 0
    outer loop
      vertex 0.968583 0.24869 4
      vertex 0.992114 0.125333 -4
      vertex 0.992114 0.125333 4
    endloop
  endfacet
  facet normal -0.684549 -0.728967 0
    outer loop
      vertex 0.637424 0.770513 -4
      vertex 0.728969 0.684546 4
      vertex 0.637424 0.770513 4
    endloop
  endfacet
  facet normal -0.684549 -0.728967 -0
    outer loop
      vertex 0.728969 0.684546 4
      vertex 0.637424 0.770513 -4
      vertex 0.728969 0.684546 -4
    endloop
  endfacet
  facet normal 0 -1 0
    outer loop
      vertex -0.0627899 0.998026 -4
      vertex 0.0627899 0.998026 4
      vertex -0.0627899 0.998026 4
    endloop
  endfacet
  facet normal 0 -1 -0
    outer loop
      vertex 0.0627899 0.998026 4
      vertex -0.0627899 0.998026 -4
      vertex 0.0627899 0.998026 -4
    endloop
  endfacet
  facet normal -0.587782 -0.809019 0
    outer loop
      vertex 0.535827 0.844327 -4
      vertex 0.637424 0.770513 4
      vertex 0.535827 0.844327 4
    endloop
  endfacet
  facet normal -0.587782 -0.809019 -0
    outer loop
      vertex 0.637424 0.770513 4
      vertex 0.535827 0.844327 -4
      vertex 0.637424 0.770513 -4
    endloop
  endfacet
  facet normal 0.982288 -0.187377 0
    outer loop
      vertex -0.992114 0.125333 4
      vertex -0.968583 0.24869 -4
      vertex -0.968583 0.24869 4
    endloop
  endfacet
  facet normal 0.982288 -0.187377 0
    outer loop
      vertex -0.968583 0.24869 -4
      vertex -0.992114 0.125333 4
      vertex -0.992114 0.125333 -4
    endloop
  endfacet
  facet normal 0.770516 -0.637421 0
    outer loop
      vertex -0.809016 0.587785 4
      vertex -0.728969 0.684546 -4
      vertex -0.728969 0.684546 4
    endloop
  endfacet
  facet normal 0.770516 -0.637421 0
    outer loop
      vertex -0.728969 0.684546 -4
      vertex -0.809016 0.587785 4
      vertex -0.809016 0.587785 -4
    endloop
  endfacet
  facet normal 0.481748 -0.87631 0
    outer loop
      vertex -0.535827 0.844327 -4
      vertex -0.425778 0.904826 4
      vertex -0.535827 0.844327 4
    endloop
  endfacet
  facet normal 0.481748 -0.87631 0
    outer loop
      vertex -0.425778 0.904826 4
      vertex -0.535827 0.844327 -4
      vertex -0.425778 0.904826 -4
    endloop
  endfacet
  facet normal 0.248686 -0.968584 0
    outer loop
      vertex -0.309016 0.951056 -4
      vertex -0.187381 0.982286 4
      vertex -0.309016 0.951056 4
    endloop
  endfacet
  facet normal 0.248686 -0.968584 0
    outer loop
      vertex -0.187381 0.982286 4
      vertex -0.309016 0.951056 -4
      vertex -0.187381 0.982286 -4
    endloop
  endfacet
  facet normal -0.998026 -0.0627962 0
    outer loop
      vertex 1 0 -4
      vertex 0.992114 0.125333 4
      vertex 0.992114 0.125333 -4
    endloop
  endfacet
  facet normal -0.998026 -0.0627962 0
    outer loop
      vertex 0.992114 0.125333 4
      vertex 1 0 -4
      vertex 1 0 4
    endloop
  endfacet
  facet normal 0.684549 0.728967 -0
    outer loop
      vertex -0.637424 -0.770513 -4
      vertex -0.728969 -0.684546 4
      vertex -0.637424 -0.770513 4
    endloop
  endfacet
  facet normal 0.684549 0.728967 0
    outer loop
      vertex -0.728969 -0.684546 4
      vertex -0.637424 -0.770513 -4
      vertex -0.728969 -0.684546 -4
    endloop
  endfacet
  facet normal 0.904829 0.425774 0
    outer loop
      vertex -0.876307 -0.481753 4
      vertex -0.929776 -0.368124 -4
      vertex -0.929776 -0.368124 4
    endloop
  endfacet
  facet normal 0.904829 0.425774 0
    outer loop
      vertex -0.929776 -0.368124 -4
      vertex -0.876307 -0.481753 4
      vertex -0.876307 -0.481753 -4
    endloop
  endfacet
  facet normal -0.481748 0.87631 0
    outer loop
      vertex 0.535827 -0.844327 -4
      vertex 0.425778 -0.904826 4
      vertex 0.535827 -0.844327 4
    endloop
  endfacet
  facet normal -0.481748 0.87631 0
    outer loop
      vertex 0.425778 -0.904826 4
      vertex 0.535827 -0.844327 -4
      vertex 0.425778 -0.904826 -4
    endloop
  endfacet
  facet normal -0.770516 -0.637421 0
    outer loop
      vertex 0.809016 0.587785 -4
      vertex 0.728969 0.684546 4
      vertex 0.728969 0.684546 -4
    endloop
  endfacet
  facet normal -0.770516 -0.637421 0
    outer loop
      vertex 0.728969 0.684546 4
      vertex 0.809016 0.587785 -4
      vertex 0.809016 0.587785 4
    endloop
  endfacet
  facet normal -0.248686 -0.968584 0
    outer loop
      vertex 0.187381 0.982286 -4
      vertex 0.309016 0.951056 4
      vertex 0.187381 0.982286 4
    endloop
  endfacet
  facet normal -0.248686 -0.968584 -0
    outer loop
      vertex 0.309016 0.951056 4
      vertex 0.187381 0.982286 -4
      vertex 0.309016 0.951056 -4
    endloop
  endfacet
  facet normal -0.125337 -0.992114 0
    outer loop
      vertex 0.0627899 0.998026 -4
      vertex 0.187381 0.982286 4
      vertex 0.0627899 0.998026 4
    endloop
  endfacet
  facet normal -0.125337 -0.992114 -0
    outer loop
      vertex 0.187381 0.982286 4
      vertex 0.0627899 0.998026 -4
      vertex 0.187381 0.982286 -4
    endloop
  endfacet
  facet normal -0.481748 -0.87631 0
    outer loop
      vertex 0.425778 0.904826 -4
      vertex 0.535827 0.844327 4
      vertex 0.425778 0.904826 4
    endloop
  endfacet
  facet normal -0.481748 -0.87631 -0
    outer loop
      vertex 0.535827 0.844327 4
      vertex 0.425778 0.904826 -4
      vertex 0.535827 0.844327 -4
    endloop
  endfacet
  facet normal 0.998026 -0.0627962 0
    outer loop
      vertex -1 0 4
      vertex -0.992114 0.125333 -4
      vertex -0.992114 0.125333 4
    endloop
  endfacet
  facet normal 0.998026 -0.0627962 0
    outer loop
      vertex -0.992114 0.125333 -4
      vertex -1 0 4
      vertex -1 0 -4
    endloop
  endfacet
  facet normal 0.844324 -0.535833 0
    outer loop
      vertex -0.876307 0.481753 4
      vertex -0.809016 0.587785 -4
      vertex -0.809016 0.587785 4
    endloop
  endfacet
  facet normal 0.844324 -0.535833 0
    outer loop
      vertex -0.809016 0.587785 -4
      vertex -0.876307 0.481753 4
      vertex -0.876307 0.481753 -4
    endloop
  endfacet
  facet normal 0.125337 -0.992114 0
    outer loop
      vertex -0.187381 0.982286 -4
      vertex -0.0627899 0.998026 4
      vertex -0.187381 0.982286 4
    endloop
  endfacet
  facet normal 0.125337 -0.992114 0
    outer loop
      vertex -0.0627899 0.998026 4
      vertex -0.187381 0.982286 -4
      vertex -0.0627899 0.998026 -4
    endloop
  endfacet
  facet normal 0.587782 -0.809019 0
    outer loop
      vertex -0.637424 0.770513 -4
      vertex -0.535827 0.844327 4
      vertex -0.637424 0.770513 4
    endloop
  endfacet
  facet normal 0.587782 -0.809019 0
    outer loop
      vertex -0.535827 0.844327 4
      vertex -0.637424 0.770513 -4
      vertex -0.535827 0.844327 -4
    endloop
  endfacet
  facet normal 0.684549 -0.728967 0
    outer loop
      vertex -0.728969 0.684546 -4
      vertex -0.637424 0.770513 4
      vertex -0.728969 0.684546 4
    endloop
  endfacet
  facet normal 0.684549 -0.728967 0
    outer loop
      vertex -0.637424 0.770513 4
      vertex -0.728969 0.684546 -4
      vertex -0.637424 0.770513 -4
    endloop
  endfacet
  facet normal 0 1 -0
    outer loop
      vertex 0.0627899 -0.998026 -4
      vertex -0.0627899 -0.998026 4
      vertex 0.0627899 -0.998026 4
    endloop
  endfacet
  facet normal 0 1 0
    outer loop
      vertex -0.0627899 -0.998026 4
      vertex 0.0627899 -0.998026 -4
      vertex -0.0627899 -0.998026 -4
    endloop
  endfacet
  facet normal 0.951055 0.309021 0
    outer loop
      vertex -0.929776 -0.368124 4
      vertex -0.968583 -0.24869 -4
      vertex -0.968583 -0.24869 4
    endloop
  endfacet
  facet normal 0.951055 0.309021 0
    outer loop
      vertex -0.968583 -0.24869 -4
      vertex -0.929776 -0.368124 4
      vertex -0.929776 -0.368124 -4
    endloop
  endfacet
  facet normal 0.844324 0.535833 0
    outer loop
      vertex -0.809016 -0.587785 4
      vertex -0.876307 -0.481753 -4
      vertex -0.876307 -0.481753 4
    endloop
  endfacet
  facet normal 0.844324 0.535833 0
    outer loop
      vertex -0.876307 -0.481753 -4
      vertex -0.809016 -0.587785 4
      vertex -0.809016 -0.587785 -4
    endloop
  endfacet
  facet normal -0.125337 0.992114 0
    outer loop
      vertex 0.187381 -0.982286 -4
      vertex 0.0627899 -0.998026 4
      vertex 0.187381 -0.982286 4
    endloop
  endfacet
  facet normal -0.125337 0.992114 0
    outer loop
      vertex 0.0627899 -0.998026 4
      vertex 0.187381 -0.982286 -4
      vertex 0.0627899 -0.998026 -4
    endloop
  endfacet
  facet normal -0.904829 -0.425774 0
    outer loop
      vertex 0.929776 0.368124 -4
      vertex 0.876307 0.481753 4
      vertex 0.876307 0.481753 -4
    endloop
  endfacet
  facet normal -0.904829 -0.425774 0
    outer loop
      vertex 0.876307 0.481753 4
      vertex 0.929776 0.368124 -4
      vertex 0.929776 0.368124 4
    endloop
  endfacet
  facet normal -0.951055 -0.309021 0
    outer loop
      vertex 0.968583 0.24869 -4
      vertex 0.929776 0.368124 4
      vertex 0.929776 0.368124 -4
    endloop
  endfacet
  facet normal -0.951055 -0.309021 0
    outer loop
      vertex 0.929776 0.368124 4
      vertex 0.968583 0.24869 -4
      vertex 0.968583 0.24869 4
    endloop
  endfacet
  facet normal -0.998026 0.0627962 0
    outer loop
      vertex 0.992114 -0.125333 -4
      vertex 1 0 4
      vertex 1 0 -4
    endloop
  endfacet
  facet normal -0.998026 0.0627962 0
    outer loop
      vertex 1 0 4
      vertex 0.992114 -0.125333 -4
      vertex 0.992114 -0.125333 4
    endloop
  endfacet
  facet normal -0.904829 0.425774 0
    outer loop
      vertex 0.876307 -0.481753 -4
      vertex 0.929776 -0.368124 4
      vertex 0.929776 -0.368124 -4
    endloop
  endfacet
  facet normal -0.904829 0.425774 0
    outer loop
      vertex 0.929776 -0.368124 4
      vertex 0.876307 -0.481753 -4
      vertex 0.876307 -0.481753 4
    endloop
  endfacet
  facet normal -0.951055 0.309021 0
    outer loop
      vertex 0.929776 -0.368124 -4
      vertex 0.968583 -0.24869 4
      vertex 0.968583 -0.24869 -4
    endloop
  endfacet
  facet normal -0.951055 0.309021 0
    outer loop
      vertex 0.968583 -0.24869 4
      vertex 0.929776 -0.368124 -4
      vertex 0.929776 -0.368124 4
    endloop
  endfacet
  facet normal 0.481748 0.87631 -0
    outer loop
      vertex -0.425778 -0.904826 -4
      vertex -0.535827 -0.844327 4
      vertex -0.425778 -0.904826 4
    endloop
  endfacet
  facet normal 0.481748 0.87631 0
    outer loop
      vertex -0.535827 -0.844327 4
      vertex -0.425778 -0.904826 -4
      vertex -0.535827 -0.844327 -4
    endloop
  endfacet
  facet normal 0.125337 0.992114 -0
    outer loop
      vertex -0.0627899 -0.998026 -4
      vertex -0.187381 -0.982286 4
      vertex -0.0627899 -0.998026 4
    endloop
  endfacet
  facet normal 0.125337 0.992114 0
    outer loop
      vertex -0.187381 -0.982286 4
      vertex -0.0627899 -0.998026 -4
      vertex -0.187381 -0.982286 -4
    endloop
  endfacet
  facet normal 0.248686 0.968584 -0
    outer loop
      vertex -0.187381 -0.982286 -4
      vertex -0.309016 -0.951056 4
      vertex -0.187381 -0.982286 4
    endloop
  endfacet
  facet normal 0.248686 0.968584 0
    outer loop
      vertex -0.309016 -0.951056 4
      vertex -0.187381 -0.982286 -4
      vertex -0.309016 -0.951056 -4
    endloop
  endfacet
  facet normal 0.998026 0.0627962 0
    outer loop
      vertex -0.992114 -0.125333 4
      vertex -1 0 -4
      vertex -1 0 4
    endloop
  endfacet
  facet normal 0.998026 0.0627962 0
    outer loop
      vertex -1 0 -4
      vertex -0.992114 -0.125333 4
      vertex -0.992114 -0.125333 -4
    endloop
  endfacet
  facet normal 0.770516 0.637421 0
    outer loop
      vertex -0.728969 -0.684546 4
      vertex -0.809016 -0.587785 -4
      vertex -0.809016 -0.587785 4
    endloop
  endfacet
  facet normal 0.770516 0.637421 0
    outer loop
      vertex -0.809016 -0.587785 -4
      vertex -0.728969 -0.684546 4
      vertex -0.728969 -0.684546 -4
    endloop
  endfacet
  facet normal -0.368129 0.929775 0
    outer loop
      vertex 0.425778 -0.904826 -4
      vertex 0.309016 -0.951056 4
      vertex 0.425778 -0.904826 4
    endloop
  endfacet
  facet normal -0.368129 0.929775 0
    outer loop
      vertex 0.309016 -0.951056 4
      vertex 0.425778 -0.904826 -4
      vertex 0.309016 -0.951056 -4
    endloop
  endfacet
  facet normal -0.248686 0.968584 0
    outer loop
      vertex 0.309016 -0.951056 -4
      vertex 0.187381 -0.982286 4
      vertex 0.309016 -0.951056 4
    endloop
  endfacet
  facet normal -0.248686 0.968584 0
    outer loop
      vertex 0.187381 -0.982286 4
      vertex 0.309016 -0.951056 -4
      vertex 0.187381 -0.982286 -4
    endloop
  endfacet
  facet normal -0.587782 0.809019 0
    outer loop
      vertex 0.637424 -0.770513 -4
      vertex 0.535827 -0.844327 4
      vertex 0.637424 -0.770513 4
    endloop
  endfacet
  facet normal -0.587782 0.809019 0
    outer loop
      vertex 0.535827 -0.844327 4
      vertex 0.637424 -0.770513 -4
      vertex 0.535827 -0.844327 -4
    endloop
  endfacet
  facet normal -0.844324 0.535833 0
    outer loop
      vertex 0.809016 -0.587785 -4
      vertex 0.876307 -0.481753 4
      vertex 0.876307 -0.481753 -4
    endloop
  endfacet
  facet normal -0.844324 0.535833 0
    outer loop
      vertex 0.876307 -0.481753 4
      vertex 0.809016 -0.587785 -4
      vertex 0.809016 -0.587785 4
    endloop
  endfacet
  facet normal -0.770516 0.637421 0
    outer loop
      vertex 0.728969 -0.684546 -4
      vertex 0.809016 -0.587785 4
      vertex 0.809016 -0.587785 -4
    endloop
  endfacet
  facet normal -0.770516 0.637421 0
    outer loop
      vertex 0.809016 -0.587785 4
      vertex 0.728969 -0.684546 -4
      vertex 0.728969 -0.684546 4
    endloop
  endfacet
  facet normal 0.982288 0.187377 0
    outer loop
      vertex -0.968583 -0.24869 4
      vertex -0.992114 -0.125333 -4
      vertex -0.992114 -0.125333 4
    endloop
  endfacet
  facet normal 0.982288 0.187377 0
    outer loop
      vertex -0.992114 -0.125333 -4
      vertex -0.968583 -0.24869 4
      vertex -0.968583 -0.24869 -4
    endloop
  endfacet
  facet normal -0.684549 0.728967 0
    outer loop
      vertex 0.728969 -0.684546 -4
      vertex 0.637424 -0.770513 4
      vertex 0.728969 -0.684546 4
    endloop
  endfacet
  facet normal -0.684549 0.728967 0
    outer loop
      vertex 0.637424 -0.770513 4
      vertex 0.728969 -0.684546 -4
      vertex 0.637424 -0.770513 -4
    endloop
  endfacet
  facet normal 0.587782 0.809019 -0
    outer loop
      vertex -0.535827 -0.844327 -4
      vertex -0.637424 -0.770513 4
      vertex -0.535827 -0.844327 4
    endloop
  endfacet
  facet normal 0.587782 0.809019 0
    outer loop
      vertex -0.637424 -0.770513 4
      vertex -0.535827 -0.844327 -4
      vertex -0.637424 -0.770513 -4
    endloop
  endfacet
  facet normal 0.368129 0.929775 -0
    outer loop
      vertex -0.309016 -0.951056 -4
      vertex -0.425778 -0.904826 4
      vertex -0.309016 -0.951056 4
    endloop
  endfacet
  facet normal 0.368129 0.929775 0
    outer loop
      vertex -0.425778 -0.904826 4
      vertex -0.309016 -0.951056 -4
      vertex -0.425778 -0.904826 -4
    endloop
  endfacet
endsolid OpenSCAD_Model
