solid OpenSCAD_Model
  facet normal 0.998027 0.0627938 0
    outer loop
      vertex 21 0 28.5
      vertex 20.8344 2.632 -28.5
      vertex 20.8344 2.632 28.5
    endloop
  endfacet
  facet normal 0.998027 0.0627938 0
    outer loop
      vertex 20.8344 2.632 -28.5
      vertex 21 0 28.5
      vertex 21 0 -28.5
    endloop
  endfacet
  facet normal -0.998027 0.0627938 0
    outer loop
      vertex -21 0 -28.5
      vertex -20.8344 2.632 28.5
      vertex -20.8344 2.632 -28.5
    endloop
  endfacet
  facet normal -0.998027 0.0627938 0
    outer loop
      vertex -20.8344 2.632 28.5
      vertex -21 0 -28.5
      vertex -21 0 28.5
    endloop
  endfacet
  facet normal 0 1 -0
    outer loop
      vertex 1.3186 20.9586 -28.5
      vertex -1.3186 20.9586 28.5
      vertex 1.3186 20.9586 28.5
    endloop
  endfacet
  facet normal 0 1 0
    outer loop
      vertex -1.3186 20.9586 28.5
      vertex 1.3186 20.9586 -28.5
      vertex -1.3186 20.9586 -28.5
    endloop
  endfacet
  facet normal 0 -1 0
    outer loop
      vertex -1.3186 -20.9586 -28.5
      vertex 1.3186 -20.9586 28.5
      vertex -1.3186 -20.9586 28.5
    endloop
  endfacet
  facet normal 0 -1 -0
    outer loop
      vertex 1.3186 -20.9586 28.5
      vertex -1.3186 -20.9586 -28.5
      vertex 1.3186 -20.9586 -28.5
    endloop
  endfacet
  facet normal 0.684556 0.72896 -0
    outer loop
      vertex 15.3083 14.3755 -28.5
      vertex 13.3859 16.1808 28.5
      vertex 15.3083 14.3755 28.5
    endloop
  endfacet
  facet normal 0.684556 0.72896 0
    outer loop
      vertex 13.3859 16.1808 28.5
      vertex 15.3083 14.3755 -28.5
      vertex 13.3859 16.1808 -28.5
    endloop
  endfacet
  facet normal -0.684556 0.72896 0
    outer loop
      vertex -13.3859 16.1808 -28.5
      vertex -15.3083 14.3755 28.5
      vertex -13.3859 16.1808 28.5
    endloop
  endfacet
  facet normal -0.684556 0.72896 0
    outer loop
      vertex -15.3083 14.3755 28.5
      vertex -13.3859 16.1808 -28.5
      vertex -15.3083 14.3755 -28.5
    endloop
  endfacet
  facet normal -0.368119 0.929778 0
    outer loop
      vertex -6.48936 19.9722 -28.5
      vertex -8.94136 19.0014 28.5
      vertex -6.48936 19.9722 28.5
    endloop
  endfacet
  facet normal -0.368119 0.929778 0
    outer loop
      vertex -8.94136 19.0014 28.5
      vertex -6.48936 19.9722 -28.5
      vertex -8.94136 19.0014 -28.5
    endloop
  endfacet
  facet normal 0.904821 0.425793 0
    outer loop
      vertex 19.5253 7.73061 28.5
      vertex 18.4024 10.1168 -28.5
      vertex 18.4024 10.1168 28.5
    endloop
  endfacet
  facet normal 0.904821 0.425793 0
    outer loop
      vertex 18.4024 10.1168 -28.5
      vertex 19.5253 7.73061 28.5
      vertex 19.5253 7.73061 -28.5
    endloop
  endfacet
  facet normal 0.982285 0.187395 0
    outer loop
      vertex 20.8344 2.632 28.5
      vertex 20.3402 5.22249 -28.5
      vertex 20.3402 5.22249 28.5
    endloop
  endfacet
  facet normal 0.982285 0.187395 0
    outer loop
      vertex 20.3402 5.22249 -28.5
      vertex 20.8344 2.632 28.5
      vertex 20.8344 2.632 -28.5
    endloop
  endfacet
  facet normal 0.368119 0.929778 -0
    outer loop
      vertex 8.94136 19.0014 -28.5
      vertex 6.48936 19.9722 28.5
      vertex 8.94136 19.0014 28.5
    endloop
  endfacet
  facet normal 0.368119 0.929778 0
    outer loop
      vertex 6.48936 19.9722 28.5
      vertex 8.94136 19.0014 -28.5
      vertex 6.48936 19.9722 -28.5
    endloop
  endfacet
  facet normal 0.481752 0.876307 -0
    outer loop
      vertex 11.2524 17.7309 -28.5
      vertex 8.94136 19.0014 28.5
      vertex 11.2524 17.7309 28.5
    endloop
  endfacet
  facet normal 0.481752 0.876307 0
    outer loop
      vertex 8.94136 19.0014 28.5
      vertex 11.2524 17.7309 -28.5
      vertex 8.94136 19.0014 -28.5
    endloop
  endfacet
  facet normal -0.904821 0.425793 0
    outer loop
      vertex -19.5253 7.73061 -28.5
      vertex -18.4024 10.1168 28.5
      vertex -18.4024 10.1168 -28.5
    endloop
  endfacet
  facet normal -0.904821 0.425793 0
    outer loop
      vertex -18.4024 10.1168 28.5
      vertex -19.5253 7.73061 -28.5
      vertex -19.5253 7.73061 28.5
    endloop
  endfacet
  facet normal -0.951061 0.309004 0
    outer loop
      vertex -20.3402 5.22249 -28.5
      vertex -19.5253 7.73061 28.5
      vertex -19.5253 7.73061 -28.5
    endloop
  endfacet
  facet normal -0.951061 0.309004 0
    outer loop
      vertex -19.5253 7.73061 28.5
      vertex -20.3402 5.22249 -28.5
      vertex -20.3402 5.22249 28.5
    endloop
  endfacet
  facet normal -0.12536 0.992111 0
    outer loop
      vertex -1.3186 20.9586 -28.5
      vertex -3.93501 20.628 28.5
      vertex -1.3186 20.9586 28.5
    endloop
  endfacet
  facet normal -0.12536 0.992111 0
    outer loop
      vertex -3.93501 20.628 28.5
      vertex -1.3186 20.9586 -28.5
      vertex -3.93501 20.628 -28.5
    endloop
  endfacet
  facet normal 0.12536 -0.992111 0
    outer loop
      vertex 1.3186 -20.9586 -28.5
      vertex 3.93501 -20.628 28.5
      vertex 1.3186 -20.9586 28.5
    endloop
  endfacet
  facet normal 0.12536 -0.992111 0
    outer loop
      vertex 3.93501 -20.628 28.5
      vertex 1.3186 -20.9586 -28.5
      vertex 3.93501 -20.628 -28.5
    endloop
  endfacet
  facet normal 0.368119 -0.929778 0
    outer loop
      vertex 6.48936 -19.9722 -28.5
      vertex 8.94136 -19.0014 28.5
      vertex 6.48936 -19.9722 28.5
    endloop
  endfacet
  facet normal 0.368119 -0.929778 0
    outer loop
      vertex 8.94136 -19.0014 28.5
      vertex 6.48936 -19.9722 -28.5
      vertex 8.94136 -19.0014 -28.5
    endloop
  endfacet
  facet normal 0.951061 0.309004 0
    outer loop
      vertex 20.3402 5.22249 28.5
      vertex 19.5253 7.73061 -28.5
      vertex 19.5253 7.73061 28.5
    endloop
  endfacet
  facet normal 0.951061 0.309004 0
    outer loop
      vertex 19.5253 7.73061 -28.5
      vertex 20.3402 5.22249 28.5
      vertex 20.3402 5.22249 -28.5
    endloop
  endfacet
  facet normal 0.770498 0.637443 0
    outer loop
      vertex 16.9894 12.3435 28.5
      vertex 15.3083 14.3755 -28.5
      vertex 15.3083 14.3755 28.5
    endloop
  endfacet
  facet normal 0.770498 0.637443 0
    outer loop
      vertex 15.3083 14.3755 -28.5
      vertex 16.9894 12.3435 28.5
      vertex 16.9894 12.3435 -28.5
    endloop
  endfacet
  facet normal 0.844346 0.535798 0
    outer loop
      vertex 18.4024 10.1168 28.5
      vertex 16.9894 12.3435 -28.5
      vertex 16.9894 12.3435 28.5
    endloop
  endfacet
  facet normal 0.844346 0.535798 0
    outer loop
      vertex 16.9894 12.3435 -28.5
      vertex 18.4024 10.1168 28.5
      vertex 18.4024 10.1168 -28.5
    endloop
  endfacet
  facet normal 0.248674 0.968587 -0
    outer loop
      vertex 6.48936 19.9722 -28.5
      vertex 3.93501 20.628 28.5
      vertex 6.48936 19.9722 28.5
    endloop
  endfacet
  facet normal 0.248674 0.968587 0
    outer loop
      vertex 3.93501 20.628 28.5
      vertex 6.48936 19.9722 -28.5
      vertex 3.93501 20.628 -28.5
    endloop
  endfacet
  facet normal 0.12536 0.992111 -0
    outer loop
      vertex 3.93501 20.628 -28.5
      vertex 1.3186 20.9586 28.5
      vertex 3.93501 20.628 28.5
    endloop
  endfacet
  facet normal 0.12536 0.992111 0
    outer loop
      vertex 1.3186 20.9586 28.5
      vertex 3.93501 20.628 -28.5
      vertex 1.3186 20.9586 -28.5
    endloop
  endfacet
  facet normal 0.587791 0.809013 -0
    outer loop
      vertex 13.3859 16.1808 -28.5
      vertex 11.2524 17.7309 28.5
      vertex 13.3859 16.1808 28.5
    endloop
  endfacet
  facet normal 0.587791 0.809013 0
    outer loop
      vertex 11.2524 17.7309 28.5
      vertex 13.3859 16.1808 -28.5
      vertex 11.2524 17.7309 -28.5
    endloop
  endfacet
  facet normal -0.844346 0.535798 0
    outer loop
      vertex -18.4024 10.1168 -28.5
      vertex -16.9894 12.3435 28.5
      vertex -16.9894 12.3435 -28.5
    endloop
  endfacet
  facet normal -0.844346 0.535798 0
    outer loop
      vertex -16.9894 12.3435 28.5
      vertex -18.4024 10.1168 -28.5
      vertex -18.4024 10.1168 28.5
    endloop
  endfacet
  facet normal -0.770498 0.637443 0
    outer loop
      vertex -16.9894 12.3435 -28.5
      vertex -15.3083 14.3755 28.5
      vertex -15.3083 14.3755 -28.5
    endloop
  endfacet
  facet normal -0.770498 0.637443 0
    outer loop
      vertex -15.3083 14.3755 28.5
      vertex -16.9894 12.3435 -28.5
      vertex -16.9894 12.3435 28.5
    endloop
  endfacet
  facet normal -0.982285 0.187395 0
    outer loop
      vertex -20.8344 2.632 -28.5
      vertex -20.3402 5.22249 28.5
      vertex -20.3402 5.22249 -28.5
    endloop
  endfacet
  facet normal -0.982285 0.187395 0
    outer loop
      vertex -20.3402 5.22249 28.5
      vertex -20.8344 2.632 -28.5
      vertex -20.8344 2.632 28.5
    endloop
  endfacet
  facet normal 0 0 1
    outer loop
      vertex 2 0 28.5
      vertex 21 0 28.5
      vertex 20.8344 2.632 28.5
    endloop
  endfacet
  facet normal 0 0 1
    outer loop
      vertex 1.98423 0.250666 28.5
      vertex 20.8344 2.632 28.5
      vertex 20.3402 5.22249 28.5
    endloop
  endfacet
  facet normal 0 0 1
    outer loop
      vertex 21 0 28.5
      vertex 2 0 28.5
      vertex 20.8344 -2.632 28.5
    endloop
  endfacet
  facet normal 0 0 1
    outer loop
      vertex 1.93717 0.497379 28.5
      vertex 20.3402 5.22249 28.5
      vertex 19.5253 7.73061 28.5
    endloop
  endfacet
  facet normal -0 0 1
    outer loop
      vertex 1.98423 -0.250666 28.5
      vertex 20.8344 -2.632 28.5
      vertex 2 0 28.5
    endloop
  endfacet
  facet normal 0 0 1
    outer loop
      vertex 1.85955 0.736249 28.5
      vertex 19.5253 7.73061 28.5
      vertex 18.4024 10.1168 28.5
    endloop
  endfacet
  facet normal 0 0 1
    outer loop
      vertex 20.8344 -2.632 28.5
      vertex 1.98423 -0.250666 28.5
      vertex 20.3402 -5.22249 28.5
    endloop
  endfacet
  facet normal 0 0 1
    outer loop
      vertex 1.75261 0.963507 28.5
      vertex 18.4024 10.1168 28.5
      vertex 16.9894 12.3435 28.5
    endloop
  endfacet
  facet normal -0 0 1
    outer loop
      vertex 1.93717 -0.497379 28.5
      vertex 20.3402 -5.22249 28.5
      vertex 1.98423 -0.250666 28.5
    endloop
  endfacet
  facet normal 0 0 1
    outer loop
      vertex 1.61803 1.17557 28.5
      vertex 16.9894 12.3435 28.5
      vertex 15.3083 14.3755 28.5
    endloop
  endfacet
  facet normal 0 0 1
    outer loop
      vertex 20.3402 -5.22249 28.5
      vertex 1.93717 -0.497379 28.5
      vertex 19.5253 -7.73061 28.5
    endloop
  endfacet
  facet normal 0 0 1
    outer loop
      vertex 1.45794 1.36909 28.5
      vertex 15.3083 14.3755 28.5
      vertex 13.3859 16.1808 28.5
    endloop
  endfacet
  facet normal -0 0 1
    outer loop
      vertex 1.85955 -0.736249 28.5
      vertex 19.5253 -7.73061 28.5
      vertex 1.93717 -0.497379 28.5
    endloop
  endfacet
  facet normal 0 0 1
    outer loop
      vertex 1.27485 1.54103 28.5
      vertex 13.3859 16.1808 28.5
      vertex 11.2524 17.7309 28.5
    endloop
  endfacet
  facet normal 0 0 1
    outer loop
      vertex 19.5253 -7.73061 28.5
      vertex 1.85955 -0.736249 28.5
      vertex 18.4024 -10.1168 28.5
    endloop
  endfacet
  facet normal 0 0 1
    outer loop
      vertex 1.07165 1.68865 28.5
      vertex 11.2524 17.7309 28.5
      vertex 8.94136 19.0014 28.5
    endloop
  endfacet
  facet normal -0 0 1
    outer loop
      vertex 1.75261 -0.963507 28.5
      vertex 18.4024 -10.1168 28.5
      vertex 1.85955 -0.736249 28.5
    endloop
  endfacet
  facet normal 0 0 1
    outer loop
      vertex 0.851558 1.80965 28.5
      vertex 8.94136 19.0014 28.5
      vertex 6.48936 19.9722 28.5
    endloop
  endfacet
  facet normal 0 0 1
    outer loop
      vertex 18.4024 -10.1168 28.5
      vertex 1.75261 -0.963507 28.5
      vertex 16.9894 -12.3435 28.5
    endloop
  endfacet
  facet normal 0 0 1
    outer loop
      vertex 0.618033 1.90211 28.5
      vertex 6.48936 19.9722 28.5
      vertex 3.93501 20.628 28.5
    endloop
  endfacet
  facet normal -0 0 1
    outer loop
      vertex 1.61803 -1.17557 28.5
      vertex 16.9894 -12.3435 28.5
      vertex 1.75261 -0.963507 28.5
    endloop
  endfacet
  facet normal 0 0 1
    outer loop
      vertex 16.9894 -12.3435 28.5
      vertex 1.61803 -1.17557 28.5
      vertex 15.3083 -14.3755 28.5
    endloop
  endfacet
  facet normal 0 0 1
    outer loop
      vertex 20.8344 2.632 28.5
      vertex 1.98423 0.250666 28.5
      vertex 2 0 28.5
    endloop
  endfacet
  facet normal 0 0 1
    outer loop
      vertex 20.3402 5.22249 28.5
      vertex 1.93717 0.497379 28.5
      vertex 1.98423 0.250666 28.5
    endloop
  endfacet
  facet normal 0 0 1
    outer loop
      vertex 19.5253 7.73061 28.5
      vertex 1.85955 0.736249 28.5
      vertex 1.93717 0.497379 28.5
    endloop
  endfacet
  facet normal 0 0 1
    outer loop
      vertex 18.4024 10.1168 28.5
      vertex 1.75261 0.963507 28.5
      vertex 1.85955 0.736249 28.5
    endloop
  endfacet
  facet normal 0 0 1
    outer loop
      vertex 16.9894 12.3435 28.5
      vertex 1.61803 1.17557 28.5
      vertex 1.75261 0.963507 28.5
    endloop
  endfacet
  facet normal 0 0 1
    outer loop
      vertex 15.3083 14.3755 28.5
      vertex 1.45794 1.36909 28.5
      vertex 1.61803 1.17557 28.5
    endloop
  endfacet
  facet normal 0 0 1
    outer loop
      vertex 0.374763 1.96457 28.5
      vertex 3.93501 20.628 28.5
      vertex 1.3186 20.9586 28.5
    endloop
  endfacet
  facet normal 0 0 1
    outer loop
      vertex 13.3859 16.1808 28.5
      vertex 1.27485 1.54103 28.5
      vertex 1.45794 1.36909 28.5
    endloop
  endfacet
  facet normal 0 0 1
    outer loop
      vertex 11.2524 17.7309 28.5
      vertex 1.07165 1.68865 28.5
      vertex 1.27485 1.54103 28.5
    endloop
  endfacet
  facet normal 0 0 1
    outer loop
      vertex 8.94136 19.0014 28.5
      vertex 0.851558 1.80965 28.5
      vertex 1.07165 1.68865 28.5
    endloop
  endfacet
  facet normal 0 0 1
    outer loop
      vertex 6.48936 19.9722 28.5
      vertex 0.618033 1.90211 28.5
      vertex 0.851558 1.80965 28.5
    endloop
  endfacet
  facet normal 0 0 1
    outer loop
      vertex 3.93501 20.628 28.5
      vertex 0.374763 1.96457 28.5
      vertex 0.618033 1.90211 28.5
    endloop
  endfacet
  facet normal 0 0 1
    outer loop
      vertex 1.3186 20.9586 28.5
      vertex 0.125581 1.99605 28.5
      vertex 0.374763 1.96457 28.5
    endloop
  endfacet
  facet normal 0 0 1
    outer loop
      vertex 1.3186 20.9586 28.5
      vertex -0.125581 1.99605 28.5
      vertex 0.125581 1.99605 28.5
    endloop
  endfacet
  facet normal -0 0 1
    outer loop
      vertex -1.3186 20.9586 28.5
      vertex -0.125581 1.99605 28.5
      vertex 1.3186 20.9586 28.5
    endloop
  endfacet
  facet normal 0 0 1
    outer loop
      vertex -0.125581 1.99605 28.5
      vertex -1.3186 20.9586 28.5
      vertex -0.374763 1.96457 28.5
    endloop
  endfacet
  facet normal -0 0 1
    outer loop
      vertex -3.93501 20.628 28.5
      vertex -0.374763 1.96457 28.5
      vertex -1.3186 20.9586 28.5
    endloop
  endfacet
  facet normal 0 0 1
    outer loop
      vertex -0.374763 1.96457 28.5
      vertex -3.93501 20.628 28.5
      vertex -0.618033 1.90211 28.5
    endloop
  endfacet
  facet normal -0 0 1
    outer loop
      vertex -6.48936 19.9722 28.5
      vertex -0.618033 1.90211 28.5
      vertex -3.93501 20.628 28.5
    endloop
  endfacet
  facet normal 0 0 1
    outer loop
      vertex -0.618033 1.90211 28.5
      vertex -6.48936 19.9722 28.5
      vertex -0.851558 1.80965 28.5
    endloop
  endfacet
  facet normal -0 0 1
    outer loop
      vertex -8.94136 19.0014 28.5
      vertex -0.851558 1.80965 28.5
      vertex -6.48936 19.9722 28.5
    endloop
  endfacet
  facet normal 0 0 1
    outer loop
      vertex -0.851558 1.80965 28.5
      vertex -8.94136 19.0014 28.5
      vertex -1.07165 1.68865 28.5
    endloop
  endfacet
  facet normal -0 0 1
    outer loop
      vertex -11.2524 17.7309 28.5
      vertex -1.07165 1.68865 28.5
      vertex -8.94136 19.0014 28.5
    endloop
  endfacet
  facet normal 0 0 1
    outer loop
      vertex -1.07165 1.68865 28.5
      vertex -11.2524 17.7309 28.5
      vertex -1.27485 1.54103 28.5
    endloop
  endfacet
  facet normal -0 0 1
    outer loop
      vertex -13.3859 16.1808 28.5
      vertex -1.27485 1.54103 28.5
      vertex -11.2524 17.7309 28.5
    endloop
  endfacet
  facet normal 0 0 1
    outer loop
      vertex -1.27485 1.54103 28.5
      vertex -13.3859 16.1808 28.5
      vertex -1.45794 1.36909 28.5
    endloop
  endfacet
  facet normal -0 0 1
    outer loop
      vertex -15.3083 14.3755 28.5
      vertex -1.45794 1.36909 28.5
      vertex -13.3859 16.1808 28.5
    endloop
  endfacet
  facet normal 0 0 1
    outer loop
      vertex -1.45794 1.36909 28.5
      vertex -15.3083 14.3755 28.5
      vertex -1.61803 1.17557 28.5
    endloop
  endfacet
  facet normal -0 0 1
    outer loop
      vertex 1.45794 -1.36909 28.5
      vertex 15.3083 -14.3755 28.5
      vertex 1.61803 -1.17557 28.5
    endloop
  endfacet
  facet normal 0 0 1
    outer loop
      vertex 15.3083 -14.3755 28.5
      vertex 1.45794 -1.36909 28.5
      vertex 13.3859 -16.1808 28.5
    endloop
  endfacet
  facet normal -0 0 1
    outer loop
      vertex 1.27485 -1.54103 28.5
      vertex 13.3859 -16.1808 28.5
      vertex 1.45794 -1.36909 28.5
    endloop
  endfacet
  facet normal 0 0 1
    outer loop
      vertex 13.3859 -16.1808 28.5
      vertex 1.27485 -1.54103 28.5
      vertex 11.2524 -17.7309 28.5
    endloop
  endfacet
  facet normal -0 0 1
    outer loop
      vertex 1.07165 -1.68865 28.5
      vertex 11.2524 -17.7309 28.5
      vertex 1.27485 -1.54103 28.5
    endloop
  endfacet
  facet normal 0 0 1
    outer loop
      vertex 11.2524 -17.7309 28.5
      vertex 1.07165 -1.68865 28.5
      vertex 8.94136 -19.0014 28.5
    endloop
  endfacet
  facet normal -0 0 1
    outer loop
      vertex 0.851558 -1.80965 28.5
      vertex 8.94136 -19.0014 28.5
      vertex 1.07165 -1.68865 28.5
    endloop
  endfacet
  facet normal 0 0 1
    outer loop
      vertex 8.94136 -19.0014 28.5
      vertex 0.851558 -1.80965 28.5
      vertex 6.48936 -19.9722 28.5
    endloop
  endfacet
  facet normal -0 0 1
    outer loop
      vertex 0.618033 -1.90211 28.5
      vertex 6.48936 -19.9722 28.5
      vertex 0.851558 -1.80965 28.5
    endloop
  endfacet
  facet normal 0 0 1
    outer loop
      vertex 6.48936 -19.9722 28.5
      vertex 0.618033 -1.90211 28.5
      vertex 3.93501 -20.628 28.5
    endloop
  endfacet
  facet normal -0 0 1
    outer loop
      vertex 0.374763 -1.96457 28.5
      vertex 3.93501 -20.628 28.5
      vertex 0.618033 -1.90211 28.5
    endloop
  endfacet
  facet normal 0 0 1
    outer loop
      vertex 3.93501 -20.628 28.5
      vertex 0.374763 -1.96457 28.5
      vertex 1.3186 -20.9586 28.5
    endloop
  endfacet
  facet normal -0 0 1
    outer loop
      vertex 0.125581 -1.99605 28.5
      vertex 1.3186 -20.9586 28.5
      vertex 0.374763 -1.96457 28.5
    endloop
  endfacet
  facet normal -0 0 1
    outer loop
      vertex -0.125581 -1.99605 28.5
      vertex 1.3186 -20.9586 28.5
      vertex 0.125581 -1.99605 28.5
    endloop
  endfacet
  facet normal 0 0 1
    outer loop
      vertex -1.3186 -20.9586 28.5
      vertex -0.125581 -1.99605 28.5
      vertex -0.374763 -1.96457 28.5
    endloop
  endfacet
  facet normal 0 0 1
    outer loop
      vertex -3.93501 -20.628 28.5
      vertex -0.374763 -1.96457 28.5
      vertex -0.618033 -1.90211 28.5
    endloop
  endfacet
  facet normal 0 0 1
    outer loop
      vertex -6.48936 -19.9722 28.5
      vertex -0.618033 -1.90211 28.5
      vertex -0.851558 -1.80965 28.5
    endloop
  endfacet
  facet normal 0 0 1
    outer loop
      vertex -8.94136 -19.0014 28.5
      vertex -0.851558 -1.80965 28.5
      vertex -1.07165 -1.68865 28.5
    endloop
  endfacet
  facet normal 0 0 1
    outer loop
      vertex -11.2524 -17.7309 28.5
      vertex -1.07165 -1.68865 28.5
      vertex -1.27485 -1.54103 28.5
    endloop
  endfacet
  facet normal 0 0 1
    outer loop
      vertex -0.125581 -1.99605 28.5
      vertex -1.3186 -20.9586 28.5
      vertex 1.3186 -20.9586 28.5
    endloop
  endfacet
  facet normal 0 0 1
    outer loop
      vertex -13.3859 -16.1808 28.5
      vertex -1.27485 -1.54103 28.5
      vertex -1.45794 -1.36909 28.5
    endloop
  endfacet
  facet normal 0 0 1
    outer loop
      vertex -15.3083 -14.3755 28.5
      vertex -1.45794 -1.36909 28.5
      vertex -1.61803 -1.17557 28.5
    endloop
  endfacet
  facet normal 0 0 1
    outer loop
      vertex -16.9894 -12.3435 28.5
      vertex -1.61803 -1.17557 28.5
      vertex -1.75261 -0.963507 28.5
    endloop
  endfacet
  facet normal 0 0 1
    outer loop
      vertex -18.4024 -10.1168 28.5
      vertex -1.75261 -0.963507 28.5
      vertex -1.85955 -0.736249 28.5
    endloop
  endfacet
  facet normal 0 0 1
    outer loop
      vertex -19.5253 -7.73061 28.5
      vertex -1.85955 -0.736249 28.5
      vertex -1.93717 -0.497379 28.5
    endloop
  endfacet
  facet normal 0 0 1
    outer loop
      vertex -20.3402 -5.22249 28.5
      vertex -1.93717 -0.497379 28.5
      vertex -1.98423 -0.250666 28.5
    endloop
  endfacet
  facet normal 0 0 1
    outer loop
      vertex -20.8344 -2.632 28.5
      vertex -1.98423 -0.250666 28.5
      vertex -2 0 28.5
    endloop
  endfacet
  facet normal -0 0 1
    outer loop
      vertex -16.9894 12.3435 28.5
      vertex -1.61803 1.17557 28.5
      vertex -15.3083 14.3755 28.5
    endloop
  endfacet
  facet normal 0 0 1
    outer loop
      vertex -0.374763 -1.96457 28.5
      vertex -3.93501 -20.628 28.5
      vertex -1.3186 -20.9586 28.5
    endloop
  endfacet
  facet normal 0 0 1
    outer loop
      vertex -1.61803 1.17557 28.5
      vertex -16.9894 12.3435 28.5
      vertex -1.75261 0.963507 28.5
    endloop
  endfacet
  facet normal 0 0 1
    outer loop
      vertex -0.618033 -1.90211 28.5
      vertex -6.48936 -19.9722 28.5
      vertex -3.93501 -20.628 28.5
    endloop
  endfacet
  facet normal -0 0 1
    outer loop
      vertex -18.4024 10.1168 28.5
      vertex -1.75261 0.963507 28.5
      vertex -16.9894 12.3435 28.5
    endloop
  endfacet
  facet normal 0 0 1
    outer loop
      vertex -0.851558 -1.80965 28.5
      vertex -8.94136 -19.0014 28.5
      vertex -6.48936 -19.9722 28.5
    endloop
  endfacet
  facet normal 0 0 1
    outer loop
      vertex -1.75261 0.963507 28.5
      vertex -18.4024 10.1168 28.5
      vertex -1.85955 0.736249 28.5
    endloop
  endfacet
  facet normal 0 0 1
    outer loop
      vertex -1.07165 -1.68865 28.5
      vertex -11.2524 -17.7309 28.5
      vertex -8.94136 -19.0014 28.5
    endloop
  endfacet
  facet normal -0 0 1
    outer loop
      vertex -19.5253 7.73061 28.5
      vertex -1.85955 0.736249 28.5
      vertex -18.4024 10.1168 28.5
    endloop
  endfacet
  facet normal 0 0 1
    outer loop
      vertex -1.27485 -1.54103 28.5
      vertex -13.3859 -16.1808 28.5
      vertex -11.2524 -17.7309 28.5
    endloop
  endfacet
  facet normal 0 0 1
    outer loop
      vertex -1.85955 0.736249 28.5
      vertex -19.5253 7.73061 28.5
      vertex -1.93717 0.497379 28.5
    endloop
  endfacet
  facet normal 0 0 1
    outer loop
      vertex -1.45794 -1.36909 28.5
      vertex -15.3083 -14.3755 28.5
      vertex -13.3859 -16.1808 28.5
    endloop
  endfacet
  facet normal -0 0 1
    outer loop
      vertex -20.3402 5.22249 28.5
      vertex -1.93717 0.497379 28.5
      vertex -19.5253 7.73061 28.5
    endloop
  endfacet
  facet normal 0 0 1
    outer loop
      vertex -1.61803 -1.17557 28.5
      vertex -16.9894 -12.3435 28.5
      vertex -15.3083 -14.3755 28.5
    endloop
  endfacet
  facet normal 0 0 1
    outer loop
      vertex -1.93717 0.497379 28.5
      vertex -20.3402 5.22249 28.5
      vertex -1.98423 0.250666 28.5
    endloop
  endfacet
  facet normal 0 0 1
    outer loop
      vertex -1.75261 -0.963507 28.5
      vertex -18.4024 -10.1168 28.5
      vertex -16.9894 -12.3435 28.5
    endloop
  endfacet
  facet normal -0 0 1
    outer loop
      vertex -20.8344 2.632 28.5
      vertex -1.98423 0.250666 28.5
      vertex -20.3402 5.22249 28.5
    endloop
  endfacet
  facet normal 0 0 1
    outer loop
      vertex -1.85955 -0.736249 28.5
      vertex -19.5253 -7.73061 28.5
      vertex -18.4024 -10.1168 28.5
    endloop
  endfacet
  facet normal 0 0 1
    outer loop
      vertex -1.98423 0.250666 28.5
      vertex -20.8344 2.632 28.5
      vertex -2 0 28.5
    endloop
  endfacet
  facet normal 0 0 1
    outer loop
      vertex -1.93717 -0.497379 28.5
      vertex -20.3402 -5.22249 28.5
      vertex -19.5253 -7.73061 28.5
    endloop
  endfacet
  facet normal 0 0 1
    outer loop
      vertex -21 0 28.5
      vertex -2 0 28.5
      vertex -20.8344 2.632 28.5
    endloop
  endfacet
  facet normal 0 0 1
    outer loop
      vertex -1.98423 -0.250666 28.5
      vertex -20.8344 -2.632 28.5
      vertex -20.3402 -5.22249 28.5
    endloop
  endfacet
  facet normal 0 0 1
    outer loop
      vertex -2 0 28.5
      vertex -21 0 28.5
      vertex -20.8344 -2.632 28.5
    endloop
  endfacet
  facet normal -0.481752 0.876307 0
    outer loop
      vertex -8.94136 19.0014 -28.5
      vertex -11.2524 17.7309 28.5
      vertex -8.94136 19.0014 28.5
    endloop
  endfacet
  facet normal -0.481752 0.876307 0
    outer loop
      vertex -11.2524 17.7309 28.5
      vertex -8.94136 19.0014 -28.5
      vertex -11.2524 17.7309 -28.5
    endloop
  endfacet
  facet normal -0.587791 0.809013 0
    outer loop
      vertex -11.2524 17.7309 -28.5
      vertex -13.3859 16.1808 28.5
      vertex -11.2524 17.7309 28.5
    endloop
  endfacet
  facet normal -0.587791 0.809013 0
    outer loop
      vertex -13.3859 16.1808 28.5
      vertex -11.2524 17.7309 -28.5
      vertex -13.3859 16.1808 -28.5
    endloop
  endfacet
  facet normal -0.248674 0.968587 0
    outer loop
      vertex -3.93501 20.628 -28.5
      vertex -6.48936 19.9722 28.5
      vertex -3.93501 20.628 28.5
    endloop
  endfacet
  facet normal -0.248674 0.968587 0
    outer loop
      vertex -6.48936 19.9722 28.5
      vertex -3.93501 20.628 -28.5
      vertex -6.48936 19.9722 -28.5
    endloop
  endfacet
  facet normal 0.998027 -0.0627938 0
    outer loop
      vertex 20.8344 -2.632 28.5
      vertex 21 0 -28.5
      vertex 21 0 28.5
    endloop
  endfacet
  facet normal 0.998027 -0.0627938 0
    outer loop
      vertex 21 0 -28.5
      vertex 20.8344 -2.632 28.5
      vertex 20.8344 -2.632 -28.5
    endloop
  endfacet
  facet normal 0.481752 -0.876307 0
    outer loop
      vertex 8.94136 -19.0014 -28.5
      vertex 11.2524 -17.7309 28.5
      vertex 8.94136 -19.0014 28.5
    endloop
  endfacet
  facet normal 0.481752 -0.876307 0
    outer loop
      vertex 11.2524 -17.7309 28.5
      vertex 8.94136 -19.0014 -28.5
      vertex 11.2524 -17.7309 -28.5
    endloop
  endfacet
  facet normal 0.684556 -0.72896 0
    outer loop
      vertex 13.3859 -16.1808 -28.5
      vertex 15.3083 -14.3755 28.5
      vertex 13.3859 -16.1808 28.5
    endloop
  endfacet
  facet normal 0.684556 -0.72896 0
    outer loop
      vertex 15.3083 -14.3755 28.5
      vertex 13.3859 -16.1808 -28.5
      vertex 15.3083 -14.3755 -28.5
    endloop
  endfacet
  facet normal 0.982285 -0.187395 0
    outer loop
      vertex 20.3402 -5.22249 28.5
      vertex 20.8344 -2.632 -28.5
      vertex 20.8344 -2.632 28.5
    endloop
  endfacet
  facet normal 0.982285 -0.187395 0
    outer loop
      vertex 20.8344 -2.632 -28.5
      vertex 20.3402 -5.22249 28.5
      vertex 20.3402 -5.22249 -28.5
    endloop
  endfacet
  facet normal 0 0 -1
    outer loop
      vertex 2 0 -28.5
      vertex 21 0 -28.5
      vertex 20.8344 -2.632 -28.5
    endloop
  endfacet
  facet normal 0 0 -1
    outer loop
      vertex 1.98423 -0.250666 -28.5
      vertex 20.8344 -2.632 -28.5
      vertex 20.3402 -5.22249 -28.5
    endloop
  endfacet
  facet normal 0 0 -1
    outer loop
      vertex 21 0 -28.5
      vertex 2 0 -28.5
      vertex 20.8344 2.632 -28.5
    endloop
  endfacet
  facet normal 0 0 -1
    outer loop
      vertex 1.93717 -0.497379 -28.5
      vertex 20.3402 -5.22249 -28.5
      vertex 19.5253 -7.73061 -28.5
    endloop
  endfacet
  facet normal 0 0 -1
    outer loop
      vertex 1.98423 0.250666 -28.5
      vertex 20.8344 2.632 -28.5
      vertex 2 0 -28.5
    endloop
  endfacet
  facet normal 0 0 -1
    outer loop
      vertex 1.85955 -0.736249 -28.5
      vertex 19.5253 -7.73061 -28.5
      vertex 18.4024 -10.1168 -28.5
    endloop
  endfacet
  facet normal -0 0 -1
    outer loop
      vertex 20.8344 2.632 -28.5
      vertex 1.98423 0.250666 -28.5
      vertex 20.3402 5.22249 -28.5
    endloop
  endfacet
  facet normal 0 0 -1
    outer loop
      vertex 1.75261 -0.963507 -28.5
      vertex 18.4024 -10.1168 -28.5
      vertex 16.9894 -12.3435 -28.5
    endloop
  endfacet
  facet normal 0 0 -1
    outer loop
      vertex 1.93717 0.497379 -28.5
      vertex 20.3402 5.22249 -28.5
      vertex 1.98423 0.250666 -28.5
    endloop
  endfacet
  facet normal 0 0 -1
    outer loop
      vertex 1.61803 -1.17557 -28.5
      vertex 16.9894 -12.3435 -28.5
      vertex 15.3083 -14.3755 -28.5
    endloop
  endfacet
  facet normal -0 0 -1
    outer loop
      vertex 20.3402 5.22249 -28.5
      vertex 1.93717 0.497379 -28.5
      vertex 19.5253 7.73061 -28.5
    endloop
  endfacet
  facet normal 0 0 -1
    outer loop
      vertex 1.45794 -1.36909 -28.5
      vertex 15.3083 -14.3755 -28.5
      vertex 13.3859 -16.1808 -28.5
    endloop
  endfacet
  facet normal 0 0 -1
    outer loop
      vertex 1.85955 0.736249 -28.5
      vertex 19.5253 7.73061 -28.5
      vertex 1.93717 0.497379 -28.5
    endloop
  endfacet
  facet normal 0 0 -1
    outer loop
      vertex 1.27485 -1.54103 -28.5
      vertex 13.3859 -16.1808 -28.5
      vertex 11.2524 -17.7309 -28.5
    endloop
  endfacet
  facet normal -0 0 -1
    outer loop
      vertex 19.5253 7.73061 -28.5
      vertex 1.85955 0.736249 -28.5
      vertex 18.4024 10.1168 -28.5
    endloop
  endfacet
  facet normal 0 0 -1
    outer loop
      vertex 1.07165 -1.68865 -28.5
      vertex 11.2524 -17.7309 -28.5
      vertex 8.94136 -19.0014 -28.5
    endloop
  endfacet
  facet normal 0 0 -1
    outer loop
      vertex 1.75261 0.963507 -28.5
      vertex 18.4024 10.1168 -28.5
      vertex 1.85955 0.736249 -28.5
    endloop
  endfacet
  facet normal 0 0 -1
    outer loop
      vertex 0.851558 -1.80965 -28.5
      vertex 8.94136 -19.0014 -28.5
      vertex 6.48936 -19.9722 -28.5
    endloop
  endfacet
  facet normal -0 0 -1
    outer loop
      vertex 18.4024 10.1168 -28.5
      vertex 1.75261 0.963507 -28.5
      vertex 16.9894 12.3435 -28.5
    endloop
  endfacet
  facet normal 0 0 -1
    outer loop
      vertex 0.618033 -1.90211 -28.5
      vertex 6.48936 -19.9722 -28.5
      vertex 3.93501 -20.628 -28.5
    endloop
  endfacet
  facet normal 0 0 -1
    outer loop
      vertex 1.61803 1.17557 -28.5
      vertex 16.9894 12.3435 -28.5
      vertex 1.75261 0.963507 -28.5
    endloop
  endfacet
  facet normal -0 0 -1
    outer loop
      vertex 16.9894 12.3435 -28.5
      vertex 1.61803 1.17557 -28.5
      vertex 15.3083 14.3755 -28.5
    endloop
  endfacet
  facet normal 0 0 -1
    outer loop
      vertex 20.8344 -2.632 -28.5
      vertex 1.98423 -0.250666 -28.5
      vertex 2 0 -28.5
    endloop
  endfacet
  facet normal 0 0 -1
    outer loop
      vertex 20.3402 -5.22249 -28.5
      vertex 1.93717 -0.497379 -28.5
      vertex 1.98423 -0.250666 -28.5
    endloop
  endfacet
  facet normal 0 0 -1
    outer loop
      vertex 19.5253 -7.73061 -28.5
      vertex 1.85955 -0.736249 -28.5
      vertex 1.93717 -0.497379 -28.5
    endloop
  endfacet
  facet normal 0 0 -1
    outer loop
      vertex 18.4024 -10.1168 -28.5
      vertex 1.75261 -0.963507 -28.5
      vertex 1.85955 -0.736249 -28.5
    endloop
  endfacet
  facet normal 0 0 -1
    outer loop
      vertex 16.9894 -12.3435 -28.5
      vertex 1.61803 -1.17557 -28.5
      vertex 1.75261 -0.963507 -28.5
    endloop
  endfacet
  facet normal 0 0 -1
    outer loop
      vertex 15.3083 -14.3755 -28.5
      vertex 1.45794 -1.36909 -28.5
      vertex 1.61803 -1.17557 -28.5
    endloop
  endfacet
  facet normal 0 0 -1
    outer loop
      vertex 0.374763 -1.96457 -28.5
      vertex 3.93501 -20.628 -28.5
      vertex 1.3186 -20.9586 -28.5
    endloop
  endfacet
  facet normal 0 0 -1
    outer loop
      vertex 13.3859 -16.1808 -28.5
      vertex 1.27485 -1.54103 -28.5
      vertex 1.45794 -1.36909 -28.5
    endloop
  endfacet
  facet normal 0 0 -1
    outer loop
      vertex 11.2524 -17.7309 -28.5
      vertex 1.07165 -1.68865 -28.5
      vertex 1.27485 -1.54103 -28.5
    endloop
  endfacet
  facet normal 0 0 -1
    outer loop
      vertex 8.94136 -19.0014 -28.5
      vertex 0.851558 -1.80965 -28.5
      vertex 1.07165 -1.68865 -28.5
    endloop
  endfacet
  facet normal 0 0 -1
    outer loop
      vertex 6.48936 -19.9722 -28.5
      vertex 0.618033 -1.90211 -28.5
      vertex 0.851558 -1.80965 -28.5
    endloop
  endfacet
  facet normal 0 0 -1
    outer loop
      vertex 3.93501 -20.628 -28.5
      vertex 0.374763 -1.96457 -28.5
      vertex 0.618033 -1.90211 -28.5
    endloop
  endfacet
  facet normal 0 0 -1
    outer loop
      vertex 1.3186 -20.9586 -28.5
      vertex 0.125581 -1.99605 -28.5
      vertex 0.374763 -1.96457 -28.5
    endloop
  endfacet
  facet normal 0 0 -1
    outer loop
      vertex 1.3186 -20.9586 -28.5
      vertex -0.125581 -1.99605 -28.5
      vertex 0.125581 -1.99605 -28.5
    endloop
  endfacet
  facet normal 0 0 -1
    outer loop
      vertex -1.3186 -20.9586 -28.5
      vertex -0.125581 -1.99605 -28.5
      vertex 1.3186 -20.9586 -28.5
    endloop
  endfacet
  facet normal -0 0 -1
    outer loop
      vertex -0.125581 -1.99605 -28.5
      vertex -1.3186 -20.9586 -28.5
      vertex -0.374763 -1.96457 -28.5
    endloop
  endfacet
  facet normal 0 0 -1
    outer loop
      vertex -3.93501 -20.628 -28.5
      vertex -0.374763 -1.96457 -28.5
      vertex -1.3186 -20.9586 -28.5
    endloop
  endfacet
  facet normal -0 0 -1
    outer loop
      vertex -0.374763 -1.96457 -28.5
      vertex -3.93501 -20.628 -28.5
      vertex -0.618033 -1.90211 -28.5
    endloop
  endfacet
  facet normal 0 0 -1
    outer loop
      vertex -6.48936 -19.9722 -28.5
      vertex -0.618033 -1.90211 -28.5
      vertex -3.93501 -20.628 -28.5
    endloop
  endfacet
  facet normal -0 0 -1
    outer loop
      vertex -0.618033 -1.90211 -28.5
      vertex -6.48936 -19.9722 -28.5
      vertex -0.851558 -1.80965 -28.5
    endloop
  endfacet
  facet normal 0 0 -1
    outer loop
      vertex -8.94136 -19.0014 -28.5
      vertex -0.851558 -1.80965 -28.5
      vertex -6.48936 -19.9722 -28.5
    endloop
  endfacet
  facet normal -0 0 -1
    outer loop
      vertex -0.851558 -1.80965 -28.5
      vertex -8.94136 -19.0014 -28.5
      vertex -1.07165 -1.68865 -28.5
    endloop
  endfacet
  facet normal 0 0 -1
    outer loop
      vertex -11.2524 -17.7309 -28.5
      vertex -1.07165 -1.68865 -28.5
      vertex -8.94136 -19.0014 -28.5
    endloop
  endfacet
  facet normal -0 0 -1
    outer loop
      vertex -1.07165 -1.68865 -28.5
      vertex -11.2524 -17.7309 -28.5
      vertex -1.27485 -1.54103 -28.5
    endloop
  endfacet
  facet normal 0 0 -1
    outer loop
      vertex -13.3859 -16.1808 -28.5
      vertex -1.27485 -1.54103 -28.5
      vertex -11.2524 -17.7309 -28.5
    endloop
  endfacet
  facet normal -0 0 -1
    outer loop
      vertex -1.27485 -1.54103 -28.5
      vertex -13.3859 -16.1808 -28.5
      vertex -1.45794 -1.36909 -28.5
    endloop
  endfacet
  facet normal 0 0 -1
    outer loop
      vertex -15.3083 -14.3755 -28.5
      vertex -1.45794 -1.36909 -28.5
      vertex -13.3859 -16.1808 -28.5
    endloop
  endfacet
  facet normal -0 0 -1
    outer loop
      vertex -1.45794 -1.36909 -28.5
      vertex -15.3083 -14.3755 -28.5
      vertex -1.61803 -1.17557 -28.5
    endloop
  endfacet
  facet normal 0 0 -1
    outer loop
      vertex 1.45794 1.36909 -28.5
      vertex 15.3083 14.3755 -28.5
      vertex 1.61803 1.17557 -28.5
    endloop
  endfacet
  facet normal -0 0 -1
    outer loop
      vertex 15.3083 14.3755 -28.5
      vertex 1.45794 1.36909 -28.5
      vertex 13.3859 16.1808 -28.5
    endloop
  endfacet
  facet normal 0 0 -1
    outer loop
      vertex 1.27485 1.54103 -28.5
      vertex 13.3859 16.1808 -28.5
      vertex 1.45794 1.36909 -28.5
    endloop
  endfacet
  facet normal -0 0 -1
    outer loop
      vertex 13.3859 16.1808 -28.5
      vertex 1.27485 1.54103 -28.5
      vertex 11.2524 17.7309 -28.5
    endloop
  endfacet
  facet normal 0 0 -1
    outer loop
      vertex 1.07165 1.68865 -28.5
      vertex 11.2524 17.7309 -28.5
      vertex 1.27485 1.54103 -28.5
    endloop
  endfacet
  facet normal -0 0 -1
    outer loop
      vertex 11.2524 17.7309 -28.5
      vertex 1.07165 1.68865 -28.5
      vertex 8.94136 19.0014 -28.5
    endloop
  endfacet
  facet normal 0 0 -1
    outer loop
      vertex 0.851558 1.80965 -28.5
      vertex 8.94136 19.0014 -28.5
      vertex 1.07165 1.68865 -28.5
    endloop
  endfacet
  facet normal -0 0 -1
    outer loop
      vertex 8.94136 19.0014 -28.5
      vertex 0.851558 1.80965 -28.5
      vertex 6.48936 19.9722 -28.5
    endloop
  endfacet
  facet normal 0 0 -1
    outer loop
      vertex 0.618033 1.90211 -28.5
      vertex 6.48936 19.9722 -28.5
      vertex 0.851558 1.80965 -28.5
    endloop
  endfacet
  facet normal -0 0 -1
    outer loop
      vertex 6.48936 19.9722 -28.5
      vertex 0.618033 1.90211 -28.5
      vertex 3.93501 20.628 -28.5
    endloop
  endfacet
  facet normal 0 0 -1
    outer loop
      vertex 0.374763 1.96457 -28.5
      vertex 3.93501 20.628 -28.5
      vertex 0.618033 1.90211 -28.5
    endloop
  endfacet
  facet normal -0 0 -1
    outer loop
      vertex 3.93501 20.628 -28.5
      vertex 0.374763 1.96457 -28.5
      vertex 1.3186 20.9586 -28.5
    endloop
  endfacet
  facet normal 0 0 -1
    outer loop
      vertex 0.125581 1.99605 -28.5
      vertex 1.3186 20.9586 -28.5
      vertex 0.374763 1.96457 -28.5
    endloop
  endfacet
  facet normal 0 0 -1
    outer loop
      vertex -0.125581 1.99605 -28.5
      vertex 1.3186 20.9586 -28.5
      vertex 0.125581 1.99605 -28.5
    endloop
  endfacet
  facet normal 0 0 -1
    outer loop
      vertex -1.3186 20.9586 -28.5
      vertex -0.125581 1.99605 -28.5
      vertex -0.374763 1.96457 -28.5
    endloop
  endfacet
  facet normal 0 0 -1
    outer loop
      vertex -3.93501 20.628 -28.5
      vertex -0.374763 1.96457 -28.5
      vertex -0.618033 1.90211 -28.5
    endloop
  endfacet
  facet normal 0 0 -1
    outer loop
      vertex -6.48936 19.9722 -28.5
      vertex -0.618033 1.90211 -28.5
      vertex -0.851558 1.80965 -28.5
    endloop
  endfacet
  facet normal 0 0 -1
    outer loop
      vertex -8.94136 19.0014 -28.5
      vertex -0.851558 1.80965 -28.5
      vertex -1.07165 1.68865 -28.5
    endloop
  endfacet
  facet normal 0 0 -1
    outer loop
      vertex -11.2524 17.7309 -28.5
      vertex -1.07165 1.68865 -28.5
      vertex -1.27485 1.54103 -28.5
    endloop
  endfacet
  facet normal 0 0 -1
    outer loop
      vertex -0.125581 1.99605 -28.5
      vertex -1.3186 20.9586 -28.5
      vertex 1.3186 20.9586 -28.5
    endloop
  endfacet
  facet normal 0 0 -1
    outer loop
      vertex -13.3859 16.1808 -28.5
      vertex -1.27485 1.54103 -28.5
      vertex -1.45794 1.36909 -28.5
    endloop
  endfacet
  facet normal 0 0 -1
    outer loop
      vertex -15.3083 14.3755 -28.5
      vertex -1.45794 1.36909 -28.5
      vertex -1.61803 1.17557 -28.5
    endloop
  endfacet
  facet normal 0 0 -1
    outer loop
      vertex -16.9894 12.3435 -28.5
      vertex -1.61803 1.17557 -28.5
      vertex -1.75261 0.963507 -28.5
    endloop
  endfacet
  facet normal 0 0 -1
    outer loop
      vertex -18.4024 10.1168 -28.5
      vertex -1.75261 0.963507 -28.5
      vertex -1.85955 0.736249 -28.5
    endloop
  endfacet
  facet normal 0 0 -1
    outer loop
      vertex -19.5253 7.73061 -28.5
      vertex -1.85955 0.736249 -28.5
      vertex -1.93717 0.497379 -28.5
    endloop
  endfacet
  facet normal 0 0 -1
    outer loop
      vertex -20.3402 5.22249 -28.5
      vertex -1.93717 0.497379 -28.5
      vertex -1.98423 0.250666 -28.5
    endloop
  endfacet
  facet normal 0 0 -1
    outer loop
      vertex -20.8344 2.632 -28.5
      vertex -1.98423 0.250666 -28.5
      vertex -2 0 -28.5
    endloop
  endfacet
  facet normal 0 0 -1
    outer loop
      vertex -16.9894 -12.3435 -28.5
      vertex -1.61803 -1.17557 -28.5
      vertex -15.3083 -14.3755 -28.5
    endloop
  endfacet
  facet normal 0 0 -1
    outer loop
      vertex -0.374763 1.96457 -28.5
      vertex -3.93501 20.628 -28.5
      vertex -1.3186 20.9586 -28.5
    endloop
  endfacet
  facet normal -0 0 -1
    outer loop
      vertex -1.61803 -1.17557 -28.5
      vertex -16.9894 -12.3435 -28.5
      vertex -1.75261 -0.963507 -28.5
    endloop
  endfacet
  facet normal 0 0 -1
    outer loop
      vertex -0.618033 1.90211 -28.5
      vertex -6.48936 19.9722 -28.5
      vertex -3.93501 20.628 -28.5
    endloop
  endfacet
  facet normal 0 0 -1
    outer loop
      vertex -18.4024 -10.1168 -28.5
      vertex -1.75261 -0.963507 -28.5
      vertex -16.9894 -12.3435 -28.5
    endloop
  endfacet
  facet normal 0 0 -1
    outer loop
      vertex -0.851558 1.80965 -28.5
      vertex -8.94136 19.0014 -28.5
      vertex -6.48936 19.9722 -28.5
    endloop
  endfacet
  facet normal -0 0 -1
    outer loop
      vertex -1.75261 -0.963507 -28.5
      vertex -18.4024 -10.1168 -28.5
      vertex -1.85955 -0.736249 -28.5
    endloop
  endfacet
  facet normal 0 0 -1
    outer loop
      vertex -1.07165 1.68865 -28.5
      vertex -11.2524 17.7309 -28.5
      vertex -8.94136 19.0014 -28.5
    endloop
  endfacet
  facet normal 0 0 -1
    outer loop
      vertex -19.5253 -7.73061 -28.5
      vertex -1.85955 -0.736249 -28.5
      vertex -18.4024 -10.1168 -28.5
    endloop
  endfacet
  facet normal 0 0 -1
    outer loop
      vertex -1.27485 1.54103 -28.5
      vertex -13.3859 16.1808 -28.5
      vertex -11.2524 17.7309 -28.5
    endloop
  endfacet
  facet normal -0 0 -1
    outer loop
      vertex -1.85955 -0.736249 -28.5
      vertex -19.5253 -7.73061 -28.5
      vertex -1.93717 -0.497379 -28.5
    endloop
  endfacet
  facet normal 0 0 -1
    outer loop
      vertex -1.45794 1.36909 -28.5
      vertex -15.3083 14.3755 -28.5
      vertex -13.3859 16.1808 -28.5
    endloop
  endfacet
  facet normal 0 0 -1
    outer loop
      vertex -20.3402 -5.22249 -28.5
      vertex -1.93717 -0.497379 -28.5
      vertex -19.5253 -7.73061 -28.5
    endloop
  endfacet
  facet normal 0 0 -1
    outer loop
      vertex -1.61803 1.17557 -28.5
      vertex -16.9894 12.3435 -28.5
      vertex -15.3083 14.3755 -28.5
    endloop
  endfacet
  facet normal -0 0 -1
    outer loop
      vertex -1.93717 -0.497379 -28.5
      vertex -20.3402 -5.22249 -28.5
      vertex -1.98423 -0.250666 -28.5
    endloop
  endfacet
  facet normal 0 0 -1
    outer loop
      vertex -1.75261 0.963507 -28.5
      vertex -18.4024 10.1168 -28.5
      vertex -16.9894 12.3435 -28.5
    endloop
  endfacet
  facet normal 0 0 -1
    outer loop
      vertex -20.8344 -2.632 -28.5
      vertex -1.98423 -0.250666 -28.5
      vertex -20.3402 -5.22249 -28.5
    endloop
  endfacet
  facet normal 0 0 -1
    outer loop
      vertex -1.85955 0.736249 -28.5
      vertex -19.5253 7.73061 -28.5
      vertex -18.4024 10.1168 -28.5
    endloop
  endfacet
  facet normal -0 0 -1
    outer loop
      vertex -1.98423 -0.250666 -28.5
      vertex -20.8344 -2.632 -28.5
      vertex -2 0 -28.5
    endloop
  endfacet
  facet normal 0 0 -1
    outer loop
      vertex -1.93717 0.497379 -28.5
      vertex -20.3402 5.22249 -28.5
      vertex -19.5253 7.73061 -28.5
    endloop
  endfacet
  facet normal 0 0 -1
    outer loop
      vertex -21 0 -28.5
      vertex -2 0 -28.5
      vertex -20.8344 -2.632 -28.5
    endloop
  endfacet
  facet normal 0 0 -1
    outer loop
      vertex -1.98423 0.250666 -28.5
      vertex -20.8344 2.632 -28.5
      vertex -20.3402 5.22249 -28.5
    endloop
  endfacet
  facet normal 0 0 -1
    outer loop
      vertex -2 0 -28.5
      vertex -21 0 -28.5
      vertex -20.8344 2.632 -28.5
    endloop
  endfacet
  facet normal 0.904821 -0.425793 0
    outer loop
      vertex 18.4024 -10.1168 28.5
      vertex 19.5253 -7.73061 -28.5
      vertex 19.5253 -7.73061 28.5
    endloop
  endfacet
  facet normal 0.904821 -0.425793 0
    outer loop
      vertex 19.5253 -7.73061 -28.5
      vertex 18.4024 -10.1168 28.5
      vertex 18.4024 -10.1168 -28.5
    endloop
  endfacet
  facet normal 0.770498 -0.637443 0
    outer loop
      vertex 15.3083 -14.3755 28.5
      vertex 16.9894 -12.3435 -28.5
      vertex 16.9894 -12.3435 28.5
    endloop
  endfacet
  facet normal 0.770498 -0.637443 0
    outer loop
      vertex 16.9894 -12.3435 -28.5
      vertex 15.3083 -14.3755 28.5
      vertex 15.3083 -14.3755 -28.5
    endloop
  endfacet
  facet normal -0.248674 -0.968587 0
    outer loop
      vertex -6.48936 -19.9722 -28.5
      vertex -3.93501 -20.628 28.5
      vertex -6.48936 -19.9722 28.5
    endloop
  endfacet
  facet normal -0.248674 -0.968587 -0
    outer loop
      vertex -3.93501 -20.628 28.5
      vertex -6.48936 -19.9722 -28.5
      vertex -3.93501 -20.628 -28.5
    endloop
  endfacet
  facet normal -0.684556 -0.72896 0
    outer loop
      vertex -15.3083 -14.3755 -28.5
      vertex -13.3859 -16.1808 28.5
      vertex -15.3083 -14.3755 28.5
    endloop
  endfacet
  facet normal -0.684556 -0.72896 -0
    outer loop
      vertex -13.3859 -16.1808 28.5
      vertex -15.3083 -14.3755 -28.5
      vertex -13.3859 -16.1808 -28.5
    endloop
  endfacet
  facet normal -0.844346 -0.535798 0
    outer loop
      vertex -16.9894 -12.3435 -28.5
      vertex -18.4024 -10.1168 28.5
      vertex -18.4024 -10.1168 -28.5
    endloop
  endfacet
  facet normal -0.844346 -0.535798 0
    outer loop
      vertex -18.4024 -10.1168 28.5
      vertex -16.9894 -12.3435 -28.5
      vertex -16.9894 -12.3435 28.5
    endloop
  endfacet
  facet normal -0.951061 -0.309004 0
    outer loop
      vertex -19.5253 -7.73061 -28.5
      vertex -20.3402 -5.22249 28.5
      vertex -20.3402 -5.22249 -28.5
    endloop
  endfacet
  facet normal -0.951061 -0.309004 0
    outer loop
      vertex -20.3402 -5.22249 28.5
      vertex -19.5253 -7.73061 -28.5
      vertex -19.5253 -7.73061 28.5
    endloop
  endfacet
  facet normal 0.248674 -0.968587 0
    outer loop
      vertex 3.93501 -20.628 -28.5
      vertex 6.48936 -19.9722 28.5
      vertex 3.93501 -20.628 28.5
    endloop
  endfacet
  facet normal 0.248674 -0.968587 0
    outer loop
      vertex 6.48936 -19.9722 28.5
      vertex 3.93501 -20.628 -28.5
      vertex 6.48936 -19.9722 -28.5
    endloop
  endfacet
  facet normal 0.587791 -0.809013 0
    outer loop
      vertex 11.2524 -17.7309 -28.5
      vertex 13.3859 -16.1808 28.5
      vertex 11.2524 -17.7309 28.5
    endloop
  endfacet
  facet normal 0.587791 -0.809013 0
    outer loop
      vertex 13.3859 -16.1808 28.5
      vertex 11.2524 -17.7309 -28.5
      vertex 13.3859 -16.1808 -28.5
    endloop
  endfacet
  facet normal 0.951061 -0.309004 0
    outer loop
      vertex 19.5253 -7.73061 28.5
      vertex 20.3402 -5.22249 -28.5
      vertex 20.3402 -5.22249 28.5
    endloop
  endfacet
  facet normal 0.951061 -0.309004 0
    outer loop
      vertex 20.3402 -5.22249 -28.5
      vertex 19.5253 -7.73061 28.5
      vertex 19.5253 -7.73061 -28.5
    endloop
  endfacet
  facet normal 0.844346 -0.535798 0
    outer loop
      vertex 16.9894 -12.3435 28.5
      vertex 18.4024 -10.1168 -28.5
      vertex 18.4024 -10.1168 28.5
    endloop
  endfacet
  facet normal 0.844346 -0.535798 0
    outer loop
      vertex 18.4024 -10.1168 -28.5
      vertex 16.9894 -12.3435 28.5
      vertex 16.9894 -12.3435 -28.5
    endloop
  endfacet
  facet normal -0.12536 -0.992111 0
    outer loop
      vertex -3.93501 -20.628 -28.5
      vertex -1.3186 -20.9586 28.5
      vertex -3.93501 -20.628 28.5
    endloop
  endfacet
  facet normal -0.12536 -0.992111 -0
    outer loop
      vertex -1.3186 -20.9586 28.5
      vertex -3.93501 -20.628 -28.5
      vertex -1.3186 -20.9586 -28.5
    endloop
  endfacet
  facet normal -0.368119 -0.929778 0
    outer loop
      vertex -8.94136 -19.0014 -28.5
      vertex -6.48936 -19.9722 28.5
      vertex -8.94136 -19.0014 28.5
    endloop
  endfacet
  facet normal -0.368119 -0.929778 -0
    outer loop
      vertex -6.48936 -19.9722 28.5
      vertex -8.94136 -19.0014 -28.5
      vertex -6.48936 -19.9722 -28.5
    endloop
  endfacet
  facet normal -0.770498 -0.637443 0
    outer loop
      vertex -15.3083 -14.3755 -28.5
      vertex -16.9894 -12.3435 28.5
      vertex -16.9894 -12.3435 -28.5
    endloop
  endfacet
  facet normal -0.770498 -0.637443 0
    outer loop
      vertex -16.9894 -12.3435 28.5
      vertex -15.3083 -14.3755 -28.5
      vertex -15.3083 -14.3755 28.5
    endloop
  endfacet
  facet normal -0.904821 -0.425793 0
    outer loop
      vertex -18.4024 -10.1168 -28.5
      vertex -19.5253 -7.73061 28.5
      vertex -19.5253 -7.73061 -28.5
    endloop
  endfacet
  facet normal -0.904821 -0.425793 0
    outer loop
      vertex -19.5253 -7.73061 28.5
      vertex -18.4024 -10.1168 -28.5
      vertex -18.4024 -10.1168 28.5
    endloop
  endfacet
  facet normal -0.982285 -0.187395 0
    outer loop
      vertex -20.3402 -5.22249 -28.5
      vertex -20.8344 -2.632 28.5
      vertex -20.8344 -2.632 -28.5
    endloop
  endfacet
  facet normal -0.982285 -0.187395 0
    outer loop
      vertex -20.8344 -2.632 28.5
      vertex -20.3402 -5.22249 -28.5
      vertex -20.3402 -5.22249 28.5
    endloop
  endfacet
  facet normal -0.998027 -0.0627938 0
    outer loop
      vertex -20.8344 -2.632 -28.5
      vertex -21 0 28.5
      vertex -21 0 -28.5
    endloop
  endfacet
  facet normal -0.998027 -0.0627938 0
    outer loop
      vertex -21 0 28.5
      vertex -20.8344 -2.632 -28.5
      vertex -20.8344 -2.632 28.5
    endloop
  endfacet
  facet normal -0.481752 -0.876307 0
    outer loop
      vertex -11.2524 -17.7309 -28.5
      vertex -8.94136 -19.0014 28.5
      vertex -11.2524 -17.7309 28.5
    endloop
  endfacet
  facet normal -0.481752 -0.876307 -0
    outer loop
      vertex -8.94136 -19.0014 28.5
      vertex -11.2524 -17.7309 -28.5
      vertex -8.94136 -19.0014 -28.5
    endloop
  endfacet
  facet normal -0.587791 -0.809013 0
    outer loop
      vertex -13.3859 -16.1808 -28.5
      vertex -11.2524 -17.7309 28.5
      vertex -13.3859 -16.1808 28.5
    endloop
  endfacet
  facet normal -0.587791 -0.809013 -0
    outer loop
      vertex -11.2524 -17.7309 28.5
      vertex -13.3859 -16.1808 -28.5
      vertex -11.2524 -17.7309 -28.5
    endloop
  endfacet
  facet normal -0.998027 -0.0627883 0
    outer loop
      vertex 2 0 -28.5
      vertex 1.98423 0.250666 28.5
      vertex 1.98423 0.250666 -28.5
    endloop
  endfacet
  facet normal -0.998027 -0.0627883 0
    outer loop
      vertex 1.98423 0.250666 28.5
      vertex 2 0 -28.5
      vertex 2 0 28.5
    endloop
  endfacet
  facet normal 0.998027 -0.0627883 0
    outer loop
      vertex -2 0 28.5
      vertex -1.98423 0.250666 -28.5
      vertex -1.98423 0.250666 28.5
    endloop
  endfacet
  facet normal 0.998027 -0.0627883 0
    outer loop
      vertex -1.98423 0.250666 -28.5
      vertex -2 0 28.5
      vertex -2 0 -28.5
    endloop
  endfacet
  facet normal 0 -1 0
    outer loop
      vertex -0.125581 1.99605 -28.5
      vertex 0.125581 1.99605 28.5
      vertex -0.125581 1.99605 28.5
    endloop
  endfacet
  facet normal 0 -1 -0
    outer loop
      vertex 0.125581 1.99605 28.5
      vertex -0.125581 1.99605 -28.5
      vertex 0.125581 1.99605 -28.5
    endloop
  endfacet
  facet normal 0 1 -0
    outer loop
      vertex 0.125581 -1.99605 -28.5
      vertex -0.125581 -1.99605 28.5
      vertex 0.125581 -1.99605 28.5
    endloop
  endfacet
  facet normal 0 1 0
    outer loop
      vertex -0.125581 -1.99605 28.5
      vertex 0.125581 -1.99605 -28.5
      vertex -0.125581 -1.99605 -28.5
    endloop
  endfacet
  facet normal -0.684562 -0.728955 0
    outer loop
      vertex 1.27485 1.54103 -28.5
      vertex 1.45794 1.36909 28.5
      vertex 1.27485 1.54103 28.5
    endloop
  endfacet
  facet normal -0.684562 -0.728955 -0
    outer loop
      vertex 1.45794 1.36909 28.5
      vertex 1.27485 1.54103 -28.5
      vertex 1.45794 1.36909 -28.5
    endloop
  endfacet
  facet normal 0.684562 -0.728955 0
    outer loop
      vertex -1.45794 1.36909 -28.5
      vertex -1.27485 1.54103 28.5
      vertex -1.45794 1.36909 28.5
    endloop
  endfacet
  facet normal 0.684562 -0.728955 0
    outer loop
      vertex -1.27485 1.54103 28.5
      vertex -1.45794 1.36909 -28.5
      vertex -1.27485 1.54103 -28.5
    endloop
  endfacet
  facet normal 0.368128 -0.929775 0
    outer loop
      vertex -0.851558 1.80965 -28.5
      vertex -0.618033 1.90211 28.5
      vertex -0.851558 1.80965 28.5
    endloop
  endfacet
  facet normal 0.368128 -0.929775 0
    outer loop
      vertex -0.618033 1.90211 28.5
      vertex -0.851558 1.80965 -28.5
      vertex -0.618033 1.90211 -28.5
    endloop
  endfacet
  facet normal -0.904826 -0.425781 0
    outer loop
      vertex 1.85955 0.736249 -28.5
      vertex 1.75261 0.963507 28.5
      vertex 1.75261 0.963507 -28.5
    endloop
  endfacet
  facet normal -0.904826 -0.425781 0
    outer loop
      vertex 1.75261 0.963507 28.5
      vertex 1.85955 0.736249 -28.5
      vertex 1.85955 0.736249 28.5
    endloop
  endfacet
  facet normal -0.982289 -0.18737 0
    outer loop
      vertex 1.98423 0.250666 -28.5
      vertex 1.93717 0.497379 28.5
      vertex 1.93717 0.497379 -28.5
    endloop
  endfacet
  facet normal -0.982289 -0.18737 0
    outer loop
      vertex 1.93717 0.497379 28.5
      vertex 1.98423 0.250666 -28.5
      vertex 1.98423 0.250666 28.5
    endloop
  endfacet
  facet normal -0.368128 -0.929775 0
    outer loop
      vertex 0.618033 1.90211 -28.5
      vertex 0.851558 1.80965 28.5
      vertex 0.618033 1.90211 28.5
    endloop
  endfacet
  facet normal -0.368128 -0.929775 -0
    outer loop
      vertex 0.851558 1.80965 28.5
      vertex 0.618033 1.90211 -28.5
      vertex 0.851558 1.80965 -28.5
    endloop
  endfacet
  facet normal -0.58775 -0.809042 0
    outer loop
      vertex 1.07165 1.68865 -28.5
      vertex 1.27485 1.54103 28.5
      vertex 1.07165 1.68865 28.5
    endloop
  endfacet
  facet normal -0.58775 -0.809042 -0
    outer loop
      vertex 1.27485 1.54103 28.5
      vertex 1.07165 1.68865 -28.5
      vertex 1.27485 1.54103 -28.5
    endloop
  endfacet
  facet normal 0.904826 -0.425781 0
    outer loop
      vertex -1.85955 0.736249 28.5
      vertex -1.75261 0.963507 -28.5
      vertex -1.75261 0.963507 28.5
    endloop
  endfacet
  facet normal 0.904826 -0.425781 0
    outer loop
      vertex -1.75261 0.963507 -28.5
      vertex -1.85955 0.736249 28.5
      vertex -1.85955 0.736249 -28.5
    endloop
  endfacet
  facet normal 0.951049 -0.30904 0
    outer loop
      vertex -1.93717 0.497379 28.5
      vertex -1.85955 0.736249 -28.5
      vertex -1.85955 0.736249 28.5
    endloop
  endfacet
  facet normal 0.951049 -0.30904 0
    outer loop
      vertex -1.85955 0.736249 -28.5
      vertex -1.93717 0.497379 28.5
      vertex -1.93717 0.497379 -28.5
    endloop
  endfacet
  facet normal 0.481764 -0.876301 0
    outer loop
      vertex -1.07165 1.68865 -28.5
      vertex -0.851558 1.80965 28.5
      vertex -1.07165 1.68865 28.5
    endloop
  endfacet
  facet normal 0.481764 -0.876301 0
    outer loop
      vertex -0.851558 1.80965 28.5
      vertex -1.07165 1.68865 -28.5
      vertex -0.851558 1.80965 -28.5
    endloop
  endfacet
  facet normal 0.248686 -0.968584 0
    outer loop
      vertex -0.618033 1.90211 -28.5
      vertex -0.374763 1.96457 28.5
      vertex -0.618033 1.90211 28.5
    endloop
  endfacet
  facet normal 0.248686 -0.968584 0
    outer loop
      vertex -0.374763 1.96457 28.5
      vertex -0.618033 1.90211 -28.5
      vertex -0.374763 1.96457 -28.5
    endloop
  endfacet
  facet normal -0.368128 0.929775 0
    outer loop
      vertex 0.851558 -1.80965 -28.5
      vertex 0.618033 -1.90211 28.5
      vertex 0.851558 -1.80965 28.5
    endloop
  endfacet
  facet normal -0.368128 0.929775 0
    outer loop
      vertex 0.618033 -1.90211 28.5
      vertex 0.851558 -1.80965 -28.5
      vertex 0.618033 -1.90211 -28.5
    endloop
  endfacet
  facet normal -0.951049 -0.30904 0
    outer loop
      vertex 1.93717 0.497379 -28.5
      vertex 1.85955 0.736249 28.5
      vertex 1.85955 0.736249 -28.5
    endloop
  endfacet
  facet normal -0.951049 -0.30904 0
    outer loop
      vertex 1.85955 0.736249 28.5
      vertex 1.93717 0.497379 -28.5
      vertex 1.93717 0.497379 28.5
    endloop
  endfacet
  facet normal -0.77052 -0.637415 0
    outer loop
      vertex 1.61803 1.17557 -28.5
      vertex 1.45794 1.36909 28.5
      vertex 1.45794 1.36909 -28.5
    endloop
  endfacet
  facet normal -0.77052 -0.637415 0
    outer loop
      vertex 1.45794 1.36909 28.5
      vertex 1.61803 1.17557 -28.5
      vertex 1.61803 1.17557 28.5
    endloop
  endfacet
  facet normal -0.844327 -0.535829 0
    outer loop
      vertex 1.75261 0.963507 -28.5
      vertex 1.61803 1.17557 28.5
      vertex 1.61803 1.17557 -28.5
    endloop
  endfacet
  facet normal -0.844327 -0.535829 0
    outer loop
      vertex 1.61803 1.17557 28.5
      vertex 1.75261 0.963507 -28.5
      vertex 1.75261 0.963507 28.5
    endloop
  endfacet
  facet normal -0.248686 -0.968584 0
    outer loop
      vertex 0.374763 1.96457 -28.5
      vertex 0.618033 1.90211 28.5
      vertex 0.374763 1.96457 28.5
    endloop
  endfacet
  facet normal -0.248686 -0.968584 -0
    outer loop
      vertex 0.618033 1.90211 28.5
      vertex 0.374763 1.96457 -28.5
      vertex 0.618033 1.90211 -28.5
    endloop
  endfacet
  facet normal -0.125337 -0.992114 0
    outer loop
      vertex 0.125581 1.99605 -28.5
      vertex 0.374763 1.96457 28.5
      vertex 0.125581 1.99605 28.5
    endloop
  endfacet
  facet normal -0.125337 -0.992114 -0
    outer loop
      vertex 0.374763 1.96457 28.5
      vertex 0.125581 1.99605 -28.5
      vertex 0.374763 1.96457 -28.5
    endloop
  endfacet
  facet normal -0.481764 -0.876301 0
    outer loop
      vertex 0.851558 1.80965 -28.5
      vertex 1.07165 1.68865 28.5
      vertex 0.851558 1.80965 28.5
    endloop
  endfacet
  facet normal -0.481764 -0.876301 -0
    outer loop
      vertex 1.07165 1.68865 28.5
      vertex 0.851558 1.80965 -28.5
      vertex 1.07165 1.68865 -28.5
    endloop
  endfacet
  facet normal 0.844327 -0.535829 0
    outer loop
      vertex -1.75261 0.963507 28.5
      vertex -1.61803 1.17557 -28.5
      vertex -1.61803 1.17557 28.5
    endloop
  endfacet
  facet normal 0.844327 -0.535829 0
    outer loop
      vertex -1.61803 1.17557 -28.5
      vertex -1.75261 0.963507 28.5
      vertex -1.75261 0.963507 -28.5
    endloop
  endfacet
  facet normal 0.77052 -0.637415 0
    outer loop
      vertex -1.61803 1.17557 28.5
      vertex -1.45794 1.36909 -28.5
      vertex -1.45794 1.36909 28.5
    endloop
  endfacet
  facet normal 0.77052 -0.637415 0
    outer loop
      vertex -1.45794 1.36909 -28.5
      vertex -1.61803 1.17557 28.5
      vertex -1.61803 1.17557 -28.5
    endloop
  endfacet
  facet normal 0.982289 -0.18737 0
    outer loop
      vertex -1.98423 0.250666 28.5
      vertex -1.93717 0.497379 -28.5
      vertex -1.93717 0.497379 28.5
    endloop
  endfacet
  facet normal 0.982289 -0.18737 0
    outer loop
      vertex -1.93717 0.497379 -28.5
      vertex -1.98423 0.250666 28.5
      vertex -1.98423 0.250666 -28.5
    endloop
  endfacet
  facet normal 0.58775 -0.809042 0
    outer loop
      vertex -1.27485 1.54103 -28.5
      vertex -1.07165 1.68865 28.5
      vertex -1.27485 1.54103 28.5
    endloop
  endfacet
  facet normal 0.58775 -0.809042 0
    outer loop
      vertex -1.07165 1.68865 28.5
      vertex -1.27485 1.54103 -28.5
      vertex -1.07165 1.68865 -28.5
    endloop
  endfacet
  facet normal 0.125337 -0.992114 0
    outer loop
      vertex -0.374763 1.96457 -28.5
      vertex -0.125581 1.99605 28.5
      vertex -0.374763 1.96457 28.5
    endloop
  endfacet
  facet normal 0.125337 -0.992114 0
    outer loop
      vertex -0.125581 1.99605 28.5
      vertex -0.374763 1.96457 -28.5
      vertex -0.125581 1.99605 -28.5
    endloop
  endfacet
  facet normal -0.982289 0.18737 0
    outer loop
      vertex 1.93717 -0.497379 -28.5
      vertex 1.98423 -0.250666 28.5
      vertex 1.98423 -0.250666 -28.5
    endloop
  endfacet
  facet normal -0.982289 0.18737 0
    outer loop
      vertex 1.98423 -0.250666 28.5
      vertex 1.93717 -0.497379 -28.5
      vertex 1.93717 -0.497379 28.5
    endloop
  endfacet
  facet normal 0.904826 0.425781 0
    outer loop
      vertex -1.75261 -0.963507 28.5
      vertex -1.85955 -0.736249 -28.5
      vertex -1.85955 -0.736249 28.5
    endloop
  endfacet
  facet normal 0.904826 0.425781 0
    outer loop
      vertex -1.85955 -0.736249 -28.5
      vertex -1.75261 -0.963507 28.5
      vertex -1.75261 -0.963507 -28.5
    endloop
  endfacet
  facet normal 0.844327 0.535829 0
    outer loop
      vertex -1.61803 -1.17557 28.5
      vertex -1.75261 -0.963507 -28.5
      vertex -1.75261 -0.963507 28.5
    endloop
  endfacet
  facet normal 0.844327 0.535829 0
    outer loop
      vertex -1.75261 -0.963507 -28.5
      vertex -1.61803 -1.17557 28.5
      vertex -1.61803 -1.17557 -28.5
    endloop
  endfacet
  facet normal -0.481764 0.876301 0
    outer loop
      vertex 1.07165 -1.68865 -28.5
      vertex 0.851558 -1.80965 28.5
      vertex 1.07165 -1.68865 28.5
    endloop
  endfacet
  facet normal -0.481764 0.876301 0
    outer loop
      vertex 0.851558 -1.80965 28.5
      vertex 1.07165 -1.68865 -28.5
      vertex 0.851558 -1.80965 -28.5
    endloop
  endfacet
  facet normal -0.904826 0.425781 0
    outer loop
      vertex 1.75261 -0.963507 -28.5
      vertex 1.85955 -0.736249 28.5
      vertex 1.85955 -0.736249 -28.5
    endloop
  endfacet
  facet normal -0.904826 0.425781 0
    outer loop
      vertex 1.85955 -0.736249 28.5
      vertex 1.75261 -0.963507 -28.5
      vertex 1.75261 -0.963507 28.5
    endloop
  endfacet
  facet normal -0.998027 0.0627883 0
    outer loop
      vertex 1.98423 -0.250666 -28.5
      vertex 2 0 28.5
      vertex 2 0 -28.5
    endloop
  endfacet
  facet normal -0.998027 0.0627883 0
    outer loop
      vertex 2 0 28.5
      vertex 1.98423 -0.250666 -28.5
      vertex 1.98423 -0.250666 28.5
    endloop
  endfacet
  facet normal 0.77052 0.637415 0
    outer loop
      vertex -1.45794 -1.36909 28.5
      vertex -1.61803 -1.17557 -28.5
      vertex -1.61803 -1.17557 28.5
    endloop
  endfacet
  facet normal 0.77052 0.637415 0
    outer loop
      vertex -1.61803 -1.17557 -28.5
      vertex -1.45794 -1.36909 28.5
      vertex -1.45794 -1.36909 -28.5
    endloop
  endfacet
  facet normal 0.951049 0.30904 0
    outer loop
      vertex -1.85955 -0.736249 28.5
      vertex -1.93717 -0.497379 -28.5
      vertex -1.93717 -0.497379 28.5
    endloop
  endfacet
  facet normal 0.951049 0.30904 0
    outer loop
      vertex -1.93717 -0.497379 -28.5
      vertex -1.85955 -0.736249 28.5
      vertex -1.85955 -0.736249 -28.5
    endloop
  endfacet
  facet normal -0.58775 0.809042 0
    outer loop
      vertex 1.27485 -1.54103 -28.5
      vertex 1.07165 -1.68865 28.5
      vertex 1.27485 -1.54103 28.5
    endloop
  endfacet
  facet normal -0.58775 0.809042 0
    outer loop
      vertex 1.07165 -1.68865 28.5
      vertex 1.27485 -1.54103 -28.5
      vertex 1.07165 -1.68865 -28.5
    endloop
  endfacet
  facet normal -0.248686 0.968584 0
    outer loop
      vertex 0.618033 -1.90211 -28.5
      vertex 0.374763 -1.96457 28.5
      vertex 0.618033 -1.90211 28.5
    endloop
  endfacet
  facet normal -0.248686 0.968584 0
    outer loop
      vertex 0.374763 -1.96457 28.5
      vertex 0.618033 -1.90211 -28.5
      vertex 0.374763 -1.96457 -28.5
    endloop
  endfacet
  facet normal -0.125337 0.992114 0
    outer loop
      vertex 0.374763 -1.96457 -28.5
      vertex 0.125581 -1.99605 28.5
      vertex 0.374763 -1.96457 28.5
    endloop
  endfacet
  facet normal -0.125337 0.992114 0
    outer loop
      vertex 0.125581 -1.99605 28.5
      vertex 0.374763 -1.96457 -28.5
      vertex 0.125581 -1.99605 -28.5
    endloop
  endfacet
  facet normal -0.844327 0.535829 0
    outer loop
      vertex 1.61803 -1.17557 -28.5
      vertex 1.75261 -0.963507 28.5
      vertex 1.75261 -0.963507 -28.5
    endloop
  endfacet
  facet normal -0.844327 0.535829 0
    outer loop
      vertex 1.75261 -0.963507 28.5
      vertex 1.61803 -1.17557 -28.5
      vertex 1.61803 -1.17557 28.5
    endloop
  endfacet
  facet normal -0.77052 0.637415 0
    outer loop
      vertex 1.45794 -1.36909 -28.5
      vertex 1.61803 -1.17557 28.5
      vertex 1.61803 -1.17557 -28.5
    endloop
  endfacet
  facet normal -0.77052 0.637415 0
    outer loop
      vertex 1.61803 -1.17557 28.5
      vertex 1.45794 -1.36909 -28.5
      vertex 1.45794 -1.36909 28.5
    endloop
  endfacet
  facet normal -0.951049 0.30904 0
    outer loop
      vertex 1.85955 -0.736249 -28.5
      vertex 1.93717 -0.497379 28.5
      vertex 1.93717 -0.497379 -28.5
    endloop
  endfacet
  facet normal -0.951049 0.30904 0
    outer loop
      vertex 1.93717 -0.497379 28.5
      vertex 1.85955 -0.736249 -28.5
      vertex 1.85955 -0.736249 28.5
    endloop
  endfacet
  facet normal 0.248686 0.968584 -0
    outer loop
      vertex -0.374763 -1.96457 -28.5
      vertex -0.618033 -1.90211 28.5
      vertex -0.374763 -1.96457 28.5
    endloop
  endfacet
  facet normal 0.248686 0.968584 0
    outer loop
      vertex -0.618033 -1.90211 28.5
      vertex -0.374763 -1.96457 -28.5
      vertex -0.618033 -1.90211 -28.5
    endloop
  endfacet
  facet normal 0.982289 0.18737 0
    outer loop
      vertex -1.93717 -0.497379 28.5
      vertex -1.98423 -0.250666 -28.5
      vertex -1.98423 -0.250666 28.5
    endloop
  endfacet
  facet normal 0.982289 0.18737 0
    outer loop
      vertex -1.98423 -0.250666 -28.5
      vertex -1.93717 -0.497379 28.5
      vertex -1.93717 -0.497379 -28.5
    endloop
  endfacet
  facet normal 0.998027 0.0627883 0
    outer loop
      vertex -1.98423 -0.250666 28.5
      vertex -2 0 -28.5
      vertex -2 0 28.5
    endloop
  endfacet
  facet normal 0.998027 0.0627883 0
    outer loop
      vertex -2 0 -28.5
      vertex -1.98423 -0.250666 28.5
      vertex -1.98423 -0.250666 -28.5
    endloop
  endfacet
  facet normal -0.684562 0.728955 0
    outer loop
      vertex 1.45794 -1.36909 -28.5
      vertex 1.27485 -1.54103 28.5
      vertex 1.45794 -1.36909 28.5
    endloop
  endfacet
  facet normal -0.684562 0.728955 0
    outer loop
      vertex 1.27485 -1.54103 28.5
      vertex 1.45794 -1.36909 -28.5
      vertex 1.27485 -1.54103 -28.5
    endloop
  endfacet
  facet normal 0.684562 0.728955 -0
    outer loop
      vertex -1.27485 -1.54103 -28.5
      vertex -1.45794 -1.36909 28.5
      vertex -1.27485 -1.54103 28.5
    endloop
  endfacet
  facet normal 0.684562 0.728955 0
    outer loop
      vertex -1.45794 -1.36909 28.5
      vertex -1.27485 -1.54103 -28.5
      vertex -1.45794 -1.36909 -28.5
    endloop
  endfacet
  facet normal 0.481764 0.876301 -0
    outer loop
      vertex -0.851558 -1.80965 -28.5
      vertex -1.07165 -1.68865 28.5
      vertex -0.851558 -1.80965 28.5
    endloop
  endfacet
  facet normal 0.481764 0.876301 0
    outer loop
      vertex -1.07165 -1.68865 28.5
      vertex -0.851558 -1.80965 -28.5
      vertex -1.07165 -1.68865 -28.5
    endloop
  endfacet
  facet normal 0.125337 0.992114 -0
    outer loop
      vertex -0.125581 -1.99605 -28.5
      vertex -0.374763 -1.96457 28.5
      vertex -0.125581 -1.99605 28.5
    endloop
  endfacet
  facet normal 0.125337 0.992114 0
    outer loop
      vertex -0.374763 -1.96457 28.5
      vertex -0.125581 -1.99605 -28.5
      vertex -0.374763 -1.96457 -28.5
    endloop
  endfacet
  facet normal 0.58775 0.809042 -0
    outer loop
      vertex -1.07165 -1.68865 -28.5
      vertex -1.27485 -1.54103 28.5
      vertex -1.07165 -1.68865 28.5
    endloop
  endfacet
  facet normal 0.58775 0.809042 0
    outer loop
      vertex -1.27485 -1.54103 28.5
      vertex -1.07165 -1.68865 -28.5
      vertex -1.27485 -1.54103 -28.5
    endloop
  endfacet
  facet normal 0.368128 0.929775 -0
    outer loop
      vertex -0.618033 -1.90211 -28.5
      vertex -0.851558 -1.80965 28.5
      vertex -0.618033 -1.90211 28.5
    endloop
  endfacet
  facet normal 0.368128 0.929775 0
    outer loop
      vertex -0.851558 -1.80965 28.5
      vertex -0.618033 -1.90211 -28.5
      vertex -0.851558 -1.80965 -28.5
    endloop
  endfacet
endsolid OpenSCAD_Model
