solid OpenSCAD_Model
  facet normal 0.998027 0.0627939 0
    outer loop
      vertex 7 0 33
      vertex 6.9448 0.877332 -33
      vertex 6.9448 0.877332 33
    endloop
  endfacet
  facet normal 0.998027 0.0627939 0
    outer loop
      vertex 6.9448 0.877332 -33
      vertex 7 0 33
      vertex 7 0 -33
    endloop
  endfacet
  facet normal -0.998027 0.0627939 0
    outer loop
      vertex -7 0 -33
      vertex -6.9448 0.877332 33
      vertex -6.9448 0.877332 -33
    endloop
  endfacet
  facet normal -0.998027 0.0627939 0
    outer loop
      vertex -6.9448 0.877332 33
      vertex -7 0 -33
      vertex -7 0 33
    endloop
  endfacet
  facet normal 0 1 -0
    outer loop
      vertex 0.439533 6.98619 -33
      vertex -0.439533 6.98619 33
      vertex 0.439533 6.98619 33
    endloop
  endfacet
  facet normal 0 1 0
    outer loop
      vertex -0.439533 6.98619 33
      vertex 0.439533 6.98619 -33
      vertex -0.439533 6.98619 -33
    endloop
  endfacet
  facet normal 0 -1 0
    outer loop
      vertex -0.439533 -6.98619 -33
      vertex 0.439533 -6.98619 33
      vertex -0.439533 -6.98619 33
    endloop
  endfacet
  facet normal 0 -1 -0
    outer loop
      vertex 0.439533 -6.98619 33
      vertex -0.439533 -6.98619 -33
      vertex 0.439533 -6.98619 -33
    endloop
  endfacet
  facet normal 0.684547 0.728969 -0
    outer loop
      vertex 5.10278 4.79183 -33
      vertex 4.46197 5.39359 33
      vertex 5.10278 4.79183 33
    endloop
  endfacet
  facet normal 0.684547 0.728969 0
    outer loop
      vertex 4.46197 5.39359 33
      vertex 5.10278 4.79183 -33
      vertex 4.46197 5.39359 -33
    endloop
  endfacet
  facet normal -0.684547 0.728969 0
    outer loop
      vertex -4.46197 5.39359 -33
      vertex -5.10278 4.79183 33
      vertex -4.46197 5.39359 33
    endloop
  endfacet
  facet normal -0.684547 0.728969 0
    outer loop
      vertex -5.10278 4.79183 33
      vertex -4.46197 5.39359 -33
      vertex -5.10278 4.79183 -33
    endloop
  endfacet
  facet normal -0.368131 0.929774 0
    outer loop
      vertex -2.16312 6.6574 -33
      vertex -2.98045 6.33379 33
      vertex -2.16312 6.6574 33
    endloop
  endfacet
  facet normal -0.368131 0.929774 0
    outer loop
      vertex -2.98045 6.33379 33
      vertex -2.16312 6.6574 -33
      vertex -2.98045 6.33379 -33
    endloop
  endfacet
  facet normal 0.904828 0.425778 0
    outer loop
      vertex 6.50844 2.57687 33
      vertex 6.13415 3.37228 -33
      vertex 6.13415 3.37228 33
    endloop
  endfacet
  facet normal 0.904828 0.425778 0
    outer loop
      vertex 6.13415 3.37228 -33
      vertex 6.50844 2.57687 33
      vertex 6.50844 2.57687 -33
    endloop
  endfacet
  facet normal 0.982287 0.18738 0
    outer loop
      vertex 6.9448 0.877332 33
      vertex 6.78008 1.74083 -33
      vertex 6.78008 1.74083 33
    endloop
  endfacet
  facet normal 0.982287 0.18738 0
    outer loop
      vertex 6.78008 1.74083 -33
      vertex 6.9448 0.877332 33
      vertex 6.9448 0.877332 -33
    endloop
  endfacet
  facet normal 0.368131 0.929774 -0
    outer loop
      vertex 2.98045 6.33379 -33
      vertex 2.16312 6.6574 33
      vertex 2.98045 6.33379 33
    endloop
  endfacet
  facet normal 0.368131 0.929774 0
    outer loop
      vertex 2.16312 6.6574 33
      vertex 2.98045 6.33379 -33
      vertex 2.16312 6.6574 -33
    endloop
  endfacet
  facet normal 0.481755 0.876306 -0
    outer loop
      vertex 3.75079 5.91029 -33
      vertex 2.98045 6.33379 33
      vertex 3.75079 5.91029 33
    endloop
  endfacet
  facet normal 0.481755 0.876306 0
    outer loop
      vertex 2.98045 6.33379 33
      vertex 3.75079 5.91029 -33
      vertex 2.98045 6.33379 -33
    endloop
  endfacet
  facet normal -0.904828 0.425778 0
    outer loop
      vertex -6.50844 2.57687 -33
      vertex -6.13415 3.37228 33
      vertex -6.13415 3.37228 -33
    endloop
  endfacet
  facet normal -0.904828 0.425778 0
    outer loop
      vertex -6.13415 3.37228 33
      vertex -6.50844 2.57687 -33
      vertex -6.50844 2.57687 33
    endloop
  endfacet
  facet normal -0.951058 0.309011 0
    outer loop
      vertex -6.78008 1.74083 -33
      vertex -6.50844 2.57687 33
      vertex -6.50844 2.57687 -33
    endloop
  endfacet
  facet normal -0.951058 0.309011 0
    outer loop
      vertex -6.50844 2.57687 33
      vertex -6.78008 1.74083 -33
      vertex -6.78008 1.74083 33
    endloop
  endfacet
  facet normal -0.248684 0.968585 0
    outer loop
      vertex -1.31167 6.87601 -33
      vertex -2.16312 6.6574 33
      vertex -1.31167 6.87601 33
    endloop
  endfacet
  facet normal -0.248684 0.968585 0
    outer loop
      vertex -2.16312 6.6574 33
      vertex -1.31167 6.87601 -33
      vertex -2.16312 6.6574 -33
    endloop
  endfacet
  facet normal 0.125337 -0.992114 0
    outer loop
      vertex 0.439533 -6.98619 -33
      vertex 1.31167 -6.87601 33
      vertex 0.439533 -6.98619 33
    endloop
  endfacet
  facet normal 0.125337 -0.992114 0
    outer loop
      vertex 1.31167 -6.87601 33
      vertex 0.439533 -6.98619 -33
      vertex 1.31167 -6.87601 -33
    endloop
  endfacet
  facet normal 0.951058 0.309011 0
    outer loop
      vertex 6.78008 1.74083 33
      vertex 6.50844 2.57687 -33
      vertex 6.50844 2.57687 33
    endloop
  endfacet
  facet normal 0.951058 0.309011 0
    outer loop
      vertex 6.50844 2.57687 -33
      vertex 6.78008 1.74083 33
      vertex 6.78008 1.74083 -33
    endloop
  endfacet
  facet normal 0.770511 0.637427 0
    outer loop
      vertex 5.66312 4.1145 33
      vertex 5.10278 4.79183 -33
      vertex 5.10278 4.79183 33
    endloop
  endfacet
  facet normal 0.770511 0.637427 0
    outer loop
      vertex 5.10278 4.79183 -33
      vertex 5.66312 4.1145 33
      vertex 5.66312 4.1145 -33
    endloop
  endfacet
  facet normal 0.844326 0.535829 0
    outer loop
      vertex 6.13415 3.37228 33
      vertex 5.66312 4.1145 -33
      vertex 5.66312 4.1145 33
    endloop
  endfacet
  facet normal 0.844326 0.535829 0
    outer loop
      vertex 5.66312 4.1145 -33
      vertex 6.13415 3.37228 33
      vertex 6.13415 3.37228 -33
    endloop
  endfacet
  facet normal 0.248684 0.968585 -0
    outer loop
      vertex 2.16312 6.6574 -33
      vertex 1.31167 6.87601 33
      vertex 2.16312 6.6574 33
    endloop
  endfacet
  facet normal 0.248684 0.968585 0
    outer loop
      vertex 1.31167 6.87601 33
      vertex 2.16312 6.6574 -33
      vertex 1.31167 6.87601 -33
    endloop
  endfacet
  facet normal 0.125337 0.992114 -0
    outer loop
      vertex 1.31167 6.87601 -33
      vertex 0.439533 6.98619 33
      vertex 1.31167 6.87601 33
    endloop
  endfacet
  facet normal 0.125337 0.992114 0
    outer loop
      vertex 0.439533 6.98619 33
      vertex 1.31167 6.87601 -33
      vertex 0.439533 6.98619 -33
    endloop
  endfacet
  facet normal 0.587783 0.809018 -0
    outer loop
      vertex 4.46197 5.39359 -33
      vertex 3.75079 5.91029 33
      vertex 4.46197 5.39359 33
    endloop
  endfacet
  facet normal 0.587783 0.809018 0
    outer loop
      vertex 3.75079 5.91029 33
      vertex 4.46197 5.39359 -33
      vertex 3.75079 5.91029 -33
    endloop
  endfacet
  facet normal -0.844326 0.535829 0
    outer loop
      vertex -6.13415 3.37228 -33
      vertex -5.66312 4.1145 33
      vertex -5.66312 4.1145 -33
    endloop
  endfacet
  facet normal -0.844326 0.535829 0
    outer loop
      vertex -5.66312 4.1145 33
      vertex -6.13415 3.37228 -33
      vertex -6.13415 3.37228 33
    endloop
  endfacet
  facet normal -0.770511 0.637427 0
    outer loop
      vertex -5.66312 4.1145 -33
      vertex -5.10278 4.79183 33
      vertex -5.10278 4.79183 -33
    endloop
  endfacet
  facet normal -0.770511 0.637427 0
    outer loop
      vertex -5.10278 4.79183 33
      vertex -5.66312 4.1145 -33
      vertex -5.66312 4.1145 33
    endloop
  endfacet
  facet normal -0.982287 0.18738 0
    outer loop
      vertex -6.9448 0.877332 -33
      vertex -6.78008 1.74083 33
      vertex -6.78008 1.74083 -33
    endloop
  endfacet
  facet normal -0.982287 0.18738 0
    outer loop
      vertex -6.78008 1.74083 33
      vertex -6.9448 0.877332 -33
      vertex -6.9448 0.877332 33
    endloop
  endfacet
  facet normal 0 0 1
    outer loop
      vertex 5.25 0 33
      vertex 7 0 33
      vertex 6.9448 0.877332 33
    endloop
  endfacet
  facet normal 0 0 1
    outer loop
      vertex 5.2086 0.657999 33
      vertex 6.9448 0.877332 33
      vertex 6.78008 1.74083 33
    endloop
  endfacet
  facet normal 0 0 1
    outer loop
      vertex 7 0 33
      vertex 5.25 0 33
      vertex 6.9448 -0.877332 33
    endloop
  endfacet
  facet normal 0 0 1
    outer loop
      vertex 5.08506 1.30562 33
      vertex 6.78008 1.74083 33
      vertex 6.50844 2.57687 33
    endloop
  endfacet
  facet normal -0 0 1
    outer loop
      vertex 5.2086 -0.657999 33
      vertex 6.9448 -0.877332 33
      vertex 5.25 0 33
    endloop
  endfacet
  facet normal 0 0 1
    outer loop
      vertex 4.88133 1.93265 33
      vertex 6.50844 2.57687 33
      vertex 6.13415 3.37228 33
    endloop
  endfacet
  facet normal 0 0 1
    outer loop
      vertex 6.9448 -0.877332 33
      vertex 5.2086 -0.657999 33
      vertex 6.78008 -1.74083 33
    endloop
  endfacet
  facet normal 0 0 1
    outer loop
      vertex 4.60061 2.52921 33
      vertex 6.13415 3.37228 33
      vertex 5.66312 4.1145 33
    endloop
  endfacet
  facet normal -0 0 1
    outer loop
      vertex 5.08506 -1.30562 33
      vertex 6.78008 -1.74083 33
      vertex 5.2086 -0.657999 33
    endloop
  endfacet
  facet normal 0 0 1
    outer loop
      vertex 6.78008 -1.74083 33
      vertex 5.08506 -1.30562 33
      vertex 6.50844 -2.57687 33
    endloop
  endfacet
  facet normal 0 0 1
    outer loop
      vertex 6.9448 0.877332 33
      vertex 5.2086 0.657999 33
      vertex 5.25 0 33
    endloop
  endfacet
  facet normal 0 0 1
    outer loop
      vertex 4.24734 3.08587 33
      vertex 5.66312 4.1145 33
      vertex 5.10278 4.79183 33
    endloop
  endfacet
  facet normal 0 0 1
    outer loop
      vertex 6.78008 1.74083 33
      vertex 5.08506 1.30562 33
      vertex 5.2086 0.657999 33
    endloop
  endfacet
  facet normal 0 0 1
    outer loop
      vertex 6.50844 2.57687 33
      vertex 4.88133 1.93265 33
      vertex 5.08506 1.30562 33
    endloop
  endfacet
  facet normal 0 0 1
    outer loop
      vertex 6.13415 3.37228 33
      vertex 4.60061 2.52921 33
      vertex 4.88133 1.93265 33
    endloop
  endfacet
  facet normal 0 0 1
    outer loop
      vertex 3.82708 3.59387 33
      vertex 5.10278 4.79183 33
      vertex 4.46197 5.39359 33
    endloop
  endfacet
  facet normal 0 0 1
    outer loop
      vertex 5.66312 4.1145 33
      vertex 4.24734 3.08587 33
      vertex 4.60061 2.52921 33
    endloop
  endfacet
  facet normal 0 0 1
    outer loop
      vertex 5.10278 4.79183 33
      vertex 3.82708 3.59387 33
      vertex 4.24734 3.08587 33
    endloop
  endfacet
  facet normal 0 0 1
    outer loop
      vertex 3.34648 4.04519 33
      vertex 4.46197 5.39359 33
      vertex 3.75079 5.91029 33
    endloop
  endfacet
  facet normal 0 0 1
    outer loop
      vertex 4.46197 5.39359 33
      vertex 3.34648 4.04519 33
      vertex 3.82708 3.59387 33
    endloop
  endfacet
  facet normal 0 0 1
    outer loop
      vertex 2.81309 4.43272 33
      vertex 3.75079 5.91029 33
      vertex 2.98045 6.33379 33
    endloop
  endfacet
  facet normal 0 0 1
    outer loop
      vertex 3.75079 5.91029 33
      vertex 2.81309 4.43272 33
      vertex 3.34648 4.04519 33
    endloop
  endfacet
  facet normal 0 0 1
    outer loop
      vertex 2.98045 6.33379 33
      vertex 2.23534 4.75034 33
      vertex 2.81309 4.43272 33
    endloop
  endfacet
  facet normal 0 0 1
    outer loop
      vertex 2.16312 6.6574 33
      vertex 2.23534 4.75034 33
      vertex 2.98045 6.33379 33
    endloop
  endfacet
  facet normal 0 0 1
    outer loop
      vertex 2.16312 6.6574 33
      vertex 1.62234 4.99305 33
      vertex 2.23534 4.75034 33
    endloop
  endfacet
  facet normal 0 0 1
    outer loop
      vertex 1.31167 6.87601 33
      vertex 1.62234 4.99305 33
      vertex 2.16312 6.6574 33
    endloop
  endfacet
  facet normal 0 0 1
    outer loop
      vertex 1.31167 6.87601 33
      vertex 0.983751 5.15701 33
      vertex 1.62234 4.99305 33
    endloop
  endfacet
  facet normal 0 0 1
    outer loop
      vertex 0.439533 6.98619 33
      vertex 0.983751 5.15701 33
      vertex 1.31167 6.87601 33
    endloop
  endfacet
  facet normal 0 0 1
    outer loop
      vertex 0.439533 6.98619 33
      vertex 0.32965 5.23964 33
      vertex 0.983751 5.15701 33
    endloop
  endfacet
  facet normal 0 0 1
    outer loop
      vertex 0.439533 6.98619 33
      vertex -0.32965 5.23964 33
      vertex 0.32965 5.23964 33
    endloop
  endfacet
  facet normal -0 0 1
    outer loop
      vertex -0.439533 6.98619 33
      vertex -0.32965 5.23964 33
      vertex 0.439533 6.98619 33
    endloop
  endfacet
  facet normal 0 0 1
    outer loop
      vertex -0.439533 6.98619 33
      vertex -0.983751 5.15701 33
      vertex -0.32965 5.23964 33
    endloop
  endfacet
  facet normal -0 0 1
    outer loop
      vertex -1.31167 6.87601 33
      vertex -0.983751 5.15701 33
      vertex -0.439533 6.98619 33
    endloop
  endfacet
  facet normal 0 0 1
    outer loop
      vertex -1.31167 6.87601 33
      vertex -1.62234 4.99305 33
      vertex -0.983751 5.15701 33
    endloop
  endfacet
  facet normal -0 0 1
    outer loop
      vertex -2.16312 6.6574 33
      vertex -1.62234 4.99305 33
      vertex -1.31167 6.87601 33
    endloop
  endfacet
  facet normal 0 0 1
    outer loop
      vertex -2.16312 6.6574 33
      vertex -2.23534 4.75034 33
      vertex -1.62234 4.99305 33
    endloop
  endfacet
  facet normal -0 0 1
    outer loop
      vertex -2.98045 6.33379 33
      vertex -2.23534 4.75034 33
      vertex -2.16312 6.6574 33
    endloop
  endfacet
  facet normal 0 0 1
    outer loop
      vertex -2.23534 4.75034 33
      vertex -2.98045 6.33379 33
      vertex -2.81309 4.43272 33
    endloop
  endfacet
  facet normal -0 0 1
    outer loop
      vertex -3.75079 5.91029 33
      vertex -2.81309 4.43272 33
      vertex -2.98045 6.33379 33
    endloop
  endfacet
  facet normal 0 0 1
    outer loop
      vertex -2.81309 4.43272 33
      vertex -3.75079 5.91029 33
      vertex -3.34648 4.04519 33
    endloop
  endfacet
  facet normal -0 0 1
    outer loop
      vertex -4.46197 5.39359 33
      vertex -3.34648 4.04519 33
      vertex -3.75079 5.91029 33
    endloop
  endfacet
  facet normal 0 0 1
    outer loop
      vertex -3.34648 4.04519 33
      vertex -4.46197 5.39359 33
      vertex -3.82708 3.59387 33
    endloop
  endfacet
  facet normal -0 0 1
    outer loop
      vertex -5.10278 4.79183 33
      vertex -3.82708 3.59387 33
      vertex -4.46197 5.39359 33
    endloop
  endfacet
  facet normal 0 0 1
    outer loop
      vertex -3.82708 3.59387 33
      vertex -5.10278 4.79183 33
      vertex -4.24734 3.08587 33
    endloop
  endfacet
  facet normal -0 0 1
    outer loop
      vertex -5.66312 4.1145 33
      vertex -4.24734 3.08587 33
      vertex -5.10278 4.79183 33
    endloop
  endfacet
  facet normal 0 0 1
    outer loop
      vertex -4.24734 3.08587 33
      vertex -5.66312 4.1145 33
      vertex -4.60061 2.52921 33
    endloop
  endfacet
  facet normal -0 0 1
    outer loop
      vertex -6.13415 3.37228 33
      vertex -4.60061 2.52921 33
      vertex -5.66312 4.1145 33
    endloop
  endfacet
  facet normal 0 0 1
    outer loop
      vertex -4.60061 2.52921 33
      vertex -6.13415 3.37228 33
      vertex -4.88133 1.93265 33
    endloop
  endfacet
  facet normal -0 0 1
    outer loop
      vertex -6.50844 2.57687 33
      vertex -4.88133 1.93265 33
      vertex -6.13415 3.37228 33
    endloop
  endfacet
  facet normal 0 0 1
    outer loop
      vertex -4.88133 1.93265 33
      vertex -6.50844 2.57687 33
      vertex -5.08506 1.30562 33
    endloop
  endfacet
  facet normal -0 0 1
    outer loop
      vertex 4.88133 -1.93265 33
      vertex 6.50844 -2.57687 33
      vertex 5.08506 -1.30562 33
    endloop
  endfacet
  facet normal 0 0 1
    outer loop
      vertex 6.50844 -2.57687 33
      vertex 4.88133 -1.93265 33
      vertex 6.13415 -3.37228 33
    endloop
  endfacet
  facet normal -0 0 1
    outer loop
      vertex 4.60061 -2.52921 33
      vertex 6.13415 -3.37228 33
      vertex 4.88133 -1.93265 33
    endloop
  endfacet
  facet normal 0 0 1
    outer loop
      vertex 6.13415 -3.37228 33
      vertex 4.60061 -2.52921 33
      vertex 5.66312 -4.1145 33
    endloop
  endfacet
  facet normal -0 0 1
    outer loop
      vertex 4.24734 -3.08587 33
      vertex 5.66312 -4.1145 33
      vertex 4.60061 -2.52921 33
    endloop
  endfacet
  facet normal 0 0 1
    outer loop
      vertex 5.66312 -4.1145 33
      vertex 4.24734 -3.08587 33
      vertex 5.10278 -4.79183 33
    endloop
  endfacet
  facet normal -0 0 1
    outer loop
      vertex 3.82708 -3.59387 33
      vertex 5.10278 -4.79183 33
      vertex 4.24734 -3.08587 33
    endloop
  endfacet
  facet normal 0 0 1
    outer loop
      vertex 5.10278 -4.79183 33
      vertex 3.82708 -3.59387 33
      vertex 4.46197 -5.39359 33
    endloop
  endfacet
  facet normal -0 0 1
    outer loop
      vertex 3.34648 -4.04519 33
      vertex 4.46197 -5.39359 33
      vertex 3.82708 -3.59387 33
    endloop
  endfacet
  facet normal 0 0 1
    outer loop
      vertex 4.46197 -5.39359 33
      vertex 3.34648 -4.04519 33
      vertex 3.75079 -5.91029 33
    endloop
  endfacet
  facet normal -0 0 1
    outer loop
      vertex 2.81309 -4.43272 33
      vertex 3.75079 -5.91029 33
      vertex 3.34648 -4.04519 33
    endloop
  endfacet
  facet normal 0 0 1
    outer loop
      vertex 3.75079 -5.91029 33
      vertex 2.81309 -4.43272 33
      vertex 2.98045 -6.33379 33
    endloop
  endfacet
  facet normal -0 0 1
    outer loop
      vertex 2.23534 -4.75034 33
      vertex 2.98045 -6.33379 33
      vertex 2.81309 -4.43272 33
    endloop
  endfacet
  facet normal 0 0 1
    outer loop
      vertex 2.23534 -4.75034 33
      vertex 2.16312 -6.6574 33
      vertex 2.98045 -6.33379 33
    endloop
  endfacet
  facet normal -0 0 1
    outer loop
      vertex 1.62234 -4.99305 33
      vertex 2.16312 -6.6574 33
      vertex 2.23534 -4.75034 33
    endloop
  endfacet
  facet normal 0 0 1
    outer loop
      vertex 1.62234 -4.99305 33
      vertex 1.31167 -6.87601 33
      vertex 2.16312 -6.6574 33
    endloop
  endfacet
  facet normal -0 0 1
    outer loop
      vertex 0.983751 -5.15701 33
      vertex 1.31167 -6.87601 33
      vertex 1.62234 -4.99305 33
    endloop
  endfacet
  facet normal 0 0 1
    outer loop
      vertex 0.983751 -5.15701 33
      vertex 0.439533 -6.98619 33
      vertex 1.31167 -6.87601 33
    endloop
  endfacet
  facet normal -0 0 1
    outer loop
      vertex 0.32965 -5.23964 33
      vertex 0.439533 -6.98619 33
      vertex 0.983751 -5.15701 33
    endloop
  endfacet
  facet normal -0 0 1
    outer loop
      vertex -0.32965 -5.23964 33
      vertex 0.439533 -6.98619 33
      vertex 0.32965 -5.23964 33
    endloop
  endfacet
  facet normal 0 0 1
    outer loop
      vertex -0.32965 -5.23964 33
      vertex -0.439533 -6.98619 33
      vertex 0.439533 -6.98619 33
    endloop
  endfacet
  facet normal 0 0 1
    outer loop
      vertex -0.983751 -5.15701 33
      vertex -0.439533 -6.98619 33
      vertex -0.32965 -5.23964 33
    endloop
  endfacet
  facet normal 0 0 1
    outer loop
      vertex -0.983751 -5.15701 33
      vertex -1.31167 -6.87601 33
      vertex -0.439533 -6.98619 33
    endloop
  endfacet
  facet normal 0 0 1
    outer loop
      vertex -1.62234 -4.99305 33
      vertex -1.31167 -6.87601 33
      vertex -0.983751 -5.15701 33
    endloop
  endfacet
  facet normal 0 0 1
    outer loop
      vertex -1.62234 -4.99305 33
      vertex -2.16312 -6.6574 33
      vertex -1.31167 -6.87601 33
    endloop
  endfacet
  facet normal 0 0 1
    outer loop
      vertex -2.23534 -4.75034 33
      vertex -2.16312 -6.6574 33
      vertex -1.62234 -4.99305 33
    endloop
  endfacet
  facet normal 0 0 1
    outer loop
      vertex -2.98045 -6.33379 33
      vertex -2.23534 -4.75034 33
      vertex -2.81309 -4.43272 33
    endloop
  endfacet
  facet normal 0 0 1
    outer loop
      vertex -2.23534 -4.75034 33
      vertex -2.98045 -6.33379 33
      vertex -2.16312 -6.6574 33
    endloop
  endfacet
  facet normal 0 0 1
    outer loop
      vertex -3.75079 -5.91029 33
      vertex -2.81309 -4.43272 33
      vertex -3.34648 -4.04519 33
    endloop
  endfacet
  facet normal 0 0 1
    outer loop
      vertex -2.81309 -4.43272 33
      vertex -3.75079 -5.91029 33
      vertex -2.98045 -6.33379 33
    endloop
  endfacet
  facet normal 0 0 1
    outer loop
      vertex -4.46197 -5.39359 33
      vertex -3.34648 -4.04519 33
      vertex -3.82708 -3.59387 33
    endloop
  endfacet
  facet normal 0 0 1
    outer loop
      vertex -5.10278 -4.79183 33
      vertex -3.82708 -3.59387 33
      vertex -4.24734 -3.08587 33
    endloop
  endfacet
  facet normal 0 0 1
    outer loop
      vertex -3.34648 -4.04519 33
      vertex -4.46197 -5.39359 33
      vertex -3.75079 -5.91029 33
    endloop
  endfacet
  facet normal 0 0 1
    outer loop
      vertex -5.66312 -4.1145 33
      vertex -4.24734 -3.08587 33
      vertex -4.60061 -2.52921 33
    endloop
  endfacet
  facet normal 0 0 1
    outer loop
      vertex -6.13415 -3.37228 33
      vertex -4.60061 -2.52921 33
      vertex -4.88133 -1.93265 33
    endloop
  endfacet
  facet normal 0 0 1
    outer loop
      vertex -6.50844 -2.57687 33
      vertex -4.88133 -1.93265 33
      vertex -5.08506 -1.30562 33
    endloop
  endfacet
  facet normal 0 0 1
    outer loop
      vertex -3.82708 -3.59387 33
      vertex -5.10278 -4.79183 33
      vertex -4.46197 -5.39359 33
    endloop
  endfacet
  facet normal 0 0 1
    outer loop
      vertex -6.78008 -1.74083 33
      vertex -5.08506 -1.30562 33
      vertex -5.2086 -0.657999 33
    endloop
  endfacet
  facet normal 0 0 1
    outer loop
      vertex -6.9448 -0.877332 33
      vertex -5.2086 -0.657999 33
      vertex -5.25 0 33
    endloop
  endfacet
  facet normal -0 0 1
    outer loop
      vertex -6.78008 1.74083 33
      vertex -5.08506 1.30562 33
      vertex -6.50844 2.57687 33
    endloop
  endfacet
  facet normal 0 0 1
    outer loop
      vertex -4.24734 -3.08587 33
      vertex -5.66312 -4.1145 33
      vertex -5.10278 -4.79183 33
    endloop
  endfacet
  facet normal 0 0 1
    outer loop
      vertex -5.08506 1.30562 33
      vertex -6.78008 1.74083 33
      vertex -5.2086 0.657999 33
    endloop
  endfacet
  facet normal 0 0 1
    outer loop
      vertex -4.60061 -2.52921 33
      vertex -6.13415 -3.37228 33
      vertex -5.66312 -4.1145 33
    endloop
  endfacet
  facet normal -0 0 1
    outer loop
      vertex -6.9448 0.877332 33
      vertex -5.2086 0.657999 33
      vertex -6.78008 1.74083 33
    endloop
  endfacet
  facet normal 0 0 1
    outer loop
      vertex -4.88133 -1.93265 33
      vertex -6.50844 -2.57687 33
      vertex -6.13415 -3.37228 33
    endloop
  endfacet
  facet normal 0 0 1
    outer loop
      vertex -5.2086 0.657999 33
      vertex -6.9448 0.877332 33
      vertex -5.25 0 33
    endloop
  endfacet
  facet normal 0 0 1
    outer loop
      vertex -5.08506 -1.30562 33
      vertex -6.78008 -1.74083 33
      vertex -6.50844 -2.57687 33
    endloop
  endfacet
  facet normal 0 0 1
    outer loop
      vertex -7 0 33
      vertex -5.25 0 33
      vertex -6.9448 0.877332 33
    endloop
  endfacet
  facet normal 0 0 1
    outer loop
      vertex -5.2086 -0.657999 33
      vertex -6.9448 -0.877332 33
      vertex -6.78008 -1.74083 33
    endloop
  endfacet
  facet normal 0 0 1
    outer loop
      vertex -5.25 0 33
      vertex -7 0 33
      vertex -6.9448 -0.877332 33
    endloop
  endfacet
  facet normal -0.481755 0.876306 0
    outer loop
      vertex -2.98045 6.33379 -33
      vertex -3.75079 5.91029 33
      vertex -2.98045 6.33379 33
    endloop
  endfacet
  facet normal -0.481755 0.876306 0
    outer loop
      vertex -3.75079 5.91029 33
      vertex -2.98045 6.33379 -33
      vertex -3.75079 5.91029 -33
    endloop
  endfacet
  facet normal -0.587783 0.809018 0
    outer loop
      vertex -3.75079 5.91029 -33
      vertex -4.46197 5.39359 33
      vertex -3.75079 5.91029 33
    endloop
  endfacet
  facet normal -0.587783 0.809018 0
    outer loop
      vertex -4.46197 5.39359 33
      vertex -3.75079 5.91029 -33
      vertex -4.46197 5.39359 -33
    endloop
  endfacet
  facet normal -0.125337 0.992114 0
    outer loop
      vertex -0.439533 6.98619 -33
      vertex -1.31167 6.87601 33
      vertex -0.439533 6.98619 33
    endloop
  endfacet
  facet normal -0.125337 0.992114 0
    outer loop
      vertex -1.31167 6.87601 33
      vertex -0.439533 6.98619 -33
      vertex -1.31167 6.87601 -33
    endloop
  endfacet
  facet normal 0.998027 -0.0627939 0
    outer loop
      vertex 6.9448 -0.877332 33
      vertex 7 0 -33
      vertex 7 0 33
    endloop
  endfacet
  facet normal 0.998027 -0.0627939 0
    outer loop
      vertex 7 0 -33
      vertex 6.9448 -0.877332 33
      vertex 6.9448 -0.877332 -33
    endloop
  endfacet
  facet normal 0.904828 -0.425778 0
    outer loop
      vertex 6.13415 -3.37228 33
      vertex 6.50844 -2.57687 -33
      vertex 6.50844 -2.57687 33
    endloop
  endfacet
  facet normal 0.904828 -0.425778 0
    outer loop
      vertex 6.50844 -2.57687 -33
      vertex 6.13415 -3.37228 33
      vertex 6.13415 -3.37228 -33
    endloop
  endfacet
  facet normal -0.684547 -0.728969 0
    outer loop
      vertex -5.10278 -4.79183 -33
      vertex -4.46197 -5.39359 33
      vertex -5.10278 -4.79183 33
    endloop
  endfacet
  facet normal -0.684547 -0.728969 -0
    outer loop
      vertex -4.46197 -5.39359 33
      vertex -5.10278 -4.79183 -33
      vertex -4.46197 -5.39359 -33
    endloop
  endfacet
  facet normal -0.904828 -0.425778 0
    outer loop
      vertex -6.13415 -3.37228 -33
      vertex -6.50844 -2.57687 33
      vertex -6.50844 -2.57687 -33
    endloop
  endfacet
  facet normal -0.904828 -0.425778 0
    outer loop
      vertex -6.50844 -2.57687 33
      vertex -6.13415 -3.37228 -33
      vertex -6.13415 -3.37228 33
    endloop
  endfacet
  facet normal -0.844326 -0.535829 0
    outer loop
      vertex -5.66312 -4.1145 -33
      vertex -6.13415 -3.37228 33
      vertex -6.13415 -3.37228 -33
    endloop
  endfacet
  facet normal -0.844326 -0.535829 0
    outer loop
      vertex -6.13415 -3.37228 33
      vertex -5.66312 -4.1145 -33
      vertex -5.66312 -4.1145 33
    endloop
  endfacet
  facet normal 0 0 -1
    outer loop
      vertex 5.25 0 -33
      vertex 7 0 -33
      vertex 6.9448 -0.877332 -33
    endloop
  endfacet
  facet normal 0 0 -1
    outer loop
      vertex 5.2086 -0.657999 -33
      vertex 6.9448 -0.877332 -33
      vertex 6.78008 -1.74083 -33
    endloop
  endfacet
  facet normal 0 0 -1
    outer loop
      vertex 7 0 -33
      vertex 5.25 0 -33
      vertex 6.9448 0.877332 -33
    endloop
  endfacet
  facet normal 0 0 -1
    outer loop
      vertex 5.08506 -1.30562 -33
      vertex 6.78008 -1.74083 -33
      vertex 6.50844 -2.57687 -33
    endloop
  endfacet
  facet normal 0 0 -1
    outer loop
      vertex 5.2086 0.657999 -33
      vertex 6.9448 0.877332 -33
      vertex 5.25 0 -33
    endloop
  endfacet
  facet normal 0 0 -1
    outer loop
      vertex 4.88133 -1.93265 -33
      vertex 6.50844 -2.57687 -33
      vertex 6.13415 -3.37228 -33
    endloop
  endfacet
  facet normal -0 0 -1
    outer loop
      vertex 6.9448 0.877332 -33
      vertex 5.2086 0.657999 -33
      vertex 6.78008 1.74083 -33
    endloop
  endfacet
  facet normal 0 0 -1
    outer loop
      vertex 4.60061 -2.52921 -33
      vertex 6.13415 -3.37228 -33
      vertex 5.66312 -4.1145 -33
    endloop
  endfacet
  facet normal 0 0 -1
    outer loop
      vertex 5.08506 1.30562 -33
      vertex 6.78008 1.74083 -33
      vertex 5.2086 0.657999 -33
    endloop
  endfacet
  facet normal -0 0 -1
    outer loop
      vertex 6.78008 1.74083 -33
      vertex 5.08506 1.30562 -33
      vertex 6.50844 2.57687 -33
    endloop
  endfacet
  facet normal 0 0 -1
    outer loop
      vertex 6.9448 -0.877332 -33
      vertex 5.2086 -0.657999 -33
      vertex 5.25 0 -33
    endloop
  endfacet
  facet normal 0 0 -1
    outer loop
      vertex 4.24734 -3.08587 -33
      vertex 5.66312 -4.1145 -33
      vertex 5.10278 -4.79183 -33
    endloop
  endfacet
  facet normal 0 0 -1
    outer loop
      vertex 6.78008 -1.74083 -33
      vertex 5.08506 -1.30562 -33
      vertex 5.2086 -0.657999 -33
    endloop
  endfacet
  facet normal 0 0 -1
    outer loop
      vertex 6.50844 -2.57687 -33
      vertex 4.88133 -1.93265 -33
      vertex 5.08506 -1.30562 -33
    endloop
  endfacet
  facet normal 0 0 -1
    outer loop
      vertex 6.13415 -3.37228 -33
      vertex 4.60061 -2.52921 -33
      vertex 4.88133 -1.93265 -33
    endloop
  endfacet
  facet normal 0 0 -1
    outer loop
      vertex 3.82708 -3.59387 -33
      vertex 5.10278 -4.79183 -33
      vertex 4.46197 -5.39359 -33
    endloop
  endfacet
  facet normal 0 0 -1
    outer loop
      vertex 5.66312 -4.1145 -33
      vertex 4.24734 -3.08587 -33
      vertex 4.60061 -2.52921 -33
    endloop
  endfacet
  facet normal 0 0 -1
    outer loop
      vertex 5.10278 -4.79183 -33
      vertex 3.82708 -3.59387 -33
      vertex 4.24734 -3.08587 -33
    endloop
  endfacet
  facet normal 0 0 -1
    outer loop
      vertex 3.34648 -4.04519 -33
      vertex 4.46197 -5.39359 -33
      vertex 3.75079 -5.91029 -33
    endloop
  endfacet
  facet normal 0 0 -1
    outer loop
      vertex 4.46197 -5.39359 -33
      vertex 3.34648 -4.04519 -33
      vertex 3.82708 -3.59387 -33
    endloop
  endfacet
  facet normal 0 0 -1
    outer loop
      vertex 2.81309 -4.43272 -33
      vertex 3.75079 -5.91029 -33
      vertex 2.98045 -6.33379 -33
    endloop
  endfacet
  facet normal 0 0 -1
    outer loop
      vertex 3.75079 -5.91029 -33
      vertex 2.81309 -4.43272 -33
      vertex 3.34648 -4.04519 -33
    endloop
  endfacet
  facet normal 0 0 -1
    outer loop
      vertex 2.98045 -6.33379 -33
      vertex 2.23534 -4.75034 -33
      vertex 2.81309 -4.43272 -33
    endloop
  endfacet
  facet normal 0 0 -1
    outer loop
      vertex 2.16312 -6.6574 -33
      vertex 2.23534 -4.75034 -33
      vertex 2.98045 -6.33379 -33
    endloop
  endfacet
  facet normal 0 0 -1
    outer loop
      vertex 2.16312 -6.6574 -33
      vertex 1.62234 -4.99305 -33
      vertex 2.23534 -4.75034 -33
    endloop
  endfacet
  facet normal 0 0 -1
    outer loop
      vertex 1.31167 -6.87601 -33
      vertex 1.62234 -4.99305 -33
      vertex 2.16312 -6.6574 -33
    endloop
  endfacet
  facet normal 0 0 -1
    outer loop
      vertex 1.31167 -6.87601 -33
      vertex 0.983751 -5.15701 -33
      vertex 1.62234 -4.99305 -33
    endloop
  endfacet
  facet normal 0 0 -1
    outer loop
      vertex 0.439533 -6.98619 -33
      vertex 0.983751 -5.15701 -33
      vertex 1.31167 -6.87601 -33
    endloop
  endfacet
  facet normal 0 0 -1
    outer loop
      vertex 0.439533 -6.98619 -33
      vertex 0.32965 -5.23964 -33
      vertex 0.983751 -5.15701 -33
    endloop
  endfacet
  facet normal 0 0 -1
    outer loop
      vertex 0.439533 -6.98619 -33
      vertex -0.32965 -5.23964 -33
      vertex 0.32965 -5.23964 -33
    endloop
  endfacet
  facet normal 0 0 -1
    outer loop
      vertex -0.439533 -6.98619 -33
      vertex -0.32965 -5.23964 -33
      vertex 0.439533 -6.98619 -33
    endloop
  endfacet
  facet normal 0 0 -1
    outer loop
      vertex -0.439533 -6.98619 -33
      vertex -0.983751 -5.15701 -33
      vertex -0.32965 -5.23964 -33
    endloop
  endfacet
  facet normal 0 0 -1
    outer loop
      vertex -1.31167 -6.87601 -33
      vertex -0.983751 -5.15701 -33
      vertex -0.439533 -6.98619 -33
    endloop
  endfacet
  facet normal 0 0 -1
    outer loop
      vertex -1.31167 -6.87601 -33
      vertex -1.62234 -4.99305 -33
      vertex -0.983751 -5.15701 -33
    endloop
  endfacet
  facet normal 0 0 -1
    outer loop
      vertex -2.16312 -6.6574 -33
      vertex -1.62234 -4.99305 -33
      vertex -1.31167 -6.87601 -33
    endloop
  endfacet
  facet normal 0 0 -1
    outer loop
      vertex -2.16312 -6.6574 -33
      vertex -2.23534 -4.75034 -33
      vertex -1.62234 -4.99305 -33
    endloop
  endfacet
  facet normal 0 0 -1
    outer loop
      vertex -2.98045 -6.33379 -33
      vertex -2.23534 -4.75034 -33
      vertex -2.16312 -6.6574 -33
    endloop
  endfacet
  facet normal -0 0 -1
    outer loop
      vertex -2.23534 -4.75034 -33
      vertex -2.98045 -6.33379 -33
      vertex -2.81309 -4.43272 -33
    endloop
  endfacet
  facet normal 0 0 -1
    outer loop
      vertex -3.75079 -5.91029 -33
      vertex -2.81309 -4.43272 -33
      vertex -2.98045 -6.33379 -33
    endloop
  endfacet
  facet normal -0 0 -1
    outer loop
      vertex -2.81309 -4.43272 -33
      vertex -3.75079 -5.91029 -33
      vertex -3.34648 -4.04519 -33
    endloop
  endfacet
  facet normal 0 0 -1
    outer loop
      vertex -4.46197 -5.39359 -33
      vertex -3.34648 -4.04519 -33
      vertex -3.75079 -5.91029 -33
    endloop
  endfacet
  facet normal -0 0 -1
    outer loop
      vertex -3.34648 -4.04519 -33
      vertex -4.46197 -5.39359 -33
      vertex -3.82708 -3.59387 -33
    endloop
  endfacet
  facet normal 0 0 -1
    outer loop
      vertex -5.10278 -4.79183 -33
      vertex -3.82708 -3.59387 -33
      vertex -4.46197 -5.39359 -33
    endloop
  endfacet
  facet normal -0 0 -1
    outer loop
      vertex -3.82708 -3.59387 -33
      vertex -5.10278 -4.79183 -33
      vertex -4.24734 -3.08587 -33
    endloop
  endfacet
  facet normal 0 0 -1
    outer loop
      vertex -5.66312 -4.1145 -33
      vertex -4.24734 -3.08587 -33
      vertex -5.10278 -4.79183 -33
    endloop
  endfacet
  facet normal -0 0 -1
    outer loop
      vertex -4.24734 -3.08587 -33
      vertex -5.66312 -4.1145 -33
      vertex -4.60061 -2.52921 -33
    endloop
  endfacet
  facet normal 0 0 -1
    outer loop
      vertex -6.13415 -3.37228 -33
      vertex -4.60061 -2.52921 -33
      vertex -5.66312 -4.1145 -33
    endloop
  endfacet
  facet normal -0 0 -1
    outer loop
      vertex -4.60061 -2.52921 -33
      vertex -6.13415 -3.37228 -33
      vertex -4.88133 -1.93265 -33
    endloop
  endfacet
  facet normal 0 0 -1
    outer loop
      vertex -6.50844 -2.57687 -33
      vertex -4.88133 -1.93265 -33
      vertex -6.13415 -3.37228 -33
    endloop
  endfacet
  facet normal -0 0 -1
    outer loop
      vertex -4.88133 -1.93265 -33
      vertex -6.50844 -2.57687 -33
      vertex -5.08506 -1.30562 -33
    endloop
  endfacet
  facet normal 0 0 -1
    outer loop
      vertex 4.88133 1.93265 -33
      vertex 6.50844 2.57687 -33
      vertex 5.08506 1.30562 -33
    endloop
  endfacet
  facet normal -0 0 -1
    outer loop
      vertex 6.50844 2.57687 -33
      vertex 4.88133 1.93265 -33
      vertex 6.13415 3.37228 -33
    endloop
  endfacet
  facet normal 0 0 -1
    outer loop
      vertex 4.60061 2.52921 -33
      vertex 6.13415 3.37228 -33
      vertex 4.88133 1.93265 -33
    endloop
  endfacet
  facet normal -0 0 -1
    outer loop
      vertex 6.13415 3.37228 -33
      vertex 4.60061 2.52921 -33
      vertex 5.66312 4.1145 -33
    endloop
  endfacet
  facet normal 0 0 -1
    outer loop
      vertex 4.24734 3.08587 -33
      vertex 5.66312 4.1145 -33
      vertex 4.60061 2.52921 -33
    endloop
  endfacet
  facet normal -0 0 -1
    outer loop
      vertex 5.66312 4.1145 -33
      vertex 4.24734 3.08587 -33
      vertex 5.10278 4.79183 -33
    endloop
  endfacet
  facet normal 0 0 -1
    outer loop
      vertex 3.82708 3.59387 -33
      vertex 5.10278 4.79183 -33
      vertex 4.24734 3.08587 -33
    endloop
  endfacet
  facet normal -0 0 -1
    outer loop
      vertex 5.10278 4.79183 -33
      vertex 3.82708 3.59387 -33
      vertex 4.46197 5.39359 -33
    endloop
  endfacet
  facet normal 0 0 -1
    outer loop
      vertex 3.34648 4.04519 -33
      vertex 4.46197 5.39359 -33
      vertex 3.82708 3.59387 -33
    endloop
  endfacet
  facet normal -0 0 -1
    outer loop
      vertex 4.46197 5.39359 -33
      vertex 3.34648 4.04519 -33
      vertex 3.75079 5.91029 -33
    endloop
  endfacet
  facet normal 0 0 -1
    outer loop
      vertex 2.81309 4.43272 -33
      vertex 3.75079 5.91029 -33
      vertex 3.34648 4.04519 -33
    endloop
  endfacet
  facet normal -0 0 -1
    outer loop
      vertex 3.75079 5.91029 -33
      vertex 2.81309 4.43272 -33
      vertex 2.98045 6.33379 -33
    endloop
  endfacet
  facet normal 0 0 -1
    outer loop
      vertex 2.23534 4.75034 -33
      vertex 2.98045 6.33379 -33
      vertex 2.81309 4.43272 -33
    endloop
  endfacet
  facet normal 0 0 -1
    outer loop
      vertex 2.23534 4.75034 -33
      vertex 2.16312 6.6574 -33
      vertex 2.98045 6.33379 -33
    endloop
  endfacet
  facet normal 0 0 -1
    outer loop
      vertex 1.62234 4.99305 -33
      vertex 2.16312 6.6574 -33
      vertex 2.23534 4.75034 -33
    endloop
  endfacet
  facet normal 0 0 -1
    outer loop
      vertex 1.62234 4.99305 -33
      vertex 1.31167 6.87601 -33
      vertex 2.16312 6.6574 -33
    endloop
  endfacet
  facet normal 0 0 -1
    outer loop
      vertex 0.983751 5.15701 -33
      vertex 1.31167 6.87601 -33
      vertex 1.62234 4.99305 -33
    endloop
  endfacet
  facet normal 0 0 -1
    outer loop
      vertex 0.983751 5.15701 -33
      vertex 0.439533 6.98619 -33
      vertex 1.31167 6.87601 -33
    endloop
  endfacet
  facet normal 0 0 -1
    outer loop
      vertex 0.32965 5.23964 -33
      vertex 0.439533 6.98619 -33
      vertex 0.983751 5.15701 -33
    endloop
  endfacet
  facet normal 0 0 -1
    outer loop
      vertex -0.32965 5.23964 -33
      vertex 0.439533 6.98619 -33
      vertex 0.32965 5.23964 -33
    endloop
  endfacet
  facet normal 0 0 -1
    outer loop
      vertex -0.32965 5.23964 -33
      vertex -0.439533 6.98619 -33
      vertex 0.439533 6.98619 -33
    endloop
  endfacet
  facet normal 0 0 -1
    outer loop
      vertex -0.983751 5.15701 -33
      vertex -0.439533 6.98619 -33
      vertex -0.32965 5.23964 -33
    endloop
  endfacet
  facet normal 0 0 -1
    outer loop
      vertex -0.983751 5.15701 -33
      vertex -1.31167 6.87601 -33
      vertex -0.439533 6.98619 -33
    endloop
  endfacet
  facet normal 0 0 -1
    outer loop
      vertex -1.62234 4.99305 -33
      vertex -1.31167 6.87601 -33
      vertex -0.983751 5.15701 -33
    endloop
  endfacet
  facet normal 0 0 -1
    outer loop
      vertex -1.62234 4.99305 -33
      vertex -2.16312 6.6574 -33
      vertex -1.31167 6.87601 -33
    endloop
  endfacet
  facet normal 0 0 -1
    outer loop
      vertex -2.23534 4.75034 -33
      vertex -2.16312 6.6574 -33
      vertex -1.62234 4.99305 -33
    endloop
  endfacet
  facet normal 0 0 -1
    outer loop
      vertex -2.98045 6.33379 -33
      vertex -2.23534 4.75034 -33
      vertex -2.81309 4.43272 -33
    endloop
  endfacet
  facet normal 0 0 -1
    outer loop
      vertex -2.23534 4.75034 -33
      vertex -2.98045 6.33379 -33
      vertex -2.16312 6.6574 -33
    endloop
  endfacet
  facet normal 0 0 -1
    outer loop
      vertex -3.75079 5.91029 -33
      vertex -2.81309 4.43272 -33
      vertex -3.34648 4.04519 -33
    endloop
  endfacet
  facet normal 0 0 -1
    outer loop
      vertex -2.81309 4.43272 -33
      vertex -3.75079 5.91029 -33
      vertex -2.98045 6.33379 -33
    endloop
  endfacet
  facet normal 0 0 -1
    outer loop
      vertex -4.46197 5.39359 -33
      vertex -3.34648 4.04519 -33
      vertex -3.82708 3.59387 -33
    endloop
  endfacet
  facet normal 0 0 -1
    outer loop
      vertex -5.10278 4.79183 -33
      vertex -3.82708 3.59387 -33
      vertex -4.24734 3.08587 -33
    endloop
  endfacet
  facet normal 0 0 -1
    outer loop
      vertex -3.34648 4.04519 -33
      vertex -4.46197 5.39359 -33
      vertex -3.75079 5.91029 -33
    endloop
  endfacet
  facet normal 0 0 -1
    outer loop
      vertex -5.66312 4.1145 -33
      vertex -4.24734 3.08587 -33
      vertex -4.60061 2.52921 -33
    endloop
  endfacet
  facet normal 0 0 -1
    outer loop
      vertex -6.13415 3.37228 -33
      vertex -4.60061 2.52921 -33
      vertex -4.88133 1.93265 -33
    endloop
  endfacet
  facet normal 0 0 -1
    outer loop
      vertex -6.50844 2.57687 -33
      vertex -4.88133 1.93265 -33
      vertex -5.08506 1.30562 -33
    endloop
  endfacet
  facet normal 0 0 -1
    outer loop
      vertex -3.82708 3.59387 -33
      vertex -5.10278 4.79183 -33
      vertex -4.46197 5.39359 -33
    endloop
  endfacet
  facet normal 0 0 -1
    outer loop
      vertex -6.78008 1.74083 -33
      vertex -5.08506 1.30562 -33
      vertex -5.2086 0.657999 -33
    endloop
  endfacet
  facet normal 0 0 -1
    outer loop
      vertex -6.9448 0.877332 -33
      vertex -5.2086 0.657999 -33
      vertex -5.25 0 -33
    endloop
  endfacet
  facet normal 0 0 -1
    outer loop
      vertex -6.78008 -1.74083 -33
      vertex -5.08506 -1.30562 -33
      vertex -6.50844 -2.57687 -33
    endloop
  endfacet
  facet normal 0 0 -1
    outer loop
      vertex -4.24734 3.08587 -33
      vertex -5.66312 4.1145 -33
      vertex -5.10278 4.79183 -33
    endloop
  endfacet
  facet normal -0 0 -1
    outer loop
      vertex -5.08506 -1.30562 -33
      vertex -6.78008 -1.74083 -33
      vertex -5.2086 -0.657999 -33
    endloop
  endfacet
  facet normal 0 0 -1
    outer loop
      vertex -4.60061 2.52921 -33
      vertex -6.13415 3.37228 -33
      vertex -5.66312 4.1145 -33
    endloop
  endfacet
  facet normal 0 0 -1
    outer loop
      vertex -6.9448 -0.877332 -33
      vertex -5.2086 -0.657999 -33
      vertex -6.78008 -1.74083 -33
    endloop
  endfacet
  facet normal 0 0 -1
    outer loop
      vertex -4.88133 1.93265 -33
      vertex -6.50844 2.57687 -33
      vertex -6.13415 3.37228 -33
    endloop
  endfacet
  facet normal -0 0 -1
    outer loop
      vertex -5.2086 -0.657999 -33
      vertex -6.9448 -0.877332 -33
      vertex -5.25 0 -33
    endloop
  endfacet
  facet normal 0 0 -1
    outer loop
      vertex -5.08506 1.30562 -33
      vertex -6.78008 1.74083 -33
      vertex -6.50844 2.57687 -33
    endloop
  endfacet
  facet normal 0 0 -1
    outer loop
      vertex -7 0 -33
      vertex -5.25 0 -33
      vertex -6.9448 -0.877332 -33
    endloop
  endfacet
  facet normal 0 0 -1
    outer loop
      vertex -5.2086 0.657999 -33
      vertex -6.9448 0.877332 -33
      vertex -6.78008 1.74083 -33
    endloop
  endfacet
  facet normal 0 0 -1
    outer loop
      vertex -5.25 0 -33
      vertex -7 0 -33
      vertex -6.9448 0.877332 -33
    endloop
  endfacet
  facet normal 0.481755 -0.876306 0
    outer loop
      vertex 2.98045 -6.33379 -33
      vertex 3.75079 -5.91029 33
      vertex 2.98045 -6.33379 33
    endloop
  endfacet
  facet normal 0.481755 -0.876306 0
    outer loop
      vertex 3.75079 -5.91029 33
      vertex 2.98045 -6.33379 -33
      vertex 3.75079 -5.91029 -33
    endloop
  endfacet
  facet normal 0.951058 -0.309011 0
    outer loop
      vertex 6.50844 -2.57687 33
      vertex 6.78008 -1.74083 -33
      vertex 6.78008 -1.74083 33
    endloop
  endfacet
  facet normal 0.951058 -0.309011 0
    outer loop
      vertex 6.78008 -1.74083 -33
      vertex 6.50844 -2.57687 33
      vertex 6.50844 -2.57687 -33
    endloop
  endfacet
  facet normal -0.770511 -0.637427 0
    outer loop
      vertex -5.10278 -4.79183 -33
      vertex -5.66312 -4.1145 33
      vertex -5.66312 -4.1145 -33
    endloop
  endfacet
  facet normal -0.770511 -0.637427 0
    outer loop
      vertex -5.66312 -4.1145 33
      vertex -5.10278 -4.79183 -33
      vertex -5.10278 -4.79183 33
    endloop
  endfacet
  facet normal -0.951058 -0.309011 0
    outer loop
      vertex -6.50844 -2.57687 -33
      vertex -6.78008 -1.74083 33
      vertex -6.78008 -1.74083 -33
    endloop
  endfacet
  facet normal -0.951058 -0.309011 0
    outer loop
      vertex -6.78008 -1.74083 33
      vertex -6.50844 -2.57687 -33
      vertex -6.50844 -2.57687 33
    endloop
  endfacet
  facet normal 0.684547 -0.728969 0
    outer loop
      vertex 4.46197 -5.39359 -33
      vertex 5.10278 -4.79183 33
      vertex 4.46197 -5.39359 33
    endloop
  endfacet
  facet normal 0.684547 -0.728969 0
    outer loop
      vertex 5.10278 -4.79183 33
      vertex 4.46197 -5.39359 -33
      vertex 5.10278 -4.79183 -33
    endloop
  endfacet
  facet normal 0.368131 -0.929774 0
    outer loop
      vertex 2.16312 -6.6574 -33
      vertex 2.98045 -6.33379 33
      vertex 2.16312 -6.6574 33
    endloop
  endfacet
  facet normal 0.368131 -0.929774 0
    outer loop
      vertex 2.98045 -6.33379 33
      vertex 2.16312 -6.6574 -33
      vertex 2.98045 -6.33379 -33
    endloop
  endfacet
  facet normal 0.248684 -0.968585 0
    outer loop
      vertex 1.31167 -6.87601 -33
      vertex 2.16312 -6.6574 33
      vertex 1.31167 -6.87601 33
    endloop
  endfacet
  facet normal 0.248684 -0.968585 0
    outer loop
      vertex 2.16312 -6.6574 33
      vertex 1.31167 -6.87601 -33
      vertex 2.16312 -6.6574 -33
    endloop
  endfacet
  facet normal 0.982287 -0.18738 0
    outer loop
      vertex 6.78008 -1.74083 33
      vertex 6.9448 -0.877332 -33
      vertex 6.9448 -0.877332 33
    endloop
  endfacet
  facet normal 0.982287 -0.18738 0
    outer loop
      vertex 6.9448 -0.877332 -33
      vertex 6.78008 -1.74083 33
      vertex 6.78008 -1.74083 -33
    endloop
  endfacet
  facet normal 0.844326 -0.535829 0
    outer loop
      vertex 5.66312 -4.1145 33
      vertex 6.13415 -3.37228 -33
      vertex 6.13415 -3.37228 33
    endloop
  endfacet
  facet normal 0.844326 -0.535829 0
    outer loop
      vertex 6.13415 -3.37228 -33
      vertex 5.66312 -4.1145 33
      vertex 5.66312 -4.1145 -33
    endloop
  endfacet
  facet normal 0.770511 -0.637427 0
    outer loop
      vertex 5.10278 -4.79183 33
      vertex 5.66312 -4.1145 -33
      vertex 5.66312 -4.1145 33
    endloop
  endfacet
  facet normal 0.770511 -0.637427 0
    outer loop
      vertex 5.66312 -4.1145 -33
      vertex 5.10278 -4.79183 33
      vertex 5.10278 -4.79183 -33
    endloop
  endfacet
  facet normal -0.125337 -0.992114 0
    outer loop
      vertex -1.31167 -6.87601 -33
      vertex -0.439533 -6.98619 33
      vertex -1.31167 -6.87601 33
    endloop
  endfacet
  facet normal -0.125337 -0.992114 -0
    outer loop
      vertex -0.439533 -6.98619 33
      vertex -1.31167 -6.87601 -33
      vertex -0.439533 -6.98619 -33
    endloop
  endfacet
  facet normal -0.368131 -0.929774 0
    outer loop
      vertex -2.98045 -6.33379 -33
      vertex -2.16312 -6.6574 33
      vertex -2.98045 -6.33379 33
    endloop
  endfacet
  facet normal -0.368131 -0.929774 -0
    outer loop
      vertex -2.16312 -6.6574 33
      vertex -2.98045 -6.33379 -33
      vertex -2.16312 -6.6574 -33
    endloop
  endfacet
  facet normal -0.248684 -0.968585 0
    outer loop
      vertex -2.16312 -6.6574 -33
      vertex -1.31167 -6.87601 33
      vertex -2.16312 -6.6574 33
    endloop
  endfacet
  facet normal -0.248684 -0.968585 -0
    outer loop
      vertex -1.31167 -6.87601 33
      vertex -2.16312 -6.6574 -33
      vertex -1.31167 -6.87601 -33
    endloop
  endfacet
  facet normal -0.982287 -0.18738 0
    outer loop
      vertex -6.78008 -1.74083 -33
      vertex -6.9448 -0.877332 33
      vertex -6.9448 -0.877332 -33
    endloop
  endfacet
  facet normal -0.982287 -0.18738 0
    outer loop
      vertex -6.9448 -0.877332 33
      vertex -6.78008 -1.74083 -33
      vertex -6.78008 -1.74083 33
    endloop
  endfacet
  facet normal -0.998027 -0.0627939 0
    outer loop
      vertex -6.9448 -0.877332 -33
      vertex -7 0 33
      vertex -7 0 -33
    endloop
  endfacet
  facet normal -0.998027 -0.0627939 0
    outer loop
      vertex -7 0 33
      vertex -6.9448 -0.877332 -33
      vertex -6.9448 -0.877332 33
    endloop
  endfacet
  facet normal 0.587783 -0.809018 0
    outer loop
      vertex 3.75079 -5.91029 -33
      vertex 4.46197 -5.39359 33
      vertex 3.75079 -5.91029 33
    endloop
  endfacet
  facet normal 0.587783 -0.809018 0
    outer loop
      vertex 4.46197 -5.39359 33
      vertex 3.75079 -5.91029 -33
      vertex 4.46197 -5.39359 -33
    endloop
  endfacet
  facet normal -0.481755 -0.876306 0
    outer loop
      vertex -3.75079 -5.91029 -33
      vertex -2.98045 -6.33379 33
      vertex -3.75079 -5.91029 33
    endloop
  endfacet
  facet normal -0.481755 -0.876306 -0
    outer loop
      vertex -2.98045 -6.33379 33
      vertex -3.75079 -5.91029 -33
      vertex -2.98045 -6.33379 -33
    endloop
  endfacet
  facet normal -0.587783 -0.809018 0
    outer loop
      vertex -4.46197 -5.39359 -33
      vertex -3.75079 -5.91029 33
      vertex -4.46197 -5.39359 33
    endloop
  endfacet
  facet normal -0.587783 -0.809018 -0
    outer loop
      vertex -3.75079 -5.91029 33
      vertex -4.46197 -5.39359 -33
      vertex -3.75079 -5.91029 -33
    endloop
  endfacet
  facet normal -0.998027 -0.0627939 0
    outer loop
      vertex 5.25 0 -33
      vertex 5.2086 0.657999 33
      vertex 5.2086 0.657999 -33
    endloop
  endfacet
  facet normal -0.998027 -0.0627939 0
    outer loop
      vertex 5.2086 0.657999 33
      vertex 5.25 0 -33
      vertex 5.25 0 33
    endloop
  endfacet
  facet normal 0.998027 -0.0627939 0
    outer loop
      vertex -5.25 0 33
      vertex -5.2086 0.657999 -33
      vertex -5.2086 0.657999 33
    endloop
  endfacet
  facet normal 0.998027 -0.0627939 0
    outer loop
      vertex -5.2086 0.657999 -33
      vertex -5.25 0 33
      vertex -5.25 0 -33
    endloop
  endfacet
  facet normal 0 -1 0
    outer loop
      vertex -0.32965 5.23964 -33
      vertex 0.32965 5.23964 33
      vertex -0.32965 5.23964 33
    endloop
  endfacet
  facet normal 0 -1 -0
    outer loop
      vertex 0.32965 5.23964 33
      vertex -0.32965 5.23964 -33
      vertex 0.32965 5.23964 -33
    endloop
  endfacet
  facet normal 0 1 -0
    outer loop
      vertex 0.32965 -5.23964 -33
      vertex -0.32965 -5.23964 33
      vertex 0.32965 -5.23964 33
    endloop
  endfacet
  facet normal 0 1 0
    outer loop
      vertex -0.32965 -5.23964 33
      vertex 0.32965 -5.23964 -33
      vertex -0.32965 -5.23964 -33
    endloop
  endfacet
  facet normal -0.684552 0.728964 0
    outer loop
      vertex 3.82708 -3.59387 -33
      vertex 3.34648 -4.04519 33
      vertex 3.82708 -3.59387 33
    endloop
  endfacet
  facet normal -0.684552 0.728964 0
    outer loop
      vertex 3.34648 -4.04519 33
      vertex 3.82708 -3.59387 -33
      vertex 3.34648 -4.04519 -33
    endloop
  endfacet
  facet normal -0.684552 -0.728964 0
    outer loop
      vertex 3.34648 4.04519 -33
      vertex 3.82708 3.59387 33
      vertex 3.34648 4.04519 33
    endloop
  endfacet
  facet normal -0.684552 -0.728964 -0
    outer loop
      vertex 3.82708 3.59387 33
      vertex 3.34648 4.04519 -33
      vertex 3.82708 3.59387 -33
    endloop
  endfacet
  facet normal 0.684552 -0.728964 0
    outer loop
      vertex -3.82708 3.59387 -33
      vertex -3.34648 4.04519 33
      vertex -3.82708 3.59387 33
    endloop
  endfacet
  facet normal 0.684552 -0.728964 0
    outer loop
      vertex -3.34648 4.04519 33
      vertex -3.82708 3.59387 -33
      vertex -3.34648 4.04519 -33
    endloop
  endfacet
  facet normal 0.368133 -0.929773 0
    outer loop
      vertex -2.23534 4.75034 -33
      vertex -1.62234 4.99305 33
      vertex -2.23534 4.75034 33
    endloop
  endfacet
  facet normal 0.368133 -0.929773 0
    outer loop
      vertex -1.62234 4.99305 33
      vertex -2.23534 4.75034 -33
      vertex -1.62234 4.99305 -33
    endloop
  endfacet
  facet normal -0.904827 -0.42578 0
    outer loop
      vertex 4.88133 1.93265 -33
      vertex 4.60061 2.52921 33
      vertex 4.60061 2.52921 -33
    endloop
  endfacet
  facet normal -0.904827 -0.42578 0
    outer loop
      vertex 4.60061 2.52921 33
      vertex 4.88133 1.93265 -33
      vertex 4.88133 1.93265 33
    endloop
  endfacet
  facet normal -0.982287 -0.187381 0
    outer loop
      vertex 5.2086 0.657999 -33
      vertex 5.08506 1.30562 33
      vertex 5.08506 1.30562 -33
    endloop
  endfacet
  facet normal -0.982287 -0.187381 0
    outer loop
      vertex 5.08506 1.30562 33
      vertex 5.2086 0.657999 -33
      vertex 5.2086 0.657999 33
    endloop
  endfacet
  facet normal -0.368133 -0.929773 0
    outer loop
      vertex 1.62234 4.99305 -33
      vertex 2.23534 4.75034 33
      vertex 1.62234 4.99305 33
    endloop
  endfacet
  facet normal -0.368133 -0.929773 -0
    outer loop
      vertex 2.23534 4.75034 33
      vertex 1.62234 4.99305 -33
      vertex 2.23534 4.75034 -33
    endloop
  endfacet
  facet normal -0.481753 -0.876307 0
    outer loop
      vertex 2.23534 4.75034 -33
      vertex 2.81309 4.43272 33
      vertex 2.23534 4.75034 33
    endloop
  endfacet
  facet normal -0.481753 -0.876307 -0
    outer loop
      vertex 2.81309 4.43272 33
      vertex 2.23534 4.75034 -33
      vertex 2.81309 4.43272 -33
    endloop
  endfacet
  facet normal 0.904827 -0.42578 0
    outer loop
      vertex -4.88133 1.93265 33
      vertex -4.60061 2.52921 -33
      vertex -4.60061 2.52921 33
    endloop
  endfacet
  facet normal 0.904827 -0.42578 0
    outer loop
      vertex -4.60061 2.52921 -33
      vertex -4.88133 1.93265 33
      vertex -4.88133 1.93265 -33
    endloop
  endfacet
  facet normal 0.844326 -0.53583 0
    outer loop
      vertex -4.60061 2.52921 33
      vertex -4.24734 3.08587 -33
      vertex -4.24734 3.08587 33
    endloop
  endfacet
  facet normal 0.844326 -0.53583 0
    outer loop
      vertex -4.24734 3.08587 -33
      vertex -4.60061 2.52921 33
      vertex -4.60061 2.52921 -33
    endloop
  endfacet
  facet normal 0.481753 -0.876307 0
    outer loop
      vertex -2.81309 4.43272 -33
      vertex -2.23534 4.75034 33
      vertex -2.81309 4.43272 33
    endloop
  endfacet
  facet normal 0.481753 -0.876307 0
    outer loop
      vertex -2.23534 4.75034 33
      vertex -2.81309 4.43272 -33
      vertex -2.23534 4.75034 -33
    endloop
  endfacet
  facet normal 0.248687 -0.968584 0
    outer loop
      vertex -1.62234 4.99305 -33
      vertex -0.983751 5.15701 33
      vertex -1.62234 4.99305 33
    endloop
  endfacet
  facet normal 0.248687 -0.968584 0
    outer loop
      vertex -0.983751 5.15701 33
      vertex -1.62234 4.99305 -33
      vertex -0.983751 5.15701 -33
    endloop
  endfacet
  facet normal -0.951058 0.309011 0
    outer loop
      vertex 4.88133 -1.93265 -33
      vertex 5.08506 -1.30562 33
      vertex 5.08506 -1.30562 -33
    endloop
  endfacet
  facet normal -0.951058 0.309011 0
    outer loop
      vertex 5.08506 -1.30562 33
      vertex 4.88133 -1.93265 -33
      vertex 4.88133 -1.93265 33
    endloop
  endfacet
  facet normal -0.12533 0.992115 0
    outer loop
      vertex 0.983751 -5.15701 -33
      vertex 0.32965 -5.23964 33
      vertex 0.983751 -5.15701 33
    endloop
  endfacet
  facet normal -0.12533 0.992115 0
    outer loop
      vertex 0.32965 -5.23964 33
      vertex 0.983751 -5.15701 -33
      vertex 0.32965 -5.23964 -33
    endloop
  endfacet
  facet normal -0.951058 -0.309011 0
    outer loop
      vertex 5.08506 1.30562 -33
      vertex 4.88133 1.93265 33
      vertex 4.88133 1.93265 -33
    endloop
  endfacet
  facet normal -0.951058 -0.309011 0
    outer loop
      vertex 4.88133 1.93265 33
      vertex 5.08506 1.30562 -33
      vertex 5.08506 1.30562 33
    endloop
  endfacet
  facet normal -0.770509 -0.637429 0
    outer loop
      vertex 4.24734 3.08587 -33
      vertex 3.82708 3.59387 33
      vertex 3.82708 3.59387 -33
    endloop
  endfacet
  facet normal -0.770509 -0.637429 0
    outer loop
      vertex 3.82708 3.59387 33
      vertex 4.24734 3.08587 -33
      vertex 4.24734 3.08587 33
    endloop
  endfacet
  facet normal -0.844326 -0.53583 0
    outer loop
      vertex 4.60061 2.52921 -33
      vertex 4.24734 3.08587 33
      vertex 4.24734 3.08587 -33
    endloop
  endfacet
  facet normal -0.844326 -0.53583 0
    outer loop
      vertex 4.24734 3.08587 33
      vertex 4.60061 2.52921 -33
      vertex 4.60061 2.52921 33
    endloop
  endfacet
  facet normal -0.248687 -0.968584 0
    outer loop
      vertex 0.983751 5.15701 -33
      vertex 1.62234 4.99305 33
      vertex 0.983751 5.15701 33
    endloop
  endfacet
  facet normal -0.248687 -0.968584 -0
    outer loop
      vertex 1.62234 4.99305 33
      vertex 0.983751 5.15701 -33
      vertex 1.62234 4.99305 -33
    endloop
  endfacet
  facet normal -0.12533 -0.992115 0
    outer loop
      vertex 0.32965 5.23964 -33
      vertex 0.983751 5.15701 33
      vertex 0.32965 5.23964 33
    endloop
  endfacet
  facet normal -0.12533 -0.992115 -0
    outer loop
      vertex 0.983751 5.15701 33
      vertex 0.32965 5.23964 -33
      vertex 0.983751 5.15701 -33
    endloop
  endfacet
  facet normal -0.587785 -0.809017 0
    outer loop
      vertex 2.81309 4.43272 -33
      vertex 3.34648 4.04519 33
      vertex 2.81309 4.43272 33
    endloop
  endfacet
  facet normal -0.587785 -0.809017 -0
    outer loop
      vertex 3.34648 4.04519 33
      vertex 2.81309 4.43272 -33
      vertex 3.34648 4.04519 -33
    endloop
  endfacet
  facet normal 0.770509 -0.637429 0
    outer loop
      vertex -4.24734 3.08587 33
      vertex -3.82708 3.59387 -33
      vertex -3.82708 3.59387 33
    endloop
  endfacet
  facet normal 0.770509 -0.637429 0
    outer loop
      vertex -3.82708 3.59387 -33
      vertex -4.24734 3.08587 33
      vertex -4.24734 3.08587 -33
    endloop
  endfacet
  facet normal 0.951058 -0.309011 0
    outer loop
      vertex -5.08506 1.30562 33
      vertex -4.88133 1.93265 -33
      vertex -4.88133 1.93265 33
    endloop
  endfacet
  facet normal 0.951058 -0.309011 0
    outer loop
      vertex -4.88133 1.93265 -33
      vertex -5.08506 1.30562 33
      vertex -5.08506 1.30562 -33
    endloop
  endfacet
  facet normal 0.982287 -0.187381 0
    outer loop
      vertex -5.2086 0.657999 33
      vertex -5.08506 1.30562 -33
      vertex -5.08506 1.30562 33
    endloop
  endfacet
  facet normal 0.982287 -0.187381 0
    outer loop
      vertex -5.08506 1.30562 -33
      vertex -5.2086 0.657999 33
      vertex -5.2086 0.657999 -33
    endloop
  endfacet
  facet normal 0.587785 -0.809017 0
    outer loop
      vertex -3.34648 4.04519 -33
      vertex -2.81309 4.43272 33
      vertex -3.34648 4.04519 33
    endloop
  endfacet
  facet normal 0.587785 -0.809017 0
    outer loop
      vertex -2.81309 4.43272 33
      vertex -3.34648 4.04519 -33
      vertex -2.81309 4.43272 -33
    endloop
  endfacet
  facet normal 0.12533 -0.992115 0
    outer loop
      vertex -0.983751 5.15701 -33
      vertex -0.32965 5.23964 33
      vertex -0.983751 5.15701 33
    endloop
  endfacet
  facet normal 0.12533 -0.992115 0
    outer loop
      vertex -0.32965 5.23964 33
      vertex -0.983751 5.15701 -33
      vertex -0.32965 5.23964 -33
    endloop
  endfacet
  facet normal -0.982287 0.187381 0
    outer loop
      vertex 5.08506 -1.30562 -33
      vertex 5.2086 -0.657999 33
      vertex 5.2086 -0.657999 -33
    endloop
  endfacet
  facet normal -0.982287 0.187381 0
    outer loop
      vertex 5.2086 -0.657999 33
      vertex 5.08506 -1.30562 -33
      vertex 5.08506 -1.30562 33
    endloop
  endfacet
  facet normal 0.481753 0.876307 -0
    outer loop
      vertex -2.23534 -4.75034 -33
      vertex -2.81309 -4.43272 33
      vertex -2.23534 -4.75034 33
    endloop
  endfacet
  facet normal 0.481753 0.876307 0
    outer loop
      vertex -2.81309 -4.43272 33
      vertex -2.23534 -4.75034 -33
      vertex -2.81309 -4.43272 -33
    endloop
  endfacet
  facet normal 0.844326 0.53583 0
    outer loop
      vertex -4.24734 -3.08587 33
      vertex -4.60061 -2.52921 -33
      vertex -4.60061 -2.52921 33
    endloop
  endfacet
  facet normal 0.844326 0.53583 0
    outer loop
      vertex -4.60061 -2.52921 -33
      vertex -4.24734 -3.08587 33
      vertex -4.24734 -3.08587 -33
    endloop
  endfacet
  facet normal 0.904827 0.42578 0
    outer loop
      vertex -4.60061 -2.52921 33
      vertex -4.88133 -1.93265 -33
      vertex -4.88133 -1.93265 33
    endloop
  endfacet
  facet normal 0.904827 0.42578 0
    outer loop
      vertex -4.88133 -1.93265 -33
      vertex -4.60061 -2.52921 33
      vertex -4.60061 -2.52921 -33
    endloop
  endfacet
  facet normal -0.481753 0.876307 0
    outer loop
      vertex 2.81309 -4.43272 -33
      vertex 2.23534 -4.75034 33
      vertex 2.81309 -4.43272 33
    endloop
  endfacet
  facet normal -0.481753 0.876307 0
    outer loop
      vertex 2.23534 -4.75034 33
      vertex 2.81309 -4.43272 -33
      vertex 2.23534 -4.75034 -33
    endloop
  endfacet
  facet normal -0.368133 0.929773 0
    outer loop
      vertex 2.23534 -4.75034 -33
      vertex 1.62234 -4.99305 33
      vertex 2.23534 -4.75034 33
    endloop
  endfacet
  facet normal -0.368133 0.929773 0
    outer loop
      vertex 1.62234 -4.99305 33
      vertex 2.23534 -4.75034 -33
      vertex 1.62234 -4.99305 -33
    endloop
  endfacet
  facet normal -0.904827 0.42578 0
    outer loop
      vertex 4.60061 -2.52921 -33
      vertex 4.88133 -1.93265 33
      vertex 4.88133 -1.93265 -33
    endloop
  endfacet
  facet normal -0.904827 0.42578 0
    outer loop
      vertex 4.88133 -1.93265 33
      vertex 4.60061 -2.52921 -33
      vertex 4.60061 -2.52921 33
    endloop
  endfacet
  facet normal -0.998027 0.0627939 0
    outer loop
      vertex 5.2086 -0.657999 -33
      vertex 5.25 0 33
      vertex 5.25 0 -33
    endloop
  endfacet
  facet normal -0.998027 0.0627939 0
    outer loop
      vertex 5.25 0 33
      vertex 5.2086 -0.657999 -33
      vertex 5.2086 -0.657999 33
    endloop
  endfacet
  facet normal 0.368133 0.929773 -0
    outer loop
      vertex -1.62234 -4.99305 -33
      vertex -2.23534 -4.75034 33
      vertex -1.62234 -4.99305 33
    endloop
  endfacet
  facet normal 0.368133 0.929773 0
    outer loop
      vertex -2.23534 -4.75034 33
      vertex -1.62234 -4.99305 -33
      vertex -2.23534 -4.75034 -33
    endloop
  endfacet
  facet normal 0.998027 0.0627939 0
    outer loop
      vertex -5.2086 -0.657999 33
      vertex -5.25 0 -33
      vertex -5.25 0 33
    endloop
  endfacet
  facet normal 0.998027 0.0627939 0
    outer loop
      vertex -5.25 0 -33
      vertex -5.2086 -0.657999 33
      vertex -5.2086 -0.657999 -33
    endloop
  endfacet
  facet normal 0.982287 0.187381 0
    outer loop
      vertex -5.08506 -1.30562 33
      vertex -5.2086 -0.657999 -33
      vertex -5.2086 -0.657999 33
    endloop
  endfacet
  facet normal 0.982287 0.187381 0
    outer loop
      vertex -5.2086 -0.657999 -33
      vertex -5.08506 -1.30562 33
      vertex -5.08506 -1.30562 -33
    endloop
  endfacet
  facet normal 0.951058 0.309011 0
    outer loop
      vertex -4.88133 -1.93265 33
      vertex -5.08506 -1.30562 -33
      vertex -5.08506 -1.30562 33
    endloop
  endfacet
  facet normal 0.951058 0.309011 0
    outer loop
      vertex -5.08506 -1.30562 -33
      vertex -4.88133 -1.93265 33
      vertex -4.88133 -1.93265 -33
    endloop
  endfacet
  facet normal -0.587785 0.809017 0
    outer loop
      vertex 3.34648 -4.04519 -33
      vertex 2.81309 -4.43272 33
      vertex 3.34648 -4.04519 33
    endloop
  endfacet
  facet normal -0.587785 0.809017 0
    outer loop
      vertex 2.81309 -4.43272 33
      vertex 3.34648 -4.04519 -33
      vertex 2.81309 -4.43272 -33
    endloop
  endfacet
  facet normal -0.248687 0.968584 0
    outer loop
      vertex 1.62234 -4.99305 -33
      vertex 0.983751 -5.15701 33
      vertex 1.62234 -4.99305 33
    endloop
  endfacet
  facet normal -0.248687 0.968584 0
    outer loop
      vertex 0.983751 -5.15701 33
      vertex 1.62234 -4.99305 -33
      vertex 0.983751 -5.15701 -33
    endloop
  endfacet
  facet normal -0.844326 0.53583 0
    outer loop
      vertex 4.24734 -3.08587 -33
      vertex 4.60061 -2.52921 33
      vertex 4.60061 -2.52921 -33
    endloop
  endfacet
  facet normal -0.844326 0.53583 0
    outer loop
      vertex 4.60061 -2.52921 33
      vertex 4.24734 -3.08587 -33
      vertex 4.24734 -3.08587 33
    endloop
  endfacet
  facet normal -0.770509 0.637429 0
    outer loop
      vertex 3.82708 -3.59387 -33
      vertex 4.24734 -3.08587 33
      vertex 4.24734 -3.08587 -33
    endloop
  endfacet
  facet normal -0.770509 0.637429 0
    outer loop
      vertex 4.24734 -3.08587 33
      vertex 3.82708 -3.59387 -33
      vertex 3.82708 -3.59387 33
    endloop
  endfacet
  facet normal 0.12533 0.992115 -0
    outer loop
      vertex -0.32965 -5.23964 -33
      vertex -0.983751 -5.15701 33
      vertex -0.32965 -5.23964 33
    endloop
  endfacet
  facet normal 0.12533 0.992115 0
    outer loop
      vertex -0.983751 -5.15701 33
      vertex -0.32965 -5.23964 -33
      vertex -0.983751 -5.15701 -33
    endloop
  endfacet
  facet normal 0.684552 0.728964 -0
    outer loop
      vertex -3.34648 -4.04519 -33
      vertex -3.82708 -3.59387 33
      vertex -3.34648 -4.04519 33
    endloop
  endfacet
  facet normal 0.684552 0.728964 0
    outer loop
      vertex -3.82708 -3.59387 33
      vertex -3.34648 -4.04519 -33
      vertex -3.82708 -3.59387 -33
    endloop
  endfacet
  facet normal 0.587785 0.809017 -0
    outer loop
      vertex -2.81309 -4.43272 -33
      vertex -3.34648 -4.04519 33
      vertex -2.81309 -4.43272 33
    endloop
  endfacet
  facet normal 0.587785 0.809017 0
    outer loop
      vertex -3.34648 -4.04519 33
      vertex -2.81309 -4.43272 -33
      vertex -3.34648 -4.04519 -33
    endloop
  endfacet
  facet normal 0.770509 0.637429 0
    outer loop
      vertex -3.82708 -3.59387 33
      vertex -4.24734 -3.08587 -33
      vertex -4.24734 -3.08587 33
    endloop
  endfacet
  facet normal 0.770509 0.637429 0
    outer loop
      vertex -4.24734 -3.08587 -33
      vertex -3.82708 -3.59387 33
      vertex -3.82708 -3.59387 -33
    endloop
  endfacet
  facet normal 0.248687 0.968584 -0
    outer loop
      vertex -0.983751 -5.15701 -33
      vertex -1.62234 -4.99305 33
      vertex -0.983751 -5.15701 33
    endloop
  endfacet
  facet normal 0.248687 0.968584 0
    outer loop
      vertex -1.62234 -4.99305 33
      vertex -0.983751 -5.15701 -33
      vertex -1.62234 -4.99305 -33
    endloop
  endfacet
endsolid OpenSCAD_Model
