solid OpenSCAD_Model
  facet normal 0.998027 0.0627939 0
    outer loop
      vertex 24.5 0 12.5
      vertex 24.3068 3.07066 -12.5
      vertex 24.3068 3.07066 12.5
    endloop
  endfacet
  facet normal 0.998027 0.0627939 0
    outer loop
      vertex 24.3068 3.07066 -12.5
      vertex 24.5 0 12.5
      vertex 24.5 0 -12.5
    endloop
  endfacet
  facet normal -0.998027 0.0627939 0
    outer loop
      vertex -24.5 0 -12.5
      vertex -24.3068 3.07066 12.5
      vertex -24.3068 3.07066 -12.5
    endloop
  endfacet
  facet normal -0.998027 0.0627939 0
    outer loop
      vertex -24.3068 3.07066 12.5
      vertex -24.5 0 -12.5
      vertex -24.5 0 12.5
    endloop
  endfacet
  facet normal 0 1 -0
    outer loop
      vertex 1.53837 24.4517 -12.5
      vertex -1.53837 24.4517 12.5
      vertex 1.53837 24.4517 12.5
    endloop
  endfacet
  facet normal 0 1 0
    outer loop
      vertex -1.53837 24.4517 12.5
      vertex 1.53837 24.4517 -12.5
      vertex -1.53837 24.4517 -12.5
    endloop
  endfacet
  facet normal 0 -1 0
    outer loop
      vertex -1.53837 -24.4517 -12.5
      vertex 1.53837 -24.4517 12.5
      vertex -1.53837 -24.4517 12.5
    endloop
  endfacet
  facet normal 0 -1 -0
    outer loop
      vertex 1.53837 -24.4517 12.5
      vertex -1.53837 -24.4517 -12.5
      vertex 1.53837 -24.4517 -12.5
    endloop
  endfacet
  facet normal 0.684559 0.728957 -0
    outer loop
      vertex 17.8597 16.7714 -12.5
      vertex 15.6169 18.8776 12.5
      vertex 17.8597 16.7714 12.5
    endloop
  endfacet
  facet normal 0.684559 0.728957 0
    outer loop
      vertex 15.6169 18.8776 12.5
      vertex 17.8597 16.7714 -12.5
      vertex 15.6169 18.8776 -12.5
    endloop
  endfacet
  facet normal -0.684559 0.728957 0
    outer loop
      vertex -15.6169 18.8776 -12.5
      vertex -17.8597 16.7714 12.5
      vertex -15.6169 18.8776 12.5
    endloop
  endfacet
  facet normal -0.684559 0.728957 0
    outer loop
      vertex -17.8597 16.7714 12.5
      vertex -15.6169 18.8776 -12.5
      vertex -17.8597 16.7714 -12.5
    endloop
  endfacet
  facet normal -0.368118 0.929779 0
    outer loop
      vertex -7.57092 23.3009 -12.5
      vertex -10.4316 22.1683 12.5
      vertex -7.57092 23.3009 12.5
    endloop
  endfacet
  facet normal -0.368118 0.929779 0
    outer loop
      vertex -10.4316 22.1683 12.5
      vertex -7.57092 23.3009 -12.5
      vertex -10.4316 22.1683 -12.5
    endloop
  endfacet
  facet normal 0.90483 -0.425772 0
    outer loop
      vertex 21.4695 -11.803 12.5
      vertex 22.7795 -9.01905 -12.5
      vertex 22.7795 -9.01905 12.5
    endloop
  endfacet
  facet normal 0.90483 -0.425772 0
    outer loop
      vertex 22.7795 -9.01905 -12.5
      vertex 21.4695 -11.803 12.5
      vertex 21.4695 -11.803 -12.5
    endloop
  endfacet
  facet normal 0.90483 0.425772 0
    outer loop
      vertex 22.7795 9.01905 12.5
      vertex 21.4695 11.803 -12.5
      vertex 21.4695 11.803 12.5
    endloop
  endfacet
  facet normal 0.90483 0.425772 0
    outer loop
      vertex 21.4695 11.803 -12.5
      vertex 22.7795 9.01905 12.5
      vertex 22.7795 9.01905 -12.5
    endloop
  endfacet
  facet normal 0.844321 0.535838 0
    outer loop
      vertex 21.4695 11.803 12.5
      vertex 19.8209 14.4007 -12.5
      vertex 19.8209 14.4007 12.5
    endloop
  endfacet
  facet normal 0.844321 0.535838 0
    outer loop
      vertex 19.8209 14.4007 -12.5
      vertex 21.4695 11.803 12.5
      vertex 21.4695 11.803 -12.5
    endloop
  endfacet
  facet normal 0.368118 0.929779 -0
    outer loop
      vertex 10.4316 22.1683 -12.5
      vertex 7.57092 23.3009 12.5
      vertex 10.4316 22.1683 12.5
    endloop
  endfacet
  facet normal 0.368118 0.929779 0
    outer loop
      vertex 7.57092 23.3009 12.5
      vertex 10.4316 22.1683 -12.5
      vertex 7.57092 23.3009 -12.5
    endloop
  endfacet
  facet normal 0.481767 0.8763 -0
    outer loop
      vertex 13.1278 20.686 -12.5
      vertex 10.4316 22.1683 12.5
      vertex 13.1278 20.686 12.5
    endloop
  endfacet
  facet normal 0.481767 0.8763 0
    outer loop
      vertex 10.4316 22.1683 12.5
      vertex 13.1278 20.686 -12.5
      vertex 10.4316 22.1683 -12.5
    endloop
  endfacet
  facet normal -0.90483 0.425772 0
    outer loop
      vertex -22.7795 9.01905 -12.5
      vertex -21.4695 11.803 12.5
      vertex -21.4695 11.803 -12.5
    endloop
  endfacet
  facet normal -0.90483 0.425772 0
    outer loop
      vertex -21.4695 11.803 12.5
      vertex -22.7795 9.01905 -12.5
      vertex -22.7795 9.01905 12.5
    endloop
  endfacet
  facet normal -0.770515 0.637421 0
    outer loop
      vertex -19.8209 14.4007 -12.5
      vertex -17.8597 16.7714 12.5
      vertex -17.8597 16.7714 -12.5
    endloop
  endfacet
  facet normal -0.770515 0.637421 0
    outer loop
      vertex -17.8597 16.7714 12.5
      vertex -19.8209 14.4007 -12.5
      vertex -19.8209 14.4007 12.5
    endloop
  endfacet
  facet normal -0.951053 0.309028 0
    outer loop
      vertex -23.7303 6.0929 -12.5
      vertex -22.7795 9.01905 12.5
      vertex -22.7795 9.01905 -12.5
    endloop
  endfacet
  facet normal -0.951053 0.309028 0
    outer loop
      vertex -22.7795 9.01905 12.5
      vertex -23.7303 6.0929 -12.5
      vertex -23.7303 6.0929 12.5
    endloop
  endfacet
  facet normal -0.248673 0.968587 0
    outer loop
      vertex -4.59084 24.066 -12.5
      vertex -7.57092 23.3009 12.5
      vertex -4.59084 24.066 12.5
    endloop
  endfacet
  facet normal -0.248673 0.968587 0
    outer loop
      vertex -7.57092 23.3009 12.5
      vertex -4.59084 24.066 -12.5
      vertex -7.57092 23.3009 -12.5
    endloop
  endfacet
  facet normal 0.12536 -0.992111 0
    outer loop
      vertex 1.53837 -24.4517 -12.5
      vertex 4.59084 -24.066 12.5
      vertex 1.53837 -24.4517 12.5
    endloop
  endfacet
  facet normal 0.12536 -0.992111 0
    outer loop
      vertex 4.59084 -24.066 12.5
      vertex 1.53837 -24.4517 -12.5
      vertex 4.59084 -24.066 -12.5
    endloop
  endfacet
  facet normal 0.951053 0.309028 0
    outer loop
      vertex 23.7303 6.0929 12.5
      vertex 22.7795 9.01905 -12.5
      vertex 22.7795 9.01905 12.5
    endloop
  endfacet
  facet normal 0.951053 0.309028 0
    outer loop
      vertex 22.7795 9.01905 -12.5
      vertex 23.7303 6.0929 12.5
      vertex 23.7303 6.0929 -12.5
    endloop
  endfacet
  facet normal 0.982289 0.187374 0
    outer loop
      vertex 24.3068 3.07066 12.5
      vertex 23.7303 6.0929 -12.5
      vertex 23.7303 6.0929 12.5
    endloop
  endfacet
  facet normal 0.982289 0.187374 0
    outer loop
      vertex 23.7303 6.0929 -12.5
      vertex 24.3068 3.07066 12.5
      vertex 24.3068 3.07066 -12.5
    endloop
  endfacet
  facet normal 0.770515 0.637421 0
    outer loop
      vertex 19.8209 14.4007 12.5
      vertex 17.8597 16.7714 -12.5
      vertex 17.8597 16.7714 12.5
    endloop
  endfacet
  facet normal 0.770515 0.637421 0
    outer loop
      vertex 17.8597 16.7714 -12.5
      vertex 19.8209 14.4007 12.5
      vertex 19.8209 14.4007 -12.5
    endloop
  endfacet
  facet normal 0.248673 0.968587 -0
    outer loop
      vertex 7.57092 23.3009 -12.5
      vertex 4.59084 24.066 12.5
      vertex 7.57092 23.3009 12.5
    endloop
  endfacet
  facet normal 0.248673 0.968587 0
    outer loop
      vertex 4.59084 24.066 12.5
      vertex 7.57092 23.3009 -12.5
      vertex 4.59084 24.066 -12.5
    endloop
  endfacet
  facet normal 0.12536 0.992111 -0
    outer loop
      vertex 4.59084 24.066 -12.5
      vertex 1.53837 24.4517 12.5
      vertex 4.59084 24.066 12.5
    endloop
  endfacet
  facet normal 0.12536 0.992111 0
    outer loop
      vertex 1.53837 24.4517 12.5
      vertex 4.59084 24.066 -12.5
      vertex 1.53837 24.4517 -12.5
    endloop
  endfacet
  facet normal 0.587777 0.809023 -0
    outer loop
      vertex 15.6169 18.8776 -12.5
      vertex 13.1278 20.686 12.5
      vertex 15.6169 18.8776 12.5
    endloop
  endfacet
  facet normal 0.587777 0.809023 0
    outer loop
      vertex 13.1278 20.686 12.5
      vertex 15.6169 18.8776 -12.5
      vertex 13.1278 20.686 -12.5
    endloop
  endfacet
  facet normal -0.844321 0.535838 0
    outer loop
      vertex -21.4695 11.803 -12.5
      vertex -19.8209 14.4007 12.5
      vertex -19.8209 14.4007 -12.5
    endloop
  endfacet
  facet normal -0.844321 0.535838 0
    outer loop
      vertex -19.8209 14.4007 12.5
      vertex -21.4695 11.803 -12.5
      vertex -21.4695 11.803 12.5
    endloop
  endfacet
  facet normal -0.982289 0.187374 0
    outer loop
      vertex -24.3068 3.07066 -12.5
      vertex -23.7303 6.0929 12.5
      vertex -23.7303 6.0929 -12.5
    endloop
  endfacet
  facet normal -0.982289 0.187374 0
    outer loop
      vertex -23.7303 6.0929 12.5
      vertex -24.3068 3.07066 -12.5
      vertex -24.3068 3.07066 12.5
    endloop
  endfacet
  facet normal 0 0 1
    outer loop
      vertex 4.5 0 12.5
      vertex 24.5 0 12.5
      vertex 24.3068 3.07066 12.5
    endloop
  endfacet
  facet normal 0 0 1
    outer loop
      vertex 4.46452 0.563999 12.5
      vertex 24.3068 3.07066 12.5
      vertex 23.7303 6.0929 12.5
    endloop
  endfacet
  facet normal 0 0 1
    outer loop
      vertex 24.5 0 12.5
      vertex 4.5 0 12.5
      vertex 24.3068 -3.07066 12.5
    endloop
  endfacet
  facet normal 0 0 1
    outer loop
      vertex 4.35862 1.1191 12.5
      vertex 23.7303 6.0929 12.5
      vertex 22.7795 9.01905 12.5
    endloop
  endfacet
  facet normal -0 0 1
    outer loop
      vertex 4.46452 -0.563999 12.5
      vertex 24.3068 -3.07066 12.5
      vertex 4.5 0 12.5
    endloop
  endfacet
  facet normal 0 0 1
    outer loop
      vertex 4.18399 1.65656 12.5
      vertex 22.7795 9.01905 12.5
      vertex 21.4695 11.803 12.5
    endloop
  endfacet
  facet normal 0 0 1
    outer loop
      vertex 24.3068 -3.07066 12.5
      vertex 4.46452 -0.563999 12.5
      vertex 23.7303 -6.0929 12.5
    endloop
  endfacet
  facet normal 0 0 1
    outer loop
      vertex 3.94338 2.16789 12.5
      vertex 21.4695 11.803 12.5
      vertex 19.8209 14.4007 12.5
    endloop
  endfacet
  facet normal -0 0 1
    outer loop
      vertex 4.35862 -1.1191 12.5
      vertex 23.7303 -6.0929 12.5
      vertex 4.46452 -0.563999 12.5
    endloop
  endfacet
  facet normal 0 0 1
    outer loop
      vertex 3.64058 2.64503 12.5
      vertex 19.8209 14.4007 12.5
      vertex 17.8597 16.7714 12.5
    endloop
  endfacet
  facet normal 0 0 1
    outer loop
      vertex 23.7303 -6.0929 12.5
      vertex 4.35862 -1.1191 12.5
      vertex 22.7795 -9.01905 12.5
    endloop
  endfacet
  facet normal 0 0 1
    outer loop
      vertex 3.28036 3.08046 12.5
      vertex 17.8597 16.7714 12.5
      vertex 15.6169 18.8776 12.5
    endloop
  endfacet
  facet normal -0 0 1
    outer loop
      vertex 4.18399 -1.65656 12.5
      vertex 22.7795 -9.01905 12.5
      vertex 4.35862 -1.1191 12.5
    endloop
  endfacet
  facet normal 0 0 1
    outer loop
      vertex 2.86841 3.46731 12.5
      vertex 15.6169 18.8776 12.5
      vertex 13.1278 20.686 12.5
    endloop
  endfacet
  facet normal 0 0 1
    outer loop
      vertex 22.7795 -9.01905 12.5
      vertex 4.18399 -1.65656 12.5
      vertex 21.4695 -11.803 12.5
    endloop
  endfacet
  facet normal 0 0 1
    outer loop
      vertex 2.41122 3.79947 12.5
      vertex 13.1278 20.686 12.5
      vertex 10.4316 22.1683 12.5
    endloop
  endfacet
  facet normal -0 0 1
    outer loop
      vertex 3.94338 -2.16789 12.5
      vertex 21.4695 -11.803 12.5
      vertex 4.18399 -1.65656 12.5
    endloop
  endfacet
  facet normal 0 0 1
    outer loop
      vertex 1.91601 4.07172 12.5
      vertex 10.4316 22.1683 12.5
      vertex 7.57092 23.3009 12.5
    endloop
  endfacet
  facet normal 0 0 1
    outer loop
      vertex 21.4695 -11.803 12.5
      vertex 3.94338 -2.16789 12.5
      vertex 19.8209 -14.4007 12.5
    endloop
  endfacet
  facet normal 0 0 1
    outer loop
      vertex 1.39058 4.27975 12.5
      vertex 7.57092 23.3009 12.5
      vertex 4.59084 24.066 12.5
    endloop
  endfacet
  facet normal -0 0 1
    outer loop
      vertex 3.64058 -2.64503 12.5
      vertex 19.8209 -14.4007 12.5
      vertex 3.94338 -2.16789 12.5
    endloop
  endfacet
  facet normal 0 0 1
    outer loop
      vertex 19.8209 -14.4007 12.5
      vertex 3.64058 -2.64503 12.5
      vertex 17.8597 -16.7714 12.5
    endloop
  endfacet
  facet normal 0 0 1
    outer loop
      vertex 24.3068 3.07066 12.5
      vertex 4.46452 0.563999 12.5
      vertex 4.5 0 12.5
    endloop
  endfacet
  facet normal 0 0 1
    outer loop
      vertex 23.7303 6.0929 12.5
      vertex 4.35862 1.1191 12.5
      vertex 4.46452 0.563999 12.5
    endloop
  endfacet
  facet normal 0 0 1
    outer loop
      vertex 22.7795 9.01905 12.5
      vertex 4.18399 1.65656 12.5
      vertex 4.35862 1.1191 12.5
    endloop
  endfacet
  facet normal 0 0 1
    outer loop
      vertex 21.4695 11.803 12.5
      vertex 3.94338 2.16789 12.5
      vertex 4.18399 1.65656 12.5
    endloop
  endfacet
  facet normal 0 0 1
    outer loop
      vertex 19.8209 14.4007 12.5
      vertex 3.64058 2.64503 12.5
      vertex 3.94338 2.16789 12.5
    endloop
  endfacet
  facet normal 0 0 1
    outer loop
      vertex 17.8597 16.7714 12.5
      vertex 3.28036 3.08046 12.5
      vertex 3.64058 2.64503 12.5
    endloop
  endfacet
  facet normal 0 0 1
    outer loop
      vertex 15.6169 18.8776 12.5
      vertex 2.86841 3.46731 12.5
      vertex 3.28036 3.08046 12.5
    endloop
  endfacet
  facet normal 0 0 1
    outer loop
      vertex 13.1278 20.686 12.5
      vertex 2.41122 3.79947 12.5
      vertex 2.86841 3.46731 12.5
    endloop
  endfacet
  facet normal 0 0 1
    outer loop
      vertex 10.4316 22.1683 12.5
      vertex 1.91601 4.07172 12.5
      vertex 2.41122 3.79947 12.5
    endloop
  endfacet
  facet normal 0 0 1
    outer loop
      vertex 0.843215 4.42029 12.5
      vertex 4.59084 24.066 12.5
      vertex 1.53837 24.4517 12.5
    endloop
  endfacet
  facet normal 0 0 1
    outer loop
      vertex 7.57092 23.3009 12.5
      vertex 1.39058 4.27975 12.5
      vertex 1.91601 4.07172 12.5
    endloop
  endfacet
  facet normal 0 0 1
    outer loop
      vertex 4.59084 24.066 12.5
      vertex 0.843215 4.42029 12.5
      vertex 1.39058 4.27975 12.5
    endloop
  endfacet
  facet normal 0 0 1
    outer loop
      vertex 1.53837 24.4517 12.5
      vertex 0.282557 4.49112 12.5
      vertex 0.843215 4.42029 12.5
    endloop
  endfacet
  facet normal 0 0 1
    outer loop
      vertex 1.53837 24.4517 12.5
      vertex -0.282557 4.49112 12.5
      vertex 0.282557 4.49112 12.5
    endloop
  endfacet
  facet normal -0 0 1
    outer loop
      vertex -1.53837 24.4517 12.5
      vertex -0.282557 4.49112 12.5
      vertex 1.53837 24.4517 12.5
    endloop
  endfacet
  facet normal 0 0 1
    outer loop
      vertex -0.282557 4.49112 12.5
      vertex -1.53837 24.4517 12.5
      vertex -0.843215 4.42029 12.5
    endloop
  endfacet
  facet normal -0 0 1
    outer loop
      vertex -4.59084 24.066 12.5
      vertex -0.843215 4.42029 12.5
      vertex -1.53837 24.4517 12.5
    endloop
  endfacet
  facet normal 0 0 1
    outer loop
      vertex -0.843215 4.42029 12.5
      vertex -4.59084 24.066 12.5
      vertex -1.39058 4.27975 12.5
    endloop
  endfacet
  facet normal -0 0 1
    outer loop
      vertex -7.57092 23.3009 12.5
      vertex -1.39058 4.27975 12.5
      vertex -4.59084 24.066 12.5
    endloop
  endfacet
  facet normal 0 0 1
    outer loop
      vertex -1.39058 4.27975 12.5
      vertex -7.57092 23.3009 12.5
      vertex -1.91601 4.07172 12.5
    endloop
  endfacet
  facet normal -0 0 1
    outer loop
      vertex -10.4316 22.1683 12.5
      vertex -1.91601 4.07172 12.5
      vertex -7.57092 23.3009 12.5
    endloop
  endfacet
  facet normal 0 0 1
    outer loop
      vertex -1.91601 4.07172 12.5
      vertex -10.4316 22.1683 12.5
      vertex -2.41122 3.79947 12.5
    endloop
  endfacet
  facet normal -0 0 1
    outer loop
      vertex -13.1278 20.686 12.5
      vertex -2.41122 3.79947 12.5
      vertex -10.4316 22.1683 12.5
    endloop
  endfacet
  facet normal 0 0 1
    outer loop
      vertex -2.41122 3.79947 12.5
      vertex -13.1278 20.686 12.5
      vertex -2.86841 3.46731 12.5
    endloop
  endfacet
  facet normal -0 0 1
    outer loop
      vertex -15.6169 18.8776 12.5
      vertex -2.86841 3.46731 12.5
      vertex -13.1278 20.686 12.5
    endloop
  endfacet
  facet normal 0 0 1
    outer loop
      vertex -2.86841 3.46731 12.5
      vertex -15.6169 18.8776 12.5
      vertex -3.28036 3.08046 12.5
    endloop
  endfacet
  facet normal 0 0 1
    outer loop
      vertex -3.28036 3.08046 12.5
      vertex -17.8597 16.7714 12.5
      vertex -3.64058 2.64503 12.5
    endloop
  endfacet
  facet normal -0 0 1
    outer loop
      vertex -17.8597 16.7714 12.5
      vertex -3.28036 3.08046 12.5
      vertex -15.6169 18.8776 12.5
    endloop
  endfacet
  facet normal -0 0 1
    outer loop
      vertex 3.28036 -3.08046 12.5
      vertex 17.8597 -16.7714 12.5
      vertex 3.64058 -2.64503 12.5
    endloop
  endfacet
  facet normal 0 0 1
    outer loop
      vertex 17.8597 -16.7714 12.5
      vertex 3.28036 -3.08046 12.5
      vertex 15.6169 -18.8776 12.5
    endloop
  endfacet
  facet normal -0 0 1
    outer loop
      vertex 2.86841 -3.46731 12.5
      vertex 15.6169 -18.8776 12.5
      vertex 3.28036 -3.08046 12.5
    endloop
  endfacet
  facet normal 0 0 1
    outer loop
      vertex 15.6169 -18.8776 12.5
      vertex 2.86841 -3.46731 12.5
      vertex 13.1278 -20.686 12.5
    endloop
  endfacet
  facet normal -0 0 1
    outer loop
      vertex 2.41122 -3.79947 12.5
      vertex 13.1278 -20.686 12.5
      vertex 2.86841 -3.46731 12.5
    endloop
  endfacet
  facet normal 0 0 1
    outer loop
      vertex 13.1278 -20.686 12.5
      vertex 2.41122 -3.79947 12.5
      vertex 10.4316 -22.1683 12.5
    endloop
  endfacet
  facet normal -0 0 1
    outer loop
      vertex 1.91601 -4.07172 12.5
      vertex 10.4316 -22.1683 12.5
      vertex 2.41122 -3.79947 12.5
    endloop
  endfacet
  facet normal 0 0 1
    outer loop
      vertex 10.4316 -22.1683 12.5
      vertex 1.91601 -4.07172 12.5
      vertex 7.57092 -23.3009 12.5
    endloop
  endfacet
  facet normal -0 0 1
    outer loop
      vertex 1.39058 -4.27975 12.5
      vertex 7.57092 -23.3009 12.5
      vertex 1.91601 -4.07172 12.5
    endloop
  endfacet
  facet normal 0 0 1
    outer loop
      vertex 7.57092 -23.3009 12.5
      vertex 1.39058 -4.27975 12.5
      vertex 4.59084 -24.066 12.5
    endloop
  endfacet
  facet normal -0 0 1
    outer loop
      vertex 0.843215 -4.42029 12.5
      vertex 4.59084 -24.066 12.5
      vertex 1.39058 -4.27975 12.5
    endloop
  endfacet
  facet normal 0 0 1
    outer loop
      vertex 4.59084 -24.066 12.5
      vertex 0.843215 -4.42029 12.5
      vertex 1.53837 -24.4517 12.5
    endloop
  endfacet
  facet normal -0 0 1
    outer loop
      vertex 0.282557 -4.49112 12.5
      vertex 1.53837 -24.4517 12.5
      vertex 0.843215 -4.42029 12.5
    endloop
  endfacet
  facet normal -0 0 1
    outer loop
      vertex -0.282557 -4.49112 12.5
      vertex 1.53837 -24.4517 12.5
      vertex 0.282557 -4.49112 12.5
    endloop
  endfacet
  facet normal 0 0 1
    outer loop
      vertex -1.53837 -24.4517 12.5
      vertex -0.282557 -4.49112 12.5
      vertex -0.843215 -4.42029 12.5
    endloop
  endfacet
  facet normal 0 0 1
    outer loop
      vertex -4.59084 -24.066 12.5
      vertex -0.843215 -4.42029 12.5
      vertex -1.39058 -4.27975 12.5
    endloop
  endfacet
  facet normal 0 0 1
    outer loop
      vertex -0.282557 -4.49112 12.5
      vertex -1.53837 -24.4517 12.5
      vertex 1.53837 -24.4517 12.5
    endloop
  endfacet
  facet normal 0 0 1
    outer loop
      vertex -7.57092 -23.3009 12.5
      vertex -1.39058 -4.27975 12.5
      vertex -1.91601 -4.07172 12.5
    endloop
  endfacet
  facet normal 0 0 1
    outer loop
      vertex -10.4316 -22.1683 12.5
      vertex -1.91601 -4.07172 12.5
      vertex -2.41122 -3.79947 12.5
    endloop
  endfacet
  facet normal 0 0 1
    outer loop
      vertex -13.1278 -20.686 12.5
      vertex -2.41122 -3.79947 12.5
      vertex -2.86841 -3.46731 12.5
    endloop
  endfacet
  facet normal 0 0 1
    outer loop
      vertex -15.6169 -18.8776 12.5
      vertex -2.86841 -3.46731 12.5
      vertex -3.28036 -3.08046 12.5
    endloop
  endfacet
  facet normal 0 0 1
    outer loop
      vertex -17.8597 -16.7714 12.5
      vertex -3.28036 -3.08046 12.5
      vertex -3.64058 -2.64503 12.5
    endloop
  endfacet
  facet normal 0 0 1
    outer loop
      vertex -19.8209 -14.4007 12.5
      vertex -3.64058 -2.64503 12.5
      vertex -3.94338 -2.16789 12.5
    endloop
  endfacet
  facet normal 0 0 1
    outer loop
      vertex -21.4695 -11.803 12.5
      vertex -3.94338 -2.16789 12.5
      vertex -4.18399 -1.65656 12.5
    endloop
  endfacet
  facet normal 0 0 1
    outer loop
      vertex -22.7795 -9.01905 12.5
      vertex -4.18399 -1.65656 12.5
      vertex -4.35862 -1.1191 12.5
    endloop
  endfacet
  facet normal 0 0 1
    outer loop
      vertex -23.7303 -6.0929 12.5
      vertex -4.35862 -1.1191 12.5
      vertex -4.46452 -0.563999 12.5
    endloop
  endfacet
  facet normal 0 0 1
    outer loop
      vertex -0.843215 -4.42029 12.5
      vertex -4.59084 -24.066 12.5
      vertex -1.53837 -24.4517 12.5
    endloop
  endfacet
  facet normal 0 0 1
    outer loop
      vertex -24.3068 -3.07066 12.5
      vertex -4.46452 -0.563999 12.5
      vertex -4.5 0 12.5
    endloop
  endfacet
  facet normal -0 0 1
    outer loop
      vertex -19.8209 14.4007 12.5
      vertex -3.64058 2.64503 12.5
      vertex -17.8597 16.7714 12.5
    endloop
  endfacet
  facet normal 0 0 1
    outer loop
      vertex -3.64058 2.64503 12.5
      vertex -19.8209 14.4007 12.5
      vertex -3.94338 2.16789 12.5
    endloop
  endfacet
  facet normal 0 0 1
    outer loop
      vertex -1.39058 -4.27975 12.5
      vertex -7.57092 -23.3009 12.5
      vertex -4.59084 -24.066 12.5
    endloop
  endfacet
  facet normal -0 0 1
    outer loop
      vertex -21.4695 11.803 12.5
      vertex -3.94338 2.16789 12.5
      vertex -19.8209 14.4007 12.5
    endloop
  endfacet
  facet normal 0 0 1
    outer loop
      vertex -1.91601 -4.07172 12.5
      vertex -10.4316 -22.1683 12.5
      vertex -7.57092 -23.3009 12.5
    endloop
  endfacet
  facet normal 0 0 1
    outer loop
      vertex -3.94338 2.16789 12.5
      vertex -21.4695 11.803 12.5
      vertex -4.18399 1.65656 12.5
    endloop
  endfacet
  facet normal 0 0 1
    outer loop
      vertex -2.41122 -3.79947 12.5
      vertex -13.1278 -20.686 12.5
      vertex -10.4316 -22.1683 12.5
    endloop
  endfacet
  facet normal -0 0 1
    outer loop
      vertex -22.7795 9.01905 12.5
      vertex -4.18399 1.65656 12.5
      vertex -21.4695 11.803 12.5
    endloop
  endfacet
  facet normal 0 0 1
    outer loop
      vertex -2.86841 -3.46731 12.5
      vertex -15.6169 -18.8776 12.5
      vertex -13.1278 -20.686 12.5
    endloop
  endfacet
  facet normal 0 0 1
    outer loop
      vertex -4.18399 1.65656 12.5
      vertex -22.7795 9.01905 12.5
      vertex -4.35862 1.1191 12.5
    endloop
  endfacet
  facet normal 0 0 1
    outer loop
      vertex -3.28036 -3.08046 12.5
      vertex -17.8597 -16.7714 12.5
      vertex -15.6169 -18.8776 12.5
    endloop
  endfacet
  facet normal -0 0 1
    outer loop
      vertex -23.7303 6.0929 12.5
      vertex -4.35862 1.1191 12.5
      vertex -22.7795 9.01905 12.5
    endloop
  endfacet
  facet normal 0 0 1
    outer loop
      vertex -3.64058 -2.64503 12.5
      vertex -19.8209 -14.4007 12.5
      vertex -17.8597 -16.7714 12.5
    endloop
  endfacet
  facet normal 0 0 1
    outer loop
      vertex -4.35862 1.1191 12.5
      vertex -23.7303 6.0929 12.5
      vertex -4.46452 0.563999 12.5
    endloop
  endfacet
  facet normal 0 0 1
    outer loop
      vertex -3.94338 -2.16789 12.5
      vertex -21.4695 -11.803 12.5
      vertex -19.8209 -14.4007 12.5
    endloop
  endfacet
  facet normal -0 0 1
    outer loop
      vertex -24.3068 3.07066 12.5
      vertex -4.46452 0.563999 12.5
      vertex -23.7303 6.0929 12.5
    endloop
  endfacet
  facet normal 0 0 1
    outer loop
      vertex -4.18399 -1.65656 12.5
      vertex -22.7795 -9.01905 12.5
      vertex -21.4695 -11.803 12.5
    endloop
  endfacet
  facet normal 0 0 1
    outer loop
      vertex -4.46452 0.563999 12.5
      vertex -24.3068 3.07066 12.5
      vertex -4.5 0 12.5
    endloop
  endfacet
  facet normal 0 0 1
    outer loop
      vertex -4.35862 -1.1191 12.5
      vertex -23.7303 -6.0929 12.5
      vertex -22.7795 -9.01905 12.5
    endloop
  endfacet
  facet normal 0 0 1
    outer loop
      vertex -24.5 0 12.5
      vertex -4.5 0 12.5
      vertex -24.3068 3.07066 12.5
    endloop
  endfacet
  facet normal 0 0 1
    outer loop
      vertex -4.46452 -0.563999 12.5
      vertex -24.3068 -3.07066 12.5
      vertex -23.7303 -6.0929 12.5
    endloop
  endfacet
  facet normal 0 0 1
    outer loop
      vertex -4.5 0 12.5
      vertex -24.5 0 12.5
      vertex -24.3068 -3.07066 12.5
    endloop
  endfacet
  facet normal -0.481767 0.8763 0
    outer loop
      vertex -10.4316 22.1683 -12.5
      vertex -13.1278 20.686 12.5
      vertex -10.4316 22.1683 12.5
    endloop
  endfacet
  facet normal -0.481767 0.8763 0
    outer loop
      vertex -13.1278 20.686 12.5
      vertex -10.4316 22.1683 -12.5
      vertex -13.1278 20.686 -12.5
    endloop
  endfacet
  facet normal -0.587777 0.809023 0
    outer loop
      vertex -13.1278 20.686 -12.5
      vertex -15.6169 18.8776 12.5
      vertex -13.1278 20.686 12.5
    endloop
  endfacet
  facet normal -0.587777 0.809023 0
    outer loop
      vertex -15.6169 18.8776 12.5
      vertex -13.1278 20.686 -12.5
      vertex -15.6169 18.8776 -12.5
    endloop
  endfacet
  facet normal -0.12536 0.992111 0
    outer loop
      vertex -1.53837 24.4517 -12.5
      vertex -4.59084 24.066 12.5
      vertex -1.53837 24.4517 12.5
    endloop
  endfacet
  facet normal -0.12536 0.992111 0
    outer loop
      vertex -4.59084 24.066 12.5
      vertex -1.53837 24.4517 -12.5
      vertex -4.59084 24.066 -12.5
    endloop
  endfacet
  facet normal 0.998027 -0.0627939 0
    outer loop
      vertex 24.3068 -3.07066 12.5
      vertex 24.5 0 -12.5
      vertex 24.5 0 12.5
    endloop
  endfacet
  facet normal 0.998027 -0.0627939 0
    outer loop
      vertex 24.5 0 -12.5
      vertex 24.3068 -3.07066 12.5
      vertex 24.3068 -3.07066 -12.5
    endloop
  endfacet
  facet normal 0.770515 -0.637421 0
    outer loop
      vertex 17.8597 -16.7714 12.5
      vertex 19.8209 -14.4007 -12.5
      vertex 19.8209 -14.4007 12.5
    endloop
  endfacet
  facet normal 0.770515 -0.637421 0
    outer loop
      vertex 19.8209 -14.4007 -12.5
      vertex 17.8597 -16.7714 12.5
      vertex 17.8597 -16.7714 -12.5
    endloop
  endfacet
  facet normal 0.951053 -0.309028 0
    outer loop
      vertex 22.7795 -9.01905 12.5
      vertex 23.7303 -6.0929 -12.5
      vertex 23.7303 -6.0929 12.5
    endloop
  endfacet
  facet normal 0.951053 -0.309028 0
    outer loop
      vertex 23.7303 -6.0929 -12.5
      vertex 22.7795 -9.01905 12.5
      vertex 22.7795 -9.01905 -12.5
    endloop
  endfacet
  facet normal 0.982289 -0.187374 0
    outer loop
      vertex 23.7303 -6.0929 12.5
      vertex 24.3068 -3.07066 -12.5
      vertex 24.3068 -3.07066 12.5
    endloop
  endfacet
  facet normal 0.982289 -0.187374 0
    outer loop
      vertex 24.3068 -3.07066 -12.5
      vertex 23.7303 -6.0929 12.5
      vertex 23.7303 -6.0929 -12.5
    endloop
  endfacet
  facet normal -0.90483 -0.425772 0
    outer loop
      vertex -21.4695 -11.803 -12.5
      vertex -22.7795 -9.01905 12.5
      vertex -22.7795 -9.01905 -12.5
    endloop
  endfacet
  facet normal -0.90483 -0.425772 0
    outer loop
      vertex -22.7795 -9.01905 12.5
      vertex -21.4695 -11.803 -12.5
      vertex -21.4695 -11.803 12.5
    endloop
  endfacet
  facet normal 0 0 -1
    outer loop
      vertex 4.5 0 -12.5
      vertex 24.5 0 -12.5
      vertex 24.3068 -3.07066 -12.5
    endloop
  endfacet
  facet normal 0 0 -1
    outer loop
      vertex 4.46452 -0.563999 -12.5
      vertex 24.3068 -3.07066 -12.5
      vertex 23.7303 -6.0929 -12.5
    endloop
  endfacet
  facet normal 0 0 -1
    outer loop
      vertex 24.5 0 -12.5
      vertex 4.5 0 -12.5
      vertex 24.3068 3.07066 -12.5
    endloop
  endfacet
  facet normal 0 0 -1
    outer loop
      vertex 4.35862 -1.1191 -12.5
      vertex 23.7303 -6.0929 -12.5
      vertex 22.7795 -9.01905 -12.5
    endloop
  endfacet
  facet normal 0 0 -1
    outer loop
      vertex 4.46452 0.563999 -12.5
      vertex 24.3068 3.07066 -12.5
      vertex 4.5 0 -12.5
    endloop
  endfacet
  facet normal 0 0 -1
    outer loop
      vertex 4.18399 -1.65656 -12.5
      vertex 22.7795 -9.01905 -12.5
      vertex 21.4695 -11.803 -12.5
    endloop
  endfacet
  facet normal -0 0 -1
    outer loop
      vertex 24.3068 3.07066 -12.5
      vertex 4.46452 0.563999 -12.5
      vertex 23.7303 6.0929 -12.5
    endloop
  endfacet
  facet normal 0 0 -1
    outer loop
      vertex 3.94338 -2.16789 -12.5
      vertex 21.4695 -11.803 -12.5
      vertex 19.8209 -14.4007 -12.5
    endloop
  endfacet
  facet normal 0 0 -1
    outer loop
      vertex 4.35862 1.1191 -12.5
      vertex 23.7303 6.0929 -12.5
      vertex 4.46452 0.563999 -12.5
    endloop
  endfacet
  facet normal 0 0 -1
    outer loop
      vertex 3.64058 -2.64503 -12.5
      vertex 19.8209 -14.4007 -12.5
      vertex 17.8597 -16.7714 -12.5
    endloop
  endfacet
  facet normal -0 0 -1
    outer loop
      vertex 23.7303 6.0929 -12.5
      vertex 4.35862 1.1191 -12.5
      vertex 22.7795 9.01905 -12.5
    endloop
  endfacet
  facet normal 0 0 -1
    outer loop
      vertex 3.28036 -3.08046 -12.5
      vertex 17.8597 -16.7714 -12.5
      vertex 15.6169 -18.8776 -12.5
    endloop
  endfacet
  facet normal 0 0 -1
    outer loop
      vertex 4.18399 1.65656 -12.5
      vertex 22.7795 9.01905 -12.5
      vertex 4.35862 1.1191 -12.5
    endloop
  endfacet
  facet normal 0 0 -1
    outer loop
      vertex 2.86841 -3.46731 -12.5
      vertex 15.6169 -18.8776 -12.5
      vertex 13.1278 -20.686 -12.5
    endloop
  endfacet
  facet normal -0 0 -1
    outer loop
      vertex 22.7795 9.01905 -12.5
      vertex 4.18399 1.65656 -12.5
      vertex 21.4695 11.803 -12.5
    endloop
  endfacet
  facet normal 0 0 -1
    outer loop
      vertex 2.41122 -3.79947 -12.5
      vertex 13.1278 -20.686 -12.5
      vertex 10.4316 -22.1683 -12.5
    endloop
  endfacet
  facet normal 0 0 -1
    outer loop
      vertex 3.94338 2.16789 -12.5
      vertex 21.4695 11.803 -12.5
      vertex 4.18399 1.65656 -12.5
    endloop
  endfacet
  facet normal 0 0 -1
    outer loop
      vertex 1.91601 -4.07172 -12.5
      vertex 10.4316 -22.1683 -12.5
      vertex 7.57092 -23.3009 -12.5
    endloop
  endfacet
  facet normal -0 0 -1
    outer loop
      vertex 21.4695 11.803 -12.5
      vertex 3.94338 2.16789 -12.5
      vertex 19.8209 14.4007 -12.5
    endloop
  endfacet
  facet normal 0 0 -1
    outer loop
      vertex 1.39058 -4.27975 -12.5
      vertex 7.57092 -23.3009 -12.5
      vertex 4.59084 -24.066 -12.5
    endloop
  endfacet
  facet normal 0 0 -1
    outer loop
      vertex 3.64058 2.64503 -12.5
      vertex 19.8209 14.4007 -12.5
      vertex 3.94338 2.16789 -12.5
    endloop
  endfacet
  facet normal -0 0 -1
    outer loop
      vertex 19.8209 14.4007 -12.5
      vertex 3.64058 2.64503 -12.5
      vertex 17.8597 16.7714 -12.5
    endloop
  endfacet
  facet normal 0 0 -1
    outer loop
      vertex 24.3068 -3.07066 -12.5
      vertex 4.46452 -0.563999 -12.5
      vertex 4.5 0 -12.5
    endloop
  endfacet
  facet normal 0 0 -1
    outer loop
      vertex 23.7303 -6.0929 -12.5
      vertex 4.35862 -1.1191 -12.5
      vertex 4.46452 -0.563999 -12.5
    endloop
  endfacet
  facet normal 0 0 -1
    outer loop
      vertex 22.7795 -9.01905 -12.5
      vertex 4.18399 -1.65656 -12.5
      vertex 4.35862 -1.1191 -12.5
    endloop
  endfacet
  facet normal 0 0 -1
    outer loop
      vertex 21.4695 -11.803 -12.5
      vertex 3.94338 -2.16789 -12.5
      vertex 4.18399 -1.65656 -12.5
    endloop
  endfacet
  facet normal 0 0 -1
    outer loop
      vertex 19.8209 -14.4007 -12.5
      vertex 3.64058 -2.64503 -12.5
      vertex 3.94338 -2.16789 -12.5
    endloop
  endfacet
  facet normal 0 0 -1
    outer loop
      vertex 17.8597 -16.7714 -12.5
      vertex 3.28036 -3.08046 -12.5
      vertex 3.64058 -2.64503 -12.5
    endloop
  endfacet
  facet normal 0 0 -1
    outer loop
      vertex 15.6169 -18.8776 -12.5
      vertex 2.86841 -3.46731 -12.5
      vertex 3.28036 -3.08046 -12.5
    endloop
  endfacet
  facet normal 0 0 -1
    outer loop
      vertex 13.1278 -20.686 -12.5
      vertex 2.41122 -3.79947 -12.5
      vertex 2.86841 -3.46731 -12.5
    endloop
  endfacet
  facet normal 0 0 -1
    outer loop
      vertex 10.4316 -22.1683 -12.5
      vertex 1.91601 -4.07172 -12.5
      vertex 2.41122 -3.79947 -12.5
    endloop
  endfacet
  facet normal 0 0 -1
    outer loop
      vertex 0.843215 -4.42029 -12.5
      vertex 4.59084 -24.066 -12.5
      vertex 1.53837 -24.4517 -12.5
    endloop
  endfacet
  facet normal 0 0 -1
    outer loop
      vertex 7.57092 -23.3009 -12.5
      vertex 1.39058 -4.27975 -12.5
      vertex 1.91601 -4.07172 -12.5
    endloop
  endfacet
  facet normal 0 0 -1
    outer loop
      vertex 4.59084 -24.066 -12.5
      vertex 0.843215 -4.42029 -12.5
      vertex 1.39058 -4.27975 -12.5
    endloop
  endfacet
  facet normal 0 0 -1
    outer loop
      vertex 1.53837 -24.4517 -12.5
      vertex 0.282557 -4.49112 -12.5
      vertex 0.843215 -4.42029 -12.5
    endloop
  endfacet
  facet normal 0 0 -1
    outer loop
      vertex 1.53837 -24.4517 -12.5
      vertex -0.282557 -4.49112 -12.5
      vertex 0.282557 -4.49112 -12.5
    endloop
  endfacet
  facet normal 0 0 -1
    outer loop
      vertex -1.53837 -24.4517 -12.5
      vertex -0.282557 -4.49112 -12.5
      vertex 1.53837 -24.4517 -12.5
    endloop
  endfacet
  facet normal -0 0 -1
    outer loop
      vertex -0.282557 -4.49112 -12.5
      vertex -1.53837 -24.4517 -12.5
      vertex -0.843215 -4.42029 -12.5
    endloop
  endfacet
  facet normal 0 0 -1
    outer loop
      vertex -4.59084 -24.066 -12.5
      vertex -0.843215 -4.42029 -12.5
      vertex -1.53837 -24.4517 -12.5
    endloop
  endfacet
  facet normal -0 0 -1
    outer loop
      vertex -0.843215 -4.42029 -12.5
      vertex -4.59084 -24.066 -12.5
      vertex -1.39058 -4.27975 -12.5
    endloop
  endfacet
  facet normal 0 0 -1
    outer loop
      vertex -7.57092 -23.3009 -12.5
      vertex -1.39058 -4.27975 -12.5
      vertex -4.59084 -24.066 -12.5
    endloop
  endfacet
  facet normal -0 0 -1
    outer loop
      vertex -1.39058 -4.27975 -12.5
      vertex -7.57092 -23.3009 -12.5
      vertex -1.91601 -4.07172 -12.5
    endloop
  endfacet
  facet normal 0 0 -1
    outer loop
      vertex -10.4316 -22.1683 -12.5
      vertex -1.91601 -4.07172 -12.5
      vertex -7.57092 -23.3009 -12.5
    endloop
  endfacet
  facet normal -0 0 -1
    outer loop
      vertex -1.91601 -4.07172 -12.5
      vertex -10.4316 -22.1683 -12.5
      vertex -2.41122 -3.79947 -12.5
    endloop
  endfacet
  facet normal 0 0 -1
    outer loop
      vertex -13.1278 -20.686 -12.5
      vertex -2.41122 -3.79947 -12.5
      vertex -10.4316 -22.1683 -12.5
    endloop
  endfacet
  facet normal -0 0 -1
    outer loop
      vertex -2.41122 -3.79947 -12.5
      vertex -13.1278 -20.686 -12.5
      vertex -2.86841 -3.46731 -12.5
    endloop
  endfacet
  facet normal 0 0 -1
    outer loop
      vertex -15.6169 -18.8776 -12.5
      vertex -2.86841 -3.46731 -12.5
      vertex -13.1278 -20.686 -12.5
    endloop
  endfacet
  facet normal -0 0 -1
    outer loop
      vertex -2.86841 -3.46731 -12.5
      vertex -15.6169 -18.8776 -12.5
      vertex -3.28036 -3.08046 -12.5
    endloop
  endfacet
  facet normal -0 0 -1
    outer loop
      vertex -3.28036 -3.08046 -12.5
      vertex -17.8597 -16.7714 -12.5
      vertex -3.64058 -2.64503 -12.5
    endloop
  endfacet
  facet normal 0 0 -1
    outer loop
      vertex -17.8597 -16.7714 -12.5
      vertex -3.28036 -3.08046 -12.5
      vertex -15.6169 -18.8776 -12.5
    endloop
  endfacet
  facet normal 0 0 -1
    outer loop
      vertex 3.28036 3.08046 -12.5
      vertex 17.8597 16.7714 -12.5
      vertex 3.64058 2.64503 -12.5
    endloop
  endfacet
  facet normal -0 0 -1
    outer loop
      vertex 17.8597 16.7714 -12.5
      vertex 3.28036 3.08046 -12.5
      vertex 15.6169 18.8776 -12.5
    endloop
  endfacet
  facet normal 0 0 -1
    outer loop
      vertex 2.86841 3.46731 -12.5
      vertex 15.6169 18.8776 -12.5
      vertex 3.28036 3.08046 -12.5
    endloop
  endfacet
  facet normal -0 0 -1
    outer loop
      vertex 15.6169 18.8776 -12.5
      vertex 2.86841 3.46731 -12.5
      vertex 13.1278 20.686 -12.5
    endloop
  endfacet
  facet normal 0 0 -1
    outer loop
      vertex 2.41122 3.79947 -12.5
      vertex 13.1278 20.686 -12.5
      vertex 2.86841 3.46731 -12.5
    endloop
  endfacet
  facet normal -0 0 -1
    outer loop
      vertex 13.1278 20.686 -12.5
      vertex 2.41122 3.79947 -12.5
      vertex 10.4316 22.1683 -12.5
    endloop
  endfacet
  facet normal 0 0 -1
    outer loop
      vertex 1.91601 4.07172 -12.5
      vertex 10.4316 22.1683 -12.5
      vertex 2.41122 3.79947 -12.5
    endloop
  endfacet
  facet normal -0 0 -1
    outer loop
      vertex 10.4316 22.1683 -12.5
      vertex 1.91601 4.07172 -12.5
      vertex 7.57092 23.3009 -12.5
    endloop
  endfacet
  facet normal 0 0 -1
    outer loop
      vertex 1.39058 4.27975 -12.5
      vertex 7.57092 23.3009 -12.5
      vertex 1.91601 4.07172 -12.5
    endloop
  endfacet
  facet normal -0 0 -1
    outer loop
      vertex 7.57092 23.3009 -12.5
      vertex 1.39058 4.27975 -12.5
      vertex 4.59084 24.066 -12.5
    endloop
  endfacet
  facet normal 0 0 -1
    outer loop
      vertex 0.843215 4.42029 -12.5
      vertex 4.59084 24.066 -12.5
      vertex 1.39058 4.27975 -12.5
    endloop
  endfacet
  facet normal -0 0 -1
    outer loop
      vertex 4.59084 24.066 -12.5
      vertex 0.843215 4.42029 -12.5
      vertex 1.53837 24.4517 -12.5
    endloop
  endfacet
  facet normal 0 0 -1
    outer loop
      vertex 0.282557 4.49112 -12.5
      vertex 1.53837 24.4517 -12.5
      vertex 0.843215 4.42029 -12.5
    endloop
  endfacet
  facet normal 0 0 -1
    outer loop
      vertex -0.282557 4.49112 -12.5
      vertex 1.53837 24.4517 -12.5
      vertex 0.282557 4.49112 -12.5
    endloop
  endfacet
  facet normal 0 0 -1
    outer loop
      vertex -1.53837 24.4517 -12.5
      vertex -0.282557 4.49112 -12.5
      vertex -0.843215 4.42029 -12.5
    endloop
  endfacet
  facet normal 0 0 -1
    outer loop
      vertex -4.59084 24.066 -12.5
      vertex -0.843215 4.42029 -12.5
      vertex -1.39058 4.27975 -12.5
    endloop
  endfacet
  facet normal 0 0 -1
    outer loop
      vertex -0.282557 4.49112 -12.5
      vertex -1.53837 24.4517 -12.5
      vertex 1.53837 24.4517 -12.5
    endloop
  endfacet
  facet normal 0 0 -1
    outer loop
      vertex -7.57092 23.3009 -12.5
      vertex -1.39058 4.27975 -12.5
      vertex -1.91601 4.07172 -12.5
    endloop
  endfacet
  facet normal 0 0 -1
    outer loop
      vertex -10.4316 22.1683 -12.5
      vertex -1.91601 4.07172 -12.5
      vertex -2.41122 3.79947 -12.5
    endloop
  endfacet
  facet normal 0 0 -1
    outer loop
      vertex -13.1278 20.686 -12.5
      vertex -2.41122 3.79947 -12.5
      vertex -2.86841 3.46731 -12.5
    endloop
  endfacet
  facet normal 0 0 -1
    outer loop
      vertex -15.6169 18.8776 -12.5
      vertex -2.86841 3.46731 -12.5
      vertex -3.28036 3.08046 -12.5
    endloop
  endfacet
  facet normal 0 0 -1
    outer loop
      vertex -17.8597 16.7714 -12.5
      vertex -3.28036 3.08046 -12.5
      vertex -3.64058 2.64503 -12.5
    endloop
  endfacet
  facet normal 0 0 -1
    outer loop
      vertex -19.8209 14.4007 -12.5
      vertex -3.64058 2.64503 -12.5
      vertex -3.94338 2.16789 -12.5
    endloop
  endfacet
  facet normal 0 0 -1
    outer loop
      vertex -21.4695 11.803 -12.5
      vertex -3.94338 2.16789 -12.5
      vertex -4.18399 1.65656 -12.5
    endloop
  endfacet
  facet normal 0 0 -1
    outer loop
      vertex -22.7795 9.01905 -12.5
      vertex -4.18399 1.65656 -12.5
      vertex -4.35862 1.1191 -12.5
    endloop
  endfacet
  facet normal 0 0 -1
    outer loop
      vertex -23.7303 6.0929 -12.5
      vertex -4.35862 1.1191 -12.5
      vertex -4.46452 0.563999 -12.5
    endloop
  endfacet
  facet normal 0 0 -1
    outer loop
      vertex -0.843215 4.42029 -12.5
      vertex -4.59084 24.066 -12.5
      vertex -1.53837 24.4517 -12.5
    endloop
  endfacet
  facet normal 0 0 -1
    outer loop
      vertex -24.3068 3.07066 -12.5
      vertex -4.46452 0.563999 -12.5
      vertex -4.5 0 -12.5
    endloop
  endfacet
  facet normal 0 0 -1
    outer loop
      vertex -19.8209 -14.4007 -12.5
      vertex -3.64058 -2.64503 -12.5
      vertex -17.8597 -16.7714 -12.5
    endloop
  endfacet
  facet normal -0 0 -1
    outer loop
      vertex -3.64058 -2.64503 -12.5
      vertex -19.8209 -14.4007 -12.5
      vertex -3.94338 -2.16789 -12.5
    endloop
  endfacet
  facet normal 0 0 -1
    outer loop
      vertex -1.39058 4.27975 -12.5
      vertex -7.57092 23.3009 -12.5
      vertex -4.59084 24.066 -12.5
    endloop
  endfacet
  facet normal 0 0 -1
    outer loop
      vertex -21.4695 -11.803 -12.5
      vertex -3.94338 -2.16789 -12.5
      vertex -19.8209 -14.4007 -12.5
    endloop
  endfacet
  facet normal 0 0 -1
    outer loop
      vertex -1.91601 4.07172 -12.5
      vertex -10.4316 22.1683 -12.5
      vertex -7.57092 23.3009 -12.5
    endloop
  endfacet
  facet normal -0 0 -1
    outer loop
      vertex -3.94338 -2.16789 -12.5
      vertex -21.4695 -11.803 -12.5
      vertex -4.18399 -1.65656 -12.5
    endloop
  endfacet
  facet normal 0 0 -1
    outer loop
      vertex -2.41122 3.79947 -12.5
      vertex -13.1278 20.686 -12.5
      vertex -10.4316 22.1683 -12.5
    endloop
  endfacet
  facet normal 0 0 -1
    outer loop
      vertex -22.7795 -9.01905 -12.5
      vertex -4.18399 -1.65656 -12.5
      vertex -21.4695 -11.803 -12.5
    endloop
  endfacet
  facet normal 0 0 -1
    outer loop
      vertex -2.86841 3.46731 -12.5
      vertex -15.6169 18.8776 -12.5
      vertex -13.1278 20.686 -12.5
    endloop
  endfacet
  facet normal -0 0 -1
    outer loop
      vertex -4.18399 -1.65656 -12.5
      vertex -22.7795 -9.01905 -12.5
      vertex -4.35862 -1.1191 -12.5
    endloop
  endfacet
  facet normal 0 0 -1
    outer loop
      vertex -3.28036 3.08046 -12.5
      vertex -17.8597 16.7714 -12.5
      vertex -15.6169 18.8776 -12.5
    endloop
  endfacet
  facet normal 0 0 -1
    outer loop
      vertex -23.7303 -6.0929 -12.5
      vertex -4.35862 -1.1191 -12.5
      vertex -22.7795 -9.01905 -12.5
    endloop
  endfacet
  facet normal 0 0 -1
    outer loop
      vertex -3.64058 2.64503 -12.5
      vertex -19.8209 14.4007 -12.5
      vertex -17.8597 16.7714 -12.5
    endloop
  endfacet
  facet normal -0 0 -1
    outer loop
      vertex -4.35862 -1.1191 -12.5
      vertex -23.7303 -6.0929 -12.5
      vertex -4.46452 -0.563999 -12.5
    endloop
  endfacet
  facet normal 0 0 -1
    outer loop
      vertex -3.94338 2.16789 -12.5
      vertex -21.4695 11.803 -12.5
      vertex -19.8209 14.4007 -12.5
    endloop
  endfacet
  facet normal 0 0 -1
    outer loop
      vertex -24.3068 -3.07066 -12.5
      vertex -4.46452 -0.563999 -12.5
      vertex -23.7303 -6.0929 -12.5
    endloop
  endfacet
  facet normal 0 0 -1
    outer loop
      vertex -4.18399 1.65656 -12.5
      vertex -22.7795 9.01905 -12.5
      vertex -21.4695 11.803 -12.5
    endloop
  endfacet
  facet normal -0 0 -1
    outer loop
      vertex -4.46452 -0.563999 -12.5
      vertex -24.3068 -3.07066 -12.5
      vertex -4.5 0 -12.5
    endloop
  endfacet
  facet normal 0 0 -1
    outer loop
      vertex -4.35862 1.1191 -12.5
      vertex -23.7303 6.0929 -12.5
      vertex -22.7795 9.01905 -12.5
    endloop
  endfacet
  facet normal 0 0 -1
    outer loop
      vertex -24.5 0 -12.5
      vertex -4.5 0 -12.5
      vertex -24.3068 -3.07066 -12.5
    endloop
  endfacet
  facet normal 0 0 -1
    outer loop
      vertex -4.46452 0.563999 -12.5
      vertex -24.3068 3.07066 -12.5
      vertex -23.7303 6.0929 -12.5
    endloop
  endfacet
  facet normal 0 0 -1
    outer loop
      vertex -4.5 0 -12.5
      vertex -24.5 0 -12.5
      vertex -24.3068 3.07066 -12.5
    endloop
  endfacet
  facet normal 0.481767 -0.8763 0
    outer loop
      vertex 10.4316 -22.1683 -12.5
      vertex 13.1278 -20.686 12.5
      vertex 10.4316 -22.1683 12.5
    endloop
  endfacet
  facet normal 0.481767 -0.8763 0
    outer loop
      vertex 13.1278 -20.686 12.5
      vertex 10.4316 -22.1683 -12.5
      vertex 13.1278 -20.686 -12.5
    endloop
  endfacet
  facet normal 0.684559 -0.728957 0
    outer loop
      vertex 15.6169 -18.8776 -12.5
      vertex 17.8597 -16.7714 12.5
      vertex 15.6169 -18.8776 12.5
    endloop
  endfacet
  facet normal 0.684559 -0.728957 0
    outer loop
      vertex 17.8597 -16.7714 12.5
      vertex 15.6169 -18.8776 -12.5
      vertex 17.8597 -16.7714 -12.5
    endloop
  endfacet
  facet normal 0.844321 -0.535838 0
    outer loop
      vertex 19.8209 -14.4007 12.5
      vertex 21.4695 -11.803 -12.5
      vertex 21.4695 -11.803 12.5
    endloop
  endfacet
  facet normal 0.844321 -0.535838 0
    outer loop
      vertex 21.4695 -11.803 -12.5
      vertex 19.8209 -14.4007 12.5
      vertex 19.8209 -14.4007 -12.5
    endloop
  endfacet
  facet normal -0.951053 -0.309028 0
    outer loop
      vertex -22.7795 -9.01905 -12.5
      vertex -23.7303 -6.0929 12.5
      vertex -23.7303 -6.0929 -12.5
    endloop
  endfacet
  facet normal -0.951053 -0.309028 0
    outer loop
      vertex -23.7303 -6.0929 12.5
      vertex -22.7795 -9.01905 -12.5
      vertex -22.7795 -9.01905 12.5
    endloop
  endfacet
  facet normal 0.368118 -0.929779 0
    outer loop
      vertex 7.57092 -23.3009 -12.5
      vertex 10.4316 -22.1683 12.5
      vertex 7.57092 -23.3009 12.5
    endloop
  endfacet
  facet normal 0.368118 -0.929779 0
    outer loop
      vertex 10.4316 -22.1683 12.5
      vertex 7.57092 -23.3009 -12.5
      vertex 10.4316 -22.1683 -12.5
    endloop
  endfacet
  facet normal 0.248673 -0.968587 0
    outer loop
      vertex 4.59084 -24.066 -12.5
      vertex 7.57092 -23.3009 12.5
      vertex 4.59084 -24.066 12.5
    endloop
  endfacet
  facet normal 0.248673 -0.968587 0
    outer loop
      vertex 7.57092 -23.3009 12.5
      vertex 4.59084 -24.066 -12.5
      vertex 7.57092 -23.3009 -12.5
    endloop
  endfacet
  facet normal -0.12536 -0.992111 0
    outer loop
      vertex -4.59084 -24.066 -12.5
      vertex -1.53837 -24.4517 12.5
      vertex -4.59084 -24.066 12.5
    endloop
  endfacet
  facet normal -0.12536 -0.992111 -0
    outer loop
      vertex -1.53837 -24.4517 12.5
      vertex -4.59084 -24.066 -12.5
      vertex -1.53837 -24.4517 -12.5
    endloop
  endfacet
  facet normal -0.368118 -0.929779 0
    outer loop
      vertex -10.4316 -22.1683 -12.5
      vertex -7.57092 -23.3009 12.5
      vertex -10.4316 -22.1683 12.5
    endloop
  endfacet
  facet normal -0.368118 -0.929779 -0
    outer loop
      vertex -7.57092 -23.3009 12.5
      vertex -10.4316 -22.1683 -12.5
      vertex -7.57092 -23.3009 -12.5
    endloop
  endfacet
  facet normal -0.248673 -0.968587 0
    outer loop
      vertex -7.57092 -23.3009 -12.5
      vertex -4.59084 -24.066 12.5
      vertex -7.57092 -23.3009 12.5
    endloop
  endfacet
  facet normal -0.248673 -0.968587 -0
    outer loop
      vertex -4.59084 -24.066 12.5
      vertex -7.57092 -23.3009 -12.5
      vertex -4.59084 -24.066 -12.5
    endloop
  endfacet
  facet normal -0.770515 -0.637421 0
    outer loop
      vertex -17.8597 -16.7714 -12.5
      vertex -19.8209 -14.4007 12.5
      vertex -19.8209 -14.4007 -12.5
    endloop
  endfacet
  facet normal -0.770515 -0.637421 0
    outer loop
      vertex -19.8209 -14.4007 12.5
      vertex -17.8597 -16.7714 -12.5
      vertex -17.8597 -16.7714 12.5
    endloop
  endfacet
  facet normal -0.684559 -0.728957 0
    outer loop
      vertex -17.8597 -16.7714 -12.5
      vertex -15.6169 -18.8776 12.5
      vertex -17.8597 -16.7714 12.5
    endloop
  endfacet
  facet normal -0.684559 -0.728957 -0
    outer loop
      vertex -15.6169 -18.8776 12.5
      vertex -17.8597 -16.7714 -12.5
      vertex -15.6169 -18.8776 -12.5
    endloop
  endfacet
  facet normal -0.982289 -0.187374 0
    outer loop
      vertex -23.7303 -6.0929 -12.5
      vertex -24.3068 -3.07066 12.5
      vertex -24.3068 -3.07066 -12.5
    endloop
  endfacet
  facet normal -0.982289 -0.187374 0
    outer loop
      vertex -24.3068 -3.07066 12.5
      vertex -23.7303 -6.0929 -12.5
      vertex -23.7303 -6.0929 12.5
    endloop
  endfacet
  facet normal -0.998027 -0.0627939 0
    outer loop
      vertex -24.3068 -3.07066 -12.5
      vertex -24.5 0 12.5
      vertex -24.5 0 -12.5
    endloop
  endfacet
  facet normal -0.998027 -0.0627939 0
    outer loop
      vertex -24.5 0 12.5
      vertex -24.3068 -3.07066 -12.5
      vertex -24.3068 -3.07066 12.5
    endloop
  endfacet
  facet normal 0.587777 -0.809023 0
    outer loop
      vertex 13.1278 -20.686 -12.5
      vertex 15.6169 -18.8776 12.5
      vertex 13.1278 -20.686 12.5
    endloop
  endfacet
  facet normal 0.587777 -0.809023 0
    outer loop
      vertex 15.6169 -18.8776 12.5
      vertex 13.1278 -20.686 -12.5
      vertex 15.6169 -18.8776 -12.5
    endloop
  endfacet
  facet normal -0.844321 -0.535838 0
    outer loop
      vertex -19.8209 -14.4007 -12.5
      vertex -21.4695 -11.803 12.5
      vertex -21.4695 -11.803 -12.5
    endloop
  endfacet
  facet normal -0.844321 -0.535838 0
    outer loop
      vertex -21.4695 -11.803 12.5
      vertex -19.8209 -14.4007 -12.5
      vertex -19.8209 -14.4007 12.5
    endloop
  endfacet
  facet normal -0.481767 -0.8763 0
    outer loop
      vertex -13.1278 -20.686 -12.5
      vertex -10.4316 -22.1683 12.5
      vertex -13.1278 -20.686 12.5
    endloop
  endfacet
  facet normal -0.481767 -0.8763 -0
    outer loop
      vertex -10.4316 -22.1683 12.5
      vertex -13.1278 -20.686 -12.5
      vertex -10.4316 -22.1683 -12.5
    endloop
  endfacet
  facet normal -0.587777 -0.809023 0
    outer loop
      vertex -15.6169 -18.8776 -12.5
      vertex -13.1278 -20.686 12.5
      vertex -15.6169 -18.8776 12.5
    endloop
  endfacet
  facet normal -0.587777 -0.809023 -0
    outer loop
      vertex -13.1278 -20.686 12.5
      vertex -15.6169 -18.8776 -12.5
      vertex -13.1278 -20.686 -12.5
    endloop
  endfacet
  facet normal -0.998027 -0.0627838 0
    outer loop
      vertex 4.5 0 -12.5
      vertex 4.46452 0.563999 12.5
      vertex 4.46452 0.563999 -12.5
    endloop
  endfacet
  facet normal -0.998027 -0.0627838 0
    outer loop
      vertex 4.46452 0.563999 12.5
      vertex 4.5 0 -12.5
      vertex 4.5 0 12.5
    endloop
  endfacet
  facet normal 0.998027 -0.0627838 0
    outer loop
      vertex -4.5 0 12.5
      vertex -4.46452 0.563999 -12.5
      vertex -4.46452 0.563999 12.5
    endloop
  endfacet
  facet normal 0.998027 -0.0627838 0
    outer loop
      vertex -4.46452 0.563999 -12.5
      vertex -4.5 0 12.5
      vertex -4.5 0 -12.5
    endloop
  endfacet
  facet normal 0 -1 0
    outer loop
      vertex -0.282557 4.49112 -12.5
      vertex 0.282557 4.49112 12.5
      vertex -0.282557 4.49112 12.5
    endloop
  endfacet
  facet normal 0 -1 -0
    outer loop
      vertex 0.282557 4.49112 12.5
      vertex -0.282557 4.49112 -12.5
      vertex 0.282557 4.49112 -12.5
    endloop
  endfacet
  facet normal 0 1 -0
    outer loop
      vertex 0.282557 -4.49112 -12.5
      vertex -0.282557 -4.49112 12.5
      vertex 0.282557 -4.49112 12.5
    endloop
  endfacet
  facet normal 0 1 0
    outer loop
      vertex -0.282557 -4.49112 12.5
      vertex 0.282557 -4.49112 -12.5
      vertex -0.282557 -4.49112 -12.5
    endloop
  endfacet
  facet normal -0.770512 0.637425 0
    outer loop
      vertex 3.28036 -3.08046 -12.5
      vertex 3.64058 -2.64503 12.5
      vertex 3.64058 -2.64503 -12.5
    endloop
  endfacet
  facet normal -0.770512 0.637425 0
    outer loop
      vertex 3.64058 -2.64503 12.5
      vertex 3.28036 -3.08046 -12.5
      vertex 3.28036 -3.08046 12.5
    endloop
  endfacet
  facet normal -0.68455 -0.728966 0
    outer loop
      vertex 2.86841 3.46731 -12.5
      vertex 3.28036 3.08046 12.5
      vertex 2.86841 3.46731 12.5
    endloop
  endfacet
  facet normal -0.68455 -0.728966 -0
    outer loop
      vertex 3.28036 3.08046 12.5
      vertex 2.86841 3.46731 -12.5
      vertex 3.28036 3.08046 -12.5
    endloop
  endfacet
  facet normal 0.68455 -0.728966 0
    outer loop
      vertex -3.28036 3.08046 -12.5
      vertex -2.86841 3.46731 12.5
      vertex -3.28036 3.08046 12.5
    endloop
  endfacet
  facet normal 0.68455 -0.728966 0
    outer loop
      vertex -2.86841 3.46731 12.5
      vertex -3.28036 3.08046 -12.5
      vertex -2.86841 3.46731 -12.5
    endloop
  endfacet
  facet normal 0.368121 -0.929778 0
    outer loop
      vertex -1.91601 4.07172 -12.5
      vertex -1.39058 4.27975 12.5
      vertex -1.91601 4.07172 12.5
    endloop
  endfacet
  facet normal 0.368121 -0.929778 0
    outer loop
      vertex -1.39058 4.27975 12.5
      vertex -1.91601 4.07172 -12.5
      vertex -1.39058 4.27975 -12.5
    endloop
  endfacet
  facet normal -0.90483 -0.425774 0
    outer loop
      vertex 4.18399 1.65656 -12.5
      vertex 3.94338 2.16789 12.5
      vertex 3.94338 2.16789 -12.5
    endloop
  endfacet
  facet normal -0.90483 -0.425774 0
    outer loop
      vertex 3.94338 2.16789 12.5
      vertex 4.18399 1.65656 -12.5
      vertex 4.18399 1.65656 12.5
    endloop
  endfacet
  facet normal -0.982284 -0.187396 0
    outer loop
      vertex 4.46452 0.563999 -12.5
      vertex 4.35862 1.1191 12.5
      vertex 4.35862 1.1191 -12.5
    endloop
  endfacet
  facet normal -0.982284 -0.187396 0
    outer loop
      vertex 4.35862 1.1191 12.5
      vertex 4.46452 0.563999 -12.5
      vertex 4.46452 0.563999 12.5
    endloop
  endfacet
  facet normal -0.368121 -0.929778 0
    outer loop
      vertex 1.39058 4.27975 -12.5
      vertex 1.91601 4.07172 12.5
      vertex 1.39058 4.27975 12.5
    endloop
  endfacet
  facet normal -0.368121 -0.929778 -0
    outer loop
      vertex 1.91601 4.07172 12.5
      vertex 1.39058 4.27975 -12.5
      vertex 1.91601 4.07172 -12.5
    endloop
  endfacet
  facet normal -0.248691 -0.968583 0
    outer loop
      vertex 0.843215 4.42029 -12.5
      vertex 1.39058 4.27975 12.5
      vertex 0.843215 4.42029 12.5
    endloop
  endfacet
  facet normal -0.248691 -0.968583 -0
    outer loop
      vertex 1.39058 4.27975 12.5
      vertex 0.843215 4.42029 -12.5
      vertex 1.39058 4.27975 -12.5
    endloop
  endfacet
  facet normal -0.587776 -0.809024 0
    outer loop
      vertex 2.41122 3.79947 -12.5
      vertex 2.86841 3.46731 12.5
      vertex 2.41122 3.79947 12.5
    endloop
  endfacet
  facet normal -0.587776 -0.809024 -0
    outer loop
      vertex 2.86841 3.46731 12.5
      vertex 2.41122 3.79947 -12.5
      vertex 2.86841 3.46731 -12.5
    endloop
  endfacet
  facet normal 0.90483 -0.425774 0
    outer loop
      vertex -4.18399 1.65656 12.5
      vertex -3.94338 2.16789 -12.5
      vertex -3.94338 2.16789 12.5
    endloop
  endfacet
  facet normal 0.90483 -0.425774 0
    outer loop
      vertex -3.94338 2.16789 -12.5
      vertex -4.18399 1.65656 12.5
      vertex -4.18399 1.65656 -12.5
    endloop
  endfacet
  facet normal 0.84433 -0.535824 0
    outer loop
      vertex -3.94338 2.16789 12.5
      vertex -3.64058 2.64503 -12.5
      vertex -3.64058 2.64503 12.5
    endloop
  endfacet
  facet normal 0.84433 -0.535824 0
    outer loop
      vertex -3.64058 2.64503 -12.5
      vertex -3.94338 2.16789 12.5
      vertex -3.94338 2.16789 -12.5
    endloop
  endfacet
  facet normal 0.951057 -0.309015 0
    outer loop
      vertex -4.35862 1.1191 12.5
      vertex -4.18399 1.65656 -12.5
      vertex -4.18399 1.65656 12.5
    endloop
  endfacet
  facet normal 0.951057 -0.309015 0
    outer loop
      vertex -4.18399 1.65656 -12.5
      vertex -4.35862 1.1191 12.5
      vertex -4.35862 1.1191 -12.5
    endloop
  endfacet
  facet normal 0.481762 -0.876302 0
    outer loop
      vertex -2.41122 3.79947 -12.5
      vertex -1.91601 4.07172 12.5
      vertex -2.41122 3.79947 12.5
    endloop
  endfacet
  facet normal 0.481762 -0.876302 0
    outer loop
      vertex -1.91601 4.07172 12.5
      vertex -2.41122 3.79947 -12.5
      vertex -1.91601 4.07172 -12.5
    endloop
  endfacet
  facet normal 0.248691 -0.968583 0
    outer loop
      vertex -1.39058 4.27975 -12.5
      vertex -0.843215 4.42029 12.5
      vertex -1.39058 4.27975 12.5
    endloop
  endfacet
  facet normal 0.248691 -0.968583 0
    outer loop
      vertex -0.843215 4.42029 12.5
      vertex -1.39058 4.27975 -12.5
      vertex -0.843215 4.42029 -12.5
    endloop
  endfacet
  facet normal -0.368121 0.929778 0
    outer loop
      vertex 1.91601 -4.07172 -12.5
      vertex 1.39058 -4.27975 12.5
      vertex 1.91601 -4.07172 12.5
    endloop
  endfacet
  facet normal -0.368121 0.929778 0
    outer loop
      vertex 1.39058 -4.27975 12.5
      vertex 1.91601 -4.07172 -12.5
      vertex 1.39058 -4.27975 -12.5
    endloop
  endfacet
  facet normal -0.951057 -0.309015 0
    outer loop
      vertex 4.35862 1.1191 -12.5
      vertex 4.18399 1.65656 12.5
      vertex 4.18399 1.65656 -12.5
    endloop
  endfacet
  facet normal -0.951057 -0.309015 0
    outer loop
      vertex 4.18399 1.65656 12.5
      vertex 4.35862 1.1191 -12.5
      vertex 4.35862 1.1191 12.5
    endloop
  endfacet
  facet normal -0.770512 -0.637425 0
    outer loop
      vertex 3.64058 2.64503 -12.5
      vertex 3.28036 3.08046 12.5
      vertex 3.28036 3.08046 -12.5
    endloop
  endfacet
  facet normal -0.770512 -0.637425 0
    outer loop
      vertex 3.28036 3.08046 12.5
      vertex 3.64058 2.64503 -12.5
      vertex 3.64058 2.64503 12.5
    endloop
  endfacet
  facet normal -0.84433 -0.535824 0
    outer loop
      vertex 3.94338 2.16789 -12.5
      vertex 3.64058 2.64503 12.5
      vertex 3.64058 2.64503 -12.5
    endloop
  endfacet
  facet normal -0.84433 -0.535824 0
    outer loop
      vertex 3.64058 2.64503 12.5
      vertex 3.94338 2.16789 -12.5
      vertex 3.94338 2.16789 12.5
    endloop
  endfacet
  facet normal -0.125337 -0.992114 0
    outer loop
      vertex 0.282557 4.49112 -12.5
      vertex 0.843215 4.42029 12.5
      vertex 0.282557 4.49112 12.5
    endloop
  endfacet
  facet normal -0.125337 -0.992114 -0
    outer loop
      vertex 0.843215 4.42029 12.5
      vertex 0.282557 4.49112 -12.5
      vertex 0.843215 4.42029 -12.5
    endloop
  endfacet
  facet normal -0.481762 -0.876302 0
    outer loop
      vertex 1.91601 4.07172 -12.5
      vertex 2.41122 3.79947 12.5
      vertex 1.91601 4.07172 12.5
    endloop
  endfacet
  facet normal -0.481762 -0.876302 -0
    outer loop
      vertex 2.41122 3.79947 12.5
      vertex 1.91601 4.07172 -12.5
      vertex 2.41122 3.79947 -12.5
    endloop
  endfacet
  facet normal 0.770512 -0.637425 0
    outer loop
      vertex -3.64058 2.64503 12.5
      vertex -3.28036 3.08046 -12.5
      vertex -3.28036 3.08046 12.5
    endloop
  endfacet
  facet normal 0.770512 -0.637425 0
    outer loop
      vertex -3.28036 3.08046 -12.5
      vertex -3.64058 2.64503 12.5
      vertex -3.64058 2.64503 -12.5
    endloop
  endfacet
  facet normal 0.982284 -0.187396 0
    outer loop
      vertex -4.46452 0.563999 12.5
      vertex -4.35862 1.1191 -12.5
      vertex -4.35862 1.1191 12.5
    endloop
  endfacet
  facet normal 0.982284 -0.187396 0
    outer loop
      vertex -4.35862 1.1191 -12.5
      vertex -4.46452 0.563999 12.5
      vertex -4.46452 0.563999 -12.5
    endloop
  endfacet
  facet normal 0.587776 -0.809024 0
    outer loop
      vertex -2.86841 3.46731 -12.5
      vertex -2.41122 3.79947 12.5
      vertex -2.86841 3.46731 12.5
    endloop
  endfacet
  facet normal 0.587776 -0.809024 0
    outer loop
      vertex -2.41122 3.79947 12.5
      vertex -2.86841 3.46731 -12.5
      vertex -2.41122 3.79947 -12.5
    endloop
  endfacet
  facet normal 0.125337 -0.992114 0
    outer loop
      vertex -0.843215 4.42029 -12.5
      vertex -0.282557 4.49112 12.5
      vertex -0.843215 4.42029 12.5
    endloop
  endfacet
  facet normal 0.125337 -0.992114 0
    outer loop
      vertex -0.282557 4.49112 12.5
      vertex -0.843215 4.42029 -12.5
      vertex -0.282557 4.49112 -12.5
    endloop
  endfacet
  facet normal -0.998027 0.0627838 0
    outer loop
      vertex 4.46452 -0.563999 -12.5
      vertex 4.5 0 12.5
      vertex 4.5 0 -12.5
    endloop
  endfacet
  facet normal -0.998027 0.0627838 0
    outer loop
      vertex 4.5 0 12.5
      vertex 4.46452 -0.563999 -12.5
      vertex 4.46452 -0.563999 12.5
    endloop
  endfacet
  facet normal -0.84433 0.535824 0
    outer loop
      vertex 3.64058 -2.64503 -12.5
      vertex 3.94338 -2.16789 12.5
      vertex 3.94338 -2.16789 -12.5
    endloop
  endfacet
  facet normal -0.84433 0.535824 0
    outer loop
      vertex 3.94338 -2.16789 12.5
      vertex 3.64058 -2.64503 -12.5
      vertex 3.64058 -2.64503 12.5
    endloop
  endfacet
  facet normal -0.982284 0.187396 0
    outer loop
      vertex 4.35862 -1.1191 -12.5
      vertex 4.46452 -0.563999 12.5
      vertex 4.46452 -0.563999 -12.5
    endloop
  endfacet
  facet normal -0.982284 0.187396 0
    outer loop
      vertex 4.46452 -0.563999 12.5
      vertex 4.35862 -1.1191 -12.5
      vertex 4.35862 -1.1191 12.5
    endloop
  endfacet
  facet normal 0.368121 0.929778 -0
    outer loop
      vertex -1.39058 -4.27975 -12.5
      vertex -1.91601 -4.07172 12.5
      vertex -1.39058 -4.27975 12.5
    endloop
  endfacet
  facet normal 0.368121 0.929778 0
    outer loop
      vertex -1.91601 -4.07172 12.5
      vertex -1.39058 -4.27975 -12.5
      vertex -1.91601 -4.07172 -12.5
    endloop
  endfacet
  facet normal 0.84433 0.535824 0
    outer loop
      vertex -3.64058 -2.64503 12.5
      vertex -3.94338 -2.16789 -12.5
      vertex -3.94338 -2.16789 12.5
    endloop
  endfacet
  facet normal 0.84433 0.535824 0
    outer loop
      vertex -3.94338 -2.16789 -12.5
      vertex -3.64058 -2.64503 12.5
      vertex -3.64058 -2.64503 -12.5
    endloop
  endfacet
  facet normal 0.90483 0.425774 0
    outer loop
      vertex -3.94338 -2.16789 12.5
      vertex -4.18399 -1.65656 -12.5
      vertex -4.18399 -1.65656 12.5
    endloop
  endfacet
  facet normal 0.90483 0.425774 0
    outer loop
      vertex -4.18399 -1.65656 -12.5
      vertex -3.94338 -2.16789 12.5
      vertex -3.94338 -2.16789 -12.5
    endloop
  endfacet
  facet normal -0.68455 0.728966 0
    outer loop
      vertex 3.28036 -3.08046 -12.5
      vertex 2.86841 -3.46731 12.5
      vertex 3.28036 -3.08046 12.5
    endloop
  endfacet
  facet normal -0.68455 0.728966 0
    outer loop
      vertex 2.86841 -3.46731 12.5
      vertex 3.28036 -3.08046 -12.5
      vertex 2.86841 -3.46731 -12.5
    endloop
  endfacet
  facet normal -0.481762 0.876302 0
    outer loop
      vertex 2.41122 -3.79947 -12.5
      vertex 1.91601 -4.07172 12.5
      vertex 2.41122 -3.79947 12.5
    endloop
  endfacet
  facet normal -0.481762 0.876302 0
    outer loop
      vertex 1.91601 -4.07172 12.5
      vertex 2.41122 -3.79947 -12.5
      vertex 1.91601 -4.07172 -12.5
    endloop
  endfacet
  facet normal -0.951057 0.309015 0
    outer loop
      vertex 4.18399 -1.65656 -12.5
      vertex 4.35862 -1.1191 12.5
      vertex 4.35862 -1.1191 -12.5
    endloop
  endfacet
  facet normal -0.951057 0.309015 0
    outer loop
      vertex 4.35862 -1.1191 12.5
      vertex 4.18399 -1.65656 -12.5
      vertex 4.18399 -1.65656 12.5
    endloop
  endfacet
  facet normal -0.90483 0.425774 0
    outer loop
      vertex 3.94338 -2.16789 -12.5
      vertex 4.18399 -1.65656 12.5
      vertex 4.18399 -1.65656 -12.5
    endloop
  endfacet
  facet normal -0.90483 0.425774 0
    outer loop
      vertex 4.18399 -1.65656 12.5
      vertex 3.94338 -2.16789 -12.5
      vertex 3.94338 -2.16789 12.5
    endloop
  endfacet
  facet normal 0.248691 0.968583 -0
    outer loop
      vertex -0.843215 -4.42029 -12.5
      vertex -1.39058 -4.27975 12.5
      vertex -0.843215 -4.42029 12.5
    endloop
  endfacet
  facet normal 0.248691 0.968583 0
    outer loop
      vertex -1.39058 -4.27975 12.5
      vertex -0.843215 -4.42029 -12.5
      vertex -1.39058 -4.27975 -12.5
    endloop
  endfacet
  facet normal 0.951057 0.309015 0
    outer loop
      vertex -4.18399 -1.65656 12.5
      vertex -4.35862 -1.1191 -12.5
      vertex -4.35862 -1.1191 12.5
    endloop
  endfacet
  facet normal 0.951057 0.309015 0
    outer loop
      vertex -4.35862 -1.1191 -12.5
      vertex -4.18399 -1.65656 12.5
      vertex -4.18399 -1.65656 -12.5
    endloop
  endfacet
  facet normal 0.998027 0.0627838 0
    outer loop
      vertex -4.46452 -0.563999 12.5
      vertex -4.5 0 -12.5
      vertex -4.5 0 12.5
    endloop
  endfacet
  facet normal 0.998027 0.0627838 0
    outer loop
      vertex -4.5 0 -12.5
      vertex -4.46452 -0.563999 12.5
      vertex -4.46452 -0.563999 -12.5
    endloop
  endfacet
  facet normal -0.587776 0.809024 0
    outer loop
      vertex 2.86841 -3.46731 -12.5
      vertex 2.41122 -3.79947 12.5
      vertex 2.86841 -3.46731 12.5
    endloop
  endfacet
  facet normal -0.587776 0.809024 0
    outer loop
      vertex 2.41122 -3.79947 12.5
      vertex 2.86841 -3.46731 -12.5
      vertex 2.41122 -3.79947 -12.5
    endloop
  endfacet
  facet normal 0.125337 0.992114 -0
    outer loop
      vertex -0.282557 -4.49112 -12.5
      vertex -0.843215 -4.42029 12.5
      vertex -0.282557 -4.49112 12.5
    endloop
  endfacet
  facet normal 0.125337 0.992114 0
    outer loop
      vertex -0.843215 -4.42029 12.5
      vertex -0.282557 -4.49112 -12.5
      vertex -0.843215 -4.42029 -12.5
    endloop
  endfacet
  facet normal 0.481762 0.876302 -0
    outer loop
      vertex -1.91601 -4.07172 -12.5
      vertex -2.41122 -3.79947 12.5
      vertex -1.91601 -4.07172 12.5
    endloop
  endfacet
  facet normal 0.481762 0.876302 0
    outer loop
      vertex -2.41122 -3.79947 12.5
      vertex -1.91601 -4.07172 -12.5
      vertex -2.41122 -3.79947 -12.5
    endloop
  endfacet
  facet normal 0.770512 0.637425 0
    outer loop
      vertex -3.28036 -3.08046 12.5
      vertex -3.64058 -2.64503 -12.5
      vertex -3.64058 -2.64503 12.5
    endloop
  endfacet
  facet normal 0.770512 0.637425 0
    outer loop
      vertex -3.64058 -2.64503 -12.5
      vertex -3.28036 -3.08046 12.5
      vertex -3.28036 -3.08046 -12.5
    endloop
  endfacet
  facet normal 0.982284 0.187396 0
    outer loop
      vertex -4.35862 -1.1191 12.5
      vertex -4.46452 -0.563999 -12.5
      vertex -4.46452 -0.563999 12.5
    endloop
  endfacet
  facet normal 0.982284 0.187396 0
    outer loop
      vertex -4.46452 -0.563999 -12.5
      vertex -4.35862 -1.1191 12.5
      vertex -4.35862 -1.1191 -12.5
    endloop
  endfacet
  facet normal -0.248691 0.968583 0
    outer loop
      vertex 1.39058 -4.27975 -12.5
      vertex 0.843215 -4.42029 12.5
      vertex 1.39058 -4.27975 12.5
    endloop
  endfacet
  facet normal -0.248691 0.968583 0
    outer loop
      vertex 0.843215 -4.42029 12.5
      vertex 1.39058 -4.27975 -12.5
      vertex 0.843215 -4.42029 -12.5
    endloop
  endfacet
  facet normal -0.125337 0.992114 0
    outer loop
      vertex 0.843215 -4.42029 -12.5
      vertex 0.282557 -4.49112 12.5
      vertex 0.843215 -4.42029 12.5
    endloop
  endfacet
  facet normal -0.125337 0.992114 0
    outer loop
      vertex 0.282557 -4.49112 12.5
      vertex 0.843215 -4.42029 -12.5
      vertex 0.282557 -4.49112 -12.5
    endloop
  endfacet
  facet normal 0.68455 0.728966 -0
    outer loop
      vertex -2.86841 -3.46731 -12.5
      vertex -3.28036 -3.08046 12.5
      vertex -2.86841 -3.46731 12.5
    endloop
  endfacet
  facet normal 0.68455 0.728966 0
    outer loop
      vertex -3.28036 -3.08046 12.5
      vertex -2.86841 -3.46731 -12.5
      vertex -3.28036 -3.08046 -12.5
    endloop
  endfacet
  facet normal 0.587776 0.809024 -0
    outer loop
      vertex -2.41122 -3.79947 -12.5
      vertex -2.86841 -3.46731 12.5
      vertex -2.41122 -3.79947 12.5
    endloop
  endfacet
  facet normal 0.587776 0.809024 0
    outer loop
      vertex -2.86841 -3.46731 12.5
      vertex -2.41122 -3.79947 -12.5
      vertex -2.86841 -3.46731 -12.5
    endloop
  endfacet
endsolid OpenSCAD_Model
