solid OpenSCAD_Model
  facet normal 0.998027 0.0627918 0
    outer loop
      vertex 5.5 0 27
      vertex 5.45663 0.689332 -27
      vertex 5.45663 0.689332 27
    endloop
  endfacet
  facet normal 0.998027 0.0627918 0
    outer loop
      vertex 5.45663 0.689332 -27
      vertex 5.5 0 27
      vertex 5.5 0 -27
    endloop
  endfacet
  facet normal -0.998027 0.0627918 0
    outer loop
      vertex -5.5 0 -27
      vertex -5.45663 0.689332 27
      vertex -5.45663 0.689332 -27
    endloop
  endfacet
  facet normal -0.998027 0.0627918 0
    outer loop
      vertex -5.45663 0.689332 27
      vertex -5.5 0 -27
      vertex -5.5 0 27
    endloop
  endfacet
  facet normal 0 1 -0
    outer loop
      vertex 0.345347 5.48915 -27
      vertex -0.345347 5.48915 27
      vertex 0.345347 5.48915 27
    endloop
  endfacet
  facet normal 0 1 0
    outer loop
      vertex -0.345347 5.48915 27
      vertex 0.345347 5.48915 -27
      vertex -0.345347 5.48915 -27
    endloop
  endfacet
  facet normal 0.684541 0.728974 -0
    outer loop
      vertex 4.00933 3.76501 -27
      vertex 3.50583 4.23782 27
      vertex 4.00933 3.76501 27
    endloop
  endfacet
  facet normal 0.684541 0.728974 0
    outer loop
      vertex 3.50583 4.23782 27
      vertex 4.00933 3.76501 -27
      vertex 3.50583 4.23782 -27
    endloop
  endfacet
  facet normal -0.684541 0.728974 0
    outer loop
      vertex -3.50583 4.23782 -27
      vertex -4.00933 3.76501 27
      vertex -3.50583 4.23782 27
    endloop
  endfacet
  facet normal -0.684541 0.728974 0
    outer loop
      vertex -4.00933 3.76501 27
      vertex -3.50583 4.23782 -27
      vertex -4.00933 3.76501 -27
    endloop
  endfacet
  facet normal -0.368118 0.929779 0
    outer loop
      vertex -1.69959 5.23081 -27
      vertex -2.34179 4.97655 27
      vertex -1.69959 5.23081 27
    endloop
  endfacet
  facet normal -0.368118 0.929779 0
    outer loop
      vertex -2.34179 4.97655 27
      vertex -1.69959 5.23081 -27
      vertex -2.34179 4.97655 -27
    endloop
  endfacet
  facet normal 0.904829 0.425775 0
    outer loop
      vertex 5.11377 2.02468 27
      vertex 4.81969 2.64964 -27
      vertex 4.81969 2.64964 27
    endloop
  endfacet
  facet normal 0.904829 0.425775 0
    outer loop
      vertex 4.81969 2.64964 -27
      vertex 5.11377 2.02468 27
      vertex 5.11377 2.02468 -27
    endloop
  endfacet
  facet normal 0.368118 0.929779 -0
    outer loop
      vertex 2.34179 4.97655 -27
      vertex 1.69959 5.23081 27
      vertex 2.34179 4.97655 27
    endloop
  endfacet
  facet normal 0.368118 0.929779 0
    outer loop
      vertex 1.69959 5.23081 27
      vertex 2.34179 4.97655 -27
      vertex 1.69959 5.23081 -27
    endloop
  endfacet
  facet normal 0.248693 0.968582 -0
    outer loop
      vertex 1.69959 5.23081 -27
      vertex 1.0306 5.40258 27
      vertex 1.69959 5.23081 27
    endloop
  endfacet
  facet normal 0.248693 0.968582 0
    outer loop
      vertex 1.0306 5.40258 27
      vertex 1.69959 5.23081 -27
      vertex 1.0306 5.40258 -27
    endloop
  endfacet
  facet normal 0.587788 0.809015 -0
    outer loop
      vertex 3.50583 4.23782 -27
      vertex 2.94705 4.6438 27
      vertex 3.50583 4.23782 27
    endloop
  endfacet
  facet normal 0.587788 0.809015 0
    outer loop
      vertex 2.94705 4.6438 27
      vertex 3.50583 4.23782 -27
      vertex 2.94705 4.6438 -27
    endloop
  endfacet
  facet normal -0.844326 0.53583 0
    outer loop
      vertex -4.81969 2.64964 -27
      vertex -4.44959 3.23282 27
      vertex -4.44959 3.23282 -27
    endloop
  endfacet
  facet normal -0.844326 0.53583 0
    outer loop
      vertex -4.44959 3.23282 27
      vertex -4.81969 2.64964 -27
      vertex -4.81969 2.64964 27
    endloop
  endfacet
  facet normal -0.770517 0.637419 0
    outer loop
      vertex -4.44959 3.23282 -27
      vertex -4.00933 3.76501 27
      vertex -4.00933 3.76501 -27
    endloop
  endfacet
  facet normal -0.770517 0.637419 0
    outer loop
      vertex -4.00933 3.76501 27
      vertex -4.44959 3.23282 -27
      vertex -4.44959 3.23282 27
    endloop
  endfacet
  facet normal -0.982288 0.187377 0
    outer loop
      vertex -5.45663 0.689332 -27
      vertex -5.32721 1.36779 27
      vertex -5.32721 1.36779 -27
    endloop
  endfacet
  facet normal -0.982288 0.187377 0
    outer loop
      vertex -5.32721 1.36779 27
      vertex -5.45663 0.689332 -27
      vertex -5.45663 0.689332 27
    endloop
  endfacet
  facet normal -0.587788 0.809015 0
    outer loop
      vertex -2.94705 4.6438 -27
      vertex -3.50583 4.23782 27
      vertex -2.94705 4.6438 27
    endloop
  endfacet
  facet normal -0.587788 0.809015 0
    outer loop
      vertex -3.50583 4.23782 27
      vertex -2.94705 4.6438 -27
      vertex -3.50583 4.23782 -27
    endloop
  endfacet
  facet normal -0.125337 0.992114 0
    outer loop
      vertex -0.345347 5.48915 -27
      vertex -1.0306 5.40258 27
      vertex -0.345347 5.48915 27
    endloop
  endfacet
  facet normal -0.125337 0.992114 0
    outer loop
      vertex -1.0306 5.40258 27
      vertex -0.345347 5.48915 -27
      vertex -1.0306 5.40258 -27
    endloop
  endfacet
  facet normal -0.248693 -0.968582 0
    outer loop
      vertex -1.69959 -5.23081 -27
      vertex -1.0306 -5.40258 27
      vertex -1.69959 -5.23081 27
    endloop
  endfacet
  facet normal -0.248693 -0.968582 -0
    outer loop
      vertex -1.0306 -5.40258 27
      vertex -1.69959 -5.23081 -27
      vertex -1.0306 -5.40258 -27
    endloop
  endfacet
  facet normal 0.125337 -0.992114 0
    outer loop
      vertex 0.345347 -5.48915 -27
      vertex 1.0306 -5.40258 27
      vertex 0.345347 -5.48915 27
    endloop
  endfacet
  facet normal 0.125337 -0.992114 0
    outer loop
      vertex 1.0306 -5.40258 27
      vertex 0.345347 -5.48915 -27
      vertex 1.0306 -5.40258 -27
    endloop
  endfacet
  facet normal 0.951055 0.309022 0
    outer loop
      vertex 5.32721 1.36779 27
      vertex 5.11377 2.02468 -27
      vertex 5.11377 2.02468 27
    endloop
  endfacet
  facet normal 0.951055 0.309022 0
    outer loop
      vertex 5.11377 2.02468 -27
      vertex 5.32721 1.36779 27
      vertex 5.32721 1.36779 -27
    endloop
  endfacet
  facet normal 0.982288 0.187377 0
    outer loop
      vertex 5.45663 0.689332 27
      vertex 5.32721 1.36779 -27
      vertex 5.32721 1.36779 27
    endloop
  endfacet
  facet normal 0.982288 0.187377 0
    outer loop
      vertex 5.32721 1.36779 -27
      vertex 5.45663 0.689332 27
      vertex 5.45663 0.689332 -27
    endloop
  endfacet
  facet normal 0.770517 0.637419 0
    outer loop
      vertex 4.44959 3.23282 27
      vertex 4.00933 3.76501 -27
      vertex 4.00933 3.76501 27
    endloop
  endfacet
  facet normal 0.770517 0.637419 0
    outer loop
      vertex 4.00933 3.76501 -27
      vertex 4.44959 3.23282 27
      vertex 4.44959 3.23282 -27
    endloop
  endfacet
  facet normal 0.844326 0.53583 0
    outer loop
      vertex 4.81969 2.64964 27
      vertex 4.44959 3.23282 -27
      vertex 4.44959 3.23282 27
    endloop
  endfacet
  facet normal 0.844326 0.53583 0
    outer loop
      vertex 4.44959 3.23282 -27
      vertex 4.81969 2.64964 27
      vertex 4.81969 2.64964 -27
    endloop
  endfacet
  facet normal 0.125337 0.992114 -0
    outer loop
      vertex 1.0306 5.40258 -27
      vertex 0.345347 5.48915 27
      vertex 1.0306 5.40258 27
    endloop
  endfacet
  facet normal 0.125337 0.992114 0
    outer loop
      vertex 0.345347 5.48915 27
      vertex 1.0306 5.40258 -27
      vertex 0.345347 5.48915 -27
    endloop
  endfacet
  facet normal 0.48176 0.876303 -0
    outer loop
      vertex 2.94705 4.6438 -27
      vertex 2.34179 4.97655 27
      vertex 2.94705 4.6438 27
    endloop
  endfacet
  facet normal 0.48176 0.876303 0
    outer loop
      vertex 2.34179 4.97655 27
      vertex 2.94705 4.6438 -27
      vertex 2.34179 4.97655 -27
    endloop
  endfacet
  facet normal -0.904829 0.425775 0
    outer loop
      vertex -5.11377 2.02468 -27
      vertex -4.81969 2.64964 27
      vertex -4.81969 2.64964 -27
    endloop
  endfacet
  facet normal -0.904829 0.425775 0
    outer loop
      vertex -4.81969 2.64964 27
      vertex -5.11377 2.02468 -27
      vertex -5.11377 2.02468 27
    endloop
  endfacet
  facet normal 0 0 1
    outer loop
      vertex 1.5 0 27
      vertex 5.5 0 27
      vertex 5.45663 0.689332 27
    endloop
  endfacet
  facet normal 0 0 1
    outer loop
      vertex 1.48817 0.188 27
      vertex 5.45663 0.689332 27
      vertex 5.32721 1.36779 27
    endloop
  endfacet
  facet normal 0 0 1
    outer loop
      vertex 5.5 0 27
      vertex 1.5 0 27
      vertex 5.45663 -0.689332 27
    endloop
  endfacet
  facet normal 0 0 1
    outer loop
      vertex 1.45287 0.373034 27
      vertex 5.32721 1.36779 27
      vertex 5.11377 2.02468 27
    endloop
  endfacet
  facet normal -0 0 1
    outer loop
      vertex 1.48817 -0.188 27
      vertex 5.45663 -0.689332 27
      vertex 1.5 0 27
    endloop
  endfacet
  facet normal 0 0 1
    outer loop
      vertex 1.39466 0.552186 27
      vertex 5.11377 2.02468 27
      vertex 4.81969 2.64964 27
    endloop
  endfacet
  facet normal 0 0 1
    outer loop
      vertex 5.45663 -0.689332 27
      vertex 1.48817 -0.188 27
      vertex 5.32721 -1.36779 27
    endloop
  endfacet
  facet normal 0 0 1
    outer loop
      vertex 1.31446 0.722631 27
      vertex 4.81969 2.64964 27
      vertex 4.44959 3.23282 27
    endloop
  endfacet
  facet normal -0 0 1
    outer loop
      vertex 1.45287 -0.373034 27
      vertex 5.32721 -1.36779 27
      vertex 1.48817 -0.188 27
    endloop
  endfacet
  facet normal 0 0 1
    outer loop
      vertex 1.21352 0.881678 27
      vertex 4.44959 3.23282 27
      vertex 4.00933 3.76501 27
    endloop
  endfacet
  facet normal 0 0 1
    outer loop
      vertex 5.32721 -1.36779 27
      vertex 1.45287 -0.373034 27
      vertex 5.11377 -2.02468 27
    endloop
  endfacet
  facet normal 0 0 1
    outer loop
      vertex 1.09345 1.02682 27
      vertex 4.00933 3.76501 27
      vertex 3.50583 4.23782 27
    endloop
  endfacet
  facet normal -0 0 1
    outer loop
      vertex 1.39466 -0.552186 27
      vertex 5.11377 -2.02468 27
      vertex 1.45287 -0.373034 27
    endloop
  endfacet
  facet normal 0 0 1
    outer loop
      vertex 0.956136 1.15577 27
      vertex 3.50583 4.23782 27
      vertex 2.94705 4.6438 27
    endloop
  endfacet
  facet normal 0 0 1
    outer loop
      vertex 5.11377 -2.02468 27
      vertex 1.39466 -0.552186 27
      vertex 4.81969 -2.64964 27
    endloop
  endfacet
  facet normal 0 0 1
    outer loop
      vertex 0.80374 1.26649 27
      vertex 2.94705 4.6438 27
      vertex 2.34179 4.97655 27
    endloop
  endfacet
  facet normal -0 0 1
    outer loop
      vertex 1.31446 -0.722631 27
      vertex 4.81969 -2.64964 27
      vertex 1.39466 -0.552186 27
    endloop
  endfacet
  facet normal 0 0 1
    outer loop
      vertex 0.638668 1.35724 27
      vertex 2.34179 4.97655 27
      vertex 1.69959 5.23081 27
    endloop
  endfacet
  facet normal 0 0 1
    outer loop
      vertex 4.81969 -2.64964 27
      vertex 1.31446 -0.722631 27
      vertex 4.44959 -3.23282 27
    endloop
  endfacet
  facet normal -0 0 1
    outer loop
      vertex 1.21352 -0.881678 27
      vertex 4.44959 -3.23282 27
      vertex 1.31446 -0.722631 27
    endloop
  endfacet
  facet normal 0 0 1
    outer loop
      vertex 5.45663 0.689332 27
      vertex 1.48817 0.188 27
      vertex 1.5 0 27
    endloop
  endfacet
  facet normal 0 0 1
    outer loop
      vertex 5.32721 1.36779 27
      vertex 1.45287 0.373034 27
      vertex 1.48817 0.188 27
    endloop
  endfacet
  facet normal 0 0 1
    outer loop
      vertex 5.11377 2.02468 27
      vertex 1.39466 0.552186 27
      vertex 1.45287 0.373034 27
    endloop
  endfacet
  facet normal 0 0 1
    outer loop
      vertex 4.81969 2.64964 27
      vertex 1.31446 0.722631 27
      vertex 1.39466 0.552186 27
    endloop
  endfacet
  facet normal 0 0 1
    outer loop
      vertex 4.44959 3.23282 27
      vertex 1.21352 0.881678 27
      vertex 1.31446 0.722631 27
    endloop
  endfacet
  facet normal 0 0 1
    outer loop
      vertex 4.00933 3.76501 27
      vertex 1.09345 1.02682 27
      vertex 1.21352 0.881678 27
    endloop
  endfacet
  facet normal 0 0 1
    outer loop
      vertex 0.463525 1.42658 27
      vertex 1.69959 5.23081 27
      vertex 1.0306 5.40258 27
    endloop
  endfacet
  facet normal 0 0 1
    outer loop
      vertex 3.50583 4.23782 27
      vertex 0.956136 1.15577 27
      vertex 1.09345 1.02682 27
    endloop
  endfacet
  facet normal 0 0 1
    outer loop
      vertex 2.94705 4.6438 27
      vertex 0.80374 1.26649 27
      vertex 0.956136 1.15577 27
    endloop
  endfacet
  facet normal 0 0 1
    outer loop
      vertex 2.34179 4.97655 27
      vertex 0.638668 1.35724 27
      vertex 0.80374 1.26649 27
    endloop
  endfacet
  facet normal 0 0 1
    outer loop
      vertex 1.69959 5.23081 27
      vertex 0.463525 1.42658 27
      vertex 0.638668 1.35724 27
    endloop
  endfacet
  facet normal 0 0 1
    outer loop
      vertex 0.281072 1.47343 27
      vertex 1.0306 5.40258 27
      vertex 0.345347 5.48915 27
    endloop
  endfacet
  facet normal 0 0 1
    outer loop
      vertex 1.0306 5.40258 27
      vertex 0.281072 1.47343 27
      vertex 0.463525 1.42658 27
    endloop
  endfacet
  facet normal 0 0 1
    outer loop
      vertex 0.345347 5.48915 27
      vertex 0.0941849 1.49704 27
      vertex 0.281072 1.47343 27
    endloop
  endfacet
  facet normal 0 0 1
    outer loop
      vertex 0.345347 5.48915 27
      vertex -0.0941849 1.49704 27
      vertex 0.0941849 1.49704 27
    endloop
  endfacet
  facet normal -0 0 1
    outer loop
      vertex -0.345347 5.48915 27
      vertex -0.0941849 1.49704 27
      vertex 0.345347 5.48915 27
    endloop
  endfacet
  facet normal 0 0 1
    outer loop
      vertex -0.0941849 1.49704 27
      vertex -0.345347 5.48915 27
      vertex -0.281072 1.47343 27
    endloop
  endfacet
  facet normal -0 0 1
    outer loop
      vertex -1.0306 5.40258 27
      vertex -0.281072 1.47343 27
      vertex -0.345347 5.48915 27
    endloop
  endfacet
  facet normal 0 0 1
    outer loop
      vertex -0.281072 1.47343 27
      vertex -1.0306 5.40258 27
      vertex -0.463525 1.42658 27
    endloop
  endfacet
  facet normal -0 0 1
    outer loop
      vertex -1.69959 5.23081 27
      vertex -0.463525 1.42658 27
      vertex -1.0306 5.40258 27
    endloop
  endfacet
  facet normal 0 0 1
    outer loop
      vertex -0.463525 1.42658 27
      vertex -1.69959 5.23081 27
      vertex -0.638668 1.35724 27
    endloop
  endfacet
  facet normal -0 0 1
    outer loop
      vertex -2.34179 4.97655 27
      vertex -0.638668 1.35724 27
      vertex -1.69959 5.23081 27
    endloop
  endfacet
  facet normal 0 0 1
    outer loop
      vertex -0.638668 1.35724 27
      vertex -2.34179 4.97655 27
      vertex -0.80374 1.26649 27
    endloop
  endfacet
  facet normal -0 0 1
    outer loop
      vertex -2.94705 4.6438 27
      vertex -0.80374 1.26649 27
      vertex -2.34179 4.97655 27
    endloop
  endfacet
  facet normal 0 0 1
    outer loop
      vertex -0.80374 1.26649 27
      vertex -2.94705 4.6438 27
      vertex -0.956136 1.15577 27
    endloop
  endfacet
  facet normal -0 0 1
    outer loop
      vertex -3.50583 4.23782 27
      vertex -0.956136 1.15577 27
      vertex -2.94705 4.6438 27
    endloop
  endfacet
  facet normal 0 0 1
    outer loop
      vertex -0.956136 1.15577 27
      vertex -3.50583 4.23782 27
      vertex -1.09345 1.02682 27
    endloop
  endfacet
  facet normal -0 0 1
    outer loop
      vertex -4.00933 3.76501 27
      vertex -1.09345 1.02682 27
      vertex -3.50583 4.23782 27
    endloop
  endfacet
  facet normal -0 0 1
    outer loop
      vertex -4.44959 3.23282 27
      vertex -1.21352 0.881678 27
      vertex -4.00933 3.76501 27
    endloop
  endfacet
  facet normal 0 0 1
    outer loop
      vertex -1.09345 1.02682 27
      vertex -4.00933 3.76501 27
      vertex -1.21352 0.881678 27
    endloop
  endfacet
  facet normal 0 0 1
    outer loop
      vertex 4.44959 -3.23282 27
      vertex 1.21352 -0.881678 27
      vertex 4.00933 -3.76501 27
    endloop
  endfacet
  facet normal -0 0 1
    outer loop
      vertex 1.09345 -1.02682 27
      vertex 4.00933 -3.76501 27
      vertex 1.21352 -0.881678 27
    endloop
  endfacet
  facet normal 0 0 1
    outer loop
      vertex 4.00933 -3.76501 27
      vertex 1.09345 -1.02682 27
      vertex 3.50583 -4.23782 27
    endloop
  endfacet
  facet normal -0 0 1
    outer loop
      vertex 0.956136 -1.15577 27
      vertex 3.50583 -4.23782 27
      vertex 1.09345 -1.02682 27
    endloop
  endfacet
  facet normal 0 0 1
    outer loop
      vertex 3.50583 -4.23782 27
      vertex 0.956136 -1.15577 27
      vertex 2.94705 -4.6438 27
    endloop
  endfacet
  facet normal -0 0 1
    outer loop
      vertex 0.80374 -1.26649 27
      vertex 2.94705 -4.6438 27
      vertex 0.956136 -1.15577 27
    endloop
  endfacet
  facet normal 0 0 1
    outer loop
      vertex 2.94705 -4.6438 27
      vertex 0.80374 -1.26649 27
      vertex 2.34179 -4.97655 27
    endloop
  endfacet
  facet normal -0 0 1
    outer loop
      vertex 0.638668 -1.35724 27
      vertex 2.34179 -4.97655 27
      vertex 0.80374 -1.26649 27
    endloop
  endfacet
  facet normal 0 0 1
    outer loop
      vertex 2.34179 -4.97655 27
      vertex 0.638668 -1.35724 27
      vertex 1.69959 -5.23081 27
    endloop
  endfacet
  facet normal -0 0 1
    outer loop
      vertex 0.463525 -1.42658 27
      vertex 1.69959 -5.23081 27
      vertex 0.638668 -1.35724 27
    endloop
  endfacet
  facet normal 0 0 1
    outer loop
      vertex 1.69959 -5.23081 27
      vertex 0.463525 -1.42658 27
      vertex 1.0306 -5.40258 27
    endloop
  endfacet
  facet normal -0 0 1
    outer loop
      vertex 0.281072 -1.47343 27
      vertex 1.0306 -5.40258 27
      vertex 0.463525 -1.42658 27
    endloop
  endfacet
  facet normal 0 0 1
    outer loop
      vertex 1.0306 -5.40258 27
      vertex 0.281072 -1.47343 27
      vertex 0.345347 -5.48915 27
    endloop
  endfacet
  facet normal -0 0 1
    outer loop
      vertex 0.0941849 -1.49704 27
      vertex 0.345347 -5.48915 27
      vertex 0.281072 -1.47343 27
    endloop
  endfacet
  facet normal -0 0 1
    outer loop
      vertex -0.0941849 -1.49704 27
      vertex 0.345347 -5.48915 27
      vertex 0.0941849 -1.49704 27
    endloop
  endfacet
  facet normal 0 0 1
    outer loop
      vertex -0.345347 -5.48915 27
      vertex -0.0941849 -1.49704 27
      vertex -0.281072 -1.47343 27
    endloop
  endfacet
  facet normal 0 0 1
    outer loop
      vertex -0.0941849 -1.49704 27
      vertex -0.345347 -5.48915 27
      vertex 0.345347 -5.48915 27
    endloop
  endfacet
  facet normal 0 0 1
    outer loop
      vertex -1.0306 -5.40258 27
      vertex -0.281072 -1.47343 27
      vertex -0.463525 -1.42658 27
    endloop
  endfacet
  facet normal 0 0 1
    outer loop
      vertex -1.69959 -5.23081 27
      vertex -0.463525 -1.42658 27
      vertex -0.638668 -1.35724 27
    endloop
  endfacet
  facet normal 0 0 1
    outer loop
      vertex -2.34179 -4.97655 27
      vertex -0.638668 -1.35724 27
      vertex -0.80374 -1.26649 27
    endloop
  endfacet
  facet normal 0 0 1
    outer loop
      vertex -2.94705 -4.6438 27
      vertex -0.80374 -1.26649 27
      vertex -0.956136 -1.15577 27
    endloop
  endfacet
  facet normal 0 0 1
    outer loop
      vertex -0.281072 -1.47343 27
      vertex -1.0306 -5.40258 27
      vertex -0.345347 -5.48915 27
    endloop
  endfacet
  facet normal 0 0 1
    outer loop
      vertex -3.50583 -4.23782 27
      vertex -0.956136 -1.15577 27
      vertex -1.09345 -1.02682 27
    endloop
  endfacet
  facet normal 0 0 1
    outer loop
      vertex -4.00933 -3.76501 27
      vertex -1.09345 -1.02682 27
      vertex -1.21352 -0.881678 27
    endloop
  endfacet
  facet normal 0 0 1
    outer loop
      vertex -4.44959 -3.23282 27
      vertex -1.21352 -0.881678 27
      vertex -1.31446 -0.722631 27
    endloop
  endfacet
  facet normal 0 0 1
    outer loop
      vertex -4.81969 -2.64964 27
      vertex -1.31446 -0.722631 27
      vertex -1.39466 -0.552186 27
    endloop
  endfacet
  facet normal 0 0 1
    outer loop
      vertex -5.11377 -2.02468 27
      vertex -1.39466 -0.552186 27
      vertex -1.45287 -0.373034 27
    endloop
  endfacet
  facet normal 0 0 1
    outer loop
      vertex -5.32721 -1.36779 27
      vertex -1.45287 -0.373034 27
      vertex -1.48817 -0.188 27
    endloop
  endfacet
  facet normal 0 0 1
    outer loop
      vertex -0.463525 -1.42658 27
      vertex -1.69959 -5.23081 27
      vertex -1.0306 -5.40258 27
    endloop
  endfacet
  facet normal 0 0 1
    outer loop
      vertex -5.45663 -0.689332 27
      vertex -1.48817 -0.188 27
      vertex -1.5 0 27
    endloop
  endfacet
  facet normal 0 0 1
    outer loop
      vertex -1.21352 0.881678 27
      vertex -4.44959 3.23282 27
      vertex -1.31446 0.722631 27
    endloop
  endfacet
  facet normal -0 0 1
    outer loop
      vertex -4.81969 2.64964 27
      vertex -1.31446 0.722631 27
      vertex -4.44959 3.23282 27
    endloop
  endfacet
  facet normal 0 0 1
    outer loop
      vertex -0.638668 -1.35724 27
      vertex -2.34179 -4.97655 27
      vertex -1.69959 -5.23081 27
    endloop
  endfacet
  facet normal 0 0 1
    outer loop
      vertex -1.31446 0.722631 27
      vertex -4.81969 2.64964 27
      vertex -1.39466 0.552186 27
    endloop
  endfacet
  facet normal 0 0 1
    outer loop
      vertex -0.80374 -1.26649 27
      vertex -2.94705 -4.6438 27
      vertex -2.34179 -4.97655 27
    endloop
  endfacet
  facet normal -0 0 1
    outer loop
      vertex -5.11377 2.02468 27
      vertex -1.39466 0.552186 27
      vertex -4.81969 2.64964 27
    endloop
  endfacet
  facet normal 0 0 1
    outer loop
      vertex -0.956136 -1.15577 27
      vertex -3.50583 -4.23782 27
      vertex -2.94705 -4.6438 27
    endloop
  endfacet
  facet normal 0 0 1
    outer loop
      vertex -1.39466 0.552186 27
      vertex -5.11377 2.02468 27
      vertex -1.45287 0.373034 27
    endloop
  endfacet
  facet normal 0 0 1
    outer loop
      vertex -1.09345 -1.02682 27
      vertex -4.00933 -3.76501 27
      vertex -3.50583 -4.23782 27
    endloop
  endfacet
  facet normal -0 0 1
    outer loop
      vertex -5.32721 1.36779 27
      vertex -1.45287 0.373034 27
      vertex -5.11377 2.02468 27
    endloop
  endfacet
  facet normal 0 0 1
    outer loop
      vertex -1.21352 -0.881678 27
      vertex -4.44959 -3.23282 27
      vertex -4.00933 -3.76501 27
    endloop
  endfacet
  facet normal 0 0 1
    outer loop
      vertex -1.45287 0.373034 27
      vertex -5.32721 1.36779 27
      vertex -1.48817 0.188 27
    endloop
  endfacet
  facet normal 0 0 1
    outer loop
      vertex -1.31446 -0.722631 27
      vertex -4.81969 -2.64964 27
      vertex -4.44959 -3.23282 27
    endloop
  endfacet
  facet normal -0 0 1
    outer loop
      vertex -5.45663 0.689332 27
      vertex -1.48817 0.188 27
      vertex -5.32721 1.36779 27
    endloop
  endfacet
  facet normal 0 0 1
    outer loop
      vertex -1.39466 -0.552186 27
      vertex -5.11377 -2.02468 27
      vertex -4.81969 -2.64964 27
    endloop
  endfacet
  facet normal 0 0 1
    outer loop
      vertex -1.48817 0.188 27
      vertex -5.45663 0.689332 27
      vertex -1.5 0 27
    endloop
  endfacet
  facet normal 0 0 1
    outer loop
      vertex -1.45287 -0.373034 27
      vertex -5.32721 -1.36779 27
      vertex -5.11377 -2.02468 27
    endloop
  endfacet
  facet normal 0 0 1
    outer loop
      vertex -5.5 0 27
      vertex -1.5 0 27
      vertex -5.45663 0.689332 27
    endloop
  endfacet
  facet normal 0 0 1
    outer loop
      vertex -1.48817 -0.188 27
      vertex -5.45663 -0.689332 27
      vertex -5.32721 -1.36779 27
    endloop
  endfacet
  facet normal 0 0 1
    outer loop
      vertex -1.5 0 27
      vertex -5.5 0 27
      vertex -5.45663 -0.689332 27
    endloop
  endfacet
  facet normal 0.998027 -0.0627918 0
    outer loop
      vertex 5.45663 -0.689332 27
      vertex 5.5 0 -27
      vertex 5.5 0 27
    endloop
  endfacet
  facet normal 0.998027 -0.0627918 0
    outer loop
      vertex 5.5 0 -27
      vertex 5.45663 -0.689332 27
      vertex 5.45663 -0.689332 -27
    endloop
  endfacet
  facet normal 0.770517 -0.637419 0
    outer loop
      vertex 4.00933 -3.76501 27
      vertex 4.44959 -3.23282 -27
      vertex 4.44959 -3.23282 27
    endloop
  endfacet
  facet normal 0.770517 -0.637419 0
    outer loop
      vertex 4.44959 -3.23282 -27
      vertex 4.00933 -3.76501 27
      vertex 4.00933 -3.76501 -27
    endloop
  endfacet
  facet normal -0.125337 -0.992114 0
    outer loop
      vertex -1.0306 -5.40258 -27
      vertex -0.345347 -5.48915 27
      vertex -1.0306 -5.40258 27
    endloop
  endfacet
  facet normal -0.125337 -0.992114 -0
    outer loop
      vertex -0.345347 -5.48915 27
      vertex -1.0306 -5.40258 -27
      vertex -0.345347 -5.48915 -27
    endloop
  endfacet
  facet normal -0.998027 -0.0627918 0
    outer loop
      vertex -5.45663 -0.689332 -27
      vertex -5.5 0 27
      vertex -5.5 0 -27
    endloop
  endfacet
  facet normal -0.998027 -0.0627918 0
    outer loop
      vertex -5.5 0 27
      vertex -5.45663 -0.689332 -27
      vertex -5.45663 -0.689332 27
    endloop
  endfacet
  facet normal -0.951055 -0.309022 0
    outer loop
      vertex -5.11377 -2.02468 -27
      vertex -5.32721 -1.36779 27
      vertex -5.32721 -1.36779 -27
    endloop
  endfacet
  facet normal -0.951055 -0.309022 0
    outer loop
      vertex -5.32721 -1.36779 27
      vertex -5.11377 -2.02468 -27
      vertex -5.11377 -2.02468 27
    endloop
  endfacet
  facet normal 0.368118 -0.929779 0
    outer loop
      vertex 1.69959 -5.23081 -27
      vertex 2.34179 -4.97655 27
      vertex 1.69959 -5.23081 27
    endloop
  endfacet
  facet normal 0.368118 -0.929779 0
    outer loop
      vertex 2.34179 -4.97655 27
      vertex 1.69959 -5.23081 -27
      vertex 2.34179 -4.97655 -27
    endloop
  endfacet
  facet normal 0.248693 -0.968582 0
    outer loop
      vertex 1.0306 -5.40258 -27
      vertex 1.69959 -5.23081 27
      vertex 1.0306 -5.40258 27
    endloop
  endfacet
  facet normal 0.248693 -0.968582 0
    outer loop
      vertex 1.69959 -5.23081 27
      vertex 1.0306 -5.40258 -27
      vertex 1.69959 -5.23081 -27
    endloop
  endfacet
  facet normal -0.951055 0.309022 0
    outer loop
      vertex -5.32721 1.36779 -27
      vertex -5.11377 2.02468 27
      vertex -5.11377 2.02468 -27
    endloop
  endfacet
  facet normal -0.951055 0.309022 0
    outer loop
      vertex -5.11377 2.02468 27
      vertex -5.32721 1.36779 -27
      vertex -5.32721 1.36779 27
    endloop
  endfacet
  facet normal -0.48176 0.876303 0
    outer loop
      vertex -2.34179 4.97655 -27
      vertex -2.94705 4.6438 27
      vertex -2.34179 4.97655 27
    endloop
  endfacet
  facet normal -0.48176 0.876303 0
    outer loop
      vertex -2.94705 4.6438 27
      vertex -2.34179 4.97655 -27
      vertex -2.94705 4.6438 -27
    endloop
  endfacet
  facet normal -0.248693 0.968582 0
    outer loop
      vertex -1.0306 5.40258 -27
      vertex -1.69959 5.23081 27
      vertex -1.0306 5.40258 27
    endloop
  endfacet
  facet normal -0.248693 0.968582 0
    outer loop
      vertex -1.69959 5.23081 27
      vertex -1.0306 5.40258 -27
      vertex -1.69959 5.23081 -27
    endloop
  endfacet
  facet normal 0.951055 -0.309022 0
    outer loop
      vertex 5.11377 -2.02468 27
      vertex 5.32721 -1.36779 -27
      vertex 5.32721 -1.36779 27
    endloop
  endfacet
  facet normal 0.951055 -0.309022 0
    outer loop
      vertex 5.32721 -1.36779 -27
      vertex 5.11377 -2.02468 27
      vertex 5.11377 -2.02468 -27
    endloop
  endfacet
  facet normal 0.982288 -0.187377 0
    outer loop
      vertex 5.32721 -1.36779 27
      vertex 5.45663 -0.689332 -27
      vertex 5.45663 -0.689332 27
    endloop
  endfacet
  facet normal 0.982288 -0.187377 0
    outer loop
      vertex 5.45663 -0.689332 -27
      vertex 5.32721 -1.36779 27
      vertex 5.32721 -1.36779 -27
    endloop
  endfacet
  facet normal 0.844326 -0.53583 0
    outer loop
      vertex 4.44959 -3.23282 27
      vertex 4.81969 -2.64964 -27
      vertex 4.81969 -2.64964 27
    endloop
  endfacet
  facet normal 0.844326 -0.53583 0
    outer loop
      vertex 4.81969 -2.64964 -27
      vertex 4.44959 -3.23282 27
      vertex 4.44959 -3.23282 -27
    endloop
  endfacet
  facet normal 0.48176 -0.876303 0
    outer loop
      vertex 2.34179 -4.97655 -27
      vertex 2.94705 -4.6438 27
      vertex 2.34179 -4.97655 27
    endloop
  endfacet
  facet normal 0.48176 -0.876303 0
    outer loop
      vertex 2.94705 -4.6438 27
      vertex 2.34179 -4.97655 -27
      vertex 2.94705 -4.6438 -27
    endloop
  endfacet
  facet normal 0.684541 -0.728974 0
    outer loop
      vertex 3.50583 -4.23782 -27
      vertex 4.00933 -3.76501 27
      vertex 3.50583 -4.23782 27
    endloop
  endfacet
  facet normal 0.684541 -0.728974 0
    outer loop
      vertex 4.00933 -3.76501 27
      vertex 3.50583 -4.23782 -27
      vertex 4.00933 -3.76501 -27
    endloop
  endfacet
  facet normal 0.904829 -0.425775 0
    outer loop
      vertex 4.81969 -2.64964 27
      vertex 5.11377 -2.02468 -27
      vertex 5.11377 -2.02468 27
    endloop
  endfacet
  facet normal 0.904829 -0.425775 0
    outer loop
      vertex 5.11377 -2.02468 -27
      vertex 4.81969 -2.64964 27
      vertex 4.81969 -2.64964 -27
    endloop
  endfacet
  facet normal -0.368118 -0.929779 0
    outer loop
      vertex -2.34179 -4.97655 -27
      vertex -1.69959 -5.23081 27
      vertex -2.34179 -4.97655 27
    endloop
  endfacet
  facet normal -0.368118 -0.929779 -0
    outer loop
      vertex -1.69959 -5.23081 27
      vertex -2.34179 -4.97655 -27
      vertex -1.69959 -5.23081 -27
    endloop
  endfacet
  facet normal -0.770517 -0.637419 0
    outer loop
      vertex -4.00933 -3.76501 -27
      vertex -4.44959 -3.23282 27
      vertex -4.44959 -3.23282 -27
    endloop
  endfacet
  facet normal -0.770517 -0.637419 0
    outer loop
      vertex -4.44959 -3.23282 27
      vertex -4.00933 -3.76501 -27
      vertex -4.00933 -3.76501 27
    endloop
  endfacet
  facet normal -0.982288 -0.187377 0
    outer loop
      vertex -5.32721 -1.36779 -27
      vertex -5.45663 -0.689332 27
      vertex -5.45663 -0.689332 -27
    endloop
  endfacet
  facet normal -0.982288 -0.187377 0
    outer loop
      vertex -5.45663 -0.689332 27
      vertex -5.32721 -1.36779 -27
      vertex -5.32721 -1.36779 27
    endloop
  endfacet
  facet normal 0 0 -1
    outer loop
      vertex 1.5 0 -27
      vertex 5.5 0 -27
      vertex 5.45663 -0.689332 -27
    endloop
  endfacet
  facet normal 0 0 -1
    outer loop
      vertex 1.48817 -0.188 -27
      vertex 5.45663 -0.689332 -27
      vertex 5.32721 -1.36779 -27
    endloop
  endfacet
  facet normal 0 0 -1
    outer loop
      vertex 5.5 0 -27
      vertex 1.5 0 -27
      vertex 5.45663 0.689332 -27
    endloop
  endfacet
  facet normal 0 0 -1
    outer loop
      vertex 1.45287 -0.373034 -27
      vertex 5.32721 -1.36779 -27
      vertex 5.11377 -2.02468 -27
    endloop
  endfacet
  facet normal 0 0 -1
    outer loop
      vertex 1.48817 0.188 -27
      vertex 5.45663 0.689332 -27
      vertex 1.5 0 -27
    endloop
  endfacet
  facet normal 0 0 -1
    outer loop
      vertex 1.39466 -0.552186 -27
      vertex 5.11377 -2.02468 -27
      vertex 4.81969 -2.64964 -27
    endloop
  endfacet
  facet normal -0 0 -1
    outer loop
      vertex 5.45663 0.689332 -27
      vertex 1.48817 0.188 -27
      vertex 5.32721 1.36779 -27
    endloop
  endfacet
  facet normal 0 0 -1
    outer loop
      vertex 1.31446 -0.722631 -27
      vertex 4.81969 -2.64964 -27
      vertex 4.44959 -3.23282 -27
    endloop
  endfacet
  facet normal 0 0 -1
    outer loop
      vertex 1.45287 0.373034 -27
      vertex 5.32721 1.36779 -27
      vertex 1.48817 0.188 -27
    endloop
  endfacet
  facet normal 0 0 -1
    outer loop
      vertex 1.21352 -0.881678 -27
      vertex 4.44959 -3.23282 -27
      vertex 4.00933 -3.76501 -27
    endloop
  endfacet
  facet normal -0 0 -1
    outer loop
      vertex 5.32721 1.36779 -27
      vertex 1.45287 0.373034 -27
      vertex 5.11377 2.02468 -27
    endloop
  endfacet
  facet normal 0 0 -1
    outer loop
      vertex 1.09345 -1.02682 -27
      vertex 4.00933 -3.76501 -27
      vertex 3.50583 -4.23782 -27
    endloop
  endfacet
  facet normal 0 0 -1
    outer loop
      vertex 1.39466 0.552186 -27
      vertex 5.11377 2.02468 -27
      vertex 1.45287 0.373034 -27
    endloop
  endfacet
  facet normal 0 0 -1
    outer loop
      vertex 0.956136 -1.15577 -27
      vertex 3.50583 -4.23782 -27
      vertex 2.94705 -4.6438 -27
    endloop
  endfacet
  facet normal -0 0 -1
    outer loop
      vertex 5.11377 2.02468 -27
      vertex 1.39466 0.552186 -27
      vertex 4.81969 2.64964 -27
    endloop
  endfacet
  facet normal 0 0 -1
    outer loop
      vertex 0.80374 -1.26649 -27
      vertex 2.94705 -4.6438 -27
      vertex 2.34179 -4.97655 -27
    endloop
  endfacet
  facet normal 0 0 -1
    outer loop
      vertex 1.31446 0.722631 -27
      vertex 4.81969 2.64964 -27
      vertex 1.39466 0.552186 -27
    endloop
  endfacet
  facet normal 0 0 -1
    outer loop
      vertex 0.638668 -1.35724 -27
      vertex 2.34179 -4.97655 -27
      vertex 1.69959 -5.23081 -27
    endloop
  endfacet
  facet normal -0 0 -1
    outer loop
      vertex 4.81969 2.64964 -27
      vertex 1.31446 0.722631 -27
      vertex 4.44959 3.23282 -27
    endloop
  endfacet
  facet normal 0 0 -1
    outer loop
      vertex 1.21352 0.881678 -27
      vertex 4.44959 3.23282 -27
      vertex 1.31446 0.722631 -27
    endloop
  endfacet
  facet normal 0 0 -1
    outer loop
      vertex 5.45663 -0.689332 -27
      vertex 1.48817 -0.188 -27
      vertex 1.5 0 -27
    endloop
  endfacet
  facet normal 0 0 -1
    outer loop
      vertex 5.32721 -1.36779 -27
      vertex 1.45287 -0.373034 -27
      vertex 1.48817 -0.188 -27
    endloop
  endfacet
  facet normal 0 0 -1
    outer loop
      vertex 5.11377 -2.02468 -27
      vertex 1.39466 -0.552186 -27
      vertex 1.45287 -0.373034 -27
    endloop
  endfacet
  facet normal 0 0 -1
    outer loop
      vertex 4.81969 -2.64964 -27
      vertex 1.31446 -0.722631 -27
      vertex 1.39466 -0.552186 -27
    endloop
  endfacet
  facet normal 0 0 -1
    outer loop
      vertex 4.44959 -3.23282 -27
      vertex 1.21352 -0.881678 -27
      vertex 1.31446 -0.722631 -27
    endloop
  endfacet
  facet normal 0 0 -1
    outer loop
      vertex 4.00933 -3.76501 -27
      vertex 1.09345 -1.02682 -27
      vertex 1.21352 -0.881678 -27
    endloop
  endfacet
  facet normal 0 0 -1
    outer loop
      vertex 0.463525 -1.42658 -27
      vertex 1.69959 -5.23081 -27
      vertex 1.0306 -5.40258 -27
    endloop
  endfacet
  facet normal 0 0 -1
    outer loop
      vertex 3.50583 -4.23782 -27
      vertex 0.956136 -1.15577 -27
      vertex 1.09345 -1.02682 -27
    endloop
  endfacet
  facet normal 0 0 -1
    outer loop
      vertex 2.94705 -4.6438 -27
      vertex 0.80374 -1.26649 -27
      vertex 0.956136 -1.15577 -27
    endloop
  endfacet
  facet normal 0 0 -1
    outer loop
      vertex 2.34179 -4.97655 -27
      vertex 0.638668 -1.35724 -27
      vertex 0.80374 -1.26649 -27
    endloop
  endfacet
  facet normal 0 0 -1
    outer loop
      vertex 1.69959 -5.23081 -27
      vertex 0.463525 -1.42658 -27
      vertex 0.638668 -1.35724 -27
    endloop
  endfacet
  facet normal 0 0 -1
    outer loop
      vertex 0.281072 -1.47343 -27
      vertex 1.0306 -5.40258 -27
      vertex 0.345347 -5.48915 -27
    endloop
  endfacet
  facet normal 0 0 -1
    outer loop
      vertex 1.0306 -5.40258 -27
      vertex 0.281072 -1.47343 -27
      vertex 0.463525 -1.42658 -27
    endloop
  endfacet
  facet normal 0 0 -1
    outer loop
      vertex 0.345347 -5.48915 -27
      vertex 0.0941849 -1.49704 -27
      vertex 0.281072 -1.47343 -27
    endloop
  endfacet
  facet normal 0 0 -1
    outer loop
      vertex 0.345347 -5.48915 -27
      vertex -0.0941849 -1.49704 -27
      vertex 0.0941849 -1.49704 -27
    endloop
  endfacet
  facet normal 0 0 -1
    outer loop
      vertex -0.345347 -5.48915 -27
      vertex -0.0941849 -1.49704 -27
      vertex 0.345347 -5.48915 -27
    endloop
  endfacet
  facet normal -0 0 -1
    outer loop
      vertex -0.0941849 -1.49704 -27
      vertex -0.345347 -5.48915 -27
      vertex -0.281072 -1.47343 -27
    endloop
  endfacet
  facet normal 0 0 -1
    outer loop
      vertex -1.0306 -5.40258 -27
      vertex -0.281072 -1.47343 -27
      vertex -0.345347 -5.48915 -27
    endloop
  endfacet
  facet normal -0 0 -1
    outer loop
      vertex -0.281072 -1.47343 -27
      vertex -1.0306 -5.40258 -27
      vertex -0.463525 -1.42658 -27
    endloop
  endfacet
  facet normal 0 0 -1
    outer loop
      vertex -1.69959 -5.23081 -27
      vertex -0.463525 -1.42658 -27
      vertex -1.0306 -5.40258 -27
    endloop
  endfacet
  facet normal -0 0 -1
    outer loop
      vertex -0.463525 -1.42658 -27
      vertex -1.69959 -5.23081 -27
      vertex -0.638668 -1.35724 -27
    endloop
  endfacet
  facet normal 0 0 -1
    outer loop
      vertex -2.34179 -4.97655 -27
      vertex -0.638668 -1.35724 -27
      vertex -1.69959 -5.23081 -27
    endloop
  endfacet
  facet normal -0 0 -1
    outer loop
      vertex -0.638668 -1.35724 -27
      vertex -2.34179 -4.97655 -27
      vertex -0.80374 -1.26649 -27
    endloop
  endfacet
  facet normal 0 0 -1
    outer loop
      vertex -2.94705 -4.6438 -27
      vertex -0.80374 -1.26649 -27
      vertex -2.34179 -4.97655 -27
    endloop
  endfacet
  facet normal -0 0 -1
    outer loop
      vertex -0.80374 -1.26649 -27
      vertex -2.94705 -4.6438 -27
      vertex -0.956136 -1.15577 -27
    endloop
  endfacet
  facet normal 0 0 -1
    outer loop
      vertex -3.50583 -4.23782 -27
      vertex -0.956136 -1.15577 -27
      vertex -2.94705 -4.6438 -27
    endloop
  endfacet
  facet normal -0 0 -1
    outer loop
      vertex -0.956136 -1.15577 -27
      vertex -3.50583 -4.23782 -27
      vertex -1.09345 -1.02682 -27
    endloop
  endfacet
  facet normal 0 0 -1
    outer loop
      vertex -4.00933 -3.76501 -27
      vertex -1.09345 -1.02682 -27
      vertex -3.50583 -4.23782 -27
    endloop
  endfacet
  facet normal 0 0 -1
    outer loop
      vertex -4.44959 -3.23282 -27
      vertex -1.21352 -0.881678 -27
      vertex -4.00933 -3.76501 -27
    endloop
  endfacet
  facet normal -0 0 -1
    outer loop
      vertex -1.09345 -1.02682 -27
      vertex -4.00933 -3.76501 -27
      vertex -1.21352 -0.881678 -27
    endloop
  endfacet
  facet normal -0 0 -1
    outer loop
      vertex 4.44959 3.23282 -27
      vertex 1.21352 0.881678 -27
      vertex 4.00933 3.76501 -27
    endloop
  endfacet
  facet normal 0 0 -1
    outer loop
      vertex 1.09345 1.02682 -27
      vertex 4.00933 3.76501 -27
      vertex 1.21352 0.881678 -27
    endloop
  endfacet
  facet normal -0 0 -1
    outer loop
      vertex 4.00933 3.76501 -27
      vertex 1.09345 1.02682 -27
      vertex 3.50583 4.23782 -27
    endloop
  endfacet
  facet normal 0 0 -1
    outer loop
      vertex 0.956136 1.15577 -27
      vertex 3.50583 4.23782 -27
      vertex 1.09345 1.02682 -27
    endloop
  endfacet
  facet normal -0 0 -1
    outer loop
      vertex 3.50583 4.23782 -27
      vertex 0.956136 1.15577 -27
      vertex 2.94705 4.6438 -27
    endloop
  endfacet
  facet normal 0 0 -1
    outer loop
      vertex 0.80374 1.26649 -27
      vertex 2.94705 4.6438 -27
      vertex 0.956136 1.15577 -27
    endloop
  endfacet
  facet normal -0 0 -1
    outer loop
      vertex 2.94705 4.6438 -27
      vertex 0.80374 1.26649 -27
      vertex 2.34179 4.97655 -27
    endloop
  endfacet
  facet normal 0 0 -1
    outer loop
      vertex 0.638668 1.35724 -27
      vertex 2.34179 4.97655 -27
      vertex 0.80374 1.26649 -27
    endloop
  endfacet
  facet normal -0 0 -1
    outer loop
      vertex 2.34179 4.97655 -27
      vertex 0.638668 1.35724 -27
      vertex 1.69959 5.23081 -27
    endloop
  endfacet
  facet normal 0 0 -1
    outer loop
      vertex 0.463525 1.42658 -27
      vertex 1.69959 5.23081 -27
      vertex 0.638668 1.35724 -27
    endloop
  endfacet
  facet normal -0 0 -1
    outer loop
      vertex 1.69959 5.23081 -27
      vertex 0.463525 1.42658 -27
      vertex 1.0306 5.40258 -27
    endloop
  endfacet
  facet normal 0 0 -1
    outer loop
      vertex 0.281072 1.47343 -27
      vertex 1.0306 5.40258 -27
      vertex 0.463525 1.42658 -27
    endloop
  endfacet
  facet normal -0 0 -1
    outer loop
      vertex 1.0306 5.40258 -27
      vertex 0.281072 1.47343 -27
      vertex 0.345347 5.48915 -27
    endloop
  endfacet
  facet normal 0 0 -1
    outer loop
      vertex 0.0941849 1.49704 -27
      vertex 0.345347 5.48915 -27
      vertex 0.281072 1.47343 -27
    endloop
  endfacet
  facet normal 0 0 -1
    outer loop
      vertex -0.0941849 1.49704 -27
      vertex 0.345347 5.48915 -27
      vertex 0.0941849 1.49704 -27
    endloop
  endfacet
  facet normal 0 0 -1
    outer loop
      vertex -0.345347 5.48915 -27
      vertex -0.0941849 1.49704 -27
      vertex -0.281072 1.47343 -27
    endloop
  endfacet
  facet normal 0 0 -1
    outer loop
      vertex -0.0941849 1.49704 -27
      vertex -0.345347 5.48915 -27
      vertex 0.345347 5.48915 -27
    endloop
  endfacet
  facet normal 0 0 -1
    outer loop
      vertex -1.0306 5.40258 -27
      vertex -0.281072 1.47343 -27
      vertex -0.463525 1.42658 -27
    endloop
  endfacet
  facet normal 0 0 -1
    outer loop
      vertex -1.69959 5.23081 -27
      vertex -0.463525 1.42658 -27
      vertex -0.638668 1.35724 -27
    endloop
  endfacet
  facet normal 0 0 -1
    outer loop
      vertex -2.34179 4.97655 -27
      vertex -0.638668 1.35724 -27
      vertex -0.80374 1.26649 -27
    endloop
  endfacet
  facet normal 0 0 -1
    outer loop
      vertex -2.94705 4.6438 -27
      vertex -0.80374 1.26649 -27
      vertex -0.956136 1.15577 -27
    endloop
  endfacet
  facet normal 0 0 -1
    outer loop
      vertex -0.281072 1.47343 -27
      vertex -1.0306 5.40258 -27
      vertex -0.345347 5.48915 -27
    endloop
  endfacet
  facet normal 0 0 -1
    outer loop
      vertex -3.50583 4.23782 -27
      vertex -0.956136 1.15577 -27
      vertex -1.09345 1.02682 -27
    endloop
  endfacet
  facet normal 0 0 -1
    outer loop
      vertex -4.00933 3.76501 -27
      vertex -1.09345 1.02682 -27
      vertex -1.21352 0.881678 -27
    endloop
  endfacet
  facet normal 0 0 -1
    outer loop
      vertex -4.44959 3.23282 -27
      vertex -1.21352 0.881678 -27
      vertex -1.31446 0.722631 -27
    endloop
  endfacet
  facet normal 0 0 -1
    outer loop
      vertex -4.81969 2.64964 -27
      vertex -1.31446 0.722631 -27
      vertex -1.39466 0.552186 -27
    endloop
  endfacet
  facet normal 0 0 -1
    outer loop
      vertex -5.11377 2.02468 -27
      vertex -1.39466 0.552186 -27
      vertex -1.45287 0.373034 -27
    endloop
  endfacet
  facet normal 0 0 -1
    outer loop
      vertex -5.32721 1.36779 -27
      vertex -1.45287 0.373034 -27
      vertex -1.48817 0.188 -27
    endloop
  endfacet
  facet normal 0 0 -1
    outer loop
      vertex -0.463525 1.42658 -27
      vertex -1.69959 5.23081 -27
      vertex -1.0306 5.40258 -27
    endloop
  endfacet
  facet normal 0 0 -1
    outer loop
      vertex -5.45663 0.689332 -27
      vertex -1.48817 0.188 -27
      vertex -1.5 0 -27
    endloop
  endfacet
  facet normal -0 0 -1
    outer loop
      vertex -1.21352 -0.881678 -27
      vertex -4.44959 -3.23282 -27
      vertex -1.31446 -0.722631 -27
    endloop
  endfacet
  facet normal 0 0 -1
    outer loop
      vertex -4.81969 -2.64964 -27
      vertex -1.31446 -0.722631 -27
      vertex -4.44959 -3.23282 -27
    endloop
  endfacet
  facet normal 0 0 -1
    outer loop
      vertex -0.638668 1.35724 -27
      vertex -2.34179 4.97655 -27
      vertex -1.69959 5.23081 -27
    endloop
  endfacet
  facet normal -0 0 -1
    outer loop
      vertex -1.31446 -0.722631 -27
      vertex -4.81969 -2.64964 -27
      vertex -1.39466 -0.552186 -27
    endloop
  endfacet
  facet normal 0 0 -1
    outer loop
      vertex -0.80374 1.26649 -27
      vertex -2.94705 4.6438 -27
      vertex -2.34179 4.97655 -27
    endloop
  endfacet
  facet normal 0 0 -1
    outer loop
      vertex -5.11377 -2.02468 -27
      vertex -1.39466 -0.552186 -27
      vertex -4.81969 -2.64964 -27
    endloop
  endfacet
  facet normal 0 0 -1
    outer loop
      vertex -0.956136 1.15577 -27
      vertex -3.50583 4.23782 -27
      vertex -2.94705 4.6438 -27
    endloop
  endfacet
  facet normal -0 0 -1
    outer loop
      vertex -1.39466 -0.552186 -27
      vertex -5.11377 -2.02468 -27
      vertex -1.45287 -0.373034 -27
    endloop
  endfacet
  facet normal 0 0 -1
    outer loop
      vertex -1.09345 1.02682 -27
      vertex -4.00933 3.76501 -27
      vertex -3.50583 4.23782 -27
    endloop
  endfacet
  facet normal 0 0 -1
    outer loop
      vertex -5.32721 -1.36779 -27
      vertex -1.45287 -0.373034 -27
      vertex -5.11377 -2.02468 -27
    endloop
  endfacet
  facet normal 0 0 -1
    outer loop
      vertex -1.21352 0.881678 -27
      vertex -4.44959 3.23282 -27
      vertex -4.00933 3.76501 -27
    endloop
  endfacet
  facet normal -0 0 -1
    outer loop
      vertex -1.45287 -0.373034 -27
      vertex -5.32721 -1.36779 -27
      vertex -1.48817 -0.188 -27
    endloop
  endfacet
  facet normal 0 0 -1
    outer loop
      vertex -1.31446 0.722631 -27
      vertex -4.81969 2.64964 -27
      vertex -4.44959 3.23282 -27
    endloop
  endfacet
  facet normal 0 0 -1
    outer loop
      vertex -5.45663 -0.689332 -27
      vertex -1.48817 -0.188 -27
      vertex -5.32721 -1.36779 -27
    endloop
  endfacet
  facet normal 0 0 -1
    outer loop
      vertex -1.39466 0.552186 -27
      vertex -5.11377 2.02468 -27
      vertex -4.81969 2.64964 -27
    endloop
  endfacet
  facet normal -0 0 -1
    outer loop
      vertex -1.48817 -0.188 -27
      vertex -5.45663 -0.689332 -27
      vertex -1.5 0 -27
    endloop
  endfacet
  facet normal 0 0 -1
    outer loop
      vertex -1.45287 0.373034 -27
      vertex -5.32721 1.36779 -27
      vertex -5.11377 2.02468 -27
    endloop
  endfacet
  facet normal 0 0 -1
    outer loop
      vertex -5.5 0 -27
      vertex -1.5 0 -27
      vertex -5.45663 -0.689332 -27
    endloop
  endfacet
  facet normal 0 0 -1
    outer loop
      vertex -1.48817 0.188 -27
      vertex -5.45663 0.689332 -27
      vertex -5.32721 1.36779 -27
    endloop
  endfacet
  facet normal 0 0 -1
    outer loop
      vertex -1.5 0 -27
      vertex -5.5 0 -27
      vertex -5.45663 0.689332 -27
    endloop
  endfacet
  facet normal 0.587788 -0.809015 0
    outer loop
      vertex 2.94705 -4.6438 -27
      vertex 3.50583 -4.23782 27
      vertex 2.94705 -4.6438 27
    endloop
  endfacet
  facet normal 0.587788 -0.809015 0
    outer loop
      vertex 3.50583 -4.23782 27
      vertex 2.94705 -4.6438 -27
      vertex 3.50583 -4.23782 -27
    endloop
  endfacet
  facet normal 0 -1 0
    outer loop
      vertex -0.345347 -5.48915 -27
      vertex 0.345347 -5.48915 27
      vertex -0.345347 -5.48915 27
    endloop
  endfacet
  facet normal 0 -1 -0
    outer loop
      vertex 0.345347 -5.48915 27
      vertex -0.345347 -5.48915 -27
      vertex 0.345347 -5.48915 -27
    endloop
  endfacet
  facet normal -0.587788 -0.809015 0
    outer loop
      vertex -3.50583 -4.23782 -27
      vertex -2.94705 -4.6438 27
      vertex -3.50583 -4.23782 27
    endloop
  endfacet
  facet normal -0.587788 -0.809015 -0
    outer loop
      vertex -2.94705 -4.6438 27
      vertex -3.50583 -4.23782 -27
      vertex -2.94705 -4.6438 -27
    endloop
  endfacet
  facet normal -0.684541 -0.728974 0
    outer loop
      vertex -4.00933 -3.76501 -27
      vertex -3.50583 -4.23782 27
      vertex -4.00933 -3.76501 27
    endloop
  endfacet
  facet normal -0.684541 -0.728974 -0
    outer loop
      vertex -3.50583 -4.23782 27
      vertex -4.00933 -3.76501 -27
      vertex -3.50583 -4.23782 -27
    endloop
  endfacet
  facet normal -0.904829 -0.425775 0
    outer loop
      vertex -4.81969 -2.64964 -27
      vertex -5.11377 -2.02468 27
      vertex -5.11377 -2.02468 -27
    endloop
  endfacet
  facet normal -0.904829 -0.425775 0
    outer loop
      vertex -5.11377 -2.02468 27
      vertex -4.81969 -2.64964 -27
      vertex -4.81969 -2.64964 27
    endloop
  endfacet
  facet normal -0.844326 -0.53583 0
    outer loop
      vertex -4.44959 -3.23282 -27
      vertex -4.81969 -2.64964 27
      vertex -4.81969 -2.64964 -27
    endloop
  endfacet
  facet normal -0.844326 -0.53583 0
    outer loop
      vertex -4.81969 -2.64964 27
      vertex -4.44959 -3.23282 -27
      vertex -4.44959 -3.23282 27
    endloop
  endfacet
  facet normal -0.48176 -0.876303 0
    outer loop
      vertex -2.94705 -4.6438 -27
      vertex -2.34179 -4.97655 27
      vertex -2.94705 -4.6438 27
    endloop
  endfacet
  facet normal -0.48176 -0.876303 -0
    outer loop
      vertex -2.34179 -4.97655 27
      vertex -2.94705 -4.6438 -27
      vertex -2.34179 -4.97655 -27
    endloop
  endfacet
  facet normal 0.951057 -0.309017 0
    outer loop
      vertex -1.45287 0.373034 27
      vertex -1.39466 0.552186 -27
      vertex -1.39466 0.552186 27
    endloop
  endfacet
  facet normal 0.951057 -0.309017 0
    outer loop
      vertex -1.39466 0.552186 -27
      vertex -1.45287 0.373034 27
      vertex -1.45287 0.373034 -27
    endloop
  endfacet
  facet normal -0.844314 -0.535848 0
    outer loop
      vertex 1.31446 0.722631 -27
      vertex 1.21352 0.881678 27
      vertex 1.21352 0.881678 -27
    endloop
  endfacet
  facet normal -0.844314 -0.535848 0
    outer loop
      vertex 1.21352 0.881678 27
      vertex 1.31446 0.722631 -27
      vertex 1.31446 0.722631 27
    endloop
  endfacet
  facet normal -0.368106 -0.929784 0
    outer loop
      vertex 0.463525 1.42658 -27
      vertex 0.638668 1.35724 27
      vertex 0.463525 1.42658 27
    endloop
  endfacet
  facet normal -0.368106 -0.929784 -0
    outer loop
      vertex 0.638668 1.35724 27
      vertex 0.463525 1.42658 -27
      vertex 0.638668 1.35724 -27
    endloop
  endfacet
  facet normal 0.368106 -0.929784 0
    outer loop
      vertex -0.638668 1.35724 -27
      vertex -0.463525 1.42658 27
      vertex -0.638668 1.35724 27
    endloop
  endfacet
  facet normal 0.368106 -0.929784 0
    outer loop
      vertex -0.463525 1.42658 27
      vertex -0.638668 1.35724 -27
      vertex -0.463525 1.42658 -27
    endloop
  endfacet
  facet normal 0.904838 -0.425756 0
    outer loop
      vertex -1.39466 0.552186 27
      vertex -1.31446 0.722631 -27
      vertex -1.31446 0.722631 27
    endloop
  endfacet
  facet normal 0.904838 -0.425756 0
    outer loop
      vertex -1.31446 0.722631 -27
      vertex -1.39466 0.552186 27
      vertex -1.39466 0.552186 -27
    endloop
  endfacet
  facet normal -0.998026 0.0628013 0
    outer loop
      vertex 1.48817 -0.188 -27
      vertex 1.5 0 27
      vertex 1.5 0 -27
    endloop
  endfacet
  facet normal -0.998026 0.0628013 0
    outer loop
      vertex 1.5 0 27
      vertex 1.48817 -0.188 -27
      vertex 1.48817 -0.188 27
    endloop
  endfacet
  facet normal -0.368106 0.929784 0
    outer loop
      vertex 0.638668 -1.35724 -27
      vertex 0.463525 -1.42658 27
      vertex 0.638668 -1.35724 27
    endloop
  endfacet
  facet normal -0.368106 0.929784 0
    outer loop
      vertex 0.463525 -1.42658 27
      vertex 0.638668 -1.35724 -27
      vertex 0.463525 -1.42658 -27
    endloop
  endfacet
  facet normal -0.684557 -0.728959 0
    outer loop
      vertex 0.956136 1.15577 -27
      vertex 1.09345 1.02682 27
      vertex 0.956136 1.15577 27
    endloop
  endfacet
  facet normal -0.684557 -0.728959 -0
    outer loop
      vertex 1.09345 1.02682 27
      vertex 0.956136 1.15577 -27
      vertex 1.09345 1.02682 -27
    endloop
  endfacet
  facet normal 0.770518 -0.637418 0
    outer loop
      vertex -1.21352 0.881678 27
      vertex -1.09345 1.02682 -27
      vertex -1.09345 1.02682 27
    endloop
  endfacet
  facet normal 0.770518 -0.637418 0
    outer loop
      vertex -1.09345 1.02682 -27
      vertex -1.21352 0.881678 27
      vertex -1.21352 0.881678 -27
    endloop
  endfacet
  facet normal 0.125337 -0.992114 0
    outer loop
      vertex -0.281072 1.47343 -27
      vertex -0.0941849 1.49704 27
      vertex -0.281072 1.47343 27
    endloop
  endfacet
  facet normal 0.125337 -0.992114 0
    outer loop
      vertex -0.0941849 1.49704 27
      vertex -0.281072 1.47343 -27
      vertex -0.0941849 1.49704 -27
    endloop
  endfacet
  facet normal 0.684557 -0.728959 0
    outer loop
      vertex -1.09345 1.02682 -27
      vertex -0.956136 1.15577 27
      vertex -1.09345 1.02682 27
    endloop
  endfacet
  facet normal 0.684557 -0.728959 0
    outer loop
      vertex -0.956136 1.15577 27
      vertex -1.09345 1.02682 -27
      vertex -0.956136 1.15577 -27
    endloop
  endfacet
  facet normal -0.998026 -0.0628013 0
    outer loop
      vertex 1.5 0 -27
      vertex 1.48817 0.188 27
      vertex 1.48817 0.188 -27
    endloop
  endfacet
  facet normal -0.998026 -0.0628013 0
    outer loop
      vertex 1.48817 0.188 27
      vertex 1.5 0 -27
      vertex 1.5 0 27
    endloop
  endfacet
  facet normal -0.904838 0.425756 0
    outer loop
      vertex 1.31446 -0.722631 -27
      vertex 1.39466 -0.552186 27
      vertex 1.39466 -0.552186 -27
    endloop
  endfacet
  facet normal -0.904838 0.425756 0
    outer loop
      vertex 1.39466 -0.552186 27
      vertex 1.31446 -0.722631 -27
      vertex 1.31446 -0.722631 27
    endloop
  endfacet
  facet normal -0.24871 0.968578 0
    outer loop
      vertex 0.463525 -1.42658 -27
      vertex 0.281072 -1.47343 27
      vertex 0.463525 -1.42658 27
    endloop
  endfacet
  facet normal -0.24871 0.968578 0
    outer loop
      vertex 0.281072 -1.47343 27
      vertex 0.463525 -1.42658 -27
      vertex 0.281072 -1.47343 -27
    endloop
  endfacet
  facet normal -0.770518 -0.637418 0
    outer loop
      vertex 1.21352 0.881678 -27
      vertex 1.09345 1.02682 27
      vertex 1.09345 1.02682 -27
    endloop
  endfacet
  facet normal -0.770518 -0.637418 0
    outer loop
      vertex 1.09345 1.02682 27
      vertex 1.21352 0.881678 -27
      vertex 1.21352 0.881678 27
    endloop
  endfacet
  facet normal 0 -1 0
    outer loop
      vertex -0.0941849 1.49704 -27
      vertex 0.0941849 1.49704 27
      vertex -0.0941849 1.49704 27
    endloop
  endfacet
  facet normal 0 -1 -0
    outer loop
      vertex 0.0941849 1.49704 27
      vertex -0.0941849 1.49704 -27
      vertex 0.0941849 1.49704 -27
    endloop
  endfacet
  facet normal -0.24871 -0.968578 0
    outer loop
      vertex 0.281072 1.47343 -27
      vertex 0.463525 1.42658 27
      vertex 0.281072 1.47343 27
    endloop
  endfacet
  facet normal -0.24871 -0.968578 -0
    outer loop
      vertex 0.463525 1.42658 27
      vertex 0.281072 1.47343 -27
      vertex 0.463525 1.42658 -27
    endloop
  endfacet
  facet normal -0.587778 -0.809022 0
    outer loop
      vertex 0.80374 1.26649 -27
      vertex 0.956136 1.15577 27
      vertex 0.80374 1.26649 27
    endloop
  endfacet
  facet normal -0.587778 -0.809022 -0
    outer loop
      vertex 0.956136 1.15577 27
      vertex 0.80374 1.26649 -27
      vertex 0.956136 1.15577 -27
    endloop
  endfacet
  facet normal -0.481757 -0.876305 0
    outer loop
      vertex 0.638668 1.35724 -27
      vertex 0.80374 1.26649 27
      vertex 0.638668 1.35724 27
    endloop
  endfacet
  facet normal -0.481757 -0.876305 -0
    outer loop
      vertex 0.80374 1.26649 27
      vertex 0.638668 1.35724 -27
      vertex 0.80374 1.26649 -27
    endloop
  endfacet
  facet normal 0.998026 -0.0628013 0
    outer loop
      vertex -1.5 0 27
      vertex -1.48817 0.188 -27
      vertex -1.48817 0.188 27
    endloop
  endfacet
  facet normal 0.998026 -0.0628013 0
    outer loop
      vertex -1.48817 0.188 -27
      vertex -1.5 0 27
      vertex -1.5 0 -27
    endloop
  endfacet
  facet normal 0.982284 -0.187396 0
    outer loop
      vertex -1.48817 0.188 27
      vertex -1.45287 0.373034 -27
      vertex -1.45287 0.373034 27
    endloop
  endfacet
  facet normal 0.982284 -0.187396 0
    outer loop
      vertex -1.45287 0.373034 -27
      vertex -1.48817 0.188 27
      vertex -1.48817 0.188 -27
    endloop
  endfacet
  facet normal 0.844314 -0.535848 0
    outer loop
      vertex -1.31446 0.722631 27
      vertex -1.21352 0.881678 -27
      vertex -1.21352 0.881678 27
    endloop
  endfacet
  facet normal 0.844314 -0.535848 0
    outer loop
      vertex -1.21352 0.881678 -27
      vertex -1.31446 0.722631 27
      vertex -1.31446 0.722631 -27
    endloop
  endfacet
  facet normal 0.24871 -0.968578 0
    outer loop
      vertex -0.463525 1.42658 -27
      vertex -0.281072 1.47343 27
      vertex -0.463525 1.42658 27
    endloop
  endfacet
  facet normal 0.24871 -0.968578 0
    outer loop
      vertex -0.281072 1.47343 27
      vertex -0.463525 1.42658 -27
      vertex -0.281072 1.47343 -27
    endloop
  endfacet
  facet normal 0.481757 -0.876305 0
    outer loop
      vertex -0.80374 1.26649 -27
      vertex -0.638668 1.35724 27
      vertex -0.80374 1.26649 27
    endloop
  endfacet
  facet normal 0.481757 -0.876305 0
    outer loop
      vertex -0.638668 1.35724 27
      vertex -0.80374 1.26649 -27
      vertex -0.638668 1.35724 -27
    endloop
  endfacet
  facet normal 0.587778 -0.809022 0
    outer loop
      vertex -0.956136 1.15577 -27
      vertex -0.80374 1.26649 27
      vertex -0.956136 1.15577 27
    endloop
  endfacet
  facet normal 0.587778 -0.809022 0
    outer loop
      vertex -0.80374 1.26649 27
      vertex -0.956136 1.15577 -27
      vertex -0.80374 1.26649 -27
    endloop
  endfacet
  facet normal -0.982284 0.187396 0
    outer loop
      vertex 1.45287 -0.373034 -27
      vertex 1.48817 -0.188 27
      vertex 1.48817 -0.188 -27
    endloop
  endfacet
  facet normal -0.982284 0.187396 0
    outer loop
      vertex 1.48817 -0.188 27
      vertex 1.45287 -0.373034 -27
      vertex 1.45287 -0.373034 27
    endloop
  endfacet
  facet normal -0.125337 0.992114 0
    outer loop
      vertex 0.281072 -1.47343 -27
      vertex 0.0941849 -1.49704 27
      vertex 0.281072 -1.47343 27
    endloop
  endfacet
  facet normal -0.125337 0.992114 0
    outer loop
      vertex 0.0941849 -1.49704 27
      vertex 0.281072 -1.47343 -27
      vertex 0.0941849 -1.49704 -27
    endloop
  endfacet
  facet normal -0.904838 -0.425756 0
    outer loop
      vertex 1.39466 0.552186 -27
      vertex 1.31446 0.722631 27
      vertex 1.31446 0.722631 -27
    endloop
  endfacet
  facet normal -0.904838 -0.425756 0
    outer loop
      vertex 1.31446 0.722631 27
      vertex 1.39466 0.552186 -27
      vertex 1.39466 0.552186 27
    endloop
  endfacet
  facet normal -0.951057 -0.309017 0
    outer loop
      vertex 1.45287 0.373034 -27
      vertex 1.39466 0.552186 27
      vertex 1.39466 0.552186 -27
    endloop
  endfacet
  facet normal -0.951057 -0.309017 0
    outer loop
      vertex 1.39466 0.552186 27
      vertex 1.45287 0.373034 -27
      vertex 1.45287 0.373034 27
    endloop
  endfacet
  facet normal -0.982284 -0.187396 0
    outer loop
      vertex 1.48817 0.188 -27
      vertex 1.45287 0.373034 27
      vertex 1.45287 0.373034 -27
    endloop
  endfacet
  facet normal -0.982284 -0.187396 0
    outer loop
      vertex 1.45287 0.373034 27
      vertex 1.48817 0.188 -27
      vertex 1.48817 0.188 27
    endloop
  endfacet
  facet normal -0.125337 -0.992114 0
    outer loop
      vertex 0.0941849 1.49704 -27
      vertex 0.281072 1.47343 27
      vertex 0.0941849 1.49704 27
    endloop
  endfacet
  facet normal -0.125337 -0.992114 -0
    outer loop
      vertex 0.281072 1.47343 27
      vertex 0.0941849 1.49704 -27
      vertex 0.281072 1.47343 -27
    endloop
  endfacet
  facet normal -0.481757 0.876305 0
    outer loop
      vertex 0.80374 -1.26649 -27
      vertex 0.638668 -1.35724 27
      vertex 0.80374 -1.26649 27
    endloop
  endfacet
  facet normal -0.481757 0.876305 0
    outer loop
      vertex 0.638668 -1.35724 27
      vertex 0.80374 -1.26649 -27
      vertex 0.638668 -1.35724 -27
    endloop
  endfacet
  facet normal -0.684557 0.728959 0
    outer loop
      vertex 1.09345 -1.02682 -27
      vertex 0.956136 -1.15577 27
      vertex 1.09345 -1.02682 27
    endloop
  endfacet
  facet normal -0.684557 0.728959 0
    outer loop
      vertex 0.956136 -1.15577 27
      vertex 1.09345 -1.02682 -27
      vertex 0.956136 -1.15577 -27
    endloop
  endfacet
  facet normal -0.770518 0.637418 0
    outer loop
      vertex 1.09345 -1.02682 -27
      vertex 1.21352 -0.881678 27
      vertex 1.21352 -0.881678 -27
    endloop
  endfacet
  facet normal -0.770518 0.637418 0
    outer loop
      vertex 1.21352 -0.881678 27
      vertex 1.09345 -1.02682 -27
      vertex 1.09345 -1.02682 27
    endloop
  endfacet
  facet normal 0.368106 0.929784 -0
    outer loop
      vertex -0.463525 -1.42658 -27
      vertex -0.638668 -1.35724 27
      vertex -0.463525 -1.42658 27
    endloop
  endfacet
  facet normal 0.368106 0.929784 0
    outer loop
      vertex -0.638668 -1.35724 27
      vertex -0.463525 -1.42658 -27
      vertex -0.638668 -1.35724 -27
    endloop
  endfacet
  facet normal 0.998026 0.0628013 0
    outer loop
      vertex -1.48817 -0.188 27
      vertex -1.5 0 -27
      vertex -1.5 0 27
    endloop
  endfacet
  facet normal 0.998026 0.0628013 0
    outer loop
      vertex -1.5 0 -27
      vertex -1.48817 -0.188 27
      vertex -1.48817 -0.188 -27
    endloop
  endfacet
  facet normal 0.904838 0.425756 0
    outer loop
      vertex -1.31446 -0.722631 27
      vertex -1.39466 -0.552186 -27
      vertex -1.39466 -0.552186 27
    endloop
  endfacet
  facet normal 0.904838 0.425756 0
    outer loop
      vertex -1.39466 -0.552186 -27
      vertex -1.31446 -0.722631 27
      vertex -1.31446 -0.722631 -27
    endloop
  endfacet
  facet normal 0.951057 0.309017 0
    outer loop
      vertex -1.39466 -0.552186 27
      vertex -1.45287 -0.373034 -27
      vertex -1.45287 -0.373034 27
    endloop
  endfacet
  facet normal 0.951057 0.309017 0
    outer loop
      vertex -1.45287 -0.373034 -27
      vertex -1.39466 -0.552186 27
      vertex -1.39466 -0.552186 -27
    endloop
  endfacet
  facet normal 0.684557 0.728959 -0
    outer loop
      vertex -0.956136 -1.15577 -27
      vertex -1.09345 -1.02682 27
      vertex -0.956136 -1.15577 27
    endloop
  endfacet
  facet normal 0.684557 0.728959 0
    outer loop
      vertex -1.09345 -1.02682 27
      vertex -0.956136 -1.15577 -27
      vertex -1.09345 -1.02682 -27
    endloop
  endfacet
  facet normal -0.951057 0.309017 0
    outer loop
      vertex 1.39466 -0.552186 -27
      vertex 1.45287 -0.373034 27
      vertex 1.45287 -0.373034 -27
    endloop
  endfacet
  facet normal -0.951057 0.309017 0
    outer loop
      vertex 1.45287 -0.373034 27
      vertex 1.39466 -0.552186 -27
      vertex 1.39466 -0.552186 27
    endloop
  endfacet
  facet normal -0.587778 0.809022 0
    outer loop
      vertex 0.956136 -1.15577 -27
      vertex 0.80374 -1.26649 27
      vertex 0.956136 -1.15577 27
    endloop
  endfacet
  facet normal -0.587778 0.809022 0
    outer loop
      vertex 0.80374 -1.26649 27
      vertex 0.956136 -1.15577 -27
      vertex 0.80374 -1.26649 -27
    endloop
  endfacet
  facet normal -0.844314 0.535848 0
    outer loop
      vertex 1.21352 -0.881678 -27
      vertex 1.31446 -0.722631 27
      vertex 1.31446 -0.722631 -27
    endloop
  endfacet
  facet normal -0.844314 0.535848 0
    outer loop
      vertex 1.31446 -0.722631 27
      vertex 1.21352 -0.881678 -27
      vertex 1.21352 -0.881678 27
    endloop
  endfacet
  facet normal 0 1 -0
    outer loop
      vertex 0.0941849 -1.49704 -27
      vertex -0.0941849 -1.49704 27
      vertex 0.0941849 -1.49704 27
    endloop
  endfacet
  facet normal 0 1 0
    outer loop
      vertex -0.0941849 -1.49704 27
      vertex 0.0941849 -1.49704 -27
      vertex -0.0941849 -1.49704 -27
    endloop
  endfacet
  facet normal 0.125337 0.992114 -0
    outer loop
      vertex -0.0941849 -1.49704 -27
      vertex -0.281072 -1.47343 27
      vertex -0.0941849 -1.49704 27
    endloop
  endfacet
  facet normal 0.125337 0.992114 0
    outer loop
      vertex -0.281072 -1.47343 27
      vertex -0.0941849 -1.49704 -27
      vertex -0.281072 -1.47343 -27
    endloop
  endfacet
  facet normal 0.24871 0.968578 -0
    outer loop
      vertex -0.281072 -1.47343 -27
      vertex -0.463525 -1.42658 27
      vertex -0.281072 -1.47343 27
    endloop
  endfacet
  facet normal 0.24871 0.968578 0
    outer loop
      vertex -0.463525 -1.42658 27
      vertex -0.281072 -1.47343 -27
      vertex -0.463525 -1.42658 -27
    endloop
  endfacet
  facet normal 0.982284 0.187396 0
    outer loop
      vertex -1.45287 -0.373034 27
      vertex -1.48817 -0.188 -27
      vertex -1.48817 -0.188 27
    endloop
  endfacet
  facet normal 0.982284 0.187396 0
    outer loop
      vertex -1.48817 -0.188 -27
      vertex -1.45287 -0.373034 27
      vertex -1.45287 -0.373034 -27
    endloop
  endfacet
  facet normal 0.844314 0.535848 0
    outer loop
      vertex -1.21352 -0.881678 27
      vertex -1.31446 -0.722631 -27
      vertex -1.31446 -0.722631 27
    endloop
  endfacet
  facet normal 0.844314 0.535848 0
    outer loop
      vertex -1.31446 -0.722631 -27
      vertex -1.21352 -0.881678 27
      vertex -1.21352 -0.881678 -27
    endloop
  endfacet
  facet normal 0.770518 0.637418 0
    outer loop
      vertex -1.09345 -1.02682 27
      vertex -1.21352 -0.881678 -27
      vertex -1.21352 -0.881678 27
    endloop
  endfacet
  facet normal 0.770518 0.637418 0
    outer loop
      vertex -1.21352 -0.881678 -27
      vertex -1.09345 -1.02682 27
      vertex -1.09345 -1.02682 -27
    endloop
  endfacet
  facet normal 0.481757 0.876305 -0
    outer loop
      vertex -0.638668 -1.35724 -27
      vertex -0.80374 -1.26649 27
      vertex -0.638668 -1.35724 27
    endloop
  endfacet
  facet normal 0.481757 0.876305 0
    outer loop
      vertex -0.80374 -1.26649 27
      vertex -0.638668 -1.35724 -27
      vertex -0.80374 -1.26649 -27
    endloop
  endfacet
  facet normal 0.587778 0.809022 -0
    outer loop
      vertex -0.80374 -1.26649 -27
      vertex -0.956136 -1.15577 27
      vertex -0.80374 -1.26649 27
    endloop
  endfacet
  facet normal 0.587778 0.809022 0
    outer loop
      vertex -0.956136 -1.15577 27
      vertex -0.80374 -1.26649 -27
      vertex -0.956136 -1.15577 -27
    endloop
  endfacet
endsolid OpenSCAD_Model
