solid OpenSCAD_Model
  facet normal 0.998027 0.0627838 0
    outer loop
      vertex 4.5 0 18
      vertex 4.46452 0.563999 -18
      vertex 4.46452 0.563999 18
    endloop
  endfacet
  facet normal 0.998027 0.0627838 0
    outer loop
      vertex 4.46452 0.563999 -18
      vertex 4.5 0 18
      vertex 4.5 0 -18
    endloop
  endfacet
  facet normal -0.998027 0.0627838 0
    outer loop
      vertex -4.5 0 -18
      vertex -4.46452 0.563999 18
      vertex -4.46452 0.563999 -18
    endloop
  endfacet
  facet normal -0.998027 0.0627838 0
    outer loop
      vertex -4.46452 0.563999 18
      vertex -4.5 0 -18
      vertex -4.5 0 18
    endloop
  endfacet
  facet normal 0 1 -0
    outer loop
      vertex 0.282557 4.49112 -18
      vertex -0.282557 4.49112 18
      vertex 0.282557 4.49112 18
    endloop
  endfacet
  facet normal 0 1 0
    outer loop
      vertex -0.282557 4.49112 18
      vertex 0.282557 4.49112 -18
      vertex -0.282557 4.49112 -18
    endloop
  endfacet
  facet normal 0.68455 0.728966 -0
    outer loop
      vertex 3.28036 3.08046 -18
      vertex 2.86841 3.46731 18
      vertex 3.28036 3.08046 18
    endloop
  endfacet
  facet normal 0.68455 0.728966 0
    outer loop
      vertex 2.86841 3.46731 18
      vertex 3.28036 3.08046 -18
      vertex 2.86841 3.46731 -18
    endloop
  endfacet
  facet normal -0.68455 0.728966 0
    outer loop
      vertex -2.86841 3.46731 -18
      vertex -3.28036 3.08046 18
      vertex -2.86841 3.46731 18
    endloop
  endfacet
  facet normal -0.68455 0.728966 0
    outer loop
      vertex -3.28036 3.08046 18
      vertex -2.86841 3.46731 -18
      vertex -3.28036 3.08046 -18
    endloop
  endfacet
  facet normal -0.368121 0.929778 0
    outer loop
      vertex -1.39058 4.27975 -18
      vertex -1.91601 4.07172 18
      vertex -1.39058 4.27975 18
    endloop
  endfacet
  facet normal -0.368121 0.929778 0
    outer loop
      vertex -1.91601 4.07172 18
      vertex -1.39058 4.27975 -18
      vertex -1.91601 4.07172 -18
    endloop
  endfacet
  facet normal 0.90483 0.425774 0
    outer loop
      vertex 4.18399 1.65656 18
      vertex 3.94338 2.16789 -18
      vertex 3.94338 2.16789 18
    endloop
  endfacet
  facet normal 0.90483 0.425774 0
    outer loop
      vertex 3.94338 2.16789 -18
      vertex 4.18399 1.65656 18
      vertex 4.18399 1.65656 -18
    endloop
  endfacet
  facet normal 0.982284 0.187396 0
    outer loop
      vertex 4.46452 0.563999 18
      vertex 4.35862 1.1191 -18
      vertex 4.35862 1.1191 18
    endloop
  endfacet
  facet normal 0.982284 0.187396 0
    outer loop
      vertex 4.35862 1.1191 -18
      vertex 4.46452 0.563999 18
      vertex 4.46452 0.563999 -18
    endloop
  endfacet
  facet normal 0.368121 0.929778 -0
    outer loop
      vertex 1.91601 4.07172 -18
      vertex 1.39058 4.27975 18
      vertex 1.91601 4.07172 18
    endloop
  endfacet
  facet normal 0.368121 0.929778 0
    outer loop
      vertex 1.39058 4.27975 18
      vertex 1.91601 4.07172 -18
      vertex 1.39058 4.27975 -18
    endloop
  endfacet
  facet normal 0.248691 0.968583 -0
    outer loop
      vertex 1.39058 4.27975 -18
      vertex 0.843215 4.42029 18
      vertex 1.39058 4.27975 18
    endloop
  endfacet
  facet normal 0.248691 0.968583 0
    outer loop
      vertex 0.843215 4.42029 18
      vertex 1.39058 4.27975 -18
      vertex 0.843215 4.42029 -18
    endloop
  endfacet
  facet normal 0.587776 0.809024 -0
    outer loop
      vertex 2.86841 3.46731 -18
      vertex 2.41122 3.79947 18
      vertex 2.86841 3.46731 18
    endloop
  endfacet
  facet normal 0.587776 0.809024 0
    outer loop
      vertex 2.41122 3.79947 18
      vertex 2.86841 3.46731 -18
      vertex 2.41122 3.79947 -18
    endloop
  endfacet
  facet normal -0.90483 0.425774 0
    outer loop
      vertex -4.18399 1.65656 -18
      vertex -3.94338 2.16789 18
      vertex -3.94338 2.16789 -18
    endloop
  endfacet
  facet normal -0.90483 0.425774 0
    outer loop
      vertex -3.94338 2.16789 18
      vertex -4.18399 1.65656 -18
      vertex -4.18399 1.65656 18
    endloop
  endfacet
  facet normal -0.84433 0.535824 0
    outer loop
      vertex -3.94338 2.16789 -18
      vertex -3.64058 2.64503 18
      vertex -3.64058 2.64503 -18
    endloop
  endfacet
  facet normal -0.84433 0.535824 0
    outer loop
      vertex -3.64058 2.64503 18
      vertex -3.94338 2.16789 -18
      vertex -3.94338 2.16789 18
    endloop
  endfacet
  facet normal -0.951057 0.309015 0
    outer loop
      vertex -4.35862 1.1191 -18
      vertex -4.18399 1.65656 18
      vertex -4.18399 1.65656 -18
    endloop
  endfacet
  facet normal -0.951057 0.309015 0
    outer loop
      vertex -4.18399 1.65656 18
      vertex -4.35862 1.1191 -18
      vertex -4.35862 1.1191 18
    endloop
  endfacet
  facet normal -0.481762 0.876302 0
    outer loop
      vertex -1.91601 4.07172 -18
      vertex -2.41122 3.79947 18
      vertex -1.91601 4.07172 18
    endloop
  endfacet
  facet normal -0.481762 0.876302 0
    outer loop
      vertex -2.41122 3.79947 18
      vertex -1.91601 4.07172 -18
      vertex -2.41122 3.79947 -18
    endloop
  endfacet
  facet normal -0.125337 0.992114 0
    outer loop
      vertex -0.282557 4.49112 -18
      vertex -0.843215 4.42029 18
      vertex -0.282557 4.49112 18
    endloop
  endfacet
  facet normal -0.125337 0.992114 0
    outer loop
      vertex -0.843215 4.42029 18
      vertex -0.282557 4.49112 -18
      vertex -0.843215 4.42029 -18
    endloop
  endfacet
  facet normal 0.84433 -0.535824 0
    outer loop
      vertex 3.64058 -2.64503 18
      vertex 3.94338 -2.16789 -18
      vertex 3.94338 -2.16789 18
    endloop
  endfacet
  facet normal 0.84433 -0.535824 0
    outer loop
      vertex 3.94338 -2.16789 -18
      vertex 3.64058 -2.64503 18
      vertex 3.64058 -2.64503 -18
    endloop
  endfacet
  facet normal 0.998027 -0.0627838 0
    outer loop
      vertex 4.46452 -0.563999 18
      vertex 4.5 0 -18
      vertex 4.5 0 18
    endloop
  endfacet
  facet normal 0.998027 -0.0627838 0
    outer loop
      vertex 4.5 0 -18
      vertex 4.46452 -0.563999 18
      vertex 4.46452 -0.563999 -18
    endloop
  endfacet
  facet normal 0.951057 0.309015 0
    outer loop
      vertex 4.35862 1.1191 18
      vertex 4.18399 1.65656 -18
      vertex 4.18399 1.65656 18
    endloop
  endfacet
  facet normal 0.951057 0.309015 0
    outer loop
      vertex 4.18399 1.65656 -18
      vertex 4.35862 1.1191 18
      vertex 4.35862 1.1191 -18
    endloop
  endfacet
  facet normal 0.770512 0.637425 0
    outer loop
      vertex 3.64058 2.64503 18
      vertex 3.28036 3.08046 -18
      vertex 3.28036 3.08046 18
    endloop
  endfacet
  facet normal 0.770512 0.637425 0
    outer loop
      vertex 3.28036 3.08046 -18
      vertex 3.64058 2.64503 18
      vertex 3.64058 2.64503 -18
    endloop
  endfacet
  facet normal 0.84433 0.535824 0
    outer loop
      vertex 3.94338 2.16789 18
      vertex 3.64058 2.64503 -18
      vertex 3.64058 2.64503 18
    endloop
  endfacet
  facet normal 0.84433 0.535824 0
    outer loop
      vertex 3.64058 2.64503 -18
      vertex 3.94338 2.16789 18
      vertex 3.94338 2.16789 -18
    endloop
  endfacet
  facet normal 0.125337 0.992114 -0
    outer loop
      vertex 0.843215 4.42029 -18
      vertex 0.282557 4.49112 18
      vertex 0.843215 4.42029 18
    endloop
  endfacet
  facet normal 0.125337 0.992114 0
    outer loop
      vertex 0.282557 4.49112 18
      vertex 0.843215 4.42029 -18
      vertex 0.282557 4.49112 -18
    endloop
  endfacet
  facet normal -0.248691 0.968583 0
    outer loop
      vertex -0.843215 4.42029 -18
      vertex -1.39058 4.27975 18
      vertex -0.843215 4.42029 18
    endloop
  endfacet
  facet normal -0.248691 0.968583 0
    outer loop
      vertex -1.39058 4.27975 18
      vertex -0.843215 4.42029 -18
      vertex -1.39058 4.27975 -18
    endloop
  endfacet
  facet normal 0.68455 -0.728966 0
    outer loop
      vertex 2.86841 -3.46731 -18
      vertex 3.28036 -3.08046 18
      vertex 2.86841 -3.46731 18
    endloop
  endfacet
  facet normal 0.68455 -0.728966 0
    outer loop
      vertex 3.28036 -3.08046 18
      vertex 2.86841 -3.46731 -18
      vertex 3.28036 -3.08046 -18
    endloop
  endfacet
  facet normal 0.982284 -0.187396 0
    outer loop
      vertex 4.35862 -1.1191 18
      vertex 4.46452 -0.563999 -18
      vertex 4.46452 -0.563999 18
    endloop
  endfacet
  facet normal 0.982284 -0.187396 0
    outer loop
      vertex 4.46452 -0.563999 -18
      vertex 4.35862 -1.1191 18
      vertex 4.35862 -1.1191 -18
    endloop
  endfacet
  facet normal -0.90483 -0.425774 0
    outer loop
      vertex -3.94338 -2.16789 -18
      vertex -4.18399 -1.65656 18
      vertex -4.18399 -1.65656 -18
    endloop
  endfacet
  facet normal -0.90483 -0.425774 0
    outer loop
      vertex -4.18399 -1.65656 18
      vertex -3.94338 -2.16789 -18
      vertex -3.94338 -2.16789 18
    endloop
  endfacet
  facet normal -0.951057 -0.309015 0
    outer loop
      vertex -4.18399 -1.65656 -18
      vertex -4.35862 -1.1191 18
      vertex -4.35862 -1.1191 -18
    endloop
  endfacet
  facet normal -0.951057 -0.309015 0
    outer loop
      vertex -4.35862 -1.1191 18
      vertex -4.18399 -1.65656 -18
      vertex -4.18399 -1.65656 18
    endloop
  endfacet
  facet normal 0.770512 -0.637425 0
    outer loop
      vertex 3.28036 -3.08046 18
      vertex 3.64058 -2.64503 -18
      vertex 3.64058 -2.64503 18
    endloop
  endfacet
  facet normal 0.770512 -0.637425 0
    outer loop
      vertex 3.64058 -2.64503 -18
      vertex 3.28036 -3.08046 18
      vertex 3.28036 -3.08046 -18
    endloop
  endfacet
  facet normal 0.481762 -0.876302 0
    outer loop
      vertex 1.91601 -4.07172 -18
      vertex 2.41122 -3.79947 18
      vertex 1.91601 -4.07172 18
    endloop
  endfacet
  facet normal 0.481762 -0.876302 0
    outer loop
      vertex 2.41122 -3.79947 18
      vertex 1.91601 -4.07172 -18
      vertex 2.41122 -3.79947 -18
    endloop
  endfacet
  facet normal 0.481762 0.876302 -0
    outer loop
      vertex 2.41122 3.79947 -18
      vertex 1.91601 4.07172 18
      vertex 2.41122 3.79947 18
    endloop
  endfacet
  facet normal 0.481762 0.876302 0
    outer loop
      vertex 1.91601 4.07172 18
      vertex 2.41122 3.79947 -18
      vertex 1.91601 4.07172 -18
    endloop
  endfacet
  facet normal -0.770512 0.637425 0
    outer loop
      vertex -3.64058 2.64503 -18
      vertex -3.28036 3.08046 18
      vertex -3.28036 3.08046 -18
    endloop
  endfacet
  facet normal -0.770512 0.637425 0
    outer loop
      vertex -3.28036 3.08046 18
      vertex -3.64058 2.64503 -18
      vertex -3.64058 2.64503 18
    endloop
  endfacet
  facet normal 0 0 1
    outer loop
      vertex 1.35 0 18
      vertex 4.5 0 18
      vertex 4.46452 0.563999 18
    endloop
  endfacet
  facet normal 0 0 1
    outer loop
      vertex 1.33935 0.169199 18
      vertex 4.46452 0.563999 18
      vertex 4.35862 1.1191 18
    endloop
  endfacet
  facet normal 0 0 1
    outer loop
      vertex 4.5 0 18
      vertex 1.35 0 18
      vertex 4.46452 -0.563999 18
    endloop
  endfacet
  facet normal 0 0 1
    outer loop
      vertex 1.30759 0.335731 18
      vertex 4.35862 1.1191 18
      vertex 4.18399 1.65656 18
    endloop
  endfacet
  facet normal -0 0 1
    outer loop
      vertex 1.33935 -0.169199 18
      vertex 4.46452 -0.563999 18
      vertex 1.35 0 18
    endloop
  endfacet
  facet normal 0 0 1
    outer loop
      vertex 1.2552 0.496967 18
      vertex 4.18399 1.65656 18
      vertex 3.94338 2.16789 18
    endloop
  endfacet
  facet normal 0 0 1
    outer loop
      vertex 4.46452 -0.563999 18
      vertex 1.33935 -0.169199 18
      vertex 4.35862 -1.1191 18
    endloop
  endfacet
  facet normal 0 0 1
    outer loop
      vertex 1.18301 0.650367 18
      vertex 3.94338 2.16789 18
      vertex 3.64058 2.64503 18
    endloop
  endfacet
  facet normal -0 0 1
    outer loop
      vertex 1.30759 -0.335731 18
      vertex 4.35862 -1.1191 18
      vertex 1.33935 -0.169199 18
    endloop
  endfacet
  facet normal 0 0 1
    outer loop
      vertex 1.09217 0.793509 18
      vertex 3.64058 2.64503 18
      vertex 3.28036 3.08046 18
    endloop
  endfacet
  facet normal 0 0 1
    outer loop
      vertex 4.35862 -1.1191 18
      vertex 1.30759 -0.335731 18
      vertex 4.18399 -1.65656 18
    endloop
  endfacet
  facet normal 0 0 1
    outer loop
      vertex 0.984107 0.924138 18
      vertex 3.28036 3.08046 18
      vertex 2.86841 3.46731 18
    endloop
  endfacet
  facet normal -0 0 1
    outer loop
      vertex 1.2552 -0.496967 18
      vertex 4.18399 -1.65656 18
      vertex 1.30759 -0.335731 18
    endloop
  endfacet
  facet normal 0 0 1
    outer loop
      vertex 0.860522 1.04019 18
      vertex 2.86841 3.46731 18
      vertex 2.41122 3.79947 18
    endloop
  endfacet
  facet normal 0 0 1
    outer loop
      vertex 4.18399 -1.65656 18
      vertex 1.2552 -0.496967 18
      vertex 3.94338 -2.16789 18
    endloop
  endfacet
  facet normal 0 0 1
    outer loop
      vertex 0.723366 1.13984 18
      vertex 2.41122 3.79947 18
      vertex 1.91601 4.07172 18
    endloop
  endfacet
  facet normal -0 0 1
    outer loop
      vertex 1.18301 -0.650367 18
      vertex 3.94338 -2.16789 18
      vertex 1.2552 -0.496967 18
    endloop
  endfacet
  facet normal 0 0 1
    outer loop
      vertex 0.574801 1.22152 18
      vertex 1.91601 4.07172 18
      vertex 1.39058 4.27975 18
    endloop
  endfacet
  facet normal 0 0 1
    outer loop
      vertex 3.94338 -2.16789 18
      vertex 1.18301 -0.650367 18
      vertex 3.64058 -2.64503 18
    endloop
  endfacet
  facet normal -0 0 1
    outer loop
      vertex 1.09217 -0.793509 18
      vertex 3.64058 -2.64503 18
      vertex 1.18301 -0.650367 18
    endloop
  endfacet
  facet normal 0 0 1
    outer loop
      vertex 4.46452 0.563999 18
      vertex 1.33935 0.169199 18
      vertex 1.35 0 18
    endloop
  endfacet
  facet normal 0 0 1
    outer loop
      vertex 4.35862 1.1191 18
      vertex 1.30759 0.335731 18
      vertex 1.33935 0.169199 18
    endloop
  endfacet
  facet normal 0 0 1
    outer loop
      vertex 4.18399 1.65656 18
      vertex 1.2552 0.496967 18
      vertex 1.30759 0.335731 18
    endloop
  endfacet
  facet normal 0 0 1
    outer loop
      vertex 3.94338 2.16789 18
      vertex 1.18301 0.650367 18
      vertex 1.2552 0.496967 18
    endloop
  endfacet
  facet normal 0 0 1
    outer loop
      vertex 3.64058 2.64503 18
      vertex 1.09217 0.793509 18
      vertex 1.18301 0.650367 18
    endloop
  endfacet
  facet normal 0 0 1
    outer loop
      vertex 3.28036 3.08046 18
      vertex 0.984107 0.924138 18
      vertex 1.09217 0.793509 18
    endloop
  endfacet
  facet normal 0 0 1
    outer loop
      vertex 2.86841 3.46731 18
      vertex 0.860522 1.04019 18
      vertex 0.984107 0.924138 18
    endloop
  endfacet
  facet normal 0 0 1
    outer loop
      vertex 0.417172 1.28393 18
      vertex 1.39058 4.27975 18
      vertex 0.843215 4.42029 18
    endloop
  endfacet
  facet normal 0 0 1
    outer loop
      vertex 2.41122 3.79947 18
      vertex 0.723366 1.13984 18
      vertex 0.860522 1.04019 18
    endloop
  endfacet
  facet normal 0 0 1
    outer loop
      vertex 1.91601 4.07172 18
      vertex 0.574801 1.22152 18
      vertex 0.723366 1.13984 18
    endloop
  endfacet
  facet normal 0 0 1
    outer loop
      vertex 1.39058 4.27975 18
      vertex 0.417172 1.28393 18
      vertex 0.574801 1.22152 18
    endloop
  endfacet
  facet normal 0 0 1
    outer loop
      vertex 0.252964 1.32609 18
      vertex 0.843215 4.42029 18
      vertex 0.282557 4.49112 18
    endloop
  endfacet
  facet normal 0 0 1
    outer loop
      vertex 0.843215 4.42029 18
      vertex 0.252964 1.32609 18
      vertex 0.417172 1.28393 18
    endloop
  endfacet
  facet normal 0 0 1
    outer loop
      vertex 0.282557 4.49112 18
      vertex 0.0847664 1.34734 18
      vertex 0.252964 1.32609 18
    endloop
  endfacet
  facet normal 0 0 1
    outer loop
      vertex 0.282557 4.49112 18
      vertex -0.0847664 1.34734 18
      vertex 0.0847664 1.34734 18
    endloop
  endfacet
  facet normal -0 0 1
    outer loop
      vertex -0.282557 4.49112 18
      vertex -0.0847664 1.34734 18
      vertex 0.282557 4.49112 18
    endloop
  endfacet
  facet normal 0 0 1
    outer loop
      vertex -0.0847664 1.34734 18
      vertex -0.282557 4.49112 18
      vertex -0.252964 1.32609 18
    endloop
  endfacet
  facet normal -0 0 1
    outer loop
      vertex -0.843215 4.42029 18
      vertex -0.252964 1.32609 18
      vertex -0.282557 4.49112 18
    endloop
  endfacet
  facet normal 0 0 1
    outer loop
      vertex -0.252964 1.32609 18
      vertex -0.843215 4.42029 18
      vertex -0.417172 1.28393 18
    endloop
  endfacet
  facet normal -0 0 1
    outer loop
      vertex -1.39058 4.27975 18
      vertex -0.417172 1.28393 18
      vertex -0.843215 4.42029 18
    endloop
  endfacet
  facet normal 0 0 1
    outer loop
      vertex -0.417172 1.28393 18
      vertex -1.39058 4.27975 18
      vertex -0.574801 1.22152 18
    endloop
  endfacet
  facet normal -0 0 1
    outer loop
      vertex -1.91601 4.07172 18
      vertex -0.574801 1.22152 18
      vertex -1.39058 4.27975 18
    endloop
  endfacet
  facet normal 0 0 1
    outer loop
      vertex -0.574801 1.22152 18
      vertex -1.91601 4.07172 18
      vertex -0.723366 1.13984 18
    endloop
  endfacet
  facet normal -0 0 1
    outer loop
      vertex -2.41122 3.79947 18
      vertex -0.723366 1.13984 18
      vertex -1.91601 4.07172 18
    endloop
  endfacet
  facet normal 0 0 1
    outer loop
      vertex -0.723366 1.13984 18
      vertex -2.41122 3.79947 18
      vertex -0.860522 1.04019 18
    endloop
  endfacet
  facet normal -0 0 1
    outer loop
      vertex -2.86841 3.46731 18
      vertex -0.860522 1.04019 18
      vertex -2.41122 3.79947 18
    endloop
  endfacet
  facet normal 0 0 1
    outer loop
      vertex -0.860522 1.04019 18
      vertex -2.86841 3.46731 18
      vertex -0.984107 0.924138 18
    endloop
  endfacet
  facet normal -0 0 1
    outer loop
      vertex -3.28036 3.08046 18
      vertex -0.984107 0.924138 18
      vertex -2.86841 3.46731 18
    endloop
  endfacet
  facet normal -0 0 1
    outer loop
      vertex -3.64058 2.64503 18
      vertex -1.09217 0.793509 18
      vertex -3.28036 3.08046 18
    endloop
  endfacet
  facet normal 0 0 1
    outer loop
      vertex -0.984107 0.924138 18
      vertex -3.28036 3.08046 18
      vertex -1.09217 0.793509 18
    endloop
  endfacet
  facet normal 0 0 1
    outer loop
      vertex 3.64058 -2.64503 18
      vertex 1.09217 -0.793509 18
      vertex 3.28036 -3.08046 18
    endloop
  endfacet
  facet normal -0 0 1
    outer loop
      vertex 0.984107 -0.924138 18
      vertex 3.28036 -3.08046 18
      vertex 1.09217 -0.793509 18
    endloop
  endfacet
  facet normal 0 0 1
    outer loop
      vertex 3.28036 -3.08046 18
      vertex 0.984107 -0.924138 18
      vertex 2.86841 -3.46731 18
    endloop
  endfacet
  facet normal -0 0 1
    outer loop
      vertex 0.860522 -1.04019 18
      vertex 2.86841 -3.46731 18
      vertex 0.984107 -0.924138 18
    endloop
  endfacet
  facet normal 0 0 1
    outer loop
      vertex 2.86841 -3.46731 18
      vertex 0.860522 -1.04019 18
      vertex 2.41122 -3.79947 18
    endloop
  endfacet
  facet normal -0 0 1
    outer loop
      vertex 0.723366 -1.13984 18
      vertex 2.41122 -3.79947 18
      vertex 0.860522 -1.04019 18
    endloop
  endfacet
  facet normal 0 0 1
    outer loop
      vertex 2.41122 -3.79947 18
      vertex 0.723366 -1.13984 18
      vertex 1.91601 -4.07172 18
    endloop
  endfacet
  facet normal -0 0 1
    outer loop
      vertex 0.574801 -1.22152 18
      vertex 1.91601 -4.07172 18
      vertex 0.723366 -1.13984 18
    endloop
  endfacet
  facet normal 0 0 1
    outer loop
      vertex 1.91601 -4.07172 18
      vertex 0.574801 -1.22152 18
      vertex 1.39058 -4.27975 18
    endloop
  endfacet
  facet normal -0 0 1
    outer loop
      vertex 0.417172 -1.28393 18
      vertex 1.39058 -4.27975 18
      vertex 0.574801 -1.22152 18
    endloop
  endfacet
  facet normal 0 0 1
    outer loop
      vertex 1.39058 -4.27975 18
      vertex 0.417172 -1.28393 18
      vertex 0.843215 -4.42029 18
    endloop
  endfacet
  facet normal -0 0 1
    outer loop
      vertex 0.252964 -1.32609 18
      vertex 0.843215 -4.42029 18
      vertex 0.417172 -1.28393 18
    endloop
  endfacet
  facet normal 0 0 1
    outer loop
      vertex 0.843215 -4.42029 18
      vertex 0.252964 -1.32609 18
      vertex 0.282557 -4.49112 18
    endloop
  endfacet
  facet normal -0 0 1
    outer loop
      vertex 0.0847664 -1.34734 18
      vertex 0.282557 -4.49112 18
      vertex 0.252964 -1.32609 18
    endloop
  endfacet
  facet normal -0 0 1
    outer loop
      vertex -0.0847664 -1.34734 18
      vertex 0.282557 -4.49112 18
      vertex 0.0847664 -1.34734 18
    endloop
  endfacet
  facet normal 0 0 1
    outer loop
      vertex -0.282557 -4.49112 18
      vertex -0.0847664 -1.34734 18
      vertex -0.252964 -1.32609 18
    endloop
  endfacet
  facet normal 0 0 1
    outer loop
      vertex -0.0847664 -1.34734 18
      vertex -0.282557 -4.49112 18
      vertex 0.282557 -4.49112 18
    endloop
  endfacet
  facet normal 0 0 1
    outer loop
      vertex -0.843215 -4.42029 18
      vertex -0.252964 -1.32609 18
      vertex -0.417172 -1.28393 18
    endloop
  endfacet
  facet normal 0 0 1
    outer loop
      vertex -1.39058 -4.27975 18
      vertex -0.417172 -1.28393 18
      vertex -0.574801 -1.22152 18
    endloop
  endfacet
  facet normal 0 0 1
    outer loop
      vertex -1.91601 -4.07172 18
      vertex -0.574801 -1.22152 18
      vertex -0.723366 -1.13984 18
    endloop
  endfacet
  facet normal 0 0 1
    outer loop
      vertex -0.252964 -1.32609 18
      vertex -0.843215 -4.42029 18
      vertex -0.282557 -4.49112 18
    endloop
  endfacet
  facet normal 0 0 1
    outer loop
      vertex -2.41122 -3.79947 18
      vertex -0.723366 -1.13984 18
      vertex -0.860522 -1.04019 18
    endloop
  endfacet
  facet normal 0 0 1
    outer loop
      vertex -2.86841 -3.46731 18
      vertex -0.860522 -1.04019 18
      vertex -0.984107 -0.924138 18
    endloop
  endfacet
  facet normal 0 0 1
    outer loop
      vertex -3.28036 -3.08046 18
      vertex -0.984107 -0.924138 18
      vertex -1.09217 -0.793509 18
    endloop
  endfacet
  facet normal 0 0 1
    outer loop
      vertex -3.64058 -2.64503 18
      vertex -1.09217 -0.793509 18
      vertex -1.18301 -0.650367 18
    endloop
  endfacet
  facet normal 0 0 1
    outer loop
      vertex -3.94338 -2.16789 18
      vertex -1.18301 -0.650367 18
      vertex -1.2552 -0.496967 18
    endloop
  endfacet
  facet normal 0 0 1
    outer loop
      vertex -4.18399 -1.65656 18
      vertex -1.2552 -0.496967 18
      vertex -1.30759 -0.335731 18
    endloop
  endfacet
  facet normal 0 0 1
    outer loop
      vertex -4.35862 -1.1191 18
      vertex -1.30759 -0.335731 18
      vertex -1.33935 -0.169199 18
    endloop
  endfacet
  facet normal 0 0 1
    outer loop
      vertex -0.417172 -1.28393 18
      vertex -1.39058 -4.27975 18
      vertex -0.843215 -4.42029 18
    endloop
  endfacet
  facet normal 0 0 1
    outer loop
      vertex -4.46452 -0.563999 18
      vertex -1.33935 -0.169199 18
      vertex -1.35 0 18
    endloop
  endfacet
  facet normal 0 0 1
    outer loop
      vertex -1.09217 0.793509 18
      vertex -3.64058 2.64503 18
      vertex -1.18301 0.650367 18
    endloop
  endfacet
  facet normal -0 0 1
    outer loop
      vertex -3.94338 2.16789 18
      vertex -1.18301 0.650367 18
      vertex -3.64058 2.64503 18
    endloop
  endfacet
  facet normal 0 0 1
    outer loop
      vertex -0.574801 -1.22152 18
      vertex -1.91601 -4.07172 18
      vertex -1.39058 -4.27975 18
    endloop
  endfacet
  facet normal 0 0 1
    outer loop
      vertex -1.18301 0.650367 18
      vertex -3.94338 2.16789 18
      vertex -1.2552 0.496967 18
    endloop
  endfacet
  facet normal 0 0 1
    outer loop
      vertex -0.723366 -1.13984 18
      vertex -2.41122 -3.79947 18
      vertex -1.91601 -4.07172 18
    endloop
  endfacet
  facet normal -0 0 1
    outer loop
      vertex -4.18399 1.65656 18
      vertex -1.2552 0.496967 18
      vertex -3.94338 2.16789 18
    endloop
  endfacet
  facet normal 0 0 1
    outer loop
      vertex -0.860522 -1.04019 18
      vertex -2.86841 -3.46731 18
      vertex -2.41122 -3.79947 18
    endloop
  endfacet
  facet normal 0 0 1
    outer loop
      vertex -1.2552 0.496967 18
      vertex -4.18399 1.65656 18
      vertex -1.30759 0.335731 18
    endloop
  endfacet
  facet normal 0 0 1
    outer loop
      vertex -0.984107 -0.924138 18
      vertex -3.28036 -3.08046 18
      vertex -2.86841 -3.46731 18
    endloop
  endfacet
  facet normal -0 0 1
    outer loop
      vertex -4.35862 1.1191 18
      vertex -1.30759 0.335731 18
      vertex -4.18399 1.65656 18
    endloop
  endfacet
  facet normal 0 0 1
    outer loop
      vertex -1.09217 -0.793509 18
      vertex -3.64058 -2.64503 18
      vertex -3.28036 -3.08046 18
    endloop
  endfacet
  facet normal 0 0 1
    outer loop
      vertex -1.30759 0.335731 18
      vertex -4.35862 1.1191 18
      vertex -1.33935 0.169199 18
    endloop
  endfacet
  facet normal 0 0 1
    outer loop
      vertex -1.18301 -0.650367 18
      vertex -3.94338 -2.16789 18
      vertex -3.64058 -2.64503 18
    endloop
  endfacet
  facet normal -0 0 1
    outer loop
      vertex -4.46452 0.563999 18
      vertex -1.33935 0.169199 18
      vertex -4.35862 1.1191 18
    endloop
  endfacet
  facet normal 0 0 1
    outer loop
      vertex -1.2552 -0.496967 18
      vertex -4.18399 -1.65656 18
      vertex -3.94338 -2.16789 18
    endloop
  endfacet
  facet normal 0 0 1
    outer loop
      vertex -1.33935 0.169199 18
      vertex -4.46452 0.563999 18
      vertex -1.35 0 18
    endloop
  endfacet
  facet normal 0 0 1
    outer loop
      vertex -1.30759 -0.335731 18
      vertex -4.35862 -1.1191 18
      vertex -4.18399 -1.65656 18
    endloop
  endfacet
  facet normal 0 0 1
    outer loop
      vertex -4.5 0 18
      vertex -1.35 0 18
      vertex -4.46452 0.563999 18
    endloop
  endfacet
  facet normal 0 0 1
    outer loop
      vertex -1.33935 -0.169199 18
      vertex -4.46452 -0.563999 18
      vertex -4.35862 -1.1191 18
    endloop
  endfacet
  facet normal 0 0 1
    outer loop
      vertex -1.35 0 18
      vertex -4.5 0 18
      vertex -4.46452 -0.563999 18
    endloop
  endfacet
  facet normal -0.982284 0.187396 0
    outer loop
      vertex -4.46452 0.563999 -18
      vertex -4.35862 1.1191 18
      vertex -4.35862 1.1191 -18
    endloop
  endfacet
  facet normal -0.982284 0.187396 0
    outer loop
      vertex -4.35862 1.1191 18
      vertex -4.46452 0.563999 -18
      vertex -4.46452 0.563999 18
    endloop
  endfacet
  facet normal -0.587776 0.809024 0
    outer loop
      vertex -2.41122 3.79947 -18
      vertex -2.86841 3.46731 18
      vertex -2.41122 3.79947 18
    endloop
  endfacet
  facet normal -0.587776 0.809024 0
    outer loop
      vertex -2.86841 3.46731 18
      vertex -2.41122 3.79947 -18
      vertex -2.86841 3.46731 -18
    endloop
  endfacet
  facet normal 0.951057 -0.309015 0
    outer loop
      vertex 4.18399 -1.65656 18
      vertex 4.35862 -1.1191 -18
      vertex 4.35862 -1.1191 18
    endloop
  endfacet
  facet normal 0.951057 -0.309015 0
    outer loop
      vertex 4.35862 -1.1191 -18
      vertex 4.18399 -1.65656 18
      vertex 4.18399 -1.65656 -18
    endloop
  endfacet
  facet normal 0.90483 -0.425774 0
    outer loop
      vertex 3.94338 -2.16789 18
      vertex 4.18399 -1.65656 -18
      vertex 4.18399 -1.65656 18
    endloop
  endfacet
  facet normal 0.90483 -0.425774 0
    outer loop
      vertex 4.18399 -1.65656 -18
      vertex 3.94338 -2.16789 18
      vertex 3.94338 -2.16789 -18
    endloop
  endfacet
  facet normal -0.368121 -0.929778 0
    outer loop
      vertex -1.91601 -4.07172 -18
      vertex -1.39058 -4.27975 18
      vertex -1.91601 -4.07172 18
    endloop
  endfacet
  facet normal -0.368121 -0.929778 -0
    outer loop
      vertex -1.39058 -4.27975 18
      vertex -1.91601 -4.07172 -18
      vertex -1.39058 -4.27975 -18
    endloop
  endfacet
  facet normal -0.998027 -0.0627838 0
    outer loop
      vertex -4.46452 -0.563999 -18
      vertex -4.5 0 18
      vertex -4.5 0 -18
    endloop
  endfacet
  facet normal -0.998027 -0.0627838 0
    outer loop
      vertex -4.5 0 18
      vertex -4.46452 -0.563999 -18
      vertex -4.46452 -0.563999 18
    endloop
  endfacet
  facet normal 0.125337 -0.992114 0
    outer loop
      vertex 0.282557 -4.49112 -18
      vertex 0.843215 -4.42029 18
      vertex 0.282557 -4.49112 18
    endloop
  endfacet
  facet normal 0.125337 -0.992114 0
    outer loop
      vertex 0.843215 -4.42029 18
      vertex 0.282557 -4.49112 -18
      vertex 0.843215 -4.42029 -18
    endloop
  endfacet
  facet normal 0.587776 -0.809024 0
    outer loop
      vertex 2.41122 -3.79947 -18
      vertex 2.86841 -3.46731 18
      vertex 2.41122 -3.79947 18
    endloop
  endfacet
  facet normal 0.587776 -0.809024 0
    outer loop
      vertex 2.86841 -3.46731 18
      vertex 2.41122 -3.79947 -18
      vertex 2.86841 -3.46731 -18
    endloop
  endfacet
  facet normal 0.368121 -0.929778 0
    outer loop
      vertex 1.39058 -4.27975 -18
      vertex 1.91601 -4.07172 18
      vertex 1.39058 -4.27975 18
    endloop
  endfacet
  facet normal 0.368121 -0.929778 0
    outer loop
      vertex 1.91601 -4.07172 18
      vertex 1.39058 -4.27975 -18
      vertex 1.91601 -4.07172 -18
    endloop
  endfacet
  facet normal 0 -1 0
    outer loop
      vertex -0.282557 -4.49112 -18
      vertex 0.282557 -4.49112 18
      vertex -0.282557 -4.49112 18
    endloop
  endfacet
  facet normal 0 -1 -0
    outer loop
      vertex 0.282557 -4.49112 18
      vertex -0.282557 -4.49112 -18
      vertex 0.282557 -4.49112 -18
    endloop
  endfacet
  facet normal -0.125337 -0.992114 0
    outer loop
      vertex -0.843215 -4.42029 -18
      vertex -0.282557 -4.49112 18
      vertex -0.843215 -4.42029 18
    endloop
  endfacet
  facet normal -0.125337 -0.992114 -0
    outer loop
      vertex -0.282557 -4.49112 18
      vertex -0.843215 -4.42029 -18
      vertex -0.282557 -4.49112 -18
    endloop
  endfacet
  facet normal -0.248691 -0.968583 0
    outer loop
      vertex -1.39058 -4.27975 -18
      vertex -0.843215 -4.42029 18
      vertex -1.39058 -4.27975 18
    endloop
  endfacet
  facet normal -0.248691 -0.968583 -0
    outer loop
      vertex -0.843215 -4.42029 18
      vertex -1.39058 -4.27975 -18
      vertex -0.843215 -4.42029 -18
    endloop
  endfacet
  facet normal -0.68455 -0.728966 0
    outer loop
      vertex -3.28036 -3.08046 -18
      vertex -2.86841 -3.46731 18
      vertex -3.28036 -3.08046 18
    endloop
  endfacet
  facet normal -0.68455 -0.728966 -0
    outer loop
      vertex -2.86841 -3.46731 18
      vertex -3.28036 -3.08046 -18
      vertex -2.86841 -3.46731 -18
    endloop
  endfacet
  facet normal -0.481762 -0.876302 0
    outer loop
      vertex -2.41122 -3.79947 -18
      vertex -1.91601 -4.07172 18
      vertex -2.41122 -3.79947 18
    endloop
  endfacet
  facet normal -0.481762 -0.876302 -0
    outer loop
      vertex -1.91601 -4.07172 18
      vertex -2.41122 -3.79947 -18
      vertex -1.91601 -4.07172 -18
    endloop
  endfacet
  facet normal -0.770512 -0.637425 0
    outer loop
      vertex -3.28036 -3.08046 -18
      vertex -3.64058 -2.64503 18
      vertex -3.64058 -2.64503 -18
    endloop
  endfacet
  facet normal -0.770512 -0.637425 0
    outer loop
      vertex -3.64058 -2.64503 18
      vertex -3.28036 -3.08046 -18
      vertex -3.28036 -3.08046 18
    endloop
  endfacet
  facet normal -0.84433 -0.535824 0
    outer loop
      vertex -3.64058 -2.64503 -18
      vertex -3.94338 -2.16789 18
      vertex -3.94338 -2.16789 -18
    endloop
  endfacet
  facet normal -0.84433 -0.535824 0
    outer loop
      vertex -3.94338 -2.16789 18
      vertex -3.64058 -2.64503 -18
      vertex -3.64058 -2.64503 18
    endloop
  endfacet
  facet normal 0 0 -1
    outer loop
      vertex 1.35 0 -18
      vertex 4.5 0 -18
      vertex 4.46452 -0.563999 -18
    endloop
  endfacet
  facet normal 0 0 -1
    outer loop
      vertex 1.33935 -0.169199 -18
      vertex 4.46452 -0.563999 -18
      vertex 4.35862 -1.1191 -18
    endloop
  endfacet
  facet normal 0 0 -1
    outer loop
      vertex 4.5 0 -18
      vertex 1.35 0 -18
      vertex 4.46452 0.563999 -18
    endloop
  endfacet
  facet normal 0 0 -1
    outer loop
      vertex 1.30759 -0.335731 -18
      vertex 4.35862 -1.1191 -18
      vertex 4.18399 -1.65656 -18
    endloop
  endfacet
  facet normal 0 0 -1
    outer loop
      vertex 1.33935 0.169199 -18
      vertex 4.46452 0.563999 -18
      vertex 1.35 0 -18
    endloop
  endfacet
  facet normal 0 0 -1
    outer loop
      vertex 1.2552 -0.496967 -18
      vertex 4.18399 -1.65656 -18
      vertex 3.94338 -2.16789 -18
    endloop
  endfacet
  facet normal -0 0 -1
    outer loop
      vertex 4.46452 0.563999 -18
      vertex 1.33935 0.169199 -18
      vertex 4.35862 1.1191 -18
    endloop
  endfacet
  facet normal 0 0 -1
    outer loop
      vertex 1.18301 -0.650367 -18
      vertex 3.94338 -2.16789 -18
      vertex 3.64058 -2.64503 -18
    endloop
  endfacet
  facet normal 0 0 -1
    outer loop
      vertex 1.30759 0.335731 -18
      vertex 4.35862 1.1191 -18
      vertex 1.33935 0.169199 -18
    endloop
  endfacet
  facet normal 0 0 -1
    outer loop
      vertex 1.09217 -0.793509 -18
      vertex 3.64058 -2.64503 -18
      vertex 3.28036 -3.08046 -18
    endloop
  endfacet
  facet normal -0 0 -1
    outer loop
      vertex 4.35862 1.1191 -18
      vertex 1.30759 0.335731 -18
      vertex 4.18399 1.65656 -18
    endloop
  endfacet
  facet normal 0 0 -1
    outer loop
      vertex 0.984107 -0.924138 -18
      vertex 3.28036 -3.08046 -18
      vertex 2.86841 -3.46731 -18
    endloop
  endfacet
  facet normal 0 0 -1
    outer loop
      vertex 1.2552 0.496967 -18
      vertex 4.18399 1.65656 -18
      vertex 1.30759 0.335731 -18
    endloop
  endfacet
  facet normal 0 0 -1
    outer loop
      vertex 0.860522 -1.04019 -18
      vertex 2.86841 -3.46731 -18
      vertex 2.41122 -3.79947 -18
    endloop
  endfacet
  facet normal -0 0 -1
    outer loop
      vertex 4.18399 1.65656 -18
      vertex 1.2552 0.496967 -18
      vertex 3.94338 2.16789 -18
    endloop
  endfacet
  facet normal 0 0 -1
    outer loop
      vertex 0.723366 -1.13984 -18
      vertex 2.41122 -3.79947 -18
      vertex 1.91601 -4.07172 -18
    endloop
  endfacet
  facet normal 0 0 -1
    outer loop
      vertex 1.18301 0.650367 -18
      vertex 3.94338 2.16789 -18
      vertex 1.2552 0.496967 -18
    endloop
  endfacet
  facet normal 0 0 -1
    outer loop
      vertex 0.574801 -1.22152 -18
      vertex 1.91601 -4.07172 -18
      vertex 1.39058 -4.27975 -18
    endloop
  endfacet
  facet normal -0 0 -1
    outer loop
      vertex 3.94338 2.16789 -18
      vertex 1.18301 0.650367 -18
      vertex 3.64058 2.64503 -18
    endloop
  endfacet
  facet normal 0 0 -1
    outer loop
      vertex 1.09217 0.793509 -18
      vertex 3.64058 2.64503 -18
      vertex 1.18301 0.650367 -18
    endloop
  endfacet
  facet normal 0 0 -1
    outer loop
      vertex 4.46452 -0.563999 -18
      vertex 1.33935 -0.169199 -18
      vertex 1.35 0 -18
    endloop
  endfacet
  facet normal 0 0 -1
    outer loop
      vertex 4.35862 -1.1191 -18
      vertex 1.30759 -0.335731 -18
      vertex 1.33935 -0.169199 -18
    endloop
  endfacet
  facet normal 0 0 -1
    outer loop
      vertex 4.18399 -1.65656 -18
      vertex 1.2552 -0.496967 -18
      vertex 1.30759 -0.335731 -18
    endloop
  endfacet
  facet normal 0 0 -1
    outer loop
      vertex 3.94338 -2.16789 -18
      vertex 1.18301 -0.650367 -18
      vertex 1.2552 -0.496967 -18
    endloop
  endfacet
  facet normal 0 0 -1
    outer loop
      vertex 3.64058 -2.64503 -18
      vertex 1.09217 -0.793509 -18
      vertex 1.18301 -0.650367 -18
    endloop
  endfacet
  facet normal 0 0 -1
    outer loop
      vertex 3.28036 -3.08046 -18
      vertex 0.984107 -0.924138 -18
      vertex 1.09217 -0.793509 -18
    endloop
  endfacet
  facet normal 0 0 -1
    outer loop
      vertex 2.86841 -3.46731 -18
      vertex 0.860522 -1.04019 -18
      vertex 0.984107 -0.924138 -18
    endloop
  endfacet
  facet normal 0 0 -1
    outer loop
      vertex 0.417172 -1.28393 -18
      vertex 1.39058 -4.27975 -18
      vertex 0.843215 -4.42029 -18
    endloop
  endfacet
  facet normal 0 0 -1
    outer loop
      vertex 2.41122 -3.79947 -18
      vertex 0.723366 -1.13984 -18
      vertex 0.860522 -1.04019 -18
    endloop
  endfacet
  facet normal 0 0 -1
    outer loop
      vertex 1.91601 -4.07172 -18
      vertex 0.574801 -1.22152 -18
      vertex 0.723366 -1.13984 -18
    endloop
  endfacet
  facet normal 0 0 -1
    outer loop
      vertex 1.39058 -4.27975 -18
      vertex 0.417172 -1.28393 -18
      vertex 0.574801 -1.22152 -18
    endloop
  endfacet
  facet normal 0 0 -1
    outer loop
      vertex 0.252964 -1.32609 -18
      vertex 0.843215 -4.42029 -18
      vertex 0.282557 -4.49112 -18
    endloop
  endfacet
  facet normal 0 0 -1
    outer loop
      vertex 0.843215 -4.42029 -18
      vertex 0.252964 -1.32609 -18
      vertex 0.417172 -1.28393 -18
    endloop
  endfacet
  facet normal 0 0 -1
    outer loop
      vertex 0.282557 -4.49112 -18
      vertex 0.0847664 -1.34734 -18
      vertex 0.252964 -1.32609 -18
    endloop
  endfacet
  facet normal 0 0 -1
    outer loop
      vertex 0.282557 -4.49112 -18
      vertex -0.0847664 -1.34734 -18
      vertex 0.0847664 -1.34734 -18
    endloop
  endfacet
  facet normal 0 0 -1
    outer loop
      vertex -0.282557 -4.49112 -18
      vertex -0.0847664 -1.34734 -18
      vertex 0.282557 -4.49112 -18
    endloop
  endfacet
  facet normal -0 0 -1
    outer loop
      vertex -0.0847664 -1.34734 -18
      vertex -0.282557 -4.49112 -18
      vertex -0.252964 -1.32609 -18
    endloop
  endfacet
  facet normal 0 0 -1
    outer loop
      vertex -0.843215 -4.42029 -18
      vertex -0.252964 -1.32609 -18
      vertex -0.282557 -4.49112 -18
    endloop
  endfacet
  facet normal -0 0 -1
    outer loop
      vertex -0.252964 -1.32609 -18
      vertex -0.843215 -4.42029 -18
      vertex -0.417172 -1.28393 -18
    endloop
  endfacet
  facet normal 0 0 -1
    outer loop
      vertex -1.39058 -4.27975 -18
      vertex -0.417172 -1.28393 -18
      vertex -0.843215 -4.42029 -18
    endloop
  endfacet
  facet normal -0 0 -1
    outer loop
      vertex -0.417172 -1.28393 -18
      vertex -1.39058 -4.27975 -18
      vertex -0.574801 -1.22152 -18
    endloop
  endfacet
  facet normal 0 0 -1
    outer loop
      vertex -1.91601 -4.07172 -18
      vertex -0.574801 -1.22152 -18
      vertex -1.39058 -4.27975 -18
    endloop
  endfacet
  facet normal -0 0 -1
    outer loop
      vertex -0.574801 -1.22152 -18
      vertex -1.91601 -4.07172 -18
      vertex -0.723366 -1.13984 -18
    endloop
  endfacet
  facet normal 0 0 -1
    outer loop
      vertex -2.41122 -3.79947 -18
      vertex -0.723366 -1.13984 -18
      vertex -1.91601 -4.07172 -18
    endloop
  endfacet
  facet normal -0 0 -1
    outer loop
      vertex -0.723366 -1.13984 -18
      vertex -2.41122 -3.79947 -18
      vertex -0.860522 -1.04019 -18
    endloop
  endfacet
  facet normal 0 0 -1
    outer loop
      vertex -2.86841 -3.46731 -18
      vertex -0.860522 -1.04019 -18
      vertex -2.41122 -3.79947 -18
    endloop
  endfacet
  facet normal -0 0 -1
    outer loop
      vertex -0.860522 -1.04019 -18
      vertex -2.86841 -3.46731 -18
      vertex -0.984107 -0.924138 -18
    endloop
  endfacet
  facet normal 0 0 -1
    outer loop
      vertex -3.28036 -3.08046 -18
      vertex -0.984107 -0.924138 -18
      vertex -2.86841 -3.46731 -18
    endloop
  endfacet
  facet normal 0 0 -1
    outer loop
      vertex -3.64058 -2.64503 -18
      vertex -1.09217 -0.793509 -18
      vertex -3.28036 -3.08046 -18
    endloop
  endfacet
  facet normal -0 0 -1
    outer loop
      vertex -0.984107 -0.924138 -18
      vertex -3.28036 -3.08046 -18
      vertex -1.09217 -0.793509 -18
    endloop
  endfacet
  facet normal -0 0 -1
    outer loop
      vertex 3.64058 2.64503 -18
      vertex 1.09217 0.793509 -18
      vertex 3.28036 3.08046 -18
    endloop
  endfacet
  facet normal 0 0 -1
    outer loop
      vertex 0.984107 0.924138 -18
      vertex 3.28036 3.08046 -18
      vertex 1.09217 0.793509 -18
    endloop
  endfacet
  facet normal -0 0 -1
    outer loop
      vertex 3.28036 3.08046 -18
      vertex 0.984107 0.924138 -18
      vertex 2.86841 3.46731 -18
    endloop
  endfacet
  facet normal 0 0 -1
    outer loop
      vertex 0.860522 1.04019 -18
      vertex 2.86841 3.46731 -18
      vertex 0.984107 0.924138 -18
    endloop
  endfacet
  facet normal -0 0 -1
    outer loop
      vertex 2.86841 3.46731 -18
      vertex 0.860522 1.04019 -18
      vertex 2.41122 3.79947 -18
    endloop
  endfacet
  facet normal 0 0 -1
    outer loop
      vertex 0.723366 1.13984 -18
      vertex 2.41122 3.79947 -18
      vertex 0.860522 1.04019 -18
    endloop
  endfacet
  facet normal -0 0 -1
    outer loop
      vertex 2.41122 3.79947 -18
      vertex 0.723366 1.13984 -18
      vertex 1.91601 4.07172 -18
    endloop
  endfacet
  facet normal 0 0 -1
    outer loop
      vertex 0.574801 1.22152 -18
      vertex 1.91601 4.07172 -18
      vertex 0.723366 1.13984 -18
    endloop
  endfacet
  facet normal -0 0 -1
    outer loop
      vertex 1.91601 4.07172 -18
      vertex 0.574801 1.22152 -18
      vertex 1.39058 4.27975 -18
    endloop
  endfacet
  facet normal 0 0 -1
    outer loop
      vertex 0.417172 1.28393 -18
      vertex 1.39058 4.27975 -18
      vertex 0.574801 1.22152 -18
    endloop
  endfacet
  facet normal -0 0 -1
    outer loop
      vertex 1.39058 4.27975 -18
      vertex 0.417172 1.28393 -18
      vertex 0.843215 4.42029 -18
    endloop
  endfacet
  facet normal 0 0 -1
    outer loop
      vertex 0.252964 1.32609 -18
      vertex 0.843215 4.42029 -18
      vertex 0.417172 1.28393 -18
    endloop
  endfacet
  facet normal -0 0 -1
    outer loop
      vertex 0.843215 4.42029 -18
      vertex 0.252964 1.32609 -18
      vertex 0.282557 4.49112 -18
    endloop
  endfacet
  facet normal 0 0 -1
    outer loop
      vertex 0.0847664 1.34734 -18
      vertex 0.282557 4.49112 -18
      vertex 0.252964 1.32609 -18
    endloop
  endfacet
  facet normal 0 0 -1
    outer loop
      vertex -0.0847664 1.34734 -18
      vertex 0.282557 4.49112 -18
      vertex 0.0847664 1.34734 -18
    endloop
  endfacet
  facet normal 0 0 -1
    outer loop
      vertex -0.282557 4.49112 -18
      vertex -0.0847664 1.34734 -18
      vertex -0.252964 1.32609 -18
    endloop
  endfacet
  facet normal 0 0 -1
    outer loop
      vertex -0.0847664 1.34734 -18
      vertex -0.282557 4.49112 -18
      vertex 0.282557 4.49112 -18
    endloop
  endfacet
  facet normal 0 0 -1
    outer loop
      vertex -0.843215 4.42029 -18
      vertex -0.252964 1.32609 -18
      vertex -0.417172 1.28393 -18
    endloop
  endfacet
  facet normal 0 0 -1
    outer loop
      vertex -1.39058 4.27975 -18
      vertex -0.417172 1.28393 -18
      vertex -0.574801 1.22152 -18
    endloop
  endfacet
  facet normal 0 0 -1
    outer loop
      vertex -1.91601 4.07172 -18
      vertex -0.574801 1.22152 -18
      vertex -0.723366 1.13984 -18
    endloop
  endfacet
  facet normal 0 0 -1
    outer loop
      vertex -0.252964 1.32609 -18
      vertex -0.843215 4.42029 -18
      vertex -0.282557 4.49112 -18
    endloop
  endfacet
  facet normal 0 0 -1
    outer loop
      vertex -2.41122 3.79947 -18
      vertex -0.723366 1.13984 -18
      vertex -0.860522 1.04019 -18
    endloop
  endfacet
  facet normal 0 0 -1
    outer loop
      vertex -2.86841 3.46731 -18
      vertex -0.860522 1.04019 -18
      vertex -0.984107 0.924138 -18
    endloop
  endfacet
  facet normal 0 0 -1
    outer loop
      vertex -3.28036 3.08046 -18
      vertex -0.984107 0.924138 -18
      vertex -1.09217 0.793509 -18
    endloop
  endfacet
  facet normal 0 0 -1
    outer loop
      vertex -3.64058 2.64503 -18
      vertex -1.09217 0.793509 -18
      vertex -1.18301 0.650367 -18
    endloop
  endfacet
  facet normal 0 0 -1
    outer loop
      vertex -3.94338 2.16789 -18
      vertex -1.18301 0.650367 -18
      vertex -1.2552 0.496967 -18
    endloop
  endfacet
  facet normal 0 0 -1
    outer loop
      vertex -4.18399 1.65656 -18
      vertex -1.2552 0.496967 -18
      vertex -1.30759 0.335731 -18
    endloop
  endfacet
  facet normal 0 0 -1
    outer loop
      vertex -4.35862 1.1191 -18
      vertex -1.30759 0.335731 -18
      vertex -1.33935 0.169199 -18
    endloop
  endfacet
  facet normal 0 0 -1
    outer loop
      vertex -0.417172 1.28393 -18
      vertex -1.39058 4.27975 -18
      vertex -0.843215 4.42029 -18
    endloop
  endfacet
  facet normal 0 0 -1
    outer loop
      vertex -4.46452 0.563999 -18
      vertex -1.33935 0.169199 -18
      vertex -1.35 0 -18
    endloop
  endfacet
  facet normal -0 0 -1
    outer loop
      vertex -1.09217 -0.793509 -18
      vertex -3.64058 -2.64503 -18
      vertex -1.18301 -0.650367 -18
    endloop
  endfacet
  facet normal 0 0 -1
    outer loop
      vertex -3.94338 -2.16789 -18
      vertex -1.18301 -0.650367 -18
      vertex -3.64058 -2.64503 -18
    endloop
  endfacet
  facet normal 0 0 -1
    outer loop
      vertex -0.574801 1.22152 -18
      vertex -1.91601 4.07172 -18
      vertex -1.39058 4.27975 -18
    endloop
  endfacet
  facet normal -0 0 -1
    outer loop
      vertex -1.18301 -0.650367 -18
      vertex -3.94338 -2.16789 -18
      vertex -1.2552 -0.496967 -18
    endloop
  endfacet
  facet normal 0 0 -1
    outer loop
      vertex -0.723366 1.13984 -18
      vertex -2.41122 3.79947 -18
      vertex -1.91601 4.07172 -18
    endloop
  endfacet
  facet normal 0 0 -1
    outer loop
      vertex -4.18399 -1.65656 -18
      vertex -1.2552 -0.496967 -18
      vertex -3.94338 -2.16789 -18
    endloop
  endfacet
  facet normal 0 0 -1
    outer loop
      vertex -0.860522 1.04019 -18
      vertex -2.86841 3.46731 -18
      vertex -2.41122 3.79947 -18
    endloop
  endfacet
  facet normal -0 0 -1
    outer loop
      vertex -1.2552 -0.496967 -18
      vertex -4.18399 -1.65656 -18
      vertex -1.30759 -0.335731 -18
    endloop
  endfacet
  facet normal 0 0 -1
    outer loop
      vertex -0.984107 0.924138 -18
      vertex -3.28036 3.08046 -18
      vertex -2.86841 3.46731 -18
    endloop
  endfacet
  facet normal 0 0 -1
    outer loop
      vertex -4.35862 -1.1191 -18
      vertex -1.30759 -0.335731 -18
      vertex -4.18399 -1.65656 -18
    endloop
  endfacet
  facet normal 0 0 -1
    outer loop
      vertex -1.09217 0.793509 -18
      vertex -3.64058 2.64503 -18
      vertex -3.28036 3.08046 -18
    endloop
  endfacet
  facet normal -0 0 -1
    outer loop
      vertex -1.30759 -0.335731 -18
      vertex -4.35862 -1.1191 -18
      vertex -1.33935 -0.169199 -18
    endloop
  endfacet
  facet normal 0 0 -1
    outer loop
      vertex -1.18301 0.650367 -18
      vertex -3.94338 2.16789 -18
      vertex -3.64058 2.64503 -18
    endloop
  endfacet
  facet normal 0 0 -1
    outer loop
      vertex -4.46452 -0.563999 -18
      vertex -1.33935 -0.169199 -18
      vertex -4.35862 -1.1191 -18
    endloop
  endfacet
  facet normal 0 0 -1
    outer loop
      vertex -1.2552 0.496967 -18
      vertex -4.18399 1.65656 -18
      vertex -3.94338 2.16789 -18
    endloop
  endfacet
  facet normal -0 0 -1
    outer loop
      vertex -1.33935 -0.169199 -18
      vertex -4.46452 -0.563999 -18
      vertex -1.35 0 -18
    endloop
  endfacet
  facet normal 0 0 -1
    outer loop
      vertex -1.30759 0.335731 -18
      vertex -4.35862 1.1191 -18
      vertex -4.18399 1.65656 -18
    endloop
  endfacet
  facet normal 0 0 -1
    outer loop
      vertex -4.5 0 -18
      vertex -1.35 0 -18
      vertex -4.46452 -0.563999 -18
    endloop
  endfacet
  facet normal 0 0 -1
    outer loop
      vertex -1.33935 0.169199 -18
      vertex -4.46452 0.563999 -18
      vertex -4.35862 1.1191 -18
    endloop
  endfacet
  facet normal 0 0 -1
    outer loop
      vertex -1.35 0 -18
      vertex -4.5 0 -18
      vertex -4.46452 0.563999 -18
    endloop
  endfacet
  facet normal -0.982284 -0.187396 0
    outer loop
      vertex -4.35862 -1.1191 -18
      vertex -4.46452 -0.563999 18
      vertex -4.46452 -0.563999 -18
    endloop
  endfacet
  facet normal -0.982284 -0.187396 0
    outer loop
      vertex -4.46452 -0.563999 18
      vertex -4.35862 -1.1191 -18
      vertex -4.35862 -1.1191 18
    endloop
  endfacet
  facet normal 0.248691 -0.968583 0
    outer loop
      vertex 0.843215 -4.42029 -18
      vertex 1.39058 -4.27975 18
      vertex 0.843215 -4.42029 18
    endloop
  endfacet
  facet normal 0.248691 -0.968583 0
    outer loop
      vertex 1.39058 -4.27975 18
      vertex 0.843215 -4.42029 -18
      vertex 1.39058 -4.27975 -18
    endloop
  endfacet
  facet normal -0.587776 -0.809024 0
    outer loop
      vertex -2.86841 -3.46731 -18
      vertex -2.41122 -3.79947 18
      vertex -2.86841 -3.46731 18
    endloop
  endfacet
  facet normal -0.587776 -0.809024 -0
    outer loop
      vertex -2.41122 -3.79947 18
      vertex -2.86841 -3.46731 -18
      vertex -2.41122 -3.79947 -18
    endloop
  endfacet
  facet normal -0.84433 -0.535824 0
    outer loop
      vertex 1.18301 0.650367 -18
      vertex 1.09217 0.793509 18
      vertex 1.09217 0.793509 -18
    endloop
  endfacet
  facet normal -0.84433 -0.535824 0
    outer loop
      vertex 1.09217 0.793509 18
      vertex 1.18301 0.650367 -18
      vertex 1.18301 0.650367 18
    endloop
  endfacet
  facet normal -0.368126 -0.929776 0
    outer loop
      vertex 0.417172 1.28393 -18
      vertex 0.574801 1.22152 18
      vertex 0.417172 1.28393 18
    endloop
  endfacet
  facet normal -0.368126 -0.929776 -0
    outer loop
      vertex 0.574801 1.22152 18
      vertex 0.417172 1.28393 -18
      vertex 0.574801 1.22152 -18
    endloop
  endfacet
  facet normal 0.368126 -0.929776 0
    outer loop
      vertex -0.574801 1.22152 -18
      vertex -0.417172 1.28393 18
      vertex -0.574801 1.22152 18
    endloop
  endfacet
  facet normal 0.368126 -0.929776 0
    outer loop
      vertex -0.417172 1.28393 18
      vertex -0.574801 1.22152 -18
      vertex -0.417172 1.28393 -18
    endloop
  endfacet
  facet normal 0.904815 -0.425806 0
    outer loop
      vertex -1.2552 0.496967 18
      vertex -1.18301 0.650367 -18
      vertex -1.18301 0.650367 18
    endloop
  endfacet
  facet normal 0.904815 -0.425806 0
    outer loop
      vertex -1.18301 0.650367 -18
      vertex -1.2552 0.496967 18
      vertex -1.2552 0.496967 -18
    endloop
  endfacet
  facet normal -0.998025 0.0628193 0
    outer loop
      vertex 1.33935 -0.169199 -18
      vertex 1.35 0 18
      vertex 1.35 0 -18
    endloop
  endfacet
  facet normal -0.998025 0.0628193 0
    outer loop
      vertex 1.35 0 18
      vertex 1.33935 -0.169199 -18
      vertex 1.33935 -0.169199 18
    endloop
  endfacet
  facet normal -0.481779 0.876292 0
    outer loop
      vertex 0.723366 -1.13984 -18
      vertex 0.574801 -1.22152 18
      vertex 0.723366 -1.13984 18
    endloop
  endfacet
  facet normal -0.481779 0.876292 0
    outer loop
      vertex 0.574801 -1.22152 18
      vertex 0.723366 -1.13984 -18
      vertex 0.574801 -1.22152 -18
    endloop
  endfacet
  facet normal 0 -1 0
    outer loop
      vertex -0.0847664 1.34734 -18
      vertex 0.0847664 1.34734 18
      vertex -0.0847664 1.34734 18
    endloop
  endfacet
  facet normal 0 -1 -0
    outer loop
      vertex 0.0847664 1.34734 18
      vertex -0.0847664 1.34734 -18
      vertex 0.0847664 1.34734 -18
    endloop
  endfacet
  facet normal -0.587787 -0.809016 0
    outer loop
      vertex 0.723366 1.13984 -18
      vertex 0.860522 1.04019 18
      vertex 0.723366 1.13984 18
    endloop
  endfacet
  facet normal -0.587787 -0.809016 -0
    outer loop
      vertex 0.860522 1.04019 18
      vertex 0.723366 1.13984 -18
      vertex 0.860522 1.04019 -18
    endloop
  endfacet
  facet normal 0.998025 -0.0628193 0
    outer loop
      vertex -1.35 0 18
      vertex -1.33935 0.169199 -18
      vertex -1.33935 0.169199 18
    endloop
  endfacet
  facet normal 0.998025 -0.0628193 0
    outer loop
      vertex -1.33935 0.169199 -18
      vertex -1.35 0 18
      vertex -1.35 0 -18
    endloop
  endfacet
  facet normal 0.982296 -0.187338 0
    outer loop
      vertex -1.33935 0.169199 18
      vertex -1.30759 0.335731 -18
      vertex -1.30759 0.335731 18
    endloop
  endfacet
  facet normal 0.982296 -0.187338 0
    outer loop
      vertex -1.30759 0.335731 -18
      vertex -1.33935 0.169199 18
      vertex -1.33935 0.169199 -18
    endloop
  endfacet
  facet normal 0.770521 -0.637415 0
    outer loop
      vertex -1.09217 0.793509 18
      vertex -0.984107 0.924138 -18
      vertex -0.984107 0.924138 18
    endloop
  endfacet
  facet normal 0.770521 -0.637415 0
    outer loop
      vertex -0.984107 0.924138 -18
      vertex -1.09217 0.793509 18
      vertex -1.09217 0.793509 -18
    endloop
  endfacet
  facet normal 0.684541 -0.728975 0
    outer loop
      vertex -0.984107 0.924138 -18
      vertex -0.860522 1.04019 18
      vertex -0.984107 0.924138 18
    endloop
  endfacet
  facet normal 0.684541 -0.728975 0
    outer loop
      vertex -0.860522 1.04019 18
      vertex -0.984107 0.924138 -18
      vertex -0.860522 1.04019 -18
    endloop
  endfacet
  facet normal -0.982296 0.187338 0
    outer loop
      vertex 1.30759 -0.335731 -18
      vertex 1.33935 -0.169199 18
      vertex 1.33935 -0.169199 -18
    endloop
  endfacet
  facet normal -0.982296 0.187338 0
    outer loop
      vertex 1.33935 -0.169199 18
      vertex 1.30759 -0.335731 -18
      vertex 1.30759 -0.335731 18
    endloop
  endfacet
  facet normal -0.368126 0.929776 0
    outer loop
      vertex 0.574801 -1.22152 -18
      vertex 0.417172 -1.28393 18
      vertex 0.574801 -1.22152 18
    endloop
  endfacet
  facet normal -0.368126 0.929776 0
    outer loop
      vertex 0.417172 -1.28393 18
      vertex 0.574801 -1.22152 -18
      vertex 0.417172 -1.28393 -18
    endloop
  endfacet
  facet normal -0.587787 0.809016 0
    outer loop
      vertex 0.860522 -1.04019 -18
      vertex 0.723366 -1.13984 18
      vertex 0.860522 -1.04019 18
    endloop
  endfacet
  facet normal -0.587787 0.809016 0
    outer loop
      vertex 0.723366 -1.13984 18
      vertex 0.860522 -1.04019 -18
      vertex 0.723366 -1.13984 -18
    endloop
  endfacet
  facet normal -0.684541 -0.728975 0
    outer loop
      vertex 0.860522 1.04019 -18
      vertex 0.984107 0.924138 18
      vertex 0.860522 1.04019 18
    endloop
  endfacet
  facet normal -0.684541 -0.728975 -0
    outer loop
      vertex 0.984107 0.924138 18
      vertex 0.860522 1.04019 -18
      vertex 0.984107 0.924138 -18
    endloop
  endfacet
  facet normal -0.770521 -0.637415 0
    outer loop
      vertex 1.09217 0.793509 -18
      vertex 0.984107 0.924138 18
      vertex 0.984107 0.924138 -18
    endloop
  endfacet
  facet normal -0.770521 -0.637415 0
    outer loop
      vertex 0.984107 0.924138 18
      vertex 1.09217 0.793509 -18
      vertex 1.09217 0.793509 18
    endloop
  endfacet
  facet normal -0.248682 -0.968585 0
    outer loop
      vertex 0.252964 1.32609 -18
      vertex 0.417172 1.28393 18
      vertex 0.252964 1.32609 18
    endloop
  endfacet
  facet normal -0.248682 -0.968585 -0
    outer loop
      vertex 0.417172 1.28393 18
      vertex 0.252964 1.32609 -18
      vertex 0.417172 1.28393 -18
    endloop
  endfacet
  facet normal -0.125343 -0.992113 0
    outer loop
      vertex 0.0847664 1.34734 -18
      vertex 0.252964 1.32609 18
      vertex 0.0847664 1.34734 18
    endloop
  endfacet
  facet normal -0.125343 -0.992113 -0
    outer loop
      vertex 0.252964 1.32609 18
      vertex 0.0847664 1.34734 -18
      vertex 0.252964 1.32609 -18
    endloop
  endfacet
  facet normal -0.481779 -0.876292 0
    outer loop
      vertex 0.574801 1.22152 -18
      vertex 0.723366 1.13984 18
      vertex 0.574801 1.22152 18
    endloop
  endfacet
  facet normal -0.481779 -0.876292 -0
    outer loop
      vertex 0.723366 1.13984 18
      vertex 0.574801 1.22152 -18
      vertex 0.723366 1.13984 -18
    endloop
  endfacet
  facet normal 0.951054 -0.309024 0
    outer loop
      vertex -1.30759 0.335731 18
      vertex -1.2552 0.496967 -18
      vertex -1.2552 0.496967 18
    endloop
  endfacet
  facet normal 0.951054 -0.309024 0
    outer loop
      vertex -1.2552 0.496967 -18
      vertex -1.30759 0.335731 18
      vertex -1.30759 0.335731 -18
    endloop
  endfacet
  facet normal 0.84433 -0.535824 0
    outer loop
      vertex -1.18301 0.650367 18
      vertex -1.09217 0.793509 -18
      vertex -1.09217 0.793509 18
    endloop
  endfacet
  facet normal 0.84433 -0.535824 0
    outer loop
      vertex -1.09217 0.793509 -18
      vertex -1.18301 0.650367 18
      vertex -1.18301 0.650367 -18
    endloop
  endfacet
  facet normal 0.125343 -0.992113 0
    outer loop
      vertex -0.252964 1.32609 -18
      vertex -0.0847664 1.34734 18
      vertex -0.252964 1.32609 18
    endloop
  endfacet
  facet normal 0.125343 -0.992113 0
    outer loop
      vertex -0.0847664 1.34734 18
      vertex -0.252964 1.32609 -18
      vertex -0.0847664 1.34734 -18
    endloop
  endfacet
  facet normal 0.248682 -0.968585 0
    outer loop
      vertex -0.417172 1.28393 -18
      vertex -0.252964 1.32609 18
      vertex -0.417172 1.28393 18
    endloop
  endfacet
  facet normal 0.248682 -0.968585 0
    outer loop
      vertex -0.252964 1.32609 18
      vertex -0.417172 1.28393 -18
      vertex -0.252964 1.32609 -18
    endloop
  endfacet
  facet normal 0.481779 -0.876292 0
    outer loop
      vertex -0.723366 1.13984 -18
      vertex -0.574801 1.22152 18
      vertex -0.723366 1.13984 18
    endloop
  endfacet
  facet normal 0.481779 -0.876292 0
    outer loop
      vertex -0.574801 1.22152 18
      vertex -0.723366 1.13984 -18
      vertex -0.574801 1.22152 -18
    endloop
  endfacet
  facet normal 0.587787 -0.809016 0
    outer loop
      vertex -0.860522 1.04019 -18
      vertex -0.723366 1.13984 18
      vertex -0.860522 1.04019 18
    endloop
  endfacet
  facet normal 0.587787 -0.809016 0
    outer loop
      vertex -0.723366 1.13984 18
      vertex -0.860522 1.04019 -18
      vertex -0.723366 1.13984 -18
    endloop
  endfacet
  facet normal -0.998025 -0.0628193 0
    outer loop
      vertex 1.35 0 -18
      vertex 1.33935 0.169199 18
      vertex 1.33935 0.169199 -18
    endloop
  endfacet
  facet normal -0.998025 -0.0628193 0
    outer loop
      vertex 1.33935 0.169199 18
      vertex 1.35 0 -18
      vertex 1.35 0 18
    endloop
  endfacet
  facet normal 0.998025 0.0628193 0
    outer loop
      vertex -1.33935 -0.169199 18
      vertex -1.35 0 -18
      vertex -1.35 0 18
    endloop
  endfacet
  facet normal 0.998025 0.0628193 0
    outer loop
      vertex -1.35 0 -18
      vertex -1.33935 -0.169199 18
      vertex -1.33935 -0.169199 -18
    endloop
  endfacet
  facet normal 0.84433 0.535824 0
    outer loop
      vertex -1.09217 -0.793509 18
      vertex -1.18301 -0.650367 -18
      vertex -1.18301 -0.650367 18
    endloop
  endfacet
  facet normal 0.84433 0.535824 0
    outer loop
      vertex -1.18301 -0.650367 -18
      vertex -1.09217 -0.793509 18
      vertex -1.09217 -0.793509 -18
    endloop
  endfacet
  facet normal -0.125343 0.992113 0
    outer loop
      vertex 0.252964 -1.32609 -18
      vertex 0.0847664 -1.34734 18
      vertex 0.252964 -1.32609 18
    endloop
  endfacet
  facet normal -0.125343 0.992113 0
    outer loop
      vertex 0.0847664 -1.34734 18
      vertex 0.252964 -1.32609 -18
      vertex 0.0847664 -1.34734 -18
    endloop
  endfacet
  facet normal -0.904815 -0.425806 0
    outer loop
      vertex 1.2552 0.496967 -18
      vertex 1.18301 0.650367 18
      vertex 1.18301 0.650367 -18
    endloop
  endfacet
  facet normal -0.904815 -0.425806 0
    outer loop
      vertex 1.18301 0.650367 18
      vertex 1.2552 0.496967 -18
      vertex 1.2552 0.496967 18
    endloop
  endfacet
  facet normal -0.951054 -0.309024 0
    outer loop
      vertex 1.30759 0.335731 -18
      vertex 1.2552 0.496967 18
      vertex 1.2552 0.496967 -18
    endloop
  endfacet
  facet normal -0.951054 -0.309024 0
    outer loop
      vertex 1.2552 0.496967 18
      vertex 1.30759 0.335731 -18
      vertex 1.30759 0.335731 18
    endloop
  endfacet
  facet normal -0.982296 -0.187338 0
    outer loop
      vertex 1.33935 0.169199 -18
      vertex 1.30759 0.335731 18
      vertex 1.30759 0.335731 -18
    endloop
  endfacet
  facet normal -0.982296 -0.187338 0
    outer loop
      vertex 1.30759 0.335731 18
      vertex 1.33935 0.169199 -18
      vertex 1.33935 0.169199 18
    endloop
  endfacet
  facet normal -0.951054 0.309024 0
    outer loop
      vertex 1.2552 -0.496967 -18
      vertex 1.30759 -0.335731 18
      vertex 1.30759 -0.335731 -18
    endloop
  endfacet
  facet normal -0.951054 0.309024 0
    outer loop
      vertex 1.30759 -0.335731 18
      vertex 1.2552 -0.496967 -18
      vertex 1.2552 -0.496967 18
    endloop
  endfacet
  facet normal -0.684541 0.728975 0
    outer loop
      vertex 0.984107 -0.924138 -18
      vertex 0.860522 -1.04019 18
      vertex 0.984107 -0.924138 18
    endloop
  endfacet
  facet normal -0.684541 0.728975 0
    outer loop
      vertex 0.860522 -1.04019 18
      vertex 0.984107 -0.924138 -18
      vertex 0.860522 -1.04019 -18
    endloop
  endfacet
  facet normal -0.84433 0.535824 0
    outer loop
      vertex 1.09217 -0.793509 -18
      vertex 1.18301 -0.650367 18
      vertex 1.18301 -0.650367 -18
    endloop
  endfacet
  facet normal -0.84433 0.535824 0
    outer loop
      vertex 1.18301 -0.650367 18
      vertex 1.09217 -0.793509 -18
      vertex 1.09217 -0.793509 18
    endloop
  endfacet
  facet normal -0.904815 0.425806 0
    outer loop
      vertex 1.18301 -0.650367 -18
      vertex 1.2552 -0.496967 18
      vertex 1.2552 -0.496967 -18
    endloop
  endfacet
  facet normal -0.904815 0.425806 0
    outer loop
      vertex 1.2552 -0.496967 18
      vertex 1.18301 -0.650367 -18
      vertex 1.18301 -0.650367 18
    endloop
  endfacet
  facet normal 0 1 -0
    outer loop
      vertex 0.0847664 -1.34734 -18
      vertex -0.0847664 -1.34734 18
      vertex 0.0847664 -1.34734 18
    endloop
  endfacet
  facet normal 0 1 0
    outer loop
      vertex -0.0847664 -1.34734 18
      vertex 0.0847664 -1.34734 -18
      vertex -0.0847664 -1.34734 -18
    endloop
  endfacet
  facet normal 0.904815 0.425806 0
    outer loop
      vertex -1.18301 -0.650367 18
      vertex -1.2552 -0.496967 -18
      vertex -1.2552 -0.496967 18
    endloop
  endfacet
  facet normal 0.904815 0.425806 0
    outer loop
      vertex -1.2552 -0.496967 -18
      vertex -1.18301 -0.650367 18
      vertex -1.18301 -0.650367 -18
    endloop
  endfacet
  facet normal 0.770521 0.637415 0
    outer loop
      vertex -0.984107 -0.924138 18
      vertex -1.09217 -0.793509 -18
      vertex -1.09217 -0.793509 18
    endloop
  endfacet
  facet normal 0.770521 0.637415 0
    outer loop
      vertex -1.09217 -0.793509 -18
      vertex -0.984107 -0.924138 18
      vertex -0.984107 -0.924138 -18
    endloop
  endfacet
  facet normal 0.587787 0.809016 -0
    outer loop
      vertex -0.723366 -1.13984 -18
      vertex -0.860522 -1.04019 18
      vertex -0.723366 -1.13984 18
    endloop
  endfacet
  facet normal 0.587787 0.809016 0
    outer loop
      vertex -0.860522 -1.04019 18
      vertex -0.723366 -1.13984 -18
      vertex -0.860522 -1.04019 -18
    endloop
  endfacet
  facet normal 0.248682 0.968585 -0
    outer loop
      vertex -0.252964 -1.32609 -18
      vertex -0.417172 -1.28393 18
      vertex -0.252964 -1.32609 18
    endloop
  endfacet
  facet normal 0.248682 0.968585 0
    outer loop
      vertex -0.417172 -1.28393 18
      vertex -0.252964 -1.32609 -18
      vertex -0.417172 -1.28393 -18
    endloop
  endfacet
  facet normal 0.982296 0.187338 0
    outer loop
      vertex -1.30759 -0.335731 18
      vertex -1.33935 -0.169199 -18
      vertex -1.33935 -0.169199 18
    endloop
  endfacet
  facet normal 0.982296 0.187338 0
    outer loop
      vertex -1.33935 -0.169199 -18
      vertex -1.30759 -0.335731 18
      vertex -1.30759 -0.335731 -18
    endloop
  endfacet
  facet normal 0.951054 0.309024 0
    outer loop
      vertex -1.2552 -0.496967 18
      vertex -1.30759 -0.335731 -18
      vertex -1.30759 -0.335731 18
    endloop
  endfacet
  facet normal 0.951054 0.309024 0
    outer loop
      vertex -1.30759 -0.335731 -18
      vertex -1.2552 -0.496967 18
      vertex -1.2552 -0.496967 -18
    endloop
  endfacet
  facet normal 0.684541 0.728975 -0
    outer loop
      vertex -0.860522 -1.04019 -18
      vertex -0.984107 -0.924138 18
      vertex -0.860522 -1.04019 18
    endloop
  endfacet
  facet normal 0.684541 0.728975 0
    outer loop
      vertex -0.984107 -0.924138 18
      vertex -0.860522 -1.04019 -18
      vertex -0.984107 -0.924138 -18
    endloop
  endfacet
  facet normal -0.248682 0.968585 0
    outer loop
      vertex 0.417172 -1.28393 -18
      vertex 0.252964 -1.32609 18
      vertex 0.417172 -1.28393 18
    endloop
  endfacet
  facet normal -0.248682 0.968585 0
    outer loop
      vertex 0.252964 -1.32609 18
      vertex 0.417172 -1.28393 -18
      vertex 0.252964 -1.32609 -18
    endloop
  endfacet
  facet normal -0.770521 0.637415 0
    outer loop
      vertex 0.984107 -0.924138 -18
      vertex 1.09217 -0.793509 18
      vertex 1.09217 -0.793509 -18
    endloop
  endfacet
  facet normal -0.770521 0.637415 0
    outer loop
      vertex 1.09217 -0.793509 18
      vertex 0.984107 -0.924138 -18
      vertex 0.984107 -0.924138 18
    endloop
  endfacet
  facet normal 0.481779 0.876292 -0
    outer loop
      vertex -0.574801 -1.22152 -18
      vertex -0.723366 -1.13984 18
      vertex -0.574801 -1.22152 18
    endloop
  endfacet
  facet normal 0.481779 0.876292 0
    outer loop
      vertex -0.723366 -1.13984 18
      vertex -0.574801 -1.22152 -18
      vertex -0.723366 -1.13984 -18
    endloop
  endfacet
  facet normal 0.368126 0.929776 -0
    outer loop
      vertex -0.417172 -1.28393 -18
      vertex -0.574801 -1.22152 18
      vertex -0.417172 -1.28393 18
    endloop
  endfacet
  facet normal 0.368126 0.929776 0
    outer loop
      vertex -0.574801 -1.22152 18
      vertex -0.417172 -1.28393 -18
      vertex -0.574801 -1.22152 -18
    endloop
  endfacet
  facet normal 0.125343 0.992113 -0
    outer loop
      vertex -0.0847664 -1.34734 -18
      vertex -0.252964 -1.32609 18
      vertex -0.0847664 -1.34734 18
    endloop
  endfacet
  facet normal 0.125343 0.992113 0
    outer loop
      vertex -0.252964 -1.32609 18
      vertex -0.0847664 -1.34734 -18
      vertex -0.252964 -1.32609 -18
    endloop
  endfacet
endsolid OpenSCAD_Model
