solid OpenSCAD_Model
  facet normal 0.998026 0.0627953 0
    outer loop
      vertex 8.5 0 47.5
      vertex 8.43297 1.06533 -47.5
      vertex 8.43297 1.06533 47.5
    endloop
  endfacet
  facet normal 0.998026 0.0627953 0
    outer loop
      vertex 8.43297 1.06533 -47.5
      vertex 8.5 0 47.5
      vertex 8.5 0 -47.5
    endloop
  endfacet
  facet normal -0.998026 0.0627953 0
    outer loop
      vertex -8.5 0 -47.5
      vertex -8.43297 1.06533 47.5
      vertex -8.43297 1.06533 -47.5
    endloop
  endfacet
  facet normal -0.998026 0.0627953 0
    outer loop
      vertex -8.43297 1.06533 47.5
      vertex -8.5 0 -47.5
      vertex -8.5 0 47.5
    endloop
  endfacet
  facet normal 0 1 -0
    outer loop
      vertex 0.533719 8.48323 -47.5
      vertex -0.533719 8.48323 47.5
      vertex 0.533719 8.48323 47.5
    endloop
  endfacet
  facet normal 0 1 0
    outer loop
      vertex -0.533719 8.48323 47.5
      vertex 0.533719 8.48323 -47.5
      vertex -0.533719 8.48323 -47.5
    endloop
  endfacet
  facet normal 0 -1 0
    outer loop
      vertex -0.533719 -8.48323 -47.5
      vertex 0.533719 -8.48323 47.5
      vertex -0.533719 -8.48323 47.5
    endloop
  endfacet
  facet normal 0 -1 -0
    outer loop
      vertex 0.533719 -8.48323 47.5
      vertex -0.533719 -8.48323 -47.5
      vertex 0.533719 -8.48323 -47.5
    endloop
  endfacet
  facet normal 0.684546 0.72897 -0
    outer loop
      vertex 6.19623 5.81865 -47.5
      vertex 5.4181 6.54936 47.5
      vertex 6.19623 5.81865 47.5
    endloop
  endfacet
  facet normal 0.684546 0.72897 0
    outer loop
      vertex 5.4181 6.54936 47.5
      vertex 6.19623 5.81865 -47.5
      vertex 5.4181 6.54936 -47.5
    endloop
  endfacet
  facet normal -0.684546 0.72897 0
    outer loop
      vertex -5.4181 6.54936 -47.5
      vertex -6.19623 5.81865 47.5
      vertex -5.4181 6.54936 47.5
    endloop
  endfacet
  facet normal -0.684546 0.72897 0
    outer loop
      vertex -6.19623 5.81865 47.5
      vertex -5.4181 6.54936 -47.5
      vertex -6.19623 5.81865 -47.5
    endloop
  endfacet
  facet normal -0.368124 0.929777 0
    outer loop
      vertex -2.62664 8.08398 -47.5
      vertex -3.61912 7.69103 47.5
      vertex -2.62664 8.08398 47.5
    endloop
  endfacet
  facet normal -0.368124 0.929777 0
    outer loop
      vertex -3.61912 7.69103 47.5
      vertex -2.62664 8.08398 -47.5
      vertex -3.61912 7.69103 -47.5
    endloop
  endfacet
  facet normal 0.904829 0.425776 0
    outer loop
      vertex 7.9031 3.12906 47.5
      vertex 7.44861 4.09491 -47.5
      vertex 7.44861 4.09491 47.5
    endloop
  endfacet
  facet normal 0.904829 0.425776 0
    outer loop
      vertex 7.44861 4.09491 -47.5
      vertex 7.9031 3.12906 47.5
      vertex 7.9031 3.12906 -47.5
    endloop
  endfacet
  facet normal 0.368124 0.929777 -0
    outer loop
      vertex 3.61912 7.69103 -47.5
      vertex 2.62664 8.08398 47.5
      vertex 3.61912 7.69103 47.5
    endloop
  endfacet
  facet normal 0.368124 0.929777 0
    outer loop
      vertex 2.62664 8.08398 47.5
      vertex 3.61912 7.69103 -47.5
      vertex 2.62664 8.08398 -47.5
    endloop
  endfacet
  facet normal 0.24869 0.968583 -0
    outer loop
      vertex 2.62664 8.08398 -47.5
      vertex 1.59274 8.34944 47.5
      vertex 2.62664 8.08398 47.5
    endloop
  endfacet
  facet normal 0.24869 0.968583 0
    outer loop
      vertex 1.59274 8.34944 47.5
      vertex 2.62664 8.08398 -47.5
      vertex 1.59274 8.34944 -47.5
    endloop
  endfacet
  facet normal 0.481749 0.876309 -0
    outer loop
      vertex 4.55453 7.17679 -47.5
      vertex 3.61912 7.69103 47.5
      vertex 4.55453 7.17679 47.5
    endloop
  endfacet
  facet normal 0.481749 0.876309 0
    outer loop
      vertex 3.61912 7.69103 47.5
      vertex 4.55453 7.17679 -47.5
      vertex 3.61912 7.69103 -47.5
    endloop
  endfacet
  facet normal -0.904829 0.425776 0
    outer loop
      vertex -7.9031 3.12906 -47.5
      vertex -7.44861 4.09491 47.5
      vertex -7.44861 4.09491 -47.5
    endloop
  endfacet
  facet normal -0.904829 0.425776 0
    outer loop
      vertex -7.44861 4.09491 47.5
      vertex -7.9031 3.12906 -47.5
      vertex -7.9031 3.12906 47.5
    endloop
  endfacet
  facet normal 0 0 1
    outer loop
      vertex 5 0 47.5
      vertex 8.5 0 47.5
      vertex 8.43297 1.06533 47.5
    endloop
  endfacet
  facet normal 0 0 1
    outer loop
      vertex 4.96057 0.626666 47.5
      vertex 8.43297 1.06533 47.5
      vertex 8.23296 2.11386 47.5
    endloop
  endfacet
  facet normal 0 0 1
    outer loop
      vertex 8.5 0 47.5
      vertex 5 0 47.5
      vertex 8.43297 -1.06533 47.5
    endloop
  endfacet
  facet normal 0 0 1
    outer loop
      vertex 4.84292 1.24345 47.5
      vertex 8.23296 2.11386 47.5
      vertex 7.9031 3.12906 47.5
    endloop
  endfacet
  facet normal -0 0 1
    outer loop
      vertex 4.96057 -0.626666 47.5
      vertex 8.43297 -1.06533 47.5
      vertex 5 0 47.5
    endloop
  endfacet
  facet normal 0 0 1
    outer loop
      vertex 4.64888 1.84062 47.5
      vertex 7.9031 3.12906 47.5
      vertex 7.44861 4.09491 47.5
    endloop
  endfacet
  facet normal 0 0 1
    outer loop
      vertex 8.43297 -1.06533 47.5
      vertex 4.96057 -0.626666 47.5
      vertex 8.23296 -2.11386 47.5
    endloop
  endfacet
  facet normal 0 0 1
    outer loop
      vertex 4.38153 2.40877 47.5
      vertex 7.44861 4.09491 47.5
      vertex 6.87664 4.99617 47.5
    endloop
  endfacet
  facet normal -0 0 1
    outer loop
      vertex 4.84292 -1.24345 47.5
      vertex 8.23296 -2.11386 47.5
      vertex 4.96057 -0.626666 47.5
    endloop
  endfacet
  facet normal 0 0 1
    outer loop
      vertex 4.04508 2.93893 47.5
      vertex 6.87664 4.99617 47.5
      vertex 6.19623 5.81865 47.5
    endloop
  endfacet
  facet normal 0 0 1
    outer loop
      vertex 8.23296 -2.11386 47.5
      vertex 4.84292 -1.24345 47.5
      vertex 7.9031 -3.12906 47.5
    endloop
  endfacet
  facet normal 0 0 1
    outer loop
      vertex 3.64484 3.42274 47.5
      vertex 6.19623 5.81865 47.5
      vertex 5.4181 6.54936 47.5
    endloop
  endfacet
  facet normal -0 0 1
    outer loop
      vertex 4.64888 -1.84062 47.5
      vertex 7.9031 -3.12906 47.5
      vertex 4.84292 -1.24345 47.5
    endloop
  endfacet
  facet normal 0 0 1
    outer loop
      vertex 7.9031 -3.12906 47.5
      vertex 4.64888 -1.84062 47.5
      vertex 7.44861 -4.09491 47.5
    endloop
  endfacet
  facet normal 0 0 1
    outer loop
      vertex 8.43297 1.06533 47.5
      vertex 4.96057 0.626666 47.5
      vertex 5 0 47.5
    endloop
  endfacet
  facet normal 0 0 1
    outer loop
      vertex 8.23296 2.11386 47.5
      vertex 4.84292 1.24345 47.5
      vertex 4.96057 0.626666 47.5
    endloop
  endfacet
  facet normal 0 0 1
    outer loop
      vertex 7.9031 3.12906 47.5
      vertex 4.64888 1.84062 47.5
      vertex 4.84292 1.24345 47.5
    endloop
  endfacet
  facet normal 0 0 1
    outer loop
      vertex 3.18712 3.85257 47.5
      vertex 5.4181 6.54936 47.5
      vertex 4.55453 7.17679 47.5
    endloop
  endfacet
  facet normal 0 0 1
    outer loop
      vertex 7.44861 4.09491 47.5
      vertex 4.38153 2.40877 47.5
      vertex 4.64888 1.84062 47.5
    endloop
  endfacet
  facet normal 0 0 1
    outer loop
      vertex 6.87664 4.99617 47.5
      vertex 4.04508 2.93893 47.5
      vertex 4.38153 2.40877 47.5
    endloop
  endfacet
  facet normal 0 0 1
    outer loop
      vertex 6.19623 5.81865 47.5
      vertex 3.64484 3.42274 47.5
      vertex 4.04508 2.93893 47.5
    endloop
  endfacet
  facet normal 0 0 1
    outer loop
      vertex 2.67913 4.22164 47.5
      vertex 4.55453 7.17679 47.5
      vertex 3.61912 7.69103 47.5
    endloop
  endfacet
  facet normal 0 0 1
    outer loop
      vertex 5.4181 6.54936 47.5
      vertex 3.18712 3.85257 47.5
      vertex 3.64484 3.42274 47.5
    endloop
  endfacet
  facet normal 0 0 1
    outer loop
      vertex 4.55453 7.17679 47.5
      vertex 2.67913 4.22164 47.5
      vertex 3.18712 3.85257 47.5
    endloop
  endfacet
  facet normal 0 0 1
    outer loop
      vertex 2.1289 4.52413 47.5
      vertex 3.61912 7.69103 47.5
      vertex 2.62664 8.08398 47.5
    endloop
  endfacet
  facet normal 0 0 1
    outer loop
      vertex 3.61912 7.69103 47.5
      vertex 2.1289 4.52413 47.5
      vertex 2.67913 4.22164 47.5
    endloop
  endfacet
  facet normal 0 0 1
    outer loop
      vertex 1.54508 4.75528 47.5
      vertex 2.62664 8.08398 47.5
      vertex 1.59274 8.34944 47.5
    endloop
  endfacet
  facet normal 0 0 1
    outer loop
      vertex 2.62664 8.08398 47.5
      vertex 1.54508 4.75528 47.5
      vertex 2.1289 4.52413 47.5
    endloop
  endfacet
  facet normal 0 0 1
    outer loop
      vertex 1.59274 8.34944 47.5
      vertex 0.936906 4.91144 47.5
      vertex 1.54508 4.75528 47.5
    endloop
  endfacet
  facet normal 0 0 1
    outer loop
      vertex 0.533719 8.48323 47.5
      vertex 0.936906 4.91144 47.5
      vertex 1.59274 8.34944 47.5
    endloop
  endfacet
  facet normal 0 0 1
    outer loop
      vertex 0.533719 8.48323 47.5
      vertex 0.313952 4.99013 47.5
      vertex 0.936906 4.91144 47.5
    endloop
  endfacet
  facet normal 0 0 1
    outer loop
      vertex 0.533719 8.48323 47.5
      vertex -0.313952 4.99013 47.5
      vertex 0.313952 4.99013 47.5
    endloop
  endfacet
  facet normal -0 0 1
    outer loop
      vertex -0.533719 8.48323 47.5
      vertex -0.313952 4.99013 47.5
      vertex 0.533719 8.48323 47.5
    endloop
  endfacet
  facet normal 0 0 1
    outer loop
      vertex -0.533719 8.48323 47.5
      vertex -0.936906 4.91144 47.5
      vertex -0.313952 4.99013 47.5
    endloop
  endfacet
  facet normal -0 0 1
    outer loop
      vertex -1.59274 8.34944 47.5
      vertex -0.936906 4.91144 47.5
      vertex -0.533719 8.48323 47.5
    endloop
  endfacet
  facet normal 0 0 1
    outer loop
      vertex -0.936906 4.91144 47.5
      vertex -1.59274 8.34944 47.5
      vertex -1.54508 4.75528 47.5
    endloop
  endfacet
  facet normal -0 0 1
    outer loop
      vertex -2.62664 8.08398 47.5
      vertex -1.54508 4.75528 47.5
      vertex -1.59274 8.34944 47.5
    endloop
  endfacet
  facet normal 0 0 1
    outer loop
      vertex -1.54508 4.75528 47.5
      vertex -2.62664 8.08398 47.5
      vertex -2.1289 4.52413 47.5
    endloop
  endfacet
  facet normal -0 0 1
    outer loop
      vertex -3.61912 7.69103 47.5
      vertex -2.1289 4.52413 47.5
      vertex -2.62664 8.08398 47.5
    endloop
  endfacet
  facet normal 0 0 1
    outer loop
      vertex -2.1289 4.52413 47.5
      vertex -3.61912 7.69103 47.5
      vertex -2.67913 4.22164 47.5
    endloop
  endfacet
  facet normal -0 0 1
    outer loop
      vertex -4.55453 7.17679 47.5
      vertex -2.67913 4.22164 47.5
      vertex -3.61912 7.69103 47.5
    endloop
  endfacet
  facet normal 0 0 1
    outer loop
      vertex -2.67913 4.22164 47.5
      vertex -4.55453 7.17679 47.5
      vertex -3.18712 3.85257 47.5
    endloop
  endfacet
  facet normal -0 0 1
    outer loop
      vertex -5.4181 6.54936 47.5
      vertex -3.18712 3.85257 47.5
      vertex -4.55453 7.17679 47.5
    endloop
  endfacet
  facet normal 0 0 1
    outer loop
      vertex -3.18712 3.85257 47.5
      vertex -5.4181 6.54936 47.5
      vertex -3.64484 3.42274 47.5
    endloop
  endfacet
  facet normal -0 0 1
    outer loop
      vertex -6.19623 5.81865 47.5
      vertex -3.64484 3.42274 47.5
      vertex -5.4181 6.54936 47.5
    endloop
  endfacet
  facet normal 0 0 1
    outer loop
      vertex -3.64484 3.42274 47.5
      vertex -6.19623 5.81865 47.5
      vertex -4.04508 2.93893 47.5
    endloop
  endfacet
  facet normal -0 0 1
    outer loop
      vertex -6.87664 4.99617 47.5
      vertex -4.04508 2.93893 47.5
      vertex -6.19623 5.81865 47.5
    endloop
  endfacet
  facet normal 0 0 1
    outer loop
      vertex -4.04508 2.93893 47.5
      vertex -6.87664 4.99617 47.5
      vertex -4.38153 2.40877 47.5
    endloop
  endfacet
  facet normal -0 0 1
    outer loop
      vertex -7.44861 4.09491 47.5
      vertex -4.38153 2.40877 47.5
      vertex -6.87664 4.99617 47.5
    endloop
  endfacet
  facet normal 0 0 1
    outer loop
      vertex -4.38153 2.40877 47.5
      vertex -7.44861 4.09491 47.5
      vertex -4.64888 1.84062 47.5
    endloop
  endfacet
  facet normal -0 0 1
    outer loop
      vertex 4.38153 -2.40877 47.5
      vertex 7.44861 -4.09491 47.5
      vertex 4.64888 -1.84062 47.5
    endloop
  endfacet
  facet normal 0 0 1
    outer loop
      vertex 7.44861 -4.09491 47.5
      vertex 4.38153 -2.40877 47.5
      vertex 6.87664 -4.99617 47.5
    endloop
  endfacet
  facet normal -0 0 1
    outer loop
      vertex 4.04508 -2.93893 47.5
      vertex 6.87664 -4.99617 47.5
      vertex 4.38153 -2.40877 47.5
    endloop
  endfacet
  facet normal 0 0 1
    outer loop
      vertex 6.87664 -4.99617 47.5
      vertex 4.04508 -2.93893 47.5
      vertex 6.19623 -5.81865 47.5
    endloop
  endfacet
  facet normal -0 0 1
    outer loop
      vertex 3.64484 -3.42274 47.5
      vertex 6.19623 -5.81865 47.5
      vertex 4.04508 -2.93893 47.5
    endloop
  endfacet
  facet normal 0 0 1
    outer loop
      vertex 6.19623 -5.81865 47.5
      vertex 3.64484 -3.42274 47.5
      vertex 5.4181 -6.54936 47.5
    endloop
  endfacet
  facet normal -0 0 1
    outer loop
      vertex 3.18712 -3.85257 47.5
      vertex 5.4181 -6.54936 47.5
      vertex 3.64484 -3.42274 47.5
    endloop
  endfacet
  facet normal 0 0 1
    outer loop
      vertex 5.4181 -6.54936 47.5
      vertex 3.18712 -3.85257 47.5
      vertex 4.55453 -7.17679 47.5
    endloop
  endfacet
  facet normal -0 0 1
    outer loop
      vertex 2.67913 -4.22164 47.5
      vertex 4.55453 -7.17679 47.5
      vertex 3.18712 -3.85257 47.5
    endloop
  endfacet
  facet normal 0 0 1
    outer loop
      vertex 4.55453 -7.17679 47.5
      vertex 2.67913 -4.22164 47.5
      vertex 3.61912 -7.69103 47.5
    endloop
  endfacet
  facet normal -0 0 1
    outer loop
      vertex 2.1289 -4.52413 47.5
      vertex 3.61912 -7.69103 47.5
      vertex 2.67913 -4.22164 47.5
    endloop
  endfacet
  facet normal 0 0 1
    outer loop
      vertex 3.61912 -7.69103 47.5
      vertex 2.1289 -4.52413 47.5
      vertex 2.62664 -8.08398 47.5
    endloop
  endfacet
  facet normal -0 0 1
    outer loop
      vertex 1.54508 -4.75528 47.5
      vertex 2.62664 -8.08398 47.5
      vertex 2.1289 -4.52413 47.5
    endloop
  endfacet
  facet normal 0 0 1
    outer loop
      vertex 2.62664 -8.08398 47.5
      vertex 1.54508 -4.75528 47.5
      vertex 1.59274 -8.34944 47.5
    endloop
  endfacet
  facet normal -0 0 1
    outer loop
      vertex 0.936906 -4.91144 47.5
      vertex 1.59274 -8.34944 47.5
      vertex 1.54508 -4.75528 47.5
    endloop
  endfacet
  facet normal 0 0 1
    outer loop
      vertex 0.936906 -4.91144 47.5
      vertex 0.533719 -8.48323 47.5
      vertex 1.59274 -8.34944 47.5
    endloop
  endfacet
  facet normal -0 0 1
    outer loop
      vertex 0.313952 -4.99013 47.5
      vertex 0.533719 -8.48323 47.5
      vertex 0.936906 -4.91144 47.5
    endloop
  endfacet
  facet normal -0 0 1
    outer loop
      vertex -0.313952 -4.99013 47.5
      vertex 0.533719 -8.48323 47.5
      vertex 0.313952 -4.99013 47.5
    endloop
  endfacet
  facet normal 0 0 1
    outer loop
      vertex -0.313952 -4.99013 47.5
      vertex -0.533719 -8.48323 47.5
      vertex 0.533719 -8.48323 47.5
    endloop
  endfacet
  facet normal 0 0 1
    outer loop
      vertex -0.936906 -4.91144 47.5
      vertex -0.533719 -8.48323 47.5
      vertex -0.313952 -4.99013 47.5
    endloop
  endfacet
  facet normal 0 0 1
    outer loop
      vertex -1.59274 -8.34944 47.5
      vertex -0.936906 -4.91144 47.5
      vertex -1.54508 -4.75528 47.5
    endloop
  endfacet
  facet normal 0 0 1
    outer loop
      vertex -0.936906 -4.91144 47.5
      vertex -1.59274 -8.34944 47.5
      vertex -0.533719 -8.48323 47.5
    endloop
  endfacet
  facet normal 0 0 1
    outer loop
      vertex -2.62664 -8.08398 47.5
      vertex -1.54508 -4.75528 47.5
      vertex -2.1289 -4.52413 47.5
    endloop
  endfacet
  facet normal 0 0 1
    outer loop
      vertex -1.54508 -4.75528 47.5
      vertex -2.62664 -8.08398 47.5
      vertex -1.59274 -8.34944 47.5
    endloop
  endfacet
  facet normal 0 0 1
    outer loop
      vertex -3.61912 -7.69103 47.5
      vertex -2.1289 -4.52413 47.5
      vertex -2.67913 -4.22164 47.5
    endloop
  endfacet
  facet normal 0 0 1
    outer loop
      vertex -4.55453 -7.17679 47.5
      vertex -2.67913 -4.22164 47.5
      vertex -3.18712 -3.85257 47.5
    endloop
  endfacet
  facet normal 0 0 1
    outer loop
      vertex -2.1289 -4.52413 47.5
      vertex -3.61912 -7.69103 47.5
      vertex -2.62664 -8.08398 47.5
    endloop
  endfacet
  facet normal 0 0 1
    outer loop
      vertex -5.4181 -6.54936 47.5
      vertex -3.18712 -3.85257 47.5
      vertex -3.64484 -3.42274 47.5
    endloop
  endfacet
  facet normal 0 0 1
    outer loop
      vertex -6.19623 -5.81865 47.5
      vertex -3.64484 -3.42274 47.5
      vertex -4.04508 -2.93893 47.5
    endloop
  endfacet
  facet normal 0 0 1
    outer loop
      vertex -6.87664 -4.99617 47.5
      vertex -4.04508 -2.93893 47.5
      vertex -4.38153 -2.40877 47.5
    endloop
  endfacet
  facet normal 0 0 1
    outer loop
      vertex -2.67913 -4.22164 47.5
      vertex -4.55453 -7.17679 47.5
      vertex -3.61912 -7.69103 47.5
    endloop
  endfacet
  facet normal 0 0 1
    outer loop
      vertex -7.44861 -4.09491 47.5
      vertex -4.38153 -2.40877 47.5
      vertex -4.64888 -1.84062 47.5
    endloop
  endfacet
  facet normal 0 0 1
    outer loop
      vertex -7.9031 -3.12906 47.5
      vertex -4.64888 -1.84062 47.5
      vertex -4.84292 -1.24345 47.5
    endloop
  endfacet
  facet normal 0 0 1
    outer loop
      vertex -8.23296 -2.11386 47.5
      vertex -4.84292 -1.24345 47.5
      vertex -4.96057 -0.626666 47.5
    endloop
  endfacet
  facet normal 0 0 1
    outer loop
      vertex -8.43297 -1.06533 47.5
      vertex -4.96057 -0.626666 47.5
      vertex -5 0 47.5
    endloop
  endfacet
  facet normal -0 0 1
    outer loop
      vertex -7.9031 3.12906 47.5
      vertex -4.64888 1.84062 47.5
      vertex -7.44861 4.09491 47.5
    endloop
  endfacet
  facet normal 0 0 1
    outer loop
      vertex -3.18712 -3.85257 47.5
      vertex -5.4181 -6.54936 47.5
      vertex -4.55453 -7.17679 47.5
    endloop
  endfacet
  facet normal 0 0 1
    outer loop
      vertex -4.64888 1.84062 47.5
      vertex -7.9031 3.12906 47.5
      vertex -4.84292 1.24345 47.5
    endloop
  endfacet
  facet normal 0 0 1
    outer loop
      vertex -3.64484 -3.42274 47.5
      vertex -6.19623 -5.81865 47.5
      vertex -5.4181 -6.54936 47.5
    endloop
  endfacet
  facet normal -0 0 1
    outer loop
      vertex -8.23296 2.11386 47.5
      vertex -4.84292 1.24345 47.5
      vertex -7.9031 3.12906 47.5
    endloop
  endfacet
  facet normal 0 0 1
    outer loop
      vertex -4.04508 -2.93893 47.5
      vertex -6.87664 -4.99617 47.5
      vertex -6.19623 -5.81865 47.5
    endloop
  endfacet
  facet normal 0 0 1
    outer loop
      vertex -4.84292 1.24345 47.5
      vertex -8.23296 2.11386 47.5
      vertex -4.96057 0.626666 47.5
    endloop
  endfacet
  facet normal 0 0 1
    outer loop
      vertex -4.38153 -2.40877 47.5
      vertex -7.44861 -4.09491 47.5
      vertex -6.87664 -4.99617 47.5
    endloop
  endfacet
  facet normal -0 0 1
    outer loop
      vertex -8.43297 1.06533 47.5
      vertex -4.96057 0.626666 47.5
      vertex -8.23296 2.11386 47.5
    endloop
  endfacet
  facet normal 0 0 1
    outer loop
      vertex -4.64888 -1.84062 47.5
      vertex -7.9031 -3.12906 47.5
      vertex -7.44861 -4.09491 47.5
    endloop
  endfacet
  facet normal 0 0 1
    outer loop
      vertex -4.96057 0.626666 47.5
      vertex -8.43297 1.06533 47.5
      vertex -5 0 47.5
    endloop
  endfacet
  facet normal 0 0 1
    outer loop
      vertex -4.84292 -1.24345 47.5
      vertex -8.23296 -2.11386 47.5
      vertex -7.9031 -3.12906 47.5
    endloop
  endfacet
  facet normal 0 0 1
    outer loop
      vertex -8.5 0 47.5
      vertex -5 0 47.5
      vertex -8.43297 1.06533 47.5
    endloop
  endfacet
  facet normal 0 0 1
    outer loop
      vertex -4.96057 -0.626666 47.5
      vertex -8.43297 -1.06533 47.5
      vertex -8.23296 -2.11386 47.5
    endloop
  endfacet
  facet normal 0 0 1
    outer loop
      vertex -5 0 47.5
      vertex -8.5 0 47.5
      vertex -8.43297 -1.06533 47.5
    endloop
  endfacet
  facet normal -0.125337 0.992114 0
    outer loop
      vertex -0.533719 8.48323 -47.5
      vertex -1.59274 8.34944 47.5
      vertex -0.533719 8.48323 47.5
    endloop
  endfacet
  facet normal -0.125337 0.992114 0
    outer loop
      vertex -1.59274 8.34944 47.5
      vertex -0.533719 8.48323 -47.5
      vertex -1.59274 8.34944 -47.5
    endloop
  endfacet
  facet normal 0 0 -1
    outer loop
      vertex 5 0 -47.5
      vertex 8.5 0 -47.5
      vertex 8.43297 -1.06533 -47.5
    endloop
  endfacet
  facet normal 0 0 -1
    outer loop
      vertex 4.96057 -0.626666 -47.5
      vertex 8.43297 -1.06533 -47.5
      vertex 8.23296 -2.11386 -47.5
    endloop
  endfacet
  facet normal 0 0 -1
    outer loop
      vertex 8.5 0 -47.5
      vertex 5 0 -47.5
      vertex 8.43297 1.06533 -47.5
    endloop
  endfacet
  facet normal 0 0 -1
    outer loop
      vertex 4.84292 -1.24345 -47.5
      vertex 8.23296 -2.11386 -47.5
      vertex 7.9031 -3.12906 -47.5
    endloop
  endfacet
  facet normal 0 0 -1
    outer loop
      vertex 4.96057 0.626666 -47.5
      vertex 8.43297 1.06533 -47.5
      vertex 5 0 -47.5
    endloop
  endfacet
  facet normal 0 0 -1
    outer loop
      vertex 4.64888 -1.84062 -47.5
      vertex 7.9031 -3.12906 -47.5
      vertex 7.44861 -4.09491 -47.5
    endloop
  endfacet
  facet normal -0 0 -1
    outer loop
      vertex 8.43297 1.06533 -47.5
      vertex 4.96057 0.626666 -47.5
      vertex 8.23296 2.11386 -47.5
    endloop
  endfacet
  facet normal 0 0 -1
    outer loop
      vertex 4.38153 -2.40877 -47.5
      vertex 7.44861 -4.09491 -47.5
      vertex 6.87664 -4.99617 -47.5
    endloop
  endfacet
  facet normal 0 0 -1
    outer loop
      vertex 4.84292 1.24345 -47.5
      vertex 8.23296 2.11386 -47.5
      vertex 4.96057 0.626666 -47.5
    endloop
  endfacet
  facet normal 0 0 -1
    outer loop
      vertex 4.04508 -2.93893 -47.5
      vertex 6.87664 -4.99617 -47.5
      vertex 6.19623 -5.81865 -47.5
    endloop
  endfacet
  facet normal -0 0 -1
    outer loop
      vertex 8.23296 2.11386 -47.5
      vertex 4.84292 1.24345 -47.5
      vertex 7.9031 3.12906 -47.5
    endloop
  endfacet
  facet normal 0 0 -1
    outer loop
      vertex 3.64484 -3.42274 -47.5
      vertex 6.19623 -5.81865 -47.5
      vertex 5.4181 -6.54936 -47.5
    endloop
  endfacet
  facet normal 0 0 -1
    outer loop
      vertex 4.64888 1.84062 -47.5
      vertex 7.9031 3.12906 -47.5
      vertex 4.84292 1.24345 -47.5
    endloop
  endfacet
  facet normal -0 0 -1
    outer loop
      vertex 7.9031 3.12906 -47.5
      vertex 4.64888 1.84062 -47.5
      vertex 7.44861 4.09491 -47.5
    endloop
  endfacet
  facet normal 0 0 -1
    outer loop
      vertex 8.43297 -1.06533 -47.5
      vertex 4.96057 -0.626666 -47.5
      vertex 5 0 -47.5
    endloop
  endfacet
  facet normal 0 0 -1
    outer loop
      vertex 8.23296 -2.11386 -47.5
      vertex 4.84292 -1.24345 -47.5
      vertex 4.96057 -0.626666 -47.5
    endloop
  endfacet
  facet normal 0 0 -1
    outer loop
      vertex 7.9031 -3.12906 -47.5
      vertex 4.64888 -1.84062 -47.5
      vertex 4.84292 -1.24345 -47.5
    endloop
  endfacet
  facet normal 0 0 -1
    outer loop
      vertex 3.18712 -3.85257 -47.5
      vertex 5.4181 -6.54936 -47.5
      vertex 4.55453 -7.17679 -47.5
    endloop
  endfacet
  facet normal 0 0 -1
    outer loop
      vertex 7.44861 -4.09491 -47.5
      vertex 4.38153 -2.40877 -47.5
      vertex 4.64888 -1.84062 -47.5
    endloop
  endfacet
  facet normal 0 0 -1
    outer loop
      vertex 6.87664 -4.99617 -47.5
      vertex 4.04508 -2.93893 -47.5
      vertex 4.38153 -2.40877 -47.5
    endloop
  endfacet
  facet normal 0 0 -1
    outer loop
      vertex 6.19623 -5.81865 -47.5
      vertex 3.64484 -3.42274 -47.5
      vertex 4.04508 -2.93893 -47.5
    endloop
  endfacet
  facet normal 0 0 -1
    outer loop
      vertex 2.67913 -4.22164 -47.5
      vertex 4.55453 -7.17679 -47.5
      vertex 3.61912 -7.69103 -47.5
    endloop
  endfacet
  facet normal 0 0 -1
    outer loop
      vertex 5.4181 -6.54936 -47.5
      vertex 3.18712 -3.85257 -47.5
      vertex 3.64484 -3.42274 -47.5
    endloop
  endfacet
  facet normal 0 0 -1
    outer loop
      vertex 4.55453 -7.17679 -47.5
      vertex 2.67913 -4.22164 -47.5
      vertex 3.18712 -3.85257 -47.5
    endloop
  endfacet
  facet normal 0 0 -1
    outer loop
      vertex 2.1289 -4.52413 -47.5
      vertex 3.61912 -7.69103 -47.5
      vertex 2.62664 -8.08398 -47.5
    endloop
  endfacet
  facet normal 0 0 -1
    outer loop
      vertex 3.61912 -7.69103 -47.5
      vertex 2.1289 -4.52413 -47.5
      vertex 2.67913 -4.22164 -47.5
    endloop
  endfacet
  facet normal 0 0 -1
    outer loop
      vertex 1.54508 -4.75528 -47.5
      vertex 2.62664 -8.08398 -47.5
      vertex 1.59274 -8.34944 -47.5
    endloop
  endfacet
  facet normal 0 0 -1
    outer loop
      vertex 2.62664 -8.08398 -47.5
      vertex 1.54508 -4.75528 -47.5
      vertex 2.1289 -4.52413 -47.5
    endloop
  endfacet
  facet normal 0 0 -1
    outer loop
      vertex 1.59274 -8.34944 -47.5
      vertex 0.936906 -4.91144 -47.5
      vertex 1.54508 -4.75528 -47.5
    endloop
  endfacet
  facet normal 0 0 -1
    outer loop
      vertex 0.533719 -8.48323 -47.5
      vertex 0.936906 -4.91144 -47.5
      vertex 1.59274 -8.34944 -47.5
    endloop
  endfacet
  facet normal 0 0 -1
    outer loop
      vertex 0.533719 -8.48323 -47.5
      vertex 0.313952 -4.99013 -47.5
      vertex 0.936906 -4.91144 -47.5
    endloop
  endfacet
  facet normal 0 0 -1
    outer loop
      vertex 0.533719 -8.48323 -47.5
      vertex -0.313952 -4.99013 -47.5
      vertex 0.313952 -4.99013 -47.5
    endloop
  endfacet
  facet normal 0 0 -1
    outer loop
      vertex -0.533719 -8.48323 -47.5
      vertex -0.313952 -4.99013 -47.5
      vertex 0.533719 -8.48323 -47.5
    endloop
  endfacet
  facet normal 0 0 -1
    outer loop
      vertex -0.533719 -8.48323 -47.5
      vertex -0.936906 -4.91144 -47.5
      vertex -0.313952 -4.99013 -47.5
    endloop
  endfacet
  facet normal 0 0 -1
    outer loop
      vertex -1.59274 -8.34944 -47.5
      vertex -0.936906 -4.91144 -47.5
      vertex -0.533719 -8.48323 -47.5
    endloop
  endfacet
  facet normal -0 0 -1
    outer loop
      vertex -0.936906 -4.91144 -47.5
      vertex -1.59274 -8.34944 -47.5
      vertex -1.54508 -4.75528 -47.5
    endloop
  endfacet
  facet normal 0 0 -1
    outer loop
      vertex -2.62664 -8.08398 -47.5
      vertex -1.54508 -4.75528 -47.5
      vertex -1.59274 -8.34944 -47.5
    endloop
  endfacet
  facet normal -0 0 -1
    outer loop
      vertex -1.54508 -4.75528 -47.5
      vertex -2.62664 -8.08398 -47.5
      vertex -2.1289 -4.52413 -47.5
    endloop
  endfacet
  facet normal 0 0 -1
    outer loop
      vertex -3.61912 -7.69103 -47.5
      vertex -2.1289 -4.52413 -47.5
      vertex -2.62664 -8.08398 -47.5
    endloop
  endfacet
  facet normal -0 0 -1
    outer loop
      vertex -2.1289 -4.52413 -47.5
      vertex -3.61912 -7.69103 -47.5
      vertex -2.67913 -4.22164 -47.5
    endloop
  endfacet
  facet normal 0 0 -1
    outer loop
      vertex -4.55453 -7.17679 -47.5
      vertex -2.67913 -4.22164 -47.5
      vertex -3.61912 -7.69103 -47.5
    endloop
  endfacet
  facet normal -0 0 -1
    outer loop
      vertex -2.67913 -4.22164 -47.5
      vertex -4.55453 -7.17679 -47.5
      vertex -3.18712 -3.85257 -47.5
    endloop
  endfacet
  facet normal 0 0 -1
    outer loop
      vertex -5.4181 -6.54936 -47.5
      vertex -3.18712 -3.85257 -47.5
      vertex -4.55453 -7.17679 -47.5
    endloop
  endfacet
  facet normal -0 0 -1
    outer loop
      vertex -3.18712 -3.85257 -47.5
      vertex -5.4181 -6.54936 -47.5
      vertex -3.64484 -3.42274 -47.5
    endloop
  endfacet
  facet normal 0 0 -1
    outer loop
      vertex -6.19623 -5.81865 -47.5
      vertex -3.64484 -3.42274 -47.5
      vertex -5.4181 -6.54936 -47.5
    endloop
  endfacet
  facet normal -0 0 -1
    outer loop
      vertex -3.64484 -3.42274 -47.5
      vertex -6.19623 -5.81865 -47.5
      vertex -4.04508 -2.93893 -47.5
    endloop
  endfacet
  facet normal 0 0 -1
    outer loop
      vertex -6.87664 -4.99617 -47.5
      vertex -4.04508 -2.93893 -47.5
      vertex -6.19623 -5.81865 -47.5
    endloop
  endfacet
  facet normal -0 0 -1
    outer loop
      vertex -4.04508 -2.93893 -47.5
      vertex -6.87664 -4.99617 -47.5
      vertex -4.38153 -2.40877 -47.5
    endloop
  endfacet
  facet normal 0 0 -1
    outer loop
      vertex -7.44861 -4.09491 -47.5
      vertex -4.38153 -2.40877 -47.5
      vertex -6.87664 -4.99617 -47.5
    endloop
  endfacet
  facet normal -0 0 -1
    outer loop
      vertex -4.38153 -2.40877 -47.5
      vertex -7.44861 -4.09491 -47.5
      vertex -4.64888 -1.84062 -47.5
    endloop
  endfacet
  facet normal 0 0 -1
    outer loop
      vertex 4.38153 2.40877 -47.5
      vertex 7.44861 4.09491 -47.5
      vertex 4.64888 1.84062 -47.5
    endloop
  endfacet
  facet normal -0 0 -1
    outer loop
      vertex 7.44861 4.09491 -47.5
      vertex 4.38153 2.40877 -47.5
      vertex 6.87664 4.99617 -47.5
    endloop
  endfacet
  facet normal 0 0 -1
    outer loop
      vertex 4.04508 2.93893 -47.5
      vertex 6.87664 4.99617 -47.5
      vertex 4.38153 2.40877 -47.5
    endloop
  endfacet
  facet normal -0 0 -1
    outer loop
      vertex 6.87664 4.99617 -47.5
      vertex 4.04508 2.93893 -47.5
      vertex 6.19623 5.81865 -47.5
    endloop
  endfacet
  facet normal 0 0 -1
    outer loop
      vertex 3.64484 3.42274 -47.5
      vertex 6.19623 5.81865 -47.5
      vertex 4.04508 2.93893 -47.5
    endloop
  endfacet
  facet normal -0 0 -1
    outer loop
      vertex 6.19623 5.81865 -47.5
      vertex 3.64484 3.42274 -47.5
      vertex 5.4181 6.54936 -47.5
    endloop
  endfacet
  facet normal 0 0 -1
    outer loop
      vertex 3.18712 3.85257 -47.5
      vertex 5.4181 6.54936 -47.5
      vertex 3.64484 3.42274 -47.5
    endloop
  endfacet
  facet normal -0 0 -1
    outer loop
      vertex 5.4181 6.54936 -47.5
      vertex 3.18712 3.85257 -47.5
      vertex 4.55453 7.17679 -47.5
    endloop
  endfacet
  facet normal 0 0 -1
    outer loop
      vertex 2.67913 4.22164 -47.5
      vertex 4.55453 7.17679 -47.5
      vertex 3.18712 3.85257 -47.5
    endloop
  endfacet
  facet normal -0 0 -1
    outer loop
      vertex 4.55453 7.17679 -47.5
      vertex 2.67913 4.22164 -47.5
      vertex 3.61912 7.69103 -47.5
    endloop
  endfacet
  facet normal 0 0 -1
    outer loop
      vertex 2.1289 4.52413 -47.5
      vertex 3.61912 7.69103 -47.5
      vertex 2.67913 4.22164 -47.5
    endloop
  endfacet
  facet normal -0 0 -1
    outer loop
      vertex 3.61912 7.69103 -47.5
      vertex 2.1289 4.52413 -47.5
      vertex 2.62664 8.08398 -47.5
    endloop
  endfacet
  facet normal 0 0 -1
    outer loop
      vertex 1.54508 4.75528 -47.5
      vertex 2.62664 8.08398 -47.5
      vertex 2.1289 4.52413 -47.5
    endloop
  endfacet
  facet normal -0 0 -1
    outer loop
      vertex 2.62664 8.08398 -47.5
      vertex 1.54508 4.75528 -47.5
      vertex 1.59274 8.34944 -47.5
    endloop
  endfacet
  facet normal 0 0 -1
    outer loop
      vertex 0.936906 4.91144 -47.5
      vertex 1.59274 8.34944 -47.5
      vertex 1.54508 4.75528 -47.5
    endloop
  endfacet
  facet normal 0 0 -1
    outer loop
      vertex 0.936906 4.91144 -47.5
      vertex 0.533719 8.48323 -47.5
      vertex 1.59274 8.34944 -47.5
    endloop
  endfacet
  facet normal 0 0 -1
    outer loop
      vertex 0.313952 4.99013 -47.5
      vertex 0.533719 8.48323 -47.5
      vertex 0.936906 4.91144 -47.5
    endloop
  endfacet
  facet normal 0 0 -1
    outer loop
      vertex -0.313952 4.99013 -47.5
      vertex 0.533719 8.48323 -47.5
      vertex 0.313952 4.99013 -47.5
    endloop
  endfacet
  facet normal 0 0 -1
    outer loop
      vertex -0.313952 4.99013 -47.5
      vertex -0.533719 8.48323 -47.5
      vertex 0.533719 8.48323 -47.5
    endloop
  endfacet
  facet normal 0 0 -1
    outer loop
      vertex -0.936906 4.91144 -47.5
      vertex -0.533719 8.48323 -47.5
      vertex -0.313952 4.99013 -47.5
    endloop
  endfacet
  facet normal 0 0 -1
    outer loop
      vertex -1.59274 8.34944 -47.5
      vertex -0.936906 4.91144 -47.5
      vertex -1.54508 4.75528 -47.5
    endloop
  endfacet
  facet normal 0 0 -1
    outer loop
      vertex -0.936906 4.91144 -47.5
      vertex -1.59274 8.34944 -47.5
      vertex -0.533719 8.48323 -47.5
    endloop
  endfacet
  facet normal 0 0 -1
    outer loop
      vertex -2.62664 8.08398 -47.5
      vertex -1.54508 4.75528 -47.5
      vertex -2.1289 4.52413 -47.5
    endloop
  endfacet
  facet normal 0 0 -1
    outer loop
      vertex -1.54508 4.75528 -47.5
      vertex -2.62664 8.08398 -47.5
      vertex -1.59274 8.34944 -47.5
    endloop
  endfacet
  facet normal 0 0 -1
    outer loop
      vertex -3.61912 7.69103 -47.5
      vertex -2.1289 4.52413 -47.5
      vertex -2.67913 4.22164 -47.5
    endloop
  endfacet
  facet normal 0 0 -1
    outer loop
      vertex -4.55453 7.17679 -47.5
      vertex -2.67913 4.22164 -47.5
      vertex -3.18712 3.85257 -47.5
    endloop
  endfacet
  facet normal 0 0 -1
    outer loop
      vertex -2.1289 4.52413 -47.5
      vertex -3.61912 7.69103 -47.5
      vertex -2.62664 8.08398 -47.5
    endloop
  endfacet
  facet normal 0 0 -1
    outer loop
      vertex -5.4181 6.54936 -47.5
      vertex -3.18712 3.85257 -47.5
      vertex -3.64484 3.42274 -47.5
    endloop
  endfacet
  facet normal 0 0 -1
    outer loop
      vertex -6.19623 5.81865 -47.5
      vertex -3.64484 3.42274 -47.5
      vertex -4.04508 2.93893 -47.5
    endloop
  endfacet
  facet normal 0 0 -1
    outer loop
      vertex -6.87664 4.99617 -47.5
      vertex -4.04508 2.93893 -47.5
      vertex -4.38153 2.40877 -47.5
    endloop
  endfacet
  facet normal 0 0 -1
    outer loop
      vertex -2.67913 4.22164 -47.5
      vertex -4.55453 7.17679 -47.5
      vertex -3.61912 7.69103 -47.5
    endloop
  endfacet
  facet normal 0 0 -1
    outer loop
      vertex -7.44861 4.09491 -47.5
      vertex -4.38153 2.40877 -47.5
      vertex -4.64888 1.84062 -47.5
    endloop
  endfacet
  facet normal 0 0 -1
    outer loop
      vertex -7.9031 3.12906 -47.5
      vertex -4.64888 1.84062 -47.5
      vertex -4.84292 1.24345 -47.5
    endloop
  endfacet
  facet normal 0 0 -1
    outer loop
      vertex -8.23296 2.11386 -47.5
      vertex -4.84292 1.24345 -47.5
      vertex -4.96057 0.626666 -47.5
    endloop
  endfacet
  facet normal 0 0 -1
    outer loop
      vertex -8.43297 1.06533 -47.5
      vertex -4.96057 0.626666 -47.5
      vertex -5 0 -47.5
    endloop
  endfacet
  facet normal 0 0 -1
    outer loop
      vertex -7.9031 -3.12906 -47.5
      vertex -4.64888 -1.84062 -47.5
      vertex -7.44861 -4.09491 -47.5
    endloop
  endfacet
  facet normal 0 0 -1
    outer loop
      vertex -3.18712 3.85257 -47.5
      vertex -5.4181 6.54936 -47.5
      vertex -4.55453 7.17679 -47.5
    endloop
  endfacet
  facet normal -0 0 -1
    outer loop
      vertex -4.64888 -1.84062 -47.5
      vertex -7.9031 -3.12906 -47.5
      vertex -4.84292 -1.24345 -47.5
    endloop
  endfacet
  facet normal 0 0 -1
    outer loop
      vertex -3.64484 3.42274 -47.5
      vertex -6.19623 5.81865 -47.5
      vertex -5.4181 6.54936 -47.5
    endloop
  endfacet
  facet normal 0 0 -1
    outer loop
      vertex -8.23296 -2.11386 -47.5
      vertex -4.84292 -1.24345 -47.5
      vertex -7.9031 -3.12906 -47.5
    endloop
  endfacet
  facet normal 0 0 -1
    outer loop
      vertex -4.04508 2.93893 -47.5
      vertex -6.87664 4.99617 -47.5
      vertex -6.19623 5.81865 -47.5
    endloop
  endfacet
  facet normal -0 0 -1
    outer loop
      vertex -4.84292 -1.24345 -47.5
      vertex -8.23296 -2.11386 -47.5
      vertex -4.96057 -0.626666 -47.5
    endloop
  endfacet
  facet normal 0 0 -1
    outer loop
      vertex -4.38153 2.40877 -47.5
      vertex -7.44861 4.09491 -47.5
      vertex -6.87664 4.99617 -47.5
    endloop
  endfacet
  facet normal 0 0 -1
    outer loop
      vertex -8.43297 -1.06533 -47.5
      vertex -4.96057 -0.626666 -47.5
      vertex -8.23296 -2.11386 -47.5
    endloop
  endfacet
  facet normal 0 0 -1
    outer loop
      vertex -4.64888 1.84062 -47.5
      vertex -7.9031 3.12906 -47.5
      vertex -7.44861 4.09491 -47.5
    endloop
  endfacet
  facet normal -0 0 -1
    outer loop
      vertex -4.96057 -0.626666 -47.5
      vertex -8.43297 -1.06533 -47.5
      vertex -5 0 -47.5
    endloop
  endfacet
  facet normal 0 0 -1
    outer loop
      vertex -4.84292 1.24345 -47.5
      vertex -8.23296 2.11386 -47.5
      vertex -7.9031 3.12906 -47.5
    endloop
  endfacet
  facet normal 0 0 -1
    outer loop
      vertex -8.5 0 -47.5
      vertex -5 0 -47.5
      vertex -8.43297 -1.06533 -47.5
    endloop
  endfacet
  facet normal 0 0 -1
    outer loop
      vertex -4.96057 0.626666 -47.5
      vertex -8.43297 1.06533 -47.5
      vertex -8.23296 2.11386 -47.5
    endloop
  endfacet
  facet normal 0 0 -1
    outer loop
      vertex -5 0 -47.5
      vertex -8.5 0 -47.5
      vertex -8.43297 1.06533 -47.5
    endloop
  endfacet
  facet normal 0.125337 -0.992114 0
    outer loop
      vertex 0.533719 -8.48323 -47.5
      vertex 1.59274 -8.34944 47.5
      vertex 0.533719 -8.48323 47.5
    endloop
  endfacet
  facet normal 0.125337 -0.992114 0
    outer loop
      vertex 1.59274 -8.34944 47.5
      vertex 0.533719 -8.48323 -47.5
      vertex 1.59274 -8.34944 -47.5
    endloop
  endfacet
  facet normal 0.951056 0.309018 0
    outer loop
      vertex 8.23296 2.11386 47.5
      vertex 7.9031 3.12906 -47.5
      vertex 7.9031 3.12906 47.5
    endloop
  endfacet
  facet normal 0.951056 0.309018 0
    outer loop
      vertex 7.9031 3.12906 -47.5
      vertex 8.23296 2.11386 47.5
      vertex 8.23296 2.11386 -47.5
    endloop
  endfacet
  facet normal 0.982289 0.187374 0
    outer loop
      vertex 8.43297 1.06533 47.5
      vertex 8.23296 2.11386 -47.5
      vertex 8.23296 2.11386 47.5
    endloop
  endfacet
  facet normal 0.982289 0.187374 0
    outer loop
      vertex 8.23296 2.11386 -47.5
      vertex 8.43297 1.06533 47.5
      vertex 8.43297 1.06533 -47.5
    endloop
  endfacet
  facet normal 0.770515 0.637421 0
    outer loop
      vertex 6.87664 4.99617 47.5
      vertex 6.19623 5.81865 -47.5
      vertex 6.19623 5.81865 47.5
    endloop
  endfacet
  facet normal 0.770515 0.637421 0
    outer loop
      vertex 6.19623 5.81865 -47.5
      vertex 6.87664 4.99617 47.5
      vertex 6.87664 4.99617 -47.5
    endloop
  endfacet
  facet normal 0.844322 0.535835 0
    outer loop
      vertex 7.44861 4.09491 47.5
      vertex 6.87664 4.99617 -47.5
      vertex 6.87664 4.99617 47.5
    endloop
  endfacet
  facet normal 0.844322 0.535835 0
    outer loop
      vertex 6.87664 4.99617 -47.5
      vertex 7.44861 4.09491 47.5
      vertex 7.44861 4.09491 -47.5
    endloop
  endfacet
  facet normal 0.125337 0.992114 -0
    outer loop
      vertex 1.59274 8.34944 -47.5
      vertex 0.533719 8.48323 47.5
      vertex 1.59274 8.34944 47.5
    endloop
  endfacet
  facet normal 0.125337 0.992114 0
    outer loop
      vertex 0.533719 8.48323 47.5
      vertex 1.59274 8.34944 -47.5
      vertex 0.533719 8.48323 -47.5
    endloop
  endfacet
  facet normal 0.587791 0.809013 -0
    outer loop
      vertex 5.4181 6.54936 -47.5
      vertex 4.55453 7.17679 47.5
      vertex 5.4181 6.54936 47.5
    endloop
  endfacet
  facet normal 0.587791 0.809013 0
    outer loop
      vertex 4.55453 7.17679 47.5
      vertex 5.4181 6.54936 -47.5
      vertex 4.55453 7.17679 -47.5
    endloop
  endfacet
  facet normal -0.844322 0.535835 0
    outer loop
      vertex -7.44861 4.09491 -47.5
      vertex -6.87664 4.99617 47.5
      vertex -6.87664 4.99617 -47.5
    endloop
  endfacet
  facet normal -0.844322 0.535835 0
    outer loop
      vertex -6.87664 4.99617 47.5
      vertex -7.44861 4.09491 -47.5
      vertex -7.44861 4.09491 47.5
    endloop
  endfacet
  facet normal -0.770515 0.637421 0
    outer loop
      vertex -6.87664 4.99617 -47.5
      vertex -6.19623 5.81865 47.5
      vertex -6.19623 5.81865 -47.5
    endloop
  endfacet
  facet normal -0.770515 0.637421 0
    outer loop
      vertex -6.19623 5.81865 47.5
      vertex -6.87664 4.99617 -47.5
      vertex -6.87664 4.99617 47.5
    endloop
  endfacet
  facet normal -0.951056 0.309018 0
    outer loop
      vertex -8.23296 2.11386 -47.5
      vertex -7.9031 3.12906 47.5
      vertex -7.9031 3.12906 -47.5
    endloop
  endfacet
  facet normal -0.951056 0.309018 0
    outer loop
      vertex -7.9031 3.12906 47.5
      vertex -8.23296 2.11386 -47.5
      vertex -8.23296 2.11386 47.5
    endloop
  endfacet
  facet normal -0.982289 0.187374 0
    outer loop
      vertex -8.43297 1.06533 -47.5
      vertex -8.23296 2.11386 47.5
      vertex -8.23296 2.11386 -47.5
    endloop
  endfacet
  facet normal -0.982289 0.187374 0
    outer loop
      vertex -8.23296 2.11386 47.5
      vertex -8.43297 1.06533 -47.5
      vertex -8.43297 1.06533 47.5
    endloop
  endfacet
  facet normal -0.481749 0.876309 0
    outer loop
      vertex -3.61912 7.69103 -47.5
      vertex -4.55453 7.17679 47.5
      vertex -3.61912 7.69103 47.5
    endloop
  endfacet
  facet normal -0.481749 0.876309 0
    outer loop
      vertex -4.55453 7.17679 47.5
      vertex -3.61912 7.69103 -47.5
      vertex -4.55453 7.17679 -47.5
    endloop
  endfacet
  facet normal -0.587791 0.809013 0
    outer loop
      vertex -4.55453 7.17679 -47.5
      vertex -5.4181 6.54936 47.5
      vertex -4.55453 7.17679 47.5
    endloop
  endfacet
  facet normal -0.587791 0.809013 0
    outer loop
      vertex -5.4181 6.54936 47.5
      vertex -4.55453 7.17679 -47.5
      vertex -5.4181 6.54936 -47.5
    endloop
  endfacet
  facet normal -0.24869 0.968583 0
    outer loop
      vertex -1.59274 8.34944 -47.5
      vertex -2.62664 8.08398 47.5
      vertex -1.59274 8.34944 47.5
    endloop
  endfacet
  facet normal -0.24869 0.968583 0
    outer loop
      vertex -2.62664 8.08398 47.5
      vertex -1.59274 8.34944 -47.5
      vertex -2.62664 8.08398 -47.5
    endloop
  endfacet
  facet normal 0.998026 -0.0627953 0
    outer loop
      vertex 8.43297 -1.06533 47.5
      vertex 8.5 0 -47.5
      vertex 8.5 0 47.5
    endloop
  endfacet
  facet normal 0.998026 -0.0627953 0
    outer loop
      vertex 8.5 0 -47.5
      vertex 8.43297 -1.06533 47.5
      vertex 8.43297 -1.06533 -47.5
    endloop
  endfacet
  facet normal 0.904829 -0.425776 0
    outer loop
      vertex 7.44861 -4.09491 47.5
      vertex 7.9031 -3.12906 -47.5
      vertex 7.9031 -3.12906 47.5
    endloop
  endfacet
  facet normal 0.904829 -0.425776 0
    outer loop
      vertex 7.9031 -3.12906 -47.5
      vertex 7.44861 -4.09491 47.5
      vertex 7.44861 -4.09491 -47.5
    endloop
  endfacet
  facet normal -0.684546 -0.72897 0
    outer loop
      vertex -6.19623 -5.81865 -47.5
      vertex -5.4181 -6.54936 47.5
      vertex -6.19623 -5.81865 47.5
    endloop
  endfacet
  facet normal -0.684546 -0.72897 -0
    outer loop
      vertex -5.4181 -6.54936 47.5
      vertex -6.19623 -5.81865 -47.5
      vertex -5.4181 -6.54936 -47.5
    endloop
  endfacet
  facet normal -0.904829 -0.425776 0
    outer loop
      vertex -7.44861 -4.09491 -47.5
      vertex -7.9031 -3.12906 47.5
      vertex -7.9031 -3.12906 -47.5
    endloop
  endfacet
  facet normal -0.904829 -0.425776 0
    outer loop
      vertex -7.9031 -3.12906 47.5
      vertex -7.44861 -4.09491 -47.5
      vertex -7.44861 -4.09491 47.5
    endloop
  endfacet
  facet normal -0.844322 -0.535835 0
    outer loop
      vertex -6.87664 -4.99617 -47.5
      vertex -7.44861 -4.09491 47.5
      vertex -7.44861 -4.09491 -47.5
    endloop
  endfacet
  facet normal -0.844322 -0.535835 0
    outer loop
      vertex -7.44861 -4.09491 47.5
      vertex -6.87664 -4.99617 -47.5
      vertex -6.87664 -4.99617 47.5
    endloop
  endfacet
  facet normal 0.481749 -0.876309 0
    outer loop
      vertex 3.61912 -7.69103 -47.5
      vertex 4.55453 -7.17679 47.5
      vertex 3.61912 -7.69103 47.5
    endloop
  endfacet
  facet normal 0.481749 -0.876309 0
    outer loop
      vertex 4.55453 -7.17679 47.5
      vertex 3.61912 -7.69103 -47.5
      vertex 4.55453 -7.17679 -47.5
    endloop
  endfacet
  facet normal 0.951056 -0.309018 0
    outer loop
      vertex 7.9031 -3.12906 47.5
      vertex 8.23296 -2.11386 -47.5
      vertex 8.23296 -2.11386 47.5
    endloop
  endfacet
  facet normal 0.951056 -0.309018 0
    outer loop
      vertex 8.23296 -2.11386 -47.5
      vertex 7.9031 -3.12906 47.5
      vertex 7.9031 -3.12906 -47.5
    endloop
  endfacet
  facet normal -0.770515 -0.637421 0
    outer loop
      vertex -6.19623 -5.81865 -47.5
      vertex -6.87664 -4.99617 47.5
      vertex -6.87664 -4.99617 -47.5
    endloop
  endfacet
  facet normal -0.770515 -0.637421 0
    outer loop
      vertex -6.87664 -4.99617 47.5
      vertex -6.19623 -5.81865 -47.5
      vertex -6.19623 -5.81865 47.5
    endloop
  endfacet
  facet normal -0.982289 -0.187374 0
    outer loop
      vertex -8.23296 -2.11386 -47.5
      vertex -8.43297 -1.06533 47.5
      vertex -8.43297 -1.06533 -47.5
    endloop
  endfacet
  facet normal -0.982289 -0.187374 0
    outer loop
      vertex -8.43297 -1.06533 47.5
      vertex -8.23296 -2.11386 -47.5
      vertex -8.23296 -2.11386 47.5
    endloop
  endfacet
  facet normal -0.998026 -0.0627953 0
    outer loop
      vertex -8.43297 -1.06533 -47.5
      vertex -8.5 0 47.5
      vertex -8.5 0 -47.5
    endloop
  endfacet
  facet normal -0.998026 -0.0627953 0
    outer loop
      vertex -8.5 0 47.5
      vertex -8.43297 -1.06533 -47.5
      vertex -8.43297 -1.06533 47.5
    endloop
  endfacet
  facet normal -0.951056 -0.309018 0
    outer loop
      vertex -7.9031 -3.12906 -47.5
      vertex -8.23296 -2.11386 47.5
      vertex -8.23296 -2.11386 -47.5
    endloop
  endfacet
  facet normal -0.951056 -0.309018 0
    outer loop
      vertex -8.23296 -2.11386 47.5
      vertex -7.9031 -3.12906 -47.5
      vertex -7.9031 -3.12906 47.5
    endloop
  endfacet
  facet normal 0.684546 -0.72897 0
    outer loop
      vertex 5.4181 -6.54936 -47.5
      vertex 6.19623 -5.81865 47.5
      vertex 5.4181 -6.54936 47.5
    endloop
  endfacet
  facet normal 0.684546 -0.72897 0
    outer loop
      vertex 6.19623 -5.81865 47.5
      vertex 5.4181 -6.54936 -47.5
      vertex 6.19623 -5.81865 -47.5
    endloop
  endfacet
  facet normal 0.368124 -0.929777 0
    outer loop
      vertex 2.62664 -8.08398 -47.5
      vertex 3.61912 -7.69103 47.5
      vertex 2.62664 -8.08398 47.5
    endloop
  endfacet
  facet normal 0.368124 -0.929777 0
    outer loop
      vertex 3.61912 -7.69103 47.5
      vertex 2.62664 -8.08398 -47.5
      vertex 3.61912 -7.69103 -47.5
    endloop
  endfacet
  facet normal 0.24869 -0.968583 0
    outer loop
      vertex 1.59274 -8.34944 -47.5
      vertex 2.62664 -8.08398 47.5
      vertex 1.59274 -8.34944 47.5
    endloop
  endfacet
  facet normal 0.24869 -0.968583 0
    outer loop
      vertex 2.62664 -8.08398 47.5
      vertex 1.59274 -8.34944 -47.5
      vertex 2.62664 -8.08398 -47.5
    endloop
  endfacet
  facet normal 0.982289 -0.187374 0
    outer loop
      vertex 8.23296 -2.11386 47.5
      vertex 8.43297 -1.06533 -47.5
      vertex 8.43297 -1.06533 47.5
    endloop
  endfacet
  facet normal 0.982289 -0.187374 0
    outer loop
      vertex 8.43297 -1.06533 -47.5
      vertex 8.23296 -2.11386 47.5
      vertex 8.23296 -2.11386 -47.5
    endloop
  endfacet
  facet normal 0.844322 -0.535835 0
    outer loop
      vertex 6.87664 -4.99617 47.5
      vertex 7.44861 -4.09491 -47.5
      vertex 7.44861 -4.09491 47.5
    endloop
  endfacet
  facet normal 0.844322 -0.535835 0
    outer loop
      vertex 7.44861 -4.09491 -47.5
      vertex 6.87664 -4.99617 47.5
      vertex 6.87664 -4.99617 -47.5
    endloop
  endfacet
  facet normal 0.770515 -0.637421 0
    outer loop
      vertex 6.19623 -5.81865 47.5
      vertex 6.87664 -4.99617 -47.5
      vertex 6.87664 -4.99617 47.5
    endloop
  endfacet
  facet normal 0.770515 -0.637421 0
    outer loop
      vertex 6.87664 -4.99617 -47.5
      vertex 6.19623 -5.81865 47.5
      vertex 6.19623 -5.81865 -47.5
    endloop
  endfacet
  facet normal -0.125337 -0.992114 0
    outer loop
      vertex -1.59274 -8.34944 -47.5
      vertex -0.533719 -8.48323 47.5
      vertex -1.59274 -8.34944 47.5
    endloop
  endfacet
  facet normal -0.125337 -0.992114 -0
    outer loop
      vertex -0.533719 -8.48323 47.5
      vertex -1.59274 -8.34944 -47.5
      vertex -0.533719 -8.48323 -47.5
    endloop
  endfacet
  facet normal -0.587791 -0.809013 0
    outer loop
      vertex -5.4181 -6.54936 -47.5
      vertex -4.55453 -7.17679 47.5
      vertex -5.4181 -6.54936 47.5
    endloop
  endfacet
  facet normal -0.587791 -0.809013 -0
    outer loop
      vertex -4.55453 -7.17679 47.5
      vertex -5.4181 -6.54936 -47.5
      vertex -4.55453 -7.17679 -47.5
    endloop
  endfacet
  facet normal 0.587791 -0.809013 0
    outer loop
      vertex 4.55453 -7.17679 -47.5
      vertex 5.4181 -6.54936 47.5
      vertex 4.55453 -7.17679 47.5
    endloop
  endfacet
  facet normal 0.587791 -0.809013 0
    outer loop
      vertex 5.4181 -6.54936 47.5
      vertex 4.55453 -7.17679 -47.5
      vertex 5.4181 -6.54936 -47.5
    endloop
  endfacet
  facet normal -0.24869 -0.968583 0
    outer loop
      vertex -2.62664 -8.08398 -47.5
      vertex -1.59274 -8.34944 47.5
      vertex -2.62664 -8.08398 47.5
    endloop
  endfacet
  facet normal -0.24869 -0.968583 -0
    outer loop
      vertex -1.59274 -8.34944 47.5
      vertex -2.62664 -8.08398 -47.5
      vertex -1.59274 -8.34944 -47.5
    endloop
  endfacet
  facet normal -0.368124 -0.929777 0
    outer loop
      vertex -3.61912 -7.69103 -47.5
      vertex -2.62664 -8.08398 47.5
      vertex -3.61912 -7.69103 47.5
    endloop
  endfacet
  facet normal -0.368124 -0.929777 -0
    outer loop
      vertex -2.62664 -8.08398 47.5
      vertex -3.61912 -7.69103 -47.5
      vertex -2.62664 -8.08398 -47.5
    endloop
  endfacet
  facet normal -0.481749 -0.876309 0
    outer loop
      vertex -4.55453 -7.17679 -47.5
      vertex -3.61912 -7.69103 47.5
      vertex -4.55453 -7.17679 47.5
    endloop
  endfacet
  facet normal -0.481749 -0.876309 -0
    outer loop
      vertex -3.61912 -7.69103 47.5
      vertex -4.55453 -7.17679 -47.5
      vertex -3.61912 -7.69103 -47.5
    endloop
  endfacet
  facet normal -0.998026 -0.0627961 0
    outer loop
      vertex 5 0 -47.5
      vertex 4.96057 0.626666 47.5
      vertex 4.96057 0.626666 -47.5
    endloop
  endfacet
  facet normal -0.998026 -0.0627961 0
    outer loop
      vertex 4.96057 0.626666 47.5
      vertex 5 0 -47.5
      vertex 5 0 47.5
    endloop
  endfacet
  facet normal 0.998026 -0.0627961 0
    outer loop
      vertex -5 0 47.5
      vertex -4.96057 0.626666 -47.5
      vertex -4.96057 0.626666 47.5
    endloop
  endfacet
  facet normal 0.998026 -0.0627961 0
    outer loop
      vertex -4.96057 0.626666 -47.5
      vertex -5 0 47.5
      vertex -5 0 -47.5
    endloop
  endfacet
  facet normal 0 -1 0
    outer loop
      vertex -0.313952 4.99013 -47.5
      vertex 0.313952 4.99013 47.5
      vertex -0.313952 4.99013 47.5
    endloop
  endfacet
  facet normal 0 -1 -0
    outer loop
      vertex 0.313952 4.99013 47.5
      vertex -0.313952 4.99013 -47.5
      vertex 0.313952 4.99013 -47.5
    endloop
  endfacet
  facet normal -0.684549 -0.728967 0
    outer loop
      vertex 3.18712 3.85257 -47.5
      vertex 3.64484 3.42274 47.5
      vertex 3.18712 3.85257 47.5
    endloop
  endfacet
  facet normal -0.684549 -0.728967 -0
    outer loop
      vertex 3.64484 3.42274 47.5
      vertex 3.18712 3.85257 -47.5
      vertex 3.64484 3.42274 -47.5
    endloop
  endfacet
  facet normal 0.684549 -0.728967 0
    outer loop
      vertex -3.64484 3.42274 -47.5
      vertex -3.18712 3.85257 47.5
      vertex -3.64484 3.42274 47.5
    endloop
  endfacet
  facet normal 0.684549 -0.728967 0
    outer loop
      vertex -3.18712 3.85257 47.5
      vertex -3.64484 3.42274 -47.5
      vertex -3.18712 3.85257 -47.5
    endloop
  endfacet
  facet normal 0.368124 -0.929777 0
    outer loop
      vertex -2.1289 4.52413 -47.5
      vertex -1.54508 4.75528 47.5
      vertex -2.1289 4.52413 47.5
    endloop
  endfacet
  facet normal 0.368124 -0.929777 0
    outer loop
      vertex -1.54508 4.75528 47.5
      vertex -2.1289 4.52413 -47.5
      vertex -1.54508 4.75528 -47.5
    endloop
  endfacet
  facet normal -0.770515 0.637422 0
    outer loop
      vertex 3.64484 -3.42274 -47.5
      vertex 4.04508 -2.93893 47.5
      vertex 4.04508 -2.93893 -47.5
    endloop
  endfacet
  facet normal -0.770515 0.637422 0
    outer loop
      vertex 4.04508 -2.93893 47.5
      vertex 3.64484 -3.42274 -47.5
      vertex 3.64484 -3.42274 47.5
    endloop
  endfacet
  facet normal -0.904828 -0.425778 0
    outer loop
      vertex 4.64888 1.84062 -47.5
      vertex 4.38153 2.40877 47.5
      vertex 4.38153 2.40877 -47.5
    endloop
  endfacet
  facet normal -0.904828 -0.425778 0
    outer loop
      vertex 4.38153 2.40877 47.5
      vertex 4.64888 1.84062 -47.5
      vertex 4.64888 1.84062 47.5
    endloop
  endfacet
  facet normal -0.98229 -0.187369 0
    outer loop
      vertex 4.96057 0.626666 -47.5
      vertex 4.84292 1.24345 47.5
      vertex 4.84292 1.24345 -47.5
    endloop
  endfacet
  facet normal -0.98229 -0.187369 0
    outer loop
      vertex 4.84292 1.24345 47.5
      vertex 4.96057 0.626666 -47.5
      vertex 4.96057 0.626666 47.5
    endloop
  endfacet
  facet normal -0.368124 -0.929777 0
    outer loop
      vertex 1.54508 4.75528 -47.5
      vertex 2.1289 4.52413 47.5
      vertex 1.54508 4.75528 47.5
    endloop
  endfacet
  facet normal -0.368124 -0.929777 -0
    outer loop
      vertex 2.1289 4.52413 47.5
      vertex 1.54508 4.75528 -47.5
      vertex 2.1289 4.52413 -47.5
    endloop
  endfacet
  facet normal -0.248701 -0.96858 0
    outer loop
      vertex 0.936906 4.91144 -47.5
      vertex 1.54508 4.75528 47.5
      vertex 0.936906 4.91144 47.5
    endloop
  endfacet
  facet normal -0.248701 -0.96858 -0
    outer loop
      vertex 1.54508 4.75528 47.5
      vertex 0.936906 4.91144 -47.5
      vertex 1.54508 4.75528 -47.5
    endloop
  endfacet
  facet normal -0.587779 -0.809022 0
    outer loop
      vertex 2.67913 4.22164 -47.5
      vertex 3.18712 3.85257 47.5
      vertex 2.67913 4.22164 47.5
    endloop
  endfacet
  facet normal -0.587779 -0.809022 -0
    outer loop
      vertex 3.18712 3.85257 47.5
      vertex 2.67913 4.22164 -47.5
      vertex 3.18712 3.85257 -47.5
    endloop
  endfacet
  facet normal 0.844328 -0.535827 0
    outer loop
      vertex -4.38153 2.40877 47.5
      vertex -4.04508 2.93893 -47.5
      vertex -4.04508 2.93893 47.5
    endloop
  endfacet
  facet normal 0.844328 -0.535827 0
    outer loop
      vertex -4.04508 2.93893 -47.5
      vertex -4.38153 2.40877 47.5
      vertex -4.38153 2.40877 -47.5
    endloop
  endfacet
  facet normal 0.770515 -0.637422 0
    outer loop
      vertex -4.04508 2.93893 47.5
      vertex -3.64484 3.42274 -47.5
      vertex -3.64484 3.42274 47.5
    endloop
  endfacet
  facet normal 0.770515 -0.637422 0
    outer loop
      vertex -3.64484 3.42274 -47.5
      vertex -4.04508 2.93893 47.5
      vertex -4.04508 2.93893 -47.5
    endloop
  endfacet
  facet normal 0.951053 -0.309028 0
    outer loop
      vertex -4.84292 1.24345 47.5
      vertex -4.64888 1.84062 -47.5
      vertex -4.64888 1.84062 47.5
    endloop
  endfacet
  facet normal 0.951053 -0.309028 0
    outer loop
      vertex -4.64888 1.84062 -47.5
      vertex -4.84292 1.24345 47.5
      vertex -4.84292 1.24345 -47.5
    endloop
  endfacet
  facet normal 0.587779 -0.809022 0
    outer loop
      vertex -3.18712 3.85257 -47.5
      vertex -2.67913 4.22164 47.5
      vertex -3.18712 3.85257 47.5
    endloop
  endfacet
  facet normal 0.587779 -0.809022 0
    outer loop
      vertex -2.67913 4.22164 47.5
      vertex -3.18712 3.85257 -47.5
      vertex -2.67913 4.22164 -47.5
    endloop
  endfacet
  facet normal 0.125322 -0.992116 0
    outer loop
      vertex -0.936906 4.91144 -47.5
      vertex -0.313952 4.99013 47.5
      vertex -0.936906 4.91144 47.5
    endloop
  endfacet
  facet normal 0.125322 -0.992116 0
    outer loop
      vertex -0.313952 4.99013 47.5
      vertex -0.936906 4.91144 -47.5
      vertex -0.313952 4.99013 -47.5
    endloop
  endfacet
  facet normal -0.998026 0.0627961 0
    outer loop
      vertex 4.96057 -0.626666 -47.5
      vertex 5 0 47.5
      vertex 5 0 -47.5
    endloop
  endfacet
  facet normal -0.998026 0.0627961 0
    outer loop
      vertex 5 0 47.5
      vertex 4.96057 -0.626666 -47.5
      vertex 4.96057 -0.626666 47.5
    endloop
  endfacet
  facet normal 0.125322 0.992116 -0
    outer loop
      vertex -0.313952 -4.99013 -47.5
      vertex -0.936906 -4.91144 47.5
      vertex -0.313952 -4.99013 47.5
    endloop
  endfacet
  facet normal 0.125322 0.992116 0
    outer loop
      vertex -0.936906 -4.91144 47.5
      vertex -0.313952 -4.99013 -47.5
      vertex -0.936906 -4.91144 -47.5
    endloop
  endfacet
  facet normal -0.125322 0.992116 0
    outer loop
      vertex 0.936906 -4.91144 -47.5
      vertex 0.313952 -4.99013 47.5
      vertex 0.936906 -4.91144 47.5
    endloop
  endfacet
  facet normal -0.125322 0.992116 0
    outer loop
      vertex 0.313952 -4.99013 47.5
      vertex 0.936906 -4.91144 -47.5
      vertex 0.313952 -4.99013 -47.5
    endloop
  endfacet
  facet normal -0.951053 -0.309028 0
    outer loop
      vertex 4.84292 1.24345 -47.5
      vertex 4.64888 1.84062 47.5
      vertex 4.64888 1.84062 -47.5
    endloop
  endfacet
  facet normal -0.951053 -0.309028 0
    outer loop
      vertex 4.64888 1.84062 47.5
      vertex 4.84292 1.24345 -47.5
      vertex 4.84292 1.24345 47.5
    endloop
  endfacet
  facet normal -0.770515 -0.637422 0
    outer loop
      vertex 4.04508 2.93893 -47.5
      vertex 3.64484 3.42274 47.5
      vertex 3.64484 3.42274 -47.5
    endloop
  endfacet
  facet normal -0.770515 -0.637422 0
    outer loop
      vertex 3.64484 3.42274 47.5
      vertex 4.04508 2.93893 -47.5
      vertex 4.04508 2.93893 47.5
    endloop
  endfacet
  facet normal -0.844328 -0.535827 0
    outer loop
      vertex 4.38153 2.40877 -47.5
      vertex 4.04508 2.93893 47.5
      vertex 4.04508 2.93893 -47.5
    endloop
  endfacet
  facet normal -0.844328 -0.535827 0
    outer loop
      vertex 4.04508 2.93893 47.5
      vertex 4.38153 2.40877 -47.5
      vertex 4.38153 2.40877 47.5
    endloop
  endfacet
  facet normal -0.125322 -0.992116 0
    outer loop
      vertex 0.313952 4.99013 -47.5
      vertex 0.936906 4.91144 47.5
      vertex 0.313952 4.99013 47.5
    endloop
  endfacet
  facet normal -0.125322 -0.992116 -0
    outer loop
      vertex 0.936906 4.91144 47.5
      vertex 0.313952 4.99013 -47.5
      vertex 0.936906 4.91144 -47.5
    endloop
  endfacet
  facet normal -0.481752 -0.876308 0
    outer loop
      vertex 2.1289 4.52413 -47.5
      vertex 2.67913 4.22164 47.5
      vertex 2.1289 4.52413 47.5
    endloop
  endfacet
  facet normal -0.481752 -0.876308 -0
    outer loop
      vertex 2.67913 4.22164 47.5
      vertex 2.1289 4.52413 -47.5
      vertex 2.67913 4.22164 -47.5
    endloop
  endfacet
  facet normal 0.904828 -0.425778 0
    outer loop
      vertex -4.64888 1.84062 47.5
      vertex -4.38153 2.40877 -47.5
      vertex -4.38153 2.40877 47.5
    endloop
  endfacet
  facet normal 0.904828 -0.425778 0
    outer loop
      vertex -4.38153 2.40877 -47.5
      vertex -4.64888 1.84062 47.5
      vertex -4.64888 1.84062 -47.5
    endloop
  endfacet
  facet normal 0.98229 -0.187369 0
    outer loop
      vertex -4.96057 0.626666 47.5
      vertex -4.84292 1.24345 -47.5
      vertex -4.84292 1.24345 47.5
    endloop
  endfacet
  facet normal 0.98229 -0.187369 0
    outer loop
      vertex -4.84292 1.24345 -47.5
      vertex -4.96057 0.626666 47.5
      vertex -4.96057 0.626666 -47.5
    endloop
  endfacet
  facet normal 0.248701 -0.96858 0
    outer loop
      vertex -1.54508 4.75528 -47.5
      vertex -0.936906 4.91144 47.5
      vertex -1.54508 4.75528 47.5
    endloop
  endfacet
  facet normal 0.248701 -0.96858 0
    outer loop
      vertex -0.936906 4.91144 47.5
      vertex -1.54508 4.75528 -47.5
      vertex -0.936906 4.91144 -47.5
    endloop
  endfacet
  facet normal -0.844328 0.535827 0
    outer loop
      vertex 4.04508 -2.93893 -47.5
      vertex 4.38153 -2.40877 47.5
      vertex 4.38153 -2.40877 -47.5
    endloop
  endfacet
  facet normal -0.844328 0.535827 0
    outer loop
      vertex 4.38153 -2.40877 47.5
      vertex 4.04508 -2.93893 -47.5
      vertex 4.04508 -2.93893 47.5
    endloop
  endfacet
  facet normal -0.98229 0.187369 0
    outer loop
      vertex 4.84292 -1.24345 -47.5
      vertex 4.96057 -0.626666 47.5
      vertex 4.96057 -0.626666 -47.5
    endloop
  endfacet
  facet normal -0.98229 0.187369 0
    outer loop
      vertex 4.96057 -0.626666 47.5
      vertex 4.84292 -1.24345 -47.5
      vertex 4.84292 -1.24345 47.5
    endloop
  endfacet
  facet normal 0.951053 0.309028 0
    outer loop
      vertex -4.64888 -1.84062 47.5
      vertex -4.84292 -1.24345 -47.5
      vertex -4.84292 -1.24345 47.5
    endloop
  endfacet
  facet normal 0.951053 0.309028 0
    outer loop
      vertex -4.84292 -1.24345 -47.5
      vertex -4.64888 -1.84062 47.5
      vertex -4.64888 -1.84062 -47.5
    endloop
  endfacet
  facet normal -0.368124 0.929777 0
    outer loop
      vertex 2.1289 -4.52413 -47.5
      vertex 1.54508 -4.75528 47.5
      vertex 2.1289 -4.52413 47.5
    endloop
  endfacet
  facet normal -0.368124 0.929777 0
    outer loop
      vertex 1.54508 -4.75528 47.5
      vertex 2.1289 -4.52413 -47.5
      vertex 1.54508 -4.75528 -47.5
    endloop
  endfacet
  facet normal -0.248701 0.96858 0
    outer loop
      vertex 1.54508 -4.75528 -47.5
      vertex 0.936906 -4.91144 47.5
      vertex 1.54508 -4.75528 47.5
    endloop
  endfacet
  facet normal -0.248701 0.96858 0
    outer loop
      vertex 0.936906 -4.91144 47.5
      vertex 1.54508 -4.75528 -47.5
      vertex 0.936906 -4.91144 -47.5
    endloop
  endfacet
  facet normal 0.481752 -0.876308 0
    outer loop
      vertex -2.67913 4.22164 -47.5
      vertex -2.1289 4.52413 47.5
      vertex -2.67913 4.22164 47.5
    endloop
  endfacet
  facet normal 0.481752 -0.876308 0
    outer loop
      vertex -2.1289 4.52413 47.5
      vertex -2.67913 4.22164 -47.5
      vertex -2.1289 4.52413 -47.5
    endloop
  endfacet
  facet normal -0.904828 0.425778 0
    outer loop
      vertex 4.38153 -2.40877 -47.5
      vertex 4.64888 -1.84062 47.5
      vertex 4.64888 -1.84062 -47.5
    endloop
  endfacet
  facet normal -0.904828 0.425778 0
    outer loop
      vertex 4.64888 -1.84062 47.5
      vertex 4.38153 -2.40877 -47.5
      vertex 4.38153 -2.40877 47.5
    endloop
  endfacet
  facet normal 0.248701 0.96858 -0
    outer loop
      vertex -0.936906 -4.91144 -47.5
      vertex -1.54508 -4.75528 47.5
      vertex -0.936906 -4.91144 47.5
    endloop
  endfacet
  facet normal 0.248701 0.96858 0
    outer loop
      vertex -1.54508 -4.75528 47.5
      vertex -0.936906 -4.91144 -47.5
      vertex -1.54508 -4.75528 -47.5
    endloop
  endfacet
  facet normal 0.770515 0.637422 0
    outer loop
      vertex -3.64484 -3.42274 47.5
      vertex -4.04508 -2.93893 -47.5
      vertex -4.04508 -2.93893 47.5
    endloop
  endfacet
  facet normal 0.770515 0.637422 0
    outer loop
      vertex -4.04508 -2.93893 -47.5
      vertex -3.64484 -3.42274 47.5
      vertex -3.64484 -3.42274 -47.5
    endloop
  endfacet
  facet normal 0.998026 0.0627961 0
    outer loop
      vertex -4.96057 -0.626666 47.5
      vertex -5 0 -47.5
      vertex -5 0 47.5
    endloop
  endfacet
  facet normal 0.998026 0.0627961 0
    outer loop
      vertex -5 0 -47.5
      vertex -4.96057 -0.626666 47.5
      vertex -4.96057 -0.626666 -47.5
    endloop
  endfacet
  facet normal -0.684549 0.728967 0
    outer loop
      vertex 3.64484 -3.42274 -47.5
      vertex 3.18712 -3.85257 47.5
      vertex 3.64484 -3.42274 47.5
    endloop
  endfacet
  facet normal -0.684549 0.728967 0
    outer loop
      vertex 3.18712 -3.85257 47.5
      vertex 3.64484 -3.42274 -47.5
      vertex 3.18712 -3.85257 -47.5
    endloop
  endfacet
  facet normal -0.481752 0.876308 0
    outer loop
      vertex 2.67913 -4.22164 -47.5
      vertex 2.1289 -4.52413 47.5
      vertex 2.67913 -4.22164 47.5
    endloop
  endfacet
  facet normal -0.481752 0.876308 0
    outer loop
      vertex 2.1289 -4.52413 47.5
      vertex 2.67913 -4.22164 -47.5
      vertex 2.1289 -4.52413 -47.5
    endloop
  endfacet
  facet normal -0.951053 0.309028 0
    outer loop
      vertex 4.64888 -1.84062 -47.5
      vertex 4.84292 -1.24345 47.5
      vertex 4.84292 -1.24345 -47.5
    endloop
  endfacet
  facet normal -0.951053 0.309028 0
    outer loop
      vertex 4.84292 -1.24345 47.5
      vertex 4.64888 -1.84062 -47.5
      vertex 4.64888 -1.84062 47.5
    endloop
  endfacet
  facet normal 0 1 -0
    outer loop
      vertex 0.313952 -4.99013 -47.5
      vertex -0.313952 -4.99013 47.5
      vertex 0.313952 -4.99013 47.5
    endloop
  endfacet
  facet normal 0 1 0
    outer loop
      vertex -0.313952 -4.99013 47.5
      vertex 0.313952 -4.99013 -47.5
      vertex -0.313952 -4.99013 -47.5
    endloop
  endfacet
  facet normal 0.684549 0.728967 -0
    outer loop
      vertex -3.18712 -3.85257 -47.5
      vertex -3.64484 -3.42274 47.5
      vertex -3.18712 -3.85257 47.5
    endloop
  endfacet
  facet normal 0.684549 0.728967 0
    outer loop
      vertex -3.64484 -3.42274 47.5
      vertex -3.18712 -3.85257 -47.5
      vertex -3.64484 -3.42274 -47.5
    endloop
  endfacet
  facet normal 0.844328 0.535827 0
    outer loop
      vertex -4.04508 -2.93893 47.5
      vertex -4.38153 -2.40877 -47.5
      vertex -4.38153 -2.40877 47.5
    endloop
  endfacet
  facet normal 0.844328 0.535827 0
    outer loop
      vertex -4.38153 -2.40877 -47.5
      vertex -4.04508 -2.93893 47.5
      vertex -4.04508 -2.93893 -47.5
    endloop
  endfacet
  facet normal 0.904828 0.425778 0
    outer loop
      vertex -4.38153 -2.40877 47.5
      vertex -4.64888 -1.84062 -47.5
      vertex -4.64888 -1.84062 47.5
    endloop
  endfacet
  facet normal 0.904828 0.425778 0
    outer loop
      vertex -4.64888 -1.84062 -47.5
      vertex -4.38153 -2.40877 47.5
      vertex -4.38153 -2.40877 -47.5
    endloop
  endfacet
  facet normal 0.98229 0.187369 0
    outer loop
      vertex -4.84292 -1.24345 47.5
      vertex -4.96057 -0.626666 -47.5
      vertex -4.96057 -0.626666 47.5
    endloop
  endfacet
  facet normal 0.98229 0.187369 0
    outer loop
      vertex -4.96057 -0.626666 -47.5
      vertex -4.84292 -1.24345 47.5
      vertex -4.84292 -1.24345 -47.5
    endloop
  endfacet
  facet normal -0.587779 0.809022 0
    outer loop
      vertex 3.18712 -3.85257 -47.5
      vertex 2.67913 -4.22164 47.5
      vertex 3.18712 -3.85257 47.5
    endloop
  endfacet
  facet normal -0.587779 0.809022 0
    outer loop
      vertex 2.67913 -4.22164 47.5
      vertex 3.18712 -3.85257 -47.5
      vertex 2.67913 -4.22164 -47.5
    endloop
  endfacet
  facet normal 0.587779 0.809022 -0
    outer loop
      vertex -2.67913 -4.22164 -47.5
      vertex -3.18712 -3.85257 47.5
      vertex -2.67913 -4.22164 47.5
    endloop
  endfacet
  facet normal 0.587779 0.809022 0
    outer loop
      vertex -3.18712 -3.85257 47.5
      vertex -2.67913 -4.22164 -47.5
      vertex -3.18712 -3.85257 -47.5
    endloop
  endfacet
  facet normal 0.368124 0.929777 -0
    outer loop
      vertex -1.54508 -4.75528 -47.5
      vertex -2.1289 -4.52413 47.5
      vertex -1.54508 -4.75528 47.5
    endloop
  endfacet
  facet normal 0.368124 0.929777 0
    outer loop
      vertex -2.1289 -4.52413 47.5
      vertex -1.54508 -4.75528 -47.5
      vertex -2.1289 -4.52413 -47.5
    endloop
  endfacet
  facet normal 0.481752 0.876308 -0
    outer loop
      vertex -2.1289 -4.52413 -47.5
      vertex -2.67913 -4.22164 47.5
      vertex -2.1289 -4.52413 47.5
    endloop
  endfacet
  facet normal 0.481752 0.876308 0
    outer loop
      vertex -2.67913 -4.22164 47.5
      vertex -2.1289 -4.52413 -47.5
      vertex -2.67913 -4.22164 -47.5
    endloop
  endfacet
endsolid OpenSCAD_Model
