solid OpenSCAD_Model
  facet normal 0.998026 0.0627973 0
    outer loop
      vertex 6.5 0 4
      vertex 6.44874 0.814666 -4
      vertex 6.44874 0.814666 4
    endloop
  endfacet
  facet normal 0.998026 0.0627973 0
    outer loop
      vertex 6.44874 0.814666 -4
      vertex 6.5 0 4
      vertex 6.5 0 -4
    endloop
  endfacet
  facet normal -0.998026 0.0627973 0
    outer loop
      vertex -6.5 0 -4
      vertex -6.44874 0.814666 4
      vertex -6.44874 0.814666 -4
    endloop
  endfacet
  facet normal -0.998026 0.0627973 0
    outer loop
      vertex -6.44874 0.814666 4
      vertex -6.5 0 -4
      vertex -6.5 0 4
    endloop
  endfacet
  facet normal 0 1 -0
    outer loop
      vertex 0.408138 6.48717 -4
      vertex -0.408138 6.48717 4
      vertex 0.408138 6.48717 4
    endloop
  endfacet
  facet normal 0 1 0
    outer loop
      vertex -0.408138 6.48717 4
      vertex 0.408138 6.48717 -4
      vertex -0.408138 6.48717 -4
    endloop
  endfacet
  facet normal 0.684547 0.728968 -0
    outer loop
      vertex 4.7383 4.44956 -4
      vertex 4.14326 5.00834 4
      vertex 4.7383 4.44956 4
    endloop
  endfacet
  facet normal 0.684547 0.728968 0
    outer loop
      vertex 4.14326 5.00834 4
      vertex 4.7383 4.44956 -4
      vertex 4.14326 5.00834 -4
    endloop
  endfacet
  facet normal -0.684547 0.728968 0
    outer loop
      vertex -4.14326 5.00834 -4
      vertex -4.7383 4.44956 4
      vertex -4.14326 5.00834 4
    endloop
  endfacet
  facet normal -0.684547 0.728968 0
    outer loop
      vertex -4.7383 4.44956 4
      vertex -4.14326 5.00834 -4
      vertex -4.7383 4.44956 -4
    endloop
  endfacet
  facet normal -0.368125 0.929776 0
    outer loop
      vertex -2.00861 6.18187 -4
      vertex -2.76756 5.88138 4
      vertex -2.00861 6.18187 4
    endloop
  endfacet
  facet normal -0.368125 0.929776 0
    outer loop
      vertex -2.76756 5.88138 4
      vertex -2.00861 6.18187 -4
      vertex -2.76756 5.88138 -4
    endloop
  endfacet
  facet normal 0.904824 0.425785 0
    outer loop
      vertex 6.04355 2.39281 4
      vertex 5.69599 3.1314 -4
      vertex 5.69599 3.1314 4
    endloop
  endfacet
  facet normal 0.904824 0.425785 0
    outer loop
      vertex 5.69599 3.1314 -4
      vertex 6.04355 2.39281 4
      vertex 6.04355 2.39281 -4
    endloop
  endfacet
  facet normal 0.844328 0.535827 0
    outer loop
      vertex 5.69599 3.1314 4
      vertex 5.25861 3.8206 -4
      vertex 5.25861 3.8206 4
    endloop
  endfacet
  facet normal 0.844328 0.535827 0
    outer loop
      vertex 5.25861 3.8206 -4
      vertex 5.69599 3.1314 4
      vertex 5.69599 3.1314 -4
    endloop
  endfacet
  facet normal 0.368125 0.929776 -0
    outer loop
      vertex 2.76756 5.88138 -4
      vertex 2.00861 6.18187 4
      vertex 2.76756 5.88138 4
    endloop
  endfacet
  facet normal 0.368125 0.929776 0
    outer loop
      vertex 2.00861 6.18187 4
      vertex 2.76756 5.88138 -4
      vertex 2.00861 6.18187 -4
    endloop
  endfacet
  facet normal 0.248691 0.968583 -0
    outer loop
      vertex 2.00861 6.18187 -4
      vertex 1.21798 6.38487 4
      vertex 2.00861 6.18187 4
    endloop
  endfacet
  facet normal 0.248691 0.968583 0
    outer loop
      vertex 1.21798 6.38487 4
      vertex 2.00861 6.18187 -4
      vertex 1.21798 6.38487 -4
    endloop
  endfacet
  facet normal 0.587776 0.809024 -0
    outer loop
      vertex 4.14326 5.00834 -4
      vertex 3.48287 5.48813 4
      vertex 4.14326 5.00834 4
    endloop
  endfacet
  facet normal 0.587776 0.809024 0
    outer loop
      vertex 3.48287 5.48813 4
      vertex 4.14326 5.00834 -4
      vertex 3.48287 5.48813 -4
    endloop
  endfacet
  facet normal -0.844328 0.535827 0
    outer loop
      vertex -5.69599 3.1314 -4
      vertex -5.25861 3.8206 4
      vertex -5.25861 3.8206 -4
    endloop
  endfacet
  facet normal -0.844328 0.535827 0
    outer loop
      vertex -5.25861 3.8206 4
      vertex -5.69599 3.1314 -4
      vertex -5.69599 3.1314 4
    endloop
  endfacet
  facet normal -0.77052 0.637416 0
    outer loop
      vertex -5.25861 3.8206 -4
      vertex -4.7383 4.44956 4
      vertex -4.7383 4.44956 -4
    endloop
  endfacet
  facet normal -0.77052 0.637416 0
    outer loop
      vertex -4.7383 4.44956 4
      vertex -5.25861 3.8206 -4
      vertex -5.25861 3.8206 4
    endloop
  endfacet
  facet normal -0.951058 0.309012 0
    outer loop
      vertex -6.29579 1.61648 -4
      vertex -6.04355 2.39281 4
      vertex -6.04355 2.39281 -4
    endloop
  endfacet
  facet normal -0.951058 0.309012 0
    outer loop
      vertex -6.04355 2.39281 4
      vertex -6.29579 1.61648 -4
      vertex -6.29579 1.61648 4
    endloop
  endfacet
  facet normal -0.587776 0.809024 0
    outer loop
      vertex -3.48287 5.48813 -4
      vertex -4.14326 5.00834 4
      vertex -3.48287 5.48813 4
    endloop
  endfacet
  facet normal -0.587776 0.809024 0
    outer loop
      vertex -4.14326 5.00834 4
      vertex -3.48287 5.48813 -4
      vertex -4.14326 5.00834 -4
    endloop
  endfacet
  facet normal -0.125325 0.992116 0
    outer loop
      vertex -0.408138 6.48717 -4
      vertex -1.21798 6.38487 4
      vertex -0.408138 6.48717 4
    endloop
  endfacet
  facet normal -0.125325 0.992116 0
    outer loop
      vertex -1.21798 6.38487 4
      vertex -0.408138 6.48717 -4
      vertex -1.21798 6.38487 -4
    endloop
  endfacet
  facet normal -0.248691 -0.968583 0
    outer loop
      vertex -2.00861 -6.18187 -4
      vertex -1.21798 -6.38487 4
      vertex -2.00861 -6.18187 4
    endloop
  endfacet
  facet normal -0.248691 -0.968583 -0
    outer loop
      vertex -1.21798 -6.38487 4
      vertex -2.00861 -6.18187 -4
      vertex -1.21798 -6.38487 -4
    endloop
  endfacet
  facet normal 0.125325 -0.992116 0
    outer loop
      vertex 0.408138 -6.48717 -4
      vertex 1.21798 -6.38487 4
      vertex 0.408138 -6.48717 4
    endloop
  endfacet
  facet normal 0.125325 -0.992116 0
    outer loop
      vertex 1.21798 -6.38487 4
      vertex 0.408138 -6.48717 -4
      vertex 1.21798 -6.38487 -4
    endloop
  endfacet
  facet normal 0.951058 0.309012 0
    outer loop
      vertex 6.29579 1.61648 4
      vertex 6.04355 2.39281 -4
      vertex 6.04355 2.39281 4
    endloop
  endfacet
  facet normal 0.951058 0.309012 0
    outer loop
      vertex 6.04355 2.39281 -4
      vertex 6.29579 1.61648 4
      vertex 6.29579 1.61648 -4
    endloop
  endfacet
  facet normal 0.982288 0.187376 0
    outer loop
      vertex 6.44874 0.814666 4
      vertex 6.29579 1.61648 -4
      vertex 6.29579 1.61648 4
    endloop
  endfacet
  facet normal 0.982288 0.187376 0
    outer loop
      vertex 6.29579 1.61648 -4
      vertex 6.44874 0.814666 4
      vertex 6.44874 0.814666 -4
    endloop
  endfacet
  facet normal 0.77052 0.637416 0
    outer loop
      vertex 5.25861 3.8206 4
      vertex 4.7383 4.44956 -4
      vertex 4.7383 4.44956 4
    endloop
  endfacet
  facet normal 0.77052 0.637416 0
    outer loop
      vertex 4.7383 4.44956 -4
      vertex 5.25861 3.8206 4
      vertex 5.25861 3.8206 -4
    endloop
  endfacet
  facet normal 0.125325 0.992116 -0
    outer loop
      vertex 1.21798 6.38487 -4
      vertex 0.408138 6.48717 4
      vertex 1.21798 6.38487 4
    endloop
  endfacet
  facet normal 0.125325 0.992116 0
    outer loop
      vertex 0.408138 6.48717 4
      vertex 1.21798 6.38487 -4
      vertex 0.408138 6.48717 -4
    endloop
  endfacet
  facet normal 0.481758 0.876304 -0
    outer loop
      vertex 3.48287 5.48813 -4
      vertex 2.76756 5.88138 4
      vertex 3.48287 5.48813 4
    endloop
  endfacet
  facet normal 0.481758 0.876304 0
    outer loop
      vertex 2.76756 5.88138 4
      vertex 3.48287 5.48813 -4
      vertex 2.76756 5.88138 -4
    endloop
  endfacet
  facet normal -0.904824 0.425785 0
    outer loop
      vertex -6.04355 2.39281 -4
      vertex -5.69599 3.1314 4
      vertex -5.69599 3.1314 -4
    endloop
  endfacet
  facet normal -0.904824 0.425785 0
    outer loop
      vertex -5.69599 3.1314 4
      vertex -6.04355 2.39281 -4
      vertex -6.04355 2.39281 4
    endloop
  endfacet
  facet normal 0.998026 -0.0627973 0
    outer loop
      vertex 6.44874 -0.814666 4
      vertex 6.5 0 -4
      vertex 6.5 0 4
    endloop
  endfacet
  facet normal 0.998026 -0.0627973 0
    outer loop
      vertex 6.5 0 -4
      vertex 6.44874 -0.814666 4
      vertex 6.44874 -0.814666 -4
    endloop
  endfacet
  facet normal 0.77052 -0.637416 0
    outer loop
      vertex 4.7383 -4.44956 4
      vertex 5.25861 -3.8206 -4
      vertex 5.25861 -3.8206 4
    endloop
  endfacet
  facet normal 0.77052 -0.637416 0
    outer loop
      vertex 5.25861 -3.8206 -4
      vertex 4.7383 -4.44956 4
      vertex 4.7383 -4.44956 -4
    endloop
  endfacet
  facet normal -0.125325 -0.992116 0
    outer loop
      vertex -1.21798 -6.38487 -4
      vertex -0.408138 -6.48717 4
      vertex -1.21798 -6.38487 4
    endloop
  endfacet
  facet normal -0.125325 -0.992116 -0
    outer loop
      vertex -0.408138 -6.48717 4
      vertex -1.21798 -6.38487 -4
      vertex -0.408138 -6.48717 -4
    endloop
  endfacet
  facet normal -0.951058 -0.309012 0
    outer loop
      vertex -6.04355 -2.39281 -4
      vertex -6.29579 -1.61648 4
      vertex -6.29579 -1.61648 -4
    endloop
  endfacet
  facet normal -0.951058 -0.309012 0
    outer loop
      vertex -6.29579 -1.61648 4
      vertex -6.04355 -2.39281 -4
      vertex -6.04355 -2.39281 4
    endloop
  endfacet
  facet normal 0.368125 -0.929776 0
    outer loop
      vertex 2.00861 -6.18187 -4
      vertex 2.76756 -5.88138 4
      vertex 2.00861 -6.18187 4
    endloop
  endfacet
  facet normal 0.368125 -0.929776 0
    outer loop
      vertex 2.76756 -5.88138 4
      vertex 2.00861 -6.18187 -4
      vertex 2.76756 -5.88138 -4
    endloop
  endfacet
  facet normal 0.248691 -0.968583 0
    outer loop
      vertex 1.21798 -6.38487 -4
      vertex 2.00861 -6.18187 4
      vertex 1.21798 -6.38487 4
    endloop
  endfacet
  facet normal 0.248691 -0.968583 0
    outer loop
      vertex 2.00861 -6.18187 4
      vertex 1.21798 -6.38487 -4
      vertex 2.00861 -6.18187 -4
    endloop
  endfacet
  facet normal 0 0 1
    outer loop
      vertex 2.5 0 4
      vertex 6.5 0 4
      vertex 6.44874 0.814666 4
    endloop
  endfacet
  facet normal 0 0 1
    outer loop
      vertex 2.48029 0.313333 4
      vertex 6.44874 0.814666 4
      vertex 6.29579 1.61648 4
    endloop
  endfacet
  facet normal 0 0 1
    outer loop
      vertex 6.5 0 4
      vertex 2.5 0 4
      vertex 6.44874 -0.814666 4
    endloop
  endfacet
  facet normal 0 0 1
    outer loop
      vertex 2.42146 0.621724 4
      vertex 6.29579 1.61648 4
      vertex 6.04355 2.39281 4
    endloop
  endfacet
  facet normal -0 0 1
    outer loop
      vertex 2.48029 -0.313333 4
      vertex 6.44874 -0.814666 4
      vertex 2.5 0 4
    endloop
  endfacet
  facet normal 0 0 1
    outer loop
      vertex 2.32444 0.920311 4
      vertex 6.04355 2.39281 4
      vertex 5.69599 3.1314 4
    endloop
  endfacet
  facet normal 0 0 1
    outer loop
      vertex 6.44874 -0.814666 4
      vertex 2.48029 -0.313333 4
      vertex 6.29579 -1.61648 4
    endloop
  endfacet
  facet normal 0 0 1
    outer loop
      vertex 2.19077 1.20438 4
      vertex 5.69599 3.1314 4
      vertex 5.25861 3.8206 4
    endloop
  endfacet
  facet normal -0 0 1
    outer loop
      vertex 2.42146 -0.621724 4
      vertex 6.29579 -1.61648 4
      vertex 2.48029 -0.313333 4
    endloop
  endfacet
  facet normal 0 0 1
    outer loop
      vertex 2.02254 1.46946 4
      vertex 5.25861 3.8206 4
      vertex 4.7383 4.44956 4
    endloop
  endfacet
  facet normal 0 0 1
    outer loop
      vertex 6.29579 -1.61648 4
      vertex 2.42146 -0.621724 4
      vertex 6.04355 -2.39281 4
    endloop
  endfacet
  facet normal 0 0 1
    outer loop
      vertex 1.82242 1.71137 4
      vertex 4.7383 4.44956 4
      vertex 4.14326 5.00834 4
    endloop
  endfacet
  facet normal -0 0 1
    outer loop
      vertex 2.32444 -0.920311 4
      vertex 6.04355 -2.39281 4
      vertex 2.42146 -0.621724 4
    endloop
  endfacet
  facet normal 0 0 1
    outer loop
      vertex 1.59356 1.92628 4
      vertex 4.14326 5.00834 4
      vertex 3.48287 5.48813 4
    endloop
  endfacet
  facet normal 0 0 1
    outer loop
      vertex 6.04355 -2.39281 4
      vertex 2.32444 -0.920311 4
      vertex 5.69599 -3.1314 4
    endloop
  endfacet
  facet normal 0 0 1
    outer loop
      vertex 1.33957 2.11082 4
      vertex 3.48287 5.48813 4
      vertex 2.76756 5.88138 4
    endloop
  endfacet
  facet normal -0 0 1
    outer loop
      vertex 2.19077 -1.20438 4
      vertex 5.69599 -3.1314 4
      vertex 2.32444 -0.920311 4
    endloop
  endfacet
  facet normal 0 0 1
    outer loop
      vertex 5.69599 -3.1314 4
      vertex 2.19077 -1.20438 4
      vertex 5.25861 -3.8206 4
    endloop
  endfacet
  facet normal 0 0 1
    outer loop
      vertex 6.44874 0.814666 4
      vertex 2.48029 0.313333 4
      vertex 2.5 0 4
    endloop
  endfacet
  facet normal 0 0 1
    outer loop
      vertex 6.29579 1.61648 4
      vertex 2.42146 0.621724 4
      vertex 2.48029 0.313333 4
    endloop
  endfacet
  facet normal 0 0 1
    outer loop
      vertex 6.04355 2.39281 4
      vertex 2.32444 0.920311 4
      vertex 2.42146 0.621724 4
    endloop
  endfacet
  facet normal 0 0 1
    outer loop
      vertex 5.69599 3.1314 4
      vertex 2.19077 1.20438 4
      vertex 2.32444 0.920311 4
    endloop
  endfacet
  facet normal 0 0 1
    outer loop
      vertex 5.25861 3.8206 4
      vertex 2.02254 1.46946 4
      vertex 2.19077 1.20438 4
    endloop
  endfacet
  facet normal 0 0 1
    outer loop
      vertex 1.06445 2.26207 4
      vertex 2.76756 5.88138 4
      vertex 2.00861 6.18187 4
    endloop
  endfacet
  facet normal 0 0 1
    outer loop
      vertex 4.7383 4.44956 4
      vertex 1.82242 1.71137 4
      vertex 2.02254 1.46946 4
    endloop
  endfacet
  facet normal 0 0 1
    outer loop
      vertex 4.14326 5.00834 4
      vertex 1.59356 1.92628 4
      vertex 1.82242 1.71137 4
    endloop
  endfacet
  facet normal 0 0 1
    outer loop
      vertex 3.48287 5.48813 4
      vertex 1.33957 2.11082 4
      vertex 1.59356 1.92628 4
    endloop
  endfacet
  facet normal 0 0 1
    outer loop
      vertex 0.772542 2.37764 4
      vertex 2.00861 6.18187 4
      vertex 1.21798 6.38487 4
    endloop
  endfacet
  facet normal 0 0 1
    outer loop
      vertex 2.76756 5.88138 4
      vertex 1.06445 2.26207 4
      vertex 1.33957 2.11082 4
    endloop
  endfacet
  facet normal 0 0 1
    outer loop
      vertex 2.00861 6.18187 4
      vertex 0.772542 2.37764 4
      vertex 1.06445 2.26207 4
    endloop
  endfacet
  facet normal 0 0 1
    outer loop
      vertex 1.21798 6.38487 4
      vertex 0.468452 2.45572 4
      vertex 0.772542 2.37764 4
    endloop
  endfacet
  facet normal 0 0 1
    outer loop
      vertex 0.408138 6.48717 4
      vertex 0.468452 2.45572 4
      vertex 1.21798 6.38487 4
    endloop
  endfacet
  facet normal 0 0 1
    outer loop
      vertex 0.408138 6.48717 4
      vertex 0.156976 2.49507 4
      vertex 0.468452 2.45572 4
    endloop
  endfacet
  facet normal 0 0 1
    outer loop
      vertex 0.408138 6.48717 4
      vertex -0.156976 2.49507 4
      vertex 0.156976 2.49507 4
    endloop
  endfacet
  facet normal -0 0 1
    outer loop
      vertex -0.408138 6.48717 4
      vertex -0.156976 2.49507 4
      vertex 0.408138 6.48717 4
    endloop
  endfacet
  facet normal 0 0 1
    outer loop
      vertex -0.408138 6.48717 4
      vertex -0.468452 2.45572 4
      vertex -0.156976 2.49507 4
    endloop
  endfacet
  facet normal -0 0 1
    outer loop
      vertex -1.21798 6.38487 4
      vertex -0.468452 2.45572 4
      vertex -0.408138 6.48717 4
    endloop
  endfacet
  facet normal 0 0 1
    outer loop
      vertex -0.468452 2.45572 4
      vertex -1.21798 6.38487 4
      vertex -0.772542 2.37764 4
    endloop
  endfacet
  facet normal -0 0 1
    outer loop
      vertex -2.00861 6.18187 4
      vertex -0.772542 2.37764 4
      vertex -1.21798 6.38487 4
    endloop
  endfacet
  facet normal 0 0 1
    outer loop
      vertex -0.772542 2.37764 4
      vertex -2.00861 6.18187 4
      vertex -1.06445 2.26207 4
    endloop
  endfacet
  facet normal -0 0 1
    outer loop
      vertex -2.76756 5.88138 4
      vertex -1.06445 2.26207 4
      vertex -2.00861 6.18187 4
    endloop
  endfacet
  facet normal 0 0 1
    outer loop
      vertex -1.06445 2.26207 4
      vertex -2.76756 5.88138 4
      vertex -1.33957 2.11082 4
    endloop
  endfacet
  facet normal -0 0 1
    outer loop
      vertex -3.48287 5.48813 4
      vertex -1.33957 2.11082 4
      vertex -2.76756 5.88138 4
    endloop
  endfacet
  facet normal 0 0 1
    outer loop
      vertex -1.33957 2.11082 4
      vertex -3.48287 5.48813 4
      vertex -1.59356 1.92628 4
    endloop
  endfacet
  facet normal -0 0 1
    outer loop
      vertex -4.14326 5.00834 4
      vertex -1.59356 1.92628 4
      vertex -3.48287 5.48813 4
    endloop
  endfacet
  facet normal 0 0 1
    outer loop
      vertex -1.59356 1.92628 4
      vertex -4.14326 5.00834 4
      vertex -1.82242 1.71137 4
    endloop
  endfacet
  facet normal -0 0 1
    outer loop
      vertex -4.7383 4.44956 4
      vertex -1.82242 1.71137 4
      vertex -4.14326 5.00834 4
    endloop
  endfacet
  facet normal 0 0 1
    outer loop
      vertex -1.82242 1.71137 4
      vertex -4.7383 4.44956 4
      vertex -2.02254 1.46946 4
    endloop
  endfacet
  facet normal 0 0 1
    outer loop
      vertex -2.02254 1.46946 4
      vertex -5.25861 3.8206 4
      vertex -2.19077 1.20438 4
    endloop
  endfacet
  facet normal -0 0 1
    outer loop
      vertex -5.25861 3.8206 4
      vertex -2.02254 1.46946 4
      vertex -4.7383 4.44956 4
    endloop
  endfacet
  facet normal -0 0 1
    outer loop
      vertex 2.02254 -1.46946 4
      vertex 5.25861 -3.8206 4
      vertex 2.19077 -1.20438 4
    endloop
  endfacet
  facet normal 0 0 1
    outer loop
      vertex 5.25861 -3.8206 4
      vertex 2.02254 -1.46946 4
      vertex 4.7383 -4.44956 4
    endloop
  endfacet
  facet normal -0 0 1
    outer loop
      vertex 1.82242 -1.71137 4
      vertex 4.7383 -4.44956 4
      vertex 2.02254 -1.46946 4
    endloop
  endfacet
  facet normal 0 0 1
    outer loop
      vertex 4.7383 -4.44956 4
      vertex 1.82242 -1.71137 4
      vertex 4.14326 -5.00834 4
    endloop
  endfacet
  facet normal -0 0 1
    outer loop
      vertex 1.59356 -1.92628 4
      vertex 4.14326 -5.00834 4
      vertex 1.82242 -1.71137 4
    endloop
  endfacet
  facet normal 0 0 1
    outer loop
      vertex 4.14326 -5.00834 4
      vertex 1.59356 -1.92628 4
      vertex 3.48287 -5.48813 4
    endloop
  endfacet
  facet normal -0 0 1
    outer loop
      vertex 1.33957 -2.11082 4
      vertex 3.48287 -5.48813 4
      vertex 1.59356 -1.92628 4
    endloop
  endfacet
  facet normal 0 0 1
    outer loop
      vertex 3.48287 -5.48813 4
      vertex 1.33957 -2.11082 4
      vertex 2.76756 -5.88138 4
    endloop
  endfacet
  facet normal -0 0 1
    outer loop
      vertex 1.06445 -2.26207 4
      vertex 2.76756 -5.88138 4
      vertex 1.33957 -2.11082 4
    endloop
  endfacet
  facet normal 0 0 1
    outer loop
      vertex 2.76756 -5.88138 4
      vertex 1.06445 -2.26207 4
      vertex 2.00861 -6.18187 4
    endloop
  endfacet
  facet normal -0 0 1
    outer loop
      vertex 0.772542 -2.37764 4
      vertex 2.00861 -6.18187 4
      vertex 1.06445 -2.26207 4
    endloop
  endfacet
  facet normal 0 0 1
    outer loop
      vertex 2.00861 -6.18187 4
      vertex 0.772542 -2.37764 4
      vertex 1.21798 -6.38487 4
    endloop
  endfacet
  facet normal -0 0 1
    outer loop
      vertex 0.468452 -2.45572 4
      vertex 1.21798 -6.38487 4
      vertex 0.772542 -2.37764 4
    endloop
  endfacet
  facet normal 0 0 1
    outer loop
      vertex 0.468452 -2.45572 4
      vertex 0.408138 -6.48717 4
      vertex 1.21798 -6.38487 4
    endloop
  endfacet
  facet normal -0 0 1
    outer loop
      vertex 0.156976 -2.49507 4
      vertex 0.408138 -6.48717 4
      vertex 0.468452 -2.45572 4
    endloop
  endfacet
  facet normal -0 0 1
    outer loop
      vertex -0.156976 -2.49507 4
      vertex 0.408138 -6.48717 4
      vertex 0.156976 -2.49507 4
    endloop
  endfacet
  facet normal 0 0 1
    outer loop
      vertex -0.156976 -2.49507 4
      vertex -0.408138 -6.48717 4
      vertex 0.408138 -6.48717 4
    endloop
  endfacet
  facet normal 0 0 1
    outer loop
      vertex -0.468452 -2.45572 4
      vertex -0.408138 -6.48717 4
      vertex -0.156976 -2.49507 4
    endloop
  endfacet
  facet normal 0 0 1
    outer loop
      vertex -1.21798 -6.38487 4
      vertex -0.468452 -2.45572 4
      vertex -0.772542 -2.37764 4
    endloop
  endfacet
  facet normal 0 0 1
    outer loop
      vertex -2.00861 -6.18187 4
      vertex -0.772542 -2.37764 4
      vertex -1.06445 -2.26207 4
    endloop
  endfacet
  facet normal 0 0 1
    outer loop
      vertex -0.468452 -2.45572 4
      vertex -1.21798 -6.38487 4
      vertex -0.408138 -6.48717 4
    endloop
  endfacet
  facet normal 0 0 1
    outer loop
      vertex -2.76756 -5.88138 4
      vertex -1.06445 -2.26207 4
      vertex -1.33957 -2.11082 4
    endloop
  endfacet
  facet normal 0 0 1
    outer loop
      vertex -3.48287 -5.48813 4
      vertex -1.33957 -2.11082 4
      vertex -1.59356 -1.92628 4
    endloop
  endfacet
  facet normal 0 0 1
    outer loop
      vertex -4.14326 -5.00834 4
      vertex -1.59356 -1.92628 4
      vertex -1.82242 -1.71137 4
    endloop
  endfacet
  facet normal 0 0 1
    outer loop
      vertex -0.772542 -2.37764 4
      vertex -2.00861 -6.18187 4
      vertex -1.21798 -6.38487 4
    endloop
  endfacet
  facet normal 0 0 1
    outer loop
      vertex -4.7383 -4.44956 4
      vertex -1.82242 -1.71137 4
      vertex -2.02254 -1.46946 4
    endloop
  endfacet
  facet normal 0 0 1
    outer loop
      vertex -5.25861 -3.8206 4
      vertex -2.02254 -1.46946 4
      vertex -2.19077 -1.20438 4
    endloop
  endfacet
  facet normal 0 0 1
    outer loop
      vertex -5.69599 -3.1314 4
      vertex -2.19077 -1.20438 4
      vertex -2.32444 -0.920311 4
    endloop
  endfacet
  facet normal 0 0 1
    outer loop
      vertex -6.04355 -2.39281 4
      vertex -2.32444 -0.920311 4
      vertex -2.42146 -0.621724 4
    endloop
  endfacet
  facet normal 0 0 1
    outer loop
      vertex -6.29579 -1.61648 4
      vertex -2.42146 -0.621724 4
      vertex -2.48029 -0.313333 4
    endloop
  endfacet
  facet normal 0 0 1
    outer loop
      vertex -1.06445 -2.26207 4
      vertex -2.76756 -5.88138 4
      vertex -2.00861 -6.18187 4
    endloop
  endfacet
  facet normal 0 0 1
    outer loop
      vertex -6.44874 -0.814666 4
      vertex -2.48029 -0.313333 4
      vertex -2.5 0 4
    endloop
  endfacet
  facet normal -0 0 1
    outer loop
      vertex -5.69599 3.1314 4
      vertex -2.19077 1.20438 4
      vertex -5.25861 3.8206 4
    endloop
  endfacet
  facet normal 0 0 1
    outer loop
      vertex -2.19077 1.20438 4
      vertex -5.69599 3.1314 4
      vertex -2.32444 0.920311 4
    endloop
  endfacet
  facet normal 0 0 1
    outer loop
      vertex -1.33957 -2.11082 4
      vertex -3.48287 -5.48813 4
      vertex -2.76756 -5.88138 4
    endloop
  endfacet
  facet normal -0 0 1
    outer loop
      vertex -6.04355 2.39281 4
      vertex -2.32444 0.920311 4
      vertex -5.69599 3.1314 4
    endloop
  endfacet
  facet normal 0 0 1
    outer loop
      vertex -1.59356 -1.92628 4
      vertex -4.14326 -5.00834 4
      vertex -3.48287 -5.48813 4
    endloop
  endfacet
  facet normal 0 0 1
    outer loop
      vertex -2.32444 0.920311 4
      vertex -6.04355 2.39281 4
      vertex -2.42146 0.621724 4
    endloop
  endfacet
  facet normal 0 0 1
    outer loop
      vertex -1.82242 -1.71137 4
      vertex -4.7383 -4.44956 4
      vertex -4.14326 -5.00834 4
    endloop
  endfacet
  facet normal -0 0 1
    outer loop
      vertex -6.29579 1.61648 4
      vertex -2.42146 0.621724 4
      vertex -6.04355 2.39281 4
    endloop
  endfacet
  facet normal 0 0 1
    outer loop
      vertex -2.02254 -1.46946 4
      vertex -5.25861 -3.8206 4
      vertex -4.7383 -4.44956 4
    endloop
  endfacet
  facet normal 0 0 1
    outer loop
      vertex -2.42146 0.621724 4
      vertex -6.29579 1.61648 4
      vertex -2.48029 0.313333 4
    endloop
  endfacet
  facet normal 0 0 1
    outer loop
      vertex -2.19077 -1.20438 4
      vertex -5.69599 -3.1314 4
      vertex -5.25861 -3.8206 4
    endloop
  endfacet
  facet normal -0 0 1
    outer loop
      vertex -6.44874 0.814666 4
      vertex -2.48029 0.313333 4
      vertex -6.29579 1.61648 4
    endloop
  endfacet
  facet normal 0 0 1
    outer loop
      vertex -2.32444 -0.920311 4
      vertex -6.04355 -2.39281 4
      vertex -5.69599 -3.1314 4
    endloop
  endfacet
  facet normal 0 0 1
    outer loop
      vertex -2.48029 0.313333 4
      vertex -6.44874 0.814666 4
      vertex -2.5 0 4
    endloop
  endfacet
  facet normal 0 0 1
    outer loop
      vertex -2.42146 -0.621724 4
      vertex -6.29579 -1.61648 4
      vertex -6.04355 -2.39281 4
    endloop
  endfacet
  facet normal 0 0 1
    outer loop
      vertex -6.5 0 4
      vertex -2.5 0 4
      vertex -6.44874 0.814666 4
    endloop
  endfacet
  facet normal 0 0 1
    outer loop
      vertex -2.48029 -0.313333 4
      vertex -6.44874 -0.814666 4
      vertex -6.29579 -1.61648 4
    endloop
  endfacet
  facet normal 0 0 1
    outer loop
      vertex -2.5 0 4
      vertex -6.5 0 4
      vertex -6.44874 -0.814666 4
    endloop
  endfacet
  facet normal -0.982288 0.187376 0
    outer loop
      vertex -6.44874 0.814666 -4
      vertex -6.29579 1.61648 4
      vertex -6.29579 1.61648 -4
    endloop
  endfacet
  facet normal -0.982288 0.187376 0
    outer loop
      vertex -6.29579 1.61648 4
      vertex -6.44874 0.814666 -4
      vertex -6.44874 0.814666 4
    endloop
  endfacet
  facet normal -0.481758 0.876304 0
    outer loop
      vertex -2.76756 5.88138 -4
      vertex -3.48287 5.48813 4
      vertex -2.76756 5.88138 4
    endloop
  endfacet
  facet normal -0.481758 0.876304 0
    outer loop
      vertex -3.48287 5.48813 4
      vertex -2.76756 5.88138 -4
      vertex -3.48287 5.48813 -4
    endloop
  endfacet
  facet normal -0.248691 0.968583 0
    outer loop
      vertex -1.21798 6.38487 -4
      vertex -2.00861 6.18187 4
      vertex -1.21798 6.38487 4
    endloop
  endfacet
  facet normal -0.248691 0.968583 0
    outer loop
      vertex -2.00861 6.18187 4
      vertex -1.21798 6.38487 -4
      vertex -2.00861 6.18187 -4
    endloop
  endfacet
  facet normal 0.951058 -0.309012 0
    outer loop
      vertex 6.04355 -2.39281 4
      vertex 6.29579 -1.61648 -4
      vertex 6.29579 -1.61648 4
    endloop
  endfacet
  facet normal 0.951058 -0.309012 0
    outer loop
      vertex 6.29579 -1.61648 -4
      vertex 6.04355 -2.39281 4
      vertex 6.04355 -2.39281 -4
    endloop
  endfacet
  facet normal 0.982288 -0.187376 0
    outer loop
      vertex 6.29579 -1.61648 4
      vertex 6.44874 -0.814666 -4
      vertex 6.44874 -0.814666 4
    endloop
  endfacet
  facet normal 0.982288 -0.187376 0
    outer loop
      vertex 6.44874 -0.814666 -4
      vertex 6.29579 -1.61648 4
      vertex 6.29579 -1.61648 -4
    endloop
  endfacet
  facet normal 0.481758 -0.876304 0
    outer loop
      vertex 2.76756 -5.88138 -4
      vertex 3.48287 -5.48813 4
      vertex 2.76756 -5.88138 4
    endloop
  endfacet
  facet normal 0.481758 -0.876304 0
    outer loop
      vertex 3.48287 -5.48813 4
      vertex 2.76756 -5.88138 -4
      vertex 3.48287 -5.48813 -4
    endloop
  endfacet
  facet normal 0.684547 -0.728968 0
    outer loop
      vertex 4.14326 -5.00834 -4
      vertex 4.7383 -4.44956 4
      vertex 4.14326 -5.00834 4
    endloop
  endfacet
  facet normal 0.684547 -0.728968 0
    outer loop
      vertex 4.7383 -4.44956 4
      vertex 4.14326 -5.00834 -4
      vertex 4.7383 -4.44956 -4
    endloop
  endfacet
  facet normal 0.844328 -0.535827 0
    outer loop
      vertex 5.25861 -3.8206 4
      vertex 5.69599 -3.1314 -4
      vertex 5.69599 -3.1314 4
    endloop
  endfacet
  facet normal 0.844328 -0.535827 0
    outer loop
      vertex 5.69599 -3.1314 -4
      vertex 5.25861 -3.8206 4
      vertex 5.25861 -3.8206 -4
    endloop
  endfacet
  facet normal 0.904824 -0.425785 0
    outer loop
      vertex 5.69599 -3.1314 4
      vertex 6.04355 -2.39281 -4
      vertex 6.04355 -2.39281 4
    endloop
  endfacet
  facet normal 0.904824 -0.425785 0
    outer loop
      vertex 6.04355 -2.39281 -4
      vertex 5.69599 -3.1314 4
      vertex 5.69599 -3.1314 -4
    endloop
  endfacet
  facet normal -0.368125 -0.929776 0
    outer loop
      vertex -2.76756 -5.88138 -4
      vertex -2.00861 -6.18187 4
      vertex -2.76756 -5.88138 4
    endloop
  endfacet
  facet normal -0.368125 -0.929776 -0
    outer loop
      vertex -2.00861 -6.18187 4
      vertex -2.76756 -5.88138 -4
      vertex -2.00861 -6.18187 -4
    endloop
  endfacet
  facet normal -0.77052 -0.637416 0
    outer loop
      vertex -4.7383 -4.44956 -4
      vertex -5.25861 -3.8206 4
      vertex -5.25861 -3.8206 -4
    endloop
  endfacet
  facet normal -0.77052 -0.637416 0
    outer loop
      vertex -5.25861 -3.8206 4
      vertex -4.7383 -4.44956 -4
      vertex -4.7383 -4.44956 4
    endloop
  endfacet
  facet normal -0.998026 -0.0627973 0
    outer loop
      vertex -6.44874 -0.814666 -4
      vertex -6.5 0 4
      vertex -6.5 0 -4
    endloop
  endfacet
  facet normal -0.998026 -0.0627973 0
    outer loop
      vertex -6.5 0 4
      vertex -6.44874 -0.814666 -4
      vertex -6.44874 -0.814666 4
    endloop
  endfacet
  facet normal 0.587776 -0.809024 0
    outer loop
      vertex 3.48287 -5.48813 -4
      vertex 4.14326 -5.00834 4
      vertex 3.48287 -5.48813 4
    endloop
  endfacet
  facet normal 0.587776 -0.809024 0
    outer loop
      vertex 4.14326 -5.00834 4
      vertex 3.48287 -5.48813 -4
      vertex 4.14326 -5.00834 -4
    endloop
  endfacet
  facet normal 0 -1 0
    outer loop
      vertex -0.408138 -6.48717 -4
      vertex 0.408138 -6.48717 4
      vertex -0.408138 -6.48717 4
    endloop
  endfacet
  facet normal 0 -1 -0
    outer loop
      vertex 0.408138 -6.48717 4
      vertex -0.408138 -6.48717 -4
      vertex 0.408138 -6.48717 -4
    endloop
  endfacet
  facet normal -0.587776 -0.809024 0
    outer loop
      vertex -4.14326 -5.00834 -4
      vertex -3.48287 -5.48813 4
      vertex -4.14326 -5.00834 4
    endloop
  endfacet
  facet normal -0.587776 -0.809024 -0
    outer loop
      vertex -3.48287 -5.48813 4
      vertex -4.14326 -5.00834 -4
      vertex -3.48287 -5.48813 -4
    endloop
  endfacet
  facet normal -0.684547 -0.728968 0
    outer loop
      vertex -4.7383 -4.44956 -4
      vertex -4.14326 -5.00834 4
      vertex -4.7383 -4.44956 4
    endloop
  endfacet
  facet normal -0.684547 -0.728968 -0
    outer loop
      vertex -4.14326 -5.00834 4
      vertex -4.7383 -4.44956 -4
      vertex -4.14326 -5.00834 -4
    endloop
  endfacet
  facet normal -0.904824 -0.425785 0
    outer loop
      vertex -5.69599 -3.1314 -4
      vertex -6.04355 -2.39281 4
      vertex -6.04355 -2.39281 -4
    endloop
  endfacet
  facet normal -0.904824 -0.425785 0
    outer loop
      vertex -6.04355 -2.39281 4
      vertex -5.69599 -3.1314 -4
      vertex -5.69599 -3.1314 4
    endloop
  endfacet
  facet normal 0 0 -1
    outer loop
      vertex 2.5 0 -4
      vertex 6.5 0 -4
      vertex 6.44874 -0.814666 -4
    endloop
  endfacet
  facet normal 0 0 -1
    outer loop
      vertex 2.48029 -0.313333 -4
      vertex 6.44874 -0.814666 -4
      vertex 6.29579 -1.61648 -4
    endloop
  endfacet
  facet normal 0 0 -1
    outer loop
      vertex 6.5 0 -4
      vertex 2.5 0 -4
      vertex 6.44874 0.814666 -4
    endloop
  endfacet
  facet normal 0 0 -1
    outer loop
      vertex 2.42146 -0.621724 -4
      vertex 6.29579 -1.61648 -4
      vertex 6.04355 -2.39281 -4
    endloop
  endfacet
  facet normal 0 0 -1
    outer loop
      vertex 2.48029 0.313333 -4
      vertex 6.44874 0.814666 -4
      vertex 2.5 0 -4
    endloop
  endfacet
  facet normal 0 0 -1
    outer loop
      vertex 2.32444 -0.920311 -4
      vertex 6.04355 -2.39281 -4
      vertex 5.69599 -3.1314 -4
    endloop
  endfacet
  facet normal -0 0 -1
    outer loop
      vertex 6.44874 0.814666 -4
      vertex 2.48029 0.313333 -4
      vertex 6.29579 1.61648 -4
    endloop
  endfacet
  facet normal 0 0 -1
    outer loop
      vertex 2.19077 -1.20438 -4
      vertex 5.69599 -3.1314 -4
      vertex 5.25861 -3.8206 -4
    endloop
  endfacet
  facet normal 0 0 -1
    outer loop
      vertex 2.42146 0.621724 -4
      vertex 6.29579 1.61648 -4
      vertex 2.48029 0.313333 -4
    endloop
  endfacet
  facet normal 0 0 -1
    outer loop
      vertex 2.02254 -1.46946 -4
      vertex 5.25861 -3.8206 -4
      vertex 4.7383 -4.44956 -4
    endloop
  endfacet
  facet normal -0 0 -1
    outer loop
      vertex 6.29579 1.61648 -4
      vertex 2.42146 0.621724 -4
      vertex 6.04355 2.39281 -4
    endloop
  endfacet
  facet normal 0 0 -1
    outer loop
      vertex 1.82242 -1.71137 -4
      vertex 4.7383 -4.44956 -4
      vertex 4.14326 -5.00834 -4
    endloop
  endfacet
  facet normal 0 0 -1
    outer loop
      vertex 2.32444 0.920311 -4
      vertex 6.04355 2.39281 -4
      vertex 2.42146 0.621724 -4
    endloop
  endfacet
  facet normal 0 0 -1
    outer loop
      vertex 1.59356 -1.92628 -4
      vertex 4.14326 -5.00834 -4
      vertex 3.48287 -5.48813 -4
    endloop
  endfacet
  facet normal -0 0 -1
    outer loop
      vertex 6.04355 2.39281 -4
      vertex 2.32444 0.920311 -4
      vertex 5.69599 3.1314 -4
    endloop
  endfacet
  facet normal 0 0 -1
    outer loop
      vertex 1.33957 -2.11082 -4
      vertex 3.48287 -5.48813 -4
      vertex 2.76756 -5.88138 -4
    endloop
  endfacet
  facet normal 0 0 -1
    outer loop
      vertex 2.19077 1.20438 -4
      vertex 5.69599 3.1314 -4
      vertex 2.32444 0.920311 -4
    endloop
  endfacet
  facet normal -0 0 -1
    outer loop
      vertex 5.69599 3.1314 -4
      vertex 2.19077 1.20438 -4
      vertex 5.25861 3.8206 -4
    endloop
  endfacet
  facet normal 0 0 -1
    outer loop
      vertex 6.44874 -0.814666 -4
      vertex 2.48029 -0.313333 -4
      vertex 2.5 0 -4
    endloop
  endfacet
  facet normal 0 0 -1
    outer loop
      vertex 6.29579 -1.61648 -4
      vertex 2.42146 -0.621724 -4
      vertex 2.48029 -0.313333 -4
    endloop
  endfacet
  facet normal 0 0 -1
    outer loop
      vertex 6.04355 -2.39281 -4
      vertex 2.32444 -0.920311 -4
      vertex 2.42146 -0.621724 -4
    endloop
  endfacet
  facet normal 0 0 -1
    outer loop
      vertex 5.69599 -3.1314 -4
      vertex 2.19077 -1.20438 -4
      vertex 2.32444 -0.920311 -4
    endloop
  endfacet
  facet normal 0 0 -1
    outer loop
      vertex 5.25861 -3.8206 -4
      vertex 2.02254 -1.46946 -4
      vertex 2.19077 -1.20438 -4
    endloop
  endfacet
  facet normal 0 0 -1
    outer loop
      vertex 1.06445 -2.26207 -4
      vertex 2.76756 -5.88138 -4
      vertex 2.00861 -6.18187 -4
    endloop
  endfacet
  facet normal 0 0 -1
    outer loop
      vertex 4.7383 -4.44956 -4
      vertex 1.82242 -1.71137 -4
      vertex 2.02254 -1.46946 -4
    endloop
  endfacet
  facet normal 0 0 -1
    outer loop
      vertex 4.14326 -5.00834 -4
      vertex 1.59356 -1.92628 -4
      vertex 1.82242 -1.71137 -4
    endloop
  endfacet
  facet normal 0 0 -1
    outer loop
      vertex 3.48287 -5.48813 -4
      vertex 1.33957 -2.11082 -4
      vertex 1.59356 -1.92628 -4
    endloop
  endfacet
  facet normal 0 0 -1
    outer loop
      vertex 0.772542 -2.37764 -4
      vertex 2.00861 -6.18187 -4
      vertex 1.21798 -6.38487 -4
    endloop
  endfacet
  facet normal 0 0 -1
    outer loop
      vertex 2.76756 -5.88138 -4
      vertex 1.06445 -2.26207 -4
      vertex 1.33957 -2.11082 -4
    endloop
  endfacet
  facet normal 0 0 -1
    outer loop
      vertex 2.00861 -6.18187 -4
      vertex 0.772542 -2.37764 -4
      vertex 1.06445 -2.26207 -4
    endloop
  endfacet
  facet normal 0 0 -1
    outer loop
      vertex 1.21798 -6.38487 -4
      vertex 0.468452 -2.45572 -4
      vertex 0.772542 -2.37764 -4
    endloop
  endfacet
  facet normal 0 0 -1
    outer loop
      vertex 0.408138 -6.48717 -4
      vertex 0.468452 -2.45572 -4
      vertex 1.21798 -6.38487 -4
    endloop
  endfacet
  facet normal 0 0 -1
    outer loop
      vertex 0.408138 -6.48717 -4
      vertex 0.156976 -2.49507 -4
      vertex 0.468452 -2.45572 -4
    endloop
  endfacet
  facet normal 0 0 -1
    outer loop
      vertex 0.408138 -6.48717 -4
      vertex -0.156976 -2.49507 -4
      vertex 0.156976 -2.49507 -4
    endloop
  endfacet
  facet normal 0 0 -1
    outer loop
      vertex -0.408138 -6.48717 -4
      vertex -0.156976 -2.49507 -4
      vertex 0.408138 -6.48717 -4
    endloop
  endfacet
  facet normal 0 0 -1
    outer loop
      vertex -0.408138 -6.48717 -4
      vertex -0.468452 -2.45572 -4
      vertex -0.156976 -2.49507 -4
    endloop
  endfacet
  facet normal 0 0 -1
    outer loop
      vertex -1.21798 -6.38487 -4
      vertex -0.468452 -2.45572 -4
      vertex -0.408138 -6.48717 -4
    endloop
  endfacet
  facet normal -0 0 -1
    outer loop
      vertex -0.468452 -2.45572 -4
      vertex -1.21798 -6.38487 -4
      vertex -0.772542 -2.37764 -4
    endloop
  endfacet
  facet normal 0 0 -1
    outer loop
      vertex -2.00861 -6.18187 -4
      vertex -0.772542 -2.37764 -4
      vertex -1.21798 -6.38487 -4
    endloop
  endfacet
  facet normal -0 0 -1
    outer loop
      vertex -0.772542 -2.37764 -4
      vertex -2.00861 -6.18187 -4
      vertex -1.06445 -2.26207 -4
    endloop
  endfacet
  facet normal 0 0 -1
    outer loop
      vertex -2.76756 -5.88138 -4
      vertex -1.06445 -2.26207 -4
      vertex -2.00861 -6.18187 -4
    endloop
  endfacet
  facet normal -0 0 -1
    outer loop
      vertex -1.06445 -2.26207 -4
      vertex -2.76756 -5.88138 -4
      vertex -1.33957 -2.11082 -4
    endloop
  endfacet
  facet normal 0 0 -1
    outer loop
      vertex -3.48287 -5.48813 -4
      vertex -1.33957 -2.11082 -4
      vertex -2.76756 -5.88138 -4
    endloop
  endfacet
  facet normal -0 0 -1
    outer loop
      vertex -1.33957 -2.11082 -4
      vertex -3.48287 -5.48813 -4
      vertex -1.59356 -1.92628 -4
    endloop
  endfacet
  facet normal 0 0 -1
    outer loop
      vertex -4.14326 -5.00834 -4
      vertex -1.59356 -1.92628 -4
      vertex -3.48287 -5.48813 -4
    endloop
  endfacet
  facet normal -0 0 -1
    outer loop
      vertex -1.59356 -1.92628 -4
      vertex -4.14326 -5.00834 -4
      vertex -1.82242 -1.71137 -4
    endloop
  endfacet
  facet normal 0 0 -1
    outer loop
      vertex -4.7383 -4.44956 -4
      vertex -1.82242 -1.71137 -4
      vertex -4.14326 -5.00834 -4
    endloop
  endfacet
  facet normal -0 0 -1
    outer loop
      vertex -1.82242 -1.71137 -4
      vertex -4.7383 -4.44956 -4
      vertex -2.02254 -1.46946 -4
    endloop
  endfacet
  facet normal -0 0 -1
    outer loop
      vertex -2.02254 -1.46946 -4
      vertex -5.25861 -3.8206 -4
      vertex -2.19077 -1.20438 -4
    endloop
  endfacet
  facet normal 0 0 -1
    outer loop
      vertex -5.25861 -3.8206 -4
      vertex -2.02254 -1.46946 -4
      vertex -4.7383 -4.44956 -4
    endloop
  endfacet
  facet normal 0 0 -1
    outer loop
      vertex 2.02254 1.46946 -4
      vertex 5.25861 3.8206 -4
      vertex 2.19077 1.20438 -4
    endloop
  endfacet
  facet normal -0 0 -1
    outer loop
      vertex 5.25861 3.8206 -4
      vertex 2.02254 1.46946 -4
      vertex 4.7383 4.44956 -4
    endloop
  endfacet
  facet normal 0 0 -1
    outer loop
      vertex 1.82242 1.71137 -4
      vertex 4.7383 4.44956 -4
      vertex 2.02254 1.46946 -4
    endloop
  endfacet
  facet normal -0 0 -1
    outer loop
      vertex 4.7383 4.44956 -4
      vertex 1.82242 1.71137 -4
      vertex 4.14326 5.00834 -4
    endloop
  endfacet
  facet normal 0 0 -1
    outer loop
      vertex 1.59356 1.92628 -4
      vertex 4.14326 5.00834 -4
      vertex 1.82242 1.71137 -4
    endloop
  endfacet
  facet normal -0 0 -1
    outer loop
      vertex 4.14326 5.00834 -4
      vertex 1.59356 1.92628 -4
      vertex 3.48287 5.48813 -4
    endloop
  endfacet
  facet normal 0 0 -1
    outer loop
      vertex 1.33957 2.11082 -4
      vertex 3.48287 5.48813 -4
      vertex 1.59356 1.92628 -4
    endloop
  endfacet
  facet normal -0 0 -1
    outer loop
      vertex 3.48287 5.48813 -4
      vertex 1.33957 2.11082 -4
      vertex 2.76756 5.88138 -4
    endloop
  endfacet
  facet normal 0 0 -1
    outer loop
      vertex 1.06445 2.26207 -4
      vertex 2.76756 5.88138 -4
      vertex 1.33957 2.11082 -4
    endloop
  endfacet
  facet normal -0 0 -1
    outer loop
      vertex 2.76756 5.88138 -4
      vertex 1.06445 2.26207 -4
      vertex 2.00861 6.18187 -4
    endloop
  endfacet
  facet normal 0 0 -1
    outer loop
      vertex 0.772542 2.37764 -4
      vertex 2.00861 6.18187 -4
      vertex 1.06445 2.26207 -4
    endloop
  endfacet
  facet normal -0 0 -1
    outer loop
      vertex 2.00861 6.18187 -4
      vertex 0.772542 2.37764 -4
      vertex 1.21798 6.38487 -4
    endloop
  endfacet
  facet normal 0 0 -1
    outer loop
      vertex 0.468452 2.45572 -4
      vertex 1.21798 6.38487 -4
      vertex 0.772542 2.37764 -4
    endloop
  endfacet
  facet normal 0 0 -1
    outer loop
      vertex 0.468452 2.45572 -4
      vertex 0.408138 6.48717 -4
      vertex 1.21798 6.38487 -4
    endloop
  endfacet
  facet normal 0 0 -1
    outer loop
      vertex 0.156976 2.49507 -4
      vertex 0.408138 6.48717 -4
      vertex 0.468452 2.45572 -4
    endloop
  endfacet
  facet normal 0 0 -1
    outer loop
      vertex -0.156976 2.49507 -4
      vertex 0.408138 6.48717 -4
      vertex 0.156976 2.49507 -4
    endloop
  endfacet
  facet normal 0 0 -1
    outer loop
      vertex -0.156976 2.49507 -4
      vertex -0.408138 6.48717 -4
      vertex 0.408138 6.48717 -4
    endloop
  endfacet
  facet normal 0 0 -1
    outer loop
      vertex -0.468452 2.45572 -4
      vertex -0.408138 6.48717 -4
      vertex -0.156976 2.49507 -4
    endloop
  endfacet
  facet normal 0 0 -1
    outer loop
      vertex -1.21798 6.38487 -4
      vertex -0.468452 2.45572 -4
      vertex -0.772542 2.37764 -4
    endloop
  endfacet
  facet normal 0 0 -1
    outer loop
      vertex -2.00861 6.18187 -4
      vertex -0.772542 2.37764 -4
      vertex -1.06445 2.26207 -4
    endloop
  endfacet
  facet normal 0 0 -1
    outer loop
      vertex -0.468452 2.45572 -4
      vertex -1.21798 6.38487 -4
      vertex -0.408138 6.48717 -4
    endloop
  endfacet
  facet normal 0 0 -1
    outer loop
      vertex -2.76756 5.88138 -4
      vertex -1.06445 2.26207 -4
      vertex -1.33957 2.11082 -4
    endloop
  endfacet
  facet normal 0 0 -1
    outer loop
      vertex -3.48287 5.48813 -4
      vertex -1.33957 2.11082 -4
      vertex -1.59356 1.92628 -4
    endloop
  endfacet
  facet normal 0 0 -1
    outer loop
      vertex -4.14326 5.00834 -4
      vertex -1.59356 1.92628 -4
      vertex -1.82242 1.71137 -4
    endloop
  endfacet
  facet normal 0 0 -1
    outer loop
      vertex -0.772542 2.37764 -4
      vertex -2.00861 6.18187 -4
      vertex -1.21798 6.38487 -4
    endloop
  endfacet
  facet normal 0 0 -1
    outer loop
      vertex -4.7383 4.44956 -4
      vertex -1.82242 1.71137 -4
      vertex -2.02254 1.46946 -4
    endloop
  endfacet
  facet normal 0 0 -1
    outer loop
      vertex -5.25861 3.8206 -4
      vertex -2.02254 1.46946 -4
      vertex -2.19077 1.20438 -4
    endloop
  endfacet
  facet normal 0 0 -1
    outer loop
      vertex -5.69599 3.1314 -4
      vertex -2.19077 1.20438 -4
      vertex -2.32444 0.920311 -4
    endloop
  endfacet
  facet normal 0 0 -1
    outer loop
      vertex -6.04355 2.39281 -4
      vertex -2.32444 0.920311 -4
      vertex -2.42146 0.621724 -4
    endloop
  endfacet
  facet normal 0 0 -1
    outer loop
      vertex -6.29579 1.61648 -4
      vertex -2.42146 0.621724 -4
      vertex -2.48029 0.313333 -4
    endloop
  endfacet
  facet normal 0 0 -1
    outer loop
      vertex -1.06445 2.26207 -4
      vertex -2.76756 5.88138 -4
      vertex -2.00861 6.18187 -4
    endloop
  endfacet
  facet normal 0 0 -1
    outer loop
      vertex -6.44874 0.814666 -4
      vertex -2.48029 0.313333 -4
      vertex -2.5 0 -4
    endloop
  endfacet
  facet normal 0 0 -1
    outer loop
      vertex -5.69599 -3.1314 -4
      vertex -2.19077 -1.20438 -4
      vertex -5.25861 -3.8206 -4
    endloop
  endfacet
  facet normal -0 0 -1
    outer loop
      vertex -2.19077 -1.20438 -4
      vertex -5.69599 -3.1314 -4
      vertex -2.32444 -0.920311 -4
    endloop
  endfacet
  facet normal 0 0 -1
    outer loop
      vertex -1.33957 2.11082 -4
      vertex -3.48287 5.48813 -4
      vertex -2.76756 5.88138 -4
    endloop
  endfacet
  facet normal 0 0 -1
    outer loop
      vertex -6.04355 -2.39281 -4
      vertex -2.32444 -0.920311 -4
      vertex -5.69599 -3.1314 -4
    endloop
  endfacet
  facet normal 0 0 -1
    outer loop
      vertex -1.59356 1.92628 -4
      vertex -4.14326 5.00834 -4
      vertex -3.48287 5.48813 -4
    endloop
  endfacet
  facet normal -0 0 -1
    outer loop
      vertex -2.32444 -0.920311 -4
      vertex -6.04355 -2.39281 -4
      vertex -2.42146 -0.621724 -4
    endloop
  endfacet
  facet normal 0 0 -1
    outer loop
      vertex -1.82242 1.71137 -4
      vertex -4.7383 4.44956 -4
      vertex -4.14326 5.00834 -4
    endloop
  endfacet
  facet normal 0 0 -1
    outer loop
      vertex -6.29579 -1.61648 -4
      vertex -2.42146 -0.621724 -4
      vertex -6.04355 -2.39281 -4
    endloop
  endfacet
  facet normal 0 0 -1
    outer loop
      vertex -2.02254 1.46946 -4
      vertex -5.25861 3.8206 -4
      vertex -4.7383 4.44956 -4
    endloop
  endfacet
  facet normal -0 0 -1
    outer loop
      vertex -2.42146 -0.621724 -4
      vertex -6.29579 -1.61648 -4
      vertex -2.48029 -0.313333 -4
    endloop
  endfacet
  facet normal 0 0 -1
    outer loop
      vertex -2.19077 1.20438 -4
      vertex -5.69599 3.1314 -4
      vertex -5.25861 3.8206 -4
    endloop
  endfacet
  facet normal 0 0 -1
    outer loop
      vertex -6.44874 -0.814666 -4
      vertex -2.48029 -0.313333 -4
      vertex -6.29579 -1.61648 -4
    endloop
  endfacet
  facet normal 0 0 -1
    outer loop
      vertex -2.32444 0.920311 -4
      vertex -6.04355 2.39281 -4
      vertex -5.69599 3.1314 -4
    endloop
  endfacet
  facet normal -0 0 -1
    outer loop
      vertex -2.48029 -0.313333 -4
      vertex -6.44874 -0.814666 -4
      vertex -2.5 0 -4
    endloop
  endfacet
  facet normal 0 0 -1
    outer loop
      vertex -2.42146 0.621724 -4
      vertex -6.29579 1.61648 -4
      vertex -6.04355 2.39281 -4
    endloop
  endfacet
  facet normal 0 0 -1
    outer loop
      vertex -6.5 0 -4
      vertex -2.5 0 -4
      vertex -6.44874 -0.814666 -4
    endloop
  endfacet
  facet normal 0 0 -1
    outer loop
      vertex -2.48029 0.313333 -4
      vertex -6.44874 0.814666 -4
      vertex -6.29579 1.61648 -4
    endloop
  endfacet
  facet normal 0 0 -1
    outer loop
      vertex -2.5 0 -4
      vertex -6.5 0 -4
      vertex -6.44874 0.814666 -4
    endloop
  endfacet
  facet normal -0.982288 -0.187376 0
    outer loop
      vertex -6.29579 -1.61648 -4
      vertex -6.44874 -0.814666 4
      vertex -6.44874 -0.814666 -4
    endloop
  endfacet
  facet normal -0.982288 -0.187376 0
    outer loop
      vertex -6.44874 -0.814666 4
      vertex -6.29579 -1.61648 -4
      vertex -6.29579 -1.61648 4
    endloop
  endfacet
  facet normal -0.844328 -0.535827 0
    outer loop
      vertex -5.25861 -3.8206 -4
      vertex -5.69599 -3.1314 4
      vertex -5.69599 -3.1314 -4
    endloop
  endfacet
  facet normal -0.844328 -0.535827 0
    outer loop
      vertex -5.69599 -3.1314 4
      vertex -5.25861 -3.8206 -4
      vertex -5.25861 -3.8206 4
    endloop
  endfacet
  facet normal -0.481758 -0.876304 0
    outer loop
      vertex -3.48287 -5.48813 -4
      vertex -2.76756 -5.88138 4
      vertex -3.48287 -5.48813 4
    endloop
  endfacet
  facet normal -0.481758 -0.876304 -0
    outer loop
      vertex -2.76756 -5.88138 4
      vertex -3.48287 -5.48813 -4
      vertex -2.76756 -5.88138 -4
    endloop
  endfacet
  facet normal -0.998027 -0.0627802 0
    outer loop
      vertex 2.5 0 -4
      vertex 2.48029 0.313333 4
      vertex 2.48029 0.313333 -4
    endloop
  endfacet
  facet normal -0.998027 -0.0627802 0
    outer loop
      vertex 2.48029 0.313333 4
      vertex 2.5 0 -4
      vertex 2.5 0 4
    endloop
  endfacet
  facet normal 0.998027 -0.0627802 0
    outer loop
      vertex -2.5 0 4
      vertex -2.48029 0.313333 -4
      vertex -2.48029 0.313333 4
    endloop
  endfacet
  facet normal 0.998027 -0.0627802 0
    outer loop
      vertex -2.48029 0.313333 -4
      vertex -2.5 0 4
      vertex -2.5 0 -4
    endloop
  endfacet
  facet normal 0 -1 0
    outer loop
      vertex -0.156976 2.49507 -4
      vertex 0.156976 2.49507 4
      vertex -0.156976 2.49507 4
    endloop
  endfacet
  facet normal 0 -1 -0
    outer loop
      vertex 0.156976 2.49507 4
      vertex -0.156976 2.49507 -4
      vertex 0.156976 2.49507 -4
    endloop
  endfacet
  facet normal -0.684541 -0.728975 0
    outer loop
      vertex 1.59356 1.92628 -4
      vertex 1.82242 1.71137 4
      vertex 1.59356 1.92628 4
    endloop
  endfacet
  facet normal -0.684541 -0.728975 -0
    outer loop
      vertex 1.82242 1.71137 4
      vertex 1.59356 1.92628 -4
      vertex 1.82242 1.71137 -4
    endloop
  endfacet
  facet normal 0.684541 -0.728975 0
    outer loop
      vertex -1.82242 1.71137 -4
      vertex -1.59356 1.92628 4
      vertex -1.82242 1.71137 4
    endloop
  endfacet
  facet normal 0.684541 -0.728975 0
    outer loop
      vertex -1.59356 1.92628 4
      vertex -1.82242 1.71137 -4
      vertex -1.59356 1.92628 -4
    endloop
  endfacet
  facet normal 0.368112 -0.929781 0
    outer loop
      vertex -1.06445 2.26207 -4
      vertex -0.772542 2.37764 4
      vertex -1.06445 2.26207 4
    endloop
  endfacet
  facet normal 0.368112 -0.929781 0
    outer loop
      vertex -0.772542 2.37764 4
      vertex -1.06445 2.26207 -4
      vertex -0.772542 2.37764 -4
    endloop
  endfacet
  facet normal -0.770522 0.637414 0
    outer loop
      vertex 1.82242 -1.71137 -4
      vertex 2.02254 -1.46946 4
      vertex 2.02254 -1.46946 -4
    endloop
  endfacet
  facet normal -0.770522 0.637414 0
    outer loop
      vertex 2.02254 -1.46946 4
      vertex 1.82242 -1.71137 -4
      vertex 1.82242 -1.71137 4
    endloop
  endfacet
  facet normal -0.90483 -0.425772 0
    outer loop
      vertex 2.32444 0.920311 -4
      vertex 2.19077 1.20438 4
      vertex 2.19077 1.20438 -4
    endloop
  endfacet
  facet normal -0.90483 -0.425772 0
    outer loop
      vertex 2.19077 1.20438 4
      vertex 2.32444 0.920311 -4
      vertex 2.32444 0.920311 4
    endloop
  endfacet
  facet normal -0.368112 -0.929781 0
    outer loop
      vertex 0.772542 2.37764 -4
      vertex 1.06445 2.26207 4
      vertex 0.772542 2.37764 4
    endloop
  endfacet
  facet normal -0.368112 -0.929781 -0
    outer loop
      vertex 1.06445 2.26207 4
      vertex 0.772542 2.37764 -4
      vertex 1.06445 2.26207 -4
    endloop
  endfacet
  facet normal -0.248699 -0.968581 0
    outer loop
      vertex 0.468452 2.45572 -4
      vertex 0.772542 2.37764 4
      vertex 0.468452 2.45572 4
    endloop
  endfacet
  facet normal -0.248699 -0.968581 -0
    outer loop
      vertex 0.772542 2.37764 4
      vertex 0.468452 2.45572 -4
      vertex 0.772542 2.37764 -4
    endloop
  endfacet
  facet normal -0.587797 -0.809009 0
    outer loop
      vertex 1.33957 2.11082 -4
      vertex 1.59356 1.92628 4
      vertex 1.33957 2.11082 4
    endloop
  endfacet
  facet normal -0.587797 -0.809009 -0
    outer loop
      vertex 1.59356 1.92628 4
      vertex 1.33957 2.11082 -4
      vertex 1.59356 1.92628 -4
    endloop
  endfacet
  facet normal 0.90483 -0.425772 0
    outer loop
      vertex -2.32444 0.920311 4
      vertex -2.19077 1.20438 -4
      vertex -2.19077 1.20438 4
    endloop
  endfacet
  facet normal 0.90483 -0.425772 0
    outer loop
      vertex -2.19077 1.20438 -4
      vertex -2.32444 0.920311 4
      vertex -2.32444 0.920311 -4
    endloop
  endfacet
  facet normal 0.844321 -0.535838 0
    outer loop
      vertex -2.19077 1.20438 4
      vertex -2.02254 1.46946 -4
      vertex -2.02254 1.46946 4
    endloop
  endfacet
  facet normal 0.844321 -0.535838 0
    outer loop
      vertex -2.02254 1.46946 -4
      vertex -2.19077 1.20438 4
      vertex -2.19077 1.20438 -4
    endloop
  endfacet
  facet normal 0.982287 -0.187385 0
    outer loop
      vertex -2.48029 0.313333 4
      vertex -2.42146 0.621724 -4
      vertex -2.42146 0.621724 4
    endloop
  endfacet
  facet normal 0.982287 -0.187385 0
    outer loop
      vertex -2.42146 0.621724 -4
      vertex -2.48029 0.313333 4
      vertex -2.48029 0.313333 -4
    endloop
  endfacet
  facet normal 0.587797 -0.809009 0
    outer loop
      vertex -1.59356 1.92628 -4
      vertex -1.33957 2.11082 4
      vertex -1.59356 1.92628 4
    endloop
  endfacet
  facet normal 0.587797 -0.809009 0
    outer loop
      vertex -1.33957 2.11082 4
      vertex -1.59356 1.92628 -4
      vertex -1.33957 2.11082 -4
    endloop
  endfacet
  facet normal 0.125338 -0.992114 0
    outer loop
      vertex -0.468452 2.45572 -4
      vertex -0.156976 2.49507 4
      vertex -0.468452 2.45572 4
    endloop
  endfacet
  facet normal 0.125338 -0.992114 0
    outer loop
      vertex -0.156976 2.49507 4
      vertex -0.468452 2.45572 -4
      vertex -0.156976 2.49507 -4
    endloop
  endfacet
  facet normal 0.248699 0.968581 -0
    outer loop
      vertex -0.468452 -2.45572 -4
      vertex -0.772542 -2.37764 4
      vertex -0.468452 -2.45572 4
    endloop
  endfacet
  facet normal 0.248699 0.968581 0
    outer loop
      vertex -0.772542 -2.37764 4
      vertex -0.468452 -2.45572 -4
      vertex -0.772542 -2.37764 -4
    endloop
  endfacet
  facet normal -0.125338 0.992114 0
    outer loop
      vertex 0.468452 -2.45572 -4
      vertex 0.156976 -2.49507 4
      vertex 0.468452 -2.45572 4
    endloop
  endfacet
  facet normal -0.125338 0.992114 0
    outer loop
      vertex 0.156976 -2.49507 4
      vertex 0.468452 -2.45572 -4
      vertex 0.156976 -2.49507 -4
    endloop
  endfacet
  facet normal -0.951054 -0.309026 0
    outer loop
      vertex 2.42146 0.621724 -4
      vertex 2.32444 0.920311 4
      vertex 2.32444 0.920311 -4
    endloop
  endfacet
  facet normal -0.951054 -0.309026 0
    outer loop
      vertex 2.32444 0.920311 4
      vertex 2.42146 0.621724 -4
      vertex 2.42146 0.621724 4
    endloop
  endfacet
  facet normal -0.982287 -0.187385 0
    outer loop
      vertex 2.48029 0.313333 -4
      vertex 2.42146 0.621724 4
      vertex 2.42146 0.621724 -4
    endloop
  endfacet
  facet normal -0.982287 -0.187385 0
    outer loop
      vertex 2.42146 0.621724 4
      vertex 2.48029 0.313333 -4
      vertex 2.48029 0.313333 4
    endloop
  endfacet
  facet normal -0.770522 -0.637414 0
    outer loop
      vertex 2.02254 1.46946 -4
      vertex 1.82242 1.71137 4
      vertex 1.82242 1.71137 -4
    endloop
  endfacet
  facet normal -0.770522 -0.637414 0
    outer loop
      vertex 1.82242 1.71137 4
      vertex 2.02254 1.46946 -4
      vertex 2.02254 1.46946 4
    endloop
  endfacet
  facet normal -0.844321 -0.535838 0
    outer loop
      vertex 2.19077 1.20438 -4
      vertex 2.02254 1.46946 4
      vertex 2.02254 1.46946 -4
    endloop
  endfacet
  facet normal -0.844321 -0.535838 0
    outer loop
      vertex 2.02254 1.46946 4
      vertex 2.19077 1.20438 -4
      vertex 2.19077 1.20438 4
    endloop
  endfacet
  facet normal -0.125338 -0.992114 0
    outer loop
      vertex 0.156976 2.49507 -4
      vertex 0.468452 2.45572 4
      vertex 0.156976 2.49507 4
    endloop
  endfacet
  facet normal -0.125338 -0.992114 -0
    outer loop
      vertex 0.468452 2.45572 4
      vertex 0.156976 2.49507 -4
      vertex 0.468452 2.45572 -4
    endloop
  endfacet
  facet normal -0.481757 -0.876305 0
    outer loop
      vertex 1.06445 2.26207 -4
      vertex 1.33957 2.11082 4
      vertex 1.06445 2.26207 4
    endloop
  endfacet
  facet normal -0.481757 -0.876305 -0
    outer loop
      vertex 1.33957 2.11082 4
      vertex 1.06445 2.26207 -4
      vertex 1.33957 2.11082 -4
    endloop
  endfacet
  facet normal -0.998027 0.0627802 0
    outer loop
      vertex 2.48029 -0.313333 -4
      vertex 2.5 0 4
      vertex 2.5 0 -4
    endloop
  endfacet
  facet normal -0.998027 0.0627802 0
    outer loop
      vertex 2.5 0 4
      vertex 2.48029 -0.313333 -4
      vertex 2.48029 -0.313333 4
    endloop
  endfacet
  facet normal -0.587797 0.809009 0
    outer loop
      vertex 1.59356 -1.92628 -4
      vertex 1.33957 -2.11082 4
      vertex 1.59356 -1.92628 4
    endloop
  endfacet
  facet normal -0.587797 0.809009 0
    outer loop
      vertex 1.33957 -2.11082 4
      vertex 1.59356 -1.92628 -4
      vertex 1.33957 -2.11082 -4
    endloop
  endfacet
  facet normal -0.90483 0.425772 0
    outer loop
      vertex 2.19077 -1.20438 -4
      vertex 2.32444 -0.920311 4
      vertex 2.32444 -0.920311 -4
    endloop
  endfacet
  facet normal -0.90483 0.425772 0
    outer loop
      vertex 2.32444 -0.920311 4
      vertex 2.19077 -1.20438 -4
      vertex 2.19077 -1.20438 4
    endloop
  endfacet
  facet normal -0.844321 0.535838 0
    outer loop
      vertex 2.02254 -1.46946 -4
      vertex 2.19077 -1.20438 4
      vertex 2.19077 -1.20438 -4
    endloop
  endfacet
  facet normal -0.844321 0.535838 0
    outer loop
      vertex 2.19077 -1.20438 4
      vertex 2.02254 -1.46946 -4
      vertex 2.02254 -1.46946 4
    endloop
  endfacet
  facet normal 0.125338 0.992114 -0
    outer loop
      vertex -0.156976 -2.49507 -4
      vertex -0.468452 -2.45572 4
      vertex -0.156976 -2.49507 4
    endloop
  endfacet
  facet normal 0.125338 0.992114 0
    outer loop
      vertex -0.468452 -2.45572 4
      vertex -0.156976 -2.49507 -4
      vertex -0.468452 -2.45572 -4
    endloop
  endfacet
  facet normal 0.90483 0.425772 0
    outer loop
      vertex -2.19077 -1.20438 4
      vertex -2.32444 -0.920311 -4
      vertex -2.32444 -0.920311 4
    endloop
  endfacet
  facet normal 0.90483 0.425772 0
    outer loop
      vertex -2.32444 -0.920311 -4
      vertex -2.19077 -1.20438 4
      vertex -2.19077 -1.20438 -4
    endloop
  endfacet
  facet normal 0.998027 0.0627802 0
    outer loop
      vertex -2.48029 -0.313333 4
      vertex -2.5 0 -4
      vertex -2.5 0 4
    endloop
  endfacet
  facet normal 0.998027 0.0627802 0
    outer loop
      vertex -2.5 0 -4
      vertex -2.48029 -0.313333 4
      vertex -2.48029 -0.313333 -4
    endloop
  endfacet
  facet normal 0.951054 0.309026 0
    outer loop
      vertex -2.32444 -0.920311 4
      vertex -2.42146 -0.621724 -4
      vertex -2.42146 -0.621724 4
    endloop
  endfacet
  facet normal 0.951054 0.309026 0
    outer loop
      vertex -2.42146 -0.621724 -4
      vertex -2.32444 -0.920311 4
      vertex -2.32444 -0.920311 -4
    endloop
  endfacet
  facet normal -0.684541 0.728975 0
    outer loop
      vertex 1.82242 -1.71137 -4
      vertex 1.59356 -1.92628 4
      vertex 1.82242 -1.71137 4
    endloop
  endfacet
  facet normal -0.684541 0.728975 0
    outer loop
      vertex 1.59356 -1.92628 4
      vertex 1.82242 -1.71137 -4
      vertex 1.59356 -1.92628 -4
    endloop
  endfacet
  facet normal -0.368112 0.929781 0
    outer loop
      vertex 1.06445 -2.26207 -4
      vertex 0.772542 -2.37764 4
      vertex 1.06445 -2.26207 4
    endloop
  endfacet
  facet normal -0.368112 0.929781 0
    outer loop
      vertex 0.772542 -2.37764 4
      vertex 1.06445 -2.26207 -4
      vertex 0.772542 -2.37764 -4
    endloop
  endfacet
  facet normal -0.248699 0.968581 0
    outer loop
      vertex 0.772542 -2.37764 -4
      vertex 0.468452 -2.45572 4
      vertex 0.772542 -2.37764 4
    endloop
  endfacet
  facet normal -0.248699 0.968581 0
    outer loop
      vertex 0.468452 -2.45572 4
      vertex 0.772542 -2.37764 -4
      vertex 0.468452 -2.45572 -4
    endloop
  endfacet
  facet normal 0.770522 -0.637414 0
    outer loop
      vertex -2.02254 1.46946 4
      vertex -1.82242 1.71137 -4
      vertex -1.82242 1.71137 4
    endloop
  endfacet
  facet normal 0.770522 -0.637414 0
    outer loop
      vertex -1.82242 1.71137 -4
      vertex -2.02254 1.46946 4
      vertex -2.02254 1.46946 -4
    endloop
  endfacet
  facet normal 0.951054 -0.309026 0
    outer loop
      vertex -2.42146 0.621724 4
      vertex -2.32444 0.920311 -4
      vertex -2.32444 0.920311 4
    endloop
  endfacet
  facet normal 0.951054 -0.309026 0
    outer loop
      vertex -2.32444 0.920311 -4
      vertex -2.42146 0.621724 4
      vertex -2.42146 0.621724 -4
    endloop
  endfacet
  facet normal 0.481757 -0.876305 0
    outer loop
      vertex -1.33957 2.11082 -4
      vertex -1.06445 2.26207 4
      vertex -1.33957 2.11082 4
    endloop
  endfacet
  facet normal 0.481757 -0.876305 0
    outer loop
      vertex -1.06445 2.26207 4
      vertex -1.33957 2.11082 -4
      vertex -1.06445 2.26207 -4
    endloop
  endfacet
  facet normal 0.248699 -0.968581 0
    outer loop
      vertex -0.772542 2.37764 -4
      vertex -0.468452 2.45572 4
      vertex -0.772542 2.37764 4
    endloop
  endfacet
  facet normal 0.248699 -0.968581 0
    outer loop
      vertex -0.468452 2.45572 4
      vertex -0.772542 2.37764 -4
      vertex -0.468452 2.45572 -4
    endloop
  endfacet
  facet normal -0.951054 0.309026 0
    outer loop
      vertex 2.32444 -0.920311 -4
      vertex 2.42146 -0.621724 4
      vertex 2.42146 -0.621724 -4
    endloop
  endfacet
  facet normal -0.951054 0.309026 0
    outer loop
      vertex 2.42146 -0.621724 4
      vertex 2.32444 -0.920311 -4
      vertex 2.32444 -0.920311 4
    endloop
  endfacet
  facet normal -0.982287 0.187385 0
    outer loop
      vertex 2.42146 -0.621724 -4
      vertex 2.48029 -0.313333 4
      vertex 2.48029 -0.313333 -4
    endloop
  endfacet
  facet normal -0.982287 0.187385 0
    outer loop
      vertex 2.48029 -0.313333 4
      vertex 2.42146 -0.621724 -4
      vertex 2.42146 -0.621724 4
    endloop
  endfacet
  facet normal 0.368112 0.929781 -0
    outer loop
      vertex -0.772542 -2.37764 -4
      vertex -1.06445 -2.26207 4
      vertex -0.772542 -2.37764 4
    endloop
  endfacet
  facet normal 0.368112 0.929781 0
    outer loop
      vertex -1.06445 -2.26207 4
      vertex -0.772542 -2.37764 -4
      vertex -1.06445 -2.26207 -4
    endloop
  endfacet
  facet normal 0.982287 0.187385 0
    outer loop
      vertex -2.42146 -0.621724 4
      vertex -2.48029 -0.313333 -4
      vertex -2.48029 -0.313333 4
    endloop
  endfacet
  facet normal 0.982287 0.187385 0
    outer loop
      vertex -2.48029 -0.313333 -4
      vertex -2.42146 -0.621724 4
      vertex -2.42146 -0.621724 -4
    endloop
  endfacet
  facet normal -0.481757 0.876305 0
    outer loop
      vertex 1.33957 -2.11082 -4
      vertex 1.06445 -2.26207 4
      vertex 1.33957 -2.11082 4
    endloop
  endfacet
  facet normal -0.481757 0.876305 0
    outer loop
      vertex 1.06445 -2.26207 4
      vertex 1.33957 -2.11082 -4
      vertex 1.06445 -2.26207 -4
    endloop
  endfacet
  facet normal 0 1 -0
    outer loop
      vertex 0.156976 -2.49507 -4
      vertex -0.156976 -2.49507 4
      vertex 0.156976 -2.49507 4
    endloop
  endfacet
  facet normal 0 1 0
    outer loop
      vertex -0.156976 -2.49507 4
      vertex 0.156976 -2.49507 -4
      vertex -0.156976 -2.49507 -4
    endloop
  endfacet
  facet normal 0.770522 0.637414 0
    outer loop
      vertex -1.82242 -1.71137 4
      vertex -2.02254 -1.46946 -4
      vertex -2.02254 -1.46946 4
    endloop
  endfacet
  facet normal 0.770522 0.637414 0
    outer loop
      vertex -2.02254 -1.46946 -4
      vertex -1.82242 -1.71137 4
      vertex -1.82242 -1.71137 -4
    endloop
  endfacet
  facet normal 0.844321 0.535838 0
    outer loop
      vertex -2.02254 -1.46946 4
      vertex -2.19077 -1.20438 -4
      vertex -2.19077 -1.20438 4
    endloop
  endfacet
  facet normal 0.844321 0.535838 0
    outer loop
      vertex -2.19077 -1.20438 -4
      vertex -2.02254 -1.46946 4
      vertex -2.02254 -1.46946 -4
    endloop
  endfacet
  facet normal 0.481757 0.876305 -0
    outer loop
      vertex -1.06445 -2.26207 -4
      vertex -1.33957 -2.11082 4
      vertex -1.06445 -2.26207 4
    endloop
  endfacet
  facet normal 0.481757 0.876305 0
    outer loop
      vertex -1.33957 -2.11082 4
      vertex -1.06445 -2.26207 -4
      vertex -1.33957 -2.11082 -4
    endloop
  endfacet
  facet normal 0.587797 0.809009 -0
    outer loop
      vertex -1.33957 -2.11082 -4
      vertex -1.59356 -1.92628 4
      vertex -1.33957 -2.11082 4
    endloop
  endfacet
  facet normal 0.587797 0.809009 0
    outer loop
      vertex -1.59356 -1.92628 4
      vertex -1.33957 -2.11082 -4
      vertex -1.59356 -1.92628 -4
    endloop
  endfacet
  facet normal 0.684541 0.728975 -0
    outer loop
      vertex -1.59356 -1.92628 -4
      vertex -1.82242 -1.71137 4
      vertex -1.59356 -1.92628 4
    endloop
  endfacet
  facet normal 0.684541 0.728975 0
    outer loop
      vertex -1.82242 -1.71137 4
      vertex -1.59356 -1.92628 -4
      vertex -1.82242 -1.71137 -4
    endloop
  endfacet
endsolid OpenSCAD_Model
