solid OpenSCAD_Model
  facet normal 0.904826 0.425782 0
    outer loop
      vertex 7.43821 2.945 1
      vertex 7.01045 3.85403 -1
      vertex 7.01045 3.85403 1
    endloop
  endfacet
  facet normal 0.904826 0.425782 0
    outer loop
      vertex 7.01045 3.85403 -1
      vertex 7.43821 2.945 1
      vertex 7.43821 2.945 -1
    endloop
  endfacet
  facet normal 0.844331 0.535823 0
    outer loop
      vertex 7.01045 3.85403 1
      vertex 6.47214 4.70228 -1
      vertex 6.47214 4.70228 1
    endloop
  endfacet
  facet normal 0.844331 0.535823 0
    outer loop
      vertex 6.47214 4.70228 -1
      vertex 7.01045 3.85403 1
      vertex 7.01045 3.85403 -1
    endloop
  endfacet
  facet normal 0.248693 0.968582 -0
    outer loop
      vertex 2.47214 7.60845 -1
      vertex 1.49905 7.8583 1
      vertex 2.47214 7.60845 1
    endloop
  endfacet
  facet normal 0.248693 0.968582 0
    outer loop
      vertex 1.49905 7.8583 1
      vertex 2.47214 7.60845 -1
      vertex 1.49905 7.8583 -1
    endloop
  endfacet
  facet normal 0.368122 0.929777 -0
    outer loop
      vertex 3.40623 7.23862 -1
      vertex 2.47214 7.60845 1
      vertex 3.40623 7.23862 1
    endloop
  endfacet
  facet normal 0.368122 0.929777 0
    outer loop
      vertex 2.47214 7.60845 1
      vertex 3.40623 7.23862 -1
      vertex 2.47214 7.60845 -1
    endloop
  endfacet
  facet normal -0.368122 0.929777 0
    outer loop
      vertex -2.47214 7.60845 -1
      vertex -3.40623 7.23862 1
      vertex -2.47214 7.60845 1
    endloop
  endfacet
  facet normal -0.368122 0.929777 0
    outer loop
      vertex -3.40623 7.23862 1
      vertex -2.47214 7.60845 -1
      vertex -3.40623 7.23862 -1
    endloop
  endfacet
  facet normal -0.904826 0.425782 0
    outer loop
      vertex -7.43821 2.945 -1
      vertex -7.01045 3.85403 1
      vertex -7.01045 3.85403 -1
    endloop
  endfacet
  facet normal -0.904826 0.425782 0
    outer loop
      vertex -7.01045 3.85403 1
      vertex -7.43821 2.945 -1
      vertex -7.43821 2.945 1
    endloop
  endfacet
  facet normal 0.998027 -0.0627879 0
    outer loop
      vertex 7.93692 -1.00267 1
      vertex 8 0 -1
      vertex 8 0 1
    endloop
  endfacet
  facet normal 0.998027 -0.0627879 0
    outer loop
      vertex 8 0 -1
      vertex 7.93692 -1.00267 1
      vertex 7.93692 -1.00267 -1
    endloop
  endfacet
  facet normal 0.684546 0.72897 -0
    outer loop
      vertex 5.83175 5.47638 -1
      vertex 5.09939 6.16411 1
      vertex 5.83175 5.47638 1
    endloop
  endfacet
  facet normal 0.684546 0.72897 0
    outer loop
      vertex 5.09939 6.16411 1
      vertex 5.83175 5.47638 -1
      vertex 5.09939 6.16411 -1
    endloop
  endfacet
  facet normal 0.125328 0.992115 -0
    outer loop
      vertex 1.49905 7.8583 -1
      vertex 0.502324 7.98421 1
      vertex 1.49905 7.8583 1
    endloop
  endfacet
  facet normal 0.125328 0.992115 0
    outer loop
      vertex 0.502324 7.98421 1
      vertex 1.49905 7.8583 -1
      vertex 0.502324 7.98421 -1
    endloop
  endfacet
  facet normal 0.481759 0.876304 -0
    outer loop
      vertex 4.28661 6.75462 -1
      vertex 3.40623 7.23862 1
      vertex 4.28661 6.75462 1
    endloop
  endfacet
  facet normal 0.481759 0.876304 0
    outer loop
      vertex 3.40623 7.23862 1
      vertex 4.28661 6.75462 -1
      vertex 3.40623 7.23862 -1
    endloop
  endfacet
  facet normal -0.998027 0.0627879 0
    outer loop
      vertex -8 0 -1
      vertex -7.93692 1.00267 1
      vertex -7.93692 1.00267 -1
    endloop
  endfacet
  facet normal -0.998027 0.0627879 0
    outer loop
      vertex -7.93692 1.00267 1
      vertex -8 0 -1
      vertex -8 0 1
    endloop
  endfacet
  facet normal -0.770514 0.637423 0
    outer loop
      vertex -6.47214 4.70228 -1
      vertex -5.83175 5.47638 1
      vertex -5.83175 5.47638 -1
    endloop
  endfacet
  facet normal -0.770514 0.637423 0
    outer loop
      vertex -5.83175 5.47638 1
      vertex -6.47214 4.70228 -1
      vertex -6.47214 4.70228 1
    endloop
  endfacet
  facet normal -0.248693 0.968582 0
    outer loop
      vertex -1.49905 7.8583 -1
      vertex -2.47214 7.60845 1
      vertex -1.49905 7.8583 1
    endloop
  endfacet
  facet normal -0.248693 0.968582 0
    outer loop
      vertex -2.47214 7.60845 1
      vertex -1.49905 7.8583 -1
      vertex -2.47214 7.60845 -1
    endloop
  endfacet
  facet normal -0.684546 0.72897 0
    outer loop
      vertex -5.09939 6.16411 -1
      vertex -5.83175 5.47638 1
      vertex -5.09939 6.16411 1
    endloop
  endfacet
  facet normal -0.684546 0.72897 0
    outer loop
      vertex -5.83175 5.47638 1
      vertex -5.09939 6.16411 -1
      vertex -5.83175 5.47638 -1
    endloop
  endfacet
  facet normal 0.904826 -0.425782 0
    outer loop
      vertex 7.01045 -3.85403 1
      vertex 7.43821 -2.945 -1
      vertex 7.43821 -2.945 1
    endloop
  endfacet
  facet normal 0.904826 -0.425782 0
    outer loop
      vertex 7.43821 -2.945 -1
      vertex 7.01045 -3.85403 1
      vertex 7.01045 -3.85403 -1
    endloop
  endfacet
  facet normal -0.684546 -0.72897 0
    outer loop
      vertex -5.83175 -5.47638 -1
      vertex -5.09939 -6.16411 1
      vertex -5.83175 -5.47638 1
    endloop
  endfacet
  facet normal -0.684546 -0.72897 -0
    outer loop
      vertex -5.09939 -6.16411 1
      vertex -5.83175 -5.47638 -1
      vertex -5.09939 -6.16411 -1
    endloop
  endfacet
  facet normal -0.904826 -0.425782 0
    outer loop
      vertex -7.01045 -3.85403 -1
      vertex -7.43821 -2.945 1
      vertex -7.43821 -2.945 -1
    endloop
  endfacet
  facet normal -0.904826 -0.425782 0
    outer loop
      vertex -7.43821 -2.945 1
      vertex -7.01045 -3.85403 -1
      vertex -7.01045 -3.85403 1
    endloop
  endfacet
  facet normal 0.481759 -0.876304 0
    outer loop
      vertex 3.40623 -7.23862 -1
      vertex 4.28661 -6.75462 1
      vertex 3.40623 -7.23862 1
    endloop
  endfacet
  facet normal 0.481759 -0.876304 0
    outer loop
      vertex 4.28661 -6.75462 1
      vertex 3.40623 -7.23862 -1
      vertex 4.28661 -6.75462 -1
    endloop
  endfacet
  facet normal 0.951058 0.309013 0
    outer loop
      vertex 7.74866 1.98952 1
      vertex 7.43821 2.945 -1
      vertex 7.43821 2.945 1
    endloop
  endfacet
  facet normal 0.951058 0.309013 0
    outer loop
      vertex 7.43821 2.945 -1
      vertex 7.74866 1.98952 1
      vertex 7.74866 1.98952 -1
    endloop
  endfacet
  facet normal 0.770514 0.637423 0
    outer loop
      vertex 6.47214 4.70228 1
      vertex 5.83175 5.47638 -1
      vertex 5.83175 5.47638 1
    endloop
  endfacet
  facet normal 0.770514 0.637423 0
    outer loop
      vertex 5.83175 5.47638 -1
      vertex 6.47214 4.70228 1
      vertex 6.47214 4.70228 -1
    endloop
  endfacet
  facet normal 0 1 -0
    outer loop
      vertex 0.502324 7.98421 -1
      vertex -0.502324 7.98421 1
      vertex 0.502324 7.98421 1
    endloop
  endfacet
  facet normal 0 1 0
    outer loop
      vertex -0.502324 7.98421 1
      vertex 0.502324 7.98421 -1
      vertex -0.502324 7.98421 -1
    endloop
  endfacet
  facet normal 0.587779 0.809021 -0
    outer loop
      vertex 5.09939 6.16411 -1
      vertex 4.28661 6.75462 1
      vertex 5.09939 6.16411 1
    endloop
  endfacet
  facet normal 0.587779 0.809021 0
    outer loop
      vertex 4.28661 6.75462 1
      vertex 5.09939 6.16411 -1
      vertex 4.28661 6.75462 -1
    endloop
  endfacet
  facet normal 0 0 1
    outer loop
      vertex 7 0 1
      vertex 8 0 1
      vertex 7.93692 1.00267 1
    endloop
  endfacet
  facet normal 0 0 1
    outer loop
      vertex 6.9448 0.877332 1
      vertex 7.93692 1.00267 1
      vertex 7.74866 1.98952 1
    endloop
  endfacet
  facet normal 0 0 1
    outer loop
      vertex 8 0 1
      vertex 7 0 1
      vertex 7.93692 -1.00267 1
    endloop
  endfacet
  facet normal 0 0 1
    outer loop
      vertex 6.78008 1.74083 1
      vertex 7.74866 1.98952 1
      vertex 7.43821 2.945 1
    endloop
  endfacet
  facet normal -0 0 1
    outer loop
      vertex 6.9448 -0.877332 1
      vertex 7.93692 -1.00267 1
      vertex 7 0 1
    endloop
  endfacet
  facet normal 0 0 1
    outer loop
      vertex 6.50844 2.57687 1
      vertex 7.43821 2.945 1
      vertex 7.01045 3.85403 1
    endloop
  endfacet
  facet normal 0 0 1
    outer loop
      vertex 7.93692 -1.00267 1
      vertex 6.9448 -0.877332 1
      vertex 7.74866 -1.98952 1
    endloop
  endfacet
  facet normal -0 0 1
    outer loop
      vertex 6.78008 -1.74083 1
      vertex 7.74866 -1.98952 1
      vertex 6.9448 -0.877332 1
    endloop
  endfacet
  facet normal 0 0 1
    outer loop
      vertex 7.93692 1.00267 1
      vertex 6.9448 0.877332 1
      vertex 7 0 1
    endloop
  endfacet
  facet normal 0 0 1
    outer loop
      vertex 7.74866 1.98952 1
      vertex 6.78008 1.74083 1
      vertex 6.9448 0.877332 1
    endloop
  endfacet
  facet normal 0 0 1
    outer loop
      vertex 7.43821 2.945 1
      vertex 6.50844 2.57687 1
      vertex 6.78008 1.74083 1
    endloop
  endfacet
  facet normal 0 0 1
    outer loop
      vertex 6.13415 3.37228 1
      vertex 7.01045 3.85403 1
      vertex 6.47214 4.70228 1
    endloop
  endfacet
  facet normal 0 0 1
    outer loop
      vertex 7.01045 3.85403 1
      vertex 6.13415 3.37228 1
      vertex 6.50844 2.57687 1
    endloop
  endfacet
  facet normal 0 0 1
    outer loop
      vertex 5.66312 4.1145 1
      vertex 6.47214 4.70228 1
      vertex 5.83175 5.47638 1
    endloop
  endfacet
  facet normal 0 0 1
    outer loop
      vertex 6.47214 4.70228 1
      vertex 5.66312 4.1145 1
      vertex 6.13415 3.37228 1
    endloop
  endfacet
  facet normal 0 0 1
    outer loop
      vertex 5.83175 5.47638 1
      vertex 5.10278 4.79183 1
      vertex 5.66312 4.1145 1
    endloop
  endfacet
  facet normal 0 0 1
    outer loop
      vertex 5.09939 6.16411 1
      vertex 5.10278 4.79183 1
      vertex 5.83175 5.47638 1
    endloop
  endfacet
  facet normal 0 0 1
    outer loop
      vertex 5.09939 6.16411 1
      vertex 4.46197 5.39359 1
      vertex 5.10278 4.79183 1
    endloop
  endfacet
  facet normal 0 0 1
    outer loop
      vertex 4.28661 6.75462 1
      vertex 4.46197 5.39359 1
      vertex 5.09939 6.16411 1
    endloop
  endfacet
  facet normal 0 0 1
    outer loop
      vertex 4.28661 6.75462 1
      vertex 3.75079 5.91029 1
      vertex 4.46197 5.39359 1
    endloop
  endfacet
  facet normal 0 0 1
    outer loop
      vertex 3.40623 7.23862 1
      vertex 3.75079 5.91029 1
      vertex 4.28661 6.75462 1
    endloop
  endfacet
  facet normal 0 0 1
    outer loop
      vertex 3.40623 7.23862 1
      vertex 2.98045 6.33379 1
      vertex 3.75079 5.91029 1
    endloop
  endfacet
  facet normal 0 0 1
    outer loop
      vertex 2.47214 7.60845 1
      vertex 2.98045 6.33379 1
      vertex 3.40623 7.23862 1
    endloop
  endfacet
  facet normal 0 0 1
    outer loop
      vertex 2.47214 7.60845 1
      vertex 2.16312 6.6574 1
      vertex 2.98045 6.33379 1
    endloop
  endfacet
  facet normal 0 0 1
    outer loop
      vertex 1.49905 7.8583 1
      vertex 2.16312 6.6574 1
      vertex 2.47214 7.60845 1
    endloop
  endfacet
  facet normal 0 0 1
    outer loop
      vertex 1.49905 7.8583 1
      vertex 1.31167 6.87601 1
      vertex 2.16312 6.6574 1
    endloop
  endfacet
  facet normal 0 0 1
    outer loop
      vertex 0.502324 7.98421 1
      vertex 1.31167 6.87601 1
      vertex 1.49905 7.8583 1
    endloop
  endfacet
  facet normal 0 0 1
    outer loop
      vertex 0.502324 7.98421 1
      vertex 0.439533 6.98619 1
      vertex 1.31167 6.87601 1
    endloop
  endfacet
  facet normal 0 0 1
    outer loop
      vertex 0.502324 7.98421 1
      vertex -0.439533 6.98619 1
      vertex 0.439533 6.98619 1
    endloop
  endfacet
  facet normal -0 0 1
    outer loop
      vertex -0.502324 7.98421 1
      vertex -0.439533 6.98619 1
      vertex 0.502324 7.98421 1
    endloop
  endfacet
  facet normal 0 0 1
    outer loop
      vertex -0.502324 7.98421 1
      vertex -1.31167 6.87601 1
      vertex -0.439533 6.98619 1
    endloop
  endfacet
  facet normal -0 0 1
    outer loop
      vertex -1.49905 7.8583 1
      vertex -1.31167 6.87601 1
      vertex -0.502324 7.98421 1
    endloop
  endfacet
  facet normal 0 0 1
    outer loop
      vertex -1.49905 7.8583 1
      vertex -2.16312 6.6574 1
      vertex -1.31167 6.87601 1
    endloop
  endfacet
  facet normal -0 0 1
    outer loop
      vertex -2.47214 7.60845 1
      vertex -2.16312 6.6574 1
      vertex -1.49905 7.8583 1
    endloop
  endfacet
  facet normal 0 0 1
    outer loop
      vertex -2.47214 7.60845 1
      vertex -2.98045 6.33379 1
      vertex -2.16312 6.6574 1
    endloop
  endfacet
  facet normal -0 0 1
    outer loop
      vertex -3.40623 7.23862 1
      vertex -2.98045 6.33379 1
      vertex -2.47214 7.60845 1
    endloop
  endfacet
  facet normal 0 0 1
    outer loop
      vertex -3.40623 7.23862 1
      vertex -3.75079 5.91029 1
      vertex -2.98045 6.33379 1
    endloop
  endfacet
  facet normal -0 0 1
    outer loop
      vertex -4.28661 6.75462 1
      vertex -3.75079 5.91029 1
      vertex -3.40623 7.23862 1
    endloop
  endfacet
  facet normal 0 0 1
    outer loop
      vertex -4.28661 6.75462 1
      vertex -4.46197 5.39359 1
      vertex -3.75079 5.91029 1
    endloop
  endfacet
  facet normal -0 0 1
    outer loop
      vertex -5.09939 6.16411 1
      vertex -4.46197 5.39359 1
      vertex -4.28661 6.75462 1
    endloop
  endfacet
  facet normal 0 0 1
    outer loop
      vertex -5.09939 6.16411 1
      vertex -5.10278 4.79183 1
      vertex -4.46197 5.39359 1
    endloop
  endfacet
  facet normal -0 0 1
    outer loop
      vertex -5.83175 5.47638 1
      vertex -5.10278 4.79183 1
      vertex -5.09939 6.16411 1
    endloop
  endfacet
  facet normal 0 0 1
    outer loop
      vertex -5.10278 4.79183 1
      vertex -5.83175 5.47638 1
      vertex -5.66312 4.1145 1
    endloop
  endfacet
  facet normal -0 0 1
    outer loop
      vertex -6.47214 4.70228 1
      vertex -5.66312 4.1145 1
      vertex -5.83175 5.47638 1
    endloop
  endfacet
  facet normal 0 0 1
    outer loop
      vertex -5.66312 4.1145 1
      vertex -6.47214 4.70228 1
      vertex -6.13415 3.37228 1
    endloop
  endfacet
  facet normal -0 0 1
    outer loop
      vertex -7.01045 3.85403 1
      vertex -6.13415 3.37228 1
      vertex -6.47214 4.70228 1
    endloop
  endfacet
  facet normal 0 0 1
    outer loop
      vertex -6.13415 3.37228 1
      vertex -7.01045 3.85403 1
      vertex -6.50844 2.57687 1
    endloop
  endfacet
  facet normal -0 0 1
    outer loop
      vertex -7.43821 2.945 1
      vertex -6.50844 2.57687 1
      vertex -7.01045 3.85403 1
    endloop
  endfacet
  facet normal -0 0 1
    outer loop
      vertex -7.74866 1.98952 1
      vertex -6.78008 1.74083 1
      vertex -7.43821 2.945 1
    endloop
  endfacet
  facet normal 0 0 1
    outer loop
      vertex -6.50844 2.57687 1
      vertex -7.43821 2.945 1
      vertex -6.78008 1.74083 1
    endloop
  endfacet
  facet normal 0 0 1
    outer loop
      vertex 7.74866 -1.98952 1
      vertex 6.78008 -1.74083 1
      vertex 7.43821 -2.945 1
    endloop
  endfacet
  facet normal -0 0 1
    outer loop
      vertex 6.50844 -2.57687 1
      vertex 7.43821 -2.945 1
      vertex 6.78008 -1.74083 1
    endloop
  endfacet
  facet normal 0 0 1
    outer loop
      vertex 7.43821 -2.945 1
      vertex 6.50844 -2.57687 1
      vertex 7.01045 -3.85403 1
    endloop
  endfacet
  facet normal -0 0 1
    outer loop
      vertex 6.13415 -3.37228 1
      vertex 7.01045 -3.85403 1
      vertex 6.50844 -2.57687 1
    endloop
  endfacet
  facet normal 0 0 1
    outer loop
      vertex 7.01045 -3.85403 1
      vertex 6.13415 -3.37228 1
      vertex 6.47214 -4.70228 1
    endloop
  endfacet
  facet normal -0 0 1
    outer loop
      vertex 5.66312 -4.1145 1
      vertex 6.47214 -4.70228 1
      vertex 6.13415 -3.37228 1
    endloop
  endfacet
  facet normal 0 0 1
    outer loop
      vertex 6.47214 -4.70228 1
      vertex 5.66312 -4.1145 1
      vertex 5.83175 -5.47638 1
    endloop
  endfacet
  facet normal -0 0 1
    outer loop
      vertex 5.10278 -4.79183 1
      vertex 5.83175 -5.47638 1
      vertex 5.66312 -4.1145 1
    endloop
  endfacet
  facet normal 0 0 1
    outer loop
      vertex 5.10278 -4.79183 1
      vertex 5.09939 -6.16411 1
      vertex 5.83175 -5.47638 1
    endloop
  endfacet
  facet normal -0 0 1
    outer loop
      vertex 4.46197 -5.39359 1
      vertex 5.09939 -6.16411 1
      vertex 5.10278 -4.79183 1
    endloop
  endfacet
  facet normal 0 0 1
    outer loop
      vertex 4.46197 -5.39359 1
      vertex 4.28661 -6.75462 1
      vertex 5.09939 -6.16411 1
    endloop
  endfacet
  facet normal -0 0 1
    outer loop
      vertex 3.75079 -5.91029 1
      vertex 4.28661 -6.75462 1
      vertex 4.46197 -5.39359 1
    endloop
  endfacet
  facet normal 0 0 1
    outer loop
      vertex 3.75079 -5.91029 1
      vertex 3.40623 -7.23862 1
      vertex 4.28661 -6.75462 1
    endloop
  endfacet
  facet normal -0 0 1
    outer loop
      vertex 2.98045 -6.33379 1
      vertex 3.40623 -7.23862 1
      vertex 3.75079 -5.91029 1
    endloop
  endfacet
  facet normal 0 0 1
    outer loop
      vertex 2.98045 -6.33379 1
      vertex 2.47214 -7.60845 1
      vertex 3.40623 -7.23862 1
    endloop
  endfacet
  facet normal -0 0 1
    outer loop
      vertex 2.16312 -6.6574 1
      vertex 2.47214 -7.60845 1
      vertex 2.98045 -6.33379 1
    endloop
  endfacet
  facet normal 0 0 1
    outer loop
      vertex 2.16312 -6.6574 1
      vertex 1.49905 -7.8583 1
      vertex 2.47214 -7.60845 1
    endloop
  endfacet
  facet normal -0 0 1
    outer loop
      vertex 1.31167 -6.87601 1
      vertex 1.49905 -7.8583 1
      vertex 2.16312 -6.6574 1
    endloop
  endfacet
  facet normal 0 0 1
    outer loop
      vertex 1.31167 -6.87601 1
      vertex 0.502324 -7.98421 1
      vertex 1.49905 -7.8583 1
    endloop
  endfacet
  facet normal -0 0 1
    outer loop
      vertex 0.439533 -6.98619 1
      vertex 0.502324 -7.98421 1
      vertex 1.31167 -6.87601 1
    endloop
  endfacet
  facet normal -0 0 1
    outer loop
      vertex -0.439533 -6.98619 1
      vertex 0.502324 -7.98421 1
      vertex 0.439533 -6.98619 1
    endloop
  endfacet
  facet normal 0 0 1
    outer loop
      vertex -0.439533 -6.98619 1
      vertex -0.502324 -7.98421 1
      vertex 0.502324 -7.98421 1
    endloop
  endfacet
  facet normal 0 0 1
    outer loop
      vertex -1.31167 -6.87601 1
      vertex -0.502324 -7.98421 1
      vertex -0.439533 -6.98619 1
    endloop
  endfacet
  facet normal 0 0 1
    outer loop
      vertex -1.31167 -6.87601 1
      vertex -1.49905 -7.8583 1
      vertex -0.502324 -7.98421 1
    endloop
  endfacet
  facet normal 0 0 1
    outer loop
      vertex -2.16312 -6.6574 1
      vertex -1.49905 -7.8583 1
      vertex -1.31167 -6.87601 1
    endloop
  endfacet
  facet normal 0 0 1
    outer loop
      vertex -2.16312 -6.6574 1
      vertex -2.47214 -7.60845 1
      vertex -1.49905 -7.8583 1
    endloop
  endfacet
  facet normal 0 0 1
    outer loop
      vertex -2.98045 -6.33379 1
      vertex -2.47214 -7.60845 1
      vertex -2.16312 -6.6574 1
    endloop
  endfacet
  facet normal 0 0 1
    outer loop
      vertex -2.98045 -6.33379 1
      vertex -3.40623 -7.23862 1
      vertex -2.47214 -7.60845 1
    endloop
  endfacet
  facet normal 0 0 1
    outer loop
      vertex -3.75079 -5.91029 1
      vertex -3.40623 -7.23862 1
      vertex -2.98045 -6.33379 1
    endloop
  endfacet
  facet normal 0 0 1
    outer loop
      vertex -3.75079 -5.91029 1
      vertex -4.28661 -6.75462 1
      vertex -3.40623 -7.23862 1
    endloop
  endfacet
  facet normal 0 0 1
    outer loop
      vertex -4.46197 -5.39359 1
      vertex -4.28661 -6.75462 1
      vertex -3.75079 -5.91029 1
    endloop
  endfacet
  facet normal 0 0 1
    outer loop
      vertex -4.46197 -5.39359 1
      vertex -5.09939 -6.16411 1
      vertex -4.28661 -6.75462 1
    endloop
  endfacet
  facet normal 0 0 1
    outer loop
      vertex -5.10278 -4.79183 1
      vertex -5.09939 -6.16411 1
      vertex -4.46197 -5.39359 1
    endloop
  endfacet
  facet normal 0 0 1
    outer loop
      vertex -5.83175 -5.47638 1
      vertex -5.10278 -4.79183 1
      vertex -5.66312 -4.1145 1
    endloop
  endfacet
  facet normal 0 0 1
    outer loop
      vertex -5.10278 -4.79183 1
      vertex -5.83175 -5.47638 1
      vertex -5.09939 -6.16411 1
    endloop
  endfacet
  facet normal 0 0 1
    outer loop
      vertex -6.47214 -4.70228 1
      vertex -5.66312 -4.1145 1
      vertex -6.13415 -3.37228 1
    endloop
  endfacet
  facet normal 0 0 1
    outer loop
      vertex -5.66312 -4.1145 1
      vertex -6.47214 -4.70228 1
      vertex -5.83175 -5.47638 1
    endloop
  endfacet
  facet normal 0 0 1
    outer loop
      vertex -7.01045 -3.85403 1
      vertex -6.13415 -3.37228 1
      vertex -6.50844 -2.57687 1
    endloop
  endfacet
  facet normal 0 0 1
    outer loop
      vertex -7.43821 -2.945 1
      vertex -6.50844 -2.57687 1
      vertex -6.78008 -1.74083 1
    endloop
  endfacet
  facet normal 0 0 1
    outer loop
      vertex -7.74866 -1.98952 1
      vertex -6.78008 -1.74083 1
      vertex -6.9448 -0.877332 1
    endloop
  endfacet
  facet normal 0 0 1
    outer loop
      vertex -6.13415 -3.37228 1
      vertex -7.01045 -3.85403 1
      vertex -6.47214 -4.70228 1
    endloop
  endfacet
  facet normal 0 0 1
    outer loop
      vertex -7.93692 -1.00267 1
      vertex -6.9448 -0.877332 1
      vertex -7 0 1
    endloop
  endfacet
  facet normal 0 0 1
    outer loop
      vertex -6.78008 1.74083 1
      vertex -7.74866 1.98952 1
      vertex -6.9448 0.877332 1
    endloop
  endfacet
  facet normal -0 0 1
    outer loop
      vertex -7.93692 1.00267 1
      vertex -6.9448 0.877332 1
      vertex -7.74866 1.98952 1
    endloop
  endfacet
  facet normal 0 0 1
    outer loop
      vertex -6.50844 -2.57687 1
      vertex -7.43821 -2.945 1
      vertex -7.01045 -3.85403 1
    endloop
  endfacet
  facet normal 0 0 1
    outer loop
      vertex -6.9448 0.877332 1
      vertex -7.93692 1.00267 1
      vertex -7 0 1
    endloop
  endfacet
  facet normal 0 0 1
    outer loop
      vertex -6.78008 -1.74083 1
      vertex -7.74866 -1.98952 1
      vertex -7.43821 -2.945 1
    endloop
  endfacet
  facet normal 0 0 1
    outer loop
      vertex -8 0 1
      vertex -7 0 1
      vertex -7.93692 1.00267 1
    endloop
  endfacet
  facet normal 0 0 1
    outer loop
      vertex -6.9448 -0.877332 1
      vertex -7.93692 -1.00267 1
      vertex -7.74866 -1.98952 1
    endloop
  endfacet
  facet normal 0 0 1
    outer loop
      vertex -7 0 1
      vertex -8 0 1
      vertex -7.93692 -1.00267 1
    endloop
  endfacet
  facet normal -0.951058 0.309013 0
    outer loop
      vertex -7.74866 1.98952 -1
      vertex -7.43821 2.945 1
      vertex -7.43821 2.945 -1
    endloop
  endfacet
  facet normal -0.951058 0.309013 0
    outer loop
      vertex -7.43821 2.945 1
      vertex -7.74866 1.98952 -1
      vertex -7.74866 1.98952 1
    endloop
  endfacet
  facet normal -0.982286 0.187389 0
    outer loop
      vertex -7.93692 1.00267 -1
      vertex -7.74866 1.98952 1
      vertex -7.74866 1.98952 -1
    endloop
  endfacet
  facet normal -0.982286 0.187389 0
    outer loop
      vertex -7.74866 1.98952 1
      vertex -7.93692 1.00267 -1
      vertex -7.93692 1.00267 1
    endloop
  endfacet
  facet normal -0.844331 0.535823 0
    outer loop
      vertex -7.01045 3.85403 -1
      vertex -6.47214 4.70228 1
      vertex -6.47214 4.70228 -1
    endloop
  endfacet
  facet normal -0.844331 0.535823 0
    outer loop
      vertex -6.47214 4.70228 1
      vertex -7.01045 3.85403 -1
      vertex -7.01045 3.85403 1
    endloop
  endfacet
  facet normal -0.125328 0.992115 0
    outer loop
      vertex -0.502324 7.98421 -1
      vertex -1.49905 7.8583 1
      vertex -0.502324 7.98421 1
    endloop
  endfacet
  facet normal -0.125328 0.992115 0
    outer loop
      vertex -1.49905 7.8583 1
      vertex -0.502324 7.98421 -1
      vertex -1.49905 7.8583 -1
    endloop
  endfacet
  facet normal -0.587779 0.809021 0
    outer loop
      vertex -4.28661 6.75462 -1
      vertex -5.09939 6.16411 1
      vertex -4.28661 6.75462 1
    endloop
  endfacet
  facet normal -0.587779 0.809021 0
    outer loop
      vertex -5.09939 6.16411 1
      vertex -4.28661 6.75462 -1
      vertex -5.09939 6.16411 -1
    endloop
  endfacet
  facet normal -0.481759 0.876304 0
    outer loop
      vertex -3.40623 7.23862 -1
      vertex -4.28661 6.75462 1
      vertex -3.40623 7.23862 1
    endloop
  endfacet
  facet normal -0.481759 0.876304 0
    outer loop
      vertex -4.28661 6.75462 1
      vertex -3.40623 7.23862 -1
      vertex -4.28661 6.75462 -1
    endloop
  endfacet
  facet normal 0.998027 0.0627879 0
    outer loop
      vertex 8 0 1
      vertex 7.93692 1.00267 -1
      vertex 7.93692 1.00267 1
    endloop
  endfacet
  facet normal 0.998027 0.0627879 0
    outer loop
      vertex 7.93692 1.00267 -1
      vertex 8 0 1
      vertex 8 0 -1
    endloop
  endfacet
  facet normal 0.951058 -0.309013 0
    outer loop
      vertex 7.43821 -2.945 1
      vertex 7.74866 -1.98952 -1
      vertex 7.74866 -1.98952 1
    endloop
  endfacet
  facet normal 0.951058 -0.309013 0
    outer loop
      vertex 7.74866 -1.98952 -1
      vertex 7.43821 -2.945 1
      vertex 7.43821 -2.945 -1
    endloop
  endfacet
  facet normal 0.770514 -0.637423 0
    outer loop
      vertex 5.83175 -5.47638 1
      vertex 6.47214 -4.70228 -1
      vertex 6.47214 -4.70228 1
    endloop
  endfacet
  facet normal 0.770514 -0.637423 0
    outer loop
      vertex 6.47214 -4.70228 -1
      vertex 5.83175 -5.47638 1
      vertex 5.83175 -5.47638 -1
    endloop
  endfacet
  facet normal 0 -1 0
    outer loop
      vertex -0.502324 -7.98421 -1
      vertex 0.502324 -7.98421 1
      vertex -0.502324 -7.98421 1
    endloop
  endfacet
  facet normal 0 -1 -0
    outer loop
      vertex 0.502324 -7.98421 1
      vertex -0.502324 -7.98421 -1
      vertex 0.502324 -7.98421 -1
    endloop
  endfacet
  facet normal 0 0 -1
    outer loop
      vertex 7 0 -1
      vertex 8 0 -1
      vertex 7.93692 -1.00267 -1
    endloop
  endfacet
  facet normal 0 0 -1
    outer loop
      vertex 6.9448 -0.877332 -1
      vertex 7.93692 -1.00267 -1
      vertex 7.74866 -1.98952 -1
    endloop
  endfacet
  facet normal 0 0 -1
    outer loop
      vertex 8 0 -1
      vertex 7 0 -1
      vertex 7.93692 1.00267 -1
    endloop
  endfacet
  facet normal 0 0 -1
    outer loop
      vertex 6.78008 -1.74083 -1
      vertex 7.74866 -1.98952 -1
      vertex 7.43821 -2.945 -1
    endloop
  endfacet
  facet normal 0 0 -1
    outer loop
      vertex 6.9448 0.877332 -1
      vertex 7.93692 1.00267 -1
      vertex 7 0 -1
    endloop
  endfacet
  facet normal 0 0 -1
    outer loop
      vertex 6.50844 -2.57687 -1
      vertex 7.43821 -2.945 -1
      vertex 7.01045 -3.85403 -1
    endloop
  endfacet
  facet normal -0 0 -1
    outer loop
      vertex 7.93692 1.00267 -1
      vertex 6.9448 0.877332 -1
      vertex 7.74866 1.98952 -1
    endloop
  endfacet
  facet normal 0 0 -1
    outer loop
      vertex 6.78008 1.74083 -1
      vertex 7.74866 1.98952 -1
      vertex 6.9448 0.877332 -1
    endloop
  endfacet
  facet normal 0 0 -1
    outer loop
      vertex 7.93692 -1.00267 -1
      vertex 6.9448 -0.877332 -1
      vertex 7 0 -1
    endloop
  endfacet
  facet normal 0 0 -1
    outer loop
      vertex 7.74866 -1.98952 -1
      vertex 6.78008 -1.74083 -1
      vertex 6.9448 -0.877332 -1
    endloop
  endfacet
  facet normal 0 0 -1
    outer loop
      vertex 7.43821 -2.945 -1
      vertex 6.50844 -2.57687 -1
      vertex 6.78008 -1.74083 -1
    endloop
  endfacet
  facet normal 0 0 -1
    outer loop
      vertex 6.13415 -3.37228 -1
      vertex 7.01045 -3.85403 -1
      vertex 6.47214 -4.70228 -1
    endloop
  endfacet
  facet normal 0 0 -1
    outer loop
      vertex 7.01045 -3.85403 -1
      vertex 6.13415 -3.37228 -1
      vertex 6.50844 -2.57687 -1
    endloop
  endfacet
  facet normal 0 0 -1
    outer loop
      vertex 5.66312 -4.1145 -1
      vertex 6.47214 -4.70228 -1
      vertex 5.83175 -5.47638 -1
    endloop
  endfacet
  facet normal 0 0 -1
    outer loop
      vertex 6.47214 -4.70228 -1
      vertex 5.66312 -4.1145 -1
      vertex 6.13415 -3.37228 -1
    endloop
  endfacet
  facet normal 0 0 -1
    outer loop
      vertex 5.83175 -5.47638 -1
      vertex 5.10278 -4.79183 -1
      vertex 5.66312 -4.1145 -1
    endloop
  endfacet
  facet normal 0 0 -1
    outer loop
      vertex 5.09939 -6.16411 -1
      vertex 5.10278 -4.79183 -1
      vertex 5.83175 -5.47638 -1
    endloop
  endfacet
  facet normal 0 0 -1
    outer loop
      vertex 5.09939 -6.16411 -1
      vertex 4.46197 -5.39359 -1
      vertex 5.10278 -4.79183 -1
    endloop
  endfacet
  facet normal 0 0 -1
    outer loop
      vertex 4.28661 -6.75462 -1
      vertex 4.46197 -5.39359 -1
      vertex 5.09939 -6.16411 -1
    endloop
  endfacet
  facet normal 0 0 -1
    outer loop
      vertex 4.28661 -6.75462 -1
      vertex 3.75079 -5.91029 -1
      vertex 4.46197 -5.39359 -1
    endloop
  endfacet
  facet normal 0 0 -1
    outer loop
      vertex 3.40623 -7.23862 -1
      vertex 3.75079 -5.91029 -1
      vertex 4.28661 -6.75462 -1
    endloop
  endfacet
  facet normal 0 0 -1
    outer loop
      vertex 3.40623 -7.23862 -1
      vertex 2.98045 -6.33379 -1
      vertex 3.75079 -5.91029 -1
    endloop
  endfacet
  facet normal 0 0 -1
    outer loop
      vertex 2.47214 -7.60845 -1
      vertex 2.98045 -6.33379 -1
      vertex 3.40623 -7.23862 -1
    endloop
  endfacet
  facet normal 0 0 -1
    outer loop
      vertex 2.47214 -7.60845 -1
      vertex 2.16312 -6.6574 -1
      vertex 2.98045 -6.33379 -1
    endloop
  endfacet
  facet normal 0 0 -1
    outer loop
      vertex 1.49905 -7.8583 -1
      vertex 2.16312 -6.6574 -1
      vertex 2.47214 -7.60845 -1
    endloop
  endfacet
  facet normal 0 0 -1
    outer loop
      vertex 1.49905 -7.8583 -1
      vertex 1.31167 -6.87601 -1
      vertex 2.16312 -6.6574 -1
    endloop
  endfacet
  facet normal 0 0 -1
    outer loop
      vertex 0.502324 -7.98421 -1
      vertex 1.31167 -6.87601 -1
      vertex 1.49905 -7.8583 -1
    endloop
  endfacet
  facet normal 0 0 -1
    outer loop
      vertex 0.502324 -7.98421 -1
      vertex 0.439533 -6.98619 -1
      vertex 1.31167 -6.87601 -1
    endloop
  endfacet
  facet normal 0 0 -1
    outer loop
      vertex 0.502324 -7.98421 -1
      vertex -0.439533 -6.98619 -1
      vertex 0.439533 -6.98619 -1
    endloop
  endfacet
  facet normal 0 0 -1
    outer loop
      vertex -0.502324 -7.98421 -1
      vertex -0.439533 -6.98619 -1
      vertex 0.502324 -7.98421 -1
    endloop
  endfacet
  facet normal 0 0 -1
    outer loop
      vertex -0.502324 -7.98421 -1
      vertex -1.31167 -6.87601 -1
      vertex -0.439533 -6.98619 -1
    endloop
  endfacet
  facet normal 0 0 -1
    outer loop
      vertex -1.49905 -7.8583 -1
      vertex -1.31167 -6.87601 -1
      vertex -0.502324 -7.98421 -1
    endloop
  endfacet
  facet normal 0 0 -1
    outer loop
      vertex -1.49905 -7.8583 -1
      vertex -2.16312 -6.6574 -1
      vertex -1.31167 -6.87601 -1
    endloop
  endfacet
  facet normal 0 0 -1
    outer loop
      vertex -2.47214 -7.60845 -1
      vertex -2.16312 -6.6574 -1
      vertex -1.49905 -7.8583 -1
    endloop
  endfacet
  facet normal 0 0 -1
    outer loop
      vertex -2.47214 -7.60845 -1
      vertex -2.98045 -6.33379 -1
      vertex -2.16312 -6.6574 -1
    endloop
  endfacet
  facet normal 0 0 -1
    outer loop
      vertex -3.40623 -7.23862 -1
      vertex -2.98045 -6.33379 -1
      vertex -2.47214 -7.60845 -1
    endloop
  endfacet
  facet normal 0 0 -1
    outer loop
      vertex -3.40623 -7.23862 -1
      vertex -3.75079 -5.91029 -1
      vertex -2.98045 -6.33379 -1
    endloop
  endfacet
  facet normal 0 0 -1
    outer loop
      vertex -4.28661 -6.75462 -1
      vertex -3.75079 -5.91029 -1
      vertex -3.40623 -7.23862 -1
    endloop
  endfacet
  facet normal 0 0 -1
    outer loop
      vertex -4.28661 -6.75462 -1
      vertex -4.46197 -5.39359 -1
      vertex -3.75079 -5.91029 -1
    endloop
  endfacet
  facet normal 0 0 -1
    outer loop
      vertex -5.09939 -6.16411 -1
      vertex -4.46197 -5.39359 -1
      vertex -4.28661 -6.75462 -1
    endloop
  endfacet
  facet normal 0 0 -1
    outer loop
      vertex -5.09939 -6.16411 -1
      vertex -5.10278 -4.79183 -1
      vertex -4.46197 -5.39359 -1
    endloop
  endfacet
  facet normal 0 0 -1
    outer loop
      vertex -5.83175 -5.47638 -1
      vertex -5.10278 -4.79183 -1
      vertex -5.09939 -6.16411 -1
    endloop
  endfacet
  facet normal -0 0 -1
    outer loop
      vertex -5.10278 -4.79183 -1
      vertex -5.83175 -5.47638 -1
      vertex -5.66312 -4.1145 -1
    endloop
  endfacet
  facet normal 0 0 -1
    outer loop
      vertex -6.47214 -4.70228 -1
      vertex -5.66312 -4.1145 -1
      vertex -5.83175 -5.47638 -1
    endloop
  endfacet
  facet normal -0 0 -1
    outer loop
      vertex -5.66312 -4.1145 -1
      vertex -6.47214 -4.70228 -1
      vertex -6.13415 -3.37228 -1
    endloop
  endfacet
  facet normal 0 0 -1
    outer loop
      vertex -7.01045 -3.85403 -1
      vertex -6.13415 -3.37228 -1
      vertex -6.47214 -4.70228 -1
    endloop
  endfacet
  facet normal -0 0 -1
    outer loop
      vertex -6.13415 -3.37228 -1
      vertex -7.01045 -3.85403 -1
      vertex -6.50844 -2.57687 -1
    endloop
  endfacet
  facet normal 0 0 -1
    outer loop
      vertex -7.43821 -2.945 -1
      vertex -6.50844 -2.57687 -1
      vertex -7.01045 -3.85403 -1
    endloop
  endfacet
  facet normal 0 0 -1
    outer loop
      vertex -7.74866 -1.98952 -1
      vertex -6.78008 -1.74083 -1
      vertex -7.43821 -2.945 -1
    endloop
  endfacet
  facet normal -0 0 -1
    outer loop
      vertex -6.50844 -2.57687 -1
      vertex -7.43821 -2.945 -1
      vertex -6.78008 -1.74083 -1
    endloop
  endfacet
  facet normal -0 0 -1
    outer loop
      vertex 7.74866 1.98952 -1
      vertex 6.78008 1.74083 -1
      vertex 7.43821 2.945 -1
    endloop
  endfacet
  facet normal 0 0 -1
    outer loop
      vertex 6.50844 2.57687 -1
      vertex 7.43821 2.945 -1
      vertex 6.78008 1.74083 -1
    endloop
  endfacet
  facet normal -0 0 -1
    outer loop
      vertex 7.43821 2.945 -1
      vertex 6.50844 2.57687 -1
      vertex 7.01045 3.85403 -1
    endloop
  endfacet
  facet normal 0 0 -1
    outer loop
      vertex 6.13415 3.37228 -1
      vertex 7.01045 3.85403 -1
      vertex 6.50844 2.57687 -1
    endloop
  endfacet
  facet normal -0 0 -1
    outer loop
      vertex 7.01045 3.85403 -1
      vertex 6.13415 3.37228 -1
      vertex 6.47214 4.70228 -1
    endloop
  endfacet
  facet normal 0 0 -1
    outer loop
      vertex 5.66312 4.1145 -1
      vertex 6.47214 4.70228 -1
      vertex 6.13415 3.37228 -1
    endloop
  endfacet
  facet normal -0 0 -1
    outer loop
      vertex 6.47214 4.70228 -1
      vertex 5.66312 4.1145 -1
      vertex 5.83175 5.47638 -1
    endloop
  endfacet
  facet normal 0 0 -1
    outer loop
      vertex 5.10278 4.79183 -1
      vertex 5.83175 5.47638 -1
      vertex 5.66312 4.1145 -1
    endloop
  endfacet
  facet normal 0 0 -1
    outer loop
      vertex 5.10278 4.79183 -1
      vertex 5.09939 6.16411 -1
      vertex 5.83175 5.47638 -1
    endloop
  endfacet
  facet normal 0 0 -1
    outer loop
      vertex 4.46197 5.39359 -1
      vertex 5.09939 6.16411 -1
      vertex 5.10278 4.79183 -1
    endloop
  endfacet
  facet normal 0 0 -1
    outer loop
      vertex 4.46197 5.39359 -1
      vertex 4.28661 6.75462 -1
      vertex 5.09939 6.16411 -1
    endloop
  endfacet
  facet normal 0 0 -1
    outer loop
      vertex 3.75079 5.91029 -1
      vertex 4.28661 6.75462 -1
      vertex 4.46197 5.39359 -1
    endloop
  endfacet
  facet normal 0 0 -1
    outer loop
      vertex 3.75079 5.91029 -1
      vertex 3.40623 7.23862 -1
      vertex 4.28661 6.75462 -1
    endloop
  endfacet
  facet normal 0 0 -1
    outer loop
      vertex 2.98045 6.33379 -1
      vertex 3.40623 7.23862 -1
      vertex 3.75079 5.91029 -1
    endloop
  endfacet
  facet normal 0 0 -1
    outer loop
      vertex 2.98045 6.33379 -1
      vertex 2.47214 7.60845 -1
      vertex 3.40623 7.23862 -1
    endloop
  endfacet
  facet normal 0 0 -1
    outer loop
      vertex 2.16312 6.6574 -1
      vertex 2.47214 7.60845 -1
      vertex 2.98045 6.33379 -1
    endloop
  endfacet
  facet normal 0 0 -1
    outer loop
      vertex 2.16312 6.6574 -1
      vertex 1.49905 7.8583 -1
      vertex 2.47214 7.60845 -1
    endloop
  endfacet
  facet normal 0 0 -1
    outer loop
      vertex 1.31167 6.87601 -1
      vertex 1.49905 7.8583 -1
      vertex 2.16312 6.6574 -1
    endloop
  endfacet
  facet normal 0 0 -1
    outer loop
      vertex 1.31167 6.87601 -1
      vertex 0.502324 7.98421 -1
      vertex 1.49905 7.8583 -1
    endloop
  endfacet
  facet normal 0 0 -1
    outer loop
      vertex 0.439533 6.98619 -1
      vertex 0.502324 7.98421 -1
      vertex 1.31167 6.87601 -1
    endloop
  endfacet
  facet normal 0 0 -1
    outer loop
      vertex -0.439533 6.98619 -1
      vertex 0.502324 7.98421 -1
      vertex 0.439533 6.98619 -1
    endloop
  endfacet
  facet normal 0 0 -1
    outer loop
      vertex -0.439533 6.98619 -1
      vertex -0.502324 7.98421 -1
      vertex 0.502324 7.98421 -1
    endloop
  endfacet
  facet normal 0 0 -1
    outer loop
      vertex -1.31167 6.87601 -1
      vertex -0.502324 7.98421 -1
      vertex -0.439533 6.98619 -1
    endloop
  endfacet
  facet normal 0 0 -1
    outer loop
      vertex -1.31167 6.87601 -1
      vertex -1.49905 7.8583 -1
      vertex -0.502324 7.98421 -1
    endloop
  endfacet
  facet normal 0 0 -1
    outer loop
      vertex -2.16312 6.6574 -1
      vertex -1.49905 7.8583 -1
      vertex -1.31167 6.87601 -1
    endloop
  endfacet
  facet normal 0 0 -1
    outer loop
      vertex -2.16312 6.6574 -1
      vertex -2.47214 7.60845 -1
      vertex -1.49905 7.8583 -1
    endloop
  endfacet
  facet normal 0 0 -1
    outer loop
      vertex -2.98045 6.33379 -1
      vertex -2.47214 7.60845 -1
      vertex -2.16312 6.6574 -1
    endloop
  endfacet
  facet normal 0 0 -1
    outer loop
      vertex -2.98045 6.33379 -1
      vertex -3.40623 7.23862 -1
      vertex -2.47214 7.60845 -1
    endloop
  endfacet
  facet normal 0 0 -1
    outer loop
      vertex -3.75079 5.91029 -1
      vertex -3.40623 7.23862 -1
      vertex -2.98045 6.33379 -1
    endloop
  endfacet
  facet normal 0 0 -1
    outer loop
      vertex -3.75079 5.91029 -1
      vertex -4.28661 6.75462 -1
      vertex -3.40623 7.23862 -1
    endloop
  endfacet
  facet normal 0 0 -1
    outer loop
      vertex -4.46197 5.39359 -1
      vertex -4.28661 6.75462 -1
      vertex -3.75079 5.91029 -1
    endloop
  endfacet
  facet normal 0 0 -1
    outer loop
      vertex -4.46197 5.39359 -1
      vertex -5.09939 6.16411 -1
      vertex -4.28661 6.75462 -1
    endloop
  endfacet
  facet normal 0 0 -1
    outer loop
      vertex -5.10278 4.79183 -1
      vertex -5.09939 6.16411 -1
      vertex -4.46197 5.39359 -1
    endloop
  endfacet
  facet normal 0 0 -1
    outer loop
      vertex -5.83175 5.47638 -1
      vertex -5.10278 4.79183 -1
      vertex -5.66312 4.1145 -1
    endloop
  endfacet
  facet normal 0 0 -1
    outer loop
      vertex -5.10278 4.79183 -1
      vertex -5.83175 5.47638 -1
      vertex -5.09939 6.16411 -1
    endloop
  endfacet
  facet normal 0 0 -1
    outer loop
      vertex -6.47214 4.70228 -1
      vertex -5.66312 4.1145 -1
      vertex -6.13415 3.37228 -1
    endloop
  endfacet
  facet normal 0 0 -1
    outer loop
      vertex -5.66312 4.1145 -1
      vertex -6.47214 4.70228 -1
      vertex -5.83175 5.47638 -1
    endloop
  endfacet
  facet normal 0 0 -1
    outer loop
      vertex -7.01045 3.85403 -1
      vertex -6.13415 3.37228 -1
      vertex -6.50844 2.57687 -1
    endloop
  endfacet
  facet normal 0 0 -1
    outer loop
      vertex -7.43821 2.945 -1
      vertex -6.50844 2.57687 -1
      vertex -6.78008 1.74083 -1
    endloop
  endfacet
  facet normal 0 0 -1
    outer loop
      vertex -7.74866 1.98952 -1
      vertex -6.78008 1.74083 -1
      vertex -6.9448 0.877332 -1
    endloop
  endfacet
  facet normal 0 0 -1
    outer loop
      vertex -6.13415 3.37228 -1
      vertex -7.01045 3.85403 -1
      vertex -6.47214 4.70228 -1
    endloop
  endfacet
  facet normal 0 0 -1
    outer loop
      vertex -7.93692 1.00267 -1
      vertex -6.9448 0.877332 -1
      vertex -7 0 -1
    endloop
  endfacet
  facet normal -0 0 -1
    outer loop
      vertex -6.78008 -1.74083 -1
      vertex -7.74866 -1.98952 -1
      vertex -6.9448 -0.877332 -1
    endloop
  endfacet
  facet normal 0 0 -1
    outer loop
      vertex -7.93692 -1.00267 -1
      vertex -6.9448 -0.877332 -1
      vertex -7.74866 -1.98952 -1
    endloop
  endfacet
  facet normal 0 0 -1
    outer loop
      vertex -6.50844 2.57687 -1
      vertex -7.43821 2.945 -1
      vertex -7.01045 3.85403 -1
    endloop
  endfacet
  facet normal -0 0 -1
    outer loop
      vertex -6.9448 -0.877332 -1
      vertex -7.93692 -1.00267 -1
      vertex -7 0 -1
    endloop
  endfacet
  facet normal 0 0 -1
    outer loop
      vertex -6.78008 1.74083 -1
      vertex -7.74866 1.98952 -1
      vertex -7.43821 2.945 -1
    endloop
  endfacet
  facet normal 0 0 -1
    outer loop
      vertex -8 0 -1
      vertex -7 0 -1
      vertex -7.93692 -1.00267 -1
    endloop
  endfacet
  facet normal 0 0 -1
    outer loop
      vertex -6.9448 0.877332 -1
      vertex -7.93692 1.00267 -1
      vertex -7.74866 1.98952 -1
    endloop
  endfacet
  facet normal 0 0 -1
    outer loop
      vertex -7 0 -1
      vertex -8 0 -1
      vertex -7.93692 1.00267 -1
    endloop
  endfacet
  facet normal -0.770514 -0.637423 0
    outer loop
      vertex -5.83175 -5.47638 -1
      vertex -6.47214 -4.70228 1
      vertex -6.47214 -4.70228 -1
    endloop
  endfacet
  facet normal -0.770514 -0.637423 0
    outer loop
      vertex -6.47214 -4.70228 1
      vertex -5.83175 -5.47638 -1
      vertex -5.83175 -5.47638 1
    endloop
  endfacet
  facet normal 0.125328 -0.992115 0
    outer loop
      vertex 0.502324 -7.98421 -1
      vertex 1.49905 -7.8583 1
      vertex 0.502324 -7.98421 1
    endloop
  endfacet
  facet normal 0.125328 -0.992115 0
    outer loop
      vertex 1.49905 -7.8583 1
      vertex 0.502324 -7.98421 -1
      vertex 1.49905 -7.8583 -1
    endloop
  endfacet
  facet normal 0.982286 0.187389 0
    outer loop
      vertex 7.93692 1.00267 1
      vertex 7.74866 1.98952 -1
      vertex 7.74866 1.98952 1
    endloop
  endfacet
  facet normal 0.982286 0.187389 0
    outer loop
      vertex 7.74866 1.98952 -1
      vertex 7.93692 1.00267 1
      vertex 7.93692 1.00267 -1
    endloop
  endfacet
  facet normal 0.982286 -0.187389 0
    outer loop
      vertex 7.74866 -1.98952 1
      vertex 7.93692 -1.00267 -1
      vertex 7.93692 -1.00267 1
    endloop
  endfacet
  facet normal 0.982286 -0.187389 0
    outer loop
      vertex 7.93692 -1.00267 -1
      vertex 7.74866 -1.98952 1
      vertex 7.74866 -1.98952 -1
    endloop
  endfacet
  facet normal 0.844331 -0.535823 0
    outer loop
      vertex 6.47214 -4.70228 1
      vertex 7.01045 -3.85403 -1
      vertex 7.01045 -3.85403 1
    endloop
  endfacet
  facet normal 0.844331 -0.535823 0
    outer loop
      vertex 7.01045 -3.85403 -1
      vertex 6.47214 -4.70228 1
      vertex 6.47214 -4.70228 -1
    endloop
  endfacet
  facet normal -0.248693 -0.968582 0
    outer loop
      vertex -2.47214 -7.60845 -1
      vertex -1.49905 -7.8583 1
      vertex -2.47214 -7.60845 1
    endloop
  endfacet
  facet normal -0.248693 -0.968582 -0
    outer loop
      vertex -1.49905 -7.8583 1
      vertex -2.47214 -7.60845 -1
      vertex -1.49905 -7.8583 -1
    endloop
  endfacet
  facet normal -0.951058 -0.309013 0
    outer loop
      vertex -7.43821 -2.945 -1
      vertex -7.74866 -1.98952 1
      vertex -7.74866 -1.98952 -1
    endloop
  endfacet
  facet normal -0.951058 -0.309013 0
    outer loop
      vertex -7.74866 -1.98952 1
      vertex -7.43821 -2.945 -1
      vertex -7.43821 -2.945 1
    endloop
  endfacet
  facet normal -0.982286 -0.187389 0
    outer loop
      vertex -7.74866 -1.98952 -1
      vertex -7.93692 -1.00267 1
      vertex -7.93692 -1.00267 -1
    endloop
  endfacet
  facet normal -0.982286 -0.187389 0
    outer loop
      vertex -7.93692 -1.00267 1
      vertex -7.74866 -1.98952 -1
      vertex -7.74866 -1.98952 1
    endloop
  endfacet
  facet normal -0.998027 -0.0627879 0
    outer loop
      vertex -7.93692 -1.00267 -1
      vertex -8 0 1
      vertex -8 0 -1
    endloop
  endfacet
  facet normal -0.998027 -0.0627879 0
    outer loop
      vertex -8 0 1
      vertex -7.93692 -1.00267 -1
      vertex -7.93692 -1.00267 1
    endloop
  endfacet
  facet normal 0.368122 -0.929777 0
    outer loop
      vertex 2.47214 -7.60845 -1
      vertex 3.40623 -7.23862 1
      vertex 2.47214 -7.60845 1
    endloop
  endfacet
  facet normal 0.368122 -0.929777 0
    outer loop
      vertex 3.40623 -7.23862 1
      vertex 2.47214 -7.60845 -1
      vertex 3.40623 -7.23862 -1
    endloop
  endfacet
  facet normal 0.248693 -0.968582 0
    outer loop
      vertex 1.49905 -7.8583 -1
      vertex 2.47214 -7.60845 1
      vertex 1.49905 -7.8583 1
    endloop
  endfacet
  facet normal 0.248693 -0.968582 0
    outer loop
      vertex 2.47214 -7.60845 1
      vertex 1.49905 -7.8583 -1
      vertex 2.47214 -7.60845 -1
    endloop
  endfacet
  facet normal 0.684546 -0.72897 0
    outer loop
      vertex 5.09939 -6.16411 -1
      vertex 5.83175 -5.47638 1
      vertex 5.09939 -6.16411 1
    endloop
  endfacet
  facet normal 0.684546 -0.72897 0
    outer loop
      vertex 5.83175 -5.47638 1
      vertex 5.09939 -6.16411 -1
      vertex 5.83175 -5.47638 -1
    endloop
  endfacet
  facet normal -0.481759 -0.876304 0
    outer loop
      vertex -4.28661 -6.75462 -1
      vertex -3.40623 -7.23862 1
      vertex -4.28661 -6.75462 1
    endloop
  endfacet
  facet normal -0.481759 -0.876304 -0
    outer loop
      vertex -3.40623 -7.23862 1
      vertex -4.28661 -6.75462 -1
      vertex -3.40623 -7.23862 -1
    endloop
  endfacet
  facet normal -0.125328 -0.992115 0
    outer loop
      vertex -1.49905 -7.8583 -1
      vertex -0.502324 -7.98421 1
      vertex -1.49905 -7.8583 1
    endloop
  endfacet
  facet normal -0.125328 -0.992115 -0
    outer loop
      vertex -0.502324 -7.98421 1
      vertex -1.49905 -7.8583 -1
      vertex -0.502324 -7.98421 -1
    endloop
  endfacet
  facet normal -0.844331 -0.535823 0
    outer loop
      vertex -6.47214 -4.70228 -1
      vertex -7.01045 -3.85403 1
      vertex -7.01045 -3.85403 -1
    endloop
  endfacet
  facet normal -0.844331 -0.535823 0
    outer loop
      vertex -7.01045 -3.85403 1
      vertex -6.47214 -4.70228 -1
      vertex -6.47214 -4.70228 1
    endloop
  endfacet
  facet normal 0.587779 -0.809021 0
    outer loop
      vertex 4.28661 -6.75462 -1
      vertex 5.09939 -6.16411 1
      vertex 4.28661 -6.75462 1
    endloop
  endfacet
  facet normal 0.587779 -0.809021 0
    outer loop
      vertex 5.09939 -6.16411 1
      vertex 4.28661 -6.75462 -1
      vertex 5.09939 -6.16411 -1
    endloop
  endfacet
  facet normal -0.587779 -0.809021 0
    outer loop
      vertex -5.09939 -6.16411 -1
      vertex -4.28661 -6.75462 1
      vertex -5.09939 -6.16411 1
    endloop
  endfacet
  facet normal -0.587779 -0.809021 -0
    outer loop
      vertex -4.28661 -6.75462 1
      vertex -5.09939 -6.16411 -1
      vertex -4.28661 -6.75462 -1
    endloop
  endfacet
  facet normal -0.368122 -0.929777 0
    outer loop
      vertex -3.40623 -7.23862 -1
      vertex -2.47214 -7.60845 1
      vertex -3.40623 -7.23862 1
    endloop
  endfacet
  facet normal -0.368122 -0.929777 -0
    outer loop
      vertex -2.47214 -7.60845 1
      vertex -3.40623 -7.23862 -1
      vertex -2.47214 -7.60845 -1
    endloop
  endfacet
  facet normal 0.951058 -0.309011 0
    outer loop
      vertex -6.78008 1.74083 1
      vertex -6.50844 2.57687 -1
      vertex -6.50844 2.57687 1
    endloop
  endfacet
  facet normal 0.951058 -0.309011 0
    outer loop
      vertex -6.50844 2.57687 -1
      vertex -6.78008 1.74083 1
      vertex -6.78008 1.74083 -1
    endloop
  endfacet
  facet normal -0.844326 -0.535829 0
    outer loop
      vertex 6.13415 3.37228 -1
      vertex 5.66312 4.1145 1
      vertex 5.66312 4.1145 -1
    endloop
  endfacet
  facet normal -0.844326 -0.535829 0
    outer loop
      vertex 5.66312 4.1145 1
      vertex 6.13415 3.37228 -1
      vertex 6.13415 3.37228 1
    endloop
  endfacet
  facet normal -0.368131 -0.929774 0
    outer loop
      vertex 2.16312 6.6574 -1
      vertex 2.98045 6.33379 1
      vertex 2.16312 6.6574 1
    endloop
  endfacet
  facet normal -0.368131 -0.929774 -0
    outer loop
      vertex 2.98045 6.33379 1
      vertex 2.16312 6.6574 -1
      vertex 2.98045 6.33379 -1
    endloop
  endfacet
  facet normal 0.368131 -0.929774 0
    outer loop
      vertex -2.98045 6.33379 -1
      vertex -2.16312 6.6574 1
      vertex -2.98045 6.33379 1
    endloop
  endfacet
  facet normal 0.368131 -0.929774 0
    outer loop
      vertex -2.16312 6.6574 1
      vertex -2.98045 6.33379 -1
      vertex -2.16312 6.6574 -1
    endloop
  endfacet
  facet normal 0.904828 -0.425778 0
    outer loop
      vertex -6.50844 2.57687 1
      vertex -6.13415 3.37228 -1
      vertex -6.13415 3.37228 1
    endloop
  endfacet
  facet normal 0.904828 -0.425778 0
    outer loop
      vertex -6.13415 3.37228 -1
      vertex -6.50844 2.57687 1
      vertex -6.50844 2.57687 -1
    endloop
  endfacet
  facet normal -0.998027 0.0627939 0
    outer loop
      vertex 6.9448 -0.877332 -1
      vertex 7 0 1
      vertex 7 0 -1
    endloop
  endfacet
  facet normal -0.998027 0.0627939 0
    outer loop
      vertex 7 0 1
      vertex 6.9448 -0.877332 -1
      vertex 6.9448 -0.877332 1
    endloop
  endfacet
  facet normal -0.982287 -0.18738 0
    outer loop
      vertex 6.9448 0.877332 -1
      vertex 6.78008 1.74083 1
      vertex 6.78008 1.74083 -1
    endloop
  endfacet
  facet normal -0.982287 -0.18738 0
    outer loop
      vertex 6.78008 1.74083 1
      vertex 6.9448 0.877332 -1
      vertex 6.9448 0.877332 1
    endloop
  endfacet
  facet normal -0.684547 -0.728969 0
    outer loop
      vertex 4.46197 5.39359 -1
      vertex 5.10278 4.79183 1
      vertex 4.46197 5.39359 1
    endloop
  endfacet
  facet normal -0.684547 -0.728969 -0
    outer loop
      vertex 5.10278 4.79183 1
      vertex 4.46197 5.39359 -1
      vertex 5.10278 4.79183 -1
    endloop
  endfacet
  facet normal 0 -1 0
    outer loop
      vertex -0.439533 6.98619 -1
      vertex 0.439533 6.98619 1
      vertex -0.439533 6.98619 1
    endloop
  endfacet
  facet normal 0 -1 -0
    outer loop
      vertex 0.439533 6.98619 1
      vertex -0.439533 6.98619 -1
      vertex 0.439533 6.98619 -1
    endloop
  endfacet
  facet normal -0.481755 -0.876306 0
    outer loop
      vertex 2.98045 6.33379 -1
      vertex 3.75079 5.91029 1
      vertex 2.98045 6.33379 1
    endloop
  endfacet
  facet normal -0.481755 -0.876306 -0
    outer loop
      vertex 3.75079 5.91029 1
      vertex 2.98045 6.33379 -1
      vertex 3.75079 5.91029 -1
    endloop
  endfacet
  facet normal 0.982287 -0.18738 0
    outer loop
      vertex -6.9448 0.877332 1
      vertex -6.78008 1.74083 -1
      vertex -6.78008 1.74083 1
    endloop
  endfacet
  facet normal 0.982287 -0.18738 0
    outer loop
      vertex -6.78008 1.74083 -1
      vertex -6.9448 0.877332 1
      vertex -6.9448 0.877332 -1
    endloop
  endfacet
  facet normal 0.770511 -0.637427 0
    outer loop
      vertex -5.66312 4.1145 1
      vertex -5.10278 4.79183 -1
      vertex -5.10278 4.79183 1
    endloop
  endfacet
  facet normal 0.770511 -0.637427 0
    outer loop
      vertex -5.10278 4.79183 -1
      vertex -5.66312 4.1145 1
      vertex -5.66312 4.1145 -1
    endloop
  endfacet
  facet normal 0.248684 -0.968585 0
    outer loop
      vertex -2.16312 6.6574 -1
      vertex -1.31167 6.87601 1
      vertex -2.16312 6.6574 1
    endloop
  endfacet
  facet normal 0.248684 -0.968585 0
    outer loop
      vertex -1.31167 6.87601 1
      vertex -2.16312 6.6574 -1
      vertex -1.31167 6.87601 -1
    endloop
  endfacet
  facet normal 0.684547 -0.728969 0
    outer loop
      vertex -5.10278 4.79183 -1
      vertex -4.46197 5.39359 1
      vertex -5.10278 4.79183 1
    endloop
  endfacet
  facet normal 0.684547 -0.728969 0
    outer loop
      vertex -4.46197 5.39359 1
      vertex -5.10278 4.79183 -1
      vertex -4.46197 5.39359 -1
    endloop
  endfacet
  facet normal -0.904828 0.425778 0
    outer loop
      vertex 6.13415 -3.37228 -1
      vertex 6.50844 -2.57687 1
      vertex 6.50844 -2.57687 -1
    endloop
  endfacet
  facet normal -0.904828 0.425778 0
    outer loop
      vertex 6.50844 -2.57687 1
      vertex 6.13415 -3.37228 -1
      vertex 6.13415 -3.37228 1
    endloop
  endfacet
  facet normal 0.684547 0.728969 -0
    outer loop
      vertex -4.46197 -5.39359 -1
      vertex -5.10278 -4.79183 1
      vertex -4.46197 -5.39359 1
    endloop
  endfacet
  facet normal 0.684547 0.728969 0
    outer loop
      vertex -5.10278 -4.79183 1
      vertex -4.46197 -5.39359 -1
      vertex -5.10278 -4.79183 -1
    endloop
  endfacet
  facet normal 0.904828 0.425778 0
    outer loop
      vertex -6.13415 -3.37228 1
      vertex -6.50844 -2.57687 -1
      vertex -6.50844 -2.57687 1
    endloop
  endfacet
  facet normal 0.904828 0.425778 0
    outer loop
      vertex -6.50844 -2.57687 -1
      vertex -6.13415 -3.37228 1
      vertex -6.13415 -3.37228 -1
    endloop
  endfacet
  facet normal -0.481755 0.876306 0
    outer loop
      vertex 3.75079 -5.91029 -1
      vertex 2.98045 -6.33379 1
      vertex 3.75079 -5.91029 1
    endloop
  endfacet
  facet normal -0.481755 0.876306 0
    outer loop
      vertex 2.98045 -6.33379 1
      vertex 3.75079 -5.91029 -1
      vertex 2.98045 -6.33379 -1
    endloop
  endfacet
  facet normal -0.770511 -0.637427 0
    outer loop
      vertex 5.66312 4.1145 -1
      vertex 5.10278 4.79183 1
      vertex 5.10278 4.79183 -1
    endloop
  endfacet
  facet normal -0.770511 -0.637427 0
    outer loop
      vertex 5.10278 4.79183 1
      vertex 5.66312 4.1145 -1
      vertex 5.66312 4.1145 1
    endloop
  endfacet
  facet normal -0.248684 -0.968585 0
    outer loop
      vertex 1.31167 6.87601 -1
      vertex 2.16312 6.6574 1
      vertex 1.31167 6.87601 1
    endloop
  endfacet
  facet normal -0.248684 -0.968585 -0
    outer loop
      vertex 2.16312 6.6574 1
      vertex 1.31167 6.87601 -1
      vertex 2.16312 6.6574 -1
    endloop
  endfacet
  facet normal -0.125337 -0.992114 0
    outer loop
      vertex 0.439533 6.98619 -1
      vertex 1.31167 6.87601 1
      vertex 0.439533 6.98619 1
    endloop
  endfacet
  facet normal -0.125337 -0.992114 -0
    outer loop
      vertex 1.31167 6.87601 1
      vertex 0.439533 6.98619 -1
      vertex 1.31167 6.87601 -1
    endloop
  endfacet
  facet normal -0.587783 -0.809018 0
    outer loop
      vertex 3.75079 5.91029 -1
      vertex 4.46197 5.39359 1
      vertex 3.75079 5.91029 1
    endloop
  endfacet
  facet normal -0.587783 -0.809018 -0
    outer loop
      vertex 4.46197 5.39359 1
      vertex 3.75079 5.91029 -1
      vertex 4.46197 5.39359 -1
    endloop
  endfacet
  facet normal 0.998027 -0.0627939 0
    outer loop
      vertex -7 0 1
      vertex -6.9448 0.877332 -1
      vertex -6.9448 0.877332 1
    endloop
  endfacet
  facet normal 0.998027 -0.0627939 0
    outer loop
      vertex -6.9448 0.877332 -1
      vertex -7 0 1
      vertex -7 0 -1
    endloop
  endfacet
  facet normal 0.844326 -0.535829 0
    outer loop
      vertex -6.13415 3.37228 1
      vertex -5.66312 4.1145 -1
      vertex -5.66312 4.1145 1
    endloop
  endfacet
  facet normal 0.844326 -0.535829 0
    outer loop
      vertex -5.66312 4.1145 -1
      vertex -6.13415 3.37228 1
      vertex -6.13415 3.37228 -1
    endloop
  endfacet
  facet normal 0.125337 -0.992114 0
    outer loop
      vertex -1.31167 6.87601 -1
      vertex -0.439533 6.98619 1
      vertex -1.31167 6.87601 1
    endloop
  endfacet
  facet normal 0.125337 -0.992114 0
    outer loop
      vertex -0.439533 6.98619 1
      vertex -1.31167 6.87601 -1
      vertex -0.439533 6.98619 -1
    endloop
  endfacet
  facet normal 0.587783 -0.809018 0
    outer loop
      vertex -4.46197 5.39359 -1
      vertex -3.75079 5.91029 1
      vertex -4.46197 5.39359 1
    endloop
  endfacet
  facet normal 0.587783 -0.809018 0
    outer loop
      vertex -3.75079 5.91029 1
      vertex -4.46197 5.39359 -1
      vertex -3.75079 5.91029 -1
    endloop
  endfacet
  facet normal 0.481755 -0.876306 0
    outer loop
      vertex -3.75079 5.91029 -1
      vertex -2.98045 6.33379 1
      vertex -3.75079 5.91029 1
    endloop
  endfacet
  facet normal 0.481755 -0.876306 0
    outer loop
      vertex -2.98045 6.33379 1
      vertex -3.75079 5.91029 -1
      vertex -2.98045 6.33379 -1
    endloop
  endfacet
  facet normal -0.998027 -0.0627939 0
    outer loop
      vertex 7 0 -1
      vertex 6.9448 0.877332 1
      vertex 6.9448 0.877332 -1
    endloop
  endfacet
  facet normal -0.998027 -0.0627939 0
    outer loop
      vertex 6.9448 0.877332 1
      vertex 7 0 -1
      vertex 7 0 1
    endloop
  endfacet
  facet normal -0.770511 0.637427 0
    outer loop
      vertex 5.10278 -4.79183 -1
      vertex 5.66312 -4.1145 1
      vertex 5.66312 -4.1145 -1
    endloop
  endfacet
  facet normal -0.770511 0.637427 0
    outer loop
      vertex 5.66312 -4.1145 1
      vertex 5.10278 -4.79183 -1
      vertex 5.10278 -4.79183 1
    endloop
  endfacet
  facet normal 0 1 -0
    outer loop
      vertex 0.439533 -6.98619 -1
      vertex -0.439533 -6.98619 1
      vertex 0.439533 -6.98619 1
    endloop
  endfacet
  facet normal 0 1 0
    outer loop
      vertex -0.439533 -6.98619 1
      vertex 0.439533 -6.98619 -1
      vertex -0.439533 -6.98619 -1
    endloop
  endfacet
  facet normal 0.951058 0.309011 0
    outer loop
      vertex -6.50844 -2.57687 1
      vertex -6.78008 -1.74083 -1
      vertex -6.78008 -1.74083 1
    endloop
  endfacet
  facet normal 0.951058 0.309011 0
    outer loop
      vertex -6.78008 -1.74083 -1
      vertex -6.50844 -2.57687 1
      vertex -6.50844 -2.57687 -1
    endloop
  endfacet
  facet normal 0.844326 0.535829 0
    outer loop
      vertex -5.66312 -4.1145 1
      vertex -6.13415 -3.37228 -1
      vertex -6.13415 -3.37228 1
    endloop
  endfacet
  facet normal 0.844326 0.535829 0
    outer loop
      vertex -6.13415 -3.37228 -1
      vertex -5.66312 -4.1145 1
      vertex -5.66312 -4.1145 -1
    endloop
  endfacet
  facet normal -0.125337 0.992114 0
    outer loop
      vertex 1.31167 -6.87601 -1
      vertex 0.439533 -6.98619 1
      vertex 1.31167 -6.87601 1
    endloop
  endfacet
  facet normal -0.125337 0.992114 0
    outer loop
      vertex 0.439533 -6.98619 1
      vertex 1.31167 -6.87601 -1
      vertex 0.439533 -6.98619 -1
    endloop
  endfacet
  facet normal -0.904828 -0.425778 0
    outer loop
      vertex 6.50844 2.57687 -1
      vertex 6.13415 3.37228 1
      vertex 6.13415 3.37228 -1
    endloop
  endfacet
  facet normal -0.904828 -0.425778 0
    outer loop
      vertex 6.13415 3.37228 1
      vertex 6.50844 2.57687 -1
      vertex 6.50844 2.57687 1
    endloop
  endfacet
  facet normal -0.951058 -0.309011 0
    outer loop
      vertex 6.78008 1.74083 -1
      vertex 6.50844 2.57687 1
      vertex 6.50844 2.57687 -1
    endloop
  endfacet
  facet normal -0.951058 -0.309011 0
    outer loop
      vertex 6.50844 2.57687 1
      vertex 6.78008 1.74083 -1
      vertex 6.78008 1.74083 1
    endloop
  endfacet
  facet normal -0.982287 0.18738 0
    outer loop
      vertex 6.78008 -1.74083 -1
      vertex 6.9448 -0.877332 1
      vertex 6.9448 -0.877332 -1
    endloop
  endfacet
  facet normal -0.982287 0.18738 0
    outer loop
      vertex 6.9448 -0.877332 1
      vertex 6.78008 -1.74083 -1
      vertex 6.78008 -1.74083 1
    endloop
  endfacet
  facet normal 0.248684 0.968585 -0
    outer loop
      vertex -1.31167 -6.87601 -1
      vertex -2.16312 -6.6574 1
      vertex -1.31167 -6.87601 1
    endloop
  endfacet
  facet normal 0.248684 0.968585 0
    outer loop
      vertex -2.16312 -6.6574 1
      vertex -1.31167 -6.87601 -1
      vertex -2.16312 -6.6574 -1
    endloop
  endfacet
  facet normal 0.998027 0.0627939 0
    outer loop
      vertex -6.9448 -0.877332 1
      vertex -7 0 -1
      vertex -7 0 1
    endloop
  endfacet
  facet normal 0.998027 0.0627939 0
    outer loop
      vertex -7 0 -1
      vertex -6.9448 -0.877332 1
      vertex -6.9448 -0.877332 -1
    endloop
  endfacet
  facet normal 0.770511 0.637427 0
    outer loop
      vertex -5.10278 -4.79183 1
      vertex -5.66312 -4.1145 -1
      vertex -5.66312 -4.1145 1
    endloop
  endfacet
  facet normal 0.770511 0.637427 0
    outer loop
      vertex -5.66312 -4.1145 -1
      vertex -5.10278 -4.79183 1
      vertex -5.10278 -4.79183 -1
    endloop
  endfacet
  facet normal -0.368131 0.929774 0
    outer loop
      vertex 2.98045 -6.33379 -1
      vertex 2.16312 -6.6574 1
      vertex 2.98045 -6.33379 1
    endloop
  endfacet
  facet normal -0.368131 0.929774 0
    outer loop
      vertex 2.16312 -6.6574 1
      vertex 2.98045 -6.33379 -1
      vertex 2.16312 -6.6574 -1
    endloop
  endfacet
  facet normal -0.248684 0.968585 0
    outer loop
      vertex 2.16312 -6.6574 -1
      vertex 1.31167 -6.87601 1
      vertex 2.16312 -6.6574 1
    endloop
  endfacet
  facet normal -0.248684 0.968585 0
    outer loop
      vertex 1.31167 -6.87601 1
      vertex 2.16312 -6.6574 -1
      vertex 1.31167 -6.87601 -1
    endloop
  endfacet
  facet normal -0.684547 0.728969 0
    outer loop
      vertex 5.10278 -4.79183 -1
      vertex 4.46197 -5.39359 1
      vertex 5.10278 -4.79183 1
    endloop
  endfacet
  facet normal -0.684547 0.728969 0
    outer loop
      vertex 4.46197 -5.39359 1
      vertex 5.10278 -4.79183 -1
      vertex 4.46197 -5.39359 -1
    endloop
  endfacet
  facet normal -0.951058 0.309011 0
    outer loop
      vertex 6.50844 -2.57687 -1
      vertex 6.78008 -1.74083 1
      vertex 6.78008 -1.74083 -1
    endloop
  endfacet
  facet normal -0.951058 0.309011 0
    outer loop
      vertex 6.78008 -1.74083 1
      vertex 6.50844 -2.57687 -1
      vertex 6.50844 -2.57687 1
    endloop
  endfacet
  facet normal -0.844326 0.535829 0
    outer loop
      vertex 5.66312 -4.1145 -1
      vertex 6.13415 -3.37228 1
      vertex 6.13415 -3.37228 -1
    endloop
  endfacet
  facet normal -0.844326 0.535829 0
    outer loop
      vertex 6.13415 -3.37228 1
      vertex 5.66312 -4.1145 -1
      vertex 5.66312 -4.1145 1
    endloop
  endfacet
  facet normal 0.481755 0.876306 -0
    outer loop
      vertex -2.98045 -6.33379 -1
      vertex -3.75079 -5.91029 1
      vertex -2.98045 -6.33379 1
    endloop
  endfacet
  facet normal 0.481755 0.876306 0
    outer loop
      vertex -3.75079 -5.91029 1
      vertex -2.98045 -6.33379 -1
      vertex -3.75079 -5.91029 -1
    endloop
  endfacet
  facet normal 0.982287 0.18738 0
    outer loop
      vertex -6.78008 -1.74083 1
      vertex -6.9448 -0.877332 -1
      vertex -6.9448 -0.877332 1
    endloop
  endfacet
  facet normal 0.982287 0.18738 0
    outer loop
      vertex -6.9448 -0.877332 -1
      vertex -6.78008 -1.74083 1
      vertex -6.78008 -1.74083 -1
    endloop
  endfacet
  facet normal -0.587783 0.809018 0
    outer loop
      vertex 4.46197 -5.39359 -1
      vertex 3.75079 -5.91029 1
      vertex 4.46197 -5.39359 1
    endloop
  endfacet
  facet normal -0.587783 0.809018 0
    outer loop
      vertex 3.75079 -5.91029 1
      vertex 4.46197 -5.39359 -1
      vertex 3.75079 -5.91029 -1
    endloop
  endfacet
  facet normal 0.125337 0.992114 -0
    outer loop
      vertex -0.439533 -6.98619 -1
      vertex -1.31167 -6.87601 1
      vertex -0.439533 -6.98619 1
    endloop
  endfacet
  facet normal 0.125337 0.992114 0
    outer loop
      vertex -1.31167 -6.87601 1
      vertex -0.439533 -6.98619 -1
      vertex -1.31167 -6.87601 -1
    endloop
  endfacet
  facet normal 0.587783 0.809018 -0
    outer loop
      vertex -3.75079 -5.91029 -1
      vertex -4.46197 -5.39359 1
      vertex -3.75079 -5.91029 1
    endloop
  endfacet
  facet normal 0.587783 0.809018 0
    outer loop
      vertex -4.46197 -5.39359 1
      vertex -3.75079 -5.91029 -1
      vertex -4.46197 -5.39359 -1
    endloop
  endfacet
  facet normal 0.368131 0.929774 -0
    outer loop
      vertex -2.16312 -6.6574 -1
      vertex -2.98045 -6.33379 1
      vertex -2.16312 -6.6574 1
    endloop
  endfacet
  facet normal 0.368131 0.929774 0
    outer loop
      vertex -2.98045 -6.33379 1
      vertex -2.16312 -6.6574 -1
      vertex -2.98045 -6.33379 -1
    endloop
  endfacet
endsolid OpenSCAD_Model
