solid OpenSCAD_Model
  facet normal 0.998027 0.062794 0
    outer loop
      vertex 14 0 6
      vertex 13.8896 1.75466 -6
      vertex 13.8896 1.75466 6
    endloop
  endfacet
  facet normal 0.998027 0.062794 0
    outer loop
      vertex 13.8896 1.75466 -6
      vertex 14 0 6
      vertex 14 0 -6
    endloop
  endfacet
  facet normal -0.998027 0.062794 0
    outer loop
      vertex -14 0 -6
      vertex -13.8896 1.75466 6
      vertex -13.8896 1.75466 -6
    endloop
  endfacet
  facet normal -0.998027 0.062794 0
    outer loop
      vertex -13.8896 1.75466 6
      vertex -14 0 -6
      vertex -14 0 6
    endloop
  endfacet
  facet normal 0 1 -0
    outer loop
      vertex 0.879066 13.9724 -6
      vertex -0.879066 13.9724 6
      vertex 0.879066 13.9724 6
    endloop
  endfacet
  facet normal 0 1 0
    outer loop
      vertex -0.879066 13.9724 6
      vertex 0.879066 13.9724 -6
      vertex -0.879066 13.9724 -6
    endloop
  endfacet
  facet normal 0 -1 0
    outer loop
      vertex -0.879066 -13.9724 -6
      vertex 0.879066 -13.9724 6
      vertex -0.879066 -13.9724 6
    endloop
  endfacet
  facet normal 0 -1 -0
    outer loop
      vertex 0.879066 -13.9724 6
      vertex -0.879066 -13.9724 -6
      vertex 0.879066 -13.9724 -6
    endloop
  endfacet
  facet normal 0.684539 0.728977 -0
    outer loop
      vertex 10.2056 9.58366 -6
      vertex 8.92393 10.7872 6
      vertex 10.2056 9.58366 6
    endloop
  endfacet
  facet normal 0.684539 0.728977 0
    outer loop
      vertex 8.92393 10.7872 6
      vertex 10.2056 9.58366 -6
      vertex 8.92393 10.7872 -6
    endloop
  endfacet
  facet normal -0.684539 0.728977 0
    outer loop
      vertex -8.92393 10.7872 -6
      vertex -10.2056 9.58366 6
      vertex -8.92393 10.7872 6
    endloop
  endfacet
  facet normal -0.684539 0.728977 0
    outer loop
      vertex -10.2056 9.58366 6
      vertex -8.92393 10.7872 -6
      vertex -10.2056 9.58366 -6
    endloop
  endfacet
  facet normal -0.368119 0.929779 0
    outer loop
      vertex -4.32624 13.3148 -6
      vertex -5.96091 12.6676 6
      vertex -4.32624 13.3148 6
    endloop
  endfacet
  facet normal -0.368119 0.929779 0
    outer loop
      vertex -5.96091 12.6676 6
      vertex -4.32624 13.3148 -6
      vertex -5.96091 12.6676 -6
    endloop
  endfacet
  facet normal 0.904822 -0.425789 0
    outer loop
      vertex 12.2683 -6.74455 6
      vertex 13.0169 -5.15374 -6
      vertex 13.0169 -5.15374 6
    endloop
  endfacet
  facet normal 0.904822 -0.425789 0
    outer loop
      vertex 13.0169 -5.15374 -6
      vertex 12.2683 -6.74455 6
      vertex 12.2683 -6.74455 -6
    endloop
  endfacet
  facet normal 0.904822 0.425789 0
    outer loop
      vertex 13.0169 5.15374 6
      vertex 12.2683 6.74455 -6
      vertex 12.2683 6.74455 6
    endloop
  endfacet
  facet normal 0.904822 0.425789 0
    outer loop
      vertex 12.2683 6.74455 -6
      vertex 13.0169 5.15374 6
      vertex 13.0169 5.15374 -6
    endloop
  endfacet
  facet normal 0.368119 0.929779 -0
    outer loop
      vertex 5.96091 12.6676 -6
      vertex 4.32624 13.3148 6
      vertex 5.96091 12.6676 6
    endloop
  endfacet
  facet normal 0.368119 0.929779 0
    outer loop
      vertex 4.32624 13.3148 6
      vertex 5.96091 12.6676 -6
      vertex 4.32624 13.3148 -6
    endloop
  endfacet
  facet normal 0.48176 0.876303 -0
    outer loop
      vertex 7.50157 11.8206 -6
      vertex 5.96091 12.6676 6
      vertex 7.50157 11.8206 6
    endloop
  endfacet
  facet normal 0.48176 0.876303 0
    outer loop
      vertex 5.96091 12.6676 6
      vertex 7.50157 11.8206 -6
      vertex 5.96091 12.6676 -6
    endloop
  endfacet
  facet normal -0.904822 0.425789 0
    outer loop
      vertex -13.0169 5.15374 -6
      vertex -12.2683 6.74455 6
      vertex -12.2683 6.74455 -6
    endloop
  endfacet
  facet normal -0.904822 0.425789 0
    outer loop
      vertex -12.2683 6.74455 6
      vertex -13.0169 5.15374 -6
      vertex -13.0169 5.15374 6
    endloop
  endfacet
  facet normal -0.770536 0.637397 0
    outer loop
      vertex -11.3262 8.22899 -6
      vertex -10.2056 9.58366 6
      vertex -10.2056 9.58366 -6
    endloop
  endfacet
  facet normal -0.770536 0.637397 0
    outer loop
      vertex -10.2056 9.58366 6
      vertex -11.3262 8.22899 -6
      vertex -11.3262 8.22899 6
    endloop
  endfacet
  facet normal 0 0 1
    outer loop
      vertex 4.25 0 6
      vertex 14 0 6
      vertex 13.8896 1.75466 6
    endloop
  endfacet
  facet normal 0 0 1
    outer loop
      vertex 4.21649 0.532666 6
      vertex 13.8896 1.75466 6
      vertex 13.5602 3.48166 6
    endloop
  endfacet
  facet normal 0 0 1
    outer loop
      vertex 14 0 6
      vertex 4.25 0 6
      vertex 13.8896 -1.75466 6
    endloop
  endfacet
  facet normal 0 0 1
    outer loop
      vertex 4.11648 1.05693 6
      vertex 13.5602 3.48166 6
      vertex 13.0169 5.15374 6
    endloop
  endfacet
  facet normal -0 0 1
    outer loop
      vertex 4.21649 -0.532666 6
      vertex 13.8896 -1.75466 6
      vertex 4.25 0 6
    endloop
  endfacet
  facet normal 0 0 1
    outer loop
      vertex 3.95155 1.56453 6
      vertex 13.0169 5.15374 6
      vertex 12.2683 6.74455 6
    endloop
  endfacet
  facet normal 0 0 1
    outer loop
      vertex 13.8896 -1.75466 6
      vertex 4.21649 -0.532666 6
      vertex 13.5602 -3.48166 6
    endloop
  endfacet
  facet normal 0 0 1
    outer loop
      vertex 3.7243 2.04745 6
      vertex 12.2683 6.74455 6
      vertex 11.3262 8.22899 6
    endloop
  endfacet
  facet normal -0 0 1
    outer loop
      vertex 4.11648 -1.05693 6
      vertex 13.5602 -3.48166 6
      vertex 4.21649 -0.532666 6
    endloop
  endfacet
  facet normal 0 0 1
    outer loop
      vertex 3.43832 2.49809 6
      vertex 11.3262 8.22899 6
      vertex 10.2056 9.58366 6
    endloop
  endfacet
  facet normal 0 0 1
    outer loop
      vertex 13.5602 -3.48166 6
      vertex 4.11648 -1.05693 6
      vertex 13.0169 -5.15374 6
    endloop
  endfacet
  facet normal 0 0 1
    outer loop
      vertex 3.09812 2.90932 6
      vertex 10.2056 9.58366 6
      vertex 8.92393 10.7872 6
    endloop
  endfacet
  facet normal -0 0 1
    outer loop
      vertex 3.95155 -1.56453 6
      vertex 13.0169 -5.15374 6
      vertex 4.11648 -1.05693 6
    endloop
  endfacet
  facet normal 0 0 1
    outer loop
      vertex 2.70905 3.27468 6
      vertex 8.92393 10.7872 6
      vertex 7.50157 11.8206 6
    endloop
  endfacet
  facet normal 0 0 1
    outer loop
      vertex 13.0169 -5.15374 6
      vertex 3.95155 -1.56453 6
      vertex 12.2683 -6.74455 6
    endloop
  endfacet
  facet normal 0 0 1
    outer loop
      vertex 2.27726 3.58839 6
      vertex 7.50157 11.8206 6
      vertex 5.96091 12.6676 6
    endloop
  endfacet
  facet normal -0 0 1
    outer loop
      vertex 3.7243 -2.04745 6
      vertex 12.2683 -6.74455 6
      vertex 3.95155 -1.56453 6
    endloop
  endfacet
  facet normal 0 0 1
    outer loop
      vertex 1.80956 3.84551 6
      vertex 5.96091 12.6676 6
      vertex 4.32624 13.3148 6
    endloop
  endfacet
  facet normal 0 0 1
    outer loop
      vertex 12.2683 -6.74455 6
      vertex 3.7243 -2.04745 6
      vertex 11.3262 -8.22899 6
    endloop
  endfacet
  facet normal -0 0 1
    outer loop
      vertex 3.43832 -2.49809 6
      vertex 11.3262 -8.22899 6
      vertex 3.7243 -2.04745 6
    endloop
  endfacet
  facet normal 0 0 1
    outer loop
      vertex 13.8896 1.75466 6
      vertex 4.21649 0.532666 6
      vertex 4.25 0 6
    endloop
  endfacet
  facet normal 0 0 1
    outer loop
      vertex 13.5602 3.48166 6
      vertex 4.11648 1.05693 6
      vertex 4.21649 0.532666 6
    endloop
  endfacet
  facet normal 0 0 1
    outer loop
      vertex 13.0169 5.15374 6
      vertex 3.95155 1.56453 6
      vertex 4.11648 1.05693 6
    endloop
  endfacet
  facet normal 0 0 1
    outer loop
      vertex 12.2683 6.74455 6
      vertex 3.7243 2.04745 6
      vertex 3.95155 1.56453 6
    endloop
  endfacet
  facet normal 0 0 1
    outer loop
      vertex 11.3262 8.22899 6
      vertex 3.43832 2.49809 6
      vertex 3.7243 2.04745 6
    endloop
  endfacet
  facet normal 0 0 1
    outer loop
      vertex 10.2056 9.58366 6
      vertex 3.09812 2.90932 6
      vertex 3.43832 2.49809 6
    endloop
  endfacet
  facet normal 0 0 1
    outer loop
      vertex 8.92393 10.7872 6
      vertex 2.70905 3.27468 6
      vertex 3.09812 2.90932 6
    endloop
  endfacet
  facet normal 0 0 1
    outer loop
      vertex 1.31332 4.04199 6
      vertex 4.32624 13.3148 6
      vertex 2.62334 13.752 6
    endloop
  endfacet
  facet normal 0 0 1
    outer loop
      vertex 7.50157 11.8206 6
      vertex 2.27726 3.58839 6
      vertex 2.70905 3.27468 6
    endloop
  endfacet
  facet normal 0 0 1
    outer loop
      vertex 5.96091 12.6676 6
      vertex 1.80956 3.84551 6
      vertex 2.27726 3.58839 6
    endloop
  endfacet
  facet normal 0 0 1
    outer loop
      vertex 4.32624 13.3148 6
      vertex 1.31332 4.04199 6
      vertex 1.80956 3.84551 6
    endloop
  endfacet
  facet normal 0 0 1
    outer loop
      vertex 0.796371 4.17472 6
      vertex 2.62334 13.752 6
      vertex 0.879066 13.9724 6
    endloop
  endfacet
  facet normal 0 0 1
    outer loop
      vertex 2.62334 13.752 6
      vertex 0.796371 4.17472 6
      vertex 1.31332 4.04199 6
    endloop
  endfacet
  facet normal 0 0 1
    outer loop
      vertex 0.879066 13.9724 6
      vertex 0.266859 4.24161 6
      vertex 0.796371 4.17472 6
    endloop
  endfacet
  facet normal 0 0 1
    outer loop
      vertex 0.879066 13.9724 6
      vertex -0.266859 4.24161 6
      vertex 0.266859 4.24161 6
    endloop
  endfacet
  facet normal -0 0 1
    outer loop
      vertex -0.879066 13.9724 6
      vertex -0.266859 4.24161 6
      vertex 0.879066 13.9724 6
    endloop
  endfacet
  facet normal 0 0 1
    outer loop
      vertex -0.266859 4.24161 6
      vertex -0.879066 13.9724 6
      vertex -0.796371 4.17472 6
    endloop
  endfacet
  facet normal -0 0 1
    outer loop
      vertex -2.62334 13.752 6
      vertex -0.796371 4.17472 6
      vertex -0.879066 13.9724 6
    endloop
  endfacet
  facet normal 0 0 1
    outer loop
      vertex -0.796371 4.17472 6
      vertex -2.62334 13.752 6
      vertex -1.31332 4.04199 6
    endloop
  endfacet
  facet normal -0 0 1
    outer loop
      vertex -4.32624 13.3148 6
      vertex -1.31332 4.04199 6
      vertex -2.62334 13.752 6
    endloop
  endfacet
  facet normal 0 0 1
    outer loop
      vertex -1.31332 4.04199 6
      vertex -4.32624 13.3148 6
      vertex -1.80956 3.84551 6
    endloop
  endfacet
  facet normal -0 0 1
    outer loop
      vertex -5.96091 12.6676 6
      vertex -1.80956 3.84551 6
      vertex -4.32624 13.3148 6
    endloop
  endfacet
  facet normal 0 0 1
    outer loop
      vertex -1.80956 3.84551 6
      vertex -5.96091 12.6676 6
      vertex -2.27726 3.58839 6
    endloop
  endfacet
  facet normal -0 0 1
    outer loop
      vertex -7.50157 11.8206 6
      vertex -2.27726 3.58839 6
      vertex -5.96091 12.6676 6
    endloop
  endfacet
  facet normal 0 0 1
    outer loop
      vertex -2.27726 3.58839 6
      vertex -7.50157 11.8206 6
      vertex -2.70905 3.27468 6
    endloop
  endfacet
  facet normal -0 0 1
    outer loop
      vertex -8.92393 10.7872 6
      vertex -2.70905 3.27468 6
      vertex -7.50157 11.8206 6
    endloop
  endfacet
  facet normal 0 0 1
    outer loop
      vertex -2.70905 3.27468 6
      vertex -8.92393 10.7872 6
      vertex -3.09812 2.90932 6
    endloop
  endfacet
  facet normal -0 0 1
    outer loop
      vertex -10.2056 9.58366 6
      vertex -3.09812 2.90932 6
      vertex -8.92393 10.7872 6
    endloop
  endfacet
  facet normal -0 0 1
    outer loop
      vertex -11.3262 8.22899 6
      vertex -3.43832 2.49809 6
      vertex -10.2056 9.58366 6
    endloop
  endfacet
  facet normal 0 0 1
    outer loop
      vertex -3.09812 2.90932 6
      vertex -10.2056 9.58366 6
      vertex -3.43832 2.49809 6
    endloop
  endfacet
  facet normal 0 0 1
    outer loop
      vertex 11.3262 -8.22899 6
      vertex 3.43832 -2.49809 6
      vertex 10.2056 -9.58366 6
    endloop
  endfacet
  facet normal -0 0 1
    outer loop
      vertex 3.09812 -2.90932 6
      vertex 10.2056 -9.58366 6
      vertex 3.43832 -2.49809 6
    endloop
  endfacet
  facet normal 0 0 1
    outer loop
      vertex 10.2056 -9.58366 6
      vertex 3.09812 -2.90932 6
      vertex 8.92393 -10.7872 6
    endloop
  endfacet
  facet normal -0 0 1
    outer loop
      vertex 2.70905 -3.27468 6
      vertex 8.92393 -10.7872 6
      vertex 3.09812 -2.90932 6
    endloop
  endfacet
  facet normal 0 0 1
    outer loop
      vertex 8.92393 -10.7872 6
      vertex 2.70905 -3.27468 6
      vertex 7.50157 -11.8206 6
    endloop
  endfacet
  facet normal -0 0 1
    outer loop
      vertex 2.27726 -3.58839 6
      vertex 7.50157 -11.8206 6
      vertex 2.70905 -3.27468 6
    endloop
  endfacet
  facet normal 0 0 1
    outer loop
      vertex 7.50157 -11.8206 6
      vertex 2.27726 -3.58839 6
      vertex 5.96091 -12.6676 6
    endloop
  endfacet
  facet normal -0 0 1
    outer loop
      vertex 1.80956 -3.84551 6
      vertex 5.96091 -12.6676 6
      vertex 2.27726 -3.58839 6
    endloop
  endfacet
  facet normal 0 0 1
    outer loop
      vertex 5.96091 -12.6676 6
      vertex 1.80956 -3.84551 6
      vertex 4.32624 -13.3148 6
    endloop
  endfacet
  facet normal -0 0 1
    outer loop
      vertex 1.31332 -4.04199 6
      vertex 4.32624 -13.3148 6
      vertex 1.80956 -3.84551 6
    endloop
  endfacet
  facet normal 0 0 1
    outer loop
      vertex 4.32624 -13.3148 6
      vertex 1.31332 -4.04199 6
      vertex 2.62334 -13.752 6
    endloop
  endfacet
  facet normal -0 0 1
    outer loop
      vertex 0.796371 -4.17472 6
      vertex 2.62334 -13.752 6
      vertex 1.31332 -4.04199 6
    endloop
  endfacet
  facet normal 0 0 1
    outer loop
      vertex 2.62334 -13.752 6
      vertex 0.796371 -4.17472 6
      vertex 0.879066 -13.9724 6
    endloop
  endfacet
  facet normal -0 0 1
    outer loop
      vertex 0.266859 -4.24161 6
      vertex 0.879066 -13.9724 6
      vertex 0.796371 -4.17472 6
    endloop
  endfacet
  facet normal -0 0 1
    outer loop
      vertex -0.266859 -4.24161 6
      vertex 0.879066 -13.9724 6
      vertex 0.266859 -4.24161 6
    endloop
  endfacet
  facet normal 0 0 1
    outer loop
      vertex -0.879066 -13.9724 6
      vertex -0.266859 -4.24161 6
      vertex -0.796371 -4.17472 6
    endloop
  endfacet
  facet normal 0 0 1
    outer loop
      vertex -0.266859 -4.24161 6
      vertex -0.879066 -13.9724 6
      vertex 0.879066 -13.9724 6
    endloop
  endfacet
  facet normal 0 0 1
    outer loop
      vertex -2.62334 -13.752 6
      vertex -0.796371 -4.17472 6
      vertex -1.31332 -4.04199 6
    endloop
  endfacet
  facet normal 0 0 1
    outer loop
      vertex -4.32624 -13.3148 6
      vertex -1.31332 -4.04199 6
      vertex -1.80956 -3.84551 6
    endloop
  endfacet
  facet normal 0 0 1
    outer loop
      vertex -5.96091 -12.6676 6
      vertex -1.80956 -3.84551 6
      vertex -2.27726 -3.58839 6
    endloop
  endfacet
  facet normal 0 0 1
    outer loop
      vertex -0.796371 -4.17472 6
      vertex -2.62334 -13.752 6
      vertex -0.879066 -13.9724 6
    endloop
  endfacet
  facet normal 0 0 1
    outer loop
      vertex -7.50157 -11.8206 6
      vertex -2.27726 -3.58839 6
      vertex -2.70905 -3.27468 6
    endloop
  endfacet
  facet normal 0 0 1
    outer loop
      vertex -8.92393 -10.7872 6
      vertex -2.70905 -3.27468 6
      vertex -3.09812 -2.90932 6
    endloop
  endfacet
  facet normal 0 0 1
    outer loop
      vertex -10.2056 -9.58366 6
      vertex -3.09812 -2.90932 6
      vertex -3.43832 -2.49809 6
    endloop
  endfacet
  facet normal 0 0 1
    outer loop
      vertex -11.3262 -8.22899 6
      vertex -3.43832 -2.49809 6
      vertex -3.7243 -2.04745 6
    endloop
  endfacet
  facet normal 0 0 1
    outer loop
      vertex -12.2683 -6.74455 6
      vertex -3.7243 -2.04745 6
      vertex -3.95155 -1.56453 6
    endloop
  endfacet
  facet normal 0 0 1
    outer loop
      vertex -13.0169 -5.15374 6
      vertex -3.95155 -1.56453 6
      vertex -4.11648 -1.05693 6
    endloop
  endfacet
  facet normal 0 0 1
    outer loop
      vertex -13.5602 -3.48166 6
      vertex -4.11648 -1.05693 6
      vertex -4.21649 -0.532666 6
    endloop
  endfacet
  facet normal 0 0 1
    outer loop
      vertex -1.31332 -4.04199 6
      vertex -4.32624 -13.3148 6
      vertex -2.62334 -13.752 6
    endloop
  endfacet
  facet normal 0 0 1
    outer loop
      vertex -13.8896 -1.75466 6
      vertex -4.21649 -0.532666 6
      vertex -4.25 0 6
    endloop
  endfacet
  facet normal 0 0 1
    outer loop
      vertex -3.43832 2.49809 6
      vertex -11.3262 8.22899 6
      vertex -3.7243 2.04745 6
    endloop
  endfacet
  facet normal -0 0 1
    outer loop
      vertex -12.2683 6.74455 6
      vertex -3.7243 2.04745 6
      vertex -11.3262 8.22899 6
    endloop
  endfacet
  facet normal 0 0 1
    outer loop
      vertex -1.80956 -3.84551 6
      vertex -5.96091 -12.6676 6
      vertex -4.32624 -13.3148 6
    endloop
  endfacet
  facet normal 0 0 1
    outer loop
      vertex -3.7243 2.04745 6
      vertex -12.2683 6.74455 6
      vertex -3.95155 1.56453 6
    endloop
  endfacet
  facet normal 0 0 1
    outer loop
      vertex -2.27726 -3.58839 6
      vertex -7.50157 -11.8206 6
      vertex -5.96091 -12.6676 6
    endloop
  endfacet
  facet normal -0 0 1
    outer loop
      vertex -13.0169 5.15374 6
      vertex -3.95155 1.56453 6
      vertex -12.2683 6.74455 6
    endloop
  endfacet
  facet normal 0 0 1
    outer loop
      vertex -2.70905 -3.27468 6
      vertex -8.92393 -10.7872 6
      vertex -7.50157 -11.8206 6
    endloop
  endfacet
  facet normal 0 0 1
    outer loop
      vertex -3.95155 1.56453 6
      vertex -13.0169 5.15374 6
      vertex -4.11648 1.05693 6
    endloop
  endfacet
  facet normal 0 0 1
    outer loop
      vertex -3.09812 -2.90932 6
      vertex -10.2056 -9.58366 6
      vertex -8.92393 -10.7872 6
    endloop
  endfacet
  facet normal -0 0 1
    outer loop
      vertex -13.5602 3.48166 6
      vertex -4.11648 1.05693 6
      vertex -13.0169 5.15374 6
    endloop
  endfacet
  facet normal 0 0 1
    outer loop
      vertex -3.43832 -2.49809 6
      vertex -11.3262 -8.22899 6
      vertex -10.2056 -9.58366 6
    endloop
  endfacet
  facet normal 0 0 1
    outer loop
      vertex -4.11648 1.05693 6
      vertex -13.5602 3.48166 6
      vertex -4.21649 0.532666 6
    endloop
  endfacet
  facet normal 0 0 1
    outer loop
      vertex -3.7243 -2.04745 6
      vertex -12.2683 -6.74455 6
      vertex -11.3262 -8.22899 6
    endloop
  endfacet
  facet normal -0 0 1
    outer loop
      vertex -13.8896 1.75466 6
      vertex -4.21649 0.532666 6
      vertex -13.5602 3.48166 6
    endloop
  endfacet
  facet normal 0 0 1
    outer loop
      vertex -3.95155 -1.56453 6
      vertex -13.0169 -5.15374 6
      vertex -12.2683 -6.74455 6
    endloop
  endfacet
  facet normal 0 0 1
    outer loop
      vertex -4.21649 0.532666 6
      vertex -13.8896 1.75466 6
      vertex -4.25 0 6
    endloop
  endfacet
  facet normal 0 0 1
    outer loop
      vertex -4.11648 -1.05693 6
      vertex -13.5602 -3.48166 6
      vertex -13.0169 -5.15374 6
    endloop
  endfacet
  facet normal 0 0 1
    outer loop
      vertex -14 0 6
      vertex -4.25 0 6
      vertex -13.8896 1.75466 6
    endloop
  endfacet
  facet normal 0 0 1
    outer loop
      vertex -4.21649 -0.532666 6
      vertex -13.8896 -1.75466 6
      vertex -13.5602 -3.48166 6
    endloop
  endfacet
  facet normal 0 0 1
    outer loop
      vertex -4.25 0 6
      vertex -14 0 6
      vertex -13.8896 -1.75466 6
    endloop
  endfacet
  facet normal -0.248674 0.968587 0
    outer loop
      vertex -2.62334 13.752 -6
      vertex -4.32624 13.3148 6
      vertex -2.62334 13.752 6
    endloop
  endfacet
  facet normal -0.248674 0.968587 0
    outer loop
      vertex -4.32624 13.3148 6
      vertex -2.62334 13.752 -6
      vertex -4.32624 13.3148 -6
    endloop
  endfacet
  facet normal 0 0 -1
    outer loop
      vertex 4.25 0 -6
      vertex 14 0 -6
      vertex 13.8896 -1.75466 -6
    endloop
  endfacet
  facet normal 0 0 -1
    outer loop
      vertex 4.21649 -0.532666 -6
      vertex 13.8896 -1.75466 -6
      vertex 13.5602 -3.48166 -6
    endloop
  endfacet
  facet normal 0 0 -1
    outer loop
      vertex 14 0 -6
      vertex 4.25 0 -6
      vertex 13.8896 1.75466 -6
    endloop
  endfacet
  facet normal 0 0 -1
    outer loop
      vertex 4.11648 -1.05693 -6
      vertex 13.5602 -3.48166 -6
      vertex 13.0169 -5.15374 -6
    endloop
  endfacet
  facet normal 0 0 -1
    outer loop
      vertex 4.21649 0.532666 -6
      vertex 13.8896 1.75466 -6
      vertex 4.25 0 -6
    endloop
  endfacet
  facet normal 0 0 -1
    outer loop
      vertex 3.95155 -1.56453 -6
      vertex 13.0169 -5.15374 -6
      vertex 12.2683 -6.74455 -6
    endloop
  endfacet
  facet normal -0 0 -1
    outer loop
      vertex 13.8896 1.75466 -6
      vertex 4.21649 0.532666 -6
      vertex 13.5602 3.48166 -6
    endloop
  endfacet
  facet normal 0 0 -1
    outer loop
      vertex 3.7243 -2.04745 -6
      vertex 12.2683 -6.74455 -6
      vertex 11.3262 -8.22899 -6
    endloop
  endfacet
  facet normal 0 0 -1
    outer loop
      vertex 4.11648 1.05693 -6
      vertex 13.5602 3.48166 -6
      vertex 4.21649 0.532666 -6
    endloop
  endfacet
  facet normal 0 0 -1
    outer loop
      vertex 3.43832 -2.49809 -6
      vertex 11.3262 -8.22899 -6
      vertex 10.2056 -9.58366 -6
    endloop
  endfacet
  facet normal -0 0 -1
    outer loop
      vertex 13.5602 3.48166 -6
      vertex 4.11648 1.05693 -6
      vertex 13.0169 5.15374 -6
    endloop
  endfacet
  facet normal 0 0 -1
    outer loop
      vertex 3.09812 -2.90932 -6
      vertex 10.2056 -9.58366 -6
      vertex 8.92393 -10.7872 -6
    endloop
  endfacet
  facet normal 0 0 -1
    outer loop
      vertex 3.95155 1.56453 -6
      vertex 13.0169 5.15374 -6
      vertex 4.11648 1.05693 -6
    endloop
  endfacet
  facet normal 0 0 -1
    outer loop
      vertex 2.70905 -3.27468 -6
      vertex 8.92393 -10.7872 -6
      vertex 7.50157 -11.8206 -6
    endloop
  endfacet
  facet normal -0 0 -1
    outer loop
      vertex 13.0169 5.15374 -6
      vertex 3.95155 1.56453 -6
      vertex 12.2683 6.74455 -6
    endloop
  endfacet
  facet normal 0 0 -1
    outer loop
      vertex 2.27726 -3.58839 -6
      vertex 7.50157 -11.8206 -6
      vertex 5.96091 -12.6676 -6
    endloop
  endfacet
  facet normal 0 0 -1
    outer loop
      vertex 3.7243 2.04745 -6
      vertex 12.2683 6.74455 -6
      vertex 3.95155 1.56453 -6
    endloop
  endfacet
  facet normal 0 0 -1
    outer loop
      vertex 1.80956 -3.84551 -6
      vertex 5.96091 -12.6676 -6
      vertex 4.32624 -13.3148 -6
    endloop
  endfacet
  facet normal -0 0 -1
    outer loop
      vertex 12.2683 6.74455 -6
      vertex 3.7243 2.04745 -6
      vertex 11.3262 8.22899 -6
    endloop
  endfacet
  facet normal 0 0 -1
    outer loop
      vertex 3.43832 2.49809 -6
      vertex 11.3262 8.22899 -6
      vertex 3.7243 2.04745 -6
    endloop
  endfacet
  facet normal 0 0 -1
    outer loop
      vertex 13.8896 -1.75466 -6
      vertex 4.21649 -0.532666 -6
      vertex 4.25 0 -6
    endloop
  endfacet
  facet normal 0 0 -1
    outer loop
      vertex 13.5602 -3.48166 -6
      vertex 4.11648 -1.05693 -6
      vertex 4.21649 -0.532666 -6
    endloop
  endfacet
  facet normal 0 0 -1
    outer loop
      vertex 13.0169 -5.15374 -6
      vertex 3.95155 -1.56453 -6
      vertex 4.11648 -1.05693 -6
    endloop
  endfacet
  facet normal 0 0 -1
    outer loop
      vertex 12.2683 -6.74455 -6
      vertex 3.7243 -2.04745 -6
      vertex 3.95155 -1.56453 -6
    endloop
  endfacet
  facet normal 0 0 -1
    outer loop
      vertex 11.3262 -8.22899 -6
      vertex 3.43832 -2.49809 -6
      vertex 3.7243 -2.04745 -6
    endloop
  endfacet
  facet normal 0 0 -1
    outer loop
      vertex 10.2056 -9.58366 -6
      vertex 3.09812 -2.90932 -6
      vertex 3.43832 -2.49809 -6
    endloop
  endfacet
  facet normal 0 0 -1
    outer loop
      vertex 8.92393 -10.7872 -6
      vertex 2.70905 -3.27468 -6
      vertex 3.09812 -2.90932 -6
    endloop
  endfacet
  facet normal 0 0 -1
    outer loop
      vertex 1.31332 -4.04199 -6
      vertex 4.32624 -13.3148 -6
      vertex 2.62334 -13.752 -6
    endloop
  endfacet
  facet normal 0 0 -1
    outer loop
      vertex 7.50157 -11.8206 -6
      vertex 2.27726 -3.58839 -6
      vertex 2.70905 -3.27468 -6
    endloop
  endfacet
  facet normal 0 0 -1
    outer loop
      vertex 5.96091 -12.6676 -6
      vertex 1.80956 -3.84551 -6
      vertex 2.27726 -3.58839 -6
    endloop
  endfacet
  facet normal 0 0 -1
    outer loop
      vertex 4.32624 -13.3148 -6
      vertex 1.31332 -4.04199 -6
      vertex 1.80956 -3.84551 -6
    endloop
  endfacet
  facet normal 0 0 -1
    outer loop
      vertex 0.796371 -4.17472 -6
      vertex 2.62334 -13.752 -6
      vertex 0.879066 -13.9724 -6
    endloop
  endfacet
  facet normal 0 0 -1
    outer loop
      vertex 2.62334 -13.752 -6
      vertex 0.796371 -4.17472 -6
      vertex 1.31332 -4.04199 -6
    endloop
  endfacet
  facet normal 0 0 -1
    outer loop
      vertex 0.879066 -13.9724 -6
      vertex 0.266859 -4.24161 -6
      vertex 0.796371 -4.17472 -6
    endloop
  endfacet
  facet normal 0 0 -1
    outer loop
      vertex 0.879066 -13.9724 -6
      vertex -0.266859 -4.24161 -6
      vertex 0.266859 -4.24161 -6
    endloop
  endfacet
  facet normal 0 0 -1
    outer loop
      vertex -0.879066 -13.9724 -6
      vertex -0.266859 -4.24161 -6
      vertex 0.879066 -13.9724 -6
    endloop
  endfacet
  facet normal -0 0 -1
    outer loop
      vertex -0.266859 -4.24161 -6
      vertex -0.879066 -13.9724 -6
      vertex -0.796371 -4.17472 -6
    endloop
  endfacet
  facet normal 0 0 -1
    outer loop
      vertex -2.62334 -13.752 -6
      vertex -0.796371 -4.17472 -6
      vertex -0.879066 -13.9724 -6
    endloop
  endfacet
  facet normal -0 0 -1
    outer loop
      vertex -0.796371 -4.17472 -6
      vertex -2.62334 -13.752 -6
      vertex -1.31332 -4.04199 -6
    endloop
  endfacet
  facet normal 0 0 -1
    outer loop
      vertex -4.32624 -13.3148 -6
      vertex -1.31332 -4.04199 -6
      vertex -2.62334 -13.752 -6
    endloop
  endfacet
  facet normal -0 0 -1
    outer loop
      vertex -1.31332 -4.04199 -6
      vertex -4.32624 -13.3148 -6
      vertex -1.80956 -3.84551 -6
    endloop
  endfacet
  facet normal 0 0 -1
    outer loop
      vertex -5.96091 -12.6676 -6
      vertex -1.80956 -3.84551 -6
      vertex -4.32624 -13.3148 -6
    endloop
  endfacet
  facet normal -0 0 -1
    outer loop
      vertex -1.80956 -3.84551 -6
      vertex -5.96091 -12.6676 -6
      vertex -2.27726 -3.58839 -6
    endloop
  endfacet
  facet normal 0 0 -1
    outer loop
      vertex -7.50157 -11.8206 -6
      vertex -2.27726 -3.58839 -6
      vertex -5.96091 -12.6676 -6
    endloop
  endfacet
  facet normal -0 0 -1
    outer loop
      vertex -2.27726 -3.58839 -6
      vertex -7.50157 -11.8206 -6
      vertex -2.70905 -3.27468 -6
    endloop
  endfacet
  facet normal 0 0 -1
    outer loop
      vertex -8.92393 -10.7872 -6
      vertex -2.70905 -3.27468 -6
      vertex -7.50157 -11.8206 -6
    endloop
  endfacet
  facet normal -0 0 -1
    outer loop
      vertex -2.70905 -3.27468 -6
      vertex -8.92393 -10.7872 -6
      vertex -3.09812 -2.90932 -6
    endloop
  endfacet
  facet normal 0 0 -1
    outer loop
      vertex -10.2056 -9.58366 -6
      vertex -3.09812 -2.90932 -6
      vertex -8.92393 -10.7872 -6
    endloop
  endfacet
  facet normal 0 0 -1
    outer loop
      vertex -11.3262 -8.22899 -6
      vertex -3.43832 -2.49809 -6
      vertex -10.2056 -9.58366 -6
    endloop
  endfacet
  facet normal -0 0 -1
    outer loop
      vertex -3.09812 -2.90932 -6
      vertex -10.2056 -9.58366 -6
      vertex -3.43832 -2.49809 -6
    endloop
  endfacet
  facet normal -0 0 -1
    outer loop
      vertex 11.3262 8.22899 -6
      vertex 3.43832 2.49809 -6
      vertex 10.2056 9.58366 -6
    endloop
  endfacet
  facet normal 0 0 -1
    outer loop
      vertex 3.09812 2.90932 -6
      vertex 10.2056 9.58366 -6
      vertex 3.43832 2.49809 -6
    endloop
  endfacet
  facet normal -0 0 -1
    outer loop
      vertex 10.2056 9.58366 -6
      vertex 3.09812 2.90932 -6
      vertex 8.92393 10.7872 -6
    endloop
  endfacet
  facet normal 0 0 -1
    outer loop
      vertex 2.70905 3.27468 -6
      vertex 8.92393 10.7872 -6
      vertex 3.09812 2.90932 -6
    endloop
  endfacet
  facet normal -0 0 -1
    outer loop
      vertex 8.92393 10.7872 -6
      vertex 2.70905 3.27468 -6
      vertex 7.50157 11.8206 -6
    endloop
  endfacet
  facet normal 0 0 -1
    outer loop
      vertex 2.27726 3.58839 -6
      vertex 7.50157 11.8206 -6
      vertex 2.70905 3.27468 -6
    endloop
  endfacet
  facet normal -0 0 -1
    outer loop
      vertex 7.50157 11.8206 -6
      vertex 2.27726 3.58839 -6
      vertex 5.96091 12.6676 -6
    endloop
  endfacet
  facet normal 0 0 -1
    outer loop
      vertex 1.80956 3.84551 -6
      vertex 5.96091 12.6676 -6
      vertex 2.27726 3.58839 -6
    endloop
  endfacet
  facet normal -0 0 -1
    outer loop
      vertex 5.96091 12.6676 -6
      vertex 1.80956 3.84551 -6
      vertex 4.32624 13.3148 -6
    endloop
  endfacet
  facet normal 0 0 -1
    outer loop
      vertex 1.31332 4.04199 -6
      vertex 4.32624 13.3148 -6
      vertex 1.80956 3.84551 -6
    endloop
  endfacet
  facet normal -0 0 -1
    outer loop
      vertex 4.32624 13.3148 -6
      vertex 1.31332 4.04199 -6
      vertex 2.62334 13.752 -6
    endloop
  endfacet
  facet normal 0 0 -1
    outer loop
      vertex 0.796371 4.17472 -6
      vertex 2.62334 13.752 -6
      vertex 1.31332 4.04199 -6
    endloop
  endfacet
  facet normal -0 0 -1
    outer loop
      vertex 2.62334 13.752 -6
      vertex 0.796371 4.17472 -6
      vertex 0.879066 13.9724 -6
    endloop
  endfacet
  facet normal 0 0 -1
    outer loop
      vertex 0.266859 4.24161 -6
      vertex 0.879066 13.9724 -6
      vertex 0.796371 4.17472 -6
    endloop
  endfacet
  facet normal 0 0 -1
    outer loop
      vertex -0.266859 4.24161 -6
      vertex 0.879066 13.9724 -6
      vertex 0.266859 4.24161 -6
    endloop
  endfacet
  facet normal 0 0 -1
    outer loop
      vertex -0.879066 13.9724 -6
      vertex -0.266859 4.24161 -6
      vertex -0.796371 4.17472 -6
    endloop
  endfacet
  facet normal 0 0 -1
    outer loop
      vertex -0.266859 4.24161 -6
      vertex -0.879066 13.9724 -6
      vertex 0.879066 13.9724 -6
    endloop
  endfacet
  facet normal 0 0 -1
    outer loop
      vertex -2.62334 13.752 -6
      vertex -0.796371 4.17472 -6
      vertex -1.31332 4.04199 -6
    endloop
  endfacet
  facet normal 0 0 -1
    outer loop
      vertex -4.32624 13.3148 -6
      vertex -1.31332 4.04199 -6
      vertex -1.80956 3.84551 -6
    endloop
  endfacet
  facet normal 0 0 -1
    outer loop
      vertex -5.96091 12.6676 -6
      vertex -1.80956 3.84551 -6
      vertex -2.27726 3.58839 -6
    endloop
  endfacet
  facet normal 0 0 -1
    outer loop
      vertex -0.796371 4.17472 -6
      vertex -2.62334 13.752 -6
      vertex -0.879066 13.9724 -6
    endloop
  endfacet
  facet normal 0 0 -1
    outer loop
      vertex -7.50157 11.8206 -6
      vertex -2.27726 3.58839 -6
      vertex -2.70905 3.27468 -6
    endloop
  endfacet
  facet normal 0 0 -1
    outer loop
      vertex -8.92393 10.7872 -6
      vertex -2.70905 3.27468 -6
      vertex -3.09812 2.90932 -6
    endloop
  endfacet
  facet normal 0 0 -1
    outer loop
      vertex -10.2056 9.58366 -6
      vertex -3.09812 2.90932 -6
      vertex -3.43832 2.49809 -6
    endloop
  endfacet
  facet normal 0 0 -1
    outer loop
      vertex -11.3262 8.22899 -6
      vertex -3.43832 2.49809 -6
      vertex -3.7243 2.04745 -6
    endloop
  endfacet
  facet normal 0 0 -1
    outer loop
      vertex -12.2683 6.74455 -6
      vertex -3.7243 2.04745 -6
      vertex -3.95155 1.56453 -6
    endloop
  endfacet
  facet normal 0 0 -1
    outer loop
      vertex -13.0169 5.15374 -6
      vertex -3.95155 1.56453 -6
      vertex -4.11648 1.05693 -6
    endloop
  endfacet
  facet normal 0 0 -1
    outer loop
      vertex -13.5602 3.48166 -6
      vertex -4.11648 1.05693 -6
      vertex -4.21649 0.532666 -6
    endloop
  endfacet
  facet normal 0 0 -1
    outer loop
      vertex -1.31332 4.04199 -6
      vertex -4.32624 13.3148 -6
      vertex -2.62334 13.752 -6
    endloop
  endfacet
  facet normal 0 0 -1
    outer loop
      vertex -13.8896 1.75466 -6
      vertex -4.21649 0.532666 -6
      vertex -4.25 0 -6
    endloop
  endfacet
  facet normal -0 0 -1
    outer loop
      vertex -3.43832 -2.49809 -6
      vertex -11.3262 -8.22899 -6
      vertex -3.7243 -2.04745 -6
    endloop
  endfacet
  facet normal 0 0 -1
    outer loop
      vertex -12.2683 -6.74455 -6
      vertex -3.7243 -2.04745 -6
      vertex -11.3262 -8.22899 -6
    endloop
  endfacet
  facet normal 0 0 -1
    outer loop
      vertex -1.80956 3.84551 -6
      vertex -5.96091 12.6676 -6
      vertex -4.32624 13.3148 -6
    endloop
  endfacet
  facet normal -0 0 -1
    outer loop
      vertex -3.7243 -2.04745 -6
      vertex -12.2683 -6.74455 -6
      vertex -3.95155 -1.56453 -6
    endloop
  endfacet
  facet normal 0 0 -1
    outer loop
      vertex -2.27726 3.58839 -6
      vertex -7.50157 11.8206 -6
      vertex -5.96091 12.6676 -6
    endloop
  endfacet
  facet normal 0 0 -1
    outer loop
      vertex -13.0169 -5.15374 -6
      vertex -3.95155 -1.56453 -6
      vertex -12.2683 -6.74455 -6
    endloop
  endfacet
  facet normal 0 0 -1
    outer loop
      vertex -2.70905 3.27468 -6
      vertex -8.92393 10.7872 -6
      vertex -7.50157 11.8206 -6
    endloop
  endfacet
  facet normal -0 0 -1
    outer loop
      vertex -3.95155 -1.56453 -6
      vertex -13.0169 -5.15374 -6
      vertex -4.11648 -1.05693 -6
    endloop
  endfacet
  facet normal 0 0 -1
    outer loop
      vertex -3.09812 2.90932 -6
      vertex -10.2056 9.58366 -6
      vertex -8.92393 10.7872 -6
    endloop
  endfacet
  facet normal 0 0 -1
    outer loop
      vertex -13.5602 -3.48166 -6
      vertex -4.11648 -1.05693 -6
      vertex -13.0169 -5.15374 -6
    endloop
  endfacet
  facet normal 0 0 -1
    outer loop
      vertex -3.43832 2.49809 -6
      vertex -11.3262 8.22899 -6
      vertex -10.2056 9.58366 -6
    endloop
  endfacet
  facet normal -0 0 -1
    outer loop
      vertex -4.11648 -1.05693 -6
      vertex -13.5602 -3.48166 -6
      vertex -4.21649 -0.532666 -6
    endloop
  endfacet
  facet normal 0 0 -1
    outer loop
      vertex -3.7243 2.04745 -6
      vertex -12.2683 6.74455 -6
      vertex -11.3262 8.22899 -6
    endloop
  endfacet
  facet normal 0 0 -1
    outer loop
      vertex -13.8896 -1.75466 -6
      vertex -4.21649 -0.532666 -6
      vertex -13.5602 -3.48166 -6
    endloop
  endfacet
  facet normal 0 0 -1
    outer loop
      vertex -3.95155 1.56453 -6
      vertex -13.0169 5.15374 -6
      vertex -12.2683 6.74455 -6
    endloop
  endfacet
  facet normal -0 0 -1
    outer loop
      vertex -4.21649 -0.532666 -6
      vertex -13.8896 -1.75466 -6
      vertex -4.25 0 -6
    endloop
  endfacet
  facet normal 0 0 -1
    outer loop
      vertex -4.11648 1.05693 -6
      vertex -13.5602 3.48166 -6
      vertex -13.0169 5.15374 -6
    endloop
  endfacet
  facet normal 0 0 -1
    outer loop
      vertex -14 0 -6
      vertex -4.25 0 -6
      vertex -13.8896 -1.75466 -6
    endloop
  endfacet
  facet normal 0 0 -1
    outer loop
      vertex -4.21649 0.532666 -6
      vertex -13.8896 1.75466 -6
      vertex -13.5602 3.48166 -6
    endloop
  endfacet
  facet normal 0 0 -1
    outer loop
      vertex -4.25 0 -6
      vertex -14 0 -6
      vertex -13.8896 1.75466 -6
    endloop
  endfacet
  facet normal 0.12536 -0.992111 0
    outer loop
      vertex 0.879066 -13.9724 -6
      vertex 2.62334 -13.752 6
      vertex 0.879066 -13.9724 6
    endloop
  endfacet
  facet normal 0.12536 -0.992111 0
    outer loop
      vertex 2.62334 -13.752 6
      vertex 0.879066 -13.9724 -6
      vertex 2.62334 -13.752 -6
    endloop
  endfacet
  facet normal 0.951055 0.309021 0
    outer loop
      vertex 13.5602 3.48166 6
      vertex 13.0169 5.15374 -6
      vertex 13.0169 5.15374 6
    endloop
  endfacet
  facet normal 0.951055 0.309021 0
    outer loop
      vertex 13.0169 5.15374 -6
      vertex 13.5602 3.48166 6
      vertex 13.5602 3.48166 -6
    endloop
  endfacet
  facet normal 0.982292 0.187358 0
    outer loop
      vertex 13.8896 1.75466 6
      vertex 13.5602 3.48166 -6
      vertex 13.5602 3.48166 6
    endloop
  endfacet
  facet normal 0.982292 0.187358 0
    outer loop
      vertex 13.5602 3.48166 -6
      vertex 13.8896 1.75466 6
      vertex 13.8896 1.75466 -6
    endloop
  endfacet
  facet normal 0.770536 0.637397 0
    outer loop
      vertex 11.3262 8.22899 6
      vertex 10.2056 9.58366 -6
      vertex 10.2056 9.58366 6
    endloop
  endfacet
  facet normal 0.770536 0.637397 0
    outer loop
      vertex 10.2056 9.58366 -6
      vertex 11.3262 8.22899 6
      vertex 11.3262 8.22899 -6
    endloop
  endfacet
  facet normal 0.844316 0.535845 0
    outer loop
      vertex 12.2683 6.74455 6
      vertex 11.3262 8.22899 -6
      vertex 11.3262 8.22899 6
    endloop
  endfacet
  facet normal 0.844316 0.535845 0
    outer loop
      vertex 11.3262 8.22899 -6
      vertex 12.2683 6.74455 6
      vertex 12.2683 6.74455 -6
    endloop
  endfacet
  facet normal 0.248674 0.968587 -0
    outer loop
      vertex 4.32624 13.3148 -6
      vertex 2.62334 13.752 6
      vertex 4.32624 13.3148 6
    endloop
  endfacet
  facet normal 0.248674 0.968587 0
    outer loop
      vertex 2.62334 13.752 6
      vertex 4.32624 13.3148 -6
      vertex 2.62334 13.752 -6
    endloop
  endfacet
  facet normal 0.12536 0.992111 -0
    outer loop
      vertex 2.62334 13.752 -6
      vertex 0.879066 13.9724 6
      vertex 2.62334 13.752 6
    endloop
  endfacet
  facet normal 0.12536 0.992111 0
    outer loop
      vertex 0.879066 13.9724 6
      vertex 2.62334 13.752 -6
      vertex 0.879066 13.9724 -6
    endloop
  endfacet
  facet normal 0.587783 0.809018 -0
    outer loop
      vertex 8.92393 10.7872 -6
      vertex 7.50157 11.8206 6
      vertex 8.92393 10.7872 6
    endloop
  endfacet
  facet normal 0.587783 0.809018 0
    outer loop
      vertex 7.50157 11.8206 6
      vertex 8.92393 10.7872 -6
      vertex 7.50157 11.8206 -6
    endloop
  endfacet
  facet normal -0.844316 0.535845 0
    outer loop
      vertex -12.2683 6.74455 -6
      vertex -11.3262 8.22899 6
      vertex -11.3262 8.22899 -6
    endloop
  endfacet
  facet normal -0.844316 0.535845 0
    outer loop
      vertex -11.3262 8.22899 6
      vertex -12.2683 6.74455 -6
      vertex -12.2683 6.74455 6
    endloop
  endfacet
  facet normal -0.951055 0.309021 0
    outer loop
      vertex -13.5602 3.48166 -6
      vertex -13.0169 5.15374 6
      vertex -13.0169 5.15374 -6
    endloop
  endfacet
  facet normal -0.951055 0.309021 0
    outer loop
      vertex -13.0169 5.15374 6
      vertex -13.5602 3.48166 -6
      vertex -13.5602 3.48166 6
    endloop
  endfacet
  facet normal -0.982292 0.187358 0
    outer loop
      vertex -13.8896 1.75466 -6
      vertex -13.5602 3.48166 6
      vertex -13.5602 3.48166 -6
    endloop
  endfacet
  facet normal -0.982292 0.187358 0
    outer loop
      vertex -13.5602 3.48166 6
      vertex -13.8896 1.75466 -6
      vertex -13.8896 1.75466 6
    endloop
  endfacet
  facet normal -0.48176 0.876303 0
    outer loop
      vertex -5.96091 12.6676 -6
      vertex -7.50157 11.8206 6
      vertex -5.96091 12.6676 6
    endloop
  endfacet
  facet normal -0.48176 0.876303 0
    outer loop
      vertex -7.50157 11.8206 6
      vertex -5.96091 12.6676 -6
      vertex -7.50157 11.8206 -6
    endloop
  endfacet
  facet normal -0.587783 0.809018 0
    outer loop
      vertex -7.50157 11.8206 -6
      vertex -8.92393 10.7872 6
      vertex -7.50157 11.8206 6
    endloop
  endfacet
  facet normal -0.587783 0.809018 0
    outer loop
      vertex -8.92393 10.7872 6
      vertex -7.50157 11.8206 -6
      vertex -8.92393 10.7872 -6
    endloop
  endfacet
  facet normal -0.12536 0.992111 0
    outer loop
      vertex -0.879066 13.9724 -6
      vertex -2.62334 13.752 6
      vertex -0.879066 13.9724 6
    endloop
  endfacet
  facet normal -0.12536 0.992111 0
    outer loop
      vertex -2.62334 13.752 6
      vertex -0.879066 13.9724 -6
      vertex -2.62334 13.752 -6
    endloop
  endfacet
  facet normal 0.998027 -0.062794 0
    outer loop
      vertex 13.8896 -1.75466 6
      vertex 14 0 -6
      vertex 14 0 6
    endloop
  endfacet
  facet normal 0.998027 -0.062794 0
    outer loop
      vertex 14 0 -6
      vertex 13.8896 -1.75466 6
      vertex 13.8896 -1.75466 -6
    endloop
  endfacet
  facet normal 0.770536 -0.637397 0
    outer loop
      vertex 10.2056 -9.58366 6
      vertex 11.3262 -8.22899 -6
      vertex 11.3262 -8.22899 6
    endloop
  endfacet
  facet normal 0.770536 -0.637397 0
    outer loop
      vertex 11.3262 -8.22899 -6
      vertex 10.2056 -9.58366 6
      vertex 10.2056 -9.58366 -6
    endloop
  endfacet
  facet normal -0.684539 -0.728977 0
    outer loop
      vertex -10.2056 -9.58366 -6
      vertex -8.92393 -10.7872 6
      vertex -10.2056 -9.58366 6
    endloop
  endfacet
  facet normal -0.684539 -0.728977 -0
    outer loop
      vertex -8.92393 -10.7872 6
      vertex -10.2056 -9.58366 -6
      vertex -8.92393 -10.7872 -6
    endloop
  endfacet
  facet normal -0.904822 -0.425789 0
    outer loop
      vertex -12.2683 -6.74455 -6
      vertex -13.0169 -5.15374 6
      vertex -13.0169 -5.15374 -6
    endloop
  endfacet
  facet normal -0.904822 -0.425789 0
    outer loop
      vertex -13.0169 -5.15374 6
      vertex -12.2683 -6.74455 -6
      vertex -12.2683 -6.74455 6
    endloop
  endfacet
  facet normal -0.770536 -0.637397 0
    outer loop
      vertex -10.2056 -9.58366 -6
      vertex -11.3262 -8.22899 6
      vertex -11.3262 -8.22899 -6
    endloop
  endfacet
  facet normal -0.770536 -0.637397 0
    outer loop
      vertex -11.3262 -8.22899 6
      vertex -10.2056 -9.58366 -6
      vertex -10.2056 -9.58366 6
    endloop
  endfacet
  facet normal 0.48176 -0.876303 0
    outer loop
      vertex 5.96091 -12.6676 -6
      vertex 7.50157 -11.8206 6
      vertex 5.96091 -12.6676 6
    endloop
  endfacet
  facet normal 0.48176 -0.876303 0
    outer loop
      vertex 7.50157 -11.8206 6
      vertex 5.96091 -12.6676 -6
      vertex 7.50157 -11.8206 -6
    endloop
  endfacet
  facet normal 0.951055 -0.309021 0
    outer loop
      vertex 13.0169 -5.15374 6
      vertex 13.5602 -3.48166 -6
      vertex 13.5602 -3.48166 6
    endloop
  endfacet
  facet normal 0.951055 -0.309021 0
    outer loop
      vertex 13.5602 -3.48166 -6
      vertex 13.0169 -5.15374 6
      vertex 13.0169 -5.15374 -6
    endloop
  endfacet
  facet normal 0.844316 -0.535845 0
    outer loop
      vertex 11.3262 -8.22899 6
      vertex 12.2683 -6.74455 -6
      vertex 12.2683 -6.74455 6
    endloop
  endfacet
  facet normal 0.844316 -0.535845 0
    outer loop
      vertex 12.2683 -6.74455 -6
      vertex 11.3262 -8.22899 6
      vertex 11.3262 -8.22899 -6
    endloop
  endfacet
  facet normal -0.982292 -0.187358 0
    outer loop
      vertex -13.5602 -3.48166 -6
      vertex -13.8896 -1.75466 6
      vertex -13.8896 -1.75466 -6
    endloop
  endfacet
  facet normal -0.982292 -0.187358 0
    outer loop
      vertex -13.8896 -1.75466 6
      vertex -13.5602 -3.48166 -6
      vertex -13.5602 -3.48166 6
    endloop
  endfacet
  facet normal -0.998027 -0.062794 0
    outer loop
      vertex -13.8896 -1.75466 -6
      vertex -14 0 6
      vertex -14 0 -6
    endloop
  endfacet
  facet normal -0.998027 -0.062794 0
    outer loop
      vertex -14 0 6
      vertex -13.8896 -1.75466 -6
      vertex -13.8896 -1.75466 6
    endloop
  endfacet
  facet normal -0.951055 -0.309021 0
    outer loop
      vertex -13.0169 -5.15374 -6
      vertex -13.5602 -3.48166 6
      vertex -13.5602 -3.48166 -6
    endloop
  endfacet
  facet normal -0.951055 -0.309021 0
    outer loop
      vertex -13.5602 -3.48166 6
      vertex -13.0169 -5.15374 -6
      vertex -13.0169 -5.15374 6
    endloop
  endfacet
  facet normal 0.684539 -0.728977 0
    outer loop
      vertex 8.92393 -10.7872 -6
      vertex 10.2056 -9.58366 6
      vertex 8.92393 -10.7872 6
    endloop
  endfacet
  facet normal 0.684539 -0.728977 0
    outer loop
      vertex 10.2056 -9.58366 6
      vertex 8.92393 -10.7872 -6
      vertex 10.2056 -9.58366 -6
    endloop
  endfacet
  facet normal 0.368119 -0.929779 0
    outer loop
      vertex 4.32624 -13.3148 -6
      vertex 5.96091 -12.6676 6
      vertex 4.32624 -13.3148 6
    endloop
  endfacet
  facet normal 0.368119 -0.929779 0
    outer loop
      vertex 5.96091 -12.6676 6
      vertex 4.32624 -13.3148 -6
      vertex 5.96091 -12.6676 -6
    endloop
  endfacet
  facet normal 0.248674 -0.968587 0
    outer loop
      vertex 2.62334 -13.752 -6
      vertex 4.32624 -13.3148 6
      vertex 2.62334 -13.752 6
    endloop
  endfacet
  facet normal 0.248674 -0.968587 0
    outer loop
      vertex 4.32624 -13.3148 6
      vertex 2.62334 -13.752 -6
      vertex 4.32624 -13.3148 -6
    endloop
  endfacet
  facet normal 0.982292 -0.187358 0
    outer loop
      vertex 13.5602 -3.48166 6
      vertex 13.8896 -1.75466 -6
      vertex 13.8896 -1.75466 6
    endloop
  endfacet
  facet normal 0.982292 -0.187358 0
    outer loop
      vertex 13.8896 -1.75466 -6
      vertex 13.5602 -3.48166 6
      vertex 13.5602 -3.48166 -6
    endloop
  endfacet
  facet normal -0.12536 -0.992111 0
    outer loop
      vertex -2.62334 -13.752 -6
      vertex -0.879066 -13.9724 6
      vertex -2.62334 -13.752 6
    endloop
  endfacet
  facet normal -0.12536 -0.992111 -0
    outer loop
      vertex -0.879066 -13.9724 6
      vertex -2.62334 -13.752 -6
      vertex -0.879066 -13.9724 -6
    endloop
  endfacet
  facet normal -0.587783 -0.809018 0
    outer loop
      vertex -8.92393 -10.7872 -6
      vertex -7.50157 -11.8206 6
      vertex -8.92393 -10.7872 6
    endloop
  endfacet
  facet normal -0.587783 -0.809018 -0
    outer loop
      vertex -7.50157 -11.8206 6
      vertex -8.92393 -10.7872 -6
      vertex -7.50157 -11.8206 -6
    endloop
  endfacet
  facet normal -0.844316 -0.535845 0
    outer loop
      vertex -11.3262 -8.22899 -6
      vertex -12.2683 -6.74455 6
      vertex -12.2683 -6.74455 -6
    endloop
  endfacet
  facet normal -0.844316 -0.535845 0
    outer loop
      vertex -12.2683 -6.74455 6
      vertex -11.3262 -8.22899 -6
      vertex -11.3262 -8.22899 6
    endloop
  endfacet
  facet normal 0.587783 -0.809018 0
    outer loop
      vertex 7.50157 -11.8206 -6
      vertex 8.92393 -10.7872 6
      vertex 7.50157 -11.8206 6
    endloop
  endfacet
  facet normal 0.587783 -0.809018 0
    outer loop
      vertex 8.92393 -10.7872 6
      vertex 7.50157 -11.8206 -6
      vertex 8.92393 -10.7872 -6
    endloop
  endfacet
  facet normal -0.248674 -0.968587 0
    outer loop
      vertex -4.32624 -13.3148 -6
      vertex -2.62334 -13.752 6
      vertex -4.32624 -13.3148 6
    endloop
  endfacet
  facet normal -0.248674 -0.968587 -0
    outer loop
      vertex -2.62334 -13.752 6
      vertex -4.32624 -13.3148 -6
      vertex -2.62334 -13.752 -6
    endloop
  endfacet
  facet normal -0.368119 -0.929779 0
    outer loop
      vertex -5.96091 -12.6676 -6
      vertex -4.32624 -13.3148 6
      vertex -5.96091 -12.6676 6
    endloop
  endfacet
  facet normal -0.368119 -0.929779 -0
    outer loop
      vertex -4.32624 -13.3148 6
      vertex -5.96091 -12.6676 -6
      vertex -4.32624 -13.3148 -6
    endloop
  endfacet
  facet normal -0.48176 -0.876303 0
    outer loop
      vertex -7.50157 -11.8206 -6
      vertex -5.96091 -12.6676 6
      vertex -7.50157 -11.8206 6
    endloop
  endfacet
  facet normal -0.48176 -0.876303 -0
    outer loop
      vertex -5.96091 -12.6676 6
      vertex -7.50157 -11.8206 -6
      vertex -5.96091 -12.6676 -6
    endloop
  endfacet
  facet normal -0.998027 -0.0627858 0
    outer loop
      vertex 4.25 0 -6
      vertex 4.21649 0.532666 6
      vertex 4.21649 0.532666 -6
    endloop
  endfacet
  facet normal -0.998027 -0.0627858 0
    outer loop
      vertex 4.21649 0.532666 6
      vertex 4.25 0 -6
      vertex 4.25 0 6
    endloop
  endfacet
  facet normal 0.998027 -0.0627858 0
    outer loop
      vertex -4.25 0 6
      vertex -4.21649 0.532666 -6
      vertex -4.21649 0.532666 6
    endloop
  endfacet
  facet normal 0.998027 -0.0627858 0
    outer loop
      vertex -4.21649 0.532666 -6
      vertex -4.25 0 6
      vertex -4.25 0 -6
    endloop
  endfacet
  facet normal 0 -1 0
    outer loop
      vertex -0.266859 4.24161 -6
      vertex 0.266859 4.24161 6
      vertex -0.266859 4.24161 6
    endloop
  endfacet
  facet normal 0 -1 -0
    outer loop
      vertex 0.266859 4.24161 6
      vertex -0.266859 4.24161 -6
      vertex 0.266859 4.24161 -6
    endloop
  endfacet
  facet normal 0 1 -0
    outer loop
      vertex 0.266859 -4.24161 -6
      vertex -0.266859 -4.24161 6
      vertex 0.266859 -4.24161 6
    endloop
  endfacet
  facet normal 0 1 0
    outer loop
      vertex -0.266859 -4.24161 6
      vertex 0.266859 -4.24161 -6
      vertex -0.266859 -4.24161 -6
    endloop
  endfacet
  facet normal -0.684546 -0.72897 0
    outer loop
      vertex 2.70905 3.27468 -6
      vertex 3.09812 2.90932 6
      vertex 2.70905 3.27468 6
    endloop
  endfacet
  facet normal -0.684546 -0.72897 -0
    outer loop
      vertex 3.09812 2.90932 6
      vertex 2.70905 3.27468 -6
      vertex 3.09812 2.90932 -6
    endloop
  endfacet
  facet normal 0.684546 -0.72897 0
    outer loop
      vertex -3.09812 2.90932 -6
      vertex -2.70905 3.27468 6
      vertex -3.09812 2.90932 6
    endloop
  endfacet
  facet normal 0.684546 -0.72897 0
    outer loop
      vertex -2.70905 3.27468 6
      vertex -3.09812 2.90932 -6
      vertex -2.70905 3.27468 -6
    endloop
  endfacet
  facet normal 0.368132 -0.929773 0
    outer loop
      vertex -1.80956 3.84551 -6
      vertex -1.31332 4.04199 6
      vertex -1.80956 3.84551 6
    endloop
  endfacet
  facet normal 0.368132 -0.929773 0
    outer loop
      vertex -1.31332 4.04199 6
      vertex -1.80956 3.84551 -6
      vertex -1.31332 4.04199 -6
    endloop
  endfacet
  facet normal -0.951056 0.309018 0
    outer loop
      vertex 3.95155 -1.56453 -6
      vertex 4.11648 -1.05693 6
      vertex 4.11648 -1.05693 -6
    endloop
  endfacet
  facet normal -0.951056 0.309018 0
    outer loop
      vertex 4.11648 -1.05693 6
      vertex 3.95155 -1.56453 -6
      vertex 3.95155 -1.56453 6
    endloop
  endfacet
  facet normal -0.904823 -0.425787 0
    outer loop
      vertex 3.95155 1.56453 -6
      vertex 3.7243 2.04745 6
      vertex 3.7243 2.04745 -6
    endloop
  endfacet
  facet normal -0.904823 -0.425787 0
    outer loop
      vertex 3.7243 2.04745 6
      vertex 3.95155 1.56453 -6
      vertex 3.95155 1.56453 6
    endloop
  endfacet
  facet normal -0.982287 -0.187384 0
    outer loop
      vertex 4.21649 0.532666 -6
      vertex 4.11648 1.05693 6
      vertex 4.11648 1.05693 -6
    endloop
  endfacet
  facet normal -0.982287 -0.187384 0
    outer loop
      vertex 4.11648 1.05693 6
      vertex 4.21649 0.532666 -6
      vertex 4.21649 0.532666 6
    endloop
  endfacet
  facet normal -0.844332 -0.53582 0
    outer loop
      vertex 3.7243 2.04745 -6
      vertex 3.43832 2.49809 6
      vertex 3.43832 2.49809 -6
    endloop
  endfacet
  facet normal -0.844332 -0.53582 0
    outer loop
      vertex 3.43832 2.49809 6
      vertex 3.7243 2.04745 -6
      vertex 3.7243 2.04745 6
    endloop
  endfacet
  facet normal -0.368132 -0.929773 0
    outer loop
      vertex 1.31332 4.04199 -6
      vertex 1.80956 3.84551 6
      vertex 1.31332 4.04199 6
    endloop
  endfacet
  facet normal -0.368132 -0.929773 -0
    outer loop
      vertex 1.80956 3.84551 6
      vertex 1.31332 4.04199 -6
      vertex 1.80956 3.84551 -6
    endloop
  endfacet
  facet normal -0.24869 -0.968583 0
    outer loop
      vertex 0.796371 4.17472 -6
      vertex 1.31332 4.04199 6
      vertex 0.796371 4.17472 6
    endloop
  endfacet
  facet normal -0.24869 -0.968583 -0
    outer loop
      vertex 1.31332 4.04199 6
      vertex 0.796371 4.17472 -6
      vertex 1.31332 4.04199 -6
    endloop
  endfacet
  facet normal -0.587781 -0.80902 0
    outer loop
      vertex 2.27726 3.58839 -6
      vertex 2.70905 3.27468 6
      vertex 2.27726 3.58839 6
    endloop
  endfacet
  facet normal -0.587781 -0.80902 -0
    outer loop
      vertex 2.70905 3.27468 6
      vertex 2.27726 3.58839 -6
      vertex 2.70905 3.27468 -6
    endloop
  endfacet
  facet normal 0.904823 -0.425787 0
    outer loop
      vertex -3.95155 1.56453 6
      vertex -3.7243 2.04745 -6
      vertex -3.7243 2.04745 6
    endloop
  endfacet
  facet normal 0.904823 -0.425787 0
    outer loop
      vertex -3.7243 2.04745 -6
      vertex -3.95155 1.56453 6
      vertex -3.95155 1.56453 -6
    endloop
  endfacet
  facet normal 0.951056 -0.309018 0
    outer loop
      vertex -4.11648 1.05693 6
      vertex -3.95155 1.56453 -6
      vertex -3.95155 1.56453 6
    endloop
  endfacet
  facet normal 0.951056 -0.309018 0
    outer loop
      vertex -3.95155 1.56453 -6
      vertex -4.11648 1.05693 6
      vertex -4.11648 1.05693 -6
    endloop
  endfacet
  facet normal 0.481753 -0.876307 0
    outer loop
      vertex -2.27726 3.58839 -6
      vertex -1.80956 3.84551 6
      vertex -2.27726 3.58839 6
    endloop
  endfacet
  facet normal 0.481753 -0.876307 0
    outer loop
      vertex -1.80956 3.84551 6
      vertex -2.27726 3.58839 -6
      vertex -1.80956 3.84551 -6
    endloop
  endfacet
  facet normal 0.125328 -0.992115 0
    outer loop
      vertex -0.796371 4.17472 -6
      vertex -0.266859 4.24161 6
      vertex -0.796371 4.17472 6
    endloop
  endfacet
  facet normal 0.125328 -0.992115 0
    outer loop
      vertex -0.266859 4.24161 6
      vertex -0.796371 4.17472 -6
      vertex -0.266859 4.24161 -6
    endloop
  endfacet
  facet normal -0.125328 0.992115 0
    outer loop
      vertex 0.796371 -4.17472 -6
      vertex 0.266859 -4.24161 6
      vertex 0.796371 -4.17472 6
    endloop
  endfacet
  facet normal -0.125328 0.992115 0
    outer loop
      vertex 0.266859 -4.24161 6
      vertex 0.796371 -4.17472 -6
      vertex 0.266859 -4.24161 -6
    endloop
  endfacet
  facet normal -0.951056 -0.309018 0
    outer loop
      vertex 4.11648 1.05693 -6
      vertex 3.95155 1.56453 6
      vertex 3.95155 1.56453 -6
    endloop
  endfacet
  facet normal -0.951056 -0.309018 0
    outer loop
      vertex 3.95155 1.56453 6
      vertex 4.11648 1.05693 -6
      vertex 4.11648 1.05693 6
    endloop
  endfacet
  facet normal -0.770512 -0.637425 0
    outer loop
      vertex 3.43832 2.49809 -6
      vertex 3.09812 2.90932 6
      vertex 3.09812 2.90932 -6
    endloop
  endfacet
  facet normal -0.770512 -0.637425 0
    outer loop
      vertex 3.09812 2.90932 6
      vertex 3.43832 2.49809 -6
      vertex 3.43832 2.49809 6
    endloop
  endfacet
  facet normal -0.125328 -0.992115 0
    outer loop
      vertex 0.266859 4.24161 -6
      vertex 0.796371 4.17472 6
      vertex 0.266859 4.24161 6
    endloop
  endfacet
  facet normal -0.125328 -0.992115 -0
    outer loop
      vertex 0.796371 4.17472 6
      vertex 0.266859 4.24161 -6
      vertex 0.796371 4.17472 -6
    endloop
  endfacet
  facet normal -0.481753 -0.876307 0
    outer loop
      vertex 1.80956 3.84551 -6
      vertex 2.27726 3.58839 6
      vertex 1.80956 3.84551 6
    endloop
  endfacet
  facet normal -0.481753 -0.876307 -0
    outer loop
      vertex 2.27726 3.58839 6
      vertex 1.80956 3.84551 -6
      vertex 2.27726 3.58839 -6
    endloop
  endfacet
  facet normal 0.844332 -0.53582 0
    outer loop
      vertex -3.7243 2.04745 6
      vertex -3.43832 2.49809 -6
      vertex -3.43832 2.49809 6
    endloop
  endfacet
  facet normal 0.844332 -0.53582 0
    outer loop
      vertex -3.43832 2.49809 -6
      vertex -3.7243 2.04745 6
      vertex -3.7243 2.04745 -6
    endloop
  endfacet
  facet normal 0.770512 -0.637425 0
    outer loop
      vertex -3.43832 2.49809 6
      vertex -3.09812 2.90932 -6
      vertex -3.09812 2.90932 6
    endloop
  endfacet
  facet normal 0.770512 -0.637425 0
    outer loop
      vertex -3.09812 2.90932 -6
      vertex -3.43832 2.49809 6
      vertex -3.43832 2.49809 -6
    endloop
  endfacet
  facet normal 0.982287 -0.187384 0
    outer loop
      vertex -4.21649 0.532666 6
      vertex -4.11648 1.05693 -6
      vertex -4.11648 1.05693 6
    endloop
  endfacet
  facet normal 0.982287 -0.187384 0
    outer loop
      vertex -4.11648 1.05693 -6
      vertex -4.21649 0.532666 6
      vertex -4.21649 0.532666 -6
    endloop
  endfacet
  facet normal 0.587781 -0.80902 0
    outer loop
      vertex -2.70905 3.27468 -6
      vertex -2.27726 3.58839 6
      vertex -2.70905 3.27468 6
    endloop
  endfacet
  facet normal 0.587781 -0.80902 0
    outer loop
      vertex -2.27726 3.58839 6
      vertex -2.70905 3.27468 -6
      vertex -2.27726 3.58839 -6
    endloop
  endfacet
  facet normal 0.24869 -0.968583 0
    outer loop
      vertex -1.31332 4.04199 -6
      vertex -0.796371 4.17472 6
      vertex -1.31332 4.04199 6
    endloop
  endfacet
  facet normal 0.24869 -0.968583 0
    outer loop
      vertex -0.796371 4.17472 6
      vertex -1.31332 4.04199 -6
      vertex -0.796371 4.17472 -6
    endloop
  endfacet
  facet normal -0.844332 0.53582 0
    outer loop
      vertex 3.43832 -2.49809 -6
      vertex 3.7243 -2.04745 6
      vertex 3.7243 -2.04745 -6
    endloop
  endfacet
  facet normal -0.844332 0.53582 0
    outer loop
      vertex 3.7243 -2.04745 6
      vertex 3.43832 -2.49809 -6
      vertex 3.43832 -2.49809 6
    endloop
  endfacet
  facet normal -0.982287 0.187384 0
    outer loop
      vertex 4.11648 -1.05693 -6
      vertex 4.21649 -0.532666 6
      vertex 4.21649 -0.532666 -6
    endloop
  endfacet
  facet normal -0.982287 0.187384 0
    outer loop
      vertex 4.21649 -0.532666 6
      vertex 4.11648 -1.05693 -6
      vertex 4.11648 -1.05693 6
    endloop
  endfacet
  facet normal -0.587781 0.80902 0
    outer loop
      vertex 2.70905 -3.27468 -6
      vertex 2.27726 -3.58839 6
      vertex 2.70905 -3.27468 6
    endloop
  endfacet
  facet normal -0.587781 0.80902 0
    outer loop
      vertex 2.27726 -3.58839 6
      vertex 2.70905 -3.27468 -6
      vertex 2.27726 -3.58839 -6
    endloop
  endfacet
  facet normal -0.904823 0.425787 0
    outer loop
      vertex 3.7243 -2.04745 -6
      vertex 3.95155 -1.56453 6
      vertex 3.95155 -1.56453 -6
    endloop
  endfacet
  facet normal -0.904823 0.425787 0
    outer loop
      vertex 3.95155 -1.56453 6
      vertex 3.7243 -2.04745 -6
      vertex 3.7243 -2.04745 6
    endloop
  endfacet
  facet normal -0.998027 0.0627858 0
    outer loop
      vertex 4.21649 -0.532666 -6
      vertex 4.25 0 6
      vertex 4.25 0 -6
    endloop
  endfacet
  facet normal -0.998027 0.0627858 0
    outer loop
      vertex 4.25 0 6
      vertex 4.21649 -0.532666 -6
      vertex 4.21649 -0.532666 6
    endloop
  endfacet
  facet normal 0.844332 0.53582 0
    outer loop
      vertex -3.43832 -2.49809 6
      vertex -3.7243 -2.04745 -6
      vertex -3.7243 -2.04745 6
    endloop
  endfacet
  facet normal 0.844332 0.53582 0
    outer loop
      vertex -3.7243 -2.04745 -6
      vertex -3.43832 -2.49809 6
      vertex -3.43832 -2.49809 -6
    endloop
  endfacet
  facet normal 0.951056 0.309018 0
    outer loop
      vertex -3.95155 -1.56453 6
      vertex -4.11648 -1.05693 -6
      vertex -4.11648 -1.05693 6
    endloop
  endfacet
  facet normal 0.951056 0.309018 0
    outer loop
      vertex -4.11648 -1.05693 -6
      vertex -3.95155 -1.56453 6
      vertex -3.95155 -1.56453 -6
    endloop
  endfacet
  facet normal -0.684546 0.72897 0
    outer loop
      vertex 3.09812 -2.90932 -6
      vertex 2.70905 -3.27468 6
      vertex 3.09812 -2.90932 6
    endloop
  endfacet
  facet normal -0.684546 0.72897 0
    outer loop
      vertex 2.70905 -3.27468 6
      vertex 3.09812 -2.90932 -6
      vertex 2.70905 -3.27468 -6
    endloop
  endfacet
  facet normal -0.24869 0.968583 0
    outer loop
      vertex 1.31332 -4.04199 -6
      vertex 0.796371 -4.17472 6
      vertex 1.31332 -4.04199 6
    endloop
  endfacet
  facet normal -0.24869 0.968583 0
    outer loop
      vertex 0.796371 -4.17472 6
      vertex 1.31332 -4.04199 -6
      vertex 0.796371 -4.17472 -6
    endloop
  endfacet
  facet normal -0.481753 0.876307 0
    outer loop
      vertex 2.27726 -3.58839 -6
      vertex 1.80956 -3.84551 6
      vertex 2.27726 -3.58839 6
    endloop
  endfacet
  facet normal -0.481753 0.876307 0
    outer loop
      vertex 1.80956 -3.84551 6
      vertex 2.27726 -3.58839 -6
      vertex 1.80956 -3.84551 -6
    endloop
  endfacet
  facet normal -0.368132 0.929773 0
    outer loop
      vertex 1.80956 -3.84551 -6
      vertex 1.31332 -4.04199 6
      vertex 1.80956 -3.84551 6
    endloop
  endfacet
  facet normal -0.368132 0.929773 0
    outer loop
      vertex 1.31332 -4.04199 6
      vertex 1.80956 -3.84551 -6
      vertex 1.31332 -4.04199 -6
    endloop
  endfacet
  facet normal 0.368132 0.929773 -0
    outer loop
      vertex -1.31332 -4.04199 -6
      vertex -1.80956 -3.84551 6
      vertex -1.31332 -4.04199 6
    endloop
  endfacet
  facet normal 0.368132 0.929773 0
    outer loop
      vertex -1.80956 -3.84551 6
      vertex -1.31332 -4.04199 -6
      vertex -1.80956 -3.84551 -6
    endloop
  endfacet
  facet normal 0.24869 0.968583 -0
    outer loop
      vertex -0.796371 -4.17472 -6
      vertex -1.31332 -4.04199 6
      vertex -0.796371 -4.17472 6
    endloop
  endfacet
  facet normal 0.24869 0.968583 0
    outer loop
      vertex -1.31332 -4.04199 6
      vertex -0.796371 -4.17472 -6
      vertex -1.31332 -4.04199 -6
    endloop
  endfacet
  facet normal 0.684546 0.72897 -0
    outer loop
      vertex -2.70905 -3.27468 -6
      vertex -3.09812 -2.90932 6
      vertex -2.70905 -3.27468 6
    endloop
  endfacet
  facet normal 0.684546 0.72897 0
    outer loop
      vertex -3.09812 -2.90932 6
      vertex -2.70905 -3.27468 -6
      vertex -3.09812 -2.90932 -6
    endloop
  endfacet
  facet normal 0.770512 0.637425 0
    outer loop
      vertex -3.09812 -2.90932 6
      vertex -3.43832 -2.49809 -6
      vertex -3.43832 -2.49809 6
    endloop
  endfacet
  facet normal 0.770512 0.637425 0
    outer loop
      vertex -3.43832 -2.49809 -6
      vertex -3.09812 -2.90932 6
      vertex -3.09812 -2.90932 -6
    endloop
  endfacet
  facet normal 0.904823 0.425787 0
    outer loop
      vertex -3.7243 -2.04745 6
      vertex -3.95155 -1.56453 -6
      vertex -3.95155 -1.56453 6
    endloop
  endfacet
  facet normal 0.904823 0.425787 0
    outer loop
      vertex -3.95155 -1.56453 -6
      vertex -3.7243 -2.04745 6
      vertex -3.7243 -2.04745 -6
    endloop
  endfacet
  facet normal 0.982287 0.187384 0
    outer loop
      vertex -4.11648 -1.05693 6
      vertex -4.21649 -0.532666 -6
      vertex -4.21649 -0.532666 6
    endloop
  endfacet
  facet normal 0.982287 0.187384 0
    outer loop
      vertex -4.21649 -0.532666 -6
      vertex -4.11648 -1.05693 6
      vertex -4.11648 -1.05693 -6
    endloop
  endfacet
  facet normal 0.998027 0.0627858 0
    outer loop
      vertex -4.21649 -0.532666 6
      vertex -4.25 0 -6
      vertex -4.25 0 6
    endloop
  endfacet
  facet normal 0.998027 0.0627858 0
    outer loop
      vertex -4.25 0 -6
      vertex -4.21649 -0.532666 6
      vertex -4.21649 -0.532666 -6
    endloop
  endfacet
  facet normal -0.770512 0.637425 0
    outer loop
      vertex 3.09812 -2.90932 -6
      vertex 3.43832 -2.49809 6
      vertex 3.43832 -2.49809 -6
    endloop
  endfacet
  facet normal -0.770512 0.637425 0
    outer loop
      vertex 3.43832 -2.49809 6
      vertex 3.09812 -2.90932 -6
      vertex 3.09812 -2.90932 6
    endloop
  endfacet
  facet normal 0.587781 0.80902 -0
    outer loop
      vertex -2.27726 -3.58839 -6
      vertex -2.70905 -3.27468 6
      vertex -2.27726 -3.58839 6
    endloop
  endfacet
  facet normal 0.587781 0.80902 0
    outer loop
      vertex -2.70905 -3.27468 6
      vertex -2.27726 -3.58839 -6
      vertex -2.70905 -3.27468 -6
    endloop
  endfacet
  facet normal 0.481753 0.876307 -0
    outer loop
      vertex -1.80956 -3.84551 -6
      vertex -2.27726 -3.58839 6
      vertex -1.80956 -3.84551 6
    endloop
  endfacet
  facet normal 0.481753 0.876307 0
    outer loop
      vertex -2.27726 -3.58839 6
      vertex -1.80956 -3.84551 -6
      vertex -2.27726 -3.58839 -6
    endloop
  endfacet
  facet normal 0.125328 0.992115 -0
    outer loop
      vertex -0.266859 -4.24161 -6
      vertex -0.796371 -4.17472 6
      vertex -0.266859 -4.24161 6
    endloop
  endfacet
  facet normal 0.125328 0.992115 0
    outer loop
      vertex -0.796371 -4.17472 6
      vertex -0.266859 -4.24161 -6
      vertex -0.796371 -4.17472 -6
    endloop
  endfacet
endsolid OpenSCAD_Model
