solid OpenSCAD_Model
  facet normal 0.998026 0.0628054 0
    outer loop
      vertex 19.5 0 10
      vertex 19.3462 2.444 -10
      vertex 19.3462 2.444 10
    endloop
  endfacet
  facet normal 0.998026 0.0628054 0
    outer loop
      vertex 19.3462 2.444 -10
      vertex 19.5 0 10
      vertex 19.5 0 -10
    endloop
  endfacet
  facet normal -0.998026 0.0628054 0
    outer loop
      vertex -19.5 0 -10
      vertex -19.3462 2.444 10
      vertex -19.3462 2.444 -10
    endloop
  endfacet
  facet normal -0.998026 0.0628054 0
    outer loop
      vertex -19.3462 2.444 10
      vertex -19.5 0 -10
      vertex -19.5 0 10
    endloop
  endfacet
  facet normal 0 1 -0
    outer loop
      vertex 1.22441 19.4615 -10
      vertex -1.22441 19.4615 10
      vertex 1.22441 19.4615 10
    endloop
  endfacet
  facet normal 0 1 0
    outer loop
      vertex -1.22441 19.4615 10
      vertex 1.22441 19.4615 -10
      vertex -1.22441 19.4615 -10
    endloop
  endfacet
  facet normal 0 -1 0
    outer loop
      vertex -1.22441 -19.4615 -10
      vertex 1.22441 -19.4615 10
      vertex -1.22441 -19.4615 10
    endloop
  endfacet
  facet normal 0 -1 -0
    outer loop
      vertex 1.22441 -19.4615 10
      vertex -1.22441 -19.4615 -10
      vertex 1.22441 -19.4615 -10
    endloop
  endfacet
  facet normal 0.684543 0.728973 -0
    outer loop
      vertex 14.2149 13.3487 -10
      vertex 12.4298 15.025 10
      vertex 14.2149 13.3487 10
    endloop
  endfacet
  facet normal 0.684543 0.728973 0
    outer loop
      vertex 12.4298 15.025 10
      vertex 14.2149 13.3487 -10
      vertex 12.4298 15.025 -10
    endloop
  endfacet
  facet normal -0.684543 0.728973 0
    outer loop
      vertex -12.4298 15.025 -10
      vertex -14.2149 13.3487 10
      vertex -12.4298 15.025 10
    endloop
  endfacet
  facet normal -0.684543 0.728973 0
    outer loop
      vertex -14.2149 13.3487 10
      vertex -12.4298 15.025 -10
      vertex -14.2149 13.3487 -10
    endloop
  endfacet
  facet normal -0.368133 0.929773 0
    outer loop
      vertex -6.02583 18.5456 -10
      vertex -8.3027 17.6441 10
      vertex -6.02583 18.5456 10
    endloop
  endfacet
  facet normal -0.368133 0.929773 0
    outer loop
      vertex -8.3027 17.6441 10
      vertex -6.02583 18.5456 -10
      vertex -8.3027 17.6441 -10
    endloop
  endfacet
  facet normal 0.904837 -0.425758 0
    outer loop
      vertex 17.088 -9.3942 10
      vertex 18.1306 -7.17843 -10
      vertex 18.1306 -7.17843 10
    endloop
  endfacet
  facet normal 0.904837 -0.425758 0
    outer loop
      vertex 18.1306 -7.17843 -10
      vertex 17.088 -9.3942 10
      vertex 17.088 -9.3942 -10
    endloop
  endfacet
  facet normal 0.904837 0.425758 0
    outer loop
      vertex 18.1306 7.17843 10
      vertex 17.088 9.3942 -10
      vertex 17.088 9.3942 10
    endloop
  endfacet
  facet normal 0.904837 0.425758 0
    outer loop
      vertex 17.088 9.3942 -10
      vertex 18.1306 7.17843 10
      vertex 18.1306 7.17843 -10
    endloop
  endfacet
  facet normal 0.844317 0.535845 0
    outer loop
      vertex 17.088 9.3942 10
      vertex 15.7758 11.4618 -10
      vertex 15.7758 11.4618 10
    endloop
  endfacet
  facet normal 0.844317 0.535845 0
    outer loop
      vertex 15.7758 11.4618 -10
      vertex 17.088 9.3942 10
      vertex 17.088 9.3942 -10
    endloop
  endfacet
  facet normal 0.368133 0.929773 -0
    outer loop
      vertex 8.3027 17.6441 -10
      vertex 6.02583 18.5456 10
      vertex 8.3027 17.6441 10
    endloop
  endfacet
  facet normal 0.368133 0.929773 0
    outer loop
      vertex 6.02583 18.5456 10
      vertex 8.3027 17.6441 -10
      vertex 6.02583 18.5456 -10
    endloop
  endfacet
  facet normal 0.481748 0.87631 -0
    outer loop
      vertex 10.4486 16.4644 -10
      vertex 8.3027 17.6441 10
      vertex 10.4486 16.4644 10
    endloop
  endfacet
  facet normal 0.481748 0.87631 0
    outer loop
      vertex 8.3027 17.6441 10
      vertex 10.4486 16.4644 -10
      vertex 8.3027 17.6441 -10
    endloop
  endfacet
  facet normal -0.904837 0.425758 0
    outer loop
      vertex -18.1306 7.17843 -10
      vertex -17.088 9.3942 10
      vertex -17.088 9.3942 -10
    endloop
  endfacet
  facet normal -0.904837 0.425758 0
    outer loop
      vertex -17.088 9.3942 10
      vertex -18.1306 7.17843 -10
      vertex -18.1306 7.17843 10
    endloop
  endfacet
  facet normal -0.770529 0.637405 0
    outer loop
      vertex -15.7758 11.4618 -10
      vertex -14.2149 13.3487 10
      vertex -14.2149 13.3487 -10
    endloop
  endfacet
  facet normal -0.770529 0.637405 0
    outer loop
      vertex -14.2149 13.3487 10
      vertex -15.7758 11.4618 -10
      vertex -15.7758 11.4618 10
    endloop
  endfacet
  facet normal -0.951048 0.309042 0
    outer loop
      vertex -18.8874 4.84945 -10
      vertex -18.1306 7.17843 10
      vertex -18.1306 7.17843 -10
    endloop
  endfacet
  facet normal -0.951048 0.309042 0
    outer loop
      vertex -18.1306 7.17843 10
      vertex -18.8874 4.84945 -10
      vertex -18.8874 4.84945 10
    endloop
  endfacet
  facet normal -0.248691 0.968583 0
    outer loop
      vertex -3.65394 19.1546 -10
      vertex -6.02583 18.5456 10
      vertex -3.65394 19.1546 10
    endloop
  endfacet
  facet normal -0.248691 0.968583 0
    outer loop
      vertex -6.02583 18.5456 10
      vertex -3.65394 19.1546 -10
      vertex -6.02583 18.5456 -10
    endloop
  endfacet
  facet normal 0.951048 0.309042 0
    outer loop
      vertex 18.8874 4.84945 10
      vertex 18.1306 7.17843 -10
      vertex 18.1306 7.17843 10
    endloop
  endfacet
  facet normal 0.951048 0.309042 0
    outer loop
      vertex 18.1306 7.17843 -10
      vertex 18.8874 4.84945 10
      vertex 18.8874 4.84945 -10
    endloop
  endfacet
  facet normal 0.982292 0.187356 0
    outer loop
      vertex 19.3462 2.444 10
      vertex 18.8874 4.84945 -10
      vertex 18.8874 4.84945 10
    endloop
  endfacet
  facet normal 0.982292 0.187356 0
    outer loop
      vertex 18.8874 4.84945 -10
      vertex 19.3462 2.444 10
      vertex 19.3462 2.444 -10
    endloop
  endfacet
  facet normal 0.770529 0.637405 0
    outer loop
      vertex 15.7758 11.4618 10
      vertex 14.2149 13.3487 -10
      vertex 14.2149 13.3487 10
    endloop
  endfacet
  facet normal 0.770529 0.637405 0
    outer loop
      vertex 14.2149 13.3487 -10
      vertex 15.7758 11.4618 10
      vertex 15.7758 11.4618 -10
    endloop
  endfacet
  facet normal 0.248691 0.968583 -0
    outer loop
      vertex 6.02583 18.5456 -10
      vertex 3.65394 19.1546 10
      vertex 6.02583 18.5456 10
    endloop
  endfacet
  facet normal 0.248691 0.968583 0
    outer loop
      vertex 3.65394 19.1546 10
      vertex 6.02583 18.5456 -10
      vertex 3.65394 19.1546 -10
    endloop
  endfacet
  facet normal 0.125325 0.992116 -0
    outer loop
      vertex 3.65394 19.1546 -10
      vertex 1.22441 19.4615 10
      vertex 3.65394 19.1546 10
    endloop
  endfacet
  facet normal 0.125325 0.992116 0
    outer loop
      vertex 1.22441 19.4615 10
      vertex 3.65394 19.1546 -10
      vertex 1.22441 19.4615 -10
    endloop
  endfacet
  facet normal 0.587778 0.809022 -0
    outer loop
      vertex 12.4298 15.025 -10
      vertex 10.4486 16.4644 10
      vertex 12.4298 15.025 10
    endloop
  endfacet
  facet normal 0.587778 0.809022 0
    outer loop
      vertex 10.4486 16.4644 10
      vertex 12.4298 15.025 -10
      vertex 10.4486 16.4644 -10
    endloop
  endfacet
  facet normal -0.844317 0.535845 0
    outer loop
      vertex -17.088 9.3942 -10
      vertex -15.7758 11.4618 10
      vertex -15.7758 11.4618 -10
    endloop
  endfacet
  facet normal -0.844317 0.535845 0
    outer loop
      vertex -15.7758 11.4618 10
      vertex -17.088 9.3942 -10
      vertex -17.088 9.3942 10
    endloop
  endfacet
  facet normal -0.982292 0.187356 0
    outer loop
      vertex -19.3462 2.444 -10
      vertex -18.8874 4.84945 10
      vertex -18.8874 4.84945 -10
    endloop
  endfacet
  facet normal -0.982292 0.187356 0
    outer loop
      vertex -18.8874 4.84945 10
      vertex -19.3462 2.444 -10
      vertex -19.3462 2.444 10
    endloop
  endfacet
  facet normal 0 0 1
    outer loop
      vertex 4.5 0 10
      vertex 19.5 0 10
      vertex 19.3462 2.444 10
    endloop
  endfacet
  facet normal 0 0 1
    outer loop
      vertex 4.46452 0.563999 10
      vertex 19.3462 2.444 10
      vertex 18.8874 4.84945 10
    endloop
  endfacet
  facet normal 0 0 1
    outer loop
      vertex 19.5 0 10
      vertex 4.5 0 10
      vertex 19.3462 -2.444 10
    endloop
  endfacet
  facet normal 0 0 1
    outer loop
      vertex 4.35862 1.1191 10
      vertex 18.8874 4.84945 10
      vertex 18.1306 7.17843 10
    endloop
  endfacet
  facet normal -0 0 1
    outer loop
      vertex 4.46452 -0.563999 10
      vertex 19.3462 -2.444 10
      vertex 4.5 0 10
    endloop
  endfacet
  facet normal 0 0 1
    outer loop
      vertex 4.18399 1.65656 10
      vertex 18.1306 7.17843 10
      vertex 17.088 9.3942 10
    endloop
  endfacet
  facet normal 0 0 1
    outer loop
      vertex 19.3462 -2.444 10
      vertex 4.46452 -0.563999 10
      vertex 18.8874 -4.84945 10
    endloop
  endfacet
  facet normal 0 0 1
    outer loop
      vertex 3.94338 2.16789 10
      vertex 17.088 9.3942 10
      vertex 15.7758 11.4618 10
    endloop
  endfacet
  facet normal -0 0 1
    outer loop
      vertex 4.35862 -1.1191 10
      vertex 18.8874 -4.84945 10
      vertex 4.46452 -0.563999 10
    endloop
  endfacet
  facet normal 0 0 1
    outer loop
      vertex 3.64058 2.64503 10
      vertex 15.7758 11.4618 10
      vertex 14.2149 13.3487 10
    endloop
  endfacet
  facet normal 0 0 1
    outer loop
      vertex 18.8874 -4.84945 10
      vertex 4.35862 -1.1191 10
      vertex 18.1306 -7.17843 10
    endloop
  endfacet
  facet normal 0 0 1
    outer loop
      vertex 3.28036 3.08046 10
      vertex 14.2149 13.3487 10
      vertex 12.4298 15.025 10
    endloop
  endfacet
  facet normal -0 0 1
    outer loop
      vertex 4.18399 -1.65656 10
      vertex 18.1306 -7.17843 10
      vertex 4.35862 -1.1191 10
    endloop
  endfacet
  facet normal 0 0 1
    outer loop
      vertex 2.86841 3.46731 10
      vertex 12.4298 15.025 10
      vertex 10.4486 16.4644 10
    endloop
  endfacet
  facet normal 0 0 1
    outer loop
      vertex 18.1306 -7.17843 10
      vertex 4.18399 -1.65656 10
      vertex 17.088 -9.3942 10
    endloop
  endfacet
  facet normal 0 0 1
    outer loop
      vertex 2.41122 3.79947 10
      vertex 10.4486 16.4644 10
      vertex 8.3027 17.6441 10
    endloop
  endfacet
  facet normal -0 0 1
    outer loop
      vertex 3.94338 -2.16789 10
      vertex 17.088 -9.3942 10
      vertex 4.18399 -1.65656 10
    endloop
  endfacet
  facet normal 0 0 1
    outer loop
      vertex 1.91601 4.07172 10
      vertex 8.3027 17.6441 10
      vertex 6.02583 18.5456 10
    endloop
  endfacet
  facet normal 0 0 1
    outer loop
      vertex 17.088 -9.3942 10
      vertex 3.94338 -2.16789 10
      vertex 15.7758 -11.4618 10
    endloop
  endfacet
  facet normal -0 0 1
    outer loop
      vertex 3.64058 -2.64503 10
      vertex 15.7758 -11.4618 10
      vertex 3.94338 -2.16789 10
    endloop
  endfacet
  facet normal 0 0 1
    outer loop
      vertex 19.3462 2.444 10
      vertex 4.46452 0.563999 10
      vertex 4.5 0 10
    endloop
  endfacet
  facet normal 0 0 1
    outer loop
      vertex 18.8874 4.84945 10
      vertex 4.35862 1.1191 10
      vertex 4.46452 0.563999 10
    endloop
  endfacet
  facet normal 0 0 1
    outer loop
      vertex 18.1306 7.17843 10
      vertex 4.18399 1.65656 10
      vertex 4.35862 1.1191 10
    endloop
  endfacet
  facet normal 0 0 1
    outer loop
      vertex 17.088 9.3942 10
      vertex 3.94338 2.16789 10
      vertex 4.18399 1.65656 10
    endloop
  endfacet
  facet normal 0 0 1
    outer loop
      vertex 1.39058 4.27975 10
      vertex 6.02583 18.5456 10
      vertex 3.65394 19.1546 10
    endloop
  endfacet
  facet normal 0 0 1
    outer loop
      vertex 15.7758 11.4618 10
      vertex 3.64058 2.64503 10
      vertex 3.94338 2.16789 10
    endloop
  endfacet
  facet normal 0 0 1
    outer loop
      vertex 14.2149 13.3487 10
      vertex 3.28036 3.08046 10
      vertex 3.64058 2.64503 10
    endloop
  endfacet
  facet normal 0 0 1
    outer loop
      vertex 12.4298 15.025 10
      vertex 2.86841 3.46731 10
      vertex 3.28036 3.08046 10
    endloop
  endfacet
  facet normal 0 0 1
    outer loop
      vertex 10.4486 16.4644 10
      vertex 2.41122 3.79947 10
      vertex 2.86841 3.46731 10
    endloop
  endfacet
  facet normal 0 0 1
    outer loop
      vertex 8.3027 17.6441 10
      vertex 1.91601 4.07172 10
      vertex 2.41122 3.79947 10
    endloop
  endfacet
  facet normal 0 0 1
    outer loop
      vertex 6.02583 18.5456 10
      vertex 1.39058 4.27975 10
      vertex 1.91601 4.07172 10
    endloop
  endfacet
  facet normal 0 0 1
    outer loop
      vertex 0.843215 4.42029 10
      vertex 3.65394 19.1546 10
      vertex 1.22441 19.4615 10
    endloop
  endfacet
  facet normal 0 0 1
    outer loop
      vertex 3.65394 19.1546 10
      vertex 0.843215 4.42029 10
      vertex 1.39058 4.27975 10
    endloop
  endfacet
  facet normal 0 0 1
    outer loop
      vertex 1.22441 19.4615 10
      vertex 0.282557 4.49112 10
      vertex 0.843215 4.42029 10
    endloop
  endfacet
  facet normal 0 0 1
    outer loop
      vertex 1.22441 19.4615 10
      vertex -0.282557 4.49112 10
      vertex 0.282557 4.49112 10
    endloop
  endfacet
  facet normal -0 0 1
    outer loop
      vertex -1.22441 19.4615 10
      vertex -0.282557 4.49112 10
      vertex 1.22441 19.4615 10
    endloop
  endfacet
  facet normal 0 0 1
    outer loop
      vertex -0.282557 4.49112 10
      vertex -1.22441 19.4615 10
      vertex -0.843215 4.42029 10
    endloop
  endfacet
  facet normal -0 0 1
    outer loop
      vertex -3.65394 19.1546 10
      vertex -0.843215 4.42029 10
      vertex -1.22441 19.4615 10
    endloop
  endfacet
  facet normal 0 0 1
    outer loop
      vertex -0.843215 4.42029 10
      vertex -3.65394 19.1546 10
      vertex -1.39058 4.27975 10
    endloop
  endfacet
  facet normal -0 0 1
    outer loop
      vertex -6.02583 18.5456 10
      vertex -1.39058 4.27975 10
      vertex -3.65394 19.1546 10
    endloop
  endfacet
  facet normal 0 0 1
    outer loop
      vertex -1.39058 4.27975 10
      vertex -6.02583 18.5456 10
      vertex -1.91601 4.07172 10
    endloop
  endfacet
  facet normal -0 0 1
    outer loop
      vertex -8.3027 17.6441 10
      vertex -1.91601 4.07172 10
      vertex -6.02583 18.5456 10
    endloop
  endfacet
  facet normal 0 0 1
    outer loop
      vertex -1.91601 4.07172 10
      vertex -8.3027 17.6441 10
      vertex -2.41122 3.79947 10
    endloop
  endfacet
  facet normal -0 0 1
    outer loop
      vertex -10.4486 16.4644 10
      vertex -2.41122 3.79947 10
      vertex -8.3027 17.6441 10
    endloop
  endfacet
  facet normal 0 0 1
    outer loop
      vertex -2.41122 3.79947 10
      vertex -10.4486 16.4644 10
      vertex -2.86841 3.46731 10
    endloop
  endfacet
  facet normal -0 0 1
    outer loop
      vertex -12.4298 15.025 10
      vertex -2.86841 3.46731 10
      vertex -10.4486 16.4644 10
    endloop
  endfacet
  facet normal 0 0 1
    outer loop
      vertex -2.86841 3.46731 10
      vertex -12.4298 15.025 10
      vertex -3.28036 3.08046 10
    endloop
  endfacet
  facet normal -0 0 1
    outer loop
      vertex -14.2149 13.3487 10
      vertex -3.28036 3.08046 10
      vertex -12.4298 15.025 10
    endloop
  endfacet
  facet normal 0 0 1
    outer loop
      vertex -3.28036 3.08046 10
      vertex -14.2149 13.3487 10
      vertex -3.64058 2.64503 10
    endloop
  endfacet
  facet normal -0 0 1
    outer loop
      vertex -15.7758 11.4618 10
      vertex -3.64058 2.64503 10
      vertex -14.2149 13.3487 10
    endloop
  endfacet
  facet normal 0 0 1
    outer loop
      vertex 15.7758 -11.4618 10
      vertex 3.64058 -2.64503 10
      vertex 14.2149 -13.3487 10
    endloop
  endfacet
  facet normal -0 0 1
    outer loop
      vertex 3.28036 -3.08046 10
      vertex 14.2149 -13.3487 10
      vertex 3.64058 -2.64503 10
    endloop
  endfacet
  facet normal 0 0 1
    outer loop
      vertex 14.2149 -13.3487 10
      vertex 3.28036 -3.08046 10
      vertex 12.4298 -15.025 10
    endloop
  endfacet
  facet normal -0 0 1
    outer loop
      vertex 2.86841 -3.46731 10
      vertex 12.4298 -15.025 10
      vertex 3.28036 -3.08046 10
    endloop
  endfacet
  facet normal 0 0 1
    outer loop
      vertex 12.4298 -15.025 10
      vertex 2.86841 -3.46731 10
      vertex 10.4486 -16.4644 10
    endloop
  endfacet
  facet normal -0 0 1
    outer loop
      vertex 2.41122 -3.79947 10
      vertex 10.4486 -16.4644 10
      vertex 2.86841 -3.46731 10
    endloop
  endfacet
  facet normal 0 0 1
    outer loop
      vertex 10.4486 -16.4644 10
      vertex 2.41122 -3.79947 10
      vertex 8.3027 -17.6441 10
    endloop
  endfacet
  facet normal -0 0 1
    outer loop
      vertex 1.91601 -4.07172 10
      vertex 8.3027 -17.6441 10
      vertex 2.41122 -3.79947 10
    endloop
  endfacet
  facet normal 0 0 1
    outer loop
      vertex 8.3027 -17.6441 10
      vertex 1.91601 -4.07172 10
      vertex 6.02583 -18.5456 10
    endloop
  endfacet
  facet normal -0 0 1
    outer loop
      vertex 1.39058 -4.27975 10
      vertex 6.02583 -18.5456 10
      vertex 1.91601 -4.07172 10
    endloop
  endfacet
  facet normal 0 0 1
    outer loop
      vertex 6.02583 -18.5456 10
      vertex 1.39058 -4.27975 10
      vertex 3.65394 -19.1546 10
    endloop
  endfacet
  facet normal -0 0 1
    outer loop
      vertex 0.843215 -4.42029 10
      vertex 3.65394 -19.1546 10
      vertex 1.39058 -4.27975 10
    endloop
  endfacet
  facet normal 0 0 1
    outer loop
      vertex 3.65394 -19.1546 10
      vertex 0.843215 -4.42029 10
      vertex 1.22441 -19.4615 10
    endloop
  endfacet
  facet normal -0 0 1
    outer loop
      vertex 0.282557 -4.49112 10
      vertex 1.22441 -19.4615 10
      vertex 0.843215 -4.42029 10
    endloop
  endfacet
  facet normal -0 0 1
    outer loop
      vertex -0.282557 -4.49112 10
      vertex 1.22441 -19.4615 10
      vertex 0.282557 -4.49112 10
    endloop
  endfacet
  facet normal 0 0 1
    outer loop
      vertex -1.22441 -19.4615 10
      vertex -0.282557 -4.49112 10
      vertex -0.843215 -4.42029 10
    endloop
  endfacet
  facet normal 0 0 1
    outer loop
      vertex -0.282557 -4.49112 10
      vertex -1.22441 -19.4615 10
      vertex 1.22441 -19.4615 10
    endloop
  endfacet
  facet normal 0 0 1
    outer loop
      vertex -3.65394 -19.1546 10
      vertex -0.843215 -4.42029 10
      vertex -1.39058 -4.27975 10
    endloop
  endfacet
  facet normal 0 0 1
    outer loop
      vertex -6.02583 -18.5456 10
      vertex -1.39058 -4.27975 10
      vertex -1.91601 -4.07172 10
    endloop
  endfacet
  facet normal 0 0 1
    outer loop
      vertex -8.3027 -17.6441 10
      vertex -1.91601 -4.07172 10
      vertex -2.41122 -3.79947 10
    endloop
  endfacet
  facet normal 0 0 1
    outer loop
      vertex -10.4486 -16.4644 10
      vertex -2.41122 -3.79947 10
      vertex -2.86841 -3.46731 10
    endloop
  endfacet
  facet normal 0 0 1
    outer loop
      vertex -12.4298 -15.025 10
      vertex -2.86841 -3.46731 10
      vertex -3.28036 -3.08046 10
    endloop
  endfacet
  facet normal 0 0 1
    outer loop
      vertex -14.2149 -13.3487 10
      vertex -3.28036 -3.08046 10
      vertex -3.64058 -2.64503 10
    endloop
  endfacet
  facet normal 0 0 1
    outer loop
      vertex -0.843215 -4.42029 10
      vertex -3.65394 -19.1546 10
      vertex -1.22441 -19.4615 10
    endloop
  endfacet
  facet normal 0 0 1
    outer loop
      vertex -15.7758 -11.4618 10
      vertex -3.64058 -2.64503 10
      vertex -3.94338 -2.16789 10
    endloop
  endfacet
  facet normal 0 0 1
    outer loop
      vertex -17.088 -9.3942 10
      vertex -3.94338 -2.16789 10
      vertex -4.18399 -1.65656 10
    endloop
  endfacet
  facet normal 0 0 1
    outer loop
      vertex -18.1306 -7.17843 10
      vertex -4.18399 -1.65656 10
      vertex -4.35862 -1.1191 10
    endloop
  endfacet
  facet normal 0 0 1
    outer loop
      vertex -18.8874 -4.84945 10
      vertex -4.35862 -1.1191 10
      vertex -4.46452 -0.563999 10
    endloop
  endfacet
  facet normal 0 0 1
    outer loop
      vertex -19.3462 -2.444 10
      vertex -4.46452 -0.563999 10
      vertex -4.5 0 10
    endloop
  endfacet
  facet normal 0 0 1
    outer loop
      vertex -3.64058 2.64503 10
      vertex -15.7758 11.4618 10
      vertex -3.94338 2.16789 10
    endloop
  endfacet
  facet normal 0 0 1
    outer loop
      vertex -1.39058 -4.27975 10
      vertex -6.02583 -18.5456 10
      vertex -3.65394 -19.1546 10
    endloop
  endfacet
  facet normal -0 0 1
    outer loop
      vertex -17.088 9.3942 10
      vertex -3.94338 2.16789 10
      vertex -15.7758 11.4618 10
    endloop
  endfacet
  facet normal 0 0 1
    outer loop
      vertex -1.91601 -4.07172 10
      vertex -8.3027 -17.6441 10
      vertex -6.02583 -18.5456 10
    endloop
  endfacet
  facet normal 0 0 1
    outer loop
      vertex -3.94338 2.16789 10
      vertex -17.088 9.3942 10
      vertex -4.18399 1.65656 10
    endloop
  endfacet
  facet normal 0 0 1
    outer loop
      vertex -2.41122 -3.79947 10
      vertex -10.4486 -16.4644 10
      vertex -8.3027 -17.6441 10
    endloop
  endfacet
  facet normal -0 0 1
    outer loop
      vertex -18.1306 7.17843 10
      vertex -4.18399 1.65656 10
      vertex -17.088 9.3942 10
    endloop
  endfacet
  facet normal 0 0 1
    outer loop
      vertex -2.86841 -3.46731 10
      vertex -12.4298 -15.025 10
      vertex -10.4486 -16.4644 10
    endloop
  endfacet
  facet normal 0 0 1
    outer loop
      vertex -4.18399 1.65656 10
      vertex -18.1306 7.17843 10
      vertex -4.35862 1.1191 10
    endloop
  endfacet
  facet normal 0 0 1
    outer loop
      vertex -3.28036 -3.08046 10
      vertex -14.2149 -13.3487 10
      vertex -12.4298 -15.025 10
    endloop
  endfacet
  facet normal -0 0 1
    outer loop
      vertex -18.8874 4.84945 10
      vertex -4.35862 1.1191 10
      vertex -18.1306 7.17843 10
    endloop
  endfacet
  facet normal 0 0 1
    outer loop
      vertex -3.64058 -2.64503 10
      vertex -15.7758 -11.4618 10
      vertex -14.2149 -13.3487 10
    endloop
  endfacet
  facet normal 0 0 1
    outer loop
      vertex -4.35862 1.1191 10
      vertex -18.8874 4.84945 10
      vertex -4.46452 0.563999 10
    endloop
  endfacet
  facet normal 0 0 1
    outer loop
      vertex -3.94338 -2.16789 10
      vertex -17.088 -9.3942 10
      vertex -15.7758 -11.4618 10
    endloop
  endfacet
  facet normal -0 0 1
    outer loop
      vertex -19.3462 2.444 10
      vertex -4.46452 0.563999 10
      vertex -18.8874 4.84945 10
    endloop
  endfacet
  facet normal 0 0 1
    outer loop
      vertex -4.18399 -1.65656 10
      vertex -18.1306 -7.17843 10
      vertex -17.088 -9.3942 10
    endloop
  endfacet
  facet normal 0 0 1
    outer loop
      vertex -4.46452 0.563999 10
      vertex -19.3462 2.444 10
      vertex -4.5 0 10
    endloop
  endfacet
  facet normal 0 0 1
    outer loop
      vertex -4.35862 -1.1191 10
      vertex -18.8874 -4.84945 10
      vertex -18.1306 -7.17843 10
    endloop
  endfacet
  facet normal 0 0 1
    outer loop
      vertex -19.5 0 10
      vertex -4.5 0 10
      vertex -19.3462 2.444 10
    endloop
  endfacet
  facet normal 0 0 1
    outer loop
      vertex -4.46452 -0.563999 10
      vertex -19.3462 -2.444 10
      vertex -18.8874 -4.84945 10
    endloop
  endfacet
  facet normal 0 0 1
    outer loop
      vertex -4.5 0 10
      vertex -19.5 0 10
      vertex -19.3462 -2.444 10
    endloop
  endfacet
  facet normal -0.481748 0.87631 0
    outer loop
      vertex -8.3027 17.6441 -10
      vertex -10.4486 16.4644 10
      vertex -8.3027 17.6441 10
    endloop
  endfacet
  facet normal -0.481748 0.87631 0
    outer loop
      vertex -10.4486 16.4644 10
      vertex -8.3027 17.6441 -10
      vertex -10.4486 16.4644 -10
    endloop
  endfacet
  facet normal -0.587778 0.809022 0
    outer loop
      vertex -10.4486 16.4644 -10
      vertex -12.4298 15.025 10
      vertex -10.4486 16.4644 10
    endloop
  endfacet
  facet normal -0.587778 0.809022 0
    outer loop
      vertex -12.4298 15.025 10
      vertex -10.4486 16.4644 -10
      vertex -12.4298 15.025 -10
    endloop
  endfacet
  facet normal -0.125325 0.992116 0
    outer loop
      vertex -1.22441 19.4615 -10
      vertex -3.65394 19.1546 10
      vertex -1.22441 19.4615 10
    endloop
  endfacet
  facet normal -0.125325 0.992116 0
    outer loop
      vertex -3.65394 19.1546 10
      vertex -1.22441 19.4615 -10
      vertex -3.65394 19.1546 -10
    endloop
  endfacet
  facet normal 0.998026 -0.0628054 0
    outer loop
      vertex 19.3462 -2.444 10
      vertex 19.5 0 -10
      vertex 19.5 0 10
    endloop
  endfacet
  facet normal 0.998026 -0.0628054 0
    outer loop
      vertex 19.5 0 -10
      vertex 19.3462 -2.444 10
      vertex 19.3462 -2.444 -10
    endloop
  endfacet
  facet normal 0.770529 -0.637405 0
    outer loop
      vertex 14.2149 -13.3487 10
      vertex 15.7758 -11.4618 -10
      vertex 15.7758 -11.4618 10
    endloop
  endfacet
  facet normal 0.770529 -0.637405 0
    outer loop
      vertex 15.7758 -11.4618 -10
      vertex 14.2149 -13.3487 10
      vertex 14.2149 -13.3487 -10
    endloop
  endfacet
  facet normal 0.951048 -0.309042 0
    outer loop
      vertex 18.1306 -7.17843 10
      vertex 18.8874 -4.84945 -10
      vertex 18.8874 -4.84945 10
    endloop
  endfacet
  facet normal 0.951048 -0.309042 0
    outer loop
      vertex 18.8874 -4.84945 -10
      vertex 18.1306 -7.17843 10
      vertex 18.1306 -7.17843 -10
    endloop
  endfacet
  facet normal 0.982292 -0.187356 0
    outer loop
      vertex 18.8874 -4.84945 10
      vertex 19.3462 -2.444 -10
      vertex 19.3462 -2.444 10
    endloop
  endfacet
  facet normal 0.982292 -0.187356 0
    outer loop
      vertex 19.3462 -2.444 -10
      vertex 18.8874 -4.84945 10
      vertex 18.8874 -4.84945 -10
    endloop
  endfacet
  facet normal -0.904837 -0.425758 0
    outer loop
      vertex -17.088 -9.3942 -10
      vertex -18.1306 -7.17843 10
      vertex -18.1306 -7.17843 -10
    endloop
  endfacet
  facet normal -0.904837 -0.425758 0
    outer loop
      vertex -18.1306 -7.17843 10
      vertex -17.088 -9.3942 -10
      vertex -17.088 -9.3942 10
    endloop
  endfacet
  facet normal 0 0 -1
    outer loop
      vertex 4.5 0 -10
      vertex 19.5 0 -10
      vertex 19.3462 -2.444 -10
    endloop
  endfacet
  facet normal 0 0 -1
    outer loop
      vertex 4.46452 -0.563999 -10
      vertex 19.3462 -2.444 -10
      vertex 18.8874 -4.84945 -10
    endloop
  endfacet
  facet normal 0 0 -1
    outer loop
      vertex 19.5 0 -10
      vertex 4.5 0 -10
      vertex 19.3462 2.444 -10
    endloop
  endfacet
  facet normal 0 0 -1
    outer loop
      vertex 4.35862 -1.1191 -10
      vertex 18.8874 -4.84945 -10
      vertex 18.1306 -7.17843 -10
    endloop
  endfacet
  facet normal 0 0 -1
    outer loop
      vertex 4.46452 0.563999 -10
      vertex 19.3462 2.444 -10
      vertex 4.5 0 -10
    endloop
  endfacet
  facet normal 0 0 -1
    outer loop
      vertex 4.18399 -1.65656 -10
      vertex 18.1306 -7.17843 -10
      vertex 17.088 -9.3942 -10
    endloop
  endfacet
  facet normal -0 0 -1
    outer loop
      vertex 19.3462 2.444 -10
      vertex 4.46452 0.563999 -10
      vertex 18.8874 4.84945 -10
    endloop
  endfacet
  facet normal 0 0 -1
    outer loop
      vertex 3.94338 -2.16789 -10
      vertex 17.088 -9.3942 -10
      vertex 15.7758 -11.4618 -10
    endloop
  endfacet
  facet normal 0 0 -1
    outer loop
      vertex 4.35862 1.1191 -10
      vertex 18.8874 4.84945 -10
      vertex 4.46452 0.563999 -10
    endloop
  endfacet
  facet normal 0 0 -1
    outer loop
      vertex 3.64058 -2.64503 -10
      vertex 15.7758 -11.4618 -10
      vertex 14.2149 -13.3487 -10
    endloop
  endfacet
  facet normal -0 0 -1
    outer loop
      vertex 18.8874 4.84945 -10
      vertex 4.35862 1.1191 -10
      vertex 18.1306 7.17843 -10
    endloop
  endfacet
  facet normal 0 0 -1
    outer loop
      vertex 3.28036 -3.08046 -10
      vertex 14.2149 -13.3487 -10
      vertex 12.4298 -15.025 -10
    endloop
  endfacet
  facet normal 0 0 -1
    outer loop
      vertex 4.18399 1.65656 -10
      vertex 18.1306 7.17843 -10
      vertex 4.35862 1.1191 -10
    endloop
  endfacet
  facet normal 0 0 -1
    outer loop
      vertex 2.86841 -3.46731 -10
      vertex 12.4298 -15.025 -10
      vertex 10.4486 -16.4644 -10
    endloop
  endfacet
  facet normal -0 0 -1
    outer loop
      vertex 18.1306 7.17843 -10
      vertex 4.18399 1.65656 -10
      vertex 17.088 9.3942 -10
    endloop
  endfacet
  facet normal 0 0 -1
    outer loop
      vertex 2.41122 -3.79947 -10
      vertex 10.4486 -16.4644 -10
      vertex 8.3027 -17.6441 -10
    endloop
  endfacet
  facet normal 0 0 -1
    outer loop
      vertex 3.94338 2.16789 -10
      vertex 17.088 9.3942 -10
      vertex 4.18399 1.65656 -10
    endloop
  endfacet
  facet normal 0 0 -1
    outer loop
      vertex 1.91601 -4.07172 -10
      vertex 8.3027 -17.6441 -10
      vertex 6.02583 -18.5456 -10
    endloop
  endfacet
  facet normal -0 0 -1
    outer loop
      vertex 17.088 9.3942 -10
      vertex 3.94338 2.16789 -10
      vertex 15.7758 11.4618 -10
    endloop
  endfacet
  facet normal 0 0 -1
    outer loop
      vertex 3.64058 2.64503 -10
      vertex 15.7758 11.4618 -10
      vertex 3.94338 2.16789 -10
    endloop
  endfacet
  facet normal 0 0 -1
    outer loop
      vertex 19.3462 -2.444 -10
      vertex 4.46452 -0.563999 -10
      vertex 4.5 0 -10
    endloop
  endfacet
  facet normal 0 0 -1
    outer loop
      vertex 18.8874 -4.84945 -10
      vertex 4.35862 -1.1191 -10
      vertex 4.46452 -0.563999 -10
    endloop
  endfacet
  facet normal 0 0 -1
    outer loop
      vertex 18.1306 -7.17843 -10
      vertex 4.18399 -1.65656 -10
      vertex 4.35862 -1.1191 -10
    endloop
  endfacet
  facet normal 0 0 -1
    outer loop
      vertex 17.088 -9.3942 -10
      vertex 3.94338 -2.16789 -10
      vertex 4.18399 -1.65656 -10
    endloop
  endfacet
  facet normal 0 0 -1
    outer loop
      vertex 1.39058 -4.27975 -10
      vertex 6.02583 -18.5456 -10
      vertex 3.65394 -19.1546 -10
    endloop
  endfacet
  facet normal 0 0 -1
    outer loop
      vertex 15.7758 -11.4618 -10
      vertex 3.64058 -2.64503 -10
      vertex 3.94338 -2.16789 -10
    endloop
  endfacet
  facet normal 0 0 -1
    outer loop
      vertex 14.2149 -13.3487 -10
      vertex 3.28036 -3.08046 -10
      vertex 3.64058 -2.64503 -10
    endloop
  endfacet
  facet normal 0 0 -1
    outer loop
      vertex 12.4298 -15.025 -10
      vertex 2.86841 -3.46731 -10
      vertex 3.28036 -3.08046 -10
    endloop
  endfacet
  facet normal 0 0 -1
    outer loop
      vertex 10.4486 -16.4644 -10
      vertex 2.41122 -3.79947 -10
      vertex 2.86841 -3.46731 -10
    endloop
  endfacet
  facet normal 0 0 -1
    outer loop
      vertex 8.3027 -17.6441 -10
      vertex 1.91601 -4.07172 -10
      vertex 2.41122 -3.79947 -10
    endloop
  endfacet
  facet normal 0 0 -1
    outer loop
      vertex 6.02583 -18.5456 -10
      vertex 1.39058 -4.27975 -10
      vertex 1.91601 -4.07172 -10
    endloop
  endfacet
  facet normal 0 0 -1
    outer loop
      vertex 0.843215 -4.42029 -10
      vertex 3.65394 -19.1546 -10
      vertex 1.22441 -19.4615 -10
    endloop
  endfacet
  facet normal 0 0 -1
    outer loop
      vertex 3.65394 -19.1546 -10
      vertex 0.843215 -4.42029 -10
      vertex 1.39058 -4.27975 -10
    endloop
  endfacet
  facet normal 0 0 -1
    outer loop
      vertex 1.22441 -19.4615 -10
      vertex 0.282557 -4.49112 -10
      vertex 0.843215 -4.42029 -10
    endloop
  endfacet
  facet normal 0 0 -1
    outer loop
      vertex 1.22441 -19.4615 -10
      vertex -0.282557 -4.49112 -10
      vertex 0.282557 -4.49112 -10
    endloop
  endfacet
  facet normal 0 0 -1
    outer loop
      vertex -1.22441 -19.4615 -10
      vertex -0.282557 -4.49112 -10
      vertex 1.22441 -19.4615 -10
    endloop
  endfacet
  facet normal -0 0 -1
    outer loop
      vertex -0.282557 -4.49112 -10
      vertex -1.22441 -19.4615 -10
      vertex -0.843215 -4.42029 -10
    endloop
  endfacet
  facet normal 0 0 -1
    outer loop
      vertex -3.65394 -19.1546 -10
      vertex -0.843215 -4.42029 -10
      vertex -1.22441 -19.4615 -10
    endloop
  endfacet
  facet normal -0 0 -1
    outer loop
      vertex -0.843215 -4.42029 -10
      vertex -3.65394 -19.1546 -10
      vertex -1.39058 -4.27975 -10
    endloop
  endfacet
  facet normal 0 0 -1
    outer loop
      vertex -6.02583 -18.5456 -10
      vertex -1.39058 -4.27975 -10
      vertex -3.65394 -19.1546 -10
    endloop
  endfacet
  facet normal -0 0 -1
    outer loop
      vertex -1.39058 -4.27975 -10
      vertex -6.02583 -18.5456 -10
      vertex -1.91601 -4.07172 -10
    endloop
  endfacet
  facet normal 0 0 -1
    outer loop
      vertex -8.3027 -17.6441 -10
      vertex -1.91601 -4.07172 -10
      vertex -6.02583 -18.5456 -10
    endloop
  endfacet
  facet normal -0 0 -1
    outer loop
      vertex -1.91601 -4.07172 -10
      vertex -8.3027 -17.6441 -10
      vertex -2.41122 -3.79947 -10
    endloop
  endfacet
  facet normal 0 0 -1
    outer loop
      vertex -10.4486 -16.4644 -10
      vertex -2.41122 -3.79947 -10
      vertex -8.3027 -17.6441 -10
    endloop
  endfacet
  facet normal -0 0 -1
    outer loop
      vertex -2.41122 -3.79947 -10
      vertex -10.4486 -16.4644 -10
      vertex -2.86841 -3.46731 -10
    endloop
  endfacet
  facet normal 0 0 -1
    outer loop
      vertex -12.4298 -15.025 -10
      vertex -2.86841 -3.46731 -10
      vertex -10.4486 -16.4644 -10
    endloop
  endfacet
  facet normal -0 0 -1
    outer loop
      vertex -2.86841 -3.46731 -10
      vertex -12.4298 -15.025 -10
      vertex -3.28036 -3.08046 -10
    endloop
  endfacet
  facet normal 0 0 -1
    outer loop
      vertex -14.2149 -13.3487 -10
      vertex -3.28036 -3.08046 -10
      vertex -12.4298 -15.025 -10
    endloop
  endfacet
  facet normal -0 0 -1
    outer loop
      vertex -3.28036 -3.08046 -10
      vertex -14.2149 -13.3487 -10
      vertex -3.64058 -2.64503 -10
    endloop
  endfacet
  facet normal 0 0 -1
    outer loop
      vertex -15.7758 -11.4618 -10
      vertex -3.64058 -2.64503 -10
      vertex -14.2149 -13.3487 -10
    endloop
  endfacet
  facet normal -0 0 -1
    outer loop
      vertex 15.7758 11.4618 -10
      vertex 3.64058 2.64503 -10
      vertex 14.2149 13.3487 -10
    endloop
  endfacet
  facet normal 0 0 -1
    outer loop
      vertex 3.28036 3.08046 -10
      vertex 14.2149 13.3487 -10
      vertex 3.64058 2.64503 -10
    endloop
  endfacet
  facet normal -0 0 -1
    outer loop
      vertex 14.2149 13.3487 -10
      vertex 3.28036 3.08046 -10
      vertex 12.4298 15.025 -10
    endloop
  endfacet
  facet normal 0 0 -1
    outer loop
      vertex 2.86841 3.46731 -10
      vertex 12.4298 15.025 -10
      vertex 3.28036 3.08046 -10
    endloop
  endfacet
  facet normal -0 0 -1
    outer loop
      vertex 12.4298 15.025 -10
      vertex 2.86841 3.46731 -10
      vertex 10.4486 16.4644 -10
    endloop
  endfacet
  facet normal 0 0 -1
    outer loop
      vertex 2.41122 3.79947 -10
      vertex 10.4486 16.4644 -10
      vertex 2.86841 3.46731 -10
    endloop
  endfacet
  facet normal -0 0 -1
    outer loop
      vertex 10.4486 16.4644 -10
      vertex 2.41122 3.79947 -10
      vertex 8.3027 17.6441 -10
    endloop
  endfacet
  facet normal 0 0 -1
    outer loop
      vertex 1.91601 4.07172 -10
      vertex 8.3027 17.6441 -10
      vertex 2.41122 3.79947 -10
    endloop
  endfacet
  facet normal -0 0 -1
    outer loop
      vertex 8.3027 17.6441 -10
      vertex 1.91601 4.07172 -10
      vertex 6.02583 18.5456 -10
    endloop
  endfacet
  facet normal 0 0 -1
    outer loop
      vertex 1.39058 4.27975 -10
      vertex 6.02583 18.5456 -10
      vertex 1.91601 4.07172 -10
    endloop
  endfacet
  facet normal -0 0 -1
    outer loop
      vertex 6.02583 18.5456 -10
      vertex 1.39058 4.27975 -10
      vertex 3.65394 19.1546 -10
    endloop
  endfacet
  facet normal 0 0 -1
    outer loop
      vertex 0.843215 4.42029 -10
      vertex 3.65394 19.1546 -10
      vertex 1.39058 4.27975 -10
    endloop
  endfacet
  facet normal -0 0 -1
    outer loop
      vertex 3.65394 19.1546 -10
      vertex 0.843215 4.42029 -10
      vertex 1.22441 19.4615 -10
    endloop
  endfacet
  facet normal 0 0 -1
    outer loop
      vertex 0.282557 4.49112 -10
      vertex 1.22441 19.4615 -10
      vertex 0.843215 4.42029 -10
    endloop
  endfacet
  facet normal 0 0 -1
    outer loop
      vertex -0.282557 4.49112 -10
      vertex 1.22441 19.4615 -10
      vertex 0.282557 4.49112 -10
    endloop
  endfacet
  facet normal 0 0 -1
    outer loop
      vertex -1.22441 19.4615 -10
      vertex -0.282557 4.49112 -10
      vertex -0.843215 4.42029 -10
    endloop
  endfacet
  facet normal 0 0 -1
    outer loop
      vertex -0.282557 4.49112 -10
      vertex -1.22441 19.4615 -10
      vertex 1.22441 19.4615 -10
    endloop
  endfacet
  facet normal 0 0 -1
    outer loop
      vertex -3.65394 19.1546 -10
      vertex -0.843215 4.42029 -10
      vertex -1.39058 4.27975 -10
    endloop
  endfacet
  facet normal 0 0 -1
    outer loop
      vertex -6.02583 18.5456 -10
      vertex -1.39058 4.27975 -10
      vertex -1.91601 4.07172 -10
    endloop
  endfacet
  facet normal 0 0 -1
    outer loop
      vertex -8.3027 17.6441 -10
      vertex -1.91601 4.07172 -10
      vertex -2.41122 3.79947 -10
    endloop
  endfacet
  facet normal 0 0 -1
    outer loop
      vertex -10.4486 16.4644 -10
      vertex -2.41122 3.79947 -10
      vertex -2.86841 3.46731 -10
    endloop
  endfacet
  facet normal 0 0 -1
    outer loop
      vertex -12.4298 15.025 -10
      vertex -2.86841 3.46731 -10
      vertex -3.28036 3.08046 -10
    endloop
  endfacet
  facet normal 0 0 -1
    outer loop
      vertex -14.2149 13.3487 -10
      vertex -3.28036 3.08046 -10
      vertex -3.64058 2.64503 -10
    endloop
  endfacet
  facet normal 0 0 -1
    outer loop
      vertex -0.843215 4.42029 -10
      vertex -3.65394 19.1546 -10
      vertex -1.22441 19.4615 -10
    endloop
  endfacet
  facet normal 0 0 -1
    outer loop
      vertex -15.7758 11.4618 -10
      vertex -3.64058 2.64503 -10
      vertex -3.94338 2.16789 -10
    endloop
  endfacet
  facet normal 0 0 -1
    outer loop
      vertex -17.088 9.3942 -10
      vertex -3.94338 2.16789 -10
      vertex -4.18399 1.65656 -10
    endloop
  endfacet
  facet normal 0 0 -1
    outer loop
      vertex -18.1306 7.17843 -10
      vertex -4.18399 1.65656 -10
      vertex -4.35862 1.1191 -10
    endloop
  endfacet
  facet normal 0 0 -1
    outer loop
      vertex -18.8874 4.84945 -10
      vertex -4.35862 1.1191 -10
      vertex -4.46452 0.563999 -10
    endloop
  endfacet
  facet normal 0 0 -1
    outer loop
      vertex -19.3462 2.444 -10
      vertex -4.46452 0.563999 -10
      vertex -4.5 0 -10
    endloop
  endfacet
  facet normal -0 0 -1
    outer loop
      vertex -3.64058 -2.64503 -10
      vertex -15.7758 -11.4618 -10
      vertex -3.94338 -2.16789 -10
    endloop
  endfacet
  facet normal 0 0 -1
    outer loop
      vertex -1.39058 4.27975 -10
      vertex -6.02583 18.5456 -10
      vertex -3.65394 19.1546 -10
    endloop
  endfacet
  facet normal 0 0 -1
    outer loop
      vertex -17.088 -9.3942 -10
      vertex -3.94338 -2.16789 -10
      vertex -15.7758 -11.4618 -10
    endloop
  endfacet
  facet normal 0 0 -1
    outer loop
      vertex -1.91601 4.07172 -10
      vertex -8.3027 17.6441 -10
      vertex -6.02583 18.5456 -10
    endloop
  endfacet
  facet normal -0 0 -1
    outer loop
      vertex -3.94338 -2.16789 -10
      vertex -17.088 -9.3942 -10
      vertex -4.18399 -1.65656 -10
    endloop
  endfacet
  facet normal 0 0 -1
    outer loop
      vertex -2.41122 3.79947 -10
      vertex -10.4486 16.4644 -10
      vertex -8.3027 17.6441 -10
    endloop
  endfacet
  facet normal 0 0 -1
    outer loop
      vertex -18.1306 -7.17843 -10
      vertex -4.18399 -1.65656 -10
      vertex -17.088 -9.3942 -10
    endloop
  endfacet
  facet normal 0 0 -1
    outer loop
      vertex -2.86841 3.46731 -10
      vertex -12.4298 15.025 -10
      vertex -10.4486 16.4644 -10
    endloop
  endfacet
  facet normal -0 0 -1
    outer loop
      vertex -4.18399 -1.65656 -10
      vertex -18.1306 -7.17843 -10
      vertex -4.35862 -1.1191 -10
    endloop
  endfacet
  facet normal 0 0 -1
    outer loop
      vertex -3.28036 3.08046 -10
      vertex -14.2149 13.3487 -10
      vertex -12.4298 15.025 -10
    endloop
  endfacet
  facet normal 0 0 -1
    outer loop
      vertex -18.8874 -4.84945 -10
      vertex -4.35862 -1.1191 -10
      vertex -18.1306 -7.17843 -10
    endloop
  endfacet
  facet normal 0 0 -1
    outer loop
      vertex -3.64058 2.64503 -10
      vertex -15.7758 11.4618 -10
      vertex -14.2149 13.3487 -10
    endloop
  endfacet
  facet normal -0 0 -1
    outer loop
      vertex -4.35862 -1.1191 -10
      vertex -18.8874 -4.84945 -10
      vertex -4.46452 -0.563999 -10
    endloop
  endfacet
  facet normal 0 0 -1
    outer loop
      vertex -3.94338 2.16789 -10
      vertex -17.088 9.3942 -10
      vertex -15.7758 11.4618 -10
    endloop
  endfacet
  facet normal 0 0 -1
    outer loop
      vertex -19.3462 -2.444 -10
      vertex -4.46452 -0.563999 -10
      vertex -18.8874 -4.84945 -10
    endloop
  endfacet
  facet normal 0 0 -1
    outer loop
      vertex -4.18399 1.65656 -10
      vertex -18.1306 7.17843 -10
      vertex -17.088 9.3942 -10
    endloop
  endfacet
  facet normal -0 0 -1
    outer loop
      vertex -4.46452 -0.563999 -10
      vertex -19.3462 -2.444 -10
      vertex -4.5 0 -10
    endloop
  endfacet
  facet normal 0 0 -1
    outer loop
      vertex -4.35862 1.1191 -10
      vertex -18.8874 4.84945 -10
      vertex -18.1306 7.17843 -10
    endloop
  endfacet
  facet normal 0 0 -1
    outer loop
      vertex -19.5 0 -10
      vertex -4.5 0 -10
      vertex -19.3462 -2.444 -10
    endloop
  endfacet
  facet normal 0 0 -1
    outer loop
      vertex -4.46452 0.563999 -10
      vertex -19.3462 2.444 -10
      vertex -18.8874 4.84945 -10
    endloop
  endfacet
  facet normal 0 0 -1
    outer loop
      vertex -4.5 0 -10
      vertex -19.5 0 -10
      vertex -19.3462 2.444 -10
    endloop
  endfacet
  facet normal 0.481748 -0.87631 0
    outer loop
      vertex 8.3027 -17.6441 -10
      vertex 10.4486 -16.4644 10
      vertex 8.3027 -17.6441 10
    endloop
  endfacet
  facet normal 0.481748 -0.87631 0
    outer loop
      vertex 10.4486 -16.4644 10
      vertex 8.3027 -17.6441 -10
      vertex 10.4486 -16.4644 -10
    endloop
  endfacet
  facet normal 0.684543 -0.728973 0
    outer loop
      vertex 12.4298 -15.025 -10
      vertex 14.2149 -13.3487 10
      vertex 12.4298 -15.025 10
    endloop
  endfacet
  facet normal 0.684543 -0.728973 0
    outer loop
      vertex 14.2149 -13.3487 10
      vertex 12.4298 -15.025 -10
      vertex 14.2149 -13.3487 -10
    endloop
  endfacet
  facet normal 0.844317 -0.535845 0
    outer loop
      vertex 15.7758 -11.4618 10
      vertex 17.088 -9.3942 -10
      vertex 17.088 -9.3942 10
    endloop
  endfacet
  facet normal 0.844317 -0.535845 0
    outer loop
      vertex 17.088 -9.3942 -10
      vertex 15.7758 -11.4618 10
      vertex 15.7758 -11.4618 -10
    endloop
  endfacet
  facet normal -0.951048 -0.309042 0
    outer loop
      vertex -18.1306 -7.17843 -10
      vertex -18.8874 -4.84945 10
      vertex -18.8874 -4.84945 -10
    endloop
  endfacet
  facet normal -0.951048 -0.309042 0
    outer loop
      vertex -18.8874 -4.84945 10
      vertex -18.1306 -7.17843 -10
      vertex -18.1306 -7.17843 10
    endloop
  endfacet
  facet normal 0.368133 -0.929773 0
    outer loop
      vertex 6.02583 -18.5456 -10
      vertex 8.3027 -17.6441 10
      vertex 6.02583 -18.5456 10
    endloop
  endfacet
  facet normal 0.368133 -0.929773 0
    outer loop
      vertex 8.3027 -17.6441 10
      vertex 6.02583 -18.5456 -10
      vertex 8.3027 -17.6441 -10
    endloop
  endfacet
  facet normal 0.248691 -0.968583 0
    outer loop
      vertex 3.65394 -19.1546 -10
      vertex 6.02583 -18.5456 10
      vertex 3.65394 -19.1546 10
    endloop
  endfacet
  facet normal 0.248691 -0.968583 0
    outer loop
      vertex 6.02583 -18.5456 10
      vertex 3.65394 -19.1546 -10
      vertex 6.02583 -18.5456 -10
    endloop
  endfacet
  facet normal 0.125325 -0.992116 0
    outer loop
      vertex 1.22441 -19.4615 -10
      vertex 3.65394 -19.1546 10
      vertex 1.22441 -19.4615 10
    endloop
  endfacet
  facet normal 0.125325 -0.992116 0
    outer loop
      vertex 3.65394 -19.1546 10
      vertex 1.22441 -19.4615 -10
      vertex 3.65394 -19.1546 -10
    endloop
  endfacet
  facet normal -0.125325 -0.992116 0
    outer loop
      vertex -3.65394 -19.1546 -10
      vertex -1.22441 -19.4615 10
      vertex -3.65394 -19.1546 10
    endloop
  endfacet
  facet normal -0.125325 -0.992116 -0
    outer loop
      vertex -1.22441 -19.4615 10
      vertex -3.65394 -19.1546 -10
      vertex -1.22441 -19.4615 -10
    endloop
  endfacet
  facet normal -0.368133 -0.929773 0
    outer loop
      vertex -8.3027 -17.6441 -10
      vertex -6.02583 -18.5456 10
      vertex -8.3027 -17.6441 10
    endloop
  endfacet
  facet normal -0.368133 -0.929773 -0
    outer loop
      vertex -6.02583 -18.5456 10
      vertex -8.3027 -17.6441 -10
      vertex -6.02583 -18.5456 -10
    endloop
  endfacet
  facet normal -0.248691 -0.968583 0
    outer loop
      vertex -6.02583 -18.5456 -10
      vertex -3.65394 -19.1546 10
      vertex -6.02583 -18.5456 10
    endloop
  endfacet
  facet normal -0.248691 -0.968583 -0
    outer loop
      vertex -3.65394 -19.1546 10
      vertex -6.02583 -18.5456 -10
      vertex -3.65394 -19.1546 -10
    endloop
  endfacet
  facet normal -0.770529 -0.637405 0
    outer loop
      vertex -14.2149 -13.3487 -10
      vertex -15.7758 -11.4618 10
      vertex -15.7758 -11.4618 -10
    endloop
  endfacet
  facet normal -0.770529 -0.637405 0
    outer loop
      vertex -15.7758 -11.4618 10
      vertex -14.2149 -13.3487 -10
      vertex -14.2149 -13.3487 10
    endloop
  endfacet
  facet normal -0.684543 -0.728973 0
    outer loop
      vertex -14.2149 -13.3487 -10
      vertex -12.4298 -15.025 10
      vertex -14.2149 -13.3487 10
    endloop
  endfacet
  facet normal -0.684543 -0.728973 -0
    outer loop
      vertex -12.4298 -15.025 10
      vertex -14.2149 -13.3487 -10
      vertex -12.4298 -15.025 -10
    endloop
  endfacet
  facet normal -0.982292 -0.187356 0
    outer loop
      vertex -18.8874 -4.84945 -10
      vertex -19.3462 -2.444 10
      vertex -19.3462 -2.444 -10
    endloop
  endfacet
  facet normal -0.982292 -0.187356 0
    outer loop
      vertex -19.3462 -2.444 10
      vertex -18.8874 -4.84945 -10
      vertex -18.8874 -4.84945 10
    endloop
  endfacet
  facet normal -0.998026 -0.0628054 0
    outer loop
      vertex -19.3462 -2.444 -10
      vertex -19.5 0 10
      vertex -19.5 0 -10
    endloop
  endfacet
  facet normal -0.998026 -0.0628054 0
    outer loop
      vertex -19.5 0 10
      vertex -19.3462 -2.444 -10
      vertex -19.3462 -2.444 10
    endloop
  endfacet
  facet normal 0.587778 -0.809022 0
    outer loop
      vertex 10.4486 -16.4644 -10
      vertex 12.4298 -15.025 10
      vertex 10.4486 -16.4644 10
    endloop
  endfacet
  facet normal 0.587778 -0.809022 0
    outer loop
      vertex 12.4298 -15.025 10
      vertex 10.4486 -16.4644 -10
      vertex 12.4298 -15.025 -10
    endloop
  endfacet
  facet normal -0.844317 -0.535845 0
    outer loop
      vertex -15.7758 -11.4618 -10
      vertex -17.088 -9.3942 10
      vertex -17.088 -9.3942 -10
    endloop
  endfacet
  facet normal -0.844317 -0.535845 0
    outer loop
      vertex -17.088 -9.3942 10
      vertex -15.7758 -11.4618 -10
      vertex -15.7758 -11.4618 10
    endloop
  endfacet
  facet normal -0.481748 -0.87631 0
    outer loop
      vertex -10.4486 -16.4644 -10
      vertex -8.3027 -17.6441 10
      vertex -10.4486 -16.4644 10
    endloop
  endfacet
  facet normal -0.481748 -0.87631 -0
    outer loop
      vertex -8.3027 -17.6441 10
      vertex -10.4486 -16.4644 -10
      vertex -8.3027 -17.6441 -10
    endloop
  endfacet
  facet normal -0.587778 -0.809022 0
    outer loop
      vertex -12.4298 -15.025 -10
      vertex -10.4486 -16.4644 10
      vertex -12.4298 -15.025 10
    endloop
  endfacet
  facet normal -0.587778 -0.809022 -0
    outer loop
      vertex -10.4486 -16.4644 10
      vertex -12.4298 -15.025 -10
      vertex -10.4486 -16.4644 -10
    endloop
  endfacet
  facet normal -0.998027 -0.0627838 0
    outer loop
      vertex 4.5 0 -10
      vertex 4.46452 0.563999 10
      vertex 4.46452 0.563999 -10
    endloop
  endfacet
  facet normal -0.998027 -0.0627838 0
    outer loop
      vertex 4.46452 0.563999 10
      vertex 4.5 0 -10
      vertex 4.5 0 10
    endloop
  endfacet
  facet normal 0.998027 -0.0627838 0
    outer loop
      vertex -4.5 0 10
      vertex -4.46452 0.563999 -10
      vertex -4.46452 0.563999 10
    endloop
  endfacet
  facet normal 0.998027 -0.0627838 0
    outer loop
      vertex -4.46452 0.563999 -10
      vertex -4.5 0 10
      vertex -4.5 0 -10
    endloop
  endfacet
  facet normal 0 -1 0
    outer loop
      vertex -0.282557 4.49112 -10
      vertex 0.282557 4.49112 10
      vertex -0.282557 4.49112 10
    endloop
  endfacet
  facet normal 0 -1 -0
    outer loop
      vertex 0.282557 4.49112 10
      vertex -0.282557 4.49112 -10
      vertex 0.282557 4.49112 -10
    endloop
  endfacet
  facet normal 0 1 -0
    outer loop
      vertex 0.282557 -4.49112 -10
      vertex -0.282557 -4.49112 10
      vertex 0.282557 -4.49112 10
    endloop
  endfacet
  facet normal 0 1 0
    outer loop
      vertex -0.282557 -4.49112 10
      vertex 0.282557 -4.49112 -10
      vertex -0.282557 -4.49112 -10
    endloop
  endfacet
  facet normal -0.68455 -0.728966 0
    outer loop
      vertex 2.86841 3.46731 -10
      vertex 3.28036 3.08046 10
      vertex 2.86841 3.46731 10
    endloop
  endfacet
  facet normal -0.68455 -0.728966 -0
    outer loop
      vertex 3.28036 3.08046 10
      vertex 2.86841 3.46731 -10
      vertex 3.28036 3.08046 -10
    endloop
  endfacet
  facet normal 0.68455 -0.728966 0
    outer loop
      vertex -3.28036 3.08046 -10
      vertex -2.86841 3.46731 10
      vertex -3.28036 3.08046 10
    endloop
  endfacet
  facet normal 0.68455 -0.728966 0
    outer loop
      vertex -2.86841 3.46731 10
      vertex -3.28036 3.08046 -10
      vertex -2.86841 3.46731 -10
    endloop
  endfacet
  facet normal 0.368121 -0.929778 0
    outer loop
      vertex -1.91601 4.07172 -10
      vertex -1.39058 4.27975 10
      vertex -1.91601 4.07172 10
    endloop
  endfacet
  facet normal 0.368121 -0.929778 0
    outer loop
      vertex -1.39058 4.27975 10
      vertex -1.91601 4.07172 -10
      vertex -1.39058 4.27975 -10
    endloop
  endfacet
  facet normal -0.90483 -0.425774 0
    outer loop
      vertex 4.18399 1.65656 -10
      vertex 3.94338 2.16789 10
      vertex 3.94338 2.16789 -10
    endloop
  endfacet
  facet normal -0.90483 -0.425774 0
    outer loop
      vertex 3.94338 2.16789 10
      vertex 4.18399 1.65656 -10
      vertex 4.18399 1.65656 10
    endloop
  endfacet
  facet normal -0.982284 -0.187396 0
    outer loop
      vertex 4.46452 0.563999 -10
      vertex 4.35862 1.1191 10
      vertex 4.35862 1.1191 -10
    endloop
  endfacet
  facet normal -0.982284 -0.187396 0
    outer loop
      vertex 4.35862 1.1191 10
      vertex 4.46452 0.563999 -10
      vertex 4.46452 0.563999 10
    endloop
  endfacet
  facet normal -0.368121 -0.929778 0
    outer loop
      vertex 1.39058 4.27975 -10
      vertex 1.91601 4.07172 10
      vertex 1.39058 4.27975 10
    endloop
  endfacet
  facet normal -0.368121 -0.929778 -0
    outer loop
      vertex 1.91601 4.07172 10
      vertex 1.39058 4.27975 -10
      vertex 1.91601 4.07172 -10
    endloop
  endfacet
  facet normal -0.248691 -0.968583 0
    outer loop
      vertex 0.843215 4.42029 -10
      vertex 1.39058 4.27975 10
      vertex 0.843215 4.42029 10
    endloop
  endfacet
  facet normal -0.248691 -0.968583 -0
    outer loop
      vertex 1.39058 4.27975 10
      vertex 0.843215 4.42029 -10
      vertex 1.39058 4.27975 -10
    endloop
  endfacet
  facet normal -0.587776 -0.809024 0
    outer loop
      vertex 2.41122 3.79947 -10
      vertex 2.86841 3.46731 10
      vertex 2.41122 3.79947 10
    endloop
  endfacet
  facet normal -0.587776 -0.809024 -0
    outer loop
      vertex 2.86841 3.46731 10
      vertex 2.41122 3.79947 -10
      vertex 2.86841 3.46731 -10
    endloop
  endfacet
  facet normal 0.90483 -0.425774 0
    outer loop
      vertex -4.18399 1.65656 10
      vertex -3.94338 2.16789 -10
      vertex -3.94338 2.16789 10
    endloop
  endfacet
  facet normal 0.90483 -0.425774 0
    outer loop
      vertex -3.94338 2.16789 -10
      vertex -4.18399 1.65656 10
      vertex -4.18399 1.65656 -10
    endloop
  endfacet
  facet normal 0.84433 -0.535824 0
    outer loop
      vertex -3.94338 2.16789 10
      vertex -3.64058 2.64503 -10
      vertex -3.64058 2.64503 10
    endloop
  endfacet
  facet normal 0.84433 -0.535824 0
    outer loop
      vertex -3.64058 2.64503 -10
      vertex -3.94338 2.16789 10
      vertex -3.94338 2.16789 -10
    endloop
  endfacet
  facet normal 0.951057 -0.309015 0
    outer loop
      vertex -4.35862 1.1191 10
      vertex -4.18399 1.65656 -10
      vertex -4.18399 1.65656 10
    endloop
  endfacet
  facet normal 0.951057 -0.309015 0
    outer loop
      vertex -4.18399 1.65656 -10
      vertex -4.35862 1.1191 10
      vertex -4.35862 1.1191 -10
    endloop
  endfacet
  facet normal 0.481762 -0.876302 0
    outer loop
      vertex -2.41122 3.79947 -10
      vertex -1.91601 4.07172 10
      vertex -2.41122 3.79947 10
    endloop
  endfacet
  facet normal 0.481762 -0.876302 0
    outer loop
      vertex -1.91601 4.07172 10
      vertex -2.41122 3.79947 -10
      vertex -1.91601 4.07172 -10
    endloop
  endfacet
  facet normal 0.248691 -0.968583 0
    outer loop
      vertex -1.39058 4.27975 -10
      vertex -0.843215 4.42029 10
      vertex -1.39058 4.27975 10
    endloop
  endfacet
  facet normal 0.248691 -0.968583 0
    outer loop
      vertex -0.843215 4.42029 10
      vertex -1.39058 4.27975 -10
      vertex -0.843215 4.42029 -10
    endloop
  endfacet
  facet normal -0.368121 0.929778 0
    outer loop
      vertex 1.91601 -4.07172 -10
      vertex 1.39058 -4.27975 10
      vertex 1.91601 -4.07172 10
    endloop
  endfacet
  facet normal -0.368121 0.929778 0
    outer loop
      vertex 1.39058 -4.27975 10
      vertex 1.91601 -4.07172 -10
      vertex 1.39058 -4.27975 -10
    endloop
  endfacet
  facet normal -0.951057 -0.309015 0
    outer loop
      vertex 4.35862 1.1191 -10
      vertex 4.18399 1.65656 10
      vertex 4.18399 1.65656 -10
    endloop
  endfacet
  facet normal -0.951057 -0.309015 0
    outer loop
      vertex 4.18399 1.65656 10
      vertex 4.35862 1.1191 -10
      vertex 4.35862 1.1191 10
    endloop
  endfacet
  facet normal -0.770512 -0.637425 0
    outer loop
      vertex 3.64058 2.64503 -10
      vertex 3.28036 3.08046 10
      vertex 3.28036 3.08046 -10
    endloop
  endfacet
  facet normal -0.770512 -0.637425 0
    outer loop
      vertex 3.28036 3.08046 10
      vertex 3.64058 2.64503 -10
      vertex 3.64058 2.64503 10
    endloop
  endfacet
  facet normal -0.84433 -0.535824 0
    outer loop
      vertex 3.94338 2.16789 -10
      vertex 3.64058 2.64503 10
      vertex 3.64058 2.64503 -10
    endloop
  endfacet
  facet normal -0.84433 -0.535824 0
    outer loop
      vertex 3.64058 2.64503 10
      vertex 3.94338 2.16789 -10
      vertex 3.94338 2.16789 10
    endloop
  endfacet
  facet normal -0.125337 -0.992114 0
    outer loop
      vertex 0.282557 4.49112 -10
      vertex 0.843215 4.42029 10
      vertex 0.282557 4.49112 10
    endloop
  endfacet
  facet normal -0.125337 -0.992114 -0
    outer loop
      vertex 0.843215 4.42029 10
      vertex 0.282557 4.49112 -10
      vertex 0.843215 4.42029 -10
    endloop
  endfacet
  facet normal -0.481762 -0.876302 0
    outer loop
      vertex 1.91601 4.07172 -10
      vertex 2.41122 3.79947 10
      vertex 1.91601 4.07172 10
    endloop
  endfacet
  facet normal -0.481762 -0.876302 -0
    outer loop
      vertex 2.41122 3.79947 10
      vertex 1.91601 4.07172 -10
      vertex 2.41122 3.79947 -10
    endloop
  endfacet
  facet normal 0.770512 -0.637425 0
    outer loop
      vertex -3.64058 2.64503 10
      vertex -3.28036 3.08046 -10
      vertex -3.28036 3.08046 10
    endloop
  endfacet
  facet normal 0.770512 -0.637425 0
    outer loop
      vertex -3.28036 3.08046 -10
      vertex -3.64058 2.64503 10
      vertex -3.64058 2.64503 -10
    endloop
  endfacet
  facet normal 0.982284 -0.187396 0
    outer loop
      vertex -4.46452 0.563999 10
      vertex -4.35862 1.1191 -10
      vertex -4.35862 1.1191 10
    endloop
  endfacet
  facet normal 0.982284 -0.187396 0
    outer loop
      vertex -4.35862 1.1191 -10
      vertex -4.46452 0.563999 10
      vertex -4.46452 0.563999 -10
    endloop
  endfacet
  facet normal 0.587776 -0.809024 0
    outer loop
      vertex -2.86841 3.46731 -10
      vertex -2.41122 3.79947 10
      vertex -2.86841 3.46731 10
    endloop
  endfacet
  facet normal 0.587776 -0.809024 0
    outer loop
      vertex -2.41122 3.79947 10
      vertex -2.86841 3.46731 -10
      vertex -2.41122 3.79947 -10
    endloop
  endfacet
  facet normal 0.125337 -0.992114 0
    outer loop
      vertex -0.843215 4.42029 -10
      vertex -0.282557 4.49112 10
      vertex -0.843215 4.42029 10
    endloop
  endfacet
  facet normal 0.125337 -0.992114 0
    outer loop
      vertex -0.282557 4.49112 10
      vertex -0.843215 4.42029 -10
      vertex -0.282557 4.49112 -10
    endloop
  endfacet
  facet normal -0.84433 0.535824 0
    outer loop
      vertex 3.64058 -2.64503 -10
      vertex 3.94338 -2.16789 10
      vertex 3.94338 -2.16789 -10
    endloop
  endfacet
  facet normal -0.84433 0.535824 0
    outer loop
      vertex 3.94338 -2.16789 10
      vertex 3.64058 -2.64503 -10
      vertex 3.64058 -2.64503 10
    endloop
  endfacet
  facet normal -0.982284 0.187396 0
    outer loop
      vertex 4.35862 -1.1191 -10
      vertex 4.46452 -0.563999 10
      vertex 4.46452 -0.563999 -10
    endloop
  endfacet
  facet normal -0.982284 0.187396 0
    outer loop
      vertex 4.46452 -0.563999 10
      vertex 4.35862 -1.1191 -10
      vertex 4.35862 -1.1191 10
    endloop
  endfacet
  facet normal 0.68455 0.728966 -0
    outer loop
      vertex -2.86841 -3.46731 -10
      vertex -3.28036 -3.08046 10
      vertex -2.86841 -3.46731 10
    endloop
  endfacet
  facet normal 0.68455 0.728966 0
    outer loop
      vertex -3.28036 -3.08046 10
      vertex -2.86841 -3.46731 -10
      vertex -3.28036 -3.08046 -10
    endloop
  endfacet
  facet normal 0.90483 0.425774 0
    outer loop
      vertex -3.94338 -2.16789 10
      vertex -4.18399 -1.65656 -10
      vertex -4.18399 -1.65656 10
    endloop
  endfacet
  facet normal 0.90483 0.425774 0
    outer loop
      vertex -4.18399 -1.65656 -10
      vertex -3.94338 -2.16789 10
      vertex -3.94338 -2.16789 -10
    endloop
  endfacet
  facet normal -0.68455 0.728966 0
    outer loop
      vertex 3.28036 -3.08046 -10
      vertex 2.86841 -3.46731 10
      vertex 3.28036 -3.08046 10
    endloop
  endfacet
  facet normal -0.68455 0.728966 0
    outer loop
      vertex 2.86841 -3.46731 10
      vertex 3.28036 -3.08046 -10
      vertex 2.86841 -3.46731 -10
    endloop
  endfacet
  facet normal -0.481762 0.876302 0
    outer loop
      vertex 2.41122 -3.79947 -10
      vertex 1.91601 -4.07172 10
      vertex 2.41122 -3.79947 10
    endloop
  endfacet
  facet normal -0.481762 0.876302 0
    outer loop
      vertex 1.91601 -4.07172 10
      vertex 2.41122 -3.79947 -10
      vertex 1.91601 -4.07172 -10
    endloop
  endfacet
  facet normal -0.951057 0.309015 0
    outer loop
      vertex 4.18399 -1.65656 -10
      vertex 4.35862 -1.1191 10
      vertex 4.35862 -1.1191 -10
    endloop
  endfacet
  facet normal -0.951057 0.309015 0
    outer loop
      vertex 4.35862 -1.1191 10
      vertex 4.18399 -1.65656 -10
      vertex 4.18399 -1.65656 10
    endloop
  endfacet
  facet normal -0.90483 0.425774 0
    outer loop
      vertex 3.94338 -2.16789 -10
      vertex 4.18399 -1.65656 10
      vertex 4.18399 -1.65656 -10
    endloop
  endfacet
  facet normal -0.90483 0.425774 0
    outer loop
      vertex 4.18399 -1.65656 10
      vertex 3.94338 -2.16789 -10
      vertex 3.94338 -2.16789 10
    endloop
  endfacet
  facet normal -0.998027 0.0627838 0
    outer loop
      vertex 4.46452 -0.563999 -10
      vertex 4.5 0 10
      vertex 4.5 0 -10
    endloop
  endfacet
  facet normal -0.998027 0.0627838 0
    outer loop
      vertex 4.5 0 10
      vertex 4.46452 -0.563999 -10
      vertex 4.46452 -0.563999 10
    endloop
  endfacet
  facet normal 0.248691 0.968583 -0
    outer loop
      vertex -0.843215 -4.42029 -10
      vertex -1.39058 -4.27975 10
      vertex -0.843215 -4.42029 10
    endloop
  endfacet
  facet normal 0.248691 0.968583 0
    outer loop
      vertex -1.39058 -4.27975 10
      vertex -0.843215 -4.42029 -10
      vertex -1.39058 -4.27975 -10
    endloop
  endfacet
  facet normal 0.951057 0.309015 0
    outer loop
      vertex -4.18399 -1.65656 10
      vertex -4.35862 -1.1191 -10
      vertex -4.35862 -1.1191 10
    endloop
  endfacet
  facet normal 0.951057 0.309015 0
    outer loop
      vertex -4.35862 -1.1191 -10
      vertex -4.18399 -1.65656 10
      vertex -4.18399 -1.65656 -10
    endloop
  endfacet
  facet normal 0.998027 0.0627838 0
    outer loop
      vertex -4.46452 -0.563999 10
      vertex -4.5 0 -10
      vertex -4.5 0 10
    endloop
  endfacet
  facet normal 0.998027 0.0627838 0
    outer loop
      vertex -4.5 0 -10
      vertex -4.46452 -0.563999 10
      vertex -4.46452 -0.563999 -10
    endloop
  endfacet
  facet normal -0.770512 0.637425 0
    outer loop
      vertex 3.28036 -3.08046 -10
      vertex 3.64058 -2.64503 10
      vertex 3.64058 -2.64503 -10
    endloop
  endfacet
  facet normal -0.770512 0.637425 0
    outer loop
      vertex 3.64058 -2.64503 10
      vertex 3.28036 -3.08046 -10
      vertex 3.28036 -3.08046 10
    endloop
  endfacet
  facet normal -0.587776 0.809024 0
    outer loop
      vertex 2.86841 -3.46731 -10
      vertex 2.41122 -3.79947 10
      vertex 2.86841 -3.46731 10
    endloop
  endfacet
  facet normal -0.587776 0.809024 0
    outer loop
      vertex 2.41122 -3.79947 10
      vertex 2.86841 -3.46731 -10
      vertex 2.41122 -3.79947 -10
    endloop
  endfacet
  facet normal 0.125337 0.992114 -0
    outer loop
      vertex -0.282557 -4.49112 -10
      vertex -0.843215 -4.42029 10
      vertex -0.282557 -4.49112 10
    endloop
  endfacet
  facet normal 0.125337 0.992114 0
    outer loop
      vertex -0.843215 -4.42029 10
      vertex -0.282557 -4.49112 -10
      vertex -0.843215 -4.42029 -10
    endloop
  endfacet
  facet normal 0.770512 0.637425 0
    outer loop
      vertex -3.28036 -3.08046 10
      vertex -3.64058 -2.64503 -10
      vertex -3.64058 -2.64503 10
    endloop
  endfacet
  facet normal 0.770512 0.637425 0
    outer loop
      vertex -3.64058 -2.64503 -10
      vertex -3.28036 -3.08046 10
      vertex -3.28036 -3.08046 -10
    endloop
  endfacet
  facet normal 0.84433 0.535824 0
    outer loop
      vertex -3.64058 -2.64503 10
      vertex -3.94338 -2.16789 -10
      vertex -3.94338 -2.16789 10
    endloop
  endfacet
  facet normal 0.84433 0.535824 0
    outer loop
      vertex -3.94338 -2.16789 -10
      vertex -3.64058 -2.64503 10
      vertex -3.64058 -2.64503 -10
    endloop
  endfacet
  facet normal 0.982284 0.187396 0
    outer loop
      vertex -4.35862 -1.1191 10
      vertex -4.46452 -0.563999 -10
      vertex -4.46452 -0.563999 10
    endloop
  endfacet
  facet normal 0.982284 0.187396 0
    outer loop
      vertex -4.46452 -0.563999 -10
      vertex -4.35862 -1.1191 10
      vertex -4.35862 -1.1191 -10
    endloop
  endfacet
  facet normal -0.248691 0.968583 0
    outer loop
      vertex 1.39058 -4.27975 -10
      vertex 0.843215 -4.42029 10
      vertex 1.39058 -4.27975 10
    endloop
  endfacet
  facet normal -0.248691 0.968583 0
    outer loop
      vertex 0.843215 -4.42029 10
      vertex 1.39058 -4.27975 -10
      vertex 0.843215 -4.42029 -10
    endloop
  endfacet
  facet normal -0.125337 0.992114 0
    outer loop
      vertex 0.843215 -4.42029 -10
      vertex 0.282557 -4.49112 10
      vertex 0.843215 -4.42029 10
    endloop
  endfacet
  facet normal -0.125337 0.992114 0
    outer loop
      vertex 0.282557 -4.49112 10
      vertex 0.843215 -4.42029 -10
      vertex 0.282557 -4.49112 -10
    endloop
  endfacet
  facet normal 0.481762 0.876302 -0
    outer loop
      vertex -1.91601 -4.07172 -10
      vertex -2.41122 -3.79947 10
      vertex -1.91601 -4.07172 10
    endloop
  endfacet
  facet normal 0.481762 0.876302 0
    outer loop
      vertex -2.41122 -3.79947 10
      vertex -1.91601 -4.07172 -10
      vertex -2.41122 -3.79947 -10
    endloop
  endfacet
  facet normal 0.587776 0.809024 -0
    outer loop
      vertex -2.41122 -3.79947 -10
      vertex -2.86841 -3.46731 10
      vertex -2.41122 -3.79947 10
    endloop
  endfacet
  facet normal 0.587776 0.809024 0
    outer loop
      vertex -2.86841 -3.46731 10
      vertex -2.41122 -3.79947 -10
      vertex -2.86841 -3.46731 -10
    endloop
  endfacet
  facet normal 0.368121 0.929778 -0
    outer loop
      vertex -1.39058 -4.27975 -10
      vertex -1.91601 -4.07172 10
      vertex -1.39058 -4.27975 10
    endloop
  endfacet
  facet normal 0.368121 0.929778 0
    outer loop
      vertex -1.91601 -4.07172 10
      vertex -1.39058 -4.27975 -10
      vertex -1.91601 -4.07172 -10
    endloop
  endfacet
endsolid OpenSCAD_Model
