solid OpenSCAD_Model
  facet normal 0.998026 0.0627987 0
    outer loop
      vertex 4.75 0 10
      vertex 4.71254 0.595332 -10
      vertex 4.71254 0.595332 10
    endloop
  endfacet
  facet normal 0.998026 0.0627987 0
    outer loop
      vertex 4.71254 0.595332 -10
      vertex 4.75 0 10
      vertex 4.75 0 -10
    endloop
  endfacet
  facet normal -0.998026 0.0627987 0
    outer loop
      vertex -4.75 0 -10
      vertex -4.71254 0.595332 10
      vertex -4.71254 0.595332 -10
    endloop
  endfacet
  facet normal -0.998026 0.0627987 0
    outer loop
      vertex -4.71254 0.595332 10
      vertex -4.75 0 -10
      vertex -4.75 0 10
    endloop
  endfacet
  facet normal 0 1 -0
    outer loop
      vertex 0.298255 4.74063 -10
      vertex -0.298255 4.74063 10
      vertex 0.298255 4.74063 10
    endloop
  endfacet
  facet normal 0 1 0
    outer loop
      vertex -0.298255 4.74063 10
      vertex 0.298255 4.74063 -10
      vertex -0.298255 4.74063 -10
    endloop
  endfacet
  facet normal 0 -1 0
    outer loop
      vertex -0.298255 -4.74063 -10
      vertex 0.298255 -4.74063 10
      vertex -0.298255 -4.74063 10
    endloop
  endfacet
  facet normal 0 -1 -0
    outer loop
      vertex 0.298255 -4.74063 10
      vertex -0.298255 -4.74063 -10
      vertex 0.298255 -4.74063 -10
    endloop
  endfacet
  facet normal 0.684545 0.72897 -0
    outer loop
      vertex 3.4626 3.2516 -10
      vertex 3.02776 3.65994 10
      vertex 3.4626 3.2516 10
    endloop
  endfacet
  facet normal 0.684545 0.72897 0
    outer loop
      vertex 3.02776 3.65994 10
      vertex 3.4626 3.2516 -10
      vertex 3.02776 3.65994 -10
    endloop
  endfacet
  facet normal -0.684545 0.72897 0
    outer loop
      vertex -3.02776 3.65994 -10
      vertex -3.4626 3.2516 10
      vertex -3.02776 3.65994 10
    endloop
  endfacet
  facet normal -0.684545 0.72897 0
    outer loop
      vertex -3.4626 3.2516 10
      vertex -3.02776 3.65994 -10
      vertex -3.4626 3.2516 -10
    endloop
  endfacet
  facet normal -0.368125 0.929776 0
    outer loop
      vertex -1.46783 4.51752 -10
      vertex -2.02245 4.29793 10
      vertex -1.46783 4.51752 10
    endloop
  endfacet
  facet normal -0.368125 0.929776 0
    outer loop
      vertex -2.02245 4.29793 10
      vertex -1.46783 4.51752 -10
      vertex -2.02245 4.29793 -10
    endloop
  endfacet
  facet normal 0.904829 0.425776 0
    outer loop
      vertex 4.41644 1.74859 10
      vertex 4.16246 2.28833 -10
      vertex 4.16246 2.28833 10
    endloop
  endfacet
  facet normal 0.904829 0.425776 0
    outer loop
      vertex 4.16246 2.28833 -10
      vertex 4.41644 1.74859 10
      vertex 4.41644 1.74859 -10
    endloop
  endfacet
  facet normal 0.982289 0.187372 0
    outer loop
      vertex 4.71254 0.595332 10
      vertex 4.60077 1.18128 -10
      vertex 4.60077 1.18128 10
    endloop
  endfacet
  facet normal 0.982289 0.187372 0
    outer loop
      vertex 4.60077 1.18128 -10
      vertex 4.71254 0.595332 10
      vertex 4.71254 0.595332 -10
    endloop
  endfacet
  facet normal 0.844325 0.535832 0
    outer loop
      vertex 4.16246 2.28833 10
      vertex 3.84283 2.79198 -10
      vertex 3.84283 2.79198 10
    endloop
  endfacet
  facet normal 0.844325 0.535832 0
    outer loop
      vertex 3.84283 2.79198 -10
      vertex 4.16246 2.28833 10
      vertex 4.16246 2.28833 -10
    endloop
  endfacet
  facet normal 0.368125 0.929776 -0
    outer loop
      vertex 2.02245 4.29793 -10
      vertex 1.46783 4.51752 10
      vertex 2.02245 4.29793 10
    endloop
  endfacet
  facet normal 0.368125 0.929776 0
    outer loop
      vertex 1.46783 4.51752 10
      vertex 2.02245 4.29793 -10
      vertex 1.46783 4.51752 -10
    endloop
  endfacet
  facet normal 0.24868 0.968586 -0
    outer loop
      vertex 1.46783 4.51752 -10
      vertex 0.89006 4.66586 10
      vertex 1.46783 4.51752 10
    endloop
  endfacet
  facet normal 0.24868 0.968586 0
    outer loop
      vertex 0.89006 4.66586 10
      vertex 1.46783 4.51752 -10
      vertex 0.89006 4.66586 -10
    endloop
  endfacet
  facet normal 0.481749 0.876309 -0
    outer loop
      vertex 2.54518 4.01056 -10
      vertex 2.02245 4.29793 10
      vertex 2.54518 4.01056 10
    endloop
  endfacet
  facet normal 0.481749 0.876309 0
    outer loop
      vertex 2.02245 4.29793 10
      vertex 2.54518 4.01056 -10
      vertex 2.02245 4.29793 -10
    endloop
  endfacet
  facet normal -0.904829 0.425776 0
    outer loop
      vertex -4.41644 1.74859 -10
      vertex -4.16246 2.28833 10
      vertex -4.16246 2.28833 -10
    endloop
  endfacet
  facet normal -0.904829 0.425776 0
    outer loop
      vertex -4.16246 2.28833 10
      vertex -4.41644 1.74859 -10
      vertex -4.41644 1.74859 10
    endloop
  endfacet
  facet normal -0.770514 0.637423 0
    outer loop
      vertex -3.84283 2.79198 -10
      vertex -3.4626 3.2516 10
      vertex -3.4626 3.2516 -10
    endloop
  endfacet
  facet normal -0.770514 0.637423 0
    outer loop
      vertex -3.4626 3.2516 10
      vertex -3.84283 2.79198 -10
      vertex -3.84283 2.79198 10
    endloop
  endfacet
  facet normal -0.951057 0.309017 0
    outer loop
      vertex -4.60077 1.18128 -10
      vertex -4.41644 1.74859 10
      vertex -4.41644 1.74859 -10
    endloop
  endfacet
  facet normal -0.951057 0.309017 0
    outer loop
      vertex -4.41644 1.74859 10
      vertex -4.60077 1.18128 -10
      vertex -4.60077 1.18128 10
    endloop
  endfacet
  facet normal -0.24868 0.968586 0
    outer loop
      vertex -0.89006 4.66586 -10
      vertex -1.46783 4.51752 10
      vertex -0.89006 4.66586 10
    endloop
  endfacet
  facet normal -0.24868 0.968586 0
    outer loop
      vertex -1.46783 4.51752 10
      vertex -0.89006 4.66586 -10
      vertex -1.46783 4.51752 -10
    endloop
  endfacet
  facet normal 0.125346 -0.992113 0
    outer loop
      vertex 0.298255 -4.74063 -10
      vertex 0.89006 -4.66586 10
      vertex 0.298255 -4.74063 10
    endloop
  endfacet
  facet normal 0.125346 -0.992113 0
    outer loop
      vertex 0.89006 -4.66586 10
      vertex 0.298255 -4.74063 -10
      vertex 0.89006 -4.66586 -10
    endloop
  endfacet
  facet normal 0.951057 0.309017 0
    outer loop
      vertex 4.60077 1.18128 10
      vertex 4.41644 1.74859 -10
      vertex 4.41644 1.74859 10
    endloop
  endfacet
  facet normal 0.951057 0.309017 0
    outer loop
      vertex 4.41644 1.74859 -10
      vertex 4.60077 1.18128 10
      vertex 4.60077 1.18128 -10
    endloop
  endfacet
  facet normal 0.770514 0.637423 0
    outer loop
      vertex 3.84283 2.79198 10
      vertex 3.4626 3.2516 -10
      vertex 3.4626 3.2516 10
    endloop
  endfacet
  facet normal 0.770514 0.637423 0
    outer loop
      vertex 3.4626 3.2516 -10
      vertex 3.84283 2.79198 10
      vertex 3.84283 2.79198 -10
    endloop
  endfacet
  facet normal 0.125346 0.992113 -0
    outer loop
      vertex 0.89006 4.66586 -10
      vertex 0.298255 4.74063 10
      vertex 0.89006 4.66586 10
    endloop
  endfacet
  facet normal 0.125346 0.992113 0
    outer loop
      vertex 0.298255 4.74063 10
      vertex 0.89006 4.66586 -10
      vertex 0.298255 4.74063 -10
    endloop
  endfacet
  facet normal 0.587791 0.809013 -0
    outer loop
      vertex 3.02776 3.65994 -10
      vertex 2.54518 4.01056 10
      vertex 3.02776 3.65994 10
    endloop
  endfacet
  facet normal 0.587791 0.809013 0
    outer loop
      vertex 2.54518 4.01056 10
      vertex 3.02776 3.65994 -10
      vertex 2.54518 4.01056 -10
    endloop
  endfacet
  facet normal -0.844325 0.535832 0
    outer loop
      vertex -4.16246 2.28833 -10
      vertex -3.84283 2.79198 10
      vertex -3.84283 2.79198 -10
    endloop
  endfacet
  facet normal -0.844325 0.535832 0
    outer loop
      vertex -3.84283 2.79198 10
      vertex -4.16246 2.28833 -10
      vertex -4.16246 2.28833 10
    endloop
  endfacet
  facet normal -0.982289 0.187372 0
    outer loop
      vertex -4.71254 0.595332 -10
      vertex -4.60077 1.18128 10
      vertex -4.60077 1.18128 -10
    endloop
  endfacet
  facet normal -0.982289 0.187372 0
    outer loop
      vertex -4.60077 1.18128 10
      vertex -4.71254 0.595332 -10
      vertex -4.71254 0.595332 10
    endloop
  endfacet
  facet normal 0 0 1
    outer loop
      vertex 1.55 0 10
      vertex 4.75 0 10
      vertex 4.71254 0.595332 10
    endloop
  endfacet
  facet normal 0 0 1
    outer loop
      vertex 1.53778 0.194266 10
      vertex 4.71254 0.595332 10
      vertex 4.60077 1.18128 10
    endloop
  endfacet
  facet normal 0 0 1
    outer loop
      vertex 4.75 0 10
      vertex 1.55 0 10
      vertex 4.71254 -0.595332 10
    endloop
  endfacet
  facet normal 0 0 1
    outer loop
      vertex 1.5013 0.385468 10
      vertex 4.60077 1.18128 10
      vertex 4.41644 1.74859 10
    endloop
  endfacet
  facet normal -0 0 1
    outer loop
      vertex 1.53778 -0.194266 10
      vertex 4.71254 -0.595332 10
      vertex 1.55 0 10
    endloop
  endfacet
  facet normal 0 0 1
    outer loop
      vertex 1.44115 0.570593 10
      vertex 4.41644 1.74859 10
      vertex 4.16246 2.28833 10
    endloop
  endfacet
  facet normal 0 0 1
    outer loop
      vertex 4.71254 -0.595332 10
      vertex 1.53778 -0.194266 10
      vertex 4.60077 -1.18128 10
    endloop
  endfacet
  facet normal 0 0 1
    outer loop
      vertex 1.35827 0.746717 10
      vertex 4.16246 2.28833 10
      vertex 3.84283 2.79198 10
    endloop
  endfacet
  facet normal -0 0 1
    outer loop
      vertex 1.5013 -0.385468 10
      vertex 4.60077 -1.18128 10
      vertex 1.53778 -0.194266 10
    endloop
  endfacet
  facet normal 0 0 1
    outer loop
      vertex 1.25398 0.911067 10
      vertex 3.84283 2.79198 10
      vertex 3.4626 3.2516 10
    endloop
  endfacet
  facet normal 0 0 1
    outer loop
      vertex 4.60077 -1.18128 10
      vertex 1.5013 -0.385468 10
      vertex 4.41644 -1.74859 10
    endloop
  endfacet
  facet normal 0 0 1
    outer loop
      vertex 1.1299 1.06105 10
      vertex 3.4626 3.2516 10
      vertex 3.02776 3.65994 10
    endloop
  endfacet
  facet normal -0 0 1
    outer loop
      vertex 1.44115 -0.570593 10
      vertex 4.41644 -1.74859 10
      vertex 1.5013 -0.385468 10
    endloop
  endfacet
  facet normal 0 0 1
    outer loop
      vertex 0.988007 1.19429 10
      vertex 3.02776 3.65994 10
      vertex 2.54518 4.01056 10
    endloop
  endfacet
  facet normal 0 0 1
    outer loop
      vertex 4.41644 -1.74859 10
      vertex 1.44115 -0.570593 10
      vertex 4.16246 -2.28833 10
    endloop
  endfacet
  facet normal 0 0 1
    outer loop
      vertex 0.830531 1.30871 10
      vertex 2.54518 4.01056 10
      vertex 2.02245 4.29793 10
    endloop
  endfacet
  facet normal -0 0 1
    outer loop
      vertex 1.35827 -0.746717 10
      vertex 4.16246 -2.28833 10
      vertex 1.44115 -0.570593 10
    endloop
  endfacet
  facet normal 0 0 1
    outer loop
      vertex 4.16246 -2.28833 10
      vertex 1.35827 -0.746717 10
      vertex 3.84283 -2.79198 10
    endloop
  endfacet
  facet normal 0 0 1
    outer loop
      vertex 4.71254 0.595332 10
      vertex 1.53778 0.194266 10
      vertex 1.55 0 10
    endloop
  endfacet
  facet normal 0 0 1
    outer loop
      vertex 4.60077 1.18128 10
      vertex 1.5013 0.385468 10
      vertex 1.53778 0.194266 10
    endloop
  endfacet
  facet normal 0 0 1
    outer loop
      vertex 0.659958 1.40248 10
      vertex 2.02245 4.29793 10
      vertex 1.46783 4.51752 10
    endloop
  endfacet
  facet normal 0 0 1
    outer loop
      vertex 4.41644 1.74859 10
      vertex 1.44115 0.570593 10
      vertex 1.5013 0.385468 10
    endloop
  endfacet
  facet normal 0 0 1
    outer loop
      vertex 4.16246 2.28833 10
      vertex 1.35827 0.746717 10
      vertex 1.44115 0.570593 10
    endloop
  endfacet
  facet normal 0 0 1
    outer loop
      vertex 3.84283 2.79198 10
      vertex 1.25398 0.911067 10
      vertex 1.35827 0.746717 10
    endloop
  endfacet
  facet normal 0 0 1
    outer loop
      vertex 3.4626 3.2516 10
      vertex 1.1299 1.06105 10
      vertex 1.25398 0.911067 10
    endloop
  endfacet
  facet normal 0 0 1
    outer loop
      vertex 3.02776 3.65994 10
      vertex 0.988007 1.19429 10
      vertex 1.1299 1.06105 10
    endloop
  endfacet
  facet normal 0 0 1
    outer loop
      vertex 0.478976 1.47414 10
      vertex 1.46783 4.51752 10
      vertex 0.89006 4.66586 10
    endloop
  endfacet
  facet normal 0 0 1
    outer loop
      vertex 2.54518 4.01056 10
      vertex 0.830531 1.30871 10
      vertex 0.988007 1.19429 10
    endloop
  endfacet
  facet normal 0 0 1
    outer loop
      vertex 2.02245 4.29793 10
      vertex 0.659958 1.40248 10
      vertex 0.830531 1.30871 10
    endloop
  endfacet
  facet normal 0 0 1
    outer loop
      vertex 1.46783 4.51752 10
      vertex 0.478976 1.47414 10
      vertex 0.659958 1.40248 10
    endloop
  endfacet
  facet normal 0 0 1
    outer loop
      vertex 0.290441 1.52254 10
      vertex 0.89006 4.66586 10
      vertex 0.298255 4.74063 10
    endloop
  endfacet
  facet normal 0 0 1
    outer loop
      vertex 0.89006 4.66586 10
      vertex 0.290441 1.52254 10
      vertex 0.478976 1.47414 10
    endloop
  endfacet
  facet normal 0 0 1
    outer loop
      vertex 0.298255 4.74063 10
      vertex 0.0973244 1.54694 10
      vertex 0.290441 1.52254 10
    endloop
  endfacet
  facet normal 0 0 1
    outer loop
      vertex 0.298255 4.74063 10
      vertex -0.0973244 1.54694 10
      vertex 0.0973244 1.54694 10
    endloop
  endfacet
  facet normal -0 0 1
    outer loop
      vertex -0.298255 4.74063 10
      vertex -0.0973244 1.54694 10
      vertex 0.298255 4.74063 10
    endloop
  endfacet
  facet normal 0 0 1
    outer loop
      vertex -0.0973244 1.54694 10
      vertex -0.298255 4.74063 10
      vertex -0.290441 1.52254 10
    endloop
  endfacet
  facet normal -0 0 1
    outer loop
      vertex -0.89006 4.66586 10
      vertex -0.290441 1.52254 10
      vertex -0.298255 4.74063 10
    endloop
  endfacet
  facet normal 0 0 1
    outer loop
      vertex -0.290441 1.52254 10
      vertex -0.89006 4.66586 10
      vertex -0.478976 1.47414 10
    endloop
  endfacet
  facet normal -0 0 1
    outer loop
      vertex -1.46783 4.51752 10
      vertex -0.478976 1.47414 10
      vertex -0.89006 4.66586 10
    endloop
  endfacet
  facet normal 0 0 1
    outer loop
      vertex -0.478976 1.47414 10
      vertex -1.46783 4.51752 10
      vertex -0.659958 1.40248 10
    endloop
  endfacet
  facet normal -0 0 1
    outer loop
      vertex -2.02245 4.29793 10
      vertex -0.659958 1.40248 10
      vertex -1.46783 4.51752 10
    endloop
  endfacet
  facet normal 0 0 1
    outer loop
      vertex -0.659958 1.40248 10
      vertex -2.02245 4.29793 10
      vertex -0.830531 1.30871 10
    endloop
  endfacet
  facet normal -0 0 1
    outer loop
      vertex -2.54518 4.01056 10
      vertex -0.830531 1.30871 10
      vertex -2.02245 4.29793 10
    endloop
  endfacet
  facet normal 0 0 1
    outer loop
      vertex -0.830531 1.30871 10
      vertex -2.54518 4.01056 10
      vertex -0.988007 1.19429 10
    endloop
  endfacet
  facet normal -0 0 1
    outer loop
      vertex -3.02776 3.65994 10
      vertex -0.988007 1.19429 10
      vertex -2.54518 4.01056 10
    endloop
  endfacet
  facet normal 0 0 1
    outer loop
      vertex -0.988007 1.19429 10
      vertex -3.02776 3.65994 10
      vertex -1.1299 1.06105 10
    endloop
  endfacet
  facet normal -0 0 1
    outer loop
      vertex -3.4626 3.2516 10
      vertex -1.1299 1.06105 10
      vertex -3.02776 3.65994 10
    endloop
  endfacet
  facet normal 0 0 1
    outer loop
      vertex -1.1299 1.06105 10
      vertex -3.4626 3.2516 10
      vertex -1.25398 0.911067 10
    endloop
  endfacet
  facet normal -0 0 1
    outer loop
      vertex -3.84283 2.79198 10
      vertex -1.25398 0.911067 10
      vertex -3.4626 3.2516 10
    endloop
  endfacet
  facet normal 0 0 1
    outer loop
      vertex -1.25398 0.911067 10
      vertex -3.84283 2.79198 10
      vertex -1.35827 0.746717 10
    endloop
  endfacet
  facet normal -0 0 1
    outer loop
      vertex 1.25398 -0.911067 10
      vertex 3.84283 -2.79198 10
      vertex 1.35827 -0.746717 10
    endloop
  endfacet
  facet normal 0 0 1
    outer loop
      vertex 3.84283 -2.79198 10
      vertex 1.25398 -0.911067 10
      vertex 3.4626 -3.2516 10
    endloop
  endfacet
  facet normal -0 0 1
    outer loop
      vertex 1.1299 -1.06105 10
      vertex 3.4626 -3.2516 10
      vertex 1.25398 -0.911067 10
    endloop
  endfacet
  facet normal 0 0 1
    outer loop
      vertex 3.4626 -3.2516 10
      vertex 1.1299 -1.06105 10
      vertex 3.02776 -3.65994 10
    endloop
  endfacet
  facet normal -0 0 1
    outer loop
      vertex 0.988007 -1.19429 10
      vertex 3.02776 -3.65994 10
      vertex 1.1299 -1.06105 10
    endloop
  endfacet
  facet normal 0 0 1
    outer loop
      vertex 3.02776 -3.65994 10
      vertex 0.988007 -1.19429 10
      vertex 2.54518 -4.01056 10
    endloop
  endfacet
  facet normal -0 0 1
    outer loop
      vertex 0.830531 -1.30871 10
      vertex 2.54518 -4.01056 10
      vertex 0.988007 -1.19429 10
    endloop
  endfacet
  facet normal 0 0 1
    outer loop
      vertex 2.54518 -4.01056 10
      vertex 0.830531 -1.30871 10
      vertex 2.02245 -4.29793 10
    endloop
  endfacet
  facet normal -0 0 1
    outer loop
      vertex 0.659958 -1.40248 10
      vertex 2.02245 -4.29793 10
      vertex 0.830531 -1.30871 10
    endloop
  endfacet
  facet normal 0 0 1
    outer loop
      vertex 2.02245 -4.29793 10
      vertex 0.659958 -1.40248 10
      vertex 1.46783 -4.51752 10
    endloop
  endfacet
  facet normal -0 0 1
    outer loop
      vertex 0.478976 -1.47414 10
      vertex 1.46783 -4.51752 10
      vertex 0.659958 -1.40248 10
    endloop
  endfacet
  facet normal 0 0 1
    outer loop
      vertex 1.46783 -4.51752 10
      vertex 0.478976 -1.47414 10
      vertex 0.89006 -4.66586 10
    endloop
  endfacet
  facet normal -0 0 1
    outer loop
      vertex 0.290441 -1.52254 10
      vertex 0.89006 -4.66586 10
      vertex 0.478976 -1.47414 10
    endloop
  endfacet
  facet normal 0 0 1
    outer loop
      vertex 0.89006 -4.66586 10
      vertex 0.290441 -1.52254 10
      vertex 0.298255 -4.74063 10
    endloop
  endfacet
  facet normal -0 0 1
    outer loop
      vertex 0.0973244 -1.54694 10
      vertex 0.298255 -4.74063 10
      vertex 0.290441 -1.52254 10
    endloop
  endfacet
  facet normal -0 0 1
    outer loop
      vertex -0.0973244 -1.54694 10
      vertex 0.298255 -4.74063 10
      vertex 0.0973244 -1.54694 10
    endloop
  endfacet
  facet normal 0 0 1
    outer loop
      vertex -0.298255 -4.74063 10
      vertex -0.0973244 -1.54694 10
      vertex -0.290441 -1.52254 10
    endloop
  endfacet
  facet normal 0 0 1
    outer loop
      vertex -0.0973244 -1.54694 10
      vertex -0.298255 -4.74063 10
      vertex 0.298255 -4.74063 10
    endloop
  endfacet
  facet normal 0 0 1
    outer loop
      vertex -0.89006 -4.66586 10
      vertex -0.290441 -1.52254 10
      vertex -0.478976 -1.47414 10
    endloop
  endfacet
  facet normal 0 0 1
    outer loop
      vertex -1.46783 -4.51752 10
      vertex -0.478976 -1.47414 10
      vertex -0.659958 -1.40248 10
    endloop
  endfacet
  facet normal 0 0 1
    outer loop
      vertex -2.02245 -4.29793 10
      vertex -0.659958 -1.40248 10
      vertex -0.830531 -1.30871 10
    endloop
  endfacet
  facet normal 0 0 1
    outer loop
      vertex -0.290441 -1.52254 10
      vertex -0.89006 -4.66586 10
      vertex -0.298255 -4.74063 10
    endloop
  endfacet
  facet normal 0 0 1
    outer loop
      vertex -2.54518 -4.01056 10
      vertex -0.830531 -1.30871 10
      vertex -0.988007 -1.19429 10
    endloop
  endfacet
  facet normal 0 0 1
    outer loop
      vertex -3.02776 -3.65994 10
      vertex -0.988007 -1.19429 10
      vertex -1.1299 -1.06105 10
    endloop
  endfacet
  facet normal 0 0 1
    outer loop
      vertex -3.4626 -3.2516 10
      vertex -1.1299 -1.06105 10
      vertex -1.25398 -0.911067 10
    endloop
  endfacet
  facet normal 0 0 1
    outer loop
      vertex -3.84283 -2.79198 10
      vertex -1.25398 -0.911067 10
      vertex -1.35827 -0.746717 10
    endloop
  endfacet
  facet normal 0 0 1
    outer loop
      vertex -4.16246 -2.28833 10
      vertex -1.35827 -0.746717 10
      vertex -1.44115 -0.570593 10
    endloop
  endfacet
  facet normal 0 0 1
    outer loop
      vertex -0.478976 -1.47414 10
      vertex -1.46783 -4.51752 10
      vertex -0.89006 -4.66586 10
    endloop
  endfacet
  facet normal 0 0 1
    outer loop
      vertex -4.41644 -1.74859 10
      vertex -1.44115 -0.570593 10
      vertex -1.5013 -0.385468 10
    endloop
  endfacet
  facet normal 0 0 1
    outer loop
      vertex -4.60077 -1.18128 10
      vertex -1.5013 -0.385468 10
      vertex -1.53778 -0.194266 10
    endloop
  endfacet
  facet normal 0 0 1
    outer loop
      vertex -4.71254 -0.595332 10
      vertex -1.53778 -0.194266 10
      vertex -1.55 0 10
    endloop
  endfacet
  facet normal -0 0 1
    outer loop
      vertex -4.16246 2.28833 10
      vertex -1.35827 0.746717 10
      vertex -3.84283 2.79198 10
    endloop
  endfacet
  facet normal 0 0 1
    outer loop
      vertex -0.659958 -1.40248 10
      vertex -2.02245 -4.29793 10
      vertex -1.46783 -4.51752 10
    endloop
  endfacet
  facet normal 0 0 1
    outer loop
      vertex -1.35827 0.746717 10
      vertex -4.16246 2.28833 10
      vertex -1.44115 0.570593 10
    endloop
  endfacet
  facet normal 0 0 1
    outer loop
      vertex -0.830531 -1.30871 10
      vertex -2.54518 -4.01056 10
      vertex -2.02245 -4.29793 10
    endloop
  endfacet
  facet normal -0 0 1
    outer loop
      vertex -4.41644 1.74859 10
      vertex -1.44115 0.570593 10
      vertex -4.16246 2.28833 10
    endloop
  endfacet
  facet normal 0 0 1
    outer loop
      vertex -0.988007 -1.19429 10
      vertex -3.02776 -3.65994 10
      vertex -2.54518 -4.01056 10
    endloop
  endfacet
  facet normal 0 0 1
    outer loop
      vertex -1.44115 0.570593 10
      vertex -4.41644 1.74859 10
      vertex -1.5013 0.385468 10
    endloop
  endfacet
  facet normal 0 0 1
    outer loop
      vertex -1.1299 -1.06105 10
      vertex -3.4626 -3.2516 10
      vertex -3.02776 -3.65994 10
    endloop
  endfacet
  facet normal -0 0 1
    outer loop
      vertex -4.60077 1.18128 10
      vertex -1.5013 0.385468 10
      vertex -4.41644 1.74859 10
    endloop
  endfacet
  facet normal 0 0 1
    outer loop
      vertex -1.25398 -0.911067 10
      vertex -3.84283 -2.79198 10
      vertex -3.4626 -3.2516 10
    endloop
  endfacet
  facet normal 0 0 1
    outer loop
      vertex -1.5013 0.385468 10
      vertex -4.60077 1.18128 10
      vertex -1.53778 0.194266 10
    endloop
  endfacet
  facet normal 0 0 1
    outer loop
      vertex -1.35827 -0.746717 10
      vertex -4.16246 -2.28833 10
      vertex -3.84283 -2.79198 10
    endloop
  endfacet
  facet normal -0 0 1
    outer loop
      vertex -4.71254 0.595332 10
      vertex -1.53778 0.194266 10
      vertex -4.60077 1.18128 10
    endloop
  endfacet
  facet normal 0 0 1
    outer loop
      vertex -1.44115 -0.570593 10
      vertex -4.41644 -1.74859 10
      vertex -4.16246 -2.28833 10
    endloop
  endfacet
  facet normal 0 0 1
    outer loop
      vertex -1.53778 0.194266 10
      vertex -4.71254 0.595332 10
      vertex -1.55 0 10
    endloop
  endfacet
  facet normal 0 0 1
    outer loop
      vertex -1.5013 -0.385468 10
      vertex -4.60077 -1.18128 10
      vertex -4.41644 -1.74859 10
    endloop
  endfacet
  facet normal 0 0 1
    outer loop
      vertex -4.75 0 10
      vertex -1.55 0 10
      vertex -4.71254 0.595332 10
    endloop
  endfacet
  facet normal 0 0 1
    outer loop
      vertex -1.53778 -0.194266 10
      vertex -4.71254 -0.595332 10
      vertex -4.60077 -1.18128 10
    endloop
  endfacet
  facet normal 0 0 1
    outer loop
      vertex -1.55 0 10
      vertex -4.75 0 10
      vertex -4.71254 -0.595332 10
    endloop
  endfacet
  facet normal -0.481749 0.876309 0
    outer loop
      vertex -2.02245 4.29793 -10
      vertex -2.54518 4.01056 10
      vertex -2.02245 4.29793 10
    endloop
  endfacet
  facet normal -0.481749 0.876309 0
    outer loop
      vertex -2.54518 4.01056 10
      vertex -2.02245 4.29793 -10
      vertex -2.54518 4.01056 -10
    endloop
  endfacet
  facet normal -0.587791 0.809013 0
    outer loop
      vertex -2.54518 4.01056 -10
      vertex -3.02776 3.65994 10
      vertex -2.54518 4.01056 10
    endloop
  endfacet
  facet normal -0.587791 0.809013 0
    outer loop
      vertex -3.02776 3.65994 10
      vertex -2.54518 4.01056 -10
      vertex -3.02776 3.65994 -10
    endloop
  endfacet
  facet normal -0.125346 0.992113 0
    outer loop
      vertex -0.298255 4.74063 -10
      vertex -0.89006 4.66586 10
      vertex -0.298255 4.74063 10
    endloop
  endfacet
  facet normal -0.125346 0.992113 0
    outer loop
      vertex -0.89006 4.66586 10
      vertex -0.298255 4.74063 -10
      vertex -0.89006 4.66586 -10
    endloop
  endfacet
  facet normal 0.998026 -0.0627987 0
    outer loop
      vertex 4.71254 -0.595332 10
      vertex 4.75 0 -10
      vertex 4.75 0 10
    endloop
  endfacet
  facet normal 0.998026 -0.0627987 0
    outer loop
      vertex 4.75 0 -10
      vertex 4.71254 -0.595332 10
      vertex 4.71254 -0.595332 -10
    endloop
  endfacet
  facet normal 0.770514 -0.637423 0
    outer loop
      vertex 3.4626 -3.2516 10
      vertex 3.84283 -2.79198 -10
      vertex 3.84283 -2.79198 10
    endloop
  endfacet
  facet normal 0.770514 -0.637423 0
    outer loop
      vertex 3.84283 -2.79198 -10
      vertex 3.4626 -3.2516 10
      vertex 3.4626 -3.2516 -10
    endloop
  endfacet
  facet normal 0.951057 -0.309017 0
    outer loop
      vertex 4.41644 -1.74859 10
      vertex 4.60077 -1.18128 -10
      vertex 4.60077 -1.18128 10
    endloop
  endfacet
  facet normal 0.951057 -0.309017 0
    outer loop
      vertex 4.60077 -1.18128 -10
      vertex 4.41644 -1.74859 10
      vertex 4.41644 -1.74859 -10
    endloop
  endfacet
  facet normal 0.982289 -0.187372 0
    outer loop
      vertex 4.60077 -1.18128 10
      vertex 4.71254 -0.595332 -10
      vertex 4.71254 -0.595332 10
    endloop
  endfacet
  facet normal 0.982289 -0.187372 0
    outer loop
      vertex 4.71254 -0.595332 -10
      vertex 4.60077 -1.18128 10
      vertex 4.60077 -1.18128 -10
    endloop
  endfacet
  facet normal -0.904829 -0.425776 0
    outer loop
      vertex -4.16246 -2.28833 -10
      vertex -4.41644 -1.74859 10
      vertex -4.41644 -1.74859 -10
    endloop
  endfacet
  facet normal -0.904829 -0.425776 0
    outer loop
      vertex -4.41644 -1.74859 10
      vertex -4.16246 -2.28833 -10
      vertex -4.16246 -2.28833 10
    endloop
  endfacet
  facet normal 0 0 -1
    outer loop
      vertex 1.55 0 -10
      vertex 4.75 0 -10
      vertex 4.71254 -0.595332 -10
    endloop
  endfacet
  facet normal 0 0 -1
    outer loop
      vertex 1.53778 -0.194266 -10
      vertex 4.71254 -0.595332 -10
      vertex 4.60077 -1.18128 -10
    endloop
  endfacet
  facet normal 0 0 -1
    outer loop
      vertex 4.75 0 -10
      vertex 1.55 0 -10
      vertex 4.71254 0.595332 -10
    endloop
  endfacet
  facet normal 0 0 -1
    outer loop
      vertex 1.5013 -0.385468 -10
      vertex 4.60077 -1.18128 -10
      vertex 4.41644 -1.74859 -10
    endloop
  endfacet
  facet normal 0 0 -1
    outer loop
      vertex 1.53778 0.194266 -10
      vertex 4.71254 0.595332 -10
      vertex 1.55 0 -10
    endloop
  endfacet
  facet normal 0 0 -1
    outer loop
      vertex 1.44115 -0.570593 -10
      vertex 4.41644 -1.74859 -10
      vertex 4.16246 -2.28833 -10
    endloop
  endfacet
  facet normal -0 0 -1
    outer loop
      vertex 4.71254 0.595332 -10
      vertex 1.53778 0.194266 -10
      vertex 4.60077 1.18128 -10
    endloop
  endfacet
  facet normal 0 0 -1
    outer loop
      vertex 1.35827 -0.746717 -10
      vertex 4.16246 -2.28833 -10
      vertex 3.84283 -2.79198 -10
    endloop
  endfacet
  facet normal 0 0 -1
    outer loop
      vertex 1.5013 0.385468 -10
      vertex 4.60077 1.18128 -10
      vertex 1.53778 0.194266 -10
    endloop
  endfacet
  facet normal 0 0 -1
    outer loop
      vertex 1.25398 -0.911067 -10
      vertex 3.84283 -2.79198 -10
      vertex 3.4626 -3.2516 -10
    endloop
  endfacet
  facet normal -0 0 -1
    outer loop
      vertex 4.60077 1.18128 -10
      vertex 1.5013 0.385468 -10
      vertex 4.41644 1.74859 -10
    endloop
  endfacet
  facet normal 0 0 -1
    outer loop
      vertex 1.1299 -1.06105 -10
      vertex 3.4626 -3.2516 -10
      vertex 3.02776 -3.65994 -10
    endloop
  endfacet
  facet normal 0 0 -1
    outer loop
      vertex 1.44115 0.570593 -10
      vertex 4.41644 1.74859 -10
      vertex 1.5013 0.385468 -10
    endloop
  endfacet
  facet normal 0 0 -1
    outer loop
      vertex 0.988007 -1.19429 -10
      vertex 3.02776 -3.65994 -10
      vertex 2.54518 -4.01056 -10
    endloop
  endfacet
  facet normal -0 0 -1
    outer loop
      vertex 4.41644 1.74859 -10
      vertex 1.44115 0.570593 -10
      vertex 4.16246 2.28833 -10
    endloop
  endfacet
  facet normal 0 0 -1
    outer loop
      vertex 0.830531 -1.30871 -10
      vertex 2.54518 -4.01056 -10
      vertex 2.02245 -4.29793 -10
    endloop
  endfacet
  facet normal 0 0 -1
    outer loop
      vertex 1.35827 0.746717 -10
      vertex 4.16246 2.28833 -10
      vertex 1.44115 0.570593 -10
    endloop
  endfacet
  facet normal -0 0 -1
    outer loop
      vertex 4.16246 2.28833 -10
      vertex 1.35827 0.746717 -10
      vertex 3.84283 2.79198 -10
    endloop
  endfacet
  facet normal 0 0 -1
    outer loop
      vertex 4.71254 -0.595332 -10
      vertex 1.53778 -0.194266 -10
      vertex 1.55 0 -10
    endloop
  endfacet
  facet normal 0 0 -1
    outer loop
      vertex 4.60077 -1.18128 -10
      vertex 1.5013 -0.385468 -10
      vertex 1.53778 -0.194266 -10
    endloop
  endfacet
  facet normal 0 0 -1
    outer loop
      vertex 0.659958 -1.40248 -10
      vertex 2.02245 -4.29793 -10
      vertex 1.46783 -4.51752 -10
    endloop
  endfacet
  facet normal 0 0 -1
    outer loop
      vertex 4.41644 -1.74859 -10
      vertex 1.44115 -0.570593 -10
      vertex 1.5013 -0.385468 -10
    endloop
  endfacet
  facet normal 0 0 -1
    outer loop
      vertex 4.16246 -2.28833 -10
      vertex 1.35827 -0.746717 -10
      vertex 1.44115 -0.570593 -10
    endloop
  endfacet
  facet normal 0 0 -1
    outer loop
      vertex 3.84283 -2.79198 -10
      vertex 1.25398 -0.911067 -10
      vertex 1.35827 -0.746717 -10
    endloop
  endfacet
  facet normal 0 0 -1
    outer loop
      vertex 3.4626 -3.2516 -10
      vertex 1.1299 -1.06105 -10
      vertex 1.25398 -0.911067 -10
    endloop
  endfacet
  facet normal 0 0 -1
    outer loop
      vertex 3.02776 -3.65994 -10
      vertex 0.988007 -1.19429 -10
      vertex 1.1299 -1.06105 -10
    endloop
  endfacet
  facet normal 0 0 -1
    outer loop
      vertex 0.478976 -1.47414 -10
      vertex 1.46783 -4.51752 -10
      vertex 0.89006 -4.66586 -10
    endloop
  endfacet
  facet normal 0 0 -1
    outer loop
      vertex 2.54518 -4.01056 -10
      vertex 0.830531 -1.30871 -10
      vertex 0.988007 -1.19429 -10
    endloop
  endfacet
  facet normal 0 0 -1
    outer loop
      vertex 2.02245 -4.29793 -10
      vertex 0.659958 -1.40248 -10
      vertex 0.830531 -1.30871 -10
    endloop
  endfacet
  facet normal 0 0 -1
    outer loop
      vertex 1.46783 -4.51752 -10
      vertex 0.478976 -1.47414 -10
      vertex 0.659958 -1.40248 -10
    endloop
  endfacet
  facet normal 0 0 -1
    outer loop
      vertex 0.290441 -1.52254 -10
      vertex 0.89006 -4.66586 -10
      vertex 0.298255 -4.74063 -10
    endloop
  endfacet
  facet normal 0 0 -1
    outer loop
      vertex 0.89006 -4.66586 -10
      vertex 0.290441 -1.52254 -10
      vertex 0.478976 -1.47414 -10
    endloop
  endfacet
  facet normal 0 0 -1
    outer loop
      vertex 0.298255 -4.74063 -10
      vertex 0.0973244 -1.54694 -10
      vertex 0.290441 -1.52254 -10
    endloop
  endfacet
  facet normal 0 0 -1
    outer loop
      vertex 0.298255 -4.74063 -10
      vertex -0.0973244 -1.54694 -10
      vertex 0.0973244 -1.54694 -10
    endloop
  endfacet
  facet normal 0 0 -1
    outer loop
      vertex -0.298255 -4.74063 -10
      vertex -0.0973244 -1.54694 -10
      vertex 0.298255 -4.74063 -10
    endloop
  endfacet
  facet normal -0 0 -1
    outer loop
      vertex -0.0973244 -1.54694 -10
      vertex -0.298255 -4.74063 -10
      vertex -0.290441 -1.52254 -10
    endloop
  endfacet
  facet normal 0 0 -1
    outer loop
      vertex -0.89006 -4.66586 -10
      vertex -0.290441 -1.52254 -10
      vertex -0.298255 -4.74063 -10
    endloop
  endfacet
  facet normal -0 0 -1
    outer loop
      vertex -0.290441 -1.52254 -10
      vertex -0.89006 -4.66586 -10
      vertex -0.478976 -1.47414 -10
    endloop
  endfacet
  facet normal 0 0 -1
    outer loop
      vertex -1.46783 -4.51752 -10
      vertex -0.478976 -1.47414 -10
      vertex -0.89006 -4.66586 -10
    endloop
  endfacet
  facet normal -0 0 -1
    outer loop
      vertex -0.478976 -1.47414 -10
      vertex -1.46783 -4.51752 -10
      vertex -0.659958 -1.40248 -10
    endloop
  endfacet
  facet normal 0 0 -1
    outer loop
      vertex -2.02245 -4.29793 -10
      vertex -0.659958 -1.40248 -10
      vertex -1.46783 -4.51752 -10
    endloop
  endfacet
  facet normal -0 0 -1
    outer loop
      vertex -0.659958 -1.40248 -10
      vertex -2.02245 -4.29793 -10
      vertex -0.830531 -1.30871 -10
    endloop
  endfacet
  facet normal 0 0 -1
    outer loop
      vertex -2.54518 -4.01056 -10
      vertex -0.830531 -1.30871 -10
      vertex -2.02245 -4.29793 -10
    endloop
  endfacet
  facet normal -0 0 -1
    outer loop
      vertex -0.830531 -1.30871 -10
      vertex -2.54518 -4.01056 -10
      vertex -0.988007 -1.19429 -10
    endloop
  endfacet
  facet normal 0 0 -1
    outer loop
      vertex -3.02776 -3.65994 -10
      vertex -0.988007 -1.19429 -10
      vertex -2.54518 -4.01056 -10
    endloop
  endfacet
  facet normal -0 0 -1
    outer loop
      vertex -0.988007 -1.19429 -10
      vertex -3.02776 -3.65994 -10
      vertex -1.1299 -1.06105 -10
    endloop
  endfacet
  facet normal 0 0 -1
    outer loop
      vertex -3.4626 -3.2516 -10
      vertex -1.1299 -1.06105 -10
      vertex -3.02776 -3.65994 -10
    endloop
  endfacet
  facet normal -0 0 -1
    outer loop
      vertex -1.1299 -1.06105 -10
      vertex -3.4626 -3.2516 -10
      vertex -1.25398 -0.911067 -10
    endloop
  endfacet
  facet normal 0 0 -1
    outer loop
      vertex -3.84283 -2.79198 -10
      vertex -1.25398 -0.911067 -10
      vertex -3.4626 -3.2516 -10
    endloop
  endfacet
  facet normal -0 0 -1
    outer loop
      vertex -1.25398 -0.911067 -10
      vertex -3.84283 -2.79198 -10
      vertex -1.35827 -0.746717 -10
    endloop
  endfacet
  facet normal 0 0 -1
    outer loop
      vertex 1.25398 0.911067 -10
      vertex 3.84283 2.79198 -10
      vertex 1.35827 0.746717 -10
    endloop
  endfacet
  facet normal -0 0 -1
    outer loop
      vertex 3.84283 2.79198 -10
      vertex 1.25398 0.911067 -10
      vertex 3.4626 3.2516 -10
    endloop
  endfacet
  facet normal 0 0 -1
    outer loop
      vertex 1.1299 1.06105 -10
      vertex 3.4626 3.2516 -10
      vertex 1.25398 0.911067 -10
    endloop
  endfacet
  facet normal -0 0 -1
    outer loop
      vertex 3.4626 3.2516 -10
      vertex 1.1299 1.06105 -10
      vertex 3.02776 3.65994 -10
    endloop
  endfacet
  facet normal 0 0 -1
    outer loop
      vertex 0.988007 1.19429 -10
      vertex 3.02776 3.65994 -10
      vertex 1.1299 1.06105 -10
    endloop
  endfacet
  facet normal -0 0 -1
    outer loop
      vertex 3.02776 3.65994 -10
      vertex 0.988007 1.19429 -10
      vertex 2.54518 4.01056 -10
    endloop
  endfacet
  facet normal 0 0 -1
    outer loop
      vertex 0.830531 1.30871 -10
      vertex 2.54518 4.01056 -10
      vertex 0.988007 1.19429 -10
    endloop
  endfacet
  facet normal -0 0 -1
    outer loop
      vertex 2.54518 4.01056 -10
      vertex 0.830531 1.30871 -10
      vertex 2.02245 4.29793 -10
    endloop
  endfacet
  facet normal 0 0 -1
    outer loop
      vertex 0.659958 1.40248 -10
      vertex 2.02245 4.29793 -10
      vertex 0.830531 1.30871 -10
    endloop
  endfacet
  facet normal -0 0 -1
    outer loop
      vertex 2.02245 4.29793 -10
      vertex 0.659958 1.40248 -10
      vertex 1.46783 4.51752 -10
    endloop
  endfacet
  facet normal 0 0 -1
    outer loop
      vertex 0.478976 1.47414 -10
      vertex 1.46783 4.51752 -10
      vertex 0.659958 1.40248 -10
    endloop
  endfacet
  facet normal -0 0 -1
    outer loop
      vertex 1.46783 4.51752 -10
      vertex 0.478976 1.47414 -10
      vertex 0.89006 4.66586 -10
    endloop
  endfacet
  facet normal 0 0 -1
    outer loop
      vertex 0.290441 1.52254 -10
      vertex 0.89006 4.66586 -10
      vertex 0.478976 1.47414 -10
    endloop
  endfacet
  facet normal -0 0 -1
    outer loop
      vertex 0.89006 4.66586 -10
      vertex 0.290441 1.52254 -10
      vertex 0.298255 4.74063 -10
    endloop
  endfacet
  facet normal 0 0 -1
    outer loop
      vertex 0.0973244 1.54694 -10
      vertex 0.298255 4.74063 -10
      vertex 0.290441 1.52254 -10
    endloop
  endfacet
  facet normal 0 0 -1
    outer loop
      vertex -0.0973244 1.54694 -10
      vertex 0.298255 4.74063 -10
      vertex 0.0973244 1.54694 -10
    endloop
  endfacet
  facet normal 0 0 -1
    outer loop
      vertex -0.298255 4.74063 -10
      vertex -0.0973244 1.54694 -10
      vertex -0.290441 1.52254 -10
    endloop
  endfacet
  facet normal 0 0 -1
    outer loop
      vertex -0.0973244 1.54694 -10
      vertex -0.298255 4.74063 -10
      vertex 0.298255 4.74063 -10
    endloop
  endfacet
  facet normal 0 0 -1
    outer loop
      vertex -0.89006 4.66586 -10
      vertex -0.290441 1.52254 -10
      vertex -0.478976 1.47414 -10
    endloop
  endfacet
  facet normal 0 0 -1
    outer loop
      vertex -1.46783 4.51752 -10
      vertex -0.478976 1.47414 -10
      vertex -0.659958 1.40248 -10
    endloop
  endfacet
  facet normal 0 0 -1
    outer loop
      vertex -2.02245 4.29793 -10
      vertex -0.659958 1.40248 -10
      vertex -0.830531 1.30871 -10
    endloop
  endfacet
  facet normal 0 0 -1
    outer loop
      vertex -0.290441 1.52254 -10
      vertex -0.89006 4.66586 -10
      vertex -0.298255 4.74063 -10
    endloop
  endfacet
  facet normal 0 0 -1
    outer loop
      vertex -2.54518 4.01056 -10
      vertex -0.830531 1.30871 -10
      vertex -0.988007 1.19429 -10
    endloop
  endfacet
  facet normal 0 0 -1
    outer loop
      vertex -3.02776 3.65994 -10
      vertex -0.988007 1.19429 -10
      vertex -1.1299 1.06105 -10
    endloop
  endfacet
  facet normal 0 0 -1
    outer loop
      vertex -3.4626 3.2516 -10
      vertex -1.1299 1.06105 -10
      vertex -1.25398 0.911067 -10
    endloop
  endfacet
  facet normal 0 0 -1
    outer loop
      vertex -3.84283 2.79198 -10
      vertex -1.25398 0.911067 -10
      vertex -1.35827 0.746717 -10
    endloop
  endfacet
  facet normal 0 0 -1
    outer loop
      vertex -4.16246 2.28833 -10
      vertex -1.35827 0.746717 -10
      vertex -1.44115 0.570593 -10
    endloop
  endfacet
  facet normal 0 0 -1
    outer loop
      vertex -0.478976 1.47414 -10
      vertex -1.46783 4.51752 -10
      vertex -0.89006 4.66586 -10
    endloop
  endfacet
  facet normal 0 0 -1
    outer loop
      vertex -4.41644 1.74859 -10
      vertex -1.44115 0.570593 -10
      vertex -1.5013 0.385468 -10
    endloop
  endfacet
  facet normal 0 0 -1
    outer loop
      vertex -4.60077 1.18128 -10
      vertex -1.5013 0.385468 -10
      vertex -1.53778 0.194266 -10
    endloop
  endfacet
  facet normal 0 0 -1
    outer loop
      vertex -4.71254 0.595332 -10
      vertex -1.53778 0.194266 -10
      vertex -1.55 0 -10
    endloop
  endfacet
  facet normal 0 0 -1
    outer loop
      vertex -4.16246 -2.28833 -10
      vertex -1.35827 -0.746717 -10
      vertex -3.84283 -2.79198 -10
    endloop
  endfacet
  facet normal 0 0 -1
    outer loop
      vertex -0.659958 1.40248 -10
      vertex -2.02245 4.29793 -10
      vertex -1.46783 4.51752 -10
    endloop
  endfacet
  facet normal -0 0 -1
    outer loop
      vertex -1.35827 -0.746717 -10
      vertex -4.16246 -2.28833 -10
      vertex -1.44115 -0.570593 -10
    endloop
  endfacet
  facet normal 0 0 -1
    outer loop
      vertex -0.830531 1.30871 -10
      vertex -2.54518 4.01056 -10
      vertex -2.02245 4.29793 -10
    endloop
  endfacet
  facet normal 0 0 -1
    outer loop
      vertex -4.41644 -1.74859 -10
      vertex -1.44115 -0.570593 -10
      vertex -4.16246 -2.28833 -10
    endloop
  endfacet
  facet normal 0 0 -1
    outer loop
      vertex -0.988007 1.19429 -10
      vertex -3.02776 3.65994 -10
      vertex -2.54518 4.01056 -10
    endloop
  endfacet
  facet normal -0 0 -1
    outer loop
      vertex -1.44115 -0.570593 -10
      vertex -4.41644 -1.74859 -10
      vertex -1.5013 -0.385468 -10
    endloop
  endfacet
  facet normal 0 0 -1
    outer loop
      vertex -1.1299 1.06105 -10
      vertex -3.4626 3.2516 -10
      vertex -3.02776 3.65994 -10
    endloop
  endfacet
  facet normal 0 0 -1
    outer loop
      vertex -4.60077 -1.18128 -10
      vertex -1.5013 -0.385468 -10
      vertex -4.41644 -1.74859 -10
    endloop
  endfacet
  facet normal 0 0 -1
    outer loop
      vertex -1.25398 0.911067 -10
      vertex -3.84283 2.79198 -10
      vertex -3.4626 3.2516 -10
    endloop
  endfacet
  facet normal -0 0 -1
    outer loop
      vertex -1.5013 -0.385468 -10
      vertex -4.60077 -1.18128 -10
      vertex -1.53778 -0.194266 -10
    endloop
  endfacet
  facet normal 0 0 -1
    outer loop
      vertex -1.35827 0.746717 -10
      vertex -4.16246 2.28833 -10
      vertex -3.84283 2.79198 -10
    endloop
  endfacet
  facet normal 0 0 -1
    outer loop
      vertex -4.71254 -0.595332 -10
      vertex -1.53778 -0.194266 -10
      vertex -4.60077 -1.18128 -10
    endloop
  endfacet
  facet normal 0 0 -1
    outer loop
      vertex -1.44115 0.570593 -10
      vertex -4.41644 1.74859 -10
      vertex -4.16246 2.28833 -10
    endloop
  endfacet
  facet normal -0 0 -1
    outer loop
      vertex -1.53778 -0.194266 -10
      vertex -4.71254 -0.595332 -10
      vertex -1.55 0 -10
    endloop
  endfacet
  facet normal 0 0 -1
    outer loop
      vertex -1.5013 0.385468 -10
      vertex -4.60077 1.18128 -10
      vertex -4.41644 1.74859 -10
    endloop
  endfacet
  facet normal 0 0 -1
    outer loop
      vertex -4.75 0 -10
      vertex -1.55 0 -10
      vertex -4.71254 -0.595332 -10
    endloop
  endfacet
  facet normal 0 0 -1
    outer loop
      vertex -1.53778 0.194266 -10
      vertex -4.71254 0.595332 -10
      vertex -4.60077 1.18128 -10
    endloop
  endfacet
  facet normal 0 0 -1
    outer loop
      vertex -1.55 0 -10
      vertex -4.75 0 -10
      vertex -4.71254 0.595332 -10
    endloop
  endfacet
  facet normal 0.481749 -0.876309 0
    outer loop
      vertex 2.02245 -4.29793 -10
      vertex 2.54518 -4.01056 10
      vertex 2.02245 -4.29793 10
    endloop
  endfacet
  facet normal 0.481749 -0.876309 0
    outer loop
      vertex 2.54518 -4.01056 10
      vertex 2.02245 -4.29793 -10
      vertex 2.54518 -4.01056 -10
    endloop
  endfacet
  facet normal 0.684545 -0.72897 0
    outer loop
      vertex 3.02776 -3.65994 -10
      vertex 3.4626 -3.2516 10
      vertex 3.02776 -3.65994 10
    endloop
  endfacet
  facet normal 0.684545 -0.72897 0
    outer loop
      vertex 3.4626 -3.2516 10
      vertex 3.02776 -3.65994 -10
      vertex 3.4626 -3.2516 -10
    endloop
  endfacet
  facet normal 0.844325 -0.535832 0
    outer loop
      vertex 3.84283 -2.79198 10
      vertex 4.16246 -2.28833 -10
      vertex 4.16246 -2.28833 10
    endloop
  endfacet
  facet normal 0.844325 -0.535832 0
    outer loop
      vertex 4.16246 -2.28833 -10
      vertex 3.84283 -2.79198 10
      vertex 3.84283 -2.79198 -10
    endloop
  endfacet
  facet normal -0.24868 -0.968586 0
    outer loop
      vertex -1.46783 -4.51752 -10
      vertex -0.89006 -4.66586 10
      vertex -1.46783 -4.51752 10
    endloop
  endfacet
  facet normal -0.24868 -0.968586 -0
    outer loop
      vertex -0.89006 -4.66586 10
      vertex -1.46783 -4.51752 -10
      vertex -0.89006 -4.66586 -10
    endloop
  endfacet
  facet normal -0.951057 -0.309017 0
    outer loop
      vertex -4.41644 -1.74859 -10
      vertex -4.60077 -1.18128 10
      vertex -4.60077 -1.18128 -10
    endloop
  endfacet
  facet normal -0.951057 -0.309017 0
    outer loop
      vertex -4.60077 -1.18128 10
      vertex -4.41644 -1.74859 -10
      vertex -4.41644 -1.74859 10
    endloop
  endfacet
  facet normal 0.368125 -0.929776 0
    outer loop
      vertex 1.46783 -4.51752 -10
      vertex 2.02245 -4.29793 10
      vertex 1.46783 -4.51752 10
    endloop
  endfacet
  facet normal 0.368125 -0.929776 0
    outer loop
      vertex 2.02245 -4.29793 10
      vertex 1.46783 -4.51752 -10
      vertex 2.02245 -4.29793 -10
    endloop
  endfacet
  facet normal 0.24868 -0.968586 0
    outer loop
      vertex 0.89006 -4.66586 -10
      vertex 1.46783 -4.51752 10
      vertex 0.89006 -4.66586 10
    endloop
  endfacet
  facet normal 0.24868 -0.968586 0
    outer loop
      vertex 1.46783 -4.51752 10
      vertex 0.89006 -4.66586 -10
      vertex 1.46783 -4.51752 -10
    endloop
  endfacet
  facet normal 0.904829 -0.425776 0
    outer loop
      vertex 4.16246 -2.28833 10
      vertex 4.41644 -1.74859 -10
      vertex 4.41644 -1.74859 10
    endloop
  endfacet
  facet normal 0.904829 -0.425776 0
    outer loop
      vertex 4.41644 -1.74859 -10
      vertex 4.16246 -2.28833 10
      vertex 4.16246 -2.28833 -10
    endloop
  endfacet
  facet normal -0.125346 -0.992113 0
    outer loop
      vertex -0.89006 -4.66586 -10
      vertex -0.298255 -4.74063 10
      vertex -0.89006 -4.66586 10
    endloop
  endfacet
  facet normal -0.125346 -0.992113 -0
    outer loop
      vertex -0.298255 -4.74063 10
      vertex -0.89006 -4.66586 -10
      vertex -0.298255 -4.74063 -10
    endloop
  endfacet
  facet normal -0.368125 -0.929776 0
    outer loop
      vertex -2.02245 -4.29793 -10
      vertex -1.46783 -4.51752 10
      vertex -2.02245 -4.29793 10
    endloop
  endfacet
  facet normal -0.368125 -0.929776 -0
    outer loop
      vertex -1.46783 -4.51752 10
      vertex -2.02245 -4.29793 -10
      vertex -1.46783 -4.51752 -10
    endloop
  endfacet
  facet normal -0.770514 -0.637423 0
    outer loop
      vertex -3.4626 -3.2516 -10
      vertex -3.84283 -2.79198 10
      vertex -3.84283 -2.79198 -10
    endloop
  endfacet
  facet normal -0.770514 -0.637423 0
    outer loop
      vertex -3.84283 -2.79198 10
      vertex -3.4626 -3.2516 -10
      vertex -3.4626 -3.2516 10
    endloop
  endfacet
  facet normal -0.684545 -0.72897 0
    outer loop
      vertex -3.4626 -3.2516 -10
      vertex -3.02776 -3.65994 10
      vertex -3.4626 -3.2516 10
    endloop
  endfacet
  facet normal -0.684545 -0.72897 -0
    outer loop
      vertex -3.02776 -3.65994 10
      vertex -3.4626 -3.2516 -10
      vertex -3.02776 -3.65994 -10
    endloop
  endfacet
  facet normal -0.982289 -0.187372 0
    outer loop
      vertex -4.60077 -1.18128 -10
      vertex -4.71254 -0.595332 10
      vertex -4.71254 -0.595332 -10
    endloop
  endfacet
  facet normal -0.982289 -0.187372 0
    outer loop
      vertex -4.71254 -0.595332 10
      vertex -4.60077 -1.18128 -10
      vertex -4.60077 -1.18128 10
    endloop
  endfacet
  facet normal -0.998026 -0.0627987 0
    outer loop
      vertex -4.71254 -0.595332 -10
      vertex -4.75 0 10
      vertex -4.75 0 -10
    endloop
  endfacet
  facet normal -0.998026 -0.0627987 0
    outer loop
      vertex -4.75 0 10
      vertex -4.71254 -0.595332 -10
      vertex -4.71254 -0.595332 10
    endloop
  endfacet
  facet normal 0.587791 -0.809013 0
    outer loop
      vertex 2.54518 -4.01056 -10
      vertex 3.02776 -3.65994 10
      vertex 2.54518 -4.01056 10
    endloop
  endfacet
  facet normal 0.587791 -0.809013 0
    outer loop
      vertex 3.02776 -3.65994 10
      vertex 2.54518 -4.01056 -10
      vertex 3.02776 -3.65994 -10
    endloop
  endfacet
  facet normal -0.844325 -0.535832 0
    outer loop
      vertex -3.84283 -2.79198 -10
      vertex -4.16246 -2.28833 10
      vertex -4.16246 -2.28833 -10
    endloop
  endfacet
  facet normal -0.844325 -0.535832 0
    outer loop
      vertex -4.16246 -2.28833 10
      vertex -3.84283 -2.79198 -10
      vertex -3.84283 -2.79198 10
    endloop
  endfacet
  facet normal -0.481749 -0.876309 0
    outer loop
      vertex -2.54518 -4.01056 -10
      vertex -2.02245 -4.29793 10
      vertex -2.54518 -4.01056 10
    endloop
  endfacet
  facet normal -0.481749 -0.876309 -0
    outer loop
      vertex -2.02245 -4.29793 10
      vertex -2.54518 -4.01056 -10
      vertex -2.02245 -4.29793 -10
    endloop
  endfacet
  facet normal -0.587791 -0.809013 0
    outer loop
      vertex -3.02776 -3.65994 -10
      vertex -2.54518 -4.01056 10
      vertex -3.02776 -3.65994 10
    endloop
  endfacet
  facet normal -0.587791 -0.809013 -0
    outer loop
      vertex -2.54518 -4.01056 10
      vertex -3.02776 -3.65994 -10
      vertex -2.54518 -4.01056 -10
    endloop
  endfacet
  facet normal -0.998027 -0.0627794 0
    outer loop
      vertex 1.55 0 -10
      vertex 1.53778 0.194266 10
      vertex 1.53778 0.194266 -10
    endloop
  endfacet
  facet normal -0.998027 -0.0627794 0
    outer loop
      vertex 1.53778 0.194266 10
      vertex 1.55 0 -10
      vertex 1.55 0 10
    endloop
  endfacet
  facet normal 0.998027 -0.0627794 0
    outer loop
      vertex -1.55 0 10
      vertex -1.53778 0.194266 -10
      vertex -1.53778 0.194266 10
    endloop
  endfacet
  facet normal 0.998027 -0.0627794 0
    outer loop
      vertex -1.53778 0.194266 -10
      vertex -1.55 0 10
      vertex -1.55 0 -10
    endloop
  endfacet
  facet normal 0 -1 0
    outer loop
      vertex -0.0973244 1.54694 -10
      vertex 0.0973244 1.54694 10
      vertex -0.0973244 1.54694 10
    endloop
  endfacet
  facet normal 0 -1 -0
    outer loop
      vertex 0.0973244 1.54694 10
      vertex -0.0973244 1.54694 -10
      vertex 0.0973244 1.54694 -10
    endloop
  endfacet
  facet normal -0.68453 -0.728985 0
    outer loop
      vertex 0.988007 1.19429 -10
      vertex 1.1299 1.06105 10
      vertex 0.988007 1.19429 10
    endloop
  endfacet
  facet normal -0.68453 -0.728985 -0
    outer loop
      vertex 1.1299 1.06105 10
      vertex 0.988007 1.19429 -10
      vertex 1.1299 1.06105 -10
    endloop
  endfacet
  facet normal 0.68453 -0.728985 0
    outer loop
      vertex -1.1299 1.06105 -10
      vertex -0.988007 1.19429 10
      vertex -1.1299 1.06105 10
    endloop
  endfacet
  facet normal 0.68453 -0.728985 0
    outer loop
      vertex -0.988007 1.19429 10
      vertex -1.1299 1.06105 -10
      vertex -0.988007 1.19429 -10
    endloop
  endfacet
  facet normal 0.368143 -0.929769 0
    outer loop
      vertex -0.659958 1.40248 -10
      vertex -0.478976 1.47414 10
      vertex -0.659958 1.40248 10
    endloop
  endfacet
  facet normal 0.368143 -0.929769 0
    outer loop
      vertex -0.478976 1.47414 10
      vertex -0.659958 1.40248 -10
      vertex -0.478976 1.47414 -10
    endloop
  endfacet
  facet normal -0.84435 0.535791 0
    outer loop
      vertex 1.25398 -0.911067 -10
      vertex 1.35827 -0.746717 10
      vertex 1.35827 -0.746717 -10
    endloop
  endfacet
  facet normal -0.84435 0.535791 0
    outer loop
      vertex 1.35827 -0.746717 10
      vertex 1.25398 -0.911067 -10
      vertex 1.25398 -0.911067 10
    endloop
  endfacet
  facet normal -0.904822 -0.425789 0
    outer loop
      vertex 1.44115 0.570593 -10
      vertex 1.35827 0.746717 10
      vertex 1.35827 0.746717 -10
    endloop
  endfacet
  facet normal -0.904822 -0.425789 0
    outer loop
      vertex 1.35827 0.746717 10
      vertex 1.44115 0.570593 -10
      vertex 1.44115 0.570593 10
    endloop
  endfacet
  facet normal -0.84435 -0.535791 0
    outer loop
      vertex 1.35827 0.746717 -10
      vertex 1.25398 0.911067 10
      vertex 1.25398 0.911067 -10
    endloop
  endfacet
  facet normal -0.84435 -0.535791 0
    outer loop
      vertex 1.25398 0.911067 10
      vertex 1.35827 0.746717 -10
      vertex 1.35827 0.746717 10
    endloop
  endfacet
  facet normal -0.368143 -0.929769 0
    outer loop
      vertex 0.478976 1.47414 -10
      vertex 0.659958 1.40248 10
      vertex 0.478976 1.47414 10
    endloop
  endfacet
  facet normal -0.368143 -0.929769 -0
    outer loop
      vertex 0.659958 1.40248 10
      vertex 0.478976 1.47414 -10
      vertex 0.659958 1.40248 -10
    endloop
  endfacet
  facet normal -0.248653 -0.968593 0
    outer loop
      vertex 0.290441 1.52254 -10
      vertex 0.478976 1.47414 10
      vertex 0.290441 1.52254 10
    endloop
  endfacet
  facet normal -0.248653 -0.968593 -0
    outer loop
      vertex 0.478976 1.47414 10
      vertex 0.290441 1.52254 -10
      vertex 0.478976 1.47414 -10
    endloop
  endfacet
  facet normal -0.587809 -0.809 0
    outer loop
      vertex 0.830531 1.30871 -10
      vertex 0.988007 1.19429 10
      vertex 0.830531 1.30871 10
    endloop
  endfacet
  facet normal -0.587809 -0.809 -0
    outer loop
      vertex 0.988007 1.19429 10
      vertex 0.830531 1.30871 -10
      vertex 0.988007 1.19429 -10
    endloop
  endfacet
  facet normal 0.84435 -0.535791 0
    outer loop
      vertex -1.35827 0.746717 10
      vertex -1.25398 0.911067 -10
      vertex -1.25398 0.911067 10
    endloop
  endfacet
  facet normal 0.84435 -0.535791 0
    outer loop
      vertex -1.25398 0.911067 -10
      vertex -1.35827 0.746717 10
      vertex -1.35827 0.746717 -10
    endloop
  endfacet
  facet normal 0.770505 -0.637434 0
    outer loop
      vertex -1.25398 0.911067 10
      vertex -1.1299 1.06105 -10
      vertex -1.1299 1.06105 10
    endloop
  endfacet
  facet normal 0.770505 -0.637434 0
    outer loop
      vertex -1.1299 1.06105 -10
      vertex -1.25398 0.911067 10
      vertex -1.25398 0.911067 -10
    endloop
  endfacet
  facet normal 0.951058 -0.309013 0
    outer loop
      vertex -1.5013 0.385468 10
      vertex -1.44115 0.570593 -10
      vertex -1.44115 0.570593 10
    endloop
  endfacet
  facet normal 0.951058 -0.309013 0
    outer loop
      vertex -1.44115 0.570593 -10
      vertex -1.5013 0.385468 10
      vertex -1.5013 0.385468 -10
    endloop
  endfacet
  facet normal 0.481741 -0.876314 0
    outer loop
      vertex -0.830531 1.30871 -10
      vertex -0.659958 1.40248 10
      vertex -0.830531 1.30871 10
    endloop
  endfacet
  facet normal 0.481741 -0.876314 0
    outer loop
      vertex -0.659958 1.40248 10
      vertex -0.830531 1.30871 -10
      vertex -0.659958 1.40248 -10
    endloop
  endfacet
  facet normal 0.125352 -0.992112 0
    outer loop
      vertex -0.290441 1.52254 -10
      vertex -0.0973244 1.54694 10
      vertex -0.290441 1.52254 10
    endloop
  endfacet
  facet normal 0.125352 -0.992112 0
    outer loop
      vertex -0.0973244 1.54694 10
      vertex -0.290441 1.52254 -10
      vertex -0.0973244 1.54694 -10
    endloop
  endfacet
  facet normal -0.998027 0.0627794 0
    outer loop
      vertex 1.53778 -0.194266 -10
      vertex 1.55 0 10
      vertex 1.55 0 -10
    endloop
  endfacet
  facet normal -0.998027 0.0627794 0
    outer loop
      vertex 1.55 0 10
      vertex 1.53778 -0.194266 -10
      vertex 1.53778 -0.194266 10
    endloop
  endfacet
  facet normal -0.951058 -0.309013 0
    outer loop
      vertex 1.5013 0.385468 -10
      vertex 1.44115 0.570593 10
      vertex 1.44115 0.570593 -10
    endloop
  endfacet
  facet normal -0.951058 -0.309013 0
    outer loop
      vertex 1.44115 0.570593 10
      vertex 1.5013 0.385468 -10
      vertex 1.5013 0.385468 10
    endloop
  endfacet
  facet normal -0.982281 -0.187412 0
    outer loop
      vertex 1.53778 0.194266 -10
      vertex 1.5013 0.385468 10
      vertex 1.5013 0.385468 -10
    endloop
  endfacet
  facet normal -0.982281 -0.187412 0
    outer loop
      vertex 1.5013 0.385468 10
      vertex 1.53778 0.194266 -10
      vertex 1.53778 0.194266 10
    endloop
  endfacet
  facet normal -0.770505 -0.637434 0
    outer loop
      vertex 1.25398 0.911067 -10
      vertex 1.1299 1.06105 10
      vertex 1.1299 1.06105 -10
    endloop
  endfacet
  facet normal -0.770505 -0.637434 0
    outer loop
      vertex 1.1299 1.06105 10
      vertex 1.25398 0.911067 -10
      vertex 1.25398 0.911067 10
    endloop
  endfacet
  facet normal -0.125352 -0.992112 0
    outer loop
      vertex 0.0973244 1.54694 -10
      vertex 0.290441 1.52254 10
      vertex 0.0973244 1.54694 10
    endloop
  endfacet
  facet normal -0.125352 -0.992112 -0
    outer loop
      vertex 0.290441 1.52254 10
      vertex 0.0973244 1.54694 -10
      vertex 0.290441 1.52254 -10
    endloop
  endfacet
  facet normal -0.481741 -0.876314 0
    outer loop
      vertex 0.659958 1.40248 -10
      vertex 0.830531 1.30871 10
      vertex 0.659958 1.40248 10
    endloop
  endfacet
  facet normal -0.481741 -0.876314 -0
    outer loop
      vertex 0.830531 1.30871 10
      vertex 0.659958 1.40248 -10
      vertex 0.830531 1.30871 -10
    endloop
  endfacet
  facet normal 0.904822 -0.425789 0
    outer loop
      vertex -1.44115 0.570593 10
      vertex -1.35827 0.746717 -10
      vertex -1.35827 0.746717 10
    endloop
  endfacet
  facet normal 0.904822 -0.425789 0
    outer loop
      vertex -1.35827 0.746717 -10
      vertex -1.44115 0.570593 10
      vertex -1.44115 0.570593 -10
    endloop
  endfacet
  facet normal 0.982281 -0.187412 0
    outer loop
      vertex -1.53778 0.194266 10
      vertex -1.5013 0.385468 -10
      vertex -1.5013 0.385468 10
    endloop
  endfacet
  facet normal 0.982281 -0.187412 0
    outer loop
      vertex -1.5013 0.385468 -10
      vertex -1.53778 0.194266 10
      vertex -1.53778 0.194266 -10
    endloop
  endfacet
  facet normal 0.587809 -0.809 0
    outer loop
      vertex -0.988007 1.19429 -10
      vertex -0.830531 1.30871 10
      vertex -0.988007 1.19429 10
    endloop
  endfacet
  facet normal 0.587809 -0.809 0
    outer loop
      vertex -0.830531 1.30871 10
      vertex -0.988007 1.19429 -10
      vertex -0.830531 1.30871 -10
    endloop
  endfacet
  facet normal 0.248653 -0.968593 0
    outer loop
      vertex -0.478976 1.47414 -10
      vertex -0.290441 1.52254 10
      vertex -0.478976 1.47414 10
    endloop
  endfacet
  facet normal 0.248653 -0.968593 0
    outer loop
      vertex -0.290441 1.52254 10
      vertex -0.478976 1.47414 -10
      vertex -0.290441 1.52254 -10
    endloop
  endfacet
  facet normal -0.68453 0.728985 0
    outer loop
      vertex 1.1299 -1.06105 -10
      vertex 0.988007 -1.19429 10
      vertex 1.1299 -1.06105 10
    endloop
  endfacet
  facet normal -0.68453 0.728985 0
    outer loop
      vertex 0.988007 -1.19429 10
      vertex 1.1299 -1.06105 -10
      vertex 0.988007 -1.19429 -10
    endloop
  endfacet
  facet normal -0.951058 0.309013 0
    outer loop
      vertex 1.44115 -0.570593 -10
      vertex 1.5013 -0.385468 10
      vertex 1.5013 -0.385468 -10
    endloop
  endfacet
  facet normal -0.951058 0.309013 0
    outer loop
      vertex 1.5013 -0.385468 10
      vertex 1.44115 -0.570593 -10
      vertex 1.44115 -0.570593 10
    endloop
  endfacet
  facet normal -0.904822 0.425789 0
    outer loop
      vertex 1.35827 -0.746717 -10
      vertex 1.44115 -0.570593 10
      vertex 1.44115 -0.570593 -10
    endloop
  endfacet
  facet normal -0.904822 0.425789 0
    outer loop
      vertex 1.44115 -0.570593 10
      vertex 1.35827 -0.746717 -10
      vertex 1.35827 -0.746717 10
    endloop
  endfacet
  facet normal -0.982281 0.187412 0
    outer loop
      vertex 1.5013 -0.385468 -10
      vertex 1.53778 -0.194266 10
      vertex 1.53778 -0.194266 -10
    endloop
  endfacet
  facet normal -0.982281 0.187412 0
    outer loop
      vertex 1.53778 -0.194266 10
      vertex 1.5013 -0.385468 -10
      vertex 1.5013 -0.385468 10
    endloop
  endfacet
  facet normal 0.951058 0.309013 0
    outer loop
      vertex -1.44115 -0.570593 10
      vertex -1.5013 -0.385468 -10
      vertex -1.5013 -0.385468 10
    endloop
  endfacet
  facet normal 0.951058 0.309013 0
    outer loop
      vertex -1.5013 -0.385468 -10
      vertex -1.44115 -0.570593 10
      vertex -1.44115 -0.570593 -10
    endloop
  endfacet
  facet normal -0.770505 0.637434 0
    outer loop
      vertex 1.1299 -1.06105 -10
      vertex 1.25398 -0.911067 10
      vertex 1.25398 -0.911067 -10
    endloop
  endfacet
  facet normal -0.770505 0.637434 0
    outer loop
      vertex 1.25398 -0.911067 10
      vertex 1.1299 -1.06105 -10
      vertex 1.1299 -1.06105 10
    endloop
  endfacet
  facet normal -0.481741 0.876314 0
    outer loop
      vertex 0.830531 -1.30871 -10
      vertex 0.659958 -1.40248 10
      vertex 0.830531 -1.30871 10
    endloop
  endfacet
  facet normal -0.481741 0.876314 0
    outer loop
      vertex 0.659958 -1.40248 10
      vertex 0.830531 -1.30871 -10
      vertex 0.659958 -1.40248 -10
    endloop
  endfacet
  facet normal 0.368143 0.929769 -0
    outer loop
      vertex -0.478976 -1.47414 -10
      vertex -0.659958 -1.40248 10
      vertex -0.478976 -1.47414 10
    endloop
  endfacet
  facet normal 0.368143 0.929769 0
    outer loop
      vertex -0.659958 -1.40248 10
      vertex -0.478976 -1.47414 -10
      vertex -0.659958 -1.40248 -10
    endloop
  endfacet
  facet normal 0.770505 0.637434 0
    outer loop
      vertex -1.1299 -1.06105 10
      vertex -1.25398 -0.911067 -10
      vertex -1.25398 -0.911067 10
    endloop
  endfacet
  facet normal 0.770505 0.637434 0
    outer loop
      vertex -1.25398 -0.911067 -10
      vertex -1.1299 -1.06105 10
      vertex -1.1299 -1.06105 -10
    endloop
  endfacet
  facet normal 0.998027 0.0627794 0
    outer loop
      vertex -1.53778 -0.194266 10
      vertex -1.55 0 -10
      vertex -1.55 0 10
    endloop
  endfacet
  facet normal 0.998027 0.0627794 0
    outer loop
      vertex -1.55 0 -10
      vertex -1.53778 -0.194266 10
      vertex -1.53778 -0.194266 -10
    endloop
  endfacet
  facet normal -0.125352 0.992112 0
    outer loop
      vertex 0.290441 -1.52254 -10
      vertex 0.0973244 -1.54694 10
      vertex 0.290441 -1.52254 10
    endloop
  endfacet
  facet normal -0.125352 0.992112 0
    outer loop
      vertex 0.0973244 -1.54694 10
      vertex 0.290441 -1.52254 -10
      vertex 0.0973244 -1.54694 -10
    endloop
  endfacet
  facet normal -0.587809 0.809 0
    outer loop
      vertex 0.988007 -1.19429 -10
      vertex 0.830531 -1.30871 10
      vertex 0.988007 -1.19429 10
    endloop
  endfacet
  facet normal -0.587809 0.809 0
    outer loop
      vertex 0.830531 -1.30871 10
      vertex 0.988007 -1.19429 -10
      vertex 0.830531 -1.30871 -10
    endloop
  endfacet
  facet normal -0.368143 0.929769 0
    outer loop
      vertex 0.659958 -1.40248 -10
      vertex 0.478976 -1.47414 10
      vertex 0.659958 -1.40248 10
    endloop
  endfacet
  facet normal -0.368143 0.929769 0
    outer loop
      vertex 0.478976 -1.47414 10
      vertex 0.659958 -1.40248 -10
      vertex 0.478976 -1.47414 -10
    endloop
  endfacet
  facet normal 0 1 -0
    outer loop
      vertex 0.0973244 -1.54694 -10
      vertex -0.0973244 -1.54694 10
      vertex 0.0973244 -1.54694 10
    endloop
  endfacet
  facet normal 0 1 0
    outer loop
      vertex -0.0973244 -1.54694 10
      vertex 0.0973244 -1.54694 -10
      vertex -0.0973244 -1.54694 -10
    endloop
  endfacet
  facet normal 0.125352 0.992112 -0
    outer loop
      vertex -0.0973244 -1.54694 -10
      vertex -0.290441 -1.52254 10
      vertex -0.0973244 -1.54694 10
    endloop
  endfacet
  facet normal 0.125352 0.992112 0
    outer loop
      vertex -0.290441 -1.52254 10
      vertex -0.0973244 -1.54694 -10
      vertex -0.290441 -1.52254 -10
    endloop
  endfacet
  facet normal 0.248653 0.968593 -0
    outer loop
      vertex -0.290441 -1.52254 -10
      vertex -0.478976 -1.47414 10
      vertex -0.290441 -1.52254 10
    endloop
  endfacet
  facet normal 0.248653 0.968593 0
    outer loop
      vertex -0.478976 -1.47414 10
      vertex -0.290441 -1.52254 -10
      vertex -0.478976 -1.47414 -10
    endloop
  endfacet
  facet normal 0.481741 0.876314 -0
    outer loop
      vertex -0.659958 -1.40248 -10
      vertex -0.830531 -1.30871 10
      vertex -0.659958 -1.40248 10
    endloop
  endfacet
  facet normal 0.481741 0.876314 0
    outer loop
      vertex -0.830531 -1.30871 10
      vertex -0.659958 -1.40248 -10
      vertex -0.830531 -1.30871 -10
    endloop
  endfacet
  facet normal 0.84435 0.535791 0
    outer loop
      vertex -1.25398 -0.911067 10
      vertex -1.35827 -0.746717 -10
      vertex -1.35827 -0.746717 10
    endloop
  endfacet
  facet normal 0.84435 0.535791 0
    outer loop
      vertex -1.35827 -0.746717 -10
      vertex -1.25398 -0.911067 10
      vertex -1.25398 -0.911067 -10
    endloop
  endfacet
  facet normal 0.904822 0.425789 0
    outer loop
      vertex -1.35827 -0.746717 10
      vertex -1.44115 -0.570593 -10
      vertex -1.44115 -0.570593 10
    endloop
  endfacet
  facet normal 0.904822 0.425789 0
    outer loop
      vertex -1.44115 -0.570593 -10
      vertex -1.35827 -0.746717 10
      vertex -1.35827 -0.746717 -10
    endloop
  endfacet
  facet normal 0.982281 0.187412 0
    outer loop
      vertex -1.5013 -0.385468 10
      vertex -1.53778 -0.194266 -10
      vertex -1.53778 -0.194266 10
    endloop
  endfacet
  facet normal 0.982281 0.187412 0
    outer loop
      vertex -1.53778 -0.194266 -10
      vertex -1.5013 -0.385468 10
      vertex -1.5013 -0.385468 -10
    endloop
  endfacet
  facet normal -0.248653 0.968593 0
    outer loop
      vertex 0.478976 -1.47414 -10
      vertex 0.290441 -1.52254 10
      vertex 0.478976 -1.47414 10
    endloop
  endfacet
  facet normal -0.248653 0.968593 0
    outer loop
      vertex 0.290441 -1.52254 10
      vertex 0.478976 -1.47414 -10
      vertex 0.290441 -1.52254 -10
    endloop
  endfacet
  facet normal 0.68453 0.728985 -0
    outer loop
      vertex -0.988007 -1.19429 -10
      vertex -1.1299 -1.06105 10
      vertex -0.988007 -1.19429 10
    endloop
  endfacet
  facet normal 0.68453 0.728985 0
    outer loop
      vertex -1.1299 -1.06105 10
      vertex -0.988007 -1.19429 -10
      vertex -1.1299 -1.06105 -10
    endloop
  endfacet
  facet normal 0.587809 0.809 -0
    outer loop
      vertex -0.830531 -1.30871 -10
      vertex -0.988007 -1.19429 10
      vertex -0.830531 -1.30871 10
    endloop
  endfacet
  facet normal 0.587809 0.809 0
    outer loop
      vertex -0.988007 -1.19429 10
      vertex -0.830531 -1.30871 -10
      vertex -0.988007 -1.19429 -10
    endloop
  endfacet
endsolid OpenSCAD_Model
