solid OpenSCAD_Model
  facet normal 0.998027 0.0627883 0
    outer loop
      vertex 4 0 10
      vertex 3.96846 0.501332 -10
      vertex 3.96846 0.501332 10
    endloop
  endfacet
  facet normal 0.998027 0.0627883 0
    outer loop
      vertex 3.96846 0.501332 -10
      vertex 4 0 10
      vertex 4 0 -10
    endloop
  endfacet
  facet normal -0.998027 0.0627883 0
    outer loop
      vertex -4 0 -10
      vertex -3.96846 0.501332 10
      vertex -3.96846 0.501332 -10
    endloop
  endfacet
  facet normal -0.998027 0.0627883 0
    outer loop
      vertex -3.96846 0.501332 10
      vertex -4 0 -10
      vertex -4 0 10
    endloop
  endfacet
  facet normal 0 1 -0
    outer loop
      vertex 0.251162 3.99211 -10
      vertex -0.251162 3.99211 10
      vertex 0.251162 3.99211 10
    endloop
  endfacet
  facet normal 0 1 0
    outer loop
      vertex -0.251162 3.99211 10
      vertex 0.251162 3.99211 -10
      vertex -0.251162 3.99211 -10
    endloop
  endfacet
  facet normal 0 -1 0
    outer loop
      vertex -0.251162 -3.99211 -10
      vertex 0.251162 -3.99211 10
      vertex -0.251162 -3.99211 10
    endloop
  endfacet
  facet normal 0 -1 -0
    outer loop
      vertex 0.251162 -3.99211 10
      vertex -0.251162 -3.99211 -10
      vertex 0.251162 -3.99211 -10
    endloop
  endfacet
  facet normal 0.684551 0.728965 -0
    outer loop
      vertex 2.91587 2.73819 -10
      vertex 2.5497 3.08205 10
      vertex 2.91587 2.73819 10
    endloop
  endfacet
  facet normal 0.684551 0.728965 0
    outer loop
      vertex 2.5497 3.08205 10
      vertex 2.91587 2.73819 -10
      vertex 2.5497 3.08205 -10
    endloop
  endfacet
  facet normal -0.684551 0.728965 0
    outer loop
      vertex -2.5497 3.08205 -10
      vertex -2.91587 2.73819 10
      vertex -2.5497 3.08205 10
    endloop
  endfacet
  facet normal -0.684551 0.728965 0
    outer loop
      vertex -2.91587 2.73819 10
      vertex -2.5497 3.08205 -10
      vertex -2.91587 2.73819 -10
    endloop
  endfacet
  facet normal -0.368128 0.929775 0
    outer loop
      vertex -1.23607 3.80423 -10
      vertex -1.70312 3.61931 10
      vertex -1.23607 3.80423 10
    endloop
  endfacet
  facet normal -0.368128 0.929775 0
    outer loop
      vertex -1.70312 3.61931 10
      vertex -1.23607 3.80423 -10
      vertex -1.70312 3.61931 -10
    endloop
  endfacet
  facet normal 0.904824 0.425786 0
    outer loop
      vertex 3.71911 1.4725 10
      vertex 3.50523 1.92701 -10
      vertex 3.50523 1.92701 10
    endloop
  endfacet
  facet normal 0.904824 0.425786 0
    outer loop
      vertex 3.50523 1.92701 -10
      vertex 3.71911 1.4725 10
      vertex 3.71911 1.4725 -10
    endloop
  endfacet
  facet normal 0.844329 0.535825 0
    outer loop
      vertex 3.50523 1.92701 10
      vertex 3.23607 2.35114 -10
      vertex 3.23607 2.35114 10
    endloop
  endfacet
  facet normal 0.844329 0.535825 0
    outer loop
      vertex 3.23607 2.35114 -10
      vertex 3.50523 1.92701 10
      vertex 3.50523 1.92701 -10
    endloop
  endfacet
  facet normal 0.368128 0.929775 -0
    outer loop
      vertex 1.70312 3.61931 -10
      vertex 1.23607 3.80423 10
      vertex 1.70312 3.61931 10
    endloop
  endfacet
  facet normal 0.368128 0.929775 0
    outer loop
      vertex 1.23607 3.80423 10
      vertex 1.70312 3.61931 -10
      vertex 1.23607 3.80423 -10
    endloop
  endfacet
  facet normal 0.248683 0.968585 -0
    outer loop
      vertex 1.23607 3.80423 -10
      vertex 0.749525 3.92915 10
      vertex 1.23607 3.80423 10
    endloop
  endfacet
  facet normal 0.248683 0.968585 0
    outer loop
      vertex 0.749525 3.92915 10
      vertex 1.23607 3.80423 -10
      vertex 0.749525 3.92915 -10
    endloop
  endfacet
  facet normal 0.587786 0.809017 -0
    outer loop
      vertex 2.5497 3.08205 -10
      vertex 2.14331 3.37731 10
      vertex 2.5497 3.08205 10
    endloop
  endfacet
  facet normal 0.587786 0.809017 0
    outer loop
      vertex 2.14331 3.37731 10
      vertex 2.5497 3.08205 -10
      vertex 2.14331 3.37731 -10
    endloop
  endfacet
  facet normal -0.904824 0.425786 0
    outer loop
      vertex -3.71911 1.4725 -10
      vertex -3.50523 1.92701 10
      vertex -3.50523 1.92701 -10
    endloop
  endfacet
  facet normal -0.904824 0.425786 0
    outer loop
      vertex -3.50523 1.92701 10
      vertex -3.71911 1.4725 -10
      vertex -3.71911 1.4725 10
    endloop
  endfacet
  facet normal -0.770509 0.637429 0
    outer loop
      vertex -3.23607 2.35114 -10
      vertex -2.91587 2.73819 10
      vertex -2.91587 2.73819 -10
    endloop
  endfacet
  facet normal -0.770509 0.637429 0
    outer loop
      vertex -2.91587 2.73819 10
      vertex -3.23607 2.35114 -10
      vertex -3.23607 2.35114 10
    endloop
  endfacet
  facet normal -0.951061 0.309004 0
    outer loop
      vertex -3.87433 0.994759 -10
      vertex -3.71911 1.4725 10
      vertex -3.71911 1.4725 -10
    endloop
  endfacet
  facet normal -0.951061 0.309004 0
    outer loop
      vertex -3.71911 1.4725 10
      vertex -3.87433 0.994759 -10
      vertex -3.87433 0.994759 10
    endloop
  endfacet
  facet normal -0.481759 0.876304 0
    outer loop
      vertex -1.70312 3.61931 -10
      vertex -2.14331 3.37731 10
      vertex -1.70312 3.61931 10
    endloop
  endfacet
  facet normal -0.481759 0.876304 0
    outer loop
      vertex -2.14331 3.37731 10
      vertex -1.70312 3.61931 -10
      vertex -2.14331 3.37731 -10
    endloop
  endfacet
  facet normal -0.248683 0.968585 0
    outer loop
      vertex -0.749525 3.92915 -10
      vertex -1.23607 3.80423 10
      vertex -0.749525 3.92915 10
    endloop
  endfacet
  facet normal -0.248683 0.968585 0
    outer loop
      vertex -1.23607 3.80423 10
      vertex -0.749525 3.92915 -10
      vertex -1.23607 3.80423 -10
    endloop
  endfacet
  facet normal 0.125337 -0.992114 0
    outer loop
      vertex 0.251162 -3.99211 -10
      vertex 0.749525 -3.92915 10
      vertex 0.251162 -3.99211 10
    endloop
  endfacet
  facet normal 0.125337 -0.992114 0
    outer loop
      vertex 0.749525 -3.92915 10
      vertex 0.251162 -3.99211 -10
      vertex 0.749525 -3.92915 -10
    endloop
  endfacet
  facet normal 0.368128 -0.929775 0
    outer loop
      vertex 1.23607 -3.80423 -10
      vertex 1.70312 -3.61931 10
      vertex 1.23607 -3.80423 10
    endloop
  endfacet
  facet normal 0.368128 -0.929775 0
    outer loop
      vertex 1.70312 -3.61931 10
      vertex 1.23607 -3.80423 -10
      vertex 1.70312 -3.61931 -10
    endloop
  endfacet
  facet normal 0.951061 0.309004 0
    outer loop
      vertex 3.87433 0.994759 10
      vertex 3.71911 1.4725 -10
      vertex 3.71911 1.4725 10
    endloop
  endfacet
  facet normal 0.951061 0.309004 0
    outer loop
      vertex 3.71911 1.4725 -10
      vertex 3.87433 0.994759 10
      vertex 3.87433 0.994759 -10
    endloop
  endfacet
  facet normal 0.982286 0.187389 0
    outer loop
      vertex 3.96846 0.501332 10
      vertex 3.87433 0.994759 -10
      vertex 3.87433 0.994759 10
    endloop
  endfacet
  facet normal 0.982286 0.187389 0
    outer loop
      vertex 3.87433 0.994759 -10
      vertex 3.96846 0.501332 10
      vertex 3.96846 0.501332 -10
    endloop
  endfacet
  facet normal 0.770509 0.637429 0
    outer loop
      vertex 3.23607 2.35114 10
      vertex 2.91587 2.73819 -10
      vertex 2.91587 2.73819 10
    endloop
  endfacet
  facet normal 0.770509 0.637429 0
    outer loop
      vertex 2.91587 2.73819 -10
      vertex 3.23607 2.35114 10
      vertex 3.23607 2.35114 -10
    endloop
  endfacet
  facet normal 0.125337 0.992114 -0
    outer loop
      vertex 0.749525 3.92915 -10
      vertex 0.251162 3.99211 10
      vertex 0.749525 3.92915 10
    endloop
  endfacet
  facet normal 0.125337 0.992114 0
    outer loop
      vertex 0.251162 3.99211 10
      vertex 0.749525 3.92915 -10
      vertex 0.251162 3.99211 -10
    endloop
  endfacet
  facet normal 0.481759 0.876304 -0
    outer loop
      vertex 2.14331 3.37731 -10
      vertex 1.70312 3.61931 10
      vertex 2.14331 3.37731 10
    endloop
  endfacet
  facet normal 0.481759 0.876304 0
    outer loop
      vertex 1.70312 3.61931 10
      vertex 2.14331 3.37731 -10
      vertex 1.70312 3.61931 -10
    endloop
  endfacet
  facet normal -0.844329 0.535825 0
    outer loop
      vertex -3.50523 1.92701 -10
      vertex -3.23607 2.35114 10
      vertex -3.23607 2.35114 -10
    endloop
  endfacet
  facet normal -0.844329 0.535825 0
    outer loop
      vertex -3.23607 2.35114 10
      vertex -3.50523 1.92701 -10
      vertex -3.50523 1.92701 10
    endloop
  endfacet
  facet normal -0.982286 0.187389 0
    outer loop
      vertex -3.96846 0.501332 -10
      vertex -3.87433 0.994759 10
      vertex -3.87433 0.994759 -10
    endloop
  endfacet
  facet normal -0.982286 0.187389 0
    outer loop
      vertex -3.87433 0.994759 10
      vertex -3.96846 0.501332 -10
      vertex -3.96846 0.501332 10
    endloop
  endfacet
  facet normal 0 0 1
    outer loop
      vertex 1.8 0 10
      vertex 4 0 10
      vertex 3.96846 0.501332 10
    endloop
  endfacet
  facet normal 0 0 1
    outer loop
      vertex 1.78581 0.225599 10
      vertex 3.96846 0.501332 10
      vertex 3.87433 0.994759 10
    endloop
  endfacet
  facet normal 0 0 1
    outer loop
      vertex 4 0 10
      vertex 1.8 0 10
      vertex 3.96846 -0.501332 10
    endloop
  endfacet
  facet normal 0 0 1
    outer loop
      vertex 1.74345 0.447641 10
      vertex 3.87433 0.994759 10
      vertex 3.71911 1.4725 10
    endloop
  endfacet
  facet normal -0 0 1
    outer loop
      vertex 1.78581 -0.225599 10
      vertex 3.96846 -0.501332 10
      vertex 1.8 0 10
    endloop
  endfacet
  facet normal 0 0 1
    outer loop
      vertex 1.6736 0.662623 10
      vertex 3.71911 1.4725 10
      vertex 3.50523 1.92701 10
    endloop
  endfacet
  facet normal 0 0 1
    outer loop
      vertex 3.96846 -0.501332 10
      vertex 1.78581 -0.225599 10
      vertex 3.87433 -0.994759 10
    endloop
  endfacet
  facet normal 0 0 1
    outer loop
      vertex 1.57735 0.867156 10
      vertex 3.50523 1.92701 10
      vertex 3.23607 2.35114 10
    endloop
  endfacet
  facet normal -0 0 1
    outer loop
      vertex 1.74345 -0.447641 10
      vertex 3.87433 -0.994759 10
      vertex 1.78581 -0.225599 10
    endloop
  endfacet
  facet normal 0 0 1
    outer loop
      vertex 1.45623 1.05801 10
      vertex 3.23607 2.35114 10
      vertex 2.91587 2.73819 10
    endloop
  endfacet
  facet normal 0 0 1
    outer loop
      vertex 3.87433 -0.994759 10
      vertex 1.74345 -0.447641 10
      vertex 3.71911 -1.4725 10
    endloop
  endfacet
  facet normal 0 0 1
    outer loop
      vertex 1.31214 1.23218 10
      vertex 2.91587 2.73819 10
      vertex 2.5497 3.08205 10
    endloop
  endfacet
  facet normal -0 0 1
    outer loop
      vertex 1.6736 -0.662623 10
      vertex 3.71911 -1.4725 10
      vertex 1.74345 -0.447641 10
    endloop
  endfacet
  facet normal 0 0 1
    outer loop
      vertex 1.14736 1.38692 10
      vertex 2.5497 3.08205 10
      vertex 2.14331 3.37731 10
    endloop
  endfacet
  facet normal 0 0 1
    outer loop
      vertex 3.71911 -1.4725 10
      vertex 1.6736 -0.662623 10
      vertex 3.50523 -1.92701 10
    endloop
  endfacet
  facet normal -0 0 1
    outer loop
      vertex 1.57735 -0.867156 10
      vertex 3.50523 -1.92701 10
      vertex 1.6736 -0.662623 10
    endloop
  endfacet
  facet normal 0 0 1
    outer loop
      vertex 3.96846 0.501332 10
      vertex 1.78581 0.225599 10
      vertex 1.8 0 10
    endloop
  endfacet
  facet normal 0 0 1
    outer loop
      vertex 3.87433 0.994759 10
      vertex 1.74345 0.447641 10
      vertex 1.78581 0.225599 10
    endloop
  endfacet
  facet normal 0 0 1
    outer loop
      vertex 0.964488 1.51979 10
      vertex 2.14331 3.37731 10
      vertex 1.70312 3.61931 10
    endloop
  endfacet
  facet normal 0 0 1
    outer loop
      vertex 3.71911 1.4725 10
      vertex 1.6736 0.662623 10
      vertex 1.74345 0.447641 10
    endloop
  endfacet
  facet normal 0 0 1
    outer loop
      vertex 3.50523 1.92701 10
      vertex 1.57735 0.867156 10
      vertex 1.6736 0.662623 10
    endloop
  endfacet
  facet normal 0 0 1
    outer loop
      vertex 3.23607 2.35114 10
      vertex 1.45623 1.05801 10
      vertex 1.57735 0.867156 10
    endloop
  endfacet
  facet normal 0 0 1
    outer loop
      vertex 2.91587 2.73819 10
      vertex 1.31214 1.23218 10
      vertex 1.45623 1.05801 10
    endloop
  endfacet
  facet normal 0 0 1
    outer loop
      vertex 0.766402 1.62869 10
      vertex 1.70312 3.61931 10
      vertex 1.23607 3.80423 10
    endloop
  endfacet
  facet normal 0 0 1
    outer loop
      vertex 2.5497 3.08205 10
      vertex 1.14736 1.38692 10
      vertex 1.31214 1.23218 10
    endloop
  endfacet
  facet normal 0 0 1
    outer loop
      vertex 2.14331 3.37731 10
      vertex 0.964488 1.51979 10
      vertex 1.14736 1.38692 10
    endloop
  endfacet
  facet normal 0 0 1
    outer loop
      vertex 1.70312 3.61931 10
      vertex 0.766402 1.62869 10
      vertex 0.964488 1.51979 10
    endloop
  endfacet
  facet normal 0 0 1
    outer loop
      vertex 0.556231 1.7119 10
      vertex 1.23607 3.80423 10
      vertex 0.749525 3.92915 10
    endloop
  endfacet
  facet normal 0 0 1
    outer loop
      vertex 1.23607 3.80423 10
      vertex 0.556231 1.7119 10
      vertex 0.766402 1.62869 10
    endloop
  endfacet
  facet normal 0 0 1
    outer loop
      vertex 0.749525 3.92915 10
      vertex 0.337286 1.76812 10
      vertex 0.556231 1.7119 10
    endloop
  endfacet
  facet normal 0 0 1
    outer loop
      vertex 0.251162 3.99211 10
      vertex 0.337286 1.76812 10
      vertex 0.749525 3.92915 10
    endloop
  endfacet
  facet normal 0 0 1
    outer loop
      vertex 0.251162 3.99211 10
      vertex 0.113023 1.79645 10
      vertex 0.337286 1.76812 10
    endloop
  endfacet
  facet normal 0 0 1
    outer loop
      vertex 0.251162 3.99211 10
      vertex -0.113023 1.79645 10
      vertex 0.113023 1.79645 10
    endloop
  endfacet
  facet normal -0 0 1
    outer loop
      vertex -0.251162 3.99211 10
      vertex -0.113023 1.79645 10
      vertex 0.251162 3.99211 10
    endloop
  endfacet
  facet normal 0 0 1
    outer loop
      vertex -0.251162 3.99211 10
      vertex -0.337286 1.76812 10
      vertex -0.113023 1.79645 10
    endloop
  endfacet
  facet normal -0 0 1
    outer loop
      vertex -0.749525 3.92915 10
      vertex -0.337286 1.76812 10
      vertex -0.251162 3.99211 10
    endloop
  endfacet
  facet normal 0 0 1
    outer loop
      vertex -0.337286 1.76812 10
      vertex -0.749525 3.92915 10
      vertex -0.556231 1.7119 10
    endloop
  endfacet
  facet normal -0 0 1
    outer loop
      vertex -1.23607 3.80423 10
      vertex -0.556231 1.7119 10
      vertex -0.749525 3.92915 10
    endloop
  endfacet
  facet normal 0 0 1
    outer loop
      vertex -0.556231 1.7119 10
      vertex -1.23607 3.80423 10
      vertex -0.766402 1.62869 10
    endloop
  endfacet
  facet normal -0 0 1
    outer loop
      vertex -1.70312 3.61931 10
      vertex -0.766402 1.62869 10
      vertex -1.23607 3.80423 10
    endloop
  endfacet
  facet normal 0 0 1
    outer loop
      vertex -0.766402 1.62869 10
      vertex -1.70312 3.61931 10
      vertex -0.964488 1.51979 10
    endloop
  endfacet
  facet normal -0 0 1
    outer loop
      vertex -2.14331 3.37731 10
      vertex -0.964488 1.51979 10
      vertex -1.70312 3.61931 10
    endloop
  endfacet
  facet normal 0 0 1
    outer loop
      vertex -0.964488 1.51979 10
      vertex -2.14331 3.37731 10
      vertex -1.14736 1.38692 10
    endloop
  endfacet
  facet normal -0 0 1
    outer loop
      vertex -2.5497 3.08205 10
      vertex -1.14736 1.38692 10
      vertex -2.14331 3.37731 10
    endloop
  endfacet
  facet normal 0 0 1
    outer loop
      vertex -1.14736 1.38692 10
      vertex -2.5497 3.08205 10
      vertex -1.31214 1.23218 10
    endloop
  endfacet
  facet normal -0 0 1
    outer loop
      vertex -2.91587 2.73819 10
      vertex -1.31214 1.23218 10
      vertex -2.5497 3.08205 10
    endloop
  endfacet
  facet normal 0 0 1
    outer loop
      vertex -1.31214 1.23218 10
      vertex -2.91587 2.73819 10
      vertex -1.45623 1.05801 10
    endloop
  endfacet
  facet normal -0 0 1
    outer loop
      vertex -3.23607 2.35114 10
      vertex -1.45623 1.05801 10
      vertex -2.91587 2.73819 10
    endloop
  endfacet
  facet normal 0 0 1
    outer loop
      vertex -1.45623 1.05801 10
      vertex -3.23607 2.35114 10
      vertex -1.57735 0.867156 10
    endloop
  endfacet
  facet normal -0 0 1
    outer loop
      vertex -3.50523 1.92701 10
      vertex -1.57735 0.867156 10
      vertex -3.23607 2.35114 10
    endloop
  endfacet
  facet normal 0 0 1
    outer loop
      vertex 3.50523 -1.92701 10
      vertex 1.57735 -0.867156 10
      vertex 3.23607 -2.35114 10
    endloop
  endfacet
  facet normal -0 0 1
    outer loop
      vertex 1.45623 -1.05801 10
      vertex 3.23607 -2.35114 10
      vertex 1.57735 -0.867156 10
    endloop
  endfacet
  facet normal 0 0 1
    outer loop
      vertex 3.23607 -2.35114 10
      vertex 1.45623 -1.05801 10
      vertex 2.91587 -2.73819 10
    endloop
  endfacet
  facet normal -0 0 1
    outer loop
      vertex 1.31214 -1.23218 10
      vertex 2.91587 -2.73819 10
      vertex 1.45623 -1.05801 10
    endloop
  endfacet
  facet normal 0 0 1
    outer loop
      vertex 2.91587 -2.73819 10
      vertex 1.31214 -1.23218 10
      vertex 2.5497 -3.08205 10
    endloop
  endfacet
  facet normal -0 0 1
    outer loop
      vertex 1.14736 -1.38692 10
      vertex 2.5497 -3.08205 10
      vertex 1.31214 -1.23218 10
    endloop
  endfacet
  facet normal 0 0 1
    outer loop
      vertex 2.5497 -3.08205 10
      vertex 1.14736 -1.38692 10
      vertex 2.14331 -3.37731 10
    endloop
  endfacet
  facet normal -0 0 1
    outer loop
      vertex 0.964488 -1.51979 10
      vertex 2.14331 -3.37731 10
      vertex 1.14736 -1.38692 10
    endloop
  endfacet
  facet normal 0 0 1
    outer loop
      vertex 2.14331 -3.37731 10
      vertex 0.964488 -1.51979 10
      vertex 1.70312 -3.61931 10
    endloop
  endfacet
  facet normal -0 0 1
    outer loop
      vertex 0.766402 -1.62869 10
      vertex 1.70312 -3.61931 10
      vertex 0.964488 -1.51979 10
    endloop
  endfacet
  facet normal 0 0 1
    outer loop
      vertex 1.70312 -3.61931 10
      vertex 0.766402 -1.62869 10
      vertex 1.23607 -3.80423 10
    endloop
  endfacet
  facet normal -0 0 1
    outer loop
      vertex 0.556231 -1.7119 10
      vertex 1.23607 -3.80423 10
      vertex 0.766402 -1.62869 10
    endloop
  endfacet
  facet normal 0 0 1
    outer loop
      vertex 1.23607 -3.80423 10
      vertex 0.556231 -1.7119 10
      vertex 0.749525 -3.92915 10
    endloop
  endfacet
  facet normal -0 0 1
    outer loop
      vertex 0.337286 -1.76812 10
      vertex 0.749525 -3.92915 10
      vertex 0.556231 -1.7119 10
    endloop
  endfacet
  facet normal 0 0 1
    outer loop
      vertex 0.337286 -1.76812 10
      vertex 0.251162 -3.99211 10
      vertex 0.749525 -3.92915 10
    endloop
  endfacet
  facet normal -0 0 1
    outer loop
      vertex 0.113023 -1.79645 10
      vertex 0.251162 -3.99211 10
      vertex 0.337286 -1.76812 10
    endloop
  endfacet
  facet normal -0 0 1
    outer loop
      vertex -0.113023 -1.79645 10
      vertex 0.251162 -3.99211 10
      vertex 0.113023 -1.79645 10
    endloop
  endfacet
  facet normal 0 0 1
    outer loop
      vertex -0.113023 -1.79645 10
      vertex -0.251162 -3.99211 10
      vertex 0.251162 -3.99211 10
    endloop
  endfacet
  facet normal 0 0 1
    outer loop
      vertex -0.337286 -1.76812 10
      vertex -0.251162 -3.99211 10
      vertex -0.113023 -1.79645 10
    endloop
  endfacet
  facet normal 0 0 1
    outer loop
      vertex -0.749525 -3.92915 10
      vertex -0.337286 -1.76812 10
      vertex -0.556231 -1.7119 10
    endloop
  endfacet
  facet normal 0 0 1
    outer loop
      vertex -0.337286 -1.76812 10
      vertex -0.749525 -3.92915 10
      vertex -0.251162 -3.99211 10
    endloop
  endfacet
  facet normal 0 0 1
    outer loop
      vertex -1.23607 -3.80423 10
      vertex -0.556231 -1.7119 10
      vertex -0.766402 -1.62869 10
    endloop
  endfacet
  facet normal 0 0 1
    outer loop
      vertex -1.70312 -3.61931 10
      vertex -0.766402 -1.62869 10
      vertex -0.964488 -1.51979 10
    endloop
  endfacet
  facet normal 0 0 1
    outer loop
      vertex -2.14331 -3.37731 10
      vertex -0.964488 -1.51979 10
      vertex -1.14736 -1.38692 10
    endloop
  endfacet
  facet normal 0 0 1
    outer loop
      vertex -0.556231 -1.7119 10
      vertex -1.23607 -3.80423 10
      vertex -0.749525 -3.92915 10
    endloop
  endfacet
  facet normal 0 0 1
    outer loop
      vertex -2.5497 -3.08205 10
      vertex -1.14736 -1.38692 10
      vertex -1.31214 -1.23218 10
    endloop
  endfacet
  facet normal 0 0 1
    outer loop
      vertex -2.91587 -2.73819 10
      vertex -1.31214 -1.23218 10
      vertex -1.45623 -1.05801 10
    endloop
  endfacet
  facet normal 0 0 1
    outer loop
      vertex -3.23607 -2.35114 10
      vertex -1.45623 -1.05801 10
      vertex -1.57735 -0.867156 10
    endloop
  endfacet
  facet normal 0 0 1
    outer loop
      vertex -3.50523 -1.92701 10
      vertex -1.57735 -0.867156 10
      vertex -1.6736 -0.662623 10
    endloop
  endfacet
  facet normal 0 0 1
    outer loop
      vertex -0.766402 -1.62869 10
      vertex -1.70312 -3.61931 10
      vertex -1.23607 -3.80423 10
    endloop
  endfacet
  facet normal 0 0 1
    outer loop
      vertex -3.71911 -1.4725 10
      vertex -1.6736 -0.662623 10
      vertex -1.74345 -0.447641 10
    endloop
  endfacet
  facet normal 0 0 1
    outer loop
      vertex -3.87433 -0.994759 10
      vertex -1.74345 -0.447641 10
      vertex -1.78581 -0.225599 10
    endloop
  endfacet
  facet normal 0 0 1
    outer loop
      vertex -3.96846 -0.501332 10
      vertex -1.78581 -0.225599 10
      vertex -1.8 0 10
    endloop
  endfacet
  facet normal 0 0 1
    outer loop
      vertex -1.57735 0.867156 10
      vertex -3.50523 1.92701 10
      vertex -1.6736 0.662623 10
    endloop
  endfacet
  facet normal 0 0 1
    outer loop
      vertex -0.964488 -1.51979 10
      vertex -2.14331 -3.37731 10
      vertex -1.70312 -3.61931 10
    endloop
  endfacet
  facet normal -0 0 1
    outer loop
      vertex -3.71911 1.4725 10
      vertex -1.6736 0.662623 10
      vertex -3.50523 1.92701 10
    endloop
  endfacet
  facet normal 0 0 1
    outer loop
      vertex -1.14736 -1.38692 10
      vertex -2.5497 -3.08205 10
      vertex -2.14331 -3.37731 10
    endloop
  endfacet
  facet normal 0 0 1
    outer loop
      vertex -1.6736 0.662623 10
      vertex -3.71911 1.4725 10
      vertex -1.74345 0.447641 10
    endloop
  endfacet
  facet normal 0 0 1
    outer loop
      vertex -1.31214 -1.23218 10
      vertex -2.91587 -2.73819 10
      vertex -2.5497 -3.08205 10
    endloop
  endfacet
  facet normal -0 0 1
    outer loop
      vertex -3.87433 0.994759 10
      vertex -1.74345 0.447641 10
      vertex -3.71911 1.4725 10
    endloop
  endfacet
  facet normal 0 0 1
    outer loop
      vertex -1.45623 -1.05801 10
      vertex -3.23607 -2.35114 10
      vertex -2.91587 -2.73819 10
    endloop
  endfacet
  facet normal 0 0 1
    outer loop
      vertex -1.74345 0.447641 10
      vertex -3.87433 0.994759 10
      vertex -1.78581 0.225599 10
    endloop
  endfacet
  facet normal 0 0 1
    outer loop
      vertex -1.57735 -0.867156 10
      vertex -3.50523 -1.92701 10
      vertex -3.23607 -2.35114 10
    endloop
  endfacet
  facet normal -0 0 1
    outer loop
      vertex -3.96846 0.501332 10
      vertex -1.78581 0.225599 10
      vertex -3.87433 0.994759 10
    endloop
  endfacet
  facet normal 0 0 1
    outer loop
      vertex -1.6736 -0.662623 10
      vertex -3.71911 -1.4725 10
      vertex -3.50523 -1.92701 10
    endloop
  endfacet
  facet normal 0 0 1
    outer loop
      vertex -1.78581 0.225599 10
      vertex -3.96846 0.501332 10
      vertex -1.8 0 10
    endloop
  endfacet
  facet normal 0 0 1
    outer loop
      vertex -1.74345 -0.447641 10
      vertex -3.87433 -0.994759 10
      vertex -3.71911 -1.4725 10
    endloop
  endfacet
  facet normal 0 0 1
    outer loop
      vertex -4 0 10
      vertex -1.8 0 10
      vertex -3.96846 0.501332 10
    endloop
  endfacet
  facet normal 0 0 1
    outer loop
      vertex -1.78581 -0.225599 10
      vertex -3.96846 -0.501332 10
      vertex -3.87433 -0.994759 10
    endloop
  endfacet
  facet normal 0 0 1
    outer loop
      vertex -1.8 0 10
      vertex -4 0 10
      vertex -3.96846 -0.501332 10
    endloop
  endfacet
  facet normal -0.587786 0.809017 0
    outer loop
      vertex -2.14331 3.37731 -10
      vertex -2.5497 3.08205 10
      vertex -2.14331 3.37731 10
    endloop
  endfacet
  facet normal -0.587786 0.809017 0
    outer loop
      vertex -2.5497 3.08205 10
      vertex -2.14331 3.37731 -10
      vertex -2.5497 3.08205 -10
    endloop
  endfacet
  facet normal -0.125337 0.992114 0
    outer loop
      vertex -0.251162 3.99211 -10
      vertex -0.749525 3.92915 10
      vertex -0.251162 3.99211 10
    endloop
  endfacet
  facet normal -0.125337 0.992114 0
    outer loop
      vertex -0.749525 3.92915 10
      vertex -0.251162 3.99211 -10
      vertex -0.749525 3.92915 -10
    endloop
  endfacet
  facet normal 0.998027 -0.0627883 0
    outer loop
      vertex 3.96846 -0.501332 10
      vertex 4 0 -10
      vertex 4 0 10
    endloop
  endfacet
  facet normal 0.998027 -0.0627883 0
    outer loop
      vertex 4 0 -10
      vertex 3.96846 -0.501332 10
      vertex 3.96846 -0.501332 -10
    endloop
  endfacet
  facet normal 0.481759 -0.876304 0
    outer loop
      vertex 1.70312 -3.61931 -10
      vertex 2.14331 -3.37731 10
      vertex 1.70312 -3.61931 10
    endloop
  endfacet
  facet normal 0.481759 -0.876304 0
    outer loop
      vertex 2.14331 -3.37731 10
      vertex 1.70312 -3.61931 -10
      vertex 2.14331 -3.37731 -10
    endloop
  endfacet
  facet normal 0.770509 -0.637429 0
    outer loop
      vertex 2.91587 -2.73819 10
      vertex 3.23607 -2.35114 -10
      vertex 3.23607 -2.35114 10
    endloop
  endfacet
  facet normal 0.770509 -0.637429 0
    outer loop
      vertex 3.23607 -2.35114 -10
      vertex 2.91587 -2.73819 10
      vertex 2.91587 -2.73819 -10
    endloop
  endfacet
  facet normal 0.951061 -0.309004 0
    outer loop
      vertex 3.71911 -1.4725 10
      vertex 3.87433 -0.994759 -10
      vertex 3.87433 -0.994759 10
    endloop
  endfacet
  facet normal 0.951061 -0.309004 0
    outer loop
      vertex 3.87433 -0.994759 -10
      vertex 3.71911 -1.4725 10
      vertex 3.71911 -1.4725 -10
    endloop
  endfacet
  facet normal 0.982286 -0.187389 0
    outer loop
      vertex 3.87433 -0.994759 10
      vertex 3.96846 -0.501332 -10
      vertex 3.96846 -0.501332 10
    endloop
  endfacet
  facet normal 0.982286 -0.187389 0
    outer loop
      vertex 3.96846 -0.501332 -10
      vertex 3.87433 -0.994759 10
      vertex 3.87433 -0.994759 -10
    endloop
  endfacet
  facet normal -0.684551 -0.728965 0
    outer loop
      vertex -2.91587 -2.73819 -10
      vertex -2.5497 -3.08205 10
      vertex -2.91587 -2.73819 10
    endloop
  endfacet
  facet normal -0.684551 -0.728965 -0
    outer loop
      vertex -2.5497 -3.08205 10
      vertex -2.91587 -2.73819 -10
      vertex -2.5497 -3.08205 -10
    endloop
  endfacet
  facet normal -0.904824 -0.425786 0
    outer loop
      vertex -3.50523 -1.92701 -10
      vertex -3.71911 -1.4725 10
      vertex -3.71911 -1.4725 -10
    endloop
  endfacet
  facet normal -0.904824 -0.425786 0
    outer loop
      vertex -3.71911 -1.4725 10
      vertex -3.50523 -1.92701 -10
      vertex -3.50523 -1.92701 10
    endloop
  endfacet
  facet normal -0.770509 -0.637429 0
    outer loop
      vertex -2.91587 -2.73819 -10
      vertex -3.23607 -2.35114 10
      vertex -3.23607 -2.35114 -10
    endloop
  endfacet
  facet normal -0.770509 -0.637429 0
    outer loop
      vertex -3.23607 -2.35114 10
      vertex -2.91587 -2.73819 -10
      vertex -2.91587 -2.73819 10
    endloop
  endfacet
  facet normal 0 0 -1
    outer loop
      vertex 1.8 0 -10
      vertex 4 0 -10
      vertex 3.96846 -0.501332 -10
    endloop
  endfacet
  facet normal 0 0 -1
    outer loop
      vertex 1.78581 -0.225599 -10
      vertex 3.96846 -0.501332 -10
      vertex 3.87433 -0.994759 -10
    endloop
  endfacet
  facet normal 0 0 -1
    outer loop
      vertex 4 0 -10
      vertex 1.8 0 -10
      vertex 3.96846 0.501332 -10
    endloop
  endfacet
  facet normal 0 0 -1
    outer loop
      vertex 1.74345 -0.447641 -10
      vertex 3.87433 -0.994759 -10
      vertex 3.71911 -1.4725 -10
    endloop
  endfacet
  facet normal 0 0 -1
    outer loop
      vertex 1.78581 0.225599 -10
      vertex 3.96846 0.501332 -10
      vertex 1.8 0 -10
    endloop
  endfacet
  facet normal 0 0 -1
    outer loop
      vertex 1.6736 -0.662623 -10
      vertex 3.71911 -1.4725 -10
      vertex 3.50523 -1.92701 -10
    endloop
  endfacet
  facet normal -0 0 -1
    outer loop
      vertex 3.96846 0.501332 -10
      vertex 1.78581 0.225599 -10
      vertex 3.87433 0.994759 -10
    endloop
  endfacet
  facet normal 0 0 -1
    outer loop
      vertex 1.57735 -0.867156 -10
      vertex 3.50523 -1.92701 -10
      vertex 3.23607 -2.35114 -10
    endloop
  endfacet
  facet normal 0 0 -1
    outer loop
      vertex 1.74345 0.447641 -10
      vertex 3.87433 0.994759 -10
      vertex 1.78581 0.225599 -10
    endloop
  endfacet
  facet normal 0 0 -1
    outer loop
      vertex 1.45623 -1.05801 -10
      vertex 3.23607 -2.35114 -10
      vertex 2.91587 -2.73819 -10
    endloop
  endfacet
  facet normal -0 0 -1
    outer loop
      vertex 3.87433 0.994759 -10
      vertex 1.74345 0.447641 -10
      vertex 3.71911 1.4725 -10
    endloop
  endfacet
  facet normal 0 0 -1
    outer loop
      vertex 1.31214 -1.23218 -10
      vertex 2.91587 -2.73819 -10
      vertex 2.5497 -3.08205 -10
    endloop
  endfacet
  facet normal 0 0 -1
    outer loop
      vertex 1.6736 0.662623 -10
      vertex 3.71911 1.4725 -10
      vertex 1.74345 0.447641 -10
    endloop
  endfacet
  facet normal 0 0 -1
    outer loop
      vertex 1.14736 -1.38692 -10
      vertex 2.5497 -3.08205 -10
      vertex 2.14331 -3.37731 -10
    endloop
  endfacet
  facet normal -0 0 -1
    outer loop
      vertex 3.71911 1.4725 -10
      vertex 1.6736 0.662623 -10
      vertex 3.50523 1.92701 -10
    endloop
  endfacet
  facet normal 0 0 -1
    outer loop
      vertex 1.57735 0.867156 -10
      vertex 3.50523 1.92701 -10
      vertex 1.6736 0.662623 -10
    endloop
  endfacet
  facet normal 0 0 -1
    outer loop
      vertex 3.96846 -0.501332 -10
      vertex 1.78581 -0.225599 -10
      vertex 1.8 0 -10
    endloop
  endfacet
  facet normal 0 0 -1
    outer loop
      vertex 3.87433 -0.994759 -10
      vertex 1.74345 -0.447641 -10
      vertex 1.78581 -0.225599 -10
    endloop
  endfacet
  facet normal 0 0 -1
    outer loop
      vertex 0.964488 -1.51979 -10
      vertex 2.14331 -3.37731 -10
      vertex 1.70312 -3.61931 -10
    endloop
  endfacet
  facet normal 0 0 -1
    outer loop
      vertex 3.71911 -1.4725 -10
      vertex 1.6736 -0.662623 -10
      vertex 1.74345 -0.447641 -10
    endloop
  endfacet
  facet normal 0 0 -1
    outer loop
      vertex 3.50523 -1.92701 -10
      vertex 1.57735 -0.867156 -10
      vertex 1.6736 -0.662623 -10
    endloop
  endfacet
  facet normal 0 0 -1
    outer loop
      vertex 3.23607 -2.35114 -10
      vertex 1.45623 -1.05801 -10
      vertex 1.57735 -0.867156 -10
    endloop
  endfacet
  facet normal 0 0 -1
    outer loop
      vertex 2.91587 -2.73819 -10
      vertex 1.31214 -1.23218 -10
      vertex 1.45623 -1.05801 -10
    endloop
  endfacet
  facet normal 0 0 -1
    outer loop
      vertex 0.766402 -1.62869 -10
      vertex 1.70312 -3.61931 -10
      vertex 1.23607 -3.80423 -10
    endloop
  endfacet
  facet normal 0 0 -1
    outer loop
      vertex 2.5497 -3.08205 -10
      vertex 1.14736 -1.38692 -10
      vertex 1.31214 -1.23218 -10
    endloop
  endfacet
  facet normal 0 0 -1
    outer loop
      vertex 2.14331 -3.37731 -10
      vertex 0.964488 -1.51979 -10
      vertex 1.14736 -1.38692 -10
    endloop
  endfacet
  facet normal 0 0 -1
    outer loop
      vertex 1.70312 -3.61931 -10
      vertex 0.766402 -1.62869 -10
      vertex 0.964488 -1.51979 -10
    endloop
  endfacet
  facet normal 0 0 -1
    outer loop
      vertex 0.556231 -1.7119 -10
      vertex 1.23607 -3.80423 -10
      vertex 0.749525 -3.92915 -10
    endloop
  endfacet
  facet normal 0 0 -1
    outer loop
      vertex 1.23607 -3.80423 -10
      vertex 0.556231 -1.7119 -10
      vertex 0.766402 -1.62869 -10
    endloop
  endfacet
  facet normal 0 0 -1
    outer loop
      vertex 0.749525 -3.92915 -10
      vertex 0.337286 -1.76812 -10
      vertex 0.556231 -1.7119 -10
    endloop
  endfacet
  facet normal 0 0 -1
    outer loop
      vertex 0.251162 -3.99211 -10
      vertex 0.337286 -1.76812 -10
      vertex 0.749525 -3.92915 -10
    endloop
  endfacet
  facet normal 0 0 -1
    outer loop
      vertex 0.251162 -3.99211 -10
      vertex 0.113023 -1.79645 -10
      vertex 0.337286 -1.76812 -10
    endloop
  endfacet
  facet normal 0 0 -1
    outer loop
      vertex 0.251162 -3.99211 -10
      vertex -0.113023 -1.79645 -10
      vertex 0.113023 -1.79645 -10
    endloop
  endfacet
  facet normal 0 0 -1
    outer loop
      vertex -0.251162 -3.99211 -10
      vertex -0.113023 -1.79645 -10
      vertex 0.251162 -3.99211 -10
    endloop
  endfacet
  facet normal 0 0 -1
    outer loop
      vertex -0.251162 -3.99211 -10
      vertex -0.337286 -1.76812 -10
      vertex -0.113023 -1.79645 -10
    endloop
  endfacet
  facet normal 0 0 -1
    outer loop
      vertex -0.749525 -3.92915 -10
      vertex -0.337286 -1.76812 -10
      vertex -0.251162 -3.99211 -10
    endloop
  endfacet
  facet normal -0 0 -1
    outer loop
      vertex -0.337286 -1.76812 -10
      vertex -0.749525 -3.92915 -10
      vertex -0.556231 -1.7119 -10
    endloop
  endfacet
  facet normal 0 0 -1
    outer loop
      vertex -1.23607 -3.80423 -10
      vertex -0.556231 -1.7119 -10
      vertex -0.749525 -3.92915 -10
    endloop
  endfacet
  facet normal -0 0 -1
    outer loop
      vertex -0.556231 -1.7119 -10
      vertex -1.23607 -3.80423 -10
      vertex -0.766402 -1.62869 -10
    endloop
  endfacet
  facet normal 0 0 -1
    outer loop
      vertex -1.70312 -3.61931 -10
      vertex -0.766402 -1.62869 -10
      vertex -1.23607 -3.80423 -10
    endloop
  endfacet
  facet normal -0 0 -1
    outer loop
      vertex -0.766402 -1.62869 -10
      vertex -1.70312 -3.61931 -10
      vertex -0.964488 -1.51979 -10
    endloop
  endfacet
  facet normal 0 0 -1
    outer loop
      vertex -2.14331 -3.37731 -10
      vertex -0.964488 -1.51979 -10
      vertex -1.70312 -3.61931 -10
    endloop
  endfacet
  facet normal -0 0 -1
    outer loop
      vertex -0.964488 -1.51979 -10
      vertex -2.14331 -3.37731 -10
      vertex -1.14736 -1.38692 -10
    endloop
  endfacet
  facet normal 0 0 -1
    outer loop
      vertex -2.5497 -3.08205 -10
      vertex -1.14736 -1.38692 -10
      vertex -2.14331 -3.37731 -10
    endloop
  endfacet
  facet normal -0 0 -1
    outer loop
      vertex -1.14736 -1.38692 -10
      vertex -2.5497 -3.08205 -10
      vertex -1.31214 -1.23218 -10
    endloop
  endfacet
  facet normal 0 0 -1
    outer loop
      vertex -2.91587 -2.73819 -10
      vertex -1.31214 -1.23218 -10
      vertex -2.5497 -3.08205 -10
    endloop
  endfacet
  facet normal -0 0 -1
    outer loop
      vertex -1.31214 -1.23218 -10
      vertex -2.91587 -2.73819 -10
      vertex -1.45623 -1.05801 -10
    endloop
  endfacet
  facet normal 0 0 -1
    outer loop
      vertex -3.23607 -2.35114 -10
      vertex -1.45623 -1.05801 -10
      vertex -2.91587 -2.73819 -10
    endloop
  endfacet
  facet normal -0 0 -1
    outer loop
      vertex -1.45623 -1.05801 -10
      vertex -3.23607 -2.35114 -10
      vertex -1.57735 -0.867156 -10
    endloop
  endfacet
  facet normal 0 0 -1
    outer loop
      vertex -3.50523 -1.92701 -10
      vertex -1.57735 -0.867156 -10
      vertex -3.23607 -2.35114 -10
    endloop
  endfacet
  facet normal -0 0 -1
    outer loop
      vertex 3.50523 1.92701 -10
      vertex 1.57735 0.867156 -10
      vertex 3.23607 2.35114 -10
    endloop
  endfacet
  facet normal 0 0 -1
    outer loop
      vertex 1.45623 1.05801 -10
      vertex 3.23607 2.35114 -10
      vertex 1.57735 0.867156 -10
    endloop
  endfacet
  facet normal -0 0 -1
    outer loop
      vertex 3.23607 2.35114 -10
      vertex 1.45623 1.05801 -10
      vertex 2.91587 2.73819 -10
    endloop
  endfacet
  facet normal 0 0 -1
    outer loop
      vertex 1.31214 1.23218 -10
      vertex 2.91587 2.73819 -10
      vertex 1.45623 1.05801 -10
    endloop
  endfacet
  facet normal -0 0 -1
    outer loop
      vertex 2.91587 2.73819 -10
      vertex 1.31214 1.23218 -10
      vertex 2.5497 3.08205 -10
    endloop
  endfacet
  facet normal 0 0 -1
    outer loop
      vertex 1.14736 1.38692 -10
      vertex 2.5497 3.08205 -10
      vertex 1.31214 1.23218 -10
    endloop
  endfacet
  facet normal -0 0 -1
    outer loop
      vertex 2.5497 3.08205 -10
      vertex 1.14736 1.38692 -10
      vertex 2.14331 3.37731 -10
    endloop
  endfacet
  facet normal 0 0 -1
    outer loop
      vertex 0.964488 1.51979 -10
      vertex 2.14331 3.37731 -10
      vertex 1.14736 1.38692 -10
    endloop
  endfacet
  facet normal -0 0 -1
    outer loop
      vertex 2.14331 3.37731 -10
      vertex 0.964488 1.51979 -10
      vertex 1.70312 3.61931 -10
    endloop
  endfacet
  facet normal 0 0 -1
    outer loop
      vertex 0.766402 1.62869 -10
      vertex 1.70312 3.61931 -10
      vertex 0.964488 1.51979 -10
    endloop
  endfacet
  facet normal -0 0 -1
    outer loop
      vertex 1.70312 3.61931 -10
      vertex 0.766402 1.62869 -10
      vertex 1.23607 3.80423 -10
    endloop
  endfacet
  facet normal 0 0 -1
    outer loop
      vertex 0.556231 1.7119 -10
      vertex 1.23607 3.80423 -10
      vertex 0.766402 1.62869 -10
    endloop
  endfacet
  facet normal -0 0 -1
    outer loop
      vertex 1.23607 3.80423 -10
      vertex 0.556231 1.7119 -10
      vertex 0.749525 3.92915 -10
    endloop
  endfacet
  facet normal 0 0 -1
    outer loop
      vertex 0.337286 1.76812 -10
      vertex 0.749525 3.92915 -10
      vertex 0.556231 1.7119 -10
    endloop
  endfacet
  facet normal 0 0 -1
    outer loop
      vertex 0.337286 1.76812 -10
      vertex 0.251162 3.99211 -10
      vertex 0.749525 3.92915 -10
    endloop
  endfacet
  facet normal 0 0 -1
    outer loop
      vertex 0.113023 1.79645 -10
      vertex 0.251162 3.99211 -10
      vertex 0.337286 1.76812 -10
    endloop
  endfacet
  facet normal 0 0 -1
    outer loop
      vertex -0.113023 1.79645 -10
      vertex 0.251162 3.99211 -10
      vertex 0.113023 1.79645 -10
    endloop
  endfacet
  facet normal 0 0 -1
    outer loop
      vertex -0.113023 1.79645 -10
      vertex -0.251162 3.99211 -10
      vertex 0.251162 3.99211 -10
    endloop
  endfacet
  facet normal 0 0 -1
    outer loop
      vertex -0.337286 1.76812 -10
      vertex -0.251162 3.99211 -10
      vertex -0.113023 1.79645 -10
    endloop
  endfacet
  facet normal 0 0 -1
    outer loop
      vertex -0.749525 3.92915 -10
      vertex -0.337286 1.76812 -10
      vertex -0.556231 1.7119 -10
    endloop
  endfacet
  facet normal 0 0 -1
    outer loop
      vertex -0.337286 1.76812 -10
      vertex -0.749525 3.92915 -10
      vertex -0.251162 3.99211 -10
    endloop
  endfacet
  facet normal 0 0 -1
    outer loop
      vertex -1.23607 3.80423 -10
      vertex -0.556231 1.7119 -10
      vertex -0.766402 1.62869 -10
    endloop
  endfacet
  facet normal 0 0 -1
    outer loop
      vertex -1.70312 3.61931 -10
      vertex -0.766402 1.62869 -10
      vertex -0.964488 1.51979 -10
    endloop
  endfacet
  facet normal 0 0 -1
    outer loop
      vertex -2.14331 3.37731 -10
      vertex -0.964488 1.51979 -10
      vertex -1.14736 1.38692 -10
    endloop
  endfacet
  facet normal 0 0 -1
    outer loop
      vertex -0.556231 1.7119 -10
      vertex -1.23607 3.80423 -10
      vertex -0.749525 3.92915 -10
    endloop
  endfacet
  facet normal 0 0 -1
    outer loop
      vertex -2.5497 3.08205 -10
      vertex -1.14736 1.38692 -10
      vertex -1.31214 1.23218 -10
    endloop
  endfacet
  facet normal 0 0 -1
    outer loop
      vertex -2.91587 2.73819 -10
      vertex -1.31214 1.23218 -10
      vertex -1.45623 1.05801 -10
    endloop
  endfacet
  facet normal 0 0 -1
    outer loop
      vertex -3.23607 2.35114 -10
      vertex -1.45623 1.05801 -10
      vertex -1.57735 0.867156 -10
    endloop
  endfacet
  facet normal 0 0 -1
    outer loop
      vertex -3.50523 1.92701 -10
      vertex -1.57735 0.867156 -10
      vertex -1.6736 0.662623 -10
    endloop
  endfacet
  facet normal 0 0 -1
    outer loop
      vertex -0.766402 1.62869 -10
      vertex -1.70312 3.61931 -10
      vertex -1.23607 3.80423 -10
    endloop
  endfacet
  facet normal 0 0 -1
    outer loop
      vertex -3.71911 1.4725 -10
      vertex -1.6736 0.662623 -10
      vertex -1.74345 0.447641 -10
    endloop
  endfacet
  facet normal 0 0 -1
    outer loop
      vertex -3.87433 0.994759 -10
      vertex -1.74345 0.447641 -10
      vertex -1.78581 0.225599 -10
    endloop
  endfacet
  facet normal 0 0 -1
    outer loop
      vertex -3.96846 0.501332 -10
      vertex -1.78581 0.225599 -10
      vertex -1.8 0 -10
    endloop
  endfacet
  facet normal -0 0 -1
    outer loop
      vertex -1.57735 -0.867156 -10
      vertex -3.50523 -1.92701 -10
      vertex -1.6736 -0.662623 -10
    endloop
  endfacet
  facet normal 0 0 -1
    outer loop
      vertex -0.964488 1.51979 -10
      vertex -2.14331 3.37731 -10
      vertex -1.70312 3.61931 -10
    endloop
  endfacet
  facet normal 0 0 -1
    outer loop
      vertex -3.71911 -1.4725 -10
      vertex -1.6736 -0.662623 -10
      vertex -3.50523 -1.92701 -10
    endloop
  endfacet
  facet normal 0 0 -1
    outer loop
      vertex -1.14736 1.38692 -10
      vertex -2.5497 3.08205 -10
      vertex -2.14331 3.37731 -10
    endloop
  endfacet
  facet normal -0 0 -1
    outer loop
      vertex -1.6736 -0.662623 -10
      vertex -3.71911 -1.4725 -10
      vertex -1.74345 -0.447641 -10
    endloop
  endfacet
  facet normal 0 0 -1
    outer loop
      vertex -1.31214 1.23218 -10
      vertex -2.91587 2.73819 -10
      vertex -2.5497 3.08205 -10
    endloop
  endfacet
  facet normal 0 0 -1
    outer loop
      vertex -3.87433 -0.994759 -10
      vertex -1.74345 -0.447641 -10
      vertex -3.71911 -1.4725 -10
    endloop
  endfacet
  facet normal 0 0 -1
    outer loop
      vertex -1.45623 1.05801 -10
      vertex -3.23607 2.35114 -10
      vertex -2.91587 2.73819 -10
    endloop
  endfacet
  facet normal -0 0 -1
    outer loop
      vertex -1.74345 -0.447641 -10
      vertex -3.87433 -0.994759 -10
      vertex -1.78581 -0.225599 -10
    endloop
  endfacet
  facet normal 0 0 -1
    outer loop
      vertex -1.57735 0.867156 -10
      vertex -3.50523 1.92701 -10
      vertex -3.23607 2.35114 -10
    endloop
  endfacet
  facet normal 0 0 -1
    outer loop
      vertex -3.96846 -0.501332 -10
      vertex -1.78581 -0.225599 -10
      vertex -3.87433 -0.994759 -10
    endloop
  endfacet
  facet normal 0 0 -1
    outer loop
      vertex -1.6736 0.662623 -10
      vertex -3.71911 1.4725 -10
      vertex -3.50523 1.92701 -10
    endloop
  endfacet
  facet normal -0 0 -1
    outer loop
      vertex -1.78581 -0.225599 -10
      vertex -3.96846 -0.501332 -10
      vertex -1.8 0 -10
    endloop
  endfacet
  facet normal 0 0 -1
    outer loop
      vertex -1.74345 0.447641 -10
      vertex -3.87433 0.994759 -10
      vertex -3.71911 1.4725 -10
    endloop
  endfacet
  facet normal 0 0 -1
    outer loop
      vertex -4 0 -10
      vertex -1.8 0 -10
      vertex -3.96846 -0.501332 -10
    endloop
  endfacet
  facet normal 0 0 -1
    outer loop
      vertex -1.78581 0.225599 -10
      vertex -3.96846 0.501332 -10
      vertex -3.87433 0.994759 -10
    endloop
  endfacet
  facet normal 0 0 -1
    outer loop
      vertex -1.8 0 -10
      vertex -4 0 -10
      vertex -3.96846 0.501332 -10
    endloop
  endfacet
  facet normal 0.844329 -0.535825 0
    outer loop
      vertex 3.23607 -2.35114 10
      vertex 3.50523 -1.92701 -10
      vertex 3.50523 -1.92701 10
    endloop
  endfacet
  facet normal 0.844329 -0.535825 0
    outer loop
      vertex 3.50523 -1.92701 -10
      vertex 3.23607 -2.35114 10
      vertex 3.23607 -2.35114 -10
    endloop
  endfacet
  facet normal -0.248683 -0.968585 0
    outer loop
      vertex -1.23607 -3.80423 -10
      vertex -0.749525 -3.92915 10
      vertex -1.23607 -3.80423 10
    endloop
  endfacet
  facet normal -0.248683 -0.968585 -0
    outer loop
      vertex -0.749525 -3.92915 10
      vertex -1.23607 -3.80423 -10
      vertex -0.749525 -3.92915 -10
    endloop
  endfacet
  facet normal -0.951061 -0.309004 0
    outer loop
      vertex -3.71911 -1.4725 -10
      vertex -3.87433 -0.994759 10
      vertex -3.87433 -0.994759 -10
    endloop
  endfacet
  facet normal -0.951061 -0.309004 0
    outer loop
      vertex -3.87433 -0.994759 10
      vertex -3.71911 -1.4725 -10
      vertex -3.71911 -1.4725 10
    endloop
  endfacet
  facet normal 0.248683 -0.968585 0
    outer loop
      vertex 0.749525 -3.92915 -10
      vertex 1.23607 -3.80423 10
      vertex 0.749525 -3.92915 10
    endloop
  endfacet
  facet normal 0.248683 -0.968585 0
    outer loop
      vertex 1.23607 -3.80423 10
      vertex 0.749525 -3.92915 -10
      vertex 1.23607 -3.80423 -10
    endloop
  endfacet
  facet normal 0.684551 -0.728965 0
    outer loop
      vertex 2.5497 -3.08205 -10
      vertex 2.91587 -2.73819 10
      vertex 2.5497 -3.08205 10
    endloop
  endfacet
  facet normal 0.684551 -0.728965 0
    outer loop
      vertex 2.91587 -2.73819 10
      vertex 2.5497 -3.08205 -10
      vertex 2.91587 -2.73819 -10
    endloop
  endfacet
  facet normal 0.587786 -0.809017 0
    outer loop
      vertex 2.14331 -3.37731 -10
      vertex 2.5497 -3.08205 10
      vertex 2.14331 -3.37731 10
    endloop
  endfacet
  facet normal 0.587786 -0.809017 0
    outer loop
      vertex 2.5497 -3.08205 10
      vertex 2.14331 -3.37731 -10
      vertex 2.5497 -3.08205 -10
    endloop
  endfacet
  facet normal 0.904824 -0.425786 0
    outer loop
      vertex 3.50523 -1.92701 10
      vertex 3.71911 -1.4725 -10
      vertex 3.71911 -1.4725 10
    endloop
  endfacet
  facet normal 0.904824 -0.425786 0
    outer loop
      vertex 3.71911 -1.4725 -10
      vertex 3.50523 -1.92701 10
      vertex 3.50523 -1.92701 -10
    endloop
  endfacet
  facet normal -0.125337 -0.992114 0
    outer loop
      vertex -0.749525 -3.92915 -10
      vertex -0.251162 -3.99211 10
      vertex -0.749525 -3.92915 10
    endloop
  endfacet
  facet normal -0.125337 -0.992114 -0
    outer loop
      vertex -0.251162 -3.99211 10
      vertex -0.749525 -3.92915 -10
      vertex -0.251162 -3.99211 -10
    endloop
  endfacet
  facet normal -0.368128 -0.929775 0
    outer loop
      vertex -1.70312 -3.61931 -10
      vertex -1.23607 -3.80423 10
      vertex -1.70312 -3.61931 10
    endloop
  endfacet
  facet normal -0.368128 -0.929775 -0
    outer loop
      vertex -1.23607 -3.80423 10
      vertex -1.70312 -3.61931 -10
      vertex -1.23607 -3.80423 -10
    endloop
  endfacet
  facet normal -0.844329 -0.535825 0
    outer loop
      vertex -3.23607 -2.35114 -10
      vertex -3.50523 -1.92701 10
      vertex -3.50523 -1.92701 -10
    endloop
  endfacet
  facet normal -0.844329 -0.535825 0
    outer loop
      vertex -3.50523 -1.92701 10
      vertex -3.23607 -2.35114 -10
      vertex -3.23607 -2.35114 10
    endloop
  endfacet
  facet normal -0.982286 -0.187389 0
    outer loop
      vertex -3.87433 -0.994759 -10
      vertex -3.96846 -0.501332 10
      vertex -3.96846 -0.501332 -10
    endloop
  endfacet
  facet normal -0.982286 -0.187389 0
    outer loop
      vertex -3.96846 -0.501332 10
      vertex -3.87433 -0.994759 -10
      vertex -3.87433 -0.994759 10
    endloop
  endfacet
  facet normal -0.998027 -0.0627883 0
    outer loop
      vertex -3.96846 -0.501332 -10
      vertex -4 0 10
      vertex -4 0 -10
    endloop
  endfacet
  facet normal -0.998027 -0.0627883 0
    outer loop
      vertex -4 0 10
      vertex -3.96846 -0.501332 -10
      vertex -3.96846 -0.501332 10
    endloop
  endfacet
  facet normal -0.481759 -0.876304 0
    outer loop
      vertex -2.14331 -3.37731 -10
      vertex -1.70312 -3.61931 10
      vertex -2.14331 -3.37731 10
    endloop
  endfacet
  facet normal -0.481759 -0.876304 -0
    outer loop
      vertex -1.70312 -3.61931 10
      vertex -2.14331 -3.37731 -10
      vertex -1.70312 -3.61931 -10
    endloop
  endfacet
  facet normal -0.587786 -0.809017 0
    outer loop
      vertex -2.5497 -3.08205 -10
      vertex -2.14331 -3.37731 10
      vertex -2.5497 -3.08205 10
    endloop
  endfacet
  facet normal -0.587786 -0.809017 -0
    outer loop
      vertex -2.14331 -3.37731 10
      vertex -2.5497 -3.08205 -10
      vertex -2.14331 -3.37731 -10
    endloop
  endfacet
  facet normal 0.951059 -0.309009 0
    outer loop
      vertex -1.74345 0.447641 10
      vertex -1.6736 0.662623 -10
      vertex -1.6736 0.662623 10
    endloop
  endfacet
  facet normal 0.951059 -0.309009 0
    outer loop
      vertex -1.6736 0.662623 -10
      vertex -1.74345 0.447641 10
      vertex -1.74345 0.447641 -10
    endloop
  endfacet
  facet normal -0.844327 -0.535828 0
    outer loop
      vertex 1.57735 0.867156 -10
      vertex 1.45623 1.05801 10
      vertex 1.45623 1.05801 -10
    endloop
  endfacet
  facet normal -0.844327 -0.535828 0
    outer loop
      vertex 1.45623 1.05801 10
      vertex 1.57735 0.867156 -10
      vertex 1.57735 0.867156 10
    endloop
  endfacet
  facet normal -0.248708 -0.968578 0
    outer loop
      vertex 0.337286 1.76812 -10
      vertex 0.556231 1.7119 10
      vertex 0.337286 1.76812 10
    endloop
  endfacet
  facet normal -0.248708 -0.968578 -0
    outer loop
      vertex 0.556231 1.7119 10
      vertex 0.337286 1.76812 -10
      vertex 0.556231 1.7119 -10
    endloop
  endfacet
  facet normal -0.368115 -0.92978 0
    outer loop
      vertex 0.556231 1.7119 -10
      vertex 0.766402 1.62869 10
      vertex 0.556231 1.7119 10
    endloop
  endfacet
  facet normal -0.368115 -0.92978 -0
    outer loop
      vertex 0.766402 1.62869 10
      vertex 0.556231 1.7119 -10
      vertex 0.766402 1.62869 -10
    endloop
  endfacet
  facet normal 0.368115 -0.92978 0
    outer loop
      vertex -0.766402 1.62869 -10
      vertex -0.556231 1.7119 10
      vertex -0.766402 1.62869 10
    endloop
  endfacet
  facet normal 0.368115 -0.92978 0
    outer loop
      vertex -0.556231 1.7119 10
      vertex -0.766402 1.62869 -10
      vertex -0.556231 1.7119 -10
    endloop
  endfacet
  facet normal 0.90482 -0.425794 0
    outer loop
      vertex -1.6736 0.662623 10
      vertex -1.57735 0.867156 -10
      vertex -1.57735 0.867156 10
    endloop
  endfacet
  facet normal 0.90482 -0.425794 0
    outer loop
      vertex -1.57735 0.867156 -10
      vertex -1.6736 0.662623 10
      vertex -1.6736 0.662623 -10
    endloop
  endfacet
  facet normal -0.982285 0.187395 0
    outer loop
      vertex 1.74345 -0.447641 -10
      vertex 1.78581 -0.225599 10
      vertex 1.78581 -0.225599 -10
    endloop
  endfacet
  facet normal -0.982285 0.187395 0
    outer loop
      vertex 1.78581 -0.225599 10
      vertex 1.74345 -0.447641 -10
      vertex 1.74345 -0.447641 10
    endloop
  endfacet
  facet normal -0.68455 -0.728966 0
    outer loop
      vertex 1.14736 1.38692 -10
      vertex 1.31214 1.23218 10
      vertex 1.14736 1.38692 10
    endloop
  endfacet
  facet normal -0.68455 -0.728966 -0
    outer loop
      vertex 1.31214 1.23218 10
      vertex 1.14736 1.38692 -10
      vertex 1.31214 1.23218 -10
    endloop
  endfacet
  facet normal -0.587802 -0.809005 0
    outer loop
      vertex 0.964488 1.51979 -10
      vertex 1.14736 1.38692 10
      vertex 0.964488 1.51979 10
    endloop
  endfacet
  facet normal -0.587802 -0.809005 -0
    outer loop
      vertex 1.14736 1.38692 10
      vertex 0.964488 1.51979 -10
      vertex 1.14736 1.38692 -10
    endloop
  endfacet
  facet normal 0.770504 -0.637435 0
    outer loop
      vertex -1.45623 1.05801 10
      vertex -1.31214 1.23218 -10
      vertex -1.31214 1.23218 10
    endloop
  endfacet
  facet normal 0.770504 -0.637435 0
    outer loop
      vertex -1.31214 1.23218 -10
      vertex -1.45623 1.05801 10
      vertex -1.45623 1.05801 -10
    endloop
  endfacet
  facet normal 0.248708 -0.968578 0
    outer loop
      vertex -0.556231 1.7119 -10
      vertex -0.337286 1.76812 10
      vertex -0.556231 1.7119 10
    endloop
  endfacet
  facet normal 0.248708 -0.968578 0
    outer loop
      vertex -0.337286 1.76812 10
      vertex -0.556231 1.7119 -10
      vertex -0.337286 1.76812 -10
    endloop
  endfacet
  facet normal 0.68455 -0.728966 0
    outer loop
      vertex -1.31214 1.23218 -10
      vertex -1.14736 1.38692 10
      vertex -1.31214 1.23218 10
    endloop
  endfacet
  facet normal 0.68455 -0.728966 0
    outer loop
      vertex -1.14736 1.38692 10
      vertex -1.31214 1.23218 -10
      vertex -1.14736 1.38692 -10
    endloop
  endfacet
  facet normal -0.998028 -0.0627752 0
    outer loop
      vertex 1.8 0 -10
      vertex 1.78581 0.225599 10
      vertex 1.78581 0.225599 -10
    endloop
  endfacet
  facet normal -0.998028 -0.0627752 0
    outer loop
      vertex 1.78581 0.225599 10
      vertex 1.8 0 -10
      vertex 1.8 0 10
    endloop
  endfacet
  facet normal -0.770504 -0.637435 0
    outer loop
      vertex 1.45623 1.05801 -10
      vertex 1.31214 1.23218 10
      vertex 1.31214 1.23218 -10
    endloop
  endfacet
  facet normal -0.770504 -0.637435 0
    outer loop
      vertex 1.31214 1.23218 10
      vertex 1.45623 1.05801 -10
      vertex 1.45623 1.05801 10
    endloop
  endfacet
  facet normal 0 -1 0
    outer loop
      vertex -0.113023 1.79645 -10
      vertex 0.113023 1.79645 10
      vertex -0.113023 1.79645 10
    endloop
  endfacet
  facet normal 0 -1 -0
    outer loop
      vertex 0.113023 1.79645 10
      vertex -0.113023 1.79645 -10
      vertex 0.113023 1.79645 -10
    endloop
  endfacet
  facet normal -0.481758 -0.876304 0
    outer loop
      vertex 0.766402 1.62869 -10
      vertex 0.964488 1.51979 10
      vertex 0.766402 1.62869 10
    endloop
  endfacet
  facet normal -0.481758 -0.876304 -0
    outer loop
      vertex 0.964488 1.51979 10
      vertex 0.766402 1.62869 -10
      vertex 0.964488 1.51979 -10
    endloop
  endfacet
  facet normal 0.998028 -0.0627752 0
    outer loop
      vertex -1.8 0 10
      vertex -1.78581 0.225599 -10
      vertex -1.78581 0.225599 10
    endloop
  endfacet
  facet normal 0.998028 -0.0627752 0
    outer loop
      vertex -1.78581 0.225599 -10
      vertex -1.8 0 10
      vertex -1.8 0 -10
    endloop
  endfacet
  facet normal 0.844327 -0.535828 0
    outer loop
      vertex -1.57735 0.867156 10
      vertex -1.45623 1.05801 -10
      vertex -1.45623 1.05801 10
    endloop
  endfacet
  facet normal 0.844327 -0.535828 0
    outer loop
      vertex -1.45623 1.05801 -10
      vertex -1.57735 0.867156 10
      vertex -1.57735 0.867156 -10
    endloop
  endfacet
  facet normal 0.125329 -0.992115 0
    outer loop
      vertex -0.337286 1.76812 -10
      vertex -0.113023 1.79645 10
      vertex -0.337286 1.76812 10
    endloop
  endfacet
  facet normal 0.125329 -0.992115 0
    outer loop
      vertex -0.113023 1.79645 10
      vertex -0.337286 1.76812 -10
      vertex -0.113023 1.79645 -10
    endloop
  endfacet
  facet normal 0.587802 -0.809005 0
    outer loop
      vertex -1.14736 1.38692 -10
      vertex -0.964488 1.51979 10
      vertex -1.14736 1.38692 10
    endloop
  endfacet
  facet normal 0.587802 -0.809005 0
    outer loop
      vertex -0.964488 1.51979 10
      vertex -1.14736 1.38692 -10
      vertex -0.964488 1.51979 -10
    endloop
  endfacet
  facet normal 0.481758 -0.876304 0
    outer loop
      vertex -0.964488 1.51979 -10
      vertex -0.766402 1.62869 10
      vertex -0.964488 1.51979 10
    endloop
  endfacet
  facet normal 0.481758 -0.876304 0
    outer loop
      vertex -0.766402 1.62869 10
      vertex -0.964488 1.51979 -10
      vertex -0.766402 1.62869 -10
    endloop
  endfacet
  facet normal -0.998028 0.0627752 0
    outer loop
      vertex 1.78581 -0.225599 -10
      vertex 1.8 0 10
      vertex 1.8 0 -10
    endloop
  endfacet
  facet normal -0.998028 0.0627752 0
    outer loop
      vertex 1.8 0 10
      vertex 1.78581 -0.225599 -10
      vertex 1.78581 -0.225599 10
    endloop
  endfacet
  facet normal 0.90482 0.425794 0
    outer loop
      vertex -1.57735 -0.867156 10
      vertex -1.6736 -0.662623 -10
      vertex -1.6736 -0.662623 10
    endloop
  endfacet
  facet normal 0.90482 0.425794 0
    outer loop
      vertex -1.6736 -0.662623 -10
      vertex -1.57735 -0.867156 10
      vertex -1.57735 -0.867156 -10
    endloop
  endfacet
  facet normal -0.125329 0.992115 0
    outer loop
      vertex 0.337286 -1.76812 -10
      vertex 0.113023 -1.79645 10
      vertex 0.337286 -1.76812 10
    endloop
  endfacet
  facet normal -0.125329 0.992115 0
    outer loop
      vertex 0.113023 -1.79645 10
      vertex 0.337286 -1.76812 -10
      vertex 0.113023 -1.79645 -10
    endloop
  endfacet
  facet normal -0.368115 0.92978 0
    outer loop
      vertex 0.766402 -1.62869 -10
      vertex 0.556231 -1.7119 10
      vertex 0.766402 -1.62869 10
    endloop
  endfacet
  facet normal -0.368115 0.92978 0
    outer loop
      vertex 0.556231 -1.7119 10
      vertex 0.766402 -1.62869 -10
      vertex 0.556231 -1.7119 -10
    endloop
  endfacet
  facet normal -0.90482 -0.425794 0
    outer loop
      vertex 1.6736 0.662623 -10
      vertex 1.57735 0.867156 10
      vertex 1.57735 0.867156 -10
    endloop
  endfacet
  facet normal -0.90482 -0.425794 0
    outer loop
      vertex 1.57735 0.867156 10
      vertex 1.6736 0.662623 -10
      vertex 1.6736 0.662623 10
    endloop
  endfacet
  facet normal -0.951059 -0.309009 0
    outer loop
      vertex 1.74345 0.447641 -10
      vertex 1.6736 0.662623 10
      vertex 1.6736 0.662623 -10
    endloop
  endfacet
  facet normal -0.951059 -0.309009 0
    outer loop
      vertex 1.6736 0.662623 10
      vertex 1.74345 0.447641 -10
      vertex 1.74345 0.447641 10
    endloop
  endfacet
  facet normal -0.982285 -0.187395 0
    outer loop
      vertex 1.78581 0.225599 -10
      vertex 1.74345 0.447641 10
      vertex 1.74345 0.447641 -10
    endloop
  endfacet
  facet normal -0.982285 -0.187395 0
    outer loop
      vertex 1.74345 0.447641 10
      vertex 1.78581 0.225599 -10
      vertex 1.78581 0.225599 10
    endloop
  endfacet
  facet normal -0.125329 -0.992115 0
    outer loop
      vertex 0.113023 1.79645 -10
      vertex 0.337286 1.76812 10
      vertex 0.113023 1.79645 10
    endloop
  endfacet
  facet normal -0.125329 -0.992115 -0
    outer loop
      vertex 0.337286 1.76812 10
      vertex 0.113023 1.79645 -10
      vertex 0.337286 1.76812 -10
    endloop
  endfacet
  facet normal 0.982285 -0.187395 0
    outer loop
      vertex -1.78581 0.225599 10
      vertex -1.74345 0.447641 -10
      vertex -1.74345 0.447641 10
    endloop
  endfacet
  facet normal 0.982285 -0.187395 0
    outer loop
      vertex -1.74345 0.447641 -10
      vertex -1.78581 0.225599 10
      vertex -1.78581 0.225599 -10
    endloop
  endfacet
  facet normal -0.90482 0.425794 0
    outer loop
      vertex 1.57735 -0.867156 -10
      vertex 1.6736 -0.662623 10
      vertex 1.6736 -0.662623 -10
    endloop
  endfacet
  facet normal -0.90482 0.425794 0
    outer loop
      vertex 1.6736 -0.662623 10
      vertex 1.57735 -0.867156 -10
      vertex 1.57735 -0.867156 10
    endloop
  endfacet
  facet normal -0.951059 0.309009 0
    outer loop
      vertex 1.6736 -0.662623 -10
      vertex 1.74345 -0.447641 10
      vertex 1.74345 -0.447641 -10
    endloop
  endfacet
  facet normal -0.951059 0.309009 0
    outer loop
      vertex 1.74345 -0.447641 10
      vertex 1.6736 -0.662623 -10
      vertex 1.6736 -0.662623 10
    endloop
  endfacet
  facet normal -0.68455 0.728966 0
    outer loop
      vertex 1.31214 -1.23218 -10
      vertex 1.14736 -1.38692 10
      vertex 1.31214 -1.23218 10
    endloop
  endfacet
  facet normal -0.68455 0.728966 0
    outer loop
      vertex 1.14736 -1.38692 10
      vertex 1.31214 -1.23218 -10
      vertex 1.14736 -1.38692 -10
    endloop
  endfacet
  facet normal -0.770504 0.637435 0
    outer loop
      vertex 1.31214 -1.23218 -10
      vertex 1.45623 -1.05801 10
      vertex 1.45623 -1.05801 -10
    endloop
  endfacet
  facet normal -0.770504 0.637435 0
    outer loop
      vertex 1.45623 -1.05801 10
      vertex 1.31214 -1.23218 -10
      vertex 1.31214 -1.23218 10
    endloop
  endfacet
  facet normal -0.844327 0.535828 0
    outer loop
      vertex 1.45623 -1.05801 -10
      vertex 1.57735 -0.867156 10
      vertex 1.57735 -0.867156 -10
    endloop
  endfacet
  facet normal -0.844327 0.535828 0
    outer loop
      vertex 1.57735 -0.867156 10
      vertex 1.45623 -1.05801 -10
      vertex 1.45623 -1.05801 10
    endloop
  endfacet
  facet normal 0.248708 0.968578 -0
    outer loop
      vertex -0.337286 -1.76812 -10
      vertex -0.556231 -1.7119 10
      vertex -0.337286 -1.76812 10
    endloop
  endfacet
  facet normal 0.248708 0.968578 0
    outer loop
      vertex -0.556231 -1.7119 10
      vertex -0.337286 -1.76812 -10
      vertex -0.556231 -1.7119 -10
    endloop
  endfacet
  facet normal 0.125329 0.992115 -0
    outer loop
      vertex -0.113023 -1.79645 -10
      vertex -0.337286 -1.76812 10
      vertex -0.113023 -1.79645 10
    endloop
  endfacet
  facet normal 0.125329 0.992115 0
    outer loop
      vertex -0.337286 -1.76812 10
      vertex -0.113023 -1.79645 -10
      vertex -0.337286 -1.76812 -10
    endloop
  endfacet
  facet normal 0.998028 0.0627752 0
    outer loop
      vertex -1.78581 -0.225599 10
      vertex -1.8 0 -10
      vertex -1.8 0 10
    endloop
  endfacet
  facet normal 0.998028 0.0627752 0
    outer loop
      vertex -1.8 0 -10
      vertex -1.78581 -0.225599 10
      vertex -1.78581 -0.225599 -10
    endloop
  endfacet
  facet normal 0.844327 0.535828 0
    outer loop
      vertex -1.45623 -1.05801 10
      vertex -1.57735 -0.867156 -10
      vertex -1.57735 -0.867156 10
    endloop
  endfacet
  facet normal 0.844327 0.535828 0
    outer loop
      vertex -1.57735 -0.867156 -10
      vertex -1.45623 -1.05801 10
      vertex -1.45623 -1.05801 -10
    endloop
  endfacet
  facet normal 0.951059 0.309009 0
    outer loop
      vertex -1.6736 -0.662623 10
      vertex -1.74345 -0.447641 -10
      vertex -1.74345 -0.447641 10
    endloop
  endfacet
  facet normal 0.951059 0.309009 0
    outer loop
      vertex -1.74345 -0.447641 -10
      vertex -1.6736 -0.662623 10
      vertex -1.6736 -0.662623 -10
    endloop
  endfacet
  facet normal -0.248708 0.968578 0
    outer loop
      vertex 0.556231 -1.7119 -10
      vertex 0.337286 -1.76812 10
      vertex 0.556231 -1.7119 10
    endloop
  endfacet
  facet normal -0.248708 0.968578 0
    outer loop
      vertex 0.337286 -1.76812 10
      vertex 0.556231 -1.7119 -10
      vertex 0.337286 -1.76812 -10
    endloop
  endfacet
  facet normal -0.587802 0.809005 0
    outer loop
      vertex 1.14736 -1.38692 -10
      vertex 0.964488 -1.51979 10
      vertex 1.14736 -1.38692 10
    endloop
  endfacet
  facet normal -0.587802 0.809005 0
    outer loop
      vertex 0.964488 -1.51979 10
      vertex 1.14736 -1.38692 -10
      vertex 0.964488 -1.51979 -10
    endloop
  endfacet
  facet normal -0.481758 0.876304 0
    outer loop
      vertex 0.964488 -1.51979 -10
      vertex 0.766402 -1.62869 10
      vertex 0.964488 -1.51979 10
    endloop
  endfacet
  facet normal -0.481758 0.876304 0
    outer loop
      vertex 0.766402 -1.62869 10
      vertex 0.964488 -1.51979 -10
      vertex 0.766402 -1.62869 -10
    endloop
  endfacet
  facet normal 0.587802 0.809005 -0
    outer loop
      vertex -0.964488 -1.51979 -10
      vertex -1.14736 -1.38692 10
      vertex -0.964488 -1.51979 10
    endloop
  endfacet
  facet normal 0.587802 0.809005 0
    outer loop
      vertex -1.14736 -1.38692 10
      vertex -0.964488 -1.51979 -10
      vertex -1.14736 -1.38692 -10
    endloop
  endfacet
  facet normal 0 1 -0
    outer loop
      vertex 0.113023 -1.79645 -10
      vertex -0.113023 -1.79645 10
      vertex 0.113023 -1.79645 10
    endloop
  endfacet
  facet normal 0 1 0
    outer loop
      vertex -0.113023 -1.79645 10
      vertex 0.113023 -1.79645 -10
      vertex -0.113023 -1.79645 -10
    endloop
  endfacet
  facet normal 0.68455 0.728966 -0
    outer loop
      vertex -1.14736 -1.38692 -10
      vertex -1.31214 -1.23218 10
      vertex -1.14736 -1.38692 10
    endloop
  endfacet
  facet normal 0.68455 0.728966 0
    outer loop
      vertex -1.31214 -1.23218 10
      vertex -1.14736 -1.38692 -10
      vertex -1.31214 -1.23218 -10
    endloop
  endfacet
  facet normal 0.982285 0.187395 0
    outer loop
      vertex -1.74345 -0.447641 10
      vertex -1.78581 -0.225599 -10
      vertex -1.78581 -0.225599 10
    endloop
  endfacet
  facet normal 0.982285 0.187395 0
    outer loop
      vertex -1.78581 -0.225599 -10
      vertex -1.74345 -0.447641 10
      vertex -1.74345 -0.447641 -10
    endloop
  endfacet
  facet normal 0.481758 0.876304 -0
    outer loop
      vertex -0.766402 -1.62869 -10
      vertex -0.964488 -1.51979 10
      vertex -0.766402 -1.62869 10
    endloop
  endfacet
  facet normal 0.481758 0.876304 0
    outer loop
      vertex -0.964488 -1.51979 10
      vertex -0.766402 -1.62869 -10
      vertex -0.964488 -1.51979 -10
    endloop
  endfacet
  facet normal 0.368115 0.92978 -0
    outer loop
      vertex -0.556231 -1.7119 -10
      vertex -0.766402 -1.62869 10
      vertex -0.556231 -1.7119 10
    endloop
  endfacet
  facet normal 0.368115 0.92978 0
    outer loop
      vertex -0.766402 -1.62869 10
      vertex -0.556231 -1.7119 -10
      vertex -0.766402 -1.62869 -10
    endloop
  endfacet
  facet normal 0.770504 0.637435 0
    outer loop
      vertex -1.31214 -1.23218 10
      vertex -1.45623 -1.05801 -10
      vertex -1.45623 -1.05801 10
    endloop
  endfacet
  facet normal 0.770504 0.637435 0
    outer loop
      vertex -1.45623 -1.05801 -10
      vertex -1.31214 -1.23218 10
      vertex -1.31214 -1.23218 -10
    endloop
  endfacet
endsolid OpenSCAD_Model
