solid OpenSCAD_Model
  facet normal 0.998026 0.0627961 0
    outer loop
      vertex 5 0 45
      vertex 4.96057 0.626666 -45
      vertex 4.96057 0.626666 45
    endloop
  endfacet
  facet normal 0.998026 0.0627961 0
    outer loop
      vertex 4.96057 0.626666 -45
      vertex 5 0 45
      vertex 5 0 -45
    endloop
  endfacet
  facet normal -0.998026 0.0627961 0
    outer loop
      vertex -5 0 -45
      vertex -4.96057 0.626666 45
      vertex -4.96057 0.626666 -45
    endloop
  endfacet
  facet normal -0.998026 0.0627961 0
    outer loop
      vertex -4.96057 0.626666 45
      vertex -5 0 -45
      vertex -5 0 45
    endloop
  endfacet
  facet normal 0 1 -0
    outer loop
      vertex 0.313952 4.99013 -45
      vertex -0.313952 4.99013 45
      vertex 0.313952 4.99013 45
    endloop
  endfacet
  facet normal 0 1 0
    outer loop
      vertex -0.313952 4.99013 45
      vertex 0.313952 4.99013 -45
      vertex -0.313952 4.99013 -45
    endloop
  endfacet
  facet normal 0 -1 0
    outer loop
      vertex -0.313952 -4.99013 -45
      vertex 0.313952 -4.99013 45
      vertex -0.313952 -4.99013 45
    endloop
  endfacet
  facet normal 0 -1 -0
    outer loop
      vertex 0.313952 -4.99013 45
      vertex -0.313952 -4.99013 -45
      vertex 0.313952 -4.99013 -45
    endloop
  endfacet
  facet normal 0.684549 -0.728967 0
    outer loop
      vertex 3.18712 -3.85257 -45
      vertex 3.64484 -3.42274 45
      vertex 3.18712 -3.85257 45
    endloop
  endfacet
  facet normal 0.684549 -0.728967 0
    outer loop
      vertex 3.64484 -3.42274 45
      vertex 3.18712 -3.85257 -45
      vertex 3.64484 -3.42274 -45
    endloop
  endfacet
  facet normal 0.684549 0.728967 -0
    outer loop
      vertex 3.64484 3.42274 -45
      vertex 3.18712 3.85257 45
      vertex 3.64484 3.42274 45
    endloop
  endfacet
  facet normal 0.684549 0.728967 0
    outer loop
      vertex 3.18712 3.85257 45
      vertex 3.64484 3.42274 -45
      vertex 3.18712 3.85257 -45
    endloop
  endfacet
  facet normal -0.684549 0.728967 0
    outer loop
      vertex -3.18712 3.85257 -45
      vertex -3.64484 3.42274 45
      vertex -3.18712 3.85257 45
    endloop
  endfacet
  facet normal -0.684549 0.728967 0
    outer loop
      vertex -3.64484 3.42274 45
      vertex -3.18712 3.85257 -45
      vertex -3.64484 3.42274 -45
    endloop
  endfacet
  facet normal -0.368124 0.929777 0
    outer loop
      vertex -1.54508 4.75528 -45
      vertex -2.1289 4.52413 45
      vertex -1.54508 4.75528 45
    endloop
  endfacet
  facet normal -0.368124 0.929777 0
    outer loop
      vertex -2.1289 4.52413 45
      vertex -1.54508 4.75528 -45
      vertex -2.1289 4.52413 -45
    endloop
  endfacet
  facet normal 0.904828 0.425778 0
    outer loop
      vertex 4.64888 1.84062 45
      vertex 4.38153 2.40877 -45
      vertex 4.38153 2.40877 45
    endloop
  endfacet
  facet normal 0.904828 0.425778 0
    outer loop
      vertex 4.38153 2.40877 -45
      vertex 4.64888 1.84062 45
      vertex 4.64888 1.84062 -45
    endloop
  endfacet
  facet normal 0.98229 0.187369 0
    outer loop
      vertex 4.96057 0.626666 45
      vertex 4.84292 1.24345 -45
      vertex 4.84292 1.24345 45
    endloop
  endfacet
  facet normal 0.98229 0.187369 0
    outer loop
      vertex 4.84292 1.24345 -45
      vertex 4.96057 0.626666 45
      vertex 4.96057 0.626666 -45
    endloop
  endfacet
  facet normal 0.368124 0.929777 -0
    outer loop
      vertex 2.1289 4.52413 -45
      vertex 1.54508 4.75528 45
      vertex 2.1289 4.52413 45
    endloop
  endfacet
  facet normal 0.368124 0.929777 0
    outer loop
      vertex 1.54508 4.75528 45
      vertex 2.1289 4.52413 -45
      vertex 1.54508 4.75528 -45
    endloop
  endfacet
  facet normal 0.248701 0.96858 -0
    outer loop
      vertex 1.54508 4.75528 -45
      vertex 0.936906 4.91144 45
      vertex 1.54508 4.75528 45
    endloop
  endfacet
  facet normal 0.248701 0.96858 0
    outer loop
      vertex 0.936906 4.91144 45
      vertex 1.54508 4.75528 -45
      vertex 0.936906 4.91144 -45
    endloop
  endfacet
  facet normal 0.481752 0.876308 -0
    outer loop
      vertex 2.67913 4.22164 -45
      vertex 2.1289 4.52413 45
      vertex 2.67913 4.22164 45
    endloop
  endfacet
  facet normal 0.481752 0.876308 0
    outer loop
      vertex 2.1289 4.52413 45
      vertex 2.67913 4.22164 -45
      vertex 2.1289 4.52413 -45
    endloop
  endfacet
  facet normal -0.844328 0.535827 0
    outer loop
      vertex -4.38153 2.40877 -45
      vertex -4.04508 2.93893 45
      vertex -4.04508 2.93893 -45
    endloop
  endfacet
  facet normal -0.844328 0.535827 0
    outer loop
      vertex -4.04508 2.93893 45
      vertex -4.38153 2.40877 -45
      vertex -4.38153 2.40877 45
    endloop
  endfacet
  facet normal -0.770515 0.637422 0
    outer loop
      vertex -4.04508 2.93893 -45
      vertex -3.64484 3.42274 45
      vertex -3.64484 3.42274 -45
    endloop
  endfacet
  facet normal -0.770515 0.637422 0
    outer loop
      vertex -3.64484 3.42274 45
      vertex -4.04508 2.93893 -45
      vertex -4.04508 2.93893 45
    endloop
  endfacet
  facet normal -0.951053 0.309028 0
    outer loop
      vertex -4.84292 1.24345 -45
      vertex -4.64888 1.84062 45
      vertex -4.64888 1.84062 -45
    endloop
  endfacet
  facet normal -0.951053 0.309028 0
    outer loop
      vertex -4.64888 1.84062 45
      vertex -4.84292 1.24345 -45
      vertex -4.84292 1.24345 45
    endloop
  endfacet
  facet normal -0.587779 0.809022 0
    outer loop
      vertex -2.67913 4.22164 -45
      vertex -3.18712 3.85257 45
      vertex -2.67913 4.22164 45
    endloop
  endfacet
  facet normal -0.587779 0.809022 0
    outer loop
      vertex -3.18712 3.85257 45
      vertex -2.67913 4.22164 -45
      vertex -3.18712 3.85257 -45
    endloop
  endfacet
  facet normal -0.248701 0.96858 0
    outer loop
      vertex -0.936906 4.91144 -45
      vertex -1.54508 4.75528 45
      vertex -0.936906 4.91144 45
    endloop
  endfacet
  facet normal -0.248701 0.96858 0
    outer loop
      vertex -1.54508 4.75528 45
      vertex -0.936906 4.91144 -45
      vertex -1.54508 4.75528 -45
    endloop
  endfacet
  facet normal 0.951053 -0.309028 0
    outer loop
      vertex 4.64888 -1.84062 45
      vertex 4.84292 -1.24345 -45
      vertex 4.84292 -1.24345 45
    endloop
  endfacet
  facet normal 0.951053 -0.309028 0
    outer loop
      vertex 4.84292 -1.24345 -45
      vertex 4.64888 -1.84062 45
      vertex 4.64888 -1.84062 -45
    endloop
  endfacet
  facet normal 0.125322 -0.992116 0
    outer loop
      vertex 0.313952 -4.99013 -45
      vertex 0.936906 -4.91144 45
      vertex 0.313952 -4.99013 45
    endloop
  endfacet
  facet normal 0.125322 -0.992116 0
    outer loop
      vertex 0.936906 -4.91144 45
      vertex 0.313952 -4.99013 -45
      vertex 0.936906 -4.91144 -45
    endloop
  endfacet
  facet normal 0.951053 0.309028 0
    outer loop
      vertex 4.84292 1.24345 45
      vertex 4.64888 1.84062 -45
      vertex 4.64888 1.84062 45
    endloop
  endfacet
  facet normal 0.951053 0.309028 0
    outer loop
      vertex 4.64888 1.84062 -45
      vertex 4.84292 1.24345 45
      vertex 4.84292 1.24345 -45
    endloop
  endfacet
  facet normal 0.770515 0.637422 0
    outer loop
      vertex 4.04508 2.93893 45
      vertex 3.64484 3.42274 -45
      vertex 3.64484 3.42274 45
    endloop
  endfacet
  facet normal 0.770515 0.637422 0
    outer loop
      vertex 3.64484 3.42274 -45
      vertex 4.04508 2.93893 45
      vertex 4.04508 2.93893 -45
    endloop
  endfacet
  facet normal 0.844328 0.535827 0
    outer loop
      vertex 4.38153 2.40877 45
      vertex 4.04508 2.93893 -45
      vertex 4.04508 2.93893 45
    endloop
  endfacet
  facet normal 0.844328 0.535827 0
    outer loop
      vertex 4.04508 2.93893 -45
      vertex 4.38153 2.40877 45
      vertex 4.38153 2.40877 -45
    endloop
  endfacet
  facet normal 0.125322 0.992116 -0
    outer loop
      vertex 0.936906 4.91144 -45
      vertex 0.313952 4.99013 45
      vertex 0.936906 4.91144 45
    endloop
  endfacet
  facet normal 0.125322 0.992116 0
    outer loop
      vertex 0.313952 4.99013 45
      vertex 0.936906 4.91144 -45
      vertex 0.313952 4.99013 -45
    endloop
  endfacet
  facet normal 0.587779 0.809022 -0
    outer loop
      vertex 3.18712 3.85257 -45
      vertex 2.67913 4.22164 45
      vertex 3.18712 3.85257 45
    endloop
  endfacet
  facet normal 0.587779 0.809022 0
    outer loop
      vertex 2.67913 4.22164 45
      vertex 3.18712 3.85257 -45
      vertex 2.67913 4.22164 -45
    endloop
  endfacet
  facet normal -0.904828 0.425778 0
    outer loop
      vertex -4.64888 1.84062 -45
      vertex -4.38153 2.40877 45
      vertex -4.38153 2.40877 -45
    endloop
  endfacet
  facet normal -0.904828 0.425778 0
    outer loop
      vertex -4.38153 2.40877 45
      vertex -4.64888 1.84062 -45
      vertex -4.64888 1.84062 45
    endloop
  endfacet
  facet normal -0.98229 0.187369 0
    outer loop
      vertex -4.96057 0.626666 -45
      vertex -4.84292 1.24345 45
      vertex -4.84292 1.24345 -45
    endloop
  endfacet
  facet normal -0.98229 0.187369 0
    outer loop
      vertex -4.84292 1.24345 45
      vertex -4.96057 0.626666 -45
      vertex -4.96057 0.626666 45
    endloop
  endfacet
  facet normal 0 0 1
    outer loop
      vertex 4.25 0 45
      vertex 5 0 45
      vertex 4.96057 0.626666 45
    endloop
  endfacet
  facet normal 0 0 1
    outer loop
      vertex 4.21649 0.532666 45
      vertex 4.96057 0.626666 45
      vertex 4.84292 1.24345 45
    endloop
  endfacet
  facet normal 0 0 1
    outer loop
      vertex 5 0 45
      vertex 4.25 0 45
      vertex 4.96057 -0.626666 45
    endloop
  endfacet
  facet normal 0 0 1
    outer loop
      vertex 4.11648 1.05693 45
      vertex 4.84292 1.24345 45
      vertex 4.64888 1.84062 45
    endloop
  endfacet
  facet normal -0 0 1
    outer loop
      vertex 4.21649 -0.532666 45
      vertex 4.96057 -0.626666 45
      vertex 4.25 0 45
    endloop
  endfacet
  facet normal 0 0 1
    outer loop
      vertex 3.95155 1.56453 45
      vertex 4.64888 1.84062 45
      vertex 4.38153 2.40877 45
    endloop
  endfacet
  facet normal 0 0 1
    outer loop
      vertex 4.96057 -0.626666 45
      vertex 4.21649 -0.532666 45
      vertex 4.84292 -1.24345 45
    endloop
  endfacet
  facet normal -0 0 1
    outer loop
      vertex 4.11648 -1.05693 45
      vertex 4.84292 -1.24345 45
      vertex 4.21649 -0.532666 45
    endloop
  endfacet
  facet normal 0 0 1
    outer loop
      vertex 4.96057 0.626666 45
      vertex 4.21649 0.532666 45
      vertex 4.25 0 45
    endloop
  endfacet
  facet normal 0 0 1
    outer loop
      vertex 4.84292 1.24345 45
      vertex 4.11648 1.05693 45
      vertex 4.21649 0.532666 45
    endloop
  endfacet
  facet normal 0 0 1
    outer loop
      vertex 3.7243 2.04745 45
      vertex 4.38153 2.40877 45
      vertex 4.04508 2.93893 45
    endloop
  endfacet
  facet normal 0 0 1
    outer loop
      vertex 4.64888 1.84062 45
      vertex 3.95155 1.56453 45
      vertex 4.11648 1.05693 45
    endloop
  endfacet
  facet normal 0 0 1
    outer loop
      vertex 4.38153 2.40877 45
      vertex 3.7243 2.04745 45
      vertex 3.95155 1.56453 45
    endloop
  endfacet
  facet normal 0 0 1
    outer loop
      vertex 3.43832 2.49809 45
      vertex 4.04508 2.93893 45
      vertex 3.64484 3.42274 45
    endloop
  endfacet
  facet normal 0 0 1
    outer loop
      vertex 4.04508 2.93893 45
      vertex 3.43832 2.49809 45
      vertex 3.7243 2.04745 45
    endloop
  endfacet
  facet normal 0 0 1
    outer loop
      vertex 3.09812 2.90932 45
      vertex 3.64484 3.42274 45
      vertex 3.18712 3.85257 45
    endloop
  endfacet
  facet normal 0 0 1
    outer loop
      vertex 3.64484 3.42274 45
      vertex 3.09812 2.90932 45
      vertex 3.43832 2.49809 45
    endloop
  endfacet
  facet normal 0 0 1
    outer loop
      vertex 3.18712 3.85257 45
      vertex 2.70905 3.27468 45
      vertex 3.09812 2.90932 45
    endloop
  endfacet
  facet normal 0 0 1
    outer loop
      vertex 2.67913 4.22164 45
      vertex 2.70905 3.27468 45
      vertex 3.18712 3.85257 45
    endloop
  endfacet
  facet normal 0 0 1
    outer loop
      vertex 2.67913 4.22164 45
      vertex 2.27726 3.58839 45
      vertex 2.70905 3.27468 45
    endloop
  endfacet
  facet normal 0 0 1
    outer loop
      vertex 2.1289 4.52413 45
      vertex 2.27726 3.58839 45
      vertex 2.67913 4.22164 45
    endloop
  endfacet
  facet normal 0 0 1
    outer loop
      vertex 2.1289 4.52413 45
      vertex 1.80956 3.84551 45
      vertex 2.27726 3.58839 45
    endloop
  endfacet
  facet normal 0 0 1
    outer loop
      vertex 1.54508 4.75528 45
      vertex 1.80956 3.84551 45
      vertex 2.1289 4.52413 45
    endloop
  endfacet
  facet normal 0 0 1
    outer loop
      vertex 1.54508 4.75528 45
      vertex 1.31332 4.04199 45
      vertex 1.80956 3.84551 45
    endloop
  endfacet
  facet normal 0 0 1
    outer loop
      vertex 0.936906 4.91144 45
      vertex 1.31332 4.04199 45
      vertex 1.54508 4.75528 45
    endloop
  endfacet
  facet normal 0 0 1
    outer loop
      vertex 0.936906 4.91144 45
      vertex 0.796371 4.17472 45
      vertex 1.31332 4.04199 45
    endloop
  endfacet
  facet normal 0 0 1
    outer loop
      vertex 0.313952 4.99013 45
      vertex 0.796371 4.17472 45
      vertex 0.936906 4.91144 45
    endloop
  endfacet
  facet normal 0 0 1
    outer loop
      vertex 0.313952 4.99013 45
      vertex 0.266859 4.24161 45
      vertex 0.796371 4.17472 45
    endloop
  endfacet
  facet normal 0 0 1
    outer loop
      vertex 0.313952 4.99013 45
      vertex -0.266859 4.24161 45
      vertex 0.266859 4.24161 45
    endloop
  endfacet
  facet normal -0 0 1
    outer loop
      vertex -0.313952 4.99013 45
      vertex -0.266859 4.24161 45
      vertex 0.313952 4.99013 45
    endloop
  endfacet
  facet normal 0 0 1
    outer loop
      vertex -0.313952 4.99013 45
      vertex -0.796371 4.17472 45
      vertex -0.266859 4.24161 45
    endloop
  endfacet
  facet normal -0 0 1
    outer loop
      vertex -0.936906 4.91144 45
      vertex -0.796371 4.17472 45
      vertex -0.313952 4.99013 45
    endloop
  endfacet
  facet normal 0 0 1
    outer loop
      vertex -0.936906 4.91144 45
      vertex -1.31332 4.04199 45
      vertex -0.796371 4.17472 45
    endloop
  endfacet
  facet normal -0 0 1
    outer loop
      vertex -1.54508 4.75528 45
      vertex -1.31332 4.04199 45
      vertex -0.936906 4.91144 45
    endloop
  endfacet
  facet normal 0 0 1
    outer loop
      vertex -1.54508 4.75528 45
      vertex -1.80956 3.84551 45
      vertex -1.31332 4.04199 45
    endloop
  endfacet
  facet normal -0 0 1
    outer loop
      vertex -2.1289 4.52413 45
      vertex -1.80956 3.84551 45
      vertex -1.54508 4.75528 45
    endloop
  endfacet
  facet normal 0 0 1
    outer loop
      vertex -2.1289 4.52413 45
      vertex -2.27726 3.58839 45
      vertex -1.80956 3.84551 45
    endloop
  endfacet
  facet normal -0 0 1
    outer loop
      vertex -2.67913 4.22164 45
      vertex -2.27726 3.58839 45
      vertex -2.1289 4.52413 45
    endloop
  endfacet
  facet normal 0 0 1
    outer loop
      vertex -2.67913 4.22164 45
      vertex -2.70905 3.27468 45
      vertex -2.27726 3.58839 45
    endloop
  endfacet
  facet normal -0 0 1
    outer loop
      vertex -3.18712 3.85257 45
      vertex -2.70905 3.27468 45
      vertex -2.67913 4.22164 45
    endloop
  endfacet
  facet normal 0 0 1
    outer loop
      vertex -2.70905 3.27468 45
      vertex -3.18712 3.85257 45
      vertex -3.09812 2.90932 45
    endloop
  endfacet
  facet normal -0 0 1
    outer loop
      vertex -3.64484 3.42274 45
      vertex -3.09812 2.90932 45
      vertex -3.18712 3.85257 45
    endloop
  endfacet
  facet normal 0 0 1
    outer loop
      vertex -3.09812 2.90932 45
      vertex -3.64484 3.42274 45
      vertex -3.43832 2.49809 45
    endloop
  endfacet
  facet normal -0 0 1
    outer loop
      vertex -4.04508 2.93893 45
      vertex -3.43832 2.49809 45
      vertex -3.64484 3.42274 45
    endloop
  endfacet
  facet normal 0 0 1
    outer loop
      vertex -3.43832 2.49809 45
      vertex -4.04508 2.93893 45
      vertex -3.7243 2.04745 45
    endloop
  endfacet
  facet normal -0 0 1
    outer loop
      vertex -4.38153 2.40877 45
      vertex -3.7243 2.04745 45
      vertex -4.04508 2.93893 45
    endloop
  endfacet
  facet normal 0 0 1
    outer loop
      vertex -3.7243 2.04745 45
      vertex -4.38153 2.40877 45
      vertex -3.95155 1.56453 45
    endloop
  endfacet
  facet normal -0 0 1
    outer loop
      vertex -4.64888 1.84062 45
      vertex -3.95155 1.56453 45
      vertex -4.38153 2.40877 45
    endloop
  endfacet
  facet normal -0 0 1
    outer loop
      vertex -4.84292 1.24345 45
      vertex -4.11648 1.05693 45
      vertex -4.64888 1.84062 45
    endloop
  endfacet
  facet normal 0 0 1
    outer loop
      vertex -3.95155 1.56453 45
      vertex -4.64888 1.84062 45
      vertex -4.11648 1.05693 45
    endloop
  endfacet
  facet normal 0 0 1
    outer loop
      vertex 4.84292 -1.24345 45
      vertex 4.11648 -1.05693 45
      vertex 4.64888 -1.84062 45
    endloop
  endfacet
  facet normal -0 0 1
    outer loop
      vertex 3.95155 -1.56453 45
      vertex 4.64888 -1.84062 45
      vertex 4.11648 -1.05693 45
    endloop
  endfacet
  facet normal 0 0 1
    outer loop
      vertex 4.64888 -1.84062 45
      vertex 3.95155 -1.56453 45
      vertex 4.38153 -2.40877 45
    endloop
  endfacet
  facet normal -0 0 1
    outer loop
      vertex 3.7243 -2.04745 45
      vertex 4.38153 -2.40877 45
      vertex 3.95155 -1.56453 45
    endloop
  endfacet
  facet normal 0 0 1
    outer loop
      vertex 4.38153 -2.40877 45
      vertex 3.7243 -2.04745 45
      vertex 4.04508 -2.93893 45
    endloop
  endfacet
  facet normal -0 0 1
    outer loop
      vertex 3.43832 -2.49809 45
      vertex 4.04508 -2.93893 45
      vertex 3.7243 -2.04745 45
    endloop
  endfacet
  facet normal 0 0 1
    outer loop
      vertex 4.04508 -2.93893 45
      vertex 3.43832 -2.49809 45
      vertex 3.64484 -3.42274 45
    endloop
  endfacet
  facet normal -0 0 1
    outer loop
      vertex 3.09812 -2.90932 45
      vertex 3.64484 -3.42274 45
      vertex 3.43832 -2.49809 45
    endloop
  endfacet
  facet normal 0 0 1
    outer loop
      vertex 3.64484 -3.42274 45
      vertex 3.09812 -2.90932 45
      vertex 3.18712 -3.85257 45
    endloop
  endfacet
  facet normal -0 0 1
    outer loop
      vertex 2.70905 -3.27468 45
      vertex 3.18712 -3.85257 45
      vertex 3.09812 -2.90932 45
    endloop
  endfacet
  facet normal 0 0 1
    outer loop
      vertex 2.70905 -3.27468 45
      vertex 2.67913 -4.22164 45
      vertex 3.18712 -3.85257 45
    endloop
  endfacet
  facet normal -0 0 1
    outer loop
      vertex 2.27726 -3.58839 45
      vertex 2.67913 -4.22164 45
      vertex 2.70905 -3.27468 45
    endloop
  endfacet
  facet normal 0 0 1
    outer loop
      vertex 2.27726 -3.58839 45
      vertex 2.1289 -4.52413 45
      vertex 2.67913 -4.22164 45
    endloop
  endfacet
  facet normal -0 0 1
    outer loop
      vertex 1.80956 -3.84551 45
      vertex 2.1289 -4.52413 45
      vertex 2.27726 -3.58839 45
    endloop
  endfacet
  facet normal 0 0 1
    outer loop
      vertex 1.80956 -3.84551 45
      vertex 1.54508 -4.75528 45
      vertex 2.1289 -4.52413 45
    endloop
  endfacet
  facet normal -0 0 1
    outer loop
      vertex 1.31332 -4.04199 45
      vertex 1.54508 -4.75528 45
      vertex 1.80956 -3.84551 45
    endloop
  endfacet
  facet normal 0 0 1
    outer loop
      vertex 1.31332 -4.04199 45
      vertex 0.936906 -4.91144 45
      vertex 1.54508 -4.75528 45
    endloop
  endfacet
  facet normal -0 0 1
    outer loop
      vertex 0.796371 -4.17472 45
      vertex 0.936906 -4.91144 45
      vertex 1.31332 -4.04199 45
    endloop
  endfacet
  facet normal 0 0 1
    outer loop
      vertex 0.796371 -4.17472 45
      vertex 0.313952 -4.99013 45
      vertex 0.936906 -4.91144 45
    endloop
  endfacet
  facet normal -0 0 1
    outer loop
      vertex 0.266859 -4.24161 45
      vertex 0.313952 -4.99013 45
      vertex 0.796371 -4.17472 45
    endloop
  endfacet
  facet normal -0 0 1
    outer loop
      vertex -0.266859 -4.24161 45
      vertex 0.313952 -4.99013 45
      vertex 0.266859 -4.24161 45
    endloop
  endfacet
  facet normal 0 0 1
    outer loop
      vertex -0.266859 -4.24161 45
      vertex -0.313952 -4.99013 45
      vertex 0.313952 -4.99013 45
    endloop
  endfacet
  facet normal 0 0 1
    outer loop
      vertex -0.796371 -4.17472 45
      vertex -0.313952 -4.99013 45
      vertex -0.266859 -4.24161 45
    endloop
  endfacet
  facet normal 0 0 1
    outer loop
      vertex -0.796371 -4.17472 45
      vertex -0.936906 -4.91144 45
      vertex -0.313952 -4.99013 45
    endloop
  endfacet
  facet normal 0 0 1
    outer loop
      vertex -1.31332 -4.04199 45
      vertex -0.936906 -4.91144 45
      vertex -0.796371 -4.17472 45
    endloop
  endfacet
  facet normal 0 0 1
    outer loop
      vertex -1.31332 -4.04199 45
      vertex -1.54508 -4.75528 45
      vertex -0.936906 -4.91144 45
    endloop
  endfacet
  facet normal 0 0 1
    outer loop
      vertex -1.80956 -3.84551 45
      vertex -1.54508 -4.75528 45
      vertex -1.31332 -4.04199 45
    endloop
  endfacet
  facet normal 0 0 1
    outer loop
      vertex -1.80956 -3.84551 45
      vertex -2.1289 -4.52413 45
      vertex -1.54508 -4.75528 45
    endloop
  endfacet
  facet normal 0 0 1
    outer loop
      vertex -2.27726 -3.58839 45
      vertex -2.1289 -4.52413 45
      vertex -1.80956 -3.84551 45
    endloop
  endfacet
  facet normal 0 0 1
    outer loop
      vertex -2.27726 -3.58839 45
      vertex -2.67913 -4.22164 45
      vertex -2.1289 -4.52413 45
    endloop
  endfacet
  facet normal 0 0 1
    outer loop
      vertex -2.70905 -3.27468 45
      vertex -2.67913 -4.22164 45
      vertex -2.27726 -3.58839 45
    endloop
  endfacet
  facet normal 0 0 1
    outer loop
      vertex -3.18712 -3.85257 45
      vertex -2.70905 -3.27468 45
      vertex -3.09812 -2.90932 45
    endloop
  endfacet
  facet normal 0 0 1
    outer loop
      vertex -2.70905 -3.27468 45
      vertex -3.18712 -3.85257 45
      vertex -2.67913 -4.22164 45
    endloop
  endfacet
  facet normal 0 0 1
    outer loop
      vertex -3.64484 -3.42274 45
      vertex -3.09812 -2.90932 45
      vertex -3.43832 -2.49809 45
    endloop
  endfacet
  facet normal 0 0 1
    outer loop
      vertex -3.09812 -2.90932 45
      vertex -3.64484 -3.42274 45
      vertex -3.18712 -3.85257 45
    endloop
  endfacet
  facet normal 0 0 1
    outer loop
      vertex -4.04508 -2.93893 45
      vertex -3.43832 -2.49809 45
      vertex -3.7243 -2.04745 45
    endloop
  endfacet
  facet normal 0 0 1
    outer loop
      vertex -4.38153 -2.40877 45
      vertex -3.7243 -2.04745 45
      vertex -3.95155 -1.56453 45
    endloop
  endfacet
  facet normal 0 0 1
    outer loop
      vertex -3.43832 -2.49809 45
      vertex -4.04508 -2.93893 45
      vertex -3.64484 -3.42274 45
    endloop
  endfacet
  facet normal 0 0 1
    outer loop
      vertex -4.64888 -1.84062 45
      vertex -3.95155 -1.56453 45
      vertex -4.11648 -1.05693 45
    endloop
  endfacet
  facet normal 0 0 1
    outer loop
      vertex -4.84292 -1.24345 45
      vertex -4.11648 -1.05693 45
      vertex -4.21649 -0.532666 45
    endloop
  endfacet
  facet normal 0 0 1
    outer loop
      vertex -3.7243 -2.04745 45
      vertex -4.38153 -2.40877 45
      vertex -4.04508 -2.93893 45
    endloop
  endfacet
  facet normal 0 0 1
    outer loop
      vertex -4.96057 -0.626666 45
      vertex -4.21649 -0.532666 45
      vertex -4.25 0 45
    endloop
  endfacet
  facet normal 0 0 1
    outer loop
      vertex -4.11648 1.05693 45
      vertex -4.84292 1.24345 45
      vertex -4.21649 0.532666 45
    endloop
  endfacet
  facet normal -0 0 1
    outer loop
      vertex -4.96057 0.626666 45
      vertex -4.21649 0.532666 45
      vertex -4.84292 1.24345 45
    endloop
  endfacet
  facet normal 0 0 1
    outer loop
      vertex -3.95155 -1.56453 45
      vertex -4.64888 -1.84062 45
      vertex -4.38153 -2.40877 45
    endloop
  endfacet
  facet normal 0 0 1
    outer loop
      vertex -4.21649 0.532666 45
      vertex -4.96057 0.626666 45
      vertex -4.25 0 45
    endloop
  endfacet
  facet normal 0 0 1
    outer loop
      vertex -4.11648 -1.05693 45
      vertex -4.84292 -1.24345 45
      vertex -4.64888 -1.84062 45
    endloop
  endfacet
  facet normal 0 0 1
    outer loop
      vertex -5 0 45
      vertex -4.25 0 45
      vertex -4.96057 0.626666 45
    endloop
  endfacet
  facet normal 0 0 1
    outer loop
      vertex -4.21649 -0.532666 45
      vertex -4.96057 -0.626666 45
      vertex -4.84292 -1.24345 45
    endloop
  endfacet
  facet normal 0 0 1
    outer loop
      vertex -4.25 0 45
      vertex -5 0 45
      vertex -4.96057 -0.626666 45
    endloop
  endfacet
  facet normal -0.481752 0.876308 0
    outer loop
      vertex -2.1289 4.52413 -45
      vertex -2.67913 4.22164 45
      vertex -2.1289 4.52413 45
    endloop
  endfacet
  facet normal -0.481752 0.876308 0
    outer loop
      vertex -2.67913 4.22164 45
      vertex -2.1289 4.52413 -45
      vertex -2.67913 4.22164 -45
    endloop
  endfacet
  facet normal -0.125322 0.992116 0
    outer loop
      vertex -0.313952 4.99013 -45
      vertex -0.936906 4.91144 45
      vertex -0.313952 4.99013 45
    endloop
  endfacet
  facet normal -0.125322 0.992116 0
    outer loop
      vertex -0.936906 4.91144 45
      vertex -0.313952 4.99013 -45
      vertex -0.936906 4.91144 -45
    endloop
  endfacet
  facet normal 0.98229 -0.187369 0
    outer loop
      vertex 4.84292 -1.24345 45
      vertex 4.96057 -0.626666 -45
      vertex 4.96057 -0.626666 45
    endloop
  endfacet
  facet normal 0.98229 -0.187369 0
    outer loop
      vertex 4.96057 -0.626666 -45
      vertex 4.84292 -1.24345 45
      vertex 4.84292 -1.24345 -45
    endloop
  endfacet
  facet normal -0.368124 -0.929777 0
    outer loop
      vertex -2.1289 -4.52413 -45
      vertex -1.54508 -4.75528 45
      vertex -2.1289 -4.52413 45
    endloop
  endfacet
  facet normal -0.368124 -0.929777 -0
    outer loop
      vertex -1.54508 -4.75528 45
      vertex -2.1289 -4.52413 -45
      vertex -1.54508 -4.75528 -45
    endloop
  endfacet
  facet normal 0 0 -1
    outer loop
      vertex 4.25 0 -45
      vertex 5 0 -45
      vertex 4.96057 -0.626666 -45
    endloop
  endfacet
  facet normal 0 0 -1
    outer loop
      vertex 4.21649 -0.532666 -45
      vertex 4.96057 -0.626666 -45
      vertex 4.84292 -1.24345 -45
    endloop
  endfacet
  facet normal 0 0 -1
    outer loop
      vertex 5 0 -45
      vertex 4.25 0 -45
      vertex 4.96057 0.626666 -45
    endloop
  endfacet
  facet normal 0 0 -1
    outer loop
      vertex 4.11648 -1.05693 -45
      vertex 4.84292 -1.24345 -45
      vertex 4.64888 -1.84062 -45
    endloop
  endfacet
  facet normal 0 0 -1
    outer loop
      vertex 4.21649 0.532666 -45
      vertex 4.96057 0.626666 -45
      vertex 4.25 0 -45
    endloop
  endfacet
  facet normal 0 0 -1
    outer loop
      vertex 3.95155 -1.56453 -45
      vertex 4.64888 -1.84062 -45
      vertex 4.38153 -2.40877 -45
    endloop
  endfacet
  facet normal -0 0 -1
    outer loop
      vertex 4.96057 0.626666 -45
      vertex 4.21649 0.532666 -45
      vertex 4.84292 1.24345 -45
    endloop
  endfacet
  facet normal 0 0 -1
    outer loop
      vertex 4.11648 1.05693 -45
      vertex 4.84292 1.24345 -45
      vertex 4.21649 0.532666 -45
    endloop
  endfacet
  facet normal 0 0 -1
    outer loop
      vertex 4.96057 -0.626666 -45
      vertex 4.21649 -0.532666 -45
      vertex 4.25 0 -45
    endloop
  endfacet
  facet normal 0 0 -1
    outer loop
      vertex 4.84292 -1.24345 -45
      vertex 4.11648 -1.05693 -45
      vertex 4.21649 -0.532666 -45
    endloop
  endfacet
  facet normal 0 0 -1
    outer loop
      vertex 3.7243 -2.04745 -45
      vertex 4.38153 -2.40877 -45
      vertex 4.04508 -2.93893 -45
    endloop
  endfacet
  facet normal 0 0 -1
    outer loop
      vertex 4.64888 -1.84062 -45
      vertex 3.95155 -1.56453 -45
      vertex 4.11648 -1.05693 -45
    endloop
  endfacet
  facet normal 0 0 -1
    outer loop
      vertex 4.38153 -2.40877 -45
      vertex 3.7243 -2.04745 -45
      vertex 3.95155 -1.56453 -45
    endloop
  endfacet
  facet normal 0 0 -1
    outer loop
      vertex 3.43832 -2.49809 -45
      vertex 4.04508 -2.93893 -45
      vertex 3.64484 -3.42274 -45
    endloop
  endfacet
  facet normal 0 0 -1
    outer loop
      vertex 4.04508 -2.93893 -45
      vertex 3.43832 -2.49809 -45
      vertex 3.7243 -2.04745 -45
    endloop
  endfacet
  facet normal 0 0 -1
    outer loop
      vertex 3.09812 -2.90932 -45
      vertex 3.64484 -3.42274 -45
      vertex 3.18712 -3.85257 -45
    endloop
  endfacet
  facet normal 0 0 -1
    outer loop
      vertex 3.64484 -3.42274 -45
      vertex 3.09812 -2.90932 -45
      vertex 3.43832 -2.49809 -45
    endloop
  endfacet
  facet normal 0 0 -1
    outer loop
      vertex 3.18712 -3.85257 -45
      vertex 2.70905 -3.27468 -45
      vertex 3.09812 -2.90932 -45
    endloop
  endfacet
  facet normal 0 0 -1
    outer loop
      vertex 2.67913 -4.22164 -45
      vertex 2.70905 -3.27468 -45
      vertex 3.18712 -3.85257 -45
    endloop
  endfacet
  facet normal 0 0 -1
    outer loop
      vertex 2.67913 -4.22164 -45
      vertex 2.27726 -3.58839 -45
      vertex 2.70905 -3.27468 -45
    endloop
  endfacet
  facet normal 0 0 -1
    outer loop
      vertex 2.1289 -4.52413 -45
      vertex 2.27726 -3.58839 -45
      vertex 2.67913 -4.22164 -45
    endloop
  endfacet
  facet normal 0 0 -1
    outer loop
      vertex 2.1289 -4.52413 -45
      vertex 1.80956 -3.84551 -45
      vertex 2.27726 -3.58839 -45
    endloop
  endfacet
  facet normal 0 0 -1
    outer loop
      vertex 1.54508 -4.75528 -45
      vertex 1.80956 -3.84551 -45
      vertex 2.1289 -4.52413 -45
    endloop
  endfacet
  facet normal 0 0 -1
    outer loop
      vertex 1.54508 -4.75528 -45
      vertex 1.31332 -4.04199 -45
      vertex 1.80956 -3.84551 -45
    endloop
  endfacet
  facet normal 0 0 -1
    outer loop
      vertex 0.936906 -4.91144 -45
      vertex 1.31332 -4.04199 -45
      vertex 1.54508 -4.75528 -45
    endloop
  endfacet
  facet normal 0 0 -1
    outer loop
      vertex 0.936906 -4.91144 -45
      vertex 0.796371 -4.17472 -45
      vertex 1.31332 -4.04199 -45
    endloop
  endfacet
  facet normal 0 0 -1
    outer loop
      vertex 0.313952 -4.99013 -45
      vertex 0.796371 -4.17472 -45
      vertex 0.936906 -4.91144 -45
    endloop
  endfacet
  facet normal 0 0 -1
    outer loop
      vertex 0.313952 -4.99013 -45
      vertex 0.266859 -4.24161 -45
      vertex 0.796371 -4.17472 -45
    endloop
  endfacet
  facet normal 0 0 -1
    outer loop
      vertex 0.313952 -4.99013 -45
      vertex -0.266859 -4.24161 -45
      vertex 0.266859 -4.24161 -45
    endloop
  endfacet
  facet normal 0 0 -1
    outer loop
      vertex -0.313952 -4.99013 -45
      vertex -0.266859 -4.24161 -45
      vertex 0.313952 -4.99013 -45
    endloop
  endfacet
  facet normal 0 0 -1
    outer loop
      vertex -0.313952 -4.99013 -45
      vertex -0.796371 -4.17472 -45
      vertex -0.266859 -4.24161 -45
    endloop
  endfacet
  facet normal 0 0 -1
    outer loop
      vertex -0.936906 -4.91144 -45
      vertex -0.796371 -4.17472 -45
      vertex -0.313952 -4.99013 -45
    endloop
  endfacet
  facet normal 0 0 -1
    outer loop
      vertex -0.936906 -4.91144 -45
      vertex -1.31332 -4.04199 -45
      vertex -0.796371 -4.17472 -45
    endloop
  endfacet
  facet normal 0 0 -1
    outer loop
      vertex -1.54508 -4.75528 -45
      vertex -1.31332 -4.04199 -45
      vertex -0.936906 -4.91144 -45
    endloop
  endfacet
  facet normal 0 0 -1
    outer loop
      vertex -1.54508 -4.75528 -45
      vertex -1.80956 -3.84551 -45
      vertex -1.31332 -4.04199 -45
    endloop
  endfacet
  facet normal 0 0 -1
    outer loop
      vertex -2.1289 -4.52413 -45
      vertex -1.80956 -3.84551 -45
      vertex -1.54508 -4.75528 -45
    endloop
  endfacet
  facet normal 0 0 -1
    outer loop
      vertex -2.1289 -4.52413 -45
      vertex -2.27726 -3.58839 -45
      vertex -1.80956 -3.84551 -45
    endloop
  endfacet
  facet normal 0 0 -1
    outer loop
      vertex -2.67913 -4.22164 -45
      vertex -2.27726 -3.58839 -45
      vertex -2.1289 -4.52413 -45
    endloop
  endfacet
  facet normal 0 0 -1
    outer loop
      vertex -2.67913 -4.22164 -45
      vertex -2.70905 -3.27468 -45
      vertex -2.27726 -3.58839 -45
    endloop
  endfacet
  facet normal 0 0 -1
    outer loop
      vertex -3.18712 -3.85257 -45
      vertex -2.70905 -3.27468 -45
      vertex -2.67913 -4.22164 -45
    endloop
  endfacet
  facet normal -0 0 -1
    outer loop
      vertex -2.70905 -3.27468 -45
      vertex -3.18712 -3.85257 -45
      vertex -3.09812 -2.90932 -45
    endloop
  endfacet
  facet normal 0 0 -1
    outer loop
      vertex -3.64484 -3.42274 -45
      vertex -3.09812 -2.90932 -45
      vertex -3.18712 -3.85257 -45
    endloop
  endfacet
  facet normal -0 0 -1
    outer loop
      vertex -3.09812 -2.90932 -45
      vertex -3.64484 -3.42274 -45
      vertex -3.43832 -2.49809 -45
    endloop
  endfacet
  facet normal 0 0 -1
    outer loop
      vertex -4.04508 -2.93893 -45
      vertex -3.43832 -2.49809 -45
      vertex -3.64484 -3.42274 -45
    endloop
  endfacet
  facet normal -0 0 -1
    outer loop
      vertex -3.43832 -2.49809 -45
      vertex -4.04508 -2.93893 -45
      vertex -3.7243 -2.04745 -45
    endloop
  endfacet
  facet normal 0 0 -1
    outer loop
      vertex -4.38153 -2.40877 -45
      vertex -3.7243 -2.04745 -45
      vertex -4.04508 -2.93893 -45
    endloop
  endfacet
  facet normal -0 0 -1
    outer loop
      vertex -3.7243 -2.04745 -45
      vertex -4.38153 -2.40877 -45
      vertex -3.95155 -1.56453 -45
    endloop
  endfacet
  facet normal 0 0 -1
    outer loop
      vertex -4.64888 -1.84062 -45
      vertex -3.95155 -1.56453 -45
      vertex -4.38153 -2.40877 -45
    endloop
  endfacet
  facet normal 0 0 -1
    outer loop
      vertex -4.84292 -1.24345 -45
      vertex -4.11648 -1.05693 -45
      vertex -4.64888 -1.84062 -45
    endloop
  endfacet
  facet normal -0 0 -1
    outer loop
      vertex -3.95155 -1.56453 -45
      vertex -4.64888 -1.84062 -45
      vertex -4.11648 -1.05693 -45
    endloop
  endfacet
  facet normal -0 0 -1
    outer loop
      vertex 4.84292 1.24345 -45
      vertex 4.11648 1.05693 -45
      vertex 4.64888 1.84062 -45
    endloop
  endfacet
  facet normal 0 0 -1
    outer loop
      vertex 3.95155 1.56453 -45
      vertex 4.64888 1.84062 -45
      vertex 4.11648 1.05693 -45
    endloop
  endfacet
  facet normal -0 0 -1
    outer loop
      vertex 4.64888 1.84062 -45
      vertex 3.95155 1.56453 -45
      vertex 4.38153 2.40877 -45
    endloop
  endfacet
  facet normal 0 0 -1
    outer loop
      vertex 3.7243 2.04745 -45
      vertex 4.38153 2.40877 -45
      vertex 3.95155 1.56453 -45
    endloop
  endfacet
  facet normal -0 0 -1
    outer loop
      vertex 4.38153 2.40877 -45
      vertex 3.7243 2.04745 -45
      vertex 4.04508 2.93893 -45
    endloop
  endfacet
  facet normal 0 0 -1
    outer loop
      vertex 3.43832 2.49809 -45
      vertex 4.04508 2.93893 -45
      vertex 3.7243 2.04745 -45
    endloop
  endfacet
  facet normal -0 0 -1
    outer loop
      vertex 4.04508 2.93893 -45
      vertex 3.43832 2.49809 -45
      vertex 3.64484 3.42274 -45
    endloop
  endfacet
  facet normal 0 0 -1
    outer loop
      vertex 3.09812 2.90932 -45
      vertex 3.64484 3.42274 -45
      vertex 3.43832 2.49809 -45
    endloop
  endfacet
  facet normal -0 0 -1
    outer loop
      vertex 3.64484 3.42274 -45
      vertex 3.09812 2.90932 -45
      vertex 3.18712 3.85257 -45
    endloop
  endfacet
  facet normal 0 0 -1
    outer loop
      vertex 2.70905 3.27468 -45
      vertex 3.18712 3.85257 -45
      vertex 3.09812 2.90932 -45
    endloop
  endfacet
  facet normal 0 0 -1
    outer loop
      vertex 2.70905 3.27468 -45
      vertex 2.67913 4.22164 -45
      vertex 3.18712 3.85257 -45
    endloop
  endfacet
  facet normal 0 0 -1
    outer loop
      vertex 2.27726 3.58839 -45
      vertex 2.67913 4.22164 -45
      vertex 2.70905 3.27468 -45
    endloop
  endfacet
  facet normal 0 0 -1
    outer loop
      vertex 2.27726 3.58839 -45
      vertex 2.1289 4.52413 -45
      vertex 2.67913 4.22164 -45
    endloop
  endfacet
  facet normal 0 0 -1
    outer loop
      vertex 1.80956 3.84551 -45
      vertex 2.1289 4.52413 -45
      vertex 2.27726 3.58839 -45
    endloop
  endfacet
  facet normal 0 0 -1
    outer loop
      vertex 1.80956 3.84551 -45
      vertex 1.54508 4.75528 -45
      vertex 2.1289 4.52413 -45
    endloop
  endfacet
  facet normal 0 0 -1
    outer loop
      vertex 1.31332 4.04199 -45
      vertex 1.54508 4.75528 -45
      vertex 1.80956 3.84551 -45
    endloop
  endfacet
  facet normal 0 0 -1
    outer loop
      vertex 1.31332 4.04199 -45
      vertex 0.936906 4.91144 -45
      vertex 1.54508 4.75528 -45
    endloop
  endfacet
  facet normal 0 0 -1
    outer loop
      vertex 0.796371 4.17472 -45
      vertex 0.936906 4.91144 -45
      vertex 1.31332 4.04199 -45
    endloop
  endfacet
  facet normal 0 0 -1
    outer loop
      vertex 0.796371 4.17472 -45
      vertex 0.313952 4.99013 -45
      vertex 0.936906 4.91144 -45
    endloop
  endfacet
  facet normal 0 0 -1
    outer loop
      vertex 0.266859 4.24161 -45
      vertex 0.313952 4.99013 -45
      vertex 0.796371 4.17472 -45
    endloop
  endfacet
  facet normal 0 0 -1
    outer loop
      vertex -0.266859 4.24161 -45
      vertex 0.313952 4.99013 -45
      vertex 0.266859 4.24161 -45
    endloop
  endfacet
  facet normal 0 0 -1
    outer loop
      vertex -0.266859 4.24161 -45
      vertex -0.313952 4.99013 -45
      vertex 0.313952 4.99013 -45
    endloop
  endfacet
  facet normal 0 0 -1
    outer loop
      vertex -0.796371 4.17472 -45
      vertex -0.313952 4.99013 -45
      vertex -0.266859 4.24161 -45
    endloop
  endfacet
  facet normal 0 0 -1
    outer loop
      vertex -0.796371 4.17472 -45
      vertex -0.936906 4.91144 -45
      vertex -0.313952 4.99013 -45
    endloop
  endfacet
  facet normal 0 0 -1
    outer loop
      vertex -1.31332 4.04199 -45
      vertex -0.936906 4.91144 -45
      vertex -0.796371 4.17472 -45
    endloop
  endfacet
  facet normal 0 0 -1
    outer loop
      vertex -1.31332 4.04199 -45
      vertex -1.54508 4.75528 -45
      vertex -0.936906 4.91144 -45
    endloop
  endfacet
  facet normal 0 0 -1
    outer loop
      vertex -1.80956 3.84551 -45
      vertex -1.54508 4.75528 -45
      vertex -1.31332 4.04199 -45
    endloop
  endfacet
  facet normal 0 0 -1
    outer loop
      vertex -1.80956 3.84551 -45
      vertex -2.1289 4.52413 -45
      vertex -1.54508 4.75528 -45
    endloop
  endfacet
  facet normal 0 0 -1
    outer loop
      vertex -2.27726 3.58839 -45
      vertex -2.1289 4.52413 -45
      vertex -1.80956 3.84551 -45
    endloop
  endfacet
  facet normal 0 0 -1
    outer loop
      vertex -2.27726 3.58839 -45
      vertex -2.67913 4.22164 -45
      vertex -2.1289 4.52413 -45
    endloop
  endfacet
  facet normal 0 0 -1
    outer loop
      vertex -2.70905 3.27468 -45
      vertex -2.67913 4.22164 -45
      vertex -2.27726 3.58839 -45
    endloop
  endfacet
  facet normal 0 0 -1
    outer loop
      vertex -3.18712 3.85257 -45
      vertex -2.70905 3.27468 -45
      vertex -3.09812 2.90932 -45
    endloop
  endfacet
  facet normal 0 0 -1
    outer loop
      vertex -2.70905 3.27468 -45
      vertex -3.18712 3.85257 -45
      vertex -2.67913 4.22164 -45
    endloop
  endfacet
  facet normal 0 0 -1
    outer loop
      vertex -3.64484 3.42274 -45
      vertex -3.09812 2.90932 -45
      vertex -3.43832 2.49809 -45
    endloop
  endfacet
  facet normal 0 0 -1
    outer loop
      vertex -3.09812 2.90932 -45
      vertex -3.64484 3.42274 -45
      vertex -3.18712 3.85257 -45
    endloop
  endfacet
  facet normal 0 0 -1
    outer loop
      vertex -4.04508 2.93893 -45
      vertex -3.43832 2.49809 -45
      vertex -3.7243 2.04745 -45
    endloop
  endfacet
  facet normal 0 0 -1
    outer loop
      vertex -4.38153 2.40877 -45
      vertex -3.7243 2.04745 -45
      vertex -3.95155 1.56453 -45
    endloop
  endfacet
  facet normal 0 0 -1
    outer loop
      vertex -3.43832 2.49809 -45
      vertex -4.04508 2.93893 -45
      vertex -3.64484 3.42274 -45
    endloop
  endfacet
  facet normal 0 0 -1
    outer loop
      vertex -4.64888 1.84062 -45
      vertex -3.95155 1.56453 -45
      vertex -4.11648 1.05693 -45
    endloop
  endfacet
  facet normal 0 0 -1
    outer loop
      vertex -4.84292 1.24345 -45
      vertex -4.11648 1.05693 -45
      vertex -4.21649 0.532666 -45
    endloop
  endfacet
  facet normal 0 0 -1
    outer loop
      vertex -3.7243 2.04745 -45
      vertex -4.38153 2.40877 -45
      vertex -4.04508 2.93893 -45
    endloop
  endfacet
  facet normal 0 0 -1
    outer loop
      vertex -4.96057 0.626666 -45
      vertex -4.21649 0.532666 -45
      vertex -4.25 0 -45
    endloop
  endfacet
  facet normal -0 0 -1
    outer loop
      vertex -4.11648 -1.05693 -45
      vertex -4.84292 -1.24345 -45
      vertex -4.21649 -0.532666 -45
    endloop
  endfacet
  facet normal 0 0 -1
    outer loop
      vertex -4.96057 -0.626666 -45
      vertex -4.21649 -0.532666 -45
      vertex -4.84292 -1.24345 -45
    endloop
  endfacet
  facet normal 0 0 -1
    outer loop
      vertex -3.95155 1.56453 -45
      vertex -4.64888 1.84062 -45
      vertex -4.38153 2.40877 -45
    endloop
  endfacet
  facet normal -0 0 -1
    outer loop
      vertex -4.21649 -0.532666 -45
      vertex -4.96057 -0.626666 -45
      vertex -4.25 0 -45
    endloop
  endfacet
  facet normal 0 0 -1
    outer loop
      vertex -4.11648 1.05693 -45
      vertex -4.84292 1.24345 -45
      vertex -4.64888 1.84062 -45
    endloop
  endfacet
  facet normal 0 0 -1
    outer loop
      vertex -5 0 -45
      vertex -4.25 0 -45
      vertex -4.96057 -0.626666 -45
    endloop
  endfacet
  facet normal 0 0 -1
    outer loop
      vertex -4.21649 0.532666 -45
      vertex -4.96057 0.626666 -45
      vertex -4.84292 1.24345 -45
    endloop
  endfacet
  facet normal 0 0 -1
    outer loop
      vertex -4.25 0 -45
      vertex -5 0 -45
      vertex -4.96057 0.626666 -45
    endloop
  endfacet
  facet normal 0.368124 -0.929777 0
    outer loop
      vertex 1.54508 -4.75528 -45
      vertex 2.1289 -4.52413 45
      vertex 1.54508 -4.75528 45
    endloop
  endfacet
  facet normal 0.368124 -0.929777 0
    outer loop
      vertex 2.1289 -4.52413 45
      vertex 1.54508 -4.75528 -45
      vertex 2.1289 -4.52413 -45
    endloop
  endfacet
  facet normal 0.904828 -0.425778 0
    outer loop
      vertex 4.38153 -2.40877 45
      vertex 4.64888 -1.84062 -45
      vertex 4.64888 -1.84062 45
    endloop
  endfacet
  facet normal 0.904828 -0.425778 0
    outer loop
      vertex 4.64888 -1.84062 -45
      vertex 4.38153 -2.40877 45
      vertex 4.38153 -2.40877 -45
    endloop
  endfacet
  facet normal 0.998026 -0.0627961 0
    outer loop
      vertex 4.96057 -0.626666 45
      vertex 5 0 -45
      vertex 5 0 45
    endloop
  endfacet
  facet normal 0.998026 -0.0627961 0
    outer loop
      vertex 5 0 -45
      vertex 4.96057 -0.626666 45
      vertex 4.96057 -0.626666 -45
    endloop
  endfacet
  facet normal -0.248701 -0.96858 0
    outer loop
      vertex -1.54508 -4.75528 -45
      vertex -0.936906 -4.91144 45
      vertex -1.54508 -4.75528 45
    endloop
  endfacet
  facet normal -0.248701 -0.96858 -0
    outer loop
      vertex -0.936906 -4.91144 45
      vertex -1.54508 -4.75528 -45
      vertex -0.936906 -4.91144 -45
    endloop
  endfacet
  facet normal -0.770515 -0.637422 0
    outer loop
      vertex -3.64484 -3.42274 -45
      vertex -4.04508 -2.93893 45
      vertex -4.04508 -2.93893 -45
    endloop
  endfacet
  facet normal -0.770515 -0.637422 0
    outer loop
      vertex -4.04508 -2.93893 45
      vertex -3.64484 -3.42274 -45
      vertex -3.64484 -3.42274 45
    endloop
  endfacet
  facet normal -0.951053 -0.309028 0
    outer loop
      vertex -4.64888 -1.84062 -45
      vertex -4.84292 -1.24345 45
      vertex -4.84292 -1.24345 -45
    endloop
  endfacet
  facet normal -0.951053 -0.309028 0
    outer loop
      vertex -4.84292 -1.24345 45
      vertex -4.64888 -1.84062 -45
      vertex -4.64888 -1.84062 45
    endloop
  endfacet
  facet normal 0.481752 -0.876308 0
    outer loop
      vertex 2.1289 -4.52413 -45
      vertex 2.67913 -4.22164 45
      vertex 2.1289 -4.52413 45
    endloop
  endfacet
  facet normal 0.481752 -0.876308 0
    outer loop
      vertex 2.67913 -4.22164 45
      vertex 2.1289 -4.52413 -45
      vertex 2.67913 -4.22164 -45
    endloop
  endfacet
  facet normal 0.248701 -0.96858 0
    outer loop
      vertex 0.936906 -4.91144 -45
      vertex 1.54508 -4.75528 45
      vertex 0.936906 -4.91144 45
    endloop
  endfacet
  facet normal 0.248701 -0.96858 0
    outer loop
      vertex 1.54508 -4.75528 45
      vertex 0.936906 -4.91144 -45
      vertex 1.54508 -4.75528 -45
    endloop
  endfacet
  facet normal 0.844328 -0.535827 0
    outer loop
      vertex 4.04508 -2.93893 45
      vertex 4.38153 -2.40877 -45
      vertex 4.38153 -2.40877 45
    endloop
  endfacet
  facet normal 0.844328 -0.535827 0
    outer loop
      vertex 4.38153 -2.40877 -45
      vertex 4.04508 -2.93893 45
      vertex 4.04508 -2.93893 -45
    endloop
  endfacet
  facet normal 0.770515 -0.637422 0
    outer loop
      vertex 3.64484 -3.42274 45
      vertex 4.04508 -2.93893 -45
      vertex 4.04508 -2.93893 45
    endloop
  endfacet
  facet normal 0.770515 -0.637422 0
    outer loop
      vertex 4.04508 -2.93893 -45
      vertex 3.64484 -3.42274 45
      vertex 3.64484 -3.42274 -45
    endloop
  endfacet
  facet normal -0.125322 -0.992116 0
    outer loop
      vertex -0.936906 -4.91144 -45
      vertex -0.313952 -4.99013 45
      vertex -0.936906 -4.91144 45
    endloop
  endfacet
  facet normal -0.125322 -0.992116 -0
    outer loop
      vertex -0.313952 -4.99013 45
      vertex -0.936906 -4.91144 -45
      vertex -0.313952 -4.99013 -45
    endloop
  endfacet
  facet normal -0.684549 -0.728967 0
    outer loop
      vertex -3.64484 -3.42274 -45
      vertex -3.18712 -3.85257 45
      vertex -3.64484 -3.42274 45
    endloop
  endfacet
  facet normal -0.684549 -0.728967 -0
    outer loop
      vertex -3.18712 -3.85257 45
      vertex -3.64484 -3.42274 -45
      vertex -3.18712 -3.85257 -45
    endloop
  endfacet
  facet normal -0.844328 -0.535827 0
    outer loop
      vertex -4.04508 -2.93893 -45
      vertex -4.38153 -2.40877 45
      vertex -4.38153 -2.40877 -45
    endloop
  endfacet
  facet normal -0.844328 -0.535827 0
    outer loop
      vertex -4.38153 -2.40877 45
      vertex -4.04508 -2.93893 -45
      vertex -4.04508 -2.93893 45
    endloop
  endfacet
  facet normal -0.904828 -0.425778 0
    outer loop
      vertex -4.38153 -2.40877 -45
      vertex -4.64888 -1.84062 45
      vertex -4.64888 -1.84062 -45
    endloop
  endfacet
  facet normal -0.904828 -0.425778 0
    outer loop
      vertex -4.64888 -1.84062 45
      vertex -4.38153 -2.40877 -45
      vertex -4.38153 -2.40877 45
    endloop
  endfacet
  facet normal -0.98229 -0.187369 0
    outer loop
      vertex -4.84292 -1.24345 -45
      vertex -4.96057 -0.626666 45
      vertex -4.96057 -0.626666 -45
    endloop
  endfacet
  facet normal -0.98229 -0.187369 0
    outer loop
      vertex -4.96057 -0.626666 45
      vertex -4.84292 -1.24345 -45
      vertex -4.84292 -1.24345 45
    endloop
  endfacet
  facet normal -0.998026 -0.0627961 0
    outer loop
      vertex -4.96057 -0.626666 -45
      vertex -5 0 45
      vertex -5 0 -45
    endloop
  endfacet
  facet normal -0.998026 -0.0627961 0
    outer loop
      vertex -5 0 45
      vertex -4.96057 -0.626666 -45
      vertex -4.96057 -0.626666 45
    endloop
  endfacet
  facet normal 0.587779 -0.809022 0
    outer loop
      vertex 2.67913 -4.22164 -45
      vertex 3.18712 -3.85257 45
      vertex 2.67913 -4.22164 45
    endloop
  endfacet
  facet normal 0.587779 -0.809022 0
    outer loop
      vertex 3.18712 -3.85257 45
      vertex 2.67913 -4.22164 -45
      vertex 3.18712 -3.85257 -45
    endloop
  endfacet
  facet normal -0.481752 -0.876308 0
    outer loop
      vertex -2.67913 -4.22164 -45
      vertex -2.1289 -4.52413 45
      vertex -2.67913 -4.22164 45
    endloop
  endfacet
  facet normal -0.481752 -0.876308 -0
    outer loop
      vertex -2.1289 -4.52413 45
      vertex -2.67913 -4.22164 -45
      vertex -2.1289 -4.52413 -45
    endloop
  endfacet
  facet normal -0.587779 -0.809022 0
    outer loop
      vertex -3.18712 -3.85257 -45
      vertex -2.67913 -4.22164 45
      vertex -3.18712 -3.85257 45
    endloop
  endfacet
  facet normal -0.587779 -0.809022 -0
    outer loop
      vertex -2.67913 -4.22164 45
      vertex -3.18712 -3.85257 -45
      vertex -2.67913 -4.22164 -45
    endloop
  endfacet
  facet normal 0.951056 -0.309018 0
    outer loop
      vertex -4.11648 1.05693 45
      vertex -3.95155 1.56453 -45
      vertex -3.95155 1.56453 45
    endloop
  endfacet
  facet normal 0.951056 -0.309018 0
    outer loop
      vertex -3.95155 1.56453 -45
      vertex -4.11648 1.05693 45
      vertex -4.11648 1.05693 -45
    endloop
  endfacet
  facet normal -0.844332 -0.53582 0
    outer loop
      vertex 3.7243 2.04745 -45
      vertex 3.43832 2.49809 45
      vertex 3.43832 2.49809 -45
    endloop
  endfacet
  facet normal -0.844332 -0.53582 0
    outer loop
      vertex 3.43832 2.49809 45
      vertex 3.7243 2.04745 -45
      vertex 3.7243 2.04745 45
    endloop
  endfacet
  facet normal -0.368132 -0.929773 0
    outer loop
      vertex 1.31332 4.04199 -45
      vertex 1.80956 3.84551 45
      vertex 1.31332 4.04199 45
    endloop
  endfacet
  facet normal -0.368132 -0.929773 -0
    outer loop
      vertex 1.80956 3.84551 45
      vertex 1.31332 4.04199 -45
      vertex 1.80956 3.84551 -45
    endloop
  endfacet
  facet normal 0.368132 -0.929773 0
    outer loop
      vertex -1.80956 3.84551 -45
      vertex -1.31332 4.04199 45
      vertex -1.80956 3.84551 45
    endloop
  endfacet
  facet normal 0.368132 -0.929773 0
    outer loop
      vertex -1.31332 4.04199 45
      vertex -1.80956 3.84551 -45
      vertex -1.31332 4.04199 -45
    endloop
  endfacet
  facet normal 0.904823 -0.425787 0
    outer loop
      vertex -3.95155 1.56453 45
      vertex -3.7243 2.04745 -45
      vertex -3.7243 2.04745 45
    endloop
  endfacet
  facet normal 0.904823 -0.425787 0
    outer loop
      vertex -3.7243 2.04745 -45
      vertex -3.95155 1.56453 45
      vertex -3.95155 1.56453 -45
    endloop
  endfacet
  facet normal -0.982287 0.187384 0
    outer loop
      vertex 4.11648 -1.05693 -45
      vertex 4.21649 -0.532666 45
      vertex 4.21649 -0.532666 -45
    endloop
  endfacet
  facet normal -0.982287 0.187384 0
    outer loop
      vertex 4.21649 -0.532666 45
      vertex 4.11648 -1.05693 -45
      vertex 4.11648 -1.05693 45
    endloop
  endfacet
  facet normal -0.587781 -0.80902 0
    outer loop
      vertex 2.27726 3.58839 -45
      vertex 2.70905 3.27468 45
      vertex 2.27726 3.58839 45
    endloop
  endfacet
  facet normal -0.587781 -0.80902 -0
    outer loop
      vertex 2.70905 3.27468 45
      vertex 2.27726 3.58839 -45
      vertex 2.70905 3.27468 -45
    endloop
  endfacet
  facet normal 0.770512 -0.637425 0
    outer loop
      vertex -3.43832 2.49809 45
      vertex -3.09812 2.90932 -45
      vertex -3.09812 2.90932 45
    endloop
  endfacet
  facet normal 0.770512 -0.637425 0
    outer loop
      vertex -3.09812 2.90932 -45
      vertex -3.43832 2.49809 45
      vertex -3.43832 2.49809 -45
    endloop
  endfacet
  facet normal 0.481753 -0.876307 0
    outer loop
      vertex -2.27726 3.58839 -45
      vertex -1.80956 3.84551 45
      vertex -2.27726 3.58839 45
    endloop
  endfacet
  facet normal 0.481753 -0.876307 0
    outer loop
      vertex -1.80956 3.84551 45
      vertex -2.27726 3.58839 -45
      vertex -1.80956 3.84551 -45
    endloop
  endfacet
  facet normal 0.125328 -0.992115 0
    outer loop
      vertex -0.796371 4.17472 -45
      vertex -0.266859 4.24161 45
      vertex -0.796371 4.17472 45
    endloop
  endfacet
  facet normal 0.125328 -0.992115 0
    outer loop
      vertex -0.266859 4.24161 45
      vertex -0.796371 4.17472 -45
      vertex -0.266859 4.24161 -45
    endloop
  endfacet
  facet normal -0.998027 -0.0627858 0
    outer loop
      vertex 4.25 0 -45
      vertex 4.21649 0.532666 45
      vertex 4.21649 0.532666 -45
    endloop
  endfacet
  facet normal -0.998027 -0.0627858 0
    outer loop
      vertex 4.21649 0.532666 45
      vertex 4.25 0 -45
      vertex 4.25 0 45
    endloop
  endfacet
  facet normal -0.951056 0.309018 0
    outer loop
      vertex 3.95155 -1.56453 -45
      vertex 4.11648 -1.05693 45
      vertex 4.11648 -1.05693 -45
    endloop
  endfacet
  facet normal -0.951056 0.309018 0
    outer loop
      vertex 4.11648 -1.05693 45
      vertex 3.95155 -1.56453 -45
      vertex 3.95155 -1.56453 45
    endloop
  endfacet
  facet normal -0.587781 0.80902 0
    outer loop
      vertex 2.70905 -3.27468 -45
      vertex 2.27726 -3.58839 45
      vertex 2.70905 -3.27468 45
    endloop
  endfacet
  facet normal -0.587781 0.80902 0
    outer loop
      vertex 2.27726 -3.58839 45
      vertex 2.70905 -3.27468 -45
      vertex 2.27726 -3.58839 -45
    endloop
  endfacet
  facet normal -0.684546 -0.72897 0
    outer loop
      vertex 2.70905 3.27468 -45
      vertex 3.09812 2.90932 45
      vertex 2.70905 3.27468 45
    endloop
  endfacet
  facet normal -0.684546 -0.72897 -0
    outer loop
      vertex 3.09812 2.90932 45
      vertex 2.70905 3.27468 -45
      vertex 3.09812 2.90932 -45
    endloop
  endfacet
  facet normal 0 -1 0
    outer loop
      vertex -0.266859 4.24161 -45
      vertex 0.266859 4.24161 45
      vertex -0.266859 4.24161 45
    endloop
  endfacet
  facet normal 0 -1 -0
    outer loop
      vertex 0.266859 4.24161 45
      vertex -0.266859 4.24161 -45
      vertex 0.266859 4.24161 -45
    endloop
  endfacet
  facet normal -0.24869 -0.968583 0
    outer loop
      vertex 0.796371 4.17472 -45
      vertex 1.31332 4.04199 45
      vertex 0.796371 4.17472 45
    endloop
  endfacet
  facet normal -0.24869 -0.968583 -0
    outer loop
      vertex 1.31332 4.04199 45
      vertex 0.796371 4.17472 -45
      vertex 1.31332 4.04199 -45
    endloop
  endfacet
  facet normal -0.481753 -0.876307 0
    outer loop
      vertex 1.80956 3.84551 -45
      vertex 2.27726 3.58839 45
      vertex 1.80956 3.84551 45
    endloop
  endfacet
  facet normal -0.481753 -0.876307 -0
    outer loop
      vertex 2.27726 3.58839 45
      vertex 1.80956 3.84551 -45
      vertex 2.27726 3.58839 -45
    endloop
  endfacet
  facet normal 0.998027 -0.0627858 0
    outer loop
      vertex -4.25 0 45
      vertex -4.21649 0.532666 -45
      vertex -4.21649 0.532666 45
    endloop
  endfacet
  facet normal 0.998027 -0.0627858 0
    outer loop
      vertex -4.21649 0.532666 -45
      vertex -4.25 0 45
      vertex -4.25 0 -45
    endloop
  endfacet
  facet normal 0.844332 -0.53582 0
    outer loop
      vertex -3.7243 2.04745 45
      vertex -3.43832 2.49809 -45
      vertex -3.43832 2.49809 45
    endloop
  endfacet
  facet normal 0.844332 -0.53582 0
    outer loop
      vertex -3.43832 2.49809 -45
      vertex -3.7243 2.04745 45
      vertex -3.7243 2.04745 -45
    endloop
  endfacet
  facet normal 0.24869 -0.968583 0
    outer loop
      vertex -1.31332 4.04199 -45
      vertex -0.796371 4.17472 45
      vertex -1.31332 4.04199 45
    endloop
  endfacet
  facet normal 0.24869 -0.968583 0
    outer loop
      vertex -0.796371 4.17472 45
      vertex -1.31332 4.04199 -45
      vertex -0.796371 4.17472 -45
    endloop
  endfacet
  facet normal 0.587781 -0.80902 0
    outer loop
      vertex -2.70905 3.27468 -45
      vertex -2.27726 3.58839 45
      vertex -2.70905 3.27468 45
    endloop
  endfacet
  facet normal 0.587781 -0.80902 0
    outer loop
      vertex -2.27726 3.58839 45
      vertex -2.70905 3.27468 -45
      vertex -2.27726 3.58839 -45
    endloop
  endfacet
  facet normal 0.684546 -0.72897 0
    outer loop
      vertex -3.09812 2.90932 -45
      vertex -2.70905 3.27468 45
      vertex -3.09812 2.90932 45
    endloop
  endfacet
  facet normal 0.684546 -0.72897 0
    outer loop
      vertex -2.70905 3.27468 45
      vertex -3.09812 2.90932 -45
      vertex -2.70905 3.27468 -45
    endloop
  endfacet
  facet normal -0.998027 0.0627858 0
    outer loop
      vertex 4.21649 -0.532666 -45
      vertex 4.25 0 45
      vertex 4.25 0 -45
    endloop
  endfacet
  facet normal -0.998027 0.0627858 0
    outer loop
      vertex 4.25 0 45
      vertex 4.21649 -0.532666 -45
      vertex 4.21649 -0.532666 45
    endloop
  endfacet
  facet normal -0.844332 0.53582 0
    outer loop
      vertex 3.43832 -2.49809 -45
      vertex 3.7243 -2.04745 45
      vertex 3.7243 -2.04745 -45
    endloop
  endfacet
  facet normal -0.844332 0.53582 0
    outer loop
      vertex 3.7243 -2.04745 45
      vertex 3.43832 -2.49809 -45
      vertex 3.43832 -2.49809 45
    endloop
  endfacet
  facet normal -0.125328 0.992115 0
    outer loop
      vertex 0.796371 -4.17472 -45
      vertex 0.266859 -4.24161 45
      vertex 0.796371 -4.17472 45
    endloop
  endfacet
  facet normal -0.125328 0.992115 0
    outer loop
      vertex 0.266859 -4.24161 45
      vertex 0.796371 -4.17472 -45
      vertex 0.266859 -4.24161 -45
    endloop
  endfacet
  facet normal -0.684546 0.72897 0
    outer loop
      vertex 3.09812 -2.90932 -45
      vertex 2.70905 -3.27468 45
      vertex 3.09812 -2.90932 45
    endloop
  endfacet
  facet normal -0.684546 0.72897 0
    outer loop
      vertex 2.70905 -3.27468 45
      vertex 3.09812 -2.90932 -45
      vertex 2.70905 -3.27468 -45
    endloop
  endfacet
  facet normal -0.904823 -0.425787 0
    outer loop
      vertex 3.95155 1.56453 -45
      vertex 3.7243 2.04745 45
      vertex 3.7243 2.04745 -45
    endloop
  endfacet
  facet normal -0.904823 -0.425787 0
    outer loop
      vertex 3.7243 2.04745 45
      vertex 3.95155 1.56453 -45
      vertex 3.95155 1.56453 45
    endloop
  endfacet
  facet normal -0.951056 -0.309018 0
    outer loop
      vertex 4.11648 1.05693 -45
      vertex 3.95155 1.56453 45
      vertex 3.95155 1.56453 -45
    endloop
  endfacet
  facet normal -0.951056 -0.309018 0
    outer loop
      vertex 3.95155 1.56453 45
      vertex 4.11648 1.05693 -45
      vertex 4.11648 1.05693 45
    endloop
  endfacet
  facet normal -0.982287 -0.187384 0
    outer loop
      vertex 4.21649 0.532666 -45
      vertex 4.11648 1.05693 45
      vertex 4.11648 1.05693 -45
    endloop
  endfacet
  facet normal -0.982287 -0.187384 0
    outer loop
      vertex 4.11648 1.05693 45
      vertex 4.21649 0.532666 -45
      vertex 4.21649 0.532666 45
    endloop
  endfacet
  facet normal -0.770512 -0.637425 0
    outer loop
      vertex 3.43832 2.49809 -45
      vertex 3.09812 2.90932 45
      vertex 3.09812 2.90932 -45
    endloop
  endfacet
  facet normal -0.770512 -0.637425 0
    outer loop
      vertex 3.09812 2.90932 45
      vertex 3.43832 2.49809 -45
      vertex 3.43832 2.49809 45
    endloop
  endfacet
  facet normal -0.125328 -0.992115 0
    outer loop
      vertex 0.266859 4.24161 -45
      vertex 0.796371 4.17472 45
      vertex 0.266859 4.24161 45
    endloop
  endfacet
  facet normal -0.125328 -0.992115 -0
    outer loop
      vertex 0.796371 4.17472 45
      vertex 0.266859 4.24161 -45
      vertex 0.796371 4.17472 -45
    endloop
  endfacet
  facet normal 0.982287 -0.187384 0
    outer loop
      vertex -4.21649 0.532666 45
      vertex -4.11648 1.05693 -45
      vertex -4.11648 1.05693 45
    endloop
  endfacet
  facet normal 0.982287 -0.187384 0
    outer loop
      vertex -4.11648 1.05693 -45
      vertex -4.21649 0.532666 45
      vertex -4.21649 0.532666 -45
    endloop
  endfacet
  facet normal -0.904823 0.425787 0
    outer loop
      vertex 3.7243 -2.04745 -45
      vertex 3.95155 -1.56453 45
      vertex 3.95155 -1.56453 -45
    endloop
  endfacet
  facet normal -0.904823 0.425787 0
    outer loop
      vertex 3.95155 -1.56453 45
      vertex 3.7243 -2.04745 -45
      vertex 3.7243 -2.04745 45
    endloop
  endfacet
  facet normal 0.24869 0.968583 -0
    outer loop
      vertex -0.796371 -4.17472 -45
      vertex -1.31332 -4.04199 45
      vertex -0.796371 -4.17472 45
    endloop
  endfacet
  facet normal 0.24869 0.968583 0
    outer loop
      vertex -1.31332 -4.04199 45
      vertex -0.796371 -4.17472 -45
      vertex -1.31332 -4.04199 -45
    endloop
  endfacet
  facet normal 0.125328 0.992115 -0
    outer loop
      vertex -0.266859 -4.24161 -45
      vertex -0.796371 -4.17472 45
      vertex -0.266859 -4.24161 45
    endloop
  endfacet
  facet normal 0.125328 0.992115 0
    outer loop
      vertex -0.796371 -4.17472 45
      vertex -0.266859 -4.24161 -45
      vertex -0.796371 -4.17472 -45
    endloop
  endfacet
  facet normal 0.998027 0.0627858 0
    outer loop
      vertex -4.21649 -0.532666 45
      vertex -4.25 0 -45
      vertex -4.25 0 45
    endloop
  endfacet
  facet normal 0.998027 0.0627858 0
    outer loop
      vertex -4.25 0 -45
      vertex -4.21649 -0.532666 45
      vertex -4.21649 -0.532666 -45
    endloop
  endfacet
  facet normal 0.982287 0.187384 0
    outer loop
      vertex -4.11648 -1.05693 45
      vertex -4.21649 -0.532666 -45
      vertex -4.21649 -0.532666 45
    endloop
  endfacet
  facet normal 0.982287 0.187384 0
    outer loop
      vertex -4.21649 -0.532666 -45
      vertex -4.11648 -1.05693 45
      vertex -4.11648 -1.05693 -45
    endloop
  endfacet
  facet normal 0.844332 0.53582 0
    outer loop
      vertex -3.43832 -2.49809 45
      vertex -3.7243 -2.04745 -45
      vertex -3.7243 -2.04745 45
    endloop
  endfacet
  facet normal 0.844332 0.53582 0
    outer loop
      vertex -3.7243 -2.04745 -45
      vertex -3.43832 -2.49809 45
      vertex -3.43832 -2.49809 -45
    endloop
  endfacet
  facet normal 0.904823 0.425787 0
    outer loop
      vertex -3.7243 -2.04745 45
      vertex -3.95155 -1.56453 -45
      vertex -3.95155 -1.56453 45
    endloop
  endfacet
  facet normal 0.904823 0.425787 0
    outer loop
      vertex -3.95155 -1.56453 -45
      vertex -3.7243 -2.04745 45
      vertex -3.7243 -2.04745 -45
    endloop
  endfacet
  facet normal -0.24869 0.968583 0
    outer loop
      vertex 1.31332 -4.04199 -45
      vertex 0.796371 -4.17472 45
      vertex 1.31332 -4.04199 45
    endloop
  endfacet
  facet normal -0.24869 0.968583 0
    outer loop
      vertex 0.796371 -4.17472 45
      vertex 1.31332 -4.04199 -45
      vertex 0.796371 -4.17472 -45
    endloop
  endfacet
  facet normal -0.481753 0.876307 0
    outer loop
      vertex 2.27726 -3.58839 -45
      vertex 1.80956 -3.84551 45
      vertex 2.27726 -3.58839 45
    endloop
  endfacet
  facet normal -0.481753 0.876307 0
    outer loop
      vertex 1.80956 -3.84551 45
      vertex 2.27726 -3.58839 -45
      vertex 1.80956 -3.84551 -45
    endloop
  endfacet
  facet normal -0.368132 0.929773 0
    outer loop
      vertex 1.80956 -3.84551 -45
      vertex 1.31332 -4.04199 45
      vertex 1.80956 -3.84551 45
    endloop
  endfacet
  facet normal -0.368132 0.929773 0
    outer loop
      vertex 1.31332 -4.04199 45
      vertex 1.80956 -3.84551 -45
      vertex 1.31332 -4.04199 -45
    endloop
  endfacet
  facet normal 0.587781 0.80902 -0
    outer loop
      vertex -2.27726 -3.58839 -45
      vertex -2.70905 -3.27468 45
      vertex -2.27726 -3.58839 45
    endloop
  endfacet
  facet normal 0.587781 0.80902 0
    outer loop
      vertex -2.70905 -3.27468 45
      vertex -2.27726 -3.58839 -45
      vertex -2.70905 -3.27468 -45
    endloop
  endfacet
  facet normal 0 1 -0
    outer loop
      vertex 0.266859 -4.24161 -45
      vertex -0.266859 -4.24161 45
      vertex 0.266859 -4.24161 45
    endloop
  endfacet
  facet normal 0 1 0
    outer loop
      vertex -0.266859 -4.24161 45
      vertex 0.266859 -4.24161 -45
      vertex -0.266859 -4.24161 -45
    endloop
  endfacet
  facet normal 0.770512 0.637425 0
    outer loop
      vertex -3.09812 -2.90932 45
      vertex -3.43832 -2.49809 -45
      vertex -3.43832 -2.49809 45
    endloop
  endfacet
  facet normal 0.770512 0.637425 0
    outer loop
      vertex -3.43832 -2.49809 -45
      vertex -3.09812 -2.90932 45
      vertex -3.09812 -2.90932 -45
    endloop
  endfacet
  facet normal 0.684546 0.72897 -0
    outer loop
      vertex -2.70905 -3.27468 -45
      vertex -3.09812 -2.90932 45
      vertex -2.70905 -3.27468 45
    endloop
  endfacet
  facet normal 0.684546 0.72897 0
    outer loop
      vertex -3.09812 -2.90932 45
      vertex -2.70905 -3.27468 -45
      vertex -3.09812 -2.90932 -45
    endloop
  endfacet
  facet normal -0.770512 0.637425 0
    outer loop
      vertex 3.09812 -2.90932 -45
      vertex 3.43832 -2.49809 45
      vertex 3.43832 -2.49809 -45
    endloop
  endfacet
  facet normal -0.770512 0.637425 0
    outer loop
      vertex 3.43832 -2.49809 45
      vertex 3.09812 -2.90932 -45
      vertex 3.09812 -2.90932 45
    endloop
  endfacet
  facet normal 0.481753 0.876307 -0
    outer loop
      vertex -1.80956 -3.84551 -45
      vertex -2.27726 -3.58839 45
      vertex -1.80956 -3.84551 45
    endloop
  endfacet
  facet normal 0.481753 0.876307 0
    outer loop
      vertex -2.27726 -3.58839 45
      vertex -1.80956 -3.84551 -45
      vertex -2.27726 -3.58839 -45
    endloop
  endfacet
  facet normal 0.951056 0.309018 0
    outer loop
      vertex -3.95155 -1.56453 45
      vertex -4.11648 -1.05693 -45
      vertex -4.11648 -1.05693 45
    endloop
  endfacet
  facet normal 0.951056 0.309018 0
    outer loop
      vertex -4.11648 -1.05693 -45
      vertex -3.95155 -1.56453 45
      vertex -3.95155 -1.56453 -45
    endloop
  endfacet
  facet normal 0.368132 0.929773 -0
    outer loop
      vertex -1.31332 -4.04199 -45
      vertex -1.80956 -3.84551 45
      vertex -1.31332 -4.04199 45
    endloop
  endfacet
  facet normal 0.368132 0.929773 0
    outer loop
      vertex -1.80956 -3.84551 45
      vertex -1.31332 -4.04199 -45
      vertex -1.80956 -3.84551 -45
    endloop
  endfacet
endsolid OpenSCAD_Model
