solid OpenSCAD_Model
  facet normal 0.998028 0.0627774 0
    outer loop
      vertex 2.75 0 27
      vertex 2.72832 0.344666 -27
      vertex 2.72832 0.344666 27
    endloop
  endfacet
  facet normal 0.998028 0.0627774 0
    outer loop
      vertex 2.72832 0.344666 -27
      vertex 2.75 0 27
      vertex 2.75 0 -27
    endloop
  endfacet
  facet normal -0.998028 0.0627774 0
    outer loop
      vertex -2.75 0 -27
      vertex -2.72832 0.344666 27
      vertex -2.72832 0.344666 -27
    endloop
  endfacet
  facet normal -0.998028 0.0627774 0
    outer loop
      vertex -2.72832 0.344666 27
      vertex -2.75 0 -27
      vertex -2.75 0 27
    endloop
  endfacet
  facet normal 0 1 -0
    outer loop
      vertex 0.172673 2.74457 -27
      vertex -0.172673 2.74457 27
      vertex 0.172673 2.74457 27
    endloop
  endfacet
  facet normal 0 1 0
    outer loop
      vertex -0.172673 2.74457 27
      vertex 0.172673 2.74457 -27
      vertex -0.172673 2.74457 -27
    endloop
  endfacet
  facet normal 0 0 1
    outer loop
      vertex 2.72832 0.344666 27
      vertex 2.72832 -0.344666 27
      vertex 2.75 0 27
    endloop
  endfacet
  facet normal 0 0 1
    outer loop
      vertex 2.6636 0.683897 27
      vertex 2.72832 -0.344666 27
      vertex 2.72832 0.344666 27
    endloop
  endfacet
  facet normal 0 0 1
    outer loop
      vertex 2.6636 0.683897 27
      vertex 2.6636 -0.683897 27
      vertex 2.72832 -0.344666 27
    endloop
  endfacet
  facet normal 0 0 1
    outer loop
      vertex 2.55688 1.01234 27
      vertex 2.6636 -0.683897 27
      vertex 2.6636 0.683897 27
    endloop
  endfacet
  facet normal 0 0 1
    outer loop
      vertex 2.55688 1.01234 27
      vertex 2.55688 -1.01234 27
      vertex 2.6636 -0.683897 27
    endloop
  endfacet
  facet normal 0 0 1
    outer loop
      vertex 2.40984 1.32482 27
      vertex 2.55688 -1.01234 27
      vertex 2.55688 1.01234 27
    endloop
  endfacet
  facet normal 0 0 1
    outer loop
      vertex 2.40984 1.32482 27
      vertex 2.40984 -1.32482 27
      vertex 2.55688 -1.01234 27
    endloop
  endfacet
  facet normal 0 0 1
    outer loop
      vertex 2.2248 1.61641 27
      vertex 2.40984 -1.32482 27
      vertex 2.40984 1.32482 27
    endloop
  endfacet
  facet normal 0 0 1
    outer loop
      vertex 2.2248 1.61641 27
      vertex 2.2248 -1.61641 27
      vertex 2.40984 -1.32482 27
    endloop
  endfacet
  facet normal 0 0 1
    outer loop
      vertex 2.00466 1.8825 27
      vertex 2.2248 -1.61641 27
      vertex 2.2248 1.61641 27
    endloop
  endfacet
  facet normal 0 0 1
    outer loop
      vertex 2.00466 1.8825 27
      vertex 2.00466 -1.8825 27
      vertex 2.2248 -1.61641 27
    endloop
  endfacet
  facet normal 0 0 1
    outer loop
      vertex 1.75292 2.11891 27
      vertex 2.00466 -1.8825 27
      vertex 2.00466 1.8825 27
    endloop
  endfacet
  facet normal 0 0 1
    outer loop
      vertex 1.75292 2.11891 27
      vertex 1.75292 -2.11891 27
      vertex 2.00466 -1.8825 27
    endloop
  endfacet
  facet normal 0 0 1
    outer loop
      vertex 1.47352 2.3219 27
      vertex 1.75292 -2.11891 27
      vertex 1.75292 2.11891 27
    endloop
  endfacet
  facet normal 0 0 1
    outer loop
      vertex 1.47352 2.3219 27
      vertex 1.47352 -2.3219 27
      vertex 1.75292 -2.11891 27
    endloop
  endfacet
  facet normal 0 0 1
    outer loop
      vertex 1.17089 2.48827 27
      vertex 1.47352 -2.3219 27
      vertex 1.47352 2.3219 27
    endloop
  endfacet
  facet normal 0 0 1
    outer loop
      vertex 1.17089 2.48827 27
      vertex 1.17089 -2.48827 27
      vertex 1.47352 -2.3219 27
    endloop
  endfacet
  facet normal 0 0 1
    outer loop
      vertex 0.849796 2.61541 27
      vertex 1.17089 -2.48827 27
      vertex 1.17089 2.48827 27
    endloop
  endfacet
  facet normal 0 0 1
    outer loop
      vertex 0.849796 2.61541 27
      vertex 0.849796 -2.61541 27
      vertex 1.17089 -2.48827 27
    endloop
  endfacet
  facet normal 0 0 1
    outer loop
      vertex 0.515298 2.70129 27
      vertex 0.849796 -2.61541 27
      vertex 0.849796 2.61541 27
    endloop
  endfacet
  facet normal 0 0 1
    outer loop
      vertex 0.515298 2.70129 27
      vertex 0.515298 -2.70129 27
      vertex 0.849796 -2.61541 27
    endloop
  endfacet
  facet normal 0 0 1
    outer loop
      vertex 0.172673 2.74457 27
      vertex 0.515298 -2.70129 27
      vertex 0.515298 2.70129 27
    endloop
  endfacet
  facet normal 0 0 1
    outer loop
      vertex 0.172673 2.74457 27
      vertex 0.172673 -2.74457 27
      vertex 0.515298 -2.70129 27
    endloop
  endfacet
  facet normal -0 0 1
    outer loop
      vertex -0.172673 2.74457 27
      vertex 0.172673 -2.74457 27
      vertex 0.172673 2.74457 27
    endloop
  endfacet
  facet normal 0 0 1
    outer loop
      vertex -0.172673 2.74457 27
      vertex -0.172673 -2.74457 27
      vertex 0.172673 -2.74457 27
    endloop
  endfacet
  facet normal -0 0 1
    outer loop
      vertex -0.515298 2.70129 27
      vertex -0.172673 -2.74457 27
      vertex -0.172673 2.74457 27
    endloop
  endfacet
  facet normal 0 0 1
    outer loop
      vertex -0.515298 2.70129 27
      vertex -0.515298 -2.70129 27
      vertex -0.172673 -2.74457 27
    endloop
  endfacet
  facet normal -0 0 1
    outer loop
      vertex -0.849796 2.61541 27
      vertex -0.515298 -2.70129 27
      vertex -0.515298 2.70129 27
    endloop
  endfacet
  facet normal 0 0 1
    outer loop
      vertex -0.849796 2.61541 27
      vertex -0.849796 -2.61541 27
      vertex -0.515298 -2.70129 27
    endloop
  endfacet
  facet normal -0 0 1
    outer loop
      vertex -1.17089 2.48827 27
      vertex -0.849796 -2.61541 27
      vertex -0.849796 2.61541 27
    endloop
  endfacet
  facet normal 0 0 1
    outer loop
      vertex -1.17089 2.48827 27
      vertex -1.17089 -2.48827 27
      vertex -0.849796 -2.61541 27
    endloop
  endfacet
  facet normal -0 0 1
    outer loop
      vertex -1.47352 2.3219 27
      vertex -1.17089 -2.48827 27
      vertex -1.17089 2.48827 27
    endloop
  endfacet
  facet normal 0 0 1
    outer loop
      vertex -1.47352 2.3219 27
      vertex -1.47352 -2.3219 27
      vertex -1.17089 -2.48827 27
    endloop
  endfacet
  facet normal -0 0 1
    outer loop
      vertex -1.75292 2.11891 27
      vertex -1.47352 -2.3219 27
      vertex -1.47352 2.3219 27
    endloop
  endfacet
  facet normal 0 0 1
    outer loop
      vertex -1.75292 2.11891 27
      vertex -1.75292 -2.11891 27
      vertex -1.47352 -2.3219 27
    endloop
  endfacet
  facet normal -0 0 1
    outer loop
      vertex -2.00466 1.8825 27
      vertex -1.75292 -2.11891 27
      vertex -1.75292 2.11891 27
    endloop
  endfacet
  facet normal 0 0 1
    outer loop
      vertex -2.00466 1.8825 27
      vertex -2.00466 -1.8825 27
      vertex -1.75292 -2.11891 27
    endloop
  endfacet
  facet normal -0 0 1
    outer loop
      vertex -2.2248 1.61641 27
      vertex -2.00466 -1.8825 27
      vertex -2.00466 1.8825 27
    endloop
  endfacet
  facet normal 0 0 1
    outer loop
      vertex -2.2248 1.61641 27
      vertex -2.2248 -1.61641 27
      vertex -2.00466 -1.8825 27
    endloop
  endfacet
  facet normal -0 0 1
    outer loop
      vertex -2.40984 1.32482 27
      vertex -2.2248 -1.61641 27
      vertex -2.2248 1.61641 27
    endloop
  endfacet
  facet normal 0 0 1
    outer loop
      vertex -2.40984 1.32482 27
      vertex -2.40984 -1.32482 27
      vertex -2.2248 -1.61641 27
    endloop
  endfacet
  facet normal -0 0 1
    outer loop
      vertex -2.55688 1.01234 27
      vertex -2.40984 -1.32482 27
      vertex -2.40984 1.32482 27
    endloop
  endfacet
  facet normal 0 0 1
    outer loop
      vertex -2.55688 1.01234 27
      vertex -2.55688 -1.01234 27
      vertex -2.40984 -1.32482 27
    endloop
  endfacet
  facet normal -0 0 1
    outer loop
      vertex -2.6636 0.683897 27
      vertex -2.55688 -1.01234 27
      vertex -2.55688 1.01234 27
    endloop
  endfacet
  facet normal 0 0 1
    outer loop
      vertex -2.6636 0.683897 27
      vertex -2.6636 -0.683897 27
      vertex -2.55688 -1.01234 27
    endloop
  endfacet
  facet normal -0 0 1
    outer loop
      vertex -2.72832 0.344666 27
      vertex -2.6636 -0.683897 27
      vertex -2.6636 0.683897 27
    endloop
  endfacet
  facet normal 0 0 1
    outer loop
      vertex -2.72832 0.344666 27
      vertex -2.72832 -0.344666 27
      vertex -2.6636 -0.683897 27
    endloop
  endfacet
  facet normal 0 -0 1
    outer loop
      vertex -2.72832 -0.344666 27
      vertex -2.72832 0.344666 27
      vertex -2.75 0 27
    endloop
  endfacet
  facet normal 0.684563 -0.728954 0
    outer loop
      vertex 1.75292 -2.11891 -27
      vertex 2.00466 -1.8825 27
      vertex 1.75292 -2.11891 27
    endloop
  endfacet
  facet normal 0.684563 -0.728954 0
    outer loop
      vertex 2.00466 -1.8825 27
      vertex 1.75292 -2.11891 -27
      vertex 2.00466 -1.8825 -27
    endloop
  endfacet
  facet normal 0 0 -1
    outer loop
      vertex 2.72832 -0.344666 -27
      vertex 2.72832 0.344666 -27
      vertex 2.75 0 -27
    endloop
  endfacet
  facet normal 0 0 -1
    outer loop
      vertex 2.6636 -0.683897 -27
      vertex 2.72832 0.344666 -27
      vertex 2.72832 -0.344666 -27
    endloop
  endfacet
  facet normal 0 0 -1
    outer loop
      vertex 2.6636 -0.683897 -27
      vertex 2.6636 0.683897 -27
      vertex 2.72832 0.344666 -27
    endloop
  endfacet
  facet normal 0 0 -1
    outer loop
      vertex 2.55688 -1.01234 -27
      vertex 2.6636 0.683897 -27
      vertex 2.6636 -0.683897 -27
    endloop
  endfacet
  facet normal 0 0 -1
    outer loop
      vertex 2.55688 -1.01234 -27
      vertex 2.55688 1.01234 -27
      vertex 2.6636 0.683897 -27
    endloop
  endfacet
  facet normal 0 0 -1
    outer loop
      vertex 2.40984 -1.32482 -27
      vertex 2.55688 1.01234 -27
      vertex 2.55688 -1.01234 -27
    endloop
  endfacet
  facet normal 0 0 -1
    outer loop
      vertex 2.40984 -1.32482 -27
      vertex 2.40984 1.32482 -27
      vertex 2.55688 1.01234 -27
    endloop
  endfacet
  facet normal 0 0 -1
    outer loop
      vertex 2.2248 -1.61641 -27
      vertex 2.40984 1.32482 -27
      vertex 2.40984 -1.32482 -27
    endloop
  endfacet
  facet normal 0 0 -1
    outer loop
      vertex 2.2248 -1.61641 -27
      vertex 2.2248 1.61641 -27
      vertex 2.40984 1.32482 -27
    endloop
  endfacet
  facet normal 0 0 -1
    outer loop
      vertex 2.00466 -1.8825 -27
      vertex 2.2248 1.61641 -27
      vertex 2.2248 -1.61641 -27
    endloop
  endfacet
  facet normal 0 0 -1
    outer loop
      vertex 2.00466 -1.8825 -27
      vertex 2.00466 1.8825 -27
      vertex 2.2248 1.61641 -27
    endloop
  endfacet
  facet normal 0 0 -1
    outer loop
      vertex 1.75292 -2.11891 -27
      vertex 2.00466 1.8825 -27
      vertex 2.00466 -1.8825 -27
    endloop
  endfacet
  facet normal 0 0 -1
    outer loop
      vertex 1.75292 -2.11891 -27
      vertex 1.75292 2.11891 -27
      vertex 2.00466 1.8825 -27
    endloop
  endfacet
  facet normal 0 0 -1
    outer loop
      vertex 1.47352 -2.3219 -27
      vertex 1.75292 2.11891 -27
      vertex 1.75292 -2.11891 -27
    endloop
  endfacet
  facet normal 0 0 -1
    outer loop
      vertex 1.47352 -2.3219 -27
      vertex 1.47352 2.3219 -27
      vertex 1.75292 2.11891 -27
    endloop
  endfacet
  facet normal 0 0 -1
    outer loop
      vertex 1.17089 -2.48827 -27
      vertex 1.47352 2.3219 -27
      vertex 1.47352 -2.3219 -27
    endloop
  endfacet
  facet normal 0 0 -1
    outer loop
      vertex 1.17089 -2.48827 -27
      vertex 1.17089 2.48827 -27
      vertex 1.47352 2.3219 -27
    endloop
  endfacet
  facet normal 0 0 -1
    outer loop
      vertex 0.849796 -2.61541 -27
      vertex 1.17089 2.48827 -27
      vertex 1.17089 -2.48827 -27
    endloop
  endfacet
  facet normal 0 0 -1
    outer loop
      vertex 0.849796 -2.61541 -27
      vertex 0.849796 2.61541 -27
      vertex 1.17089 2.48827 -27
    endloop
  endfacet
  facet normal 0 0 -1
    outer loop
      vertex 0.515298 -2.70129 -27
      vertex 0.849796 2.61541 -27
      vertex 0.849796 -2.61541 -27
    endloop
  endfacet
  facet normal 0 0 -1
    outer loop
      vertex 0.515298 -2.70129 -27
      vertex 0.515298 2.70129 -27
      vertex 0.849796 2.61541 -27
    endloop
  endfacet
  facet normal 0 0 -1
    outer loop
      vertex 0.172673 -2.74457 -27
      vertex 0.515298 2.70129 -27
      vertex 0.515298 -2.70129 -27
    endloop
  endfacet
  facet normal 0 0 -1
    outer loop
      vertex 0.172673 -2.74457 -27
      vertex 0.172673 2.74457 -27
      vertex 0.515298 2.70129 -27
    endloop
  endfacet
  facet normal 0 0 -1
    outer loop
      vertex -0.172673 -2.74457 -27
      vertex 0.172673 2.74457 -27
      vertex 0.172673 -2.74457 -27
    endloop
  endfacet
  facet normal 0 0 -1
    outer loop
      vertex -0.172673 -2.74457 -27
      vertex -0.172673 2.74457 -27
      vertex 0.172673 2.74457 -27
    endloop
  endfacet
  facet normal 0 0 -1
    outer loop
      vertex -0.515298 -2.70129 -27
      vertex -0.172673 2.74457 -27
      vertex -0.172673 -2.74457 -27
    endloop
  endfacet
  facet normal 0 0 -1
    outer loop
      vertex -0.515298 -2.70129 -27
      vertex -0.515298 2.70129 -27
      vertex -0.172673 2.74457 -27
    endloop
  endfacet
  facet normal 0 0 -1
    outer loop
      vertex -0.849796 -2.61541 -27
      vertex -0.515298 2.70129 -27
      vertex -0.515298 -2.70129 -27
    endloop
  endfacet
  facet normal 0 0 -1
    outer loop
      vertex -0.849796 -2.61541 -27
      vertex -0.849796 2.61541 -27
      vertex -0.515298 2.70129 -27
    endloop
  endfacet
  facet normal 0 0 -1
    outer loop
      vertex -1.17089 -2.48827 -27
      vertex -0.849796 2.61541 -27
      vertex -0.849796 -2.61541 -27
    endloop
  endfacet
  facet normal 0 0 -1
    outer loop
      vertex -1.17089 -2.48827 -27
      vertex -1.17089 2.48827 -27
      vertex -0.849796 2.61541 -27
    endloop
  endfacet
  facet normal 0 0 -1
    outer loop
      vertex -1.47352 -2.3219 -27
      vertex -1.17089 2.48827 -27
      vertex -1.17089 -2.48827 -27
    endloop
  endfacet
  facet normal 0 0 -1
    outer loop
      vertex -1.47352 -2.3219 -27
      vertex -1.47352 2.3219 -27
      vertex -1.17089 2.48827 -27
    endloop
  endfacet
  facet normal 0 0 -1
    outer loop
      vertex -1.75292 -2.11891 -27
      vertex -1.47352 2.3219 -27
      vertex -1.47352 -2.3219 -27
    endloop
  endfacet
  facet normal 0 0 -1
    outer loop
      vertex -1.75292 -2.11891 -27
      vertex -1.75292 2.11891 -27
      vertex -1.47352 2.3219 -27
    endloop
  endfacet
  facet normal 0 0 -1
    outer loop
      vertex -2.00466 -1.8825 -27
      vertex -1.75292 2.11891 -27
      vertex -1.75292 -2.11891 -27
    endloop
  endfacet
  facet normal 0 0 -1
    outer loop
      vertex -2.00466 -1.8825 -27
      vertex -2.00466 1.8825 -27
      vertex -1.75292 2.11891 -27
    endloop
  endfacet
  facet normal 0 0 -1
    outer loop
      vertex -2.2248 -1.61641 -27
      vertex -2.00466 1.8825 -27
      vertex -2.00466 -1.8825 -27
    endloop
  endfacet
  facet normal 0 0 -1
    outer loop
      vertex -2.2248 -1.61641 -27
      vertex -2.2248 1.61641 -27
      vertex -2.00466 1.8825 -27
    endloop
  endfacet
  facet normal 0 0 -1
    outer loop
      vertex -2.40984 -1.32482 -27
      vertex -2.2248 1.61641 -27
      vertex -2.2248 -1.61641 -27
    endloop
  endfacet
  facet normal 0 0 -1
    outer loop
      vertex -2.40984 -1.32482 -27
      vertex -2.40984 1.32482 -27
      vertex -2.2248 1.61641 -27
    endloop
  endfacet
  facet normal 0 0 -1
    outer loop
      vertex -2.55688 -1.01234 -27
      vertex -2.40984 1.32482 -27
      vertex -2.40984 -1.32482 -27
    endloop
  endfacet
  facet normal 0 0 -1
    outer loop
      vertex -2.55688 -1.01234 -27
      vertex -2.55688 1.01234 -27
      vertex -2.40984 1.32482 -27
    endloop
  endfacet
  facet normal 0 0 -1
    outer loop
      vertex -2.6636 -0.683897 -27
      vertex -2.55688 1.01234 -27
      vertex -2.55688 -1.01234 -27
    endloop
  endfacet
  facet normal 0 0 -1
    outer loop
      vertex -2.6636 -0.683897 -27
      vertex -2.6636 0.683897 -27
      vertex -2.55688 1.01234 -27
    endloop
  endfacet
  facet normal 0 0 -1
    outer loop
      vertex -2.72832 -0.344666 -27
      vertex -2.6636 0.683897 -27
      vertex -2.6636 -0.683897 -27
    endloop
  endfacet
  facet normal 0 0 -1
    outer loop
      vertex -2.72832 -0.344666 -27
      vertex -2.72832 0.344666 -27
      vertex -2.6636 0.683897 -27
    endloop
  endfacet
  facet normal 0 -0 -1
    outer loop
      vertex -2.72832 0.344666 -27
      vertex -2.72832 -0.344666 -27
      vertex -2.75 0 -27
    endloop
  endfacet
  facet normal -0.684563 0.728954 0
    outer loop
      vertex -1.75292 2.11891 -27
      vertex -2.00466 1.8825 27
      vertex -1.75292 2.11891 27
    endloop
  endfacet
  facet normal -0.684563 0.728954 0
    outer loop
      vertex -2.00466 1.8825 27
      vertex -1.75292 2.11891 -27
      vertex -2.00466 1.8825 -27
    endloop
  endfacet
  facet normal -0.368149 0.929767 0
    outer loop
      vertex -0.849796 2.61541 -27
      vertex -1.17089 2.48827 27
      vertex -0.849796 2.61541 27
    endloop
  endfacet
  facet normal -0.368149 0.929767 0
    outer loop
      vertex -1.17089 2.48827 27
      vertex -0.849796 2.61541 -27
      vertex -1.17089 2.48827 -27
    endloop
  endfacet
  facet normal 0.904829 0.425775 0
    outer loop
      vertex 2.55688 1.01234 27
      vertex 2.40984 1.32482 -27
      vertex 2.40984 1.32482 27
    endloop
  endfacet
  facet normal 0.904829 0.425775 0
    outer loop
      vertex 2.40984 1.32482 -27
      vertex 2.55688 1.01234 27
      vertex 2.55688 1.01234 -27
    endloop
  endfacet
  facet normal 0.368149 0.929767 -0
    outer loop
      vertex 1.17089 2.48827 -27
      vertex 0.849796 2.61541 27
      vertex 1.17089 2.48827 27
    endloop
  endfacet
  facet normal 0.368149 0.929767 0
    outer loop
      vertex 0.849796 2.61541 27
      vertex 1.17089 2.48827 -27
      vertex 0.849796 2.61541 -27
    endloop
  endfacet
  facet normal 0.587774 0.809025 -0
    outer loop
      vertex 1.75292 2.11891 -27
      vertex 1.47352 2.3219 27
      vertex 1.75292 2.11891 27
    endloop
  endfacet
  facet normal 0.587774 0.809025 0
    outer loop
      vertex 1.47352 2.3219 27
      vertex 1.75292 2.11891 -27
      vertex 1.47352 2.3219 -27
    endloop
  endfacet
  facet normal -0.904829 0.425775 0
    outer loop
      vertex -2.55688 1.01234 -27
      vertex -2.40984 1.32482 27
      vertex -2.40984 1.32482 -27
    endloop
  endfacet
  facet normal -0.904829 0.425775 0
    outer loop
      vertex -2.40984 1.32482 27
      vertex -2.55688 1.01234 -27
      vertex -2.55688 1.01234 27
    endloop
  endfacet
  facet normal -0.770497 0.637443 0
    outer loop
      vertex -2.2248 1.61641 -27
      vertex -2.00466 1.8825 27
      vertex -2.00466 1.8825 -27
    endloop
  endfacet
  facet normal -0.770497 0.637443 0
    outer loop
      vertex -2.00466 1.8825 27
      vertex -2.2248 1.61641 -27
      vertex -2.2248 1.61641 27
    endloop
  endfacet
  facet normal -0.481749 0.876309 0
    outer loop
      vertex -1.17089 2.48827 -27
      vertex -1.47352 2.3219 27
      vertex -1.17089 2.48827 27
    endloop
  endfacet
  facet normal -0.481749 0.876309 0
    outer loop
      vertex -1.47352 2.3219 27
      vertex -1.17089 2.48827 -27
      vertex -1.47352 2.3219 -27
    endloop
  endfacet
  facet normal -0.248678 0.968586 0
    outer loop
      vertex -0.515298 2.70129 -27
      vertex -0.849796 2.61541 27
      vertex -0.515298 2.70129 27
    endloop
  endfacet
  facet normal -0.248678 0.968586 0
    outer loop
      vertex -0.849796 2.61541 27
      vertex -0.515298 2.70129 -27
      vertex -0.849796 2.61541 -27
    endloop
  endfacet
  facet normal 0.982283 -0.187404 0
    outer loop
      vertex 2.6636 -0.683897 27
      vertex 2.72832 -0.344666 -27
      vertex 2.72832 -0.344666 27
    endloop
  endfacet
  facet normal 0.982283 -0.187404 0
    outer loop
      vertex 2.72832 -0.344666 -27
      vertex 2.6636 -0.683897 27
      vertex 2.6636 -0.683897 -27
    endloop
  endfacet
  facet normal 0.125323 -0.992116 0
    outer loop
      vertex 0.172673 -2.74457 -27
      vertex 0.515298 -2.70129 27
      vertex 0.172673 -2.74457 27
    endloop
  endfacet
  facet normal 0.125323 -0.992116 0
    outer loop
      vertex 0.515298 -2.70129 27
      vertex 0.172673 -2.74457 -27
      vertex 0.515298 -2.70129 -27
    endloop
  endfacet
  facet normal 0.368149 -0.929767 0
    outer loop
      vertex 0.849796 -2.61541 -27
      vertex 1.17089 -2.48827 27
      vertex 0.849796 -2.61541 27
    endloop
  endfacet
  facet normal 0.368149 -0.929767 0
    outer loop
      vertex 1.17089 -2.48827 27
      vertex 0.849796 -2.61541 -27
      vertex 1.17089 -2.48827 -27
    endloop
  endfacet
  facet normal 0.982283 0.187404 0
    outer loop
      vertex 2.72832 0.344666 27
      vertex 2.6636 0.683897 -27
      vertex 2.6636 0.683897 27
    endloop
  endfacet
  facet normal 0.982283 0.187404 0
    outer loop
      vertex 2.6636 0.683897 -27
      vertex 2.72832 0.344666 27
      vertex 2.72832 0.344666 -27
    endloop
  endfacet
  facet normal 0.684563 0.728954 -0
    outer loop
      vertex 2.00466 1.8825 -27
      vertex 1.75292 2.11891 27
      vertex 2.00466 1.8825 27
    endloop
  endfacet
  facet normal 0.684563 0.728954 0
    outer loop
      vertex 1.75292 2.11891 27
      vertex 2.00466 1.8825 -27
      vertex 1.75292 2.11891 -27
    endloop
  endfacet
  facet normal 0.844339 0.535809 0
    outer loop
      vertex 2.40984 1.32482 27
      vertex 2.2248 1.61641 -27
      vertex 2.2248 1.61641 27
    endloop
  endfacet
  facet normal 0.844339 0.535809 0
    outer loop
      vertex 2.2248 1.61641 -27
      vertex 2.40984 1.32482 27
      vertex 2.40984 1.32482 -27
    endloop
  endfacet
  facet normal 0.248678 0.968586 -0
    outer loop
      vertex 0.849796 2.61541 -27
      vertex 0.515298 2.70129 27
      vertex 0.849796 2.61541 27
    endloop
  endfacet
  facet normal 0.248678 0.968586 0
    outer loop
      vertex 0.515298 2.70129 27
      vertex 0.849796 2.61541 -27
      vertex 0.515298 2.70129 -27
    endloop
  endfacet
  facet normal -0.951054 0.309023 0
    outer loop
      vertex -2.6636 0.683897 -27
      vertex -2.55688 1.01234 27
      vertex -2.55688 1.01234 -27
    endloop
  endfacet
  facet normal -0.951054 0.309023 0
    outer loop
      vertex -2.55688 1.01234 27
      vertex -2.6636 0.683897 -27
      vertex -2.6636 0.683897 27
    endloop
  endfacet
  facet normal -0.125323 0.992116 0
    outer loop
      vertex -0.172673 2.74457 -27
      vertex -0.515298 2.70129 27
      vertex -0.172673 2.74457 27
    endloop
  endfacet
  facet normal -0.125323 0.992116 0
    outer loop
      vertex -0.515298 2.70129 27
      vertex -0.172673 2.74457 -27
      vertex -0.515298 2.70129 -27
    endloop
  endfacet
  facet normal 0.998028 -0.0627774 0
    outer loop
      vertex 2.72832 -0.344666 27
      vertex 2.75 0 -27
      vertex 2.75 0 27
    endloop
  endfacet
  facet normal 0.998028 -0.0627774 0
    outer loop
      vertex 2.75 0 -27
      vertex 2.72832 -0.344666 27
      vertex 2.72832 -0.344666 -27
    endloop
  endfacet
  facet normal -0.684563 -0.728954 0
    outer loop
      vertex -2.00466 -1.8825 -27
      vertex -1.75292 -2.11891 27
      vertex -2.00466 -1.8825 27
    endloop
  endfacet
  facet normal -0.684563 -0.728954 -0
    outer loop
      vertex -1.75292 -2.11891 27
      vertex -2.00466 -1.8825 -27
      vertex -1.75292 -2.11891 -27
    endloop
  endfacet
  facet normal -0.904829 -0.425775 0
    outer loop
      vertex -2.40984 -1.32482 -27
      vertex -2.55688 -1.01234 27
      vertex -2.55688 -1.01234 -27
    endloop
  endfacet
  facet normal -0.904829 -0.425775 0
    outer loop
      vertex -2.55688 -1.01234 27
      vertex -2.40984 -1.32482 -27
      vertex -2.40984 -1.32482 27
    endloop
  endfacet
  facet normal -0.770497 -0.637443 0
    outer loop
      vertex -2.00466 -1.8825 -27
      vertex -2.2248 -1.61641 27
      vertex -2.2248 -1.61641 -27
    endloop
  endfacet
  facet normal -0.770497 -0.637443 0
    outer loop
      vertex -2.2248 -1.61641 27
      vertex -2.00466 -1.8825 -27
      vertex -2.00466 -1.8825 27
    endloop
  endfacet
  facet normal -0.998028 -0.0627774 0
    outer loop
      vertex -2.72832 -0.344666 -27
      vertex -2.75 0 27
      vertex -2.75 0 -27
    endloop
  endfacet
  facet normal -0.998028 -0.0627774 0
    outer loop
      vertex -2.75 0 27
      vertex -2.72832 -0.344666 -27
      vertex -2.72832 -0.344666 27
    endloop
  endfacet
  facet normal 0 -1 0
    outer loop
      vertex -0.172673 -2.74457 -27
      vertex 0.172673 -2.74457 27
      vertex -0.172673 -2.74457 27
    endloop
  endfacet
  facet normal 0 -1 -0
    outer loop
      vertex 0.172673 -2.74457 27
      vertex -0.172673 -2.74457 -27
      vertex 0.172673 -2.74457 -27
    endloop
  endfacet
  facet normal 0.481749 -0.876309 0
    outer loop
      vertex 1.17089 -2.48827 -27
      vertex 1.47352 -2.3219 27
      vertex 1.17089 -2.48827 27
    endloop
  endfacet
  facet normal 0.481749 -0.876309 0
    outer loop
      vertex 1.47352 -2.3219 27
      vertex 1.17089 -2.48827 -27
      vertex 1.47352 -2.3219 -27
    endloop
  endfacet
  facet normal 0.951054 0.309023 0
    outer loop
      vertex 2.6636 0.683897 27
      vertex 2.55688 1.01234 -27
      vertex 2.55688 1.01234 27
    endloop
  endfacet
  facet normal 0.951054 0.309023 0
    outer loop
      vertex 2.55688 1.01234 -27
      vertex 2.6636 0.683897 27
      vertex 2.6636 0.683897 -27
    endloop
  endfacet
  facet normal 0.770497 0.637443 0
    outer loop
      vertex 2.2248 1.61641 27
      vertex 2.00466 1.8825 -27
      vertex 2.00466 1.8825 27
    endloop
  endfacet
  facet normal 0.770497 0.637443 0
    outer loop
      vertex 2.00466 1.8825 -27
      vertex 2.2248 1.61641 27
      vertex 2.2248 1.61641 -27
    endloop
  endfacet
  facet normal 0.125323 0.992116 -0
    outer loop
      vertex 0.515298 2.70129 -27
      vertex 0.172673 2.74457 27
      vertex 0.515298 2.70129 27
    endloop
  endfacet
  facet normal 0.125323 0.992116 0
    outer loop
      vertex 0.172673 2.74457 27
      vertex 0.515298 2.70129 -27
      vertex 0.172673 2.74457 -27
    endloop
  endfacet
  facet normal 0.481749 0.876309 -0
    outer loop
      vertex 1.47352 2.3219 -27
      vertex 1.17089 2.48827 27
      vertex 1.47352 2.3219 27
    endloop
  endfacet
  facet normal 0.481749 0.876309 0
    outer loop
      vertex 1.17089 2.48827 27
      vertex 1.47352 2.3219 -27
      vertex 1.17089 2.48827 -27
    endloop
  endfacet
  facet normal -0.844339 0.535809 0
    outer loop
      vertex -2.40984 1.32482 -27
      vertex -2.2248 1.61641 27
      vertex -2.2248 1.61641 -27
    endloop
  endfacet
  facet normal -0.844339 0.535809 0
    outer loop
      vertex -2.2248 1.61641 27
      vertex -2.40984 1.32482 -27
      vertex -2.40984 1.32482 27
    endloop
  endfacet
  facet normal -0.982283 0.187404 0
    outer loop
      vertex -2.72832 0.344666 -27
      vertex -2.6636 0.683897 27
      vertex -2.6636 0.683897 -27
    endloop
  endfacet
  facet normal -0.982283 0.187404 0
    outer loop
      vertex -2.6636 0.683897 27
      vertex -2.72832 0.344666 -27
      vertex -2.72832 0.344666 27
    endloop
  endfacet
  facet normal -0.587774 0.809025 0
    outer loop
      vertex -1.47352 2.3219 -27
      vertex -1.75292 2.11891 27
      vertex -1.47352 2.3219 27
    endloop
  endfacet
  facet normal -0.587774 0.809025 0
    outer loop
      vertex -1.75292 2.11891 27
      vertex -1.47352 2.3219 -27
      vertex -1.75292 2.11891 -27
    endloop
  endfacet
  facet normal 0.904829 -0.425775 0
    outer loop
      vertex 2.40984 -1.32482 27
      vertex 2.55688 -1.01234 -27
      vertex 2.55688 -1.01234 27
    endloop
  endfacet
  facet normal 0.904829 -0.425775 0
    outer loop
      vertex 2.55688 -1.01234 -27
      vertex 2.40984 -1.32482 27
      vertex 2.40984 -1.32482 -27
    endloop
  endfacet
  facet normal 0.844339 -0.535809 0
    outer loop
      vertex 2.2248 -1.61641 27
      vertex 2.40984 -1.32482 -27
      vertex 2.40984 -1.32482 27
    endloop
  endfacet
  facet normal 0.844339 -0.535809 0
    outer loop
      vertex 2.40984 -1.32482 -27
      vertex 2.2248 -1.61641 27
      vertex 2.2248 -1.61641 -27
    endloop
  endfacet
  facet normal 0.770497 -0.637443 0
    outer loop
      vertex 2.00466 -1.8825 27
      vertex 2.2248 -1.61641 -27
      vertex 2.2248 -1.61641 27
    endloop
  endfacet
  facet normal 0.770497 -0.637443 0
    outer loop
      vertex 2.2248 -1.61641 -27
      vertex 2.00466 -1.8825 27
      vertex 2.00466 -1.8825 -27
    endloop
  endfacet
  facet normal -0.368149 -0.929767 0
    outer loop
      vertex -1.17089 -2.48827 -27
      vertex -0.849796 -2.61541 27
      vertex -1.17089 -2.48827 27
    endloop
  endfacet
  facet normal -0.368149 -0.929767 -0
    outer loop
      vertex -0.849796 -2.61541 27
      vertex -1.17089 -2.48827 -27
      vertex -0.849796 -2.61541 -27
    endloop
  endfacet
  facet normal -0.951054 -0.309023 0
    outer loop
      vertex -2.55688 -1.01234 -27
      vertex -2.6636 -0.683897 27
      vertex -2.6636 -0.683897 -27
    endloop
  endfacet
  facet normal -0.951054 -0.309023 0
    outer loop
      vertex -2.6636 -0.683897 27
      vertex -2.55688 -1.01234 -27
      vertex -2.55688 -1.01234 27
    endloop
  endfacet
  facet normal 0.248678 -0.968586 0
    outer loop
      vertex 0.515298 -2.70129 -27
      vertex 0.849796 -2.61541 27
      vertex 0.515298 -2.70129 27
    endloop
  endfacet
  facet normal 0.248678 -0.968586 0
    outer loop
      vertex 0.849796 -2.61541 27
      vertex 0.515298 -2.70129 -27
      vertex 0.849796 -2.61541 -27
    endloop
  endfacet
  facet normal 0.951054 -0.309023 0
    outer loop
      vertex 2.55688 -1.01234 27
      vertex 2.6636 -0.683897 -27
      vertex 2.6636 -0.683897 27
    endloop
  endfacet
  facet normal 0.951054 -0.309023 0
    outer loop
      vertex 2.6636 -0.683897 -27
      vertex 2.55688 -1.01234 27
      vertex 2.55688 -1.01234 -27
    endloop
  endfacet
  facet normal -0.125323 -0.992116 0
    outer loop
      vertex -0.515298 -2.70129 -27
      vertex -0.172673 -2.74457 27
      vertex -0.515298 -2.70129 27
    endloop
  endfacet
  facet normal -0.125323 -0.992116 -0
    outer loop
      vertex -0.172673 -2.74457 27
      vertex -0.515298 -2.70129 -27
      vertex -0.172673 -2.74457 -27
    endloop
  endfacet
  facet normal -0.844339 -0.535809 0
    outer loop
      vertex -2.2248 -1.61641 -27
      vertex -2.40984 -1.32482 27
      vertex -2.40984 -1.32482 -27
    endloop
  endfacet
  facet normal -0.844339 -0.535809 0
    outer loop
      vertex -2.40984 -1.32482 27
      vertex -2.2248 -1.61641 -27
      vertex -2.2248 -1.61641 27
    endloop
  endfacet
  facet normal -0.982283 -0.187404 0
    outer loop
      vertex -2.6636 -0.683897 -27
      vertex -2.72832 -0.344666 27
      vertex -2.72832 -0.344666 -27
    endloop
  endfacet
  facet normal -0.982283 -0.187404 0
    outer loop
      vertex -2.72832 -0.344666 27
      vertex -2.6636 -0.683897 -27
      vertex -2.6636 -0.683897 27
    endloop
  endfacet
  facet normal 0.587774 -0.809025 0
    outer loop
      vertex 1.47352 -2.3219 -27
      vertex 1.75292 -2.11891 27
      vertex 1.47352 -2.3219 27
    endloop
  endfacet
  facet normal 0.587774 -0.809025 0
    outer loop
      vertex 1.75292 -2.11891 27
      vertex 1.47352 -2.3219 -27
      vertex 1.75292 -2.11891 -27
    endloop
  endfacet
  facet normal -0.248678 -0.968586 0
    outer loop
      vertex -0.849796 -2.61541 -27
      vertex -0.515298 -2.70129 27
      vertex -0.849796 -2.61541 27
    endloop
  endfacet
  facet normal -0.248678 -0.968586 -0
    outer loop
      vertex -0.515298 -2.70129 27
      vertex -0.849796 -2.61541 -27
      vertex -0.515298 -2.70129 -27
    endloop
  endfacet
  facet normal -0.481749 -0.876309 0
    outer loop
      vertex -1.47352 -2.3219 -27
      vertex -1.17089 -2.48827 27
      vertex -1.47352 -2.3219 27
    endloop
  endfacet
  facet normal -0.481749 -0.876309 -0
    outer loop
      vertex -1.17089 -2.48827 27
      vertex -1.47352 -2.3219 -27
      vertex -1.17089 -2.48827 -27
    endloop
  endfacet
  facet normal -0.587774 -0.809025 0
    outer loop
      vertex -1.75292 -2.11891 -27
      vertex -1.47352 -2.3219 27
      vertex -1.75292 -2.11891 27
    endloop
  endfacet
  facet normal -0.587774 -0.809025 -0
    outer loop
      vertex -1.47352 -2.3219 27
      vertex -1.75292 -2.11891 -27
      vertex -1.47352 -2.3219 -27
    endloop
  endfacet
endsolid OpenSCAD_Model
