solid OpenSCAD_Model
  facet normal 0.90483 0.425772 0
    outer loop
      vertex 2.32444 0.920311 24
      vertex 2.19077 1.20438 -24
      vertex 2.19077 1.20438 24
    endloop
  endfacet
  facet normal 0.90483 0.425772 0
    outer loop
      vertex 2.19077 1.20438 -24
      vertex 2.32444 0.920311 24
      vertex 2.32444 0.920311 -24
    endloop
  endfacet
  facet normal 0.844321 0.535838 0
    outer loop
      vertex 2.19077 1.20438 24
      vertex 2.02254 1.46946 -24
      vertex 2.02254 1.46946 24
    endloop
  endfacet
  facet normal 0.844321 0.535838 0
    outer loop
      vertex 2.02254 1.46946 -24
      vertex 2.19077 1.20438 24
      vertex 2.19077 1.20438 -24
    endloop
  endfacet
  facet normal 0.368112 0.929781 -0
    outer loop
      vertex 1.06445 2.26207 -24
      vertex 0.772542 2.37764 24
      vertex 1.06445 2.26207 24
    endloop
  endfacet
  facet normal 0.368112 0.929781 0
    outer loop
      vertex 0.772542 2.37764 24
      vertex 1.06445 2.26207 -24
      vertex 0.772542 2.37764 -24
    endloop
  endfacet
  facet normal -0.368112 0.929781 0
    outer loop
      vertex -0.772542 2.37764 -24
      vertex -1.06445 2.26207 24
      vertex -0.772542 2.37764 24
    endloop
  endfacet
  facet normal -0.368112 0.929781 0
    outer loop
      vertex -1.06445 2.26207 24
      vertex -0.772542 2.37764 -24
      vertex -1.06445 2.26207 -24
    endloop
  endfacet
  facet normal -0.90483 0.425772 0
    outer loop
      vertex -2.32444 0.920311 -24
      vertex -2.19077 1.20438 24
      vertex -2.19077 1.20438 -24
    endloop
  endfacet
  facet normal -0.90483 0.425772 0
    outer loop
      vertex -2.19077 1.20438 24
      vertex -2.32444 0.920311 -24
      vertex -2.32444 0.920311 24
    endloop
  endfacet
  facet normal 0.998027 -0.0627802 0
    outer loop
      vertex 2.48029 -0.313333 24
      vertex 2.5 0 -24
      vertex 2.5 0 24
    endloop
  endfacet
  facet normal 0.998027 -0.0627802 0
    outer loop
      vertex 2.5 0 -24
      vertex 2.48029 -0.313333 24
      vertex 2.48029 -0.313333 -24
    endloop
  endfacet
  facet normal 0.684541 0.728975 -0
    outer loop
      vertex 1.82242 1.71137 -24
      vertex 1.59356 1.92628 24
      vertex 1.82242 1.71137 24
    endloop
  endfacet
  facet normal 0.684541 0.728975 0
    outer loop
      vertex 1.59356 1.92628 24
      vertex 1.82242 1.71137 -24
      vertex 1.59356 1.92628 -24
    endloop
  endfacet
  facet normal 0.125338 0.992114 -0
    outer loop
      vertex 0.468452 2.45572 -24
      vertex 0.156976 2.49507 24
      vertex 0.468452 2.45572 24
    endloop
  endfacet
  facet normal 0.125338 0.992114 0
    outer loop
      vertex 0.156976 2.49507 24
      vertex 0.468452 2.45572 -24
      vertex 0.156976 2.49507 -24
    endloop
  endfacet
  facet normal 0.481757 0.876305 -0
    outer loop
      vertex 1.33957 2.11082 -24
      vertex 1.06445 2.26207 24
      vertex 1.33957 2.11082 24
    endloop
  endfacet
  facet normal 0.481757 0.876305 0
    outer loop
      vertex 1.06445 2.26207 24
      vertex 1.33957 2.11082 -24
      vertex 1.06445 2.26207 -24
    endloop
  endfacet
  facet normal -0.998027 0.0627802 0
    outer loop
      vertex -2.5 0 -24
      vertex -2.48029 0.313333 24
      vertex -2.48029 0.313333 -24
    endloop
  endfacet
  facet normal -0.998027 0.0627802 0
    outer loop
      vertex -2.48029 0.313333 24
      vertex -2.5 0 -24
      vertex -2.5 0 24
    endloop
  endfacet
  facet normal -0.770522 0.637414 0
    outer loop
      vertex -2.02254 1.46946 -24
      vertex -1.82242 1.71137 24
      vertex -1.82242 1.71137 -24
    endloop
  endfacet
  facet normal -0.770522 0.637414 0
    outer loop
      vertex -1.82242 1.71137 24
      vertex -2.02254 1.46946 -24
      vertex -2.02254 1.46946 24
    endloop
  endfacet
  facet normal -0.125338 0.992114 0
    outer loop
      vertex -0.156976 2.49507 -24
      vertex -0.468452 2.45572 24
      vertex -0.156976 2.49507 24
    endloop
  endfacet
  facet normal -0.125338 0.992114 0
    outer loop
      vertex -0.468452 2.45572 24
      vertex -0.156976 2.49507 -24
      vertex -0.468452 2.45572 -24
    endloop
  endfacet
  facet normal -0.684541 0.728975 0
    outer loop
      vertex -1.59356 1.92628 -24
      vertex -1.82242 1.71137 24
      vertex -1.59356 1.92628 24
    endloop
  endfacet
  facet normal -0.684541 0.728975 0
    outer loop
      vertex -1.82242 1.71137 24
      vertex -1.59356 1.92628 -24
      vertex -1.82242 1.71137 -24
    endloop
  endfacet
  facet normal 0.90483 -0.425772 0
    outer loop
      vertex 2.19077 -1.20438 24
      vertex 2.32444 -0.920311 -24
      vertex 2.32444 -0.920311 24
    endloop
  endfacet
  facet normal 0.90483 -0.425772 0
    outer loop
      vertex 2.32444 -0.920311 -24
      vertex 2.19077 -1.20438 24
      vertex 2.19077 -1.20438 -24
    endloop
  endfacet
  facet normal -0.684541 -0.728975 0
    outer loop
      vertex -1.82242 -1.71137 -24
      vertex -1.59356 -1.92628 24
      vertex -1.82242 -1.71137 24
    endloop
  endfacet
  facet normal -0.684541 -0.728975 -0
    outer loop
      vertex -1.59356 -1.92628 24
      vertex -1.82242 -1.71137 -24
      vertex -1.59356 -1.92628 -24
    endloop
  endfacet
  facet normal -0.90483 -0.425772 0
    outer loop
      vertex -2.19077 -1.20438 -24
      vertex -2.32444 -0.920311 24
      vertex -2.32444 -0.920311 -24
    endloop
  endfacet
  facet normal -0.90483 -0.425772 0
    outer loop
      vertex -2.32444 -0.920311 24
      vertex -2.19077 -1.20438 -24
      vertex -2.19077 -1.20438 24
    endloop
  endfacet
  facet normal 0.481757 -0.876305 0
    outer loop
      vertex 1.06445 -2.26207 -24
      vertex 1.33957 -2.11082 24
      vertex 1.06445 -2.26207 24
    endloop
  endfacet
  facet normal 0.481757 -0.876305 0
    outer loop
      vertex 1.33957 -2.11082 24
      vertex 1.06445 -2.26207 -24
      vertex 1.33957 -2.11082 -24
    endloop
  endfacet
  facet normal 0.982287 0.187385 0
    outer loop
      vertex 2.48029 0.313333 24
      vertex 2.42146 0.621724 -24
      vertex 2.42146 0.621724 24
    endloop
  endfacet
  facet normal 0.982287 0.187385 0
    outer loop
      vertex 2.42146 0.621724 -24
      vertex 2.48029 0.313333 24
      vertex 2.48029 0.313333 -24
    endloop
  endfacet
  facet normal 0.951054 0.309026 0
    outer loop
      vertex 2.42146 0.621724 24
      vertex 2.32444 0.920311 -24
      vertex 2.32444 0.920311 24
    endloop
  endfacet
  facet normal 0.951054 0.309026 0
    outer loop
      vertex 2.32444 0.920311 -24
      vertex 2.42146 0.621724 24
      vertex 2.42146 0.621724 -24
    endloop
  endfacet
  facet normal 0.770522 0.637414 0
    outer loop
      vertex 2.02254 1.46946 24
      vertex 1.82242 1.71137 -24
      vertex 1.82242 1.71137 24
    endloop
  endfacet
  facet normal 0.770522 0.637414 0
    outer loop
      vertex 1.82242 1.71137 -24
      vertex 2.02254 1.46946 24
      vertex 2.02254 1.46946 -24
    endloop
  endfacet
  facet normal 0 1 -0
    outer loop
      vertex 0.156976 2.49507 -24
      vertex -0.156976 2.49507 24
      vertex 0.156976 2.49507 24
    endloop
  endfacet
  facet normal 0 1 0
    outer loop
      vertex -0.156976 2.49507 24
      vertex 0.156976 2.49507 -24
      vertex -0.156976 2.49507 -24
    endloop
  endfacet
  facet normal 0.248699 0.968581 -0
    outer loop
      vertex 0.772542 2.37764 -24
      vertex 0.468452 2.45572 24
      vertex 0.772542 2.37764 24
    endloop
  endfacet
  facet normal 0.248699 0.968581 0
    outer loop
      vertex 0.468452 2.45572 24
      vertex 0.772542 2.37764 -24
      vertex 0.468452 2.45572 -24
    endloop
  endfacet
  facet normal 0.587797 0.809009 -0
    outer loop
      vertex 1.59356 1.92628 -24
      vertex 1.33957 2.11082 24
      vertex 1.59356 1.92628 24
    endloop
  endfacet
  facet normal 0.587797 0.809009 0
    outer loop
      vertex 1.33957 2.11082 24
      vertex 1.59356 1.92628 -24
      vertex 1.33957 2.11082 -24
    endloop
  endfacet
  facet normal 0 0 1
    outer loop
      vertex 2 0 24
      vertex 2.5 0 24
      vertex 2.48029 0.313333 24
    endloop
  endfacet
  facet normal 0 0 1
    outer loop
      vertex 1.98423 0.250666 24
      vertex 2.48029 0.313333 24
      vertex 2.42146 0.621724 24
    endloop
  endfacet
  facet normal 0 0 1
    outer loop
      vertex 2.5 0 24
      vertex 2 0 24
      vertex 2.48029 -0.313333 24
    endloop
  endfacet
  facet normal 0 0 1
    outer loop
      vertex 1.93717 0.497379 24
      vertex 2.42146 0.621724 24
      vertex 2.32444 0.920311 24
    endloop
  endfacet
  facet normal -0 0 1
    outer loop
      vertex 1.98423 -0.250666 24
      vertex 2.48029 -0.313333 24
      vertex 2 0 24
    endloop
  endfacet
  facet normal 0 0 1
    outer loop
      vertex 1.85955 0.736249 24
      vertex 2.32444 0.920311 24
      vertex 2.19077 1.20438 24
    endloop
  endfacet
  facet normal 0 0 1
    outer loop
      vertex 2.48029 -0.313333 24
      vertex 1.98423 -0.250666 24
      vertex 2.42146 -0.621724 24
    endloop
  endfacet
  facet normal 0 0 1
    outer loop
      vertex 1.75261 0.963507 24
      vertex 2.19077 1.20438 24
      vertex 2.02254 1.46946 24
    endloop
  endfacet
  facet normal -0 0 1
    outer loop
      vertex 1.93717 -0.497379 24
      vertex 2.42146 -0.621724 24
      vertex 1.98423 -0.250666 24
    endloop
  endfacet
  facet normal 0 0 1
    outer loop
      vertex 2.42146 -0.621724 24
      vertex 1.93717 -0.497379 24
      vertex 2.32444 -0.920311 24
    endloop
  endfacet
  facet normal 0 0 1
    outer loop
      vertex 2.48029 0.313333 24
      vertex 1.98423 0.250666 24
      vertex 2 0 24
    endloop
  endfacet
  facet normal 0 0 1
    outer loop
      vertex 2.42146 0.621724 24
      vertex 1.93717 0.497379 24
      vertex 1.98423 0.250666 24
    endloop
  endfacet
  facet normal 0 0 1
    outer loop
      vertex 2.32444 0.920311 24
      vertex 1.85955 0.736249 24
      vertex 1.93717 0.497379 24
    endloop
  endfacet
  facet normal 0 0 1
    outer loop
      vertex 1.61803 1.17557 24
      vertex 2.02254 1.46946 24
      vertex 1.82242 1.71137 24
    endloop
  endfacet
  facet normal 0 0 1
    outer loop
      vertex 2.19077 1.20438 24
      vertex 1.75261 0.963507 24
      vertex 1.85955 0.736249 24
    endloop
  endfacet
  facet normal 0 0 1
    outer loop
      vertex 2.02254 1.46946 24
      vertex 1.61803 1.17557 24
      vertex 1.75261 0.963507 24
    endloop
  endfacet
  facet normal 0 0 1
    outer loop
      vertex 1.45794 1.36909 24
      vertex 1.82242 1.71137 24
      vertex 1.59356 1.92628 24
    endloop
  endfacet
  facet normal 0 0 1
    outer loop
      vertex 1.82242 1.71137 24
      vertex 1.45794 1.36909 24
      vertex 1.61803 1.17557 24
    endloop
  endfacet
  facet normal 0 0 1
    outer loop
      vertex 1.27485 1.54103 24
      vertex 1.59356 1.92628 24
      vertex 1.33957 2.11082 24
    endloop
  endfacet
  facet normal 0 0 1
    outer loop
      vertex 1.59356 1.92628 24
      vertex 1.27485 1.54103 24
      vertex 1.45794 1.36909 24
    endloop
  endfacet
  facet normal 0 0 1
    outer loop
      vertex 1.33957 2.11082 24
      vertex 1.07165 1.68865 24
      vertex 1.27485 1.54103 24
    endloop
  endfacet
  facet normal 0 0 1
    outer loop
      vertex 1.06445 2.26207 24
      vertex 1.07165 1.68865 24
      vertex 1.33957 2.11082 24
    endloop
  endfacet
  facet normal 0 0 1
    outer loop
      vertex 1.06445 2.26207 24
      vertex 0.851558 1.80965 24
      vertex 1.07165 1.68865 24
    endloop
  endfacet
  facet normal 0 0 1
    outer loop
      vertex 0.772542 2.37764 24
      vertex 0.851558 1.80965 24
      vertex 1.06445 2.26207 24
    endloop
  endfacet
  facet normal 0 0 1
    outer loop
      vertex 0.772542 2.37764 24
      vertex 0.618033 1.90211 24
      vertex 0.851558 1.80965 24
    endloop
  endfacet
  facet normal 0 0 1
    outer loop
      vertex 0.468452 2.45572 24
      vertex 0.618033 1.90211 24
      vertex 0.772542 2.37764 24
    endloop
  endfacet
  facet normal 0 0 1
    outer loop
      vertex 0.468452 2.45572 24
      vertex 0.374763 1.96457 24
      vertex 0.618033 1.90211 24
    endloop
  endfacet
  facet normal 0 0 1
    outer loop
      vertex 0.156976 2.49507 24
      vertex 0.374763 1.96457 24
      vertex 0.468452 2.45572 24
    endloop
  endfacet
  facet normal 0 0 1
    outer loop
      vertex 0.156976 2.49507 24
      vertex 0.125581 1.99605 24
      vertex 0.374763 1.96457 24
    endloop
  endfacet
  facet normal 0 0 1
    outer loop
      vertex 0.156976 2.49507 24
      vertex -0.125581 1.99605 24
      vertex 0.125581 1.99605 24
    endloop
  endfacet
  facet normal -0 0 1
    outer loop
      vertex -0.156976 2.49507 24
      vertex -0.125581 1.99605 24
      vertex 0.156976 2.49507 24
    endloop
  endfacet
  facet normal 0 0 1
    outer loop
      vertex -0.156976 2.49507 24
      vertex -0.374763 1.96457 24
      vertex -0.125581 1.99605 24
    endloop
  endfacet
  facet normal -0 0 1
    outer loop
      vertex -0.468452 2.45572 24
      vertex -0.374763 1.96457 24
      vertex -0.156976 2.49507 24
    endloop
  endfacet
  facet normal 0 0 1
    outer loop
      vertex -0.468452 2.45572 24
      vertex -0.618033 1.90211 24
      vertex -0.374763 1.96457 24
    endloop
  endfacet
  facet normal -0 0 1
    outer loop
      vertex -0.772542 2.37764 24
      vertex -0.618033 1.90211 24
      vertex -0.468452 2.45572 24
    endloop
  endfacet
  facet normal 0 0 1
    outer loop
      vertex -0.772542 2.37764 24
      vertex -0.851558 1.80965 24
      vertex -0.618033 1.90211 24
    endloop
  endfacet
  facet normal -0 0 1
    outer loop
      vertex -1.06445 2.26207 24
      vertex -0.851558 1.80965 24
      vertex -0.772542 2.37764 24
    endloop
  endfacet
  facet normal 0 0 1
    outer loop
      vertex -1.06445 2.26207 24
      vertex -1.07165 1.68865 24
      vertex -0.851558 1.80965 24
    endloop
  endfacet
  facet normal -0 0 1
    outer loop
      vertex -1.33957 2.11082 24
      vertex -1.07165 1.68865 24
      vertex -1.06445 2.26207 24
    endloop
  endfacet
  facet normal 0 0 1
    outer loop
      vertex -1.07165 1.68865 24
      vertex -1.33957 2.11082 24
      vertex -1.27485 1.54103 24
    endloop
  endfacet
  facet normal -0 0 1
    outer loop
      vertex -1.59356 1.92628 24
      vertex -1.27485 1.54103 24
      vertex -1.33957 2.11082 24
    endloop
  endfacet
  facet normal 0 0 1
    outer loop
      vertex -1.27485 1.54103 24
      vertex -1.59356 1.92628 24
      vertex -1.45794 1.36909 24
    endloop
  endfacet
  facet normal -0 0 1
    outer loop
      vertex -1.82242 1.71137 24
      vertex -1.45794 1.36909 24
      vertex -1.59356 1.92628 24
    endloop
  endfacet
  facet normal 0 0 1
    outer loop
      vertex -1.45794 1.36909 24
      vertex -1.82242 1.71137 24
      vertex -1.61803 1.17557 24
    endloop
  endfacet
  facet normal -0 0 1
    outer loop
      vertex -2.02254 1.46946 24
      vertex -1.61803 1.17557 24
      vertex -1.82242 1.71137 24
    endloop
  endfacet
  facet normal 0 0 1
    outer loop
      vertex -1.61803 1.17557 24
      vertex -2.02254 1.46946 24
      vertex -1.75261 0.963507 24
    endloop
  endfacet
  facet normal -0 0 1
    outer loop
      vertex -2.19077 1.20438 24
      vertex -1.75261 0.963507 24
      vertex -2.02254 1.46946 24
    endloop
  endfacet
  facet normal 0 0 1
    outer loop
      vertex -1.75261 0.963507 24
      vertex -2.19077 1.20438 24
      vertex -1.85955 0.736249 24
    endloop
  endfacet
  facet normal 0 0 1
    outer loop
      vertex -1.85955 0.736249 24
      vertex -2.32444 0.920311 24
      vertex -1.93717 0.497379 24
    endloop
  endfacet
  facet normal -0 0 1
    outer loop
      vertex -2.32444 0.920311 24
      vertex -1.85955 0.736249 24
      vertex -2.19077 1.20438 24
    endloop
  endfacet
  facet normal -0 0 1
    outer loop
      vertex 1.85955 -0.736249 24
      vertex 2.32444 -0.920311 24
      vertex 1.93717 -0.497379 24
    endloop
  endfacet
  facet normal 0 0 1
    outer loop
      vertex 2.32444 -0.920311 24
      vertex 1.85955 -0.736249 24
      vertex 2.19077 -1.20438 24
    endloop
  endfacet
  facet normal -0 0 1
    outer loop
      vertex 1.75261 -0.963507 24
      vertex 2.19077 -1.20438 24
      vertex 1.85955 -0.736249 24
    endloop
  endfacet
  facet normal 0 0 1
    outer loop
      vertex 2.19077 -1.20438 24
      vertex 1.75261 -0.963507 24
      vertex 2.02254 -1.46946 24
    endloop
  endfacet
  facet normal -0 0 1
    outer loop
      vertex 1.61803 -1.17557 24
      vertex 2.02254 -1.46946 24
      vertex 1.75261 -0.963507 24
    endloop
  endfacet
  facet normal 0 0 1
    outer loop
      vertex 2.02254 -1.46946 24
      vertex 1.61803 -1.17557 24
      vertex 1.82242 -1.71137 24
    endloop
  endfacet
  facet normal -0 0 1
    outer loop
      vertex 1.45794 -1.36909 24
      vertex 1.82242 -1.71137 24
      vertex 1.61803 -1.17557 24
    endloop
  endfacet
  facet normal 0 0 1
    outer loop
      vertex 1.82242 -1.71137 24
      vertex 1.45794 -1.36909 24
      vertex 1.59356 -1.92628 24
    endloop
  endfacet
  facet normal -0 0 1
    outer loop
      vertex 1.27485 -1.54103 24
      vertex 1.59356 -1.92628 24
      vertex 1.45794 -1.36909 24
    endloop
  endfacet
  facet normal 0 0 1
    outer loop
      vertex 1.59356 -1.92628 24
      vertex 1.27485 -1.54103 24
      vertex 1.33957 -2.11082 24
    endloop
  endfacet
  facet normal -0 0 1
    outer loop
      vertex 1.07165 -1.68865 24
      vertex 1.33957 -2.11082 24
      vertex 1.27485 -1.54103 24
    endloop
  endfacet
  facet normal 0 0 1
    outer loop
      vertex 1.07165 -1.68865 24
      vertex 1.06445 -2.26207 24
      vertex 1.33957 -2.11082 24
    endloop
  endfacet
  facet normal -0 0 1
    outer loop
      vertex 0.851558 -1.80965 24
      vertex 1.06445 -2.26207 24
      vertex 1.07165 -1.68865 24
    endloop
  endfacet
  facet normal 0 0 1
    outer loop
      vertex 0.851558 -1.80965 24
      vertex 0.772542 -2.37764 24
      vertex 1.06445 -2.26207 24
    endloop
  endfacet
  facet normal -0 0 1
    outer loop
      vertex 0.618033 -1.90211 24
      vertex 0.772542 -2.37764 24
      vertex 0.851558 -1.80965 24
    endloop
  endfacet
  facet normal 0 0 1
    outer loop
      vertex 0.618033 -1.90211 24
      vertex 0.468452 -2.45572 24
      vertex 0.772542 -2.37764 24
    endloop
  endfacet
  facet normal -0 0 1
    outer loop
      vertex 0.374763 -1.96457 24
      vertex 0.468452 -2.45572 24
      vertex 0.618033 -1.90211 24
    endloop
  endfacet
  facet normal 0 0 1
    outer loop
      vertex 0.374763 -1.96457 24
      vertex 0.156976 -2.49507 24
      vertex 0.468452 -2.45572 24
    endloop
  endfacet
  facet normal -0 0 1
    outer loop
      vertex 0.125581 -1.99605 24
      vertex 0.156976 -2.49507 24
      vertex 0.374763 -1.96457 24
    endloop
  endfacet
  facet normal -0 0 1
    outer loop
      vertex -0.125581 -1.99605 24
      vertex 0.156976 -2.49507 24
      vertex 0.125581 -1.99605 24
    endloop
  endfacet
  facet normal 0 0 1
    outer loop
      vertex -0.125581 -1.99605 24
      vertex -0.156976 -2.49507 24
      vertex 0.156976 -2.49507 24
    endloop
  endfacet
  facet normal 0 0 1
    outer loop
      vertex -0.374763 -1.96457 24
      vertex -0.156976 -2.49507 24
      vertex -0.125581 -1.99605 24
    endloop
  endfacet
  facet normal 0 0 1
    outer loop
      vertex -0.374763 -1.96457 24
      vertex -0.468452 -2.45572 24
      vertex -0.156976 -2.49507 24
    endloop
  endfacet
  facet normal 0 0 1
    outer loop
      vertex -0.618033 -1.90211 24
      vertex -0.468452 -2.45572 24
      vertex -0.374763 -1.96457 24
    endloop
  endfacet
  facet normal 0 0 1
    outer loop
      vertex -0.618033 -1.90211 24
      vertex -0.772542 -2.37764 24
      vertex -0.468452 -2.45572 24
    endloop
  endfacet
  facet normal 0 0 1
    outer loop
      vertex -0.851558 -1.80965 24
      vertex -0.772542 -2.37764 24
      vertex -0.618033 -1.90211 24
    endloop
  endfacet
  facet normal 0 0 1
    outer loop
      vertex -0.851558 -1.80965 24
      vertex -1.06445 -2.26207 24
      vertex -0.772542 -2.37764 24
    endloop
  endfacet
  facet normal 0 0 1
    outer loop
      vertex -1.07165 -1.68865 24
      vertex -1.06445 -2.26207 24
      vertex -0.851558 -1.80965 24
    endloop
  endfacet
  facet normal 0 0 1
    outer loop
      vertex -1.33957 -2.11082 24
      vertex -1.07165 -1.68865 24
      vertex -1.27485 -1.54103 24
    endloop
  endfacet
  facet normal 0 0 1
    outer loop
      vertex -1.07165 -1.68865 24
      vertex -1.33957 -2.11082 24
      vertex -1.06445 -2.26207 24
    endloop
  endfacet
  facet normal 0 0 1
    outer loop
      vertex -1.59356 -1.92628 24
      vertex -1.27485 -1.54103 24
      vertex -1.45794 -1.36909 24
    endloop
  endfacet
  facet normal 0 0 1
    outer loop
      vertex -1.27485 -1.54103 24
      vertex -1.59356 -1.92628 24
      vertex -1.33957 -2.11082 24
    endloop
  endfacet
  facet normal 0 0 1
    outer loop
      vertex -1.82242 -1.71137 24
      vertex -1.45794 -1.36909 24
      vertex -1.61803 -1.17557 24
    endloop
  endfacet
  facet normal 0 0 1
    outer loop
      vertex -2.02254 -1.46946 24
      vertex -1.61803 -1.17557 24
      vertex -1.75261 -0.963507 24
    endloop
  endfacet
  facet normal 0 0 1
    outer loop
      vertex -1.45794 -1.36909 24
      vertex -1.82242 -1.71137 24
      vertex -1.59356 -1.92628 24
    endloop
  endfacet
  facet normal 0 0 1
    outer loop
      vertex -2.19077 -1.20438 24
      vertex -1.75261 -0.963507 24
      vertex -1.85955 -0.736249 24
    endloop
  endfacet
  facet normal 0 0 1
    outer loop
      vertex -2.32444 -0.920311 24
      vertex -1.85955 -0.736249 24
      vertex -1.93717 -0.497379 24
    endloop
  endfacet
  facet normal 0 0 1
    outer loop
      vertex -2.42146 -0.621724 24
      vertex -1.93717 -0.497379 24
      vertex -1.98423 -0.250666 24
    endloop
  endfacet
  facet normal 0 0 1
    outer loop
      vertex -1.61803 -1.17557 24
      vertex -2.02254 -1.46946 24
      vertex -1.82242 -1.71137 24
    endloop
  endfacet
  facet normal 0 0 1
    outer loop
      vertex -2.48029 -0.313333 24
      vertex -1.98423 -0.250666 24
      vertex -2 0 24
    endloop
  endfacet
  facet normal -0 0 1
    outer loop
      vertex -2.42146 0.621724 24
      vertex -1.93717 0.497379 24
      vertex -2.32444 0.920311 24
    endloop
  endfacet
  facet normal 0 0 1
    outer loop
      vertex -1.93717 0.497379 24
      vertex -2.42146 0.621724 24
      vertex -1.98423 0.250666 24
    endloop
  endfacet
  facet normal 0 0 1
    outer loop
      vertex -1.75261 -0.963507 24
      vertex -2.19077 -1.20438 24
      vertex -2.02254 -1.46946 24
    endloop
  endfacet
  facet normal -0 0 1
    outer loop
      vertex -2.48029 0.313333 24
      vertex -1.98423 0.250666 24
      vertex -2.42146 0.621724 24
    endloop
  endfacet
  facet normal 0 0 1
    outer loop
      vertex -1.85955 -0.736249 24
      vertex -2.32444 -0.920311 24
      vertex -2.19077 -1.20438 24
    endloop
  endfacet
  facet normal 0 0 1
    outer loop
      vertex -1.98423 0.250666 24
      vertex -2.48029 0.313333 24
      vertex -2 0 24
    endloop
  endfacet
  facet normal 0 0 1
    outer loop
      vertex -1.93717 -0.497379 24
      vertex -2.42146 -0.621724 24
      vertex -2.32444 -0.920311 24
    endloop
  endfacet
  facet normal 0 0 1
    outer loop
      vertex -2.5 0 24
      vertex -2 0 24
      vertex -2.48029 0.313333 24
    endloop
  endfacet
  facet normal 0 0 1
    outer loop
      vertex -1.98423 -0.250666 24
      vertex -2.48029 -0.313333 24
      vertex -2.42146 -0.621724 24
    endloop
  endfacet
  facet normal 0 0 1
    outer loop
      vertex -2 0 24
      vertex -2.5 0 24
      vertex -2.48029 -0.313333 24
    endloop
  endfacet
  facet normal -0.951054 0.309026 0
    outer loop
      vertex -2.42146 0.621724 -24
      vertex -2.32444 0.920311 24
      vertex -2.32444 0.920311 -24
    endloop
  endfacet
  facet normal -0.951054 0.309026 0
    outer loop
      vertex -2.32444 0.920311 24
      vertex -2.42146 0.621724 -24
      vertex -2.42146 0.621724 24
    endloop
  endfacet
  facet normal -0.982287 0.187385 0
    outer loop
      vertex -2.48029 0.313333 -24
      vertex -2.42146 0.621724 24
      vertex -2.42146 0.621724 -24
    endloop
  endfacet
  facet normal -0.982287 0.187385 0
    outer loop
      vertex -2.42146 0.621724 24
      vertex -2.48029 0.313333 -24
      vertex -2.48029 0.313333 24
    endloop
  endfacet
  facet normal -0.844321 0.535838 0
    outer loop
      vertex -2.19077 1.20438 -24
      vertex -2.02254 1.46946 24
      vertex -2.02254 1.46946 -24
    endloop
  endfacet
  facet normal -0.844321 0.535838 0
    outer loop
      vertex -2.02254 1.46946 24
      vertex -2.19077 1.20438 -24
      vertex -2.19077 1.20438 24
    endloop
  endfacet
  facet normal -0.248699 0.968581 0
    outer loop
      vertex -0.468452 2.45572 -24
      vertex -0.772542 2.37764 24
      vertex -0.468452 2.45572 24
    endloop
  endfacet
  facet normal -0.248699 0.968581 0
    outer loop
      vertex -0.772542 2.37764 24
      vertex -0.468452 2.45572 -24
      vertex -0.772542 2.37764 -24
    endloop
  endfacet
  facet normal -0.587797 0.809009 0
    outer loop
      vertex -1.33957 2.11082 -24
      vertex -1.59356 1.92628 24
      vertex -1.33957 2.11082 24
    endloop
  endfacet
  facet normal -0.587797 0.809009 0
    outer loop
      vertex -1.59356 1.92628 24
      vertex -1.33957 2.11082 -24
      vertex -1.59356 1.92628 -24
    endloop
  endfacet
  facet normal -0.481757 0.876305 0
    outer loop
      vertex -1.06445 2.26207 -24
      vertex -1.33957 2.11082 24
      vertex -1.06445 2.26207 24
    endloop
  endfacet
  facet normal -0.481757 0.876305 0
    outer loop
      vertex -1.33957 2.11082 24
      vertex -1.06445 2.26207 -24
      vertex -1.33957 2.11082 -24
    endloop
  endfacet
  facet normal 0.998027 0.0627802 0
    outer loop
      vertex 2.5 0 24
      vertex 2.48029 0.313333 -24
      vertex 2.48029 0.313333 24
    endloop
  endfacet
  facet normal 0.998027 0.0627802 0
    outer loop
      vertex 2.48029 0.313333 -24
      vertex 2.5 0 24
      vertex 2.5 0 -24
    endloop
  endfacet
  facet normal 0.951054 -0.309026 0
    outer loop
      vertex 2.32444 -0.920311 24
      vertex 2.42146 -0.621724 -24
      vertex 2.42146 -0.621724 24
    endloop
  endfacet
  facet normal 0.951054 -0.309026 0
    outer loop
      vertex 2.42146 -0.621724 -24
      vertex 2.32444 -0.920311 24
      vertex 2.32444 -0.920311 -24
    endloop
  endfacet
  facet normal 0.770522 -0.637414 0
    outer loop
      vertex 1.82242 -1.71137 24
      vertex 2.02254 -1.46946 -24
      vertex 2.02254 -1.46946 24
    endloop
  endfacet
  facet normal 0.770522 -0.637414 0
    outer loop
      vertex 2.02254 -1.46946 -24
      vertex 1.82242 -1.71137 24
      vertex 1.82242 -1.71137 -24
    endloop
  endfacet
  facet normal 0 -1 0
    outer loop
      vertex -0.156976 -2.49507 -24
      vertex 0.156976 -2.49507 24
      vertex -0.156976 -2.49507 24
    endloop
  endfacet
  facet normal 0 -1 -0
    outer loop
      vertex 0.156976 -2.49507 24
      vertex -0.156976 -2.49507 -24
      vertex 0.156976 -2.49507 -24
    endloop
  endfacet
  facet normal 0 0 -1
    outer loop
      vertex 2 0 -24
      vertex 2.5 0 -24
      vertex 2.48029 -0.313333 -24
    endloop
  endfacet
  facet normal 0 0 -1
    outer loop
      vertex 1.98423 -0.250666 -24
      vertex 2.48029 -0.313333 -24
      vertex 2.42146 -0.621724 -24
    endloop
  endfacet
  facet normal 0 0 -1
    outer loop
      vertex 2.5 0 -24
      vertex 2 0 -24
      vertex 2.48029 0.313333 -24
    endloop
  endfacet
  facet normal 0 0 -1
    outer loop
      vertex 1.93717 -0.497379 -24
      vertex 2.42146 -0.621724 -24
      vertex 2.32444 -0.920311 -24
    endloop
  endfacet
  facet normal 0 0 -1
    outer loop
      vertex 1.98423 0.250666 -24
      vertex 2.48029 0.313333 -24
      vertex 2 0 -24
    endloop
  endfacet
  facet normal 0 0 -1
    outer loop
      vertex 1.85955 -0.736249 -24
      vertex 2.32444 -0.920311 -24
      vertex 2.19077 -1.20438 -24
    endloop
  endfacet
  facet normal -0 0 -1
    outer loop
      vertex 2.48029 0.313333 -24
      vertex 1.98423 0.250666 -24
      vertex 2.42146 0.621724 -24
    endloop
  endfacet
  facet normal 0 0 -1
    outer loop
      vertex 1.75261 -0.963507 -24
      vertex 2.19077 -1.20438 -24
      vertex 2.02254 -1.46946 -24
    endloop
  endfacet
  facet normal 0 0 -1
    outer loop
      vertex 1.93717 0.497379 -24
      vertex 2.42146 0.621724 -24
      vertex 1.98423 0.250666 -24
    endloop
  endfacet
  facet normal -0 0 -1
    outer loop
      vertex 2.42146 0.621724 -24
      vertex 1.93717 0.497379 -24
      vertex 2.32444 0.920311 -24
    endloop
  endfacet
  facet normal 0 0 -1
    outer loop
      vertex 2.48029 -0.313333 -24
      vertex 1.98423 -0.250666 -24
      vertex 2 0 -24
    endloop
  endfacet
  facet normal 0 0 -1
    outer loop
      vertex 2.42146 -0.621724 -24
      vertex 1.93717 -0.497379 -24
      vertex 1.98423 -0.250666 -24
    endloop
  endfacet
  facet normal 0 0 -1
    outer loop
      vertex 2.32444 -0.920311 -24
      vertex 1.85955 -0.736249 -24
      vertex 1.93717 -0.497379 -24
    endloop
  endfacet
  facet normal 0 0 -1
    outer loop
      vertex 1.61803 -1.17557 -24
      vertex 2.02254 -1.46946 -24
      vertex 1.82242 -1.71137 -24
    endloop
  endfacet
  facet normal 0 0 -1
    outer loop
      vertex 2.19077 -1.20438 -24
      vertex 1.75261 -0.963507 -24
      vertex 1.85955 -0.736249 -24
    endloop
  endfacet
  facet normal 0 0 -1
    outer loop
      vertex 2.02254 -1.46946 -24
      vertex 1.61803 -1.17557 -24
      vertex 1.75261 -0.963507 -24
    endloop
  endfacet
  facet normal 0 0 -1
    outer loop
      vertex 1.45794 -1.36909 -24
      vertex 1.82242 -1.71137 -24
      vertex 1.59356 -1.92628 -24
    endloop
  endfacet
  facet normal 0 0 -1
    outer loop
      vertex 1.82242 -1.71137 -24
      vertex 1.45794 -1.36909 -24
      vertex 1.61803 -1.17557 -24
    endloop
  endfacet
  facet normal 0 0 -1
    outer loop
      vertex 1.27485 -1.54103 -24
      vertex 1.59356 -1.92628 -24
      vertex 1.33957 -2.11082 -24
    endloop
  endfacet
  facet normal 0 0 -1
    outer loop
      vertex 1.59356 -1.92628 -24
      vertex 1.27485 -1.54103 -24
      vertex 1.45794 -1.36909 -24
    endloop
  endfacet
  facet normal 0 0 -1
    outer loop
      vertex 1.33957 -2.11082 -24
      vertex 1.07165 -1.68865 -24
      vertex 1.27485 -1.54103 -24
    endloop
  endfacet
  facet normal 0 0 -1
    outer loop
      vertex 1.06445 -2.26207 -24
      vertex 1.07165 -1.68865 -24
      vertex 1.33957 -2.11082 -24
    endloop
  endfacet
  facet normal 0 0 -1
    outer loop
      vertex 1.06445 -2.26207 -24
      vertex 0.851558 -1.80965 -24
      vertex 1.07165 -1.68865 -24
    endloop
  endfacet
  facet normal 0 0 -1
    outer loop
      vertex 0.772542 -2.37764 -24
      vertex 0.851558 -1.80965 -24
      vertex 1.06445 -2.26207 -24
    endloop
  endfacet
  facet normal 0 0 -1
    outer loop
      vertex 0.772542 -2.37764 -24
      vertex 0.618033 -1.90211 -24
      vertex 0.851558 -1.80965 -24
    endloop
  endfacet
  facet normal 0 0 -1
    outer loop
      vertex 0.468452 -2.45572 -24
      vertex 0.618033 -1.90211 -24
      vertex 0.772542 -2.37764 -24
    endloop
  endfacet
  facet normal 0 0 -1
    outer loop
      vertex 0.468452 -2.45572 -24
      vertex 0.374763 -1.96457 -24
      vertex 0.618033 -1.90211 -24
    endloop
  endfacet
  facet normal 0 0 -1
    outer loop
      vertex 0.156976 -2.49507 -24
      vertex 0.374763 -1.96457 -24
      vertex 0.468452 -2.45572 -24
    endloop
  endfacet
  facet normal 0 0 -1
    outer loop
      vertex 0.156976 -2.49507 -24
      vertex 0.125581 -1.99605 -24
      vertex 0.374763 -1.96457 -24
    endloop
  endfacet
  facet normal 0 0 -1
    outer loop
      vertex 0.156976 -2.49507 -24
      vertex -0.125581 -1.99605 -24
      vertex 0.125581 -1.99605 -24
    endloop
  endfacet
  facet normal 0 0 -1
    outer loop
      vertex -0.156976 -2.49507 -24
      vertex -0.125581 -1.99605 -24
      vertex 0.156976 -2.49507 -24
    endloop
  endfacet
  facet normal 0 0 -1
    outer loop
      vertex -0.156976 -2.49507 -24
      vertex -0.374763 -1.96457 -24
      vertex -0.125581 -1.99605 -24
    endloop
  endfacet
  facet normal 0 0 -1
    outer loop
      vertex -0.468452 -2.45572 -24
      vertex -0.374763 -1.96457 -24
      vertex -0.156976 -2.49507 -24
    endloop
  endfacet
  facet normal 0 0 -1
    outer loop
      vertex -0.468452 -2.45572 -24
      vertex -0.618033 -1.90211 -24
      vertex -0.374763 -1.96457 -24
    endloop
  endfacet
  facet normal 0 0 -1
    outer loop
      vertex -0.772542 -2.37764 -24
      vertex -0.618033 -1.90211 -24
      vertex -0.468452 -2.45572 -24
    endloop
  endfacet
  facet normal 0 0 -1
    outer loop
      vertex -0.772542 -2.37764 -24
      vertex -0.851558 -1.80965 -24
      vertex -0.618033 -1.90211 -24
    endloop
  endfacet
  facet normal 0 0 -1
    outer loop
      vertex -1.06445 -2.26207 -24
      vertex -0.851558 -1.80965 -24
      vertex -0.772542 -2.37764 -24
    endloop
  endfacet
  facet normal 0 0 -1
    outer loop
      vertex -1.06445 -2.26207 -24
      vertex -1.07165 -1.68865 -24
      vertex -0.851558 -1.80965 -24
    endloop
  endfacet
  facet normal 0 0 -1
    outer loop
      vertex -1.33957 -2.11082 -24
      vertex -1.07165 -1.68865 -24
      vertex -1.06445 -2.26207 -24
    endloop
  endfacet
  facet normal -0 0 -1
    outer loop
      vertex -1.07165 -1.68865 -24
      vertex -1.33957 -2.11082 -24
      vertex -1.27485 -1.54103 -24
    endloop
  endfacet
  facet normal 0 0 -1
    outer loop
      vertex -1.59356 -1.92628 -24
      vertex -1.27485 -1.54103 -24
      vertex -1.33957 -2.11082 -24
    endloop
  endfacet
  facet normal -0 0 -1
    outer loop
      vertex -1.27485 -1.54103 -24
      vertex -1.59356 -1.92628 -24
      vertex -1.45794 -1.36909 -24
    endloop
  endfacet
  facet normal 0 0 -1
    outer loop
      vertex -1.82242 -1.71137 -24
      vertex -1.45794 -1.36909 -24
      vertex -1.59356 -1.92628 -24
    endloop
  endfacet
  facet normal -0 0 -1
    outer loop
      vertex -1.45794 -1.36909 -24
      vertex -1.82242 -1.71137 -24
      vertex -1.61803 -1.17557 -24
    endloop
  endfacet
  facet normal 0 0 -1
    outer loop
      vertex -2.02254 -1.46946 -24
      vertex -1.61803 -1.17557 -24
      vertex -1.82242 -1.71137 -24
    endloop
  endfacet
  facet normal -0 0 -1
    outer loop
      vertex -1.61803 -1.17557 -24
      vertex -2.02254 -1.46946 -24
      vertex -1.75261 -0.963507 -24
    endloop
  endfacet
  facet normal 0 0 -1
    outer loop
      vertex -2.19077 -1.20438 -24
      vertex -1.75261 -0.963507 -24
      vertex -2.02254 -1.46946 -24
    endloop
  endfacet
  facet normal -0 0 -1
    outer loop
      vertex -1.75261 -0.963507 -24
      vertex -2.19077 -1.20438 -24
      vertex -1.85955 -0.736249 -24
    endloop
  endfacet
  facet normal -0 0 -1
    outer loop
      vertex -1.85955 -0.736249 -24
      vertex -2.32444 -0.920311 -24
      vertex -1.93717 -0.497379 -24
    endloop
  endfacet
  facet normal 0 0 -1
    outer loop
      vertex -2.32444 -0.920311 -24
      vertex -1.85955 -0.736249 -24
      vertex -2.19077 -1.20438 -24
    endloop
  endfacet
  facet normal 0 0 -1
    outer loop
      vertex 1.85955 0.736249 -24
      vertex 2.32444 0.920311 -24
      vertex 1.93717 0.497379 -24
    endloop
  endfacet
  facet normal -0 0 -1
    outer loop
      vertex 2.32444 0.920311 -24
      vertex 1.85955 0.736249 -24
      vertex 2.19077 1.20438 -24
    endloop
  endfacet
  facet normal 0 0 -1
    outer loop
      vertex 1.75261 0.963507 -24
      vertex 2.19077 1.20438 -24
      vertex 1.85955 0.736249 -24
    endloop
  endfacet
  facet normal -0 0 -1
    outer loop
      vertex 2.19077 1.20438 -24
      vertex 1.75261 0.963507 -24
      vertex 2.02254 1.46946 -24
    endloop
  endfacet
  facet normal 0 0 -1
    outer loop
      vertex 1.61803 1.17557 -24
      vertex 2.02254 1.46946 -24
      vertex 1.75261 0.963507 -24
    endloop
  endfacet
  facet normal -0 0 -1
    outer loop
      vertex 2.02254 1.46946 -24
      vertex 1.61803 1.17557 -24
      vertex 1.82242 1.71137 -24
    endloop
  endfacet
  facet normal 0 0 -1
    outer loop
      vertex 1.45794 1.36909 -24
      vertex 1.82242 1.71137 -24
      vertex 1.61803 1.17557 -24
    endloop
  endfacet
  facet normal -0 0 -1
    outer loop
      vertex 1.82242 1.71137 -24
      vertex 1.45794 1.36909 -24
      vertex 1.59356 1.92628 -24
    endloop
  endfacet
  facet normal 0 0 -1
    outer loop
      vertex 1.27485 1.54103 -24
      vertex 1.59356 1.92628 -24
      vertex 1.45794 1.36909 -24
    endloop
  endfacet
  facet normal -0 0 -1
    outer loop
      vertex 1.59356 1.92628 -24
      vertex 1.27485 1.54103 -24
      vertex 1.33957 2.11082 -24
    endloop
  endfacet
  facet normal 0 0 -1
    outer loop
      vertex 1.07165 1.68865 -24
      vertex 1.33957 2.11082 -24
      vertex 1.27485 1.54103 -24
    endloop
  endfacet
  facet normal 0 0 -1
    outer loop
      vertex 1.07165 1.68865 -24
      vertex 1.06445 2.26207 -24
      vertex 1.33957 2.11082 -24
    endloop
  endfacet
  facet normal 0 0 -1
    outer loop
      vertex 0.851558 1.80965 -24
      vertex 1.06445 2.26207 -24
      vertex 1.07165 1.68865 -24
    endloop
  endfacet
  facet normal 0 0 -1
    outer loop
      vertex 0.851558 1.80965 -24
      vertex 0.772542 2.37764 -24
      vertex 1.06445 2.26207 -24
    endloop
  endfacet
  facet normal 0 0 -1
    outer loop
      vertex 0.618033 1.90211 -24
      vertex 0.772542 2.37764 -24
      vertex 0.851558 1.80965 -24
    endloop
  endfacet
  facet normal 0 0 -1
    outer loop
      vertex 0.618033 1.90211 -24
      vertex 0.468452 2.45572 -24
      vertex 0.772542 2.37764 -24
    endloop
  endfacet
  facet normal 0 0 -1
    outer loop
      vertex 0.374763 1.96457 -24
      vertex 0.468452 2.45572 -24
      vertex 0.618033 1.90211 -24
    endloop
  endfacet
  facet normal 0 0 -1
    outer loop
      vertex 0.374763 1.96457 -24
      vertex 0.156976 2.49507 -24
      vertex 0.468452 2.45572 -24
    endloop
  endfacet
  facet normal 0 0 -1
    outer loop
      vertex 0.125581 1.99605 -24
      vertex 0.156976 2.49507 -24
      vertex 0.374763 1.96457 -24
    endloop
  endfacet
  facet normal 0 0 -1
    outer loop
      vertex -0.125581 1.99605 -24
      vertex 0.156976 2.49507 -24
      vertex 0.125581 1.99605 -24
    endloop
  endfacet
  facet normal 0 0 -1
    outer loop
      vertex -0.125581 1.99605 -24
      vertex -0.156976 2.49507 -24
      vertex 0.156976 2.49507 -24
    endloop
  endfacet
  facet normal 0 0 -1
    outer loop
      vertex -0.374763 1.96457 -24
      vertex -0.156976 2.49507 -24
      vertex -0.125581 1.99605 -24
    endloop
  endfacet
  facet normal 0 0 -1
    outer loop
      vertex -0.374763 1.96457 -24
      vertex -0.468452 2.45572 -24
      vertex -0.156976 2.49507 -24
    endloop
  endfacet
  facet normal 0 0 -1
    outer loop
      vertex -0.618033 1.90211 -24
      vertex -0.468452 2.45572 -24
      vertex -0.374763 1.96457 -24
    endloop
  endfacet
  facet normal 0 0 -1
    outer loop
      vertex -0.618033 1.90211 -24
      vertex -0.772542 2.37764 -24
      vertex -0.468452 2.45572 -24
    endloop
  endfacet
  facet normal 0 0 -1
    outer loop
      vertex -0.851558 1.80965 -24
      vertex -0.772542 2.37764 -24
      vertex -0.618033 1.90211 -24
    endloop
  endfacet
  facet normal 0 0 -1
    outer loop
      vertex -0.851558 1.80965 -24
      vertex -1.06445 2.26207 -24
      vertex -0.772542 2.37764 -24
    endloop
  endfacet
  facet normal 0 0 -1
    outer loop
      vertex -1.07165 1.68865 -24
      vertex -1.06445 2.26207 -24
      vertex -0.851558 1.80965 -24
    endloop
  endfacet
  facet normal 0 0 -1
    outer loop
      vertex -1.33957 2.11082 -24
      vertex -1.07165 1.68865 -24
      vertex -1.27485 1.54103 -24
    endloop
  endfacet
  facet normal 0 0 -1
    outer loop
      vertex -1.07165 1.68865 -24
      vertex -1.33957 2.11082 -24
      vertex -1.06445 2.26207 -24
    endloop
  endfacet
  facet normal 0 0 -1
    outer loop
      vertex -1.59356 1.92628 -24
      vertex -1.27485 1.54103 -24
      vertex -1.45794 1.36909 -24
    endloop
  endfacet
  facet normal 0 0 -1
    outer loop
      vertex -1.27485 1.54103 -24
      vertex -1.59356 1.92628 -24
      vertex -1.33957 2.11082 -24
    endloop
  endfacet
  facet normal 0 0 -1
    outer loop
      vertex -1.82242 1.71137 -24
      vertex -1.45794 1.36909 -24
      vertex -1.61803 1.17557 -24
    endloop
  endfacet
  facet normal 0 0 -1
    outer loop
      vertex -2.02254 1.46946 -24
      vertex -1.61803 1.17557 -24
      vertex -1.75261 0.963507 -24
    endloop
  endfacet
  facet normal 0 0 -1
    outer loop
      vertex -1.45794 1.36909 -24
      vertex -1.82242 1.71137 -24
      vertex -1.59356 1.92628 -24
    endloop
  endfacet
  facet normal 0 0 -1
    outer loop
      vertex -2.19077 1.20438 -24
      vertex -1.75261 0.963507 -24
      vertex -1.85955 0.736249 -24
    endloop
  endfacet
  facet normal 0 0 -1
    outer loop
      vertex -2.32444 0.920311 -24
      vertex -1.85955 0.736249 -24
      vertex -1.93717 0.497379 -24
    endloop
  endfacet
  facet normal 0 0 -1
    outer loop
      vertex -2.42146 0.621724 -24
      vertex -1.93717 0.497379 -24
      vertex -1.98423 0.250666 -24
    endloop
  endfacet
  facet normal 0 0 -1
    outer loop
      vertex -1.61803 1.17557 -24
      vertex -2.02254 1.46946 -24
      vertex -1.82242 1.71137 -24
    endloop
  endfacet
  facet normal 0 0 -1
    outer loop
      vertex -2.48029 0.313333 -24
      vertex -1.98423 0.250666 -24
      vertex -2 0 -24
    endloop
  endfacet
  facet normal 0 0 -1
    outer loop
      vertex -2.42146 -0.621724 -24
      vertex -1.93717 -0.497379 -24
      vertex -2.32444 -0.920311 -24
    endloop
  endfacet
  facet normal -0 0 -1
    outer loop
      vertex -1.93717 -0.497379 -24
      vertex -2.42146 -0.621724 -24
      vertex -1.98423 -0.250666 -24
    endloop
  endfacet
  facet normal 0 0 -1
    outer loop
      vertex -1.75261 0.963507 -24
      vertex -2.19077 1.20438 -24
      vertex -2.02254 1.46946 -24
    endloop
  endfacet
  facet normal 0 0 -1
    outer loop
      vertex -2.48029 -0.313333 -24
      vertex -1.98423 -0.250666 -24
      vertex -2.42146 -0.621724 -24
    endloop
  endfacet
  facet normal 0 0 -1
    outer loop
      vertex -1.85955 0.736249 -24
      vertex -2.32444 0.920311 -24
      vertex -2.19077 1.20438 -24
    endloop
  endfacet
  facet normal -0 0 -1
    outer loop
      vertex -1.98423 -0.250666 -24
      vertex -2.48029 -0.313333 -24
      vertex -2 0 -24
    endloop
  endfacet
  facet normal 0 0 -1
    outer loop
      vertex -1.93717 0.497379 -24
      vertex -2.42146 0.621724 -24
      vertex -2.32444 0.920311 -24
    endloop
  endfacet
  facet normal 0 0 -1
    outer loop
      vertex -2.5 0 -24
      vertex -2 0 -24
      vertex -2.48029 -0.313333 -24
    endloop
  endfacet
  facet normal 0 0 -1
    outer loop
      vertex -1.98423 0.250666 -24
      vertex -2.48029 0.313333 -24
      vertex -2.42146 0.621724 -24
    endloop
  endfacet
  facet normal 0 0 -1
    outer loop
      vertex -2 0 -24
      vertex -2.5 0 -24
      vertex -2.48029 0.313333 -24
    endloop
  endfacet
  facet normal -0.844321 -0.535838 0
    outer loop
      vertex -2.02254 -1.46946 -24
      vertex -2.19077 -1.20438 24
      vertex -2.19077 -1.20438 -24
    endloop
  endfacet
  facet normal -0.844321 -0.535838 0
    outer loop
      vertex -2.19077 -1.20438 24
      vertex -2.02254 -1.46946 -24
      vertex -2.02254 -1.46946 24
    endloop
  endfacet
  facet normal 0.125338 -0.992114 0
    outer loop
      vertex 0.156976 -2.49507 -24
      vertex 0.468452 -2.45572 24
      vertex 0.156976 -2.49507 24
    endloop
  endfacet
  facet normal 0.125338 -0.992114 0
    outer loop
      vertex 0.468452 -2.45572 24
      vertex 0.156976 -2.49507 -24
      vertex 0.468452 -2.45572 -24
    endloop
  endfacet
  facet normal -0.248699 -0.968581 0
    outer loop
      vertex -0.772542 -2.37764 -24
      vertex -0.468452 -2.45572 24
      vertex -0.772542 -2.37764 24
    endloop
  endfacet
  facet normal -0.248699 -0.968581 -0
    outer loop
      vertex -0.468452 -2.45572 24
      vertex -0.772542 -2.37764 -24
      vertex -0.468452 -2.45572 -24
    endloop
  endfacet
  facet normal -0.951054 -0.309026 0
    outer loop
      vertex -2.32444 -0.920311 -24
      vertex -2.42146 -0.621724 24
      vertex -2.42146 -0.621724 -24
    endloop
  endfacet
  facet normal -0.951054 -0.309026 0
    outer loop
      vertex -2.42146 -0.621724 24
      vertex -2.32444 -0.920311 -24
      vertex -2.32444 -0.920311 24
    endloop
  endfacet
  facet normal -0.982287 -0.187385 0
    outer loop
      vertex -2.42146 -0.621724 -24
      vertex -2.48029 -0.313333 24
      vertex -2.48029 -0.313333 -24
    endloop
  endfacet
  facet normal -0.982287 -0.187385 0
    outer loop
      vertex -2.48029 -0.313333 24
      vertex -2.42146 -0.621724 -24
      vertex -2.42146 -0.621724 24
    endloop
  endfacet
  facet normal -0.998027 -0.0627802 0
    outer loop
      vertex -2.48029 -0.313333 -24
      vertex -2.5 0 24
      vertex -2.5 0 -24
    endloop
  endfacet
  facet normal -0.998027 -0.0627802 0
    outer loop
      vertex -2.5 0 24
      vertex -2.48029 -0.313333 -24
      vertex -2.48029 -0.313333 24
    endloop
  endfacet
  facet normal -0.770522 -0.637414 0
    outer loop
      vertex -1.82242 -1.71137 -24
      vertex -2.02254 -1.46946 24
      vertex -2.02254 -1.46946 -24
    endloop
  endfacet
  facet normal -0.770522 -0.637414 0
    outer loop
      vertex -2.02254 -1.46946 24
      vertex -1.82242 -1.71137 -24
      vertex -1.82242 -1.71137 24
    endloop
  endfacet
  facet normal 0.368112 -0.929781 0
    outer loop
      vertex 0.772542 -2.37764 -24
      vertex 1.06445 -2.26207 24
      vertex 0.772542 -2.37764 24
    endloop
  endfacet
  facet normal 0.368112 -0.929781 0
    outer loop
      vertex 1.06445 -2.26207 24
      vertex 0.772542 -2.37764 -24
      vertex 1.06445 -2.26207 -24
    endloop
  endfacet
  facet normal 0.248699 -0.968581 0
    outer loop
      vertex 0.468452 -2.45572 -24
      vertex 0.772542 -2.37764 24
      vertex 0.468452 -2.45572 24
    endloop
  endfacet
  facet normal 0.248699 -0.968581 0
    outer loop
      vertex 0.772542 -2.37764 24
      vertex 0.468452 -2.45572 -24
      vertex 0.772542 -2.37764 -24
    endloop
  endfacet
  facet normal 0.684541 -0.728975 0
    outer loop
      vertex 1.59356 -1.92628 -24
      vertex 1.82242 -1.71137 24
      vertex 1.59356 -1.92628 24
    endloop
  endfacet
  facet normal 0.684541 -0.728975 0
    outer loop
      vertex 1.82242 -1.71137 24
      vertex 1.59356 -1.92628 -24
      vertex 1.82242 -1.71137 -24
    endloop
  endfacet
  facet normal 0.982287 -0.187385 0
    outer loop
      vertex 2.42146 -0.621724 24
      vertex 2.48029 -0.313333 -24
      vertex 2.48029 -0.313333 24
    endloop
  endfacet
  facet normal 0.982287 -0.187385 0
    outer loop
      vertex 2.48029 -0.313333 -24
      vertex 2.42146 -0.621724 24
      vertex 2.42146 -0.621724 -24
    endloop
  endfacet
  facet normal 0.844321 -0.535838 0
    outer loop
      vertex 2.02254 -1.46946 24
      vertex 2.19077 -1.20438 -24
      vertex 2.19077 -1.20438 24
    endloop
  endfacet
  facet normal 0.844321 -0.535838 0
    outer loop
      vertex 2.19077 -1.20438 -24
      vertex 2.02254 -1.46946 24
      vertex 2.02254 -1.46946 -24
    endloop
  endfacet
  facet normal -0.125338 -0.992114 0
    outer loop
      vertex -0.468452 -2.45572 -24
      vertex -0.156976 -2.49507 24
      vertex -0.468452 -2.45572 24
    endloop
  endfacet
  facet normal -0.125338 -0.992114 -0
    outer loop
      vertex -0.156976 -2.49507 24
      vertex -0.468452 -2.45572 -24
      vertex -0.156976 -2.49507 -24
    endloop
  endfacet
  facet normal -0.481757 -0.876305 0
    outer loop
      vertex -1.33957 -2.11082 -24
      vertex -1.06445 -2.26207 24
      vertex -1.33957 -2.11082 24
    endloop
  endfacet
  facet normal -0.481757 -0.876305 -0
    outer loop
      vertex -1.06445 -2.26207 24
      vertex -1.33957 -2.11082 -24
      vertex -1.06445 -2.26207 -24
    endloop
  endfacet
  facet normal 0.587797 -0.809009 0
    outer loop
      vertex 1.33957 -2.11082 -24
      vertex 1.59356 -1.92628 24
      vertex 1.33957 -2.11082 24
    endloop
  endfacet
  facet normal 0.587797 -0.809009 0
    outer loop
      vertex 1.59356 -1.92628 24
      vertex 1.33957 -2.11082 -24
      vertex 1.59356 -1.92628 -24
    endloop
  endfacet
  facet normal -0.587797 -0.809009 0
    outer loop
      vertex -1.59356 -1.92628 -24
      vertex -1.33957 -2.11082 24
      vertex -1.59356 -1.92628 24
    endloop
  endfacet
  facet normal -0.587797 -0.809009 -0
    outer loop
      vertex -1.33957 -2.11082 24
      vertex -1.59356 -1.92628 -24
      vertex -1.33957 -2.11082 -24
    endloop
  endfacet
  facet normal -0.368112 -0.929781 0
    outer loop
      vertex -1.06445 -2.26207 -24
      vertex -0.772542 -2.37764 24
      vertex -1.06445 -2.26207 24
    endloop
  endfacet
  facet normal -0.368112 -0.929781 -0
    outer loop
      vertex -0.772542 -2.37764 24
      vertex -1.06445 -2.26207 -24
      vertex -0.772542 -2.37764 -24
    endloop
  endfacet
  facet normal -0.844327 -0.535829 0
    outer loop
      vertex 1.75261 0.963507 -24
      vertex 1.61803 1.17557 24
      vertex 1.61803 1.17557 -24
    endloop
  endfacet
  facet normal -0.844327 -0.535829 0
    outer loop
      vertex 1.61803 1.17557 24
      vertex 1.75261 0.963507 -24
      vertex 1.75261 0.963507 24
    endloop
  endfacet
  facet normal -0.368128 -0.929775 0
    outer loop
      vertex 0.618033 1.90211 -24
      vertex 0.851558 1.80965 24
      vertex 0.618033 1.90211 24
    endloop
  endfacet
  facet normal -0.368128 -0.929775 -0
    outer loop
      vertex 0.851558 1.80965 24
      vertex 0.618033 1.90211 -24
      vertex 0.851558 1.80965 -24
    endloop
  endfacet
  facet normal 0.368128 -0.929775 0
    outer loop
      vertex -0.851558 1.80965 -24
      vertex -0.618033 1.90211 24
      vertex -0.851558 1.80965 24
    endloop
  endfacet
  facet normal 0.368128 -0.929775 0
    outer loop
      vertex -0.618033 1.90211 24
      vertex -0.851558 1.80965 -24
      vertex -0.618033 1.90211 -24
    endloop
  endfacet
  facet normal 0.904826 -0.425781 0
    outer loop
      vertex -1.85955 0.736249 24
      vertex -1.75261 0.963507 -24
      vertex -1.75261 0.963507 24
    endloop
  endfacet
  facet normal 0.904826 -0.425781 0
    outer loop
      vertex -1.75261 0.963507 -24
      vertex -1.85955 0.736249 24
      vertex -1.85955 0.736249 -24
    endloop
  endfacet
  facet normal -0.982289 0.18737 0
    outer loop
      vertex 1.93717 -0.497379 -24
      vertex 1.98423 -0.250666 24
      vertex 1.98423 -0.250666 -24
    endloop
  endfacet
  facet normal -0.982289 0.18737 0
    outer loop
      vertex 1.98423 -0.250666 24
      vertex 1.93717 -0.497379 -24
      vertex 1.93717 -0.497379 24
    endloop
  endfacet
  facet normal -0.684562 -0.728955 0
    outer loop
      vertex 1.27485 1.54103 -24
      vertex 1.45794 1.36909 24
      vertex 1.27485 1.54103 24
    endloop
  endfacet
  facet normal -0.684562 -0.728955 -0
    outer loop
      vertex 1.45794 1.36909 24
      vertex 1.27485 1.54103 -24
      vertex 1.45794 1.36909 -24
    endloop
  endfacet
  facet normal 0 -1 0
    outer loop
      vertex -0.125581 1.99605 -24
      vertex 0.125581 1.99605 24
      vertex -0.125581 1.99605 24
    endloop
  endfacet
  facet normal 0 -1 -0
    outer loop
      vertex 0.125581 1.99605 24
      vertex -0.125581 1.99605 -24
      vertex 0.125581 1.99605 -24
    endloop
  endfacet
  facet normal -0.58775 -0.809042 0
    outer loop
      vertex 1.07165 1.68865 -24
      vertex 1.27485 1.54103 24
      vertex 1.07165 1.68865 24
    endloop
  endfacet
  facet normal -0.58775 -0.809042 -0
    outer loop
      vertex 1.27485 1.54103 24
      vertex 1.07165 1.68865 -24
      vertex 1.27485 1.54103 -24
    endloop
  endfacet
  facet normal 0.77052 -0.637415 0
    outer loop
      vertex -1.61803 1.17557 24
      vertex -1.45794 1.36909 -24
      vertex -1.45794 1.36909 24
    endloop
  endfacet
  facet normal 0.77052 -0.637415 0
    outer loop
      vertex -1.45794 1.36909 -24
      vertex -1.61803 1.17557 24
      vertex -1.61803 1.17557 -24
    endloop
  endfacet
  facet normal 0.481764 -0.876301 0
    outer loop
      vertex -1.07165 1.68865 -24
      vertex -0.851558 1.80965 24
      vertex -1.07165 1.68865 24
    endloop
  endfacet
  facet normal 0.481764 -0.876301 0
    outer loop
      vertex -0.851558 1.80965 24
      vertex -1.07165 1.68865 -24
      vertex -0.851558 1.80965 -24
    endloop
  endfacet
  facet normal 0.248686 -0.968584 0
    outer loop
      vertex -0.618033 1.90211 -24
      vertex -0.374763 1.96457 24
      vertex -0.618033 1.90211 24
    endloop
  endfacet
  facet normal 0.248686 -0.968584 0
    outer loop
      vertex -0.374763 1.96457 24
      vertex -0.618033 1.90211 -24
      vertex -0.374763 1.96457 -24
    endloop
  endfacet
  facet normal -0.998027 -0.0627883 0
    outer loop
      vertex 2 0 -24
      vertex 1.98423 0.250666 24
      vertex 1.98423 0.250666 -24
    endloop
  endfacet
  facet normal -0.998027 -0.0627883 0
    outer loop
      vertex 1.98423 0.250666 24
      vertex 2 0 -24
      vertex 2 0 24
    endloop
  endfacet
  facet normal 0.684562 0.728955 -0
    outer loop
      vertex -1.27485 -1.54103 -24
      vertex -1.45794 -1.36909 24
      vertex -1.27485 -1.54103 24
    endloop
  endfacet
  facet normal 0.684562 0.728955 0
    outer loop
      vertex -1.45794 -1.36909 24
      vertex -1.27485 -1.54103 -24
      vertex -1.45794 -1.36909 -24
    endloop
  endfacet
  facet normal 0.904826 0.425781 0
    outer loop
      vertex -1.75261 -0.963507 24
      vertex -1.85955 -0.736249 -24
      vertex -1.85955 -0.736249 24
    endloop
  endfacet
  facet normal 0.904826 0.425781 0
    outer loop
      vertex -1.85955 -0.736249 -24
      vertex -1.75261 -0.963507 24
      vertex -1.75261 -0.963507 -24
    endloop
  endfacet
  facet normal -0.481764 0.876301 0
    outer loop
      vertex 1.07165 -1.68865 -24
      vertex 0.851558 -1.80965 24
      vertex 1.07165 -1.68865 24
    endloop
  endfacet
  facet normal -0.481764 0.876301 0
    outer loop
      vertex 0.851558 -1.80965 24
      vertex 1.07165 -1.68865 -24
      vertex 0.851558 -1.80965 -24
    endloop
  endfacet
  facet normal -0.77052 -0.637415 0
    outer loop
      vertex 1.61803 1.17557 -24
      vertex 1.45794 1.36909 24
      vertex 1.45794 1.36909 -24
    endloop
  endfacet
  facet normal -0.77052 -0.637415 0
    outer loop
      vertex 1.45794 1.36909 24
      vertex 1.61803 1.17557 -24
      vertex 1.61803 1.17557 24
    endloop
  endfacet
  facet normal -0.248686 -0.968584 0
    outer loop
      vertex 0.374763 1.96457 -24
      vertex 0.618033 1.90211 24
      vertex 0.374763 1.96457 24
    endloop
  endfacet
  facet normal -0.248686 -0.968584 -0
    outer loop
      vertex 0.618033 1.90211 24
      vertex 0.374763 1.96457 -24
      vertex 0.618033 1.90211 -24
    endloop
  endfacet
  facet normal -0.125337 -0.992114 0
    outer loop
      vertex 0.125581 1.99605 -24
      vertex 0.374763 1.96457 24
      vertex 0.125581 1.99605 24
    endloop
  endfacet
  facet normal -0.125337 -0.992114 -0
    outer loop
      vertex 0.374763 1.96457 24
      vertex 0.125581 1.99605 -24
      vertex 0.374763 1.96457 -24
    endloop
  endfacet
  facet normal -0.481764 -0.876301 0
    outer loop
      vertex 0.851558 1.80965 -24
      vertex 1.07165 1.68865 24
      vertex 0.851558 1.80965 24
    endloop
  endfacet
  facet normal -0.481764 -0.876301 -0
    outer loop
      vertex 1.07165 1.68865 24
      vertex 0.851558 1.80965 -24
      vertex 1.07165 1.68865 -24
    endloop
  endfacet
  facet normal 0.998027 -0.0627883 0
    outer loop
      vertex -2 0 24
      vertex -1.98423 0.250666 -24
      vertex -1.98423 0.250666 24
    endloop
  endfacet
  facet normal 0.998027 -0.0627883 0
    outer loop
      vertex -1.98423 0.250666 -24
      vertex -2 0 24
      vertex -2 0 -24
    endloop
  endfacet
  facet normal 0.951049 -0.30904 0
    outer loop
      vertex -1.93717 0.497379 24
      vertex -1.85955 0.736249 -24
      vertex -1.85955 0.736249 24
    endloop
  endfacet
  facet normal 0.951049 -0.30904 0
    outer loop
      vertex -1.85955 0.736249 -24
      vertex -1.93717 0.497379 24
      vertex -1.93717 0.497379 -24
    endloop
  endfacet
  facet normal 0.844327 -0.535829 0
    outer loop
      vertex -1.75261 0.963507 24
      vertex -1.61803 1.17557 -24
      vertex -1.61803 1.17557 24
    endloop
  endfacet
  facet normal 0.844327 -0.535829 0
    outer loop
      vertex -1.61803 1.17557 -24
      vertex -1.75261 0.963507 24
      vertex -1.75261 0.963507 -24
    endloop
  endfacet
  facet normal 0.125337 -0.992114 0
    outer loop
      vertex -0.374763 1.96457 -24
      vertex -0.125581 1.99605 24
      vertex -0.374763 1.96457 24
    endloop
  endfacet
  facet normal 0.125337 -0.992114 0
    outer loop
      vertex -0.125581 1.99605 24
      vertex -0.374763 1.96457 -24
      vertex -0.125581 1.99605 -24
    endloop
  endfacet
  facet normal 0.58775 -0.809042 0
    outer loop
      vertex -1.27485 1.54103 -24
      vertex -1.07165 1.68865 24
      vertex -1.27485 1.54103 24
    endloop
  endfacet
  facet normal 0.58775 -0.809042 0
    outer loop
      vertex -1.07165 1.68865 24
      vertex -1.27485 1.54103 -24
      vertex -1.07165 1.68865 -24
    endloop
  endfacet
  facet normal 0.684562 -0.728955 0
    outer loop
      vertex -1.45794 1.36909 -24
      vertex -1.27485 1.54103 24
      vertex -1.45794 1.36909 24
    endloop
  endfacet
  facet normal 0.684562 -0.728955 0
    outer loop
      vertex -1.27485 1.54103 24
      vertex -1.45794 1.36909 -24
      vertex -1.27485 1.54103 -24
    endloop
  endfacet
  facet normal -0.998027 0.0627883 0
    outer loop
      vertex 1.98423 -0.250666 -24
      vertex 2 0 24
      vertex 2 0 -24
    endloop
  endfacet
  facet normal -0.998027 0.0627883 0
    outer loop
      vertex 2 0 24
      vertex 1.98423 -0.250666 -24
      vertex 1.98423 -0.250666 24
    endloop
  endfacet
  facet normal -0.77052 0.637415 0
    outer loop
      vertex 1.45794 -1.36909 -24
      vertex 1.61803 -1.17557 24
      vertex 1.61803 -1.17557 -24
    endloop
  endfacet
  facet normal -0.77052 0.637415 0
    outer loop
      vertex 1.61803 -1.17557 24
      vertex 1.45794 -1.36909 -24
      vertex 1.45794 -1.36909 24
    endloop
  endfacet
  facet normal 0.844327 0.535829 0
    outer loop
      vertex -1.61803 -1.17557 24
      vertex -1.75261 -0.963507 -24
      vertex -1.75261 -0.963507 24
    endloop
  endfacet
  facet normal 0.844327 0.535829 0
    outer loop
      vertex -1.75261 -0.963507 -24
      vertex -1.61803 -1.17557 24
      vertex -1.61803 -1.17557 -24
    endloop
  endfacet
  facet normal -0.125337 0.992114 0
    outer loop
      vertex 0.374763 -1.96457 -24
      vertex 0.125581 -1.99605 24
      vertex 0.374763 -1.96457 24
    endloop
  endfacet
  facet normal -0.125337 0.992114 0
    outer loop
      vertex 0.125581 -1.99605 24
      vertex 0.374763 -1.96457 -24
      vertex 0.125581 -1.99605 -24
    endloop
  endfacet
  facet normal -0.58775 0.809042 0
    outer loop
      vertex 1.27485 -1.54103 -24
      vertex 1.07165 -1.68865 24
      vertex 1.27485 -1.54103 24
    endloop
  endfacet
  facet normal -0.58775 0.809042 0
    outer loop
      vertex 1.07165 -1.68865 24
      vertex 1.27485 -1.54103 -24
      vertex 1.07165 -1.68865 -24
    endloop
  endfacet
  facet normal -0.904826 -0.425781 0
    outer loop
      vertex 1.85955 0.736249 -24
      vertex 1.75261 0.963507 24
      vertex 1.75261 0.963507 -24
    endloop
  endfacet
  facet normal -0.904826 -0.425781 0
    outer loop
      vertex 1.75261 0.963507 24
      vertex 1.85955 0.736249 -24
      vertex 1.85955 0.736249 24
    endloop
  endfacet
  facet normal -0.951049 -0.30904 0
    outer loop
      vertex 1.93717 0.497379 -24
      vertex 1.85955 0.736249 24
      vertex 1.85955 0.736249 -24
    endloop
  endfacet
  facet normal -0.951049 -0.30904 0
    outer loop
      vertex 1.85955 0.736249 24
      vertex 1.93717 0.497379 -24
      vertex 1.93717 0.497379 24
    endloop
  endfacet
  facet normal -0.982289 -0.18737 0
    outer loop
      vertex 1.98423 0.250666 -24
      vertex 1.93717 0.497379 24
      vertex 1.93717 0.497379 -24
    endloop
  endfacet
  facet normal -0.982289 -0.18737 0
    outer loop
      vertex 1.93717 0.497379 24
      vertex 1.98423 0.250666 -24
      vertex 1.98423 0.250666 24
    endloop
  endfacet
  facet normal 0.982289 -0.18737 0
    outer loop
      vertex -1.98423 0.250666 24
      vertex -1.93717 0.497379 -24
      vertex -1.93717 0.497379 24
    endloop
  endfacet
  facet normal 0.982289 -0.18737 0
    outer loop
      vertex -1.93717 0.497379 -24
      vertex -1.98423 0.250666 24
      vertex -1.98423 0.250666 -24
    endloop
  endfacet
  facet normal -0.904826 0.425781 0
    outer loop
      vertex 1.75261 -0.963507 -24
      vertex 1.85955 -0.736249 24
      vertex 1.85955 -0.736249 -24
    endloop
  endfacet
  facet normal -0.904826 0.425781 0
    outer loop
      vertex 1.85955 -0.736249 24
      vertex 1.75261 -0.963507 -24
      vertex 1.75261 -0.963507 24
    endloop
  endfacet
  facet normal -0.951049 0.30904 0
    outer loop
      vertex 1.85955 -0.736249 -24
      vertex 1.93717 -0.497379 24
      vertex 1.93717 -0.497379 -24
    endloop
  endfacet
  facet normal -0.951049 0.30904 0
    outer loop
      vertex 1.93717 -0.497379 24
      vertex 1.85955 -0.736249 -24
      vertex 1.85955 -0.736249 24
    endloop
  endfacet
  facet normal -0.844327 0.535829 0
    outer loop
      vertex 1.61803 -1.17557 -24
      vertex 1.75261 -0.963507 24
      vertex 1.75261 -0.963507 -24
    endloop
  endfacet
  facet normal -0.844327 0.535829 0
    outer loop
      vertex 1.75261 -0.963507 24
      vertex 1.61803 -1.17557 -24
      vertex 1.61803 -1.17557 24
    endloop
  endfacet
  facet normal 0.481764 0.876301 -0
    outer loop
      vertex -0.851558 -1.80965 -24
      vertex -1.07165 -1.68865 24
      vertex -0.851558 -1.80965 24
    endloop
  endfacet
  facet normal 0.481764 0.876301 0
    outer loop
      vertex -1.07165 -1.68865 24
      vertex -0.851558 -1.80965 -24
      vertex -1.07165 -1.68865 -24
    endloop
  endfacet
  facet normal 0 1 -0
    outer loop
      vertex 0.125581 -1.99605 -24
      vertex -0.125581 -1.99605 24
      vertex 0.125581 -1.99605 24
    endloop
  endfacet
  facet normal 0 1 0
    outer loop
      vertex -0.125581 -1.99605 24
      vertex 0.125581 -1.99605 -24
      vertex -0.125581 -1.99605 -24
    endloop
  endfacet
  facet normal 0.998027 0.0627883 0
    outer loop
      vertex -1.98423 -0.250666 24
      vertex -2 0 -24
      vertex -2 0 24
    endloop
  endfacet
  facet normal 0.998027 0.0627883 0
    outer loop
      vertex -2 0 -24
      vertex -1.98423 -0.250666 24
      vertex -1.98423 -0.250666 -24
    endloop
  endfacet
  facet normal 0.951049 0.30904 0
    outer loop
      vertex -1.85955 -0.736249 24
      vertex -1.93717 -0.497379 -24
      vertex -1.93717 -0.497379 24
    endloop
  endfacet
  facet normal 0.951049 0.30904 0
    outer loop
      vertex -1.93717 -0.497379 -24
      vertex -1.85955 -0.736249 24
      vertex -1.85955 -0.736249 -24
    endloop
  endfacet
  facet normal 0.77052 0.637415 0
    outer loop
      vertex -1.45794 -1.36909 24
      vertex -1.61803 -1.17557 -24
      vertex -1.61803 -1.17557 24
    endloop
  endfacet
  facet normal 0.77052 0.637415 0
    outer loop
      vertex -1.61803 -1.17557 -24
      vertex -1.45794 -1.36909 24
      vertex -1.45794 -1.36909 -24
    endloop
  endfacet
  facet normal -0.368128 0.929775 0
    outer loop
      vertex 0.851558 -1.80965 -24
      vertex 0.618033 -1.90211 24
      vertex 0.851558 -1.80965 24
    endloop
  endfacet
  facet normal -0.368128 0.929775 0
    outer loop
      vertex 0.618033 -1.90211 24
      vertex 0.851558 -1.80965 -24
      vertex 0.618033 -1.90211 -24
    endloop
  endfacet
  facet normal -0.248686 0.968584 0
    outer loop
      vertex 0.618033 -1.90211 -24
      vertex 0.374763 -1.96457 24
      vertex 0.618033 -1.90211 24
    endloop
  endfacet
  facet normal -0.248686 0.968584 0
    outer loop
      vertex 0.374763 -1.96457 24
      vertex 0.618033 -1.90211 -24
      vertex 0.374763 -1.96457 -24
    endloop
  endfacet
  facet normal -0.684562 0.728955 0
    outer loop
      vertex 1.45794 -1.36909 -24
      vertex 1.27485 -1.54103 24
      vertex 1.45794 -1.36909 24
    endloop
  endfacet
  facet normal -0.684562 0.728955 0
    outer loop
      vertex 1.27485 -1.54103 24
      vertex 1.45794 -1.36909 -24
      vertex 1.27485 -1.54103 -24
    endloop
  endfacet
  facet normal 0.125337 0.992114 -0
    outer loop
      vertex -0.125581 -1.99605 -24
      vertex -0.374763 -1.96457 24
      vertex -0.125581 -1.99605 24
    endloop
  endfacet
  facet normal 0.125337 0.992114 0
    outer loop
      vertex -0.374763 -1.96457 24
      vertex -0.125581 -1.99605 -24
      vertex -0.374763 -1.96457 -24
    endloop
  endfacet
  facet normal 0.248686 0.968584 -0
    outer loop
      vertex -0.374763 -1.96457 -24
      vertex -0.618033 -1.90211 24
      vertex -0.374763 -1.96457 24
    endloop
  endfacet
  facet normal 0.248686 0.968584 0
    outer loop
      vertex -0.618033 -1.90211 24
      vertex -0.374763 -1.96457 -24
      vertex -0.618033 -1.90211 -24
    endloop
  endfacet
  facet normal 0.58775 0.809042 -0
    outer loop
      vertex -1.07165 -1.68865 -24
      vertex -1.27485 -1.54103 24
      vertex -1.07165 -1.68865 24
    endloop
  endfacet
  facet normal 0.58775 0.809042 0
    outer loop
      vertex -1.27485 -1.54103 24
      vertex -1.07165 -1.68865 -24
      vertex -1.27485 -1.54103 -24
    endloop
  endfacet
  facet normal 0.982289 0.18737 0
    outer loop
      vertex -1.93717 -0.497379 24
      vertex -1.98423 -0.250666 -24
      vertex -1.98423 -0.250666 24
    endloop
  endfacet
  facet normal 0.982289 0.18737 0
    outer loop
      vertex -1.98423 -0.250666 -24
      vertex -1.93717 -0.497379 24
      vertex -1.93717 -0.497379 -24
    endloop
  endfacet
  facet normal 0.368128 0.929775 -0
    outer loop
      vertex -0.618033 -1.90211 -24
      vertex -0.851558 -1.80965 24
      vertex -0.618033 -1.90211 24
    endloop
  endfacet
  facet normal 0.368128 0.929775 0
    outer loop
      vertex -0.851558 -1.80965 24
      vertex -0.618033 -1.90211 -24
      vertex -0.851558 -1.80965 -24
    endloop
  endfacet
endsolid OpenSCAD_Model
